<svg xmlns="http://www.w3.org/2000/svg" width="32" height="32" viewBox="0 0 32 32">
    <defs>
        <clipPath id="a">
            <path d="M0 24h24V0H0z"/>
        </clipPath>
    </defs>
    <path fill="red" d="M14.667 1.33h2.666v6.377h-2.666zM20.92 9.192l4.507-4.508 1.887 1.885-4.508 4.508zM24.292 14.664h6.375v2.667h-6.375zM20.92 22.803l1.886-1.888 4.508 4.51-1.887 1.886zM14.665 24.29h2.667v6.375h-2.667zM4.686 25.426l4.508-4.508 1.885 1.886-4.508 4.508zM1.333 14.667H7.71v2.666H1.333zM4.684 6.57l1.888-1.886 4.506 4.506-1.884 1.888z"/>
    <g clip-path="url(#a)" transform="matrix(1.33333 0 0 -1.33333 0 32)">
        <path fill="red" d="M16.875 12.001A4.875 4.875 0 1 1 7.124 12a4.875 4.875 0 0 1 9.751.001"/>
    </g>
</svg>
