<svg xmlns="http://www.w3.org/2000/svg" width="32" height="32" viewBox="0 0 32 32">
    <defs>
        <clipPath id="a">
            <path d="M0 24h24V0H0z"/>
        </clipPath>
    </defs>
    <g clip-path="url(#a)" transform="matrix(1.33333 0 0 -1.33333 0 32)">
        <path fill="#00f" d="M6.34 16.82c0-1.106.43-2.125 1.168-2.96L8 13.308l-.61-.415C5.617 11.685 4.52 9.87 4.522 7.995 4.531 4.815 7.736 2.32 12 2.308c4.262.013 7.467 2.507 7.475 5.687.002 1.875-1.096 3.69-2.865 4.897l-.613.415.492.554c.741.834 1.17 1.853 1.171 2.96-.006 2.627-2.47 4.875-5.66 4.878-3.19-.003-5.655-2.251-5.66-4.878M3.221 7.995c.004 2.169 1.131 4.16 2.874 5.556a5.658 5.658 0 0 0-1.058 3.27C5.052 20.304 8.218 22.994 12 23c3.781-.007 6.947-2.697 6.96-6.18.001-1.204-.395-2.328-1.059-3.27 1.742-1.396 2.871-3.387 2.873-5.556-.024-4.154-4.063-6.98-8.774-6.99-4.714.01-8.753 2.836-8.778 6.99"/>
        <path fill="#00f" d="M10.779 18.123a.875.875 0 1 1-1.75-.001.875.875 0 0 1 1.75 0M13.22 18.123a.875.875 0 1 0 1.751-.001.875.875 0 0 0-1.75 0M10.188 15.71h3.625v-1.3h-3.625z"/>
    </g>
</svg>
