<svg xmlns="http://www.w3.org/2000/svg" width="32" height="32" viewBox="0 0 32 32">
    <defs>
        <clipPath id="a">
            <path d="M0 24h24V0H0z"/>
        </clipPath>
    </defs>
    <g clip-path="url(#a)" transform="matrix(1.33333 0 0 -1.33333 0 32)">
        <path fill="#00f" d="M5.924 3.384c-2.06 1.857-3.11 4.412-3.111 6.87 0 1.984.69 3.92 2.116 5.345 1.762 1.764 3.964 2.67 6.105 2.67a7.176 7.176 0 0 0 4.489-1.548c1.648-1.305 2.397-3.203 2.395-5.002-.002-1.556-.55-3.066-1.598-4.116C15.098 6.38 13.597 5.8 12.174 5.8c-1.085 0-2.128.334-2.966.97-1.12.848-1.693 2.042-1.693 3.197 0 .78.266 1.549.783 2.153a2.974 2.974 0 0 0 2.287 1.079c.864-.001 1.703-.37 2.338-1.002v-.002l-.867-.866c-.42.419-.961.644-1.471.644-.49-.004-.952-.186-1.353-.651a2.062 2.062 0 0 1-.49-1.355c.002-.751.368-1.58 1.207-2.218.614-.466 1.392-.72 2.225-.72 1.09 0 2.273.439 3.28 1.44.778.775 1.238 1.98 1.236 3.25-.002 1.47-.6 2.987-1.931 4.04a5.932 5.932 0 0 1-3.725 1.282c-1.795 0-3.687-.758-5.238-2.31-1.167-1.167-1.757-2.774-1.757-4.477 0-2.111.91-4.343 2.706-5.958 1.51-1.358 3.463-2.066 5.494-2.068 2.298.002 4.687.912 6.62 2.838 1.606 1.609 2.39 3.819 2.39 6.138.002 2.806-1.16 5.743-3.345 7.838-1.894 1.815-4.391 2.73-6.994 2.73-2.978 0-6.083-1.202-8.516-3.641l-.87.868c2.663 2.667 6.079 4 9.386 4 2.89 0 5.706-1.022 7.844-3.072a12.203 12.203 0 0 0 3.722-8.723c.002-2.591-.88-5.134-2.75-7.006C17.57 2.047 14.863 1 12.24 1c-2.315 0-4.568.813-6.315 2.384"/>
    </g>
</svg>
