<svg xmlns="http://www.w3.org/2000/svg" width="32" height="32" viewBox="0 0 32 32">
    <defs>
        <clipPath id="a">
            <path d="M0 24h24V0H0z"/>
        </clipPath>
    </defs>
    <g clip-path="url(#a)" transform="matrix(1.33333 0 0 -1.33333 0 32)">
        <path fill="#00f" d="M16.893 15.69a36.958 36.958 0 0 0-.23-1.793 71.627 71.627 0 0 0-.385-2.254 61.435 61.435 0 0 0-1.332-4.784c-.542-1.7-1.111-2.915-1.702-3.65V.999h-1.228v2.21c-.612.735-1.196 1.947-1.75 3.634a48.61 48.61 0 0 0-1.316 4.8 52.354 52.354 0 0 0-.37 2.099 35.046 35.046 0 0 0-.245 1.948h1.228v1.228h1.226V15.69h1.227v4.264c0 .592-.164 1.042-.49 1.35-.328.306-.777.459-1.35.459-.675 0-1.145-.143-1.411-.43-.266-.286-.41-.755-.43-1.41H7.109c0 .96.266 1.712.797 2.254.532.54 1.289.813 2.27.813.9 0 1.636-.276 2.208-.828.572-.552.86-1.288.86-2.208V15.69h1.226v1.228h1.195V15.69z"/>
    </g>
</svg>
