<svg xmlns="http://www.w3.org/2000/svg" width="32" height="32" viewBox="0 0 32 32">
    <defs>
        <clipPath id="a">
            <path d="M0 24h24V0H0z"/>
        </clipPath>
    </defs>
    <g clip-path="url(#a)" transform="matrix(1.33333 0 0 -1.33333 0 32)">
        <path fill="#00f" d="M18.697 5.318c-1.803-1.793-3.96-2.688-6.476-2.688a8.956 8.956 0 0 0-5.097 1.543 9.059 9.059 0 0 0-3.372 4.102 8.239 8.239 0 0 1 2.704-1.797 8.277 8.277 0 0 1 3.208-.639c2.358 0 4.37.833 6.031 2.495 1.664 1.664 2.496 3.664 2.496 6.001a8.35 8.35 0 0 1-.639 3.208 8.23 8.23 0 0 1-1.796 2.704 9.044 9.044 0 0 0 4.1-3.37 8.923 8.923 0 0 0 1.542-5.068c0-2.536-.9-4.698-2.7-6.49m-16.4 13.313h3.264l1.016 3.094.975-3.094h3.265l-2.627-1.907.973-3.095-2.586 1.951-2.669-1.95 1.018 3.094zM21.348 23H2.65a1.654 1.654 0 0 1-1.654-1.653V2.65c0-.912.74-1.65 1.654-1.65h18.696a1.65 1.65 0 0 1 1.651 1.65v18.696c0 .912-.737 1.653-1.65 1.653"/>
    </g>
</svg>
