<svg xmlns="http://www.w3.org/2000/svg" width="32" height="32" viewBox="0 0 32 32">
    <defs>
        <clipPath id="a">
            <path d="M0 24h24V0H0z"/>
        </clipPath>
    </defs>
    <g clip-path="url(#a)" transform="matrix(1.33333 0 0 -1.33333 0 32)">
        <path fill="red" d="M9.196 14.666a4.105 4.105 0 0 0 5.169 2.642 4.098 4.098 0 0 0 2.638-5.166 4.1 4.1 0 0 0-5.164-2.645 4.101 4.101 0 0 0-2.643 5.169M14.263 19.112l1.049 3.239 1.238-.401-1.05-3.24zM8.337 21.293l1.16.592 1.55-3.03-1.16-.593zM17.957 16.62l3.033 1.545.591-1.157-3.033-1.548zM18.405 11.005l.401 1.237 3.238-1.049-.402-1.237zM4.157 15.612l.399 1.237L7.795 15.8l-.4-1.235z"/>
        <path fill="red" d="M21.438 8.656c-1.06.717-2.701.78-3.854 0l-4.59-3.11c-3.184 3.31-7.112 7.377-8.13 8.365C3.837 14.913 2.368 15.265 1 15.095V1h22v6.597c-.78.528-1.352.916-1.562 1.06"/>
    </g>
</svg>
