<svg xmlns="http://www.w3.org/2000/svg" width="32" height="32" viewBox="0 0 32 32">
    <defs>
        <clipPath id="a">
            <path d="M0 24h24V0H0z"/>
        </clipPath>
    </defs>
    <path fill="red" d="M15.13 3.705h1.735V8.38H15.13zM21.003 10.093l3.304-3.308 1.226 1.225-3.301 3.306zM23.944 15.455h4.673v1.734h-4.673zM3.383 15.456h4.67v1.735h-4.67zM6.464 8.01l1.228-1.225 3.3 3.308-1.223 1.225z"/>
    <g clip-path="url(#a)" transform="matrix(1.33333 0 0 -1.33333 0 32)">
        <path fill="red" d="M16.227 11.758a4.228 4.228 0 0 1-4.23 4.225 4.225 4.225 0 0 1-4.224-4.225c0-.764.219-1.471.574-2.09h7.305c.355.619.575 1.326.575 2.09M15.651 9.668c-.729-1.27-2.085-2.135-3.653-2.135-1.569 0-2.922.865-3.652 2.135H1V2.65C1 1.738 1.738 1 2.652 1H21.35A1.65 1.65 0 0 1 23 2.65v7.018z"/>
    </g>
</svg>
