<svg xmlns="http://www.w3.org/2000/svg" width="32" height="32" viewBox="0 0 32 32">
    <defs>
        <clipPath id="a">
            <path d="M0 24h24V0H0z"/>
        </clipPath>
    </defs>
    <path fill="red" d="M4.347 19.852H2.929v1.417h1.418zM8.601 19.852H7.184v1.417h1.417zM4.347 24.107H2.929v1.417h1.418zM8.601 24.107H7.184v1.417h1.417zM4.347 28.361H2.929v1.418h1.418zM8.601 28.361H7.184v1.418h1.417zM13.21 24.107h-1.418v1.417h1.417zM17.465 24.107h-1.418v1.417h1.418zM13.21 28.361h-1.418v1.418h1.417zM17.465 28.361h-1.418v1.418h1.418z"/>
    <g clip-path="url(#a)" transform="matrix(1.33333 0 0 -1.33333 0 32)">
        <path fill="red" d="M23 13.229v1.795c-.543.043-1.021.086-1.407.124v-.176h-2.385v-1.155h2.385v-.463A67.97 67.97 0 0 1 23 13.229M4.919 14.73c-1.221 0-2.531.02-3.92.064v-1.797c1.39-.045 2.699-.065 3.92-.065 4.465 0 7.727.255 9.387.421v.463h2.384v1.155h-2.384v.176c-1.7-.168-4.96-.417-9.387-.417M16.69 1.001v11.535h-2.385v.173c-1.699-.169-4.96-.419-9.387-.419-1.22 0-2.53.02-3.918.065v-1.623h6.647v-3.19h6.647V1.001zM23 2.651v9.935c-.543.043-1.021.086-1.407.124v-.174h-2.385V1.001h2.142c.912 0 1.65.738 1.65 1.65M13.008 17.908c-1.227.283-1.756-.41-1.776-.438v-.004l-.003.002-.002-.002v.004c-.021.027-.55.721-1.778.438-.983-.227-1.526.573-.614.573.914 0 1.337.951 2.394-.157 1.057 1.108 1.48.157 2.394.157.913 0 .368-.8-.615-.573m-5.2 2.38c-1.227.282-1.756-.412-1.776-.439v-.003l-.002.001h-.003v.002c-.02.027-.55.721-1.777.438-.983-.227-1.525.573-.614.573.914 0 1.336.952 2.394-.158 1.057 1.11 1.479.158 2.393.158.913 0 .369-.8-.614-.573m13.54 2.714H2.652A1.65 1.65 0 0 1 1 21.351v-5.918a115.5 115.5 0 0 1 3.919-.063c4.465 0 7.727.253 9.387.42v.464h2.384v2.083h2.518v-2.083h2.385v-.462c.382-.038.859-.082 1.407-.126v5.684a1.65 1.65 0 0 1-1.65 1.651"/>
    </g>
</svg>
