<svg xmlns="http://www.w3.org/2000/svg" width="32" height="32" viewBox="0 0 32 32">
    <defs>
        <clipPath id="a">
            <path d="M0 24h24V0H0z"/>
        </clipPath>
    </defs>
    <path fill="red" d="M10.327 19.87H8.909v1.417h1.418zM13.517 19.87h1.418v1.417h-1.418zM3.768 24.125H2.351v1.418h1.417zM10.327 24.125H8.909v1.418h1.418zM3.768 28.379H2.351v1.417h1.417zM10.327 28.379H8.909v1.417h1.418zM14.935 24.125h-1.418v1.418h1.418zM14.935 28.379h-1.418v1.417h1.418zM25.396 24.125h-1.419v1.418h1.419zM25.396 28.379h-1.419v1.417h1.419zM29.65 24.125h-1.418v1.418h1.419zM29.65 28.379h-1.418v1.417h1.419zM25.396 19.87h-1.419v1.418h1.419z"/>
    <path fill="red" d="M25.396 24.125h-1.419v1.418h1.419zM29.65 19.87h-1.418v1.418h1.419zM25.396 15.617h-1.419v1.418h1.419zM29.65 15.617h-1.418v1.418h1.419zM29.65 24.125h-1.418v1.418h1.419z"/>
    <g clip-path="url(#a)" transform="matrix(1.33333 0 0 -1.33333 0 32)">
        <path fill="red" d="M13.145 7.781h2.449v2.787a5.319 5.319 0 0 0-2.45-1.282zM15.235 21.451l.241.01.005.098c.014.396.916.73 2.067.731 1.036 0 1.868-.27 2.036-.612l.042-.087.217-.003c1.356-.019 2.38-.38 2.37-.787-.002-.419-1.067-.79-2.473-.792-.924 0-1.713.167-2.133.4l-.199.11-.227-.102c-.369-.163-.977-.277-1.675-.277-1.182.001-2.069.315-2.07.661-.009.318.747.604 1.8.65M4.737 10.72h3.483a5.345 5.345 0 0 0-1.582 3.804 5.361 5.361 0 0 0 10.72 0c0-.21-.038-.41-.062-.615H23v8.093c0 .55-.45 1-1 1H2c-.55 0-1-.45-1-1v-1.13c.673-.094 1.17-.31 1.294-.564l.042-.087.218-.002c1.355-.019 2.38-.38 2.37-.788-.003-.418-1.067-.79-2.474-.792-.552 0-1.044.064-1.45.162v-5.127c.278.051.59.082.926.083 1.036 0 1.868-.272 2.036-.614l.042-.086.218-.002c1.356-.019 2.38-.38 2.37-.789-.003-.418-1.067-.79-2.474-.79-.924-.002-1.713.165-2.133.398l-.199.11-.226-.1a2.894 2.894 0 0 0-.56-.166V7.781h3.738z"/>
    </g>
</svg>
