<svg xmlns="http://www.w3.org/2000/svg" width="32" height="32" viewBox="0 0 32 32">
    <defs>
        <clipPath id="a">
            <path d="M0 24h24V0H0z"/>
        </clipPath>
    </defs>
    <path fill="red" d="M14.325 2.688H12.64v4.497h1.685zM22.673 6.842L21.481 5.65l-3.18 3.182 1.188 1.19zM5.83 13.996H1.333v1.685h4.499zM8.667 8.832l-3.18-3.181-1.19 1.19 3.179 3.182z"/>
    <g clip-path="url(#a)" transform="matrix(1.33333 0 0 -1.33333 0 32)">
        <path fill="red" d="M14.177 12.87a4.063 4.063 0 1 1-8.126.002 4.063 4.063 0 0 1 8.126-.002"/>
        <path fill="#00f" d="M16.632 13.595c-2.036-.001-3.845-.883-5.016-2.261a5.26 5.26 0 0 1-3.21 1.077c-2.748-.004-5.047-2.037-5.057-4.66.01-2.622 2.309-4.654 5.057-4.66a5.25 5.25 0 0 1 3.209 1.078c1.17-1.38 2.98-2.26 5.017-2.262 3.479.006 6.375 2.565 6.385 5.844-.01 3.277-2.906 5.838-6.385 5.844"/>
        <path fill="#e6e6e6" d="M4.691 7.75c.004-1.751 1.604-3.289 3.716-3.293 1.133 0 2.138.457 2.812 1.151l.608.622.476-.729c.856-1.309 2.464-2.228 4.33-2.228 2.835.005 5.016 2.073 5.022 4.477-.006 2.402-2.187 4.467-5.023 4.471-1.865.004-3.473-.914-4.329-2.227l-.479-.73-.607.626c-.672.694-1.677 1.151-2.81 1.151C6.295 11.034 4.695 9.5 4.691 7.75"/>
    </g>
</svg>
