<svg xmlns="http://www.w3.org/2000/svg" width="32" height="32" viewBox="0 0 32 32">
    <defs>
        <clipPath id="a">
            <path d="M0 24h24V0H0z"/>
        </clipPath>
    </defs>
    <g clip-path="url(#a)" transform="matrix(1.33333 0 0 -1.33333 0 32)">
        <path fill="#003c96" d="M21.793 8.46V6.167H23v1.074a7.002 7.002 0 0 0-1.207 1.219M2.208 8.462A7.05 7.05 0 0 0 1.001 7.24V6.167h1.207zM17.2 10.02V6.168h1.296v7.095a22.144 22.144 0 0 0-.37-1.14 17.071 17.071 0 0 0-.927-2.101M5.506 1h12.99v4.168H5.506zM19.863 12.122c-.139.383-.254.76-.367 1.135v-7.09h1.297v3.848c-.364.683-.67 1.402-.93 2.107M12 6.168c-1.803.02-3.163.969-4.197 2.292V6.167h8.395v2.295C15.163 7.137 13.803 6.188 12 6.168M5.874 12.122c-.14.383-.254.758-.368 1.133V6.167h1.297v3.851c-.364.682-.67 1.4-.929 2.104M4.506 13.263c-.115-.377-.23-.756-.371-1.141a16.83 16.83 0 0 0-.926-2.1V6.167h1.297zM21.35 1c.912 0 1.65.738 1.65 1.65v2.518h-3.504V1zM4.506 1v4.168H1V2.65C1 1.738 1.739 1 2.65 1z"/>
        <path fill="#003c96" d="M20.305 18.344c-.334 1.013-.604 1.366-1.373 1.804.769.437 1.039.792 1.373 1.804.332-1.012.602-1.367 1.373-1.804-.771-.438-1.041-.791-1.373-1.804m-4.982-2.663c-.334 1.013-.602 1.367-1.373 1.805.77.437 1.039.79 1.373 1.803.334-1.012.6-1.366 1.373-1.803-.772-.438-1.04-.792-1.373-1.805m-3.982-3.552c-.334 1.013-.602 1.366-1.373 1.804.77.437 1.039.792 1.373 1.805.333-1.013.602-1.368 1.373-1.805-.771-.438-1.04-.791-1.373-1.804m-3.23 7.185c.77.437 1.04.79 1.374 1.804.333-1.013.6-1.367 1.373-1.804-.772-.438-1.04-.791-1.373-1.805-.334 1.014-.603 1.367-1.373 1.805m-5.166-1.42c-.334 1.013-.603 1.367-1.373 1.804.77.438 1.039.792 1.373 1.805.333-1.013.6-1.367 1.373-1.805-.772-.437-1.04-.791-1.373-1.804M21.35 23H2.652A1.65 1.65 0 0 1 1 21.35V8.595c.933.994 1.659 2.398 2.195 3.87 1.006 2.743 1.312 5.5 1.312 5.507H5.5c.007-.004.308-2.764 1.313-5.507C7.826 9.687 9.509 7.133 12 7.169c2.49-.036 4.173 2.518 5.185 5.296 1.006 2.743 1.312 5.5 1.312 5.507h.994c.006-.004.305-2.764 1.313-5.507.535-1.473 1.262-2.878 2.195-3.872V21.35A1.65 1.65 0 0 1 21.35 23"/>
    </g>
</svg>
