<svg xmlns="http://www.w3.org/2000/svg" width="32" height="32" viewBox="0 0 32 32">
    <defs>
        <clipPath id="a">
            <path d="M0 24h24V0H0z"/>
        </clipPath>
    </defs>
    <g clip-path="url(#a)" transform="matrix(1.33333 0 0 -1.33333 0 32)">
        <path fill="#ff8c00" d="M23.007 11.98c0 1.93-.46 3.713-1.378 5.354a11.056 11.056 0 0 1-3.753 3.978c.55-.895.969-1.84 1.257-2.84.285-1 .43-2.015.43-3.049 0-3.03-1.075-5.619-3.221-7.765-2.147-2.149-4.735-3.22-7.765-3.22-1.033 0-2.05.142-3.05.431a11.43 11.43 0 0 0-2.84 1.256 11.05 11.05 0 0 1 3.978-3.754C8.305 1.453 10.093.994 12.02.994c3.029 0 5.619 1.072 7.765 3.22 2.147 2.147 3.22 4.736 3.22 7.766"/>
    </g>
</svg>
