<svg xmlns="http://www.w3.org/2000/svg" width="32" height="32" viewBox="0 0 32 32">
    <defs>
        <clipPath id="a">
            <path d="M0 24h24V0H0z"/>
        </clipPath>
    </defs>
    <g clip-path="url(#a)" transform="matrix(1.33333 0 0 -1.33333 0 32)">
        <path fill="#ff8c00" d="M23.007 11.98c0 3.053-1.075 5.654-3.222 7.8C17.639 21.927 15.05 23 12.02 23c-3.053 0-5.655-1.074-7.801-3.22-2.147-2.146-3.22-4.747-3.22-7.8 0-3.03 1.073-5.62 3.22-7.767C6.365 2.067 8.967.994 12.019.994c3.032 0 5.62 1.073 7.766 3.22 2.147 2.146 3.222 4.736 3.222 7.765"/>
    </g>
</svg>
