<svg xmlns="http://www.w3.org/2000/svg" width="32" height="32" viewBox="0 0 32 32">
    <defs>
        <clipPath id="a">
            <path d="M0 24h24V0H0z"/>
        </clipPath>
    </defs>
    <g clip-path="url(#a)" transform="matrix(1.33333 0 0 -1.33333 0 32)">
        <path fill="#ff8c00" d="M17.186 10.398a.923.923 0 1 0-.002 1.85.923.923 0 0 0 .002-1.85m-3.938-5.077h-.011a3.2 3.2 0 0 0-2.801 1.645l.876.486a2.2 2.2 0 0 1 2.989-.856l.002-.002.485-.872a3.17 3.17 0 0 0-1.54-.4m1.456 17.386a10.854 10.854 0 0 0-.346-10.531l-3.965-.354 1.592-2.45A10.885 10.885 0 0 0 4.96 6.815c-1.154 0-2.266.182-3.31.513 1.808-3.547 5.486-5.983 9.742-5.983 6.039 0 10.938 4.898 10.938 10.938 0 4.886-3.206 9.021-7.627 10.425"/>
    </g>
</svg>
