<svg xmlns="http://www.w3.org/2000/svg" width="32" height="32" viewBox="0 0 32 32">
    <defs>
        <clipPath id="a">
            <path d="M0 24h24V0H0z"/>
        </clipPath>
    </defs>
    <g clip-path="url(#a)" transform="matrix(1.33333 0 0 -1.33333 0 32)">
        <path fill="#003c96" d="M21.752 6.614h-1.878V1.651H12.52v4.963h-1.878v1.712h11.11zm-9.059 5.255a1.512 1.512 0 1 0 .001-3.025 1.512 1.512 0 0 0-.001 3.025m1.752 3.026a1.514 1.514 0 0 0 0-3.026 1.512 1.512 0 1 0 0 3.026m1.751 3.024a1.513 1.513 0 1 0 .002-3.026 1.513 1.513 0 0 0-.002 3.026m1.514-7.563a1.513 1.513 0 1 0-3.027.001 1.513 1.513 0 0 0 3.027 0m1.75 3.025a1.512 1.512 0 1 0-3.024 0 1.513 1.513 0 1 0 3.024 0m1.752-3.026a1.513 1.513 0 1 0-3.026 0 1.513 1.513 0 0 0 3.026 0m-15.96 5.367a3.152 3.152 0 1 0 .002 6.305 3.152 3.152 0 0 0-.002-6.305M21.35 23H2.651a1.65 1.65 0 0 1-1.65-1.65L1 2.65c0-.795.561-1.457 1.309-1.614.101 1.167.255 2.59.488 4.08.591 3.65 1.543 7.662 3.589 9.33l.569-.719c-.557-.424-1.048-1.169-1.48-2.103.683.388 1.568.76 2.529.771v-.918c-.761.005-1.584-.347-2.199-.719a7.247 7.247 0 0 1-.924-.653c-.522-1.559-.917-3.387-1.178-5.129A60.154 60.154 0 0 1 3.225 1H4.4l.022.154c.593 3.647 1.546 7.66 3.589 9.325l.569-.716c-.555-.423-1.047-1.169-1.478-2.105.682.391 1.566.76 2.529.771v-.916c-.762.003-1.584-.349-2.201-.719a7.319 7.319 0 0 1-.923-.653c-.521-1.56-.917-3.386-1.178-5.13L5.327 1H21.35c.912 0 1.65.737 1.65 1.65v18.698A1.65 1.65 0 0 1 21.35 23"/>
        <path fill="#003c96" d="M16.196 4.184a1.114 1.114 0 0 1 0 2.227 1.113 1.113 0 0 1 0-2.227"/>
    </g>
</svg>
