<svg xmlns="http://www.w3.org/2000/svg" width="32" height="32" viewBox="0 0 32 32">
    <defs>
        <clipPath id="a">
            <path d="M0 24h24V0H0z"/>
        </clipPath>
    </defs>
    <path fill="#00f" d="M22.281 17.398L28.543 11 22.28 4.596v2.656H4.968v7.496H22.28z"/>
    <g clip-path="url(#a)" transform="matrix(1.33333 0 0 -1.33333 0 32)">
        <path fill="#00f" d="M8.918 3.367c-.902.003-1.816 1.108-1.821 2.773.005 1.663.92 2.77 1.822 2.773.901-.003 1.817-1.11 1.821-2.776-.004-1.659-.917-2.769-1.822-2.77m.001 6.421C7.295 9.755 6.23 8.075 6.23 6.14s1.065-3.613 2.687-3.65h.002c1.621.037 2.689 1.715 2.689 3.647 0 1.938-1.066 3.618-2.689 3.651M14.62 3.367c-.903.003-1.818 1.108-1.823 2.773.005 1.663.92 2.77 1.822 2.773.901-.003 1.817-1.11 1.82-2.776-.003-1.659-.916-2.769-1.82-2.77m0 6.421c-1.623-.033-2.689-1.713-2.689-3.648s1.066-3.613 2.687-3.65h.002c1.621.037 2.69 1.715 2.69 3.647 0 1.938-1.067 3.618-2.69 3.651M3.507 6.757c-1.265.259-1.488.77-1.493 1.084v.056c0 .145.042.468.257.662.222.21.61.353 1.27.353C4.088 8.91 4.544 8.57 4.788 8l.8.34c-.344.834-1.111 1.447-2.045 1.449-.773 0-1.41-.167-1.866-.591-.486-.47-.527-1.052-.53-1.305V7.89l-.001-.018-.001-.031c-.004-.855.733-1.687 2.194-1.942 1.072-.225 1.36-.415 1.473-.5.254-.257.215-.188.265-.654-.031-.714-.447-1.434-1.615-1.467-.436.003-.831.153-1.228.495-.051.037-.34.353-.438.528L1.05 3.85c.194-.315.458-.601.623-.745.517-.452 1.137-.704 1.79-.704 1.626.005 2.493 1.24 2.48 2.36.002.517-.168.997-.59 1.323-.272.205-.716.438-1.847.673M22.129 9.934V4.257l-3.626 5.677h-.867V2.432h.867V8.08l3.626-5.648h.87v7.502z"/>
    </g>
</svg>
