<svg xmlns="http://www.w3.org/2000/svg" width="32" height="32" viewBox="0 0 32 32">
    <defs>
        <clipPath id="a">
            <path d="M0 24h24V0H0z"/>
        </clipPath>
    </defs>
    <g clip-path="url(#a)" transform="matrix(1.33333 0 0 -1.33333 0 32)">
        <path fill="#00f" d="M7.255 4.496c-1.38.007-2.452 1.1-2.462 2.548.01 1.45 1.082 2.543 2.463 2.545 1.376-.002 2.45-1.095 2.463-2.549-.012-1.444-1.086-2.537-2.464-2.544m0 6.174c-1.985-.002-3.537-1.618-3.541-3.626-.003-2.009 1.556-3.626 3.54-3.628h.002c1.98.002 3.543 1.62 3.54 3.624-.002 2.012-1.56 3.634-3.54 3.63M16.558 5.31l-4.177 5.355H11.3V3.534h1.08v5.319l4.178-5.318v-.001l.002-.002.002.002h1.074v7.13h-1.078zM18.745 3.442h1.053V4.53h-1.053zM18.648 7.406l.097-2.076h1.052l.097 2.076v3.26h-1.246zM7.392 13.9l9.222-.003V11.91l4.696 4.8-4.696 4.802V19.52l-9.222.004v1.988l-4.696-4.799 4.696-4.803z"/>
    </g>
</svg>
