<svg xmlns="http://www.w3.org/2000/svg" width="32" height="32" viewBox="0 0 32 32">
    <defs>
        <clipPath id="a">
            <path d="M0 24h24V0H0z"/>
        </clipPath>
    </defs>
    <g clip-path="url(#a)" transform="matrix(1.33333 0 0 -1.33333 0 32)">
        <path fill="#f0f" d="M18.627 2.227h-.578v5.232l-3.506 3.503c-.474.475-.612.809-.608 1.038-.004.234.132.563.607 1.036l3.507 3.506v5.23h.578zm-13.254 0v19.545h.578v-5.23l3.505-3.505c.473-.474.608-.803.605-1.037.003-.23-.132-.563-.605-1.038L5.951 7.459V2.227zm11.446 15.256h-.379v-.812l-.174-.174h-.812v-.812l-.177-.176h-.81v-.81l-.176-.176h-.81v-.835c-.046-.05-.095-.101-.137-.152h-.851v-.987h.299a2.012 2.012 0 0 1-.084-.55c-.004-.717.393-1.332.967-1.905l3.144-3.142V3.04h-1.365v.626h-.986V3.04h-.987v.626h-.987V3.04h-.986v.626h-.987V3.04h-.987v.626h-.987V3.04H7.178v3.91l3.147 3.144v.002c.574.574.959 1.189.963 1.904.001.19-.029.373-.08.549h.299v.987h-.851c-.043.05-.091.1-.136.152v.835h.987v.986h-.987v-.985h-.812l-.175.174v.81h.987v.989h-.987v-.987H8.72l-.173.174v.813h-.814l-.172.172v.814h.986v.986H7.56v-.986h-.382v4.289h9.641zm4.8 4.289V23H2.38v-1.23h1.766V2.228H2.38V1h19.239v1.227h-1.763v19.545z"/>
        <path fill="#f0f" d="M13.48 15.509h.986v.987h-.986zM12.493 14.522h.987v.986h-.987zM12.493 16.496h-.986v-.987h.986zM11.507 13.535h.986v.987h-.986zM11.507 11.562h.986v.987h-.986zM12.493 10.574h-.986v-.987h.986zM15.454 17.482h.986v.986h-.986zM14.467 16.496h.987v.986h-.987zM14.467 18.469h-.986v-.986h.986zM13.48 17.482h-.987v-.986h.987zM12.493 18.469h-.986v-.986h.986zM11.507 17.482h-.987v-.986h.987zM10.52 18.469h-.986v-.986h.986zM8.547 16.496h.986v.986h-.986zM12.494 6.626h-.986v-.987h.986zM11.508 7.612h.986v.987h-.986zM9.534 3.666h.986v.986h-.986zM11.508 5.639h-.987v-.986h.987zM11.508 3.666h.986v.986h-.986zM13.481 5.639h-.987v-.986h.987zM13.481 3.666h.986v.986h-.986z"/>
    </g>
</svg>
