<svg xmlns="http://www.w3.org/2000/svg" width="32" height="32" viewBox="0 0 32 32">
    <defs>
        <clipPath id="a">
            <path d="M0 24h24V0H0z"/>
        </clipPath>
    </defs>
    <g clip-path="url(#a)" transform="matrix(1.33333 0 0 -1.33333 0 32)">
        <path fill="#595959" d="M11.337 12.173L8.42 7.123l1.125-.65 3.005 5.203-.007.004a.629.629 0 0 1 .096.32h.001v7.356h-1.302z"/>
        <path fill="#595959" d="M17.365 4.061l-.523.905-1.126-.65.52-.903a9.52 9.52 0 0 0-3.6-.974v.98h-1.3v-.98a9.558 9.558 0 0 0-3.566.958l.488.849-1.126.648-.493-.854a9.661 9.661 0 0 0-2.61 2.613l.852.495-.652 1.123-.843-.488a9.525 9.525 0 0 0-.958 3.566l.977.001v1.3h-.977a9.55 9.55 0 0 0 .955 3.566l.846-.488.65 1.124-.854.493a9.624 9.624 0 0 0 2.616 2.617l.494-.856 1.126.651-.49.847a9.524 9.524 0 0 0 3.566.957v-.98h1.302v.98a9.527 9.527 0 0 0 3.563-.956l-.49-.849 1.125-.65.496.856a9.659 9.659 0 0 0 2.616-2.615l-.857-.494.65-1.125.85.49a9.543 9.543 0 0 0 .957-3.568h-.982v-1.298h.982a9.54 9.54 0 0 0-.958-3.569l-.847.49-.65-1.127.853-.493a9.62 9.62 0 0 0-2.582-2.592M11.99 22.896C5.97 22.896 1.093 18.018 1.093 12c0-6.014 4.876-10.896 10.896-10.896 6.014.002 10.893 4.88 10.895 10.896 0 6.02-4.88 10.896-10.895 10.896"/>
    </g>
</svg>
