<svg xmlns="http://www.w3.org/2000/svg" width="32" height="32" viewBox="0 0 32 32">
    <defs>
        <clipPath id="a">
            <path d="M0 24h24V0H0z"/>
        </clipPath>
    </defs>
    <g clip-path="url(#a)" transform="matrix(1.33333 0 0 -1.33333 0 32)">
        <path fill="#595959" d="M11.337 13.126L7.11 15.568l-.649-1.124 5.203-3.006.005.009a.633.633 0 0 1 .321-.097.65.65 0 0 1 .65.65V19.356h-1.302z"/>
        <path fill="#595959" d="M17.365 4.063l-.523.904-1.126-.65.52-.903a9.532 9.532 0 0 0-3.599-.973v.976h-1.3v-.976A9.539 9.539 0 0 0 7.77 3.4l.487.846-1.126.65-.492-.853a9.668 9.668 0 0 0-2.612 2.614l.853.492-.652 1.125-.844-.487a9.52 9.52 0 0 0-.957 3.564h.977v1.3h-.977a9.55 9.55 0 0 0 .955 3.566l.846-.488.65 1.125-.854.492a9.624 9.624 0 0 0 2.616 2.617l.494-.856 1.126.651-.49.847a9.524 9.524 0 0 0 3.566.957v-.98h1.302v.98a9.527 9.527 0 0 0 3.563-.956l-.49-.849 1.125-.65.496.856a9.659 9.659 0 0 0 2.616-2.614l-.857-.493.65-1.126.85.489a9.557 9.557 0 0 0 .957-3.565h-.982v-1.3h.982a9.517 9.517 0 0 0-.959-3.568l-.847.489-.648-1.125.853-.493a9.64 9.64 0 0 0-2.583-2.593M11.99 22.897C5.97 22.897 1.093 18.019 1.093 12 1.093 5.99 5.97 1.107 11.99 1.107c6.014.002 10.893 4.88 10.895 10.894 0 6.02-4.88 10.896-10.895 10.896"/>
    </g>
</svg>
