<svg xmlns="http://www.w3.org/2000/svg" width="32" height="32" viewBox="0 0 32 32">
    <defs>
        <clipPath id="a">
            <path d="M0 24h24V0H0z"/>
        </clipPath>
    </defs>
    <g clip-path="url(#a)" transform="matrix(1.33333 0 0 -1.33333 0 32)">
        <path fill="#595959" d="M11.337 12h.001a.65.65 0 1 1 1.3 0h.001v7.356h-1.302z"/>
        <path fill="#595959" d="M17.365 4.063l-.523.904-1.126-.65.52-.903a9.547 9.547 0 0 0-3.6-.974v.977h-1.299V2.44a9.544 9.544 0 0 0-3.567.958l.488.847-1.126.65-.492-.853a9.65 9.65 0 0 0-2.612 2.613l.851.492-.65 1.127-.844-.488a9.539 9.539 0 0 0-.958 3.565h.98l-.003 1.3-.977-.002a9.524 9.524 0 0 0 .957 3.567l.845-.488.65 1.124-.854.493a9.666 9.666 0 0 0 2.616 2.617l.494-.856 1.126.651-.49.847a9.544 9.544 0 0 0 3.566.958v-.98h1.302v.98a9.547 9.547 0 0 0 3.563-.957l-.49-.849 1.125-.65.496.856a9.644 9.644 0 0 0 2.616-2.614l-.857-.493.65-1.126.85.489a9.544 9.544 0 0 0 .958-3.567h-.983v-1.298h.983a9.542 9.542 0 0 0-.96-3.57l-.846.49-.65-1.126.853-.493a9.659 9.659 0 0 0-2.582-2.591m-5.378 18.833c-6.017 0-10.893-4.876-10.893-10.894 0-6.014 4.876-10.896 10.893-10.896 6.017.002 10.896 4.88 10.896 10.896 0 6.018-4.88 10.894-10.896 10.894"/>
    </g>
</svg>
