<svg xmlns="http://www.w3.org/2000/svg" width="32" height="32" viewBox="0 0 32 32">
    <defs>
        <clipPath id="a">
            <path d="M0 24h24V0H0z"/>
        </clipPath>
    </defs>
    <g clip-path="url(#a)" transform="matrix(1.33333 0 0 -1.33333 0 32)">
        <path fill="#595959" d="M11.988 4.677a6.073 6.073 0 1 0 .001 12.145 6.073 6.073 0 0 0-.001-12.145m8.058 6.073c0 4.232-3.265 7.694-7.408 8.026v1.127h1.052v1.863h-3.405v-1.863h1.052v-1.127c-4.145-.333-7.407-3.794-7.407-8.026 0-1.963.704-3.76 1.87-5.158l-2.19-2.19 1.414-1.415L7.266 4.23a8.014 8.014 0 0 1 9.442 0l2.243-2.243 1.414 1.416-2.19 2.189a8.027 8.027 0 0 1 1.87 5.158"/>
        <path fill="#595959" d="M16.323 14.004l-4.098-2.365-1.652 2.864-1.125-.65 1.976-3.427.008.005a.643.643 0 0 1 .556-.331c.118 0 .224.04.32.096l.004-.007 4.66 2.69zM20.555 20.086l.493.704-1.065.747-.494-.705a3.323 3.323 0 0 1-4.054-1.136l5.44-3.81a3.322 3.322 0 0 1-.32 4.2M4.486 20.831l-.494.706-1.064-.746.494-.705a3.321 3.321 0 0 1-.321-4.2l5.44 3.81a3.323 3.323 0 0 1-4.055 1.135"/>
    </g>
</svg>
