<svg xmlns="http://www.w3.org/2000/svg" width="32" height="32" viewBox="0 0 32 32">
    <defs>
        <clipPath id="a">
            <path d="M0 24h24V0H0z"/>
        </clipPath>
    </defs>
    <g clip-path="url(#a)" transform="matrix(1.33333 0 0 -1.33333 0 32)">
        <path fill="red" d="M22.727 16.936h-1.832c0 .184-.113.418-.336.703-.227.285-.44.52-.643.703a3.555 3.555 0 0 1-1.162.719c-.447.172-.875.26-1.283.26-.346 0-.682-.053-1.008-.155a2.774 2.774 0 0 1-.886-.457c-.877-.591-1.487-1.451-1.834-2.584-.348-1.128-.52-2.347-.52-3.652V2.845h-2.444v9.627a11.53 11.53 0 0 1-.551 3.609c-.366 1.12-.968 1.986-1.803 2.597a4.22 4.22 0 0 1-.932.473c-.316.113-.637.17-.963.17-.428 0-.866-.088-1.315-.26a3.234 3.234 0 0 1-1.13-.72 5.574 5.574 0 0 1-.672-.734c-.205-.265-.306-.487-.306-.671H1.304c0 .529.148 1.029.443 1.497.296.47.678.907 1.146 1.316a5.206 5.206 0 0 0 1.696 1.053 5.464 5.464 0 0 0 1.94.352c1.304 0 2.426-.443 3.363-1.33.937-.887 1.64-2.002 2.108-3.348.449 1.366 1.14 2.487 2.079 3.364.937.875 2.068 1.314 3.392 1.314.652 0 1.299-.122 1.942-.366a5.68 5.68 0 0 0 1.726-1.04 6.47 6.47 0 0 0 1.115-1.316 2.98 2.98 0 0 0 .473-1.496"/>
    </g>
</svg>
