<svg xmlns="http://www.w3.org/2000/svg" width="32" height="32" viewBox="0 0 32 32">
    <defs>
        <clipPath id="a">
            <path d="M0 24h24V0H0z"/>
        </clipPath>
    </defs>
    <g clip-path="url(#a)" transform="matrix(1.33333 0 0 -1.33333 0 32)">
        <path fill="#ff8c00" d="M18.111 9.571c0 .652-.157 1.261-.473 1.835a5.75 5.75 0 0 1-1.238 1.527 6.034 6.034 0 0 1-2 1.145 7.082 7.082 0 0 1-2.309.383h-.154c-1.486.02-2.867-.427-4.14-1.344-1.274-.917-1.91-2.1-1.91-3.546 0-1.446.642-2.63 1.925-3.545 1.284-.917 2.69-1.376 4.217-1.376 1.488 0 2.874.46 4.158 1.376 1.283.915 1.924 2.1 1.924 3.545m2.445 0c-.02-2.14-.9-3.9-2.644-5.287-1.74-1.386-3.7-2.079-5.883-2.079-2.22 0-4.207.693-5.959 2.08C4.318 5.67 3.442 7.43 3.442 9.57c0 1.364.397 2.608 1.192 3.728.793 1.121 1.832 1.986 3.118 2.597a9.594 9.594 0 0 0-2.645 2.645c-.683 1.028-1.022 2.113-1.022 3.255H6.53c-.02-1.142.601-2.243 1.864-3.3 1.263-1.06 2.486-1.59 3.667-1.59 1.141 0 2.334.534 3.576 1.603 1.244 1.071 1.864 2.166 1.864 3.287h2.447c0-1.142-.349-2.222-1.04-3.24a10.5 10.5 0 0 0-2.629-2.66 7.974 7.974 0 0 0 3.087-2.597 6.296 6.296 0 0 0 1.191-3.728"/>
    </g>
</svg>
