<svg xmlns="http://www.w3.org/2000/svg" width="32" height="32" viewBox="0 0 32 32">
    <defs>
        <clipPath id="a">
            <path d="M0 24h24V0H0z"/>
        </clipPath>
    </defs>
    <g clip-path="url(#a)" transform="matrix(1.33333 0 0 -1.33333 0 32)">
        <path fill="#00be3c" d="M17.975 4.697c-1.1 1.101-1.96 2.256-2.582 3.47a8.334 8.334 0 0 0-.933 3.866c0 1.364.31 2.658.933 3.88s1.482 2.374 2.582 3.454H6.085c1.062-1.059 1.907-2.206 2.538-3.439a8.407 8.407 0 0 0 .948-3.895 8.315 8.315 0 0 0-.948-3.88c-.631-1.224-1.487-2.376-2.567-3.456zm3.79-2.444H2.236v2.444l.827.581c1.12.896 2.078 1.94 2.87 3.132.796 1.193 1.195 2.4 1.195 3.623 0 1.385-.485 2.734-1.453 4.05a13.49 13.49 0 0 1-3.44 3.284v2.414h19.532v-2.414l-.764-.61c-.327-.246-.632-.5-.917-.765-.286-.265-.55-.54-.796-.825a10.139 10.139 0 0 1-1.71-2.446c-.45-.896-.672-1.793-.672-2.688 0-1.183.396-2.379 1.19-3.592a13.144 13.144 0 0 1 2.905-3.163l.764-.58z"/>
    </g>
</svg>
