<svg xmlns="http://www.w3.org/2000/svg" width="32" height="32" viewBox="0 0 32 32">
    <defs>
        <clipPath id="a">
            <path d="M0 24h24V0H0z"/>
        </clipPath>
    </defs>
    <g clip-path="url(#a)" transform="matrix(1.33333 0 0 -1.33333 0 32)">
        <path fill="#00f" d="M18.083 5.644a1.21 1.21 0 0 0-1.222-1.208c-.674 0-1.222.547-1.222 1.223l-.001 10.849c0 1.16-.326 2.119-.977 2.873-.654.752-1.539 1.13-2.66 1.13-.449 0-.886-.082-1.314-.245a3.684 3.684 0 0 1-1.131-.672c-.348.305-.73.53-1.146.672a3.896 3.896 0 0 1-1.268.215c-.326 0-.632-.031-.918-.092a2.595 2.595 0 0 1-.793-.307 3.523 3.523 0 0 1-1.33 1.377 3.794 3.794 0 0 1-1.85.55v-2.444c.307 0 .582-.113.825-.336.245-.225.367-.49.367-.795V1.993h2.446v14.85a1.223 1.223 0 1 0 2.444 0V1.994h2.445v14.85a1.223 1.223 0 0 0 2.445 0l.001-10.88c0-1.14.322-2.088.962-2.84.641-.755 1.534-1.13 2.674-1.13 1.101 0 1.987.38 2.66 1.144.672.764 1.007 1.695 1.007 2.797v6.906h1.223l-2.444 4.89-2.446-4.89h1.223z"/>
    </g>
</svg>
