<svg xmlns="http://www.w3.org/2000/svg" width="32" height="32" viewBox="0 0 32 32">
    <defs>
        <clipPath id="a">
            <path d="M0 24h24V0H0z"/>
        </clipPath>
    </defs>
    <path fill="#a000a0" d="M2.955 13.612v-.001l-.001.001z"/>
    <g clip-path="url(#a)" transform="matrix(1.33333 0 0 -1.33333 0 32)">
        <path fill="#a000a0" d="M17.698 9.908C17.688 6.792 15.223 4.52 12 4.495 8.776 4.52 6.31 6.792 6.302 9.908V15c.176.011.351.036.53.036 1.547.002 3.12-.568 4.736-1.307 1.753-.797 3.55-1.472 5.6-1.474.178 0 .352.028.53.036zm5.157 3.868l-1.07 1.933a10.422 10.422 0 0 0-1.667-.724v6.796h-2.42v-7.279c-.177-.01-.352-.036-.53-.036-1.546-.002-3.018.514-4.685 1.274-1.7.772-3.565 1.502-5.652 1.505-.178 0-.353-.027-.529-.035v4.571h-2.42v-4.935a12.28 12.28 0 0 1-2.738-1.123l1.072-1.93c.545.301 1.102.53 1.665.723V9.908C3.89 5.398 7.591 2.081 12 2.075c4.408.006 8.108 3.323 8.12 7.833v2.747c.944.258 1.86.636 2.736 1.121"/>
    </g>
</svg>
