<svg xmlns="http://www.w3.org/2000/svg" width="32" height="32" viewBox="0 0 32 32">
    <defs>
        <clipPath id="a">
            <path d="M0 24h24V0H0z"/>
        </clipPath>
    </defs>
    <g clip-path="url(#a)" transform="matrix(1.33333 0 0 -1.33333 0 32)">
        <path fill="#00f" d="M19.602 6.401c-.38-.38-1.348-1.313-1.52-1.347-.171-.034-.344.483.346 1.001.69.52 2.555 2.176 1.174.346m-3.56 13.015h-.375s-.46-.708-.46-1.125c0-.416-.04-.79-.04-.79s-.541-.043-.75-.043c-.21 0-.376.125-.584-.125-.208-.25-.25-.417-.291-.875-.042-.458-.084-1.02-.292-1.02-.208 0-.458.77-.583.312-.125-.459-.542-.626-.417-1.042.125-.417.167-.708.334-.792.166-.083.333-.542.29-1.083-.04-.542.25-1.25-.124-1.375-.375-.125-1.102-.176-1.27-.176-.087 0-.633-.094-.48-.637.138-.486.215-.309-.101-.576-.264-.223-.44-.216-.66 1.054-.12.69-.206.878-1.165.878-.96 0-1.2-.209-2.074.25-.875.457-1.583.334-1.958-.25-.375-.585.112-1.21-.208-1.46-.32-.249-.5-.625-.625-1.25s-.5-.916-.75-.458-.584 1.458-.71 2.083c-.124.625.085 1.292-.165 1.542-.12.12-.34.297-.537.45.462 5.088 4.747 9.09 9.955 9.092a9.973 9.973 0 0 0 7.077-2.947c-.503-.027-1.165.107-1.58.28-.5.208-1.457.083-1.457.083m-1.837-9.939c-.221.025-.54.342-.32.465.222.123.49 0 .589-.049.098-.049.27-.416-.27-.416m.42 6.648c.168.25.459.333.459.583 0 .25.183.495.402.167.146-.22.719-.318.469-.485-.205-.39-.381-.28-.672-.28-.291 0-.407-.194-.407-.194s-.417-.04-.25.21m.288-.638c.296.312.406.125.359-.469-.047-.594-.391-1.015-.766-1.203-.375-.187-.11-.156-.281-.5-.172-.344-.516.078-.547.5-.031.422.375.688.672.86.297.171.422.593.563.812m-2.276-5.447c.195.048.465-.074.489-.245.025-.172.049-.49-.538-.319-.172.294-.147.515.049.564m3.613-5.04c-.625-.5-.625-.835-1.5-.21-.583.21-1.291.584-1.625.584-.333 0-.458-.47-.791-.459-.334.01-.542.293-.75.71-.21.415-.5 1.5-.5 1.5s.166.24.54.5c.376.258.668.416.918.624.25.208 1.166.666 1.416.666s.834.084.542-.5c-.261-.524.333-.625.333-.625s.708-.29.875-.04c.167.25.459 1.165.459 1.165s.334.293.375.084c.04-.209-.001-.626.29-1.209a2.972 2.972 0 0 0 .335-1.416c0-.375-.292-.875-.917-1.375M5.264 7.36c-.266-.25-.485.343-.516.546-.031.203.03.61.094.922.028.15.328.344.5.187.172-.156.172-.483.348-.802.176-.32-.161-.604-.426-.854M12 23C5.926 22.998 1 18.074 1 12 1 5.924 5.926 1.002 12 1c6.075.003 10.998 4.925 11 11-.002 6.074-4.925 10.998-11 11"/>
    </g>
</svg>
