<svg xmlns="http://www.w3.org/2000/svg" width="32" height="32" viewBox="0 0 32 32">
    <defs>
        <clipPath id="a">
            <path d="M0 24h24V0H0z"/>
        </clipPath>
    </defs>
    <g clip-path="url(#a)" transform="matrix(1.33333 0 0 -1.33333 0 32)">
        <path fill="red" d="M19.886 6.86a.871.871 0 1 1-.002 1.742.871.871 0 0 1 .002-1.743M19.844 15.794a.872.872 0 1 1-1.744 0 .872.872 0 0 1 1.744 0M22.13 13.11a.87.87 0 1 1-.003-1.74.87.87 0 0 1 .004 1.74M3.244 7.729a.87.87 0 1 1 1.74.002.87.87 0 0 1-1.74-.003M5.898 15.794a.871.871 0 1 1-1.742.002.871.871 0 0 1 1.742-.002M2.742 12.24a.871.871 0 1 1-1.742 0 .871.871 0 0 1 1.742 0"/>
        <path fill="red" d="M4.65 18.405a4.584 4.584 0 0 0 4.574-4.576h1.3a5.877 5.877 0 0 1-5.875 5.876c-1.038-.006-2.032-.326-2.775-.847l.753-1.06c.48.344 1.271.611 2.022.607M13.475 13.829h1.3a4.581 4.581 0 0 0 4.576 4.576c.749.004 1.542-.263 2.022-.607l.752 1.06c-.743.52-1.74.844-2.774.847a5.876 5.876 0 0 1-5.876-5.876M12.006 18.674l1.34-1.206 2.138 3.534-1.112.672h-.002l-1.322-2.187-1.042.937-1.043-.937-1.32 2.187-1.111-.672 2.133-3.534z"/>
        <path fill="#595959" d="M16.451 10.475c.002.743.187 1.385.628 1.963l-.779.989-2.12-.935-2.182.977-2.168-.977-2.118.935-.779-.99c.44-.577.623-1.22.625-1.962.044-2.79-2.95-6.678-4.373-8.418L2.343 1h19.328l-.843 1.057c-1.424 1.74-4.422 5.63-4.377 8.418"/>
        <path fill="#b45000" d="M14.914 2.3l-.879 3.03-1.25-.362.774-2.667h-2.896l.172 1.793-1.294.124L9.358 2.3h-4.33c1.557 2.018 3.794 5.19 3.831 8.174 0 .36-.036.722-.115 1.076l1.084-.48a9.86 9.86 0 0 0 .006-.311c.015-.908-.168-2.211-.662-2.775l1.005-.826c.856 1.084.941 2.574.955 3.6 0 .376-.018.677-.033.879l.901.406 1.22-.547c-.002-.07-.01-.137-.01-.208.001-1.175.321-2.338.327-2.365l1.256.336c-.004.002-.272 1.035-.283 1.957l.755.332a4.741 4.741 0 0 1-.114-1.074c.036-2.983 2.276-6.156 3.834-8.174z"/>
    </g>
</svg>
