<svg xmlns="http://www.w3.org/2000/svg" width="32" height="32" viewBox="0 0 32 32">
    <defs>
        <clipPath id="a">
            <path d="M0 24h24V0H0z"/>
        </clipPath>
    </defs>
    <g clip-path="url(#a)" transform="matrix(1.33333 0 0 -1.33333 0 32)">
        <path fill="#003c96" d="M21.7 20.836c-2.386-1.413-4.624-3.548-5.95-7.086-1.455-3.885-.32-8.23-4.802-11.452H2.652a.354.354 0 0 0-.354.353v7.886c2.68-.107 4.874.858 6.64 2.88 2.172 2.485 3.46 6.164 6.767 8.282h5.641a.354.354 0 0 0 .353-.354zM20.667 8.687a.934.934 0 1 0 0 1.871.934.934 0 0 0 .935-.933.937.937 0 0 0-.935-.938m-1.432 7.805c0 .422.342.761.764.761a.759.759 0 0 0 .761-.76.761.761 0 1 0-1.525 0M17.092 13c0 .421.341.761.763.761s.764-.34.764-.76a.766.766 0 0 0-.764-.767.765.765 0 0 0-.763.766m.39-7.789c-.249 1.533-.452 1.734-1.985 1.984 1.533.248 1.736.451 1.984 1.984.248-1.533.45-1.736 1.983-1.984-1.534-.25-1.735-.45-1.983-1.984m-.919-2.983a.761.761 0 0 0-.76.764.761.761 0 1 0 .761-.764M1.96 15a.935.935 0 1 0 1.871 0 .935.935 0 0 0-1.87 0m2.588 5.742a.765.765 0 0 0 0-1.53.764.764 0 0 0-.762.766c0 .422.34.764.762.764m2.5-5.258a.787.787 0 1 0-.787-.785c0 .435.35.785.786.785m.955 3.191a.76.76 0 0 0 .763-.76.765.765 0 0 0-.763-.767.764.764 0 0 0 0 1.527m2.163 3.536c.248-1.534.45-1.737 1.982-1.985-1.533-.25-1.734-.45-1.982-1.984-.248 1.533-.45 1.734-1.985 1.984 1.534.248 1.737.451 1.985 1.985M21.347 23H2.651a1.653 1.653 0 0 1-1.653-1.653V2.65c0-.912.74-1.65 1.653-1.65h18.696a1.65 1.65 0 0 1 1.651 1.65v18.696A1.65 1.65 0 0 1 21.348 23"/>
    </g>
</svg>
