<svg xmlns="http://www.w3.org/2000/svg" width="32" height="32" viewBox="0 0 32 32">
    <defs>
        <clipPath id="a">
            <path d="M0 24h24V0H0z"/>
        </clipPath>
    </defs>
    <g clip-path="url(#a)" transform="matrix(1.33333 0 0 -1.33333 0 32)">
        <path fill="#00be3c" d="M16.097 13.17c2.257.102 4.03 1.156 4.872 1.997 1.24 1.24 1.104 3.115-.134 4.357a3.173 3.173 0 0 1-1.62.866 3.162 3.162 0 0 1-.862 1.617c-1.243 1.238-3.12 1.376-4.36.135-.837-.84-1.888-2.606-1.994-4.855-.105 2.249-1.155 4.015-1.994 4.855-1.24 1.24-3.116 1.103-4.358-.135a3.163 3.163 0 0 1-.863-1.617 3.165 3.165 0 0 1-1.62-.866c-1.238-1.242-1.376-3.116-.134-4.357.84-.841 2.615-1.895 4.873-1.996-2.258-.101-4.032-1.155-4.873-1.995-1.242-1.242-1.104-3.117.134-4.358a3.141 3.141 0 0 1 1.62-.865 3.165 3.165 0 0 1 .863-1.62c1.242-1.235 3.118-1.373 4.358-.132.817.818 1.208 2.385 1.344 4.545v-4c-.004-1.115.414-2.08 1.108-2.737.689-.658 1.628-1.006 2.629-1.006H16.235v1.299h-1.14c-1.412.035-2.42.866-2.447 2.445v4.032c.135-2.18.524-3.755 1.346-4.578 1.24-1.241 3.116-1.103 4.359.133.457.462.745 1.025.862 1.619a3.15 3.15 0 0 1 1.62.865c1.238 1.24 1.375 3.116.134 4.358-.842.84-2.615 1.894-4.872 1.995"/>
    </g>
</svg>
