<svg xmlns="http://www.w3.org/2000/svg" width="32" height="32" viewBox="0 0 32 32">
    <defs>
        <clipPath id="a">
            <path d="M0 24h24V0H0z"/>
        </clipPath>
    </defs>
    <g clip-path="url(#a)" transform="matrix(1.33333 0 0 -1.33333 0 32)">
        <path fill="red" d="M16.058 17.426a3.51 3.51 0 0 1-.146.186 36.968 36.968 0 0 1-6.62 1.168c-1.723-1.475-2.545-3.364-2.868-5.26 1.448 1.377 3.472 2.237 5.71 2.239 1.69 0 3.492-.503 5.235-1.614-.35 1.759-.967 2.81-1.311 3.28"/>
        <path fill="red" d="M9.42 13.963c-.218-.532-.314-1.014-.314-1.438.004-1.863 1.826-3.058 3.273-3.06.267-.002.5.045.698.116a5.42 5.42 0 0 1 .493 2.212c0 .968-.28 1.899-.76 2.664-.229.02-.454.03-.676.03a7.234 7.234 0 0 1-2.715-.524"/>
        <path fill="red" d="M14.377 14.148c.293-.74.462-1.537.462-2.355.022-2.309-1.26-4.733-3.962-6.03.04 0 .081-.004.12-.004 1.887 0 3.501.438 4.641.875a11.32 11.32 0 0 1 1.535.717c.31 1.553.454 2.926.454 4.093 0 .35-.018.671-.039.987-1.068.845-2.151 1.402-3.211 1.717M19.72 17.72a3.862 3.862 0 0 1-.358 3.01c-1.268 2.195-4.792 2.78-8.927.862a21.922 21.922 0 0 1-2.614-1.46c1.932-.05 6.54-.4 11.9-2.411M3.293 8.759c.481-.501 1.144-1.15 1.516-1.33.228-.128.454-.243.68-.355a18.616 18.616 0 0 0-.52 4.266c-.005 2.413.562 5.262 2.595 7.529-.127.327-.689.633-.689.633a3.87 3.87 0 0 1-3.603-.14C1.075 18.095.49 14.57 2.409 10.437a20.57 20.57 0 0 1 .885-1.677"/>
        <path fill="red" d="M6.657 7.669c.125-.562.24-.964.318-1.217.288-.1.573-.19.854-.265 2.002.298 3.4 1.049 4.315 2.018-1.98.117-4.275 1.666-4.307 4.32 0 .186.014.376.039.57a6.173 6.173 0 0 1-1.635-1.82 17.37 17.37 0 0 1 .416-3.606M21.59 13.565a21.972 21.972 0 0 1-1.476 2.643c-.332.135-.631.252-.836.322-.52.194-1.03.368-1.534.532.57-1.156 1.157-2.984 1.154-5.618 0-1.933-.316-4.292-1.165-7.13l-.011-.036a3.853 3.853 0 0 1 3.005.36c2.197 1.269 2.783 4.792.864 8.927M16.516 4.68c.11.372.189.71.282 1.064a14.329 14.329 0 0 0-5.801-1.253c-2.016-.002-4.331.457-6.72 1.785a3.854 3.854 0 0 1 .36-3.004C5.907 1.077 9.433.49 13.565 2.41c.89.413 1.77.915 2.612 1.456.14.28.27.572.34.815"/>
    </g>
</svg>
