<svg xmlns="http://www.w3.org/2000/svg" width="32" height="32" viewBox="0 0 32 32">
    <defs>
        <clipPath id="a">
            <path d="M0 24h24V0H0z"/>
        </clipPath>
    </defs>
    <g clip-path="url(#a)" transform="matrix(1.33333 0 0 -1.33333 0 32)">
        <path fill="#b45000" d="M16.202 15.809a5.941 5.941 0 0 0 2.754-2.115l-.819-.574c-.652.938-1.819 1.747-3.039 1.947-1.31-.861-2.642-1.706-3.924-2.848a5.773 5.773 0 0 0 3.406-2.205l-.81-.59c-.954 1.315-2.417 1.84-3.507 1.916-1.296-1.35-2.52-3.1-3.587-5.61l-.918.396C6.7 8.305 7.756 9.95 8.864 11.263c-.064.268-.21.784-.542 1.418a6.927 6.927 0 0 1-2.854 2.888l.477.878a7.9 7.9 0 0 0 3.703-4.313c1 1.03 2.03 1.834 3.051 2.548-.31 1.55-1.147 2.617-2.255 3.355l.55.835c1.198-.784 2.174-1.975 2.598-3.584 2.3 1.522 4.495 2.775 6.12 5.327l.837-.547c-1.302-1.946-2.793-3.18-4.347-4.26M21.43 23c-3.349-3.623-11.389-.042-16.15-5.193l.001-.01C3.678 16.25 2.665 14.007 2.665 11.5c0-2.29.844-4.361 2.21-5.882-1.366-.73-2.958-2.543-2.958-2.543L3.834 1s1.24 2.23 2.606 3.273A7.365 7.365 0 0 1 9.615 3.1v-.003l.052-.006a.105.105 0 0 0 .024-.003c2.014-.296 3.798-.105 5.347.477a3.508 3.508 0 0 0 5.16 4.756c1.95 3.692 2.432 8.948 1.232 14.679"/>
    </g>
</svg>
