<svg xmlns="http://www.w3.org/2000/svg" width="32" height="32" viewBox="0 0 32 32">
    <defs>
        <clipPath id="a">
            <path d="M0 24h24V0H0z"/>
        </clipPath>
    </defs>
    <g clip-path="url(#a)" transform="matrix(1.33333 0 0 -1.33333 0 32)">
        <path fill="#b45000" d="M13.803 5.997c.27 1.154.41 2.44.41 3.823 0 .354-.01.718-.023 1.097-.07 1.377-.362 2.657-.868 3.801"/>
        <path fill="#b45000" d="M11.516 15l.104-.506c.167-1.066.25-2.198.25-3.369 0-.399-.01-.823-.03-1.27-.076-1.518-.381-2.919-.904-4.17h2.752s.062.19.115.312c.272 1.154.41 2.44.41 3.823 0 .354-.01.718-.023 1.097-.07 1.377-.361 2.657-.868 3.801l-.322.595z"/>
        <path fill="#00be3c" d="M13.84 14.946a15.846 15.846 0 0 0 2.847-.31c1.488-.3 2.712-.772 3.557-1.162.845-.39 1.29-.693 1.293-.689l1.14-.766-.258 1.348c-.007.063-.694 3.582-4.582 4.436-.495.106-.966.15-1.414.15a6.609 6.609 0 0 1-1.05-.09 13.853 13.853 0 0 0 2.748 1.525c.736.304 1.179.406 1.179.408l1.463.351-1.323.714c-.05.021-1.153.622-2.696.626a5.373 5.373 0 0 1-3.132-.993 5.12 5.12 0 0 1-1.504-1.612c-.446 1.088-1.295 2.335-2.918 3.247-1.152.647-2.272.873-3.24.873-1.985-.006-3.32-.904-3.373-.936l-1.255-.843 1.498-.205c.002 0 .553-.07 1.474-.345a16.49 16.49 0 0 0 4.91-2.42 5.538 5.538 0 0 1-2.041.408c-.298 0-.615-.025-.94-.078-3.426-.592-4.176-3.696-4.187-3.752l-.317-1.325 1.17.698c.003.002.39.236 1.125.534.737.297 1.798.645 3.08.842.132.02.247.026.375.042a6.279 6.279 0 0 1-2.15-1.499C3.8 12.534 3.447 10.71 3.449 9.41c0-1.095.238-1.842.253-1.88l.48-1.509.597 1.47c.002 0 .208.515.704 1.341a16.65 16.65 0 0 0 5.032 5.265c.186.123.35.225.496.31.693.328 1.75.54 2.83.54"/>
        <path fill="#b45000" d="M13.803 5.997c.27 1.154.41 2.44.41 3.823 0 .354-.01.718-.023 1.097-.07 1.377-.362 2.657-.868 3.801"/>
        <path fill="#b45000" d="M11.516 15l.104-.506c.167-1.066.25-2.198.25-3.369 0-.399-.01-.823-.03-1.27-.076-1.518-.381-2.919-.904-4.17h2.752s.062.19.115.312c.272 1.154.41 2.44.41 3.823 0 .354-.01.718-.023 1.097-.07 1.377-.361 2.657-.868 3.801l-.322.595z"/>
        <path fill="#00be3c" d="M13.84 14.946a15.846 15.846 0 0 0 2.847-.31c1.488-.3 2.712-.772 3.557-1.162.845-.39 1.29-.693 1.293-.689l1.14-.766-.258 1.348c-.007.063-.694 3.582-4.582 4.436-.495.106-.966.15-1.414.15a6.609 6.609 0 0 1-1.05-.09 13.853 13.853 0 0 0 2.748 1.525c.736.304 1.179.406 1.179.408l1.463.351-1.323.714c-.05.021-1.153.622-2.696.626a5.373 5.373 0 0 1-3.132-.993 5.12 5.12 0 0 1-1.504-1.612c-.446 1.088-1.295 2.335-2.918 3.247-1.152.647-2.272.873-3.24.873-1.985-.006-3.32-.904-3.373-.936l-1.255-.843 1.498-.205c.002 0 .553-.07 1.474-.345a16.49 16.49 0 0 0 4.91-2.42 5.538 5.538 0 0 1-2.041.408c-.298 0-.615-.025-.94-.078-3.426-.592-4.176-3.696-4.187-3.752l-.317-1.325 1.17.698c.003.002.39.236 1.125.534.737.297 1.798.645 3.08.842.132.02.247.026.375.042a6.279 6.279 0 0 1-2.15-1.499C3.8 12.534 3.447 10.71 3.449 9.41c0-1.095.238-1.842.253-1.88l.48-1.509.597 1.47c.002 0 .208.515.704 1.341a16.65 16.65 0 0 0 5.032 5.265c.186.123.35.225.496.31.693.328 1.75.54 2.83.54M3 1.001l.826 1.052a10.676 10.676 0 0 0 8.441 4.11c3.333 0 6.415-1.518 8.444-4.11l.826-1.052z"/>
        <path fill="#ffbe00" d="M14.403 15.124c-.509.831-1.504 1.147-2.223.707a1.36 1.36 0 0 1-.516-.594c-.059.054-.12.106-.19.149-.718.44-1.713.124-2.222-.707-.508-.83-.338-1.861.381-2.3.718-.441 1.714-.123 2.222.706.044.072.076.147.11.221.54-.656 1.41-.88 2.057-.482.72.44.89 1.47.381 2.3"/>
    </g>
</svg>
