<svg xmlns="http://www.w3.org/2000/svg" width="32" height="32" viewBox="0 0 32 32">
    <defs>
        <clipPath id="a">
            <path d="M0 24h24V0H0z"/>
        </clipPath>
    </defs>
    <g clip-path="url(#a)" transform="matrix(1.33333 0 0 -1.33333 0 32)">
        <path fill="#00be3c" d="M2.14 7.059l-.783-.783a1.22 1.22 0 0 1-.002-1.721l1.86-1.858c.237-.237.55-.356.86-.356h.008c.305 0 .616.119.853.354l.786.786a5.808 5.808 0 0 0-2.207 1.366A5.75 5.75 0 0 0 2.14 7.059M18.096 8.026a4.524 4.524 0 0 1-2.531 1 22.862 22.862 0 0 1 1.937 2.628c.323-.709.644-1.794.633-2.925 0-.232-.013-.467-.04-.703m.163 4.936c.1.193.203.386.295.581.14.298.268.606.385.912L16.86 12.99c-4.428-3.108-7.267-4.039-9.61-4.4-1.306-.2-3.09.138-4.404.616-.003-.056-.014-.117-.015-.17a4.74 4.74 0 0 1 1.388-3.48l.016-.015a4.73 4.73 0 0 1 3.46-1.37c1.63.031 3.676.833 6.152 3.094.522.353 1.015.483 1.498.485 1.026.01 2.062-.68 2.61-1.426l.752-1.015.387 1.202c.242.751.34 1.504.34 2.218-.016 1.835-.596 3.376-1.176 4.233"/>
        <path fill="#00be3c" d="M7.39 19.476c1.13.011 2.215-.312 2.926-.634a22.695 22.695 0 0 1-2.63-1.939 4.512 4.512 0 0 1-1 2.534c.236.027.472.04.704.04m-4.338-8.979l.017.01c1.1-.436 2.806-.815 3.984-.633.15.023.32.06.479.09.513 2.088 1.59 4.631 4.119 8.235l1.455 2.074a12.898 12.898 0 0 1-.903-.38c-.194-.093-.388-.196-.581-.297-.86.584-2.401 1.164-4.232 1.18a7.09 7.09 0 0 1-2.22-.345l-1.19-.39 1.005-.749c.744-.546 1.434-1.579 1.422-2.607 0-.47-.13-.958-.47-1.478-1.645-1.795-2.517-3.362-2.885-4.71"/>
        <path fill="#ffbe00" d="M17.795 15.127l-.361.361c.289.454.539.898.744 1.325-.037-.517-.172-1.085-.383-1.686m-.418-1.029a15.09 15.09 0 0 0-.526-1.004l-.652.651c.23.298.453.598.665.898l.523-.522-.01-.023m-1.9.369l-.715.715.78.782.595-.593c-.208-.297-.431-.6-.66-.904m-1.322-1.656l-.882.882.78.781.806-.805a35.776 35.776 0 0 0-.704-.858m-1.4-1.574l-.97.969.78.78.935-.935c-.255-.288-.504-.56-.745-.814m-1.888 1.888l-.97.97c.254.241.526.49.815.746l.935-.936zm1.46 3.076l.808-.808-.78-.781-.885.885c.28.236.567.472.858.704m.43 2.516l.022.01.52-.52c-.3-.213-.6-.435-.898-.665l-.648.648c.333.189.669.37 1.004.527m1.866-1.834l-.781-.782-.717.718c.303.228.606.452.903.659zm.836 2.634a12.955 12.955 0 0 1-1.314-.741l-.36.359c.597.21 1.16.344 1.674.382m2.168-1.469c-.157-.498-.49-1.129-.928-1.826l-.45.449zm-.915.924l-1.381-1.382-.452.452c.7.441 1.334.773 1.833.93m1.74.822c-1.443 1.397-3.444 1.207-5.347.481v-.001L11.65 18.2c-.19-.273-.358-.528-.533-.788l.496-.496c-.29-.236-.57-.475-.847-.714l-.265.265a35.347 35.347 0 0 1-.541-.874l.053-.053-.176-.162a25.151 25.151 0 0 1-1.402-2.75c.234.246.476.496.74.759l.008.007.977-.977-.782-.781-.958.959c-.15-.352-.283-.69-.4-1.017l.65-.65-1.184-1.185A16.212 16.212 0 0 1 7.25 8.59c.366.057.75.134 1.144.224l1.195 1.196.653-.654c.328.119.665.249 1.018.399l-.963.963.78.781.978-.977-.008-.007a37.575 37.575 0 0 0-.773-.754 25.2 25.2 0 0 1 2.757 1.41l.167.182.05-.05c.288.171.576.342.88.534l-.27.269c.24.277.48.559.716.848l.494-.495c.264.177.516.338.79.531l2.08 1.466c.724 1.9.912 3.896-.485 5.338"/>
        <path fill="#b45000" d="M23 18.145c-1.484 0-.986.896-2.178 2.568-1.093 1.53-2.969 1.009-3.419-.218a3.565 3.565 0 0 0 1.05-.702c.867-.895 1.122-2.005 1.019-3.172 1.567-1.063 2.888-.112 2.888-.112s-1.029-.052-1.805.892c.332-.333 1.723-.363 2.445.744"/>
    </g>
</svg>
