<svg xmlns="http://www.w3.org/2000/svg" width="32" height="32" viewBox="0 0 32 32">
    <defs>
        <clipPath id="a">
            <path d="M0 24h24V0H0z"/>
        </clipPath>
    </defs>
    <g clip-path="url(#a)" transform="matrix(1.33333 0 0 -1.33333 0 32)">
        <path fill="red" d="M11.999 8.398a3.602 3.602 0 1 0 0 7.204 3.602 3.602 0 0 0 0-7.204m8.164 3.188a5.5 5.5 0 0 1-.935.413c.348.122.669.26.935.413a3.723 3.723 0 1 1-3.725 6.45 5.527 5.527 0 0 1-.825-.605c.071.365.112.711.112 1.018a3.725 3.725 0 1 1-7.45 0c0-.307.042-.653.113-1.018a5.537 5.537 0 0 1-.827.605 3.723 3.723 0 1 1-3.724-6.45c.266-.154.586-.29.935-.413a5.5 5.5 0 0 1-.935-.413A3.722 3.722 0 0 1 2.474 6.5a3.722 3.722 0 0 1 5.087-1.364c.266.154.545.363.826.605a5.434 5.434 0 0 1-.112-1.018A3.724 3.724 0 0 1 12 1a3.723 3.723 0 0 1 3.725 3.723c0 .307-.041.654-.112 1.018.281-.242.56-.45.825-.605a3.724 3.724 0 1 1 3.725 6.45"/>
    </g>
</svg>
