<svg xmlns="http://www.w3.org/2000/svg" width="32" height="32" viewBox="0 0 32 32">
    <defs>
        <clipPath id="a">
            <path d="M0 24h24V0H0z"/>
        </clipPath>
    </defs>
    <g clip-path="url(#a)" transform="matrix(1.33333 0 0 -1.33333 0 32)">
        <path fill="#ff8c00" d="M18.357 18.012v.98h1.89v4.007h-7.674v-4.008h1.932v-1.229a8.973 8.973 0 0 0-.44-.889c-1.04-1.859-3.707-5.503-8.96-5.5-.638 0-1.268.086-1.694.092-.634.008-1.762-.154-2.133-1.296a2.24 2.24 0 0 1-.094-.649c-.022-.33.17-1.443 1.42-2.438.556.76 1.913 1.597 5.02 1.825 4.871.47 5.866 1.854 7.027 5.064l.946-.32c-1.087-3.377-2.82-5.385-7.889-5.742-2.975-.277-3.947-.938-4.275-1.38.004-.003-.003.001 0 0a2.826 2.826 0 0 1-.05-.552c.026-1.632 1.45-2.393 2.612-2.739a9.349 9.349 0 0 1 1.175-.27 2.33 2.33 0 0 0-.057.455c.047 1.48 1.436 2.021 2.821 2.404 1.437.393 3.155.67 4.438 1.232 3.012 1.236 3.295 5.148 3.284 6.224 0 .171-.006.255-.006.255h.002l.998.05c0-.009.004-.118.004-.305-.012-1.152-.193-5.523-3.888-7.144-1.453-.629-3.21-.899-4.566-1.276-1.412-.387-2.133-.839-2.087-1.44 0-.168.05-.392.163-.665.104-.206.251-.436.487-.666.61-.597 1.691-1.089 3.491-1.089h.023c.093.02 4.88.214 8.007 3.293.601.613 2.52 2.777 2.528 6.058-.026 4.615-3.338 6.987-4.455 7.658"/>
    </g>
</svg>
