<svg xmlns="http://www.w3.org/2000/svg" width="32" height="32" viewBox="0 0 32 32">
    <defs>
        <clipPath id="a">
            <path d="M0 24h24V0H0z"/>
        </clipPath>
    </defs>
    <g clip-path="url(#a)" transform="matrix(1.33333 0 0 -1.33333 0 32)">
        <path fill="#ff8c00" d="M21.335 9.898a.499.499 0 0 0-.487.608c.1.47.151.967.153 1.496-.009 2.328-1 4.094-2.825 5.288v-.002a.5.5 0 1 0 .543.84c2.089-1.344 3.29-3.5 3.28-6.126a7.972 7.972 0 0 0-.175-1.708.504.504 0 0 0-.489-.396m-.873-2.143a.65.65 0 1 0 0 1.3.65.65 0 0 0 0-1.3M11.999 20.82C4.674 20.82 1 16.871 1 12c0-4.872 3.674-8.82 10.999-8.82C19.324 3.18 23 7.127 23 12c0 4.871-3.676 8.82-11.001 8.82"/>
        <path fill="#00be3c" d="M21.017 21.882s-2.68 1.022-5.742.384c-1.904-.397-2.555-1.365-2.775-1.898v1.982h-1.001v-3.098l-.622-.94H7.245l2.937-1.043-1.122-1.695 2.939 1.047 2.937-1.047-1.12 1.695 2.935 1.044H13.12l-.62.936v.697c.663-.353 3.268-1.205 5.98-.38 2.629.8 2.537 2.316 2.537 2.316"/>
    </g>
</svg>
