<svg xmlns="http://www.w3.org/2000/svg" width="32" height="32" viewBox="0 0 32 32">
    <defs>
        <clipPath id="a">
            <path d="M0 24h24V0H0z"/>
        </clipPath>
    </defs>
    <g clip-path="url(#a)" transform="matrix(1.33333 0 0 -1.33333 0 32)">
        <path fill="red" d="M20.566 7.494a.653.653 0 0 0-.897-.2.65.65 0 0 0-.2.9c.471.74.796 1.683.8 2.858 0 .233-.014.473-.04.718-.072.744-.457 1.776-1.062 2.314h.002a.646.646 0 0 0-.04.917.647.647 0 0 0 .916.042c.941-.877 1.361-2.132 1.476-3.135.031-.294.045-.58.045-.856.002-1.419-.403-2.62-1-3.558m-2.08-1.782a.637.637 0 1 0-.002 1.274.637.637 0 0 0 .002-1.274m4.36 6.434c-.315 2.92-2.466 6.138-6.126 5.893-1.288-.103-3.702-.326-4.72-.41-1.019.084-3.433.307-4.722.41-3.66.245-5.81-2.973-6.125-5.893C.735 8.26 2.585 5.163 5.201 3.687 8.134 2.032 11.594 2.07 12.001 1c.404 1.07 3.864 1.032 6.797 2.687 2.616 1.476 4.465 4.573 4.047 8.46"/>
        <path fill="#00be3c" d="M11.222 14.79c.012.135.019.264.019.388 0 .88-.282 1.441-.29 1.453l-.08.157-.124-.116c-.591-.547-1.76-1.24-3.4-1.242H7.34c-.095 0-.192.002-.288.004l-1.677.076 1.444.856c.603.354 1.089.84 1.658 1.335l.17.148-.225.083c-.63.213-.992.586-1.138 1.018a4.971 4.971 0 0 0-.191.714l-.225 1.078.96-.539c.855-.486 1.724-.515 2.623-.716.042-.008.058-.01.062-.012.229.036.144.02.292.131.112.14.137.144.156.323v2.58h2.092v-2.576c.019-.193.049-.212.117-.304.18-.149.109-.132.34-.17l.023.005c.927.208 1.797.235 2.65.722l.956.54-.221-1.077a4.685 4.685 0 0 0-.2-.74c-.135-.41-.497-.78-1.145-.998l-.21-.08.175-.148c.568-.494 1.053-.978 1.657-1.334l1.446-.853-1.68-.075a3.772 3.772 0 0 0-.207-.006v.19-.19c-1.574 0-2.636.71-3.226 1.255l-.166.153-.058-.246a.139.139 0 0 0-.003-.017l-.08-.342h-.027a5.56 5.56 0 0 0-.437-.957 3.706 3.706 0 0 0-.702-.887l-.948-.857z"/>
    </g>
</svg>
