<svg xmlns="http://www.w3.org/2000/svg" width="32" height="32" viewBox="0 0 32 32">
    <defs>
        <clipPath id="a">
            <path d="M0 24h24V0H0z"/>
        </clipPath>
    </defs>
    <path fill="#00be3c" d="M19.219 14.01L16 10.79l-3.22 3.22L16 17.23zM12.78 22.335L16 25.553l3.22-3.218L16 19.116zM11.837 14.953l-3.22 3.219 3.22 3.218 3.219-3.218z"/>
    <g clip-path="url(#a)" transform="matrix(1.33333 0 0 -1.33333 0 32)">
        <path fill="#00be3c" d="M20.283 7.625l-2.04 2.039-2.414-2.415 2.678-2.678a8.911 8.911 0 0 0-.708-.707l-2.678 2.678-2.414-2.414 2.034-2.033a8.577 8.577 0 0 0-1.127-.29L12 3.42l-1.615-1.615a8.563 8.563 0 0 0-1.126.29l2.033 2.033-2.414 2.414-2.677-2.678c-.25.223-.486.458-.709.708L8.17 7.25 5.756 9.664 3.717 7.625c-.12.365-.22.739-.293 1.123l1.625 1.624-1.627 1.627c.071.385.17.759.29 1.124l2.044-2.045 2.414 2.415-2.688 2.689c.221.249.457.485.706.707l2.69-2.689 2.415 2.415-2.052 2.05c.365.122.74.22 1.124.293L12 17.323l1.636 1.635a8.772 8.772 0 0 0 1.123-.293l-2.05-2.05 2.413-2.413 2.69 2.689c.248-.223.484-.459.705-.708l-2.687-2.689 2.414-2.414 2.045 2.045c.12-.365.218-.74.29-1.125l-1.627-1.627 1.624-1.624a8.744 8.744 0 0 0-.293-1.124m-7.634 12.11V21.7h5.023V23H6.406v-1.3h4.943v-1.965c-4.878-.338-8.733-4.39-8.733-9.351a9.384 9.384 0 1 1 18.767 0c0 4.962-3.857 9.015-8.734 9.351"/>
        <path fill="#00be3c" d="M12.707 10.371l2.414-2.414 2.415 2.414-2.415 2.415z"/>
    </g>
</svg>
