<svg xmlns="http://www.w3.org/2000/svg" width="32" height="32" viewBox="0 0 32 32">
    <defs>
        <clipPath id="a">
            <path d="M0 24h24V0H0z"/>
        </clipPath>
    </defs>
    <g clip-path="url(#a)" transform="matrix(1.33333 0 0 -1.33333 0 32)">
        <path fill="#595959" d="M16.508 12.63a.64.64 0 0 1-.178.47.634.634 0 0 1-.468.177c-.194 0-.344-.06-.454-.177a.677.677 0 0 1-.16-.47c0-.173.053-.323.16-.452a.563.563 0 0 1 .454-.194c.17 0 .323.065.453.194a.618.618 0 0 1 .193.452m5.172-.646c0 .84-.102 1.676-.307 2.505-.205.829-.501 1.557-.888 2.182-.346.538-.745.97-1.197 1.293a2.504 2.504 0 0 1-1.487.485 2.477 2.477 0 0 1-1.502-.485c-.442-.323-.824-.755-1.148-1.293-.388-.56-.69-1.266-.905-2.118a9.986 9.986 0 0 1-.324-2.471c.043.71.242 1.303.598 1.777s.802.71 1.342.71c.582 0 1.05-.27 1.406-.807a3.167 3.167 0 0 0 .533-1.778c0-.625-.178-1.212-.533-1.762-.356-.55-.824-.824-1.406-.824-.54 0-.975.226-1.31.678-.333.453-.532 1.024-.597 1.713 0-.861.053-1.696.16-2.504.11-.807.313-1.481.616-2.02.324-.625.727-1.068 1.213-1.326.484-.258 1.103-.387 1.857-.387s1.374.129 1.859.387c.485.258.899.7 1.244 1.326.3.582.506 1.287.615 2.117.107.829.16 1.697.16 2.602m1.294 0c0-2.262-.356-4.116-1.067-5.56-.71-1.442-2.08-2.165-4.105-2.165-2.025 0-3.39.723-4.09 2.166-.698 1.443-1.05 3.285-1.05 5.526v.033c0 1.875.432 3.636 1.294 5.285.862 1.648 2.144 2.472 3.846 2.472 1.68 0 2.963-.824 3.847-2.472a11.028 11.028 0 0 0 1.325-5.285m-14.19.646a.613.613 0 0 1-.193.47.654.654 0 0 1-.454.177.634.634 0 0 1-.468-.177.636.636 0 0 1-.178-.47c0-.173.059-.323.178-.452a.606.606 0 0 1 .468-.194c.173 0 .324.065.454.194a.622.622 0 0 1 .193.452m1.293-.68a3.32 3.32 0 0 0-.566-1.744c-.355-.54-.813-.808-1.374-.808-.603 0-1.077.275-1.421.824a3.25 3.25 0 0 0-.518 1.762c0 .646.172 1.239.518 1.778.344.538.818.808 1.42.808.54 0 .982-.242 1.327-.728a3.156 3.156 0 0 0 .582-1.631 10.651 10.651 0 0 1-.34 2.407c-.205.787-.49 1.47-.856 2.053-.367.538-.766.97-1.196 1.293a2.368 2.368 0 0 1-1.455.485 2.5 2.5 0 0 1-1.486-.485c-.453-.323-.852-.755-1.197-1.293-.41-.625-.711-1.353-.904-2.182a10.91 10.91 0 0 1-.291-2.505c0-.905.048-1.773.145-2.602.097-.83.307-1.535.63-2.117.324-.625.727-1.068 1.212-1.326s1.116-.387 1.89-.387c.734 0 1.343.129 1.828.387.484.258.91.7 1.276 1.326.28.603.48 1.318.599 2.149.117.829.177 1.676.177 2.537m1.293.033c0-2.262-.355-4.116-1.067-5.56C9.59 4.983 8.222 4.26 6.197 4.26c-2.025 0-3.394.723-4.105 2.166-.71 1.443-1.066 3.285-1.066 5.526v.033c0 1.852.436 3.609 1.309 5.269.872 1.659 2.159 2.488 3.862 2.488 1.68 0 2.963-.83 3.847-2.488a11.063 11.063 0 0 0 1.325-5.27"/>
    </g>
</svg>
