<svg xmlns="http://www.w3.org/2000/svg" width="32" height="32" viewBox="0 0 32 32">
    <defs>
        <clipPath id="a">
            <path d="M0 24h24V0H0z"/>
        </clipPath>
    </defs>
    <g clip-path="url(#a)" transform="matrix(1.33333 0 0 -1.33333 0 32)">
        <path fill="none" stroke="#ff8c00" stroke-width="1.3" d="M13.667 20.83c.455-4.676.508-6.908 1.65-9.254 1.144-2.347 2.251-3.678 2.251-5.842 0-1.148-.561-2.078-1.253-2.078-1.171 0-1.953 1.031-2.841.22A2.073 2.073 0 0 0 11.784 3c-.698 0-1.312.347-1.689.875-.889.812-1.67-.219-2.842-.219-.692 0-1.253.93-1.253 2.078 0 2.164 1.107 3.495 2.25 5.842 1.144 2.346 1.196 4.578 1.652 9.254"/>
    </g>
</svg>
