<svg xmlns="http://www.w3.org/2000/svg" width="32" height="32" viewBox="0 0 32 32">
    <defs>
        <clipPath id="a">
            <path d="M0 24h24V0H0z"/>
        </clipPath>
    </defs>
    <g clip-path="url(#a)" transform="matrix(1.33333 0 0 -1.33333 0 32)">
        <path fill="red" d="M12 9.849c-3.5 0-6.625 3.375-6.625 3.375h13.25S15.5 9.849 12 9.849m7.02 5.117c-3.284 1.514-5.291 2.936-5.291 2.936L12 16.45l-1.729 1.45S8.266 16.48 4.98 14.967c-1.32-.61-2.98-.55-2.98-1.213 0-.664.84-.668 1.525-1.345C5.234 10.726 7.25 6.098 12 6.098s6.766 4.628 8.475 6.31c.685.677 1.525.68 1.525 1.345 0 .664-1.66.604-2.98 1.213"/>
    </g>
</svg>
