<svg xmlns="http://www.w3.org/2000/svg" width="32" height="32" viewBox="0 0 32 32">
    <defs>
        <clipPath id="a">
            <path d="M0 24h24V0H0z"/>
        </clipPath>
    </defs>
    <g clip-path="url(#a)" transform="matrix(1.33333 0 0 -1.33333 0 32)">
        <path fill="red" d="M15.663 12.367c-.064-2.264-.129-4.273-1.498-5.982-1.144-1.434-2.94-2.129-4.75-2.129-2.244-.002-4.397 1.071-5.238 2.896-.48 1.018-.717 2.186-.717 3.41-.002 2.65 1.14 5.52 3.267 7.557a28.67 28.67 0 0 1 3.6-.464c-.5-.965-1.184-2.648-1.49-5.106l1.26-.159c.234 1.888.703 3.268 1.105 4.17.203.45.388.78.52.993.012.022.017.027.03.046.082 0 .163-.005.247-.005a27.41 27.41 0 0 1 4.75.432c-.955-1.878-1.032-3.848-1.086-5.659M23 19.862l-.535 1.151h-.002c-.003-.002-1.13-.53-3.023-1.07-1.892-.542-4.52-1.082-7.44-1.08-2.922-.002-5.55.538-7.44 1.08-1.894.54-3.022 1.072-3.026 1.07L1 19.863c.027-.01 1.68-.779 4.267-1.419-2.015-2.234-3.072-5.133-3.074-7.882 0-1.386.27-2.74.836-3.949C4.162 4.216 6.797 2.99 9.414 2.986h.01c2.12 0 4.3.818 5.731 2.607 1.68 2.112 1.706 4.512 1.775 6.735.064 2.187.17 4.212 1.51 6.045 2.754.653 4.531 1.478 4.56 1.49"/>
    </g>
</svg>
