<svg xmlns="http://www.w3.org/2000/svg" width="32" height="32" viewBox="0 0 32 32">
    <defs>
        <clipPath id="a">
            <path d="M0 24h24V0H0z"/>
        </clipPath>
    </defs>
    <g clip-path="url(#a)" transform="matrix(1.33333 0 0 -1.33333 0 32)">
        <path fill="red" d="M19.823 20.054l-4.047-4.046a.523.523 0 0 0-.746 0 .525.525 0 0 0 0 .747l4.047 4.046a.529.529 0 0 0 .746-.747M14.747 9.508l-4.569 4.564 2.031 2.03 4.565-4.565zM3.435 7.328l5.861 5.862 4.566-4.566-5.859-5.86zm18.892 15.617s-2.498.45-4.17-1.223c-.656-.654-3.746-3.745-4.902-4.901l-1.046 1.045L1.671 7.329l6.33-6.33 10.54 10.538-1.044 1.043 4.83 4.828z"/>
    </g>
</svg>
