<svg xmlns="http://www.w3.org/2000/svg" width="32" height="32" viewBox="0 0 32 32">
    <defs>
        <clipPath id="a">
            <path d="M0 24h24V0H0z"/>
        </clipPath>
    </defs>
    <g clip-path="url(#a)" transform="matrix(1.33333 0 0 -1.33333 0 32)">
        <path fill="red" d="M17.284 9.83l-2.219-2.217a.296.296 0 0 0-.415-.002.298.298 0 0 0 0 .418l2.22 2.217a.293.293 0 0 0 .414 0 .298.298 0 0 0 0-.416m-4.15 2.208a.293.293 0 1 0-.413.416l2.216 2.217a.294.294 0 0 0 .415-.416zM8.71 13.97a.288.288 0 0 0-.414 0 .29.29 0 0 0 0 .414l2.217 2.218c.114.116.3.116.416 0a.295.295 0 0 0 0-.416zm8.813-2.88c-.533.534-1.216.356-1.99-.162 0 0-.42.12-.602.118-.068-.004-.134-.022-.203-.03.492.665.787 1.276.815 1.91.003.176-.112.596-.112.596.522.78.697 1.455.163 1.993-.533.531-1.217.353-1.992-.163 0 0-.426.118-.599.118-.633-.028-1.246-.325-1.913-.817.008.07.028.135.031.203 0 .174-.12.584-.12.584.517.776.702 1.471.168 2.004-.534.534-1.217.357-1.993-.162 0 0-.42.12-.599.12-1.325-.057-2.555-1.264-4.393-3.065-2.043-2.043-3.105-3.108-3.105-3.108l.696-.696c0 .002 1.062 1.064 3.107 3.107 1.213 1.248 2.223 2.107 2.93 2.513-.673-.676-1.163-1.336-1.174-1.45-.033-.345.144-.784.575-1.216.43-.429.871-.605 1.213-.572.114.01.762.49 1.43 1.152-.365-.627-1.089-1.492-2.109-2.52A5967.509 5967.509 0 0 0 4.254 8.05l.697-.696 4.352 4.355c1.211 1.24 2.221 2.101 2.927 2.508-.67-.674-1.158-1.332-1.169-1.448-.03-.343.145-.783.575-1.212.431-.432.872-.607 1.215-.574.114.01.761.492 1.43 1.152-.41-.705-1.267-1.706-2.497-2.908-2.043-2.044-4.35-4.353-4.352-4.353l.697-.699c0 .002 2.366 2.37 3.105 3.11 1.214 1.245 2.226 2.106 2.931 2.511-.672-.676-1.162-1.336-1.173-1.45-.03-.345.146-.783.574-1.214.433-.43.872-.608 1.216-.574.114.011.763.492 1.431 1.154-.41-.705-1.267-1.707-2.497-2.912L10.61 1.697 11.308 1c-.002 0 1.063 1.062 3.104 3.105 1.797 1.846 3.006 3.073 3.064 4.397 0 .174-.112.601-.112.601.52.776.691 1.454.158 1.986"/>
        <path fill="red" d="M22.015 14.573h-1.41a7.53 7.53 0 0 1 .48 2.164h.929v-2.164M22.018 23v-5.278h-.905L21.114 23h-.984v-5.77c0-1.413-.493-2.6-.992-3.438-.497-.836-.981-1.285-.977-1.293l-.887-.846h4.25c.02-.002.04-.002.06-.002.574 0 1.058.326 1.23.738.19.411.182.82.186 1.151V23z"/>
    </g>
</svg>
