<svg xmlns="http://www.w3.org/2000/svg" width="32" height="32" viewBox="0 0 32 32">
    <defs>
        <clipPath id="a">
            <path d="M0 24h24V0H0z"/>
        </clipPath>
    </defs>
    <g clip-path="url(#a)" transform="matrix(1.33333 0 0 -1.33333 0 32)">
        <path fill="#f0f" d="M6.66 10.308a.87.87 0 1 1 1.74 0 .87.87 0 0 1-1.74 0M15.15 10.308a.87.87 0 1 1-1.738 0 .87.87 0 0 1 1.738 0M11.86 7.09c-.257-.163-.603-.31-.956-.307-.354-.002-.697.144-.955.308-.256.16-.383.312-.387.306l-.922-.864c.051-.036.881-.987 2.264-1.012 1.385.025 2.212.976 2.264 1.012l-.92.862v.002s-.133-.145-.389-.306"/>
        <path fill="#f0f" d="M16.305 14.234a5.867 5.867 0 0 1-1.651 1.582c1.194.664 2.13 1.96 2.132 3.722l-.002.045c1.673-1.602 2.509-3.943 2.534-6.5-.003-2.492-.626-3.614-1.145-4.125a2.071 2.071 0 0 0-.358-.284v.091c-.002 1.94-.418 3.92-1.51 5.47m-10.802 0c-1.093-1.55-1.507-3.53-1.511-5.47v-.09a2.063 2.063 0 0 0-.356.283c-.518.511-1.14 1.633-1.142 4.125.044 4.668 2.772 8.626 8.41 8.654 1.772-.009 3.255-.405 4.458-1.089.103-.398.162-.773.162-1.11-.002-1.878-1.421-2.929-2.635-2.957a7.507 7.507 0 0 1-1.984.252c-2.498.012-4.316-1.042-5.402-2.599M19.06 8.06c.836.823 1.523 2.336 1.519 5.023 0 2.586-.801 5.06-2.432 6.904-1.628 1.847-4.092 3.018-7.242 3.013-3.15.005-5.615-1.166-7.241-3.013-1.632-1.844-2.434-4.318-2.434-6.904-.002-2.687.686-4.2 1.518-5.023.539-.532 1.1-.74 1.479-.82.888-2.053 2.382-3.6 4.224-4.336V1h1.264v2.806l-.437.14c-1.712.55-3.166 1.963-3.991 4.013-.018.268-.031.54-.031.806.06 3.572 1.428 6.787 5.649 6.805 4.218-.018 5.588-3.235 5.647-6.805 0-.263-.013-.534-.03-.804-.825-2.052-2.277-3.464-3.988-4.014l-.438-.14V1h1.26v1.903c1.844.736 3.34 2.284 4.228 4.338.379.081.938.29 1.476.82M19.92 3.54a4.31 4.31 0 0 1-1.086 1.265 4.3 4.3 0 0 1 1.086 1.263c.297-.51.638-.906 1.088-1.263A4.31 4.31 0 0 1 19.92 3.54m2.199 1.676c-.95.618-1.234.961-1.753 2.166l-.45 1.073-.446-1.073c-.514-1.205-.798-1.548-1.75-2.166l-.65-.41.65-.412c.95-.619 1.236-.962 1.75-2.167l.447-1.077.449 1.077c.519 1.205.803 1.548 1.753 2.167l.65.412z"/>
    </g>
</svg>
