<svg xmlns="http://www.w3.org/2000/svg" width="32" height="32" viewBox="0 0 32 32">
    <defs>
        <clipPath id="a">
            <path d="M0 24h24V0H0z"/>
        </clipPath>
    </defs>
    <g clip-path="url(#a)" transform="matrix(1.33333 0 0 -1.33333 0 32)">
        <path fill="#f0f" d="M8.195 11.89a1.08 1.08 0 0 1-1.08-1.082 1.082 1.082 0 1 1 2.164 0c0 .6-.484 1.082-1.084 1.082M15.805 11.89a1.083 1.083 0 1 1 0 0M9.242 7.488l1.012.814c.41-.513 1.06-.937 1.747-.93.685-.007 1.33.415 1.74.93h.004l1.012-.814c-.591-.734-1.547-1.41-2.756-1.417-1.214.008-2.171.685-2.76 1.417"/>
        <path fill="#f0f" d="M12 4.15a7.855 7.855 0 0 0-7.202 4.728l-.24.553-.568-.199c-.103-.039-.114-.039-.114-.04a.884.884 0 0 0-.105-.008c-.446-.037-1.173.591-1.335 1.641a2.681 2.681 0 0 0-.036.44c0 .937.482 1.53.89 1.565.022.004.043.008.076.008a.951.951 0 0 0 .154-.017l.37-.065v-.007c1.688-.39 3.917-.062 5.422.434 1.688.556 3.974 1.556 5.639 3.222.727-1.526 2.252-3 3.705-3.53.53-.193.973-.318 1.504-.148l.36.086a.56.56 0 0 0 .256.019l.003-.002c.4-.033.885-.63.887-1.567 0-.144-.012-.292-.035-.44-.165-1.046-.895-1.678-1.338-1.639a.957.957 0 0 0-.111.007.984.984 0 0 0-.143.051l-.586.226-.247-.576A7.852 7.852 0 0 0 12 4.15m9.663 2.95a2.836 2.836 0 0 1-1.603.6c.035.063.08.122.112.187.042-.003.082-.004.122-.004 1.38.04 2.37 1.264 2.62 2.732.037.226.05.443.05.648 0 1.325-.675 2.61-1.977 2.851-.03.005-.063.01-.095.013-.96 4.026-4.571 7.021-8.891 7.023-4.323-.002-7.937-2.999-8.894-7.03a.676.676 0 0 1-.04-.008C1.78 13.874 1.099 12.59 1.1 11.265c0-.21.016-.427.053-.652C1.4 9.147 2.39 7.921 3.77 7.883l.06.001c.032-.064.076-.122.11-.185a2.828 2.828 0 0 1-1.602-.6C1.309 6.287.753 4.47 1.114 4.01c.36-.457 2.259-.34 3.289.473.454.357.75.824.91 1.285A9.11 9.11 0 0 1 12 2.851a9.112 9.112 0 0 1 6.686 2.917c.16-.462.458-.929.912-1.286 1.029-.814 2.928-.93 3.289-.473.362.46-.195 2.278-1.224 3.09"/>
    </g>
</svg>
