<svg xmlns="http://www.w3.org/2000/svg" width="32" height="32" viewBox="0 0 32 32">
    <defs>
        <clipPath id="a">
            <path d="M0 24h24V0H0z"/>
        </clipPath>
    </defs>
    <g clip-path="url(#a)" transform="matrix(1.33333 0 0 -1.33333 0 32)">
        <path fill="#00f" d="M21.01 9.684c-.211-.923-.916-1.477-1.43-1.457a.946.946 0 0 0-.201.022l-.512.112-.19-.49C17.42 4.629 14.82 2.208 12 2.227c-2.82-.02-5.42 2.402-6.677 5.644l-.192.493-.514-.117a.909.909 0 0 0-.196-.02c-.514-.02-1.22.536-1.432 1.466a2.39 2.39 0 0 0-.064.547c.004.815.736 1.326.877 1.467 3.822.793 8.02 2.564 10.862 5.31 1.583-3.902 4.809-5.27 4.809-5.27l.564-.028c.097-.004.15-.01.165-.014.454-.091.87-.65.873-1.462 0-.177-.021-.362-.065-.56m-.286 3.137c.39.733.579 1.58.58 2.444-.006 2.69-1.754 5.823-5.068 5.854a4.15 4.15 0 0 1-.223-.006c-1.401 1.306-3.086 1.892-4.737 1.888-4.175-.017-8.215-3.587-8.24-8.175 0-.651.086-1.32.264-1.996-1.042-.374-1.607-1.463-1.603-2.59 0-.271.032-.548.097-.828C2.112 8.086 3.108 7.058 4.354 7 5.79 3.663 8.592 1.02 12 1c3.409.02 6.21 2.663 7.647 6 1.243.058 2.243 1.082 2.558 2.41a3.7 3.7 0 0 1 .097.833c.004 1.117-.552 2.193-1.578 2.577"/>
        <path fill="#00f" d="M15.932 11.545a1.012 1.012 0 1 1-.001-2.025 1.012 1.012 0 0 1 0 2.025M9.087 10.533a1.01 1.01 0 1 1-2.024 0 1.013 1.013 0 1 1 2.024 0M14.495 6.873c-.36-.319-1.257-.969-2.494-.965-.828 0-1.494.282-1.963.572a3.844 3.844 0 0 0-.53.393c-.12.106-.159.156-.16.154l-.92-.811c.05-.05 1.335-1.522 3.573-1.534 2.24.012 3.521 1.484 3.574 1.534l-.919.811s-.042-.048-.16-.154"/>
    </g>
</svg>
