<svg xmlns="http://www.w3.org/2000/svg" width="32" height="32" viewBox="0 0 32 32">
    <defs>
        <clipPath id="a">
            <path d="M0 24h24V0H0z"/>
        </clipPath>
    </defs>
    <g clip-path="url(#a)" transform="matrix(1.33333 0 0 -1.33333 0 32)">
        <path fill="red" d="M11.781 3.86a3.14 3.14 0 0 0-3.136 3.134 3.144 3.144 0 0 0 3.136 3.136 3.14 3.14 0 0 0 3.136-3.136 3.137 3.137 0 0 0-3.136-3.135m3.742 15.55S16.8 16.7 19.99 16.374c0-.012.003-.022.003-.033-.004-2.2-1.587-3.885-3.418-3.887-1.834.004-3.414 1.688-3.42 3.887 0 .105.021.203.027.304.612.366 1.54 1.144 2.342 2.764M3.174 17.85c.002 1.143.436 2.14 1.105 2.841.838-.665 2.767-1.898 5.66-2.062.044-.25.07-.51.07-.78-.005-2.2-1.586-3.885-3.417-3.888-1.833.003-3.414 1.688-3.418 3.888m18.91-4.34c-.002.667-.308 1.107-.486 1.458-.186.366-.338.696-.344 1.37l.001.005c-.005 2.793-2.04 5.14-4.68 5.152-2.644-.012-4.679-2.359-4.683-5.152v-.005c-.007-.675-.158-1.002-.343-1.37-.178-.35-.483-.79-.487-1.458-.064-.769.387-1.677 1.311-1.943a4.93 4.93 0 0 1 .796-.196 1.341 1.341 0 0 1-.153-.175 4.353 4.353 0 0 1-1.235.197c-.467 0-.906-.092-1.328-.226v.656c0 .831-.675 1.507-1.507 1.507h-.155c1.484.876 2.478 2.58 2.48 4.52-.004 2.794-2.039 5.14-4.679 5.152-2.642-.012-4.678-2.358-4.682-5.152.002-1.94.997-3.644 2.482-4.52h-.155a1.508 1.508 0 0 1-1.506-1.507V1.001h5.095v.72c0 .828.425 1.551 1.065 1.982a4.37 4.37 0 0 1 .831-.573 1.502 1.502 0 0 1-.99-1.41V1h6.215v.72a1.5 1.5 0 0 1-1.063 1.432c.302.166.584.361.837.592a2.389 2.389 0 0 0 1.13-2.024V1h4.584v9.313c0 .414-.167.787-.436 1.06.29.05.546.113.775.192.922.266 1.375 1.175 1.31 1.942"/>
        <path fill="red" d="M14.951 15.635a.494.494 0 1 1-.002.988.494.494 0 0 1 .002-.988M18.198 15.635a.495.495 0 1 1 0 .99.495.495 0 0 1 0-.99M4.967 18.13a.494.494 0 1 1 0-.988.494.494 0 0 1 0 .988M8.215 17.14a.495.495 0 1 1 0 0M10.252 7.182a.495.495 0 1 1-.002-.99.495.495 0 0 1 .002.99M13.312 7.182a.494.494 0 1 1 .494-.493c0 .273-.22.493-.495.493M10.287 8.95l1.127-1.13.483.482-1.131 1.13zM12.146 9.588l-.482-.481 1.133-1.131.48.48z"/>
    </g>
</svg>
