<svg xmlns="http://www.w3.org/2000/svg" width="32" height="32" viewBox="0 0 32 32">
    <defs>
        <clipPath id="a">
            <path d="M0 24h24V0H0z"/>
        </clipPath>
    </defs>
    <g clip-path="url(#a)" transform="matrix(1.33333 0 0 -1.33333 0 32)">
        <path fill="#f0f" d="M4.077 18.13a.494.494 0 1 1 0-.988.494.494 0 0 1 0 .988M7.325 17.14a.495.495 0 1 1 0 0M15.884 16.624a.494.494 0 1 1 0-.988.494.494 0 0 1 0 .988M19.132 15.635a.495.495 0 1 1 0 0"/>
        <path fill="#f0f" d="M11.69 3.18a1.206 1.206 0 1 0 0 2.411 1.206 1.206 0 0 0 0-2.411m4.766 16.229s1.26-2.67 4.402-3.025c-.006-2.192-1.57-3.86-3.36-3.865-1.792.005-3.354 1.676-3.36 3.872 0 .099.019.19.026.287.61.377 1.51 1.152 2.292 2.73M2.333 17.897c.002 1.132.422 2.118 1.07 2.814 1.27-1.091 3.502-1.952 5.58-2.062a4.39 4.39 0 0 0 .069-.752c-.004-2.195-1.566-3.867-3.36-3.871-1.793.004-3.355 1.676-3.36 3.87m20.402-3.343c-.336.687-.621 1.198-.621 2.389v-.025c-.242 2.558-2.146 4.634-4.614 4.645-2.46-.011-4.36-2.073-4.61-4.62 0-1.191-.286-1.702-.623-2.39-.271-.551-.408-1.19-.116-1.951.235-.615.86-1.14 1.874-1.217a1.514 1.514 0 0 1-.22-.277h-.001l-.011-.02a1.45 1.45 0 0 1-.121-.251l-1.895-3.886-2.21 5.357a1.452 1.452 0 0 1-.11.267l-.018.046-.005-.002c-.26.45-.741.758-1.295.758h-.23c1.465.886 2.44 2.588 2.446 4.52-.007 2.8-2.025 5.16-4.661 5.172-2.637-.012-4.657-2.372-4.661-5.171.002-1.933.979-3.635 2.445-4.521H3.34c-.825 0-1.5-.674-1.5-1.5V1h7.798v1.954a2.5 2.5 0 0 1 2.053-1.075 2.491 2.491 0 0 1 1.88.868V1h7.797v9.314c0 .413-.17.788-.442 1.06 1.047.063 1.684.6 1.924 1.226.292.762.155 1.4-.116 1.952"/>
    </g>
</svg>
