<svg xmlns="http://www.w3.org/2000/svg" width="32" height="32" viewBox="0 0 32 32">
    <defs>
        <clipPath id="a">
            <path d="M0 24h24V0H0z"/>
        </clipPath>
    </defs>
    <g clip-path="url(#a)" transform="matrix(1.33333 0 0 -1.33333 0 32)">
        <path fill="#ff8c00" d="M8.484 11.576c-.042 0-.076-.018-.116-.023l-.31.757-.437-.178.307-.75a.956.956 0 0 1-.42-.78.975.975 0 1 1 .976.974M15.492 11.576c-.04 0-.076-.018-.117-.023l-.309.757-.435-.179.306-.75a.956.956 0 0 1-.42-.78.975.975 0 1 1 .975.975M13.207 5.488a2.712 2.712 0 0 0-1.219-.312c-.479 0-.91.153-1.22.312-.311.158-.461.302-.467.296l-.802-.93c.053-.035 1.012-.89 2.489-.904 1.475.013 2.436.87 2.489.906l-.803.928s-.154-.138-.467-.296M11.627 5.902l.572 1.086h-.002s-.415.218-.819.482a4.719 4.719 0 0 0-.445.32c.432.361 1.445 1.176 1.447 2.581-.002 1.174-.38 1.961-.404 2.013l-1.105-.535s.06-.117.133-.38c.074-.265.15-.646.15-1.098-.005-.569-.267-.933-.615-1.285-.173-.172-.36-.325-.534-.484-.152-.174-.4-.307-.443-.813.047-.515.29-.646.473-.848.598-.527 1.571-1.023 1.592-1.039"/>
        <path fill="#ff8c00" d="M21.309 5.03c-.533-1.79-1.86-2.453-3.338-2.477-.1 0-.2.021-.3.03 4.305.907 3.699 6.163 3.699 6.163a10.45 10.45 0 0 0 .185-1.9c0-.624-.074-1.228-.246-1.816m-.824 2.063c.125-3.828-3.97-4.312-3.97-4.312 2.064 1.125 3.204 2.172 3.97 4.312m-1.063-.14c-.203-2.406-2.39-2.969-2.39-2.969 1.015.813 1.703 1.5 2.39 2.97m-7.434-4.726C9.45 2.21 7.093 4.394 5.954 7.336l-.192.49-.512-.114a.72.72 0 0 0-.17-.018c-.433-.02-1.062.466-1.248 1.293a2.092 2.092 0 0 0-.061.49c.004.725.372 1.204.756 1.28.003.002.052.005.146.012l.356.02.16.32c1.909 3.906 5.61 5.031 8.239 5.04 1.057.02 1.947-.226 2.313-.412.076-1.074.502-2.185 1.076-3.102.644-.977 1.424-1.816 2.504-1.868a.863.863 0 0 0 .13-.012c.378-.074.747-.557.75-1.282a2.21 2.21 0 0 0-.056-.49c-.191-.827-.818-1.31-1.25-1.289a.721.721 0 0 0-.174.02l-.512.108-.19-.486c-1.138-2.942-3.495-5.127-6.031-5.108m-7.41 4.725c.688-1.469 1.376-2.156 2.39-2.969 0 0-2.186.563-2.39 2.97m-1.062.14c.766-2.14 1.906-3.188 3.969-4.313 0 0-4.094.484-3.97 4.312m2.514-4.54C4.55 2.577 3.226 3.24 2.69 5.03a6.417 6.417 0 0 0-.246 1.815c-.003.613.07 1.248.187 1.901 0 0-.607-5.256 3.698-6.164-.101-.008-.201-.029-.301-.029m9.14 14.101s-3.258 1.561-7.27-1.107c0 0 2.312 2.311 4.328 2.292 2.015-.02 2.943-1.185 2.943-1.185m-3.795 1.861c-1.636-.43-4-1.203-7.375-7 2.158 6.401 6.232 7.516 7.469 7.72 2.953.483 4.688-2 4.688-2l.054-.056s-2.29 2.008-4.836 1.336m-.437 1.922c2.64.391 4.5-.625 6-2.844-1.68 1.383-3.267 2.87-6.156 2.204-1.728-.398-4.438-1.563-7.438-7.64 0 0 1.875 7.14 7.594 8.28m.545 1.335c2.47-.03 4.252-.516 5.365-2.835l.2-.427c-2.07 2.983-5.692 3-7.803 2.333-3.76-1.187-5.092-5.544-5.092-5.544.668 4.138 3.469 6.446 7.33 6.473m8.469-10.157c-3.162 1.067-3.202 4.603-3.202 4.603.474-1.58 2.016-3.279 3.202-4.603m.652 1.151c-3.161 1.067-3.201 4.603-3.201 4.603.473-1.58 2.015-3.279 3.2-4.603m.31 1.023c-.705 1.012-2.133 3.13-3.241 4.306 0 0 2.272-.848 3.24-4.306m.264 1.106c-.355.988-.877 3.14-3.24 4.13 0 0 2.746.315 3.24-4.13m.299.637c-.273 2.738-1.561 4.357-3.463 4.337a4.24 4.24 0 0 1-.252-.008c-1.367 2.525-3.805 3.166-6.277 3.138-4.398.027-7.853-2.859-8.543-7.513-.44-2.906-1.71-5.768-1.721-8.64 0-.72.084-1.443.294-2.159.655-2.317 2.603-3.363 4.454-3.363l.062.001c.928.001 1.84.242 2.64.661.997-.615 2.116-.978 3.319-.986 1.202.008 2.319.371 3.315.986a5.757 5.757 0 0 1 2.643-.66c1.867-.023 3.853 1.02 4.519 3.364.227.794.317 1.627.317 2.477-.008 2.952-1.051 6.138-1.307 8.365"/>
    </g>
</svg>
