<svg xmlns="http://www.w3.org/2000/svg" width="32" height="32" viewBox="0 0 32 32">
    <defs>
        <clipPath id="a">
            <path d="M0 24h24V0H0z"/>
        </clipPath>
    </defs>
    <g clip-path="url(#a)" transform="matrix(1.33333 0 0 -1.33333 0 32)">
        <path fill="red" d="M20.177 9.001c-.191-.828-.821-1.315-1.257-1.294a.779.779 0 0 0-.168.018l-.513.113-.191-.49a10.19 10.19 0 0 0-.4-.881 4.765 4.765 0 0 1-3.084 1.13c-.374 0-.614-.045-.636-.048l.176-.928s.159.031.46.031c.629-.012 1.694-.146 2.61-1.022-1.27-2.034-3.16-3.417-5.172-3.401-2.015-.016-3.904 1.367-5.176 3.402.918.874 1.983 1.009 2.615 1.021.298 0 .458-.034.458-.03l.176.927h-.002c-.021.005-.26.048-.632.048a4.768 4.768 0 0 1-3.087-1.129c-.143.285-.281.576-.4.88l-.19.487-.514-.11a.735.735 0 0 0-.17-.02c-.435-.019-1.065.466-1.254 1.296a2.069 2.069 0 0 0-.058.489c.002.728.373 1.211.76 1.287.007.002.052.008.134.012l.586.025v1.872h13.485v-1.87l.608-.027a.907.907 0 0 0 .142-.014c.375-.072.746-.557.75-1.285 0-.158-.018-.324-.056-.489M10.239 18.8c.495.487.992.8 1.359.989.174.091.308.148.406.186.096-.039.229-.097.4-.186 1.049-.564 3.128-2.029 3.347-5.875H8.258c.142 2.499 1.066 3.983 1.98 4.886m9.752-6.9l-.005 1.453c0 1.439-.47 3.812-1.75 5.338-.036.043-.08.081-.117.123-.307.35-.657.675-1.052.963-.71.516-1.568.912-2.56 1.162a2.55 2.55 0 0 1-5.008 0c-.992-.25-1.85-.646-2.56-1.162a6.474 6.474 0 0 1-1.052-.963c-.038-.042-.081-.08-.116-.123-1.281-1.526-1.75-3.899-1.75-5.338v-1.451c-.97-.361-1.485-1.373-1.481-2.412 0-.248.03-.509.092-.773.289-1.215 1.199-2.165 2.352-2.235.147-.34.312-.671.49-.993a5.861 5.861 0 0 1-.517-.947l.867-.375c.066.152.144.271.216.405C7.47 2.485 9.563 1.015 12.002 1c2.439.015 4.529 1.485 5.96 3.573.074-.135.152-.255.22-.407l.866.377c-.154.356-.33.667-.518.947.177.323.343.654.49.995 1.15.072 2.058 1.022 2.35 2.234.064.264.09.523.09.771.005 1.035-.513 2.046-1.47 2.41"/>
        <path fill="red" d="M13.878 5.702s-.003-.01-.067-.068c-.201-.182-.745-.61-1.808-.612-.716 0-1.187.193-1.49.372-.15.09-.256.18-.32.24-.064.058-.066.072-.07.07l-.973-.752c.058-.083.952-1.159 2.853-1.157h.01c1.892 0 2.78 1.074 2.839 1.16l-.972.747zM6.986 9.941l2.902-.338.143 1.22-2.9.337zM13.972 10.822l.142-1.22 2.902.34-.145 1.218z"/>
    </g>
</svg>
