<svg xmlns="http://www.w3.org/2000/svg" width="32" height="32" viewBox="0 0 32 32">
    <defs>
        <clipPath id="a">
            <path d="M0 24h24V0H0z"/>
        </clipPath>
    </defs>
    <g clip-path="url(#a)" transform="matrix(1.33333 0 0 -1.33333 0 32)">
        <path fill="#b45000" d="M15.607 9.396a.852.852 0 0 0-.854.855.853.853 0 1 0 1.708 0 .853.853 0 0 0-.854-.854M12 3.737c-1.399.005-2.618.535-2.653.547l.45 1.06c.001.005.28-.11.694-.227.412-.117.96-.23 1.51-.23a5.851 5.851 0 0 1 1.526.23c.418.116.675.225.675.225h.002l.45-1.058c-.039-.012-1.257-.542-2.654-.547M8.393 9.397a.854.854 0 1 0 .002 1.707.854.854 0 0 0-.002-1.707M12 21.736c3.774-.027 5.968-1.511 7.041-3.508a14.34 14.34 0 0 1-.793.021c-1.794 0-4.657-.306-7.772-1.835l.003-.005c-2.582-.734-4.808-2.978-5.874-4.186a7.807 7.807 0 0 0-.474 2.671c.051 3.44 2.168 6.8 7.87 6.842m7.865-6.84c0-.912-.164-1.826-.473-2.672-1.03 1.167-3.14 3.306-5.61 4.112 1.784.514 3.356.651 4.465.651.591 0 1.036-.037 1.325-.07a7.84 7.84 0 0 0 .293-2.02m.314-4.015a9.027 9.027 0 0 1 .95 4.014c0 2.003-.677 4.038-2.184 5.575C17.44 22.012 15.123 23.003 12 23c-3.125.003-5.44-.989-6.947-2.528-1.508-1.539-2.185-3.574-2.183-5.577 0-1.397.333-2.785.95-4.014-.71-.396-1.076-1.398-.832-2.437.283-1.204 1.273-2 2.214-1.784C6.436 3.48 9.012 1 12 1c2.99 0 5.564 2.48 6.798 5.66.941-.216 1.932.58 2.213 1.784.246 1.04-.12 2.043-.83 2.44"/>
    </g>
</svg>
