<svg xmlns="http://www.w3.org/2000/svg" width="32" height="32" viewBox="0 0 32 32">
    <defs>
        <clipPath id="a">
            <path d="M0 24h24V0H0z"/>
        </clipPath>
    </defs>
    <g clip-path="url(#a)" transform="matrix(1.33333 0 0 -1.33333 0 32)">
        <path fill="#b45000" d="M8.954 10.146a.922.922 0 1 1-1.843-.002.922.922 0 0 1 1.843.002M15.972 11.066a.92.92 0 0 1-.92-.92.921.921 0 1 1 .92.921M13.379 6.944l.335-.508a3.693 3.693 0 0 0-.273-.168c-.37-.205-.88-.402-1.438-.4-.56-.002-1.068.195-1.437.4a3.306 3.306 0 0 0-.274.171l.333.505-.784.517-1.302-1.979.783-.516.298.453c.479-.327 1.309-.762 2.383-.773 1.07.011 1.902.445 2.382.771l.296-.45.784.515-1.302 1.98z"/>
        <path fill="#b45000" d="M20.648 9.38c-.205-.882-.878-1.41-1.356-1.39a.75.75 0 0 0-.185.02l-.59.132-.139-.588c-.795-3.4-3.593-5.33-6.376-5.333-2.784.003-5.58 1.933-6.376 5.333l-.138.582-.583-.124a.888.888 0 0 0-.195-.023c-.48-.02-1.152.505-1.355 1.394a2.2 2.2 0 0 0-.063.525c.003.777.4 1.303.83 1.388.011.004.06.008.15.012h1.572c.262 0 .493.166.577.414l1.826 5.372a.605.605 0 0 1-.398.779l-.68.212c1.271 1.139 2.963 1.668 4.833 1.694 1.868-.026 3.561-.555 4.832-1.694l-.682-.212a.607.607 0 0 1-.396-.78l1.825-5.371a.61.61 0 0 1 .58-.414h1.571c.09-.004.138-.008.153-.012.42-.083.82-.611.823-1.388 0-.173-.02-.348-.06-.527m-13.76 7.514l-1.483-4.367h-.524c.105 1.935.608 3.435 1.4 4.555zm10.834.189c.792-1.121 1.295-2.621 1.4-4.556h-.525l-1.485 4.366zm2.638-4.658c-.096 2.789-1.018 4.922-2.482 6.355C16.33 20.299 14.22 21 12.002 21c-2.219.002-4.329-.701-5.877-2.22-1.464-1.432-2.386-3.565-2.482-6.355-1.024-.358-1.576-1.421-1.572-2.517 0-.261.03-.533.098-.81.297-1.25 1.226-2.231 2.398-2.322C5.637 3.138 8.8.996 12.002 1h.007c3.2 0 6.36 2.14 7.428 5.777 1.17.093 2.1 1.074 2.4 2.325.064.275.091.545.091.806.004 1.098-.546 2.16-1.568 2.518"/>
    </g>
</svg>
