<svg xmlns="http://www.w3.org/2000/svg" width="32" height="32" viewBox="0 0 32 32">
    <defs>
        <clipPath id="a">
            <path d="M0 24h24V0H0z"/>
        </clipPath>
    </defs>
    <g clip-path="url(#a)" transform="matrix(1.33333 0 0 -1.33333 0 32)">
        <path fill="#a000a0" d="M20.47 9.299c-.198-.855-.845-1.352-1.294-1.332h-.5l-.146-.44c-1.04-3.111-3.596-5.248-6.528-5.244-2.93-.005-5.488 2.133-6.527 5.245l-.131.39-.402.045c-.034.004-.061.004-.078.004H4.823c-.45-.02-1.094.475-1.29 1.332a1.515 1.515 0 0 0-.046.38c-.014.7.484 1.33.923 1.462h.614s.46 1.842 1.113 2.773c.828 1.176 2.012 2.233 3.592 2.227.58 0 1.24-.14 2.002-.492l.273-.13.27.13c.758.353 1.416.492 2 .492 1.578.006 2.763-1.051 3.592-2.23.406-.58.71-1.17.91-1.612.117-.26.213-1.158.213-1.158h.6c.443-.13.94-.758.925-1.461 0-.13-.014-.254-.043-.381M6.008 16.39c.942 1.633 2.568 3.062 5.994 3.082 3.424-.02 5.05-1.451 5.994-3.082a7.15 7.15 0 0 0 .547-1.233c-.947 1.162-2.332 2.213-4.27 2.264-.708.002-1.47-.152-2.271-.492-.802.338-1.564.492-2.273.492-1.938-.051-3.322-1.1-4.27-2.264.14.412.32.83.549 1.233m5.994 5.326a1.687 1.687 0 0 0 1.565-1.074c-.492.068-1.006.115-1.565.11a10.719 10.719 0 0 1-1.564-.11 1.684 1.684 0 0 0 1.564 1.074m8.319-9.5c-.012.895-.145 2.908-1.207 4.803-.77 1.394-2.116 2.68-4.176 3.314C14.783 21.828 13.537 23 12.002 23a2.956 2.956 0 0 1-2.935-2.666c-2.061-.633-3.41-1.918-4.178-3.312-1.06-1.893-1.195-3.901-1.207-4.8-.877-.441-1.465-1.435-1.48-2.542 0-.22.025-.447.083-.682.27-1.14 1.075-2.053 2.112-2.265C5.65 3.4 8.55 1.006 12.002 1c3.453.004 6.354 2.4 7.606 5.733 1.035.214 1.836 1.128 2.11 2.27.054.232.079.458.079.677-.012 1.098-.588 2.084-1.476 2.537"/>
        <path fill="#a000a0" d="M8.094 10.947a.906.906 0 1 1 0-1.813.906.906 0 0 1 0 1.813M15.908 10.947a.903.903 0 0 1-.904-.906.906.906 0 1 1 .904.906M13.037 6.873l.324-.49a2.56 2.56 0 0 0-.205-.141c-.307-.195-.72-.373-1.154-.371-.434-.002-.846.176-1.153.371a2.737 2.737 0 0 0-.205.143l.323.49-.825.541-1.28-1.949.821-.539.254.384c.436-.32 1.141-.709 2.065-.722.924.013 1.627.4 2.062.72l.252-.382.826.541-1.28 1.947z"/>
    </g>
</svg>
