<svg xmlns="http://www.w3.org/2000/svg" width="32" height="32" viewBox="0 0 32 32">
    <defs>
        <clipPath id="a">
            <path d="M0 24h24V0H0z"/>
        </clipPath>
    </defs>
    <g clip-path="url(#a)" transform="matrix(1.33333 0 0 -1.33333 0 32)">
        <path fill="#ff8c00" d="M8.376 9.072c.476 0 .855.381.855.855a.855.855 0 1 1-.855-.855M15.604 9.072c.474 0 .855.381.855.855a.856.856 0 1 1-.855-.855M14.672 4.873l-.496 1.164-.002.002c0-.002-.253-.111-.668-.227a5.922 5.922 0 0 0-1.515-.228c-.543-.002-1.086.113-1.495.227-.412.117-.69.232-.691.228l-.497-1.166c.04-.014 1.264-.549 2.683-.555 1.415.006 2.639.541 2.68.555"/>
        <path fill="#ff8c00" d="M20.401 9.229a1.867 1.867 0 0 0-.667-1.068c.168.654.355 1.547.44 2.54.165-.232.284-.554.286-.962 0-.158-.019-.328-.059-.51m-2.085-1.422l-.104-.275C17.037 4.5 14.604 2.247 11.99 2.266c-2.614-.02-5.04 2.229-6.219 5.256-.022.05-.69 2.004-.723 4.028h13.904c-.025-1.592-.447-3.13-.636-3.743m-8.87 9.315h1.671v1.675h1.766v-1.675h1.671v-1.764h-1.67v-1.672h-1.767v1.672H9.445zM3.576 9.235a2.227 2.227 0 0 0-.062.506c.003.424.132.754.31.984.083-1.012.275-1.92.445-2.582a1.867 1.867 0 0 0-.693 1.092M22.56 11.55l-1.533 3.116a10.746 10.746 0 0 1-1.277 4.075c-1.16 2.115-3.536 4.277-7.748 4.259-4.214.018-6.589-2.144-7.75-4.26a10.765 10.765 0 0 1-1.278-4.074L1.44 11.55h1.415c-.397-.49-.608-1.143-.604-1.81 0-.26.03-.527.093-.794.298-1.252 1.234-2.231 2.42-2.305C6.124 3.504 8.761 1.018 11.99 1c3.223.018 5.862 2.502 7.223 5.64 1.183.075 2.121 1.052 2.42 2.308.062.269.093.533.093.79.002.669-.21 1.323-.606 1.812z"/>
    </g>
</svg>
