<svg xmlns="http://www.w3.org/2000/svg" width="32" height="32" viewBox="0 0 32 32">
    <defs>
        <clipPath id="a">
            <path d="M0 24h24V0H0z"/>
        </clipPath>
    </defs>
    <g clip-path="url(#a)" transform="matrix(1.33333 0 0 -1.33333 0 32)">
        <path fill="#ff8c00" d="M12.291 9.322c1.083.008 2.317.573 2.73 1.774l-.95.31c-.182-.633-1.028-1.09-1.78-1.085-.755-.006-1.602.452-1.785 1.084l-.95-.309c.413-1.2 1.649-1.766 2.735-1.774M9.406 12.332a.552.552 0 0 1 0 1.102.551.551 0 0 1 0-1.102M14.817 12.332a.55.55 0 1 1 0 1.102.55.55 0 0 1 0-1.102M12.291 21.613c.668 0 1.298-.033 1.838-.087-.545-.06-1.18-.1-1.838-.09-.669 0-1.3.033-1.84.088a15.41 15.41 0 0 0 1.84.089m-3.918-.971c.804-.34 2.209-.495 3.918-.506 1.129 0 2.149.084 2.925.228.388.073.714.157.991.278.239.13.634.25.701.883-.067.63-.462.753-.701.882-.804.339-2.209.496-3.916.506-1.131 0-2.151-.084-2.927-.228-.388-.072-.714-.156-.991-.278-.239-.13-.636-.251-.702-.882.066-.632.463-.753.702-.883"/>
        <path fill="#ff8c00" d="M21.245 8.362c-.07 0-.152.006-.234.02l-1.048.153.335-1.004a.75.75 0 0 0 .04-.245c-.005-.449-.34-.842-.717-.842-.167 0-.41.062-.73.305l-.878.658-.159-1.085c-.104-.54-.29-.613-.42-.615-.118-.008-.432.11-.807.576l-.373 1.664c1.19 1.274 2.468 2.32 3.85 2.34l.132.004c1.645-.047 1.901-.665 1.923-1.082-.013-.429-.313-.84-.914-.847M8.242 2.294l1.252 5.583a5.737 5.737 0 0 1 2.722-.7 5.744 5.744 0 0 1 2.721.7l1.254-5.583zm-.439 3.983c-.376-.459-.69-.576-.808-.569-.125 0-.312.072-.415.613l-.158 1.085-.875-.656c-.327-.245-.57-.305-.74-.307-.373.002-.708.391-.712.843 0 .085.012.17.04.241l.342 1.008-1.05-.154a1.938 1.938 0 0 0-.242-.019c-.6.005-.903.418-.914.846.021.418.278 1.037 1.924 1.083.033 0 .074-.003.126-.005 1.39-.018 2.666-1.063 3.858-2.336zM6.95 13.51h.51l.062.581c.205 1.905 1.397 3.47 2.996 4.127v-.508c0-.987.8-1.787 1.788-1.787.92 0 1.67.7 1.767 1.593-.156-.396-.42-.677-.872-.677-.588 0-.814.476-.814 1.065v.633c2.326-.084 4.258-1.972 4.525-4.446l.063-.58h.51a.96.96 0 0 0 .726-.916.898.898 0 0 0-.019-.185c-.085-.428-.479-.734-.932-.737a1.09 1.09 0 0 0-.129.008l-.474.058-.197-.432c-.78-1.689-2.389-2.83-4.243-2.829-1.854-.002-3.465 1.14-4.242 2.83l-.196.423-.463-.048a1.243 1.243 0 0 0-.142-.007c-.457 0-.849.306-.934.736a.874.874 0 0 0-.018.183.957.957 0 0 0 .728.915M22.612 10.9c-.56.442-1.357.69-2.376.69a4.434 4.434 0 0 1-1.037-.124 2.192 2.192 0 0 1 .311 1.128 2.252 2.252 0 0 1-1.366 2.06c-.503 2.936-2.945 5.195-5.928 5.2-2.983-.005-5.424-2.263-5.929-5.2a2.25 2.25 0 0 1-1.367-2.06c0-.142.012-.292.048-.446.05-.248.14-.478.263-.683-.28.063-.567.11-.869.121-.04 0-.1.005-.167.005-1.018 0-1.815-.248-2.378-.69a2.15 2.15 0 0 1-.846-1.693 2.169 2.169 0 0 1 1.832-2.115c.09-.97.824-1.929 2.004-1.949.251 0 .51.047.764.142.294-.512.792-.88 1.424-.878.138.002.271.033.402.064L6.617.993h11.198l-.78 3.48c.131-.032.262-.063.4-.065h.003c.632 0 1.13.366 1.423.88.255-.096.51-.144.76-.144 1.18.02 1.918.98 2.006 1.95a2.168 2.168 0 0 1 1.831 2.115c.006.611-.282 1.251-.846 1.691"/>
    </g>
</svg>
