<svg xmlns="http://www.w3.org/2000/svg" width="32" height="32" viewBox="0 0 32 32">
    <defs>
        <clipPath id="a">
            <path d="M0 24h24V0H0z"/>
        </clipPath>
    </defs>
    <g clip-path="url(#a)" transform="matrix(1.33333 0 0 -1.33333 0 32)">
        <path fill="#595959" d="M6.508 14.364C4.8 12.807 3.89 9.482 6.632 8.845c1.701-.393 4.258-.263 4.457 3.18.196 3.438-1.8 4.872-4.58 2.34M12.916 12.024c.198-3.442 2.757-3.572 4.458-3.179 2.742.637 1.831 3.962.125 5.52-2.779 2.532-4.78 1.098-4.583-2.34M12 8.894c-.483 0-.914-.31-.967-.73L10.75 5.91h2.5l-.283 2.254c-.053.42-.484.73-.967.73"/>
        <path fill="#595959" d="M20.376 6.621c-.209-.207-1.462-1.009-2.296-1.095l-.438-.067-.099-.433c-.062-.282-.068-.527-.078-.778l.003-1.945H15.92v1.97h-1.301v-1.97H12.65v1.97h-1.301v-1.97h-1.97v1.97h-1.3v-1.97H6.532l.005 1.92c-.013.28-.019.521-.082.803l-.1.435-.438.065c-.485.071-1.099.33-1.575.606a4.887 4.887 0 0 0-.584.385 1.84 1.84 0 0 0-.139.115c-.058.237-.131 1.254-.112 1.838 0 .36.008.611.008.614l.002.13-.045.121a9.093 9.093 0 0 0-.601 3.235A9.138 9.138 0 0 0 12 21.7a9.138 9.138 0 0 0 9.127-9.13 9.05 9.05 0 0 0-.602-3.235l-.046-.12.003-.127c0-.002.008-.262.008-.632.018-.592-.055-1.617-.114-1.835m2.052 5.95C22.428 18.328 17.759 23 12 23 6.238 23 1.57 18.328 1.57 12.57c0-1.26.233-2.462.641-3.575a29.754 29.754 0 0 1-.005-.526c.021-.759-.017-1.753.249-2.427.167-.307.3-.376.504-.554.51-.387 1.349-.889 2.271-1.14l.006-.152-.006-2.543-.002-.65H18.77v.65l-.006 2.568.006.125a6.76 6.76 0 0 1 1.534.657c.286.164.535.331.736.485.204.178.338.247.503.556.263.667.229 1.651.246 2.411 0 .23-.002.42-.004.537.409 1.115.643 2.316.643 3.577"/>
    </g>
</svg>
