<svg xmlns="http://www.w3.org/2000/svg" width="32" height="32" viewBox="0 0 32 32">
    <defs>
        <clipPath id="a">
            <path d="M0 24h24V0H0z"/>
        </clipPath>
    </defs>
    <g clip-path="url(#a)" transform="matrix(1.33333 0 0 -1.33333 0 32)">
        <path fill="red" d="M14.129 11.972a.603.603 0 1 1-.003-1.206.603.603 0 0 1 .003 1.206M13.405 9.273c-.172.196-.365.385-.567.504a.656.656 0 0 1-.366.123.66.66 0 0 1-.44-.176.66.66 0 0 1-.442.175.65.65 0 0 1-.36-.118c-.205-.12-.4-.31-.573-.509-.29-.333-.968-.141-1.293.056.232-1.252 1.73-1.235 2.558-.682.013.008.02.021.031.03.027.019.055.033.078.053.023-.02.051-.034.077-.052.012-.008.02-.022.032-.031.828-.554 2.327-.57 2.558.681-.324-.196-1.002-.388-1.293-.054M9.896 11.972a.602.602 0 1 0 0-1.206.603.603 0 0 0 0 1.206"/>
        <path fill="red" d="M8.43 8.985l-.192.461h-.622c-.42.118-.662.267-.759.76-.012.08-.018.15-.018.223.004.482.246.677.317.677-.003 0 .117.023.294.045l.56.074.08.56c.024.168.07.325.11.487.954.205 2.302.335 3.81.335 1.51 0 2.86-.13 3.815-.336.038-.16.085-.318.11-.486l.077-.56.562-.074c.166-.02.281-.044.295-.045.062 0 .31-.197.312-.679 0-.08-.004-.156-.016-.226-.095-.488-.336-.637-.757-.755h-.624l-.189-.46c-.668-1.612-2.045-2.655-3.582-2.653-1.539-.002-2.916 1.041-3.584 2.652m14.508 12.34l-1.287.168-2.205-16.799-3.153.147v1.344h-.878a6.06 6.06 0 0 1 1.367 1.813c.773.177 1.681.81 1.855 1.966.024.168.035.323.035.463.001.444-.109.89-.328 1.261a.945.945 0 0 1 .408.69.946.946 0 0 1-.449.89.95.95 0 0 1 .144 1.693.948.948 0 0 1 .597.803.944.944 0 0 1-.362.818.946.946 0 0 1-.319 1.76.95.95 0 0 1 .177 1.1v.001a.952.952 0 0 1-1 .508.95.95 0 0 1-1.297 1.262.947.947 0 0 1-.52.981.949.949 0 0 1-1.085-.168.951.951 0 0 1-1.742.373.95.95 0 0 1-.988.601.95.95 0 0 1-.977-.624.949.949 0 0 1-1.734-.418.949.949 0 0 1-1.092.138v.002a.95.95 0 0 1-.488-1 .95.95 0 0 1-1.25-1.309.949.949 0 0 1-.767-1.638.947.947 0 0 1-.263-1.768.943.943 0 0 1-.345-.804.95.95 0 0 1 .598-.802.948.948 0 0 1 .144-1.693.95.95 0 0 1-.122-1.53 2.49 2.49 0 0 1-.26-1.125c0-.148.01-.306.04-.47.171-1.15 1.078-1.784 1.851-1.96A6.064 6.064 0 0 1 8.61 6.184h-.877V4.841L2.65 4.604V1h8.712v3.895c.214-.028.43-.052.651-.052.221 0 .437.024.65.052V1h8.878l1.322 10.078-1.249.165z"/>
    </g>
</svg>
