<svg xmlns="http://www.w3.org/2000/svg" width="32" height="32" viewBox="0 0 32 32">
    <defs>
        <clipPath id="a">
            <path d="M0 24h24V0H0z"/>
        </clipPath>
    </defs>
    <g clip-path="url(#a)" transform="matrix(1.33333 0 0 -1.33333 0 32)">
        <path fill="red" d="M20.217 19.87c-.266.396-.416.534-1.258 1.263-.501.446-.644.616-.787.927a.173.173 0 0 1-.155.099h-.212a.167.167 0 0 1-.12-.051.17.17 0 0 1-.051-.12v-5.252c-.17.044-.361.06-.571.06-.225-.002-.508-.09-.751-.203-.458-.231-.747-.621-.747-1.066 0-.228.08-.443.214-.617.202-.246.499-.351.854-.351h.016c.632.004 1.275.385 1.56.932.123.218.147.353.14.809l-.001 3.913c1.068-.67 1.46-1.151 1.447-1.531 0-.192-.05-.383-.156-.604-.113-.231-.192-.335-.676-.826-.041-.042-.084-.084-.126-.136a.17.17 0 0 1-.002-.211l.124-.155a.172.172 0 0 1 .234-.034c.425.306.68.532.893.8.32.397.518.849.52 1.286 0 .349-.14.714-.39 1.068M14.29 14.07c-.356.52-2.034 1.564-2.819 1.973-.516.268-1.355.654-1.874.89a1.997 1.997 0 1 1-1.177.118c.047-.02.095-.028.142-.044l-1.075-.25c-.483.589-1.229 1.22-1.418 2.09-.19.87-.008 2.776-.008 3.153 0 .376-.139.88-.62.985-.482.104-.902-.326-1.069-.912-.166-.586-.452-3.122-.094-4.334.566-1.916 2.498-3.53 2.513-3.55.016-.994.08-1.122.137-1.906.056-.738.153-1.407.272-2.27C6.13 9.258 4.31 8.19 3.682 6.81c-.629-1.383-.062-4.44.147-5.063.21-.623.753-.811 1.234-.717.482.094.816.452.816 1.12 0 .67-.642 2.728-.047 3.764.215.374 2.09 2.015 3.188 1.952.816-.046 1.162-.774 1.445-1.465.283-.691 1.3-3.371 1.885-4.292.586-.921 1.14-1.21 1.607-1.08.465.132.787.718.477 1.383-.313.665-3.547 7.517-3.605 9.87-.03 1.187.181 1.574.181 1.574s1.203-.514 1.738-1.047c.533-.534.952-1.948 1.172-2.42.22-.471.785-.753 1.224-.533.44.219.597.649.471 1.173-.125.523-.875 2.384-1.326 3.042"/>
    </g>
</svg>
