<svg xmlns="http://www.w3.org/2000/svg" width="32" height="32" viewBox="0 0 32 32">
    <defs>
        <clipPath id="a">
            <path d="M0 24h24V0H0z"/>
        </clipPath>
    </defs>
    <g clip-path="url(#a)" transform="matrix(1.33333 0 0 -1.33333 0 32)">
        <path fill="#ff8c00" d="M18.358 6.123v.002c.001 0 .393-.041 1.002-.149-1.516-1.794-4.182-2.863-7.358-2.878-3.178.015-5.844 1.084-7.36 2.876.608.107.998.15 1 .152l.473.047-.096.946-.474-.047A18.533 18.533 0 0 1 4.04 6.83a5.482 5.482 0 0 0-.534 1.271c.85-.009 1.406-.065 1.408-.065l.473-.048.097.948-.473.047-.003.002c-.01 0-.685.067-1.68.069-.02.193-.037.386-.037.587 0 2.077.611 4.105 1.972 5.599l.121.135.685 4.174 2.298-2.322.355.103c.943.276 2.028.437 3.281.437 1.251 0 2.335-.161 3.281-.435l.35-.104 2.298 2.319.683-4.167.124-.137c1.361-1.497 1.972-3.523 1.972-5.602 0-.2-.018-.394-.038-.585a18.081 18.081 0 0 1-1.68-.072l-.475-.048.097-.949.474.048v.002s.556.056 1.406.065a5.476 5.476 0 0 0-.532-1.271c-.888.176-1.497.24-1.506.241l-.475.049-.097-.95zm4.081 1.904l.475-.043.086.947-.473.043c-.216.02-.415.03-.618.041.017.207.038.411.04.626 0 2.253-.647 4.535-2.17 6.295l-1.019 6.205-3.493-3.523c-.972.25-2.06.387-3.265.387-1.208 0-2.296-.137-3.272-.387l-3.49 3.523-1.019-6.207c-1.524-1.76-2.17-4.042-2.17-6.293.001-.215.022-.419.04-.626-.203-.011-.403-.021-.616-.04L1 8.932l.09-.951.474.045c.23.022.451.034.671.044.124-.54.31-1.05.551-1.526a19.953 19.953 0 0 1-.857-.242l-.455-.141.283-.911.456.143c.374.116.733.21 1.077.294 1.722-2.441 5.044-3.822 8.712-3.828 3.668.006 6.988 1.388 8.71 3.83.342-.085.703-.18 1.076-.296l.454-.141.284.907-.454.143c-.295.091-.579.17-.858.242.242.476.427.986.55 1.527.221-.011.443-.022.675-.044"/>
        <path fill="#ff8c00" d="M8.1 11.215a.79.79 0 1 1 .791-.789.79.79 0 0 1-.79.789M15.903 11.215a.79.79 0 1 1 0 0M14.32 6.864a.924.924 0 0 0-.92-.924.925.925 0 0 0-.922.915v.343a.742.742 0 0 1 .276.57.754.754 0 0 1-1.508 0c0-.234.113-.434.28-.573v-.33h-.002a.925.925 0 0 0-.92-.925.925.925 0 0 0-.924.924h-.95A1.875 1.875 0 0 1 12 5.616a1.872 1.872 0 0 1 3.27 1.248h-.949z"/>
    </g>
</svg>
