<svg xmlns="http://www.w3.org/2000/svg" width="32" height="32" viewBox="0 0 32 32">
    <defs>
        <clipPath id="a">
            <path d="M0 24h24V0H0z"/>
        </clipPath>
    </defs>
    <g clip-path="url(#a)" transform="matrix(1.33333 0 0 -1.33333 0 32)">
        <path fill="#b45000" d="M21.783 11.984c0 1.877-.658 3.47-1.976 4.775-1.315 1.305-2.89 1.96-4.728 1.96-1.858 0-3.443-.655-4.759-1.96-1.316-1.306-1.975-2.888-1.975-4.745 0-2.326.567-4.029 1.7-5.11 1.132-1.083 2.882-1.623 5.25-1.623.222 0 .468.025.733.076.265.051.53.107.796.17-1.878.365-3.352 1.034-4.423 2.004-1.07.97-1.606 2.351-1.606 4.147 0 .428.025.816.076 1.162.05.348.147.674.291.981.286.774.79 1.377 1.515 1.806a4.633 4.633 0 0 0 2.402.642c1.225 0 2.24-.357 3.046-1.07.805-.715 1.21-1.695 1.21-2.94 0-.938-.319-1.688-.95-2.25-.632-.56-1.419-.84-2.357-.84-.816 0-1.484.223-2.005.672-.519.45-.78 1.072-.78 1.868 0 .673.23 1.193.688 1.56.46.367 1.036.552 1.73.552v-1.225c-.388 0-.684-.066-.888-.199-.204-.133-.305-.393-.305-.78 0-.388.142-.689.427-.903.286-.214.643-.322 1.072-.322.632 0 1.148.158 1.545.475.398.316.597.78.597 1.392 0 .918-.275 1.612-.826 2.082-.55.47-1.286.704-2.204.704-1.06 0-1.836-.296-2.326-.887-.49-.593-.735-1.419-.735-2.48 0-.96.184-1.759.552-2.403a4.01 4.01 0 0 1 1.515-1.516 7.693 7.693 0 0 1 2.081-.81 30.21 30.21 0 0 1 2.68-.475v-.06a6.975 6.975 0 0 1 2.141 2.432c.53.99.796 2.035.796 3.138m0-9.213c-.042.448-.332.775-.872.98a4.482 4.482 0 0 1-1.577.305H15.08c-2.428 0-4.36.616-5.799 1.853-1.439 1.233-2.159 3.034-2.159 5.402v2.51c0 .673-.25 1.25-.75 1.728-.5.48-1.066.72-1.698.72-.51 0-.842-.164-.995-.49-.153-.326-.229-.775-.229-1.347V7.117c0-1.407.264-2.484.796-3.229.53-.744 1.49-1.117 2.876-1.117zm1.224 9.213a7.73 7.73 0 0 0-.995-3.81 8.02 8.02 0 0 0-2.708-2.893c.917 0 1.764-.194 2.54-.58.775-.39 1.163-1.012 1.163-1.868 0-.53-.219-.869-.659-1.01-.438-.144-.995-.215-1.668-.215H7.121c-1.693 0-2.933.49-3.719 1.47-.785.978-1.178 2.326-1.178 4.04v7.314c0 .572.077 1.087.23 1.546.153.46.423.821.811 1.087-.062.143-.455.934-1.178 2.372C1.362 20.877 1 21.657 1 21.78c0 .184.056.331.168.443a.6.6 0 0 0 .444.168c.102 0 .2-.03.291-.092.092-.06.178-.142.26-.244l2.295-4.59a.64.64 0 0 0 .2.03c.071 0 .147-.01.23-.03l2.294 4.59a.428.428 0 0 0 .215.26.739.739 0 0 0 .337.076.613.613 0 0 0 .428-.168.572.572 0 0 0 .183-.443c0-.123-.356-.888-1.07-2.296a879.697 879.697 0 0 1-1.163-2.295 3.85 3.85 0 0 0 1.805-1.715 7.902 7.902 0 0 0 2.938 3.26 7.8 7.8 0 0 0 4.224 1.21c2.183 0 4.051-.776 5.601-2.327 1.551-1.55 2.327-3.428 2.327-5.632"/>
    </g>
</svg>
