<svg xmlns="http://www.w3.org/2000/svg" width="32" height="32" viewBox="0 0 32 32">
    <defs>
        <clipPath id="a">
            <path d="M0 24h24V0H0z"/>
        </clipPath>
    </defs>
    <g clip-path="url(#a)" transform="matrix(1.33333 0 0 -1.33333 0 32)">
        <path fill="#003c96" d="M4.445 6.965c-.033 3.313 1.667 5.014 1.697 8.982a5.4 5.4 0 0 0 2.53 4.556c1.465.162 3.15-.546 3.435-2.994.12-1.042.023-2.704.009-4.632C7.075 9.4 9.15 4.08 9.769 4.08c.542 0 .444 2.028 2.649 3.789.275-1.815.793-3.621 1.734-5.22H5.5c-.323.464-1.054 1.77-1.056 4.315M21.04 2.46c-3.474 3.347-1.688 10.15-2.95 14.942h-.001a6.7 6.7 0 0 1-13.147-.347l-2.476-1.1 2.333-.88c-.227-2.902-1.623-4.62-1.653-8.11-.004-2.063.445-3.45.866-4.314H1.844v-1.3H22.153z"/>
        <path fill="#003c96" d="M9.495 17.509a.894.894 0 1 1-.896-.895c.496 0 .896.399.896.895"/>
    </g>
</svg>
