<svg xmlns="http://www.w3.org/2000/svg" width="32" height="32" viewBox="0 0 32 32">
    <defs>
        <clipPath id="a">
            <path d="M0 24h24V0H0z"/>
        </clipPath>
    </defs>
    <g clip-path="url(#a)" transform="matrix(1.33333 0 0 -1.33333 0 32)">
        <path fill="#f0f" d="M10.7 8.729a.614.614 0 0 1-.613-.613V7.85a.612.612 0 1 1 1.226 0v.266a.614.614 0 0 1-.613.613M13.299 8.729a.615.615 0 0 1-.614-.613V7.85a.613.613 0 0 1 1.227 0v.266a.614.614 0 0 1-.613.613M17.406 11.979h-1.014v-1.922h1.014zM7.63 10.057H6.617v1.922H7.63z"/>
        <path fill="#f0f" d="M14.543 6.71c-.621-.393-1.532-.656-2.542-.654-1.015-.002-1.924.261-2.545.654-.63.397-.934.881-.931 1.338-.002.459.301.942.931 1.341.621.391 1.53.654 2.545.652 1.01.002 1.921-.261 2.542-.652.63-.399.932-.882.93-1.341.002-.457-.3-.941-.93-1.338m-2.542 4.331c-2.326-.013-4.406-1.136-4.476-2.993.07-1.854 2.148-2.98 4.476-2.992 2.322.012 4.402 1.138 4.472 2.992-.07 1.857-2.15 2.98-4.472 2.993"/>
        <path fill="#f0f" d="M17.973 4.435C15.955 3.588 13.478 3.422 12 3.424c-1.482-.002-3.96.164-5.974 1.01C4 5.31 2.513 6.665 2.494 9.334c-.002 1.84.59 3.804 1.67 5.488l.166.258c.693-.555 1.416-1.038 2.047-1.365.24-.12.488-.187.738-.187h.008c.662 0 1.1.512 1.236.93.353 1.144.438 2.689.442 3.916l-.004.234c1 .364 2.069.557 3.203.557a9.282 9.282 0 0 0 3.202-.558l-.002-.234c.003-1.227.086-2.772.43-3.882.139-.45.583-.963 1.24-.963h.013c.249 0 .496.068.736.185.632.328 1.357.81 2.05 1.366l.162-.255c1.085-1.69 1.676-3.652 1.676-5.49-.02-2.668-1.51-4.024-3.534-4.898M3.046 18.345c-.132.246-.156.386-.152.403.004.012-.015 0 .012.022.029.039.12.132.29.247.548.43 3.48 1.27 3.724 1.278.095.013.169.019.226.019.132-.01.128-.021.132-.015.008 0 .088-.127.148-.427.028-.125.076-.765.074-1.5.004-1.145-.103-2.658-.37-3.493a.188.188 0 0 0-.031-.05.454.454 0 0 0-.142.05c-1.274.615-3.41 2.432-3.911 3.466M16.72 20.3v-.003c.01.005.049.015.132.015.055 0 .13-.004.224-.02.247-.007 3.178-.845 3.727-1.275.167-.117.26-.208.286-.247.013-.024.009-.008.015-.024.004-.013-.023-.157-.153-.408-.5-1.027-2.634-2.847-3.913-3.462a.414.414 0 0 0-.14-.048.255.255 0 0 0-.036.073c-.26.81-.37 2.324-.365 3.47-.002.735.045 1.38.077 1.492.059.307.139.434.146.437m4.208-4.78l-.268.425c.608.588 1.13 1.21 1.449 1.8.162.332.29.63.294 1 .002.622-.431 1.05-.853 1.336-1.09.719-3.696 1.394-4.295 1.5a2.937 2.937 0 0 1-.403.032c-.367.008-.801-.116-1.083-.43-.278-.305-.385-.657-.468-1.05-.01-.051-.017-.118-.026-.178-1.04.333-2.137.508-3.276.508-1.14 0-2.236-.175-3.277-.508-.008.059-.016.125-.025.175-.084.396-.191.748-.47 1.054-.282.314-.716.438-1.082.428-.131 0-.267-.011-.407-.031-.594-.107-3.2-.781-4.29-1.501-.42-.283-.856-.708-.856-1.333.004-.368.13-.674.298-1.001.318-.591.842-1.214 1.45-1.803l-.27-.421c-1.21-1.888-1.876-4.074-1.878-6.19-.02-3.253 2.042-5.174 4.333-6.098 2.3-.955 4.899-1.108 6.474-1.11 1.572.002 4.174.155 6.473 1.11 2.29.924 4.354 2.845 4.333 6.098 0 2.114-.67 4.3-1.877 6.188"/>
    </g>
</svg>
