<svg xmlns="http://www.w3.org/2000/svg" width="32" height="32" viewBox="0 0 32 32">
    <defs>
        <clipPath id="a">
            <path d="M0 24h24V0H0z"/>
        </clipPath>
    </defs>
    <g clip-path="url(#a)" transform="matrix(1.33333 0 0 -1.33333 0 32)">
        <path fill="#003c96" d="M20.821 9.05c-.524-.356-1.215-.567-1.68-.562-.11 0-.207.012-.283.028l-.44.099-.224-.39c-1.647-2.887-5.007-4.19-8.236-4.192-1.853-.002-3.634.436-4.94 1.194a5.613 5.613 0 0 0-1.865 1.73 14.347 14.347 0 0 1 5.95-1.301c.594 0 1.215.04 1.86.12L10.81 6.99a13.076 13.076 0 0 0-6.743.905c-.858.357-1.428.705-1.692.875a6.07 6.07 0 0 0-.15 1.312c-.004 1.395.486 2.744 1.223 3.608.988 1.172 2.636 1.904 4.311 1.903 1.234-.002 2.472-.39 3.503-1.264 2.473-2.08 1.91-4.493 3.003-6.176a1.82 1.82 0 0 1 1.461-.758c.698 0 1.494.64 1.494 1.373 0 .092-.024.37-.024.37l-.194.163c-.47.37-.888 1.459-.889 2.344.292-.15.572-.258.798-.397.466-.29.755-.511.904-1.351l.163-.975.843.604c.358.3.608.357.932.367.43.012.986-.2 1.685-.272a2.523 2.523 0 0 0-.616-.57m1.37 1.81a1.651 1.651 0 0 0-.375-.04c-.547-.012-1.209.277-2.064.293a2.478 2.478 0 0 1-.96-.18 2.854 2.854 0 0 1-1.275 1.377c-.648.35-1.185.539-1.385.8l-.668.779-.37-.956a3.533 3.533 0 0 1-.206-1.24c.015-1.067.336-2.23 1.03-3.032a.576.576 0 0 0-.193-.043.59.59 0 0 0-.476.26c-.698.748-.317 3.928-3.196 6.383a6.186 6.186 0 0 1-.705.512l.71 1.809c.217.536.735.86 1.284.863a1.4 1.4 0 0 0 1.391-1.395c0-.175-.034-.353-.103-.53l1.133-.461v.002a2.612 2.612 0 0 1-1.428 3.408 2.611 2.611 0 0 1-.993.199 2.63 2.63 0 0 1-1.216-.3 2.61 2.61 0 0 1-2.487 1.82 2.615 2.615 0 0 1-2.42-1.625l1.135-.462a1.384 1.384 0 0 0 1.812.756c.535-.217.86-.738.86-1.285 0-.178-.033-.356-.103-.53v-.006l-.668-1.7a6.752 6.752 0 0 1-2.497.478c-2.023-.002-3.987-.856-5.245-2.333l.002-.001c-.956-1.13-1.51-2.73-1.515-4.4-.008-2.173.99-4.522 3.404-5.913C5.947 3.28 7.917 2.813 9.958 2.81h.006c3.406 0 7.073 1.324 9.081 4.457 1.798-.002 3.651 1.015 3.893 2.95l.062.83z"/>
        <path fill="#003c96" d="M9.93 9.229a.667.667 0 0 1-.456-1.256.668.668 0 1 1 .456 1.256"/>
    </g>
</svg>
