<svg xmlns="http://www.w3.org/2000/svg" width="32" height="32" viewBox="0 0 32 32">
    <defs>
        <clipPath id="a">
            <path d="M0 24h24V0H0z"/>
        </clipPath>
    </defs>
    <g clip-path="url(#a)" transform="matrix(1.33333 0 0 -1.33333 0 32)">
        <path fill="#b45000" d="M14.062 6.037a1.45 1.45 0 0 0-1.45 1.445h-1.225a1.45 1.45 0 0 0-2.9 0H7.264a2.676 2.676 0 0 1 2.676-2.675c.83.001 1.57.38 2.06.972a2.676 2.676 0 0 1 4.739 1.703H15.51a1.452 1.452 0 0 0-1.45-1.445M8.804 11.953a.93.93 0 1 1-1.86.001.93.93 0 0 1 1.86 0M15.84 12.883a.93.93 0 1 1 0 0"/>
        <path fill="#b45000" d="M19.938 9.198h-.658l.043-.654s.003-.03.003-.116c.002-.394-.084-1.72-1-2.902-.916-1.175-2.665-2.323-6.327-2.332-3.665.01-5.412 1.157-6.328 2.332C4.753 6.708 4.668 8.034 4.67 8.43c0 .077.004.092.002.092l.07.676h-.679a1.839 1.839 0 0 0-1.836 1.836 1.84 1.84 0 0 0 1.836 1.837h.613v.612c.001.642.093 1.261.248 1.854.48.632 1.208 1.274 2.324 1.65 2.77.93 4.752-1.055 4.752-1.055s1.986 1.985 4.752 1.054c1.116-.374 1.844-1.015 2.323-1.647a7.328 7.328 0 0 0 .25-1.856v-.612h.613a1.839 1.839 0 0 0 1.834-1.837 1.838 1.838 0 0 0-1.834-1.836m.596 4.841A8.552 8.552 0 0 1 12 22.035a8.552 8.552 0 0 1-8.535-7.997A3.063 3.063 0 0 1 3.46 8.03a6.144 6.144 0 0 1 1.243-3.253C5.86 3.261 8.084 1.956 12 1.966h.042c3.886 0 6.098 1.301 7.255 2.81a6.143 6.143 0 0 1 1.241 3.253 3.065 3.065 0 0 1-.004 6.01"/>
    </g>
</svg>
