<svg xmlns="http://www.w3.org/2000/svg" width="32" height="32" viewBox="0 0 32 32">
    <defs>
        <clipPath id="a">
            <path d="M0 24h24V0H0z"/>
        </clipPath>
    </defs>
    <g clip-path="url(#a)" transform="matrix(1.33333 0 0 -1.33333 0 32)">
        <path fill="red" d="M9.15 10.125a1.21 1.21 0 0 1-.164-.642 1.186 1.186 0 0 1 .167-.64c.096-.144.166-.157.186-.156h.006c.024.002.089.018.182.157.09.137.166.373.166.638 0 .27-.076.506-.166.642-.098.144-.168.159-.188.157-.02.002-.09-.013-.188-.156"/>
        <path fill="red" d="M12.123 10.281h-1.617c.09-.25.139-.523.142-.799a2.42 2.42 0 0 0-.142-.796h1.617v-.958L9.35 7.73c-.004 0-.007 0-.011-.002v.002c-.9.057-1.3.916-1.31 1.753.01.84.41 1.698 1.31 1.755h2.784zm1.572 3.94a.956.956 0 1 0-.956-.954c0 .528.427.954.956.954m-4.393 0a.956.956 0 1 0-.956-.954c0 .528.428.954.956.954m10.645-8.149c1.069.18 1.757.941 1.755 1.778.002.331-.111.667-.333.941h-.001a1.374 1.374 0 0 1-1.118.515c-.562-.01-1.039-.192-1.415-.183a4.838 4.838 0 0 0-.848.056 8.137 8.137 0 0 1 2.251 5.622c-.002 4.53-3.69 8.2-8.238 8.2-4.546 0-8.234-3.67-8.236-8.2 0-2.178.859-4.156 2.251-5.622a4.838 4.838 0 0 0-.848-.056c-.378-.009-.856.172-1.415.183a1.37 1.37 0 0 1-1.123-.519 1.5 1.5 0 0 1-.332-.937c-.001-.837.687-1.599 1.753-1.778.207-.035.417-.049.625-.049.609.002 1.271.122 1.771.225a3.18 3.18 0 0 0-.556-.333c-.856-.458-1.924-.787-2.013-1.928a1.448 1.448 0 0 1 .109-.538c.206-.566.791-.84 1.285-.818.707.007 1.43.34 2.069.734.552.348 1.082.834 1.524 1.225.039.035.077.07.116.103-.22-.455-.521-1-.711-1.287a1.653 1.653 0 0 1-.25-.867c.01-.684.405-1.244.968-1.46.156-.056.314-.079.471-.079a1.812 1.812 0 0 1 1.635 1.093c.141.335.369.913.609 1.396.104.212.211.405.301.536.269-.412.729-1.469.906-1.932A1.803 1.803 0 0 1 14.542 1c.159 0 .315.023.467.076.569.217.962.78.971 1.463.002.286-.078.588-.247.867-.19.284-.488.822-.707 1.275.453-.4 1.074-.953 1.634-1.316.642-.395 1.364-.727 2.07-.734.494-.022 1.079.252 1.286.822.069.177.106.357.106.534-.088 1.141-1.156 1.47-2.01 1.93-.226.11-.411.223-.556.331.499-.102 1.16-.22 1.769-.223.21 0 .418.012.622.047"/>
    </g>
</svg>
