<svg xmlns="http://www.w3.org/2000/svg" width="32" height="32" viewBox="0 0 32 32">
    <defs>
        <clipPath id="a">
            <path d="M0 24h24V0H0z"/>
        </clipPath>
    </defs>
    <g clip-path="url(#a)" transform="matrix(1.33333 0 0 -1.33333 0 32)">
        <path fill="#ff8c00" d="M15.398 10.291c-.222-.385-.47-.793-.73-1.19v5.801c.26-.399.508-.807.73-1.191.422-.727.757-1.367.933-1.711a36.669 36.669 0 0 0-.933-1.709m-4.565 8.412c.492.296 1.02.574 1.564.843V4.452a23.31 23.31 0 0 0-1.564.849zM8.558 6.848c-.347.265-.684.531-.994.797a23.863 23.863 0 0 0-3.144 3.252c-.379.478-.647.859-.812 1.104.165.245.433.625.812 1.103a24.174 24.174 0 0 0 4.138 4.05zm12.05 7.081v-3.857L18.427 12zm1.227-6.583v9.307l-4.481-3.963c-.474.919-1.676 3.16-2.901 4.571.879 1.249 2.318 2.371 3.589 3.173 1.397.886 2.559 1.388 2.559 1.392L20.306 23C8.104 21.967 2.39 12.375 2.352 12.314l-.188-.312.188-.315c.04-.06 5.752-9.653 17.954-10.687l.298 1.176c-.004 0-1.164.506-2.561 1.393-1.271.8-2.71 1.922-3.59 3.171 1.226 1.412 2.428 3.651 2.902 4.571z"/>
        <path fill="#ff8c00" d="M6.852 11.855a.91.91 0 1 1 0 1.822.91.91 0 0 1 0-1.822"/>
    </g>
</svg>
