<svg xmlns="http://www.w3.org/2000/svg" width="32" height="32" viewBox="0 0 32 32">
    <defs>
        <clipPath id="a">
            <path d="M0 24h24V0H0z"/>
        </clipPath>
    </defs>
    <g clip-path="url(#a)" transform="matrix(1.33333 0 0 -1.33333 0 32)">
        <path fill="#b45000" d="M8.1 16.8a.883.883 0 1 1-1.766.001.883.883 0 0 1 1.765 0M12.227 15.918a.883.883 0 1 1 0 1.765.883.883 0 0 1 0-1.765M8.711 12.926h.006c.376 0 .722.123 1.003.328a1.72 1.72 0 0 1 2.731 1.394h-.997a.726.726 0 0 0-.724-.722c-.25 0-.465.124-.596.425l-.824.005s-.185-.43-.599-.43a.726.726 0 0 0-.724.722h-1c0-.951.77-1.722 1.724-1.722M12.262 5.185a.846.846 0 1 0-1.694 0V9.33H9.267V5.185a2.15 2.15 0 0 1 2.149-2.148c1.185 0 2.146.96 2.146 2.148V9.33h-1.3z"/>
        <path fill="#b45000" d="M12.406 2.317h-6.81a1.314 1.314 0 0 0 0 2.628h2.49l-.014 5.49c.402-.09.82-.139 1.246-.156.11-.005.216-.019.328-.019h.042c.359 0 .709.034 1.054.084.06.01.12.024.18.035a6.525 6.525 0 0 1 1.046.27 5.488 5.488 0 0 1 1.779 1.007c.98-1.402 1.68-3.447 1.676-5.682-.002-1.648-.394-2.517-.891-2.99-.492-.476-1.214-.665-2.126-.667M5.31 14.36l-.14.537-.56-.053c-.614.004-1.163.551-1.163 1.228 0 .66.52 1.193 1.176 1.22l.539.022.078.533c.09.607.313 1.167.62 1.67a2.33 2.33 0 0 0 1.932 1.045c.8 0 1.504-.4 1.927-1.01a2.347 2.347 0 0 0 1.929 1.01c.5 0 .954-.167 1.335-.432a4.483 4.483 0 0 0 1.067-2.285l.085-.584.594.031.058.005a1.226 1.226 0 0 0-.02-2.45c0-.003 0 .001-.1.011l-.547.047-.137-.532a3.37 3.37 0 0 0-.521-1.119l-.161-.194c-.385-.468-.904-.84-1.523-1.099-.005 0-.01-.003-.015-.004a4.973 4.973 0 0 0-.858-.254 5.991 5.991 0 0 0-1.259-.141c-.338 0-.662.033-.975.086l-.164.032a5.437 5.437 0 0 0-.858.236l-.281.105c-1.04.465-1.777 1.267-2.058 2.34m17.549-4.364c0 1.105-.337 2.143-.998 2.927-.66.784-1.665 1.282-2.823 1.276-1.191-.004-2.805-.735-2.856-2.476a2.475 2.475 0 0 1 2.475-2.476v1.5a.978.978 0 0 0-.977.976c.009.301.12.482.38.677.256.186.653.301.978.298 1.44-.014 2.28-1.078 2.32-2.702a6.165 6.165 0 0 0-4.882-6.019c.153.58.249 1.23.247 1.997-.003 2.638-.85 5.014-2.107 6.68.185.282.35.581.474.911a2.527 2.527 0 0 1 .145 4.99c-.614 2.524-2.871 4.403-5.588 4.403a5.753 5.753 0 0 1-5.6-4.444 2.52 2.52 0 0 1-1.9-2.443c0-1.23.879-2.255 2.045-2.48.458-1.253 1.4-2.162 2.58-2.714l.01-4.63H5.597A2.62 2.62 0 0 1 2.983 3.63a2.612 2.612 0 0 1 2.614-2.612h6.824c1.066 0 2.17.224 3.01 1.027.099.093.172.215.259.321 3.999.252 7.169 3.567 7.169 7.63"/>
    </g>
</svg>
