<svg xmlns="http://www.w3.org/2000/svg" width="32" height="32" viewBox="0 0 32 32">
    <defs>
        <clipPath id="a">
            <path d="M0 24h24V0H0z"/>
        </clipPath>
    </defs>
    <g clip-path="url(#a)" transform="matrix(1.33333 0 0 -1.33333 0 32)">
        <path fill="#595959" d="M10.067 4.749c0-.808 1.387-1.095 1.933-1.095s1.932.287 1.932 1.095S13.067 5.892 12 5.892c-1.068 0-1.933-.335-1.933-1.143"/>
        <path fill="#595959" d="M18.125 7.77l1.265-.544-3.068-1.474-.073-.304c-.473-1.51-2.148-2.727-4.25-2.725-2.1-.002-3.775 1.215-4.249 2.724l-.086.267-3.066 1.472 1.277.586-2.364 1.216.982.449-.173.546a5.838 5.838 0 0 0-.274 1.734c0 1.208.379 2.408 1.048 3.487l.007.01c.55.888.995 1.521 1.801 2.141l-.847 3.263 2.903-2.172.33.117a8.024 8.024 0 0 0 2.711.482c.951 0 1.86-.177 2.713-.482l.327-.117 2.907 2.177-.848-3.268c.795-.61 1.239-1.237 1.778-2.105l.029-.046c.669-1.079 1.048-2.279 1.048-3.487 0-.597-.099-1.174-.274-1.733l-.175-.548.984-.449zm5.344 1.29l-2.399 1.09a6.87 6.87 0 0 1 .182 1.567c0 1.274-.343 2.512-.934 3.634l-1.411 7.614-4.092-3.063a9.284 9.284 0 0 1-2.816.442 9.24 9.24 0 0 1-2.814-.444l-4.097 3.065-1.41-7.618c-.591-1.12-.932-2.357-.932-3.63 0-.537.065-1.061.183-1.566L.533 9.06l2.363-1.22-.101-.046-1.262-.574 5.075-2.44c.784-1.991 2.91-3.355 5.391-3.357 2.482.002 4.608 1.368 5.393 3.359l5.079 2.44-1.367.62z"/>
        <path fill="#595959" d="M6.829 12.076l2.743-1.646c-.265-1.008-1.094-1.457-1.85-1.007-.76.457-1.16 1.645-.893 2.653M17.172 12.076l-2.744-1.646c.265-1.008 1.094-1.457 1.85-1.007.759.457 1.16 1.645.894 2.653"/>
    </g>
</svg>
