<svg xmlns="http://www.w3.org/2000/svg" width="32" height="32" viewBox="0 0 32 32">
    <defs>
        <clipPath id="a">
            <path d="M0 24h24V0H0z"/>
        </clipPath>
    </defs>
    <g clip-path="url(#a)" transform="matrix(1.33333 0 0 -1.33333 0 32)">
        <path fill="#595959" d="M15.924 13.365a.906.906 0 1 1 0-1.814c.5 0 .905.406.905.91 0 .5-.404.904-.905.904"/>
        <path fill="#595959" d="M21.064 16.303c-.377-.26-.963-.468-1.701-.468-.056 0-.14.01-.276.022l-.594.04-.06-.592c-.242-2.428-1.288-7.122-1.92-9.326h-9.02a61.916 61.916 0 0 0-.803 3.197c1.985.153 3.52.944 4.52 2.237 1.125 1.449 1.58 3.42 1.58 5.678 0 .61-.043 1.248-.107 1.898 2.816-.12 4.153-.895 4.91-1.548l.24-.21.31.077c.449.109.99.17 1.509.17.6.003 1.175-.086 1.536-.226.385-.163.38-.266.38-.268.01-.12-.118-.421-.504-.681M12.003 2.227A4.546 4.546 0 0 0 7.936 4.75h8.13a4.544 4.544 0 0 0-4.063-2.524M7.86 20.239c.25.769.653 1.347.977 1.5a3.96 3.96 0 0 0 .064-.802 11.29 11.29 0 0 0-.051-1.015 9.041 9.041 0 0 1-1.192-.36c.055.217.122.447.202.677m-.686-7.78a.906.906 0 0 0 1.813 0 .907.907 0 1 0-1.813 0m7.925 8.477c-.002.314.022.62.065.805.322-.15.727-.731.979-1.503.08-.23.147-.46.2-.676a8.893 8.893 0 0 1-1.192.36c-.027.277-.053.65-.052 1.014m6.53-2.54c-.58.222-1.268.307-1.978.309a7.965 7.965 0 0 1-1.49-.138c-.128.1-.267.2-.417.299a11.27 11.27 0 0 1-.443 1.777c-.368.999-.94 2.287-2.342 2.357-.673-.035-.896-.594-.972-.91-.094-.364-.113-.76-.115-1.154 0-.283.013-.561.03-.806-.575.068-1.2.112-1.9.11a15.67 15.67 0 0 1-1.904-.111c.018.246.03.525.03.808-.001.393-.02.788-.114 1.153-.074.315-.296.875-.968.91-1.406-.07-1.978-1.36-2.346-2.358a11.21 11.21 0 0 1-.442-1.776 6.726 6.726 0 0 1-.417-.3c-.48.092-.99.139-1.492.139-.712-.002-1.4-.087-1.978-.31-.553-.2-1.156-.65-1.165-1.411.072-1.327 1.416-2.274 3.209-2.368.367-2.86 1.434-7.49 2.033-9.432a5.776 5.776 0 0 1 10.963-.434h.009l.136.434c.598 1.943 1.664 6.572 2.03 9.432 1.792.094 3.135 1.04 3.207 2.368-.008.762-.611 1.209-1.163 1.412"/>
    </g>
</svg>
