<svg xmlns="http://www.w3.org/2000/svg" width="32" height="32" viewBox="0 0 32 32">
    <defs>
        <clipPath id="a">
            <path d="M0 24h24V0H0z"/>
        </clipPath>
    </defs>
    <g clip-path="url(#a)" transform="matrix(1.33333 0 0 -1.33333 0 32)">
        <path fill="#f0f" d="M7.65 19.442zm.464.997c-.064 0-.105-.007-.124-.01a.93.93 0 0 1-.808-1.045c.125-1.01.291-2.337.486-3.425a11.45 11.45 0 0 1 .318-1.402c.06-.187.12-.348.208-.496.085-.128.206-.349.573-.375h.061l.016.004c.49.132.501.463.56.648.043.224.056.477.056.775 0 1.202-.243 3.133-.414 4.504a.94.94 0 0 1-.932.822"/>
        <path fill="#f0f" d="M12 1.942c-4.014.017-7.061 2.23-7.069 5.391-.001 1.643.817 3.28 2.16 4.491l.243.22-.12.303c-.782 1.97-1.36 4.656-1.631 6.837a2.55 2.55 0 0 0 2.216 2.849c.107.015.211.023.319.023 1.267 0 2.37-.947 2.529-2.242.157-1.276.259-2.753.257-4.18.002-.49-.009-.976-.035-1.445l-.03-.54.54.044c.212.02.417.031.621.031.202 0 .409-.01.619-.03l.542-.045-.03.54c-.027.471-.039.954-.039 1.444 0 1.428.1 2.903.261 4.181a2.548 2.548 0 0 0 2.844 2.221 2.553 2.553 0 0 0 2.22-2.853c-.271-2.179-.851-4.866-1.631-6.835l-.12-.304.243-.219c1.341-1.21 2.161-2.848 2.16-4.49C19.061 4.17 16.014 1.958 12 1.941M17.779 12.3c.765 2.045 1.307 4.624 1.575 6.767a3.496 3.496 0 0 1-6.937.864 36.096 36.096 0 0 1-.269-4.298c.001-.325.006-.648.017-.967l-.165.002c-.057 0-.111 0-.167-.002.01.32.016.643.016.968a36.3 36.3 0 0 1-.265 4.297 3.502 3.502 0 0 1-3.466 3.07 3.192 3.192 0 0 1-.445-.033 3.493 3.493 0 0 1-3.027-3.906c.268-2.139.81-4.717 1.575-6.762-1.37-1.339-2.232-3.113-2.234-4.967C4.001 3.47 7.685 1.004 12 1c4.315.004 7.999 2.47 8.013 6.333-.002 1.854-.864 3.628-2.234 4.967"/>
        <path fill="#f0f" d="M15.183 13.687h.048c.368.025.489.247.574.375.495.903.77 3.519 1.014 5.323v.002a.935.935 0 0 1-.822 1.044.935.935 0 0 1-1.044-.815c-.171-1.367-.415-3.3-.415-4.502 0-.298.012-.551.057-.775.057-.185.074-.52.562-.648zM8.339 8.928a.712.712 0 1 1 0-1.425.712.712 0 0 1 0 1.425M15.661 8.928a.712.712 0 1 1 0 0M13.034 4.361a.704.704 0 0 0-.704.7v.27a.617.617 0 0 1 .298.52.628.628 0 1 1-1.258 0c0-.223.123-.41.3-.52v-.268a.704.704 0 0 0-1.405 0h-.66c0-.753.611-1.364 1.364-1.364a1.36 1.36 0 0 1 1.03.474 1.363 1.363 0 0 1 2.396.89h-.659a.705.705 0 0 0-.702-.702"/>
    </g>
</svg>
