<svg xmlns="http://www.w3.org/2000/svg" width="32" height="32" viewBox="0 0 32 32">
    <defs>
        <clipPath id="a">
            <path d="M0 24h24V0H0z"/>
        </clipPath>
    </defs>
    <g clip-path="url(#a)" transform="matrix(1.33333 0 0 -1.33333 0 32)">
        <path fill="red" d="M18.8 7.362c-1.378-1.62-3.533-2.47-5.764-2.47-2.316 0-4.672.911-6.267 2.731-2.41 2.713-2.755 7.094-2.744 9.018 0 .605.032.948.029.948-.02.945.784 1.6 1.429 1.737.203.046.413.074.624.074.563-.012 1.095-.16 1.702-.885.89-1.1 2.213-2.399 4.31-2.847a8.37 8.37 0 0 1 1.69-.174c2.028.004 3.725.71 4.64 1.226.847.515 1.497.914 1.627.864.03 0 .036 0 .057-.012a.601.601 0 0 0 .02-.166c.008-.37-.233-.972-.225-.976L21 15.791c0 .003.123.15.305.3.107.1.235.173.325.213.052-.213.11-.61.105-1.09.005-1.883-.674-5.198-2.935-7.852m4.074 9.173c-.116.348-.121.67-.632.96h-.002l-.001.001c-.164.07-.335.1-.5.1a2.141 2.141 0 0 1-.33-.05c-.02.346-.134.766-.546 1.058a1.379 1.379 0 0 1-.788.242c-.903-.047-1.46-.603-2.253-1.029-.753-.434-2.292-1.064-4.014-1.06-.464 0-.943.044-1.427.147-1.495.322-2.497 1.152-3.28 2.037.189 1.207.274 2.92-.017 3.016-.425.141-1.371-.283-1.371-.283s-.614 1.134-1.04 1.23c-.426.094-1.041-.806-1.041-.806s-.992.757-1.56.757c-.338 0-.256-1.609-.135-2.912a2.938 2.938 0 0 1-1.103-1.93L1 17.263l1.763-.708c.019-2.086.318-6.62 3.058-9.767 1.732-1.97 4.184-2.99 6.636-3.13V2.352h-2.331V1.09h5.333v1.263h-1.74v1.308c2.306.157 4.528 1.105 6.043 2.883 2.51 2.97 3.23 6.518 3.238 8.67-.003.518-.043.96-.125 1.321"/>
        <path fill="red" d="M5.936 18.16a.736.736 0 0 1-.737-.74.738.738 0 1 1 .737.739M13.389 8.578c-2.214.005-3.91 1.595-3.915 3.434H8.213c.01-2.65 2.368-4.69 5.176-4.697 2.805.006 5.165 2.046 5.177 4.697h-1.263c-.005-1.839-1.701-3.429-3.914-3.434"/>
    </g>
</svg>
