<svg xmlns="http://www.w3.org/2000/svg" width="32" height="32" viewBox="0 0 32 32">
    <defs>
        <clipPath id="a">
            <path d="M0 24h24V0H0z"/>
        </clipPath>
    </defs>
    <g clip-path="url(#a)" transform="matrix(1.33333 0 0 -1.33333 0 32)">
        <path fill="#b45000" d="M6.44 11.969a.863.863 0 0 1-.863-.864.862.862 0 1 1 1.726 0 .863.863 0 0 1-.863.864M9.8 16.861a1.964 1.964 0 0 1-1.396-.578c-.84-.86-1.283-2.226-1.305-2.26l1.134-.4c0 .002.106.305.296.696.187.393.465.856.728 1.114a.77.77 0 0 0 1.311-.541.776.776 0 0 0-.224-.545c-.26-.26-.725-.539-1.115-.726-.393-.19-.696-.295-.696-.297l.4-1.136v.002c.035.023 1.397.467 2.26 1.308A1.971 1.971 0 0 1 9.8 16.861M12.847 12.958h4.809v1.202h-4.809zM12.847 10.461h4.809v1.203h-4.809z"/>
        <path fill="#b45000" d="M19.976 11.52c.499-1.482.708-2.804.798-3.547h-3.377V5.962h-1.2v2.01H9.74v-2.01H8.538v2.01H2.203v3.272h2.026l.08.508s.022.161.136.494c.344 1 1.426 3.265 4.783 4.87 1.439.687 2.93.923 4.294.923a13.564 13.564 0 0 0 4.08-.655l-1.25-1.107.95-.345c.004-.002 1.078-.39 2.304-1.004-.233-.138-.361-.246-.383-.263l-.638-.539.71-.434a7.516 7.516 0 0 0 1.572-1.355 2.097 2.097 0 0 0-.32-.025h-.836zm1.363-.331c.275.04.51.078.615.073H23l-.528.904c-.511.865-1.211 1.538-1.748 1.973.126.052.27.1.426.145l1.37.381-1.227.717c-.96.563-1.96 1.02-2.658 1.312l1.212 1.075-.846.381c-.046.017-2.405 1.086-5.48 1.09-1.5 0-3.175-.258-4.812-1.04-3.887-1.848-5.116-4.62-5.463-5.754H1V6.771h6.335V4.76h3.607v2.014h4.053V4.76H18.6v2.012h3.469l-.032.632c-.002.03-.086 1.675-.7 3.785"/>
    </g>
</svg>
