<svg xmlns="http://www.w3.org/2000/svg" width="32" height="32" viewBox="0 0 32 32">
    <defs>
        <clipPath id="a">
            <path d="M0 24h24V0H0z"/>
        </clipPath>
    </defs>
    <g clip-path="url(#a)" transform="matrix(1.33333 0 0 -1.33333 0 32)">
        <path fill="#595959" d="M20.102 3.636a1.11 1.11 0 0 0-.557-.146 1.123 1.123 0 0 0-1.127 1.12c0 .39.202.767.56.972.185.107.374.156.563.156a1.126 1.126 0 0 0 .56-2.102m-3.421 6.38a3.39 3.39 0 0 0-1.615.407 2.03 2.03 0 0 1-1.426.206c-.62-.145-.952-.54-.998-.563-.88-1.051-2.258-1.73-3.83-1.728-2.631.005-4.652 1.863-4.656 4.01.004 1.348.685 2.476 1.888 3.223l.622.382-.381-1.906-.013-.124c.005-1.563 1.254-2.841 2.815-2.843 1.56.002 2.812 1.278 2.816 2.843l-.015.13c0 .003-.69 3.315-.763 3.807l-1.247-.187h-.002c.085-.554.66-3.321.762-3.807a1.568 1.568 0 0 0-1.551-1.522 1.564 1.564 0 0 0-1.55 1.528c.098.486.649 3.228.734 3.773l-.203 1.21h-.002a5.598 5.598 0 0 0-1.085-.11c-.483 0-.93.076-1.288.195-.464.162-.753.387-.903.625a1.16 1.16 0 0 0-.1.443c0 .412.222.82.679 1.163.452.336 1.123.569 1.876.567.05 0 .092 0 .124-.002 2.023-.227 4.11-2.447 4.628-5.545.018-.028.09-1.058 1.184-1.466.22-.07.434-.1.643-.1.69.007 1.183.282 1.23.3.477.263 1.028.41 1.627.41 1.733-.004 3.039-1.245 3.04-2.658-.001-1.412-1.31-2.656-3.04-2.66M6.483 4.05a1.134 1.134 0 0 0-1.537-.412 1.126 1.126 0 0 0-.41 1.536v.002c.208.358.582.56.973.562.19 0 .38-.05.562-.154.358-.204.56-.583.56-.973 0-.193-.046-.383-.148-.561M2.988 16.74v1.705h1.2a3.2 3.2 0 0 1 1.118-.637 5.334 5.334 0 0 1 1.666-.26c-.038-.208-.091-.49-.153-.808H5.474zm16.598 1.976a1.43 1.43 0 1 0-1.431-1.433 1.436 1.436 0 0 0 1.43 1.433m2.343-14.101c0 .404-.101.816-.316 1.189l-.002.003a2.4 2.4 0 0 1-2.07 1.192c-.057 0-.116-.018-.174-.022l-1.063 2.072c1.549.577 2.672 1.953 2.682 3.628a3.655 3.655 0 0 1-.645 2.038 2.679 2.679 0 0 1 1.936 2.568 2.691 2.691 0 1 1-5.383 0A2.7 2.7 0 0 1 17 16.57c-.107.006-.211.029-.32.029-.808 0-1.57-.202-2.224-.563.009.006-.047-.026-.176-.068a1.545 1.545 0 0 0-.457-.083.84.84 0 0 0-.252.038c-.12.038-.19.123-.254.249a.84.84 0 0 0-.063.162c-.011.042-.007.042-.01.042-.603 3.532-2.94 6.25-5.774 6.616a3.276 3.276 0 0 1-.226.007c-1.977 0-3.774-1.18-3.816-2.992 0-.101.005-.202.018-.301h-.651c-.594 0-1.07-.485-1.07-1.074v-2.086c0-.59.48-1.07 1.07-1.07h1.228a4.836 4.836 0 0 1-1.13-3.128C2.9 10.29 4.193 8.56 6.05 7.688l-.365-.712c-.06.005-.117.023-.177.023a2.376 2.376 0 0 1-2.066-1.194 2.383 2.383 0 0 1-.321-1.19c0-.553.208-1.09.57-1.522l-.694-1.351L4.28 1l.824 1.279c.134-.023.268-.051.4-.051h.005c.823 0 1.62.43 2.066 1.19.215.376.318.79.318 1.193 0 .476-.157.935-.426 1.332l.749 1.159c.196-.018.395-.028.595-.028 1.925.002 3.646.82 4.737 2.116.008.004.05.04.112.083a.705.705 0 0 0 .226.119c.078.015.14.022.195.022a.723.723 0 0 0 .374-.098l.005-.002a4.639 4.639 0 0 1 1.239-.447l1.884-2.921a2.378 2.378 0 0 1-.43-1.335 2.382 2.382 0 0 1 2.39-2.383c.136 0 .269.028.404.05L20.772 1l1.285.742-.697 1.354c.359.432.568.965.568 1.519"/>
    </g>
</svg>
