<svg xmlns="http://www.w3.org/2000/svg" width="32" height="32" viewBox="0 0 32 32">
    <defs>
        <clipPath id="a">
            <path d="M0 24h24V0H0z"/>
        </clipPath>
    </defs>
    <g clip-path="url(#a)" transform="matrix(1.33333 0 0 -1.33333 0 32)">
        <path fill="#003c96" d="M18.514 12.33c0-4.53-3.637-8.218-8.107-8.218-4.31 0-7.703 2.972-8.071 7.082a6.633 6.633 0 0 0 .027 1.605h5.779c-.192-.136-.366-.269-.515-.38l.802-1.025c.48.4 1.265.894 1.674.876a.988.988 0 0 0 .87-.532c.183-.35.225-.712.227-.959a2.09 2.09 0 0 0-.22-.928 1.001 1.001 0 0 0-.89-.548c-.396-.019-1.18.477-1.661.876l-.801-1.023c.543-.407 1.378-1.104 2.448-1.153a2.295 2.295 0 0 1 2.067 1.264 3.422 3.422 0 0 1-.008 3.053 2.15 2.15 0 0 1-.326.48h6.705zM5.369 15.426a.854.854 0 1 0 0-1.709.854.854 0 0 0 0 1.71m10.782 2.025c.427.32.997.6 1.212.642.007-.024.017-.054.026-.094.03-.123.046-.303.046-.504a6.186 6.186 0 0 0-.074-.889c-.417.25-.87.497-1.355.74.049.035.094.07.145.105m5.413-.796c-.663 0-1.425-.816-1.987-1.568-.291.23-.647.497-1.061.783.079.402.18 1.02.182 1.625-.016.523-.033 1.071-.474 1.557-.231.23-.548.313-.79.308-.772-.033-1.405-.478-2.004-.874a12.77 12.77 0 0 1-.732-.55c-1.72.702-3.74 1.228-5.962 1.235-1.965 0-3.884-.617-5.335-1.846C1.948 16.101.994 14.242 1 11.918a7.996 7.996 0 0 1 .043-.857c.43-4.813 4.455-8.249 9.364-8.249 5.197 0 9.407 4.26 9.407 9.518.528-.652 1.176-1.266 1.75-1.266 1.227 0 1.436 1.96 1.436 2.797 0 .836-.21 2.795-1.436 2.795M7.627 9.154v.002z"/>
    </g>
</svg>
