<svg xmlns="http://www.w3.org/2000/svg" width="32" height="32" viewBox="0 0 32 32">
    <defs>
        <clipPath id="a">
            <path d="M0 24h24V0H0z"/>
        </clipPath>
    </defs>
    <g clip-path="url(#a)" transform="matrix(1.33333 0 0 -1.33333 0 32)">
        <path fill="#595959" d="M19.389 16.757c-1.14 1.702-3.003 1.702-4.144 0l-1.036-1.553c-1.14-1.703-.208-3.094 2.07-3.094h2.076c2.28 0 3.212 1.39 2.07 3.094zM15.492 18.988c.638 0 1.152.673 1.152 1.506 0 .831-.514 1.506-1.152 1.506-.636 0-1.15-.675-1.15-1.506 0-.833.514-1.506 1.15-1.506M12.66 18.634c-.639 0-1.153-.675-1.153-1.506 0-.833.514-1.506 1.152-1.506.636 0 1.15.673 1.15 1.506 0 .83-.514 1.506-1.15 1.506M19.014 18.988c.637 0 1.15.673 1.15 1.506 0 .831-.513 1.506-1.15 1.506-.637 0-1.15-.675-1.15-1.506 0-.833.513-1.506 1.15-1.506M21.848 18.634c-.637 0-1.151-.675-1.151-1.506 0-.833.514-1.506 1.15-1.506.639 0 1.153.673 1.153 1.506 0 .83-.514 1.506-1.152 1.506M8.882 6.647c-1.14 1.702-3.003 1.702-4.144 0L3.702 5.095C2.562 3.391 3.494 2 5.772 2h2.076c2.28 0 3.212 1.392 2.07 3.095zM4.985 8.879c.638 0 1.152.673 1.152 1.506 0 .83-.514 1.506-1.152 1.506-.636 0-1.15-.675-1.15-1.506 0-.833.514-1.506 1.15-1.506M2.152 8.524C1.514 8.524 1 7.85 1 7.018c0-.833.514-1.506 1.152-1.506.636 0 1.15.673 1.15 1.506 0 .831-.514 1.506-1.15 1.506M8.507 8.879c.637 0 1.15.673 1.15 1.506 0 .83-.513 1.506-1.15 1.506-.637 0-1.15-.675-1.15-1.506 0-.833.513-1.506 1.15-1.506M11.34 8.524c-.636 0-1.15-.675-1.15-1.506 0-.833.514-1.506 1.15-1.506.639 0 1.153.673 1.153 1.506 0 .831-.514 1.506-1.152 1.506"/>
    </g>
</svg>
