<svg xmlns="http://www.w3.org/2000/svg" width="32" height="32" viewBox="0 0 32 32">
    <defs>
        <clipPath id="a">
            <path d="M0 24h24V0H0z"/>
        </clipPath>
    </defs>
    <g clip-path="url(#a)" transform="matrix(1.33333 0 0 -1.33333 0 32)">
        <path fill="#ff8c00" d="M10.19 17.86a.697.697 0 1 1-.002 1.394.697.697 0 0 1 .002-1.394"/>
        <path fill="#ff8c00" d="M21.139 4.593v-.001c-.88-1.516-2.615-2.36-4.657-2.364-1.21 0-2.511.302-3.753.935l.472 1.614 3.45 1.76-.45 4.425 1.935 1.659c2.286-1.466 3.59-3.761 3.585-5.801a4.423 4.423 0 0 0-.582-2.227M7.518 2.228c-2.044.004-3.781.848-4.655 2.366a4.405 4.405 0 0 0-.585 2.226c-.006 1.925 1.157 4.08 3.215 5.55l.5-2.678 3.878-1.744L9.69 4.39l1.303-1.363c-1.16-.54-2.357-.8-3.475-.8m4.574 19.547c4.475-.016 5.482-3.472 5.543-6.434 0-.61-.057-1.167-.137-1.647l-2.583-2.218.429-4.226-3.174-1.621-.46-1.574-.766.803.195 3.87-4.056 1.82-.56 2.989-.152.807H6.37a8.047 8.047 0 0 0-.053.935c.05 2.878 1.296 6.492 5.775 6.496M22.949 6.82c-.01 2.572-1.594 5.194-4.216 6.856.076.507.13 1.059.13 1.664-.003 1.61-.316 3.482-1.34 5.014-1.013 1.536-2.806 2.66-5.431 2.646-2.633.012-4.471-1.136-5.542-2.684a7.573 7.573 0 0 1-.83-1.582l-2.068-.217 1.58-1.581a10.24 10.24 0 0 1-.142-1.658c0-.587.065-1.121.16-1.613C2.637 12 1.059 9.384 1.05 6.82c0-.985.237-1.96.749-2.841C2.939 2.008 5.137.999 7.503.999h.015c1.47 0 3.018.399 4.482 1.178C13.462 1.396 15.01 1 16.482 1h.014c2.367 0 4.565 1.01 5.706 2.979v.002c.508.877.747 1.854.747 2.839"/>
    </g>
</svg>
