<svg xmlns="http://www.w3.org/2000/svg" width="32" height="32" viewBox="0 0 32 32">
    <defs>
        <clipPath id="a">
            <path d="M0 24h24V0H0z"/>
        </clipPath>
    </defs>
    <g clip-path="url(#a)" transform="matrix(1.33333 0 0 -1.33333 0 32)">
        <path fill="#00be3c" d="M11.075 16.98a.71.71 0 0 0-.865.51l1.374.357a.711.711 0 0 0-.51-.866M21.39 13.96s.208-.691-.27-1.38c-.15 1.77-1.6 1.833-1.6 1.833s1.076-.484.28-2.102c-.735-1.498.097-2.583.987-2.393-.21-2.677-1.197-4.732-1.946-5.282-.9-.66-1.558-.3-1.68.48-.12.779 1.38 2.338.96 4.677-.42 2.338-2.458 2.877-4.497 1.919-2.04-.96-3.538-3.24-4.138-3.24-.6 0-1.38.482-.72 1.38.482.657 3.476 2.478 5.195 4.325l.203-1.086.794 1.633.705-.703-.27 1.708.87-.15s-.84 1.259-1.343 2.132l-.004-.008a2.03 2.03 0 0 1-.09.163 9.645 9.645 0 0 1 1.668.899l2.063-.362.169.974-1.188.207c.37.334.735.71 1.078 1.148l-.778.607a8.42 8.42 0 0 0-2.971-2.374 8.647 8.647 0 0 0-.786-.333c-.193.129-.42.24-.686.33a9.75 9.75 0 0 1 1.145 1.184l2.079.25-.117.983-1.2-.144c.258.426.498.892.7 1.41l-.92.356a8.432 8.432 0 0 0-2.157-3.132 7.7 7.7 0 0 0-1.04-.815c-1.017-.22-1.968-.908-2.966-1.372-1.158-.54-2.01-.5-2.01-.5l.04 1.139s-1.533-.783-1.67-1.478c-.136-.696.262-1.066.922-1.352.948-.411 3.756.435 5.61.07-.646-2.111-4.403-2.591-5.523-4.35-.623-.98-.823-2.329-.332-3.426-.382.266-1.15.839-1.257 1.204-.061.182-.09.487-.09.809-.001.57.093 1.227.186 1.397l-.043.134c-.47.23-1.054.423-1.49.425a.878.878 0 0 1-.247-.028c-.544-.133-1.003-.567-1.002-1.241 0-.056.004-.114.013-.18l.175-.05c.249.32.493.413.705.414a.82.82 0 0 0 .61-.292c.013-.001.246-.85.238-1.491 0-.128-.01-.25-.025-.36-.1-.541-.334-.983-.95-.986-.16 0-.347.03-.566.1l-.123-.124c.169-.461 1.437-1.246 1.445-1.261l.143.038c0 .013.662 1.276.838 1.245v.002h.017c.255-.022 1.316-1.251 1.733-1.296V6.24c.217.04.39.256.518.476.447-.36 1.038-.632 1.803-.761 3.177-.54 4.558 2.254 5.457 3.016.9.76 2.158.7 1.919-.978a4.557 4.557 0 0 0-.302-1.12c-1.12-.131-2.293-.85-2.293-2.472-.285-.221-1.397-.43-2.038-.423-.09 0-.172.004-.243.01-.534.05-1.777.745-1.966 1l-.14.015c-.484-.402-.987-.963-1.078-1.413a1.572 1.572 0 0 1-.026-.275c-.005-.514.282-1.015.909-1.22l.12.14a1.112 1.112 0 0 0-.148.52c-.006.443.389.689.579.73l.002.04v-.04c.16.004 1.22-.143 1.68-.615.363-.355.733-.58.72-.892.003-.182-.11-.44-.448-.811l.065-.166.04-.001c.505.012 1.692.796 1.704.796l.015.156c-.01.002-.84.833-.812 1.059v.01c-.038.169 1.377.09 1.843.234.166.065.54.267.948.495.325-1 1.535-2.04 3.088-1.574 1.799.54 2.775 2.128 3.178 4.138.285 1.423.09 2.704-.16 3.775 1.652 1.019.19 3.87.19 3.87"/>
    </g>
</svg>
