<svg xmlns="http://www.w3.org/2000/svg" width="32" height="32" viewBox="0 0 32 32">
    <defs>
        <clipPath id="a">
            <path d="M0 24h24V0H0z"/>
        </clipPath>
    </defs>
    <g clip-path="url(#a)" transform="matrix(1.33333 0 0 -1.33333 0 32)">
        <path fill="#f0f" d="M19.151 6.438c-1.438-.563-3.839-.732-7.15-.727-3.315-.006-5.713.163-7.152.726-1.418.592-1.935 1.3-1.98 2.996.037 4.275 2.812 8.838 9.132 8.857 6.316-.018 9.093-4.582 9.13-8.856-.044-1.697-.562-2.404-1.98-2.996m.678 9.834c-1.712 1.933-4.345 3.247-7.828 3.242-3.487.005-6.118-1.31-7.829-3.242-1.715-1.93-2.526-4.438-2.526-6.838-.044-2.032.977-3.497 2.762-4.14 1.764-.67 4.237-.804 7.593-.808 3.353.004 5.825.137 7.591.808 1.786.643 2.807 2.108 2.76 4.14 0 2.4-.808 4.907-2.523 6.837"/>
        <path fill="#f0f" d="M15.497 13.27a1.135 1.135 0 0 1-1.136-1.135v-1.658a1.136 1.136 0 1 1 2.273 0v1.658c0 .629-.51 1.135-1.137 1.135M8.505 13.27a1.134 1.134 0 0 1-1.136-1.135v-1.658a1.137 1.137 0 0 1 2.273 0v1.658c0 .629-.512 1.135-1.137 1.135"/>
    </g>
</svg>
