<svg xmlns="http://www.w3.org/2000/svg" width="32" height="32" viewBox="0 0 32 32">
    <defs>
        <clipPath id="a">
            <path d="M0 24h24V0H0z"/>
        </clipPath>
    </defs>
    <path fill="#a000a0" d="M11.962 7.087l-4.461 4.458 1.224 1.226 4.463-4.458zM20.035 7.087L18.81 8.313l4.457 4.456 1.227-1.226z"/>
    <g clip-path="url(#a)" transform="matrix(1.33333 0 0 -1.33333 0 32)">
        <path fill="#a000a0" d="M14.313 6.901H9.66v1.566c-.004.99.168 1.953.537 2.588.383.631.841.981 1.788 1 .947-.019 1.405-.369 1.79-1 .37-.635.539-1.599.537-2.588zm-2.327 6.452c-1.36.02-2.39-.692-2.916-1.652-.542-.953-.707-2.11-.71-3.234V5.601h7.252v2.866c-.004 1.124-.169 2.281-.71 3.234-.527.96-1.558 1.672-2.916 1.652"/>
    </g>
</svg>
