<svg xmlns="http://www.w3.org/2000/svg" width="32" height="32" viewBox="0 0 32 32">
    <defs>
        <clipPath id="a">
            <path d="M0 24h24V0H0z"/>
        </clipPath>
    </defs>
    <path fill="#00f" d="M13.187 9.572l-1.225-1.225-5.3 5.299 1.225 1.224zM25.336 13.646l-5.3-5.299-1.225 1.224 5.298 5.3z"/>
    <g clip-path="url(#a)" transform="matrix(1.33333 0 0 -1.33333 0 32)">
        <path fill="#00f" d="M12 8.782c3.24-.015 4.454-1.388 4.898-2.009.143-.208.176-.299.176-.3l1.206.487c-.022.136-1.408 3.145-6.28 3.123-4.872.022-6.258-2.987-6.28-3.123l1.206-.488c0 .002.033.093.175.301.445.621 1.659 1.994 4.899 2.01"/>
    </g>
</svg>
