<svg xmlns="http://www.w3.org/2000/svg" width="32" height="32" viewBox="0 0 32 32">
    <defs>
        <clipPath id="a">
            <path d="M0 24h24V0H0z"/>
        </clipPath>
    </defs>
    <g clip-path="url(#a)" transform="matrix(1.33333 0 0 -1.33333 0 32)">
        <path fill="#00f" d="M19.57 9.907v-.002a.928.928 0 0 0-.924.926c-.002 1.388.367 2.727.744 3.712.061.158.121.307.18.446.06-.14.12-.289.182-.448.375-.983.746-2.322.744-3.71a.927.927 0 0 0-.926-.924m-.002 7.817l-.557-.928c-.02-.05-1.656-2.736-1.666-5.965a2.225 2.225 0 1 1 4.45 0c-.01 3.231-1.647 5.914-1.668 5.965zM9.207 5.485c-.808.006-1.42.6-1.476 2.634.056 2.035.668 2.631 1.476 2.637.808-.006 1.42-.602 1.474-2.637-.053-2.034-.665-2.628-1.473-2.634m0 6.57a2.44 2.44 0 0 1-2.089-1.129c-.472-.71-.685-1.653-.687-2.807.002-1.152.215-2.095.687-2.807a2.438 2.438 0 0 1 2.088-1.127h.036c.83 0 1.598.423 2.053 1.127.471.712.684 1.655.686 2.807-.002 1.154-.215 2.096-.686 2.807a2.443 2.443 0 0 1-2.089 1.13M16.21 13.31l-.92-.92-3.972 3.974.919.92zM7.1 16.365L3.123 12.39l-.92.918 3.976 3.977z"/>
    </g>
</svg>
