<svg xmlns="http://www.w3.org/2000/svg" width="32" height="32" viewBox="0 0 32 32">
    <defs>
        <clipPath id="a">
            <path d="M0 24h24V0H0z"/>
        </clipPath>
    </defs>
    <g clip-path="url(#a)" transform="matrix(1.33333 0 0 -1.33333 0 32)">
        <path fill="red" d="M15.234 8.506c.002-.994-.2-1.805-.65-2.33-.445-.522-1.177-.9-2.584-.906-1.408.007-2.142.384-2.587.907-.448.524-.652 1.335-.65 2.329v.634h2.587V6.569h1.3v2.57h2.585zm5.204 1.935H3.561V9.14h3.902v-.634c.002-1.152.22-2.286.955-3.167.738-.883 1.946-1.376 3.582-1.368h.04c1.613 0 2.807.493 3.54 1.368.735.88.953 2.015.955 3.167v.634h3.903zM7.609 18.067a.65.65 0 0 1-.65-.649h-.001v-2.22h.002a.65.65 0 0 1 1.299 0v2.22a.65.65 0 0 1-.65.65M19.009 16.943h-2.75l1.858 1.971-.944.892-2.892-3.067v-.893l2.89-3.065.948.891-.002.001-1.857 1.97h2.749z"/>
    </g>
</svg>
