<svg xmlns="http://www.w3.org/2000/svg" width="32" height="32" viewBox="0 0 32 32">
    <defs>
        <clipPath id="a">
            <path d="M0 24h24V0H0z"/>
        </clipPath>
    </defs>
    <path fill="#ff8c00" d="M19.458 13.4l2.418-1.885 2.416 1.884 1.068-1.365-3.484-2.719-3.483 2.719zM7.732 13.398l2.417-1.885 2.416 1.885 1.065-1.366-3.48-2.716-3.484 2.718z"/>
    <g clip-path="url(#a)" transform="matrix(1.33333 0 0 -1.33333 0 32)">
        <path fill="#ff8c00" d="M16.878 8.667a3.837 3.837 0 0 0-2.036-1.479 3.833 3.833 0 0 0 .695 2.417c.328.482.81.718 1.116.718h.019a.495.495 0 0 0 .303-.089c.13-.088.236-.273.239-.586.002-.284-.104-.648-.336-.981m.844 2.633c-.315.222-.69.325-1.05.323-.85-.008-1.651-.496-2.2-1.271a5.146 5.146 0 0 1-.911-3.442 9.962 9.962 0 0 0-1.551-.12c-2.54.01-3.664.759-4.232 1.448-.57.694-.601 1.454-.6 1.564h-.22l.219-.019-1.294.107v.003a.953.953 0 0 1-.004-.091 3.919 3.919 0 0 1 .889-2.385c.84-1.045 2.454-1.936 5.242-1.926h.047a9.79 9.79 0 0 1 2.276.252l.054.009c.057.009.105.031.162.042.058.016.123.029.18.046 1.402.304 2.506 1.068 3.212 2.082.377.541.573 1.142.573 1.726.004.623-.241 1.265-.792 1.652"/>
    </g>
</svg>
