<svg xmlns="http://www.w3.org/2000/svg" width="32" height="32" viewBox="0 0 32 32">
    <defs>
        <clipPath id="a">
            <path d="M0 24h24V0H0z"/>
        </clipPath>
    </defs>
    <path fill="#f0f" d="M24.279 9.315l-2.418 1.881-2.417-1.884-1.064 1.366 3.481 2.717 3.483-2.717z"/>
    <g clip-path="url(#a)" transform="matrix(1.33333 0 0 -1.33333 0 32)">
        <path fill="#f0f" d="M19.939 12.44c-.813 1.12-2.395.619-2.395-.771 0-1.392 2.395-2.808 2.395-3.296 0 .489 2.395 1.905 2.395 3.296 0 1.39-1.582 1.891-2.395.77M14.84 11.296a2.339 2.339 0 0 1-3.97 1.672l.909-.93a1.036 1.036 0 1 0 .729-1.779h-.002v-.001h-.001v-.001h-.37v-1.3h.37v-.001a.897.897 0 0 0 .898-.896.9.9 0 0 0-.897-.896.886.886 0 0 0-.636.264l-.92-.918a2.176 2.176 0 0 1 1.548-.646h.008c1.213 0 2.194.984 2.196 2.196 0 .592-.237 1.128-.617 1.523.462.427.756 1.033.756 1.713M8.258 17.032v.005a.65.65 0 0 1-1.298 0h-.001v-2.218a.65.65 0 1 1 1.3 0l-.001.005z"/>
    </g>
</svg>
