<svg xmlns="http://www.w3.org/2000/svg" width="32" height="32" viewBox="0 0 32 32">
    <defs>
        <clipPath id="a">
            <path d="M0 24h24V0H0z"/>
        </clipPath>
    </defs>
    <path fill="red" d="M7.343 10.616h5.672v1.733H7.343zM18.987 10.616h5.669v1.733h-5.67zM4.29 16.175l2.64-2.64.944.942-2.64 2.64zM8.08 16.175l2.64-2.64.945.942-2.642 2.64zM20.332 16.175l2.639-2.64.945.94-2.639 2.642zM24.124 16.173l2.638-2.64.946.946-2.642 2.64z"/>
    <g clip-path="url(#a)" transform="matrix(1.33333 0 0 -1.33333 0 32)">
        <path fill="red" d="M6.271 6.667c1.286 1.707 3.38 2.813 5.731 2.813 2.347 0 4.438-1.101 5.725-2.805l-1.038-.783c-1.04 1.379-2.747 2.287-4.687 2.287-1.94 0-3.65-.909-4.692-2.294z"/>
    </g>
</svg>
