<svg xmlns="http://www.w3.org/2000/svg" width="32" height="32" viewBox="0 0 32 32">
    <defs>
        <clipPath id="a">
            <path d="M0 24h24V0H0z"/>
        </clipPath>
    </defs>
    <g clip-path="url(#a)" transform="matrix(1.33333 0 0 -1.33333 0 32)">
        <path fill="red" d="M11.999 6.72c-.374 0-2.926 2.413-3.199 2.686h6.398c-.273-.273-2.825-2.686-3.199-2.686m4.744 3.985H7.255L6.782 9.61c.014-.013 2.114-2.255 3.664-3.441.551-.387.917-.71 1.553-.757.636.047 1.002.37 1.553.757 1.55 1.186 3.65 3.428 3.664 3.44zM7.609 13.304c.358 0 .649.29.65.649v2.219a.65.65 0 1 1-1.3 0v-2.22a.65.65 0 0 1 .65-.648M16.394 13.304a.65.65 0 0 1 .649.649v2.219a.65.65 0 1 1-1.298 0h-.001v-2.22a.65.65 0 0 1 .65-.648"/>
    </g>
</svg>
