<svg xmlns="http://www.w3.org/2000/svg" width="32" height="32" viewBox="0 0 32 32">
    <defs>
        <clipPath id="a">
            <path d="M0 24h24V0H0z"/>
        </clipPath>
    </defs>
    <g clip-path="url(#a)" transform="matrix(1.33333 0 0 -1.33333 0 32)">
        <path fill="#f0f" d="M18.977 15.303h-2.85l1.524-1.457-.94-.94-3.011 3.045 3.01 3.076.94-.94-1.523-1.49h2.85zM15.87 8.826H8.13a14.551 14.551 0 0 1 1.944-1.731c.734-.552 1.38-.825 1.943-.825.539 0 1.169.273 1.894.825.722.55 1.375 1.128 1.959 1.73m1.94.26c-.128-.085-.3-.264-.517-.534a10.849 10.849 0 0 1-.388-.502 17.425 17.425 0 0 0-2.428-2.137c-.863-.627-1.683-.938-2.46-.938-.756 0-1.55.286-2.38.858A14.312 14.312 0 0 0 7.32 7.824c-.108.084-.302.295-.582.63-.282.335-.465.546-.551.632l.518 1.035h10.587zm-7.478 6.866l-3.043-3.044-.94.939 1.49 1.457H5.024v1.295h2.849l-1.522 1.49.939.939z"/>
    </g>
</svg>
