<svg xmlns="http://www.w3.org/2000/svg" width="32" height="32" viewBox="0 0 32 32">
    <defs>
        <clipPath id="a">
            <path d="M0 24h24V0H0z"/>
        </clipPath>
    </defs>
    <g clip-path="url(#a)" transform="matrix(1.33333 0 0 -1.33333 0 32)">
        <path fill="#f0f" d="M2.74 10.1a.575.575 0 0 1 .38.227c.365.497.593 1.214.708 1.8l.035.186c-.053-.027-.106-.057-.16-.088-.523-.293-1.134-.73-1.498-1.23a.572.572 0 0 1-.106-.408.581.581 0 0 1 .23-.385.575.575 0 0 1 .41-.102m-.999-.99l-.002.003a1.561 1.561 0 0 0-.34 2.185c1.018 1.365 2.852 2 2.886 2.025l.696.256-.023-.741c-.014-.041-.037-1.995-1.032-3.39A1.573 1.573 0 0 0 1.74 9.11M21.259 10.1a.575.575 0 0 1 .41.102.581.581 0 0 1 .23.385.572.572 0 0 1-.106.408c-.364.5-.975.937-1.497 1.23l-.161.088c.01-.06.023-.123.035-.186.115-.586.343-1.303.709-1.8a.575.575 0 0 1 .38-.227m.999-.99a1.573 1.573 0 0 0-2.185.339c-.995 1.394-1.018 3.348-1.032 3.389l-.023.74.696-.255c.034-.025 1.868-.66 2.886-2.025a1.561 1.561 0 0 0-.34-2.185zM9.509 9.23c.932-.91 2.093-1.997 2.49-1.997.397 0 1.777 1.322 2.298 1.812.319.301.627.601.9.873H8.803c.218-.216.457-.45.707-.688m.938-2.548c-.522.4-1.634 1.416-1.634 1.416a52.86 52.86 0 0 0-2.03 2.025l.474 1.095h9.486l.474-1.095c-.015-.011-2.115-2.255-3.667-3.44-.55-.387-.916-.71-1.551-.758-.635.048-1.001.37-1.552.758M4.99 15.269L7.6 17.308l2.615-2.04-.802-1.021-1.813 1.413-1.812-1.416zM16.398 15.66l-1.812-1.416-.8 1.026 2.61 2.037 2.614-2.04-.801-1.023z"/>
    </g>
</svg>
