<svg xmlns="http://www.w3.org/2000/svg" width="32" height="32" viewBox="0 0 32 32">
    <defs>
        <clipPath id="a">
            <path d="M0 24h24V0H0z"/>
        </clipPath>
    </defs>
    <g clip-path="url(#a)" transform="matrix(1.33333 0 0 -1.33333 0 32)">
        <path fill="#f0f" d="M16.276 9.68c-.002 0-.052-.054-.214-.18-.49-.37-1.795-1.18-4.06-1.182-2.268.002-3.573.812-4.063 1.183-.162.125-.212.179-.214.179l-.935-.901c.073-.08 1.753-1.762 5.205-1.762h.011c3.453 0 5.132 1.682 5.206 1.762zM7.603 15.277L5.79 13.863l-.8 1.025 2.613 2.038 2.61-2.04-.8-1.023zM13.784 14.889l2.612 2.037 2.612-2.04-.8-1.022-1.812 1.414-1.81-1.416z"/>
    </g>
</svg>
