<svg xmlns="http://www.w3.org/2000/svg" width="32" height="32" viewBox="0 0 32 32">
    <defs>
        <clipPath id="a">
            <path d="M0 24h24V0H0z"/>
        </clipPath>
    </defs>
    <path fill="#00f" d="M9.793 16.11h-.004zM8.529 14.92l1.261 1.19 4.413-4.685L9.79 6.743l-1.26 1.19 2.474 2.628H7.341v1.732h3.662zM23.471 14.923v-.002l-2.478-2.628h3.666V10.56h-3.665l2.477-2.627-1.26-1.19-4.416 4.683 4.414 4.683z"/>
    <g clip-path="url(#a)" transform="matrix(1.33333 0 0 -1.33333 0 32)">
        <path fill="#00f" d="M16.587 6.613c-.237-.303-.594-.449-1.12-.456-.192 0-.401.023-.614.066-.663.085-1.505.987-2.854 1.04-1.348-.053-2.19-.955-2.855-1.04a3.376 3.376 0 0 0-.614-.066c-.528.007-.882.153-1.118.458a1.279 1.279 0 0 0-.258.78c.004.36.134.764.545 1.176.033.037.068.081.214.202.446.358 1.678 1.168 4.086 1.172 1.607-.002 2.689-.364 3.364-.71.337-.173.575-.344.72-.462.148-.12.179-.169.183-.165.44-.445.573-.85.575-1.213 0-.303-.101-.582-.254-.782m-4.588 4.633c-3.62.006-5.175-1.687-5.253-1.789-.598-.593-.893-1.356-.891-2.062 0-.588.193-1.138.523-1.572.539-.703 1.372-.97 2.152-.963.295 0 .586.034.869.09 1.207.306 1.996 1.067 2.6 1.014.605.053 1.395-.708 2.589-1.014.293-.058.586-.093.879-.093h.026c.775 0 1.593.273 2.126.966.328.434.522.982.522 1.572.004.708-.293 1.472-.922 2.097-.046.067-1.6 1.76-5.22 1.754M3.928 9.49a.58.58 0 0 0-.468-.246.566.566 0 0 0-.466.884c.35.514.95.97 1.463 1.275.054.032.106.063.158.091-.09-.614-.283-1.437-.687-2.005M2.172 10.7a1.547 1.547 0 0 1-.278-.887c0-.496.237-.986.676-1.292l.004-.002a1.571 1.571 0 0 1 2.175.401c.956 1.42.928 3.374.938 3.415l.002.74-.686-.274c-.035-.025-1.85-.709-2.831-2.102M20.855 9.34a.566.566 0 0 0-.782.147c-.356.508-.562 1.233-.66 1.823a5.336 5.336 0 0 0-.028.185l.157-.091c.512-.306 1.113-.76 1.46-1.272a.573.573 0 0 0 .1-.32.587.587 0 0 0-.247-.471m.972 1.358c-.981 1.39-2.797 2.077-2.83 2.102l-.69.272.005-.74c.01-.04-.02-1.995.937-3.411a1.558 1.558 0 0 1 1.288-.677c.305 0 .617.09.887.273l.007.006a1.568 1.568 0 0 1 .396 2.175"/>
    </g>
</svg>
