<svg xmlns="http://www.w3.org/2000/svg" width="32" height="32" viewBox="0 0 32 32">
    <defs>
        <clipPath id="a">
            <path d="M0 24h24V0H0z"/>
        </clipPath>
    </defs>
    <g clip-path="url(#a)" transform="matrix(1.33333 0 0 -1.33333 0 32)">
        <path fill="#f0f" d="M15.729 9.682l-3.73-3.73-3.727 3.73-.907-.908L12 4.138l4.668 4.636c-.043.065-.355.367-.94.908M18.97 16.036h-2.853l1.524 1.492-.94.94-3.015-3.08L16.7 12.34l.94.94-1.524 1.46h2.854zM7.461 13.629a.65.65 0 0 1 .65.649v2.219a.65.65 0 1 1-1.299 0H6.81v-2.22h.002a.65.65 0 0 1 .65-.648"/>
    </g>
</svg>
