<svg xmlns="http://www.w3.org/2000/svg" width="32" height="32" viewBox="0 0 32 32">
    <defs>
        <clipPath id="a">
            <path d="M0 24h24V0H0z"/>
        </clipPath>
    </defs>
    <g clip-path="url(#a)" transform="matrix(1.33333 0 0 -1.33333 0 32)">
        <path fill="#ff8c00" d="M18.356 6.123c.002 0 .395-.041 1.001-.15-1.515-1.793-4.18-2.862-7.356-2.877-3.179.015-5.846 1.084-7.36 2.875.608.109.998.15 1 .152l.473.047-.097.947-.473-.047c-.013 0-.62-.066-1.507-.24-.229.397-.408.82-.533 1.268.85-.008 1.406-.065 1.408-.065l.472-.047.097.948-.473.046-.002.002c-.012 0-.684.069-1.68.071a5.342 5.342 0 0 0-.037.586c0 2.077.61 4.106 1.972 5.601l.121.135.683 4.17 2.3-2.319.354.103c.942.276 2.03.435 3.282.435 1.251 0 2.335-.159 3.28-.435l.35-.103 2.3 2.319.68-4.168.125-.137c1.36-1.495 1.973-3.522 1.973-5.601 0-.2-.017-.395-.038-.588-.996 0-1.669-.067-1.682-.069l-.475-.048.1-.95.473.049-.002.002c.002 0 .56.057 1.408.065a5.505 5.505 0 0 0-.533-1.272c-.887.176-1.496.24-1.507.242l-.475.049-.097-.951zm4.081 1.902l.475-.045.088.95-.475.043c-.214.019-.413.029-.616.039.016.207.037.412.04.627 0 2.253-.649 4.534-2.173 6.296l-1.018 6.208-3.49-3.526c-.976.25-2.06.386-3.267.386-1.208 0-2.295-.136-3.27-.387l-3.496 3.525-1.016-6.209c-1.524-1.761-2.17-4.04-2.17-6.293.002-.215.022-.42.04-.625-.204-.012-.403-.022-.615-.041L1 8.93l.087-.95.475.043c.231.022.452.034.671.045a6.7 6.7 0 0 1 .55-1.525c-.278-.072-.563-.15-.857-.242l-.454-.143.283-.908.456.139c.373.117.733.213 1.078.296 1.72-2.443 5.042-3.826 8.712-3.828 3.667.002 6.988 1.385 8.71 3.83.342-.085.701-.181 1.075-.296l.454-.143.285.91-.454.141c-.294.092-.579.17-.859.242.243.477.43.986.552 1.527.221-.009.441-.021.673-.043"/>
        <path fill="#ff8c00" d="M9.556 10.521l-1.46 1.08-1.455-1.078.568-.765.889.659.89-.66zM15.903 11.6l-1.459-1.076.566-.768.891.66.892-.66.566.766zM13.4 5.94a.922.922 0 0 0-.923.913v.342c.164.14.276.34.276.57a.755.755 0 0 1-1.508 0c0-.232.112-.433.277-.572v-.33a.923.923 0 0 0-.92-.924.925.925 0 0 0-.924.924h-.95A1.875 1.875 0 0 1 12 5.613a1.874 1.874 0 0 1 3.271 1.25h-.952a.925.925 0 0 0-.92-.924"/>
    </g>
</svg>
