<svg xmlns="http://www.w3.org/2000/svg" width="32" height="32" viewBox="0 0 32 32">
    <defs>
        <clipPath id="a">
            <path d="M0 24h24V0H0z"/>
        </clipPath>
    </defs>
    <g clip-path="url(#a)" transform="matrix(1.33333 0 0 -1.33333 0 32)">
        <path fill="#ff8c00" d="M18.358 6.123h-.002c.002 0 .394-.041 1.002-.148-1.515-1.794-4.18-2.863-7.357-2.879-3.178.016-5.844 1.085-7.36 2.877.608.107 1 .148 1 .15l.474.049-.098.947-.473-.049v.002c-.012-.002-.62-.067-1.506-.242a5.475 5.475 0 0 0-.534 1.27c.85-.008 1.405-.065 1.407-.065l.473-.049.098.95-.474.046-.002.002c-.01 0-.686.067-1.68.069a5.93 5.93 0 0 0-.037.587c0 2.077.61 4.106 1.972 5.6l.121.134.683 4.173 2.3-2.322.355.105c.943.275 2.028.435 3.281.435 1.251 0 2.336-.16 3.28-.435l.351-.103 2.298 2.32.684-4.169.122-.136c1.362-1.496 1.973-3.523 1.973-5.602 0-.2-.017-.395-.037-.587-.997-.002-1.67-.069-1.682-.069l-.475-.049.097-.95.475.05c.001 0 .557.057 1.407.065a5.534 5.534 0 0 0-.533-1.27c-.888.176-1.496.241-1.506.242l-.475.049-.097-.95zm4.08 1.902l.473-.044.09.948-.476.044c-.214.019-.414.029-.617.041.017.207.038.412.04.626 0 2.254-.646 4.535-2.173 6.296l-1.016 6.207-3.49-3.526c-.976.25-2.06.386-3.268.386-1.209 0-2.294-.137-3.27-.386l-3.495 3.524-1.014-6.206C2.695 14.175 2.05 11.892 2.05 9.64c.001-.214.022-.419.04-.626-.204-.011-.404-.02-.617-.039L1 8.929l.088-.949.475.045c.231.022.451.034.671.045a6.607 6.607 0 0 1 .55-1.527c-.278-.072-.563-.15-.857-.241l-.454-.142.283-.91.455.142c.373.116.733.211 1.078.295 1.721-2.443 5.043-3.825 8.712-3.83 3.668.005 6.988 1.387 8.71 3.83.343-.084.703-.179 1.076-.295l.455-.142.284.908-.455.142c-.294.092-.579.17-.858.242.242.477.427.986.551 1.528.22-.011.442-.023.674-.045"/>
        <path fill="#ff8c00" d="M8.99 9.759l.566.768-1.46 1.075-1.454-1.077.568-.767.888.66zM15.903 11.6l-1.46-1.073.567-.77.893.66.888-.66.57.768zM14.455 5.871a3.886 3.886 0 0 0-.937-.636v.923h1.22a4.18 4.18 0 0 0-.283-.287m-3.02-.923v1.21h1.128v-1.21a7.336 7.336 0 0 0-1.129 0m-2.172 1.21h1.22v-.925a3.902 3.902 0 0 0-1.22.925m3.214.951v.086a.74.74 0 0 1 .278.572.753.753 0 0 1-.753.752.753.753 0 0 1-.756-.752c0-.233.111-.432.276-.57v-.088H8.337l-.425-.69C7.935 6.376 9.15 3.955 12 3.932c2.848.023 4.061 2.444 4.087 2.485l-.424.691z"/>
    </g>
</svg>
