<svg xmlns="http://www.w3.org/2000/svg" width="32" height="32" viewBox="0 0 32 32">
    <defs>
        <clipPath id="a">
            <path d="M0 24h24V0H0z"/>
        </clipPath>
    </defs>
    <g clip-path="url(#a)" transform="matrix(1.33333 0 0 -1.33333 0 32)">
        <path fill="#ff8c00" d="M18.355 6.122v.002c.002 0 .395-.04 1.002-.148-1.515-1.793-4.18-2.864-7.359-2.879-3.177.015-5.842 1.084-7.359 2.877.608.107 1 .148 1 .148l.475.051-.098.947-.475-.049c-.01-.002-.618-.066-1.505-.24-.229.396-.409.82-.534 1.27.85-.008 1.406-.067 1.408-.065l.474-.049.096.948-.474.047v.001c-.012 0-.687.07-1.682.071a6.25 6.25 0 0 0-.036.586c0 2.077.612 4.106 1.972 5.6l.122.135.682 4.171 2.298-2.318.355.102c.946.277 2.03.435 3.281.435 1.254 0 2.338-.158 3.282-.435l.354-.104 2.295 2.32.684-4.169.124-.135c1.359-1.496 1.972-3.523 1.972-5.602 0-.2-.017-.394-.037-.586a18.475 18.475 0 0 1-1.683-.07l-.474-.049.099-.948.473.05s.555.054 1.406.062a5.5 5.5 0 0 0-.533-1.268c-.887.174-1.495.24-1.506.24l-.474.051-.1-.949zm4.082 1.904l.474-.045.09.95-.476.043c-.214.02-.413.03-.618.041.018.206.039.411.039.625 0 2.254-.645 4.537-2.17 6.297l-1.016 6.206-3.49-3.526c-.977.251-2.064.387-3.271.387-1.206 0-2.292-.136-3.268-.387l-3.495 3.526-1.016-6.21c-1.525-1.76-2.171-4.042-2.171-6.293 0-.214.02-.419.04-.626-.203-.01-.402-.02-.614-.04L1 8.931l.085-.95.477.045c.23.022.45.034.67.045a6.64 6.64 0 0 1 .55-1.529c-.277-.07-.561-.149-.855-.24l-.455-.14.282-.913.455.143c.374.115.734.21 1.078.294 1.722-2.44 5.043-3.824 8.71-3.83 3.67.006 6.99 1.39 8.712 3.832.344-.084.705-.179 1.078-.296l.453-.139.284.906-.454.141c-.295.092-.58.17-.858.242.24.478.426.986.55 1.527.22-.009.443-.02.675-.043"/>
        <path fill="#ff8c00" d="M13.904 7.767a1.357 1.357 0 0 1-2.315.96l-.337-.335.673-.678.338.338c.078.078.17.119.284.12a.408.408 0 0 0 .406-.405.404.404 0 0 0-.406-.4v-.954a.586.586 0 0 0 .586-.585.587.587 0 0 0-.998-.413l-.338.336-.673-.675.337-.336a1.53 1.53 0 0 1 1.08-.448h.006a1.537 1.537 0 0 1 1.07 2.64c.18.23.287.52.287.835M15.902 10.676l-.892.658-.563-.767 1.455-1.075 1.455 1.075-.566.765zM8.1 10.677l-.893.656-.566-.766L8.095 9.49l1.461 1.074-.564.768z"/>
    </g>
</svg>
