<svg xmlns="http://www.w3.org/2000/svg" width="32" height="32" viewBox="0 0 32 32">
    <defs>
        <clipPath id="a">
            <path d="M0 24h24V0H0z"/>
        </clipPath>
    </defs>
    <g clip-path="url(#a)" transform="matrix(1.33333 0 0 -1.33333 0 32)">
        <path fill="#ff8c00" d="M15.9 9.01a8.261 8.261 0 0 0-.784.639c-.533.473-.985 1.12-.959 1.484.012.563.345.796.704.81.218-.002.446-.092.654-.374l.386-.534.387.536c.205.28.436.37.654.372.356-.012.692-.247.704-.81.025-.364-.428-1.011-.959-1.484a8.502 8.502 0 0 0-.787-.64m2.698 2.124c-.002 1.043-.792 1.762-1.656 1.765a1.696 1.696 0 0 1-1.04-.367 1.681 1.681 0 0 1-1.04.364c-.867 0-1.657-.72-1.657-1.762.11-1.774 2.696-3.267 2.696-3.267s2.586 1.493 2.697 3.267"/>
        <path fill="#ff8c00" d="M18.36 6.122a16.5 16.5 0 0 0 1.001-.149C17.846 4.18 15.18 3.11 12.002 3.094 8.824 3.11 6.157 4.18 4.64 5.972c.61.107 1 .148 1.001.15l.474.05-.098.947-.474-.05v.002c-.01-.002-.618-.067-1.505-.242A5.44 5.44 0 0 0 3.504 8.1c.85-.009 1.406-.066 1.408-.066l.472-.048.098.95-.475.046a17.71 17.71 0 0 1-1.682.072 6.207 6.207 0 0 0-.036.585c0 2.077.612 4.105 1.973 5.6l.122.138.683 4.17 2.3-2.32.354.104c.942.276 2.027.436 3.281.436 1.252 0 2.336-.16 3.28-.436l.352-.105 2.297 2.322.684-4.169.124-.138c1.361-1.495 1.971-3.523 1.971-5.602 0-.2-.017-.394-.037-.586-.996-.002-1.669-.07-1.68-.07l-.476-.048.098-.95.473.05c.002 0 .558.055 1.408.064a5.56 5.56 0 0 0-.533-1.27c-.888.175-1.497.24-1.506.24l-.475.05-.098-.95zm4.08 1.904l.475-.045.085.948-.473.045c-.215.02-.415.028-.618.04.017.206.038.411.04.625 0 2.254-.646 4.535-2.17 6.296l-1.019 6.21-3.49-3.527c-.977.25-2.063.386-3.268.386-1.208 0-2.294-.137-3.27-.386l-3.495 3.525-1.017-6.21c-1.525-1.759-2.169-4.042-2.169-6.294 0-.214.021-.419.04-.624-.204-.013-.403-.022-.617-.04L1 8.93l.087-.95.475.044c.232.022.452.033.672.044.124-.54.31-1.05.55-1.526a20.336 20.336 0 0 1-.856-.242l-.455-.142.282-.91.456.142c.373.116.733.21 1.078.295 1.721-2.443 5.043-3.825 8.713-3.83 3.67.005 6.99 1.387 8.71 3.83.344-.084.704-.179 1.08-.295l.452-.142.282.908-.453.142c-.295.092-.579.17-.858.243.241.477.426.986.55 1.527.221-.01.443-.02.675-.043"/>
        <path fill="#ff8c00" d="M8.099 9.008a8.261 8.261 0 0 0-.784.639c-.533.473-.985 1.12-.96 1.484.013.563.346.796.705.81.218-.002.446-.092.654-.374l.386-.534.387.536c.205.28.436.37.654.372.356-.012.692-.247.704-.81.025-.364-.428-1.011-.96-1.484a8.502 8.502 0 0 0-.786-.64m2.698 2.124c-.002 1.043-.792 1.762-1.656 1.765a1.696 1.696 0 0 1-1.041-.367 1.681 1.681 0 0 1-1.04.364c-.866 0-1.656-.72-1.656-1.762C5.513 9.357 8.1 7.864 8.1 7.864s2.586 1.493 2.697 3.267M14.321 6.862a.923.923 0 0 0-.92-.923.924.924 0 0 0-.923.91v.348a.739.739 0 0 1 .276.57.754.754 0 0 1-1.508 0c0-.234.111-.434.278-.572v-.337a.923.923 0 0 0-1.844.004h-.953c0-1.034.84-1.876 1.876-1.876.556 0 1.055.242 1.398.628a1.875 1.875 0 0 1 3.272 1.248h-.95z"/>
    </g>
</svg>
