<svg xmlns="http://www.w3.org/2000/svg" width="32" height="32" viewBox="0 0 32 32">
    <defs>
        <clipPath id="a">
            <path d="M0 24h24V0H0z"/>
        </clipPath>
    </defs>
    <g clip-path="url(#a)" transform="matrix(1.33333 0 0 -1.33333 0 32)">
        <path fill="#ff8c00" d="M18.358 6.122c.002 0 .393-.04 1-.148-1.515-1.793-4.18-2.862-7.357-2.878-3.179.016-5.845 1.085-7.362 2.878.61.107 1.001.148 1.002.15l.473.05-.098.946-.473-.05v.003c-.012-.004-.619-.067-1.506-.244a5.49 5.49 0 0 0-.533 1.27c.85-.007 1.405-.066 1.405-.064l.476-.048.096.948-.473.047v.002c-.014 0-.688.07-1.683.072a5.85 5.85 0 0 0-.036.584c0 2.078.611 4.106 1.972 5.601l.122.136.683 4.172 2.298-2.32.356.102c.943.275 2.027.435 3.281.435 1.251 0 2.336-.16 3.28-.435l.353-.103 2.296 2.32.685-4.17.121-.135C20.1 13.746 20.71 11.72 20.71 9.64a5.926 5.926 0 0 0-.037-.586 18.081 18.081 0 0 1-1.68-.072l-.475-.046.096-.95.474.05c.003 0 .557.056 1.407.063a5.578 5.578 0 0 0-.533-1.27c-.888.175-1.495.24-1.505.242l-.475.05-.099-.948zm4.08 1.904l.475-.045.087.95-.473.043c-.215.02-.414.03-.618.041.017.206.038.411.04.625 0 2.254-.646 4.534-2.17 6.296l-1.018 6.207-3.494-3.525c-.975.251-2.06.387-3.266.387-1.207 0-2.293-.136-3.269-.387l-3.494 3.525-1.019-6.21c-1.525-1.759-2.17-4.04-2.17-6.293.001-.214.022-.419.04-.625-.204-.012-.403-.02-.617-.04L1 8.93l.086-.95.475.045c.232.021.451.032.672.043.123-.54.31-1.05.55-1.526a20.805 20.805 0 0 1-.857-.242l-.454-.142.283-.912.457.146c.372.115.731.21 1.075.293 1.722-2.44 5.044-3.825 8.714-3.83 3.67.005 6.99 1.387 8.71 3.83.343-.084.703-.18 1.076-.295l.456-.142.283.908-.454.142c-.294.092-.579.171-.858.244.242.476.427.986.55 1.528.221-.013.442-.022.674-.045"/>
        <path fill="#ff8c00" d="M15.905 10.677l-.893.657-.566-.767 1.46-1.076 1.453 1.078-.565.763zM8.098 10.677l-.89.657-.565-.767 1.455-1.074 1.458 1.073-.562.766zM12.477 7.196a.737.737 0 0 1 .277.57.755.755 0 0 1-1.509 0c0-.233.111-.434.278-.572v-.538l-1.275-.923.56-.772 1.191.863 1.193-.863.56.772-1.275.923zM15.904 5.243a.421.421 0 0 0-.42.421c0 .772.202 1.407.403 1.85l.017.034.016-.035a4.43 4.43 0 0 0 .406-1.849.425.425 0 0 0-.422-.42m0 3.982s-1.369-1.678-1.375-3.562a1.376 1.376 0 0 1 2.75 0c-.005 1.884-1.375 3.562-1.375 3.562"/>
    </g>
</svg>
