<svg xmlns="http://www.w3.org/2000/svg" width="32" height="32" viewBox="0 0 32 32">
    <defs>
        <clipPath id="a">
            <path d="M0 24h24V0H0z"/>
        </clipPath>
    </defs>
    <g clip-path="url(#a)" transform="matrix(1.33333 0 0 -1.33333 0 32)">
        <path fill="#ff8c00" d="M18.357 6.123v.002c.001 0 .393-.041 1.001-.148-1.515-1.795-4.18-2.864-7.358-2.879-3.178.015-5.844 1.084-7.359 2.877.608.107 1 .148 1 .15l.473.049-.097.947-.473-.049c-.01 0-.62-.066-1.507-.24-.228.398-.408.82-.533 1.27.85-.008 1.405-.065 1.407-.065l.474-.049.096.948-.474.048c-.01.002-.687.069-1.68.071-.02.193-.037.386-.037.586 0 2.078.61 4.107 1.971 5.601l.122.135.682 4.172 2.3-2.322.355.104c.944.276 2.027.436 3.28.436 1.253 0 2.336-.16 3.281-.436l.352-.102 2.3 2.32.678-4.17.125-.135c1.36-1.496 1.972-3.523 1.972-5.603 0-.2-.017-.393-.037-.586a17.53 17.53 0 0 1-1.68-.071l-.476-.047.097-.951.474.049c.002 0 .558.057 1.407.065a5.542 5.542 0 0 0-.532-1.268c-.888.174-1.496.24-1.508.24l-.474.049-.097-.949zm4.082 1.904l.472-.043.09.948-.475.043c-.215.019-.415.029-.619.041.017.207.038.41.04.625 0 2.253-.646 4.537-2.17 6.298l-1.018 6.202-3.49-3.521c-.975.249-2.06.385-3.269.385-1.207 0-2.293-.136-3.269-.386l-3.494 3.522-1.016-6.204c-1.525-1.761-2.17-4.044-2.17-6.296.001-.215.022-.418.04-.625-.204-.012-.405-.022-.617-.041L1 8.932l.088-.95.474.043c.232.024.452.036.672.045.123-.539.31-1.049.551-1.525a18.602 18.602 0 0 1-.857-.242l-.455-.141.282-.912.456.143c.374.115.734.21 1.078.296C5.01 3.246 8.331 1.863 12 1.859c3.67.004 6.99 1.387 8.71 3.83.344-.084.705-.179 1.08-.296l.451-.141.284.908-.455.143a19.9 19.9 0 0 1-.858.24c.242.478.428.986.551 1.527.221-.009.443-.021.676-.043"/>
        <path fill="#ff8c00" d="M6.7 10.516l2.191-1.27.48.829-2.195 1.265zM14.628 10.074l.477-.828 2.196 1.27-.48.824zM12.477 7.197a.743.743 0 0 1 .276.57.753.753 0 1 1-1.507 0c0-.232.112-.433.278-.57v-.539l-1.276-.924.559-.769L12 5.828l1.194-.863.558.77-1.275.923z"/>
    </g>
</svg>
