<svg xmlns="http://www.w3.org/2000/svg" width="32" height="32" viewBox="0 0 32 32">
    <defs>
        <clipPath id="a">
            <path d="M0 24h24V0H0z"/>
        </clipPath>
    </defs>
    <path fill="#ff8c00" d="M11.31 14.53h1.67v-3.293h-1.67zM19.019 14.532h1.67v-3.295h-1.67z"/>
    <g clip-path="url(#a)" transform="matrix(1.33333 0 0 -1.33333 0 32)">
        <path fill="#ff8c00" d="M15.383 11.97a1.714 1.714 0 0 1-.322.028c-1.227-.037-1.948-1.013-2.614-2.166a4.946 4.946 0 0 0-.445-.637 5.328 5.328 0 0 0-.447.636c-.67 1.156-1.39 2.13-2.615 2.168-.102 0-.216-.007-.338-.03a1.95 1.95 0 0 1-1.737-2.041c0-.277.048-.584.123-.91-.844 1.103-1.36 2.64-1.372 4.745.057 4.953 2.778 6.927 6.385 6.988 3.605-.061 6.327-2.035 6.384-6.988-.012-2.105-.53-3.642-1.373-4.744.074.325.123.63.123.907.049 1.274-.97 1.982-1.752 2.045M8.116 9.928c.049.67.206.665.704.81a.685.685 0 0 0 .12.01c.35.039.907-.417 1.527-1.535.168-.295.408-.613.676-.936a9.313 9.313 0 0 0-1.69-1.234c-.55.639-.935 1.248-1.075 1.65-.195.546-.264.954-.262 1.235m11.518 3.835c.005 2.735-.83 4.827-2.237 6.212C15.99 21.36 14.06 22.002 12 22c-2.06.002-3.991-.64-5.395-2.025-1.41-1.385-2.244-3.477-2.24-6.212-.014-2.777.878-4.881 2.312-6.263-.541-.68-1.332-2.035-1.33-4.195V2h1.25v1.305c0 1.36.363 2.303.712 2.91.122.212.235.367.339.498.149-.096.31-.172.467-.256-.19-.058-.38-.121-.57-.156l.242-1.226c2.726.565 4.9 2.689 5.745 4.139.622 1.118 1.177 1.572 1.528 1.535.04 0 .074-.005.107-.01.51-.147.666-.14.717-.813 0-.277-.07-.686-.262-1.232-.473-1.474-3.75-4.808-7.192-5.312l.202-1.235c1.204.21 2.342.657 3.373 1.232 1.027-.58 2.162-1.037 3.363-1.23l.202 1.233c-.805.13-1.597.405-2.35.769.598.427 1.14.888 1.617 1.36a7.091 7.091 0 0 1 1.376-.436l.242 1.226c-.192.037-.382.098-.571.156.156.084.318.162.469.259.402-.511 1.047-1.59 1.049-3.411V2h1.25v1.305c.003 2.162-.79 3.517-1.331 4.196 1.434 1.382 2.327 3.486 2.312 6.262"/>
    </g>
</svg>
