<svg xmlns="http://www.w3.org/2000/svg" width="32" height="32" viewBox="0 0 32 32">
    <defs>
        <clipPath id="a">
            <path d="M0 24h24V0H0z"/>
        </clipPath>
    </defs>
    <g clip-path="url(#a)" transform="matrix(1.33333 0 0 -1.33333 0 32)">
        <path fill="#b45000" d="M14.185 7.426a1.571 1.571 0 0 0-1.569 1.567h-1.235a1.572 1.572 0 0 0-1.57-1.567 1.572 1.572 0 0 0-1.568 1.567H7.008a2.803 2.803 0 0 1 4.99-1.754 2.804 2.804 0 0 1 4.991 1.754h-1.237a1.57 1.57 0 0 0-1.567-1.567"/>
        <path fill="#b45000" d="M16.866 14.36c.346 0 .687-.129.953-.393l4.192-4.195.875.874-3.327 3.407A7.56 7.56 0 0 1 12 21.614a7.563 7.563 0 0 1-7.565-7.56l-3.322-3.407.873-.873 4.193 4.193c.262.264.602.393.95.393a1.337 1.337 0 0 0 1.343-1.344 1.345 1.345 0 0 0-.394-.95L3.884 7.871 4.76 7v.002l4.193 4.192c.502.505.756 1.167.754 1.823a2.56 2.56 0 0 1-.754 1.823 2.572 2.572 0 0 1-1.824.757c-.465 0-.932-.134-1.345-.386.04.21.09.415.147.616a4.163 4.163 0 0 0 1.911 1.291c2.421.815 4.158-.922 4.158-.922s1.736 1.737 4.158.922a4.172 4.172 0 0 0 1.91-1.289 6.02 6.02 0 0 0 .147-.62 2.573 2.573 0 0 1-1.348.388 2.578 2.578 0 0 1-1.823-4.403L19.237 7l.874.872-4.194 4.195a1.339 1.339 0 0 0-.394.95c0 .347.13.687.392.948.265.266.607.395.951.395"/>
    </g>
</svg>
