<svg xmlns="http://www.w3.org/2000/svg" width="32" height="32" viewBox="0 0 32 32">
    <defs>
        <clipPath id="a">
            <path d="M0 24h24V0H0z"/>
        </clipPath>
    </defs>
    <g clip-path="url(#a)" transform="matrix(1.33333 0 0 -1.33333 0 32)">
        <path fill="#b45000" d="M9.031 12.886a.642.642 0 0 1-1.285 0 .644.644 0 1 1 1.285 0M16.254 12.886a.641.641 0 0 1-1.285 0c0-.355.287-.645.642-.645.356 0 .643.29.643.645"/>
        <path fill="#b45000" d="M19.541 14.604a7.562 7.562 0 0 1-15.084 0 2.763 2.763 0 0 1 .598-5.457v1.234a1.531 1.531 0 0 0-1.526 1.528 1.524 1.524 0 0 0 1.526 1.525h.617v.62a6.34 6.34 0 0 0 .26 1.772 4.154 4.154 0 0 0 1.91 1.291c2.422.814 4.158-.922 4.158-.922s1.736 1.736 4.158.922a4.153 4.153 0 0 0 1.91-1.29 6.347 6.347 0 0 0 .26-1.773v-.62h.615c.844 0 1.524-.68 1.526-1.524a1.531 1.531 0 0 0-1.526-1.529V9.147a2.763 2.763 0 0 1 .598 5.457"/>
        <path fill="#b45000" d="M12.982 11.585c-.328 0-.65-.084-.959-.209a2.584 2.584 0 0 1-1.008.211c-.66 0-1.324-.254-1.826-.76L4.394 6.033l.873-.875 4.797 4.798a1.34 1.34 0 0 0 1.9 0 1.341 1.341 0 0 0 0-1.899L7.168 3.26l.873-.873 3.96 3.957 3.956-3.959.873.875-3.96 3.961c.477.498.723 1.144.721 1.786.002.447-.125.894-.359 1.295.254-.049.502-.147.701-.346L18.73 5.16l.875.871-4.799 4.798a2.57 2.57 0 0 1-1.824.756"/>
    </g>
</svg>
