<svg xmlns="http://www.w3.org/2000/svg" width="32" height="32" viewBox="0 0 32 32">
    <defs>
        <clipPath id="a">
            <path d="M0 24h24V0H0z"/>
        </clipPath>
    </defs>
    <path fill="#ff8c00" d="M12.82 12.022L8.73 15.33l1.13 1.4 4.092-3.308zM18.05 13.422l4.091 3.308 1.134-1.399-4.092-3.31z"/>
    <g clip-path="url(#a)" transform="matrix(1.33333 0 0 -1.33333 0 32)">
        <path fill="#ff8c00" d="M12.001 10.403c-1.567 0-2.046-1.54-2.046-2.187 0-.647-.051-1.318-.051-1.318h4.192s-.049.671-.049 1.318-.479 2.187-2.046 2.187"/>
        <path fill="#ff8c00" d="M12.001 5.33c-4.165.064-7.321 2.348-7.381 8.022.06 5.677 3.216 7.962 7.381 8.026 4.163-.064 7.319-2.349 7.379-8.026-.06-5.674-3.216-7.958-7.379-8.023m8.53 5.7c.129.724.2 1.495.199 2.323.004 3.12-.952 5.5-2.561 7.074-1.608 1.574-3.812 2.302-6.168 2.3-2.358.002-4.563-.726-6.17-2.3-1.608-1.575-2.565-3.955-2.561-7.074-.001-.828.07-1.6.199-2.324C1.345 8.982 1.049 4.634 1 1.273h1.349c-.041 2.837.425 6.451 1.528 8.18.441-1.275 1.103-2.34 1.954-3.174 1.607-1.573 3.812-2.303 6.17-2.3h.01c2.354 0 4.553.73 6.158 2.3.852.832 1.514 1.898 1.954 3.173 1.103-1.727 1.57-5.34 1.526-8.179H23c-.048 3.362-.343 7.71-2.469 9.756"/>
    </g>
</svg>
