<svg xmlns="http://www.w3.org/2000/svg" width="32" height="32" viewBox="0 0 32 32">
    <defs>
        <clipPath id="a">
            <path d="M0 24h24V0H0z"/>
        </clipPath>
    </defs>
    <path fill="#ff8c00" d="M12.458 11.411l4.4 2.052.702-1.508-4.402-2.053zM20.293 14.309l-2.043 2.596 1.304 1.03 1.407-1.79 2.228.466.339-1.628h-.003z"/>
    <g clip-path="url(#a)" transform="matrix(1.33333 0 0 -1.33333 0 32)">
        <path fill="#ff8c00" d="M14.521 7.417a6.876 6.876 0 0 0-2.355-.415c-2.945 0-5.768 1.894-6.875 4.939a7.662 7.662 0 0 0-.464 2.62c0 2.989 1.77 5.741 4.627 6.776.778.282 1.57.418 2.355.418 2.06 0 4.045-.942 5.44-2.541l-.053.025-1.54-3.302 1.13-.528 1.262 2.712c.245-.41.466-.838.636-1.304a7.67 7.67 0 0 0 .462-2.62c-.002-2.985-1.773-5.739-4.624-6.78M19.059 9.6a8.624 8.624 0 0 1 1.334 4.597 8.888 8.888 0 0 1-.54 3.044C18.564 20.778 15.287 23 11.81 23a8.11 8.11 0 0 1-2.78-.491c-3.38-1.23-5.45-4.471-5.447-7.948 0-1.007.173-2.039.54-3.044a8.85 8.85 0 0 1 .933-1.815c-.536-.303-.947-.829-1.221-1.426-.443-.947-.661-2.159-.663-3.473 0-1.229.194-2.546.623-3.803l1.18.402a10.665 10.665 0 0 0-.557 3.401c-.002 1.171.208 2.234.543 2.941.278.571.574.849.866.942 1.623-1.838 3.926-2.928 6.34-2.928.925 0 1.865.156 2.782.49a8.118 8.118 0 0 1 3.386 2.371c.255-.144.524-.452.753-.975.308-.705.498-1.724.497-2.841 0-1.095-.178-2.289-.555-3.403l1.18-.398c.423 1.255.62 2.572.62 3.801-.034 2.052-.497 3.983-1.77 4.797"/>
    </g>
</svg>
