<svg xmlns="http://www.w3.org/2000/svg" width="32" height="32" viewBox="0 0 32 32">
    <defs>
        <clipPath id="a">
            <path d="M0 24h24V0H0z"/>
        </clipPath>
    </defs>
    <path fill="#ff8c00" d="M10.412 17.462l3.573-1.726v-1.132l-3.574-1.726-.544 1.132 2.398 1.159-2.4 1.163zM10.413 17.465v-.003l-.002.001zM22.14 16.333l-.002-.002-2.401-1.162 2.401-1.161-.544-1.13-3.577 1.723v1.136l3.574 1.727z"/>
    <g clip-path="url(#a)" transform="matrix(1.33333 0 0 -1.33333 0 32)">
        <path fill="#ff8c00" d="M20.774 3.283c-.79-.39-2.487-.513-3.727-.504-.817 0-1.418.035-1.612.038h-.183l-.155-.1c-.253-.17-.677-.28-1.109-.278-.379 0-.759.081-1.015.206-.225.11-.325.226-.359.301v7.088c0 .01.068.143.208.143.095 0 .35-.052.694-.57.406-.608.82-1.724 1.107-2.657.29-.938.46-1.697.462-1.697l.107-.473.482-.005c.004 0 .08-.002.216-.002.607 0 2.33.045 4.325.52l-.284 1.193h-.002a18.402 18.402 0 0 0-3.766-.483c-.042.163-.097.37-.16.592a6.846 6.846 0 0 1 2.771 2.688c1.2-.664 2.206-1.949 2.666-2.973.201-.437.333-.949.331-1.409-.019-.707-.233-1.236-.997-1.618m-9.747-.638c-.257-.125-.637-.206-1.015-.206-.43-.002-.856.11-1.11.28l-.152.098h-.182c-.2-.003-.8-.038-1.616-.038-1.239-.009-2.937.115-3.727.506-.763.38-.977.91-.997 1.616-.002.462.13.972.332 1.407.462 1.026 1.467 2.311 2.668 2.975a6.835 6.835 0 0 1 2.77-2.688c-.06-.22-.117-.426-.158-.588-.594.022-1.743.116-3.267.48L4.29 5.292c1.975-.47 3.378-.52 3.867-.52.11 0 .17.002.173.002l.48.008.107.47c.002 0 .175.76.464 1.697.283.933.7 2.05 1.103 2.656.345.52.596.571.696.573.136 0 .208-.138.208-.145h.001V2.947c-.034-.077-.134-.193-.36-.302m.974 18.915c3.784-.058 6.654-2.148 6.71-7.345-.017-3.345-1.243-5.35-3.072-6.423-.287.867-.659 1.806-1.097 2.488-.469.728-1.092 1.125-1.72 1.125a1.514 1.514 0 0 1-.823-.25 1.511 1.511 0 0 1-.82.25c-.63.002-1.255-.394-1.725-1.128-.436-.68-.807-1.619-1.095-2.485-1.829 1.075-3.054 3.08-3.072 6.423.055 5.197 2.927 7.287 6.714 7.345M22.557 6.822c-.583 1.251-1.709 2.733-3.265 3.567.42 1.095.656 2.37.648 3.826.003 2.851-.866 5.028-2.328 6.466-1.46 1.442-3.466 2.108-5.61 2.106-2.145.002-4.15-.664-5.613-2.106-1.463-1.438-2.33-3.615-2.327-6.466-.008-1.455.23-2.73.648-3.826-1.558-.834-2.683-2.316-3.266-3.567A4.615 4.615 0 0 1 1 4.902c-.02-1.029.486-2.169 1.7-2.726 1.2-.554 2.935-.616 4.252-.623.641 0 1.193.021 1.458.032.491-.264 1.052-.37 1.602-.373.7.017 1.456.164 1.988.597.532-.432 1.288-.58 1.988-.597.55.003 1.11.106 1.602.373a35.4 35.4 0 0 1 1.457-.032c1.316.007 3.052.07 4.255.623 1.213.561 1.718 1.7 1.697 2.725 0 .683-.179 1.344-.442 1.921"/>
    </g>
</svg>
