<svg xmlns="http://www.w3.org/2000/svg" width="32" height="32" viewBox="0 0 32 32">
    <defs>
        <clipPath id="a">
            <path d="M0 24h24V0H0z"/>
        </clipPath>
    </defs>
    <g fill="red" clip-path="url(#a)" transform="matrix(1.33333 0 0 -1.33333 0 32)">
        <path d="M20.788 2.752h-7.242v8.867h7.242zm-8.543 0h-1.744v8.489H4.952V2.752H3.208v9.363l4.519 6.859 4.522-6.859zm-3.044 0h-2.95v2.923a1.078 1.078 0 1 1 0 1.974v2.293h2.952zM7.147 20.704l-.932-1.472v3.317H3.132v-8.187l-1.225-1.936V1.451h20.182V12.92l-5.341 7.784z"/>
        <path d="M16.697 10.469H14.47V6.795h2.227zM19.866 10.469h-2.227V6.795h2.227z"/>
    </g>
</svg>
