<svg xmlns="http://www.w3.org/2000/svg" width="32" height="32" viewBox="0 0 32 32">
    <defs>
        <clipPath id="a">
            <path d="M0 24h24V0H0z"/>
        </clipPath>
    </defs>
    <path fill="#f0f" d="M10.825 27.029v-5.51h5.694v5.51H18.4v-12.9H16.52v5.508h-5.694v-5.51H8.941V27.03z"/>
    <g clip-path="url(#a)" transform="matrix(1.33333 0 0 -1.33333 0 32)">
        <path fill="#f0f" d="M15.965 11.736c0 .46 2.254 1.792 2.254 3.101 0 1.308-1.49 1.781-2.254.726-.766 1.055-2.254.582-2.254-.726 0-1.309 2.254-2.642 2.254-3.1"/>
        <path fill="#f0f" d="M19.389 2.224H4.613v15.167h14.776zM12 23l-8.611-4.285V1h17.222v17.717z"/>
    </g>
</svg>
