<svg xmlns="http://www.w3.org/2000/svg" width="32" height="32" viewBox="0 0 32 32">
    <defs>
        <clipPath id="a">
            <path d="M0 24h24V0H0z"/>
        </clipPath>
    </defs>
    <g clip-path="url(#a)" transform="matrix(1.33333 0 0 -1.33333 0 32)">
        <path fill="#00f" d="M19.135 3.603c-1.787-.65-4.33-1.07-7.136-1.068-2.806-.002-5.346.418-7.134 1.068-1.826.644-2.701 1.563-2.636 2.094v.756c.59-.454 1.35-.832 2.217-1.158 1.973-.714 4.624-1.141 7.553-1.143 2.93.002 5.583.429 7.556 1.144.866.326 1.627.704 2.218 1.158v-.756c.063-.532-.812-1.45-2.638-2.095m-14.27 7.034c1.675.61 4.014 1.011 6.61 1.058.088-.656.133-1.137.133-1.279h.787c0 .142.082.621.218 1.277 2.56-.055 4.867-.454 6.522-1.057 1.826-.643 2.7-1.56 2.638-2.094.063-.532-.812-1.452-2.638-2.093-1.787-.653-4.33-1.073-7.136-1.07-2.806-.003-5.346.417-7.134 1.07-1.826.641-2.701 1.561-2.636 2.093-.065.533.81 1.451 2.636 2.094m14.69 1.154c-1.772.643-4.095 1.047-6.671 1.126.61 2.588 1.683 6.288 2.579 6.79 1.337.746 1.573-1.575 2.793-1.575 1.219 0 1.023.826 2.164.826 1.14 0 1.967-2.045 1.967-1.46a5.194 5.194 0 1 1-10.386 0 5.193 5.193 0 1 1-10.386 0c0-.585.826 1.46 1.967 1.46 1.14 0 .945-.826 2.164-.826 1.219 0 1.389 2.187 2.793 1.574 1.442-.63 2.322-4.244 2.75-6.786-2.645-.064-5.031-.472-6.843-1.129C2.515 11.064 1.065 10.095 1 8.542V5.697c.065-1.554 1.515-2.522 3.446-3.248 1.973-.715 4.624-1.14 7.553-1.142 2.93.002 5.583.427 7.556 1.142 1.932.726 3.382 1.694 3.445 3.248v2.845c-.063 1.553-1.513 2.522-3.445 3.248"/>
        <path fill="#00f" d="M4.821 14.208a.915.915 0 1 1-1.83 0 .915.915 0 0 1 1.83 0M20.701 15.034a.915.915 0 1 1 .001-1.829.915.915 0 0 1 0 1.83M16.15 15.677a.613.613 0 1 1 1.227 0 .613.613 0 0 1-1.227 0M7.934 17.052a.613.613 0 1 1-1.227 0 .613.613 0 0 1 1.227 0M12 6.666c4.076 0 7.38.84 7.38 1.876 0 1.001-3.094 1.818-6.985 1.872l.747-2.678h-2.283l.747 2.678c-3.89-.053-6.984-.871-6.984-1.872 0-1.036 3.304-1.876 7.378-1.876"/>
    </g>
</svg>
