<svg xmlns="http://www.w3.org/2000/svg" width="32" height="32" viewBox="0 0 32 32">
    <defs>
        <clipPath id="a">
            <path d="M0 24h24V0H0z"/>
        </clipPath>
    </defs>
    <g clip-path="url(#a)" transform="matrix(1.33333 0 0 -1.33333 0 32)">
        <path fill="#ff8c00" d="M21.773 2.23H16.15v3.013l-3.677.706v7.801l3.413-1.9 5.887-3.279zM2.229 8.57l4.924 2.743v-5.54l3.136.762v6.524l1.24.69v-7.8l-3.674-.706V2.23H2.229zm5.865 3.268l.95.528.302.168V7.277l-1.252-.304zM4.68 15.671c.204.96.26 2.133.277 2.824l1.145-.246c-.013-.624-.06-1.902-.262-2.828a12.756 12.756 0 0 0-.67-2.11l-1.146.246c.195.49.473 1.264.655 2.114m1.053 6.243a1.172 1.172 0 0 0 1.17-1.17 1.175 1.175 0 0 0-1.17-1.17 1.172 1.172 0 0 0-1.169 1.17 1.172 1.172 0 0 0 1.17 1.17m10.326-8.756v3.14L12 18.8l-4.056-2.502v-3.14l-3.544-1.974c.22.511.374.933.472 1.225l.846-.183.161.341c.007.017.578 1.231.886 2.657.273 1.287.282 2.963.284 3.336v.05l.016.398-.105.023a2.1 2.1 0 0 1 .887 1.712 2.113 2.113 0 1 1-4.227 0c0-.467.158-.896.415-1.247l-.014-.403c0-.006-.002-.035 0-.09 0-.354-.018-2.006-.263-3.133-.279-1.3-.822-2.452-.82-2.455l-.252-.535.58-.128.676-.145a14.881 14.881 0 0 0-.98-2.224l-1.96-1.09V1h22v8.293z"/>
        <path fill="#ff8c00" d="M18.796 9.245l-.918.51V8.77l.918-.433zM14.611 10.337l1.191-.645v1.163l-1.19.77zM18.796 6.682l-.918.29v-.981l.918-.216zM14.611 6.69l1.191-.278v1.162l-1.19.407zM20.889 8.085l-.607.337v-.794l.607-.286zM20.889 5.98l-.607.195V5.38l.607-.142zM17.879 3.21h.917v.908l-.917.076zM20.89 3.877l-.608.051v-.794h.608zM5.208 8.337l.917.434v.983l-.917-.51zM5.208 5.774l.917.216v.982l-.917-.29zM3.114 7.342l.608.286v.794l-.608-.337zM3.114 5.237l.608.143v.795l-.608-.195zM5.208 3.21h.916v.984l-.916-.076zM3.114 3.134h.608v.794l-.608-.051z"/>
    </g>
</svg>
