<svg xmlns="http://www.w3.org/2000/svg" width="32" height="32" viewBox="0 0 32 32">
    <defs>
        <clipPath id="a">
            <path d="M0 24h24V0H0z"/>
        </clipPath>
    </defs>
    <g clip-path="url(#a)" transform="matrix(1.33333 0 0 -1.33333 0 32)">
        <path fill="#00f" d="M5.382 10.858v1.037a.732.732 0 1 0 1.463 0v-1.037zm5.887 1.957v1.037c0 .403.328.732.73.732a.734.734 0 0 0 .733-.732v-1.037zm5.886-1.957v1.037a.732.732 0 0 0 1.463 0v-1.037zM21.97 1l-1.803 7.133v5.095h.445l-2.236 3.467v2.286c.539.034.96-.318.96-.318 1.55-.813 2.41 1.441 2.41 1.441-1.634-1.065-2.28.187-2.28.187-.938 1.24-2.043.575-2.063.563H17.4v-4.159l-2.238-3.467h.445V8.133H14.28v7.051h.446l-2.24 3.47v2.284c.54.034.962-.318.962-.318 1.55-.813 2.41 1.44 2.41 1.44-1.634-1.064-2.281.188-2.281.188-.937 1.24-2.041.575-2.06.563h-.006v-4.16l-2.236-3.467h.445v-7.05H8.394v5.094h.445l-2.237 3.466v2.287c.539.034.96-.318.96-.318 1.549-.813 2.41 1.441 2.41 1.441-1.635-1.065-2.281.187-2.281.187-.94 1.24-2.042.575-2.062.563h-.004V16.696l-2.237-3.468h.445V8.133L2.03 1h8.01v2.776a1.96 1.96 0 1 0 3.92 0V1z"/>
    </g>
</svg>
