<svg xmlns="http://www.w3.org/2000/svg" width="32" height="32" viewBox="0 0 32 32">
    <defs>
        <clipPath id="a">
            <path d="M0 24h24V0H0z"/>
        </clipPath>
    </defs>
    <g clip-path="url(#a)" transform="matrix(1.33333 0 0 -1.33333 0 32)">
        <path fill="#00f" d="M10.935 19.055A1.068 1.068 0 0 0 12 20.12a1.068 1.068 0 0 0 1.065-1.065A1.068 1.068 0 0 0 12 17.99a1.068 1.068 0 0 0-1.065 1.065m10.37-11.64l-1.182 4.051-2.496-3.405.982-.173c-.591-1.084-2.213-2.123-3.745-2.8a21.86 21.86 0 0 0-2.214-.846v10.323h3.483v1.302H12.65v.925A2.358 2.358 0 0 1 12 21.42a2.363 2.363 0 0 1-2.364-2.365c0-1.079.726-1.979 1.714-2.263v-.925H7.866v-1.302h3.484V4.24c-.565.183-1.363.465-2.215.848-1.525.675-3.14 1.707-3.744 2.8l.98.173-2.495 3.405-1.182-4.052 1.36.24c.037-.09.06-.14.063-.147 1.713-3.339 7.672-4.702 7.72-4.769l.162-.043.165.043c.047.067 6.005 1.43 7.71 4.752.006.011.03.067.07.164z"/>
    </g>
</svg>
