<svg xmlns="http://www.w3.org/2000/svg" width="32" height="32" viewBox="0 0 32 32">
    <defs>
        <clipPath id="a">
            <path d="M0 24h24V0H0z"/>
        </clipPath>
    </defs>
    <g clip-path="url(#a)" transform="matrix(1.33333 0 0 -1.33333 0 32)">
        <path fill="#00f" d="M9.82 16.64H14.18c.178-.925.642-2.968 1.598-5.298a1.863 1.863 0 0 0-.998-.272c-1.752 0-1.727 1.873-2.78 1.873-1.054 0-1.029-1.873-2.78-1.873a1.87 1.87 0 0 0-1 .272 28.934 28.934 0 0 1 1.598 5.297M22.736 3.783c-.002 0-.623.428-1.543 1.365a19.488 19.488 0 0 0-3.17 4.315c-1.06 1.95-1.747 3.93-2.16 5.42-.416 1.485-.56 2.46-.562 2.462l-.08.523H8.776l-.078-.523c0-.005-.146-.977-.56-2.463-.415-1.49-1.1-3.47-2.162-5.419a19.456 19.456 0 0 0-3.17-4.315c-.92-.937-1.545-1.36-1.543-1.365L1 3.6V1H23.001v2.601z"/>
    </g>
</svg>
