<svg xmlns="http://www.w3.org/2000/svg" width="32" height="32" viewBox="0 0 32 32">
    <defs>
        <clipPath id="a">
            <path d="M0 24h24V0H0z"/>
        </clipPath>
    </defs>
    <g clip-path="url(#a)" transform="matrix(1.33333 0 0 -1.33333 0 32)">
        <path fill="red" d="M15.573 10.82l-.29-1.84H8.716l-.292 1.84zM12 17.291c.184-1.348.413-2.797.68-4.185h-1.36c.267 1.388.495 2.837.68 4.185m6.965-15.259c-.002.002-.558.667-1.317 1.83a27.072 27.072 0 0 0-2.076 3.857h.785l.086.531.607 3.827h-2.872C13.15 16.71 12.632 22.99 12.628 23h-1.257c0-.013-.522-6.292-1.55-10.922H6.948L7.64 7.72h.787A26.758 26.758 0 0 0 6.35 3.863C5.594 2.7 5.034 2.037 5.036 2.033L4.17 1h4.533l.173.35c.575 1.16 1.751 1.957 3.125 1.957 1.373 0 2.547-.797 3.124-1.957l.171-.35h4.534z"/>
    </g>
</svg>
