<svg xmlns="http://www.w3.org/2000/svg" width="32" height="32" viewBox="0 0 32 32">
    <defs>
        <clipPath id="a">
            <path d="M0 24h24V0H0z"/>
        </clipPath>
    </defs>
    <g clip-path="url(#a)" transform="matrix(1.33333 0 0 -1.33333 0 32)">
        <path fill="#00f" d="M10.86 11.313a2.768 2.768 0 0 1-.053-.42l-2.004-.27-.87 2.95zM9.334 8.829l-.244.823-.11.378 1.694-.227-.123-.986.461-.33-.217-.703zm7.141 2.065a3.228 3.228 0 0 1-.052.42l3.241 2.501-3.676-1.508a2.938 2.938 0 0 1-.36.426l1.491 3.63-2.357-3.051a2.777 2.777 0 0 1-.61.179l-.512 3.803-.509-3.803a2.808 2.808 0 0 1-.61-.179l-2.357 3.051 1.492-3.63a2.936 2.936 0 0 1-.362-.425l-3.4 1.394-1.28 4.335c.535.244.887.653.887 1.12a.93.93 0 0 1-.102.4.932.932 0 0 1 .102.402c0 .477-.37.895-.93 1.138.213.781-.37 1.48-1.383 1.904.246-.823-1.344-.852-.97-1.962-.493-.249-.815-.638-.815-1.08 0-.14.041-.273.102-.401a.93.93 0 0 1-.102-.401c0-.618.623-1.132 1.471-1.3l.706-7.883-1.269-2.362 1.42-4.803V1h14.853c0 .953-.424 1.8-1.083 2.39l.016.002-2.419 2.416-.83 2.678.463.33-.124.986 3.99.535z"/>
    </g>
</svg>
