<svg xmlns="http://www.w3.org/2000/svg" width="32" height="32" viewBox="0 0 32 32">
    <defs>
        <clipPath id="a">
            <path d="M0 24h24V0H0z"/>
        </clipPath>
    </defs>
    <g clip-path="url(#a)" transform="matrix(1.33333 0 0 -1.33333 0 32)">
        <path fill="#00be3c" d="M21.306 20.186a.3.3 0 0 0 .08.189c.392.522.064.082.442.589.122.134.242.35.515.374a.306.306 0 0 0 .11-.022c.092-.037.314-.044.358-.042.11 0 .2-.093.203-.206-.024-.194-.16-.25-.372-.324-.268-.088-.366-.252-.5-.413a1.938 1.938 0 0 0-.336-.334c-.091-.063-.132-.05-.193-.057-.078.005-.275.01-.307.245M1.194 1.23a.204.204 0 0 0-.098.123c-.027.12 0 .197.028.336.098.428.528.615.752.732a.16.16 0 0 0 .176-.014.163.163 0 0 0 .057-.169c-.004-.013-.183-.515-.483-.82-.113-.1-.169-.16-.278-.201a.216.216 0 0 0-.154.014M1.086 7.518a.107.107 0 0 0-.085.07c-.02.082.005.15.036.26.106.35.504.596.711.739.055.036.115.049.162.033.043-.021.063-.064.045-.116-.004-.01-.183-.435-.47-.738-.106-.103-.159-.163-.259-.221a.242.242 0 0 0-.14-.027M20.922 20.826s-1.016-.795-1.235-.537c-.218.256-1.156 1.152-1.296 1.865-.124.631-.838.881-.932.348-.086-.533-.478-2.618-.684-2.649-.21-.033-.768.363-.877.02-.11-.34-.011-.602-.296-.754-.284-.152-.415-.62-.33-.736.086-.12-.018-.607-.084-.87-.07-.266-.09-.122.173-.38.196-.188.368-.297.487-.102.04.074.004.276.103.36.234.203.358.035.516-.01.152-.045-.104.254-.305.49-.201.24-.467.636.166.211.084.414.405.437.56.441.163.004.389-.11.508-.23.116-.124.72-.554.914-.695.196-.142.3-.23.579.241.273.472.53.894 1.11.992.583.098.839.107 1.013.286.174.176.232.346-.047.435-.277.084-.352.582-.106.881.249.3.16.465.063.393M7.244 6.572c-.072-.088-.248-.387-.548-.396-.3-.004-.386-.055-.475.01-.094.068-.257-.075-.375-.174-.113-.097-.16-.317-.406-.348-.245-.026-.623-.115-.449-.28.17-.17.178-.194.21-.429.028-.234.122-.76.49-.41.366.353.442.543.748.602.305.068.444.073.62-.05.173-.12.201-.096.392.071.192.16.5.315.561.478.063.158.142.31-.054.52-.197.211-.533.633-.714.406M2.89 6.61c-.18-.098-.795-.456-.926-.536-.134-.087-.37-.128-.081-.53.288-.404.257-.43.392-.317.136.12.333.027.344-.062.014-.09.079-.37-.062-.565-.142-.19-.281-.369-.32-.612-.038-.235-.001-.503.122-.649.126-.147.147-.128.278-.014.128.105-.005-.494.289-.455.294.028.405.218.567.547.162.322.25.75.54 1.077.288.326.4.504.405.7.006.194-.085.571-.356.761a5.29 5.29 0 0 0-.74.601c-.134.135-.272.151-.452.054"/>
        <path fill="#00be3c" d="M13.026 11.027c-.098-.13-.76-.536-.866-.6-.079-.054-.478-.425-.68-.517-.116-.052-.115.123-.09.162.456.8-.046.668-.307.34-.262-.322-.695-1.106-.892-1.275-.194-.167-.422-.473-.469-.5-.414-.005-1.342.07-1.865.112-.52.042-.834.024-1.588-.32-.756-.349-1.703-.564-1.913-.729-.209-.169-.394-.398-.507-.53-.113-.125-.24-.188.031-.293.271-.102.695-.27.865-.34.167-.074.036-.07.34.077.31.143 1.124.424 1.801.446.68.027.68.034.885.092.21.055.7.096.776-.357.071-.446-.05-.688.24-1.04.29-.35.397-.412.696-.208.3.2.523.284.626.554.102.268.177.48.22.635.038.154.342.461.545.336.212-.127.604-.297.817-.374a.566.566 0 0 1 .6.138c.166.16.353.434.417.345.067-.082.367-.556.641-.129.274.434.475.778.654.892.176.104.467.07.348-.097-.124-.162-.275-.445-.065-.463.206-.015.261-.076.563.198.31.274.49.45.336.615-.152.162-.258.68-.087.994.171.316.597 1.498.62 1.9.026.395.12.89.33 1.157.21.262.836 1.14.848 1.787.006.645.096.872-.13 1.236-.223.366-.319.446-.32.703a3.012 3.012 0 0 1-.044.547c-.023.135-.308.303-.32.137 0 0-.055-.664-.06-.744-.007-.076-.083-.07-.274.102-.194.173-.49.421-.58.095-.092-.326-.503-1.705-.534-2.289-.027-.586-.207-1.253-.408-1.522a5.535 5.535 0 0 0-.447-.559z"/>
        <path fill="#00be3c" d="M13.248 11.871c-.006.141.033.798-.27.688-.297-.106-.483-.825-.33-1.022 0 0 .183-.357.6.334"/>
    </g>
</svg>
