<svg xmlns="http://www.w3.org/2000/svg" width="32" height="32" viewBox="0 0 32 32">
    <defs>
        <clipPath id="a">
            <path d="M0 24h24V0H0z"/>
        </clipPath>
    </defs>
    <g clip-path="url(#a)" transform="matrix(1.33333 0 0 -1.33333 0 32)">
        <path fill="#00f" d="M8.58 5.797c-.227-.223-.532-.342-.91-.344-.504-.002-1.104.236-1.58.713-.483.48-.718 1.079-.715 1.578.002.38.121.688.347.912.228.23.536.35.914.35h.006c.498 0 1.093-.232 1.572-.714h.003c.478-.48.712-1.078.71-1.58-.002-.375-.12-.684-.348-.915m.496 3.355c-.697.696-1.578 1.07-2.439 1.07-.646.003-1.294-.222-1.775-.703-.48-.478-.706-1.128-.704-1.775.004-.862.38-1.743 1.071-2.437.694-.692 1.576-1.07 2.441-1.071h.01c.64 0 1.285.224 1.762.704.48.482.704 1.128.702 1.773 0 .86-.374 1.744-1.067 2.438z"/>
        <path fill="#00f" d="M18.895 12.15l-1.868-1.867-1.642.601 1.932 1.931c.48.48.705 1.13.703 1.775-.002.864-.38 1.746-1.07 2.44-.692.69-1.575 1.066-2.437 1.068-.646.002-1.298-.22-1.776-.708l-1.892-1.89-.562 1.528 2.978 2.978 4.938-1.806 1.809-4.94zm-6.04.707l-2.147.785 2.891 2.891c.225.228.531.346.913.348.5.002 1.1-.23 1.576-.713.48-.476.716-1.079.714-1.578-.002-.38-.12-.686-.347-.914l-2.854-2.855zm-1.835-8.58l-1.868-1.87-4.935 1.81-1.809 4.936 2.977 2.978 4.94-1.808 1.806-4.936zm9.706 16.455L14.533 23l-5.659-5.662 1.021-2.787-.447-.447-2.79 1.021-5.659-5.66L3.27 3.27 9.462 1l5.662 5.66-1.063 2.901.376.375 2.898-1.063L23 14.534z"/>
    </g>
</svg>
