<svg xmlns="http://www.w3.org/2000/svg" width="32" height="32" viewBox="0 0 32 32">
    <defs>
        <clipPath id="a">
            <path d="M0 24h24V0H0z"/>
        </clipPath>
    </defs>
    <g clip-path="url(#a)" transform="matrix(1.33333 0 0 -1.33333 0 32)">
        <path fill="#b45000" d="M4.248 17.765c1.12-.122 2.374-.598 3.361-1.087.385-.19.71-.375.992-.545-.41-.23-.823-.399-1.334-.368-.243 0-.52.031-.836.116a9.044 9.044 0 0 0-2.983 1.422 8.086 8.086 0 0 0-.513.408c.162.045.388.081.73.088.17 0 .364-.01.583-.034m7.254-1.938c.221-.043.504-.198.816-.42l-1.483-1.677 1.01-.894 1.496 1.69c.262-.258.52-.532.764-.813l.095-.11-1.316-1.593 1.038-.86 1.167 1.413.236-.279c.378-.423.584-.71.964-.946.63-.34 4.45-2.156 5.026-2.43.246-.198.313-.35.33-.468a.896.896 0 0 0-.048-.257c-.163-.32-.736-.826-1.926-1.044-.408-.076-1-.114-1.66-.114-1.335 0-2.952.142-4.235.287-1.276.142-2.223.286-2.24.286-.087-.037-1.37.79-2.321 1.578-1.001.79-1.885 1.561-1.887 1.561-.403.29-.845.56-1.293.81l-.622.33c-.465.237-.92.447-1.334.627l-1.508.711c-.13.434-.202 1.076-.197 1.728 0 .5.032.998.07 1.427a10.41 10.41 0 0 1 3.642-1.792 4.64 4.64 0 0 1 1.182-.162c2.192.085 3.142 1.588 3.932 1.45.09 0 .192-.014.303-.039m11.486-7.356c0 .613-.377 1.163-.91 1.551 0 0-4.548 2.176-5.14 2.497-.196.142-1.033 1.198-1.92 2.192-.944 1.026-1.976 2.1-3.196 2.424-.211.052-.42.077-.623.077a3.7 3.7 0 0 1-1.28-.332c-.392.29-.948.614-1.712 1.007-1.08.532-2.44 1.063-3.81 1.216a6.123 6.123 0 0 1-.733.043c-.781.025-1.326-.173-1.703-.419 0 0-.526-.378-.69-.88-.125-.387-.245-1.423-.245-2.904.004-.626.046-1.259.186-1.845v-3.23l4.822-2.105V9.43c.158-.099.312-.2.455-.304-.02.013.87-.764 1.89-1.569 1.083-.823 2.075-1.645 2.94-1.849.032-.005 3.856-.59 6.692-.592.71 0 1.556.054 1.96.148.404.094 2.244.642 2.866 2.432.088.215.15.433.15.776"/>
    </g>
</svg>
