<svg xmlns="http://www.w3.org/2000/svg" width="32" height="32" viewBox="0 0 32 32">
    <defs>
        <clipPath id="a">
            <path d="M0 24h24V0H0z"/>
        </clipPath>
    </defs>
    <g clip-path="url(#a)" transform="matrix(1.33333 0 0 -1.33333 0 32)">
        <path fill="#595959" d="M17.613 7.474c-.108-.395-1.118-2.07-2.228-1.971-.189 0-.4.033-.639.119-1.572.565-2.622 2.069-2.61 3.46.001.33.054.65.167.958.352.852.663.89 1.153.935.28 0 .598-.076.86-.173l2.424-.881c.705-.301 1.106-.426 1.131-1.24 0-.282-.068-.68-.258-1.207m-9.159 4.043C8.01 10.276 6.658 9.454 5.15 9.454A4.113 4.113 0 0 0 3.74 9.7c-.979.37-1.172 1.108-1.2 1.988-.006.57.138 1.127.194 1.269v.002c.574 1.442.983 1.475 1.388 1.512.245.002.55-.084.856-.198l2.423-.882c.623-.236 1.201-.62 1.178-1.247 0-.162-.03-.367-.125-.627M23 10.975l-.002 3.048a.751.751 0 0 1-1.331.474l-3.149-3.87c-.426.378-.92.598-1.264.703l-2.426.88c-.37.137-.842.263-1.372.264-.51.024-1.096-.153-1.596-.54l-1.84.719c-.264 1.292-1.416 1.907-2.107 2.149l-2.423.882c-.215.076-.474.16-.762.218L5.6 17.05v-.538h1.498v2.766a.751.751 0 0 1-.509.71.753.753 0 0 1-.837-.258L2.19 15.04c-.345-.392-.644-.912-.863-1.567a5.641 5.641 0 0 1-.289-1.785c-.028-1.131.443-2.773 2.19-3.398a5.677 5.677 0 0 1 1.922-.337h.005c2.026 0 3.987 1.105 4.71 3.05.01.032.014.06.024.09l1.06-.414c-.016-.042-.037-.078-.052-.122a4.143 4.143 0 0 1-.259-1.474c.01-2.111 1.458-4.084 3.596-4.872a3.405 3.405 0 0 1 1.137-.208h.015c2.372.097 3.372 2.33 3.636 2.953l.002.004c.234.648.346 1.21.346 1.722.003.198-.018.38-.05.552l2.181 2.68v-.94z"/>
    </g>
</svg>
