<svg xmlns="http://www.w3.org/2000/svg" width="32" height="32" viewBox="0 0 32 32">
    <defs>
        <clipPath id="a">
            <path d="M0 24h24V0H0z"/>
        </clipPath>
    </defs>
    <g clip-path="url(#a)" transform="matrix(1.33333 0 0 -1.33333 0 32)">
        <path fill="#00f" d="M21.773 16.362h-3.946v-2.655H6.168v2.655H2.226v4.556H7.85A4.745 4.745 0 0 1 12 18.47c1.788 0 3.336.992 4.147 2.447h5.625zM6.17 10.225h11.655V3.082H6.17zm9.205 11.92l-.164-.361a3.523 3.523 0 0 0-3.212-2.086 3.524 3.524 0 0 0-3.212 2.086l-.164.362H1.002v-7.012h3.942V1.854h14.11v13.28H23v7.012z"/>
    </g>
</svg>
