<svg xmlns="http://www.w3.org/2000/svg" width="32" height="32" viewBox="0 0 32 32">
    <defs>
        <clipPath id="a">
            <path d="M0 24h24V0H0z"/>
        </clipPath>
    </defs>
    <g clip-path="url(#a)" transform="matrix(1.33333 0 0 -1.33333 0 32)">
        <path fill="#003c96" d="M17.113 2.858l-1.906 1.646 3.097 3.097 1.866-1.683zM3.273 4.741h4.792V2.227H3.273zm9.004 16.73h1.227v-2.356h2.664v-1.227h-3.89zm-1.69-.842a.843.843 0 1 0-1.687 0 .843.843 0 0 0 1.686 0m-7.268-1.514h2.663v2.356H7.21v-3.584H3.318zm14.12-9.08l.001 9.642L15.683 23H3.8l-1.753-3.323V1h7.245v12.935h.903V7.211l6.981-6.028 4.777 4.78z"/>
    </g>
</svg>
