<svg xmlns="http://www.w3.org/2000/svg" width="32" height="32" viewBox="0 0 32 32">
    <defs>
        <clipPath id="a">
            <path d="M0 24h24V0H0z"/>
        </clipPath>
    </defs>
    <path fill="#ff8c00" d="M21.328 17.33L16 9.304l-5.327 8.028-7.009-8.028 2.648 19.464h19.383l2.644-19.464z"/>
    <g clip-path="url(#a)" transform="matrix(1.33333 0 0 -1.33333 0 32)">
        <path fill="#ff8c00" d="M3.93 19.26A1.464 1.464 0 1 0 1 19.262a1.464 1.464 0 0 0 2.928-.002M20.07 19.26a1.465 1.465 0 1 1 2.93.004 1.465 1.465 0 0 1-2.93-.004M13.465 20.111a1.464 1.464 0 1 0-2.929-.001 1.464 1.464 0 0 0 2.929.001"/>
    </g>
</svg>
