<svg xmlns="http://www.w3.org/2000/svg" width="32" height="32" viewBox="0 0 32 32">
    <defs>
        <clipPath id="a">
            <path d="M0 24h24V0H0z"/>
        </clipPath>
    </defs>
    <g clip-path="url(#a)" transform="matrix(1.33333 0 0 -1.33333 0 32)">
        <path fill="#ff8c00" d="M18.398 4.274a10.855 10.855 0 0 0-1.939 2.733c1.008-1.128 2.03-1.837 2.925-2.289a4.213 4.213 0 0 0-.986-.444M6.27 8.628c-2.565 2.556-4.016 6.068-4.007 8.71.034 2.128.812 3.51 2.564 3.897.32.07.618.101.904.101 1.76.018 3.068-1.272 4.296-3.105a6.185 6.185 0 0 1-1.504-1.109L7.187 15.79l.071-.334c.018-.07.585-2.756 3.093-5.269 2.1-2.096 4.316-2.833 5.026-3.028.154-1.293.493-2.34.887-3.169-2.899.015-6.785 1.428-9.994 4.64m10.121 7.6a4.92 4.92 0 0 0 .051-6.916c-.92.32-2.625 1.078-4.255 2.71-1.63 1.63-2.389 3.335-2.71 4.255a4.9 4.9 0 0 0 3.427 1.397 4.907 4.907 0 0 0 3.487-1.446m4.036-9.822a10.742 10.742 0 0 0-3.624 1.472l.483.482c.231.231.434.48.621.738 1.421-1.028 2.441-1.989 2.52-2.692m1.696-2.468L23 6.235a9.318 9.318 0 0 0-1.294-.002l.001.012c-.08 1.712-1.58 2.778-3.166 3.941a6.19 6.19 0 0 1-7.317 8.517c-1.32 2.03-2.94 3.88-5.493 3.895-.375 0-.767-.04-1.17-.129-2.449-.505-3.595-2.706-3.56-5.132.01-3.075 1.586-6.8 4.376-9.599C8.85 4.27 13.04 2.726 16.335 2.722c.222 0 .44.013.654.027.662-.93 1.265-1.348 1.265-1.348l2.036 1.375a9.064 9.064 0 0 0-.82.56c.48.22.903.5 1.26.847.842-.246 1.393-.244 1.393-.244"/>
    </g>
</svg>
