<svg xmlns="http://www.w3.org/2000/svg" width="32" height="32" viewBox="0 0 32 32">
    <defs>
        <clipPath id="a">
            <path d="M0 24h24V0H0z"/>
        </clipPath>
    </defs>
    <g clip-path="url(#a)" transform="matrix(1.33333 0 0 -1.33333 0 32)">
        <path fill="red" d="M15.118 5.298c-.354-.801-1.286-2.141-1.845-2.272-2.094-.645-5.304-.735-7.535-.731-.609 0-1.149.004-1.58.004-.95-.006-1.487.134-1.687.256-.18.13-.146.097-.17.296-.023.465.436 1.029 1.2 1.538.747.506 1.648.903 2.233 1.257.47.286.95.62 1.436.978.097-.04.194-.07.28-.091.384-.093.917-.141 1.79-.143l.296-.002c2.114 0 4.232.29 5.416 2.559 1.074 2.056 4.68 8.283 5.216 11.562.022.173.03.324.03.466l-.007.086c.215-.246.436-.536.618-.883.538-.897.911-2.054.888-2.31.005-.671-.206-1.776-.609-3.06-.375-.455-2.33-2.828-3.299-4.156h-.003l-.22-.311c-1.34-1.89-2.086-4.316-2.448-5.043m3.78 15.677c0-.093-.006-.188-.018-.282-.116-.788-.499-1.878-1.005-3.075a2.122 2.122 0 0 1-.219-.243c-.53-.687-3.719-5.594-4.094-6.125-.27-.384-1.79-2.39-2.615-3.477a17.285 17.285 0 0 0-2.38-.07l.11.09.398.32c.363.317.854.967 1.421 1.802.641.942 1.38 2.12 2.163 3.355 1.434 2.296 2.901 4.695 3.425 5.359l.02.024c.157.2.34.412.533.624a18.97 18.97 0 0 0 .858.879 15.867 15.867 0 0 0 1.365 1.172c.023-.096.04-.217.038-.353m4.1-3.106c-.023.79-.455 1.877-1.065 2.96-.644 1.029-1.332 2.087-2.566 2.176-.478-.041-.646-.214-.995-.424-.02-.013-.042-.032-.063-.045l-.002-.002-.044-.033a7.59 7.59 0 0 1-.3-.221c-.066-.05-.135-.105-.202-.16-.065-.051-.128-.1-.195-.155-.08-.067-.164-.14-.247-.211-.06-.053-.12-.102-.182-.157-.074-.065-.148-.134-.222-.202l-.22-.201-.166-.161c-.092-.09-.184-.177-.275-.27-.036-.035-.07-.072-.106-.108-.108-.11-.216-.22-.32-.332a8.347 8.347 0 0 1-.09-.102 12.31 12.31 0 0 1-.68-.792c-.638-.821-2.056-3.162-3.503-5.47-.959-1.55-1.972-3.103-2.639-4.026-.309-.427-.55-.732-.666-.815l-.115-.094c-.11-.09-.22-.176-.329-.265-.223-.18-.45-.358-.618-.49-.745-.582-1.465-1.11-2.132-1.513-.444-.276-1.416-.706-2.284-1.291C1.922 4.88 1.022 4.084 1 2.85a1.585 1.585 0 0 1 .832-1.427c.554-.307 1.27-.42 2.326-.426.424 0 .965-.004 1.581-.004 2.275.004 5.531.068 7.935.797 1.361.525 2.14 2.035 2.614 2.94.376.788.94 2.532 1.831 4.066l.63-3.363 1.52-.45.266.237.638.567-.02.318-.002.01c-.004.036-.025.41-.025 1.045 0 .559.02 1.303.087 2.13.088 1.073.26 2.287.576 3.444.061.227.125.454.2.675.11.3.198.593.287.868.453 1.413.717 2.66.723 3.59"/>
    </g>
</svg>
