<svg xmlns="http://www.w3.org/2000/svg" width="32" height="32" viewBox="0 0 32 32">
    <defs>
        <clipPath id="a">
            <path d="M0 24h24V0H0z"/>
        </clipPath>
    </defs>
    <g clip-path="url(#a)" transform="matrix(1.33333 0 0 -1.33333 0 32)">
        <path fill="#f0f" d="M4.142 8.237l-.66.273c-.033 1.13-.138 4.211-.366 5.62-.102.62-.246 1.627-.387 2.633l.189-.222c.787-.882 1.63-1.735 2.02-2.23L4.57 8.348zM3.83 21.7h.02c.916-.006 2.25-.484 3.428-2.378 1.837-2.978 2.866-6.555 3.549-7.646.194-.295.456-.668.75-1.053-.036-.017-.068-.04-.103-.057a6.075 6.075 0 0 1-.524-.288c-.088-.054-.176-.106-.261-.165a4.968 4.968 0 0 1-.622-.502l-.008-.006c-.015-.015-.026-.03-.042-.047a7.157 7.157 0 0 1-.405-.448c-.046-.055-.084-.107-.127-.16a9.773 9.773 0 0 1-.248-.328c-.012-.018-.027-.035-.04-.052-.035.231-.084.45-.127.673-.037.19-.068.386-.11.571-.054.241-.118.47-.18.7-.046.175-.087.356-.137.524-.067.23-.14.44-.211.657-.052.154-.1.316-.153.465-.075.212-.153.405-.231.603-.052.134-.103.277-.155.403-.076.185-.15.346-.225.515-.054.12-.108.251-.16.364-.06.128-.113.232-.17.35-.064.13-.13.27-.19.385a18.721 18.721 0 0 1-.529.966c-.445.731-1.427 1.643-2.331 2.674-.912.994-1.636 2.127-1.591 2.604 0 .097.017.158.04.21.01.02.009.04.017.06.034.05.083.103.168.172.138.105.475.234.908.234M17.89 9.236c.675-.346 1.075-.853 1.27-1.32-.164.012-.337.02-.521.028l-.028-.002a8.637 8.637 0 0 1-.672-.04l-.1-.01a8.816 8.816 0 0 1-.741-.115l-.123-.023a9 9 0 0 1-.778-.2l-.123-.039a8.255 8.255 0 0 1-.792-.297c-.037-.016-.073-.033-.11-.048a7.199 7.199 0 0 1-.78-.412c-.026-.015-.051-.033-.077-.049a6.082 6.082 0 0 1-.745-.546l-.032-.03a5.083 5.083 0 0 1-1.204-1.55c-.006-.013-.016-.024-.023-.037l-.015.004a6.194 6.194 0 0 0-.755.332c-.766.427-1.423 1.004-1.858 1.932a6.66 6.66 0 0 0 1.297 1.872c.009.01.022.018.032.028.302.295.72.55 1.178.755.88.386 1.898.585 2.483.574.994-.004 1.922-.147 3.217-.807M21.707 4.1c0-.145-.027-.3-.085-.47-.012-.019-.052-.049-.14-.088l-.03-.014a1.57 1.57 0 0 0-.181-.06c-.305-.088-.786-.142-1.371-.14-1.238-.002-2.945.22-4.755.546-.24.042-.5.086-.765.134-.123.022-.254.051-.382.077-.142.027-.285.056-.43.09l.02.037c.104.178.227.347.365.506.027.034.056.065.085.097.144.154.298.3.467.434l.096.072c.179.135.365.263.562.377.015.01.032.016.046.024.199.112.404.212.613.304l.075.034c.215.09.433.17.65.24.032.008.06.018.09.027.222.067.442.124.657.17l.058.011a6.21 6.21 0 0 0 1.278.134c.28.002.518-.026.67-.062 1.483-.747 2.458-1.702 2.407-2.48m1.3 0c-.041 1.468-1.124 2.463-2.408 3.235-.04 1.078-.71 2.328-2.114 3.055-1.457.756-2.678.955-3.812.951a7.868 7.868 0 0 1-1.801-.26c-.375.467-.73.96-.958 1.31-.446.631-1.621 4.507-3.528 7.614C7.034 22.213 5.246 23.007 3.85 23c-.672-.004-1.253-.168-1.691-.483a1.81 1.81 0 0 1-.6-.705c-.004-.01-.014-.018-.02-.029-.005-.057-.482-1.029-.544-1.693 0-.01-.002-.04-.002-.083.002-.066.017-.13.024-.195l-.013-.005c.002-.004.555-4.234.829-5.889.253-1.524.36-5.858.362-5.863l.008-.422 1.847-.766 1.759.467.294 4.77c.555-1.256 1.163-2.953 1.44-4.87.292-2.346 1.568-3.768 2.993-4.52 1.42-.763 2.97-.96 3.99-1.148 1.853-.332 3.59-.562 4.958-.562 1.265.041 2.342.081 2.893 1.1l.44 1.013.008.01c.127.351.182.666.182.973"/>
    </g>
</svg>
