<svg xmlns="http://www.w3.org/2000/svg" width="32" height="32" viewBox="0 0 32 32">
    <defs>
        <clipPath id="a">
            <path d="M0 24h24V0H0z"/>
        </clipPath>
    </defs>
    <g clip-path="url(#a)" transform="matrix(1.33333 0 0 -1.33333 0 32)">
        <path fill="#f0f" d="M21.127 14.615a2.299 2.299 0 0 0-.476-.437h-2.853V3.122H6.206v11.058l-2.857-.001-.053.037c-.33.253-1.058.89-1.068 2.463 0 .218.013.452.048.7.091 1.04 1.371 1.976 2.829 2.569.223-.4.572-.993 1-1.601.772-1.024 1.62-2.192 2.932-2.274 1.145.025 1.966.81 2.553 1.485.155.18.291.359.411.524.119-.166.256-.343.409-.524.591-.676 1.41-1.46 2.557-1.484 1.309.082 2.159 1.249 2.931 2.274.428.607.777 1.199 1 1.599 1.459-.593 2.738-1.528 2.828-2.564.032-.252.046-.486.046-.705-.004-1.056-.334-1.675-.645-2.062M8.082 20.82l3.07-1.812a7.193 7.193 0 0 0-.495-.656c-.488-.594-1.152-1.075-1.62-1.052-.305-.08-1.283.766-1.931 1.754-.335.475-.623.952-.83 1.314.791.245 1.476.389 1.806.452m7.841.002a16.955 16.955 0 0 0 1.806-.454 17.084 17.084 0 0 0-.834-1.315c-.649-.988-1.623-1.833-1.928-1.753-.468-.023-1.131.458-1.622 1.053a7.035 7.035 0 0 0-.494.657zm7.02-3.284c-.297 1.949-2.169 2.975-3.795 3.634a17.335 17.335 0 0 1-3.247.9l-.219.034-.188-.112-3.492-2.06-3.685 2.172-.217-.034c-.025-.004-1.59-.251-3.245-.9-1.626-.66-3.499-1.685-3.797-3.634A6.396 6.396 0 0 1 1 16.678c-.006-2.69 1.827-3.643 1.926-3.67l.122-.057h1.929V1.893h14.046V12.95h1.93l.125.057c.099.027 1.929.98 1.922 3.669 0 .27-.018.555-.057.862"/>
        <path fill="#f0f" d="M12.002 16.12a.924.924 0 1 1 .925-.925.924.924 0 0 1-.925.926M12.002 12.982a.924.924 0 1 1 .925-.925.923.923 0 0 1-.925.925"/>
    </g>
</svg>
