<svg xmlns="http://www.w3.org/2000/svg" width="32" height="32" viewBox="0 0 32 32">
    <defs>
        <clipPath id="a">
            <path d="M0 24h24V0H0z"/>
        </clipPath>
    </defs>
    <g clip-path="url(#a)" transform="matrix(1.33333 0 0 -1.33333 0 32)">
        <path fill="#595959" d="M14.917 20.089c0 .329-.121.604-.362.827-.242.222-.508.334-.798.334-.329 0-.605-.112-.827-.334a1.125 1.125 0 0 1-.333-.827c0-.29.111-.556.333-.797a1.08 1.08 0 0 1 .827-.362c.29 0 .556.12.798.362.241.24.362.508.362.797m-3.48 0c0 .329-.121.604-.362.827-.242.222-.508.334-.798.334-.329 0-.604-.112-.826-.334a1.125 1.125 0 0 1-.333-.827c0-.29.111-.556.333-.797.222-.241.497-.362.826-.362.29 0 .556.12.798.362.241.24.362.508.362.797m9.335-7.394c-.986 1.393-2.299 2.58-3.942 3.567-1.642.986-3.248 1.479-4.813 1.479-1.585 0-3.204-.493-4.856-1.48-1.653-.985-2.972-2.183-3.957-3.594 1.294 1.14 2.686 2.03 4.174 2.667a11.603 11.603 0 0 0 9.234 0 15.375 15.375 0 0 0 4.16-2.64M6.596 3.622c0 .193-.199.54-.595 1.043-.397.502-.623.783-.681.84a5.562 5.562 0 0 0-.362.552c-.088.154-.16.309-.218.465a4.815 4.815 0 0 0-.247.579c-.068.193-.12.395-.159.609l-.087.419a11.32 11.32 0 0 1-.087.393 5.024 5.024 0 0 1-.174.87c-.077.25-.214.376-.405.376a.558.558 0 0 1-.175-.03.348.348 0 0 1-.145-.086 1.502 1.502 0 0 1-.841-.826 3.192 3.192 0 0 1-.261-1.291c0-.33.039-.657.116-.985a5.69 5.69 0 0 1 .349-1.015 6.226 6.226 0 0 1 1.261-1.74c.531-.521 1.106-.782 1.724-.782.194 0 .407.054.639.16.231.105.348.256.348.449m16.409 2.696c0-1.451-.42-2.6-1.261-3.45-.841-.85-1.985-1.276-3.435-1.276H5.726c-1.469 0-2.624.426-3.465 1.276C1.42 3.717 1 4.866 1 6.317v3.74c0 1.025.324 2.01.971 2.959.647.946 1.473 1.844 2.479 2.695a14.999 14.999 0 0 0 2.073 1.524c.744.453 1.503.814 2.276 1.085a2.415 2.415 0 0 0-.624.813 2.237 2.237 0 0 0-.216.956c0 .638.226 1.185.681 1.639.453.453 1 .68 1.637.68.328 0 .639-.067.929-.203.289-.135.56-.328.811-.58.213.252.468.445.769.58.299.136.623.203.971.203.618 0 1.154-.227 1.608-.68a2.232 2.232 0 0 0 .682-1.64c0-.328-.077-.646-.232-.955a2.806 2.806 0 0 0-.609-.813 12.402 12.402 0 0 0 2.248-1.085 16.671 16.671 0 0 0 2.101-1.524 16.262 16.262 0 0 0 2.435-2.64c.677-.925 1.015-1.854 1.015-2.782z"/>
    </g>
</svg>
