<svg xmlns="http://www.w3.org/2000/svg" width="32" height="32" viewBox="0 0 32 32">
    <defs>
        <clipPath id="a">
            <path d="M0 24h24V0H0z"/>
        </clipPath>
    </defs>
    <g clip-path="url(#a)" transform="matrix(1.33333 0 0 -1.33333 0 32)">
        <path fill="#b45000" d="M11.999 2.302c-7.911.078-8.847 3.37-8.911 5.095.025 2.696.626 3.584 4.362 7.577.345.329.416.805.407 1.109v.056a10.648 10.648 0 0 1 4.142-.851 10.63 10.63 0 0 1 4.142.852v-.057c-.007-.306.063-.78.429-1.13 3.716-3.972 4.317-4.86 4.341-7.556-.063-1.725-1.002-5.017-8.912-5.095M5.623 19.739c.086-.004.175-.006.264-.006.667 0 1.405.122 2.087.483l1.016-2.088 1.17.569-1.117 2.29c.523.473.712.65 2.956.714 2.943-.083 2.349-.362 3.614-1.248.782-.564 1.693-.72 2.497-.72.09 0 .18.002.268.006-.843-.788-1.698-1.588-1.732-1.614a1.572 1.572 0 0 1-.386-.491 9.273 9.273 0 0 0-4.261-1.046c-1.547 0-3.023.4-4.26 1.045-.11.234-.27.386-.386.492-.033.026-.888.825-1.73 1.614m11.871-3.872c-.034.039-.047.023-.055.216v1.008a.45.45 0 0 0 .038.036c.184.154 3.426 3.199 3.441 3.213l-.68 1.079s-.234-.091-.634-.19a6.357 6.357 0 0 0-1.494-.198c-.64 0-1.266.132-1.733.474-.814.624-1.365 1.579-4.378 1.495-3.014.084-3.565-.871-4.378-1.495-.468-.342-1.094-.474-1.734-.474-.547 0-1.074.098-1.465.194-.4.1-.661.2-.663.194l-.679-1.08c.014-.013 3.258-3.058 3.441-3.212l.038-.036v-1.008c-.007-.193-.021-.177-.036-.195-3.719-3.901-4.761-5.426-4.736-8.491-.004-1.18.43-2.828 1.974-4.142 1.542-1.313 4.098-2.252 8.238-2.252 4.139 0 6.697.939 8.239 2.252 1.542 1.314 1.979 2.962 1.973 4.142.026 3.065-1.016 4.59-4.717 8.47"/>
        <path fill="#b45000" d="M11.35 9.483h-.845a1.275 1.275 0 0 0 0 2.55h.845zm1.869-1.299a1.275 1.275 0 0 0 0-2.549h-.57v2.55zm.359 3.848c.729-.048.853-.299.915-.918h1.3c0 .556-.165 1.118-.555 1.547-.39.432-.991.677-1.66.671h-.928v.944h-1.3v-.944h-.845a2.573 2.573 0 1 1 0-5.148h.845V5.635h-1.203c-.735.05-.856.298-.915.915H7.93c0-.553.163-1.115.554-1.545.386-.426.977-.67 1.637-.67h1.228v-.95h1.3v.95h.569A2.573 2.573 0 0 1 15.79 6.91a2.573 2.573 0 0 1-2.572 2.574h-.57v2.55z"/>
    </g>
</svg>
