<svg xmlns="http://www.w3.org/2000/svg" width="32" height="32" viewBox="0 0 32 32">
    <defs>
        <clipPath id="a">
            <path d="M0 24h24V0H0z"/>
        </clipPath>
    </defs>
    <g clip-path="url(#a)" transform="matrix(1.33333 0 0 -1.33333 0 32)">
        <path fill="#00f" d="M5.623 11.351h.732a1.293 1.293 0 0 0 0-2.585h-.732zm-2.033 1.3c-.713 0-1.29.58-1.292 1.291a1.297 1.297 0 0 0 1.293 1.294h.732v-2.585zM5.624 6.5v.967h.732a2.59 2.59 0 0 1 2.59 2.592 2.591 2.591 0 0 1-2.59 2.593h-.732v2.585h1.2a.826.826 0 0 0 .823-.824h1.302a2.128 2.128 0 0 1-2.124 2.124H5.623v.964h-1.3v-.964H3.59a2.595 2.595 0 0 1-2.594-2.594 2.594 2.594 0 0 1 2.593-2.59h.733V8.765h-1.2a.828.828 0 0 0-.826.823h-1.3a2.125 2.125 0 0 1 2.125-2.123h1.202V6.5zM19.063 13.432l4.069 4.067h-1.769l-2.95-2.95-2.953 2.95h-1.766l4.068-4.068v-.598h-3.934v-1.301h3.934v-1.19h-3.934v-1.3h3.934V6.5h1.3v2.544h3.935v1.3h-3.935v1.189h3.935v1.3h-3.935zM11.998 2.305c-1.647 0-3.14.64-4.258 1.68l1.416 1.417H5.387v-3.77l1.432 1.433a7.53 7.53 0 0 1 5.179-2.06 7.561 7.561 0 0 1 6.416 3.563l-1.1.689a6.267 6.267 0 0 0-5.316-2.952M11.998 21.696a6.22 6.22 0 0 0 4.258-1.682l-1.416-1.416h3.769v3.77l-1.432-1.433a7.534 7.534 0 0 1-5.179 2.061 7.567 7.567 0 0 1-6.419-3.563l1.103-.69a6.258 6.258 0 0 0 5.316 2.953"/>
    </g>
</svg>
