<svg xmlns="http://www.w3.org/2000/svg" width="32" height="32" viewBox="0 0 32 32">
    <defs>
        <clipPath id="a">
            <path d="M0 24h24V0H0z"/>
        </clipPath>
    </defs>
    <g clip-path="url(#a)" transform="matrix(1.33333 0 0 -1.33333 0 32)">
        <path fill="#b45000" d="M14.76 5.477h-1.226v5.277h1.226a2.642 2.642 0 0 0 2.638-2.64 2.642 2.642 0 0 0-2.638-2.637m-5.521 7.77a2.642 2.642 0 0 0-2.64 2.64 2.64 2.64 0 0 0 2.64 2.637h1.799v-5.276zm5.52 0h-1.225v5.277h2.077a1.79 1.79 0 0 0 1.787-1.785h2.498a4.284 4.284 0 0 1-4.285 4.28h-2.077V23h-2.496v-1.98h-1.8a5.132 5.132 0 0 1-5.133-5.132 5.13 5.13 0 0 1 5.134-5.133h1.799V5.477h-2.65A1.79 1.79 0 0 0 6.6 7.262H4.105A4.284 4.284 0 0 1 8.388 2.98h2.65V1h2.496v1.98h1.226a5.132 5.132 0 0 1 5.134 5.134 5.131 5.131 0 0 1-5.134 5.134"/>
    </g>
</svg>
