<svg xmlns="http://www.w3.org/2000/svg" width="32" height="32" viewBox="0 0 32 32">
    <defs>
        <clipPath id="a">
            <path d="M0 24h24V0H0z"/>
        </clipPath>
    </defs>
    <path fill="red" d="M16 13.99L9.278 4.678h-2.54l7.212 10.056H9.247v2.097h5.707v2.448H9.247v2.1h5.707v5.941h2.097V21.38h5.704v-2.1h-5.704V16.83h5.704v-2.097H18.05l7.213-10.056h-2.541z"/>
    <g clip-path="url(#a)" transform="matrix(1.33333 0 0 -1.33333 0 32)">
        <path fill="red" d="M21.693 5.322a3.032 3.032 0 0 0-3.016-3.016H5.321a3.032 3.032 0 0 0-3.016 3.016v13.356a3.032 3.032 0 0 0 3.016 3.016h13.356a3.032 3.032 0 0 0 3.016-3.016zm-3.016 17.673H5.321a4.326 4.326 0 0 1-4.316-4.317V5.322a4.322 4.322 0 0 1 4.316-4.314h13.356a4.32 4.32 0 0 1 4.315 4.314v13.356a4.325 4.325 0 0 1-4.315 4.317"/>
    </g>
</svg>
