<svg xmlns="http://www.w3.org/2000/svg" width="32" height="32" viewBox="0 0 32 32">
    <defs>
        <clipPath id="a">
            <path d="M0 24h24V0H0z"/>
        </clipPath>
    </defs>
    <g clip-path="url(#a)" transform="matrix(1.33333 0 0 -1.33333 0 32)">
        <path fill="#b45000" d="M21.771 6.948h-6.548C16.713 8.06 17.68 9.916 17.684 12c-.005 2.084-.972 3.94-2.463 5.052h6.55zM2.226 17.052h6.55C7.286 15.94 6.32 14.084 6.316 12c.003-2.084.97-3.94 2.458-5.052H2.226zm8.721-10.104C8.857 7.474 7.262 9.51 7.26 12c.001 2.492 1.597 4.527 3.69 5.052h2.098c2.095-.525 3.688-2.56 3.69-5.052-.002-2.49-1.595-4.526-3.687-5.052zM1.002 18.28V5.72h22V18.28z"/>
        <path fill="#b45000" d="M11.64 12.615h-.714a.893.893 0 0 0-.895.895c.002.496.4.894.895.896h.715zm1.433-1.229a.898.898 0 0 0 .895-.897.897.897 0 0 0-.895-.895h-.49v1.792zm.33 3.02a.565.565 0 0 0 .565-.568h1.228a1.796 1.796 0 0 1-1.793 1.795h-.82v.64h-.942v-.64h-.715a2.123 2.123 0 0 1 0-4.247h.715V9.594h-1.043a.57.57 0 0 0-.567.565H8.803a1.796 1.796 0 0 1 1.795-1.793h1.043v-.64h.943v.64h.489a2.124 2.124 0 0 1 0 4.25h-.49v1.79z"/>
    </g>
</svg>
