<svg xmlns="http://www.w3.org/2000/svg" width="32" height="32" viewBox="0 0 32 32">
    <defs>
        <clipPath id="a">
            <path d="M0 24h24V0H0z"/>
        </clipPath>
    </defs>
    <g clip-path="url(#a)" transform="matrix(1.33333 0 0 -1.33333 0 32)">
        <path fill="#595959" d="M20.653 10.635c.004 0 .046-.038.084-.18.042-.136.068-.351.068-.614.006-1.083-.46-2.887-1.075-4.342-.304-.731-.647-1.383-.96-1.818a2.417 2.417 0 0 0-.41-.468.743.743 0 0 0-.115-.075v-.001c-.196.034-.21.069-.292.186-.07.125-.12.377-.118.644-.003.48.13.946.125.95l.022.079c.348.364.877 1.08 1.266 2.367l-.882.267c-.272-.886-.6-1.44-.852-1.766a1.953 1.953 0 0 0-.143-.17c-.19.1-.57.189-.645 1.049.295.254.654.729 1.126 1.647l-.822.416c-.34-.67-.603-1.036-.776-1.232-.23.217-.32.493-.33.86-.003.389.136.828.293 1.097.327.523.663.997 1.001 1.428.227.07.457.135.69.17.261.044.523.066.781.066.807.002 1.526-.214 1.964-.56M10.38 4.175A11.118 11.118 0 0 0 8.8 3.19a8.472 8.472 0 0 0-.253-.122L3.232 8.383c1.367.71 4.133 2.534 6.238 6.438 1.346 2.492 2.966 4.058 4.245 5.002a11.002 11.002 0 0 0 1.834 1.107l5.314-5.314c-1.246-.647-3.649-2.241-5.659-5.47l-.01.008h-.003c-.03-.054-.057-.116-.086-.172-.16-.265-.325-.518-.479-.804-1.344-2.492-2.969-4.06-4.246-5.003M4.85 16.664c.25.29.773.767 1.797 1.223l-.373.843c-1.229-.545-1.877-1.16-2.193-1.548l-.075-.031c0-.003-.672-.265-1.205-.257-.439.039-.518.053-.6.333a.656.656 0 0 0 .107.179c.721 1.129 4.987 3.277 6.601 3.205.31.003.438-.08.438-.084.495-.483.834-1.431.832-2.47-.52-.65-1.035-1.4-1.52-2.246l-.006.003v.002c-.035-.113-.428-.351-.896-.337-.342 0-.67.108-.91.307.174.197.508.506 1.131.92l-.51.766c-.865-.585-1.293-1-1.506-1.324-.038-.002-.079-.007-.115-.007-.528.007-.728.175-.87.323a.86.86 0 0 0-.127.2m16.656-2.065c.388.195.59.26.588.264l.906.315-7.158 7.15-.35-.123c-.06-.02-2.065-.731-4.249-2.953-.168.82-.5 1.57-1.047 2.123-.37.358-.832.432-1.287.435-1.334-.015-3.165-.721-4.78-1.583-.8-.435-1.534-.91-2.092-1.384-.542-.494-.994-.918-1.037-1.633 0-.086.01-.164.026-.23.19-.98 1.144-1.328 1.775-1.286.428.003.833.087 1.136.17.302-.426.88-.926 1.91-.923.044 0 .088 0 .134.002.506-.473 1.168-.663 1.773-.664-1.192-1.856-2.507-3.098-3.583-3.893a11.057 11.057 0 0 0-1.58-.984c-.388-.198-.59-.26-.59-.264l-.903-.316 7.15-7.151.356.123c.077.027 3.548 1.26 6.345 5.588a2.13 2.13 0 0 1 .574-.775c.07-.833.447-1.416.856-1.723a2.04 2.04 0 0 1 .312-.2 5.126 5.126 0 0 1-.057-.717c.002-.38.046-.808.266-1.218.21-.415.688-.771 1.263-.81.052-.003.08-.003.094-.003.715.048 1.083.519 1.49 1.047 1.15 1.645 2.235 4.804 2.258 6.858-.015.663-.08 1.289-.615 1.74-.729.565-1.694.809-2.7.813-.067 0-.137-.015-.204-.017.503.494.992.905 1.438 1.236.64.474 1.193.79 1.582.986"/>
        <path fill="#595959" d="M13.377 11.223c-.714-1.047-1.883-1.494-2.605-.998-.728.494-.735 1.745-.022 2.79.717 1.048 1.885 1.494 2.607.999.726-.494.735-1.744.02-2.791m5.437 4.636l-3.501 3.5c-1.171-.698-3.135-2.216-4.716-5.147C8.935 11.134 6.871 9.24 5.285 8.14l3.502-3.503c1.17.7 3.134 2.22 4.715 5.149 1.658 3.08 3.726 4.97 5.312 6.073"/>
    </g>
</svg>
