<svg xmlns="http://www.w3.org/2000/svg" width="32" height="32" viewBox="0 0 32 32">
    <defs>
        <clipPath id="a">
            <path d="M0 24h24V0H0z"/>
        </clipPath>
    </defs>
    <g clip-path="url(#a)" transform="matrix(1.33333 0 0 -1.33333 0 32)">
        <path fill="#595959" d="M20.675 13.145h-2.316v2.316h2.316zm-6.054-6.661c-1.047-1.037-2.315-1.564-3.767-1.564-1.494 0-2.776.531-3.806 1.574-1.029 1.042-1.549 2.304-1.549 3.753 0 1.49.522 2.771 1.554 3.802 1.033 1.031 2.311 1.556 3.801 1.556 1.448 0 2.711-.521 3.761-1.545 1.059-1.035 1.596-2.316 1.596-3.813 0-1.453-.535-2.719-1.59-3.763m7.691 10.615c-.454.454-1 .68-1.637.68v1.159h-2.317v-1.159h-2.317l-1.708 3.476H9.697l-1.738-3.476H5.642v1.159H3.324v-1.159a2.228 2.228 0 0 1-1.636-.68 2.23 2.23 0 0 1-.681-1.638V5.063c0-.637.226-1.183.681-1.637a2.229 2.229 0 0 1 1.636-.681h17.351c.637 0 1.183.227 1.637.681.453.454.681 1 .681 1.637v10.398c0 .638-.228 1.184-.681 1.638M11.073 10.03c-.243-.241-.508-.362-.797-.362a1.08 1.08 0 0 0-.826.362c-.221.241-.333.507-.333.797 0 .328.112.605.333.825.223.223.498.333.826.333.289 0 .554-.11.797-.333.24-.22.363-.497.363-.825 0-.29-.123-.556-.363-.797m-.218 4.274c-1.139 0-2.1-.392-2.882-1.174-.782-.782-1.173-1.743-1.173-2.882 0-1.102.391-2.047 1.173-2.839.782-.793 1.743-1.188 2.882-1.188 1.101 0 2.052.395 2.853 1.188.801.792 1.202 1.737 1.202 2.839 0 1.139-.401 2.1-1.202 2.882-.801.782-1.752 1.174-2.853 1.174"/>
    </g>
</svg>
