<svg xmlns="http://www.w3.org/2000/svg" width="32" height="32" viewBox="0 0 32 32">
    <defs>
        <clipPath id="a">
            <path d="M0 24h24V0H0z"/>
        </clipPath>
    </defs>
    <g clip-path="url(#a)" transform="matrix(1.33333 0 0 -1.33333 0 32)">
        <path fill="#f0f" d="M4.647 5.163A2.201 2.201 0 0 0 2.462 7.35v5.556h17.262V7.35a2.17 2.17 0 0 0-.581-1.466 2.176 2.176 0 0 0-1.602-.719zm-1.702 9.905H19.244c.259 0 .48-.22.48-.484v-.679H2.463v.68c0 .261.223.483.484.483m19.948 3.535l-1.287 1.287c-.344.343-.805.27-1.025-.16l-1.342-3.077H4.21l-1.318-.29a1.787 1.787 0 0 1-1.73-1.779V7.35a3.492 3.492 0 0 1 3.486-3.485H18.873a3.494 3.494 0 0 1 3.485 3.484v7.52a1.785 1.785 0 0 1-1.756 1.782l2.13.927c.43.222.503.683.16 1.026"/>
        <path fill="#f0f" d="M9.098 11.6h3.987l.002-1.496H9.098zm-1-2.495h5.987V12.6H8.098z"/>
    </g>
</svg>
