<svg xmlns="http://www.w3.org/2000/svg" width="32" height="32" viewBox="0 0 32 32">
    <defs>
        <clipPath id="a">
            <path d="M0 24h24V0H0z"/>
        </clipPath>
    </defs>
    <g clip-path="url(#a)" transform="matrix(1.33333 0 0 -1.33333 0 32)">
        <path fill="#ff8c00" d="M21.547 15.516c-.098-.372-.224-.666-.375-.883-.285-.372-.905-1.2-1.864-2.484-.96-1.287-1.657-2.367-2.092-3.238a5.206 5.206 0 0 1-.59-1.635 27.468 27.468 0 0 1-.294-2.158c-.021-.043-.065-.397-.13-1.063-.066-.666-.131-1.031-.197-1.096l-.212-.211a1.31 1.31 0 0 0-.181-.148c.045 1.373-1.536 3.656-4.74 6.85-3.204 3.193-5.505 4.79-6.9 4.79-.196 0-.337-.044-.424-.13-.088-.088-.131-.23-.131-.426 0-.197.049-.436.147-.72.098-.282.234-.59.409-.915a26.285 26.285 0 0 0-1.177 1.863c-.35.61-.523 1.068-.523 1.374 0 .043.01.087.032.13.175.218.333.405.474.557.142.152.289.294.442.425 0 .02.005.032.015.032h.082c.197.088.513.137.95.149.435.009.718.015.849.015.763.043 1.433.114 2.01.213a6.585 6.585 0 0 1 1.652.506c.807.414 1.619.899 2.436 1.455s1.815 1.248 2.992 2.076c.327.24.725.425 1.194.556.468.132.91.197 1.324.197 1.22 0 2.354-.523 3.4-1.57 1.047-1.047 1.568-2.201 1.568-3.465 0-.327-.048-.677-.146-1.046M10.997 3.93a1.575 1.575 0 1 0 0 3.15 1.575 1.575 0 0 0 0-3.15m10.696 16.194c.35 0 .655.137.917.409.26.273.393.572.393.898 0 .372-.132.682-.393.933a1.283 1.283 0 0 1-.917.377c-.347 0-.648-.122-.898-.36a1.296 1.296 0 0 1-.41-.883 6.141 6.141 0 0 1-1.747 1.045 5.24 5.24 0 0 1-1.913.36 6.152 6.152 0 0 1-1.765-.262 4.827 4.827 0 0 1-1.538-.751 242.414 242.414 0 0 0-2.894-1.978 25.273 25.273 0 0 0-2.371-1.422c-.567-.284-1.601-.464-3.105-.54-1.504-.077-2.42-.28-2.747-.606a8.22 8.22 0 0 1-.54-.522 5.62 5.62 0 0 1-.407-.491 1.177 1.177 0 0 1-.28-.408 1.45 1.45 0 0 1-.08-.507c0-1.854 1.912-4.704 5.737-8.55.478-.48.94-.93 1.388-1.351l-.001-.01a2.879 2.879 0 0 1 2.875-2.875c.188 0 .37.02.55.056 1.519-1.052 2.78-1.591 3.77-1.591.24 0 .518.098.835.295.317.197.583.402.802.62.262.329.43.862.507 1.603.075.74.136 1.199.179 1.373.066.699.147 1.324.245 1.88.098.555.256 1.018.474 1.389.349.699.75 1.367 1.209 2.01.458.645 1.037 1.436 1.734 2.373.088.15.233.359.44.619.209.264.367.459.475.59.219.37.397.8.54 1.29.142.49.213.966.213 1.424 0 .632-.114 1.253-.343 1.862a6.731 6.731 0 0 1-.934 1.7"/>
    </g>
</svg>
