<svg xmlns="http://www.w3.org/2000/svg" width="32" height="32" viewBox="0 0 32 32">
    <defs>
        <clipPath id="a">
            <path d="M0 24h24V0H0z"/>
        </clipPath>
    </defs>
    <path fill="#b45000" d="M20.06 7.86h-8.12v3.264h8.12zm1.735 4.999H10.207V6.125h11.588zm3.164-9.794H7.044v25.871h17.915zm1.734 27.606H5.31V1.33h21.384z"/>
    <g clip-path="url(#a)" transform="matrix(1.33333 0 0 -1.33333 0 32)">
        <path fill="#b45000" d="M7.358 10.162a.74.74 0 0 1 .736-.736.74.74 0 0 1 .735.736.74.74 0 0 1-.735.736.74.74 0 0 1-.736-.736m-1.3 0a2.04 2.04 0 0 0 2.036 2.036 2.036 2.036 0 1 0-2.036-2.036"/>
    </g>
</svg>
