<svg xmlns="http://www.w3.org/2000/svg" width="32" height="32" viewBox="0 0 32 32">
    <defs>
        <clipPath id="a">
            <path d="M0 24h24V0H0z"/>
        </clipPath>
    </defs>
    <g clip-path="url(#a)" transform="matrix(1.33333 0 0 -1.33333 0 32)">
        <path fill="#a000a0" d="M12 21.738a7.074 7.074 0 0 0 7.053-7.056A7.075 7.075 0 0 0 12 7.626a7.075 7.075 0 0 0-7.056 7.056A7.073 7.073 0 0 0 12 21.738m6.346-12.42a8.287 8.287 0 0 1 1.97 5.364C20.314 19.272 16.587 23 12 23c-4.59 0-8.317-3.728-8.319-8.318a8.285 8.285 0 0 1 1.971-5.366C3.031 8.11 1.315 6.356 1.315 5.03 1.315 2.804 6.099 1 12 1c5.899 0 10.685 1.804 10.685 4.03 0 1.326-1.716 3.08-4.339 4.287"/>
        <path fill="#a000a0" d="M12.25 19.398a4.459 4.459 0 0 0 4.461-4.46.487.487 0 0 1 .976 0 5.438 5.438 0 0 1-5.437 5.431.486.486 0 1 1 0-.97M16.795 13.46a.657.657 0 1 1 0-1.313.657.657 0 0 1 0 1.314"/>
    </g>
</svg>
