<svg xmlns="http://www.w3.org/2000/svg" width="32" height="32" viewBox="0 0 32 32">
    <defs>
        <clipPath id="a">
            <path d="M0 24h24V0H0z"/>
        </clipPath>
    </defs>
    <path fill="#00f" d="M23.444 17.737l2.224 3.861H21.22zM16 27.193l-2.223-3.861h4.446zm-9.668-5.595l2.224-3.862 2.224 3.862zm0-11.2h4.448l-2.224 3.864zM16 4.808l2.221 3.857H13.78zm3.22 16.79h-6.441L9.556 16l3.224-5.602h6.439L22.444 16zm6.45-11.2l-2.226 3.864-2.225-3.864zM24.443 16l4.223-7.335H20.22L16 1.333l-4.221 7.332H3.333L7.556 16l-4.223 7.332h8.444L16 30.666l4.223-7.334h8.444z"/>
    <g clip-path="url(#a)" transform="matrix(1.33333 0 0 -1.33333 0 32)">
        <path fill="#00f" d="M14.025 12a2.024 2.024 0 1 0-4.05 0 2.024 2.024 0 1 0 4.05 0"/>
    </g>
</svg>
