<svg xmlns="http://www.w3.org/2000/svg" width="32" height="32" viewBox="0 0 32 32">
    <defs>
        <clipPath id="a">
            <path d="M0 24h24V0H0z"/>
        </clipPath>
    </defs>
    <g clip-path="url(#a)" transform="matrix(1.33333 0 0 -1.33333 0 32)">
        <path fill="#595959" d="M6.445 10.763c.47.469.47 1.229 0 1.698a1.2 1.2 0 1 1-1.7-1.698 1.2 1.2 0 0 1 1.7 0"/>
        <path fill="#595959" d="M21.35 6.21h-8.598v5.43h8.598zM6.891 2.228a2.563 2.563 0 0 0-2.563 2.561v2.867a4.144 4.144 0 0 1 1.267-.215h.007A4.17 4.17 0 0 1 8.543 8.66l.91.909V4.853a.411.411 0 0 1-.003-.082 2.53 2.53 0 0 0-.565-1.587l-.09-.091c-.49-.54-1.155-.865-1.904-.865M9.46 19.73c.106.106.673.645 1.493.801 1.063.203 2.092-.231 2.668-.805a2.934 2.934 0 0 0 .856-2.066c0-.617-.198-1.24-.586-1.767l-.014-.02c-.082-.107-.158-.217-.256-.314l-2.916-2.966a4.167 4.167 0 0 1-4.169 4.136c-.011 0-.021-.003-.031-.003zm-2.187-6.438a2.375 2.375 0 1 0-3.357-3.36 2.375 2.375 0 0 0 3.357 3.36m4.252-7.443l-.845-.853v5.82l.845.86zm1.17 7.017l1.782 1.811v-1.811zm3.008 0v3.044a4.166 4.166 0 0 1-.029 5.867A4.166 4.166 0 0 1 12.722 23a4.151 4.151 0 0 1-2.952-1.225l-1.187-1.186.001-.001-4.996-5.077-.004-.003-.943-.945a4.164 4.164 0 0 1-1.22-2.949 4.183 4.183 0 0 1 1.22-2.952c.143-.142.302-.257.46-.375V4.789A3.788 3.788 0 0 1 6.891 1h.007c1.11 0 2.104.49 2.788 1.248l.128.13.001-.001v.002h.001l2.58 2.604h10.182v7.883z"/>
    </g>
</svg>
