<svg xmlns="http://www.w3.org/2000/svg" width="32" height="32" viewBox="0 0 32 32">
    <defs>
        <clipPath id="a">
            <path d="M0 24h24V0H0z"/>
        </clipPath>
    </defs>
    <g clip-path="url(#a)" transform="matrix(1.33333 0 0 -1.33333 0 32)">
        <path fill="#ff8c00" d="M21.137 18.18l-.022-.021a3.791 3.791 0 0 1-1.072 2.062 3.805 3.805 0 0 1-2.062 1.074l.023.023c.276.275.652.419 1.089.42.554 0 1.193-.247 1.707-.76.509-.507.759-1.15.757-1.707-.003-.44-.146-.812-.42-1.091m-6.687-7.81l-.624-.625c-.074.906-.452 1.807-1.105 2.58a1.816 1.816 0 0 1-.243.295c-.007.006-.01.014-.016.02-.832.826-1.865 1.284-2.89 1.369l.62.62c.378.38.886.57 1.475.573h.007c.758 0 1.624-.345 2.314-1.035l-.001-.002c.69-.688 1.033-1.558 1.033-2.32-.002-.587-.195-1.098-.57-1.475m-3.896-2.988c-.76-.002-1.627.34-2.32 1.03-.691.694-1.034 1.564-1.032 2.323.002.589.193 1.096.569 1.474v-.001.002c.379.377.887.57 1.475.572.22 0 .45-.038.683-.095a1.87 1.87 0 0 1-.638-1.4 1.875 1.875 0 0 1 1.874-1.873 1.86 1.86 0 0 1 1.369.604c.043-.2.065-.4.064-.59-.003-.586-.193-1.097-.57-1.477V7.95c-.378-.373-.888-.565-1.474-.568m6.888 12.707c.553.002 1.196-.248 1.71-.761.509-.506.758-1.148.756-1.704-.001-.436-.144-.81-.42-1.091l-3.43-3.428a4.818 4.818 0 0 1-1.177 1.952h-.001a4.832 4.832 0 0 1-1.951 1.184l3.427 3.428v-.001l.003.003c.276.275.646.416 1.083.418m5.378-.818c-.001.923-.396 1.864-1.127 2.6-.74.737-1.681 1.129-2.6 1.129-.724.003-1.445-.252-1.98-.788l-5.773-5.776c-.755-.067-1.485-.355-2.04-.915 0 0-1.704-1.7-2.422-2.42-.72-.718-.941-1.497-.94-2.366.003-1.13.49-2.296 1.405-3.213.916-.914 2.084-1.401 3.21-1.402h.01c.866 0 1.752.33 2.363.942l2.417 2.417c.557.555.842 1.28.909 2.03l5.78 5.779c.534.54.79 1.26.788 1.983M2.862 3.576l.894-.894 3.064 3.07-.892.89zM8.104 1h1.264v4.336H8.104zM5.516 9.188H1.18V7.926h4.336z"/>
    </g>
</svg>
