<svg xmlns="http://www.w3.org/2000/svg" width="32" height="32" viewBox="0 0 32 32">
    <defs>
        <clipPath id="a">
            <path d="M0 24h24V0H0z"/>
        </clipPath>
    </defs>
    <g clip-path="url(#a)" transform="matrix(1.33333 0 0 -1.33333 0 32)">
        <path fill="#00be3c" d="M21.532 7.357H8.77L2.3 13.907v2.727l6.182-6.258H20.99l.44-.448c.072-.138.272-.592.271-1.41.001-.545-.09-.93-.168-1.16m-7.372 8.938l1.638-1.664H6.26l-1.656 1.664zm8.288-5.55l-7.077 7.196H1.001v-4.568l7.224-7.317h14.038l.185.24c.068.086.555.795.552 2.224.003 1.432-.484 2.138-.552 2.225"/>
    </g>
</svg>
