<svg xmlns="http://www.w3.org/2000/svg" width="32" height="32" viewBox="0 0 32 32">
    <defs>
        <clipPath id="a">
            <path d="M0 24h24V0H0z"/>
        </clipPath>
    </defs>
    <g clip-path="url(#a)" transform="matrix(1.33333 0 0 -1.33333 0 32)">
        <path fill="#00f" d="M21.602 7.314l-.013-.037H8.736l-6.518 6.597v2.842l6.264-6.338h12.627l.378-.385.008-.019c.073-.133.286-.582.286-1.453 0-.578-.095-.97-.18-1.207m-7.441 8.982l1.636-1.663H6.259l-1.655 1.663zm8.286-5.548l-7.075 7.195H1v-4.57l7.227-7.316h14.036l.183.241c.07.088.556.795.554 2.223.002 1.432-.484 2.14-.554 2.227"/>
    </g>
</svg>
