<svg xmlns="http://www.w3.org/2000/svg" width="32" height="32" viewBox="0 0 32 32">
    <defs>
        <clipPath id="a">
            <path d="M0 24h24V0H0z"/>
        </clipPath>
    </defs>
    <g clip-path="url(#a)" transform="matrix(1.33333 0 0 -1.33333 0 32)">
        <path fill="#00f" d="M21.611 12.24H9.888l-5.944 6.016v2.528l5.69-5.757h11.498l.377-.38c.055-.098.262-.5.262-1.319 0-.522-.084-.875-.16-1.088m-.619-9.033H9.267L3.325 9.222v1.661l4.332-4.387h.858l.498-.504h11.502l.377-.387c.057-.103.258-.504.258-1.312 0-.522-.084-.873-.158-1.086m-1.199 6.916c.06-.104.26-.504.261-1.313 0-.523-.088-.875-.16-1.088H8.17L2.227 13.74v2.525l5.688-5.755h11.503zM14.84 20.454l1.5-1.524H7.594l-1.516 1.524zm7.64-9.2c.072.088.524.752.518 2.074.006 1.322-.446 1.984-.518 2.072l-6.506 6.621H2.717v-4.267l.25-.254H1v-4.262l1.098-1.113V8.72l6.657-6.74h12.92l.184.241c.072.088.523.75.52 2.073.003 1.324-.448 1.984-.52 2.072l-.844.863c.133.342.268.862.266 1.582.002 1.325-.447 1.987-.518 2.075l-.125.126H22.3z"/>
    </g>
</svg>
