<svg xmlns="http://www.w3.org/2000/svg" width="32" height="32" viewBox="0 0 32 32">
    <defs>
        <clipPath id="a">
            <path d="M0 24h24V0H0z"/>
        </clipPath>
    </defs>
    <g clip-path="url(#a)" transform="matrix(1.33333 0 0 -1.33333 0 32)">
        <path fill="#00f" d="M20.855 9.41c-.273-1.087-.631-2.458-1.361-3.508-.743-1.044-1.76-1.798-3.663-1.813H8.17c-1.903.015-2.92.77-3.662 1.813-.733 1.05-1.091 2.421-1.362 3.507-.082.31-.2.588-.327.83h18.36a3.893 3.893 0 0 1-.325-.83m-2.07-7.053l.018-.046a.06.06 0 0 0 .004-.02c0-.027-.014-.049-.035-.058-.014-.006-.021-.006-.03-.006-.023 0-.046.013-.058.042l-.033.076-.695.872c.19.068.37.15.545.235zM5.349 2.344l-.032-.076a.062.062 0 0 0-.058-.042.065.065 0 0 0-.026.006.06.06 0 0 0-.041.058v.01l.022.047L5.5 3.45c.174-.085.354-.166.544-.234zm2.735 18.39l-.646-.646-.063.71zm14.875-9.653a.616.616 0 0 1-.571.385H3.944v9.12c0 .655.532 1.186 1.187 1.186.405 0 .757-.21.97-.52l.233-2.577a.61.61 0 0 1 .61-.56c.16 0 .318.063.435.18l2.498 2.5a.612.612 0 0 1-.38 1.043l-2.481.223a2.39 2.39 0 0 1-1.885.94 2.414 2.414 0 0 1-2.414-2.416v-9.119H1.613a.614.614 0 0 1-.42-1.06s.13-.122.305-.363a2.87 2.87 0 0 0 .459-.936c.279-1.087.646-2.605 1.54-3.904.254-.373.565-.72.924-1.03l-.373-1.424A1.29 1.29 0 0 1 5.258 1h.005c.47 0 .916.262 1.142.698l.963 1.205c.257-.028.524-.043.803-.04h7.66l.049-.002c.262 0 .51.018.75.044l.965-1.206A1.29 1.29 0 0 1 18.738 1h.005a1.291 1.291 0 0 1 1.211 1.74l-.374 1.431c.358.312.669.66.92 1.032.899 1.3 1.265 2.817 1.545 3.902.09.36.284.7.459.94.174.24.309.357.305.361.182.175.24.441.149.675"/>
        <path fill="#00f" d="M14.803 16.428l-3.948 3.949-.67-.67 3.949-3.947zM13.606 15.231l-3.95 3.95-.667-.67 3.95-3.949zM7.793 17.315l3.948-3.95.667.67-3.948 3.948z"/>
    </g>
</svg>
