<svg xmlns="http://www.w3.org/2000/svg" width="32" height="32" viewBox="0 0 32 32">
    <defs>
        <clipPath id="a">
            <path d="M0 24h24V0H0z"/>
        </clipPath>
    </defs>
    <g clip-path="url(#a)" transform="matrix(1.33333 0 0 -1.33333 0 32)">
        <path fill="red" d="M20.571 15.048l-3.217-3.217a.654.654 0 0 0-.92 0 .649.649 0 0 0 0 .92l3.217 3.217c.5.504.77 1.155.772 1.851a2.58 2.58 0 0 1-.696 1.768h.002a.65.65 0 0 0 .949.886 3.867 3.867 0 0 0 1.043-2.654 3.913 3.913 0 0 0-1.15-2.77m-5.124-4.825a.65.65 0 1 0 .002 1.3.65.65 0 0 0-.002-1.3M8.925 3.438a3.865 3.865 0 0 0-2.744-1.135c-1.039 0-2.006.4-2.74 1.135A3.848 3.848 0 0 0 2.3 6.236a3.817 3.817 0 0 0 1.137 2.691l5.513 5.515c.244-.73.82-1.903 2.203-3.289 1.384-1.382 2.555-1.958 3.284-2.203zM21.477 21.48A5.161 5.161 0 0 1 17.813 23a5.15 5.15 0 0 1-3.664-1.52L2.52 9.848A5.113 5.113 0 0 1 1.003 6.23V6.177A5.138 5.138 0 0 1 2.52 2.52a5.154 5.154 0 0 1 3.662-1.517c1.375 0 2.684.542 3.662 1.515L21.477 14.15a5.178 5.178 0 0 1 1.52 3.668 5.145 5.145 0 0 1-1.52 3.662"/>
    </g>
</svg>
