<svg xmlns="http://www.w3.org/2000/svg" width="32" height="32" viewBox="0 0 32 32">
    <defs>
        <clipPath id="a">
            <path d="M0 24h24V0H0z"/>
        </clipPath>
    </defs>
    <g clip-path="url(#a)" transform="matrix(1.33333 0 0 -1.33333 0 32)">
        <path fill="red" d="M17.568 11.16l-2.787.004V5.666h2.787c.832 0 1.465 1.551 1.467 2.746-.002 1.205-.635 2.748-1.467 2.748M18.213 15.582c0 1.203-.633 2.752-1.463 2.752h-1.97v-5h2.05c.79.074 1.383 1.088 1.383 2.248M6.918 10.684H9.16l-1.125 5.21z"/>
        <path fill="red" d="M17.568 3.5h-4.424v17h3.606c1.691 0 3.1-2.162 3.103-4.918-.002-1.133-.242-2.17-.644-2.996.873-.859 1.461-2.393 1.463-4.174C20.666 5.66 19.26 3.5 17.568 3.5M11 3.5L9.798 8.52h-3.52L5.073 3.5H3.328l4.051 17h1.316l4.05-17zM21.9 23H2.1A1.1 1.1 0 0 1 1 21.9V2.1A1.1 1.1 0 0 1 2.1 1h19.8A1.1 1.1 0 0 1 23 2.1v19.8a1.1 1.1 0 0 1-1.1 1.1"/>
    </g>
</svg>
