<svg xmlns="http://www.w3.org/2000/svg" width="32" height="32" viewBox="0 0 32 32">
    <defs>
        <clipPath id="a">
            <path d="M0 24h24V0H0z"/>
        </clipPath>
    </defs>
    <g clip-path="url(#a)" transform="matrix(1.33333 0 0 -1.33333 0 32)">
        <path fill="#f0f" d="M12.003 12.676l.092.263c0 .008.44 1.196.447 1.612h-.1l.1.002c-.003.372-.086.874-.518.91a.108.108 0 0 1-.025.005c-.457-.023-.54-.537-.541-.92.004-.413.448-1.601.448-1.61zM12.002 11.315l-.095-.253c-.002-.008-.444-1.195-.45-1.61.002-.377.087-.894.541-.915L12 8.535c.454.023.54.536.543.915-.008.415-.449 1.604-.449 1.612zM10.063 13.747c-.199.113-.43.21-.65.21a.446.446 0 0 1-.476-.438c.012-.32.312-.55.585-.711.361-.204 1.611-.414 1.62-.418l.274-.047-.18.21c-.007.006-.818.982-1.173 1.194M14.6 10.048a.447.447 0 0 1 .46.44c-.01.317-.306.545-.58.709-.363.202-1.611.414-1.62.418l-.266.047.172-.21c.008-.004.814-.982 1.17-1.194.197-.11.43-.208.65-.21zM9.519 11.197c-.271-.165-.571-.393-.582-.709a.447.447 0 0 1 .462-.44h.013c.22.002.451.102.65.211.36.21 1.164 1.188 1.172 1.193l.175.21-.269-.048c-.009-.004-1.257-.216-1.621-.417M14.477 12.806c.27.167.571.395.584.714a.426.426 0 0 1-.06.216.463.463 0 0 1-.417.224c-.218-.002-.449-.1-.648-.212l.052-.088-.052.086c-.355-.212-1.166-1.187-1.172-1.19l-.175-.208.268.045c.008.004 1.261.21 1.62.413M12.003 16.51l.092.259c0 .008.44 1.186.447 1.612-.003.378-.087.883-.53.916h-.015c-.455-.02-.537-.534-.54-.916.005-.426.449-1.604.449-1.612zM12 4.707c.453.019.539.532.541.913-.006.428-.447 1.605-.447 1.613L12 7.484l-.093-.251c0-.008-.444-1.185-.449-1.611.003-.379.085-.894.538-.915zM9.534 16.083l.21-.175-.047.27c-.005.008-.21 1.247-.42 1.619-.162.275-.392.574-.709.584a.454.454 0 0 1-.442-.475c.002-.218.1-.45.214-.652.218-.365 1.19-1.163 1.194-1.171M14.467 7.919l-.21.173.047-.266c.002-.008.206-1.251.416-1.621.16-.27.39-.57.707-.582.072 0 .148.017.219.058.16.096.225.26.223.419 0 .218-.098.449-.212.646-.215.366-1.186 1.166-1.19 1.173M6.745 15.66c-.2.116-.43.213-.65.215a.453.453 0 0 1-.474-.442c.01-.318.308-.544.583-.711.37-.207 1.612-.413 1.62-.417l.269-.048-.175.21c-.008.004-.805.978-1.173 1.194M17.253 8.342c.199-.11.432-.208.65-.21h.014a.446.446 0 0 1 .46.44c-.011.317-.31.545-.581.709-.372.208-1.612.416-1.62.42l-.265.045.17-.207c.008-.004.806-.98 1.172-1.197M4.706 12.023a.528.528 0 0 1-.003-.021c.02-.456.534-.538.917-.544.425.007 1.603.45 1.611.45l.257.096-.257.093c-.008 0-1.186.442-1.61.447-.378-.002-.88-.088-.915-.522M16.767 12.097l-.251-.094.25-.095c.01 0 1.189-.444 1.614-.45.383.006.895.09.916.545-.023.452-.535.536-.916.539-.425-.005-1.604-.445-1.613-.445M6.202 9.281c-.273-.164-.572-.39-.582-.707a.447.447 0 0 1 .461-.442h.014c.218.002.45.102.65.211.368.218 1.164 1.19 1.17 1.194l.173.211-.265-.049c-.009-.004-1.249-.208-1.62-.418M17.796 14.723c.27.165.57.393.582.708a.427.427 0 0 1-.06.218.46.46 0 0 1-.417.226c-.218-.002-.45-.101-.648-.214-.364-.216-1.166-1.187-1.173-1.191l-.173-.207.268.044c.009.003 1.249.207 1.62.416M8.34 6.746l-.001.001c-.113-.199-.212-.43-.212-.648a.453.453 0 0 1 .442-.475c.317.012.543.312.71.582.208.372.412 1.61.416 1.62l.045.265-.208-.17c-.004-.008-.972-.804-1.192-1.175M15.658 17.257c.11.202.208.432.21.65a.452.452 0 0 1-.22.415.44.44 0 0 1-.22.06c-.317-.01-.543-.311-.708-.584-.208-.37-.417-1.612-.42-1.62l-.048-.266.21.173c.004.006.978.806 1.196 1.172M12 20.161l.096.261c0 .008.44 1.19.446 1.614-.002.374-.087.88-.53.912l-.015.001c-.454-.02-.537-.535-.538-.915.003-.422.448-1.604.448-1.612zM9.298 19.977l.166-.216.01.274s.015.322.015.692c0 .374-.01.781-.074.991-.107.321-.292.702-.654.72a.402.402 0 0 1-.14-.025c-.258-.077-.353-.323-.346-.556 0-.16.034-.328.084-.484.156-.403.935-1.39.94-1.396M6.97 18.753l.223-.146-.07.255c-.004.008-.322 1.23-.59 1.586-.172.238-.412.489-.708.497a.466.466 0 0 1-.458-.477c.002-.238.137-.476.293-.678.245-.345 1.305-1.03 1.31-1.037M3.551 17.451c.354-.254 1.567-.573 1.574-.577l.253-.07-.142.22c-.009.006-.69 1.068-1.04 1.321-.197.146-.437.275-.676.277a.456.456 0 0 1-.472-.452c.008-.298.258-.542.503-.719M2.276 14.572l.03.094-.028-.096c.206-.06.6-.072.968-.074.376 0 .71.016.713.016l.27.011-.212.166c-.01.005-.991.796-1.396.94a1.655 1.655 0 0 1-.487.084c-.23.004-.477-.082-.554-.339a.43.43 0 0 1-.023-.138c.014-.362.397-.555.719-.664M3.573 11.905l.251.095-.25.092c-.009 0-1.19.444-1.615.452-.38-.004-.892-.092-.914-.546.02-.465.536-.55.914-.553.424.006 1.606.46 1.614.46M2.309 9.307zm1.92.145l-.27.01c-.001 0-.335.017-.711.017-.368-.003-.765-.011-.97-.076-.322-.108-.704-.288-.718-.651a.48.48 0 0 1 .022-.143c.078-.248.317-.333.54-.333h.01c.162 0 .333.039.487.082.405.147 1.39.923 1.397.925zM3.217 5.632zM5.126 7.11c-.008-.004-1.224-.321-1.578-.577-.24-.174-.49-.411-.498-.703 0-.086.026-.176.085-.255h-.001a.459.459 0 0 1 .385-.21h.007c.24.004.479.146.676.294.346.245 1.027 1.294 1.033 1.3l.146.223zM5.74 4.139h-.001zm-.081.06c-.156-.193-.288-.441-.29-.682a.463.463 0 0 1 .458-.48c.297.008.536.266.713.52.265.345.578 1.546.582 1.555l.068.255-.218-.146c-.006-.007-1.064-.687-1.313-1.021M9.463 4.225l-.167-.21c0-.006-.78-1.002-.936-1.4l.094-.036-.096.03a1.545 1.545 0 0 1-.083-.463c-.003-.227.09-.474.353-.552a.413.413 0 0 1 .146-.026c.358.016.535.397.642.702.064.21.074.602.076.969 0 .382-.016.718-.016.72zM12 3.824l-.092-.254c-.002-.008-.442-1.193-.45-1.607l.1-.002h-.1c.006-.379.09-.904.545-.927.457.025.537.55.54.927-.005.416-.447 1.601-.447 1.61zM14.704 4.017l-.167.214-.013-.27c0-.002-.016-.33-.016-.704.003-.37.01-.771.08-.983.103-.311.284-.69.64-.706a.53.53 0 0 1 .15.026c.258.078.352.32.347.548 0 .158-.038.323-.083.467-.159.404-.936 1.402-.938 1.408M17.027 5.224l-.215.138.065-.25c.005-.005.32-1.207.588-1.56.174-.252.412-.503.704-.51.087 0 .174.028.254.08a.455.455 0 0 1 .205.396c-.004.245-.138.494-.288.685-.246.333-1.307 1.013-1.313 1.02M20.388 6.456zm.058.082c-.353.255-1.564.57-1.571.574l-.257.07.149-.222c.006-.004.7-1.054 1.033-1.303.192-.147.436-.283.677-.286h.007c.143 0 .293.066.385.208a.438.438 0 0 1 .082.254c-.007.294-.26.53-.505.705M21.73 9.404l-.03-.095.028.095c-.213.063-.606.076-.97.078-.382 0-.717-.018-.72-.018l-.264-.015.208-.164c.008-.002.992-.778 1.392-.927.158-.049.325-.08.483-.08h.015c.222 0 .456.09.537.336a.503.503 0 0 1 .024.15c-.016.358-.399.535-.704.64M22.951 12.005c-.02.453-.537.54-.91.542-.419-.007-1.605-.452-1.613-.454l-.253-.092.253-.095c.008 0 1.192-.453 1.61-.46.38.003.894.094.915.557zM19.775 14.526l.264-.014c.002 0 .333-.015.708-.015.366 0 .765.013.98.074l-.029.095.032-.095c.31.11.686.3.702.657a.526.526 0 0 1-.026.15c-.076.252-.318.342-.544.338a1.59 1.59 0 0 1-.487-.086c-.404-.143-1.386-.937-1.394-.941zM18.874 16.872c.009.006 1.223.327 1.572.58.247.177.494.424.502.718a.458.458 0 0 1-.469.455c-.241-.002-.49-.13-.683-.284-.331-.247-1.025-1.31-1.03-1.317l-.145-.216zM18.342 19.791c.148.2.282.44.284.677a.453.453 0 0 1-.203.39.425.425 0 0 1-.258.087c-.292-.008-.528-.259-.703-.504-.266-.348-.582-1.574-.586-1.582l-.068-.249.22.14c.004.008 1.056.69 1.314 1.041M14.537 19.762l.165.214c.004.006.78.995.94 1.392l-.093.038.094-.03c.046.153.08.32.08.478.002.232-.089.48-.35.559a.446.446 0 0 1-.14.023c-.36-.015-.544-.397-.648-.72-.067-.205-.078-.602-.078-.971 0-.378.015-.712.015-.713z"/>
    </g>
</svg>
