<svg xmlns="http://www.w3.org/2000/svg" width="32" height="32" viewBox="0 0 32 32">
    <defs>
        <clipPath id="a">
            <path d="M0 24h24V0H0z"/>
        </clipPath>
    </defs>
    <g clip-path="url(#a)" transform="matrix(1.33333 0 0 -1.33333 0 32)">
        <path fill="#f0f" d="M22.044 3.446H19.38v.929h2.664zm-5.81 0h-2.662v.929h2.662zm-3.71 2.314c0 .849.715 3.297 1.485 4.506.294.467.698.858 1.065 1.15l1.608-3.012 1.609 3.011c.368-.292.772-.682 1.064-1.149.847-1.332 1.506-3.221 1.496-4.281 0-.365-.076-.567-.142-.655h-8.055a.783.783 0 0 0-.13.43m4.874 6.016l-.716-1.34-.716 1.341a2.18 2.18 0 0 1 .718-.145c.254.004.49.063.714.144m-.714 4.929c.838 0 1.52-.922 1.52-2.059 0-1.136-.682-2.057-1.52-2.057-.84 0-1.52.921-1.52 2.057 0 1.137.68 2.059 1.52 2.059M10.427 3.446H7.765v.928h2.662zM5.849 15.482c.001.377.081.711.205 1.001h2.628c.124-.29.205-.624.206-1.001-.002-1.215-.777-2.055-1.52-2.057-.745.002-1.517.842-1.519 2.057M4.619 3.446H1.954v.929h2.665zm17.104 1.883c.051.212.083.433.083.656-.011 1.383-.717 3.302-1.64 4.789-.523.825-1.246 1.4-1.743 1.732.112.137.213.284.302.442 1.199.517 1.838 1.192 1.85 2.012-.095 1.372-1.537 2.132-2.728 2.333a2.474 2.474 0 0 1-.299.163l1.157 1.157-.593.591-1.009-1.01v1.43h-.839v-1.432l-1.012 1.012-.592-.591 1.156-1.157a2.376 2.376 0 0 1-.297-.163c-1.193-.2-2.637-.961-2.734-2.334.014-.82.651-1.496 1.857-2.013.087-.158.187-.304.299-.439-.497-.333-1.218-.908-1.743-1.733a12.567 12.567 0 0 1-1.105-2.283c-.548 1.805-1.409 3.572-1.524 3.848-.274.51-.758.724-1.209.976-.067.035-.13.064-.194.095.428.551.677 1.289.678 2.072-.002 1.325-.714 2.51-1.796 2.884l.227 2.226.002.009a.908.908 0 0 1-1.815 0l.228-2.234c-1.085-.374-1.796-1.56-1.798-2.885.001-.783.251-1.521.677-2.072a4.904 4.904 0 0 1-.194-.095c-.45-.252-.934-.466-1.207-.974-.175-.413-1.96-4.047-1.98-6.277a2.717 2.717 0 0 1 .102-.735H1V2.491h22v2.838z"/>
    </g>
</svg>
