<svg xmlns="http://www.w3.org/2000/svg" width="32" height="32" viewBox="0 0 32 32">
    <defs>
        <clipPath id="a">
            <path d="M0 24h24V0H0z"/>
        </clipPath>
    </defs>
    <g clip-path="url(#a)" transform="matrix(1.33333 0 0 -1.33333 0 32)">
        <path fill="#00f" d="M15.895 15.112a.616.616 0 0 0-.443-.152H8.546a.666.666 0 0 0-.33.076c-.073.04-.115.078-.115.076-.232.286-.358.74-.358 1.43.005 1.707 1.558 3.5 4.255 3.51 2.697-.01 4.251-1.803 4.255-3.51 0-.69-.125-1.144-.359-1.43m-2.416-6.774c0-1.085-.039-2.02-.102-2.82h-2.96c.06.812.1 1.744.1 2.82v2.831h2.962zm-.848 12.92V23h-1.262v-1.742c-2.928-.279-4.886-2.392-4.886-4.716 0-.82.138-1.597.634-2.22.246-.298.715-.615 1.43-.625h2.822V12.43H9.254V8.338c0-2.288-.18-3.93-.356-4.99-.178-1.06-.345-1.504-.339-1.507l-.298-.84h5.565l.148.42c.025.07.768 2.21.768 6.917v4.092H12.63v1.267h2.821c.713.01 1.183.325 1.43.625.497.623.636 1.4.636 2.22-.002 2.323-1.96 4.436-4.887 4.716"/>
    </g>
</svg>
