<svg xmlns="http://www.w3.org/2000/svg" width="32" height="32" viewBox="0 0 32 32">
    <defs>
        <clipPath id="a">
            <path d="M0 24h24V0H0z"/>
        </clipPath>
    </defs>
    <path fill="#ff8c00" d="M10.892 17.476h2.175v-2.173h-2.175z"/>
    <path fill="#f0f" d="M21.121 23.361h-2.168v2.172h2.168z"/>
    <path fill="#ff8c00" d="M4.157 26.857h2.171v-2.174h-2.17z"/>
    <path fill="#f0f" d="M5.881 20.01l1.534 1.536 1.538-1.536-1.538-1.536z"/>
    <path fill="#00be3c" d="M26.017 21.807l-1.539 1.536 1.539 1.538 1.533-1.538zM9.023 29.128l1.536 1.538 1.536-1.538-1.536-1.536z"/>
    <path fill="#00f" d="M20.858 29.128l1.536 1.538 1.537-1.538-1.537-1.536z"/>
    <path fill="red" d="M9.879 23.957h2.861l-1.43-2.475zM22.824 17.21h-2.858l1.429 2.48z"/>
    <g clip-path="url(#a)" transform="matrix(1.33333 0 0 -1.33333 0 32)">
        <path fill="#595959" d="M12.649 19.595V23h-1.3v-3.405c.224-.133.444-.274.65-.441.208.167.427.308.65.44"/>
        <path fill="#ff8c00" d="M19.08 18.79a5.295 5.295 0 0 1-3.765 1.559A5.272 5.272 0 0 1 12 19.154c-.97.78-2.139 1.197-3.316 1.197a5.296 5.296 0 0 1-3.76-1.562 5.276 5.276 0 0 1-1.56-3.76 5.292 5.292 0 0 1 1.561-3.761l.445-.448.445.448 5.414 5.416c.148-.782.323-1.961.323-3.219 0-2.176-.524-4.153-.524-4.153s-.524-1.976-.524-4.15c0-2.176.524-4.152.524-4.152h1.947s-.524 1.976-.524 4.152c0 2.174.524 4.15.524 4.15s.525 1.977.525 4.153c0 1.014-.114 1.976-.236 2.723l5.368-5.368.445.448a5.3 5.3 0 0 1 1.56 3.763 5.3 5.3 0 0 1-1.558 3.759"/>
    </g>
</svg>
