<svg xmlns="http://www.w3.org/2000/svg" width="32" height="32" viewBox="0 0 32 32">
    <defs>
        <clipPath id="a">
            <path d="M0 24h24V0H0z"/>
        </clipPath>
    </defs>
    <path fill="#f0f" d="M13.497 10.148l9.465-2.538 5.528 20.606-9.475 2.538z"/>
    <g clip-path="url(#a)" transform="matrix(1.33333 0 0 -1.33333 0 32)">
        <path fill="#00be3c" d="M22.17 22.977c-.021 0-.19.023-.454.023-.516-.003-1.411-.07-2.275-.568-1.292-.762-1.802-2.037-1.832-2.088l-.313-.74.797-.101c.022-.004.192-.023.459-.023.517.002 1.407.072 2.268.564 1.296.763 1.805 2.042 1.834 2.09l.312.74zM4.867 16.902l.8-.11-.113.798c-.015.056-.178 1.421-1.229 2.493-1.073 1.053-2.437 1.214-2.494 1.23l-.797.11.108-.797c.018-.057.178-1.42 1.232-2.495 1.073-1.049 2.436-1.21 2.493-1.229M4.113 9.87l3.705-.997 2.048 7.632-3.709.991zM7.62 22.948l-1.206-4.493 3.707-.996 1.471 5.49zM3.814 8.752l-2.02-7.547h3.974l1.756 6.554zM20.918 15.732c-.01.02-.074.176-.207.404-.262.446-.768 1.187-1.631 1.686-1.307.738-2.665.541-2.725.54l-.796-.099.311-.74a3.67 3.67 0 0 1 .21-.409c.26-.446.767-1.183 1.623-1.682 1.309-.74 2.671-.54 2.729-.542l.797.102zM15.702 21.914c-.02.001-.189.023-.454.023-.516-.003-1.41-.07-2.275-.568-1.292-.762-1.802-2.037-1.832-2.088l-.313-.739.797-.102c.022-.004.192-.023.46-.023.516.002 1.406.072 2.267.563 1.296.764 1.805 2.043 1.834 2.092l.312.74z"/>
        <path fill="#595959" d="M12.646 18.665l1.255.337 1.036-3.868-1.255-.337z"/>
        <path fill="#ff8cfa" d="M15.18 2.522l4.596 1.232-3.47 12.947-4.595-1.23z"/>
    </g>
</svg>
