<svg xmlns="http://www.w3.org/2000/svg" width="32" height="32" viewBox="0 0 32 32">
    <defs>
        <clipPath id="a">
            <path d="M0 24h24V0H0z"/>
        </clipPath>
    </defs>
    <g clip-path="url(#a)" transform="matrix(1.33333 0 0 -1.33333 0 32)">
        <path fill="#f0f" d="M19.752 8.747c0 .367-.129.674-.388.923a1.271 1.271 0 0 1-.906.372c-.346 0-.647-.125-.907-.372a1.232 1.232 0 0 1-.388-.923c0-.323.13-.615.388-.874.26-.259.561-.388.907-.388.345 0 .648.13.906.388.259.26.388.551.388.874m-3.885 0c0 .367-.129.674-.386.923-.26.247-.551.372-.875.372-.368 0-.675-.125-.922-.372a1.249 1.249 0 0 1-.373-.923c0-.323.123-.615.373-.874.247-.259.554-.388.922-.388.324 0 .615.13.875.388.257.26.386.551.386.874m-6.829 0c0 .627-.222 1.15-.664 1.57-.442.42-.955.631-1.538.631-.626 0-1.149-.21-1.569-.63-.422-.422-.632-.944-.632-1.57 0-.583.21-1.09.632-1.522.42-.432.943-.647 1.569-.647.583 0 1.096.215 1.538.647.442.431.664.94.664 1.521m10.714 7.77H4.247v-2.59h15.505zm3.238-8.416c0-.692-.259-1.292-.777-1.797-.518-.508-1.123-.762-1.813-.762H3.599c-.712 0-1.322.254-1.829.762-.507.505-.76 1.105-.76 1.797v7.768c0 .712.253 1.321.76 1.83.507.505 1.117.76 1.829.76H20.4c.713 0 1.322-.255 1.829-.76a2.5 2.5 0 0 0 .761-1.83z"/>
    </g>
</svg>
