<svg xmlns="http://www.w3.org/2000/svg" width="32" height="32" viewBox="0 0 32 32">
    <defs>
        <clipPath id="a">
            <path d="M0 24h24V0H0z"/>
        </clipPath>
    </defs>
    <g clip-path="url(#a)" transform="matrix(1.33333 0 0 -1.33333 0 32)">
        <path fill="#595959" d="M16.762 20.701h-9.59V5.603h9.59zM15.621 4.304h-2.283V2.552h2.283zm-2.887 0h-1.535V2.552h1.535zm-2.138 0H8.313V2.552h2.283zM5.373 21.299c0 .936.765 1.701 1.701 1.701h9.785c.936 0 1.702-.765 1.702-1.701V2.701c0-.935-.766-1.701-1.702-1.701H7.074c-.936 0-1.701.766-1.701 1.701z"/>
    </g>
</svg>
