<svg xmlns="http://www.w3.org/2000/svg" width="32" height="32" viewBox="0 0 32 32">
    <defs>
        <clipPath id="a">
            <path d="M0 24h24V0H0z"/>
        </clipPath>
    </defs>
    <g clip-path="url(#a)" transform="matrix(1.33333 0 0 -1.33333 0 32)">
        <path fill="#595959" d="M21.82 17.902c-.025 2.617-1.152 4.99-3.22 5.098H5.402c-2.07-.109-3.199-2.48-3.224-5.098V9.29h8.641V1h3.678l-.002 8.29h7.324z"/>
        <path fill="red" d="M7.53 10.517H3.404v7.387c0 1.866.731 3.872 2.062 3.872S7.53 19.77 7.53 17.904zM13.268 1h-1.219v8.29h1.219zM20.594 10.518L8.63 10.516l-.002 7.387c-.014 1.505-.406 2.912-1.118 3.87H18.6c.412.007.9-.301 1.312-1.008.409-.693.684-1.72.682-2.862z"/>
        <path fill="#e6e6e6" d="M17.977 13.042l-7.392.003-.001-1.3 5.27-.002 2.123-2.453z"/>
        <path fill="#595959" d="M3.977 18.048h2.989v-1.3H3.977z"/>
    </g>
</svg>
