<svg xmlns="http://www.w3.org/2000/svg" width="32" height="32" viewBox="0 0 32 32">
    <defs>
        <clipPath id="a">
            <path d="M0 24h24V0H0z"/>
        </clipPath>
    </defs>
    <g clip-path="url(#a)" transform="matrix(1.33333 0 0 -1.33333 0 32)">
        <path fill="#595959" d="M21.82 17.903C21.795 20.52 20.668 22.89 18.6 23H5.402c-2.07-.11-3.199-2.48-3.224-5.097V9.289h8.641V.999h3.678l-.002 8.29h7.324z"/>
        <path fill="red" d="M7.53 10.516H3.404v7.388c0 1.866.731 3.872 2.062 3.872S7.53 19.77 7.53 17.904zM13.268 1h-1.219v8.289h1.219zM20.594 10.518L8.63 10.516l-.002 7.387c-.014 1.505-.406 2.912-1.118 3.87H18.6c.412.007.9-.301 1.312-1.008.409-.693.684-1.72.682-2.862z"/>
        <path fill="#e6e6e6" d="M9.937 19.138l-.004-7.393h1.3l.002 5.269 2.452 2.123z"/>
        <path fill="#595959" d="M3.977 18.048h2.989v-1.3H3.977z"/>
    </g>
</svg>
