<svg xmlns="http://www.w3.org/2000/svg" width="32" height="32" viewBox="0 0 32 32">
    <path fill="#595959" d="M19.313 30.686l-.002-3.719h4.056l6.107-4.829V1.361H6.85L2.522 6.279v20.688h9.98v3.72z"/>
    <path fill="red" d="M14.236 30.687h3.343v-3.719h-3.343zM27.742 21.297l-3.807 3.01V7.028l3.807-3.01zM22.77 5.74H5.306l2.33-2.647h18.48zM4.256 25.233H22.2V7.475H4.256z"/>
    <path fill="#595959" d="M5.977 9.358v4.34h2.898l-4.407 5.437 6.364 5.154 7.817-9.63-1.181-.96h2.917v-4.34z"/>
    <path fill="#e6e6e6" d="M11.527 13.18l-.381 3.382-3.227 1.068z"/>
    <path fill="#e6e6e6" d="M10.577 21.853l-2.872-2.327 5.04-1.67.59-5.277 2.876 2.332z"/>
</svg>
