<svg xmlns="http://www.w3.org/2000/svg" width="32" height="32" viewBox="0 0 32 32">
    <defs>
        <clipPath id="a">
            <path d="M0 24h24V0H0z"/>
        </clipPath>
    </defs>
    <g clip-path="url(#a)" transform="matrix(1.33333 0 0 -1.33333 0 32)">
        <path fill="#ff8c00" d="M19.764 5.068c-.15-.87-.334-1.566-.511-1.994a2.394 2.394 0 0 0-.072-.162l-.007.015c-.05.112-.104.253-.161.422l-.008.023a9.776 9.776 0 0 0-.168.58c-.01.033-.017.066-.026.101-.054.215-.107.452-.155.704-.01.04-.016.083-.024.124-.05.27-.097.551-.137.852a36.181 36.181 0 0 0-.273 2.74c.206-.038.416-.064.633-.064.46 0 .897.095 1.302.253-.085-1.372-.22-2.6-.393-3.594m-1.661 6.918c0 .86.043 2.152.043 2.152.223.075.46.124.709.125a2.256 2.256 0 0 0 1.375-.476c.129-.099.245-.212.35-.336l.035-.04c.088-.11.166-.229.234-.353.016-.029.032-.057.047-.087.056-.115.099-.238.137-.364.01-.039.026-.076.035-.115.038-.163.06-.33.06-.506 0-.174-.022-.342-.06-.505-.01-.039-.025-.077-.036-.116a2.355 2.355 0 0 0-.136-.363c-.015-.03-.031-.058-.048-.088a2.242 2.242 0 0 0-.268-.393 2.26 2.26 0 0 0-1.725-.81c-.248 0-.483.05-.706.123a53.171 53.171 0 0 0-.046 2.152m-.784-7.14c.04-.232.084-.453.128-.663.004-.023.01-.044.015-.066.039-.185.08-.364.123-.532l-9.102 4.62c-.024.096-.047.196-.07.298-.033.148-.067.295-.097.452-.03.154-.053.318-.08.48-.024.154-.05.307-.071.467-.024.188-.04.385-.058.58-.013.147-.031.288-.04.438-.02.291-.027.59-.031.893 0 .06-.005.114-.005.173 0 .07.005.135.006.204.004.292.012.583.03.864.009.147.026.285.039.43.019.2.035.4.06.593.019.144.042.281.064.42.029.183.057.367.09.542.025.125.052.242.078.362.028.126.057.25.087.37l9.102 4.617c-.03-.113-.055-.244-.083-.365-.025-.107-.051-.209-.074-.322a17.757 17.757 0 0 1-.148-.81 29.566 29.566 0 0 1-.168-1.18c-.016-.13-.03-.27-.043-.405a38.025 38.025 0 0 1-.115-1.246 65.788 65.788 0 0 1-.082-1.298 78.199 78.199 0 0 1-.035-.896c-.005-.156-.012-.308-.015-.466a65.007 65.007 0 0 1-.02-1.414c0-2.776.193-5.288.515-7.14M18.6 18.903c.15.871.333 1.568.51 1.995.025.062.049.112.074.161.216-.469.512-1.51.683-2.819.125-.857.22-1.853.289-2.932a3.572 3.572 0 0 1-1.302.253 3.61 3.61 0 0 1-.637-.064s.19 2.3.383 3.406M6.82 10.295a16.61 16.61 0 0 1 .267-1.827c.004-.018.005-.04.009-.057h-4.29a16.137 16.137 0 0 0-.395 3.576c0 1.314.158 2.54.397 3.575h4.289c-.003-.017-.005-.037-.01-.054a16.994 16.994 0 0 1-.267-1.832 17.348 17.348 0 0 1-.09-1.69c0-.585.037-1.146.09-1.69m15.61 1.69c0 .916-.354 1.743-.92 2.375-.077 1.823-.238 3.461-.466 4.767-.163.93-.352 1.688-.59 2.267-.25.532-.468 1.101-1.271 1.183a1.329 1.329 0 0 1-.458-.132c-.04-.019-.073-.042-.107-.064-.042-.025-.09-.044-.125-.074L7.766 16.864H1.805l-.13-.48c-.338-1.244-.562-2.753-.564-4.397.002-1.646.226-3.155.564-4.396l.128-.48h5.963l10.72-5.442c.038-.032.088-.05.13-.078.035-.022.068-.045.107-.065a1.37 1.37 0 0 1 .46-.132c.803.082 1.02.651 1.272 1.186.552 1.366.92 3.916 1.05 7.025.57.634.925 1.463.925 2.381"/>
    </g>
</svg>
