<svg xmlns="http://www.w3.org/2000/svg" width="32" height="32" viewBox="0 0 32 32">
    <defs>
        <clipPath id="a">
            <path d="M0 24h24V0H0z"/>
        </clipPath>
    </defs>
    <g clip-path="url(#a)" transform="matrix(1.33333 0 0 -1.33333 0 32)">
        <path fill="#00f" d="M20.633 5.793c-.145-.145-.391-.25-.827-.254-.72-.017-1.787.345-3.03 1.002l.994 6.354c1.997-2.574 3.155-4.982 3.125-6.267-.004-.434-.11-.68-.262-.835M6.826 7.7c-1.67 1.634-2.604 5.462-2.588 9.07 0 .316.01.628.024.941 1.008-2.176 2.884-4.713 5.36-7.216 2.5-2.473 5.037-4.348 7.214-5.355a20.91 20.91 0 0 0-.941-.025c-3.61-.014-7.44.918-9.07 2.585m6.503-5.322l.057-.15H3.508c.135.363.33.824.596 1.316.555 1.036 1.41 2.136 2.572 2.7 1.475-1.089 3.532-1.754 5.748-2.087.407-.633.709-1.278.904-1.779M5.752 21.773c1.285.031 3.695-1.129 6.267-3.126l-6.355-.997c-.657 1.245-1.021 2.315-1.001 3.034a2.247 2.247 0 0 0 .023.309c.039.249.124.411.233.516.154.154.4.262.833.264m11.21-2.351c.225.226.507.333.795.333a1.116 1.116 0 0 0 1.12-1.12c0-.287-.105-.571-.33-.795a1.11 1.11 0 0 0-.79-.326 1.112 1.112 0 0 0-.79.328 1.12 1.12 0 0 0-.331.797c.002.287.107.567.326.783m-1.24-1.938a2.35 2.35 0 0 1 .377-.509c.153-.155.327-.274.509-.375l-5.667-5.668c-.15.146-.303.281-.452.431-.151.151-.286.303-.433.455zm-2.003-.269l-4.51-4.51a27.66 27.66 0 0 0-2.89 3.805l6.966 1.094c.145-.127.289-.256.434-.389m-1.888-7.13l4.508 4.509c.13-.145.262-.289.388-.434l-1.092-6.963a27.442 27.442 0 0 0-3.804 2.888m10.29-3.457c-.035 2.043-1.584 4.903-4.095 7.899l.287 1.834a2.33 2.33 0 0 1 1.106.612c.456.461.689 1.064.687 1.662a2.33 2.33 0 0 1-.687 1.658l-.001.002a2.352 2.352 0 0 1-1.661.689 2.335 2.335 0 0 1-1.658-.691 2.285 2.285 0 0 1-.616-1.103l-1.832-.287c-2.996 2.512-5.855 4.063-7.9 4.097-.64.002-1.254-.175-1.698-.622-.282-.277-.445-.63-.535-1.01l-.008.002c-.334-1.385-.498-2.975-.498-4.6.015-3.655.81-7.478 2.716-9.656C2.933 5.43 2.106 1.802 2.07 1.762L1.879 1h13.135l-.19.762c-.008.03-.26 1.027-.88 2.218.65-.052 1.302-.089 1.95-.092 1.626 0 3.213.165 4.6.496l-.003.013c.378.087.73.25 1.012.531.443.449.622 1.062.618 1.7"/>
    </g>
</svg>
