<svg xmlns="http://www.w3.org/2000/svg" width="32" height="32" viewBox="0 0 32 32">
    <defs>
        <clipPath id="a">
            <path d="M0 24h24V0H0z"/>
        </clipPath>
    </defs>
    <g clip-path="url(#a)" transform="matrix(1.33333 0 0 -1.33333 0 32)">
        <path fill="#ff8c00" d="M21.773 9.258a1.383 1.383 0 0 0-1.38-1.38h-7.298l-2.91-2.905v2.906h-6.58a1.384 1.384 0 0 0-1.379 1.379v10.127c.002.76.617 1.376 1.38 1.379h16.788a1.381 1.381 0 0 0 1.379-1.38zm-1.38 12.733H3.605A2.605 2.605 0 0 1 1 19.385V9.258a2.605 2.605 0 0 1 2.605-2.605h5.353V2.01l4.643 4.643h6.792A2.606 2.606 0 0 1 23 9.258v10.127a2.605 2.605 0 0 1-2.607 2.606"/>
        <path fill="#ff8c00" d="M4.321 16.633h15.357v1.229H4.321zM4.321 13.684h15.357v1.229H4.321zM4.322 10.736h13.392v1.227H4.322z"/>
    </g>
</svg>
