<svg xmlns="http://www.w3.org/2000/svg" width="32" height="32" viewBox="0 0 32 32">
    <path fill="#b45000" d="M21.478 27.341l-.003-9.716h7.556v9.716zM2.968 9.333l3.038 3.075v8.928l-3.037-2.981zm11.529.047l-1.202-1.22h.903zm1.622-1.22l-.118.485-.12-.485zm4.074 0l3.048 3.097h-6.196l.76-3.097zM21 15.988l-3.047-3.093h6.897l3.047 3.096zm-8.678 1.637h7.515l.001 9.716h-7.516zm-1.638-.48v9.019l-3.06-3.187v-8.93zM7.17 11.257L4.11 8.16H11l3.047 3.097zm4.673 4.73l-3.057-3.092h6.873l3.044 3.093zm9.035-9.463h-2.67l.763-3.11-1.588-.391-.861 3.5h-1.043l-.858-3.5-1.59.39.764 3.11H1.334v12.504l9.825 9.95h19.508V16.473z"/>
</svg>
