<svg xmlns="http://www.w3.org/2000/svg" width="32" height="32" viewBox="0 0 32 32">
    <defs>
        <clipPath id="a">
            <path d="M0 24h24V0H0z"/>
        </clipPath>
    </defs>
    <g clip-path="url(#a)" transform="matrix(1.33333 0 0 -1.33333 0 32)">
        <path fill="#595959" d="M17.76 6.481c-1.696-1.738-6.241-3.435-14.087-3.869l5.149 5.15A1.956 1.956 0 1 1 7.76 8.824l-5.15-5.15c.434 7.847 2.13 12.391 3.87 14.087.822.821 1.965 1.428 3.39 1.428 1.177 0 2.584-.414 4.214-1.577l.515-.37 3.643 3.641 2.638-2.637-3.642-3.64.37-.52c1.164-1.626 1.575-3.034 1.578-4.21-.003-1.427-.608-2.57-1.427-3.395m5.243 11.766l-4.76 4.756-3.814-3.813c-1.627 1.05-3.17 1.5-4.557 1.5-1.87 0-3.403-.813-4.452-1.869-2.382-2.429-4.103-7.8-4.391-17.019l-.024-.793.796.023c9.218.288 14.592 2.007 17.022 4.388 1.05 1.052 1.864 2.586 1.864 4.456 0 1.387-.45 2.93-1.498 4.557z"/>
    </g>
</svg>
