<svg xmlns="http://www.w3.org/2000/svg" width="32" height="32" viewBox="0 0 32 32">
    <defs>
        <clipPath id="a">
            <path d="M0 24h24V0H0z"/>
        </clipPath>
    </defs>
    <g clip-path="url(#a)" transform="matrix(1.33333 0 0 -1.33333 0 32)">
        <path fill="#003c96" d="M17.706 4.77H3.13V6.6h13.947v2.145a1.862 1.862 0 0 1-.958 1.627l1.086 5.103c.682.14 1.263.632 1.423 1.36l.823 3.867c.014.065.013.124.02.186l1.59-.338zM5.086 8.745c0 .32.253.555.508.555h9.675c.254 0 .507-.235.507-.556V7.9H5.086zm11.178 8.592l.82 3.869v.002c.041.214.26.39.527.39a.667.667 0 0 0 .127-.012c.275-.057.453-.298.45-.516a.472.472 0 0 0-.01-.1l-.823-3.864c-.043-.216-.258-.393-.524-.393a.63.63 0 0 0-.13.013c-.275.057-.452.298-.448.518 0 .025.002.058.011.092m2.7 4.988a1.892 1.892 0 0 1-1.353.574c-.837.002-1.612-.556-1.798-1.424l-.82-3.866a1.72 1.72 0 0 1-.04-.364 1.827 1.827 0 0 1 .96-1.59l-1.076-5.055H5.594c-1.022-.006-1.806-.85-1.808-1.855V7.9H1.83V3.47h1.265V.996h15.877v3.472l3.632 17.084z"/>
    </g>
</svg>
