<svg xmlns="http://www.w3.org/2000/svg" width="32" height="32" viewBox="0 0 32 32">
    <defs>
        <clipPath id="a">
            <path d="M0 24h24V0H0z"/>
        </clipPath>
    </defs>
    <g clip-path="url(#a)" transform="matrix(1.33333 0 0 -1.33333 0 32)">
        <path fill="#00f" d="M20.213 3.857c-.078-.497-.33-.903-.75-1.217a1.797 1.797 0 0 0-1.41-.35c-.496.08-.901.336-1.213.77-.315.428-.432.895-.352 1.392.08.514.338.923.77 1.227.43.304.894.415 1.39.337a1.82 1.82 0 0 0 1.233-.755c.303-.422.414-.888.332-1.404M12 9.187a.627.627 0 1 0 0 1.254.627.627 0 0 0 0-1.254M7.16 3.06c-.313-.433-.717-.69-1.213-.77a1.793 1.793 0 0 0-1.41.351c-.42.314-.671.72-.75 1.217-.082.516.03.982.333 1.404.303.421.715.672 1.232.755.496.078.96-.033 1.39-.337a1.79 1.79 0 0 0 .77-1.227c.079-.497-.038-.964-.351-1.393m13.743 2.944c-.503.698-1.191 1.115-2.058 1.253a2.93 2.93 0 0 1-1.422-.126 3.404 3.404 0 0 1-1.262-.75l.004.032-2.291 3.151c.215.168.35.284.35.284.369.635.74 1.295 1.117 1.98.379.682 4.528 9.892 4.528 9.892l-.45.63L12 12.142 4.579 22.35l-.45-.63s4.15-9.21 4.529-9.893c.377-.684.748-1.344 1.117-1.979 0 0 .135-.116.35-.283L7.834 6.412l.004-.032c-.37.344-.792.595-1.261.75a2.935 2.935 0 0 1-1.423.126c-.867-.138-1.554-.555-2.06-1.253-.504-.693-.685-1.477-.548-2.343a3.045 3.045 0 0 1 1.249-2.045c.698-.517 1.48-.703 2.348-.565.85.136 1.529.556 2.044 1.266a3.02 3.02 0 0 1 .51 2.578 7.69 7.69 0 0 1-.096.303l1.802 2.484c.237.11 1.097.501 1.597.733.5-.232 1.36-.623 1.597-.733l1.802-2.484a7.441 7.441 0 0 1-.096-.303 2.004 2.004 0 0 1-.055-.244c-.137-.85.053-1.629.565-2.334.515-.71 1.195-1.13 2.045-1.266.867-.138 1.65.048 2.347.565a3.044 3.044 0 0 1 1.248 2.045c.139.866-.043 1.65-.55 2.343"/>
    </g>
</svg>
