<svg xmlns="http://www.w3.org/2000/svg" width="32" height="32" viewBox="0 0 32 32">
    <defs>
        <clipPath id="a">
            <path d="M0 24h24V0H0z"/>
        </clipPath>
    </defs>
    <g clip-path="url(#a)" transform="matrix(1.33333 0 0 -1.33333 0 32)">
        <path fill="#f0f" d="M13.901 16.748a2.092 2.092 0 1 0 0 4.185 2.093 2.093 0 1 0 0-4.185m6.952 4.095a7.369 7.369 0 0 1-10.423 0 7.367 7.367 0 0 1-.437-9.929L1.511 2.432 1.001 1l1.43.513 8.482 8.48c2.897-2.432 7.217-2.289 9.938.437a7.382 7.382 0 0 1 .002 10.413"/>
    </g>
</svg>
