<svg xmlns="http://www.w3.org/2000/svg" width="32" height="32" viewBox="0 0 32 32">
    <defs>
        <clipPath id="a">
            <path d="M0 24h24V0H0z"/>
        </clipPath>
    </defs>
    <path fill="#595959" d="M6.215 18.532h2.413v-1.637H6.215zM10.507 18.532h2.413v-1.637h-2.413zM17.205 16.896h-2.413v1.637h2.413zM21.495 16.897h-2.411v1.636h2.41zM23.37 18.532h2.415v-1.637H23.37zM8.627 19.777H6.216v1.638h2.41zM10.507 21.415h2.41v-1.638h-2.41zM17.205 19.777h-2.41v1.638h2.41zM19.084 21.415h2.41v-1.638h-2.41zM23.37 21.413h2.415v-1.636H23.37zM6.217 24.296h2.411V22.66h-2.41zM10.505 24.296h2.412V22.66h-2.412zM17.205 22.66h-2.412v1.636h2.412zM19.084 24.296h2.413V22.66h-2.413zM23.37 24.296h2.415v-1.637H23.37zM6.215 27.177h2.412V25.54H6.215zM10.504 27.177h2.412V25.54h-2.412zM14.795 27.177h2.412V25.54h-2.412zM19.084 27.177h2.412V25.54h-2.412zM23.372 27.177h2.413V25.54h-2.413zM27.29 13.355H4.71v1.636h22.58z"/>
    <path fill="#595959" d="M3.066 28.93H28.93l-.003-25.864H3.066zm-1.732 1.733V1.333h29.33v29.33z"/>
    <g clip-path="url(#a)" transform="matrix(1.33333 0 0 -1.33333 0 32)">
        <path fill="#595959" d="M11.415 14.75v.786l.024.053.03.082.007.008c.006.017.017.042.03.072.03.066.07.157.122.262.105.21.249.471.436.699.555.65 1.306.969 1.832 1.283.56.338.759.546.755.838v.003l-.001.011c-.073.528-.087.718-1.056.802-.988-.084-1-.274-1.072-.806v-.566h-1.106l.004.52c-.004.031-.004.05-.004.052 0 .491.159 1.002.549 1.372.39.374.95.553 1.62.553.669 0 1.233-.179 1.622-.553.364-.348.528-.818.546-1.279l.002-.003V18.838c-.006-.966-.728-1.484-1.31-1.816-.607-.347-1.226-.651-1.542-1.044a1.353 1.353 0 0 1-.08-.105h2.932V14.75zM9.334 14.75v4.616l-.674-.382-.516.991 1.402.799h.89V14.75z"/>
    </g>
</svg>
