<svg xmlns="http://www.w3.org/2000/svg" width="32" height="32" viewBox="0 0 32 32">
    <defs>
        <clipPath id="a">
            <path d="M0 24h24V0H0z"/>
        </clipPath>
    </defs>
    <g clip-path="url(#a)" transform="matrix(1.33333 0 0 -1.33333 0 32)">
        <path fill="#ff8c00" d="M6.617 9.832L3.36 19.248l14.018-7.01 3.257-9.417zm.116 11.561l7.55-3.776a.615.615 0 0 1 .785.209l1.537 2.297 4.49-2.246V5.252l-2.637 7.624a.608.608 0 0 1-.306.349L6.733 18.934zm15.25-2.588l-5.313 2.659a.613.613 0 0 1-.784-.208l-1.539-2.296-7.955 3.975a.61.61 0 0 1-.887-.55v-2.838l-2.944 1.472a.612.612 0 0 1-.854-.75l3.83-11.076a.625.625 0 0 1 .308-.349l15.591-7.796c.004-.003.01-.002.016-.004.08-.038.415-.11.662.091.247.201.21.452.21.462v16.657a.61.61 0 0 1-.34.551"/>
    </g>
</svg>
