<svg xmlns="http://www.w3.org/2000/svg" width="32" height="32" viewBox="0 0 32 32">
    <defs>
        <clipPath id="a">
            <path d="M0 24h24V0H0z"/>
        </clipPath>
    </defs>
    <path fill="#595959" d="M29.026 29.026l-2.904.001V2.97h2.904zm-25.556.001L9.105 8.006h15.133l-5.633 21.021zm21.017.002H20.3l4.188-15.631zM7.661 1.333v5.745L1.339 30.665h29.323V1.333z"/>
    <g clip-path="url(#a)" transform="matrix(1.33333 0 0 -1.33333 0 32)">
        <path fill="#595959" d="M7.784 5.533l.084.314.107.404.08.298.021.031.058.086.02.033.076.117c.064.1.157.235.268.39.222.31.52.696.843 1.015.97.936 2.11 1.42 2.994 1.912.923.514 1.428.921 1.584 1.532.045.201.071.383.071.54-.032.522-.168.781-1.267.86-1.417-.072-1.808-.599-2.109-1.5l-.005-.019-.16-.59h-1.22l.083.314.11.403c.185.706.573 1.407 1.191 1.918.617.51 1.41.781 2.318.78.905.001 1.6-.272 1.981-.832.223-.33.314-.724.312-1.13a3.49 3.49 0 0 0-.119-.865c-.362-1.329-1.433-2.036-2.373-2.549-.97-.528-1.98-.993-2.658-1.664a4.772 4.772 0 0 1-.425-.49h4.201l-.082-.315-.265-.993zM5.888 5.534l1.913 7.184-1.168-.63-.068.33-.18.888 1.974 1.063H9.457L7.102 5.534z"/>
    </g>
</svg>
