<svg xmlns="http://www.w3.org/2000/svg" width="32" height="32" viewBox="0 0 32 32">
    <path fill="#00f" d="M5.764 28.93H3.065v-5.435h2.699zm0-6.693H3.065v-5.606h2.699zm0-6.865H3.065V9.768h2.699zm4.137-6.864V5.885H5.764v2.623H3.065V3.065h25.863v5.443zm16.788 6.864v-2.293h-4.138v2.293H9.9V9.768H28.93v5.604zm0 1.259h2.242v5.606h-2.242zm2.242 12.3h-2.243v-5.436h2.243zm-10.636-5.436h4.256v5.436h-4.256zm-4.136-6.099v4.841H9.9v-5.606h12.65v5.606h-4.256v-4.841zM9.9 23.495h4.258v5.436H9.9zm-8.568 7.172h29.334V1.333H1.333z"/>
</svg>
