<svg xmlns="http://www.w3.org/2000/svg" width="32" height="32" viewBox="0 0 32 32">
    <g fill="#ff8c00">
        <path d="M22.62 5.568H11.307v1.637H22.62zM22.62 9.217H11.307v1.636H22.62z"/>
        <path d="M7.928 27.195h17.496v1.834H7.928zm0-4.459v-3.275h1.365v-1.426H7.928V14.76h1.365V13.34H7.928v-3.276h1.365V8.639H7.928V5.36h1.365v-1.42H7.928v-.969h17.496v22.585H7.928V24.16h1.365v-1.424zM6.293 1.333v2.608H4.936v1.42h1.357V8.64H4.936v1.424h1.357v3.276H4.936v1.422h1.357v3.274H4.936v1.426h1.357v3.275H4.936v1.424h1.357v6.507h20.772V1.333z"/>
    </g>
</svg>
