<svg xmlns="http://www.w3.org/2000/svg" width="32" height="32" viewBox="0 0 32 32">
    <defs>
        <clipPath id="a">
            <path d="M0 24h24V0H0z"/>
        </clipPath>
    </defs>
    <path fill="#00f" d="M28.948 28.947H5.478l3.953-3.952 1.58 1.581.933-.935-1.579-1.58 6.528-6.529 1.752 1.757.936-.934-1.756-1.755 6.879-6.877 1.58 1.58.933-.932-1.578-1.582 3.309-3.312zM1.333 30.665h29.334V1.335z"/>
    <g clip-path="url(#a)" transform="matrix(1.33333 0 0 -1.33333 0 32)">
        <path fill="#00f" d="M16.582 6.316a1.102 1.102 0 1 0 0 2.205c.609 0 1.102-.493 1.104-1.102a1.105 1.105 0 0 0-1.104-1.103m0 3.492a2.396 2.396 0 0 1-2.393-2.389 2.394 2.394 0 0 1 2.393-2.389 2.39 2.39 0 1 1 0 4.778"/>
    </g>
</svg>
