<svg xmlns="http://www.w3.org/2000/svg" width="32" height="32" viewBox="0 0 32 32">
    <defs>
        <clipPath id="a">
            <path d="M0 24h24V0H0z"/>
        </clipPath>
    </defs>
    <g clip-path="url(#a)" transform="matrix(1.33333 0 0 -1.33333 0 32)">
        <path fill="#f0f" d="M17.426 17.486l.003.415v5.1h-2.947v-1.982c0-.75-.78-1.81-2.346-1.81S9.79 20.27 9.79 21.02V23H6.843v-5.099c.002-1.173.073-2.919-.312-3.91-.384-.99-2.03-1.353-2.03-1.353V5.525zM17.74 13.99a3.66 3.66 0 0 0-.166.627L4.501 2.518V1H19.77v11.638s-1.645.362-2.03 1.352"/>
    </g>
</svg>
