<svg xmlns="http://www.w3.org/2000/svg" width="32" height="32" viewBox="0 0 32 32">
    <defs>
        <clipPath id="a">
            <path d="M0 24h24V0H0z"/>
        </clipPath>
    </defs>
    <path fill="#595959" d="M8.353 24.986l-.773-1.383.768-.835.773 1.384 1.443.662-.77.833zM9.832 23.376l-1.021-1.212.598-.964 1.02 1.214 1.542.378-.599.963zM10.982 21.512l-1.233-.996.403-1.06 1.234.997 1.584.077-.404 1.06zM11.77 19.296l-1.397-.748.198-1.118 1.4.75 1.57-.22-.202 1.12zM12.163 16.83l-1.507-.493-.001-1.134 1.51.494 1.507-.492-.001 1.136zM12.15 14.59l-1.569-.231-.193-1.118 1.57.232 1.404-.741.19 1.119zM11.761 12.486l-1.584.06-.393-1.061 1.585-.061 1.245-.987.392 1.067zM11 10.435l-1.543.364-.591-.967 1.545-.365 1.032-1.205.588.97zM9.861 8.578l-1.444.655-.766-.834 1.446-.657.78-1.384.764.84zM23.647 7.014l.774 1.383-.767.835-.776-1.386-1.443-.664.77-.833zM22.17 8.622l1.02 1.212-.598.964-1.02-1.214-1.543-.378.599-.964zM21.02 10.487l1.231.995-.4 1.06-1.236-.996-1.586-.078.405-1.061zM20.232 12.702l1.396.75-.199 1.115-1.395-.75-1.576.22.2-1.12zM19.839 15.167l1.505.493.001 1.133-1.508-.492-1.51.491v-1.136zM19.852 17.408l1.568.232.193 1.116-1.57-.23-1.406.74-.19-1.12zM20.238 19.51l1.584-.06.394 1.063-1.584.061-1.244.986-.395-1.068zM21.001 21.56l1.543-.361.59.965-1.543.367-1.034 1.205-.589-.973zM22.138 23.417l1.447-.651.764.833-1.446.656-.78 1.383-.765-.839z"/>
    <g clip-path="url(#a)" transform="matrix(1.33333 0 0 -1.33333 0 32)">
        <path fill="#595959" d="M19.189 5.54l-.475.353-.974-.683-.382-1.127.097-.073A9.66 9.66 0 0 0 12 2.318 9.653 9.653 0 0 0 6.516 4.03l.07.052-.975.684-.382 1.126-.44-.33A9.654 9.654 0 0 0 2.316 12a9.66 9.66 0 0 0 2.494 6.464l.478-.356.972.685.382 1.126-.099.074a9.648 9.648 0 0 0 10.939-.021l-.067-.05.974-.687.383-1.126.438.331A9.662 9.662 0 0 0 21.68 12a9.656 9.656 0 0 0-2.493-6.46M12 22.983C5.934 22.984 1.016 18.067 1.016 12 1.016 5.935 5.934 1.018 12 1.018S22.983 5.935 22.983 12c0 6.067-4.917 10.984-10.983 10.984"/>
    </g>
</svg>
