<svg xmlns="http://www.w3.org/2000/svg" width="32" height="32" viewBox="0 0 32 32">
    <defs>
        <clipPath id="a">
            <path d="M0 24h24V0H0z"/>
        </clipPath>
    </defs>
    <g clip-path="url(#a)" transform="matrix(1.33333 0 0 -1.33333 0 32)">
        <path fill="#00be3c" d="M5.375 22.19L5.373 6.608a1 1 0 0 1 2 0v9.544h8.189v6.038z"/>
        <path fill="#00be3c" d="M17.163 7.22a1.625 1.625 0 0 0-1.623 1.62 1.626 1.626 0 0 0 1.623 1.625 1.626 1.626 0 0 0 1.622-1.624 1.625 1.625 0 0 0-1.622-1.621m2.784.78c.081.269.138.547.138.84a2.925 2.925 0 0 1-2.922 2.925 2.913 2.913 0 0 1-2.9-2.711A31.25 31.25 0 0 1 12 9.143c-1.159 0-2.274-.061-3.324-.172V6.61v-.014c2.128-.014 3.844-.592 3.844-1.305 0-.722-1.757-1.307-3.92-1.307-1.18 0-2.225.176-2.944.45a2.347 2.347 0 0 0-.298.12l-.034.02a2.285 2.285 0 0 0-.317.195c-.014.01-.027.022-.04.033a2.29 2.29 0 0 0-.894 1.808v1.404C2.173 7.354 1 6.462 1 5.476 1 3.45 5.926 1.81 12 1.81c6.075 0 11 1.64 11 3.666 0 .98-1.17 1.867-3.053 2.524"/>
    </g>
</svg>
