<svg xmlns="http://www.w3.org/2000/svg" width="32" height="32" viewBox="0 0 32 32">
    <defs>
        <clipPath id="a">
            <path d="M0 24h24V0H0z"/>
        </clipPath>
    </defs>
    <path fill="#ff8c00" d="M22.992 16.828h-2.527l1.262 1.263zm-1.183 9.417l-.122-.122-1.67 1.672 1.18 1.224zm1.02-4.769l-1.102-1.101-1.71 1.753 1.67 1.67.816-.775zm-2.284 3.464l-1.712-1.67-1.672 1.67 1.672 1.713zm0-5.705l-1.672-1.714-1.712 1.752 1.672 1.672zm-3.22-2.407h-2.61l1.305 1.303zm.366 5.3l-1.67-1.712-1.713 1.712 1.712 1.67zm0 5.667l-1.67-1.715-1.794 1.797 1.712 1.712zm-2.812-8.522l-1.795-1.752-1.63 1.714 1.713 1.71zm0 5.667l-1.712-1.67-1.755 1.751 1.672 1.714zm-2.936 2.937l-1.712-1.672-.042.04.612 2.774zm.041-5.749l-1.713-1.753-1.059 1.101.324 1.712.695.692zm-.45-5.3H9.008l1.264 1.263zm15.862 0h-1.959L22.503 30.65h-1.958l-1.712-1.67-1.672 1.67h-2.446l-1.63-1.63-1.632 1.63H9.456L6.56 16.83H4.603V14.38h22.793z"/>
    <g clip-path="url(#a)" transform="matrix(1.33333 0 0 -1.33333 0 32)">
        <path fill="#ff8c00" d="M14.991 16.746c-.423.29-.73.652-.863 1.061h1.212a3.337 3.337 0 0 0-.349-1.06m-6.332 1.06H9.87c-.13-.409-.439-.772-.863-1.06a3.36 3.36 0 0 0-.348 1.06m.347 2.062c.425-.288.733-.65.865-1.06H8.66c.057.378.176.733.347 1.06m1.992-2.062h.452v-2.834a3.366 3.366 0 0 0-1.774.877c.676.472 1.172 1.156 1.322 1.957M13 18.81h-.45v2.834a3.37 3.37 0 0 0 1.774-.878c-.678-.472-1.174-1.156-1.324-1.956m-3.326 1.956a3.37 3.37 0 0 0 1.776.878V18.81h-.452c-.15.8-.646 1.484-1.324 1.956m4.65-4.915a3.377 3.377 0 0 0-1.774-.877v2.834H13c.151-.8.646-1.485 1.323-1.957m1.017 2.96h-1.213c.133.408.441.771.865 1.06.171-.328.291-.682.348-1.06M12 23a4.694 4.694 0 0 1-4.694-4.692A4.691 4.691 0 1 1 12 23"/>
    </g>
</svg>
