<svg xmlns="http://www.w3.org/2000/svg" width="32" height="32" viewBox="0 0 32 32">
    <defs>
        <clipPath id="a">
            <path d="M0 24h24V0H0z"/>
        </clipPath>
    </defs>
    <g clip-path="url(#a)" transform="matrix(1.33333 0 0 -1.33333 0 32)">
        <path fill="#00f" d="M10.726 18.657a2.127 2.127 0 1 1 0 4.255 2.127 2.127 0 0 1 0-4.255M20.947 8.453a.97.97 0 0 1-1.3.44l-3.888-1.939v.003s-.69 1.297-1.374 2.385l-1.152 6.537 2.234-.254-.416-1.765a1.051 1.051 0 0 1 1.021-1.29c.478 0 .908.325 1.023.808l.685 2.915c.005.02-.002.037.002.056.004.024.018.043.02.067.006.053-.01.1-.013.152-.002.07-.002.136-.018.202a.948.948 0 0 1-.07.186 1.05 1.05 0 0 1-.093.18c-.038.052-.084.095-.132.141a.983.983 0 0 1-.155.132c-.058.037-.12.06-.186.085-.046.02-.085.051-.136.063-.022.005-.043-.002-.065.001-.02.004-.037.017-.057.02l-4.442.505a2.575 2.575 0 0 1-1.31.274 2.783 2.783 0 0 1-1.336-.469l-.01-.005-.078-.055c-.024-.017-.049-.033-.07-.05L7.11 16l-2.273 1.624a1.05 1.05 0 1 1-1.224-1.708l2.882-2.058c.014-.009.03-.013.044-.022.064-.04.131-.074.201-.1.028-.01.054-.023.082-.03.087-.025.176-.04.267-.042l.016-.002c.097 0 .192.017.285.043.025.007.048.018.073.027.073.026.142.06.208.103.013.008.027.011.04.02l1.568 1.107-.173-4.832a108.635 108.635 0 0 1-2.116-1.862 1.034 1.034 0 0 1-.415-.639L4.541 2.514c-.183-.457.037-1.122.58-1.352a1.041 1.041 0 0 1 1.353.58L8.29 6.305l.214.54c.1.045.198.092.295.145 0 0 1.606.845 2.746 1.587.634-.907 2.941-3.435 2.941-3.435.21-.294.547-.45.896-.437.036 0 .07.01.104.014.053.007.106.005.158.021.034.011.055.03.086.043.02.008.038.007.057.016l4.722 2.357c.413.203.672.803.438 1.297"/>
    </g>
</svg>
