<svg xmlns="http://www.w3.org/2000/svg" width="32" height="32" viewBox="0 0 32 32">
    <defs>
        <clipPath id="a">
            <path d="M0 24h24V0H0z"/>
        </clipPath>
    </defs>
    <g clip-path="url(#a)" transform="matrix(1.33333 0 0 -1.33333 0 32)">
        <path fill="#ff8c00" d="M11.03 8.866c-.028.4-.082.744-.182.947-.441.891-2.301 1.575-2.09 1.87.17.24 2.819.536 3.319.586.5.051.875-.144.969-.55.035-.153.137-.816.249-1.582a45.478 45.478 0 0 1-1.621-.887c-.22-.127-.431-.256-.644-.384m4.045 2.152c-.126.864-.256 1.695-.351 2.13-.25 1.145-1.1 1.21-1.564 1.202-1.466-.024-3.741-.463-4.051-.38-.178.048-.402.94-.142 2.435.048.276.112.55.18.82.969-.119 2.76-.263 3.973.1 1.136.337 2.406 1.628 2.779 2.091.38.471.337 1.033.067 1.282-.27.246-.831.201-1.35-.204-.515-.404-1.481-1.255-2.038-1.386-.626-.148-1.931-.07-2.903.066.012.052.019.1.028.15a1.83 1.83 0 0 1 1.78 1.116 1.842 1.842 0 1 1-3.392 1.433 1.833 1.833 0 0 1 .25-1.844 6.07 6.07 0 0 1-.392-.468c-.994-.313-2.79-.976-3.998-1.997-.518-.437-1.704-2.658-1.84-3.272-.137-.614.113-.955.454-1.069.34-.113.714-.133 1.09.547.57 1.023 1.433 2.5 2 2.795.18.093.508.255.89.434-.652-1.67-.982-3.65-.36-5.355.575-1.569 2.395-2.03 2.79-2.909.107-.234.122-.646.097-1.116C4.84 4.765 2.156 1.903 2.41 1.465c.2-.347 2.609.134 5.858 1.442C10.522 7.21 14.696 9.73 18.37 9.744c.342 0 .678-.024 1.005-.068.086-.01.16-.032.244-.045 2.295 1.891 3.609 3.436 3.428 3.75-.241.416-3.7-.368-7.973-2.363"/>
        <path fill="#00f" d="M23 1c-4.256.443-6.063 1.667-6.063 4.125 0 1.154.938 2.25 2.577 2.25 1.549 0 2.135-1.5 1.597-2.395-.338-.562-1.11-.666-1.657-.4-.767.371-.941 1.701.337 2.022-.932.242-2.031-.549-2.031-1.602 0-1.05.99-2.162 2.177-2.162 1.719 0 2.782 1.365 2.782 2.771 0 1.344-.852 3.069-3.43 3.422C15.344 9.572 10.13 6.495 8.125 1z"/>
    </g>
</svg>
