<svg xmlns="http://www.w3.org/2000/svg" width="32" height="32" viewBox="0 0 32 32">
    <defs>
        <clipPath id="a">
            <path d="M0 24h24V0H0z"/>
        </clipPath>
    </defs>
    <g clip-path="url(#a)" transform="matrix(1.33333 0 0 -1.33333 0 32)">
        <path fill="#ff8c00" d="M19.123 14.3c-.338-.25-1.146-.341-2.025-.345.083.214.159.434.236.654.46.01 1.018.004 1.547.374 1.741 1.368 1.852 3.85 1.882 4.335.019.397-.243.788-.51.915-.261.14-.461.14-.556.145a.813.813 0 0 1-.053-.002h-1.065c.024.252.042.505.059.754h2.008c.334.006.612-.037.697-.09.066-.061.091.002.117-.334.031-.863-.113-4.995-2.337-6.406m-6.045-4.19l-.286-.18V7.99h-1.586l.001 1.94-.285.18C8.7 11.43 6.67 17.143 6.542 21.77h10.914c-.126-4.627-2.155-10.338-4.378-11.66M4.876 14.3c-2.223 1.413-2.368 5.542-2.336 6.405.026.338.05.278.115.336.084.053.977.084 1.13.084h1.577c.016-.25.035-.498.058-.75H4.317c.037 0 .014.003-.016.003-.095-.004-.297-.002-.556-.145-.267-.13-.527-.521-.507-.915.029-.484.14-2.968 1.881-4.336.528-.37 1.084-.363 1.546-.373.076-.22.153-.44.236-.654-.881.003-1.688.096-2.025.346m1.394 1.557c-.217.024-.382.066-.419.109-1.003.682-1.339 2.578-1.383 3.185l1.104-.002c.161-1.113.394-2.225.698-3.292m12.158 3.29h1.103c-.045-.611-.382-2.5-1.384-3.18-.036-.044-.202-.085-.419-.11.305 1.067.538 2.179.7 3.29m3.483 2.979c-.449.227-.886.225-1.265.23l-1.958-.003.001.03V23H5.31v-.616l.001-.03c-.455 0-1.801.005-1.962.005-.378-.007-.814-.005-1.264-.231-.468-.221-.798-.802-.772-1.423.033-.911-.073-5.367 2.88-7.424.862-.554 1.925-.544 2.923-.556h.32c.701-1.465 1.555-2.687 2.544-3.447V7.99H8.248L6.813 1h10.372l-1.434 6.99H14.02v1.288c.989.76 1.841 1.982 2.541 3.447l.321-.002c.999.014 2.061.005 2.926.558 2.952 2.059 2.845 6.514 2.879 7.425.026.62-.306 1.202-.776 1.42"/>
    </g>
</svg>
