<svg xmlns="http://www.w3.org/2000/svg" width="32" height="32" viewBox="0 0 32 32">
    <defs>
        <clipPath id="a">
            <path d="M0 24h24V0H0z"/>
        </clipPath>
    </defs>
    <g clip-path="url(#a)" transform="matrix(1.33333 0 0 -1.33333 0 32)">
        <path fill="#b45000" d="M2.647 3.517L4.63 5.499l-2.28 2.28c.13.929.379 1.94.775 2.995l3.39-3.39L8.99 9.86l-.828.827.868.87.829-.83L11.131 12l-.828.827.869.869.828-.826 1.271 1.27-.828.826.867.868.828-.828 2.479 2.479-3.39 3.39c1.052.396 2.063.645 2.993.776l2.281-2.281 1.983 1.983c.274-.11.469-.223.549-.318.096-.081.21-.276.32-.55l-1.984-1.984 2.28-2.281a14.124 14.124 0 0 0-.775-2.992l-3.39 3.389-2.478-2.48.83-.828-.867-.867-.829.83L12.868 12l.829-.83-.868-.868-.829.83-1.272-1.272.829-.828-.868-.87-.83.829-2.475-2.477 3.388-3.388a14.167 14.167 0 0 0-2.993-.776l-2.28 2.279-1.982-1.982c-.274.11-.47.224-.551.319-.095.083-.209.279-.319.55m19.254 18.386c-.757.716-2.143 1.078-4.017 1.097-3.14.002-7.59-1.235-11.617-5.266C2.238 13.703.999 9.258 1.001 6.118c.019-1.872.381-3.26 1.096-4.02.76-.714 2.147-1.077 4.021-1.096h.008c3.139 0 7.582 1.242 11.607 5.267C21.76 10.294 23 14.745 23 17.883c-.021 1.874-.384 3.264-1.099 4.019"/>
    </g>
</svg>
