<svg xmlns="http://www.w3.org/2000/svg" width="32" height="32" viewBox="0 0 32 32">
    <defs>
        <clipPath id="a">
            <path d="M0 24h24V0H0z"/>
        </clipPath>
    </defs>
    <g clip-path="url(#a)" transform="matrix(1.33333 0 0 -1.33333 0 32)">
        <path fill="#00f" d="M21.386 6.676c-.44.25-.694.492-.7.488l-.438.399-.436-.4s-.26-.237-.701-.487c-.44-.256-1.034-.49-1.611-.488-.02 0-1.727 1.232-2.528 1.812-1.114 1.678-4.36 6.758-6.101 7.199-1.242.315-5.625-1-6.375-1.593-.75-.594-.667-1.157-.504-1.551.164-.394.567-.606 1.41-.481.844.125 3.089.819 4.282 1.06.257.054.625-.028.937-.31.272-.244 1.767-2.134 2.157-2.628-.083-.082-.164-.168-.246-.254a2.443 2.443 0 0 1-1.321 1.357 2.449 2.449 0 0 1-3.208-1.301 2.44 2.44 0 0 1 1.265-3.185 2.626 2.626 0 0 0-.768-.125c-.58-.002-1.172.232-1.612.488-.442.25-.695.492-.701.488l-.44.399-.436-.4s-.258-.237-.7-.487C2.17 6.42 1.578 6.186 1 6.188V4.887c1.224.018 2.212.59 2.749.973.536-.383 1.526-.954 2.75-.971 1.225.017 2.214.588 2.75.97.538-.382 1.528-.953 2.75-.97 1.223.017 2.213.588 2.75.97.537-.382 1.527-.953 2.75-.97 1.225.017 2.214.588 2.75.97.537-.382 1.527-.953 2.75-.97v1.299c-.578-.002-1.17.232-1.613.488M15.523 16.54c.575.705 1.37 1.423 1.914 1.551l.016.003c.042.013.09.02.153.02a.669.669 0 0 0 .641-.494.662.662 0 0 0-.472-.809l-.027-.008-.038-.015c-.52-.225-1.629-.465-2.495-.631.095.123.2.252.307.383m2.561-.681a1.66 1.66 0 0 1 1.183 1.593c0 .143-.016.283-.052.42a1.666 1.666 0 0 1-2.05 1.181v-.001c-1.872-.577-3.427-3.317-3.48-3.339l-.577-.929 1.08.172c.022.008 2.707.418 3.896.903M20.738 13.526l.055.01-.02-.005a.34.34 0 0 0 .336-.303c-.002-.006 0-.028 0-.035a.338.338 0 0 0-.3-.335l-.036-.004-.035-.009c-.302-.078-.888-.123-1.434-.149.475.422 1.1.814 1.434.83m-3.058-1.04l-.708-.824h1.09c.022.003 1.96-.01 2.902.208a1.333 1.333 0 0 1 1.144 1.323l-.002.104a1.342 1.342 0 0 1-1.333 1.233c-.03-.002-.09.004-.192-.017-1.486-.256-2.84-2.01-2.9-2.027"/>
    </g>
</svg>
