<svg xmlns="http://www.w3.org/2000/svg" width="32" height="32" viewBox="0 0 32 32">
    <defs>
        <clipPath id="a">
            <path d="M0 24h24V0H0z"/>
        </clipPath>
    </defs>
    <g clip-path="url(#a)" transform="matrix(1.33333 0 0 -1.33333 0 32)">
        <path fill="#00be3c" d="M6.797 10.752c-.306 0-.531.041-.673.123-.142.08-.214.244-.214.488v3.7c0 .529.265.963.795 1.299.53.336 1.08.505 1.65.505h7.369c.57 0 1.11-.159 1.62-.474.51-.316.764-.76.764-1.33v-3.7c0-.244-.072-.408-.213-.488-.143-.082-.358-.123-.642-.123zm.152-3.484a.588.588 0 0 0-.427-.185.572.572 0 0 0-.443.185.605.605 0 0 0-.17.426c0 .184.057.331.17.445a.6.6 0 0 0 .443.168.617.617 0 0 0 .427-.168.576.576 0 0 0 .183-.445.579.579 0 0 0-.183-.426m1.407 12.045h7.307V18.09H8.356zm9.57-12.045a.594.594 0 0 0-.43-.185.575.575 0 0 0-.443.185.613.613 0 0 0-.168.426.61.61 0 0 0 .168.445.604.604 0 0 0 .444.168.603.603 0 0 0 .443-.168.606.606 0 0 0 .168-.445.585.585 0 0 0-.182-.426m-2.263-3.823h1.222v1.223h.612c.632 0 1.095.072 1.39.215.296.141.443.478.443 1.008v11.862c0 .673-.25 1.304-.75 1.895-.498.591-1.073.887-1.725.887H7.132c-.671 0-1.248-.296-1.727-.887-.48-.591-.718-1.222-.718-1.895V5.891c0-.346.07-.606.214-.78.143-.172.332-.29.566-.351.234-.062.483-.092.749-.092h.916V3.445h1.224L3.376 1h2.446l3.756 2.445h4.893L18.197 1h2.448z"/>
    </g>
</svg>
