<svg xmlns="http://www.w3.org/2000/svg" width="32" height="32" viewBox="0 0 32 32">
    <defs>
        <clipPath id="a">
            <path d="M0 24h24V0H0z"/>
        </clipPath>
    </defs>
    <g clip-path="url(#a)" transform="matrix(1.33333 0 0 -1.33333 0 32)">
        <path fill="#595959" d="M23 23H1V1h1.183v15.376c-.003.235.065 1.608 1.393 2.902 1.325 1.295 3.812 2.425 8.425 2.423 4.611.002 7.098-1.128 8.424-2.423 1.236-1.206 1.379-2.477 1.392-2.838V1H23z"/>
        <path fill="#00f" d="M5.322 16.543c.014.815.469 1.274 1.693 1.7 1.2.386 2.988.525 4.982.522 1.992.002 3.782-.137 4.98-.523 1.225-.426 1.68-.885 1.695-1.7V6.237H5.322zM18.5.997h2.479l-4.11 3.94h3.102v11.606c.015 1.539-1.171 2.515-2.6 2.937-1.45.46-3.322.582-5.375.586-2.054-.004-3.926-.126-5.38-.586-1.425-.422-2.61-1.398-2.596-2.937V4.938H7.13L3.02.997h2.478l1.659 1.929h9.686z"/>
        <path fill="#00f" d="M17.856 10.378H6.137v5.619h11.719zM8.849 7.096H6.138V9.56h2.711zM17.856 7.096h-2.711V9.56h2.711zM14.472 16.577H9.523v1.573h4.949z"/>
    </g>
</svg>
