<svg xmlns="http://www.w3.org/2000/svg" width="32" height="32" viewBox="0 0 32 32">
    <defs>
        <clipPath id="a">
            <path d="M0 24h24V0H0z"/>
        </clipPath>
    </defs>
    <path fill="#595959" d="M16 22.063L9.85 7H7.45v18h2.401V12.88L14.8 25h2.399l4.955-12.13V25h2.397V7h-2.397z"/>
    <g clip-path="url(#a)" transform="matrix(1.33333 0 0 -1.33333 0 32)">
        <path fill="#595959" d="M12 2.3c-5.349 0-9.7 4.352-9.7 9.7 0 5.349 4.351 9.7 9.7 9.7 5.349 0 9.7-4.351 9.7-9.7 0-5.348-4.351-9.7-9.7-9.7M12 23C5.925 23 1 18.075 1 12S5.925 1 12 1s11 4.925 11 11-4.925 11-11 11"/>
    </g>
</svg>
