<svg xmlns="http://www.w3.org/2000/svg" width="32" height="32" viewBox="0 0 32 32">
    <defs>
        <clipPath id="a">
            <path d="M0 24h24V0H0z"/>
        </clipPath>
    </defs>
    <g clip-path="url(#a)" transform="matrix(1.33333 0 0 -1.33333 0 32)">
        <path fill="#00f" d="M17.44 2.531h-4.939v6.37l6.043-3.347zm-9.445 8.765v.982h-.747v1.01h1.665v2.32h6.2v-2.32h1.666v-1.01h-.75v-.997L12 13.533zm3.505-.91L5.002 6.791l-.12.328-.41.72 7.028 3.925zm0-7.855H6.557L5.454 5.554 11.5 8.902zm-.567 16.063c0 .046.03.143.194.266l.018.012c.185.132.501.24.866.238.36.002.673-.102.861-.23.01-.007.015-.014.024-.02a.652.652 0 0 0 .157-.156.24.24 0 0 0 .026-.055l.005-.009.001-.006a.24.24 0 0 0 .005-.04v-1.687h-2.156zm1.53 2.628c.166 0 .32-.035.465-.098l.374-.164.31.266c.29.247.644.394 1.04.394.15 0 .303-.028.474-.082l.227-.07.22.093a.715.715 0 0 0 .268.053c.103 0 .21-.035.355-.127l.351-.224.352.226c.147.095.256.131.361.131.29 0 .534-.18.641-.439l.141-.357.384-.047a.673.673 0 0 0 .604-.628l.02-.333.283-.178c.088-.056.17-.124.238-.204l.248-.277.366.072a1.116 1.116 0 0 0 1.312-1.309l-.05-.267.152-.226c.076-.11.1-.185.1-.252a.461.461 0 0 0-.787-.329l-.19.185h-.264a.814.814 0 0 1-.08-.004 1.093 1.093 0 0 0-.796.376l-.249.274-.364-.07a1.105 1.105 0 0 0-1.283.788l-.137.488-.507-.017a.726.726 0 0 1-.07-.006.712.712 0 0 0-.33.14l-.456.311-.38-.398a1.588 1.588 0 0 0-1.416-.473v.153c-.067 1.223-1.229 1.808-2.379 1.818-.009 0-.016-.003-.026-.003a3.2 3.2 0 0 1-.562-.06c-.029-.006-.06-.004-.09-.01.125.507.584.882 1.13.884m7.063-13.384l-.38-.666-.03-.05-.12-.33-6.495 3.593v1.378zm-.703-5.307l1.478 4.045 1.006 1.756-3.978 2.222v.424h.75v3.611h-1.667v2.318H14.39v.24c.088-.009.172-.03.262-.03.641 0 1.234.212 1.713.564.077-.029.158-.055.241-.075a2.405 2.405 0 0 1 2.267-1.32 2.393 2.393 0 0 1 1.352-.553 1.748 1.748 0 0 1 1.01-.322c.976.002 1.763.79 1.763 1.764 0 .29-.078.545-.188.76a2.412 2.412 0 0 1-2.523 2.614l-.006.004a1.977 1.977 0 0 1-1.34 1.44 1.988 1.988 0 0 1-1.68.927c-.268 0-.509-.062-.717-.15a1.808 1.808 0 0 1-.702.144c-.186 0-.37-.026-.544-.075a2.725 2.725 0 0 1-.646.081 2.86 2.86 0 0 1-1.578-.475 2.465 2.465 0 0 1-3.075-2.387c0-.153.017-.302.045-.445a1.679 1.679 0 0 1-.41-1.019v-1.687h-2.02V14.59H5.948v-3.61h.746v-.41l-4-2.237 1.002-1.756 1.477-4.045H1v-1.53h22v1.53z"/>
        <path fill="#00f" d="M16.549 3.248c.215-.063.51.305.656.818.149.516.094.983-.123 1.043-.215.063-.51-.302-.658-.818-.146-.514-.092-.98.125-1.043M7.452 3.248c.217.063.271.529.125 1.043-.148.516-.443.881-.658.818-.217-.06-.272-.527-.123-1.043.146-.513.441-.881.656-.818"/>
    </g>
</svg>
