<svg xmlns="http://www.w3.org/2000/svg" width="32" height="32" viewBox="0 0 32 32">
    <defs>
        <clipPath id="a">
            <path d="M0 24h24V0H0z"/>
        </clipPath>
    </defs>
    <g clip-path="url(#a)" transform="matrix(1.33333 0 0 -1.33333 0 32)">
        <path fill="#00f" d="M18.004 7.95l-.942 1.194a3.004 3.004 0 0 1-.39-.555 2.043 2.043 0 0 1-.222-.639zm3.888-.555c0 .777-.27 1.43-.806 1.957a2.64 2.64 0 0 1-1.915.791c-.223 0-.44-.023-.653-.068a1.998 1.998 0 0 1-.595-.237l1.663-2.109-.415-.888H16.45a2.667 2.667 0 0 1 .958-1.596 2.7 2.7 0 0 1 1.763-.625c.738 0 1.378.272 1.915.82.537.545.806 1.197.806 1.955m-5.524 2.638l-1.415 1.775-2.471-3.858h2.887c.036.391.142.764.32 1.125.173.361.4.681.679.958m-2.36 2.33H8.235l3.192-4.022zM7.625 7.395c0 .445-.107.865-.32 1.265a2.766 2.766 0 0 1-.818.955l-1.083-2.44a.755.755 0 0 0-.222-.237.53.53 0 0 0-.694.069.535.535 0 0 0-.166.388c0 .113.148.505.444 1.18.296.674.536 1.181.722 1.513a.748.748 0 0 1-.278.055h-.333a2.669 2.669 0 0 1-1.943-.79c-.537-.528-.805-1.18-.805-1.958 0-.758.268-1.41.805-1.956a2.621 2.621 0 0 1 1.943-.819c.759 0 1.406.272 1.942.82.537.545.806 1.197.806 1.955m15.375 0c0-1.073-.374-1.989-1.123-2.748-.75-.758-1.651-1.137-2.706-1.137a3.68 3.68 0 0 0-2.525.958 3.737 3.737 0 0 0-1.277 2.373h-4.164l-3.83 4.83-.444-1A3.855 3.855 0 0 0 8.25 9.268a3.812 3.812 0 0 0 .485-1.873 3.741 3.741 0 0 0-1.14-2.748C6.839 3.89 5.933 3.51 4.878 3.51c-1.073 0-1.98.38-2.72 1.137-.74.76-1.11 1.675-1.11 2.748 0 1.074.37 1.986 1.11 2.734.74.75 1.647 1.125 2.72 1.125.167 0 .337-.01.514-.028.175-.019.356-.055.54-.11l2.832 6.438c.314.703.708 1.124 1.179 1.263.472.138 1.208.208 2.207.208h2.082a.565.565 0 0 0 .388-.152.518.518 0 0 0 .166-.402.528.528 0 0 0-.166-.389.534.534 0 0 0-.388-.167h-3.304c-.277 0-.513-.069-.707-.208a1.213 1.213 0 0 1-.431-.598l-1.61-3.636h6.523l.695 1.083c-.131.038-.436.083-.916.14-.481.054-.833.118-1.056.194a.77.77 0 0 0 .362.555c.203.13.435.193.694.193.776 0 1.52.047 2.235.14.71.091 1.399.24 2.066.443h.083c.112 0 .199-.055.264-.166a.763.763 0 0 0 .098-.388c0-.407-.191-.759-.57-1.056-.38-.295-.781-.443-1.208-.443-.147 0-.32.028-.512.084-.195.054-.32.082-.376.082l-1-1.526 1.667-2.109c.278.184.583.323.916.416.332.092.676.14 1.027.14 1.055 0 1.956-.377 2.706-1.126C22.626 9.381 23 8.47 23 7.395"/>
    </g>
</svg>
