<svg xmlns="http://www.w3.org/2000/svg" width="32" height="32" viewBox="0 0 32 32">
    <defs>
        <clipPath id="a">
            <path d="M0 24h24V0H0z"/>
        </clipPath>
    </defs>
    <path fill="#595959" d="M18.457 21.443l.69 4.828h-.978v-4.828zm5.279.721v2.124h2.946l2.131 1.983h-7.967l-.689-4.828h2.83zM18.17 7.941v-.83l8.002 1.39v14.103h-.754V9.794zm9.686 15.138V7.083L16.486 5.11v4.137l7.25 1.85v8.73l-.072-.068h-7.178v10.907h14.18V25.69z"/>
    <g clip-path="url(#a)" transform="matrix(1.33333 0 0 -1.33333 0 32)">
        <path fill="#00be3c" d="M10.488 9.328H2.054v4.216h8.434zM8.966 6.284a.891.891 0 1 0 0 1.782.891.891 0 0 0 0-1.782m-5.388 0a.89.89 0 1 0 .002 1.782.89.89 0 0 0-.002-1.782m.585 9.411h4.216v-1.054H4.163zm7.027.995H1.352A.352.352 0 0 1 1 16.339V4.744h1.796L2.093 1h1.406v3.744h5.545V1h1.406l-.703 3.744h1.796v11.595a.352.352 0 0 1-.353.351"/>
    </g>
</svg>
