<svg xmlns="http://www.w3.org/2000/svg" width="32" height="32" viewBox="0 0 32 32">
    <defs>
        <clipPath id="a">
            <path d="M0 24h24V0H0z"/>
        </clipPath>
    </defs>
    <g clip-path="url(#a)" transform="matrix(1.33333 0 0 -1.33333 0 32)">
        <path fill="#00f" d="M20.832 18.232a27.355 27.355 0 0 0-.892-1.834L12.312 8.77l-1.16 1.16 3.338 2.857c.273.268.392.582.39.888 0 .311-.121.618-.35.85l-.004.004a1.211 1.211 0 0 1-1.713-.008l-2.882-3.369-1.161 1.16 2.523 2.524 2.095 2.092h-.002l3.012 3.013c.233.124.958.507 1.834.89 1.053.47 2.362.918 3.049.904.279.004.382-.068.382-.072.007 0 .074-.104.072-.38.013-.688-.434-1.997-.903-3.05m1.726 4.322h-.002c-.37.361-.836.441-1.275.445-2.135-.042-5.511-1.989-5.568-1.995l-.079-.043-4.033-4.034H9.207L3.959 11.68h3.657l1.492-1.49-1.139-1.332.89-.89 1.331 1.14 1.493-1.493V3.96l5.247 5.25v2.394l4.034 4.033.043.076c.007.06 1.949 3.438 1.991 5.571-.004.436-.082.9-.44 1.272"/>
        <path fill="#ff8c00" d="M4.771 4.77c-.556.558-.08 1.935 1.064 3.077.376.376.775.672 1.165.89-.899.119-1.957-.25-2.782-1.075C2.348 5.792 1.002 1 1.002 1s4.791 1.346 6.661 3.217c.825.824 1.194 1.883 1.075 2.782a5.398 5.398 0 0 0-.889-1.166C6.705 4.69 5.328 4.212 4.771 4.768"/>
    </g>
</svg>
