<svg xmlns="http://www.w3.org/2000/svg" width="32" height="32" viewBox="0 0 32 32">
    <defs>
        <clipPath id="a">
            <path d="M0 24h24V0H0z"/>
        </clipPath>
    </defs>
    <g clip-path="url(#a)" transform="matrix(1.33333 0 0 -1.33333 0 32)">
        <path fill="#e6e6e6" d="M20.315 12.244h-5.313v1.472h5.313zm-2.634-7.406a.972.972 0 0 0-.968.967.968.968 0 1 0 .968-.967m-9.686 7.406v1.472h5.111l.001-1.472zm-.648-7.406a.97.97 0 0 0-.968.967c0 .533.434.967.968.967a.97.97 0 0 0 .966-.967.97.97 0 0 0-.966-.967m-3.284 7.405l1.25 1.473h.788l.002-1.473zm17.982 4.38a1.117 1.117 0 0 1-.774.334H6.675c-.827 0-1.257-.272-1.669-.814-.36-.474-3.356-4-3.356-4V5.845h4.08c0-.893.724-1.657 1.616-1.657.893 0 1.616.764 1.616 1.657h7.104c0-.893.723-1.657 1.616-1.657.892 0 1.615.764 1.615 1.657h3.048V15.99c0 .213-.11.442-.3.633"/>
        <path fill="red" d="M22.317 10.789H1.65V9.453h20.667zM10.44 19.135a.328.328 0 0 1-.322.299H8.485a.328.328 0 0 1-.322-.3l-.12-1.634a.276.276 0 0 1 .278-.3h1.961c.165 0 .29.136.278.3z"/>
        <path fill="#595959" d="M4.063 12.243h2.04L6.1 13.716h-.788zm-.698-.698a.347.347 0 0 0-.281.559l1.774 2.171c.066.09.17.14.281.14h1.313a.349.349 0 0 0 .351-.35v-2.17a.357.357 0 0 0-.103-.249.352.352 0 0 0-.248-.1zM7.995 12.244h5.112v1.472H7.994zm-.347-.699a.35.35 0 0 0-.35.35l-.003 2.17c0 .093.037.183.102.248a.362.362 0 0 0 .248.102h5.813a.35.35 0 0 0 .35-.35l.001-2.17a.349.349 0 0 0-.351-.349zM15.002 12.244h5.313v1.472h-5.313zm-.348-.699a.357.357 0 0 0-.247.101.355.355 0 0 0-.103.249v2.17a.347.347 0 0 0 .35.35h6.011c.192 0 .35-.157.35-.35l.002-2.17a.356.356 0 0 0-.104-.249.346.346 0 0 0-.246-.101z"/>
        <path fill="#595959" d="M21.693 6.495H19.83a2.26 2.26 0 0 1-2.149 1.578 2.26 2.26 0 0 1-2.148-1.578H9.493a2.26 2.26 0 0 1-2.147 1.578 2.26 2.26 0 0 1-2.149-1.578H2.3v5.41c.616.725 2.88 3.395 3.224 3.844.372.44.465.525 1.152.56h14.596a.478.478 0 0 0 .316-.148c.096-.092.102-.17.106-.17zM17.68 4.838a.97.97 0 0 0-.967.967.968.968 0 1 0 .967-.967m-10.334 0a.968.968 0 0 0-.967.967c0 .533.434.967.967.967a.97.97 0 0 0 .967-.967.97.97 0 0 0-.967-.967M22.992 15.99c-.004.441-.207.805-.487 1.091a1.769 1.769 0 0 1-1.234.527H6.675a2.516 2.516 0 0 1-2.188-1.072c-.32-.426-3.33-3.969-3.332-3.973L1 12.383V5.195h4.172A2.258 2.258 0 0 1 7.346 3.54c1.04 0 1.905.702 2.173 1.656h5.987A2.261 2.261 0 0 1 17.68 3.54a2.26 2.26 0 0 1 2.173 1.655l3.14.002z"/>
    </g>
</svg>
