<svg xmlns="http://www.w3.org/2000/svg" width="32" height="32" viewBox="0 0 32 32">
    <defs>
        <clipPath id="a">
            <path d="M0 24h24V0H0z"/>
        </clipPath>
    </defs>
    <path fill="#e6e6e6" d="M28.904 20.807H3.097v-2.282l6.137-.778 4.68-4.682h8.732l1.758 4.565 4.5.895z"/>
    <g clip-path="url(#a)" transform="matrix(1.33333 0 0 -1.33333 0 32)">
        <path fill="#595959" d="M21.678 8.395H2.323v1.712l4.603.583 3.51 3.512h6.549l1.318-3.424 3.375-.672zm-4.002-3.617c-.592 0-1.072.465-1.072 1.039 0 .574.48 1.04 1.072 1.04.594 0 1.074-.467 1.074-1.04 0-.575-.48-1.04-1.074-1.04m-10.326 0c-.592 0-1.072.465-1.072 1.04 0 .573.48 1.04 1.072 1.04.592 0 1.074-.467 1.074-1.04 0-.575-.482-1.04-1.074-1.04m2.537 10.747l-3.576-3.58L1 11.271V5.165h4.137A2.306 2.306 0 0 1 7.35 3.563c1.05 0 1.926.679 2.215 1.604h5.898a2.304 2.304 0 0 1 2.213-1.604c1.05 0 1.926.679 2.215 1.604H23v6.024l-3.724.742-1.383 3.591z"/>
        <path fill="#595959" d="M7.982 10.627h5.09v2.794h-2.299l-2.79-2.794M14.615 13.42v-2.793H17.5c-.303.794-.87 2.268-1.076 2.794z"/>
        <path fill="red" d="M12.605 15.523h2.098v2.151h-2.098z"/>
    </g>
</svg>
