<svg xmlns="http://www.w3.org/2000/svg" width="32" height="32" viewBox="0 0 32 32">
    <defs>
        <clipPath id="a">
            <path d="M0 24h24V0H0z"/>
        </clipPath>
    </defs>
    <path fill="#f0f" d="M30.667 30.667H1.333v-1.631h29.334zm0-24.444H1.333V4.592l7.374-3.259h14.628l7.332 3.259z"/>
    <g clip-path="url(#a)" transform="matrix(1.33333 0 0 -1.33333 0 32)">
        <path fill="#f0f" d="M11.51 11.758v.612h-.002c.001 1.095-.3 2.16-1.047 2.954-.746.797-1.895 1.248-3.373 1.245-1.479.003-2.63-.448-3.373-1.245-.745-.795-1.046-1.86-1.046-2.954V8.233c0-1.095.301-2.163 1.048-2.955.746-.796 1.895-1.25 3.374-1.244h.03c1.465 0 2.604.453 3.344 1.244.744.795 1.044 1.86 1.043 2.955v2.13H6.476V9.139h3.806v-.906c-.073-1.76-.732-2.907-3.19-2.972-2.459.065-3.124 1.215-3.197 2.972v4.137c.073 1.758.735 2.909 3.193 2.972 2.456-.063 3.121-1.216 3.194-2.972v-.612zM16.907 15.34c1.856-.027 2.625-.717 3.007-1.736l.202-.578 1.157.402-.2.58c-.503 1.51-1.968 2.59-4.166 2.56-1.447-.001-2.548-.308-3.315-.933-.772-.625-1.114-1.555-1.106-2.506-.008-.552.07-1.365.734-2.021.662-.648 1.735-1.105 3.59-1.412 1.74-.281 2.571-.714 2.918-1.07.338-.348.37-.654.376-1.151-.06-1.321-.617-2.134-3.197-2.215-1.854.03-2.624.719-3.006 1.739l-.202.576-1.157-.404.202-.576c.494-1.491 1.93-2.561 4.077-2.562h.086c1.45 0 2.55.31 3.318.935.773.626 1.113 1.555 1.104 2.507.01.55-.068 1.363-.736 2.018-.659.649-1.733 1.105-3.586 1.413-1.742.28-2.573.714-2.918 1.07-.34.349-.37.655-.378 1.153.062 1.319.617 2.13 3.196 2.212"/>
    </g>
</svg>
