<svg xmlns="http://www.w3.org/2000/svg" width="32" height="32" viewBox="0 0 32 32">
    <defs>
        <clipPath id="a">
            <path d="M0 24h24V0H0z"/>
        </clipPath>
    </defs>
    <g clip-path="url(#a)" transform="matrix(1.33333 0 0 -1.33333 0 32)">
        <path fill="#595959" d="M23.004 12.709c0-.758-.273-1.41-.818-1.956-.547-.546-1.2-.819-1.957-.819H5.995c-.296 0-.583.052-.861.153a3.358 3.358 0 0 0-.804.431V1H1v17.259h3.33v-.028c.24.204.5.351.777.444.277.093.573.139.888.139h14.234c.758 0 1.41-.269 1.957-.804a2.661 2.661 0 0 0 .818-1.971z"/>
        <path fill="#e6e6e6" d="M3.22 17.148H2.11V2.082h1.11zM21.894 12.709v3.33c0 .462-.166.856-.5 1.18a1.623 1.623 0 0 1-1.165.485H5.996c-.463 0-.857-.162-1.181-.485a1.61 1.61 0 0 1-.484-1.18v-3.33c0-.443.16-.832.484-1.165.324-.333.718-.5 1.18-.5H20.23c.445 0 .832.167 1.166.5.333.333.499.722.499 1.165"/>
        <path fill="#00f" d="M9.352 14.375c0-.445-.167-.833-.5-1.166-.333-.333-.73-.5-1.193-.5-.48 0-.883.167-1.207.5a1.619 1.619 0 0 0-.486 1.166c0 .48.162.883.486 1.206.324.323.726.485 1.207.485.463 0 .86-.162 1.193-.485.333-.323.5-.726.5-1.206"/>
        <path fill="#ff8c00" d="M14.79 14.375c0-.445-.166-.833-.498-1.166-.335-.333-.722-.5-1.165-.5-.483 0-.885.167-1.209.5a1.62 1.62 0 0 0-.484 1.166c0 .48.161.883.484 1.206.324.323.726.485 1.209.485.443 0 .83-.162 1.165-.485.332-.323.498-.726.498-1.206"/>
        <path fill="red" d="M20.257 14.375c0-.445-.166-.833-.5-1.166-.332-.333-.73-.5-1.192-.5-.462 0-.86.167-1.193.5-.334.333-.5.721-.5 1.166 0 .48.166.883.5 1.206.333.323.73.485 1.193.485.463 0 .86-.162 1.193-.485.333-.323.499-.726.499-1.206"/>
    </g>
</svg>
