<svg xmlns="http://www.w3.org/2000/svg" width="32" height="32" viewBox="0 0 32 32">
    <defs>
        <clipPath id="a">
            <path d="M0 24h24V0H0z"/>
        </clipPath>
    </defs>
    <g clip-path="url(#a)" transform="matrix(1.33333 0 0 -1.33333 0 32)">
        <path fill="red" d="M18.003 11.486a1.735 1.735 0 0 0 1.733-1.734h-3.468a1.738 1.738 0 0 0 1.735 1.734M8.245 2.227l.979 2.457a3.21 3.21 0 0 1 2.76-1.582c1.178 0 2.198.64 2.758 1.582l.982-2.457zm3.74 19.546a1.737 1.737 0 0 0 1.734-1.736h-3.467c0 .96.775 1.734 1.733 1.736M12.457 9.5v.92l.4-1.006a3.304 3.304 0 0 1-.4.086m-1.348-.086l.403 1.01V9.5a3.352 3.352 0 0 1-.403-.086m2.83-2.715a1.92 1.92 0 0 0 .04-.374h-3.99c0 .13.014.252.037.374l.274.685c.354.561.973.936 1.684.936.71 0 1.33-.375 1.683-.936zm-7.9 4.79a1.738 1.738 0 0 0 1.734-1.736h-3.47a1.74 1.74 0 0 0 1.736 1.736m-.04 6.855a1.738 1.738 0 0 0 1.735-1.734h-3.47A1.737 1.737 0 0 0 6 18.343m11.957.002a1.737 1.737 0 0 0 1.734-1.734v-.002h-3.47v.002a1.736 1.736 0 0 0 1.736 1.734m.046-5.63c-.94 0-1.77-.447-2.311-1.129l-2.764 1.595 2.734 1.576a2.944 2.944 0 0 1 2.295-1.109 2.962 2.962 0 1 1-2.962 2.963c0-.365.073-.713.195-1.036L12.458 14v3.125a2.953 2.953 0 0 1 2.489 2.912 2.962 2.962 0 1 1-5.923 0 2.951 2.951 0 0 1 2.489-2.912V14l-2.744 1.586c.119.32.192.662.192 1.023A2.962 2.962 0 1 1 6 13.65c.934 0 1.756.44 2.299 1.115l2.742-1.583-2.716-1.567a2.94 2.94 0 0 1-2.286 1.101 2.96 2.96 0 1 1 0-5.923 2.96 2.96 0 0 1 2.96 2.96c0 .371-.075.72-.2 1.047l2 1.154-1.626-4.08a3.193 3.193 0 0 1-.308-.773L6.433 1h11.1L15.1 7.11a3.192 3.192 0 0 1-.303.76l-1.63 4.083 2.064-1.19a2.907 2.907 0 0 1-.19-1.01 2.96 2.96 0 1 1 5.924 0 2.963 2.963 0 0 1-2.961 2.962"/>
    </g>
</svg>
