<svg xmlns="http://www.w3.org/2000/svg" width="32" height="32" viewBox="0 0 32 32">
    <defs>
        <clipPath id="a">
            <path d="M0 24h24V0H0z"/>
        </clipPath>
    </defs>
    <path fill="red" d="M26.409 5.582h-4.77l-1.22 1.297v1.6h5.99z"/>
    <g clip-path="url(#a)" transform="matrix(1.33333 0 0 -1.33333 0 32)">
        <path fill="red" d="M17.217 19.97a.81.81 0 1 1 0 0M18.996 19.97a.81.81 0 1 1 0 1.622.81.81 0 1 1 0-1.623M10.652 15.725l.732-.956 3.563 2.739-1.324 1.725-2.838-2.181zM11.474 17.78a.81.81 0 1 1-.988 1.284.813.813 0 0 1-.15-1.138.814.814 0 0 1 1.138-.147M12.884 18.861a.812.812 0 0 1-.988 1.288.813.813 0 0 1-.15-1.138.814.814 0 0 1 1.138-.15M7.462 11.727l.968-.716 2.667 3.616-1.752 1.29-2.123-2.877zM7.684 13.929a.809.809 0 0 1-.171 1.132.807.807 0 0 1-1.133-.17.81.81 0 1 1 1.304-.962M8.738 15.36a.806.806 0 0 1-.17 1.132.809.809 0 0 1-1.131-.17.808.808 0 0 1 .169-1.135.81.81 0 0 1 1.132.172"/>
        <path fill="red" d="M22.898 13.36c-.05.028-2.205 3.44-5.703 3.497-3.64-.059-6.116-3.624-8.032-6.45-1.877-2.812-4.275-5-7.672-5.685l-.49-.098L1.003 1h1.228l-.005 2.63c1.5.368 2.806 1.02 3.97 1.85V1h1.225v5.47a17.424 17.424 0 0 1 2.763 3.254 36.66 36.66 0 0 0 1.201 1.732V1h1.23v11.972c1.212 1.352 2.55 2.393 3.966 2.61V1h1.226v14.574c1.051-.174 1.998-.77 2.72-1.404a8.635 8.635 0 0 0 1.245-1.352V1H23v12.205z"/>
    </g>
</svg>
