<svg xmlns="http://www.w3.org/2000/svg" width="32" height="32" viewBox="0 0 32 32">
    <defs>
        <clipPath id="a">
            <path d="M0 24h24V0H0z"/>
        </clipPath>
    </defs>
    <g clip-path="url(#a)" transform="matrix(1.33333 0 0 -1.33333 0 32)">
        <path fill="#00f" d="M17.374 4.751a1.267 1.267 0 0 0 0 2.533c.672 0 1.208-.528 1.25-1.188v-.155a1.259 1.259 0 0 0-1.25-1.19M6.985 10.182a.69.69 0 1 0 0 1.382.691.691 0 0 0 0-1.382m6.701 12.705a6.896 6.896 0 0 1-3.221-.793l.232-.442h-.001A6.433 6.433 0 0 1 7.25 15.95v-2.583c-.721-.595-2.702-1.986-2.702-4.357L3.383 6.734h1.742c.536-.978 1.333-1.64 1.905-2.021L5.463 2.004h4.536L8.432 4.713c.571.381 1.367 1.043 1.903 2.021h1.744L10.912 9.01c0 2.334-1.913 3.714-2.663 4.324v2.616a5.439 5.439 0 0 0 2.913 4.818l.233-.444c.686.36 1.462.564 2.291.564a4.946 4.946 0 0 0 4.938-4.938V8.247a2.537 2.537 0 0 1-1.25.338 2.566 2.566 0 0 1 0-5.134c.456 0 .879.129 1.25.338V1h1.999v14.95a6.937 6.937 0 0 1-6.937 6.937"/>
    </g>
</svg>
