<svg xmlns="http://www.w3.org/2000/svg" width="32" height="32" viewBox="0 0 32 32">
    <defs>
        <clipPath id="a">
            <path d="M0 24h24V0H0z"/>
        </clipPath>
    </defs>
    <g clip-path="url(#a)" transform="matrix(1.33333 0 0 -1.33333 0 32)">
        <path fill="#595959" d="M14.901 18.111c0 .223-.08.4-.239.537a.773.773 0 0 1-.499.203.8.8 0 0 1-.558-.203.695.695 0 0 1-.222-.537c0-.197.074-.37.222-.52a.717.717 0 0 1 .52-.22c.197 0 .376.073.537.22a.697.697 0 0 1 .24.52m-1.262 2.45h.037a.671.671 0 0 1-.24.536.771.771 0 0 1-.5.203.8.8 0 0 1-.557-.203.697.697 0 0 1-.22-.537c0-.199.073-.37.22-.519a.715.715 0 0 1 1.037 0c.15.148.223.32.223.52m-1.188-2.45c0 .223-.08.4-.239.537-.163.135-.328.203-.5.203a.793.793 0 0 1-.556-.203.691.691 0 0 1-.222-.537c0-.197.073-.37.222-.52a.71.71 0 0 1 .518-.22c.198 0 .375.073.538.22a.694.694 0 0 1 .24.52m-1.26 2.45h.036c0 .221-.08.4-.24.536a.77.77 0 0 1-.502.203.796.796 0 0 1-.555-.203.695.695 0 0 1-.222-.537.71.71 0 0 1 .222-.519.713.713 0 0 1 1.037 0c.15.148.223.32.223.52m-1.225-2.45h.037c0 .223-.08.4-.24.537a.775.775 0 0 1-.5.203.794.794 0 0 1-.556-.203.692.692 0 0 1-.223-.537c0-.197.074-.37.223-.52a.711.711 0 0 1 .52-.22c.195 0 .37.073.517.22a.717.717 0 0 1 .222.52m6.027.611c0-1.162-.424-2.168-1.27-3.013-.846-.848-1.852-1.272-3.015-1.272-1.204 0-2.225.424-3.06 1.272-.838.845-1.256 1.851-1.256 3.013 0 1.205.418 2.22 1.255 3.047.836.826 1.847 1.24 3.03 1.24 1.183 0 2.2-.414 3.046-1.24.846-.827 1.27-1.842 1.27-3.047M14.227 13.729l-.681-9.055h-1.193c.06-.898.254-1.53.58-1.898.327-.367.93-.551 1.807-.551h1.867V1H14.74c-1.224 0-2.117.3-2.678.904-.562.602-.873 1.525-.934 2.77H9.873l-.681 9.055z"/>
    </g>
</svg>
