<svg xmlns="http://www.w3.org/2000/svg" width="32" height="32" viewBox="0 0 32 32">
    <defs>
        <clipPath id="a">
            <path d="M0 24h24V0H0z"/>
        </clipPath>
    </defs>
    <g clip-path="url(#a)" transform="matrix(1.33333 0 0 -1.33333 0 32)">
        <path fill="#f0f" d="M20.045 12.293c-.115-.621-.623-.575-1.637-1.036-1.013-.462-1.588.598-1.404 1.198.184.599.922 1.244 1.797 1.06.877-.184 1.359-.599 1.244-1.222m-5.201-8.544c-1.002 0-1.813.579-1.813 1.297 0 .716.81 1.296 1.813 1.296 1 0 1.808-.58 1.808-1.296 0-.718-.808-1.297-1.808-1.297M12.693 13.1c-.294.554.072 1.703 1.153 1.442 1.084-.261 1.574-.119 1.804-.709.229-.589-.166-1.088-.992-1.434-.826-.347-1.67.148-1.965.701m-1.676-1.068c-.117-.622-.623-.576-1.64-1.037-1.011-.461-1.587.6-1.402 1.198.184.6.92 1.245 1.796 1.061.876-.185 1.359-.6 1.246-1.222m3.62 3.502c-6.305 0-10.01-3.358-10.076-5.621-.021-.685.548-1.783 1.918-1.783 1.37 0 2.057.892 3.633.892 1.578 0 2.263-1.852 1.782-2.881-.48-1.029-2.674-1.576-2.674-3.358C9.22 2.064 9.875 1 12.51 1c7.543 0 10.42 5.76 10.42 8.295 0 2.538-1.987 6.239-8.293 6.239M15.44 20.69l.766-1.913-3.636-.709-.021.053-.23.57zm4.623-1.425L18.567 23l-3.54-1.418-3.533-2.267c-.319-.134-2.684-1.12-5.055-2.179-1.274-.567-4.403-2.11-4.706-2.302a2.898 2.898 0 0 1-.384-.276c-.093-.109-.24-.155-.28-.52.006-.157.047-.206.05-.225.23-.402.48-.302.602-.332.911.024 3.433.913 5.946 1.804 2.368.85 4.557 1.693 4.741 1.763l4.117.8z"/>
    </g>
</svg>
