<svg xmlns="http://www.w3.org/2000/svg" width="32" height="32" viewBox="0 0 32 32">
    <defs>
        <clipPath id="a">
            <path d="M0 24h24V0H0z"/>
        </clipPath>
    </defs>
    <g clip-path="url(#a)" transform="matrix(1.33333 0 0 -1.33333 0 32)">
        <path fill="#595959" d="M4.73 10.607c.3-1.822.513-3.184.52-3.22.255-1.513 1.778-3.13 5.283-3.13.558 0 1.149.043 1.757.13 4.804.686 6.005 2.261 6.457 4.751.13.726.267 1.5.404 2.286 2.403-.634 3.213-1.298 3.213-2.566 0-2.452-7.494-8.214-15.401-7.98-4.254.263-5.311 2.673-5.311 5.06 0 2.136 1.258 3.776 3.079 4.67"/>
        <path fill="#595959" d="M12 22.834c-4.069-.574-7.367-2.451-7.367-4.195 0-.159.036-.309.088-.452.741-3.772 1.81-10.583 1.81-10.583.24-1.421 2.315-2.395 5.574-1.929.401.056.76.121 1.101.188l.043 10.493c-.323-.063-.641-.133-.976-.18a17.607 17.607 0 0 0-2.398-.172c-1.387.002-2.612.185-3.587.543a.67.67 0 0 0-.392.857.66.66 0 0 0 .853.393c.77-.286 1.863-.464 3.126-.464.694 0 1.439.052 2.215.159 2.018.283 3.842.908 5.083 1.642a.662.662 0 0 0 .909-.234.664.664 0 0 0-.234-.912 11.883 11.883 0 0 0-1.443-.701L15.372 6.509c1.533.698 1.878 1.663 2.095 2.861 1.037 5.742 1.898 11.29 1.898 11.345 0 1.742-3.298 2.689-7.365 2.119"/>
        <path fill="#e6e6e6" d="M18.082 18.9a.661.661 0 0 1-.909.233c-1.241-.733-3.065-1.358-5.083-1.64a16.144 16.144 0 0 0-2.215-.16c-1.263 0-2.356.177-3.126.463a.659.659 0 0 1-.853-.392.67.67 0 0 1 .392-.858c.975-.357 2.2-.54 3.587-.542.76 0 1.565.056 2.398.171.335.047.653.118.976.181l-.043-10.493c.907.18 1.615.395 2.166.645l1.033 10.78c.518.215 1.01.445 1.443.7a.663.663 0 0 1 .234.912"/>
    </g>
</svg>
