<svg xmlns="http://www.w3.org/2000/svg" width="32" height="32" viewBox="0 0 32 32">
    <defs>
        <clipPath id="a">
            <path d="M0 24h24V0H0z"/>
        </clipPath>
    </defs>
    <g clip-path="url(#a)" transform="matrix(1.33333 0 0 -1.33333 0 32)">
        <path fill="#595959" d="M21.773 9.825a2.36 2.36 0 0 1-.723 1.733 2.363 2.363 0 0 1-1.733.722 2.363 2.363 0 0 1-1.734-.722 2.358 2.358 0 0 1-.721-1.733c0-.676.239-1.255.72-1.734a2.36 2.36 0 0 1 1.734-.722c.675 0 1.252.24 1.733.722.482.48.723 1.058.723 1.734m-6.139 4.634v-.03a.906.906 0 0 1-.26.66.86.86 0 0 1-.63.26.92.92 0 0 1-.659-.246.838.838 0 0 1-.262-.644c0-.246.086-.466.262-.66a.806.806 0 0 1 .627-.29c.246 0 .461.095.647.29a.937.937 0 0 1 .275.66M8.299 9.825v1.841h-1.84v1.842H4.613v-1.842H2.773v-1.84h1.842V7.981h1.843v1.843zm14.702 0c0-1.312-.308-2.45-.92-3.423-.614-.972-1.536-1.458-2.763-1.458-.902 0-1.838.308-2.81.921-.972.614-1.663 1.32-2.07 2.117H9.524c-.43-.797-1.135-1.503-2.117-2.117-.983-.613-1.914-.92-2.794-.92-1.248 0-2.175.485-2.777 1.457-.604.973-.906 2.111-.906 3.423 0 1.493.292 2.85.875 4.065.583 1.217 1.488 2.123 2.716 2.717.37.204.768.354 1.198.446.43.091.88.137 1.35.137h9.791a6.58 6.58 0 0 0 1.334-.137 4.148 4.148 0 0 0 1.243-.477c1.188-.593 2.078-1.493 2.672-2.7.593-1.208.89-2.558.89-4.05"/>
    </g>
</svg>
