<svg xmlns="http://www.w3.org/2000/svg" width="32" height="32" viewBox="0 0 32 32">
    <defs>
        <clipPath id="a">
            <path d="M0 24h24V0H0z"/>
        </clipPath>
    </defs>
    <path fill="red" d="M21.83 18.081h-2.889v-2.448h2.89zm-7.42-2.448h2.895v2.448h-2.894zm4.531-4.612h-1.636v2.975h-4.529v5.723h4.53v5.512h1.635v-5.512h4.526v-5.723H18.94z"/>
    <g clip-path="url(#a)" transform="matrix(1.33333 0 0 -1.33333 0 32)">
        <path fill="red" d="M18.838 18.328V2.412a.19.19 0 0 0-.184-.186H8.689c-.2.01-.225.018-.32.1l-.322.323-.002 15.91c0 .175.15.326.327.326h10.057c.214-.213.409-.4.409-.557m-11.737.23V3.594L5.686 5.008v15.438c0 .44.36.8.799.8h9.576c.336-.337.89-.89 1.42-1.417h-9.11a1.272 1.272 0 0 1-1.27-1.27m12.592.801h-.001l-3.037 3.026c-.562.536-1.214.602-1.564.614H5.344a1.415 1.415 0 0 1-1.413-1.413V5.6c0-.496.175-.744.482-1.05L7.5 1.46c.346-.36.812-.46 1.143-.46h10.011a1.415 1.415 0 0 1 1.413 1.411v16.054c.017.175-.07.615-.374.894"/>
    </g>
</svg>
