<svg xmlns="http://www.w3.org/2000/svg" width="32" height="32" viewBox="0 0 32 32">
    <defs>
        <clipPath id="a">
            <path d="M0 24h24V0H0z"/>
        </clipPath>
    </defs>
    <path fill="red" d="M29.03 25.732h-7.785V6.268h7.786zM2.97 6.268h7.786v19.464H2.971zm17.02 19.464h-7.977V6.268h7.976zM1.332 27.369h29.334V4.631H1.333z"/>
    <g clip-path="url(#a)" transform="matrix(1.33333 0 0 -1.33333 0 32)">
        <path fill="red" d="M4.995 9.697V11.1c.11.958.977 1.368 1.261 1.843.105.135.121.207.117.21v.151H3.92v-.76h-1v1.76h4.452V13.15c-.1-.964-.977-1.393-1.262-1.86-.105-.132-.119-.188-.115-.192V9.697h.001zM11.777 9.697V11.1c.11.958.977 1.368 1.261 1.843.104.135.121.207.117.21v.151h-2.453v-.76h-1v1.76h4.452V13.15c-.1-.964-.977-1.393-1.262-1.86-.105-.132-.119-.188-.115-.192V9.697h.001zM18.56 9.697V11.1c.109.958.978 1.368 1.26 1.843.105.135.122.207.118.21v.151h-2.453v-.76h-1v1.76h4.452V13.15c-.101-.964-.977-1.393-1.263-1.86-.104-.132-.12-.188-.115-.192V9.697h.002z"/>
    </g>
</svg>
