<svg xmlns="http://www.w3.org/2000/svg" width="32" height="32" viewBox="0 0 32 32">
    <defs>
        <clipPath id="a">
            <path d="M0 24h24V0H0z"/>
        </clipPath>
    </defs>
    <path fill="#b45000" d="M3.393 20.283L3.752 6.32h2.127l.357 13.962zm.443-17.216h1.959l.04 1.52h-2.04zm-1.69-1.735L1.34 30.665h6.95L7.482 1.332z"/>
    <g clip-path="url(#a)" transform="matrix(1.33333 0 0 -1.33333 0 32)">
        <path fill="#b45000" d="M10.137 8.254c-.791 0-1.434.644-1.434 1.434a1.435 1.435 0 0 0 2.869 0c0-.79-.644-1.434-1.435-1.434m0 3.868a2.435 2.435 0 1 1 .002-4.87 2.435 2.435 0 0 1-.002 4.87"/>
        <path fill="#b45000" d="M15.005 8.254c-.79 0-1.434.644-1.434 1.434a1.436 1.436 0 0 0 2.87 0c0-.79-.644-1.434-1.436-1.434m0 3.868a2.435 2.435 0 1 1 .002-4.87 2.435 2.435 0 0 1-.002 4.87"/>
        <path fill="#b45000" d="M17.44 15.355c.79 0 1.434-.643 1.434-1.434a1.436 1.436 0 0 0-2.87 0c0 .792.644 1.435 1.436 1.435m0-3.869a2.435 2.435 0 1 1-.002 4.87 2.435 2.435 0 0 1 .002-4.87"/>
        <path fill="#b45000" d="M15.005 19.564c.792 0 1.436-.643 1.436-1.434a1.435 1.435 0 0 0-2.87 0c0 .791.644 1.434 1.434 1.434m0-3.867a2.435 2.435 0 1 1 .003 4.87 2.435 2.435 0 0 1-.003-4.87"/>
        <path fill="#b45000" d="M13.18 15.215c.486-.23.825-.721.825-1.293 0-.791-.643-1.435-1.433-1.435-.22 0-.424.054-.61.14zm-2.906-2.064c.063-.19.143-.37.248-.533.004-.005.006-.011.009-.016.118-.182.263-.344.425-.488l.043-.036a2.42 2.42 0 0 1 .538-.352 2.413 2.413 0 0 1 1.035-.24 2.435 2.435 0 0 1 2.433 2.436c0 .973-.575 1.806-1.4 2.195a2.399 2.399 0 0 1-.478.169l-.021.007c-.173.038-.35.063-.534.063a2.435 2.435 0 0 1-2.435-2.434 2.379 2.379 0 0 1 .137-.771M15.006 17.416a.715.715 0 1 1 0 1.43.715.715 0 0 1 0-1.43M21.231 9.249l-1.796 1.796c.14.045.284.076.44.076.79 0 1.432-.643 1.432-1.434 0-.154-.03-.299-.076-.438m-1.357-.995c-.79 0-1.434.643-1.434 1.433 0 .155.031.3.076.439l1.796-1.796a1.413 1.413 0 0 0-.438-.076m0 3.868a2.422 2.422 0 0 1-2.11-1.243 2.423 2.423 0 0 1-.324-1.192 2.434 2.434 0 0 1 2.434-2.433c.435 0 .837.123 1.191.323l.001.001c.186.106.362.227.514.376l.028.028v.001c.15.151.27.327.375.512l.001.001c.2.354.323.756.323 1.191a2.434 2.434 0 0 1-2.433 2.435"/>
    </g>
</svg>
