<svg xmlns="http://www.w3.org/2000/svg" width="32" height="32" viewBox="0 0 32 32">
    <defs>
        <clipPath id="a">
            <path d="M0 24h24V0H0z"/>
        </clipPath>
    </defs>
    <g clip-path="url(#a)" transform="matrix(1.33333 0 0 -1.33333 0 32)">
        <path fill="#595959" d="M18.783 2.228H5.217v19.544h13.566zM18.924 23H5.076a1.086 1.086 0 0 1-1.085-1.087V2.084A1.085 1.085 0 0 1 5.076 1h13.848a1.087 1.087 0 0 1 1.086 1.084v19.829A1.088 1.088 0 0 1 18.924 23"/>
        <path fill="#a000a0" d="M14.265 6.9c-.487.762-1.876 2.05-2.263 2.401-.383-.35-1.78-1.639-2.264-2.4l-.276-.433v.513c0 1.39.199 2.461.289 2.877a6.312 6.312 0 0 1-2.702-.769l-.438-.237.232.44c.9 1.696 2.438 2.25 3.197 2.426-.312.757-.494 1.74-.498 2.015.002.301-.128 1.513-.125 1.502l-.023.1c-.105.462-.372 1.066-.592 1.192a1.101 1.101 0 0 1-.591.177.677.677 0 0 1-.156-.014l-.117-.03-.056.106-.308.613.117.074c.362.22.824.3 1.26.302.392 0 .762-.068 1.03-.179.522-.215.999-.554 1.448-1a2.86 2.86 0 0 0 1.147 0c.448.447.924.785 1.442 1 .269.114.64.177 1.03.18.439-.003.9-.083 1.264-.303l.117-.072-.061-.124-.303-.598-.117.031c0-.002-.054.014-.16.014-.141 0-.357-.03-.587-.179-.22-.124-.486-.728-.592-1.195-.005-.016-.01-.04-.016-.065l-.001-.007c0-.002-.132-1.218-.13-1.525-.004-.278-.188-1.259-.5-2.015.764-.178 2.296-.733 3.193-2.427l-.131-.07.07.133-.07-.134.13.071.238-.443-.44.241a6.289 6.289 0 0 1-2.701.77c.092-.417.29-1.488.29-2.878v-.515z"/>
        <path fill="#ff8c00" d="M12.002 9.957c.436 0 1.142 1.129 1.143 1.129h-.001c.365.767.598 1.816.598 2.771 0 .446-.389.771-.871.727-.48-.043-.869-.439-.869-.883 0 .444-.39.84-.871.883-.48.044-.869-.281-.869-.727 0-.955.232-2.004.597-2.771 0 0 .707-1.129 1.143-1.129"/>
        <path fill="red" d="M12.002 11.236a.845.845 0 0 0-.829.686.846.846 0 1 1 1.658 0 .845.845 0 0 0-.829-.686"/>
        <path fill="#ff8c00" d="M8.253 16.68a.937.937 0 1 0-1.873-.003.937.937 0 0 0 1.873.003M15.752 16.68a.936.936 0 1 1 .936.937.935.935 0 0 1-.936-.937M7.574 9.22a.597.597 0 1 1-1.193.001.597.597 0 0 1 1.193 0M10.209 6.98a.598.598 0 1 1-1.197 0 .598.598 0 0 1 1.197 0M14.99 6.98a.598.598 0 1 1-1.197 0 .598.598 0 0 1 1.196 0M17.622 9.22a.598.598 0 1 1-1.197-.002.598.598 0 0 1 1.197.003"/>
    </g>
</svg>
