<svg xmlns="http://www.w3.org/2000/svg" width="32" height="32" viewBox="0 0 32 32">
    <defs>
        <clipPath id="a">
            <path d="M0 24h24V0H0z"/>
        </clipPath>
    </defs>
    <g clip-path="url(#a)" transform="matrix(1.33333 0 0 -1.33333 0 32)">
        <path fill="red" d="M5.61 11.939v.117a.65.65 0 1 1-1.3 0V5.611c-.507.067-1.101-.022-1.68-.293-1.207-.564-1.877-1.681-1.493-2.5.382-.822 1.67-1.029 2.878-.464.926.431 1.529 1.194 1.59 1.895 0 .009.005.017.005.026v5.204c.99-.278 1.715-1.091 1.715-2.186 0-.564-.2-1.078-.522-1.492A3.256 3.256 0 0 1 8.65 8.736c0 1.592-1.457 2.916-3.04 3.203M13.267 22.243v.117a.65.65 0 0 1-1.301 0v-6.445c-.507.067-1.1-.022-1.678-.293-1.21-.564-1.878-1.681-1.495-2.5.382-.822 1.67-1.03 2.878-.464.926.43 1.53 1.194 1.59 1.895 0 .009.006.017.006.026v5.204c.99-.278 1.715-1.091 1.715-2.186 0-.564-.2-1.078-.523-1.492a3.256 3.256 0 0 1 1.847 2.935c0 1.592-1.457 2.916-3.04 3.203M18.803 11.939v.117a.65.65 0 0 1-1.301 0V5.611c-.507.067-1.1-.022-1.678-.293-1.21-.564-1.878-1.681-1.495-2.5.382-.822 1.67-1.029 2.878-.464.926.431 1.53 1.194 1.59 1.895 0 .009.006.017.006.026v5.204c.99-.278 1.715-1.091 1.715-2.186 0-.564-.2-1.078-.523-1.492a3.256 3.256 0 0 1 1.847 2.935c0 1.592-1.457 2.916-3.04 3.203"/>
    </g>
</svg>
