<svg xmlns="http://www.w3.org/2000/svg" width="32" height="32" viewBox="0 0 32 32">
    <defs>
        <clipPath id="a">
            <path d="M0 24h24V0H0z"/>
        </clipPath>
    </defs>
    <g clip-path="url(#a)" transform="matrix(1.33333 0 0 -1.33333 0 32)">
        <path fill="#ff8c00" d="M20.081 16.164c-.688 0-1.48-.04-2.318-.154a15.035 15.035 0 0 1-2.21-.458c.163.557.33 1.286.456 2.21a17.458 17.458 0 0 1 .14 2.943l4.552-4.552c-.195.007-.402.011-.62.011m-6.294-3.949a1.644 1.644 0 0 0 1.651-1.65 1.662 1.662 0 0 0-.48-1.168l-.56-.559-2.335 2.333.56.558v.001l.004.006c.322.32.74.48 1.16.48m1.297-5.849l-.486-.486-.687.686.485.486zm-3.93-2.557l.485.485.686-.686-.487-.486zm-2.847-.376a1.65 1.65 0 0 0-1.65 1.648c.002.378.134.745.388 1.05L9.356 3.82a1.646 1.646 0 0 0-1.049-.386m2.378 6.36l.485.484 2.334-2.333-.486-.485zM7.926 7.034l.488.485 2.332-2.333-.486-.485zm5.092-1.36l.687-.686-.486-.486-.687.685zm-1.379.406L9.306 8.414l.486.486 2.333-2.333zm11.176 9.743l-6.992 6.99a.628.628 0 0 1-.732.117.634.634 0 0 1-.337-.663c.002 0 .144-.882.144-2.187 0-.643-.037-1.38-.14-2.148-.16-1.175-.388-1.986-.569-2.494a6.12 6.12 0 0 0-.222-.54l-.044-.083-2.189-2.187a.012.012 0 0 0-.005-.005l-.668-.667-.173 1.246-1.749-1.746 1.247-.176L8.994 9.89l-.174 1.247-1.749-1.749 1.246-.174L6.925 7.82 6.75 9.067l-1.747-1.75 1.246-.174c-.003-.002-.004-.004-.005-.006L2.806 3.7 1 3.216 3.216 1l.485 1.81 1.744 1.744c.102-.56.37-1.097.803-1.53a2.9 2.9 0 0 1 2.06-.852h.007a2.9 2.9 0 0 1 1.933.756l1.59-1.59 5.033 5.03-1.58 1.577.56.56c.564.57.851 1.317.85 2.06a2.906 2.906 0 0 1-2.383 2.862l.498.497.082.043c.327.16 1.271.551 3.035.793.77.103 1.508.14 2.148.14.645.001 1.188-.035 1.572-.07.387-.037.612-.075.614-.073a.63.63 0 0 1 .548 1.067"/>
    </g>
</svg>
