<svg xmlns="http://www.w3.org/2000/svg" width="32" height="32" viewBox="0 0 32 32">
    <defs>
        <clipPath id="a">
            <path d="M0 24h24V0H0z"/>
        </clipPath>
    </defs>
    <g clip-path="url(#a)" transform="matrix(1.33333 0 0 -1.33333 0 32)">
        <path fill="#595959" d="M4.514 17.13h.002zm8.941.61l-4.23-4.234a.652.652 0 0 0-1.1.354l-.999 6.015-.003.024-2.608-2.769-.948.89 2.69 2.855a1.266 1.266 0 0 0 2.157-.827L9.2 15.32l3.353 3.352c.23.252.565.412.933.412.698 0 1.265-.566 1.265-1.23.18-3.728 1.061-11.669 6.097-15.22l-.758-1.057c-5.636 4.082-6.404 12.295-6.634 16.162"/>
    </g>
</svg>
