<svg xmlns="http://www.w3.org/2000/svg" width="32" height="32" viewBox="0 0 32 32">
    <defs>
        <clipPath id="a">
            <path d="M0 24h24V0H0z"/>
        </clipPath>
    </defs>
    <g clip-path="url(#a)" transform="matrix(1.33333 0 0 -1.33333 0 32)">
        <path fill="#00f" d="M12 2.331c-3.496.007-6.546 1.87-8.242 4.65l4.384 2.663A4.516 4.516 0 0 1 12 7.461c1.64 0 3.063.88 3.858 2.184l4.384-2.664c-1.696-2.78-4.744-4.643-8.242-4.65m-4.502 9.97l-5.126.352a9.64 9.64 0 0 0 .408 2.223l4.913-1.537a4.453 4.453 0 0 1-.195-1.038m7.732-.31a3.235 3.235 0 0 0-3.23-3.23 3.237 3.237 0 0 0-3.233 3.23A3.238 3.238 0 0 0 12 15.225a3.238 3.238 0 0 0 3.231-3.234m-3.23 9.66c3.497-.005 6.546-1.868 8.242-4.65l-4.384-2.665c-.795 1.307-2.218 2.188-3.859 2.188-1.64 0-3.065-.88-3.86-2.187l-4.384 2.665c1.696 2.781 4.746 4.644 8.244 4.65m4.5-9.97l5.125-.352a9.613 9.613 0 0 0-.409-2.226l-4.914 1.54c.105.332.172.677.197 1.038M12 22.953c-6.054 0-10.96-4.908-10.96-10.962C1.04 5.937 5.945 1.032 12 1.032c6.053 0 10.96 4.905 10.96 10.96 0 6.053-4.907 10.961-10.96 10.961"/>
    </g>
</svg>
