<svg xmlns="http://www.w3.org/2000/svg" width="32" height="32" viewBox="0 0 32 32">
    <defs>
        <clipPath id="a">
            <path d="M0 24h24V0H0z"/>
        </clipPath>
    </defs>
    <g clip-path="url(#a)" transform="matrix(1.33333 0 0 -1.33333 0 32)">
        <path fill="#00f" d="M4.732 2.019H2.964v5.274h1.768c1.113-.011 2.635-.867 2.637-2.638-.002-1.771-1.524-2.625-2.637-2.636m0 6.29H1.868V1h2.864c1.629.005 3.719 1.239 3.732 3.656v.002C8.45 7.073 6.36 8.306 4.732 8.31M18.574 2.019h-1.768v5.274h1.768c1.113-.011 2.635-.867 2.637-2.638-.002-1.771-1.524-2.625-2.637-2.636m0 6.29h-2.863V1h2.863c1.63.005 3.72 1.239 3.732 3.656v.002c-.013 2.416-2.103 3.649-3.732 3.653M11.678 2.42l-2.28 5.89H8.3L11.128 1h1.1l2.828 7.31h-1.099zM12 10.469c-2.74-.002-5.213.679-6.953 1.735a7.823 7.823 0 0 0-1.174.864l4.171 1.536c.799-.994 2.327-1.528 3.957-1.544 1.63.016 3.158.55 3.955 1.545l4.173-1.536a7.697 7.697 0 0 0-1.173-.865c-1.742-1.056-4.215-1.737-6.955-1.735m-9.628 5.99c.057.456.215.904.465 1.337l4.827-.914a2.519 2.519 0 0 1-.162-.635zm12.858-.398c.006-.338-.233-.745-.822-1.105-.577-.352-1.444-.597-2.409-.595-.964-.002-1.831.243-2.408.595-.589.36-.83.767-.824 1.105-.006.338.235.745.823 1.105.578.352 1.445.597 2.41.595.964.002 1.83-.243 2.407-.595.59-.36.828-.767.823-1.105m-3.23 5.59c2.74.003 5.212-.677 6.954-1.732.445-.27.837-.561 1.176-.867l-4.175-1.536c-.796.994-2.324 1.528-3.955 1.544-1.631-.016-3.16-.55-3.957-1.543L3.87 19.052c.339.306.732.597 1.176.867 1.74 1.055 4.214 1.735 6.954 1.733m4.333-6.412c.08.198.133.41.162.633l5.132-.214a3.54 3.54 0 0 0-.466-1.335zM12 22.953C6.147 22.93 1.143 20.15 1.04 16.06 1.14 11.97 6.147 9.193 12 9.17c5.855.02 10.859 2.8 10.96 6.89-.101 4.089-5.105 6.87-10.96 6.893"/>
    </g>
</svg>
