<svg xmlns="http://www.w3.org/2000/svg" width="32" height="32" viewBox="0 0 32 32">
    <defs>
        <clipPath id="a">
            <path d="M0 24h24V0H0z"/>
        </clipPath>
    </defs>
    <path fill="#00f" d="M9.041 10.26l-5.7.002v11.474h5.7L17.661 30V2z"/>
    <g clip-path="url(#a)" transform="matrix(1.33333 0 0 -1.33333 0 32)">
        <path fill="#00f" d="M15.846 17.822l-.92-.846a6.664 6.664 0 0 0 1.766-4.533 6.666 6.666 0 0 0-1.766-4.533l.92-.848a7.951 7.951 0 0 1 2.094 5.381 7.94 7.94 0 0 1-2.094 5.38M17.541 19.385h.002s-.002 0-.002.002z"/>
        <path fill="#00f" d="M18.46 20.231l-.917-.846a10.227 10.227 0 0 0 2.705-6.94c0-2.679-1.025-5.115-2.705-6.942l.92-.846a11.48 11.48 0 0 1 3.03 7.787c0 3-1.15 5.737-3.032 7.787"/>
    </g>
</svg>
