<svg xmlns="http://www.w3.org/2000/svg" width="32" height="32" viewBox="0 0 32 32">
    <defs>
        <clipPath id="a">
            <path d="M0 24h24V0H0z"/>
        </clipPath>
    </defs>
    <g clip-path="url(#a)" transform="matrix(1.33333 0 0 -1.33333 0 32)">
        <path fill="red" d="M7.396 13.019c0 1.043 5.104 4.06 5.104 7.027 0 2.966-3.375 4.036-5.104 1.645-1.733 2.39-5.108 1.32-5.108-1.645 0-2.966 5.108-5.984 5.108-7.027M4.014 10.618c-1.02 1.405-3 .775-3-.968 0-1.74 3-3.513 3-4.125 0 .612 2.996 2.385 2.996 4.125 0 1.743-1.982 2.373-2.996.968M18.126 16.924c0 .617 3.024 2.404 3.024 4.16 0 1.757-1.996 2.39-3.024.975-1.025 1.416-3.024.782-3.024-.975 0-1.756 3.024-3.543 3.024-4.16M13.434 2.846L9.419 6.86l6.93.78.779 6.93 4.016-4.015zm2.389 11.743l-.65-5.771-5.77-.65zm6.7-3.574l-6.057 6.057-9.547-9.55 6.515-6.514 9.549 9.549z"/>
    </g>
</svg>
