<svg xmlns="http://www.w3.org/2000/svg" width="32" height="32" viewBox="0 0 32 32">
    <defs>
        <clipPath id="a">
            <path d="M0 24h24V0H0z"/>
        </clipPath>
    </defs>
    <g clip-path="url(#a)" transform="matrix(1.33333 0 0 -1.33333 0 32)">
        <path fill="#f0f" d="M19.69 5.706V2.367h-5.856v3.28a1.835 1.835 0 1 1-3.672 0v-3.28H4.307v3.34l5.883 4.76v4.088L12 16.117l1.808-1.562v-4.088zm-4.58 9.443l-2.463 2.126v.96h1.247v1.301h-1.247v1.246h-1.299v-1.246h-1.247v-1.3h1.247v-.962L8.89 15.15v-4.063L3.006 6.327v-5.26h17.982V6.326l-5.878 4.76z"/>
        <path fill="#f0f" d="M11.283 8.787h1.434v1.433h-1.434zM17.939 17.253l2.716 2.72h-.001a1.718 1.718 0 1 1-2.43 2.43 1.707 1.707 0 0 1-.285-.392 1.694 1.694 0 0 1-.284.392 1.72 1.72 0 0 1-2.432-2.431zM7.06 12.903h-.001a1.718 1.718 0 1 1-2.43 2.43 1.707 1.707 0 0 1-.285-.391 1.694 1.694 0 0 1-.284.392 1.72 1.72 0 0 1-2.432-2.431l2.716-2.72zM22.372 13.789a1.203 1.203 0 0 1-1.7 0 1.187 1.187 0 0 1-.2-.274 1.243 1.243 0 0 1-.199.274c-.47.469-1.232.47-1.703 0a1.205 1.205 0 0 1 0-1.702l1.902-1.903 1.901 1.903c.47.47.47 1.232 0 1.702M6.963 18.95l1.901 1.903a1.202 1.202 0 1 1-1.9 1.428 1.21 1.21 0 0 1-.199.273 1.204 1.204 0 0 1-1.703-1.701z"/>
    </g>
</svg>
