<svg xmlns="http://www.w3.org/2000/svg" width="32" height="32" viewBox="0 0 32 32">
    <defs>
        <clipPath id="a">
            <path d="M0 24h24V0H0z"/>
        </clipPath>
    </defs>
    <path fill="#595959" d="M30.667 29.339H1.333v-1.732h29.334zm0-24.944H1.333V2.66h29.334z"/>
    <g clip-path="url(#a)" transform="matrix(1.33333 0 0 -1.33333 0 32)">
        <path fill="#595959" d="M8.805 12.416c.595-.578.887-1.27.887-2.1 0-.796-.245-1.425-.735-1.918-.49-.492-1.124-.736-1.918-.736-.816 0-1.451.246-1.933.736-.482.491-.72 1.122-.723 1.918 0 .801.194 1.489.583 2.073.38.576.922 1.072 1.634 1.49.878-.402 1.612-.891 2.205-1.463m10.214-.027c.385-.586.58-1.272.58-2.073 0-.796-.24-1.427-.723-1.918-.481-.492-1.107-.736-1.903-.736-.814 0-1.451.246-1.932.736-.483.491-.723 1.122-.723 1.918 0 .83.288 1.522.874 2.1.583.572 1.322 1.061 2.219 1.461.69-.416 1.227-.912 1.608-1.488M.999 15.225c.527 0 1.213-.086 2.055-.264a19.117 19.117 0 0 0 2.052-.533 5.464 5.464 0 0 1-1.453-1.742c-.37-.711-.554-1.5-.554-2.37 0-1.115.373-2.064 1.114-2.824.74-.762 1.692-1.144 2.826-1.142 1.134-.002 2.089.377 2.838 1.127.754.75 1.13 1.705 1.13 2.839 0 .967-.292 1.817-.872 2.539-.532.666-1.21 1.233-2.025 1.702a10.53 10.53 0 0 0 1.798.474c.729.131 1.43.194 2.112.194.66 0 1.35-.063 2.069-.194a11.304 11.304 0 0 0 1.81-.474c-.831-.469-1.508-1.036-2.025-1.703-.561-.723-.841-1.571-.841-2.538-.002-1.134.37-2.088 1.114-2.838.743-.751 1.689-1.13 2.826-1.128h.009c1.11 0 2.053.382 2.802 1.142.75.76 1.128 1.709 1.128 2.824 0 .87-.19 1.662-.568 2.371a5.607 5.607 0 0 1-1.468 1.741c.604.197 1.283.375 2.042.533.83.178 1.528.264 2.092.264v1.314c-.79 0-1.723-.128-2.804-.379-1.06-.246-1.97-.535-2.73-.863-.777.402-1.652.709-2.626.921-.99.214-1.932.321-2.83.321-.936 0-1.894-.107-2.876-.321a10.68 10.68 0 0 1-2.611-.921c-.813.328-1.735.615-2.77.863-1.053.251-1.973.379-2.764.379z"/>
    </g>
</svg>
