<svg xmlns="http://www.w3.org/2000/svg" width="32" height="32" viewBox="0 0 32 32">
    <defs>
        <clipPath id="a">
            <path d="M0 24h24V0H0z"/>
        </clipPath>
    </defs>
    <g clip-path="url(#a)" transform="matrix(1.33333 0 0 -1.33333 0 32)">
        <path fill="#595959" d="M16.86 23H7.073a1.705 1.705 0 0 1-1.7-1.701v-2.55c.543.372 1.158.63 1.797.784v1.168h9.59v-1.15a5.417 5.417 0 0 0 1.8-.756v2.504c0 .936-.766 1.701-1.702 1.701M15.621 2.552h-2.283v1.752h2.283zm-2.887 0h-1.535v1.752h1.535zm-2.138 0H8.313v1.752h2.283zm6.166 5.616V5.604h-9.59v2.622c-.6.476-1.223 1.009-1.799 1.639V2.701C5.373 1.766 6.139 1 7.074 1h9.785c.936 0 1.702.766 1.702 1.701v7.086c-.578-.624-1.202-1.149-1.799-1.619"/>
        <path fill="#595959" d="M18.203 14.572c-.082-1.696-1.63-3.385-3.26-4.584a19.492 19.492 0 0 0-2.945-1.793c-.516.253-1.718.883-2.938 1.793-1.628 1.2-3.175 2.888-3.256 4.588a1.333 1.333 0 0 0-.01.164c.004 1.415 1.192 2.392 2.606 2.392 2.07 0 3.6-2.73 3.6-2.73s1.531 2.731 3.6 2.731c1.414 0 2.603-.979 2.607-2.393 0-.055-.002-.11-.004-.168m-2.602 3.825c-1.277.006-2.628-.602-3.599-1.896-.974 1.294-2.325 1.902-3.602 1.893-1.984-.002-3.865-1.45-3.869-3.654 0-.085.004-.172.013-.264.17-2.367 2.04-4.202 3.762-5.5 1.736-1.295 3.413-2.046 3.437-2.057l.26-.117.257.117c.024.011 1.701.762 3.44 2.057 1.722 1.298 3.59 3.133 3.763 5.521.006.085.006.164.006.243-.002 2.204-1.883 3.652-3.868 3.657"/>
    </g>
</svg>
