<svg xmlns="http://www.w3.org/2000/svg" width="32" height="32" viewBox="0 0 32 32">
    <defs>
        <clipPath id="a">
            <path d="M0 24h24V0H0z"/>
        </clipPath>
    </defs>
    <g clip-path="url(#a)" transform="matrix(1.33333 0 0 -1.33333 0 32)">
        <path fill="#ff8c00" d="M22.42 7.926h-.52l-1.345-1.294-1.222 1.175-1.223-1.175-1.221 1.175-1.223-1.175-1.222 1.175-1.221-1.175L12 7.807l-1.222-1.175-1.222 1.175-1.223-1.175L7.11 7.807 5.889 6.632 4.667 7.807 3.444 6.632 2.098 7.926h-.52c-.417 0-.67-.35-.578-.757a3.438 3.438 0 0 1 3.354-2.681H18.91c1.64 0 3.743 1.147 4.089 2.68.09.409-.162.758-.58.758"/>
        <path fill="red" d="M22.008 12.037H1.989v2.059h20.019z"/>
        <path fill="#00be3c" d="M21.594 9.226H2.406c-.32 0-.612.11-.85.292L1 8.982l2.445-2.35 1.222 1.175 1.222-1.175 1.223 1.175 1.22-1.175 1.224 1.175 1.223-1.175 1.22 1.175 1.224-1.175 1.222 1.175 1.22-1.175 1.224 1.175 1.222-1.175 1.222 1.175 1.222-1.175L23 8.982l-.556.536a1.393 1.393 0 0 0-.85-.292"/>
        <path fill="#b45000" d="M21.654 12.031L12 9.576l-9.654 2.455a1.403 1.403 0 0 1 .061-2.806h19.187a1.403 1.403 0 1 1 .061 2.806M2.321 12.037l.024-.006c.021.001.04.006.061.006z"/>
        <path fill="#b45000" d="M21.594 12.037c.02 0 .04-.005.06-.006l.024.006z"/>
        <path fill="#ff8c00" d="M11.999 9.576l-9.678 2.461h19.357zM17.75 16.93c-.242 0-.438.309-.438.688 0 .38.196.687.438.687s.438-.307.438-.687c0-.38-.196-.688-.438-.688m-1.521-1.904c-.243 0-.438.306-.438.687 0 .379.195.688.438.688.242 0 .437-.31.437-.688 0-.381-.195-.687-.437-.687m-1.354 1.904c-.242 0-.438.309-.438.688 0 .38.196.687.438.687s.437-.307.437-.687c0-.38-.195-.688-.437-.688m-1.521-1.904c-.242 0-.437.306-.437.687 0 .379.195.688.437.688s.437-.31.437-.688c0-.381-.195-.687-.437-.687M12 16.93c-.242 0-.438.309-.438.688 0 .38.196.687.438.687s.437-.307.437-.687c0-.38-.195-.688-.437-.688m-1.521-1.904c-.242 0-.437.306-.437.687 0 .379.195.688.437.688s.438-.31.438-.688c0-.381-.196-.687-.438-.687M9.125 16.93c-.242 0-.438.309-.438.688 0 .38.196.687.438.687s.437-.307.437-.687c0-.38-.195-.688-.437-.688m-1.521-1.904c-.242 0-.437.306-.437.687 0 .379.195.688.437.688s.438-.31.438-.688c0-.381-.196-.687-.438-.687M6.25 16.93c-.242 0-.438.309-.438.688 0 .38.196.687.438.687s.437-.307.437-.687c0-.38-.195-.688-.437-.688M23 14.668c-.909 2.789-3.471 4.845-6.557 4.845H7.557c-3.086 0-5.648-2.056-6.557-4.845-.115-.353.193-.572.449-.572h21.102c.256 0 .564.219.449.572"/>
    </g>
</svg>
