<svg xmlns="http://www.w3.org/2000/svg" width="32" height="32" viewBox="0 0 32 32">
    <defs>
        <clipPath id="a">
            <path d="M0 24h24V0H0z"/>
        </clipPath>
    </defs>
    <g clip-path="url(#a)" transform="matrix(1.33333 0 0 -1.33333 0 32)">
        <path fill="#595959" d="M8.518 1.003v2c-4.03 1.054-6.968 5.278-6.97 10.27v.65h20.903v-.65c-.002-4.992-2.94-9.216-6.972-10.27v-2z"/>
        <path fill="#e6e6e6" d="M2.865 12.623c.251-4.392 3.047-7.855 6.42-8.46l.534-.098V2.304h4.36v1.76l.533.1c3.373.602 6.17 4.067 6.42 8.459z"/>
        <path fill="#595959" d="M5.373 16.293c.366.329.612.845.612 1.437 0 .384-.127.71-.355 1.154-.236.46-.5 1.04-.501 1.751.002.953.396 1.819 1.04 2.4l.872-.966a1.932 1.932 0 0 1-.612-1.434c0-.376.144-.748.356-1.157.25-.485.5-1.048.5-1.748-.001-.954-.395-1.818-1.04-2.4zm.872-.964v.001l.002-.001zM11.166 16.294c.364.329.61.845.61 1.435 0 .384-.127.71-.355 1.155-.236.46-.498 1.04-.5 1.75 0 .954.397 1.82 1.04 2.399l.872-.964a1.927 1.927 0 0 1-.612-1.435c0-.374.143-.746.355-1.155.251-.486.502-1.05.5-1.75 0-.954-.395-1.818-1.038-2.4v-.001zM16.958 16.294c.364.327.611.844.611 1.434 0 .387-.128.712-.354 1.154-.238.463-.5 1.04-.5 1.753 0 .952.393 1.817 1.039 2.399l.87-.965a1.929 1.929 0 0 1-.61-1.434c0-.377.143-.75.357-1.156.249-.486.5-1.05.498-1.751 0-.953-.396-1.817-1.039-2.4z"/>
        <path fill="red" d="M6.773 8.874H5.317v1.458h1.456zM10.743 8.874H9.287v1.458h1.456zM14.714 8.874h-1.457v1.458h1.457zM17.227 10.332h1.458V8.874h-1.458z"/>
        <path fill="red" d="M6.773 8.874H5.317v1.458h1.456zM10.743 8.874H9.287v1.458h1.456zM14.714 8.874h-1.457v1.458h1.457zM17.227 10.332h1.458V8.874h-1.458z"/>
    </g>
</svg>
