<svg xmlns="http://www.w3.org/2000/svg" width="32" height="32" viewBox="0 0 32 32">
    <defs>
        <clipPath id="a">
            <path d="M0 24h24V0H0z"/>
        </clipPath>
    </defs>
    <g clip-path="url(#a)" transform="matrix(1.33333 0 0 -1.33333 0 32)">
        <path fill="#b45000" d="M15.057 23.002c-2.478-.027-4.764-.614-6.234-1.688h-.01l-5.891-4.339a5.841 5.841 0 0 1-.51-.376l-.048-.035.008-.001C1.56 15.881 1.055 15.028 1 14.011c.004-1.072.623-1.976 1.519-2.665V1.014h12.745l6.164 4.526v10.333c.895.688 1.514 1.594 1.518 2.664-.153 2.834-3.768 4.42-7.89 4.465"/>
        <path fill="#e6e6e6" d="M16.48 5.248h-1.217V4.035h1.217zM16.48 7.678h-1.217V6.461h1.217zM16.48 10.104h-1.217V8.89h1.217zM16.48 3.209l1.124.826H16.48zM16.48 5.248h1.217v1.213H16.48zM17.697 8.891H16.48V7.678h1.217zM17.697 11.318H16.48v-1.214h1.217zM17.697 5.248V4.103l1.217.894v.251zM17.697 6.461h1.217v1.217h-1.217zM17.697 8.891h1.217v1.214h-1.217zM18.914 6.46V5.249h.341l.876.644v.569zM20.131 8.891h-1.217V7.678h1.217zM20.131 11.318h-1.217v-1.214h1.217zM16.48 12.24l-1.217-.894v-.027h1.217zM17.697 13.134l-.814-.6h.814zM17.697 11.318h1.217v1.217h-1.217zM20.131 13.748h-1.217v-1.213h1.217zM18.914 14.028l-.38-.28h.38zM14.248 12.216l-.285-.193V2.316H3.82v9.707l-.284.19c-.852.584-1.241 1.219-1.235 1.798-.014.687.564 1.483 1.772 2.12 1.187.629 2.903 1.043 4.805 1.043h.014c1.906.003 3.627-.413 4.817-1.043 1.209-.637 1.787-1.433 1.771-2.12.008-.58-.382-1.212-1.232-1.795"/>
    </g>
</svg>
