<svg xmlns="http://www.w3.org/2000/svg" width="32" height="32" viewBox="0 0 32 32">
    <defs>
        <clipPath id="a">
            <path d="M0 24h24V0H0z"/>
        </clipPath>
    </defs>
    <g clip-path="url(#a)" transform="matrix(1.33333 0 0 -1.33333 0 32)">
        <path fill="#b45000" d="M12 23C5.926 23 .999 18.075.999 11.999c0-3.996 2.14-7.484 5.328-9.41v9.41H17.65V2.575c3.202 1.923 5.351 5.418 5.351 9.424C23.001 18.075 18.074 23 12 23"/>
        <path fill="#595959" d="M6.327 11.999v-9.41A10.93 10.93 0 0 1 12 1c2.068 0 3.997.582 5.65 1.575v9.424zM20.627 11.852a.585.585 0 1 0-.001 1.171.585.585 0 0 0 .001-1.17m-.918-5.285a.586.586 0 0 0-.586.583.586.586 0 0 0 1.17 0 .584.584 0 0 0-.584-.583m-.146 10.494a.585.585 0 1 0-.002-1.17.585.585 0 0 0 .002 1.17m-3.035 1.71a.585.585 0 1 0 0 1.17.585.585 0 0 0 0-1.17m-.728-5.275a.585.585 0 1 0-.001 1.17.585.585 0 0 0 .001-1.17m-3.155 2.945a.585.585 0 1 0 0 1.17.585.585 0 0 0 0-1.17M7.977 14.48a.585.585 0 1 0 0 1.17.585.585 0 0 0 0-1.17m-1.09 4.877a.585.585 0 1 0 1.17 0 .585.585 0 0 0-1.17 0M4.721 7.518a.584.584 0 1 0 0 1.168.584.584 0 0 0 0-1.168m-1.323 5.815a.584.584 0 1 0 1.169.002.584.584 0 0 0-1.169-.002"/>
        <path fill="#595959" d="M8.057 19.356a.585.585 0 1 0-1.17 0 .585.585 0 0 0 1.17 0M13.23 17.027a.585.585 0 1 0-1.17 0 .585.585 0 0 0 1.17 0M8.562 15.065a.584.584 0 1 0-1.169 0 .584.584 0 0 0 1.169 0M4.568 13.334a.585.585 0 1 0-1.17 0 .585.585 0 0 0 1.17 0M5.307 8.102a.585.585 0 1 0-1.17.003.585.585 0 0 0 1.17-.003M15.943 19.356a.585.585 0 1 1 1.17 0 .585.585 0 0 1-1.17 0M15.214 14.081a.584.584 0 1 1 1.169.001.584.584 0 0 1-1.17 0M18.977 16.477a.584.584 0 1 1 1.169.001.584.584 0 0 1-1.17 0M20.041 12.438a.585.585 0 1 1 1.17 0 .585.585 0 0 1-1.17 0M19.123 7.151a.586.586 0 0 1 1.17 0 .585.585 0 1 1-1.17 0"/>
    </g>
</svg>
