<svg xmlns="http://www.w3.org/2000/svg" width="32" height="32" viewBox="0 0 32 32">
    <defs>
        <clipPath id="a">
            <path d="M0 24h24V0H0z"/>
        </clipPath>
    </defs>
    <g clip-path="url(#a)" transform="matrix(1.33333 0 0 -1.33333 0 32)">
        <path fill="#ff8c00" d="M22.613 4.68h-1.888c-.562 2.828-4.209 6.066-8.727 6.13a9.757 9.757 0 0 1-3.329-.642v3.306h.758c1.648.003 3.155.9 3.53 2.302h1.033v.004l7.708-.3a.921.921 0 0 1 0 1.842l-7.708-.297v.005h-1.034c-.374 1.4-1.88 2.297-3.529 2.299h-6.23V4.682H1.384L1 3.559c.042-.018 2.633-2.083 5.092-2.56h11.814c2.461.477 5.05 2.542 5.094 2.56z"/>
        <path fill="#e6e6e6" d="M19.447 4.68h-1.182c-.02.533-.073 1.347-.203 2.218.716-.75 1.195-1.552 1.385-2.217M6.618 7.54c1.221 1.016 2.857 1.81 4.657 1.978.152-.152.302-.418.441-.754-1.42-.215-4.279-1.035-5.947-4.083H4.55c.246.861.967 1.956 2.068 2.858M10.326 7.104a7.671 7.671 0 0 0 1.61.425c.058.01.104.013.155.02a9.573 9.573 0 0 0 .168-.987c-.894-.124-2.466-.533-3.669-1.882H7.233c.891 1.307 2.055 2.023 3.093 2.425M11.653 5.151c.284.083.526.128.736.158.017-.237.03-.447.035-.629H10.55c.372.214.751.368 1.103.471M13.684 4.68a21.903 21.903 0 0 1-.19 2.122c-.153.92-.331 1.906-.73 2.716a8.11 8.11 0 0 0 .929-.156c.418-.56.752-1.838.884-2.98.085-.661.123-1.27.14-1.701zM15.975 4.68c-.02.462-.062 1.128-.154 1.86-.106.749-.252 1.545-.498 2.276.42-.19.819-.407 1.192-.65.342-1.165.454-2.656.492-3.485zM9.428 14.73h-.76v1.045h2.927c-.343-.567-1.123-1.045-2.167-1.046M9.428 18.075c1.043-.002 1.823-.48 2.167-1.046H8.667v1.046zM7.413 9.586a10.162 10.162 0 0 1-.853-.516v9.005h.853zM5.307 18.075V8.058a8.413 8.413 0 0 1-.855-.955v10.972z"/>
    </g>
</svg>
