<svg xmlns="http://www.w3.org/2000/svg" width="32" height="32" viewBox="0 0 32 32">
    <defs>
        <clipPath id="a">
            <path d="M0 24h24V0H0z"/>
        </clipPath>
    </defs>
    <g clip-path="url(#a)" transform="matrix(1.33333 0 0 -1.33333 0 32)">
        <path fill="#b45000" d="M17.908 6.856c2.46.477 5.05 2.54 5.092 2.558l-.385 1.123h-1.89c-.563 2.828-4.21 6.066-8.723 6.13-4.518-.064-8.162-3.302-8.727-6.13H1.386L1 9.414c.042-.018 2.633-2.08 5.094-2.558z"/>
        <path fill="#595959" d="M19.941 4.22l-10.92-.363c-.326 1-1.49 1.744-2.893 1.744-1.65 0-2.988-1.03-2.988-2.3C3.14 2.03 4.478 1 6.128 1c1.401 0 2.565.742 2.891 1.742l10.922-.362a.92.92 0 1 1 0 1.84"/>
        <path fill="#e6e6e6" d="M19.448 10.537h-6.396v4.795c1.67-.232 3.184-.982 4.33-1.937 1.1-.902 1.821-1.997 2.066-2.858"/>
        <path fill="#ff8c00" d="M8.009 10.78H6.14l.934 1.775z"/>
        <path fill="red" d="M7.947 12.974l.934 1.775.931-1.775z"/>
        <path fill="#ff8c00" d="M10.047 12.381h1.649V10.78h-1.649z"/>
        <path fill="#e6e6e6" d="M12.001 9.283h8.544c-.849-.497-1.902-1.004-2.803-1.183H6.26c-.901.18-1.955.686-2.803 1.183z"/>
    </g>
</svg>
