<svg xmlns="http://www.w3.org/2000/svg" width="32" height="32" viewBox="0 0 32 32">
    <defs>
        <clipPath id="a">
            <path d="M0 24h24V0H0z"/>
        </clipPath>
    </defs>
    <g clip-path="url(#a)" transform="matrix(1.33333 0 0 -1.33333 0 32)">
        <path fill="#595959" d="M21.646 23h-8.41a.99.99 0 0 1-.667-1.688l2.016-2.017a5.128 5.128 0 0 0 3.23-1.462l.031-.03c.896-.905 1.366-2.05 1.461-3.229l2.004-2.004a.992.992 0 0 1 1.69.666v8.41c0 .75-.609 1.354-1.355 1.354"/>
        <path fill="#b45000" d="M17.834 10.495a5.19 5.19 0 0 1 1.514 3.663 5.16 5.16 0 0 1-1.501 3.645l-.032.03a5.156 5.156 0 0 1-3.645 1.502 5.147 5.147 0 0 1-3.661-1.518 5.142 5.142 0 0 1-1.519-3.659c.001-.134.029-.267.039-.4l-1.83 1.837a1.336 1.336 0 0 1-1.891 0L2.51 12.813a1.342 1.342 0 0 1 0-1.892l3.502-3.51-4.975-4.977 1.414-1.416 4.974 4.976 3.497-3.507c.261-.26.602-.389.944-.389.343 0 .685.13.947.391l2.792 2.78a1.339 1.339 0 0 1 0 1.891l-1.853 1.86c.14-.012.278-.04.418-.04a5.17 5.17 0 0 1 3.664 1.515"/>
        <path fill="#e6e6e6" d="M16.923 16.888a3.88 3.88 0 0 1-6.633-2.733 3.882 3.882 0 0 1 6.628-2.738 3.886 3.886 0 0 1 .005 5.47"/>
    </g>
</svg>
