<svg xmlns="http://www.w3.org/2000/svg" width="32" height="32" viewBox="0 0 32 32">
    <defs>
        <clipPath id="a">
            <path d="M0 24h24V0H0z"/>
        </clipPath>
    </defs>
    <g clip-path="url(#a)" transform="matrix(1.33333 0 0 -1.33333 0 32)">
        <path fill="#ffbe00" d="M17.061 5.227H6.936c-2.13.003-3.989 1.65-4.54 3.955 1.08-1.424 2.696-2.344 4.54-2.35h10.125c1.845.006 3.461.925 4.54 2.349-.55-2.304-2.409-3.951-4.54-3.954"/>
        <path fill="#ff8c00" d="M17.061 5.227H6.936c-2.13.003-3.989 1.65-4.54 3.955 1.08-1.424 2.696-2.344 4.54-2.35h10.125c1.845.006 3.461.925 4.54 2.349-.55-2.304-2.409-3.951-4.54-3.954M6.936 18.774h7.25V8.059h-7.25c-2.542.006-4.705 2.346-4.709 5.356.004 3.01 2.167 5.353 4.71 5.359m9.436-4.821l1.685-1.46-1.685-1.457-1.684 1.458zm.748 3.596c.766 0 1.388-.54 1.388-1.203 0-.664-.622-1.204-1.388-1.204-.766 0-1.39.54-1.39 1.204 0 .663.624 1.203 1.39 1.203m3.546-7.314l-1.683-1.46-1.685 1.46 1.685 1.458zm-.908 5.029c.766 0 1.39-.54 1.39-1.203s-.624-1.204-1.39-1.204c-.766 0-1.389.54-1.389 1.204 0 .664.623 1.203 1.39 1.203M17.06 20H6.936C3.602 19.99 1.006 17 1 13.415v-2.831c.006-3.586 2.603-6.575 5.937-6.585h10.125c3.336.01 5.933 2.999 5.938 6.585v2.83c-.005 3.586-2.602 6.576-5.938 6.587"/>
        <path fill="#e6e6e6" d="M17.121 15.142c-.766 0-1.39.54-1.39 1.204 0 .663.624 1.203 1.39 1.203.767 0 1.39-.54 1.39-1.203 0-.664-.623-1.204-1.39-1.204M19.76 15.264c.766 0 1.389-.54 1.389-1.203s-.623-1.204-1.39-1.204c-.766 0-1.39.54-1.39 1.204 0 .664.624 1.203 1.39 1.203M18.984 11.692l1.684-1.458-1.684-1.459-1.685 1.46zM16.373 13.952l1.686-1.459-1.686-1.458-1.684 1.458zM8.926 12.271c-.73 0-1.322.513-1.322 1.144 0 .63.592 1.143 1.322 1.143.729 0 1.318-.513 1.318-1.143s-.59-1.143-1.318-1.143m-1.99 6.501c-2.542-.006-4.704-2.348-4.71-5.358.006-3.01 2.168-5.35 4.71-5.357h7.25v10.715z"/>
        <path fill="red" d="M8.926 12.271c.729 0 1.318.513 1.318 1.144 0 .63-.59 1.143-1.318 1.143-.73 0-1.322-.513-1.322-1.143s.592-1.143 1.322-1.143"/>
    </g>
</svg>
