<svg xmlns="http://www.w3.org/2000/svg" width="32" height="32" viewBox="0 0 32 32">
    <defs>
        <clipPath id="a">
            <path d="M0 24h24V0H0z"/>
        </clipPath>
    </defs>
    <g clip-path="url(#a)" transform="matrix(1.33333 0 0 -1.33333 0 32)">
        <path fill="#ff8c00" d="M22.336 20.506c-.342.34-.767.547-1.203.625a2.254 2.254 0 0 1-.624 1.201 2.28 2.28 0 0 1-3.893-1.612 2.272 2.272 0 0 1 .295-1.124l-.514-.515c-2.211 1.29-4.802 1.244-6.373-.326-.924-.926-1.322-2.208-1.231-3.558-1.351.09-2.634-.308-3.56-1.234-1.571-1.57-1.616-4.16-.326-6.372l-.503-.503a2.28 2.28 0 0 1-2.735-3.596 2.252 2.252 0 0 1 1.199-.624A2.271 2.271 0 0 1 5.107 1h.006c.579 0 1.16.226 1.604.663.447.45.67 1.036.669 1.615 0 .387-.097.773-.292 1.12l.502.503c2.213-1.293 4.804-1.247 6.376.324.926.926 1.322 2.21 1.232 3.56 1.35-.09 2.633.306 3.559 1.232 1.57 1.571 1.615 4.162.325 6.374l.516.516a2.28 2.28 0 0 1 2.732 3.599"/>
        <path fill="#e6e6e6" d="M5.85 2.533a1.054 1.054 0 0 0-1.487 0 1.033 1.033 0 0 0-.294.85l.089.74-.745-.055a1.566 1.566 0 0 0-.14-.008c-.274 0-.532.097-.736.3a1.043 1.043 0 0 0-.308.744c0 .272.1.536.308.743a1.047 1.047 0 0 0 1.489 0h.004l.433-.436.722.723a5.47 5.47 0 0 1 .954-.955l-.723-.722.436-.436c.204-.204.307-.47.307-.743 0-.269-.101-.536-.31-.745M21.467 18.148a1.053 1.053 0 0 0-1.488.002l-.436.432-.734-.734a5.38 5.38 0 0 1-.954.955l.8.801-.532.401a1.048 1.048 0 0 0 .03 1.458 1.046 1.046 0 0 0 1.783-.857l-.082-.762.763.09a1.028 1.028 0 0 0 .85-.296 1.058 1.058 0 0 0 0-1.49"/>
    </g>
</svg>
