<svg xmlns="http://www.w3.org/2000/svg" width="32" height="32" viewBox="0 0 32 32">
    <defs>
        <clipPath id="a">
            <path d="M0 24h24V0H0z"/>
        </clipPath>
    </defs>
    <g clip-path="url(#a)" transform="matrix(1.33333 0 0 -1.33333 0 32)">
        <path fill="#f0f" d="M23 12.207c0 .404-.156.809-.466 1.115l-1.442 1.416.483 1.74a1.562 1.562 0 0 1-1.113 1.934l-1.958.504-.451 1.752a1.565 1.565 0 0 1-1.95 1.108l-1.928-.534-1.268 1.29c-.305.31-.713.469-1.113.467a1.55 1.55 0 0 1-1.118-.471l-1.413-1.437-1.742.484a1.56 1.56 0 0 1-1.931-1.118l-.504-1.953-1.752-.449a1.568 1.568 0 0 1-1.174-1.514c0-.133.016-.283.064-.436l.535-1.931-1.291-1.268a1.56 1.56 0 0 1-.002-2.227l1.441-1.417-.482-1.745a1.596 1.596 0 0 1-.058-.417c0-.696.468-1.324 1.17-1.513l1.959-.503.454-1.754a1.555 1.555 0 0 1 1.509-1.168c.143 0 .274.02.4.05l1.967.546 1.269-1.292a1.56 1.56 0 0 1 2.223-.002l1.42 1.444 1.743-.485a1.565 1.565 0 0 1 1.928 1.109l.508 1.963 1.753.452a1.56 1.56 0 0 1 1.115 1.919l-.541 1.959 1.29 1.269c.312.306.466.715.466 1.113"/>
        <path fill="#e6e6e6" d="M21.673 11.967l-1.806-1.773.734-2.644a.335.335 0 0 0-.239-.415l-2.453-.633-.685-2.656a.338.338 0 0 0-.417-.237l-2.435.676-1.925-1.958a.33.33 0 0 0-.238-.1.328.328 0 0 0-.24.1l-1.775 1.806L7.553 3.4a.478.478 0 0 0-.094-.01.331.331 0 0 0-.32.246l-.635 2.458-2.657.68a.342.342 0 0 0-.252.326c0 .025.004.053.013.086l.677 2.444-1.957 1.923a.334.334 0 0 0-.002.475l1.81 1.777-.734 2.642a.3.3 0 0 0-.015.094.337.337 0 0 0 .256.324l2.45.63.685 2.659a.332.332 0 0 0 .415.237l2.437-.676 1.925 1.958a.328.328 0 0 0 .477-.002l1.775-1.804 2.643.73c.029.01.054.015.09.015a.33.33 0 0 0 .323-.25l.633-2.454 2.66-.683a.334.334 0 0 0 .249-.324.42.42 0 0 0-.013-.098l-.675-2.436 1.956-1.921a.333.333 0 0 0 .099-.24.333.333 0 0 0-.1-.24"/>
        <path fill="#f0f" d="M13.414 17.414c-1.455 0-2.75-.537-3.669-1.455S8.29 13.746 8.29 12.293v-.002c.005-2.485 1.967-3.986 3.992-3.99 1.012-.003 1.92.353 2.561.996.64.64.998 1.55.996 2.562-.018 1.342-1.016 2.672-2.496 2.713-.583.002-1.144-.176-1.566-.553-.426-.376-.672-.95-.668-1.58.01-.464.17-.896.486-1.257l.908.828-.002.002c-.079.072-.172.312-.163.427.033.631.318.858 1.005.907.303.002.616-.159.866-.448.248-.285.404-.685.402-1.039-.036-1.453-.879-2.298-2.329-2.33-1.464.024-2.75.971-2.764 2.762.024 2.301 1.594 3.873 3.896 3.894 2.226-.005 4.104-2.044 4.107-4.326-.033-3.216-2.09-5.275-5.302-5.308-3.202.011-5.735 2.365-5.739 5.521a7.4 7.4 0 0 0 1.337 4.21l-1.006.7a8.61 8.61 0 0 1-1.558-4.91C5.26 8.215 8.404 5.33 12.22 5.323h.007c1.89 0 3.54.66 4.7 1.824 1.166 1.164 1.826 2.817 1.824 4.712-.009 2.93-2.347 5.537-5.336 5.555"/>
    </g>
</svg>
