<svg xmlns="http://www.w3.org/2000/svg" width="32" height="32" viewBox="0 0 32 32">
    <defs>
        <clipPath id="a">
            <path d="M0 24h24V0H0z"/>
        </clipPath>
    </defs>
    <g clip-path="url(#a)" transform="matrix(1.33333 0 0 -1.33333 0 32)">
        <path fill="#b45000" d="M21.136 16.285c-2.04 3.93-6.418 6.124-6.46 6.16l-.397.202L.999 9.37V6.503h4.213c.002-.068.006-.13.006-.199.002-1.1-.197-2.317-.201-3.156a1.794 1.794 0 1 1 3.587 0c-.003.947-.222 2.25-.22 3.27-.005.492.058.904.152 1.101.119.196.08.168.266.194.026 0 .04.002.042.002.085 0 .152-.002.195-.006.03-.102.076-.358.07-.776a1.595 1.595 0 1 1 3.13-.43H23v2.694c0 .592-.088 3.62-1.863 7.088"/>
        <path fill="#ff8c00" d="M11.078 6.934a.373.373 0 0 0-.37-.371.372.372 0 0 0-.37.37c-.015.73-.044 1.187-.374 1.61-.386.434-.87.393-1.12.399h-.042c-.639.025-1.193-.423-1.385-.92-.217-.49-.257-1.031-.26-1.604.001-1.164.224-2.501.22-3.27a.569.569 0 0 0-.567-.568.569.569 0 0 0-.566.569c-.004.653.2 1.93.201 3.155-.004.78-.073 1.562-.416 2.237-.327.686-1.077 1.21-2.007 1.186h-.926l9.406 9.407c1.047-.682 3.895-2.701 4.935-4.768a13.19 13.19 0 0 0 1.38-4.64h-5.569c-.649.013-1.278-.286-1.645-.813-.373-.523-.523-1.192-.525-1.98"/>
        <path fill="#00be3c" d="M6.073 10.188h1.534v1.534H6.073zM12.743 12.125l-3.925 1.939-.447-.904 3.926-1.941z"/>
        <path fill="red" d="M12.13 14.363a1.713 1.713 0 1 1 0 3.426 1.713 1.713 0 0 1 0-3.426M15.382 10.483a1.712 1.712 0 1 1-1.711 1.712c0-.944.766-1.712 1.71-1.712"/>
        <path fill="#00be3c" d="M6.073 10.188h1.534v1.534H6.073zM12.743 12.125l-3.925 1.939-.447-.904 3.926-1.941z"/>
        <path fill="red" d="M12.13 14.363a1.713 1.713 0 1 1 0 3.426 1.713 1.713 0 0 1 0-3.426M15.382 10.483a1.712 1.712 0 1 1-1.711 1.712c0-.944.766-1.712 1.71-1.712"/>
        <path fill="#ff8c00" d="M2.228 7.73v.77h1.794c.552-.026.708-.169.916-.52.038-.072.07-.16.1-.25zM21.773 9.113V7.73h-9.37c.14.604.415.746.845.77h6.218a.616.616 0 0 1 .611.655c-.003.38-.083 2.91-1.549 5.771-1.23 2.332-3.89 4.262-5.145 5.091l1.12 1.12c.411-.239 1.108-.67 1.903-1.286 1.27-.978 2.755-2.4 3.637-4.127 1.651-3.218 1.73-6.06 1.73-6.527z"/>
    </g>
</svg>
