<svg xmlns="http://www.w3.org/2000/svg" width="32" height="32" viewBox="0 0 32 32">
    <defs>
        <clipPath id="a">
            <path d="M0 24h24V0H0z"/>
        </clipPath>
    </defs>
    <g clip-path="url(#a)" transform="matrix(1.33333 0 0 -1.33333 0 32)">
        <path fill="#ff8c00" d="M19.378 16.195v2.328c.382.104.726.31.997.583.413.41.668.982.668 1.61a2.284 2.284 0 0 1-.67 1.613 2.295 2.295 0 0 1-1.608.67 2.25 2.25 0 0 1-1.294-.41 2.259 2.259 0 0 1-1.291.409 2.272 2.272 0 0 1-2.277-2.28 2.23 2.23 0 0 1 .666-1.61 2.204 2.204 0 0 1 1.003-.587l-.001-2.328a3.477 3.477 0 0 1-1.576-2.91h-1.603c-5.374 0-9.732-4.357-9.732-9.732A2.56 2.56 0 0 1 5.21 1h8.555a7.195 7.195 0 0 1 7.194 7.194v5.089c0 1.22-.631 2.29-1.581 2.912"/>
        <path fill="#e6e6e6" d="M18.148 16.697v2.965l.615.005c.291 0 .551.112.744.305.19.195.307.451.31.746 0 .291-.12.55-.314.742a1.052 1.052 0 0 1-.738.311 1.026 1.026 0 0 1-.81-.393l-.477-.602-.48.597c-.024.022-.05.053-.085.087a1.041 1.041 0 0 1-1.785-.742c0-.29.12-.55.308-.746a1.06 1.06 0 0 1 .703-.307l.66.094v-3.063c.22.043.446.068.678.068.23 0 .453-.025.67-.067M15.309 3.129a.602.602 0 0 0 .31.792 4.658 4.658 0 0 1 2.803 4.272.6.6 0 1 0 1.2 0A5.868 5.868 0 0 0 16.1 2.817a.601.601 0 0 0-.792.312M14.414 2.936a.65.65 0 1 0-1.299 0 .65.65 0 0 0 1.3 0"/>
    </g>
</svg>
