<svg xmlns="http://www.w3.org/2000/svg" width="32" height="32" viewBox="0 0 32 32">
    <defs>
        <clipPath id="a">
            <path d="M0 24h24V0H0z"/>
        </clipPath>
    </defs>
    <g clip-path="url(#a)" transform="matrix(1.33333 0 0 -1.33333 0 32)">
        <path fill="#b45000" d="M14.831 11.998c0-.441-.247-.887-.755-1.256-.502-.365-1.245-.613-2.075-.611-.834-.002-1.576.246-2.079.611-.507.369-.753.815-.753 1.256 0 .447.246.891.753 1.258.503.365 1.245.613 2.08.611.83.002 1.572-.246 2.074-.611.508-.367.755-.811.755-1.258m-2.83 9.69c-6.015-.01-10.987-4.268-11-9.69.013-5.416 4.985-9.678 11-9.686 6.013.008 10.984 4.27 11 9.686-.016 5.422-4.987 9.68-11 9.69"/>
        <path fill="#e6e6e6" d="M12.001 3.54c-3.787.003-7.017 1.86-8.645 4.532 1.782-1.496 4.751-3.154 8.647-3.154 3.888 0 6.853 1.65 8.635 3.146-1.628-2.67-4.856-4.52-8.637-4.525M12.043 18.715c-.014-.002-.026-.002-.04-.002a.454.454 0 0 0-.286.098.248.248 0 0 0-.051.04.485.485 0 0 0-.138.336.49.49 0 0 0 .138.335.487.487 0 0 0 .369.136c3.528-.013 6.6-1.765 8.063-4.357a.475.475 0 0 0-.182-.645.472.472 0 0 0-.643.184c-1.261 2.25-4.016 3.863-7.23 3.875M20.467 14.045a.613.613 0 1 0 0-1.226.613.613 0 0 0 0 1.226"/>
    </g>
</svg>
