<svg xmlns="http://www.w3.org/2000/svg" width="32" height="32" viewBox="0 0 32 32">
    <defs>
        <clipPath id="a">
            <path d="M0 24h24V0H0z"/>
        </clipPath>
    </defs>
    <g clip-path="url(#a)" transform="matrix(1.33333 0 0 -1.33333 0 32)">
        <path fill="#f0f" d="M14.797 22.996a8.205 8.205 0 0 1-8.204-8.204c0-1.907.658-3.659 1.75-5.052L1.037 2.433 2.45 1.018l7.307 7.31a8.163 8.163 0 0 1 5.039-1.74 8.204 8.204 0 0 1 0 16.408"/>
        <path fill="#e6e6e6" d="M18.174 8.776c-.292-.033-.931-.103-1.237-.103a5.923 5.923 0 0 0-4.213 1.745 4.603 4.603 0 0 0-1.357 3.268 4.6 4.6 0 0 0 1.357 3.27 3.52 3.52 0 0 0 2.506 1.04c.907 0 1.812-.345 2.509-1.04a2.692 2.692 0 0 0-.002-3.803 1.996 1.996 0 0 0-2.827 0 1.445 1.445 0 0 0-.425 1.027c0 .374.14.741.425 1.025l-1.06 1.062a2.94 2.94 0 0 1-.864-2.087 2.941 2.941 0 0 1 .865-2.086 3.488 3.488 0 0 1 2.472-1.027c.894 0 1.795.345 2.478 1.027a4.188 4.188 0 0 1-.002 5.924 5.05 5.05 0 0 1-7.136 0 6.114 6.114 0 0 1-1.796-4.332c0-1.563.6-3.134 1.794-4.327a7.422 7.422 0 0 1 1.835-1.345c-3.186.612-5.603 3.416-5.603 6.778a6.912 6.912 0 0 0 6.904 6.904 6.91 6.91 0 0 0 6.903-6.904c0-2.58-1.424-4.83-3.526-6.016"/>
    </g>
</svg>
