<svg xmlns="http://www.w3.org/2000/svg" width="32" height="32" viewBox="0 0 32 32">
    <defs>
        <clipPath id="a">
            <path d="M0 24h24V0H0z"/>
        </clipPath>
    </defs>
    <g clip-path="url(#a)" transform="matrix(1.33333 0 0 -1.33333 0 32)">
        <path fill="#e6e6e6" d="M18.178 15.213c.459-1.424.959-3 1.166-3.73.063-.25.098-.288.117-.55C19.32 8.247 15.903 6.732 12 6.69c-3.902.04-7.322 1.556-7.463 4.244.019.26.057.299.118.549.06.218 1.112 3.558 1.167 3.73-2.271-1.131-3.607-2.83-3.594-4.643-.002-1.58.97-3.045 2.724-4.162 1.746-1.111 4.239-1.816 7.05-1.814 2.809-.002 5.3.703 7.046 1.814 1.755 1.117 2.726 2.582 2.724 4.162.013 1.813-1.323 3.514-3.594 4.643"/>
        <path fill="#595959" d="M17.67 16.78l.508-1.567c2.27-1.129 3.607-2.83 3.594-4.643.002-1.58-.97-3.045-2.724-4.162-1.745-1.11-4.237-1.817-7.046-1.815-2.811-.002-5.304.704-7.05 1.815C3.198 7.525 2.226 8.99 2.228 10.57c-.013 1.813 1.323 3.512 3.593 4.643l.507 1.562C3.216 15.585 1.015 13.351 1 10.57c.074-4.266 5.022-7.195 11.002-7.205 5.977.01 10.924 2.94 10.998 7.205-.016 2.781-2.217 5.016-5.33 6.21"/>
        <path fill="#b45000" d="M5.821 15.213a635.678 635.678 0 0 1-1.167-3.73c-.06-.25-.098-.288-.118-.55C4.677 8.247 8.098 6.732 12 6.69c3.902.04 7.32 1.556 7.461 4.244-.02.26-.055.299-.118.549-.207.73-.707 2.306-1.166 3.73 0 0-.965 2.943-.998 2.99-.629 1.599-2.75 2.397-5.179 2.43-2.43-.033-4.552-.831-5.182-2.432-.03-.047-.996-2.988-.996-2.988z"/>
        <path fill="#ffbe00" d="M16.013 17.803c-.03-1.03-1.812-1.866-4.012-1.866-2.2 0-3.982.834-4.013 1.865l-2.223-6.917c.016-.649.565-1.385 1.68-1.977 1.125-.598 2.752-.992 4.555-.99 1.804-.002 3.428.392 4.555.99 1.117.594 1.668 1.33 1.68 1.978l-2.222 6.917"/>
    </g>
</svg>
