<svg xmlns="http://www.w3.org/2000/svg" width="32" height="32" viewBox="0 0 32 32">
    <defs>
        <clipPath id="a">
            <path d="M0 24h24V0H0z"/>
        </clipPath>
    </defs>
    <g clip-path="url(#a)" transform="matrix(1.33333 0 0 -1.33333 0 32)">
        <path fill="#b45000" d="M19.64 16.476a2.194 2.194 0 1 0 0-4.39 2.195 2.195 0 0 0-.652.11v4.17c.207.065.423.11.652.11M12 7.466c4.743 0 6.32 1.852 6.795 3.433.273-.067.552-.114.845-.114a3.496 3.496 0 1 1 0 6.992c-.224 0-.44-.026-.652-.066v2.48H5.015v-8.01c0-1.6.84-4.715 6.986-4.715"/>
        <path fill="#b45000" d="M19.281 9.362c-.939-1.514-2.958-2.992-7.28-2.992-4.324 0-6.34 1.478-7.28 2.992C2.442 8.78 1 7.932 1 6.987 1 5.231 5.925 3.81 12 3.81s11 1.422 11 3.178c0 .945-1.444 1.793-3.72 2.375"/>
    </g>
</svg>
