<svg xmlns="http://www.w3.org/2000/svg" width="32" height="32" viewBox="0 0 32 32">
    <defs>
        <clipPath id="a">
            <path d="M0 24h24V0H0z"/>
        </clipPath>
    </defs>
    <g clip-path="url(#a)" transform="matrix(1.33333 0 0 -1.33333 0 32)">
        <path fill="#ff8c00" d="M20.55 7.814a.932.932 0 0 0-.288-.703 3.184 3.184 0 0 0-.783-.52 12.367 12.367 0 0 1-.631-.246 23.4 23.4 0 0 1-.748-.338v8.442h1.255c.388 0 .686-.107.89-.32.203-.216.305-.527.305-.935zM18.1 19.515a2.835 2.835 0 0 1-2.835 2.834H5.058a2.834 2.834 0 0 1-2.835-2.834V3.865c0-1.223.99-2.214 2.213-2.214h11.45c1.223 0 2.214.991 2.214 2.213v.855c.263.123.535.236.808.338.278.103.64.234 1.092.398.632.265 1.086.496 1.362.691.277.193.416.555.416 1.086v7.186c0 .738-.231 1.323-.692 1.763-.458.44-1.045.658-1.762.658H18.1z"/>
        <path fill="#e6e6e6" d="M11.21 15.717c-.545.001-1.025.228-1.326.574a1.88 1.88 0 0 0-.707-.139c-.631 0-1.174.303-1.453.745-.254-.5-.84-.85-1.522-.85-.59 0-1.103.263-1.397.658a1.956 1.956 0 0 0-.353-.033c-.345 0-.664.091-.93.246v-2.627h7.666c.008.733.077 1.322.022 1.426M15.646 16.28c-.17-.333-.152-1.118-.185-1.988H16.8v2.78c-.4-.068-.846-.262-1.153-.791"/>
        <path fill="#e6e6e6" d="M15.265 21.05H5.058a1.536 1.536 0 0 1-1.535-1.535v-1.138c.22-.045.428-.147.599-.298a.498.498 0 0 1 .33-.107c.042 0 .083.006.123.013a1.299 1.299 0 0 0 1.273-.504c.034-.046.153-.134.354-.134.219 0 .344.103.363.139.213.416.634.687 1.1.708l.059.002c.443 0 .86-.226 1.1-.604.033-.054.16-.14.353-.14a.6.6 0 0 1 .223.045 1.306 1.306 0 0 0 1.466-.352c.05-.06.17-.127.346-.128.48 0 .922-.267 1.147-.692.2-.378.183-.726.154-1.302-.031-.62-.112-2.267.37-2.775.042-.044.128-.135.428-.135.54 0 .808.406.868 2.71.022.848.039 1.516.309 2.048l.034.062c.487.842 1.293 1.355 2.278 1.457v1.125c0 .847-.69 1.535-1.535 1.535M3.522 10.741h1.227V9.513H3.522zM3.522 8.322H4.75V6.48c0-.407.095-.714.29-.919.194-.205.506-.306.934-.306H7.2V4.03H5.944c-.735 0-1.323.23-1.762.69-.44.457-.66 1.046-.66 1.76z"/>
    </g>
</svg>
