<svg xmlns="http://www.w3.org/2000/svg" width="32" height="32" viewBox="0 0 32 32">
    <defs>
        <clipPath id="a">
            <path d="M0 24h24V0H0z"/>
        </clipPath>
    </defs>
    <g clip-path="url(#a)" transform="matrix(1.33333 0 0 -1.33333 0 32)">
        <path fill="#b45000" d="M21.625 9.23c-.31.173-.695.29-1.16.35a11.39 11.39 0 0 1-1.363.085c-.581 0-1.108-.023-1.581-.072-.474-.05-.876-.17-1.205-.364.368-.27.77-.468 1.205-.595a5.288 5.288 0 0 1 1.465-.19 5.44 5.44 0 0 1 1.45.176c.425.116.822.32 1.189.61m.202-1.249a5.165 5.165 0 0 0-1.319-.522 6.072 6.072 0 0 0-1.436-.173c-.58 0-1.117.058-1.609.173a5.64 5.64 0 0 0-1.379.522c.059-1.043.285-1.788.682-2.232.396-.446 1.125-.668 2.191-.668 1.043 0 1.764.218 2.16.654.397.433.634 1.183.71 2.246m1.19.551c0-1.508-.308-2.653-.928-3.437-.618-.782-1.663-1.173-3.132-1.173-.813 0-1.533.133-2.162.405a2.594 2.594 0 0 0-1.378 1.336 4.34 4.34 0 0 0-.419 1.507c-.049.522-.074 1.17-.074 1.944 0 .658.43 1.106 1.291 1.347a9.612 9.612 0 0 0 2.627.364c.984 0 1.918-.107 2.799-.32.879-.213 1.337-.676 1.376-1.39v-.279zM10.051 20.803c-.31.175-.693.29-1.146.348-.455.058-.914.087-1.379.087a19.66 19.66 0 0 1-1.623-.058c-.465-.039-.852-.154-1.161-.347a3.48 3.48 0 0 1 1.203-.625 5.315 5.315 0 0 1 1.465-.188c.503 0 .972.063 1.408.188.435.126.846.325 1.233.595m2.553-13.982c0 .91-.581 2.462-1.742 4.658-1.159 2.193-1.74 3.727-1.74 4.596 0 .522.044.972.131 1.35.086.375.256.786.508 1.232.019.057.072.183.158.377.088.193.151.347.19.465a5.426 5.426 0 0 0-1.291-.48 5.935 5.935 0 0 0-1.35-.159c-.541 0-1.044.053-1.508.16a5.171 5.171 0 0 0-1.335.508c.04-.117.098-.277.175-.48.078-.203.135-.334.174-.39a6.74 6.74 0 0 0 .507-1.22c.106-.367.161-.792.161-1.275 0-.678-.185-1.417-.552-2.22a56.932 56.932 0 0 0-1.277-2.597 60.956 60.956 0 0 1-1.116-2.422c-.358-.822-.537-1.522-.537-2.103 0-.638.053-1.203.16-1.696.106-.494.343-.914.71-1.26.407-.427 1.005-.718 1.799-.873a13.3 13.3 0 0 1 2.552-.23c.871 0 1.707.075 2.51.23.803.155 1.416.446 1.842.872.329.347.555.771.682 1.275a6.93 6.93 0 0 1 .189 1.682m1.158 0c0-.813-.084-1.528-.26-2.147a3.875 3.875 0 0 0-.957-1.654c-.561-.539-1.295-.912-2.205-1.116A13.693 13.693 0 0 0 7.381 1.6c-1.121 0-2.127.098-3.016.29-.89.193-1.615.571-2.176 1.13-.483.485-.802 1.025-.958 1.625C1.077 5.246 1 5.932 1 6.705c0 .794.164 1.596.494 2.41a33.2 33.2 0 0 0 1.305 2.783c.444.831.835 1.62 1.174 2.364.339.744.507 1.35.507 1.813 0 .637-.192 1.383-.579 2.233-.388.851-.58 1.597-.58 2.234v.174c.019.35.12.605.304.77.184.163.469.322.855.477.369.174.779.29 1.233.35.455.058.962.086 1.524.086 1.025 0 1.963-.102 2.814-.305.85-.203 1.314-.662 1.391-1.378v-.174c0-.637-.192-1.383-.58-2.234-.386-.85-.579-1.596-.579-2.233 0-.445.193-1.093.579-1.944.388-.85.745-1.595 1.074-2.233.522-.987.957-1.896 1.304-2.727.35-.83.522-1.614.522-2.35"/>
    </g>
</svg>
