<svg xmlns="http://www.w3.org/2000/svg" width="32" height="32" viewBox="0 0 32 32">
    <defs>
        <clipPath id="a">
            <path d="M0 24h24V0H0z"/>
        </clipPath>
    </defs>
    <g clip-path="url(#a)" transform="matrix(1.33333 0 0 -1.33333 0 32)">
        <path fill="#a000a0" d="M7.963 16.813l.893 4.888h6.286l.894-4.889zm6.115-14.646c-.621.122-1.064.356-1.33.703a.67.67 0 0 0-.091.2.656.656 0 0 0-.03.166v5.848c2.815.351 4.924 2.961 4.93 6.051 0 .451-.048.886-.132 1.304L16.224 23H7.772l-1.2-6.56a6.674 6.674 0 0 1-.13-1.305c.004-3.1 2.13-5.72 4.96-6.055V3.236a.373.373 0 0 0-.044-.153l-.107-.213c-.287-.347-.734-.58-1.346-.704a7.949 7.949 0 0 0-1.834-.153h-.336v-1h8.53v1h-.336a8.15 8.15 0 0 0-1.851.153"/>
    </g>
</svg>
