<svg xmlns="http://www.w3.org/2000/svg" width="32" height="32" viewBox="0 0 32 32">
    <defs>
        <clipPath id="a">
            <path d="M0 24h24V0H0z"/>
        </clipPath>
    </defs>
    <g clip-path="url(#a)" transform="matrix(1.33333 0 0 -1.33333 0 32)">
        <path fill="#595959" d="M9.074 10.126c-.01-.461.257-1.204.774-1.756.519-.556 1.215-.944 2.137-.946.92.002 1.615.39 2.134.946.517.552.785 1.295.776 1.756-.021 2.278-1.105 3.655-2.911 4.614-1.805-.959-2.89-2.336-2.91-4.614m-1.993 0c-.016 2.46 1.066 4.262 2.64 5.515-2.785.798-6.207.899-8.706.895v1.99c2.686-.004 6.478-.084 9.733-1.117.418-.127.832-.275 1.236-.446.403.171.817.319 1.236.446 3.256 1.033 7.046 1.113 9.733 1.117v-1.99c-2.501.004-5.922-.097-8.708-.895 1.575-1.253 2.657-3.055 2.64-5.515-.022-2.089-1.812-4.642-4.9-4.693-3.09.051-4.881 2.604-4.904 4.693"/>
    </g>
</svg>
