<svg xmlns="http://www.w3.org/2000/svg" width="32" height="32" viewBox="0 0 32 32">
    <defs>
        <clipPath id="a">
            <path d="M0 24h24V0H0z"/>
        </clipPath>
    </defs>
    <g clip-path="url(#a)" transform="matrix(1.33333 0 0 -1.33333 0 32)">
        <path fill="#00f" d="M9.706 8.09l-.019.63a6.672 6.672 0 0 0-.003.203c.003 2.729 1.572 4.684 3.148 5.552 1.47.844 2.897 1.342 3.082 1.566.124.119.18.175.178.177l-.009.004c.01.046.02.138.025.226v.019c.006.068-.074.447-.815.93-.696.454-1.9.836-3.248.836l-.016-.002-.055.002h-.01c-1.352.004-2.563-.381-3.254-.834-.729-.502-.747-.761-.834-1.08l-.107-.52H3.261l.004.654c.014 2.17 1.366 3.85 2.953 4.844 1.607 1.02 3.615 1.558 5.782 1.562 2.167-.004 4.174-.541 5.781-1.56 1.591-.996 2.941-2.675 2.95-4.851v-.061c-.002-1.222-.427-2.365-1.13-3.19-.693-.82-1.509-1.278-2.188-1.622-1.336-.617-2.443-1.104-2.688-1.448-.249-.323-.373-.426-.414-1.4L14.3 8.09zM8.81 4.219A3.194 3.194 0 0 0 12 7.41a3.19 3.19 0 1 0-3.19-3.192"/>
        <path fill="#e6e6e6" d="M13.05 9.388c.1.748.376 1.243.682 1.577.708.792 1.83 1.148 3.109 1.777.623.315 1.245.68 1.77 1.297.487.568.823 1.436.82 2.348 0 .04.003.062.003.062-.004 1.592-1.007 2.903-2.35 3.75-1.365.868-3.133 1.357-5.083 1.359-1.951-.002-3.721-.491-5.09-1.36C5.762 19.47 4.86 18.4 4.626 17.1h2.134c.187.437.554.959 1.244 1.389.965.622 2.37 1.04 3.96 1.044l.023-.001a.765.765 0 0 0 .04 0h.01c1.59-.003 2.995-.423 3.965-1.045.948-.617 1.4-1.327 1.405-2.021 0 0 .002-.018 0-.063.04-.552-.316-1.118-.596-1.303-.733-.628-1.955-.93-3.334-1.755-1.128-.623-2.312-2.002-2.473-3.958zM10.111 4.219a1.892 1.892 0 0 1 1.89-1.888 1.892 1.892 0 0 1 1.89 1.888A1.893 1.893 0 0 1 12 6.11a1.893 1.893 0 0 1-1.89-1.892"/>
    </g>
</svg>
