<svg xmlns="http://www.w3.org/2000/svg" width="32" height="32" viewBox="0 0 32 32">
    <defs>
        <clipPath id="a">
            <path d="M0 24h24V0H0z"/>
        </clipPath>
    </defs>
    <g clip-path="url(#a)" transform="matrix(1.33333 0 0 -1.33333 0 32)">
        <path fill="red" d="M8.823 4.16a3.177 3.177 0 0 0 6.352 0A3.18 3.18 0 0 0 12 .982 3.178 3.178 0 0 0 8.823 4.16M9.519 21.674v.65zm.31-13.563L8.872 22.28l-.047.694h6.3L14.137 8.11z"/>
        <path fill="#e6e6e6" d="M10.124 4.16a1.88 1.88 0 0 1 1.875-1.877 1.882 1.882 0 0 1 1.877 1.877 1.883 1.883 0 0 1-1.877 1.875 1.88 1.88 0 0 1-1.875-1.875M11.044 9.41h1.874l.816 12.264h-3.52z"/>
    </g>
</svg>
