<svg xmlns="http://www.w3.org/2000/svg" width="32" height="32" viewBox="0 0 32 32">
    <defs>
        <clipPath id="a">
            <path d="M0 24h24V0H0z"/>
        </clipPath>
    </defs>
    <g clip-path="url(#a)" transform="matrix(1.33333 0 0 -1.33333 0 32)">
        <path fill="red" d="M18.245 13.231c-.085 2.864-1.182 3.588-3.02 3.72 1.838.133 2.935.857 3.02 3.72.084-2.863 1.18-3.587 3.02-3.72-1.84-.132-2.936-.856-3.02-3.72M5.756 3.323c-.085 2.864-1.182 3.588-3.02 3.72 1.838.132 2.935.857 3.02 3.72.084-2.863 1.18-3.588 3.02-3.72-1.84-.132-2.936-.856-3.02-3.72M19.468 18.86c-.602 1.178-1.223 3.713-1.223 3.713s-.62-2.535-1.223-3.713c-.032-.063-.09-.129-.142-.194-1.912 1.061-4.528.688-6.218-1.647-2.927 4.043-8.64 2.231-8.64-2.786 0-1.792 1.108-3.593 2.525-5.252l-.014-.029c-.407-.799-2.494-1.809-3.532-1.907C2.04 6.948 4.126 5.938 4.533 5.14c.602-1.178 1.223-3.713 1.223-3.713s.621 2.535 1.222 3.713c.112.22.358.454.667.683 1.646-1.543 3.017-2.779 3.017-3.482 0 1.766 8.64 6.876 8.64 11.893 0 .135-.02.26-.029.39.065.153.13.297.195.424.407.8 2.494 1.81 3.532 1.907-1.038.097-3.125 1.107-3.532 1.906"/>
    </g>
</svg>
