<svg xmlns="http://www.w3.org/2000/svg" width="32" height="32" viewBox="0 0 32 32">
    <defs>
        <clipPath id="a">
            <path d="M0 24h24V0H0z"/>
        </clipPath>
    </defs>
    <g clip-path="url(#a)" transform="matrix(1.33333 0 0 -1.33333 0 32)">
        <path fill="#00f" d="M18.018 10.208a.697.697 0 0 0-.528 1.157c1.567 1.779 2.71 3.666 2.683 5.022 0 .988-.261 1.741-.65 2.296a.696.696 0 0 0 .17.973c.314.223.75.147.973-.169.569-.806.908-1.861.905-3.1-.025-2.054-1.407-4.053-3.026-5.94a.696.696 0 0 0-.527-.239m-1.801-2.153a.806.806 0 1 0 0 1.612.806.806 0 0 0 0-1.612M12 19.934C8.275 25.079 1 22.772 1 16.386 1 9.998 12 3.492 12 1.244c0 2.248 11 8.754 11 15.142 0 6.386-7.273 8.693-11 3.548"/>
    </g>
</svg>
