<svg xmlns="http://www.w3.org/2000/svg" width="32" height="32" viewBox="0 0 32 32">
    <defs>
        <clipPath id="a">
            <path d="M0 24h24V0H0z"/>
        </clipPath>
    </defs>
    <g clip-path="url(#a)" transform="matrix(1.33333 0 0 -1.33333 0 32)">
        <path fill="#00be3c" d="M18.018 10.21a.697.697 0 0 0-.528 1.156c1.567 1.78 2.71 3.667 2.683 5.023 0 .988-.261 1.74-.65 2.296a.696.696 0 0 0 .17.973c.314.223.75.147.973-.17.569-.805.908-1.86.905-3.1-.025-2.053-1.407-4.052-3.026-5.94a.695.695 0 0 0-.527-.237m-1.801-2.154a.806.806 0 1 0 0 1.612.806.806 0 0 0 0-1.612M12 19.936C8.275 25.08 1 22.774 1 16.388 1 10 12 3.494 12 1.246 12 3.494 23 10 23 16.388c0 6.386-7.273 8.693-11 3.548"/>
    </g>
</svg>
