<svg xmlns="http://www.w3.org/2000/svg" width="32" height="32" viewBox="0 0 32 32">
    <defs>
        <clipPath id="a">
            <path d="M0 24h24V0H0z"/>
        </clipPath>
    </defs>
    <g clip-path="url(#a)" transform="matrix(1.33333 0 0 -1.33333 0 32)">
        <path fill="#a000a0" d="M18.017 10.208a.698.698 0 0 0-.528 1.157c1.566 1.779 2.71 3.666 2.683 5.022 0 .988-.261 1.741-.65 2.296a.696.696 0 0 0 .17.973c.314.223.75.147.972-.169.57-.806.909-1.861.907-3.1-.026-2.054-1.408-4.053-3.027-5.94a.696.696 0 0 0-.527-.239m-1.8-2.153a.806.806 0 1 0 0 1.612.806.806 0 0 0 0-1.612M12 19.934c-3.726 5.145-11 2.838-11-3.548C1 9.998 12 3.492 12 1.244c0 2.248 11 8.754 11 15.142 0 6.386-7.274 8.693-11 3.548"/>
    </g>
</svg>
