<svg xmlns="http://www.w3.org/2000/svg" width="32" height="32" viewBox="0 0 32 32">
    <defs>
        <clipPath id="a">
            <path d="M0 24h24V0H0z"/>
        </clipPath>
    </defs>
    <g clip-path="url(#a)" transform="matrix(1.33333 0 0 -1.33333 0 32)">
        <path fill="red" d="M21.96 16.9l-1.955-4.193c-.142-.272-.291-.33-.562-.346-.348-.012-.82.247-.966.48-.31.448-.856 1.443-1.156 2 .07.077.132.163.178.26l1.018 2.181c.044.098.05.2.065.3.616.127 1.748.351 2.295.402a.5.5 0 0 0 .064.006c.215.004.529-.102.749-.272.224-.172.335-.37.334-.55a.645.645 0 0 0-.063-.268m-9.177 4.281c.14.273.287.334.559.348.347.012.82-.245.97-.484.306-.446.852-1.44 1.153-1.999a1.151 1.151 0 0 1-.177-.257l-1.018-2.184a.889.889 0 0 1-.084-.303c-.621-.127-1.735-.349-2.276-.4l-.064-.002c-.22-.004-.532.102-.754.271-.225.174-.335.371-.331.553 0 .078.013.157.062.253zm3.832-5.662l-1.456.678 1.013 2.173 1.456-.68-.002-.007zm4.325 3.448c-.058 0-.118-.002-.175-.01a8.16 8.16 0 0 1-.305-.038 5.255 5.255 0 0 1-5.185 2.435 6.408 6.408 0 0 1-.158.246 2.244 2.244 0 0 1-1.775.907 1.547 1.547 0 0 1-1.446-.913l-1.083-2.322C7.269 23.412 1 21.243 1 15.53 1 9.607 11.199 3.576 11.199 1.492c0 1.606 6.047 5.562 8.822 10.004.355.133.685.388.87.796l1.957 4.197c.103.224.155.458.152.68-.06 1.17-1.154 1.777-2.06 1.798"/>
    </g>
</svg>
