<svg xmlns="http://www.w3.org/2000/svg" width="32" height="32" viewBox="0 0 32 32">
    <defs>
        <clipPath id="a">
            <path d="M0 24h24V0H0z"/>
        </clipPath>
    </defs>
    <path fill="#595959" d="M1.333 28.887h22.454v-4.491H1.333zM25.315 28.887h1.912v-4.491h-1.912zM28.755 28.887h1.912v-4.491h-1.912z"/>
    <g clip-path="url(#a)" transform="matrix(1.33333 0 0 -1.33333 0 32)">
        <path fill="#595959" d="M19.053 6.886v1.529a.784.784 0 0 1-.784.783h-5.16a3.518 3.518 0 0 0-3.516 3.516v1.124a3.94 3.94 0 0 0 .65 7.827v-1.3a2.644 2.644 0 0 1-2.641-2.64 2.644 2.644 0 0 1 2.64-2.64h.652v-2.371a2.218 2.218 0 0 1 2.216-2.216h5.159a2.083 2.083 0 0 0 2.083-2.083l.002-1.53z"/>
        <path fill="#595959" d="M21.633 6.887v3.82a2.22 2.22 0 0 1-2.217 2.218h-5.221l-.217 1.265a2.634 2.634 0 0 1 1.77 2.49 2.643 2.643 0 0 1-2.64 2.64v1.299a3.942 3.942 0 0 0 3.942-3.94 3.922 3.922 0 0 0-.861-2.454h3.227a3.516 3.516 0 0 0 3.516-3.518v-3.82h.002z"/>
    </g>
</svg>
