<svg xmlns="http://www.w3.org/2000/svg" width="32" height="32" viewBox="0 0 32 32">
    <defs>
        <clipPath id="a">
            <path d="M0 24h24V0H0z"/>
        </clipPath>
    </defs>
    <path fill="red" d="M24.687 22.24h1.3v-3.057h-1.3z"/>
    <g clip-path="url(#a)" transform="matrix(1.33333 0 0 -1.33333 0 32)">
        <path fill="red" d="M16.27 13.045h-3.516c-.74.002-1.34.6-1.342 1.342v1.779h-.608a1.635 1.635 0 0 0-1.632 1.633c0 .9.73 1.63 1.633 1.632v1.216a2.847 2.847 0 0 1-2.848-2.848 2.85 2.85 0 0 1 2.239-2.784v-.628a2.56 2.56 0 0 1 2.558-2.561h3.516a.368.368 0 0 0 .367-.365V10.42h1.218l-.002 1.04c0 .876-.708 1.585-1.583 1.585"/>
        <path fill="red" d="M17.05 15.582h-1.877c.273.436.43.951.432 1.504a2.85 2.85 0 0 1-2.851 2.85v-1.219a1.63 1.63 0 1 0 .538-3.17l.202-1.184h3.556c.742 0 1.34-.601 1.342-1.344V10.42h1.216v2.599a2.56 2.56 0 0 1-2.558 2.563"/>
        <path fill="red" d="M19.192 5.674L17.05 7.32h.684v2.293h-.976V7.545l-.78.6v1.468h-1.91L4.026 17.33A9.592 9.592 0 0 0 12 21.596 9.607 9.607 0 0 0 21.594 12a9.562 9.562 0 0 0-2.402-6.327M2.404 12a9.568 9.568 0 0 0 .931 4.09l8.424-6.478H4.51V7.32h10.233l3.44-2.644a9.575 9.575 0 0 0-6.184-2.27A9.607 9.607 0 0 0 2.404 12M12 23C5.925 23 1.001 18.075 1.001 12S5.925 1.003 12 1c6.076.002 11 4.925 11 11s-4.924 11-11 11"/>
    </g>
</svg>
