<svg xmlns="http://www.w3.org/2000/svg" width="32" height="32" viewBox="0 0 32 32">
    <defs>
        <clipPath id="a">
            <path d="M0 24h24V0H0z"/>
        </clipPath>
    </defs>
    <g clip-path="url(#a)" transform="matrix(1.33333 0 0 -1.33333 0 32)">
        <path fill="#00f" d="M22.244 3.507l-3.119-1.59c-.266.836-1.235 4.23-1.438 5.046-.103.407-.433.739-.994.994-.56.254-1.066.383-1.513.383H9.095v10.09h.03a2.245 2.245 0 0 0-.918.887 2.405 2.405 0 0 0-.335 1.223c0 .673.24 1.249.718 1.728a2.357 2.357 0 0 0 1.727.718 2.36 2.36 0 0 0 1.728-.718 2.356 2.356 0 0 0 .72-1.728c0-.672-.24-1.248-.72-1.727a2.356 2.356 0 0 0-1.728-.72v-2.446h6.087v-1.222h-6.087V9.53h4.863c.816 0 1.584-.198 2.308-.595.725-.4 1.188-.965 1.391-1.698.062-.224.847-3.09 1.01-3.577l1.773.917zm-8.258 3.608c0-1.692-.599-3.134-1.804-4.326C10.98 1.597 9.543.999 7.872.999c-1.713 0-3.16.598-4.343 1.79C2.347 3.98 1.756 5.423 1.756 7.115c0 1.694.591 3.13 1.773 4.313C4.712 12.61 6.16 13.2 7.872 13.2v-1.222c-1.366 0-2.524-.475-3.47-1.423-.949-.947-1.424-2.095-1.424-3.441 0-1.344.48-2.496 1.438-3.454.958-.958 2.11-1.438 3.456-1.438 1.345 0 2.496.48 3.454 1.438.96.958 1.438 2.11 1.438 3.454z"/>
    </g>
</svg>
