<svg xmlns="http://www.w3.org/2000/svg" width="32" height="32" viewBox="0 0 32 32">
    <defs>
        <clipPath id="a">
            <path d="M0 24h24V0H0z"/>
        </clipPath>
    </defs>
    <path fill="red" d="M10.14 2.963h20.527v1.734H10.14zM1.395 27.733h20.528v1.735H1.395zM18.018 19.11h4.398v-1.734h-4.398v-3.787h4.806v-1.732h-6.54v13.164h6.873v-1.734h-5.139zM3.047 4.697h5.304V2.963H1.313v13.142h1.734V10.33H7.04V8.597H3.047zM25.503 27.733v-4.177H29.9v-1.734h-4.397v-3.785h4.805v-1.735h-6.54V29.468h6.873v-1.735z"/>
    <g clip-path="url(#a)" transform="matrix(1.33333 0 0 -1.33333 0 32)">
        <path fill="red" d="M7.303 14.268v2.986h1.125a1.493 1.493 0 0 0 0-2.986zm3.917 1.492a2.794 2.794 0 0 1-2.792 2.793H6.002V8.698h1.3v4.269h1.126c.082 0 .159.017.239.024l1.614-4.218h1.438l-1.813 4.626a2.788 2.788 0 0 1 1.314 2.36"/>
    </g>
</svg>
