<svg xmlns="http://www.w3.org/2000/svg" width="32" height="32" viewBox="0 0 32 32">
    <defs>
        <clipPath id="a">
            <path d="M0 24h24V0H0z"/>
        </clipPath>
    </defs>
    <g clip-path="url(#a)" transform="matrix(1.33333 0 0 -1.33333 0 32)">
        <path fill="#595959" d="M5.822 12.002a6.186 6.186 0 0 1 6.177-6.18 6.187 6.187 0 0 1 6.179 6.18 6.187 6.187 0 0 1-6.18 6.176 6.186 6.186 0 0 1-6.176-6.177m-1.3 0A7.478 7.478 0 1 0 19.478 12a7.478 7.478 0 0 0-14.956.003"/>
        <path fill="#595959" d="M14.588 11.104C14.326 9.1 13.443 8.697 12 8.619c-1.461.004-2.602 1.378-2.623 3.424.02 2.044 1.162 3.42 2.623 3.424 1.27-.04 2.179-.643 2.515-2.197h1.335c-.156.904-.481 1.67-.984 2.25-.715.834-1.756 1.252-2.866 1.248-2.386-.016-3.918-2.226-3.923-4.726C8.083 9.54 9.615 7.33 12 7.318h.03c1.059 0 2.09.312 2.825 1.114.584.64.927 1.535 1.048 2.671z"/>
    </g>
</svg>
