<svg xmlns="http://www.w3.org/2000/svg" width="32" height="32" viewBox="0 0 32 32">
    <defs>
        <clipPath id="a">
            <path d="M0 24h24V0H0z"/>
        </clipPath>
    </defs>
    <g clip-path="url(#a)" transform="matrix(1.33333 0 0 -1.33333 0 32)">
        <path fill="#595959" d="M22.48 11.413l-2.496 4.323-4.561-2.633 2.939-5.093h-2.984v1.741L12.5 5.375 15.378 1v1.742h2.097c.558 0 1.245.397 1.522.88l3.482 6.03c.278.484.278 1.278 0 1.761M17.212 15.267l2.35 4.68-1.51-.871-1.047 1.816c-.28.482-.966.879-1.523.877l-6.964.002c-.558-.002-1.244-.398-1.525-.88l-2.496-4.324 4.56-2.633L12 19.027l1.493-2.583-1.51-.871zM7.13 10.592l1.508-.87-2.348 4.68-5.228-.304 1.509-.872-1.048-1.816c-.28-.483-.28-1.276 0-1.757L5.006 3.62c.28-.48.967-.877 1.523-.881h4.994v5.27H5.64z"/>
    </g>
</svg>
