<svg xmlns="http://www.w3.org/2000/svg" width="32" height="32" viewBox="0 0 32 32">
    <defs>
        <clipPath id="a">
            <path d="M0 24h24V0H0z"/>
        </clipPath>
    </defs>
    <g clip-path="url(#a)" transform="matrix(1.33333 0 0 -1.33333 0 32)">
        <path fill="#595959" d="M5.822 12.002a6.186 6.186 0 0 1 6.177-6.18 6.187 6.187 0 0 1 6.179 6.18 6.187 6.187 0 0 1-6.18 6.176 6.186 6.186 0 0 1-6.176-6.177m-1.3 0A7.478 7.478 0 1 0 19.478 12a7.478 7.478 0 0 0-14.956.003"/>
        <path fill="#595959" d="M9.648 15.485h3.188c1.063-.09 1.511-.251 1.577-1.458-.043-1.076-.568-1.397-1.577-1.46H9.648zm5.045-8.27l1.478-.012-2.168 4.268c.3.109.583.26.832.472.555.473.884 1.22.877 2.084.007.907-.316 1.672-.887 2.137-.569.464-1.28.618-1.989.62H8.348V7.203h1.3v4.067h3z"/>
    </g>
</svg>
