<svg xmlns="http://www.w3.org/2000/svg" width="32" height="32" viewBox="0 0 32 32">
    <defs>
        <clipPath id="a">
            <path d="M0 24h24V0H0z"/>
        </clipPath>
    </defs>
    <g clip-path="url(#a)" transform="matrix(1.33333 0 0 -1.33333 0 32)">
        <path fill="#00f" d="M2.3 21.216V2.783c0-.265.219-.482.485-.484H21.2a.485.485 0 0 1 .483.484v18.433a.481.481 0 0 1-.483.483H2.785a.484.484 0 0 1-.484-.483M2.785 1C1.799 1 1.002 1.797 1 2.783v18.433A1.785 1.785 0 0 0 2.785 23H21.2c.985 0 1.784-.798 1.784-1.784V2.783c0-.986-.8-1.783-1.784-1.783z"/>
        <path fill="#00f" d="M5.63 16.88h3.688v-.973c-.013-.954-.41-1.507-1.139-2.07-.728-.547-1.772-.985-2.802-1.468l.557-1.176c.987.47 2.097.917 3.022 1.604.925.67 1.673 1.704 1.661 3.11v.974h2.435v-3.13c-.002-.018-.002-.04-.002-.061.004-.146.01-.498.237-.895.213-.395.743-.758 1.397-.758H18.28v1.3h-3.547c-.309.022-.273.067-.325.118a.51.51 0 0 0-.057.2l.001.006v3.22h4.071v-2.03h1.302l-.002 3.328h-7.026v2.07h-1.3v-2.07H4.328v-3.744h1.3zM12.649 5.667v3.372h5.492v1.299H5.833V9.039h5.516V5.667H4.078V4.366h15.969v1.301z"/>
    </g>
</svg>
