<svg xmlns="http://www.w3.org/2000/svg" width="32" height="32" viewBox="0 0 32 32">
    <defs>
        <clipPath id="a">
            <path d="M0 24h24V0H0z"/>
        </clipPath>
    </defs>
    <path fill="red" d="M10.457 15.333H21.19v-1.736H10.457z"/>
    <g clip-path="url(#a)" transform="matrix(1.33333 0 0 -1.33333 0 32)">
        <path fill="red" d="M19.832 13.498c-2.325 1.336-4.919 2.98-7.269 6.283l-.525.739-.531-.732c-2.407-3.305-5.068-4.966-7.393-6.301l.646-1.128c2.198 1.259 4.851 2.905 7.265 5.963 2.361-3.053 4.961-4.69 7.16-5.948l.649 1.125zM16.502 5.426H7.499v3.718h9.003zM6.198 10.443V4.14l11.605-.014v6.317z"/>
        <path fill="red" d="M2.3 21.216V2.783c0-.265.219-.482.485-.484H21.2a.485.485 0 0 1 .483.484v18.433a.481.481 0 0 1-.483.483H2.785a.484.484 0 0 1-.484-.483M2.785 1C1.799 1 1.002 1.797 1 2.783v18.433A1.785 1.785 0 0 0 2.785 23H21.2c.985 0 1.784-.798 1.784-1.784V2.783c0-.986-.8-1.783-1.784-1.783z"/>
    </g>
</svg>
