<svg xmlns="http://www.w3.org/2000/svg" width="32" height="32" viewBox="0 0 32 32">
    <defs>
        <clipPath id="a">
            <path d="M0 24h24V0H0z"/>
        </clipPath>
    </defs>
    <g clip-path="url(#a)" transform="matrix(1.33333 0 0 -1.33333 0 32)">
        <path fill="red" d="M2.3 21.216V2.783c0-.265.219-.482.485-.484H21.2a.485.485 0 0 1 .483.484v18.433a.481.481 0 0 1-.483.483H2.785a.484.484 0 0 1-.484-.483M2.785 1C1.799 1 1.002 1.797 1 2.783v18.433A1.785 1.785 0 0 0 2.785 23H21.2c.985 0 1.784-.798 1.784-1.784V2.783c0-.986-.8-1.783-1.784-1.783z"/>
        <path fill="red" d="M4.896 18.426l2.048-1.595.798 1.026-2.047 1.594zM4.3 14.102l-.001.001zM7.37 13.477c-.02.013-2.103 1.552-2.39 1.733l-.68-1.108c.146-.087 2.295-1.67 2.299-1.67zM4.266 5.063l1.015-.854L7.688 9.64l-1.094.702zM15.287 15.378h-2.908v1.659h2.908zm4.817 1.66v1.3h-3.517v1.788h-1.3v-1.788h-2.908v1.787h-1.301v-1.787H7.979v-1.3h3.099v-1.66H8.937v-1.3h4.224v-1.406H9.628v.01H8.329V4h1.299v7.371h3.533V7.86h-1.157v2.62h-1.3V5.813h1.3v.747h3.823v-.206h1.301v4.126h-1.301V7.86h-1.366v3.511h3.783V5.554c.004 0-.003-.039-.016-.059a.112.112 0 0 0-.041.001h-1.146v-1.3h1.146l.043-.001c.565 0 1.02.386 1.157.715.162.333.154.59.158.644v7.129h-1.299l-.001-.011h-3.784v1.406h4.393v1.3h-2.267v1.66z"/>
    </g>
</svg>
