<svg xmlns="http://www.w3.org/2000/svg" width="32" height="32" viewBox="0 0 32 32">
    <defs>
        <clipPath id="a">
            <path d="M0 24h24V0H0z"/>
        </clipPath>
    </defs>
    <path fill="red" d="M1.35 2.519h29.326v1.733H1.349zM1.35 27.45h29.326v1.733H1.349zM9.186 25.6L4.116 6.402h2.007l3.98 15.228 3.975-15.228h2.008L11.016 25.6z"/>
    <g clip-path="url(#a)" transform="matrix(1.33333 0 0 -1.33333 0 32)">
        <path fill="red" d="M16.67 12.695c-2.368.53-2.776 1.347-2.84 2.655 0 .131.007.263.02.398.16 1.408 1.095 1.983 2.688 2.033 1.604-.039 2.68-.708 2.683-1.964l1.374.37c-.103.941-.587 1.73-1.281 2.211-.784.555-1.767.8-2.776.801-1.976.051-3.913-1.079-4.097-3.315a5.65 5.65 0 0 1-.027-.534c-.063-1.89 1.246-3.592 3.99-4.047 2.368-.528 2.778-1.344 2.84-2.653 0-.13-.008-.266-.018-.404-.16-1.404-1.098-1.98-2.688-2.03-1.604.041-2.681.71-2.683 1.965l-1.374-.368c.1-.94.587-1.73 1.28-2.213.784-.556 1.768-.799 2.777-.8h.13c1.93 0 3.786 1.127 3.967 3.314.016.183.024.358.024.536.064 1.891-1.246 3.592-3.988 4.045"/>
    </g>
</svg>
