<svg xmlns="http://www.w3.org/2000/svg" width="32" height="32" viewBox="0 0 32 32">
    <defs>
        <clipPath id="a">
            <path d="M0 24h24V0H0z"/>
        </clipPath>
    </defs>
    <g clip-path="url(#a)" transform="matrix(1.33333 0 0 -1.33333 0 32)">
        <path fill="#00f" d="M21.348 23H2.652a1.654 1.654 0 0 1-1.654-1.653V2.65c0-.911.74-1.65 1.654-1.65h18.696c.912 0 1.65.739 1.65 1.65v18.697a1.65 1.65 0 0 1-1.65 1.652"/>
        <path fill="#e6e6e6" d="M12 17.801a2.05 2.05 0 1 1 0 4.1 2.05 2.05 0 0 1 0-4.1M15.663 10.438v5.911c0 .575-.45 1.037-1.016 1.081H9.352a1.091 1.091 0 0 1-1.015-1.08v-5.912h1.3v5.116h.491V9.61h.225V3.23H9.148V2.1h5.705v1.13h-1.205v6.38h.226v5.944h.49v-5.116z"/>
    </g>
</svg>
