<svg xmlns="http://www.w3.org/2000/svg" width="32" height="32" viewBox="0 0 32 32">
    <defs>
        <clipPath id="a">
            <path d="M0 24h24V0H0z"/>
        </clipPath>
    </defs>
    <g clip-path="url(#a)" transform="matrix(1.33333 0 0 -1.33333 0 32)">
        <path fill="#00f" d="M21.773 2.651a.428.428 0 0 0-.425-.426H2.652a.426.426 0 0 0-.426.426v18.696c0 .235.192.424.426.426h18.695a.43.43 0 0 0 .425-.426zm-.425 20.35H2.652a1.652 1.652 0 0 1-1.654-1.654V2.651C1 1.74 1.74 1 2.652 1h18.695c.912 0 1.652.738 1.654 1.652v18.696A1.656 1.656 0 0 1 21.348 23"/>
        <path fill="#00f" d="M17.655 7.944l-.857-.877h-.002a11.727 11.727 0 0 0 2.427-3.445l1.116.513a12.982 12.982 0 0 1-2.684 3.81m-4.666-.909h-.002c.53-.992.902-2.065 1.11-3.174l1.206.223a12.13 12.13 0 0 1-1.234 3.531zM9.2 7.09c.268-.938.411-1.918.411-2.918 0-.059-.003-.127-.003-.204h1.23v.204c0 1.117-.16 2.212-.459 3.257zm-3.05.623a11.319 11.319 0 0 0-2.21-3.4l.892-.845a12.572 12.572 0 0 1 2.45 3.772l-1.132.471zm1.444 4.818H9.59V9.587H7.593zm0 4.544H9.59V13.76H7.593zm3.223-4.544h2.085V9.587h-2.085zm0 4.544h2.085V13.76h-2.085zm3.313-4.544h2.212V9.587H14.13zm0 4.544h2.212V13.76H14.13zM3.921 13.758V12.53h2.444V9.587H4.191V8.358h15.736v1.23h-2.359v2.942h2.63v1.228h-2.63v3.316h1.928v1.228H7.87c.374.596.72 1.212 1.006 1.863l-1.122.495a13.39 13.39 0 0 0-4.006-5.142l.757-.968c.677.528 1.286 1.135 1.86 1.775v-2.567z"/>
    </g>
</svg>
