<svg xmlns="http://www.w3.org/2000/svg" width="32" height="32" viewBox="0 0 32 32">
    <defs>
        <clipPath id="a">
            <path d="M0 24h24V0H0z"/>
        </clipPath>
    </defs>
    <g clip-path="url(#a)" transform="matrix(1.33333 0 0 -1.33333 0 32)">
        <path fill="#00be3c" d="M18.217 15.676H9.19v3.329h9.027zm0-4.229h-9.17c.09.814.148 1.668.145 2.608h-.003v.393h9.028zm1.203 8.761v.024H7.986v-.024h-.024v-6.153h.004c-.017-4.719-1.098-7.268-3.408-9.338l.815-.92c1.841 1.623 2.982 3.655 3.496 6.424h9.348l.002-4.172c0-.516-.112-.768-.207-.865-.09-.1-.241-.184-.631-.188h-1.043V3.768H17.402c.567 0 1.133.16 1.524.593.388.438.517 1.02.517 1.688v14.159z"/>
        <path fill="#00be3c" d="M21.773 2.65a.428.428 0 0 0-.425-.424H2.653a.426.426 0 0 0-.425.424v18.697c0 .234.191.425.425.426h18.695a.43.43 0 0 0 .425-.426zM21.348 23H2.653A1.652 1.652 0 0 1 1 21.347V2.65C1 1.738 1.74 1 2.653 1h18.695c.912 0 1.652.736 1.654 1.65v18.697A1.656 1.656 0 0 1 21.348 23"/>
    </g>
</svg>
