<svg xmlns="http://www.w3.org/2000/svg" width="32" height="32" viewBox="0 0 32 32">
    <defs>
        <clipPath id="a">
            <path d="M0 24h24V0H0z"/>
        </clipPath>
    </defs>
    <g clip-path="url(#a)" transform="matrix(1.33333 0 0 -1.33333 0 32)">
        <path fill="#00be3c" d="M2.3 21.216V2.783c0-.265.219-.482.485-.484H21.2a.485.485 0 0 1 .483.484v18.433a.481.481 0 0 1-.483.483H2.785a.484.484 0 0 1-.484-.483M2.785 1C1.799 1 1.002 1.797 1 2.783v18.433A1.785 1.785 0 0 0 2.785 23H21.2c.985 0 1.784-.798 1.784-1.784V2.783c0-.986-.8-1.783-1.784-1.783z"/>
        <path fill="#00be3c" d="M9.836 12.71l-1.743-.614v2.992h1.943v1.3H8.093v3.115h-1.3V16.39H4.146v-1.301h2.647v-3.45l-2.723-.957.432-1.228 2.291.806v-4.02c-.019-.537-.15-.615-.278-.714-.14-.093-.387-.124-.523-.12H4.974v-1.3h1.018c.237.002.716.015 1.21.314.502.294.91.959.891 1.82v4.479l2.175.766zM17.526 8.526h-5.018v1.795h5.018zm-5.018-1.3h5.018V5.49h-5.018zm-1.3-3.037h7.619v7.432h-7.619zM13.009 14.09c-.193-.002-.343.043-.403.097-.057.053-.165.146-.173.61v1.138c2.713.277 6.31 1.448 6.34 1.452l-.398 1.237h-.002c-.004-.006-3.488-1.11-5.94-1.383v2.576h-1.3v-5.02c-.01-.703.232-1.287.658-1.623.42-.331.883-.382 1.218-.384h6.829v1.3z"/>
    </g>
</svg>
