<svg xmlns="http://www.w3.org/2000/svg" width="32" height="32" viewBox="0 0 32 32">
    <defs>
        <clipPath id="a">
            <path d="M0 24h24V0H0z"/>
        </clipPath>
    </defs>
    <g clip-path="url(#a)" transform="matrix(1.33333 0 0 -1.33333 0 32)">
        <path fill="#00f" d="M11.892 6.56c-1.312.007-2.446 1.564-2.459 3.897.013 2.333 1.147 3.895 2.46 3.901 1.312-.006 2.45-1.568 2.458-3.902-.009-2.333-1.146-3.89-2.459-3.896m-.008 9.297c-2.268-.015-3.929-2.287-3.95-5.408.021-3.108 1.682-5.37 3.95-5.385h.016c2.237.014 3.934 2.33 3.95 5.398-.016 3.061-1.717 5.38-3.966 5.395M1.418 15.746v-1.554h2.673V5.158h1.416v9.034h2.678v1.554zM20.898 11.2c-.248-.267-.576-.403-1.014-.407H17.95v3.654h1.935c.438-.004.766-.143 1.014-.408.246-.268.438-.709.441-1.42-.003-.709-.195-1.15-.44-1.42m-4.362 4.546V5.158h1.412v4.334H19.9c.728 0 1.447.271 1.951.828.514.557.79 1.354.787 2.3.002.947-.273 1.742-.787 2.3-.508.558-1.234.83-1.967.825z"/>
        <path fill="#00f" d="M11.892 6.56c-1.312.007-2.446 1.564-2.459 3.897.013 2.333 1.147 3.895 2.46 3.901 1.312-.006 2.45-1.568 2.458-3.902-.009-2.333-1.146-3.89-2.459-3.896m-.008 9.297c-2.268-.015-3.929-2.287-3.95-5.408.021-3.108 1.682-5.37 3.95-5.385h.016c2.237.014 3.934 2.33 3.95 5.398-.016 3.061-1.717 5.38-3.966 5.395M17.852 16.852H6.165l5.845 4.184z"/>
    </g>
</svg>
