<svg xmlns="http://www.w3.org/2000/svg" width="32" height="32" viewBox="0 0 32 32">
    <defs>
        <clipPath id="a">
            <path d="M0 24h24V0H0z"/>
        </clipPath>
    </defs>
    <g clip-path="url(#a)" transform="matrix(1.33333 0 0 -1.33333 0 32)">
        <path fill="red" d="M4.668 11.999A7.342 7.342 0 0 1 12 4.666a7.345 7.345 0 0 1 7.334 7.333A7.344 7.344 0 0 1 12 19.332a7.343 7.343 0 0 1-7.333-7.333m-3.668 0C1 18.074 5.925 22.998 12.002 23c6.076-.002 10.998-4.926 11-11.001C22.998 5.922 18.076 1.001 12 1 5.924 1.001.998 5.922.998 11.999"/>
    </g>
</svg>
