<svg xmlns="http://www.w3.org/2000/svg" width="32" height="32" viewBox="0 0 32 32">
    <defs>
        <clipPath id="a">
            <path d="M0 24h24V0H0z"/>
        </clipPath>
    </defs>
    <g clip-path="url(#a)" transform="matrix(1.33333 0 0 -1.33333 0 32)">
        <path fill="red" d="M4.667 12.003a7.318 7.318 0 0 0 1.02 3.715L15.72 5.687a7.322 7.322 0 0 0-8.907 1.127 7.299 7.299 0 0 0-2.146 5.189m12.519 5.183a7.301 7.301 0 0 0 2.147-5.187 7.334 7.334 0 0 0-1.021-3.72L8.28 18.313a7.3 7.3 0 0 0 3.721 1.02 7.304 7.304 0 0 0 5.183-2.144zM1.002 12.003a10.963 10.963 0 0 1 3.223-7.784 10.972 10.972 0 0 1 7.766-3.22h.01a10.981 10.981 0 0 1 7.778 3.222 10.98 10.98 0 0 1 3.219 7.778 10.96 10.96 0 0 1-3.219 7.776c-.002 0-.002.002-.002.002A10.96 10.96 0 0 1 12.001 23a10.983 10.983 0 0 1-7.782-3.225 10.971 10.971 0 0 1-3.217-7.772"/>
    </g>
</svg>
