<svg xmlns="http://www.w3.org/2000/svg" width="32" height="32" viewBox="0 0 32 32">
    <defs>
        <clipPath id="a">
            <path d="M0 24h24V0H0z"/>
        </clipPath>
    </defs>
    <g clip-path="url(#a)" transform="matrix(1.33333 0 0 -1.33333 0 32)">
        <path fill="#00f" d="M8.891 3.995H8.89v.001zM14.7 19.086a6.07 6.07 0 0 0 .447.943l.004.006.4.398v.001l.37.373c.885.88 2.176 1.101 3.338.71l-.043 1.33c-1.5.372-3.104.014-4.229-1.107l-.81-.81.002-.002c-.012-.012-.028-.025-.036-.036-.267-.265-1.919-1.918-2.972-2.972-1.287-1.272-1.689-2.883-1.62-4.713l.196-5.623h.002a6.997 6.997 0 0 0-.449-2.68 6.024 6.024 0 0 0-.457-.953l-.764-.766c-.985-.982-2.476-1.152-3.73-.554l.043-1.358c1.607-.547 3.398-.244 4.621.98l.811.81h-.002a.022.022 0 0 1 .007.007l3.001 3.002c1.286 1.272 1.687 2.882 1.62 4.712l-.197 5.624a6.99 6.99 0 0 0 .447 2.678"/>
        <path fill="#00f" d="M3.181 9.908H3.18zm-.145-6.207c-1.035 1.345-1.004 3.21.153 4.373l.773.773c.036.024.101.061.2.113a6.937 6.937 0 0 0 3.426.783l.808-.028-.125 3.525c-.012.316-.01.621.005.918a5.166 5.166 0 0 1-2.199-1.33c-1.064-1.064-2.735-2.733-2.979-2.979-.012-.01-.016-.024-.027-.035l-.004.004-.812-.81c-1.75-1.753-1.659-4.684.207-6.55.198-.197.411-.364.63-.523zM20.51 22.305l.05-1.563c.032-.031.069-.052.102-.085 1.348-1.352 1.412-3.47.149-4.74l-.768-.766a2.885 2.885 0 0 0-.21-.12 6.94 6.94 0 0 0-3.423-.783l-.804.03.123-3.527c.01-.315.01-.62-.006-.917a5.18 5.18 0 0 1 2.183 1.313l.018.017 3.008 3.008.439.44.373.373c1.752 1.752 1.659 4.683-.205 6.55h-.002a4.986 4.986 0 0 1-1.027.77"/>
    </g>
</svg>
