<svg xmlns="http://www.w3.org/2000/svg" width="32" height="32" viewBox="0 0 32 32">
    <defs>
        <clipPath id="a">
            <path d="M0 24h24V0H0z"/>
        </clipPath>
    </defs>
    <g clip-path="url(#a)" transform="matrix(1.33333 0 0 -1.33333 0 32)">
        <path fill="red" d="M12 2.406a9.604 9.604 0 0 0-9.595 9.595A9.603 9.603 0 0 0 12 21.595a9.605 9.605 0 0 0 9.595-9.594A9.605 9.605 0 0 0 12 2.406M12 23C5.923 23 1.001 18.076.999 12.001 1.001 5.926 5.923 1.002 12 1.001c6.077.001 10.999 4.925 11.001 11-.002 6.075-4.924 11-11.001 11"/>
        <path fill="red" d="M18.788 17.916H5.212v-1.3h10.262v-10.4a.503.503 0 0 0-.503-.502h-.96V4.412l.96.003a1.8 1.8 0 0 1 1.802 1.8v10.4h2.015z"/>
        <path fill="red" d="M8.524 13.195h3.887V9.62H8.524zM7.225 8.32h6.486v6.174H7.225z"/>
    </g>
</svg>
