<svg xmlns="http://www.w3.org/2000/svg" width="32" height="32" viewBox="0 0 32 32">
    <defs>
        <clipPath id="a">
            <path d="M0 24h24V0H0z"/>
        </clipPath>
    </defs>
    <g clip-path="url(#a)" transform="matrix(1.33333 0 0 -1.33333 0 32)">
        <path fill="#595959" d="M22.998 15.655c0-.327-.117-.612-.352-.857a1.159 1.159 0 0 0-.872-.367 1.16 1.16 0 0 0-.872.367 1.2 1.2 0 0 0-.351.857c0 .367.117.663.351.887.235.225.526.337.872.337.347 0 .637-.112.872-.337.235-.224.352-.52.352-.887m-1.224-4.896a1.2 1.2 0 0 0-.351-.855 1.16 1.16 0 0 0-.872-.367c-.348 0-.639.121-.873.367a1.193 1.193 0 0 0-.352.855c0 .368.117.664.352.887.234.225.525.338.873.338.345 0 .636-.113.872-.338.233-.223.351-.519.351-.887m0 9.791c0-.326-.118-.612-.351-.856a1.164 1.164 0 0 0-.872-.368c-.348 0-.639.123-.873.368-.235.244-.352.53-.352.856 0 .347.117.637.352.873.234.234.525.351.873.351a1.194 1.194 0 0 0 1.223-1.224m-4.895 1.224c0-.327-.117-.612-.352-.857a1.16 1.16 0 0 0-.871-.367c-.347 0-.633.123-.857.367-.225.245-.337.53-.337.857 0 .347.112.637.337.872.224.235.51.352.857.352.346 0 .637-.117.871-.352.235-.235.352-.525.352-.872m-4.865-1.224a1.17 1.17 0 0 0-.367-.856 1.174 1.174 0 0 0-.857-.368c-.367 0-.663.123-.887.368-.224.244-.336.53-.336.856 0 .347.112.637.336.873.224.234.52.351.887.351a1.2 1.2 0 0 0 .857-.35c.245-.237.367-.527.367-.874m6.824-3.365l-3.52-3.488a8.2 8.2 0 0 0 1.149-2.248 7.978 7.978 0 0 0 .412-2.525c0-2.182-.776-4.049-2.324-5.599C13.004 1.775 11.137 1 8.955 1c-2.203 0-4.08.775-5.63 2.325C1.775 4.875 1 6.742 1 8.925c0 2.202.775 4.08 2.325 5.628 1.55 1.55 3.427 2.326 5.63 2.326.836 0 1.662-.133 2.478-.398a7.965 7.965 0 0 0 2.264-1.162l3.488 3.487z"/>
    </g>
</svg>
