<svg xmlns="http://www.w3.org/2000/svg" width="32" height="32" viewBox="0 0 32 32">
    <path fill="red" d="M18.078 23.94l.144-3.979 5.216 2.84-3.207-4.88 4.455-.358-3.328-1.807 2.861-2.555-3.812.003 2.792-5.93-5.538 3.915-1.183-3.549-1.764 3.335-2.932-2.78.796 3.966L7.31 9.687l3.495 4.453-2.962.532 2.803 1.463-2.592 2.494 3.155-.658-3.086 5.95 5.487-3.63.57 2.91 1.354-2.886zm-2.243-.181l-2.338 4.994-1.09-5.586-8.902 5.886 4.488-8.64-5.466 1.134 5.182-4.99-5.159-2.689 5.115-.925-6.21-7.919L10.2 9.128 9.01 3.184l5.238 4.961 2.592-4.89 1.725 5.17 9.003-6.36-4.427 9.402 5.633-.006-4.424 3.947 6.295 3.413-7.363.592 5.411 8.232-8.84-4.825-.232 6.343z"/>
</svg>
