<svg xmlns="http://www.w3.org/2000/svg" width="32" height="32" viewBox="0 0 32 32">
    <defs>
        <clipPath id="a">
            <path d="M0 24h24V0H0z"/>
        </clipPath>
    </defs>
    <g clip-path="url(#a)" transform="matrix(1.33333 0 0 -1.33333 0 32)">
        <path fill="#595959" d="M8.779 7.08c.006-2.187 1.517-3.825 3.219-3.829 1.699.004 3.213 1.642 3.219 3.828.04 2.637-2.105 6.645-3.217 10.2-1.114-3.555-3.261-7.563-3.221-10.2m-1.3.002c.057 4.188 3.928 10.196 3.87 13.584h1.302c-.058-3.388 3.81-9.398 3.865-13.586-.004-2.764-1.945-5.112-4.518-5.129-2.573.017-4.513 2.365-4.518 5.131"/>
    </g>
</svg>
