<svg xmlns="http://www.w3.org/2000/svg" width="32" height="32" viewBox="0 0 32 32">
    <defs>
        <clipPath id="a">
            <path d="M0 24h24V0H0z"/>
        </clipPath>
    </defs>
    <path fill="#595959" d="M3.336 11.675h11.02v1.732H3.336zM3.335 18.596h11.02v1.733H3.335z"/>
    <g clip-path="url(#a)" transform="matrix(1.33333 0 0 -1.33333 0 32)">
        <path fill="#595959" d="M11.793 6.121h1.3a2.817 2.817 0 0 1 2.814-2.81 2.815 2.815 0 0 1 2.809 2.81c0 .806-.34 1.523-.886 2.04L16.947 9l1.185.27a2.802 2.802 0 0 1 2.184 2.73 2.81 2.81 0 0 1-2.186 2.736l-1.183.271.883.834c.547.52.886 1.235.886 2.04a2.812 2.812 0 0 1-5.624 0h-1.3a4.113 4.113 0 0 0 8.224 0c0-.819-.244-1.58-.656-2.218A4.104 4.104 0 0 0 21.616 12a4.103 4.103 0 0 0-2.255-3.66 4.075 4.075 0 0 0 .655-2.218 4.113 4.113 0 0 0-4.11-4.11 4.114 4.114 0 0 0-4.114 4.11"/>
    </g>
</svg>
