<svg xmlns="http://www.w3.org/2000/svg" width="32" height="32" viewBox="0 0 32 32">
    <defs>
        <clipPath id="a">
            <path d="M0 24h24V0H0z"/>
        </clipPath>
    </defs>
    <g clip-path="url(#a)" transform="matrix(1.33333 0 0 -1.33333 0 32)">
        <path fill="#ff8c00" d="M8.693 10.803c-.791 1.682-2.038 3.004-3.621 3.827 1.583.822 2.83 2.144 3.62 3.829.79-1.685 2.039-3.007 3.62-3.83-1.581-.822-2.83-2.144-3.62-3.826m0 12.197c0-4.981-3.115-8.37-7.692-8.37 4.577 0 7.693-3.392 7.693-8.372 0 4.98 3.115 8.373 7.69 8.373-4.575 0-7.69 3.388-7.69 8.369M14.625 4.617a5.824 5.824 0 0 1-2.115 2.23 5.792 5.792 0 0 1 2.117 2.225 5.816 5.816 0 0 1 2.115-2.226 5.815 5.815 0 0 1-2.117-2.229m.001 8.025c0-3.45-2.16-5.798-5.331-5.798 3.171 0 5.33-2.35 5.33-5.8 0 3.45 2.158 5.8 5.329 5.8-3.171 0-5.328 2.347-5.328 5.798M19.219 11.744a4.756 4.756 0 0 1-1.328 1.395c.53.361.98.833 1.33 1.391.35-.558.8-1.027 1.328-1.39a4.75 4.75 0 0 1-1.33-1.396m.003 5.964c0-2.72-1.703-4.57-4.202-4.57 2.499 0 4.2-1.853 4.2-4.574 0 2.721 1.702 4.574 4.2 4.574-2.498 0-4.198 1.85-4.198 4.57"/>
    </g>
</svg>
