<svg xmlns="http://www.w3.org/2000/svg" width="32" height="32" viewBox="0 0 32 32">
    <defs>
        <clipPath id="a">
            <path d="M0 24h24V0H0z"/>
        </clipPath>
    </defs>
    <g clip-path="url(#a)" transform="matrix(1.33333 0 0 -1.33333 0 32)">
        <path fill="#595959" d="M3.086 1.023a2.07 2.07 0 0 0-2.067 2.065v17.826a2.072 2.072 0 0 0 2.067 2.067H20.91a2.07 2.07 0 0 0 2.066-2.067V3.088a2.068 2.068 0 0 0-2.066-2.065z"/>
        <path fill="#e6e6e6" d="M2.318 20.914V3.09a.78.78 0 0 1 .768-.767H20.91a.781.781 0 0 1 .767.767v17.825a.78.78 0 0 1-.767.768H3.086a.779.779 0 0 1-.768-.768"/>
        <path fill="#595959" d="M4.112 4.76l15.127.004v15.124h1.298V3.463L4.112 3.46z"/>
        <path fill="#595959" d="M5.693 6.343v11.964l11.964-.002v-1.298H6.993V6.343h.002z"/>
    </g>
</svg>
