<svg xmlns="http://www.w3.org/2000/svg" width="32" height="32" viewBox="0 0 32 32">
    <defs>
        <clipPath id="a">
            <path d="M0 24h24V0H0z"/>
        </clipPath>
    </defs>
    <g clip-path="url(#a)" transform="matrix(1.33333 0 0 -1.33333 0 32)">
        <path fill="#ff8c00" d="M19.625 12.793a.65.65 0 1 0 0 1.3.65.65 0 0 0 0-1.3m-1.871.15l-4.285.012-1.946 5.831h.002a.499.499 0 0 0 .948.318l1.716-5.151 3.569-.011a.499.499 0 0 0-.004-.999M11.42 6.787L7.58 4.04a.498.498 0 0 0-.697.115.503.503 0 0 0 .115.7L10.84 7.6a.499.499 0 1 0 .58-.813m10.545 8.1l-7.051.057-2.228 6.687c-.379 1.132-.995 1.132-1.374 0l-2.228-6.687-7.049-.053c-1.191-.011-1.383-.596-.424-1.305l5.674-4.188L5.154 2.68c-.355-1.139.141-1.501 1.112-.809l5.736 4.101 5.732-4.101c.973-.692 1.471-.332 1.114.809l-2.127 6.718 5.666 4.182c.961.712.771 1.296-.422 1.307"/>
    </g>
</svg>
