<svg xmlns="http://www.w3.org/2000/svg" width="32" height="32" viewBox="0 0 32 32">
    <defs>
        <clipPath id="a">
            <path d="M0 24h24V0H0z"/>
        </clipPath>
    </defs>
    <g clip-path="url(#a)" transform="matrix(1.33333 0 0 -1.33333 0 32)">
        <path fill="#ff8c00" d="M7.375 11.78l1.758 5.274c.297.892.785.892 1.083 0l1.759-5.275 5.559-.045c.942-.007 1.09-.469.333-1.03l-4.47-3.297 1.678-5.3c.281-.897-.112-1.182-.878-.637l-4.52 3.234L5.151 1.47c-.764-.545-1.155-.258-.876.637l1.682 5.3L1.48 10.71c-.755.56-.602 1.02.335 1.03z"/>
        <path fill="#ff8c00" d="M13.475 14.183l8.624 8.624.9-.9-8.625-8.625zM13.602 18.97l3.71 3.707.9-.899-3.71-3.71zM18.26 14.312l3.709 3.71.9-.901-3.707-3.708z"/>
    </g>
</svg>
