<svg xmlns="http://www.w3.org/2000/svg" width="32" height="32" viewBox="0 0 32 32">
    <defs>
        <clipPath id="a">
            <path d="M0 24h24V0H0z"/>
        </clipPath>
    </defs>
    <g clip-path="url(#a)" transform="matrix(1.33333 0 0 -1.33333 0 32)">
        <path fill="#00f" d="M19.767 11.338c-.494 0-.898.4-.898.899a.898.898 0 1 0 1.797.001.897.897 0 0 0-.9-.9m-1.507 2.409a.749.749 0 0 0-1.062 0l-5.568 5.569a.753.753 0 0 0 0 1.06.754.754 0 0 0 1.06 0l5.57-5.568a.75.75 0 0 0 0-1.061M11.999 23L1 12 12 1l11 11z"/>
    </g>
</svg>
