<svg xmlns="http://www.w3.org/2000/svg" width="32" height="32" viewBox="0 0 32 32">
    <defs>
        <clipPath id="a">
            <path d="M0 24h24V0H0z"/>
        </clipPath>
    </defs>
    <g clip-path="url(#a)" transform="matrix(1.33333 0 0 -1.33333 0 32)">
        <path fill="#ff8c00" d="M15.986 11.307a.565.565 0 1 0 .002 1.13.565.565 0 0 0-.002-1.13m-.914 1.48a.554.554 0 0 0-.398-.167.572.572 0 0 0-.402.167l-2.78 2.784a.564.564 0 1 0 .8.799l2.78-2.784a.56.56 0 0 0 0-.8M12.002 18l-6.003-6 6-6L18 12z"/>
    </g>
</svg>
