<svg xmlns="http://www.w3.org/2000/svg" width="32" height="32" viewBox="0 0 32 32">
    <defs>
        <clipPath id="a">
            <path d="M0 24h24V0H0z"/>
        </clipPath>
    </defs>
    <g clip-path="url(#a)" transform="matrix(1.33333 0 0 -1.33333 0 32)">
        <path fill="#ff8c00" d="M22.543 12.477c-.004 0-1.947.083-3.973.248a43.473 43.473 0 0 0-2.855.313c-.402.06-.752.127-1.004.195a2.314 2.314 0 0 0-.147.043c.276.478 1.092 1.483 1.85 2.323a67.121 67.121 0 0 0 1.697 1.836.48.48 0 0 1-.677.677 65.639 65.639 0 0 0-2.032-1.871 25.636 25.636 0 0 0-1.541-1.273 5.922 5.922 0 0 0-.582-.396c-.002-.002-.006-.003-.007-.005-.2.656-.444 2.529-.562 4.19-.157 1.96-.234 3.78-.234 3.784a.478.478 0 0 1-.954 0c0-.003-.081-1.944-.248-3.972a42.55 42.55 0 0 0-.311-2.856 9.928 9.928 0 0 0-.197-1.004c-.014-.051-.027-.1-.042-.142-.477.275-1.485 1.092-2.324 1.848a73.09 73.09 0 0 0-1.836 1.697.477.477 0 0 1-.669-.006.48.48 0 0 1-.008-.671c.002-.001.937-.972 1.871-2.032.469-.531.934-1.086 1.275-1.541a5.968 5.968 0 0 0 .399-.591c-.655-.2-2.527-.443-4.192-.562a115.94 115.94 0 0 0-3.782-.232.478.478 0 0 1 0-.955c.003 0 1.946-.08 3.972-.248a43.628 43.628 0 0 0 2.856-.312 9.944 9.944 0 0 0 1.004-.195c.052-.015.1-.028.143-.042-.276-.478-1.092-1.483-1.848-2.324a68.057 68.057 0 0 0-1.698-1.836.48.48 0 0 1 .677-.677c.002.002.973.937 2.033 1.872.53.467 1.085.932 1.54 1.274a6.974 6.974 0 0 0 .592.402c.2-.653.443-2.528.56-4.195.158-1.958.233-3.78.233-3.783a.477.477 0 0 1 .954 0c0 .004.083 1.945.248 3.972.085 1.014.19 2.045.315 2.856.061.402.127.752.195 1.003l.041.145c.479-.278 1.483-1.093 2.325-1.848a71.672 71.672 0 0 0 1.834-1.698.48.48 0 0 1 .677.677c-.002.002-.937.972-1.871 2.033a26.573 26.573 0 0 0-1.273 1.539c-.17.226-.309.429-.397.582l-.004.01c.653.199 2.528.445 4.194.56 1.957.157 3.779.233 3.783.233a.478.478 0 1 1 0 .955"/>
    </g>
</svg>
