<svg xmlns="http://www.w3.org/2000/svg" width="32" height="32" viewBox="0 0 32 32">
    <defs>
        <clipPath id="a">
            <path d="M0 24h24V0H0z"/>
        </clipPath>
    </defs>
    <path fill="red" d="M7.484 25.57l14.318-1.897-.216-1.624-14.318 1.893zM5.397 28.297l.216 1.627 22.765-3.015-.216-1.624z"/>
    <g clip-path="url(#a)" transform="matrix(1.33333 0 0 -1.33333 0 32)">
        <path fill="red" d="M7.314 12.218l.983 3.84c.408 1.517 1.603 3.337 3.312 3.602.145.023.275.034.388.034.804-.042.925-.365 1.003-1.312 0-.313-.047-.667-.13-1.02l-.976-3.838c-.405-1.498-1.574-3.292-3.256-3.593h-.01l-.047-.008a2.42 2.42 0 0 0-.39-.035c-.805.043-.926.368-1.004 1.318 0 .313.044.664.127 1.012m-1.427-1.012c.002-.621.117-1.246.493-1.77.368-.52 1.023-.848 1.77-.848h.042c.19 0 .389.017.595.05l.012.002c2.494.463 3.849 2.753 4.35 4.55l.984 3.865c.103.444.166.888.166 1.327-.002.62-.12 1.244-.495 1.766-.374.528-1.044.858-1.807.845-.194 0-.395-.016-.605-.051-2.496-.461-3.85-2.754-4.351-4.551l-.988-3.862a5.755 5.755 0 0 1-.166-1.323M21.557 18.76l-.978-3.832c-.408-1.517-1.603-3.337-3.318-3.605a2.539 2.539 0 0 0-.383-.032c-.807.04-.928.368-1.007 1.317 0 .313.045.665.128 1.009l.982 3.845c.41 1.517 1.605 3.337 3.314 3.6.144.025.274.035.387.035.805-.043.924-.366 1.002-1.313 0-.313-.047-.667-.127-1.023m.933 2.79c-.373.53-1.046.857-1.808.847-.193 0-.394-.018-.604-.054-2.496-.458-3.853-2.751-4.353-4.55l-.985-3.862a5.589 5.589 0 0 1-.17-1.324c.003-.621.12-1.247.497-1.77.369-.52 1.025-.848 1.776-.848h.035c.172 0 .354.015.54.043h.007l.039.007h.009l.01.003c2.497.462 3.85 2.755 4.35 4.55l.988 3.863c.1.447.162.889.162 1.328 0 .62-.117 1.245-.493 1.768M5.035 20.304l-2.718-2.093.795-1.03 1.353 1.043L1.023 5.671l1.253-.344 4.012 14.635z"/>
    </g>
</svg>
