<svg xmlns="http://www.w3.org/2000/svg" width="32" height="32" viewBox="0 0 32 32">
    <defs>
        <clipPath id="a">
            <path d="M0 24h24V0H0z"/>
        </clipPath>
    </defs>
    <g clip-path="url(#a)" transform="matrix(1.33333 0 0 -1.33333 0 32)">
        <path fill="#595959" d="M4.559 3.316c-.691.708-1.13 1.812-1.128 3.32-.004 1.393.45 2.428 1.149 3.075.695.648 1.57.89 2.344.89 1.689.007 2.688-1.173 3.13-2.232l-1.1-.48c-.39.848-.946 1.502-2.03 1.511-1.067-.058-2.246-.509-2.293-2.764.052-2.554 1.272-3.05 2.293-3.104 1.027-.01 1.817.847 2.052 1.935v-.003l1.175-.244C9.85 3.736 8.669 2.342 6.924 2.333h-.01c-.783 0-1.668.278-2.355.983M18.506 14.65H15.64v2.482l2.865-.005c.425 0 .925-.473.929-1.239-.004-.763-.504-1.237-.93-1.239m-.513 5.69c.49 0 .926-.429.928-1.005-.002-.575-.438-1.002-.928-1.002H15.64v2.006zm1.64-2.39c.3.381.487.861.488 1.385-.003 1.197-.93 2.2-2.128 2.204h-3.55V13.45h4.064c1.266.021 2.128 1.172 2.13 2.44-.001.838-.384 1.617-1.004 2.06M17.528 9.36H15.6V3.666h1.93c.45 0 .898.25 1.27.76.367.505.616 1.252.616 2.087 0 .834-.249 1.58-.616 2.085-.372.51-.82.76-1.27.76"/>
        <path fill="#595959" d="M17.528 2.467l-3.13-.002v8.094h3.13c1.87-.047 3.083-1.943 3.087-4.044-.004-2.104-1.216-4.001-3.087-4.048M12 1h11v11H12zM5.443 16.559h2.114L6.5 19.487z"/>
        <path fill="#595959" d="M8.68 13.45l-.69 1.91H5.01l-.688-1.91H3.045l2.89 8.007h1.129l2.89-8.008zM1 12h11v11H1z"/>
    </g>
</svg>
