<svg xmlns="http://www.w3.org/2000/svg" width="32" height="32" viewBox="0 0 32 32">
    <defs>
        <clipPath id="a">
            <path d="M0 24h24V0H0z"/>
        </clipPath>
    </defs>
    <path fill="#595959" d="M13.203 5.201H4.129V3.736h9.074zm0 2.91H9.399v5.365H7.93V8.111h-3.8V6.645h9.072zM1.332 16h14.67V1.333H1.331z"/>
    <g clip-path="url(#a)" transform="matrix(1.33333 0 0 -1.33333 0 32)">
        <path fill="#595959" d="M19.727 5.384c-.339 0-.683-.307-.68-.747-.003-.44.341-.745.676-.745.328 0 .676.304.677.746 0 .44-.349.746-.673.746M15.956 8.365c0 .44-.348.744-.67.744h-.003c-.342 0-.682-.305-.682-.746 0-.438.343-.745.676-.745.328 0 .678.306.68.747"/>
        <path fill="#595959" d="M21.502 4.635c-.006-1.023-.805-1.834-1.778-1.843-.974.007-1.777.82-1.779 1.845.002 1.028.805 1.84 1.783 1.848.969-.01 1.768-.82 1.774-1.844zm-6.647-1.78l4.294 7.762.964-.531-4.296-7.764zM13.5 8.364c.002 1.028.804 1.838 1.783 1.846.969-.008 1.768-.818 1.774-1.843v-.003c-.006-1.025-.805-1.835-1.78-1.846-.973.009-1.775.82-1.777 1.846M12.001 1h11v11h-11zM16.637 13.417c.713.26 1.169.854 1.128 1.411v4.596c.64-.33 1.64-.9 1.64-1.565 0-.734-.602-1.257-1.17-1.796l.39-.5c.619.499 1.687 1.242 1.687 2.433 0 1.689-2.184 2.55-2.546 3.434v.309h-1v-5.984a1.915 1.915 0 0 1-.942-.103c-.82-.297-1.301-1.039-1.078-1.657.226-.618 1.072-.876 1.89-.578M7.29 6.422c0-.033-.004-.124-.004-.232l.001-.08a1.015 1.015 0 0 0-1.008-.927 1.002 1.002 0 0 0-.998.998c.021.669.249.918.702 1.169.337.17.808.264 1.307.3zm-.792 4.336a4.259 4.259 0 0 1-4.259-4.256 4.26 4.26 0 0 1 6.708-3.48l-.634.897v.002a3.139 3.139 0 0 0-1.815-.574A3.162 3.162 0 0 0 3.34 6.502a3.16 3.16 0 0 0 3.158 3.155 3.159 3.159 0 0 0 3.155-3.155v-.613c-.002-.377-.361-.665-.622-.665-.387.02-.418.1-.523.26-.081.149-.116.4-.121.617l.002.08h-.002v.009l.002.232V8.77h-.55c-.769-.004-1.613-.076-2.346-.436-.735-.342-1.331-1.111-1.311-2.153a2.1 2.1 0 0 1 3.555-1.515c.282-.32.743-.558 1.294-.543.893.01 1.706.743 1.721 1.766v.613a4.253 4.253 0 0 1-4.254 4.256"/>
    </g>
</svg>
