<svg xmlns="http://www.w3.org/2000/svg" width="32" height="32" viewBox="0 0 32 32">
    <defs>
        <clipPath id="a">
            <path d="M0 24h24V0H0z"/>
        </clipPath>
    </defs>
    <path fill="red" d="M18.629 24.732V7.116H20.364V23h7.553v1.732z"/>
    <g clip-path="url(#a)" transform="matrix(1.33333 0 0 -1.33333 0 32)">
        <path fill="red" d="M3.811 12c.022 3.529 1.667 6.648 4.352 6.75 1.31-.007 2.4-.856 3.133-2.041v-.002l-1.103-.686c-.601.959-1.331 1.432-2.03 1.428-.712.004-1.459-.484-2.062-1.473-.597-.977-.992-2.397-.99-3.975-.002-1.576.393-2.996.99-3.974.603-.988 1.35-1.478 2.062-1.474.697-.004 1.429.47 2.03 1.428l1.103-.687c-.733-1.183-1.823-2.035-3.133-2.041-2.685.1-4.33 3.222-4.352 6.748M1.012 22.111h21.995v-1.3H1.012zM1.012 3.413h21.995v-1.3H1.012z"/>
    </g>
</svg>
