<svg xmlns="http://www.w3.org/2000/svg" width="32" height="32" viewBox="0 0 32 32">
    <defs>
        <clipPath id="a">
            <path d="M0 24h24V0H0z"/>
        </clipPath>
    </defs>
    <g clip-path="url(#a)" transform="matrix(1.33333 0 0 -1.33333 0 32)">
        <path fill="#00f" d="M13.629 15.384a4.95 4.95 0 0 1-4.954 4.899c-.36 0-.65-.29-.65-.65 0-.36.29-.65.65-.65a3.66 3.66 0 0 0 3.655-3.584c-.016-.091.048-.418.153-.49a.652.652 0 0 1 .915-.083.65.65 0 0 1 .23.558"/>
        <path fill="#00f" d="M8.677 8.95a6.353 6.353 0 0 0-4.51 1.868 6.358 6.358 0 0 0-1.87 4.51 6.351 6.351 0 0 0 1.868 4.507 6.35 6.35 0 0 0 4.508 1.867 6.351 6.351 0 0 0 4.51-1.869 6.35 6.35 0 0 0 1.866-4.509c0-1.633-.622-3.26-1.866-4.506A6.339 6.339 0 0 0 8.677 8.95m8.096 1.718l-.708-.708-1.05 1.05a7.638 7.638 0 0 1 1.333 4.315 7.646 7.646 0 0 1-2.246 5.428 7.655 7.655 0 0 1-5.429 2.25 7.657 7.657 0 0 1-5.428-2.248 7.655 7.655 0 0 1-2.248-5.426c0-1.964.753-3.932 2.25-5.429a7.65 7.65 0 0 1 5.43-2.25h.008a7.64 7.64 0 0 1 4.297 1.326l1.05-1.049-.7-.702L19.573.975l3.446 3.451z"/>
    </g>
</svg>
