<svg xmlns="http://www.w3.org/2000/svg" width="32" height="32" viewBox="0 0 32 32">
    <defs>
        <clipPath id="a">
            <path d="M0 24h24V0H0z"/>
        </clipPath>
    </defs>
    <g clip-path="url(#a)" transform="matrix(1.33333 0 0 -1.33333 0 32)">
        <path fill="#ff8c00" d="M12 11.468a1.568 1.568 0 0 1-.607-3.013l-.278-2.628h1.768l-.278 2.628A1.568 1.568 0 0 1 12 11.468"/>
        <path fill="#ff8c00" d="M5.35 4.169v8.99h13.297l.002-8.99zm8.832 10.29h-4.37v1.856c.002.452.579 1.069 2.184 1.089 1.607-.02 2.184-.637 2.186-1.114zM7.41 16.898c.004.936.623 1.693 1.446 2.185.84.504 1.936.79 3.14.792H12c1.204-.002 2.298-.288 3.135-.792.825-.494 1.446-1.25 1.45-2.193v-2.43h-1.102v1.856c-.088 1.554-1.611 2.412-3.486 2.39-1.873.022-3.397-.836-3.483-2.366v-1.88H7.41zm10.474-2.437v2.435c-.018 1.553-1.017 2.678-2.083 3.304-1.076.642-2.394.97-3.8.975h-.004c-1.41-.004-2.728-.333-3.808-.975-1.063-.628-2.063-1.751-2.08-3.296V14.46H4.053V2.868H19.95V14.46z"/>
    </g>
</svg>
