<svg xmlns="http://www.w3.org/2000/svg" width="32" height="32" viewBox="0 0 32 32">
    <defs>
        <clipPath id="a">
            <path d="M0 24h24V0H0z"/>
        </clipPath>
    </defs>
    <g clip-path="url(#a)" transform="matrix(1.33333 0 0 -1.33333 0 32)">
        <path fill="#ff8c00" d="M8.389 8.435L8.11 5.806h1.768l-.28 2.63a1.567 1.567 0 1 1-1.21 0"/>
        <path fill="#ff8c00" d="M21.653 14.941H20.55v1.354c-.086 1.553-1.612 2.41-3.485 2.391-1.875.018-3.396-.838-3.485-2.366v-1.882h-1.103v2.436c.004.94.625 1.694 1.45 2.186.84.505 1.932.791 3.138.793h.002c1.204-.002 2.297-.288 3.14-.793.821-.492 1.442-1.247 1.446-2.19zM15.644 4.15h-13.3l.002 8.99h13.296zm5.227 16.03c-1.078.641-2.396.97-3.802.972h-.006c-1.408-.003-2.725-.33-3.804-.973-1.064-.626-2.064-1.752-2.083-3.298v-2.442H1.046V2.848h15.897v11.59H14.88v1.857c0 .452.581 1.067 2.186 1.09 1.608-.023 2.186-.638 2.186-1.114v-2.63h3.703v3.235c-.019 1.55-1.017 2.674-2.083 3.302"/>
    </g>
</svg>
