<svg xmlns="http://www.w3.org/2000/svg" width="32" height="32" viewBox="0 0 32 32">
    <defs>
        <clipPath id="a">
            <path d="M0 24h24V0H0z"/>
        </clipPath>
    </defs>
    <path fill="#ff8c00" d="M22.527 3.548h6.7v1.523h-6.7zm8.14 3.336v-5.55h-9.583v5.55l3.947 3.83v8.655h1.685l2.784-.002v-2.355h-2.784v-1.317H29.5v-1.762h-2.784v-3.217z"/>
    <g clip-path="url(#a)" transform="matrix(1.33333 0 0 -1.33333 0 32)">
        <path fill="#ff8c00" d="M8.343 6.589L8.065 3.96h1.768l-.28 2.628a1.568 1.568 0 1 1-1.21 0"/>
        <path fill="#ff8c00" d="M15.597 2.302H2.3v8.989h13.297zm-4.466 10.29h-4.37v1.857c0 .45.578 1.067 2.185 1.09 1.606-.023 2.185-.64 2.185-1.114zm-6.773 2.439c.004.936.625 1.693 1.446 2.184.843.504 1.937.79 3.142.792h.002c1.205-.002 2.299-.288 3.136-.792.825-.493 1.445-1.248 1.449-2.19v-2.433h-1.1v1.857c-.091 1.554-1.614 2.41-3.487 2.391-1.875.019-3.398-.837-3.484-2.366l-.003-1.882H4.358zm10.475-.002c-.017 1.553-1.018 2.678-2.084 3.305-1.074.642-2.392.968-3.801.973h-.002c-1.408-.005-2.729-.331-3.806-.975-1.065-.627-2.065-1.75-2.081-3.294v-2.446H1V1.003h15.897v11.589h-2.064z"/>
    </g>
</svg>
