<svg xmlns="http://www.w3.org/2000/svg" width="32" height="32" viewBox="0 0 32 32">
    <defs>
        <clipPath id="a">
            <path d="M0 24h24V0H0z"/>
        </clipPath>
    </defs>
    <g clip-path="url(#a)" transform="matrix(1.33333 0 0 -1.33333 0 32)">
        <path fill="#00f" d="M10.817 19.834a6.341 6.341 0 0 0 4.507 1.869 6.354 6.354 0 0 0 4.508-1.869 6.362 6.362 0 0 0 1.867-4.506 6.354 6.354 0 0 0-1.867-4.51 6.365 6.365 0 0 0-4.512-1.869 6.333 6.333 0 0 0-4.503 1.869 6.343 6.343 0 0 0-1.871 4.506 6.365 6.365 0 0 0 1.869 4.51zm9.936.92a7.654 7.654 0 0 1-5.43 2.248 7.63 7.63 0 0 1-5.425-2.249l-.001.001a7.65 7.65 0 0 1-2.25-5.43 7.634 7.634 0 0 1 1.335-4.318L7.934 9.958l-.71.709L.979 4.426 4.425.976l6.243 6.249-.701.7 1.05 1.05a7.652 7.652 0 0 1 4.303-1.327c1.962 0 3.93.755 5.43 2.25a7.65 7.65 0 0 1 2.248 5.43 7.656 7.656 0 0 1-2.245 5.426"/>
        <path fill="#00f" d="M15.322 20.283a.65.65 0 1 1 0-1.3 3.656 3.656 0 0 0 3.655-3.651v-.002a.678.678 0 0 1 .224-.494.65.65 0 0 1 1.076.544 4.952 4.952 0 0 1-4.955 4.903"/>
    </g>
</svg>
