<svg xmlns="http://www.w3.org/2000/svg" width="32" height="32" viewBox="0 0 32 32">
    <defs>
        <clipPath id="a">
            <path d="M0 24h24V0H0z"/>
        </clipPath>
    </defs>
    <g clip-path="url(#a)" transform="matrix(1.33333 0 0 -1.33333 0 32)">
        <path fill="#595959" d="M4.267 8.964l4.222-.468.47-4.225L20.536 15.85l-1.495 1.498-.072-.04a.896.896 0 0 0 .006-.107v-.092l-.004-.002a1.735 1.735 0 0 0-.494-1.14l-.023-.027a1.782 1.782 0 0 0-1.249-.517H17.2a1.778 1.778 0 1 0 .107 3.55l.04.073-1.499 1.498zm2.86-1.834l-6.133.686L15.848 22.67l2.247-2.248 1.342 2.464 1.322-.718-1.554-2.856.104-.105 2.854 1.554.72-1.323-2.462-1.34 2.246-2.246L7.805.989z"/>
    </g>
</svg>
