<svg xmlns="http://www.w3.org/2000/svg" width="32" height="32" viewBox="0 0 32 32">
    <defs>
        <clipPath id="a">
            <path d="M0 24h24V0H0z"/>
        </clipPath>
    </defs>
    <g clip-path="url(#a)" transform="matrix(1.33333 0 0 -1.33333 0 32)">
        <path fill="#ff8c00" d="M21.771 17.417H19.38l-.063-.541c-.158-1.452-1.463-1.789-2.533-1.818h-.008c-.006.002-2.257.003-6.697 2.715h3.212a1.284 1.284 0 0 1 1.107-.626c.704 0 1.279.556 1.277 1.24 0 .684-.573 1.239-1.277 1.239-.476 0-.886-.254-1.107-.625h-3.193c2.177 1.33 3.809 2.028 4.902 2.386 1.084.354 1.625.376 1.716.383h.019c1.067-.037 2.26-.301 2.59-1.916l.094-.496h2.354zm-8.268-4.892h-1.16v2.076c-.01.223-.07.429-.155.627.475-.226.913-.415 1.315-.573zm-6.828-.003v2.079c0 .101.064.308.404.528.337.214.931.406 1.816.404.884.002 1.48-.19 1.815-.404.34-.222.406-.427.405-.528v-2.079zm8.89-10.295H2.229v9.071h13.338zM4.286 15.145c0 .828.559 1.543 1.385 2.042.764.456 1.77.733 2.884.786v-.694l.284-.181c.203-.129.397-.247.592-.368-.175.015-.346.031-.534.031-2.071-.002-3.394-.88-3.446-2.16v-2.076H4.286zm16.118 5.441c-.624 1.946-2.482 2.444-3.655 2.413l-.017-.001c-.225.002-2.775-.076-7.893-3.333l-.284-.18V19.2c-1.315-.053-2.53-.373-3.512-.96-1.051-.624-1.971-1.681-1.983-3.093v-2.625H1V1h15.792v11.522h-2.061v1.703c1.073-.326 1.734-.384 1.968-.393l.008-.002h.075l.096-.001c1.168 0 3.025.508 3.548 2.361H23v4.396z"/>
        <path fill="#ff8c00" d="M8.293 6.57l-.277-2.622h1.763L9.502 6.57a1.565 1.565 0 0 1-.605 3.006 1.564 1.564 0 0 1-.604-3.006"/>
    </g>
</svg>
