<svg xmlns="http://www.w3.org/2000/svg" width="32" height="32" viewBox="0 0 32 32">
    <defs>
        <clipPath id="a">
            <path d="M0 24h24V0H0z"/>
        </clipPath>
    </defs>
    <g clip-path="url(#a)" transform="matrix(1.33333 0 0 -1.33333 0 32)">
        <path fill="#ff8c00" d="M8.249 6.623v5.998h3.363l-5.306 6.276L1 12.621h3.361V6.812C4.361 2.727 7.884 1 11.354 1c3.184 0 4.246 1.094 4.489 1.799-.512-.512-7.594-.934-7.594 3.824M15.751 17.377v-6h-3.364l5.306-6.275L23 11.377h-3.362v5.809c0 4.087-3.523 5.814-6.992 5.814-3.185 0-4.247-1.094-4.49-1.799.512.512 7.595.934 7.595-3.824"/>
    </g>
</svg>
