<svg xmlns="http://www.w3.org/2000/svg" width="32" height="32" viewBox="0 0 32 32">
    <defs>
        <clipPath id="a">
            <path d="M0 24h24V0H0z"/>
        </clipPath>
    </defs>
    <g clip-path="url(#a)" transform="matrix(1.33333 0 0 -1.33333 0 32)">
        <path fill="#ff8c00" d="M19.189 10.224l-.94-2.58a.995.995 0 0 0-1.874.668v.003c0 .004.004.006.005.009l.948 2.6c.148.392.529.643.93.643a1 1 0 0 0 .93-1.343m-2.59-6.088c-.736-.817-1.693-1.286-2.51-1.28H8.488c-.815-.006-1.768.46-2.503 1.276-.735.81-1.237 1.935-1.235 3.159v1.962c-.006.578.336 1.18.848 1.64.5.459 1.165.725 1.505.712h3.06c.649-.023 1.12-.333 1.122-.825-.018-.683-.477-1.377-1.371-1.38H8.54V8.1a2.179 2.179 0 0 0 2.178-2.18h1.3c0 .943-.376 1.792-.982 2.419.37.17.657.436.9.733a2.29 2.29 0 0 1 2.287-2.252c.358 0 .694.106 1.008.26.244-.554.684-1.024 1.3-1.25.257-.09.52-.134.784-.134h.004c.078 0 .15.027.227.035a4.841 4.841 0 0 0-.949-1.594M4.95 20.249a.889.889 0 0 0 .83 1.185.89.89 0 0 0 .845-.613l2.43-7.475 1.246.032 2.033 7.593a.891.891 0 0 0 1.08.628.885.885 0 0 0 .626-1.1l-1.745-7.668.776-.177-.54-1.484c-.236 1.196-1.423 1.734-2.369 1.736h-3.06c-.027-.001-.054-.01-.08-.011zm10.477-6.838a.97.97 0 0 0 .337-.06l.002-.002a.99.99 0 0 0 .652-.936c0-.111-.018-.228-.06-.347l-1.086-2.983-.115-.313a.994.994 0 0 0-.934-.651c-.11 0-.23.02-.346.059-.398.144-.649.53-.65.938 0 .115.02.226.057.325l1.207 3.312a.997.997 0 0 0 .936.658m3.614-.684h-.002a2.198 2.198 0 0 1-.78.14 2.28 2.28 0 0 1-.595-.091c-.128.79-.643 1.499-1.452 1.795-.26.097-.528.14-.785.14-.564 0-1.09-.23-1.506-.598l1.383 6.087a2.185 2.185 0 0 1-4.226 1.107l-1.464-5.473-1.752 5.388a2.193 2.193 0 0 1-2.082 1.514 2.185 2.185 0 0 1-2.074-2.865l2.062-7.32c-1.184-.556-2.255-1.734-2.32-3.298V7.29c.028-3.155 2.475-5.693 5.038-5.736h5.602c2.353.039 4.605 2.18 4.988 4.974.163.196.301.418.394.672l.943 2.583c.09.258.135.522.135.783a2.296 2.296 0 0 1-1.506 2.16"/>
    </g>
</svg>
