<svg xmlns="http://www.w3.org/2000/svg" width="32" height="32" viewBox="0 0 32 32">
    <defs>
        <clipPath id="a">
            <path d="M0 24h24V0H0z"/>
        </clipPath>
    </defs>
    <g clip-path="url(#a)" transform="matrix(1.33333 0 0 -1.33333 0 32)">
        <path fill="#ff8c00" d="M20.389 7.86l-.003 9.4a2.11 2.11 0 0 1-2.92 1.948v.055a2.115 2.115 0 0 1-2.113 2.115 2.088 2.088 0 0 1-1.005-.268 2.105 2.105 0 0 1-1.916 1.24 2.111 2.111 0 0 1-1.917-1.24 2.091 2.091 0 0 1-1.004.267 2.117 2.117 0 0 1-2.112-2.113v-8.56l-2.363.88c-.25.09-.502.132-.751.132a2.181 2.181 0 0 1-2.187-2.179c0-.873.527-1.69 1.374-2.03l2.292-1.35c.515-.235.762-.56 1.629-1.863A3.878 3.878 0 0 1 9.83 2.787V1.001h1.3v3.03h-.65c-.83 0-1.56.396-2.027 1.015-.811 1.211-1.212 1.852-2.085 2.261L4.037 8.682l-.055.02a.897.897 0 0 0-.585.835.886.886 0 0 0 1.188.827L8.7 8.834v10.43c0 .447.366.811.81.814a.816.816 0 0 0 .81-.814v-6.941h1.3v.002h.002v7.912c0 .447.366.812.81.812.448 0 .81-.365.81-.812v-7.912h1.3V19.263c0 .447.367.812.81.812a.813.813 0 0 0 .813-.812v-6.938h1.3v4.94a.817.817 0 0 0 .812.806.815.815 0 0 0 .81-.81l.003-9.4c-.005-2.058-.891-3.55-2.125-3.814l-.502-.117V1h1.3l-.001 1.945c1.76.721 2.632 2.745 2.627 4.915"/>
    </g>
</svg>
