<svg xmlns="http://www.w3.org/2000/svg" width="32" height="32" viewBox="0 0 32 32">
    <defs>
        <clipPath id="a">
            <path d="M0 24h24V0H0z"/>
        </clipPath>
    </defs>
    <g clip-path="url(#a)" transform="matrix(1.33333 0 0 -1.33333 0 32)">
        <path fill="#ff8c00" d="M19.922 4.691h-6.105a1.787 1.787 0 0 0-1.783 1.778c0 .985.8 1.781 1.783 1.784h6.105a1.792 1.792 0 0 0 1.783-1.782 1.787 1.787 0 0 0-1.783-1.78M8.942 7.214a1.785 1.785 0 0 0-1.78 1.783l-.001 6.661h-1.3V10.13a1.788 1.788 0 0 0-1.78-1.782A1.784 1.784 0 0 0 2.3 10.13v6.092a2.526 2.526 0 0 0 2.519 2.522h1.984l.185.166a2.895 2.895 0 0 0 1.954.764c.75 0 1.426-.29 1.955-.764l.185-.166h.582l.185.166c.53.476 1.202.764 1.953.764.752 0 1.427-.29 1.954-.764l.185-.166h.772l.173.13c.38.283.829.45 1.325.45a2.237 2.237 0 0 0 2.232-2.233V9.5c-.17.03-.343.052-.522.052h-3.04v6.106h-1.297V9.551h-1.768a3.055 3.055 0 0 1-1.791-.582c0 .01-.003.018-.003.028v6.66h-1.301v-6.66a1.79 1.79 0 0 0-1.78-1.783m12.799 1.732c0 .017.004.033.004.051v8.094a3.537 3.537 0 0 1-3.533 3.534 3.485 3.485 0 0 1-1.843-.533 4.2 4.2 0 0 1-2.566.883 4.18 4.18 0 0 1-2.43-.783 4.188 4.188 0 0 1-2.43.783c-1 0-1.912-.359-2.628-.933H4.82A3.818 3.818 0 0 1 1 16.222V10.13c0-1.7 1.377-3.08 3.08-3.083a3.076 3.076 0 0 1 2.02.757 3.082 3.082 0 0 1 2.843-1.888 3.05 3.05 0 0 1 1.795.596c-.001-.014-.004-.028-.004-.043a3.084 3.084 0 0 1 3.083-3.079h6.105a3.084 3.084 0 0 1 3.082 3.081 3.067 3.067 0 0 1-1.263 2.475"/>
    </g>
</svg>
