<svg xmlns="http://www.w3.org/2000/svg" width="32" height="32" viewBox="0 0 32 32">
    <defs>
        <clipPath id="a">
            <path d="M0 24h24V0H0z"/>
        </clipPath>
    </defs>
    <g clip-path="url(#a)" transform="matrix(1.33333 0 0 -1.33333 0 32)">
        <path fill="#ff8c00" d="M7.663 21.122v-4.374a1.88 1.88 0 0 1-2.456-1.787V8.904c.012-.626.21-1.32.526-1.86L7.33 4.447c.156-.228.348-.9.333-1.175V1h1.301v2.272a4.005 4.005 0 0 1-.526 1.857L6.841 7.726c-.157.23-.349.9-.334 1.178v6.057a.579.579 0 0 0 1.156 0v-4.419h1.302v10.58a.581.581 0 0 0 .58.578.585.585 0 0 0 .577-.578V15.39h1.3a.579.579 0 0 0 1.156 0v-1.638h1.3a.578.578 0 1 0 1.156 0V12.26l1.117-.355.258.476a.574.574 0 0 0 1.084-.268V9.126c.021-.284-.208-1.242-.333-1.397l-1.599-2.6a4.018 4.018 0 0 1-.527-1.857V1h1.301v2.272c-.013.275.177.947.333 1.175l1.6 2.6c.344.608.504 1.46.525 2.08v2.986a1.878 1.878 0 0 1-2.464 1.782 1.877 1.877 0 0 1-2.457 1.641 1.88 1.88 0 0 1-2.45 1.641v3.945A1.88 1.88 0 0 1 9.544 23a1.88 1.88 0 0 1-1.88-1.878"/>
    </g>
</svg>
