<svg xmlns="http://www.w3.org/2000/svg" width="32" height="32" viewBox="0 0 32 32">
    <defs>
        <clipPath id="a">
            <path d="M0 24h24V0H0z"/>
        </clipPath>
    </defs>
    <g clip-path="url(#a)" transform="matrix(1.33333 0 0 -1.33333 0 32)">
        <path fill="#ff8c00" d="M7.663 2.878v4.374a1.88 1.88 0 0 0-2.456 1.787v6.057c.012.626.21 1.32.526 1.86l1.597 2.597c.156.228.348.9.333 1.175V23h1.301v-2.272a4.005 4.005 0 0 0-.526-1.857l-1.597-2.597c-.157-.23-.349-.9-.334-1.178V9.039a.579.579 0 0 1 1.156 0v4.419h1.302V2.878a.581.581 0 0 1 .58-.578.585.585 0 0 1 .577.578V8.61h1.3a.579.579 0 0 1 1.156 0v1.638h1.3a.578.578 0 1 1 1.156 0V11.74l1.117.355.258-.476a.574.574 0 0 1 1.084.268v2.987c.021.284-.208 1.242-.333 1.397l-1.599 2.6a4.018 4.018 0 0 0-.527 1.857V23h1.301v-2.272c-.013-.275.177-.947.333-1.175l1.6-2.6c.344-.608.504-1.46.525-2.08v-2.986a1.878 1.878 0 0 0-2.464-1.782 1.877 1.877 0 0 0-2.457-1.641 1.88 1.88 0 0 0-2.45-1.641V2.878A1.88 1.88 0 0 0 9.544 1a1.88 1.88 0 0 0-1.88 1.878"/>
    </g>
</svg>
