<svg xmlns="http://www.w3.org/2000/svg" width="32" height="32" viewBox="0 0 32 32">
    <defs>
        <clipPath id="a">
            <path d="M0 24h24V0H0z"/>
        </clipPath>
    </defs>
    <g clip-path="url(#a)" transform="matrix(1.33333 0 0 -1.33333 0 32)">
        <path fill="#ff8c00" d="M21.752 16.173c-.363.272-.793.364-1.215.364-.197 0-.399-.02-.599-.062-1.11-.238-2.213-1.2-3.208-3.397-1.092 1.752-2.865 5.217-3.285 6.158-.369.742-1.105 1.068-1.808 1.087a1.626 1.626 0 0 1-.569-.101 1.986 1.986 0 0 1-1.233-1.84c0-.224.038-.467.126-.708.19-.535.475-1.28.771-2.04a209.341 209.341 0 0 0-1.772 2.027l-.032.036-.037.032a2.52 2.52 0 0 1-1.612.6 2.172 2.172 0 0 1-1.556-.637c-.4-.393-.627-.905-.624-1.416.001-.11.01-.216.028-.322-.53-.112-.93-.458-1.243-.797-.348-.37-.492-.856-.494-1.338 0-.661.28-1.37.888-1.856.375-.297 1.011-.83 1.793-1.462-.274.083-.502.153-.65.2a1.682 1.682 0 0 1-.5.08c-1.082-.063-1.645-.831-1.865-1.4a2.158 2.158 0 0 1-.099-.678c-.021-.631.292-1.634 1.352-1.92a920.99 920.99 0 0 1 4.149-1.088c.443-.441 1.967-1.9 3.804-2.576V1.156h1.23V4.03l-.451.124c-.932.258-1.912.885-2.634 1.456-.724.569-1.182 1.058-1.186 1.058l-.123.128-.169.045c-.004 0-3.35.872-4.302 1.126-.333.088-.421.35-.442.736 0 .13.021.25.038.3 0 .1.47.613.698.55a.389.389 0 0 0 .126-.022c.815-.262 3.836-1.15 3.84-1.152l.534 1.088c-1.853 1.34-3.595 2.836-4.38 3.457-.281.22-.423.576-.423.895 0 .232.078.416.159.498.325.345.528.453.705.449a.88.88 0 0 0 .31-.08c.498-.475 3.247-3.101 4.398-4.252l.869.869c-1.198 1.198-4.052 3.92-4.454 4.303-.198.263-.278.494-.276.67.004.173.052.332.264.548.192.192.42.276.686.278a1.28 1.28 0 0 0 .782-.28c.25-.29 1.938-2.247 4.063-4.58l1.024.645c-.001.004-1.467 3.615-2.032 5.203a.863.863 0 0 0-.054.293c-.016.334.275.639.447.692a.32.32 0 0 0 .128.019c.256.018.654-.217.691-.367.591-1.276 2.986-6.031 4.078-7.323l.681-.785.36.975c1.041 2.807 2.133 3.573 2.735 3.678.127.025.246.037.355.037.508-.061.555-.086.582-.395.008-.144-.078-.283-.455-.705-.353-.4-.864-.992-1.257-1.96a3.532 3.532 0 0 1-.284-1.395c.008-.731.166-1.307.164-2.242 0-.126-.002-.256-.008-.394-.07-1.736-1.013-3.753-1.006-3.76l-.06-.124.002-3.178h1.229l-.002 2.913c.218.496.976 2.299 1.062 4.095a7.8 7.8 0 0 1 .01.448c-.001 1.07-.168 1.74-.16 2.242.002.3.039.558.189.927.33.8.699 1.227 1.044 1.617.322.37.753.797.759 1.516.011.508-.225.99-.594 1.259M19.213 19.057c.49-.493.754-.936.894-1.246a2.45 2.45 0 0 0 .129-.354c.022-.076.018-.084.022-.084l1.218.165h-.003c-.01.097-.188 1.183-1.392 2.387s-2.292 1.38-2.39 1.393l-.16-1.218a.423.423 0 0 0 .082-.02c.23-.064.86-.287 1.6-1.023M20.736 20.582c.49-.494.753-.936.895-1.247.07-.155.11-.276.13-.352.02-.071.018-.083.02-.083h.002l1.217.165h-.002c-.01.098-.19 1.183-1.395 2.385-1.199 1.203-2.285 1.383-2.383 1.393l-.165-1.218c0 .002.007.002.083-.02.231-.064.86-.287 1.598-1.023M3.742 17.373l-.002.001v-.001zM3.762 17.457c.064.23.287.861 1.025 1.601.493.49.934.752 1.245.892.155.07.277.11.353.129.077.022.085.018.083.022l-.162 1.217c-.096-.012-1.185-.188-2.387-1.392-1.206-1.205-1.384-2.29-1.396-2.387l1.218-.165c0 .002 0 .015.02.083M4.507 21.476c.153.07.275.108.351.129.078.022.085.018.085.022l-.165 1.217c-.099-.012-1.184-.19-2.385-1.395C1.19 20.247 1.011 19.163 1 19.065l1.216-.164s0 .005.02.083c.066.23.29.86 1.025 1.596.493.493.936.754 1.246.896"/>
    </g>
</svg>
