<svg xmlns="http://www.w3.org/2000/svg" width="32" height="32" viewBox="0 0 32 32">
    <defs>
        <clipPath id="a">
            <path d="M0 24h24V0H0z"/>
        </clipPath>
    </defs>
    <g clip-path="url(#a)" transform="matrix(1.33333 0 0 -1.33333 0 32)">
        <path fill="#ff8c00" d="M8.761 10.984c.076.011.146.014.211.014 1.03-.012 1.707-.703 1.71-1.522 0-.112-.013-.223-.037-.337-.165-.808-.943-1.245-1.569-1.248-.175 0-.326.037-.426.085-.666.295-1.482 1.456-1.877 2.036-.01.014-.022.03-.033.042.627.38 1.08.845 2.021.93m9.211.32c.206.604 2.065 3.207 2.654 5.06.087.284.135.546.135.802a1.723 1.723 0 0 1-.707 1.404c-.27.21-.602.314-.944.314-.535.007-1.104-.279-1.474-.824a19.417 19.417 0 0 1-1.076-1.793c-.246 1.881-.597 4.477-.739 5.096-.24 1.116-1.115 1.66-1.8 1.636-.113 0-.218-.015-.314-.034-.593-.096-1.398-.727-1.384-1.827 0-.133.36-2.826.578-4.506a255.378 255.378 0 0 1-2.287 3.616c-.46.703-1.169 1.012-1.766 1.006a1.645 1.645 0 0 1-.934-.272c-.298-.185-.819-.678-.807-1.455.002-.436.143-.906.438-1.449.41-.748 1.358-2.088 2.165-3.194a5.093 5.093 0 0 1-.576.032c-1.162-.002-2.276-.36-3.17-.776-.903-.437-1.532-.85-1.877-1.295a2.12 2.12 0 0 1-.429-1.259c.002-.405.121-.744.271-1.003a1.758 1.758 0 0 1-.689-1.437c.002-.397.107-.774.27-1.118.345-.744 2.354-4.619 7.321-5.145.42-.05.524-.285.694-.629.19-.424.66-1.242.665-1.254l1.083.616h-.002c-.002.002-.48.848-.609 1.142-.15.374-.612 1.257-1.703 1.364-4.29.434-6.033 3.824-6.324 4.436-.1.207-.15.423-.15.588.015.254.057.354.256.483a.573.573 0 0 0 .298.086c.224.01.536-.166.722-.43.402-.536 1.182-1.847 2.352-2.433.305-.143.635-.203.963-.203 1.14-.002 2.451.75 2.787 2.228.043.207.062.406.062.6-.003 1.556-1.327 2.761-2.953 2.765-.108 0-.228-.006-.348-.022-1.645-.17-2.527-1.24-2.82-1.259a.807.807 0 0 0-.248-.038c-.24-.006-.46.141-.506.215a.783.783 0 0 0-.146.448c.002.152.036.312.19.525.023.068.636.561 1.398.902.773.364 1.745.66 2.642.657.753-.004 1.431-.192 2.008-.688l.902.85c-.006.002-2.748 3.627-3.406 4.841-.23.425-.287.702-.287.854.013.242.082.281.27.43a.42.42 0 0 0 .227.052c.213-.006.477-.08.732-.452.541-.813 3.775-6.003 3.78-6.009l1.146.41c0 .003-.938 7.122-.938 7.18.014.492.243.55.398.61a.278.278 0 0 0 .054.006c.154-.023.41-.028.59-.68.187-.778.977-6.988.98-6.996l1.183-.178c0 .004.978 2.15 1.887 3.451.174.244.328.285.45.29a.306.306 0 0 0 .183-.055c.177-.157.21-.19.222-.42 0-.098-.02-.24-.077-.432-.48-1.564-2.24-4.02-2.632-4.99-.5-1.363-.669-4.732-.75-5.24a4.598 4.598 0 0 1-.048-.628c0-.4.064-.794.194-1.175.198-.579.747-1.624.755-1.645l1.106.574c-.005.001-.56 1.09-.68 1.468a2.322 2.322 0 0 0-.13.778c0 .138.011.287.035.451.078.608.307 4.025.684 4.977"/>
    </g>
</svg>
