<svg xmlns="http://www.w3.org/2000/svg" width="32" height="32" viewBox="0 0 32 32">
    <defs>
        <clipPath id="a">
            <path d="M0 24h24V0H0z"/>
        </clipPath>
    </defs>
    <g clip-path="url(#a)" transform="matrix(1.33333 0 0 -1.33333 0 32)">
        <path fill="#00f" d="M16.268 5.68c-2.06-.001-3.817.922-4.751 2.212l-.443.609-.506-.556C9.746 7.037 8.392 6.41 6.84 6.412c-2.635.004-4.607 1.74-4.612 3.655-.018 1.76 1.665 3.35 4.007 3.603l.539.056.01.54c.029 2.197 2.038 4.05 4.6 4.054 2.306 0 4.159-1.503 4.533-3.395l.094-.477.487-.016c3.018-.106 5.296-2.107 5.275-4.365-.005-2.32-2.377-4.382-5.505-4.386m.734 9.948c-.692 2.29-2.96 3.918-5.618 3.918-2.957.004-5.45-2.031-5.79-4.73-2.555-.461-4.577-2.333-4.594-4.75.025-2.8 2.705-4.878 5.84-4.882 1.61 0 3.066.547 4.128 1.446 1.24-1.336 3.154-2.176 5.3-2.178 3.629.006 6.708 2.413 6.732 5.614-.022 2.98-2.703 5.265-5.998 5.562"/>
    </g>
</svg>
