<svg xmlns="http://www.w3.org/2000/svg" width="32" height="32" viewBox="0 0 32 32">
    <defs>
        <clipPath id="a">
            <path d="M0 24h24V0H0z"/>
        </clipPath>
    </defs>
    <g clip-path="url(#a)" transform="matrix(1.33333 0 0 -1.33333 0 32)">
        <path fill="#00f" d="M7.943 2.298c-.481.498-.718 1.165-.718 1.98v.1h1.237l.004-.097c.017-.522.14-.896.35-1.131.208-.23.57-.36 1.11-.36.522.004.88.148 1.107.42.234.28.354.677.356 1.199v3.174l-.002 3.312H8.466V9.852H7.225v1.043H4.302V9.852H3.06v.1l.002.94H2l.02.118c.299 1.684 1.046 3.168 2.238 4.446 1.189 1.279 2.632 2.293 4.327 3.044.506.225.994.418 1.465.574.445.149.89.243 1.338.285v1.049h1.238v-1.053c.43-.056.876-.16 1.339-.305.487-.16.969-.35 1.442-.576a13.41 13.41 0 0 0 4.285-3.043c1.199-1.278 1.96-2.754 2.275-4.42l-.097-.02v.1-.1l.097.02.022-.118h-.12l-.941.002V9.852H19.69v.1l-.002.943h-2.923V9.852h-1.24v1.04h-2.897v-6.64c0-.378-.08-.752-.241-1.12a2.813 2.813 0 0 0-.656-.936 3.598 3.598 0 0 0-.857-.468 2.657 2.657 0 0 0-.947-.175h-.01c-.83 0-1.496.247-1.974.745M4.08 18.281h.011l-.84 1.844-.84-1.844h.01a.911.911 0 0 1-.109-.415.938.938 0 0 1 1.875 0 .923.923 0 0 1-.107.415M8.681 21.156h.011L7.852 23l-.84-1.844h.01a.911.911 0 0 1-.109-.415.938.938 0 0 1 1.875 0 .923.923 0 0 1-.107.415M21.58 18.281h.01l-.84 1.844-.84-1.844h.01a.911.911 0 0 1-.108-.415.938.938 0 0 1 1.875 0 .923.923 0 0 1-.107.415M16.98 21.156h.01L16.15 23l-.84-1.844h.01a.911.911 0 0 1-.107-.415.938.938 0 0 1 1.875 0 .923.923 0 0 1-.107.415"/>
    </g>
</svg>
