<svg xmlns="http://www.w3.org/2000/svg" width="32" height="32" viewBox="0 0 32 32">
    <defs>
        <clipPath id="a">
            <path d="M0 24h24V0H0z"/>
        </clipPath>
    </defs>
    <g clip-path="url(#a)" transform="matrix(1.33333 0 0 -1.33333 0 32)">
        <path fill="red" d="M8.197 6.427c0 8.176 6.628 14.803 14.803 14.803V23C13.846 23 6.426 15.58 6.426 6.428v-.002h1.771z"/>
        <path fill="#ff8c00" d="M8.197 6.427v-.002h1.78v.002C9.976 13.62 15.807 19.45 23 19.45v1.78c-8.175 0-14.803-6.627-14.803-14.803"/>
        <path fill="#00be3c" d="M11.762 6.427c0 6.207 5.033 11.238 11.238 11.238v1.785c-7.191 0-13.023-5.83-13.023-13.023v-.002h1.785z"/>
        <path fill="#00f" d="M11.762 6.427v-.002h1.77v.002c0 5.228 4.24 9.466 9.468 9.466v1.772c-6.205 0-11.238-5.031-11.238-11.238"/>
        <path fill="#00f" d="M14.155 10.388a4.843 4.843 0 0 1-2.873-.927c-1.066 1.204-2.69 1.967-4.51 1.969C3.626 11.424.986 9.154.973 6.207.986 3.26 3.624.99 6.773.984c1.82.002 3.443.764 4.51 1.97a4.838 4.838 0 0 1 2.872-.927c2.491.002 4.595 1.813 4.606 4.18-.01 2.37-2.115 4.177-4.606 4.18"/>
        <path fill="#e6e6e6" d="M17.492 6.206c-.004-1.542-1.439-2.896-3.336-2.899-1.018 0-1.92.402-2.525 1.013l-.545.548-.428-.642c-.769-1.153-2.212-1.96-3.887-1.96-2.546.002-4.504 1.823-4.508 3.94.004 2.115 1.962 3.933 4.508 3.937 1.675.002 3.118-.805 3.887-1.96l.431-.644.544.551c.603.611 1.505 1.013 2.523 1.013 1.897-.005 3.332-1.357 3.336-2.897"/>
    </g>
</svg>
