<svg xmlns="http://www.w3.org/2000/svg" width="32" height="32" viewBox="0 0 32 32">
    <path fill="#00f" d="M28.909 21.297l-.528-1.221-2.28.984-1.206-.695 2.308-1.024-.54-1.216-3.193 1.417-1.079-.622 2.767-1.24-.547-1.216-3.644 1.633L17.335 16l3.63-2.095 3.646 1.635.547-1.218-2.77-1.241 1.08-.621 3.195 1.414.54-1.217-2.306-1.023 1.202-.694 2.283.985.53-1.224-1.373-.593 1.498-.864-.664-1.155-1.5.867.17-1.488-1.325-.154-.283 2.47-1.205.694.267-2.508-1.326-.141-.369 3.475-1.08.622.312-3.017-1.325-.136-.414 3.977-3.624 2.094v-4.19l3.24-2.344-.784-1.078-2.456 1.777V7.76l2.826-2.057-.786-1.076-2.04 1.484V4.724l1.992-1.483-.793-1.07-1.199.891V1.334h-1.334v1.728l-1.204-.89-.795 1.07 1.999 1.483v1.387l-2.043-1.486-.785 1.079 2.828 2.057V9.01l-2.463-1.78-.78 1.081 3.243 2.343v4.19l-3.634-2.097-.408-3.976-1.329.138.312 3.016-1.076-.622-.37-3.474-1.329.14.267 2.508-1.2-.694-.288-2.468-1.323.154.172 1.484-1.498-.864-.667 1.153 1.5.867-1.375.594.531 1.224 2.28-.99 1.205.697-2.309 1.027.545 1.214 3.191-1.417 1.077.623-2.768 1.24.544 1.218 3.652-1.634 3.626 2.094-3.627 2.095-3.65-1.63-.545 1.214 2.766 1.241-1.078.622-3.193-1.418-.54 1.219 2.305 1.023-1.204.694-2.277-.985-.53 1.221 1.371.595-1.5.867.668 1.156 1.5-.866-.172 1.486 1.324.15.283-2.466 1.205-.696-.266 2.509 1.326.143.371-3.478 1.076-.621-.312 3.019 1.328.137.41-3.98 3.631-2.096v4.192l-3.244 2.345.78 1.08 2.464-1.78v1.246l-2.826 2.058.785 1.079 2.041-1.49v1.39l-1.997 1.485.793 1.07 1.204-.892v1.73h1.334v-1.73l1.198.892.796-1.07-1.994-1.482v-1.391l2.037 1.488.785-1.079-2.822-2.057v-1.244l2.456 1.777.781-1.08-3.237-2.344v-4.19l3.63 2.096.41 3.98 1.325-.138-.31-3.018 1.078.62.37 3.476 1.325-.143-.267-2.507 1.205.695.283 2.468 1.324-.153-.17-1.486 1.495.863.67-1.153-1.498-.866z"/>
</svg>
