<svg xmlns="http://www.w3.org/2000/svg" width="32" height="32" viewBox="0 0 32 32">
    <defs>
        <clipPath id="a">
            <path d="M0 24h24V0H0z"/>
        </clipPath>
    </defs>
    <g clip-path="url(#a)" transform="matrix(1.33333 0 0 -1.33333 0 32)">
        <path fill="#003c96" d="M23.008 11.98c0 3.053-1.074 5.654-3.221 7.8C17.64 21.927 15.05 23 12.02 23c-3.054 0-5.654-1.074-7.8-3.22C2.073 17.634 1 15.034 1 11.98c0-3.03 1.073-5.62 3.22-7.767C6.368 2.067 8.968.994 12.02.994c3.03 0 5.62 1.073 7.767 3.22 2.147 2.146 3.22 4.736 3.22 7.765"/>
    </g>
</svg>
