<svg xmlns="http://www.w3.org/2000/svg" width="32" height="32" viewBox="0 0 32 32">
    <defs>
        <clipPath id="a">
            <path d="M0 24h24V0H0z"/>
        </clipPath>
    </defs>
    <path fill="#00f" d="M18.473 26.589l-5.298-7.287h-1.344v9.487h1.344v-7.4l5.298 7.4h1.342v-9.487h-1.342z"/>
    <g clip-path="url(#a)" transform="matrix(1.33333 0 0 -1.33333 0 32)">
        <path fill="#00f" d="M18.515 3.4h-1.618v5.132h1.618a2.497 2.497 0 0 0 2.414-2.568A2.497 2.497 0 0 0 18.515 3.4m0-.99a3.494 3.494 0 0 1 3.418 3.555v.002a3.495 3.495 0 0 1-3.418 3.557h-2.622V2.408zM7.838 2.41v1.182h-4.71v1.784h4.055v1.18H3.128v1.785h4.71v1.182H2.011V2.41zM7.828 13.632h12.985v5.623H7.828v1.988l-4.696-4.8 4.696-4.802z"/>
    </g>
</svg>
