<svg xmlns="http://www.w3.org/2000/svg" width="32" height="32" viewBox="0 0 32 32">
    <defs>
        <clipPath id="a">
            <path d="M0 24h24V0H0z"/>
        </clipPath>
    </defs>
    <g clip-path="url(#a)" transform="matrix(1.33333 0 0 -1.33333 0 32)">
        <path fill="#595959" d="M18.627 2.227h-.578v5.232l-3.506 3.503c-.474.475-.612.809-.608 1.038-.004.234.132.563.607 1.036l3.507 3.506v5.23h.578zm-13.254 0v19.545h.578v-5.23l3.505-3.505c.473-.474.608-.803.605-1.037.003-.23-.132-.563-.605-1.038L5.951 7.459V2.227zm8.302 7.867l1.779-1.778v-.344h.344l1.021-1.02v-.953h-.379v-.986h-.986v-.986h.987v.986h.378v-.986h-.378V3.04h-.987v.987h-.986V3.04h-.987v.987h-.987V3.04h-.986v.987h-.987V3.04h-.987v.987h-.987V3.04h-.986v.987h-.383v.986h.383v.986h-.383v.95l1.024 1.024h.346v.346l1.777 1.775v.002c.574.574.959 1.189.963 1.904.004.716-.389 1.33-.963 1.905v.002L7.178 17.05v4.72h9.641V17.05l-3.147-3.144v-.002c-.574-.574-.96-1.188-.964-1.904-.004-.717.393-1.332.967-1.905m7.944 11.678V23H2.38v-1.23h1.766V2.228H2.38V1h19.239v1.227h-1.763v19.545z"/>
        <path fill="#595959" d="M10.521 6.986h-.986v-.987h.986zM11.508 7.973h-.987v-.986h.987zM12.494 6.986h-.986v-.987h.986zM13.481 6.986v.985h.986v.987h-.986v-.986h-.987v-.986zM12.494 8.96h-.986v-.987h.986zM7.561 4.026h.986v.986h-.986zM8.547 5.013h.987v.986h-.987zM9.534 4.026h.986v.986h-.986zM10.521 5.013h.987v.986h-.987zM11.508 4.026h.986v.986h-.986zM12.494 5.013h.987v.986h-.987zM13.481 4.026h.986v.986h-.986zM14.468 5.013h.986v.986h-.986zM8.547 6.985h-.986v-.986h.986zM15.454 5.999h.986v.986h-.986z"/>
        <path fill="#595959" d="M14.468 6.986h-.986V6h.986v.986h.986v.986h-.986zM9.534 7.973h-.986v-.986h.986zM10.521 8.959h-.986v-.986h.986z"/>
    </g>
</svg>
