<svg xmlns="http://www.w3.org/2000/svg" width="32" height="32" viewBox="0 0 32 32">
    <defs>
        <clipPath id="a">
            <path d="M0 24h24V0H0z"/>
        </clipPath>
    </defs>
    <g clip-path="url(#a)" transform="matrix(1.33333 0 0 -1.33333 0 32)">
        <path fill="#595959" d="M12 6.822A5.187 5.187 0 0 0 6.822 12 5.186 5.186 0 0 0 12 17.18 5.186 5.186 0 0 0 17.178 12 5.187 5.187 0 0 0 12 6.822M18.477 12a6.474 6.474 0 0 1-3.78 5.885V23H9.305v-5.115A6.473 6.473 0 0 1 5.523 12a6.47 6.47 0 0 1 3.782-5.884V1h5.392v5.117A6.47 6.47 0 0 1 18.477 12"/>
        <path fill="#595959" d="M12.65 15.783h-1.299V11.35h3.418v1.301H12.65z"/>
    </g>
</svg>
