<svg xmlns="http://www.w3.org/2000/svg" width="32" height="32" viewBox="0 0 32 32">
    <defs>
        <clipPath id="a">
            <path d="M0 24h24V0H0z"/>
        </clipPath>
    </defs>
    <g clip-path="url(#a)" transform="matrix(1.33333 0 0 -1.33333 0 32)">
        <path fill="#00f" d="M20.462 8.993c0 .503-.182.931-.542 1.285-.363.35-.784.528-1.27.528-.503 0-.931-.179-1.281-.528a1.752 1.752 0 0 1-.53-1.285c0-.463.177-.875.53-1.237.35-.363.778-.544 1.282-.544.403 0 .719.1.95.302.232.2.479.502.74.906a1.624 1.624 0 0 1 .12.573m-13.25 6.04c0 .501-.183.93-.546 1.282a1.77 1.77 0 0 1-1.268.53c-.221 0-.444-.037-.664-.106-.223-.073-.394-.177-.513-.319-.022 0-.111-.116-.271-.347-.162-.23-.242-.367-.242-.406a.537.537 0 0 1-.106-.289 3.787 3.787 0 0 1-.015-.346c0-.483.174-.907.527-1.268.354-.362.78-.543 1.284-.543.482 0 .906.181 1.268.543.363.361.546.785.546 1.268m15.788 1.208l-1.933-1.39a4.347 4.347 0 0 1-.8.831c-.332.271-.67.518-1.012.74-1.247.845-2.646 1.534-4.196 2.067-1.55.533-3.01.801-4.378.801-.602 0-1.176-.04-1.721-.12a7.528 7.528 0 0 1-1.6-.423 4.24 4.24 0 0 0 1.646-1.54 4.041 4.041 0 0 0 .619-2.174c0-1.147-.418-2.14-1.253-2.974-.837-.836-1.826-1.252-2.974-1.252-1.187 0-2.188.416-3.003 1.252-.816.834-1.223 1.827-1.223 2.974 0 .32.033.635.104.936.07.302.176.584.318.845v.031c.12.241.246.457.377.648.13.192.286.37.47.53.22.281.427.533.617.754.192.221.398.412.618.574.425.361.86.668 1.314.92.454.251.96.478 1.526.68.643.261 1.288.457 1.93.588a8.376 8.376 0 0 0 1.934.166h.15c.563 0 1.139-.035 1.722-.106a15.9 15.9 0 0 0 1.87-.348c1.63-.362 3.29-.989 4.983-1.886 1.692-.896 2.99-1.937 3.895-3.124m-.12-7.247a4.53 4.53 0 0 0-.303-1.675 6.966 6.966 0 0 0-.876-1.555 6.093 6.093 0 0 0-1.221-1.237 10.687 10.687 0 0 0-1.617-1.028 12.63 12.63 0 0 0-2.583-.89 11.94 11.94 0 0 0-2.701-.316c-2.173 0-4.512.511-7.02 1.54C4.054 4.858 2.196 6.154.99 7.725l1.93 1.42c.182-.262.429-.525.742-.785.31-.263.648-.525 1.009-.785C5.899 6.75 7.299 6.06 8.87 5.506c1.569-.554 3.048-.829 4.438-.829a9.786 9.786 0 0 1 3.41.603 4.038 4.038 0 0 0-1.66 1.556 4.13 4.13 0 0 0-.605 2.157c0 1.188.407 2.188 1.226 3.005.814.814 1.805 1.223 2.972 1.223 1.166 0 2.164-.409 2.988-1.223.827-.817 1.24-1.817 1.24-3.005"/>
    </g>
</svg>
