<svg xmlns="http://www.w3.org/2000/svg" width="32" height="32" viewBox="0 0 32 32">
    <defs>
        <clipPath id="a">
            <path d="M0 24h24V0H0z"/>
        </clipPath>
    </defs>
    <g clip-path="url(#a)" transform="matrix(1.33333 0 0 -1.33333 0 32)">
        <path fill="red" d="M8.958 8.379c0 .51-.182.936-.551 1.283-.366.346-.795.52-1.282.52-.51 0-.942-.174-1.301-.52a1.726 1.726 0 0 1-.534-1.283c0-.49.18-.916.534-1.283a1.753 1.753 0 0 1 1.301-.553c.487 0 .916.186 1.282.553.369.367.551.793.551 1.283m12.193-2.262c0-1.203-.396-2.246-1.191-3.133-.795-.886-1.784-1.33-2.963-1.33-1.225 0-2.252.44-3.088 1.315-.836.877-1.264 1.926-1.283 3.148v11.797a2.278 2.278 0 0 1-.535 1.42c-.336.398-.76.598-1.27.598-.528 0-.972-.2-1.33-.597a2.059 2.059 0 0 1-.533-1.421V12.23a4.243 4.243 0 0 0 1.772-1.56 4.133 4.133 0 0 0 .672-2.292c0-1.182-.423-2.19-1.266-3.025C9.289 4.518 8.286 4.1 7.125 4.1c-1.204 0-2.217.418-3.043 1.254-.824.836-1.236 1.843-1.236 3.025 0 1.059.346 1.986 1.038 2.78.693.796 1.57 1.273 2.629 1.437v5.318c0 1.223.418 2.268 1.252 3.134.837.864 1.854 1.298 3.056 1.298.632 0 1.229-.133 1.788-.398a4.072 4.072 0 0 0 1.453-1.161c.305-.408.543-.855.718-1.344.172-.49.259-1 .259-1.53V6.118c.022-.468.22-.922.597-1.36.376-.44.81-.657 1.298-.657.509 0 .932.209 1.27.629.334.416.504.879.504 1.388v2.905h2.443z"/>
    </g>
</svg>
