<svg xmlns="http://www.w3.org/2000/svg" width="32" height="32" viewBox="0 0 32 32">
    <defs>
        <clipPath id="a">
            <path d="M0 24h24V0H0z"/>
        </clipPath>
    </defs>
    <g clip-path="url(#a)" transform="matrix(1.33333 0 0 -1.33333 0 32)">
        <path fill="#ff8c00" d="M16.877 8.56c-1.819 2.377-1.823 5.137-1.823 5.137 0 .027.008.052.008.078 0 1.69.655 3.297.655 3.297.179.472.626.811 1.16.811.534 0 .981-.339 1.16-.81 0 0 .655-1.608.655-3.298 0-.026.008-.05.008-.078 0 0-.004-2.76-1.823-5.137m3.233-3.773c-.612.357-1.193.892-1.744 1.605a19.943 19.943 0 0 1 2.018 3.697 9.807 9.807 0 0 1 .764 3.76c0 1.61-.346 3.092-1.038 4.446-.694 1.355-1.774 2.033-3.242 2.033-.467 0-.927-.098-1.373-.29a3.449 3.449 0 0 1-1.162-.81 3.108 3.108 0 0 1-1.254 1.1 3.764 3.764 0 0 1-2.963.122 3.744 3.744 0 0 1-1.162-.701 3.4 3.4 0 0 1-1.131.7 3.578 3.578 0 0 1-1.283.246c-.307 0-.605-.036-.901-.107a2.988 2.988 0 0 1-.81-.322 3.575 3.575 0 0 1-1.301 1.378 3.798 3.798 0 0 1-1.867.549v-2.445c.284 0 .569-.113.815-.336.244-.224.365-.49.365-.794V2.175h2.446v14.969a1.222 1.222 0 1 0 2.444 0V2.175h2.446v14.97c0 .675.547 1.222 1.221 1.222.675 0 1.239-.547 1.239-1.222v-3.447c0-1.244.255-2.471.733-3.684.479-1.213 1.146-2.41 2.002-3.592-.571-.713-1.161-1.254-1.773-1.621-.611-.366-1.346-.55-2.2-.55V1.806c1.079 0 2.074.22 2.981.658.905.438 1.736 1.075 2.488 1.91.735-.835 1.551-1.472 2.447-1.91.895-.439 1.907-.658 3.026-.658v2.445c-.877 0-1.621.178-2.231.536"/>
    </g>
</svg>
