<svg xmlns="http://www.w3.org/2000/svg" width="32" height="32" viewBox="0 0 32 32">
    <defs>
        <clipPath id="a">
            <path d="M0 24h24V0H0z"/>
        </clipPath>
    </defs>
    <g clip-path="url(#a)" transform="matrix(1.33333 0 0 -1.33333 0 32)">
        <path fill="#00be3c" d="M21.623 2.22H2.216v2.446h19.407zm0 4.891h-7.182v2.322c.754.286 1.344.996 1.773 2.125.427 1.131.641 2.092.641 2.887 0 1.609-.417 2.822-1.253 3.638-.835.814-2.037 1.221-3.606 1.221-1.59 0-2.797-.402-3.622-1.207-.825-.805-1.237-2.001-1.237-3.589 0-1 .199-1.992.595-2.982.398-.987.964-1.685 1.698-2.093V7.111H2.216v2.414h3.883a8.523 8.523 0 0 0-1.056 2.4 9.856 9.856 0 0 0-.351 2.583c0 2.261.652 4.033 1.955 5.316 1.305 1.284 3.086 1.926 5.349 1.926 2.199 0 3.968-.642 5.303-1.926 1.334-1.283 2.002-3.035 2.002-5.256 0-.877-.129-1.748-.383-2.613a10.49 10.49 0 0 0-1.055-2.43h3.76z"/>
    </g>
</svg>
