<svg xmlns="http://www.w3.org/2000/svg" width="32" height="32" viewBox="0 0 32 32">
    <defs>
        <clipPath id="a">
            <path d="M0 24h24V0H0z"/>
        </clipPath>
    </defs>
    <g clip-path="url(#a)" transform="matrix(1.33333 0 0 -1.33333 0 32)">
        <path fill="#ff8c00" d="M19.78 17.563c0 .508-.186.942-.552 1.299a1.788 1.788 0 0 1-1.284.533 1.77 1.77 0 0 1-1.298-.533 1.774 1.774 0 0 1-.535-1.3c0-.49.18-.917.535-1.283a1.742 1.742 0 0 1 1.298-.55c.49 0 .917.183 1.284.55.366.366.552.793.552 1.283m2.443-11.064c0-.735-.224-1.41-.672-2.034a4.396 4.396 0 0 0-1.71-1.42 8.42 8.42 0 0 0-2.249-.641 18.452 18.452 0 0 0-2.673-.182v2.414c.713 0 1.425.045 2.138.139.715.092 1.295.248 1.743.473.386.203.647.38.78.535.132.152.2.422.2.808v.063c0 .387-.144.828-.43 1.328-.285.5-.58.982-.886 1.453-.49.733-.872 1.414-1.147 2.047a7.11 7.11 0 0 0-.534 2.018c-.448.14-.86.337-1.237.594-.378.255-.7.556-.963.903a18.393 18.393 0 0 1-.794-2.157 25.193 25.193 0 0 1-.582-2.338 31.37 31.37 0 0 0-1.406-4.506C11.21 4.498 10.54 3.219 9.785 2.16H7.83C7.014 3.219 6.312 4.527 5.72 6.085a29.476 29.476 0 0 0-1.346 4.63 30.552 30.552 0 0 1-1.052 3.76c-.418 1.18-.932 2.137-1.545 2.871l1.803 1.651c.103-.102.215-.24.337-.413.123-.173.254-.373.397-.595a14.522 14.522 0 0 0 1.453-3.072c.377-1.11.707-2.347.992-3.712.203-1.06.475-2.08.81-3.055a23.54 23.54 0 0 1 1.207-2.875c.45.896.841 1.824 1.177 2.78.336.958.617 1.948.841 2.966.242 1.1.524 2.14.84 3.117a18.66 18.66 0 0 0 1.145 2.78c.101.246.214.485.338.72.121.233.254.453.396.656.022.04.082.136.184.29.102.153.174.248.213.291.101.245.183.437.246.581.061.141.13.275.214.396a3.8 3.8 0 0 0 1.512 1.468c.642.346 1.33.52 2.062.52 1.182 0 2.19-.414 3.025-1.239.836-.826 1.254-1.839 1.254-3.04a4.05 4.05 0 0 0-.84-2.492 4.325 4.325 0 0 0-2.124-1.543c.08-.549.26-1.069.535-1.559.274-.488.631-1.074 1.07-1.756.437-.683.773-1.298 1.008-1.849.232-.55.351-1.172.351-1.865"/>
    </g>
</svg>
