<svg xmlns="http://www.w3.org/2000/svg" width="32" height="32" viewBox="0 0 32 32">
    <path fill="#00be3c" d="M30.643 29.02h-4.888l-2.448-6.847-2.442 6.846h-3.222l-2.445-6.846-2.443 6.846h-3.26L7.05 22.173l-2.443 6.846H1.345L5.42 17.651h3.26l2.444 6.804 2.446-6.804h3.26l2.446 6.804 2.402-6.804h3.259l2.937 8.11h2.768zm0-14.629h-4.888l-2.448-6.845-2.442 6.845h-3.222l-2.445-6.845-2.443 6.845h-3.26L7.05 7.546l-2.443 6.845H1.345L5.42 2.981h3.26l2.444 6.845 2.446-6.845h3.26l2.446 6.845 2.402-6.845h3.259l2.937 8.15h2.768z"/>
</svg>
