<svg xmlns="http://www.w3.org/2000/svg" width="32" height="32" viewBox="0 0 32 32">
    <defs>
        <clipPath id="a">
            <path d="M0 24h24V0H0z"/>
        </clipPath>
    </defs>
    <g clip-path="url(#a)" transform="matrix(1.33333 0 0 -1.33333 0 32)">
        <path fill="#00f" d="M20.542 2.235a4.366 4.366 0 0 0-2.581.886c-.764.57-1.41 1.314-1.941 2.23a9.855 9.855 0 0 0-1.023 2.553 17.52 17.52 0 0 0-.474 2.858H9.48a20.735 20.735 0 0 0-.503-2.858 10.73 10.73 0 0 0-.995-2.553 7.495 7.495 0 0 0-1.957-2.215 4.34 4.34 0 0 0-2.566-.9v2.443c.469 0 .902.184 1.299.551a6.64 6.64 0 0 1 1.085 1.315c.327.57.587 1.232.78 1.986.192.753.33 1.498.412 2.231H3.459v2.445h3.576c-.082.754-.22 1.507-.412 2.261a7.949 7.949 0 0 1-.78 1.987A6.363 6.363 0 0 1 4.758 18.8c-.397.367-.83.54-1.299.518v2.446c.937 0 1.793-.29 2.566-.87.776-.582 1.427-1.33 1.957-2.247.428-.754.759-1.595.995-2.52.232-.928.4-1.903.503-2.92h5.043c.081 1.017.239 1.992.474 2.92a9.362 9.362 0 0 0 1.023 2.52c.531.937 1.177 1.691 1.941 2.261.766.57 1.624.856 2.581.856v-2.446c-.468.021-.905-.15-1.313-.518a5.456 5.456 0 0 1-1.07-1.345 7.341 7.341 0 0 1-.809-1.987 13.29 13.29 0 0 1-.382-2.26h3.574v-2.446h-3.574c.06-.733.188-1.478.382-2.23a7.321 7.321 0 0 1 .809-1.987 5.64 5.64 0 0 1 1.07-1.315c.408-.367.845-.55 1.313-.55z"/>
    </g>
</svg>
