<svg xmlns="http://www.w3.org/2000/svg" width="32" height="32" viewBox="0 0 32 32">
    <defs>
        <clipPath id="a">
            <path d="M0 24h24V0H0z"/>
        </clipPath>
    </defs>
    <g clip-path="url(#a)" transform="matrix(1.33333 0 0 -1.33333 0 32)">
        <path fill="#00f" d="M23.006 18.637c0-.315-.107-.58-.32-.792a1.043 1.043 0 0 0-.765-.32c-.316 0-.58.106-.793.32a1.07 1.07 0 0 0-.32.792c0 .296.106.552.32.765.213.214.477.32.793.32.297 0 .55-.106.765-.32.213-.213.32-.469.32-.765M21.92 3.197c0 .315-.111.58-.334.793-.223.213-.482.32-.78.32-.295 0-.551-.107-.764-.32a1.08 1.08 0 0 1-.32-.793c0-.297.107-.55.32-.765.213-.212.469-.319.765-.319.297 0 .556.107.779.32.223.213.334.467.334.764M18.61 20.28a.53.53 0 0 0-.167-.39.536.536 0 0 0-.39-.167.487.487 0 0 0-.374.167.554.554 0 0 0-.153.39c0 .148.05.278.153.39a.484.484 0 0 0 .375.166.532.532 0 0 0 .389-.167.53.53 0 0 0 .167-.389M17.526 5.951a.502.502 0 0 1-.182.404.58.58 0 0 1-.375.152.548.548 0 0 1-.403-.152.542.542 0 0 1-.154-.404c0-.13.05-.255.154-.374a.498.498 0 0 1 .403-.182c.129 0 .255.06.375.182.12.12.182.244.182.374m-8.82 8.82a.537.537 0 0 0-.166-.39.534.534 0 0 0-.39-.167.518.518 0 0 0-.403.167.558.558 0 0 0-.154.39c0 .166.052.301.154.403a.548.548 0 0 0 .403.153.566.566 0 0 0 .39-.153.526.526 0 0 0 .166-.404m6.204-1.53c0 .371-.018.733-.055 1.085a14.25 14.25 0 0 1-.14 1.002c-.241 1.242-.96 2.211-2.155 2.907a7.494 7.494 0 0 1-3.825 1.043 8.372 8.372 0 0 1-1.642-.167 9.507 9.507 0 0 1-1.614-.473c2.245.13 3.969-.528 5.174-1.975 1.206-1.447 1.809-3.329 1.809-5.649 0-1.185-.14-2.418-.417-3.699a31.298 31.298 0 0 0-1.113-3.866c1.205 1.575 2.17 3.181 2.893 4.813.724 1.631 1.085 3.292 1.085 4.98m-6.9-5.398c0 .946-.282 1.693-.848 2.24-.565.547-1.312.82-2.24.82-.315 0-.611-.032-.89-.097a2.251 2.251 0 0 1-.75-.32c1.075 0 1.946-.394 2.614-1.182.668-.79 1.002-1.74 1.002-2.852 0-.519-.07-1.043-.208-1.57-.14-.53-.33-1.073-.571-1.629.538.778.988 1.558 1.349 2.337.362.78.542 1.53.542 2.253m-2.614 6.371c0-.297-.107-.552-.32-.765a1.077 1.077 0 0 0-.793-.32c-.297 0-.552.107-.765.32-.213.213-.32.468-.32.765 0 .316.107.58.32.793.213.213.468.32.765.32.316 0 .58-.107.793-.32.213-.214.32-.477.32-.793M3.198 4.867a.54.54 0 0 0-.167-.39.533.533 0 0 0-.39-.167.535.535 0 0 0-.39.166.54.54 0 0 0-.165.391.49.49 0 0 0 .166.375.56.56 0 0 0 .39.153.557.557 0 0 0 .389-.153.49.49 0 0 0 .167-.375M23.006 1H1v1.113h1.169c.89 0 1.748.402 2.573 1.21.826.806 1.239 1.664 1.239 2.572 0 .984-.303 1.902-.905 2.755-.603.852-1.368 1.28-2.296 1.28-.333 0-.653-.056-.96-.168a2.403 2.403 0 0 1-.82-.5c.427.872 1.113 1.54 2.059 2.003a6.747 6.747 0 0 0 3.005.696c.983 0 1.938-.19 2.865-.57a8.354 8.354 0 0 0 2.532-1.629v.25c0 1.966-.483 3.714-1.447 5.245-.964 1.53-2.365 2.296-4.201 2.296a6.246 6.246 0 0 1-2.17-.39 8.107 8.107 0 0 1-2.031-1.113 8.477 8.477 0 0 0 2.573 2.907c1.067.751 2.286 1.275 3.659 1.572.334.092.662.162.988.21.324.045.644.07.96.07 2.929 0 5.503-.915 7.719-2.742s4.049-4.214 5.495-7.164z"/>
    </g>
</svg>
