<svg xmlns="http://www.w3.org/2000/svg" width="32" height="32" viewBox="0 0 32 32">
    <defs>
        <clipPath id="a">
            <path d="M0 24h24V0H0z"/>
        </clipPath>
    </defs>
    <g clip-path="url(#a)" transform="matrix(1.33333 0 0 -1.33333 0 32)">
        <path fill="#00be3c" d="M18.063 11.313c-1.046-.41-4.143-3.908-5.412-8.536v10.276H11.35V2.777c-1.27 4.628-4.367 8.127-5.412 8.535-1.18.462-2.031 1.47-2.938 3.157 0-3.547.829-6.14 3.313-9.72C8.09 2.22 9.962 1.269 11.053 1h1.895c1.09.269 2.962 1.22 4.74 3.75C20.172 8.33 21 10.923 21 14.47c-.908-1.687-1.759-2.695-2.939-3.156"/>
        <path fill="red" d="M15.675 19.537c-.314 1.062-.69 1.96-1.128 2.69 0 0-.59-1.68-1.185-3.093-.15 1.553-1.007 3.407-1.368 3.866-.364-.436-1.19-2.19-1.378-3.753-.794 1.323-1.191 2.98-1.191 2.98-.448-.73-.827-1.628-1.14-2.69-.31-1.064-.463-2.082-.463-3.06 0-1.392.395-2.42 1.187-3.082.792-.662 1.679-1.02 2.664-1.07h.642c.964.05 1.843.408 2.64 1.07.796.662 1.198 1.69 1.198 3.083 0 .977-.161 1.995-.478 3.059"/>
    </g>
</svg>
