<svg xmlns="http://www.w3.org/2000/svg" width="32" height="32" viewBox="0 0 32 32">
    <defs>
        <clipPath id="a">
            <path d="M0 24h24V0H0z"/>
        </clipPath>
    </defs>
    <g clip-path="url(#a)" transform="matrix(1.33333 0 0 -1.33333 0 32)">
        <path fill="#00be3c" d="M22.346 17.444c-.44.94-1.131 1.713-2.068 2.32a2.882 2.882 0 0 1-.661.292 2.401 2.401 0 0 1-.662.088c-.43 0-.845-.097-1.246-.293a5.06 5.06 0 0 1-1.16-.793c-1.135-.938-2.152-2.196-3.052-3.77-.9-1.576-1.38-3.049-1.438-4.418h-.147c-.097 1.388-.591 2.871-1.482 4.446-.891 1.575-1.893 2.822-3.01 3.742-.39.333-.785.597-1.187.793a2.746 2.746 0 0 1-1.217.293c-.234 0-.455-.029-.661-.088a2.877 2.877 0 0 1-.66-.293c-.96-.606-1.65-1.38-2.07-2.319-.42-.939-.631-2.006-.631-3.199v-.322c0-.842.28-1.483.836-1.923.559-.44 1.297-.72 2.217-.837a71.181 71.181 0 0 0 3.932-.557 27.8 27.8 0 0 0 3.37-.783V3.855h1.3v5.983c.993.3 2.07.553 3.24.752 1.203.207 2.549.397 4.035.573.9.117 1.635.396 2.2.837.57.44.853 1.081.853 1.923l.029.322c0 1.193-.22 2.26-.66 3.2"/>
    </g>
</svg>
