<svg xmlns="http://www.w3.org/2000/svg" width="32" height="32" viewBox="0 0 32 32">
    <defs>
        <clipPath id="a">
            <path d="M0 24h24V0H0z"/>
        </clipPath>
    </defs>
    <g clip-path="url(#a)" transform="matrix(1.33333 0 0 -1.33333 0 32)">
        <path fill="red" d="M22.007 16.768c-.355-1.636-.912-3.315-1.666-5.035-.758-1.72-1.66-2.907-2.707-3.556.67-.61 1.31-1.313 1.92-2.11a24.657 24.657 0 0 0 1.666-2.486c-.776.042-1.574.1-2.391.173-.818.074-1.668.21-2.55.41a9.507 9.507 0 0 0-2.391.865c-.713.378-1.207.84-1.481 1.384a4.45 4.45 0 0 1-.031-.502v-.63c0-.252-.005-.55-.014-.897-.011-.346 0-.704.032-1.07.03-.368.093-.71.187-1.023.095-.315.215-.546.363-.692.083-.064.214-.126.393-.19.178-.062.362-.114.55-.157V1h-3.776v.252c.189.043.367.09.535.141.168.053.316.122.44.206.253.251.404.802.458 1.652.05.85.077 1.526.077 2.03v1.196c-.271-.566-.764-1.04-1.477-1.416a9.988 9.988 0 0 0-2.442-.882 19.367 19.367 0 0 0-2.595-.425 68.56 68.56 0 0 0-2.361-.173 21.86 21.86 0 0 0 1.668 2.503 16.143 16.143 0 0 0 1.92 2.093c-1.05.65-1.952 1.835-2.706 3.556-.756 1.72-1.302 3.4-1.637 5.035 1.09-.23 2.182-.55 3.274-.959a17.94 17.94 0 0 0 2.988-1.433c.148 1.26.594 2.707 1.338 4.344.745 1.637 1.549 3.063 2.408 4.28a36.576 36.576 0 0 0 2.094-4.627c.639-1.699.992-3.157 1.055-4.375.857.63 1.914 1.186 3.162 1.67 1.248.481 2.48.85 3.697 1.1"/>
    </g>
</svg>
