<svg xmlns="http://www.w3.org/2000/svg" width="32" height="32" viewBox="0 0 32 32">
    <defs>
        <clipPath id="a">
            <path d="M0 24h24V0H0z"/>
        </clipPath>
    </defs>
    <g clip-path="url(#a)" transform="matrix(1.33333 0 0 -1.33333 0 32)">
        <path fill="#f0f" d="M21.374 11.215a39.19 39.19 0 0 1-1.104.89c-.369.286-.819.625-1.351 1.014.532.409.982.756 1.351 1.042.368.287.736.584 1.104.89-.307.39-.629.71-.967.968-.338.256-.69.384-1.058.384-.675 0-1.479-.36-2.41-1.074-.93-.718-1.713-1.454-2.347-2.21a16.792 16.792 0 0 1 2.363-2.164c.921-.706 1.719-1.058 2.394-1.058.388 0 .752.127 1.089.383.337.256.649.568.936.935M15.973 6.52c0 .674-.348 1.462-1.043 2.362-.697.9-1.422 1.698-2.179 2.394a16.092 16.092 0 0 1-2.224-2.394c-.706-.92-1.059-1.707-1.059-2.362 0-.39.127-.752.384-1.09.255-.337.577-.65.966-.936.307.368.598.732.875 1.09.275.358.628.813 1.058 1.365.409-.552.751-1.007 1.028-1.365.276-.358.568-.722.874-1.09.369.287.681.604.937.95.255.349.383.707.383 1.076m.031 13.257c0 .369-.128.72-.384 1.059a4.72 4.72 0 0 1-.967.936 22.266 22.266 0 0 1-.874-1.06 48.058 48.058 0 0 1-1.028-1.395c-.41.552-.762 1.017-1.058 1.396-.298.378-.589.73-.875 1.059a4.127 4.127 0 0 1-.982-.936c-.245-.338-.368-.69-.368-1.06 0-.674.357-1.477 1.074-2.408.716-.931 1.452-1.724 2.209-2.38a19.516 19.516 0 0 1 2.179 2.395c.715.92 1.074 1.719 1.074 2.394m-5.125-6.66c-.655.757-1.447 1.493-2.378 2.21-.931.716-1.734 1.075-2.409 1.075-.368 0-.726-.128-1.074-.384a3.943 3.943 0 0 1-.92-.968c.347-.306.7-.603 1.058-.89.358-.286.823-.633 1.397-1.042a53.301 53.301 0 0 1-1.397-1.03 18.925 18.925 0 0 1-1.058-.874c.245-.367.547-.68.905-.935.357-.256.721-.383 1.089-.383.675 0 1.473.352 2.394 1.058a18.46 18.46 0 0 1 2.393 2.164m11.753-1.75c-.47-.736-.956-1.33-1.457-1.78-.502-.45-1.111-.676-1.826-.676-.86 0-1.806.384-2.838 1.152a15.711 15.711 0 0 0-2.687 2.502 1.124 1.124 0 0 0-.229-.277 8.388 8.388 0 0 0-.292-.247c.9-.756 1.734-1.651 2.501-2.684.767-1.033 1.151-1.98 1.151-2.838 0-.696-.226-1.3-.675-1.811-.451-.512-1.044-1.003-1.78-1.473-.348.348-.665.69-.951 1.029-.287.337-.552.678-.798 1.027a70.823 70.823 0 0 0-.981-1.166 40.15 40.15 0 0 0-.798-.89c-.758.47-1.361.96-1.811 1.473a2.649 2.649 0 0 0-.675 1.81c0 .84.388 1.785 1.166 2.839.777 1.053 1.616 1.95 2.516 2.684a1.032 1.032 0 0 0-.306.23 1.799 1.799 0 0 0-.216.294 17.844 17.844 0 0 0-2.73-2.487c-1.044-.777-1.985-1.166-2.824-1.166-.696 0-1.3.23-1.81.69-.512.46-.982 1.049-1.412 1.765.286.326.603.635.951.92.348.287.716.563 1.105.83-.491.387-.89.715-1.197.98-.307.268-.594.533-.859.8.43.756.9 1.36 1.412 1.81.51.45 1.114.675 1.81.675.839 0 1.785-.39 2.839-1.166a15.684 15.684 0 0 0 2.715-2.517c.062.123.133.23.216.323a.703.703 0 0 0 .306.199 17.161 17.161 0 0 0-2.531 2.747c-.768 1.033-1.151 1.969-1.151 2.808 0 .695.219 1.293.659 1.795.44.5 1.049.977 1.827 1.427a18.78 18.78 0 0 0 1.779-2.056c.368.47.68.864.935 1.182.256.317.528.608.814.874.757-.471 1.36-.951 1.811-1.442.449-.491.675-1.085.675-1.78 0-.86-.389-1.806-1.166-2.84a17.433 17.433 0 0 0-2.517-2.715c.102-.062.199-.133.292-.215a.999.999 0 0 0 .229-.307c.737.9 1.632 1.74 2.687 2.517 1.052.777 1.999 1.166 2.838 1.166.695 0 1.298-.225 1.81-.674.511-.451 1.003-1.055 1.473-1.811-.327-.307-.659-.61-.997-.905-.337-.298-.691-.59-1.059-.875.471-.37.855-.675 1.151-.921.296-.247.598-.522.905-.83M5.478 5.234a11.318 11.318 0 0 1-1.396-.186 3.905 3.905 0 0 1-1.059-.367.834.834 0 0 1-.491-.492 1.974 1.974 0 0 1-.153-.767l1.442.153c0-.204-.015-.42-.046-.643-.03-.226-.057-.502-.076-.828.265.039.516.11.751.214.236.102.404.236.507.398.143.327.25.695.322 1.105.072.41.138.879.199 1.413m1.013 1.043c0-.84-.041-1.587-.123-2.241-.081-.655-.256-1.228-.521-1.718a1.961 1.961 0 0 0-.614-.675 2.642 2.642 0 0 0-.767-.354 7.556 7.556 0 0 0-1.044-.183 14.017 14.017 0 0 1-.798-.108l.123 1.473-1.35-.153c0 .08-.005.205-.015.368a6.132 6.132 0 0 0-.016.307c0 .593.092 1.115.277 1.565.184.449.51.787.981 1.012.471.265 1.023.44 1.658.522.634.082 1.37.143 2.209.185"/>
    </g>
</svg>
