<svg xmlns="http://www.w3.org/2000/svg" width="32" height="32" viewBox="0 0 32 32">
    <defs>
        <clipPath id="a">
            <path d="M0 24h24V0H0z"/>
        </clipPath>
    </defs>
    <g clip-path="url(#a)" transform="matrix(1.33333 0 0 -1.33333 0 32)">
        <path fill="#00be3c" d="M15.206 5.957c-1.699 1.73-4.097 2.754-5.123 2.728v-.003V9.984c1.637-.029 4.075-1.172 6.044-3.107zM18.71 8.02c-.793 1.584-1.732 3.036-3.19 3.948-1.505.94-2.932 1.099-4.36.671-1.35-.406-2.01-1.14-2.699-2.216-.74.601-2.15 1.069-2.15 1.069l-.719-1.584s1.564-.171 2.483-.694c-.128-.686-.15-1.286.01-2.375C8.246 5.75 8.84 4.47 9.7 3.611c1.008-1.008 2.183-1.427 4.036-1.623 2.41-.258 5.595 1.149 8.56 3.203-1.634.382-2.77 1.201-3.585 2.829M20.407 22.23h.002l1.12.659c.281-.48.498-1 .638-1.554l-1.262-.317a4.62 4.62 0 0 1-.498 1.212m-7.193-2.289a2.12 2.12 0 0 1-.385-.035v.002l-.227 1.279a3.527 3.527 0 0 0 1.814-.161l-.449-1.218a2.184 2.184 0 0 1-.753.133m-3.197-.813a3.503 3.503 0 0 0 1.128 1.431l.776-1.044a2.187 2.187 0 0 1-.708-.897zm4.777.13l.945.893c.416-.44.72-.994.86-1.607l-1.268-.291a2.152 2.152 0 0 1-.537 1.005m6.072-.669c.115.408.18.84.18 1.287v.012l1.3.002v-.014a5.92 5.92 0 0 0-.233-1.647zM9.754 17.531l1.29.146c.027-.269.217-.576.531-.864l-.88-.958c-.439.406-.857.954-.94 1.676m4.845-.957c.318.27.58.574.695.829l1.176-.551c-.243-.515-.627-.92-1.024-1.266zm5.008-.064c.318.303.591.651.812 1.032l1.126-.653a6.069 6.069 0 0 0-1.038-1.317zm-6.958-1.836c-.019.009-.334.126-.754.35l.614 1.146c.345-.185.59-.275.62-.288.2-.084.423-.168.66-.247l-.404-1.235c-.274.091-.53.188-.736.274m4.828.673c.434.103.842.268 1.22.482l.645-1.128a5.903 5.903 0 0 0-1.562-.619zm-2.034-1.372a7.582 7.582 0 0 0-.703.088l.216 1.282a5.85 5.85 0 0 1 .59-.074c.305-.024.595-.049.801-.051h.002l-.016-1.301c-.286.004-.589.033-.89.056M5.422 16.557a3.619 3.619 0 0 0 1.6.131l.211-.039-.263-1.275-.152.032a2.31 2.31 0 0 1-1.001-.089zm2.752-1.497l.373 1.244c.52-.154 1.036-.327 1.456-.47l-.426-1.23c-.407.141-.907.308-1.403.456m-3.856-1.22l-1.234.404c.187.57.518 1.098.981 1.523l.88-.958a2.266 2.266 0 0 1-.625-.97zm-1.39-1.158l1.291.153c.045-.378.183-.746.422-1.079l-1.053-.76a3.59 3.59 0 0 0-.66 1.686"/>
    </g>
</svg>
