<svg xmlns="http://www.w3.org/2000/svg" width="32" height="32" viewBox="0 0 32 32">
    <defs>
        <clipPath id="a">
            <path d="M0 24h24V0H0z"/>
        </clipPath>
    </defs>
    <g clip-path="url(#a)" transform="matrix(1.33333 0 0 -1.33333 0 32)">
        <path fill="#595959" d="M18.849 22.297a2.392 2.392 0 0 1-1.691.688c-.692 0-1.37-.295-1.86-.81L12 18.485l-3.276 3.666c-.512.539-1.19.834-1.881.834a2.396 2.396 0 0 1-1.697-.694c-.46-.448-.724-1.101-.721-1.786V9.279c0-.397.146-.78.412-1.076l5.96-6.665a1.64 1.64 0 0 1 .746-.463v1.13L5.58 8.87a.608.608 0 0 0-.156.408v11.23c-.002.416.154.808.425 1.072.27.267.63.403.993.403.406 0 .823-.171 1.136-.5l3.515-3.931c.398-.422.506-.826.506-1.225 0 .399.109.803.507 1.225l3.515 3.932c.312.328.729.499 1.136.499.363 0 .723-.136.993-.403.27-.264.427-.656.425-1.072V9.279a.604.604 0 0 0-.157-.408l-5.962-6.666v-1.13c.282.084.54.238.743.46l5.964 6.669c.265.296.412.678.412 1.075v11.23a2.494 2.494 0 0 1-.727 1.788"/>
        <path fill="#00be3c" d="M18.15 21.58a1.41 1.41 0 0 1-.993.405c-.406 0-.823-.172-1.136-.5l-3.515-3.932c-.398-.422-.506-.826-.506-1.224V.999c.156 0 .31.033.457.077v1.13l5.962 6.666a.606.606 0 0 1 .156.408v11.23c.002.416-.154.807-.425 1.07"/>
        <path fill="#ffbe00" d="M11.493 17.553l-3.515 3.932c-.312.328-.729.5-1.135.5a1.41 1.41 0 0 1-.994-.404 1.489 1.489 0 0 1-.424-1.071V9.28c0-.153.054-.295.156-.41l5.962-6.665v-1.13c.148-.043.3-.075.457-.075v15.328c0 .399-.109.803-.507 1.225"/>
    </g>
</svg>
