<svg xmlns="http://www.w3.org/2000/svg" width="32" height="32" viewBox="0 0 32 32">
    <defs>
        <clipPath id="a">
            <path d="M0 24h24V0H0z"/>
        </clipPath>
    </defs>
    <g clip-path="url(#a)" transform="matrix(1.33333 0 0 -1.33333 0 32)">
        <path fill="red" d="M10.232 10.21l.1.274c-.01.003-.017.009-.044.015a9.94 9.94 0 0 1-2.047.385c-1.115.037-2.275.051-2.255.522-.005.028-.005.042-.005.042-.027.117.24.315.654.406.39.095.792.108.792.11l.027.485s-.554.083-1.102.251a3.243 3.243 0 0 0-.724.299c-.192.113-.249.221-.24.249.002.021.002.034.023.068.175.293.478.407.921.414.542.003 1.2-.199 1.72-.403.52-.202.907-.405.908-.405l.274.399c-1.489 1.269-3.083 1.833-4.37 1.833-1.372-.002-2.476-.694-2.478-1.923l.002-.088c-.703-.324-1.106-.945-1.104-1.575-.007-.699.507-1.362 1.447-1.584a1.547 1.547 0 0 1-.012-.192c.015-1.035.92-1.991 1.97-2.007h.01c.352 0 .717.122 1.038.386 2.212 1.82 4.388 1.845 4.495 1.845zM13.078 8.894a9.799 9.799 0 0 1-1.217-1.721c-.458-.91-.937-1.923-1.314-1.845a.486.486 0 0 0-.105.013c-.115.028-.166.118-.177.392-.003.469.273 1.143.271 1.145l-.43.227s-.264-.403-.605-.806c-.328-.407-.796-.773-.938-.745-.043.007-.05.002-.099.064a.723.723 0 0 0-.133.43c-.049 1.017 1.974 2.618 1.972 2.625l-.25.416C7.58 7.929 6.257 6.028 6.246 4.525c-.01-.76.382-1.434 1.121-1.735C7.371 1.76 8.083 1 8.95 1h.005c.501 0 1.02.258 1.434.789.287-.174.616-.251.942-.251.962.002 2 .675 2.012 1.777 0 .144-.017.297-.059.453a8.56 8.56 0 0 0-.29 2.195c0 1.645.495 2.655.487 2.66zM14.075 14.18c0 .396.086 2.4 1.676 4.492.24.318.35.669.35 1.008-.017 1.055-.986 1.938-2.015 1.95a1.543 1.543 0 0 1-.254-.02c-.249.908-.903 1.396-1.583 1.39-.653 0-1.284-.426-1.592-1.163l-.009-.001c-1.219 0-1.906-1.067-1.908-2.392.002-1.312.62-2.954 1.994-4.455l.392.29c-.008.002-.916 1.594-.905 2.674.003.403.11.683.374.85.041.028.056.032.077.032.028.008.141-.051.261-.238.368-.55.608-1.795.61-1.797h.005c.073-.227.123-.135.127-.173l.44-.222-.09.483c.002.112.016.448.084.77.082.418.264.677.387.653l.034-.006c.473.036.526-1.12.606-2.233.121-1.083.464-2.044.468-2.057l.473.108s-.002.014-.002.057M22.716 16.476c0 .868-.748 1.543-1.712 1.545-.096 0-.192-.007-.292-.021a1.739 1.739 0 0 1-1.56.9c-1.556-.016-3.443-1.624-4.315-4.412l.446-.191c0 .003.335.594.824 1.185.483.599 1.136 1.149 1.62 1.133a.713.713 0 0 0 .334-.083c.078-.05.069-.045.078-.115.019-.178-.297-.67-.645-1.038a8.595 8.595 0 0 0-.686-.675l.282-.396c.002.005.793.444 1.239.435.184-.01.23-.04.278-.136a.533.533 0 0 0 .027-.145c.06-.364-.857-.953-1.653-1.506-.877-.644-1.534-1.43-1.542-1.437l.322-.361c.004.002 1.397.918 3.703.918.34 0 .7-.022 1.08-.07.082-.008.155-.01.227-.01 1.118.006 1.737 1.027 1.739 1.964 0 .422-.122.85-.396 1.188.408.42.604.887.602 1.328M16.941 10.606l-.084-.479s.734-.212 1.462-.588c.744-.373 1.402-.93 1.38-1.425a.94.94 0 0 0-.023-.177c-.04-.098-.028-.089-.18-.106-.274-.013-.756.22-1.163.452-.399.227-.727.456-.727.454l-.32-.368c.012 0 .755-.848.724-1.228-.006-.092-.018-.123-.083-.173a.388.388 0 0 0-.223-.074c-.375-.036-1.094.685-1.76 1.27a9.715 9.715 0 0 1-1.753 1.164l-.276-.395c.003-.004 1.605-1.52 1.935-4.459.111-1.014.982-1.517 1.808-1.517h.024c.596 0 1.212.234 1.585.721.364-.217.726-.32 1.062-.32.89 0 1.53.727 1.53 1.603a2.05 2.05 0 0 1-.139.741c.375.357.568.81.565 1.276-.033 1.663-2.154 3.4-5.344 3.628"/>
        <path fill="red" d="M4.655 16.89c.605-.33 1.231-.321 1.557-.042 1.734-1.332 4.415-3.687 5.941-6.504.217-.4 1.347.256 1.008.749-1.933 2.813-4.88 4.848-6.775 5.959.184.442-.186 1.069-.866 1.439-.708.382-1.474.336-1.713-.106-.24-.445.14-1.113.848-1.495M4.622 19.287a.506.506 0 0 1 .682.2c.128.244.04.55-.205.682a.496.496 0 0 1-.675-.205.499.499 0 0 1 .198-.677M2.616 18.356a.5.5 0 1 1 0 0M2.785 17.038a.499.499 0 0 1 .201-.677.503.503 0 0 1 .68.2.504.504 0 0 1-.202.68.498.498 0 0 1-.679-.203"/>
    </g>
</svg>
