<svg xmlns="http://www.w3.org/2000/svg" width="32" height="32" viewBox="0 0 32 32">
    <defs>
        <clipPath id="a">
            <path d="M0 24h24V0H0z"/>
        </clipPath>
    </defs>
    <g clip-path="url(#a)" transform="matrix(1.33333 0 0 -1.33333 0 32)">
        <path fill="#ff8c00" d="M19.372 10.862c-.41 0-.79.06-1.125.153.052.325.085.656.085.995 0 .341-.033.673-.085.998.335.095.715.155 1.125.154.655.002 1.302-.288 1.771-.63a2.93 2.93 0 0 0 .565-.524c-.3-.377-1.328-1.186-2.336-1.146m-.1-3.897c-.492 0-1.02.102-1.465.36-.357.2-.654.44-.895.69a6.32 6.32 0 0 1 .997 1.732 4.165 4.165 0 0 0 1.046-.43c.893-.472 1.381-1.677 1.45-2.159a3.222 3.222 0 0 0-1.133-.193M16.9 3.757a2.318 2.318 0 0 0-.056-.163c-.485.071-1.688.56-2.159 1.45a4.15 4.15 0 0 0-.429 1.047c.63.243 1.215.578 1.73.996.248-.24.49-.538.69-.896.26-.445.36-.973.36-1.464 0-.373-.06-.725-.136-.97m-4.39-.9a3.044 3.044 0 0 0-.486-.533c-.014-.01-.026-.023-.039-.03-.379.298-1.185 1.325-1.146 2.335 0 .41.06.79.153 1.125.326-.052.657-.085.998-.085.34 0 .671.033.995.085.094-.335.156-.715.154-1.125.003-.657-.288-1.303-.63-1.772M9.291 5.044c-.47-.892-1.675-1.38-2.159-1.45a3.3 3.3 0 0 0-.193 1.134c0 .492.102 1.02.361 1.462l.002.003c.2.357.441.654.69.896a6.355 6.355 0 0 1 1.73-.997 4.223 4.223 0 0 0-.43-1.048M3.73 7.1c-.06.021-.115.04-.162.058.071.484.56 1.687 1.45 2.157l.002.002c.354.205.713.343 1.05.43.241-.63.575-1.215.994-1.73a3.93 3.93 0 0 0-.895-.692c-.448-.259-.976-.358-1.466-.358-.376 0-.727.06-.973.133M2.3 11.976l-.033.04c.302.378 1.331 1.185 2.338 1.145.41.001.791-.059 1.127-.153a6.429 6.429 0 0 1-.087-.998c0-.339.035-.67.086-.995a4.187 4.187 0 0 0-1.126-.153c-.657-.002-1.303.288-1.772.63-.232.167-.42.35-.534.484m2.404 5.083c.49 0 1.017-.098 1.464-.359h.002c.358-.2.657-.443.897-.692a6.383 6.383 0 0 1-.995-1.728 4.1 4.1 0 0 0-1.053.43c-.89.47-1.379 1.672-1.45 2.156.217.08.671.208 1.135.193m2.37 3.21c.02.062.04.116.058.163.482-.07 1.687-.559 2.16-1.452.206-.354.344-.714.43-1.052a6.315 6.315 0 0 1-1.729-.994 3.875 3.875 0 0 0-.693.897c-.259.447-.36.973-.36 1.464 0 .377.06.728.134.974m4.393.896a2.979 2.979 0 0 0 .526.567c.38-.302 1.184-1.332 1.146-2.336.001-.41-.06-.792-.154-1.128a6.281 6.281 0 0 1-.995.086 6.43 6.43 0 0 1-.998-.086 4.163 4.163 0 0 0-.153 1.128c-.003.655.286 1.301.628 1.77m3.218-2.187c.473.893 1.676 1.382 2.157 1.451.081-.217.207-.67.193-1.134 0-.49-.1-1.017-.359-1.465v.001a3.813 3.813 0 0 0-.693-.896 6.29 6.29 0 0 1-1.729.994 4.1 4.1 0 0 0 .431 1.05m5.555-2.053a2.2 2.2 0 0 0 .166-.058c-.068-.482-.557-1.686-1.448-2.162a4.12 4.12 0 0 0-1.05-.428 6.324 6.324 0 0 1-.997 1.731c.24.248.537.49.895.687.45.264.975.364 1.465.364.374 0 .726-.06.97-.134m2.38-4.093a4.65 4.65 0 0 1-2.28 1.421c.915.902 1.278 2.056 1.303 2.748-.009.147 0 .288-.119.511-.296.413-.553.444-.925.588a4.57 4.57 0 0 1-2.493.031c.108.398.157.794.157 1.163 0 .504-.077.957-.187 1.324-.144.376-.167.63-.585.926-.215.12-.37.114-.516.121-.694-.024-1.848-.39-2.75-1.31a4.709 4.709 0 0 1-.722 1.53c-.227.31-.466.565-.692.755-.252.183-.389.345-.824.382-.433-.037-.57-.199-.822-.379a4.658 4.658 0 0 1-1.42-2.283c-.904.918-2.058 1.284-2.749 1.308-.153-.007-.299-.005-.519-.125-.408-.292-.436-.548-.58-.923a4.675 4.675 0 0 1-.186-1.327c0-.369.05-.765.157-1.163a4.634 4.634 0 0 1-2.49-.031c-.376-.146-.63-.17-.928-.587-.122-.217-.11-.359-.118-.51.023-.693.39-1.85 1.31-2.754a4.7 4.7 0 0 1-1.528-.723 4.222 4.222 0 0 1-.757-.693c-.183-.253-.344-.389-.38-.823.036-.433.197-.57.378-.822a4.66 4.66 0 0 1 2.281-1.42c-.916-.9-1.28-2.057-1.304-2.749.007-.15.001-.293.122-.518.298-.41.547-.433.923-.578a4.66 4.66 0 0 1 2.491-.032 4.52 4.52 0 0 1-.156-1.164c0-.504.076-.958.186-1.326.144-.375.172-.628.583-.927.225-.107.358-.11.516-.116.69.023 1.85.385 2.752 1.307a4.681 4.681 0 0 1 .724-1.53c.225-.31.465-.565.693-.756.251-.18.387-.342.822-.38.433.038.57.2.821.38a4.624 4.624 0 0 1 1.421 2.281c.904-.916 2.056-1.28 2.748-1.304.15.008.287 0 .511.116.416.306.442.553.586.93.11.367.187.82.187 1.324 0 .368-.048.766-.156 1.166a4.54 4.54 0 0 1 1.166-.156c.502 0 .957.076 1.327.185.374.146.627.17.925.585.103.218.114.36.12.516-.026.693-.389 1.848-1.31 2.752a4.624 4.624 0 0 1 1.53.722c.311.227.563.465.754.692.183.251.344.387.382.821-.038.434-.199.572-.38.824"/>
    </g>
</svg>
