<svg xmlns="http://www.w3.org/2000/svg" width="32" height="32" viewBox="0 0 32 32">
    <defs>
        <clipPath id="a">
            <path d="M0 24h24V0H0z"/>
        </clipPath>
    </defs>
    <g clip-path="url(#a)" transform="matrix(1.33333 0 0 -1.33333 0 32)">
        <path fill="#00be3c" d="M21.665 10.293a2.013 2.013 0 0 1-4.023 0V7.281h-2.013v9.405a3.617 3.617 0 0 1-1.495 2.924l1.824 1.825-.707.707-2.048-2.049a3.528 3.528 0 0 1-.703.184V23h-1.001v-2.723a3.5 3.5 0 0 1-.702-.184l-2.049 2.049-.707-.707 1.826-1.824-.002-.001a3.62 3.62 0 0 1-1.496-2.924v-5.379H6.358v3.01h-.002a2.012 2.012 0 0 1-4.023 0V9.294c0-1.111.899-2.011 2.011-2.013h4.025V1h7.26v2.257h4.025c1.113.002 2.013.9 2.013 2.012v5.024z"/>
    </g>
</svg>
