<svg xmlns="http://www.w3.org/2000/svg" width="32" height="32" viewBox="0 0 32 32">
    <defs>
        <clipPath id="a">
            <path d="M0 24h24V0H0z"/>
        </clipPath>
    </defs>
    <g clip-path="url(#a)" transform="matrix(1.33333 0 0 -1.33333 0 32)">
        <path fill="#ff8c00" d="M5.166 1c0 1-.646 6.898-3.04 9.292 1.401-.313 2.643-1.728 3.495-3.638-.421 2.854-1.181 5.82-2.309 7.159-.973-.612-1.688-1.412-2.277-2.632.084 2.357 1.514 3.743 2.944 4.09 1.056-1.056 1.889-2.845 2.525-4.902.432 3.989 1.746 7.551 4.458 8.65.101.148.241.271.421.356-.171.074-.321.18-.407.347-.224.434.016 1.006.536 1.276.52.269 1.126.133 1.353-.301.225-.436-.017-1.009-.538-1.277-.003-.002-.007-.002-.011-.003.305-.114.541-.338.591-.641a.816.816 0 0 0-.201-.652c.428-.264.643-.734.474-1.138-.195-.451-.791-.627-1.33-.395-.497.215-.757.701-.642 1.131-2.171-.945-3.619-5.541-3.571-10.261V5.259c.046-.308.089-.613.128-.916.887 1.642 2.056 3.25 3.297 4.157 1.688-.562 3.875-2.312 5.063-5.125-1.375 1.25-3.688 3.349-4.938 3.563C9.979 5.563 8.669 3.618 8.125 1z"/>
        <path fill="#ff8c00" d="M13.65 21.837c-.563-.16-.916-.668-.785-1.14.13-.473.695-.73 1.261-.572.565.155.92.666.788 1.14-.133.47-.7.727-1.264.572"/>
        <path fill="#ff8c00" d="M16.014 22.107c-.585.021-1.08-.354-1.1-.842-.021-.49.438-.909 1.026-.934.584-.027 1.078.351 1.099.841.018.49-.441.908-1.025.935"/>
        <path fill="#ff8c00" d="M18.334 21.663c-.553.19-1.135-.028-1.295-.49-.162-.463.157-.996.709-1.189.553-.194 1.137.025 1.299.49.157.463-.159.994-.713 1.19"/>
        <path fill="#ff8c00" d="M20.428 20.376c-.424.403-1.043.448-1.381.097-.342-.354-.273-.971.149-1.378.419-.407 1.04-.45 1.382-.098.338.355.27.97-.15 1.379"/>
        <path fill="#ff8c00" d="M21.904 18.6c-.324.487-.918.666-1.326.397-.412-.27-.479-.887-.156-1.378.322-.487.918-.666 1.328-.397.405.273.476.888.154 1.379M13.923 17.835c.585-.03 1.082.342 1.107.832.022.49-.433.911-1.017.941-.584.028-1.081-.343-1.106-.833-.026-.49.43-.91 1.016-.94"/>
        <path fill="#ff8c00" d="M15.708 17.459c.547-.21 1.135-.008 1.311.45.169.46-.133 1-.679 1.21-.549.205-1.136.006-1.31-.451-.176-.46.128-1 .678-1.21"/>
        <path fill="#ff8c00" d="M17.315 16.557c.463-.358 1.086-.335 1.385.054.297.391.164.995-.3 1.354-.465.355-1.086.332-1.382-.055-.302-.389-.166-.996.297-1.353"/>
        <path fill="#ff8c00" d="M18.407 15.256c.27-.518.844-.756 1.281-.529.432.23.563.836.293 1.356-.275.517-.848.754-1.28.527-.436-.226-.565-.834-.294-1.354"/>
        <path fill="#ff8c00" d="M19.105 13.468c.152-.563.66-.92 1.135-.795.47.13.732.691.582 1.26-.154.563-.661.92-1.133.794-.477-.127-.734-.69-.584-1.259M13.54 15.648c.478-.337 1.097-.286 1.378.115.28.403.12 1.002-.358 1.338-.48.336-1.1.285-1.38-.115-.284-.4-.12-1 .36-1.338"/>
        <path fill="#ff8c00" d="M14.848 14.38c.352-.47.957-.612 1.35-.317.388.297.42.917.072 1.385-.358.466-.961.61-1.352.315-.392-.295-.422-.914-.07-1.383"/>
        <path fill="#ff8c00" d="M15.729 12.761c.2-.55.742-.864 1.199-.693.46.172.67.756.469 1.306-.203.547-.742.86-1.2.688-.46-.167-.671-.752-.468-1.3"/>
        <path fill="#ff8c00" d="M15.96 11.077c-.048-.58.312-1.089.802-1.128.488-.036.92.404.97.988.042.586-.316 1.091-.804 1.131-.488.04-.922-.405-.967-.99"/>
    </g>
</svg>
