<svg xmlns="http://www.w3.org/2000/svg" width="32" height="32" viewBox="0 0 32 32">
    <defs>
        <clipPath id="a">
            <path d="M0 24h24V0H0z"/>
        </clipPath>
    </defs>
    <g clip-path="url(#a)" transform="matrix(1.33333 0 0 -1.33333 0 32)">
        <path fill="red" d="M14.296 5.401c-.004-1.188-1.024-2.206-2.302-2.206-1.275 0-2.294 1.018-2.296 2.253l.346 4.382h3.902zM8.652 20.316a2.83 2.83 0 0 0 .385-1.412 2.89 2.89 0 0 0-2.891-2.89c-.926 0-1.74.441-2.268 1.12 1.144 1.516 2.814 2.6 4.774 3.182m11.47-3.184a2.864 2.864 0 0 0-2.266-1.119 2.89 2.89 0 0 0-2.892 2.891c0 .517.145.994.385 1.411 1.959-.58 3.63-1.665 4.773-3.183m-9.526-6.075a2.81 2.81 0 0 0-.34 1.322 2.891 2.891 0 0 0 5.783 0c0-.48-.13-.925-.34-1.322zm9.11 8.3c-2.02 1.733-4.761 2.676-7.705 2.676-2.948 0-5.686-.943-7.707-2.677-2.02-1.73-3.3-4.273-3.293-7.34 0-.094 0-.195.003-.304.013-1.018.82-1.884 1.859-1.882h5.95l-.342-4.333a3.515 3.515 0 0 1 3.523-3.53c1.943.003 3.525 1.554 3.527 3.481l-.345 4.382h5.965c1.036 0 1.84.865 1.855 1.89.002.101.004.198.004.294.004 3.067-1.273 5.612-3.294 7.342"/>
    </g>
</svg>
