<svg xmlns="http://www.w3.org/2000/svg" width="32" height="32" viewBox="0 0 32 32">
    <defs>
        <clipPath id="a">
            <path d="M0 24h24V0H0z"/>
        </clipPath>
    </defs>
    <g clip-path="url(#a)" transform="matrix(1.33333 0 0 -1.33333 0 32)">
        <path fill="#b45000" d="M19.017 4.765c-1.745-1.1-4.237-1.721-7.015-1.72-2.781-.001-5.273.62-7.017 1.72-1.74 1.106-2.736 2.608-2.754 4.57 2.36-1.844 6.008-2.86 9.772-2.86 3.77 0 7.413 1.019 9.768 2.87-.017-1.967-1.013-3.472-2.754-4.58m1.596 6.709a.685.685 0 1 0 0-1.37.685.685 0 0 0 0 1.37M13.93 17.51a.47.47 0 0 0 .656.12 40.608 40.608 0 0 1 2.504-1.578c1.439-.94 2.526-1.941 3.258-3.051a.47.47 0 0 0-.395-.731.47.47 0 0 0-.394.212c-.637.966-1.621 1.886-2.966 2.766a41.882 41.882 0 0 0-2.544 1.605h.003a.47.47 0 0 0-.122.657m3.949-.118c-.027.018-1.37.803-2.718 1.768-.674.482-1.345 1.007-1.832 1.482-.497.458-1.327 1.538-1.327 1.538H12s-.83-1.08-1.33-1.538c-1.468-1.44-4.52-3.23-4.521-3.234-3.527-2.277-5.161-4.965-5.15-8.04-.005-2.433 1.319-4.39 3.33-5.642 2.014-1.264 4.714-1.905 7.673-1.907 2.955.002 5.657.643 7.669 1.907C21.683 4.98 23.007 6.936 23 9.369c.012 3.075-1.622 5.763-5.121 8.024"/>
    </g>
</svg>
