<svg xmlns="http://www.w3.org/2000/svg" width="32" height="32" viewBox="0 0 32 32">
    <defs>
        <clipPath id="a">
            <path d="M0 24h24V0H0z"/>
        </clipPath>
    </defs>
    <g clip-path="url(#a)" transform="matrix(1.33333 0 0 -1.33333 0 32)">
        <path fill="#00be3c" d="M22.427 16.023s-.078-.59-1.551-1.049c-1.471-.455-2.296-.26-3.702-1.29-1.111-.814-2.851-1.013-3.805-1.284 2.39 1.661 2.338 1.851 2.469 2.135a5.578 5.578 0 0 1 1.563.988c1.579 1.412 1.704 2.224 1.7 4.182-.006 1.958.278 3.295.278 3.295s-.94-.688-2.098-1.979c-1.158-1.292-1.624-2.939-1.851-4.126-.117-.613-.454-1.324-.754-1.873 0 0-.062-.083-.23-.25.653 1.214-.106 3.208-.516 3.836-.526.811-.815 1.432-.815 1.432s-.037-.947-.41-2.802c-.368-1.854.1-3.512.782-3.273-.582-.438-1.424-1.015-2.638-1.735.299.806.394 1.976-.575 3.525-1.612 2.583-1.967 2.92-1.967 2.92s.19-1.644-.423-4.009c-.423-1.628.242-2.672.952-3.41.04-.042.076-.07.114-.107a10.076 10.076 0 0 1-2.932-2.458c-.082 1.95-.176 3.012-1.355 4.532C3.43 14.814 3.57 16.59 3.57 16.59s-1.827-1.63-2.081-4.084c-.253-2.454 1.966-3.74 2.946-4.044.495-.154.765-.453.912-.712-1.683-2.653-1.82-5.524-1.823-6.432 0-.195.006-.307.008-.318h1.296v.082s-.006.072-.006.236c-.001.408.038 1.156.26 2.203 0 0 .09.125.256.24.499.352 1.834 1.116 4.13 1.117.336 0 .697-.02 1.076-.058.763-.522 2.274-1.258 4.73-1.215 3.764.068 4.833 5.336 4.833 5.336-.667-.51-1.677-1.203-5.077-.648-2.758.45-3.923-.92-4.65-2.157-.315.026-.622.04-.911.04-1.713.001-2.993-.382-3.861-.78.655 1.68 1.848 3.475 4.028 4.652a56.36 56.36 0 0 1 2.973 1.745c1.85.172 6.78-.699 8.562.531 1.883 1.303 1.256 3.7 1.256 3.7"/>
    </g>
</svg>
