<svg xmlns="http://www.w3.org/2000/svg" width="32" height="32" viewBox="0 0 32 32">
    <defs>
        <clipPath id="a">
            <path d="M0 24h24V0H0z"/>
        </clipPath>
    </defs>
    <g clip-path="url(#a)" transform="matrix(1.33333 0 0 -1.33333 0 32)">
        <path fill="#00be3c" d="M16.581 21.7h2.395V23h-6.815v-1.3h2.544l.001-.03c0-3.93-2.254-7.331-5.54-8.987l.586-1.16a11.363 11.363 0 0 1 6.166 8.786 14.26 14.26 0 0 0 2.065-7.398c0-1.187-.144-2.338-.416-3.442l1.264-.31a15.68 15.68 0 0 1 .452 3.752 15.57 15.57 0 0 1-2.702 8.789"/>
        <path fill="red" d="M8.224 8.757a1.517 1.517 0 1 0 .002 3.034 1.517 1.517 0 0 0-.002-3.034m-1.8 5.402a4.773 4.773 0 1 1 0-9.547 4.773 4.773 0 0 1 0 9.547M19.367 5.107a1.503 1.503 0 1 0 0 3.008c.83 0 1.498-.677 1.498-1.506 0-.83-.668-1.502-1.498-1.502m-1.784 5.346a4.726 4.726 0 1 1 0-9.452 4.73 4.73 0 0 1 4.73 4.725 4.728 4.728 0 0 1-4.73 4.727"/>
    </g>
</svg>
