<svg xmlns="http://www.w3.org/2000/svg" width="32" height="32" viewBox="0 0 32 32">
    <defs>
        <clipPath id="a">
            <path d="M0 24h24V0H0z"/>
        </clipPath>
    </defs>
    <g clip-path="url(#a)" transform="matrix(1.33333 0 0 -1.33333 0 32)">
        <path fill="#b45000" d="M11.35 18.201c.035.031-.3.734-.884 1.4-.572.695-1.32 1.472-1.966 2.12l.92.917c.657-.66 1.428-1.456 2.05-2.212.612-.788 1.13-1.403 1.179-2.225l.002-2.358H11.35z"/>
        <path fill="#00be3c" d="M19.745 22.021c-.633.562-1.39.844-2.275.844-1.126 0-2.13-.371-3.014-1.114-.859-.724-1.535-1.64-2.033-2.742.09-.195.152-.398.186-.611a9.117 9.117 0 0 0 2.661 1.288 10.78 10.78 0 0 0 3.074.438c.442 0 .883-.026 1.327-.076.44-.051.892-.136 1.355-.256-.222.922-.648 1.666-1.28 2.23"/>
        <path fill="red" d="M18.561 6.704a.648.648 0 0 0-.905-.156.65.65 0 0 0-.157.907c1.38 1.97 1.703 3.216 1.71 4.488 0 .491-.053.995-.13 1.545h.001a.648.648 0 1 0 1.284.183c.082-.576.144-1.142.144-1.728.008-1.537-.463-3.15-1.947-5.239m-2.618-2.44a.78.78 0 1 0-.001 1.558.78.78 0 0 0 .001-1.558M21.1 15.542c-.753 1.045-1.963 1.567-3.63 1.567-.584 0-1.146-.06-1.688-.18a9.565 9.565 0 0 1-1.719-.574 16.072 16.072 0 0 0-.814-.286c-.22-.07-.43-.146-.632-.226h-1.205c-.362.1-1.06.341-2.095.723-1.035.381-1.934.573-2.697.573-1.808 0-3.069-.497-3.782-1.492-.714-.995-1.07-2.426-1.07-4.295 0-1.688.402-3.25 1.206-4.686.803-1.438 1.928-2.707 3.375-3.813a15.876 15.876 0 0 1 1.99-1.326c.28-.14.792-.24 1.536-.3.743-.06 1.456-.092 2.14-.092.682 0 1.391.031 2.124.091.733.061 1.231.161 1.492.301.322.182.65.383.98.604.331.22.678.461 1.04.722 1.426 1.106 2.546 2.375 3.36 3.813.814 1.435 1.22 2.998 1.22 4.686 0 1.748-.377 3.145-1.13 4.19"/>
    </g>
</svg>
