<svg xmlns="http://www.w3.org/2000/svg" width="32" height="32" viewBox="0 0 32 32">
    <defs>
        <clipPath id="a">
            <path d="M0 24h24V0H0z"/>
        </clipPath>
    </defs>
    <g clip-path="url(#a)" transform="matrix(1.33333 0 0 -1.33333 0 32)">
        <path fill="red" d="M16.116 11.937c-.356 0-.646.483-.646 1.078 0 .594.29 1.077.646 1.077.356 0 .646-.483.646-1.078 0-.594-.29-1.077-.646-1.077m-2.059-4.308c-.356 0-.646.482-.646 1.077 0 .594.29 1.078.646 1.078.357 0 .647-.485.647-1.079s-.29-1.076-.647-1.076m-2.056 4.308c-.357 0-.647.483-.647 1.078 0 .594.29 1.077.647 1.077.356 0 .645-.483.645-1.078 0-.594-.289-1.077-.645-1.077m0-8.617c-.358 0-.648.482-.648 1.077s.29 1.076.647 1.076c.356 0 .646-.48.646-1.076 0-.595-.29-1.078-.646-1.078M9.942 7.63c-.356 0-.646.481-.646 1.076 0 .594.29 1.078.646 1.078.357 0 .647-.484.647-1.078 0-.595-.29-1.077-.647-1.077m-2.058 4.308c-.357 0-.646.483-.646 1.078 0 .595.29 1.078.646 1.078.356 0 .646-.483.646-1.078 0-.595-.29-1.078-.646-1.078m9.387 4.29c-1.267.706-3.686 1.21-5.27 1.21-1.586 0-4.005-.504-5.273-1.21-1.7-.956-2.782-2.6-2.348-5.286C5.203 5.852 9.49 1 12 1s6.797 4.852 7.62 9.94c.434 2.685-.648 4.33-2.349 5.286"/>
        <path fill="#00be3c" d="M15.864 19.771c-.038-.017-.073-.039-.11-.057A4.538 4.538 0 0 1 15.557 23a4.534 4.534 0 0 1-3.406-2.283c-.058-.103-.102-.21-.15-.316-.05.106-.095.213-.153.316A4.53 4.53 0 0 1 8.442 23a4.537 4.537 0 0 1-.196-3.285c-.038.018-.072.04-.11.057a4.53 4.53 0 0 1-4.094-.23 4.516 4.516 0 0 1 2.588-3.18c.07-.031.142-.052.213-.08 1.293.676 3.615 1.154 5.157 1.154 1.542 0 3.864-.478 5.157-1.154.07.027.143.048.213.08a4.516 4.516 0 0 1 2.588 3.18 4.531 4.531 0 0 1-4.094.23"/>
    </g>
</svg>
