<svg xmlns="http://www.w3.org/2000/svg" width="32" height="32" viewBox="0 0 32 32">
    <defs>
        <clipPath id="a">
            <path d="M0 24h24V0H0z"/>
        </clipPath>
    </defs>
    <g clip-path="url(#a)" transform="matrix(1.33333 0 0 -1.33333 0 32)">
        <path fill="#00be3c" d="M21.72 17.766c.013-.19.03-.38.03-.576 0-5.383-4.367-9.75-9.75-9.75-5.385 0-9.75 4.367-9.75 9.75 0 .195.018.385.03.576H1.045c-.01-.192-.03-.38-.03-.576C1.016 11.125 5.934 6.207 12 6.207c6.068 0 10.985 4.918 10.985 10.983 0 .195-.02.384-.03.576z"/>
        <path fill="#e6e6e6" d="M20.491 17.19a8.492 8.492 0 0 0-16.982 0c0 .195.016.385.03.576h-1.26c-.012-.191-.029-.381-.029-.575 0-5.384 4.365-9.75 9.75-9.75 5.383 0 9.75 4.366 9.75 9.75 0 .194-.018.384-.03.575h-1.258c.012-.191.03-.381.03-.575"/>
        <path fill="red" d="M12 8.7a8.492 8.492 0 0 1 8.491 8.491c0 .194-.016.384-.029.575H3.538c-.013-.19-.029-.38-.029-.575A8.492 8.492 0 0 1 12 8.7"/>
        <path fill="#595959" d="M15.797 12.929c0-.413-.206-.747-.46-.747-.253 0-.46.334-.46.747s.207.747.46.747c.254 0 .46-.334.46-.747M14.13 14.77c0-.414-.206-.748-.46-.748-.255 0-.462.334-.462.748 0 .412.207.746.463.746.253 0 .459-.334.459-.746M12.46 12.929c0-.413-.205-.747-.458-.747-.256 0-.463.334-.463.747s.207.747.463.747c.253 0 .459-.334.459-.747M10.792 14.77c0-.414-.206-.748-.459-.748-.254 0-.461.334-.461.748 0 .412.207.746.461.746.253 0 .459-.334.459-.746M9.123 12.929c0-.413-.206-.747-.459-.747-.254 0-.461.334-.461.747s.207.747.461.747c.253 0 .459-.334.459-.747"/>
    </g>
</svg>
