<svg xmlns="http://www.w3.org/2000/svg" width="32" height="32" viewBox="0 0 32 32">
    <defs>
        <clipPath id="a">
            <path d="M0 24h24V0H0z"/>
        </clipPath>
    </defs>
    <g clip-path="url(#a)" transform="matrix(1.33333 0 0 -1.33333 0 32)">
        <path fill="#a000a0" d="M6.58 9.863c-.942-.18-1.454-.848-1.689-1.254a2.914 2.914 0 0 1-.393-1.434c0-.25.038-.486.11-.687a.65.65 0 1 0-1.226-.434 3.388 3.388 0 0 0-.185 1.121c.002.708.194 1.434.566 2.083.324.568 1.101 1.595 2.57 1.88a.652.652 0 0 0 .762-.515.652.652 0 0 0-.516-.76M4.726 3.89a.65.65 0 1 0 .001 1.3.65.65 0 0 0 0-1.3m14.492 16.672c-3.012 1.062-5.353-3.41-6.185-4.555 0 0-1.343-2.338-6.266-3.29-3.789-.73-5.695-4.852-4.59-7.959 1.098-3.106 4.94-4.58 8.578-3.29a7.943 7.943 0 0 1 2.812 1.706s3.365 2.701 5.695 8.333c.037.093.234.645.412 1.4.3 1.782 2.1 6.753-.456 7.655"/>
        <path fill="#595959" d="M20.389 20.39l1.22 1.925-1.08.685-1.291-2.034a4.68 4.68 0 0 1-1.31.219v-.002c-.012 0-.018-.001-.018.002-1.58-.01-2.518-1.07-2.898-1.602-.23-.342-1.32-1.371-1.916-1.694l-1.06-.6 1.09-.546a3.455 3.455 0 0 1 1.524-.346c.23 0 .409.017.539.035.05.007.092.015.125.023h.023l.066.016c.003-.391.097-1.211.173-1.852l.093-.805.767.269c.349.122.689.274.982.42a11.255 11.255 0 0 1 .794.438c.02.014.038.027.055.036 0 0 .002 0 .002.002.53-.936 1.387-1.485 2.008-1.681l.943-.247-.135.965a1.546 1.546 0 0 0-.011.228c0 .395.07 1.026.156 1.637v.002c.112.822.269 1.326.273 2.04.037 1.289-.576 2.057-1.114 2.468"/>
    </g>
</svg>
