<svg xmlns="http://www.w3.org/2000/svg" width="32" height="32" viewBox="0 0 32 32">
    <defs>
        <clipPath id="a">
            <path d="M0 24h24V0H0z"/>
        </clipPath>
    </defs>
    <g clip-path="url(#a)" transform="matrix(1.33333 0 0 -1.33333 0 32)">
        <path fill="#00be3c" d="M15.558 11.773c1.657.043 3.123-.57 3.786-.967-1.074 1.985-1.931 2.483-1.931 2.483s2.775 1.071 5.587.371c-2.74 2.421-4.765 2.246-4.765 2.246s1.172 1.736 1.685 4.012c-2.274-.515-4.01-1.687-4.01-1.687s.174 2.024-2.246 4.766c.7-2.813-.371-5.587-.371-5.587s-.5.858-2.485 1.932c.397-.663 1.012-2.128.968-3.785z"/>
        <path fill="#ff8c00" d="M12.602 4.642a9.353 9.353 0 0 0-1.026-.981v.796H9.28L9.279 2.44a4.237 4.237 0 0 0-1.048-.138c-.073 0-.142.013-.214.016v2.139H5.72V3.05a7.41 7.41 0 0 0-1.262.953v.454h-.454c-.331.356-.666.78-.954 1.264h1.408l-.001 2.293H2.317c-.004.073-.016.145-.016.219-.001.347.048.696.136 1.045h2.02v2.297H3.66c.286.349.614.693.987 1.029.36.328.719.614 1.075.869v-.637h2.296v1.782c.426.118.848.184 1.264.187l-.001-1.97h2.296v1.346a6.259 6.259 0 0 0 1.262-.898v-.447h.442c.349-.385.649-.81.897-1.261h-1.34V9.28h1.967a4.924 4.924 0 0 0-.188-1.264h-1.778V5.72h.633a11.912 11.912 0 0 0-.87-1.08m2.957 7.133c-.683 1.46-1.995 2.976-3.782 3.784a5.867 5.867 0 0 1-2.451.549h-.006c-1.706 0-3.584-.757-5.547-2.54C1.858 11.84.998 9.995 1 8.23c.004-1.887.956-3.576 2.305-4.926C4.653 1.957 6.34 1.004 8.23 1.002h.013c1.759 0 3.599.862 5.323 2.768 1.784 1.969 2.54 3.848 2.54 5.555 0 .888-.208 1.705-.548 2.449"/>
        <path fill="#ff8c00" d="M5.721 5.721h2.295v2.293H5.721zM5.721 9.277h2.295v2.297H5.721zM9.279 5.721h2.296v2.293H9.279zM9.28 9.277h2.295v2.297H9.28z"/>
    </g>
</svg>
