<svg xmlns="http://www.w3.org/2000/svg" width="32" height="32" viewBox="0 0 32 32">
    <defs>
        <clipPath id="a">
            <path d="M0 24h24V0H0z"/>
        </clipPath>
    </defs>
    <g clip-path="url(#a)" transform="matrix(1.33333 0 0 -1.33333 0 32)">
        <path fill="#00be3c" d="M21.373 15.654l1.413 1.415-5.821 5.823-1.415-1.415 2.203-2.203-1.944-1.944c.023-.169.049-.337.05-.51a3.798 3.798 0 0 0-.16-1.02c.331.093.671.16 1.021.16.17 0 .334-.028.499-.05l1.949 1.95z"/>
        <path fill="#a000a0" d="M9.482 17.878c.42-.623.65-1.357.653-2.121a3.776 3.776 0 0 0-.103-.838c.022-.022.037-.05.06-.072l.056-.056v-.002c.279.064.56.105.849.106a3.776 3.776 0 0 0 2.125-.657 2.8 2.8 0 0 1 1.738 2.582 2.79 2.79 0 0 1-4.768 1.973 2.8 2.8 0 0 1-.61-.915M18.695 14.144a2.793 2.793 0 0 1-4.56-.92 3.797 3.797 0 0 0 .654-2.121 3.844 3.844 0 0 0-.103-.838c.022-.022.036-.05.06-.071l.054-.056.002-.002c.277.064.56.106.85.107a3.794 3.794 0 0 0 2.122-.656 2.795 2.795 0 0 1 1.74 2.58 2.804 2.804 0 0 1-.819 1.977M4.606 1.9h.008c.735 0 1.427.287 1.96.813.122.125.231.262.328.404a3.786 3.786 0 0 0-.765 2.26c.002.343.065.676.155 1.001a3.872 3.872 0 0 0-.586-.117l-.004-.022H5.28c-.82 0-1.597.275-2.245.755a2.78 2.78 0 0 1-.409-4.281 2.786 2.786 0 0 1 1.941-.815l.04.002M3.306 8.054a2.788 2.788 0 0 1 1.928-.816c.03.003.05.003.062.002a2.776 2.776 0 0 1 1.956.816l.008.006c.261.267.464.574.602.909a3.767 3.767 0 0 0-.66 2.132c0 .286.04.565.103.84-.019.018-.032.04-.05.06-.024.024-.052.04-.076.063a3.72 3.72 0 0 0-.83-.101H6.34a3.796 3.796 0 0 0-2.117.648 2.82 2.82 0 0 1-.918-.614 2.772 2.772 0 0 1-.82-1.971 2.77 2.77 0 0 1 .82-1.974M11.854 6.45c0 .286.042.565.105.84-.019.018-.032.041-.05.06-.026.025-.057.042-.082.067-.135-.03-.267-.065-.404-.079l-.004-.026h-.424c-.76 0-1.484.236-2.103.651a2.82 2.82 0 0 1-.933-.618 2.771 2.771 0 0 1-.82-1.97 2.794 2.794 0 0 1 5.377-1.059 3.767 3.767 0 0 0-.661 2.133M12.97 13.076a2.802 2.802 0 0 1-1.973.82 2.785 2.785 0 0 1-1.975-.824A2.77 2.77 0 0 1 8.2 11.1a2.764 2.764 0 0 1 .82-1.97 2.794 2.794 0 0 1 1.92-.819c.03.004.05.004.066.003a2.775 2.775 0 0 1 1.963.817 2.78 2.78 0 0 1 .819 1.971 2.795 2.795 0 0 1-.82 1.974M6.343 12.964a2.793 2.793 0 0 1 1.975 4.767 2.784 2.784 0 0 1-3.949-.004 2.786 2.786 0 0 1-.002-3.945 2.801 2.801 0 0 1 1.976-.818M15.651 9.243a2.78 2.78 0 0 1-1.977-.823 2.781 2.781 0 0 1 0-3.945l.002-.002h-.002a2.83 2.83 0 0 1 1.977-.817 2.8 2.8 0 0 1 2.791 2.793 2.805 2.805 0 0 1-.816 1.975 2.802 2.802 0 0 1-1.975.82"/>
    </g>
</svg>
