<svg xmlns="http://www.w3.org/2000/svg" width="32" height="32" viewBox="0 0 32 32">
    <defs>
        <clipPath id="a">
            <path d="M0 24h24V0H0z"/>
        </clipPath>
    </defs>
    <g clip-path="url(#a)" transform="matrix(1.33333 0 0 -1.33333 0 32)">
        <path fill="#00be3c" d="M12.964 4l-1.433.75-1.431-.641-6.382.784L1 4.883l.845-1.074c.08-.106 2.033-2.547 5.215-2.547h.024c2.129.008 3.93 1.103 4.916 1.849.986-.746 2.787-1.841 4.916-1.849h.025c3.18 0 5.134 2.441 5.214 2.547L23 4.883l-3.115.012z"/>
        <path fill="#f0f" d="M12.273 6.326l.92-.92c1.255 1.238 2.06 2.908 2.045 5.432.004 2.52-.665 4.878-2.062 7.133l-1.105-.686c1.278-2.07 1.864-4.157 1.868-6.447-.014-2.282-.629-3.453-1.666-4.512m10.464 4.018c-.043-3.942-3.686-7.002-8.08-7.002h-.005c-.819 0-1.598.115-2.32.302l-.07.02a5.907 5.907 0 0 0-.899.426A6.992 6.992 0 0 0 1.26 10.347c0 3.778 2.52 6.064 4.95 7.748 2.464 1.672 4.875 3.024 5.164 4.334a.65.65 0 0 0 1.251 0c.288-1.31 2.698-2.662 5.164-4.334 2.431-1.684 4.948-3.97 4.948-7.75"/>
    </g>
</svg>
