<svg xmlns="http://www.w3.org/2000/svg" width="32" height="32" viewBox="0 0 32 32">
    <defs>
        <clipPath id="a">
            <path d="M0 24h24V0H0z"/>
        </clipPath>
    </defs>
    <g clip-path="url(#a)" transform="matrix(1.33333 0 0 -1.33333 0 32)">
        <path fill="#00be3c" d="M12.377 18.917c.502 1.146 1.195 2.089 2.079 2.833.884.743 1.888 1.115 3.014 1.115.885 0 1.642-.282 2.275-.844.633-.563 1.059-1.306 1.281-2.23-.462.12-.915.205-1.355.257-.443.05-.885.075-1.327.075-1.066 0-2.09-.146-3.073-.437a9.162 9.162 0 0 1-2.744-1.341z"/>
        <path fill="#b45000" d="M11.349 18.2c.035.033-.3.735-.883 1.4-.571.7-1.321 1.473-1.965 2.12l.92.918c.657-.659 1.428-1.455 2.049-2.21.61-.789 1.13-1.404 1.18-2.228v-2.357h-1.301z"/>
        <path fill="#00be3c" d="M18.561 6.704a.645.645 0 0 0-.904-.156.65.65 0 0 0-.157.907c1.381 1.97 1.704 3.217 1.71 4.49 0 .49-.052.994-.13 1.543a.65.65 0 1 0 1.287.185 12.18 12.18 0 0 0 .142-1.728c.01-1.539-.464-3.153-1.948-5.24m-2.618-2.44a.78.78 0 1 0-.001 1.557.78.78 0 0 0 .001-1.558M21.1 15.542c-.753 1.045-1.963 1.567-3.63 1.567-.584 0-1.146-.06-1.688-.18a9.565 9.565 0 0 1-1.719-.574 16.072 16.072 0 0 0-.814-.286c-.22-.07-.43-.146-.632-.226h-1.204c-.364.1-1.06.341-2.096.723-1.035.381-1.934.573-2.697.573-1.808 0-3.069-.497-3.782-1.492-.714-.995-1.07-2.426-1.07-4.295 0-1.688.402-3.25 1.206-4.686.803-1.438 1.928-2.707 3.375-3.813a15.876 15.876 0 0 1 1.99-1.326c.28-.14.792-.24 1.536-.3.743-.06 1.456-.092 2.14-.092.683 0 1.391.031 2.124.091.733.061 1.231.161 1.492.301.322.182.65.383.98.604.331.22.678.461 1.04.722 1.426 1.106 2.546 2.375 3.36 3.813.814 1.435 1.22 2.998 1.22 4.686 0 1.748-.377 3.145-1.13 4.19"/>
    </g>
</svg>
