<svg xmlns="http://www.w3.org/2000/svg" width="32" height="32" viewBox="0 0 32 32">
    <defs>
        <clipPath id="a">
            <path d="M0 24h24V0H0z"/>
        </clipPath>
    </defs>
    <g clip-path="url(#a)" transform="matrix(1.33333 0 0 -1.33333 0 32)">
        <path fill="#ff8c00" d="M15.87 16.09c0 .95-.362 1.69-1.085 2.218-.725.53-1.56.794-2.51.794-.67 0-1.317-.205-1.943-.616a6.846 6.846 0 0 1-1.65-1.52 6.173 6.173 0 0 1-.958-1.523 10.433 10.433 0 0 1-.597-1.78c.69.841 1.425 1.5 2.202 1.973a4.81 4.81 0 0 0 2.558.713c.69 0 1.36-.167 2.006-.502.648-.335 1.156-.783 1.523-1.343.151.344.264.636.34.875.076.236.114.474.114.711m1.294 0a2.44 2.44 0 0 0-.032-.389c-.02-.129-.043-.258-.065-.387-.129-.519-.378-1.129-.744-1.83a37.918 37.918 0 0 0-1.198-2.12 3.77 3.77 0 0 1-.34-.456c-.162-.236-.265-.42-.309-.549l-1.068.712c.13.216.313.52.551.907.236.388.41.658.517.81l-.032.032c.021.064.05.13.081.194a.373.373 0 0 1 .05.161.979.979 0 0 1-.21.6 4.24 4.24 0 0 1-.536.566 2.562 2.562 0 0 1-.907.535 3.194 3.194 0 0 1-1.035.177c-1.037 0-1.944-.366-2.72-1.1-.778-.735-1.556-1.696-2.333-2.882v-1.036h2.56c.344 0 .674-.055.987-.162.312-.109.598-.282.858-.519.236-.216.426-.49.566-.825.14-.336.211-.687.211-1.053 0-.756-.25-1.376-.745-1.862-.497-.485-1.132-.728-1.91-.728H6.965v1.295c.13 0 .334-.006.614-.015a16.334 16.334 0 0 1 1.587 0c.26.01.507.047.745.112.237.064.432.195.583.39.15.193.227.463.227.808 0 .432-.12.75-.357.956-.237.204-.56.307-.97.307H5.54v2.56c0 1.683.355 3.296 1.067 4.84.713 1.543 1.738 2.703 3.077 3.481.39.26.804.453 1.248.583a4.76 4.76 0 0 0 1.342.194c1.318 0 2.462-.389 3.433-1.166.973-.777 1.457-1.824 1.457-3.14m2.592.42c0-1.534-.293-3.006-.875-4.42a11.814 11.814 0 0 0-2.526-3.805c-.238-.216-.443-.546-.616-.988a43.35 43.35 0 0 0-.549-1.344c-.67-1.51-1.447-2.715-2.332-3.61C11.973 1.447 10.828 1 9.426 1c-1.059 0-1.987.205-2.786.615-.798.41-1.435 1.047-1.91 1.91-.13.26-.238.49-.324.697-.087.204-.14.383-.162.534l1.263.26c.043-.195.13-.422.26-.68a3.1 3.1 0 0 1 .453-.68 3.15 3.15 0 0 1 1.391-1.037c.563-.216 1.188-.323 1.88-.323.841 0 1.548.237 2.12.711.571.475 1.01 1 1.311 1.572.302.571.697 1.386 1.182 2.444.487 1.058.924 1.792 1.312 2.202 1.036 1.208 1.802 2.365 2.3 3.465.496 1.101.744 2.374.744 3.821 0 1.554-.48 2.807-1.44 3.757-.962.95-2.199 1.424-3.71 1.424-1.943 0-3.51-.296-4.71-.89-1.199-.594-2.25-1.69-3.158-3.287l-1.134.615c.972 1.75 2.17 2.995 3.595 3.74 1.426.745 3.184 1.117 5.28 1.117 1.877 0 3.442-.604 4.694-1.813 1.252-1.209 1.88-2.764 1.88-4.663"/>
    </g>
</svg>
