<svg xmlns="http://www.w3.org/2000/svg" width="32" height="32" viewBox="0 0 32 32">
    <defs>
        <clipPath id="a">
            <path d="M0 24h24V0H0z"/>
        </clipPath>
    </defs>
    <g clip-path="url(#a)" transform="matrix(1.33333 0 0 -1.33333 0 32)">
        <path fill="#f0f" d="M13.623 11.36a.939.939 0 1 1-.001 1.878.939.939 0 0 1 .001-1.878M5.968 12.299a.938.938 0 1 1 1.876 0 .938.938 0 0 1-1.876 0M9.505 9.34L8.67 8.8c.033-.042.523-.831 1.593-.85 1.067.019 1.557.81 1.593.854l-.835.534s-.054-.086-.19-.191a.892.892 0 0 0-.568-.204.907.907 0 0 0-.571.204c-.137.108-.18.199-.188.193"/>
        <path fill="#f0f" d="M17.173 9.625c.534.34.945.9 1.149 1.572.084.293.125.582.125.865.003.768-.32 1.53-.947 1.955.01.209.018.441.018.694-.004 1.286-.173 3.079-1.026 4.695-.841 1.617-2.46 3.025-5.067 3.317l-.722.084V18.11l.552-.084c2.96-.43 4.876-2.804 4.86-4.911v-.068l.57-.047c.236-.098.468-.422.472-.938 0-.162-.022-.33-.072-.499-.141-.485-.46-.801-.743-.928l-.035-.013a.813.813 0 0 0-.261-.051c-.027 0-.052 0-.075.005l-.467.067-.202-.414-.005-.006c-.025-.051-.056-.095-.082-.145-.123-.236-1.533-3.494-4.952-3.494-3.42 0-4.89 3.346-5.033 3.637l-.207.424-.464-.069c-.008-.001-.018 0-.027-.002l-.055-.004a.784.784 0 0 0-.257.053l-.048.019c-.283.129-.592.441-.73.921a1.755 1.755 0 0 0-.074.499c.004.528.244.856.492.946l.55.051v.059c-.016 2.107 1.9 4.478 4.862 4.908l.549.082v4.7l-.72-.086c-2.608-.291-4.226-1.698-5.07-3.316-.85-1.616-1.021-3.41-1.023-4.694 0-.254.008-.487.018-.696-.628-.426-.952-1.188-.947-1.954 0-.283.039-.575.127-.865.199-.672.612-1.235 1.147-1.574V4.57a14.423 14.423 0 0 1-2.1-2.964L2.393 1a13.149 13.149 0 0 0 2.032 2.831l.043.045c.405.426 1.596 1.624 2.854 2.23.896-.503 1.885-.805 2.942-.811 1.056.006 2.049.309 2.943.812.95-.42 1.6-1.052 2.163-1.562.033-.029.065-.055.098-.085.142-.132.288-.28.435-.429.089-.092.179-.177.27-.275l.06-.063A13.165 13.165 0 0 0 18.133 1l1.14.607a14.453 14.453 0 0 1-2.1 2.963z"/>
        <path fill="#f0f" d="M12.901 4.588s-.024-.037-.116-.131c-.286-.28-1.046-.896-2.522-.9-.988.002-1.648.278-2.069.543-.21.133-.359.263-.452.357-.094.094-.114.133-.119.13l-.809-.572c.044-.073 1.076-1.452 3.45-1.45h.004c2.366 0 3.401 1.378 3.443 1.45l-.808.573zM21.82 17.065a.49.49 0 0 0-.322-.115.496.496 0 0 0-.388.18.494.494 0 0 0 .058.712.51.51 0 0 0 .836-.385.515.515 0 0 0-.185-.392m-1.77.788a1.54 1.54 0 0 1-.358.176v.8l.514-.612a1.479 1.479 0 0 1-.157-.364m-.859-1.746a.51.51 0 0 0-.508.505.51.51 0 0 0 .51.51.511.511 0 0 0 .507-.508.513.513 0 0 0-.509-.507m3.463 2.316l-.002.003a1.52 1.52 0 0 1-1.154.537c-.179 0-.357-.036-.528-.1l-1.278 1.524v2.615l-1-.003V21.58l-.914 1.09-.768-.646 1.682-2.003.001-1.99a1.507 1.507 0 0 1-1.01-1.415v-.002c0-.832.675-1.505 1.508-1.505a1.5 1.5 0 0 1 1.45 1.113c.254-.177.555-.273.86-.273.338 0 .684.116.966.35.35.301.538.727.538 1.157 0 .34-.117.686-.35.967"/>
    </g>
</svg>
