<svg xmlns="http://www.w3.org/2000/svg" width="32" height="32" viewBox="0 0 32 32">
    <defs>
        <clipPath id="a">
            <path d="M0 24h24V0H0z"/>
        </clipPath>
    </defs>
    <path fill="red" d="M18.77 9.023l-5.546 4.13v2.8l5.547-4.13zM18.77 22.95v-2.727l-3.663 2.728z"/>
    <g clip-path="url(#a)" transform="matrix(1.33333 0 0 -1.33333 0 32)">
        <path fill="#00f" d="M14.078 13.032l-4.16-3.097v6.3l2.365 1.761h1.795zm-4.16-6.245v1.048l4.16 3.097V6.787zM12 21.7a3.06 3.06 0 0 0 2.983-2.404H9.017A3.059 3.059 0 0 0 12 21.7m4.354-3.704v.65a4.354 4.354 0 0 1-8.706 0v-.65h.971V6.787h-.882V1h8.528v5.787h-.888v11.21z"/>
    </g>
</svg>
