<svg xmlns="http://www.w3.org/2000/svg" width="32" height="32" viewBox="0 0 32 32">
    <defs>
        <clipPath id="a">
            <path d="M0 24h24V0H0z"/>
        </clipPath>
    </defs>
    <g clip-path="url(#a)" transform="matrix(1.33333 0 0 -1.33333 0 32)">
        <path fill="#595959" d="M18.092 10.362l-3.938.456v1.25c1.973.867 3.356 2.887 3.356 5.24C17.51 20.451 15.043 23 12 23c-3.043 0-5.51-2.549-5.51-5.692 0-2.354 1.384-4.374 3.356-5.24v-1.25l-3.94-.456c-1.085-.099-1.975-.966-1.975-2.058V1h16.138v7.304c0 1.092-.89 1.96-1.977 2.058"/>
    </g>
</svg>
