<svg xmlns="http://www.w3.org/2000/svg" width="32" height="32" viewBox="0 0 32 32">
    <defs>
        <clipPath id="a">
            <path d="M0 24h24V0H0z"/>
        </clipPath>
    </defs>
    <g clip-path="url(#a)" transform="matrix(1.33333 0 0 -1.33333 0 32)">
        <path fill="#00f" d="M21.63 10.823c-.164-1.046-.893-1.678-1.335-1.639a.964.964 0 0 0-.113.007.865.865 0 0 0-.136.047l-.59.237-.25-.583A7.85 7.85 0 0 0 12 4.15a7.85 7.85 0 0 0-7.201 4.728l-.241.553-.568-.199c-.103-.039-.113-.039-.113-.04a.901.901 0 0 0-.107-.008c-.445-.037-1.171.591-1.334 1.641a2.678 2.678 0 0 0-.035.44c0 .937.482 1.53.889 1.567.02.002.042.006.076.006a.993.993 0 0 0 .155-.016l.64-.113c.633-.102 1.74.566 2.259 1.085.58.58 1.464 1.878 1.824 2.71-.194-.96.196-2.52.749-3.716 2.545.375 5.529 1.754 6.57 2.795.566-.567 1.889-1.669 2.732-2.179.74-.449 1.12-.743 1.545-.737l.002-.014.127.03c.055.008.112.022.17.04l.38.09a.784.784 0 0 0 .187.025.464.464 0 0 0 .07-.006h.002c.402-.035.885-.63.887-1.569 0-.144-.012-.292-.034-.44m-.645 3.291v.001c-.031.005-.063.01-.094.013-.96 4.025-4.573 7.02-8.892 7.022-4.324-.002-7.937-2.999-8.894-7.03l-.04-.007c-1.287-.239-1.968-1.524-1.966-2.848 0-.21.017-.427.053-.652C1.4 9.147 2.389 7.921 3.77 7.884l.06.001a9.146 9.146 0 0 1 16.342.002l.123-.003c1.38.04 2.367 1.266 2.618 2.731.037.227.05.443.05.648 0 1.326-.675 2.61-1.977 2.851"/>
        <path fill="#00f" d="M8.195 11.89a1.08 1.08 0 0 1-1.08-1.083 1.082 1.082 0 1 1 2.164 0c0 .6-.484 1.083-1.084 1.083M15.805 11.89a1.083 1.083 0 1 1-.002-2.168 1.083 1.083 0 0 1 .002 2.168M9.243 7.487l1.012.814c.41-.513 1.06-.937 1.745-.93.685-.007 1.33.415 1.744.93l1.012-.814C14.165 6.753 13.21 6.077 12 6.07c-1.212.008-2.17.687-2.757 1.417"/>
    </g>
</svg>
