<svg xmlns="http://www.w3.org/2000/svg" width="32" height="32" viewBox="0 0 32 32">
    <defs>
        <clipPath id="a">
            <path d="M0 24h24V0H0z"/>
        </clipPath>
    </defs>
    <g clip-path="url(#a)" transform="matrix(1.33333 0 0 -1.33333 0 32)">
        <path fill="red" d="M8.208 16.044c2.522-2.277 7.17-3.98 11.193-4.008a9.77 9.77 0 0 0 .054-1.006c-.004-4.891-3.413-8.724-7.457-8.732-3.988.008-7.357 3.748-7.445 8.554.903.72 2.548 2.334 3.655 5.192m13.89-4.052c0 5.8-4.245 11.008-10.096 11.008-5.853 0-10.1-5.207-10.1-11.008 0-5.47-.808-10.606 9.108-10.922.324-.043 1.654-.043 1.978 0 9.919.314 9.11 5.453 9.11 10.922"/>
        <path fill="red" d="M8.928 10.547a1.066 1.066 0 1 1-2.132 0 1.066 1.066 0 0 1 2.132 0M16.138 9.48a1.066 1.066 0 1 1 .002 2.132 1.066 1.066 0 0 1-.002-2.133M14.685 6.004l-.946.885v.002c0-.002-.173-.19-.5-.395-.327-.208-.77-.4-1.24-.398-.467-.002-.909.19-1.238.398-.325.206-.492.4-.5.395l-.946-.887c.052-.037 1.056-1.177 2.683-1.203 1.63.026 2.634 1.166 2.688 1.203"/>
    </g>
</svg>
