<svg xmlns="http://www.w3.org/2000/svg" width="32" height="32" viewBox="0 0 32 32">
    <defs>
        <clipPath id="a">
            <path d="M0 24h24V0H0z"/>
        </clipPath>
    </defs>
    <g clip-path="url(#a)" transform="matrix(1.33333 0 0 -1.33333 0 32)">
        <path fill="#003c96" d="M10.879 11.52a.684.684 0 1 1-.001-1.37.684.684 0 0 1 0 1.37M17.135 11.52a.684.684 0 1 1-.003-1.368.684.684 0 0 1 .003 1.368M11.706 6.373v.001l-.002.001zM14.006 6.957c-.582 0-1.117.18-1.563.488l-.736-1.071a4.04 4.04 0 0 1 4.613.012l-.74 1.065a2.77 2.77 0 0 0-1.574-.494"/>
        <path fill="#003c96" d="M19.878 9.371l-.017.002-.481.015-.152-.457c-.954-2.815-3.001-4.636-5.222-4.623-2.22-.013-4.27 1.808-5.22 4.623l-.155.457-.14-.005.183.82c.396.311.75.613 1.016.902.245.275.75.762.979 1.465a8.058 8.058 0 0 1 3.338-.732c1.888 0 3.612.651 5 1.721h.509v-1.097l.564-.074a1.51 1.51 0 0 0 1.313-1.502 1.536 1.536 0 0 0-1.515-1.515M5.13 12.998c.203.225 3.454 3.856 3.52 3.926.033.035.065.07.096.101l.142.147.108.108c.028.028.059.06.084.082.053.051.1.093.133.12a.43.43 0 0 0 .19.051c.07-.004.126-.01.249-.12.175-.168.194-.283.196-.355a.186.186 0 0 0-.021-.09c-.173-.272-.693-1.093-1.096-1.672l-.917-1.379-.517-.776.53-.469c.075.057.17.117.27.178l.072.042c.104.06.214.12.328.174.313.15.63.26.819.258.062 0 .115-.009.143-.037.186-.182-.281-.87-.71-1.285-.274-.3-.688-.658-1.211-1.04l-.028-.022H4.468zm8.877 5.861a1.923 1.923 0 0 0 0-3.847 1.923 1.923 0 0 0 0 3.847m6.808-5.317v.948c.946.958 2.185 2.506 2.185 3.574 0 1.44-8.386 2.923-8.993 2.923-.608 0-8.993-1.484-8.993-2.923 0-.625.426-1.41.966-2.147l-2.003-2.252-.874-2.726h-.49L1.016 3.787l1.27-.284L3.654 9.64h3.564L5.912 3.787l1.269-.284v.002l.857 3.845c1.217-2.547 3.379-4.333 5.968-4.343 2.843.011 5.182 2.15 6.308 5.101a2.823 2.823 0 0 1 2.377 2.778 2.806 2.806 0 0 1-1.876 2.656"/>
    </g>
</svg>
