<svg xmlns="http://www.w3.org/2000/svg" width="32" height="32" viewBox="0 0 32 32">
    <defs>
        <clipPath id="a">
            <path d="M0 24h24V0H0z"/>
        </clipPath>
    </defs>
    <path fill="#f0f" d="M17.293 28.797l.001-.003h-.001z"/>
    <g clip-path="url(#a)" transform="matrix(1.33333 0 0 -1.33333 0 32)">
        <path fill="#f0f" d="M7.66 8.74l.892.451a.628.628 0 0 1 .562-.34c.25 0 .461.142.562.338l.891-.449a1.627 1.627 0 0 0-1.453-.888c-.633 0-1.188.358-1.454.888M10.719 5.736l.893.451a.627.627 0 0 1 .56-.339c.252 0 .463.143.564.34v-.003l.89-.449a1.625 1.625 0 0 0-1.453-.886c-.633 0-1.186.357-1.454.886M16.061 8.831a.892.892 0 1 1-1.783 0 .892.892 0 0 1 1.783 0"/>
        <path fill="#f0f" d="M16.561 21.626h3.228l1.662-1.265v-.002a.516.516 0 0 0-.514-.879l-.021.011zm-.624-5.534l-1.32.818.685 3.884 2.283-1.118zM11.998 3.503c-2.566-.032-4.9 2.58-5.27 6.328 2.262.148 5.714.913 8.341 2.486a16.566 16.566 0 0 1 2.157-2.87c-.492-3.564-2.746-5.967-5.228-5.944M5.38 18.324a.515.515 0 0 0-.963.252l.002.018-.002.001.334 3.031H7.35l-1.967-3.302zm3.242 2.896l.76-4.31-1.32-.818-1.106 2.332 1.51 2.535zm11.78-2.925l.04-.015a1.819 1.819 0 0 1 2.507 1.677 1.81 1.81 0 0 1-.711 1.438l-2.01 1.53v.002h-5.872l-.485-2.761a8.346 8.346 0 0 1-1.872.203 8.337 8.337 0 0 1-1.87-.203l-.488 2.762H3.585l.001-.004-.462-4.188-.005-.088v-.072c0-1.001.814-1.815 1.815-1.815.081 0 .158.021.237.032-.775-1.185-1.296-2.665-1.404-4.465-.054-.522-.066-.474-.273-.786-.385-.523-.605-1.103-.605-1.688a2.365 2.365 0 0 1 .651-1.615c.056-.054.112-.201.11-.335a.459.459 0 0 0-.022-.143c-.708-.54-1.078-1.405-1.08-2.301a3.343 3.343 0 0 1 1.004-2.37c.997-.979 2.481-1.307 3.978-1.314 1.138 0 2.297.209 3.31.568.375-.084.76-.138 1.158-.142.402.003.792.053 1.17.139a10.16 10.16 0 0 1 3.298-.565c1.493.009 2.977.339 3.978 1.314a3.346 3.346 0 0 1 1.003 2.37c-.002.896-.372 1.764-1.082 2.305a.371.371 0 0 0-.018.139c-.005.139.053.284.106.329.418.45.654 1.027.652 1.623 0 .583-.218 1.165-.603 1.686-.204.312-.218.264-.27.786-.14 2.306-.952 4.09-2.118 5.39l.637 1.386z"/>
    </g>
</svg>
