<svg xmlns="http://www.w3.org/2000/svg" width="32" height="32" viewBox="0 0 32 32">
    <defs>
        <clipPath id="a">
            <path d="M0 24h24V0H0z"/>
        </clipPath>
    </defs>
    <g clip-path="url(#a)" transform="matrix(1.33333 0 0 -1.33333 0 32)">
        <path fill="#f0f" d="M16.71 8.386l-.816.525s-.053-.083-.185-.187a.884.884 0 0 0-.558-.202.878.878 0 0 0-.556.202c-.135.104-.178.193-.186.187l-.815-.525c.032-.042.511-.816 1.557-.835 1.046.019 1.527.793 1.559.835M13.558 5.13l-.817.526s-.051-.084-.184-.187A.88.88 0 0 0 12 5.267a.884.884 0 0 0-.558.202c-.135.105-.176.193-.185.189l-.816-.53c.032-.04.513-.813 1.559-.832 1.044.019 1.526.793 1.558.835M9.406 8.723a.881.881 0 0 0-1.116 0c-.132.104-.176.193-.185.188l-.815-.525h-.003c.035-.04.514-.816 1.56-.835 1.045.019 1.527.793 1.56.835l-.815.526a.864.864 0 0 0-.186-.19"/>
        <path fill="#f0f" d="M18.854 17.781c.189-.266.275-.559.275-.8-.003-.245-.075-.429-.212-.567-.132-.132-.316-.206-.56-.207-.243 0-.538.087-.804.274l-.362.253-.361-.253a1.443 1.443 0 0 0-.804-.274c-.244.001-.427.077-.561.211-.135.134-.212.318-.214.562 0 .244.088.537.276.801l.255.362-.255.363a1.45 1.45 0 0 0-.276.806c.002.244.077.426.21.56l.004.002c.136.136.317.21.56.211.243 0 .536-.085.803-.275l.36-.256.365.256c.268.187.56.275.804.275.245-.002.427-.075.563-.21.135-.137.207-.319.209-.563 0-.244-.087-.537-.275-.806l-.252-.363zm-5.191 1.653c.189-.264.274-.557.274-.8-.002-.244-.074-.427-.21-.567-.133-.132-.317-.206-.561-.208-.244 0-.54.088-.804.276l-.363.253-.362-.253a1.434 1.434 0 0 0-.805-.276c-.243.002-.426.078-.56.211-.136.137-.212.32-.214.563 0 .246.088.54.275.801l.256.363-.256.363a1.455 1.455 0 0 0-.275.806c.002.245.076.426.211.56l.003.001c.136.136.317.21.56.211.244 0 .536-.085.803-.275l.362-.254.365.254c.267.187.56.275.804.275.244-.002.426-.075.563-.21.134-.136.206-.317.208-.562 0-.244-.087-.537-.274-.806l-.253-.363zm-5.194-1.653c.19-.266.276-.558.276-.8-.002-.245-.077-.429-.211-.567-.135-.13-.318-.205-.563-.207a1.44 1.44 0 0 0-.804.275l-.362.252-.361-.252a1.448 1.448 0 0 0-.805-.275c-.244.002-.428.078-.56.211-.135.134-.211.318-.213.562 0 .245.088.538.275.801l.254.363-.254.363a1.453 1.453 0 0 0-.275.805c.002.245.076.426.21.561l.003.002c.134.135.316.21.56.211.243 0 .535-.086.803-.276l.36-.256.365.256c.267.188.56.276.804.276.245-.002.426-.076.564-.21.133-.138.208-.319.21-.564 0-.243-.088-.537-.276-.805l-.254-.363zm13.77-5.912c-.186 1.726-.444 3.276-.83 4.475-.295.87-.627 1.623-1.203 2.07.11.291.186.592.187.896a2.037 2.037 0 0 1-.58 1.455 2.04 2.04 0 0 1-1.456.581 2.616 2.616 0 0 1-1.166-.286 2.597 2.597 0 0 1-1.166.286 2.127 2.127 0 0 1-.842-.174 1.993 1.993 0 0 1-.56 1.244l-.002.002a2.04 2.04 0 0 1-1.456.582c-.397 0-.795-.1-1.166-.287a2.643 2.643 0 0 1-1.165.287 2.024 2.024 0 0 1-1.457-.584 2.001 2.001 0 0 1-.562-1.242 2.147 2.147 0 0 1-.842.173 2.625 2.625 0 0 1-1.166-.288 2.58 2.58 0 0 1-1.166.286 2.029 2.029 0 0 1-1.457-.58 2.044 2.044 0 0 1-.578-1.454c0-.305.074-.606.186-.899-.575-.445-.907-1.199-1.203-2.069C1.454 12.777 1.342 5.885 1.334 1h1.262c0 3.23.063 7.37.422 10.734.178 1.682.433 3.17.773 4.223.01.033.024.054.034.088a1.9 1.9 0 0 1 .36-.522c.155-.156.335-.269.523-.36a8.079 8.079 0 0 1-.625-3.098c.008-1.026.196-1.954.55-2.704-.357-.425-.544-.992-.541-1.565 0-.274.039-.56.125-.843.318-1.062 1.164-1.866 2.213-1.889.799-1.253 1.884-2.26 3.148-2.849V1h1.262v1.633a.633.633 0 0 1-.405.588c-1.24.472-2.36 1.492-3.128 2.834a.63.63 0 0 1-.711.298l-.027-.008a.628.628 0 0 0-.135-.018c-.312-.018-.821.334-1.006.983-.052.17-.073.332-.073.486 0 .198.042.36.099.5a.617.617 0 0 1 .514.022.63.63 0 0 1 .336.661s.268 3.501 2.306 5.155c.08-.066 2.198-1.767 4.479-3.056 2.41-1.363 4.988-2.317 4.99-2.318.293-.077.557-.417.56-.96 0-.158-.02-.324-.068-.487-.19-.65-.7-1.004-1.008-.986a.546.546 0 0 0-.131.017l-.03.01a.63.63 0 0 1-.711-.299c-.792-1.384-1.951-2.423-3.234-2.878a.63.63 0 0 1-.42-.595V1H14.3v1.154c1.319.583 2.444 1.618 3.268 2.91 1.05.023 1.893.827 2.215 1.89.082.285.122.57.122.845.003.652-.236 1.296-.697 1.73.457.775.692 1.8.7 2.926 0 .888-.166 1.837-.534 2.75.156.085.307.184.439.316.155.156.27.338.36.526.012-.034.025-.055.036-.09C21.247 12.767 21.41 5.83 21.403 1l1.264.001c-.002 3.246-.062 7.413-.428 10.868"/>
    </g>
</svg>
