<svg xmlns="http://www.w3.org/2000/svg" width="32" height="32" viewBox="0 0 32 32">
    <defs>
        <clipPath id="a">
            <path d="M0 24h24V0H0z"/>
        </clipPath>
    </defs>
    <g clip-path="url(#a)" transform="matrix(1.33333 0 0 -1.33333 0 32)">
        <path fill="#ff8c00" d="M21.154 10.696c-.219-.935-.926-1.485-1.439-1.466l-.063.002-.46.017-.163-.43c-1.129-2.964-3.803-4.68-7.027-4.69-3.227.01-5.899 1.726-7.028 4.69l-.158.413h-.53c-.519-.02-1.222.528-1.439 1.466a2.415 2.415 0 0 0-.064.558c.004.822.424 1.384.88 1.474.048.012.104.02.167.022l.6-.067.083.621c.57 4.128 3.645 6.54 7.49 6.563 3.842-.023 6.917-2.438 7.487-6.563l.113-.845s.172.263.762.263c.56 0 .848-.662.852-1.47 0-.18-.02-.369-.063-.558m-.469 3.27c-.802 4.45-4.43 7.206-8.683 7.186-4.252.02-7.88-2.736-8.684-7.187-1.178-.313-1.822-1.49-1.818-2.709 0-.276.03-.562.1-.854.298-1.253 1.195-2.234 2.33-2.42 1.394-3.24 4.521-5.144 8.072-5.135h.027c3.537 0 6.654 1.903 8.045 5.134 1.135.19 2.027 1.172 2.328 2.423.066.292.098.576.098.85.004 1.216-.635 2.39-1.815 2.711"/>
        <path fill="#ff8c00" d="M7.889 12.152c-.598 0-1.08-.482-1.08-1.082a1.082 1.082 0 1 1 1.08 1.082M16.115 12.152a1.082 1.082 0 1 1 1.082-1.082c0 .6-.484 1.082-1.082 1.082M13.781 7.976s-.18-.191-.512-.403c-.336-.212-.789-.408-1.267-.406-.479-.002-.932.194-1.268.406-.332.212-.502.409-.51.403L9.291 7.1c.051-.036 1.068-1.188 2.711-1.214 1.644.024 2.66 1.178 2.715 1.214l-.936.874zM11.473 13.074l.05 1.28-.001.001c0-.002-.262.008-.641.122-.381.113-.824.327-1.135.691-.476.531-.566 1.344-.562 1.706 0 .116.01.153.006.153l-1.272.156a2.34 2.34 0 0 1-.015-.309c.004-.509.074-1.61.873-2.548 1.095-1.223 2.633-1.236 2.697-1.252M15.185 13.072l.051 1.282h-.002s-.26.008-.64.122c-.38.115-.825.328-1.138.692-.472.531-.562 1.34-.558 1.703 0 .12.008.164.006.164l-1.274.141a3.006 3.006 0 0 1-.013-.305c.004-.508.074-1.61.871-2.543 1.097-1.225 2.634-1.238 2.697-1.256"/>
    </g>
</svg>
