<svg xmlns="http://www.w3.org/2000/svg" width="32" height="32" viewBox="0 0 32 32">
    <defs>
        <clipPath id="a">
            <path d="M0 24h24V0H0z"/>
        </clipPath>
    </defs>
    <g clip-path="url(#a)" transform="matrix(1.33333 0 0 -1.33333 0 32)">
        <path fill="#f0f" d="M13.558 5.13l-.817.526s-.052-.084-.183-.187A.888.888 0 0 0 12 5.267a.891.891 0 0 0-.56.202c-.132.105-.174.193-.183.189l-.816-.53c.032-.04.513-.813 1.559-.832 1.044.019 1.526.793 1.558.835M7.894 8.39a.958.958 0 1 1 .957.959.957.957 0 0 1-.957-.958M16.106 8.39a.958.958 0 1 0-.957.959.957.957 0 0 0 .957-.958"/>
        <path fill="#f0f" d="M16.88 16.35l-.274-.083-.266-1.067c-.741.26-2.191.64-4.34.64-2.15 0-3.6-.38-4.342-.64l-.266 1.07-.274.08c-.347.106-.588.4-.588.762 0 .451.364.815.814.817.404 0 .726-.3.786-.71l.068-.485 2.039.24 1.092 1.167-.09.28a.85.85 0 0 0-.056.242c0 .453.366.817.815.82a.82.82 0 0 0 .819-.82.902.902 0 0 0-.058-.244l-.088-.278 1.088-1.168 2.04-.239.068.483c.062.412.383.712.786.712a.82.82 0 0 0 .817-.817c0-.362-.24-.656-.59-.763m2.298-7.003l.064.377c.182.418.287.85.335 1.28.13.95.088 2.105-.18 3.263-.186.874-.476 1.644-.862 2.31.049.171.083.35.083.536a1.966 1.966 0 0 1-2.366 1.925c-.594 1.151-1.95 2.3-4.252 2.3-2.303 0-3.66-1.15-4.252-2.3a1.968 1.968 0 0 1-2.37-1.924c0-.19.035-.369.085-.542a7.78 7.78 0 0 1-.861-2.307c-.271-1.166-.313-2.326-.178-3.28a4.46 4.46 0 0 1 .33-1.254l.066-.383c-.446-.363-.65-.932-.646-1.5 0-.472.13-.97.395-1.436.465-.812 1.215-1.35 2.025-1.386.153-.936-.015-1.99-.358-2.764.854.043 1.427.37 1.862 1.008a6.294 6.294 0 0 1 1.61-.999V1h1v1.97l-.336.117C9.092 3.531 8.005 4.5 7.316 5.78l-.171.318-.354-.06a1.142 1.142 0 0 0-.136-.015c-.35-.008-.892.296-1.215.881a1.935 1.935 0 0 0-.268.943c.005.383.14.632.322.751.389-.438.85-.789 1.356-1.03-.383.866-.572 2.157-.308 3.165l.625.527-.14 1.568c.624.396 1.453.87 2.55 1.178.782.171 2.035.163 2.423-.37.388.533 1.64.541 2.42.37 1.1-.309 1.93-.783 2.553-1.179l-.144-1.565.63-.53c.264-1.009.074-2.298-.308-3.164.504.241.965.591 1.355 1.03.179-.12.316-.368.318-.749a1.97 1.97 0 0 0-.265-.947c-.325-.58-.87-.889-1.217-.879a.567.567 0 0 0-.126.012l-.36.068-.173-.323c-.69-1.28-1.777-2.248-3.057-2.692l-.335-.117V1h.998v1.27a6.309 6.309 0 0 1 1.612 1c.435-.639 1.009-.966 1.863-1.009-.342.774-.511 1.828-.36 2.764.812.037 1.559.577 2.025 1.384.262.467.393.966.393 1.44.004.566-.198 1.136-.644 1.497"/>
    </g>
</svg>
