<svg xmlns="http://www.w3.org/2000/svg" width="32" height="32" viewBox="0 0 32 32">
    <defs>
        <clipPath id="a">
            <path d="M0 24h24V0H0z"/>
        </clipPath>
    </defs>
    <g clip-path="url(#a)" transform="matrix(1.33333 0 0 -1.33333 0 32)">
        <path fill="red" d="M8.532 2.999c.088.082.176.166.265.252 1.518-.15 1.772.306 3.203.306 1.432 0 1.686-.456 3.204-.306.088-.086.174-.171.263-.253-.836-.391-1.948-.614-3.468-.614-1.522 0-2.633.223-3.467.615m.974 2.446a35.504 35.504 0 0 0-1.044-1.119A14.405 14.405 0 0 0 7.357 3.29a5.882 5.882 0 0 0-.156-.123c.139.471.42 1.181.71 1.789.212.453.422.876.579 1.184zM5.11 21.541a.515.515 0 0 0 .714-.173l1.738-2.434 1.515-2.123.123-.172.253.073c.42-.132.933-.489 1.32-.856.43-.401.71-.768.712-.766l.513-.668.517.668s.278.365.712.766c.388.369.902.727 1.322.858.056-.018.115-.032.169-.05l.46-.161 3.449 4.826c.124.202.29.288.47.29.09 0 .18-.025.268-.076a.526.526 0 0 0 .249-.442.512.512 0 0 0-.077-.272l-2.762-5.417.279-.331c1.042-1.231 1.505-2.969 1.505-4.799 0-.562-.043-1.133-.123-1.694-.237-1.644-.582-2.936-1.137-3.891-.112.265-.23.526-.348.776.283.764-.042 1.727-.657 1.959-.958.359-1.998-1.412-4.294-1.412-2.296 0-3.336 1.771-4.294 1.412-.614-.231-.94-1.193-.658-1.956A21.52 21.52 0 0 1 6.7 4.7c-.554.955-.9 2.246-1.135 3.89a11.782 11.782 0 0 0-.126 1.692c0 1.983.542 3.847 1.779 5.097l.332.334-2.588 5.075a.585.585 0 0 0-.1.313c0 .176.087.343.248.44M15.398 4.47c-.351.363-.672.716-.905.975l1.016.695c.156-.309.366-.732.576-1.186.289-.605.57-1.312.71-1.783-.386.299-.94.812-1.397 1.299M23 1.635c-2.385.664-3.326 4.705-3.494 5.526l.014.069c.224-.428 1.322-2.354 2.832-2.07-1.797 2.318-.13 3.356-.53 6.95-.4 3.595-1.917 4.485-1.917 4.485s1.718 0 2.836-1.678c-.554 2.529-1.721 3.74-2.563 4.307l.496.973c.154.255.238.584.238.904a1.81 1.81 0 0 1-.873 1.552 1.813 1.813 0 0 1-2.499-.612l-.796-1.113c-.373.216-1.201.623-2.247.633-.794.011-1.715-.28-2.498-1.052-.784.772-1.707 1.063-2.498 1.052a4.542 4.542 0 0 1-1.895-.452l-.697.975c-.317.521-.916.836-1.53.834-.32 0-.65-.084-.947-.268a1.806 1.806 0 0 1-.87-1.549c0-.322.084-.651.265-.948l.36-.707c-.827-.441-2.287-1.607-2.927-4.529 1.118 1.678 2.836 1.678 2.836 1.678s-1.518-.89-1.917-4.485c-.4-3.594 1.268-4.632-.53-6.95 1.51-.284 2.608 1.643 2.832 2.07l.013-.068C4.326 6.343 3.386 2.299 1 1.635c2.403-.17 3.96.257 5.119.946a.738.738 0 0 1 .303-.551.707.707 0 0 1 .38-.115h.01c.257.02.452.098.637.21 1.147-.698 2.622-1.043 4.55-1.043 1.93 0 3.405.346 4.55 1.043a1.39 1.39 0 0 1 .638-.21h.01c.124 0 .248.036.348.095a.762.762 0 0 1 .333.574c1.159-.69 2.717-1.119 5.122-.949"/>
        <path fill="red" d="M7.015 14.31l.001.001v.001z"/>
        <path fill="red" d="M10.12 10.751c-.146-.36-.859-.848-1.559-.831a1.65 1.65 0 0 0-.68.145c-.696.305-1.146 1.208-1.134 1.826 0 .164.003.602.504.602.183.003.43-.046.707-.133a.917.917 0 0 1-.41-.753.938.938 0 1 1 1.876 0c0 .04-.017.074-.022.112.543-.328.81-.651.762-.787a.407.407 0 0 0-.044-.181m6.625 1.742c.301-.018.342-.052.435-.215l.001.001a.95.95 0 0 0 .07-.387c.011-.618-.442-1.521-1.138-1.828a1.66 1.66 0 0 0-.679-.144c-.699-.017-1.414.472-1.557.834a.378.378 0 0 0-.043.167v.022c-.035.142.226.456.765.779-.004-.039-.023-.075-.023-.115a.938.938 0 1 1 1.877 0 .92.92 0 0 1-.412.755c.267.083.506.131.686.131zm-8.817.906a3.132 3.132 0 0 1-.677.093c-.508.021-1.102-.232-1.34-.796a1.908 1.908 0 0 1-.164-.805c.011-1.006.581-2.185 1.712-2.733.36-.164.73-.236 1.087-.236h.015c.62.01 1.183.211 1.643.521V7.347h3.63V9.41a3.028 3.028 0 0 1 1.6-.488h.015c.36 0 .73.072 1.087.236 1.132.55 1.701 1.728 1.714 2.734 0 .28-.047.553-.162.806v.002c-.243.558-.834.814-1.343.792a2.976 2.976 0 0 1-.62-.079l.898.899-.919.918-3.57-3.568V8.646h-1.03v3.016L7.934 15.23l-.919-.919z"/>
    </g>
</svg>
