<svg xmlns="http://www.w3.org/2000/svg" width="32" height="32" viewBox="0 0 32 32">
    <defs>
        <clipPath id="a">
            <path d="M0 24h24V0H0z"/>
        </clipPath>
    </defs>
    <g clip-path="url(#a)" transform="matrix(1.33333 0 0 -1.33333 0 32)">
        <path fill="red" d="M17.307 11.094a1.219 1.219 0 0 0-.512-.107 1.2 1.2 0 0 0-.347.047.803.803 0 0 1 .433.706c0 .305-.176.56-.424.699.065.03.114.064.186.094.473.224.926.363 1.185.363h.01c.223-.02.219-.028.283-.13h-.001a.646.646 0 0 0 .052-.28c.01-.465-.344-1.167-.865-1.392m1.668 2.063l-.002.002c-.205.473-.715.693-1.135.674a2.267 2.267 0 0 1-.375-.036c.38.387.746.914 1.084 1.617l-1.095.536c-.768-1.537-1.34-1.734-1.668-1.732-.213-.002-.457.087-.71.233l-.605-1.06a2.848 2.848 0 0 1 1.096-.374c-.49-.3-.875-.677-.916-1.297 0-.178.045-.35.119-.508.338-.69 1.129-1.147 2.027-1.164h.014c.293 0 .6.06.894.193.932.456 1.395 1.414 1.407 2.246 0 .227-.035.454-.135.67M14.469 13.39v.002zM16.633 6.707c-1.426.059-2.646-.294-2.646-.294s2.232-.598 3.306-1.408c1.078.821.766 3.286.766 3.286s-.72-1.613-1.426-1.584M13.543 5.758c-1.959-.011-3.175-1.282-3.216-1.315l.675-.655c-.001 0 .235.245.687.508a3.666 3.666 0 0 0 1.854.524c.76 0 1.4-.257 1.854-.524.445-.26.675-.508.687-.508l.676.655h-.002c-.041.033-1.256 1.304-3.215 1.315"/>
        <path fill="red" d="M10.29 10.985c-.468.093-.934.406-1.08.63.043-.009.082-.027.127-.027a.81.81 0 0 1 .81.811.792.792 0 0 1-.058.285c.114-.045.231-.095.35-.15.76-.327 1.094-.723 1.056-.816 0-.437-.612-.85-1.206-.733m8.01-6.067c-1.1-1.653-2.635-2.69-4.756-2.699-2.88 0-4.782 1.984-5.742 4.761.415-.085.84-.142 1.265-.187.102-.602.314-1.473.726-1.788 1.076.81 3.31 1.408 3.31 1.408s-.877.25-2.009.292a19.59 19.59 0 0 1 2.798.234l-.194 1.205a18.384 18.384 0 0 0-2.868-.23c-2.557-.014-5.18.614-6.285 2.146-.333.446-.498.967-.496 1.412 0 .344.095.636.256.843.181.254.672.512 1.201.506.39-.003.79-.12 1.15-.424.803-.63 2.187-3.33 5.803-3.309.397 0 .82.03 1.27.096l-.177 1.207a7.665 7.665 0 0 0-1.093-.083 5.734 5.734 0 0 0-.929.084c.343.202.62.482.788.817.076.166.117.34.117.51-.04.62-.425.997-.915 1.298.437.047.807.21 1.097.373l-.604 1.061v.002c-.254-.147-.498-.238-.71-.236-.333 0-.904.196-1.667 1.731l-1.097-.535c.335-.703.7-1.23 1.08-1.616a2.39 2.39 0 0 1-.374.036c-.418.02-.93-.2-1.134-.673a1.468 1.468 0 0 1-.109-.396 7.002 7.002 0 0 1-.56.567c-.05.042-.106.072-.159.11.207 1.404.63 2.383 1.446 3.038.882.714 2.366 1.141 4.776 1.146h.072c2.873-.007 4.402-.599 5.233-1.584.851-.988 1.15-2.619 1.144-4.946.002-2.259-.568-4.528-1.654-6.177m1.441 11.913c-.758.887-1.834 1.458-3.289 1.758v2.48L13.543 23l-2.909-1.932v-2.484c-1.089-.225-1.972-.597-2.67-1.152-1.055-.844-1.592-2.042-1.845-3.463a2.96 2.96 0 0 1-.614.071c-.874-.007-1.68-.355-2.17-.982-.35-.456-.509-1.019-.509-1.586a3.632 3.632 0 0 1 .74-2.14c.711-.934 1.71-1.545 2.831-1.95C7.312 3.943 9.702 1 13.543 1h.023c2.545 0 4.514 1.341 5.752 3.248 1.254 1.913 1.854 4.388 1.856 6.847-.006 2.398-.258 4.333-1.434 5.736"/>
    </g>
</svg>
