<svg xmlns="http://www.w3.org/2000/svg" width="32" height="32" viewBox="0 0 32 32">
    <defs>
        <clipPath id="a">
            <path d="M0 24h24V0H0z"/>
        </clipPath>
    </defs>
    <g clip-path="url(#a)" transform="matrix(1.33333 0 0 -1.33333 0 32)">
        <path fill="#a000a0" d="M3.316 12.146c-.005 2.943.93 5.871 2.48 7.658 1.124 1.306 2.777 1.97 4.438 1.97 1.66 0 3.296-.66 4.403-1.967 1.581-1.861 1.804-3.734 1.81-5.658 0-.772-.042-1.545-.042-2.31.001-.874.047-1.9.35-2.723.287-.781 1.6-2.042 3.267-2.02A9.542 9.542 0 0 0 18.7 5.118c-1.273-1.452-3.287-2.885-6.556-2.891-6.265.016-8.779 4.86-8.828 9.92m-1.227 0c0-2.723.715-5.484 2.35-7.604C6.058 2.426 8.63 1 12.108 1h.035c7.363.023 9.43 6.579 9.437 6.634l.33 1.06s-1.099-.372-1.885-.372c-.787 0-1.689.198-2.15 1.326-.192.643-.246 1.379-.244 2.19 0 .718.042 1.494.042 2.31.005 2.008-.26 4.309-2.1 6.457-1.368 1.604-3.36 2.396-5.34 2.395-1.983 0-3.983-.793-5.366-2.393-1.804-2.102-2.775-5.266-2.779-8.461"/>
        <path fill="#a000a0" d="M12.684 18.055a1.08 1.08 0 0 0 1.08-1.082 1.08 1.08 0 1 0-2.161 0c0 .598.484 1.082 1.08 1.082M7.494 18.055a1.08 1.08 0 1 0 0-2.161 1.08 1.08 0 0 0 0 2.16M11.352 12.638a1.287 1.287 0 1 0-2.574 0v.916h.787v-1.542h1v1.542h.787zm2.205 2.215H6.573v-1.299h.904v-.916a2.587 2.587 0 1 1 5.175 0v.916h.905zM12.106 9.68c.002.055.002.064.002.03l.019.928 1.3-.024-.021-.95a.637.637 0 0 1 .618-.618l.015.002a.637.637 0 0 1 .636.63l.022.93 1.298-.03-.02-.923a1.937 1.937 0 0 0-1.936-1.907l-.026-.002a1.939 1.939 0 0 0-1.907 1.935"/>
        <path fill="#a000a0" d="M4.375 9.684c0 .04.002.06.002.052l.019.904v-.002l1.299-.027-.021-.927h.001c0-.348.277-.632.619-.638l.016.002a.637.637 0 0 1 .634.633l.022.928 1.3-.03-.022-.922a1.935 1.935 0 0 0-1.934-1.91l-.026-.001a1.939 1.939 0 0 0-1.909 1.938"/>
    </g>
</svg>
