<svg xmlns="http://www.w3.org/2000/svg" width="32" height="32" viewBox="0 0 32 32">
    <defs>
        <clipPath id="a">
            <path d="M0 24h24V0H0z"/>
        </clipPath>
    </defs>
    <g clip-path="url(#a)" transform="matrix(1.33333 0 0 -1.33333 0 32)">
        <path fill="#595959" d="M18.16 5.79c1.624 2.071 2.631 4.792 2.627 7.223A8.798 8.798 0 0 1 12 21.8a8.797 8.797 0 0 1-8.788-8.787C3.208 10.582 4.215 7.861 5.84 5.79 7.463 3.713 9.66 2.321 12 2.326c2.338-.005 4.534 1.387 6.16 3.464M1.911 13.013c0 5.572 4.517 10.088 10.09 10.088 5.568 0 10.085-4.516 10.085-10.088C22.053 7.501 17.75 1.103 12 1.027 6.248 1.103 1.946 7.501 1.911 13.013"/>
        <path fill="#595959" d="M19.065 15.062a4.929 4.929 0 0 1-.469.019c-.748-.007-2.286-.103-3.55-1.108h-.002c-1.7-1.404-1.91-3.63-1.933-3.689l-.078-.66.664-.063a4.9 4.9 0 0 1 .453-.017c.747.007 2.288.106 3.56 1.108 1.704 1.404 1.91 3.628 1.931 3.688l.076.651zm-10.13-1.077c-1.242.967-2.729 1.068-3.495 1.074-.315 0-.515-.021-.533-.023l-.656-.076.084-.653c.025-.058.253-2.281 1.968-3.667 1.242-.965 2.737-1.07 3.504-1.075.308 0 .504.02.522.022l.658.073-.084.657c-.023.059-.25 2.28-1.968 3.668M10.879 5.996h2.238V4.695h-2.238z"/>
        <path fill="#595959" d="M10.88 5.997h2.238V4.696H10.88z"/>
    </g>
</svg>
