<svg xmlns="http://www.w3.org/2000/svg" width="32" height="32" viewBox="0 0 32 32">
    <defs>
        <clipPath id="a">
            <path d="M0 24h24V0H0z"/>
        </clipPath>
    </defs>
    <g clip-path="url(#a)" transform="matrix(1.33333 0 0 -1.33333 0 32)">
        <path fill="#a000a0" d="M14.887 16.123a.936.936 0 0 0-.938.939c0 .52.419.937.938.937a.937.937 0 1 0 0-1.876m-2.884-2.609a1.222 1.222 0 0 0 0 2.443 1.221 1.221 0 0 0 0-2.443M8.18 17.062c0 .52.422.937.938.937a.936.936 0 0 0 .939-.937.938.938 0 1 0-1.877 0M22.03 5.104l-1.263-.301h-.002a1.287 1.287 0 0 0-.949-1.546 1.585 1.585 0 0 0-.376-.046c-.571.024-.972.263-1.168.99-.317 1.211.053 4.311-.404 6.284a4.837 4.837 0 0 1-.813 1.76h.478a3.099 3.099 0 0 1 3.098 3.097 3.08 3.08 0 0 1-1.64 2.715l.013.009c-1.272.828-2.316 2.199-2.316 2.199l-.002-.005A5.367 5.367 0 0 1 12.003 23a5.366 5.366 0 0 1-4.683-2.74v.005s-1.045-1.371-2.318-2.199l.01-.009a3.083 3.083 0 0 1-1.638-2.715 3.1 3.1 0 0 1 3.099-3.097h.476a4.843 4.843 0 0 1-.814-1.761c-.456-1.972-.087-5.071-.402-6.283-.201-.727-.605-.967-1.171-.989-.121 0-.248.014-.376.043a1.288 1.288 0 0 0-.987 1.246c0 .096.013.197.038.298l-1.261.308-.002.002a2.607 2.607 0 0 1-.074-.608c0-1.168.798-2.222 1.98-2.509.228-.054.457-.081.682-.081l.053-.001c1.076 0 2.104.755 2.38 1.985.376 1.668.002 4.693.406 6.285.183.767.539 1.273.845 1.594.153.161.293.273.39.343.098.068.129.08.127.083l-.023.045h.165V1h1.3v11.245h1.148V1h1.3v11.245H13.8V1h1.3v11.245h.168l-.024-.046c-.002 0 .029-.013.126-.083.293-.211.959-.789 1.235-1.934.405-1.592.028-4.619.402-6.285.274-1.231 1.305-1.987 2.382-1.987h.052c.225 0 .453.027.682.081a2.59 2.59 0 0 1 1.908 3.113"/>
    </g>
</svg>
