<svg xmlns="http://www.w3.org/2000/svg" width="32" height="32" viewBox="0 0 32 32">
    <defs>
        <clipPath id="a">
            <path d="M0 24h24V0H0z"/>
        </clipPath>
    </defs>
    <g clip-path="url(#a)" transform="matrix(1.33333 0 0 -1.33333 0 32)">
        <path fill="#595959" d="M16.404 8.722c-.792-.133-1.55.372-1.692 1.13l2.876.49c.142-.758-.388-1.484-1.184-1.62m-9.992 1.62l2.876-.49c-.143-.758-.9-1.263-1.693-1.13-.795.136-1.326.862-1.183 1.62M12 3.4c-5.188 0-5.875 3.875-5.875 3.875s.452-.265 1.458-.523l.751-1.414.644 1.14c.813-.118 1.81-.203 3.022-.203 1.212 0 2.21.085 3.021.204l.645-1.141.751 1.414c1.006.258 1.458.523 1.458.523S17.187 3.4 12 3.4m9.744 15.874c-1.785 1.31-4.36 2.955-4.36 2.955l1.752-4.625-1.787-1.26A8.721 8.721 0 0 1 12 18.166a8.725 8.725 0 0 1-5.35-1.822l-1.787 1.26 1.752 4.625s-2.574-1.645-4.359-2.955c-1.788-1.311-1.809-2.942.858-4.737.392-.262.877-.59 1.295-.87a7.827 7.827 0 0 1-.906-3.64V1.772h16.992v8.255a7.819 7.819 0 0 1-.905 3.639c.418.282.904.609 1.295.87 2.667 1.796 2.646 3.427.86 4.738"/>
    </g>
</svg>
