<svg xmlns="http://www.w3.org/2000/svg" width="32" height="32" viewBox="0 0 32 32">
    <defs>
        <clipPath id="a">
            <path d="M0 24h24V0H0z"/>
        </clipPath>
    </defs>
    <g clip-path="url(#a)" transform="matrix(1.33333 0 0 -1.33333 0 32)">
        <path fill="#f0f" d="M6.9 17.604a.594.594 0 0 1-.593-.595.594.594 0 1 1 .594.595M10.685 17.604a.595.595 0 1 1-.002-1.19.595.595 0 0 1 .002 1.19M5.686 2.318h6.213l-.534 1.152H6.219zm8.248-1.3H3.652l1.736 3.751h6.809z"/>
        <path fill="#f0f" d="M13.838 6.6l-1.308.962v1.565h-1.3V6.6H6.434v2.526h-1.3V6.6H3.49l.784 2.908c.504 1.284 1.163 2.018 2.359 2.385l1.737-1.746.46-.463.462.463 1.713 1.722c1.153-.384 1.894-1.091 2.939-2.023l.414-.375 1.96 1.49.25-.105 1.399-.59-2.913-3.666zm-8.92 11.12c0 .096.023.186.03.28a6.72 6.72 0 0 1 2.368.315c.928.305 2.183.855 3.099 1.77.4-.838 1.237-1.65 2.036-1.94.09-.032.174-.061.257-.085.01-.113.035-.223.035-.34a3.918 3.918 0 0 0-3.913-3.911 3.917 3.917 0 0 0-3.911 3.91m4.539-5.563l-.626-.63-.625.63c.203.013.4.03.626.034.226-.002.423-.02.625-.034m8.439.553l3.547 1.002a1.36 1.36 0 0 0-.2-.181L18.3 11.54l-.8.336h-.002l-.714 1.317-.025.037a1.487 1.487 0 0 0-.124.184zM16.716 6.6l3.339 4.2-.325.138 2.275 1.537c.385.289.766.682.77 1.267 0 .135-.023.265-.056.384l-.625-.172.623.183c-.148.566-.725.909-1.204.885-.144 0-.29-.021-.434-.064l-3.017-.852-.927.516a1.386 1.386 0 0 1-.675.182 1.207 1.207 0 0 1-1.064-.635 1.17 1.17 0 0 1-.15-.571c.015-.484.23-.805.424-1.081l.177-.326-1.435-1.008c-.887.804-1.821 1.546-3.128 1.96.257.143.503.302.734.48.97-.173 2.038.37 2.313 1.199.366 1.096.124 1.633-.37 3.86l-.014-.027a5.204 5.204 0 0 1-5.117 4.277 5.204 5.204 0 0 1-5.115-4.264c-.49-2.214-.731-2.753-.367-3.846.275-.824 1.33-1.364 2.297-1.2.22-.172.455-.328.7-.464-1.61-.503-2.736-1.583-3.31-3.258l-.89-3.3H1V5.3h22v1.3z"/>
    </g>
</svg>
