<svg xmlns="http://www.w3.org/2000/svg" width="32" height="32" viewBox="0 0 32 32">
    <defs>
        <clipPath id="a">
            <path d="M0 24h24V0H0z"/>
        </clipPath>
    </defs>
    <g clip-path="url(#a)" transform="matrix(1.33333 0 0 -1.33333 0 32)">
        <path fill="#b45000" d="M14.404 7.534a.882.882 0 0 0-.879-.876.88.88 0 0 0-.876.876v.457c.724.16 1.241.572 1.241 1.064 0 .625-.845 1.136-1.89 1.136-1.043 0-1.89-.51-1.89-1.136 0-.49.518-.904 1.24-1.064v-.457a.88.88 0 0 0-.878-.876.88.88 0 0 0-.876.876h-1.3A2.176 2.176 0 0 1 12 5.986a2.176 2.176 0 0 1 3.703 1.548zM14.719 12.39a.819.819 0 1 0 1.638 0 .819.819 0 0 0-1.638 0M9.283 12.39a.819.819 0 1 1-1.638 0 .819.819 0 0 1 1.638 0"/>
        <path fill="#b45000" d="M12 3.74c-5.007.061-6.792 2.895-6.868 6.823 0 .404.021.815.066 1.231v.002c.071.698.172 1.364.302 1.998a9.3 9.3 0 0 1 1.202 1.374c.848 1.185 1.346 2.43 1.472 3.474.931.66 2.142 1.043 3.826 1.053 1.685-.01 2.896-.394 3.827-1.054.126-1.044.625-2.289 1.472-3.473.373-.52.78-.976 1.199-1.37.131-.635.232-1.303.304-2.002.043-.418.063-.828.063-1.23-.076-3.93-1.86-6.765-6.865-6.827m9.512 14.442c-1.625 2.271-3.885 3.438-5.049 2.606-.234-.167-.391-.418-.502-.707-1.077.587-2.389.923-3.961.915-1.571.008-2.883-.328-3.96-.914-.112.288-.268.54-.502.706-1.163.832-3.423-.335-5.048-2.606-1.624-2.27-1.998-4.786-.833-5.618.579-.415 1.431-.332 2.34.134-.034-.254-.066-.51-.093-.77h.001c-.049-.46-.073-.916-.073-1.364 0-2.183.578-4.222 1.928-5.727C7.11 3.327 9.207 2.432 12 2.438h.029c2.776 0 4.862.897 6.209 2.398 1.35 1.507 1.928 3.546 1.926 5.73 0 .446-.022.901-.07 1.361-.028.26-.059.517-.093.772.91-.468 1.763-.55 2.343-.136 1.166.832.791 3.347-.832 5.618"/>
    </g>
</svg>
