<svg xmlns="http://www.w3.org/2000/svg" width="32" height="32" viewBox="0 0 32 32">
    <defs>
        <clipPath id="a">
            <path d="M0 24h24V0H0z"/>
        </clipPath>
    </defs>
    <g clip-path="url(#a)" transform="matrix(1.33333 0 0 -1.33333 0 32)">
        <path fill="#ff8c00" d="M6.945 18.182a.86.86 0 0 1-.861-.863.86.86 0 1 1 1.722 0 .86.86 0 0 1-.861.863"/>
        <path fill="#ff8c00" d="M19.959 7.823c-1.18-1.354-2.65-2.149-4.494-2.43a12.376 12.376 0 0 0-.998-.077h-2.083c-.517 0-.998.028-1.429.082-.054.007-.832.177-1.02.232-1.612.472-2.851 1.32-3.789 2.587-.941 1.272-1.398 2.691-1.398 4.338l.001 3.617H4.74c.001.02.008.037.008.056 0 1.431.441 2.567 1.349 3.473.906.907 2.042 1.35 3.472 1.35 1.39 0 2.513-.444 3.431-1.355a4.333 4.333 0 0 0 1.029-1.626c.045-.108 1.116-2.679 3.133-4.06 1.238-.85 3.11-1.056 4.527-1.072a.398.398 0 0 0 .016-.108c0-1.908-.637-3.733-1.746-5.007m1.914 6.414c-1.6 0-3.098.242-3.977.844-1.718 1.18-2.664 3.482-2.664 3.482a5.584 5.584 0 0 1-1.316 2.057c-1.165 1.153-2.613 1.73-4.347 1.73-1.776 0-3.24-.577-4.392-1.73-1.154-1.152-1.729-2.617-1.729-4.392L.999 15.006l2.449-1.227v-1.224c0-1.919.551-3.622 1.652-5.11 1.102-1.49 2.591-2.512 4.469-3.062V2.877l-2.448-.613v-.613h3.672v2.457c.49-.06 1.021-.092 1.591-.092h2.083V2.877l-2.449-.613v-.613h3.642v2.457c2.143.325 3.903 1.28 5.279 2.861 1.377 1.582 2.067 3.718 2.067 5.861 0 .625-.381 1.407-1.133 1.407"/>
        <path fill="#ff8c00" d="M9.982 8.494l.908.93c.009.006.394-.388 1.113-.797.719-.41 1.729-.81 2.892-.81 2.47.085 2.808.82 2.87 1.792.044.268-.445 1.022-1.038 1.561-.578.558-1.161.963-1.162.963l.742 1.068c.017-.013.656-.457 1.32-1.094.645-.655 1.397-1.43 1.439-2.498.008-.804-.294-1.654-1.02-2.227-.72-.576-1.753-.864-3.151-.866-2.933.017-4.858 1.936-4.913 1.978"/>
    </g>
</svg>
