<svg xmlns="http://www.w3.org/2000/svg" width="32" height="32" viewBox="0 0 32 32">
    <defs>
        <clipPath id="a">
            <path d="M0 24h24V0H0z"/>
        </clipPath>
    </defs>
    <g clip-path="url(#a)" transform="matrix(1.33333 0 0 -1.33333 0 32)">
        <path fill="#ff8c00" d="M8.93 18.223a.86.86 0 0 1-.86-.863.86.86 0 1 1 1.722 0 .86.86 0 0 1-.861.863M15.07 18.223a.86.86 0 1 1-.001-1.722.86.86 0 0 1 0 1.722M10.463 15.407h3.074L12 17.107z"/>
        <path fill="#ff8c00" d="M19.275 12.859l-.574-.121.064-.585A6.816 6.816 0 0 0 12 4.609a6.816 6.816 0 0 0-6.768 7.546l.064.583-.575.12a3.05 3.05 0 0 0-2.337 2.325h3.943l.196.266c.148.199.306.393.477.578l.192.208-.023.282A4.854 4.854 0 0 0 12 21.766a4.857 4.857 0 0 0 4.85-4.85c0-.121-.01-.253-.02-.4l-.026-.28.194-.21c.171-.184.331-.378.48-.577l.193-.266h3.945a3.049 3.049 0 0 0-2.34-2.324m-.957 3.625a9.026 9.026 0 0 1-.177.212 6.15 6.15 0 1 1-12.293.22c0-.076.003-.15.006-.22-.06-.07-.119-.14-.176-.212H1.013v-.65a4.34 4.34 0 0 1 2.883-4.088 7.266 7.266 0 0 1-.007-.33c0-3.58 2.322-6.61 5.54-7.684V1h1.301v2.418a8.168 8.168 0 0 1 1.27-.11c.431 0 .852.045 1.265.109V1h1.3v2.73c3.218 1.075 5.542 4.106 5.542 7.686 0 .11-.003.219-.008.328a4.337 4.337 0 0 1 2.883 4.09v.65z"/>
    </g>
</svg>
