<svg xmlns="http://www.w3.org/2000/svg" width="32" height="32" viewBox="0 0 32 32">
    <defs>
        <clipPath id="a">
            <path d="M0 24h24V0H0z"/>
        </clipPath>
    </defs>
    <g clip-path="url(#a)" transform="matrix(1.33333 0 0 -1.33333 0 32)">
        <path fill="#003c96" d="M6.635 19.357a.524.524 0 1 1-1.048.003.524.524 0 0 1 1.048-.003"/>
        <path fill="#003c96" d="M7.607 14.195l.175.172 3.813-1.945-2.007-.636zM18.2 5.91a9.621 9.621 0 0 1-.796-.94l-.026.46-.082 1.396-1.386-.178a8.359 8.359 0 0 0-.977-.047c-2.097 0-6.123.507-9.516 3.899a11.327 11.327 0 0 0-2.182 3.029c1.33-.626 2.385-.488 3.215.025l2.692-3.274 5.866 1.862-6.808 3.47c.72 1.384.988 2.826.988 2.826s-2.547-5.431-6.367-3.944c-.669 1.798-.73 3.472-.548 4.61l.052-.011 1.974-.427-.429 1.974-.025.113c.664-.042 2.197-.318 4.726-1.788 5.656-3.29 7.584-8.191 7.991-9.412l.038-.167a24.82 24.82 0 0 1 .388-1.563l.268-.897.936-.03 1.091-.034c-.426-.346-.81-.68-1.083-.952m-8.048-1.143c-.255.507-.463.99-.628 1.409l-.06.16c.408-.157.808-.292 1.198-.407a5.027 5.027 0 0 1-.51-1.162m-7.22 6.718c.302-.447.642-.89 1.027-1.322a27.387 27.387 0 0 1-1.31-.526c.071.63.178 1.282.282 1.848m9.44 8.905c.69.287 1.577.592 2.517.768l-.094-1.261.624-3.727a11.544 11.544 0 0 1-1.292 1.638 20.1 20.1 0 0 1-2.588 2.205c.227.112.495.238.832.377m5.081-8.992c-.097.364-.203.738-.326 1.122a14.872 14.872 0 0 0 1.542-.904 10.43 10.43 0 0 1-1.216-.218m.782-3.202c-.155.52-.297 1.186-.47 1.94.59.143 1.35.273 2.763.278.011 0 .023 0 .044-.002l2.021-.05-1.614 1.219c-.05.015-2.278 1.766-3.869 2.368l-1.005 6.007.2 2.682-.77-.076c-2.807-.286-5.21-1.72-5.25-1.74l.007-.012c-1.97 1.12-3.675 1.45-4.996 1.45-1.865 0-2.964-.655-2.964-.655l.27-1.242-1.243.269c-.65-1.48-.794-4.418.595-7.422-.114-.51-.633-2.866-.684-4.62l-.033-1.103.984.509c.917.48 2.155.939 2.745 1.149a14.274 14.274 0 0 1 2.871-2.05c.15-.521.796-2.605 2.111-4.556L11.002.98l.132 1.877c.088 1.227.374 1.95.607 2.348.116.2.22.322.283.388a15.263 15.263 0 0 1 2.91-.293c.72 0 1.147.058 1.147.058L16.324 1s1.798 2.993 2.795 3.989C20.116 5.987 23 8.047 23 8.047z"/>
    </g>
</svg>
