<svg xmlns="http://www.w3.org/2000/svg" width="32" height="32" viewBox="0 0 32 32">
    <defs>
        <clipPath id="a">
            <path d="M0 24h24V0H0z"/>
        </clipPath>
    </defs>
    <g clip-path="url(#a)" transform="matrix(1.33333 0 0 -1.33333 0 32)">
        <path fill="#b45000" d="M6.174 3.827c-.334 0-.662.058-.986.142l.757.756-.893.892-1.095-1.095a3.992 3.992 0 0 0-.55.45 3.887 3.887 0 0 0-.401 5.042L8.449 4.57a3.889 3.889 0 0 0-2.274-.743M20.81 13.48c.39.526 1.115 1.286 2.19 1.59-1.83 1.156-3.377 1.485-4.965 1.485 0 0 1.103.894 2.922 1.428-2.281 1.355-5.105 1.397-6.558.697 0 0 .69 1.182 2.375 2.073-2.188.594-4.335.196-5.69-.794l-.894.896a1.987 1.987 0 0 1-3.391-1.405c0-.504.195-1.018.584-1.403l.892-.89-5.76-5.76A5.15 5.15 0 0 1 1 7.736a5.156 5.156 0 0 1 1.516-3.658 5.155 5.155 0 0 1 3.658-1.514h.009a5.157 5.157 0 0 1 3.649 1.514l3.07 3.067c.604-.967 1.329-2.468 1.32-3.949h1.264c-.013 2.343-1.308 4.368-1.98 5.308l-.433.6-3.687-3.686-5.531 5.531 6.206 6.206-1.786 1.784a.712.712 0 0 0 0 1.019.7.7 0 0 0 .51.213.716.716 0 0 0 .51-.21l1.62-1.622.145-.046c2.79-.91 5.447-2.764 7.385-4.396 1.94-1.632 3.15-3.017 3.155-3.017l.952.831-.002.002c-.015.01-.657.743-1.74 1.766M8.85 13.125a.896.896 0 1 1 0 0"/>
    </g>
</svg>
