<svg xmlns="http://www.w3.org/2000/svg" width="32" height="32" viewBox="0 0 32 32">
    <defs>
        <clipPath id="a">
            <path d="M0 24h24V0H0z"/>
        </clipPath>
    </defs>
    <g clip-path="url(#a)" transform="matrix(1.33333 0 0 -1.33333 0 32)">
        <path fill="#ff8c00" d="M21.139 12.55l-1.006.169.335-.963s.104-.297.217-.838c.113-.543.225-1.308.225-2.186v-.017c-.167.129-.275.206-.28.21l-.834.597-.12-1.016c0-.002-.075-.648-.273-1.5a11.63 11.63 0 0 0-.536-1.74c-.33.488-.617.918-.618.92l-.295.44-.475-.233a11.237 11.237 0 0 0-2.228-.756l-2.648 1.047v1.053l1.545 1.367H9.85l1.544-1.367V6.684l-2.65-1.047c-1.272.289-2.224.76-2.228.756l-.477.234-.293-.441c-.001-.002-.288-.432-.617-.918-.23.566-.41 1.193-.535 1.738-.2.852-.272 1.498-.273 1.498L4.2 9.524l-.832-.598c-.006-.005-.116-.082-.282-.211v.017c-.002 1.755.454 3.016.443 3.024l.337.965-1.008-.17a6.536 6.536 0 0 1-.29-.057c.41 1.586 1.097 3.07 1.81 4.102l.354.516-.525.337c-.657.426-.904 1.03-.91 1.61-.002.449.169.854.397 1.079.256.257.598.387.988.389.464 0 .98-.198 1.389-.608.124-.124.227-.27.326-.438l.34-.583.544.404c1.157.866 2.602 1.198 4.253 1.249v-.72a7.648 7.648 0 0 1-2.713-.66l.384-.85a6.697 6.697 0 0 0 2.329.582v-.914a7.711 7.711 0 0 1-2.713-.66l.384-.848a6.739 6.739 0 0 0 2.329.578v-1.282h.929v1.282a6.697 6.697 0 0 0 2.317-.574l.384.846a7.624 7.624 0 0 1-2.701.659v.912a6.743 6.743 0 0 0 2.317-.575l.384.848a7.664 7.664 0 0 1-2.701.656v.72c1.649-.051 3.093-.383 4.25-1.25l.542-.405.342.585c.099.168.202.314.327.438.408.409.924.608 1.388.608.39-.002.73-.132.989-.39.228-.224.397-.63.394-1.078-.005-.58-.254-1.184-.91-1.612l-.521-.337.353-.514c.714-1.031 1.398-2.516 1.81-4.102-.185.039-.28.056-.29.057m-9.14-9.105c-1.56.068-1.968.259-2.411 1.224l2.41.955 2.413-.955c-.442-.965-.851-1.156-2.412-1.224m10.076 7.648L23 10.85l-.176.94c-.35 1.874-1.068 3.659-1.9 5.016.675.633.986 1.473.982 2.253-.002.732-.253 1.433-.75 1.933a2.575 2.575 0 0 1-1.843.744c-.801-.002-1.613-.333-2.242-.962a2.628 2.628 0 0 1-.145-.156c-1.464.89-3.17 1.152-4.928 1.152s-3.464-.261-4.927-1.152a3.01 3.01 0 0 1-.145.156c-.63.629-1.442.962-2.243.962a2.575 2.575 0 0 1-1.843-.744c-.496-.498-.75-1.201-.751-1.933a3.083 3.083 0 0 1 .983-2.254c-.832-1.357-1.55-3.142-1.897-5.015L1 10.852l.922.242.202.053a12.092 12.092 0 0 1-.248-2.415c0-.427.025-.88.084-1.353l.152-1.226.876.875c.098.099.2.195.303.285.19-.973.562-2.436 1.243-3.555l.485-.79.527.763c.29.42.668.98.923 1.36.417-.171 1.07-.411 1.853-.6.555-1.528 1.784-2.333 3.676-2.254a5.07 5.07 0 0 1 .245-.006c1.754 0 2.902.799 3.432 2.26.78.19 1.436.429 1.852.6.256-.38.634-.94.924-1.358l.525-.764.486.789c.68 1.119 1.053 2.582 1.243 3.555a5.86 5.86 0 0 0 .305-.287l.877-.875.15 1.23c.059.47.08.924.08 1.35 0 .972-.121 1.812-.246 2.416l.203-.053"/>
        <path fill="#ff8c00" d="M7.822 12.527c1.154-.255 1.456.93 1.456.93l-2.382.524s-.227-1.2.926-1.454M16.176 12.527c1.153.254.926 1.454.926 1.454l-2.381-.524s.3-1.185 1.455-.93M7.12 9.408c-1.155 1.576-1.348 3.854-1.34 4.961 0 .406.024.64.022.64l-.926.083a7.42 7.42 0 0 1-.027-.723c.01-1.333.191-4.248 2.08-6.157l.515-.519.25.69c.225.623.493 1.06.7 1.341.205.28.331.375.327.381l-.603.705c-.038-.03-.536-.466-.998-1.402M18.195 15.011h-.002s.021-.235.021-.644c.01-1.104-.187-3.382-1.339-4.958-.462.935-.959 1.37-.998 1.401l-.6-.707c-.003 0 .12-.099.325-.379.207-.279.475-.72.7-1.34l.247-.69.52.518c1.881 1.91 2.064 4.823 2.076 6.155a9.838 9.838 0 0 1-.024.723z"/>
    </g>
</svg>
