<svg xmlns="http://www.w3.org/2000/svg" width="32" height="32" viewBox="0 0 32 32">
    <defs>
        <clipPath id="a">
            <path d="M0 24h24V0H0z"/>
        </clipPath>
    </defs>
    <g clip-path="url(#a)" transform="matrix(1.33333 0 0 -1.33333 0 32)">
        <path fill="#b45000" d="M12 7.604c-.702 0-1.272-.35-1.272-.774 0-.43.57-.776 1.273-.776.702 0 1.273.347 1.273.776 0 .425-.571.774-1.273.774"/>
        <path fill="#b45000" d="M17.406 10.057h-1.014v1.921h1.014zM12 4.228c-2.257 0-4.086 1.395-4.086 3.116S9.743 10.46 12 10.46c2.257 0 4.086-1.395 4.086-3.116S14.257 4.228 12 4.228m-4.37 5.829H6.617v1.921H7.63zm13.3 5.419c.332.177.651.395.936.679 1.405 1.404 1.52 3.562.26 4.822-1.26 1.261-3.418 1.144-4.822-.26a3.884 3.884 0 0 1-.837-1.246c.012-.006.021-.013.032-.018-1.312.619-2.813.984-4.499.984-1.686 0-3.187-.365-4.5-.984.012.005.021.012.033.018a3.884 3.884 0 0 1-.837 1.246c-1.403 1.404-3.562 1.521-4.822.26-1.26-1.26-1.145-3.418.26-4.822.285-.284.604-.502.936-.679l.024.032c-1.224-1.91-1.875-4.123-1.875-6.175 0-5.05 4.827-7.184 10.781-7.184 5.954 0 10.781 2.134 10.781 7.184 0 2.052-.65 4.263-1.874 6.173.007-.01.016-.019.023-.03"/>
    </g>
</svg>
