<svg xmlns="http://www.w3.org/2000/svg" width="32" height="32" viewBox="0 0 32 32">
    <defs>
        <clipPath id="a">
            <path d="M0 24h24V0H0z"/>
        </clipPath>
    </defs>
    <g clip-path="url(#a)" transform="matrix(1.33333 0 0 -1.33333 0 32)">
        <path fill="#595959" d="M8.932 11.021a.824.824 0 0 1-.826-.824.827.827 0 1 1 1.653 0c0 .458-.37.825-.827.825M15.07 11.021a.824.824 0 0 1-.827-.824.828.828 0 1 1 1.653 0c0 .458-.37.825-.826.825M11.804 3.006a.728.728 0 0 1 .148-.02c-.048 0-.1.015-.148.02"/>
        <path fill="#595959" d="M16.777 12.994v-.61c.006-1.86-.767-3.808-1.76-5.33l-.024.001-.005-.047c-.053-.08-.104-.164-.157-.243a8.71 8.71 0 0 0-.99-1.226l-.024.006-.014-.043c-.746-.763-1.464-1.215-1.758-1.215a.19.19 0 0 0-.043.004.206.206 0 0 0-.044-.004c-.296 0-1.017.453-1.765 1.22l-.012.036-.02-.006a8.593 8.593 0 0 0-.99 1.228c-.055.08-.106.163-.159.243l-.005.047-.023-.004c-.993 1.523-1.767 3.472-1.763 5.332v.611h-.609a3.396 3.396 0 0 0-3.393 3.391 3.396 3.396 0 0 0 3.393 3.39 3.395 3.395 0 0 0 3.391-3.39c.003 0-.01-.037-.023-.188l-.047-.73.728.086c.425.05.871.076 1.341.076.463 0 .913-.026 1.337-.076l.725-.084-.044.728c-.014.151-.026.188-.022.188a3.392 3.392 0 0 0 3.39 3.39 3.395 3.395 0 0 0 3.391-3.39 3.394 3.394 0 0 0-3.392-3.39zm5.302 3.388a4.708 4.708 0 0 1-4.689 4.693h-.006a4.706 4.706 0 0 1-4.657-4.165 14.335 14.335 0 0 1-1.454 0 4.712 4.712 0 0 1-4.658 4.165 4.708 4.708 0 0 1-4.695-4.687 4.71 4.71 0 0 1 4.024-4.645c.14-1.88.872-3.54 1.508-4.666-1.488-.264-2.65-.685-2.672-.69l.445-1.225v.002c.003.002 1.391.502 2.981.718.144-.209.297-.417.465-.622-.802-.355-1.979-.887-2.62-1.237l.625-1.142c.675.374 2.205 1.052 2.94 1.375.584-.543 1.418-1.172 2.187-1.25l-.046.01c.087-.019.184-.029.288-.029.735 0 1.561.576 2.173 1.116l.011-.002.156.153c.738-.323 2.263-1 2.938-1.37l.625 1.138c-.64.351-1.817.883-2.62 1.24.166.201.317.408.464.618 1.582-.214 2.966-.717 2.98-.717l.447 1.221v.002c-.024.006-1.184.427-2.67.692.635 1.123 1.368 2.783 1.505 4.665a4.71 4.71 0 0 1 4.025 4.64"/>
    </g>
</svg>
