<svg xmlns="http://www.w3.org/2000/svg" width="32" height="32" viewBox="0 0 32 32">
    <defs>
        <clipPath id="a">
            <path d="M0 24h24V0H0z"/>
        </clipPath>
    </defs>
    <g clip-path="url(#a)" transform="matrix(1.33333 0 0 -1.33333 0 32)">
        <path fill="#00f" d="M21.106 5.117c0-.574.05-1.18.176-1.826-.088.02-.172.035-.26.053-1.84 3.244-.396 6.105-2.185 8.728-1.23 1.805-2.78 2.412-4.189 2.505a8.97 8.97 0 0 0 1.691 1.135c.081.007.205.016.384.016 1.168-.037 3.708-.3 4.607-3.693a7.703 7.703 0 0 0 .252-1.988c.006-1.59-.468-3.067-.476-4.93m-14.01.79c-.96 1.314-1.428 3.005-1.425 4.255 0 .158.01.31.026.453l.042.432-.022.01c.214 2.84 3.587 7.54 5.17 8.384.183.065.456.116.781.113 1.454-.017 3.451-.848 3.805-2.944-2.863-1.604-4.14-4.032-4.13-6.384.007-2.353 1.205-4.589 3.064-5.974-1.112-.434-2.094-.62-2.953-.62-1.994.006-3.388.958-4.358 2.274m-3.815 8.892v.018c.454 2.11 2.24 4.987 3.81 5.83.154.013.31.025.464.025.71-.008 1.391-.14 2.097-.639-1.953-1.59-4.49-5.232-5.05-8.319-1.212 1.027-1.323 2.672-1.32 3.085m-.796 5.815c.595.243 1.518.518 2.42.515.24 0 .472-.025.702-.065-1.298-1.106-2.387-2.829-3.045-4.526a6.748 6.748 0 0 0-.347 2.152 7 7 0 0 0 .27 1.924M22.69 2.668a8.294 8.294 0 0 0-.366 2.45c-.008 1.628.468 3.1.474 4.93 0 .71-.076 1.47-.29 2.294-1.047 4.081-4.43 4.636-5.784 4.602h-.055c-.552 2.77-3.198 3.843-5 3.827a4.039 4.039 0 0 1-.87-.09c-1.06.938-2.232 1.214-3.243 1.207a7.37 7.37 0 0 1-.523-.02c-.692.352-1.43.476-2.126.476-1.31-.003-2.497-.424-3.178-.736l-.242-.112-.08-.253A8.312 8.312 0 0 1 1 18.69c0-1.23.28-2.249.564-2.963.143-.359.288-.645.403-.846.035-.06.068-.116.098-.163.013-.704.202-3.102 2.393-4.389a4.513 4.513 0 0 1-.003-.166c.007-2.998 2.107-7.703 7-7.746 1.25 0 2.648.318 4.195 1.04 1.427-.818 3.703-.913 6.317-1.556L23 1.656z"/>
    </g>
</svg>
