<svg xmlns="http://www.w3.org/2000/svg" width="32" height="32" viewBox="0 0 32 32">
    <defs>
        <clipPath id="a">
            <path d="M0 24h24V0H0z"/>
        </clipPath>
    </defs>
    <g clip-path="url(#a)" transform="matrix(1.33333 0 0 -1.33333 0 32)">
        <path fill="#00f" d="M7.326 17.814a.67.67 0 1 1-.457-1.258.67.67 0 0 1 .457 1.258"/>
        <path fill="#00f" d="M19.515 6.604c-.318.018-.533.058-.964.6a.613.613 0 0 1-1.1-.45c.019-.114.024-.218.024-.31-.014-.643-.288-.895-.898-1.322-.388-.267-.891-.527-1.363-.913-.053.204-.075.4-.076.589-.003.688.315 1.34.663 1.821.343.477.676.745.672.751a.611.611 0 0 1 .066.879c-.025.03-2.238 2.52-5.944 4.828a.62.62 0 0 1-.526.055.6.6 0 0 1-.376-.372 43.404 43.404 0 0 0-.642-1.712c-.06-.146-.118-.285-.172-.406-.39.486-.602 1.53-.58 2.506 0 .28.015.544.03.776a.617.617 0 0 1-.342.597c-.753.364-1.55.705-2.387 1.01l-3.03 1.103c-.224.082-.345.28-.343.445a.39.39 0 0 0 .025.13c.055.16.214.273.428.275.058 0 .124-.01.189-.033l.068-.022 1.156-.274a.615.615 0 0 1 .754.546c.162 1.438 1.015 2.514 3.184 2.557.477 0 1.02-.062 1.627-.198 3.73-.872 7.04-3.956 7.51-11.432a.618.618 0 0 1 .71-.57c.003.002.299.05.768.05.934-.01 2.199-.194 2.824-1.102-.874-.106-1.533-.429-1.955-.402m-1.3 11.245c-.458-.205-1.308-.5-2.084-1.072a10.744 10.744 0 0 1-1.323 1.72c1.305.041 2.825-.32 3.407-.648m.43-8.515a8.96 8.96 0 0 1-.292-.004c-.204 2.56-.784 4.657-1.621 6.357.439.355.977.616 1.472.824.3.13.576.238.827.38.218.132.583.328.618.88a.845.845 0 0 1-.102.407c-.868 1.344-2.97 1.477-4.807 1.547-.445 0-.86-.029-1.246-.074a9.498 9.498 0 0 1-3.567 1.606 8.627 8.627 0 0 1-1.896.227c-2.351.037-3.88-1.3-4.3-2.982l-.487.117a1.75 1.75 0 0 1-.564.093c-.676.002-1.334-.396-1.582-1.084A1.61 1.61 0 0 1 1 17.08c.002-.708.458-1.346 1.152-1.599l3.029-1.104a22.822 22.822 0 0 0 1.9-.787c-.004-.14-.007-.288-.007-.44.03-1.329.142-3.24 1.786-3.933.134-.044.212-.035.218-.037.506.071.492.263.588.335.286.422.63 1.321.919 2.111a30.107 30.107 0 0 0 3.542-2.73c.478-.43.844-.787 1.095-1.04-.52-.569-1.288-1.638-1.313-3.058 0-.63.174-1.32.596-1.996a.622.622 0 0 1 .506-.287h.018c.2 0 .384.1.5.261.35.515 1.026.867 1.728 1.324.5.317 1.055.794 1.307 1.495.314-.156.64-.227.95-.219.976.03 1.703.46 2.414.44.119 0 .23-.01.344-.032a.61.61 0 0 1 .556.177.61.61 0 0 1 .157.564c-.612 2.491-3.098 2.823-4.34 2.81"/>
    </g>
</svg>
