<svg xmlns="http://www.w3.org/2000/svg" width="32" height="32" viewBox="0 0 32 32">
    <defs>
        <clipPath id="a">
            <path d="M0 24h24V0H0z"/>
        </clipPath>
    </defs>
    <g clip-path="url(#a)" transform="matrix(1.33333 0 0 -1.33333 0 32)">
        <path fill="#00f" d="M6.43 17.534a.782.782 0 1 0 1.565-.001.782.782 0 0 0-1.565 0"/>
        <path fill="#00f" d="M21.707 6.939l-3.859.844c.223.23.427.483.607.762l3.252.712zm-7.401.644c-.645 0-1.294.17-1.881.528a3.635 3.635 0 0 0-1.237 4.976l6.132-3.903a3.642 3.642 0 0 0-3.014-1.601m-2.448-2.378a10.068 10.068 0 0 0-.852-.038C8.414 5.17 6.572 6.302 5.664 7.83c-.337.568-.531 1.3-.531 2.072 0 1.12.404 2.305 1.295 3.219l.537.55-.632.437a3.626 3.626 0 0 0-1.575 2.99 3.637 3.637 0 0 0 3.634 3.634 3.64 3.64 0 0 0 3.635-3.633 3.612 3.612 0 0 0-1.277-2.74l-.65-.564-.004.002-.004-.008-.002-.002h.001A4.932 4.932 0 0 1 11.752 7a4.886 4.886 0 0 1 2.554-.72c.363 0 .723.049 1.077.128-1.089-.678-2.368-1.1-3.525-1.203m6.747 4.704l-6.407 4.076a4.867 4.867 0 0 1 1.127 3.113 4.934 4.934 0 1 1-9.868 0c0-.124.011-.247.02-.37l-2.445-.847 2.977-1.033a4.98 4.98 0 0 1 1.024-1.36 5.932 5.932 0 0 1-1.199-3.586c0-.985.241-1.94.712-2.735.97-1.641 2.76-2.834 5.054-3.184V1.652h1.3v2.22c.032 0 .061-.004.092-.004h.014c.317 0 .638.016.967.044.042.004.085.012.127.017V1.652h1.298v2.512c1.518.387 3.038 1.166 4.185 2.345l5.425-1.188v5.554z"/>
    </g>
</svg>
