<svg xmlns="http://www.w3.org/2000/svg" width="32" height="32" viewBox="0 0 32 32">
    <defs>
        <clipPath id="a">
            <path d="M0 24h24V0H0z"/>
        </clipPath>
    </defs>
    <g clip-path="url(#a)" transform="matrix(1.33333 0 0 -1.33333 0 32)">
        <path fill="#ff8c00" d="M20.335 7.218l-1.857.264-.183-1.286 1.544-.22a4.735 4.735 0 0 0-1.008-1.26C17.582 3.613 15.447 2.868 12 2.87c-3.45-.002-5.584.743-6.833 1.846a4.712 4.712 0 0 0-1.007 1.26l1.543.219L5.52 7.48l-1.857-.264a7.803 7.803 0 0 0-.231 1.867l2.027-.368.232 1.279-2.195.399c.015.145.026.289.045.437.254 1.935 1.004 3.713 2.136 5.107l.634.784-.976.255c-.49.13-.934.416-1.245.863a2.197 2.197 0 0 0-.405 1.268c.002.669.304 1.302.872 1.7.354.249.756.364 1.165.366a2.186 2.186 0 0 0 1.783-.945 2.18 2.18 0 0 0 .393-1.261v-1.025l.905.386a7.73 7.73 0 0 0 1.308.416 5.977 5.977 0 0 1 5.972-5.842c1.279 0 2.449.42 3.42 1.106.464-.977.8-2.041.954-3.176.02-.15.029-.293.044-.44l-2.194-.4.232-1.277 2.027.369a7.847 7.847 0 0 0-.231-1.867m.64 9.878a3.51 3.51 0 0 1 .635 2.01 3.357 3.357 0 0 1-1.423 2.767 3.322 3.322 0 0 1-1.911.6 3.477 3.477 0 0 1-2.85-1.501 3.534 3.534 0 0 1-.52-1.153c-.9.287-1.871.446-2.906.445a9.577 9.577 0 0 1-2.906-.442c-.099.4-.271.79-.523 1.15a3.474 3.474 0 0 1-2.849 1.5 3.294 3.294 0 0 1-1.91-.6 3.354 3.354 0 0 1-1.426-2.764c0-.692.208-1.398.638-2.014a3.431 3.431 0 0 1 1.128-1.027c-1.001-1.467-1.656-3.21-1.9-5.065-.017-.126-.025-.25-.039-.376l-1.001.182L.98 9.53l1.151-.21c-.001-.04-.004-.08-.004-.118a9.04 9.04 0 0 1 .244-2.17l-1.281-.18.183-1.287 1.532.217A5.987 5.987 0 0 1 4.308 3.74C5.903 2.34 8.379 1.572 12 1.57c3.618.002 6.095.77 7.689 2.17a5.98 5.98 0 0 1 1.502 2.043l1.536-.217.183 1.286-1.285.182c.168.696.246 1.425.244 2.169 0 .039-.004.079-.004.119l1.153.209-.233 1.278-1.002-.183c-.012.124-.021.25-.037.374-.237 1.854-.896 3.605-1.904 5.075.432.25.827.583 1.133 1.019z"/>
        <path fill="#ff8c00" d="M13.416 6.994a.77.77 0 0 0-.766.768h-1.299a.774.774 0 0 0-.77-.768.77.77 0 0 0-.768.768h-1.3a2.07 2.07 0 0 1 2.068-2.068c.551 0 1.048.22 1.419.571.37-.35.867-.57 1.416-.57a2.07 2.07 0 0 1 2.071 2.067h-1.3a.77.77 0 0 0-.771-.768M7.661 12.203a1.174 1.174 0 1 1 0-2.348 1.174 1.174 0 0 1 0 2.348M16.344 12.203a1.174 1.174 0 1 1 0-2.348 1.174 1.174 0 0 1 0 2.348"/>
    </g>
</svg>
