<svg xmlns="http://www.w3.org/2000/svg" width="32" height="32" viewBox="0 0 32 32">
    <defs>
        <clipPath id="a">
            <path d="M0 24h24V0H0z"/>
        </clipPath>
    </defs>
    <g clip-path="url(#a)" transform="matrix(1.33333 0 0 -1.33333 0 32)">
        <path fill="#595959" d="M22.571 7.152l-.03 1.3-2.668-.06-2.319-.989a6.841 6.841 0 0 1-.46 1.198l2.228 1.322 2.382.38-.202 1.281-2.63-.418-2.406-1.426-.096.163a8.93 8.93 0 0 1-.716 1.02l2.077 1.458 2.348.56-.3 1.263-2.593-.617-2.417-1.697c-.482.46-.979.846-1.456 1.161l1.993 1.401 2.352.56-.3 1.263-2.595-.615-2.686-1.89c-.435.233-.88.514-1.3.874l2.375 1.667 2.347.56-.302 1.262-2.589-.615-2.693-1.89c-.028.043-.063.075-.09.12-.233.398-.4.81-.539 1.224l2.232 1.57 2.35.556-.3 1.266-2.593-.614-2.01-1.413a7.858 7.858 0 0 0-.068.977c0 .088.002.158.004.208l-.542.026 2.501 2.567-.93.907-2.528-2.593-2.508 2.611-.939-.9 2.402-2.498-.452.022c-.008-.134-.008-.25-.008-.35 0-.454.033-.93.098-1.418l-2.132.516-2.636-.374.183-1.288 2.391.34 2.485-.603c.111-.393.248-.788.417-1.182l-2.386.193-2.54-.783.382-1.244 2.306.712 2.963-.24c.255-.39.528-.74.816-1.044l-2.098-.2-2.373-1.215.592-1.157 2.146 1.1 3.134.3c.524-.352 1.006-.603 1.357-.787.031-.016.07-.043.101-.06l-2.372-.26L6.363 9.42l.586-1.163 2.164 1.096 3.546.39c.305-.284.582-.604.832-.952l-2.826-.409-2.302-1.327.647-1.129 2.093 1.205 3.136.456c.195-.354.327-.625.41-.9l-3.103-.716L9.358 4.45l.743-1.068 1.982 1.38 2.672.617a7.86 7.86 0 0 0-.056-.496l.44-.063-2.684-2.153.813-1.016 2.824 2.267 2.171-2.893 1.041.78-2.03 2.706.395-.057v.002c.07.477.102.917.102 1.333.001.1-.009.193-.013.29l2.395 1.02z"/>
    </g>
</svg>
