<svg xmlns="http://www.w3.org/2000/svg" width="32" height="32" viewBox="0 0 32 32">
    <defs>
        <clipPath id="a">
            <path d="M0 24h24V0H0z"/>
        </clipPath>
    </defs>
    <g clip-path="url(#a)" transform="matrix(1.33333 0 0 -1.33333 0 32)">
        <path fill="#00f" d="M9.244 14.719a.727.727 0 1 1 0-1.453.727.727 0 0 1 0 1.453"/>
        <path fill="#00f" d="M21.773 4.714H18.37v2.949a1.635 1.635 0 1 1-3.27 0v-2.95h-3.405l.002 3.893c0 .656-.18 1.214-.53 1.612a1.74 1.74 0 0 1-1.318.585 2.1 2.1 0 0 1-1.165-.365C7.42 9.418 7.519 7.754 4.946 7.715h-.08c-1.361.04-1.9.629-2.266 1.308a3.56 3.56 0 0 0-.316.999h1.139c.07-.176.174-.332.303-.458.267-.263.613-.384.946-.384.643.002 1.339.533 1.339 1.36v5.246a3.506 3.506 0 0 0 3.5 3.5h4.525a3.504 3.504 0 0 0 3.498-3.5 3.505 3.505 0 0 0-3.499-3.501v-1.227a4.726 4.726 0 0 1 4.725 4.728c0 .545-.092 1.07-.26 1.557a3.505 3.505 0 0 0 3.272-3.493zm-3.501 13.864h-.422a4.72 4.72 0 0 1-3.815 1.937H9.511a4.728 4.728 0 0 1-4.728-4.73V10.54c-.016-.148-.024-.102-.112-.133-.076.036-.104-.047-.135.228a.613.613 0 0 1-.613.613H1.615a.614.614 0 0 1-.613-.582C1 10.655 1 10.636 1 10.606a5.042 5.042 0 0 1 .503-2.134c.468-.98 1.555-1.977 3.352-1.985h.09c3.303-.037 4 2.833 4.42 2.929a.89.89 0 0 0 .483.16c.305-.04.568-.087.62-.97V4.099c0-.163.063-.317.181-.433a.608.608 0 0 1 .432-.181h4.631a.617.617 0 0 1 .616.614v3.564c0 .225.182.406.407.408a.409.409 0 0 0 .407-.408V4.099a.614.614 0 0 1 .615-.614h4.63a.615.615 0 0 1 .614.614v9.75a4.73 4.73 0 0 1-4.73 4.729"/>
    </g>
</svg>
