<svg xmlns="http://www.w3.org/2000/svg" width="32" height="32" viewBox="0 0 32 32">
    <defs>
        <clipPath id="a">
            <path d="M0 24h24V0H0z"/>
        </clipPath>
    </defs>
    <g clip-path="url(#a)" transform="matrix(1.33333 0 0 -1.33333 0 32)">
        <path fill="#b45000" d="M12.002 15.98c-.783 0-1.419-1.315-1.419-2.43 0-1.115.636-1.605 1.42-1.605.782 0 1.418.49 1.418 1.604 0 1.116-.636 2.431-1.419 2.431M8.498 16.782a.87.87 0 0 1-.87-.87.87.87 0 1 1 .87.87M15.508 16.782a.872.872 0 1 1 0-1.743.872.872 0 0 1 0 1.743"/>
        <path fill="#b45000" d="M17.18 12.379c1.7-2.215 2.3-4.131 2.3-5.643-.003-1.467-.562-2.59-1.291-3.362-.724-.774-1.644-1.158-2.19-1.147h-4.822c-.631.038-1.724.388-1.73 1.94.054 1.673.817 2.21 1.99 2.264.947-.002 1.567-.266 1.967-.516a2.68 2.68 0 0 0 .423-.334c.085-.087.097-.116.1-.111l1.003.709c-.055.09-1.111 1.48-3.492 1.477A3.388 3.388 0 0 1 9.99 7.35H6.047a.165.165 0 0 0-.052.044V9.17a.21.21 0 0 0 .038.034l-.005.009h4.023l.185 1.199a5.825 5.825 0 0 0-3.82 3.905l-.116.402-.415.038c-1.006.099-1.637.698-2.1 1.586-.45.88-.638 2.01-.634 2.839-.002.375.04.693.089.86.022.38 1.216 1.185 2.643 1.148.696 0 1.424-.16 2.087-.535l.34-.193.32.227a5.793 5.793 0 0 0 3.373 1.084 5.802 5.802 0 0 0 3.372-1.084l.319-.227.34.193a4.188 4.188 0 0 0 2.085.535c1.426.037 2.622-.77 2.645-1.148.045-.163.088-.483.088-.86.002-.828-.188-1.958-.635-2.84-.465-.887-1.093-1.486-2.098-1.585l-.416-.038-.116-.402a5.558 5.558 0 0 0-.52-1.19l-.23-.405zm4.13 3.41c.567 1.125.767 2.397.768 3.394 0 .46-.043.858-.13 1.186-.452 1.338-2.06 2.01-3.83 2.05-.764 0-1.576-.15-2.348-.518A6.994 6.994 0 0 1 12.003 23a6.999 6.999 0 0 1-3.77-1.1 5.513 5.513 0 0 1-2.35.519c-1.77-.04-3.378-.71-3.827-2.048-.092-.332-.131-.73-.133-1.188.002-1 .202-2.27.769-3.393.5-1.01 1.382-1.932 2.669-2.194a7.033 7.033 0 0 1 2.256-3.154h-1.59c-.73-.07-1.185-.5-1.26-1.215v-1.89c.075-.715.53-1.143 1.26-1.214H8.68c-.301-.54-.461-1.203-.458-1.956-.008-1.123.454-1.974 1.066-2.473A3.022 3.022 0 0 1 11.177 1h4.822c1.986.03 4.675 2.137 4.708 5.736 0 1.769-.675 3.842-2.38 6.149.116.226.222.463.314.71 1.287.262 2.168 1.182 2.67 2.195"/>
    </g>
</svg>
