<svg xmlns="http://www.w3.org/2000/svg" width="32" height="32" viewBox="0 0 32 32">
    <defs>
        <clipPath id="a">
            <path d="M0 24h24V0H0z"/>
        </clipPath>
    </defs>
    <g clip-path="url(#a)" transform="matrix(1.33333 0 0 -1.33333 0 32)">
        <path fill="#00f" d="M19.424 2.417a.838.838 0 0 0-1.155.309l-.684 1.177a8.186 8.186 0 0 1 1.612.608l.54-.932a.854.854 0 0 0-.313-1.162m-7.868 3.616c-.31.21-.846.484-1.564.481-.351 0-.736-.066-1.15-.211a4.376 4.376 0 0 0-1.73-.363c-2.701.051-4.67 1.197-4.681 3.712.002 1.981.853 3.328 2.043 4.335H8.42a4.023 4.023 0 0 1 2.063-.581c1.876 0 3.44 1.285 3.896 3.021.063-.132.132-.259.179-.401.003-.132.373-1.381 1.636-1.335 3.022-.003 5.307-2.415 5.312-4.865-.005-2.6-2.64-4.895-6.097-4.897-1.471 0-2.81.422-3.854 1.104m-5.95-3.307a.845.845 0 0 0-1.162-.307.847.847 0 0 0-.426.734c0 .14.036.285.118.424l.78 1.347a8.053 8.053 0 0 1 1.816-.259zM2.294 17.458h1.422c.746-.58 1.759-.918 2.833-.928l-.001.004c.105-.45.284-.869.524-1.247H2.294zm2.256 3.616c.492.374 1.22.627 2.039.627.767.002 1.58-.211 2.29-.537l.004.001a4.033 4.033 0 0 1-2.41-3.33c-.77.021-1.455.262-1.923.617-.5.38-.748.839-.748 1.31 0 .473.249.931.748 1.312m8.677-3.624a2.75 2.75 0 0 0-2.743-2.746 2.752 2.752 0 0 0-2.748 2.746c0 .123.02.24.037.359.367.682.905.913 1.494.925.482.005.962-.198 1.209-.452.156-.147.292-.481.287-.788-.008-.348-.126-.559-.327-.655a.36.36 0 0 0-.146-.026c-.232.007-.404.166-.406.336 0 .047.01.122.058.218l-1.182.544a1.824 1.824 0 0 1-.176-.762c.015-1.02.882-1.634 1.706-1.634.23 0 .47.044.699.149.772.372 1.082 1.152 1.074 1.83-.004.624-.213 1.243-.668 1.706-.49.485-1.162.754-1.878.811.302.114.625.184.967.185a2.75 2.75 0 0 0 2.743-2.746m7.08-12.262c1.512 1.119 2.488 2.752 2.502 4.638-.016 3.246-2.898 6.156-6.614 6.164-.394.047-.22.029-.4.441a4.88 4.88 0 0 1-1.452 2.162 4.022 4.022 0 0 1-3.488 2.866 7.255 7.255 0 0 1-.537.399c-1.04.672-2.375 1.139-3.73 1.143-2.132-.004-4.046-1.297-4.086-3.239.008-.362.099-.692.225-1.004h-.6a1.134 1.134 0 0 1-1.133-1.131v-2.509a1.134 1.134 0 0 1 1.133-1.131h.526c-.903-1.101-1.524-2.507-1.521-4.335-.011-1.665.726-2.994 1.854-3.815.22-.164.466-.295.712-.424l-.686-1.184a2.149 2.149 0 0 1-.294-1.076A2.147 2.147 0 0 1 3.79 1.295a2.126 2.126 0 0 1 1.068-.292h.01a2.146 2.146 0 0 1 1.863 1.071l1.56 2.695c.356.076.697.184 1.023.323.252.089.485.123.677.123.396-.004.644-.134.849-.265 1.268-.832 2.85-1.322 4.569-1.322.273 0 .542.016.809.04l.924-1.594a2.143 2.143 0 0 1 1.854-1.071h.006c.366 0 .74.095 1.08.292a2.156 2.156 0 0 1 .779 2.936z"/>
    </g>
</svg>
