<svg xmlns="http://www.w3.org/2000/svg" width="32" height="32" viewBox="0 0 32 32">
    <defs>
        <clipPath id="a">
            <path d="M0 24h24V0H0z"/>
        </clipPath>
    </defs>
    <g clip-path="url(#a)" transform="matrix(1.33333 0 0 -1.33333 0 32)">
        <path fill="#00be3c" d="M6.848 18.35a.9.9 0 0 1-.9-.901.9.9 0 1 1 .9.902"/>
        <path fill="#00be3c" d="M21.222 4.541c-.386-.652-.935-1.215-1.833-1.215-.302 0-.658.063-1.085.229-.89.355-1.255.736-1.7 1.157-.425.421-1.024.905-1.994.994a2.212 2.212 0 0 1-.266.013C12.299 5.591 11.42 3.734 9.6 3.456a3.91 3.91 0 0 0-.775-.076c-1.411.048-2.277.683-2.307 2.105 0 .14.01.29.03.449.089.891 1.214 2.535 2.35 3.959.565.724 1.127 1.416 1.559 2.014.425.626.766 1.036.809 1.674 0 .083-.01.174-.041.278l-.195.624-.61-.242c-1.296-.511-2.226-.614-4.19-.618a4.133 4.133 0 0 0-2.41.771h3.607l.002 1.286-4.54.001h-.19a3.17 3.17 0 0 0-.374 1.453c-.011 1.879 1.689 3.375 3.94 3.513.288.018.563.025.83.025 4.935-.056 6.555-2.523 6.606-5.196 0-.135-.003-.269-.013-.402-.218-3.106-1.636-4.787-2.826-6.114-.545-.624-.866-1.155-.888-1.753a.958.958 0 0 1 .245-.66.917.917 0 0 1 .68-.282c.494.015.902.247 1.43.641.406.324 1.536.942 2.529.927.318 0 .623-.054.91-.183.574-.245.977-.817 1.486-1.462.486-.624 1.21-1.357 2.383-1.35a3.208 3.208 0 0 1 1.922.691c-.072-.367-.18-.723-.337-.988m1.73 3.037l-1.352.111a3.283 3.283 0 0 0-.508-.785c-.36-.414-.827-.75-1.457-.75-.601.011-.867.274-1.36.858-.453.552-.966 1.384-1.974 1.843a3.565 3.565 0 0 1-1.443.295c-1.153-.013-2.166-.462-2.842-.872 1.209 1.353 2.769 3.376 2.982 6.711l.015.497c0 1.644-.581 3.301-1.895 4.526-1.314 1.229-3.315 1.977-6.021 1.977 0 0-.598-.01-.91-.029-2.763-.147-5.166-2.089-5.176-4.826.008-2.716 2.384-4.822 5.219-4.825 0 0 1.439-.093 3.053.223-.441-.595-1.042-1.348-1.637-2.104 0 0-2.186-2.574-2.403-4.319L5.2 5.472c0-1.045.488-2.104 1.088-2.536.882-.716 1.628-.87 2.536-.87.772 0 1.026.1 1.026.1 2.344.545 3.517 2.279 4.388 2.248 1.015 0 1.46-.654 1.46-.654.415-.398 1.018-1.001 2.128-1.428a4.233 4.233 0 0 1 1.562-.32c1.534.002 2.496 1.023 2.973 1.879.566 1.014.618 2.232.627 2.964z"/>
    </g>
</svg>
