<svg xmlns="http://www.w3.org/2000/svg" width="32" height="32" viewBox="0 0 32 32">
    <defs>
        <clipPath id="a">
            <path d="M0 24h24V0H0z"/>
        </clipPath>
    </defs>
    <g clip-path="url(#a)" transform="matrix(1.33333 0 0 -1.33333 0 32)">
        <path fill="#ff8c00" d="M19.784 4.748V3.131h-1.736c.206.181.484.34.896.455.27.072.457.314.457.592-.015 1.783-1.08 3.17-1.702 4.283-.006.012-.016.021-.022.031l.003.002a3.593 3.593 0 0 0-.362.928c-.06.246-.088.49-.088.73-.002.739.255 1.446.524 1.965.266.518.522.815.518.82l-.943.784c-.03-.051-1.309-1.535-1.325-3.569 0-.332.036-.674.122-1.023.031-.127.075-.236.112-.354-.189-.007-.374-.025-.567-.025-1.04 0-1.912.076-2.658.191a.604.604 0 0 1-.494-.138.622.622 0 0 1-.213-.469V3.131H10.57c.207.181.485.34.9.455a.617.617 0 0 1 .454.592c-.02 3.392-2.3 5.92-2.33 5.972a.617.617 0 0 1-.653.178s-.047-.016-.179-.041a3.276 3.276 0 0 0-.563-.051c-.62.006-1.47.162-2.295.983-.534.541-.692 1.154-.698 1.892-.008.95.3 1.96.41 2.876.19.044.367.071.565.129.374.103.722.245 1.05.407-.077-.59-.139-1.24-.14-1.81.031-.602-.012-1.09.42-1.598.278-.281.676-.543 1.184-.545.455 0 .893.225 1.258.594.545.615.81 1.728 1.195 3.002.346 1.237.664 2.537.81 2.926.16.454.364.948.616 1.281.266.337.493.489.864.496.701.054 1.35-.884 1.654-1.775a.613.613 0 0 1 1.155 0c.306.89.955 1.83 1.657 1.775.368-.007.596-.159.861-.496.256-.333.458-.827.621-1.279.23-.633 1.033-3.581 1.852-5.196.18-.351.531-1.027.53-1.795 0-.078-.002-.152-.008-.226a.625.625 0 0 1 .013-.184c-.012-2.179-1.934-3.83-1.989-6.945M2.228 17.719c-.01.512.401.973.957 1.324a4.828 4.828 0 0 0 1.114.512l.208.07.12.19a1.625 1.625 0 0 0 2.754.031l.201-.309.447.143c.55.177.746.18.938.133.193-.047.406-.186.41-.407a.413.413 0 0 0-.41-.408c-.102-.005-.172-.068-.682.058l-.629.151-.036-.558c-.112-.62-.588-.992-1.78-1.355-.826-.239-1.55-.349-2.125-.349-1.212.05-1.487.346-1.487.774m20.764-5.795c.002.062.004.121.004.179-.002 1.127-.497 2.01-.663 2.348-.728 1.422-1.532 4.32-1.793 5.058-.174.482-.4 1.08-.794 1.603-.38.522-1.016.99-1.842.985-1.079-.035-1.776-.677-2.234-1.391-.458.714-1.154 1.356-2.232 1.391-.829.005-1.464-.465-1.842-.985-.393-.523-.622-1.121-.795-1.605-.194-.542-.49-1.784-.834-3.009-.305-1.186-.799-2.459-.879-2.465-.229-.222-.344-.236-.393-.236-.053-.004-.154.031-.299.168-.025.07-.086.371-.076.748-.004 1.025.248 2.511.354 3.087a1.88 1.88 0 0 1 .293-.029 1.635 1.635 0 1 1 0 3.269c-.293 0-.54-.053-.85-.147a2.853 2.853 0 0 1-4.413-.251c-.646-.224-2.593-.962-2.704-2.923a1.796 1.796 0 0 1 .843-1.548c.511-.326 1.146-.452 1.872-.454.2 0 .425.035.641.056-.13-.705-.372-1.668-.378-2.662-.007-.92.238-1.947 1.06-2.761C6.12 9.262 7.358 9.004 8.198 9.01c.273 0 .508.025.691.054.194-.253.49-.675.79-1.234.462-.848.912-1.978 1-3.213a3.239 3.239 0 0 1-1.622-1.439.843.843 0 0 1-.117-.422c.061-.643.514-.836.897-.854h3.082c.163 0 .317.067.432.182a.6.6 0 0 1 .182.434v5.117a19.233 19.233 0 0 1 2.137-.114c.386 0 .764.014 1.135.04.577-.965 1.2-1.952 1.34-2.95a3.235 3.235 0 0 1-1.609-1.433.843.843 0 0 1-.118-.422c.062-.643.514-.836.898-.854h3.08c.164 0 .318.067.433.182a.604.604 0 0 1 .182.434v2.23c-.059 2.537 1.92 4.123 1.988 7.078a.627.627 0 0 1-.008.098"/>
    </g>
</svg>
