<svg xmlns="http://www.w3.org/2000/svg" width="32" height="32" viewBox="0 0 32 32">
    <defs>
        <clipPath id="a">
            <path d="M0 24h24V0H0z"/>
        </clipPath>
    </defs>
    <g clip-path="url(#a)" transform="matrix(1.33333 0 0 -1.33333 0 32)">
        <path fill="#00be3c" d="M6.546 16.081a.856.856 0 1 1-.891.82.856.856 0 0 1 .89-.82M17.459 16.081a.856.856 0 1 1 .07 1.71.856.856 0 0 1-.07-1.71M17.606 9.379c-1.725 0-3.95-.408-5.606-1.963-1.66 1.553-3.885 1.963-5.608 1.965a9.22 9.22 0 0 1-1.979-.201l-.097-.023.24-1.031.022-.095.096.02a8.043 8.043 0 0 0 1.718.174l.008.066.003-.064c1.691 0 3.821-.467 5.162-2.021a.574.574 0 0 1 .43-.195h.007c.166 0 .325.072.434.197 1.335 1.548 3.454 2.017 5.148 2.017h.044c.68 0 1.281-.076 1.701-.173l.096-.023.237 1.032.026.12h-.125a9.006 9.006 0 0 1-1.957.198"/>
        <path fill="#00be3c" d="M11.565 9.62l-.043.09-.804 1.643-1.039-.504.844-1.736zM14.323 10.852l-.09.04-.862.42-.09.043-.844-1.735 1.04-.506z"/>
        <path fill="#00be3c" d="M12.001 4.896c-3.385 0-5.914 1.242-7.102 1.97-2.208 1.41-2.544 2.306-2.593 2.583.084.596.863 2.09 2.725 3.862l.733.697-.496.882c-.254.45-.486.936-.692 1.445a1.98 1.98 0 0 0-.144.748c0 .83.495 1.565 1.276 1.877.23.096.475.144.727.144h.02c.826 0 1.561-.5 1.87-1.265.108-.27.202-.535.286-.795l.37-1.136 1.163.272c.641.15 1.249.223 1.857.223a8.08 8.08 0 0 0 1.858-.223l1.163-.27.37 1.133c.085.261.179.526.284.792a2.01 2.01 0 0 0 2.627 1.122 2.006 2.006 0 0 0 1.265-1.872c0-.26-.048-.512-.144-.75-.203-.505-.435-.99-.691-1.443l-.497-.882.734-.698c1.864-1.775 2.642-3.268 2.724-3.862-.047-.275-.379-1.172-2.572-2.571a13.783 13.783 0 0 0-7.121-1.982m7.865 9.356c.274.486.531 1.018.764 1.597a3.316 3.316 0 0 1-2.455 4.494c-.072.014-.145.012-.217.02-.132.018-.263.04-.394.04h-.019c-.081 0-.16-.012-.24-.018-.082-.006-.166-.007-.247-.018-.081-.013-.161-.036-.242-.054-.077-.018-.156-.03-.232-.053-.101-.031-.197-.073-.294-.114-.053-.021-.107-.036-.158-.061a3.09 3.09 0 0 1-.317-.178c-.034-.021-.072-.037-.106-.06a3.248 3.248 0 0 1-.362-.281c-.007-.006-.016-.011-.023-.018a3.29 3.29 0 0 1-.855-1.23 15.464 15.464 0 0 1-.314-.872 9.46 9.46 0 0 1-2.154.257 9.444 9.444 0 0 1-2.153-.257c-.093.285-.197.576-.315.873a3.293 3.293 0 0 1-.228.46c-.049.084-.108.157-.163.234-.042.059-.079.122-.125.177-.068.082-.144.155-.219.229-.042.042-.078.089-.122.128-.064.058-.135.106-.204.159-.061.046-.117.098-.181.14-.07.047-.145.083-.219.124-.068.038-.133.08-.204.115-.075.035-.154.06-.231.089-.074.028-.145.061-.221.084-.072.022-.146.033-.219.05-.086.02-.169.045-.256.058-.073.01-.148.01-.222.016-.088.007-.175.02-.264.02h-.02c-.131 0-.264-.022-.396-.038-.072-.009-.142-.007-.214-.02a3.167 3.167 0 0 1-.614-.184 3.315 3.315 0 0 1-1.839-4.315c.233-.577.489-1.108.763-1.595C2.209 12.418 1.052 10.537 1 9.437c.066-1.167 1.277-2.44 3.2-3.667a15.052 15.052 0 0 1 7.801-2.174c3.152 0 5.863.986 7.801 2.174 1.924 1.227 3.133 2.5 3.198 3.667-.05 1.1-1.207 2.981-3.134 4.815"/>
    </g>
</svg>
