<svg xmlns="http://www.w3.org/2000/svg" width="32" height="32" viewBox="0 0 32 32">
    <defs>
        <clipPath id="a">
            <path d="M0 24h24V0H0z"/>
        </clipPath>
    </defs>
    <g clip-path="url(#a)" transform="matrix(1.33333 0 0 -1.33333 0 32)">
        <path fill="#595959" d="M18.268 5.48C20.666 5.48 23 7.732 23 8.947c0 1.218-2.334 3.466-4.73 3.468-1.113 0-2.123-.338-2.893-.885l-1.54.978c.872.633 1.423 1.545 1.423 2.56 0 1.917-1.945 3.468-4.344 3.468-.123 0-.243-.03-.366-.042L9.076 22.41H2.65v-1.299l5.526.002L9.274 18.2a5.976 5.976 0 0 1-.986-.494l-.862 2.29H1v-1.302l5.525.002.693-1.838c-.63-.62-1.035-1.29-1.035-1.789 0-1.158 2.05-3.252 4.386-3.447.063-.19.167-.465.308-.784H9.502L6.508 7.845H4.11v-1.3l2.938.001 2.99 2.995 1.52-.002c.16-.263.342-.532.543-.803H10.14V2.89H8.123v-1.3l3.318.001v5.846h1.815V3.378h4.123V1.591h1.303V4.68h-4.127v1.807a7.135 7.135 0 0 1 3.713-1.006"/>
    </g>
</svg>
