<svg xmlns="http://www.w3.org/2000/svg" width="32" height="32" viewBox="0 0 32 32">
    <defs>
        <clipPath id="a">
            <path d="M0 24h24V0H0z"/>
        </clipPath>
    </defs>
    <g clip-path="url(#a)" transform="matrix(1.33333 0 0 -1.33333 0 32)">
        <path fill="#00be3c" d="M3.872 12.871a.667.667 0 1 1 0 0M21.257 9.316a1.67 1.67 0 0 0-.555-.18v.553a2.185 2.185 0 0 1 .847-.129 1.208 1.208 0 0 0-.292-.244M19.476 7.53a.931.931 0 0 0-1.865 0v.352h1.865zm-10.49 0a.928.928 0 0 0-.928-.93.93.93 0 0 0-.934.93v.352h1.862zm-6.76 4.661a1.567 1.567 0 0 0 1.566 1.564 1.53 1.53 0 0 0 1.016-.389l.354-.305.003.002c.185-.194.454-.492.749-.802-.004-.09-.016-3.123-.016-3.123-2.804.232-3.638 1.786-3.671 3.053m10.459 5.185v-2.459L9.908 13.49 7.86 14.54c.942 1.538 2.71 2.65 4.825 2.835m6.052-2.835l-2.045-1.05-2.78 1.425v2.46c2.114-.185 3.882-1.296 4.825-2.835m-1.431-2.115l1.939.995c.145-.458.229-.936.23-1.429v-2.88h-2.17zm-6.786 0l2.778 1.424 2.779-1.424V9.11H10.52zM7.123 9.11l.002 2.881c0 .492.085.971.23 1.428l1.94-.994V9.11zm15.058 1.826a2.262 2.262 0 0 0-.75-.15c-.366.005-.505.123-.621.24a.773.773 0 0 0-.108.155v.81c-.01 3.723-3.37 6.633-7.401 6.638-3.36-.004-6.242-2.026-7.121-4.852a3.565 3.565 0 0 1-.62.56 2.77 2.77 0 0 1-1.768.646A2.793 2.793 0 0 1 1 12.19a3.975 3.975 0 0 1 1.322-2.937c.809-.736 2.013-1.219 3.576-1.327V7.53a2.16 2.16 0 0 1 2.16-2.158 2.161 2.161 0 0 1 2.158 2.158v.352h6.168V7.53a2.16 2.16 0 0 1 4.318 0v.372a2.96 2.96 0 0 1 1.159.347c.614.323 1.158 1.072 1.139 2.11v.87z"/>
    </g>
</svg>
