<svg xmlns="http://www.w3.org/2000/svg" width="32" height="32" viewBox="0 0 32 32">
    <defs>
        <clipPath id="a">
            <path d="M0 24h24V0H0z"/>
        </clipPath>
    </defs>
    <g clip-path="url(#a)" transform="matrix(1.33333 0 0 -1.33333 0 32)">
        <path fill="#595959" d="M18.884 4.83C17.187 3.81 14.739 3.307 12 3.311c-2.74-.004-5.186.498-6.883 1.517C3.423 5.86 2.448 7.3 2.436 9.48c.003 1.853.599 3.85 1.717 5.562.202.31.42.611.655.9.029.034.054.071.083.105.247.295.517.573.8.84.096.09.198.173.299.26.2.172.409.335.625.491.123.088.242.178.369.26.31.202.634.388.975.552 1.176.567 2.527.9 4.042.902 1.516-.002 2.866-.335 4.043-.902.339-.164.662-.349.972-.55.13-.084.25-.176.376-.265.212-.154.417-.314.614-.483.104-.09.21-.177.31-.27.28-.264.547-.538.793-.83.033-.04.063-.085.097-.126.23-.283.445-.578.642-.883 1.118-1.713 1.715-3.709 1.719-5.563-.014-2.179-.988-3.62-2.683-4.65m2.867 10.66c.82.824 1.249 1.89 1.249 2.935a3.481 3.481 0 0 1-1.003 2.486 3.484 3.484 0 0 1-2.486 1.005c-1.047 0-2.114-.428-2.938-1.25a4.284 4.284 0 0 1-.633-.839 10.6 10.6 0 0 1-3.94.753 10.591 10.591 0 0 1-3.937-.753c-.176.295-.377.58-.635.838-.823.823-1.89 1.251-2.937 1.251a3.475 3.475 0 0 1-2.486-1.007C1.329 20.234 1 19.332 1 18.424c.002-1.046.429-2.11 1.253-2.935.153-.155.317-.289.484-.41-1-1.77-1.524-3.75-1.53-5.6-.014-2.587 1.29-4.536 3.28-5.705 1.989-1.18 4.632-1.687 7.514-1.689 2.884.002 5.526.508 7.513 1.69 1.99 1.168 3.296 3.117 3.28 5.704-.004 1.85-.53 3.83-1.527 5.6.166.122.329.255.484.41"/>
        <path fill="#595959" d="M8.893 12.023c-.983.604-2.424.048-3.218-1.241-.794-1.29-.64-2.827.343-3.432C7 6.745 8.44 7.3 9.235 8.59s.64 2.829-.342 3.433M15.11 12.023c-.982-.604-1.136-2.142-.342-3.432.794-1.29 2.235-1.846 3.217-1.241.982.605 1.137 2.142.344 3.432-.795 1.289-2.236 1.845-3.219 1.24M12.002 6.39c-.556 0-1.006-.274-1.006-.61 0-.34.45-.613 1.006-.613.554 0 1.005.274 1.005.613 0 .336-.45.61-1.005.61"/>
    </g>
</svg>
