<svg xmlns="http://www.w3.org/2000/svg" width="32" height="32" viewBox="0 0 32 32">
    <defs>
        <clipPath id="a">
            <path d="M0 24h24V0H0z"/>
        </clipPath>
    </defs>
    <path fill="#ff8c00" d="M5.239 15.89h1.637v-2.647H5.239zM12.012 13.243h-1.635v2.648h1.635z"/>
    <g clip-path="url(#a)" transform="matrix(1.33333 0 0 -1.33333 0 32)">
        <path fill="#ff8c00" d="M18.508 10.404a7.32 7.32 0 0 0-2.831.008c-.245.32-.495.623-.751.883a5.984 5.984 0 0 1-2.141 1.363c.527 1.213 1.558 2.928 3.405 3.975.943.541 1.734.74 2.384.74 1.47.002 2.436-1.039 2.923-2.312.17-.468.275-.973.275-1.464-.041-1.373-.666-2.64-3.264-3.193M15.97 3.238c-.416-.404-.997-.592-1.736-.596a4.31 4.31 0 0 0-.677.05l2.968 2.966c.037-.248.058-.486.055-.713-.004-.738-.197-1.303-.61-1.707m-.812 5.783c.267-.42.512-.867.723-1.334l-4.367-4.365c-.468.207-.92.451-1.34.717zM7.455 7.7a5.472 5.472 0 0 1 4.304 4 4.684 4.684 0 0 0 2.21-1.195L8.69 5.228c-.695.73-1.1 1.6-1.236 2.471m-5.23 5.375a4.25 4.25 0 0 0 4.246 4.245 4.25 4.25 0 0 0 4.242-4.245A4.249 4.249 0 0 0 6.47 8.832a4.25 4.25 0 0 0-4.245 4.242m9.207 4.777c.695 2.404 1.902 3 3.177 3.033a4.11 4.11 0 0 0 1.688-.393c.874-.406 1.609-1.062 1.927-1.918-.814-.063-1.696-.332-2.643-.875-1.903-1.089-3.03-2.717-3.677-4.019a5.428 5.428 0 0 1-.726 2.171c-.001.028-.003.054-.003.083 0 .616.075 1.26.257 1.918m11.215-2.365c-.48 1.317-1.534 2.608-3.12 2.99-.332 1.515-1.493 2.573-2.72 3.13a5.327 5.327 0 0 1-2.198.506c-1.786.031-3.638-1.156-4.362-3.937a8.206 8.206 0 0 1-.194-.973 5.428 5.428 0 0 1-2.331 1.196 3.462 3.462 0 0 0 3.416 2.96v1.226c-2.37-.002-4.31-1.76-4.63-4.039l-.038.002-.042-.002c-.321 2.28-2.258 4.04-4.628 4.04v-1.228c1.742 0 3.17-1.29 3.416-2.96A5.463 5.463 0 0 1 6.234 7.62a5.84 5.84 0 0 1 1.665-3.352c1.484-1.457 4.04-2.83 6.335-2.85h.02c.94 0 1.87.26 2.57.94.712.693.986 1.637.984 2.588-.015 1.373-.528 2.846-1.247 4.13.184-.013.366-.032.558-.032.522 0 1.065.048 1.623.156 3.014.547 4.297 2.516 4.256 4.398a5.52 5.52 0 0 1-.35 1.89"/>
    </g>
</svg>
