<svg xmlns="http://www.w3.org/2000/svg" width="32" height="32" viewBox="0 0 32 32">
    <defs>
        <clipPath id="a">
            <path d="M0 24h24V0H0z"/>
        </clipPath>
    </defs>
    <g clip-path="url(#a)" transform="matrix(1.33333 0 0 -1.33333 0 32)">
        <path fill="red" d="M6.184 6.86a2.61 2.61 0 0 1-1.253 4.924c.06.81.24 1.61.549 2.373l1.736 1.735 3.242-3.242a2.94 2.94 0 1 1 4.063-4.064l3.433-3.432a7.876 7.876 0 0 0-4.525-1.867A2.613 2.613 0 1 1 8.503 4.54a7.93 7.93 0 0 0-2.32 2.32m13.278 8.637a2.614 2.614 0 0 1-1.326-2.934 2.621 2.621 0 0 1 2.578-1.993 7.88 7.88 0 0 0-1.87-4.524l-3.43 3.432a2.942 2.942 0 0 1-4.063 4.064l-3.243 3.242 1.738 1.737a7.915 7.915 0 0 0 2.37.55 2.619 2.619 0 0 1 1.99-2.58 2.614 2.614 0 0 1 2.935 1.325 7.93 7.93 0 0 0 2.32-2.319m-.148 2.173a9.154 9.154 0 0 1-6.488 2.688 9.219 9.219 0 0 1-2.99-.509c-.048.013-.972.264-2.093.267-.57-.004-1.21-.067-1.808-.295V22H4.672v-2.672H2v-1.26h2.18c-.23-.602-.29-1.243-.294-1.814.003-1.129.255-2.062.263-2.093v-.002a9.144 9.144 0 0 1-.506-2.982 9.146 9.146 0 0 1 2.689-6.49A9.145 9.145 0 0 1 12.824 2h.006c2.344 0 4.695.897 6.482 2.687A9.152 9.152 0 0 1 22 11.177a9.142 9.142 0 0 1-2.688 6.492"/>
    </g>
</svg>
