<svg xmlns="http://www.w3.org/2000/svg" width="32" height="32" viewBox="0 0 32 32">
    <defs>
        <clipPath id="a">
            <path d="M0 24h24V0H0z"/>
        </clipPath>
    </defs>
    <g clip-path="url(#a)" transform="matrix(1.33333 0 0 -1.33333 0 32)">
        <path fill="#ff8c00" d="M6.947 13.925a2.313 2.313 0 1 0 .004 4.626 2.313 2.313 0 0 0-.004-4.626m3.613 2.312a3.612 3.612 0 1 1-7.225 0 3.613 3.613 0 1 1 7.225 0M17.05 13.925a2.313 2.313 0 1 0-.002 4.626 2.313 2.313 0 0 0 .003-4.626m0 5.927a3.612 3.612 0 0 1-3.613-3.614 3.612 3.612 0 1 1 7.225 0 3.612 3.612 0 0 1-3.612 3.614"/>
        <path fill="#ff8c00" d="M17.05 17.11a.873.873 0 1 1 .003-1.747.873.873 0 0 1-.002 1.746M6.95 17.11a.873.873 0 1 1 .001-1.747.873.873 0 0 1-.002 1.746M11.999 5.485c-.808.006-1.42.6-1.476 2.634.056 2.035.668 2.631 1.476 2.637.808-.006 1.42-.602 1.474-2.637-.054-2.034-.666-2.628-1.474-2.634m0 6.57a2.44 2.44 0 0 1-2.088-1.129c-.472-.71-.685-1.653-.687-2.807.002-1.152.215-2.095.687-2.807a2.438 2.438 0 0 1 2.088-1.127h.036c.829 0 1.598.423 2.053 1.127.471.712.684 1.655.686 2.807-.002 1.154-.215 2.096-.686 2.807a2.443 2.443 0 0 1-2.089 1.13"/>
    </g>
</svg>
