<svg xmlns="http://www.w3.org/2000/svg" width="32" height="32" viewBox="0 0 32 32">
    <defs>
        <clipPath id="a">
            <path d="M0 24h24V0H0z"/>
        </clipPath>
    </defs>
    <path fill="#00f" d="M11.963 14.095l1.225-1.228-2.036-2.037 2.036-2.038-1.225-1.226-2.037 2.037-2.038-2.037-1.225 1.226L8.7 10.83l-2.037 2.037 1.225 1.228 2.038-2.039zM25.336 8.792l-1.227-1.226-2.036 2.038-2.037-2.038-1.227 1.226 2.039 2.038-2.039 2.039 1.227 1.225 2.037-2.037 2.036 2.037 1.227-1.225-2.037-2.039z"/>
    <g clip-path="url(#a)" transform="matrix(1.33333 0 0 -1.33333 0 32)">
        <path fill="#00f" d="M12 6.32a1.788 1.788 0 0 0-1.785 1.784 1.784 1.784 0 0 0 3.569 0 1.786 1.786 0 0 0-1.785-1.784m0 4.865a3.082 3.082 0 1 1 3.083-3.08A3.08 3.08 0 0 1 12 11.184"/>
    </g>
</svg>
