<svg xmlns="http://www.w3.org/2000/svg" width="32" height="32" viewBox="0 0 32 32">
    <defs>
        <clipPath id="a">
            <path d="M0 24h24V0H0z"/>
        </clipPath>
    </defs>
    <g clip-path="url(#a)" transform="matrix(1.33333 0 0 -1.33333 0 32)">
        <path fill="#f0f" d="M14.297 8.48a20.866 20.866 0 0 0-1.533-1.33 5.203 5.203 0 0 0-.59-.4 1.546 1.546 0 0 0-.175-.083c-.356.101-1.558 1.087-2.49 1.997-.25.237-.488.47-.706.687h6.394a53.524 53.524 0 0 0-.9-.87m-7.04 2.171l-.472-1.095c.004-.007.948-1.01 2.028-2.026a22.457 22.457 0 0 1 1.633-1.415c.553-.387.919-.71 1.553-.757.634.046 1.002.37 1.552.757 1.55 1.184 3.65 3.428 3.666 3.44l-.474 1.096zM4.856 16.713c.017.779.478 1.1.97 1.119.302-.006.62-.131.903-.515l.53-.733.527.735c.28.385.597.509.9.513.493-.018.954-.34.971-1.12.035-.503-.586-1.39-1.317-2.042a11.032 11.032 0 0 0-1.086-.88c-.275.198-.679.506-1.082.88-.73.652-1.35 1.539-1.316 2.043m2.4-4.482l.35.223c.02.013.807.514 1.618 1.263.794.762 1.697 1.73 1.733 2.996-.002 1.43-1.084 2.417-2.272 2.419a2.32 2.32 0 0 1-1.43-.501 2.32 2.32 0 0 1-1.429.5c-1.186-.001-2.268-.987-2.27-2.418.035-1.265.94-2.234 1.734-2.996.811-.75 1.598-1.25 1.617-1.263zM17.826 14.67a11.187 11.187 0 0 0-1.085-.88c-.275.198-.679.507-1.082.88-.73.65-1.353 1.54-1.316 2.044.016.777.477 1.1.97 1.119.3-.006.617-.131.902-.516l.528-.73.527.73c.283.385.602.51.904.514.491-.016.953-.34.97-1.117.035-.504-.587-1.393-1.318-2.043m.348 4.46a2.325 2.325 0 0 1-1.43-.501 2.329 2.329 0 0 1-1.432.504c-1.186-.003-2.267-.991-2.269-2.42.035-1.267.938-2.233 1.733-2.996.812-.752 1.6-1.252 1.617-1.265l.35-.221.35.22c.02.014.806.514 1.618 1.266.793.763 1.7 1.729 1.732 2.996 0 1.43-1.086 2.415-2.269 2.417"/>
    </g>
</svg>
