<svg xmlns="http://www.w3.org/2000/svg" width="32" height="32" viewBox="0 0 32 32">
    <defs>
        <clipPath id="a">
            <path d="M0 24h24V0H0z"/>
        </clipPath>
    </defs>
    <path fill="#ff8c00" d="M13.013 10.921h-5.67v1.734h5.67zM24.656 10.921h-5.67v1.734h5.67z"/>
    <g clip-path="url(#a)" transform="matrix(1.33333 0 0 -1.33333 0 32)">
        <path fill="#ff8c00" d="M12 9.048c-1.076-.06-1.739-.87-2.319-1.546a11.433 11.433 0 0 1-.944-1.39l1.133-.636v.002s.344.61.827 1.214c.462.624 1.148 1.115 1.303 1.056.153.059.839-.432 1.3-1.056.484-.603.827-1.216.829-1.216l1.134.637c-.013.02-.39.69-.947 1.389-.58.676-1.243 1.487-2.316 1.546M7.342 7.502c-.022-.014-.064-.038-.118-.079l-.34-.254.098-.413a.858.858 0 0 0 .023-.184.587.587 0 0 0-.153-.409.653.653 0 0 0-.477-.205.625.625 0 0 0-.397.134c-.016.019-.036.043-.06.067l-.352.352-.43-.247a.72.72 0 0 0-.356-.101.597.597 0 0 0-.411.161.6.6 0 0 0-.196.45c0 .099.023.205.07.298l.228.47-.407.323a.614.614 0 0 1-.054.04.64.64 0 0 0-.174.444c0 .156.053.308.17.433.12.132.264.19.455.192a.658.658 0 0 0 .117-.01L5 8.896l.229.36c.04.064.063.109.074.132.124.119.283.18.45.18a.643.643 0 0 0 .44-.172c.08-.073.136-.175.173-.346l.095-.457.463-.055c.169-.021.278-.068.36-.142a.65.65 0 0 0 .206-.48.636.636 0 0 0-.148-.414m1.448.414c.002.465-.175.927-.502 1.292l1.73 2.294-.952.877-2.142-1.912a1.943 1.943 0 0 1-1.17.402 1.948 1.948 0 0 1-1.405-.597 1.893 1.893 0 0 1-1.303-.611 1.943 1.943 0 0 1-.129-2.472 1.91 1.91 0 0 1 2.431-2.242c.312-.194.668-.29 1.018-.29h.009c.525 0 1.047.214 1.43.621.346.375.5.848.497 1.294v.052c.328.37.49.834.488 1.292M19.992 7.91a.747.747 0 0 1-.066-.052l-.39-.32.217-.459a.7.7 0 0 0 .07-.305.604.604 0 0 0-.193-.45.61.61 0 0 0-.414-.159.688.688 0 0 0-.348.095l-.433.254-.355-.355c-.024-.024-.043-.048-.06-.068a.647.647 0 0 0-.873.072.588.588 0 0 0-.154.41.84.84 0 0 0 .022.177l.101.415-.337.256c-.059.043-.102.07-.126.084a.64.64 0 0 0-.147.412c0 .177.07.347.21.476.08.075.188.122.361.145l.461.058.095.453c.037.171.092.275.172.35a.653.653 0 0 0 .894-.015c.013-.027.033-.069.068-.125l.235-.375.438.082a.47.47 0 0 0 .1.006.587.587 0 0 0 .452-.187.648.648 0 0 0 0-.876m1.47.44c0 .471-.172.946-.516 1.317a1.893 1.893 0 0 1-1.296.604 1.932 1.932 0 0 1-2.576.198l-2.142 1.91-.953-.877 1.73-2.292a1.949 1.949 0 0 1-.504-1.292c0-.456.162-.923.49-1.293v-.052a1.88 1.88 0 0 1 .495-1.29c.383-.416.91-.628 1.433-.626h.008c.353 0 .707.1 1.017.291a1.92 1.92 0 0 1 1.858.417 1.903 1.903 0 0 1 .574 1.822c.254.343.383.754.381 1.162"/>
    </g>
</svg>
