<svg xmlns="http://www.w3.org/2000/svg" width="32" height="32" viewBox="0 0 32 32">
    <defs>
        <clipPath id="a">
            <path d="M0 24h24V0H0z"/>
        </clipPath>
    </defs>
    <path fill="red" d="M8.53 15.286l1.26 1.188 3.851-4.088v-1.189L9.791 7.11 8.529 8.297l2.474 2.627H7.34v1.733h3.664zM23.473 15.286l-.003-.002-2.476-2.626h3.665v-1.733h-3.666l2.477-2.628-1.259-1.19-3.856 4.09v1.19l3.854 4.087z"/>
    <g clip-path="url(#a)" transform="matrix(1.33333 0 0 -1.33333 0 32)">
        <path fill="red" d="M14.53 7.172c-.454-.958-1.08-1.666-2.53-1.687-1.396.02-1.997.669-2.44 1.568-.363.778-.463 1.704-.482 2.298h2.271V7.27h1.301v2.08h2.356c-.032-.568-.144-1.434-.476-2.18m-9.178 3.48v-1.3h2.421c.022-.693.128-1.793.605-2.841.516-1.186 1.688-2.326 3.567-2.326H12c1.992-.02 3.2 1.219 3.718 2.463.444 1.01.56 2.045.59 2.704h2.34v1.3z"/>
    </g>
</svg>
