<svg xmlns="http://www.w3.org/2000/svg" width="32" height="32" viewBox="0 0 32 32">
    <defs>
        <clipPath id="a">
            <path d="M0 24h24V0H0z"/>
        </clipPath>
    </defs>
    <path fill="#f0f" d="M10.135 11.199L7.716 9.316l-1.064 1.367 3.483 2.716 3.48-2.72-1.064-1.363zM21.862 13.4l3.479-2.72-1.064-1.365-2.415 1.884-2.417-1.884-1.067 1.368zM4.618 17.781l.944.943 2.199-2.201-.944-.943zM7.775 17.781l.946.943 2.198-2.201-.942-.943zM21.075 17.781l.946.943 2.197-2.201-.943-.943zM26.437 15.58l-2.202 2.201.945.943 2.197-2.201z"/>
    <g clip-path="url(#a)" transform="matrix(1.33333 0 0 -1.33333 0 32)">
        <path fill="#f0f" d="M14.842 11.293a2.338 2.338 0 0 1-3.973 1.673l.913-.931c.187.185.437.295.723.297a1.04 1.04 0 0 0 1.038-1.04 1.041 1.041 0 0 0-1.034-1.036h-.002v-.002h-.372V8.956h.374a.904.904 0 0 0 .895-.9.904.904 0 0 0-.897-.895.895.895 0 0 0-.635.263l-.921-.917h-.002c.396-.398.95-.648 1.558-.648a2.198 2.198 0 0 1 1.579 3.722c.463.425.756 1.033.756 1.712"/>
    </g>
</svg>
