<svg xmlns="http://www.w3.org/2000/svg" width="32" height="32" viewBox="0 0 32 32">
    <path fill="#00f" d="M12.746 6.512l-.996-1.42L5.611 9.39l.995 1.418zM26.16 9.39l-6.139-4.3-.996 1.42 6.14 4.3zM22.603 25.776H9.168v-8.537h13.435zm1.733-8.808l5.025-1.937-.624-1.619-5.429 2.093H8.468l-5.433-2.093-.626 1.619 5.026 1.936v9.081L2.41 27.984l.622 1.619 5.432-2.094h14.84l5.432 2.092.624-1.618-5.025-1.935z"/>
    <path fill="#00f" d="M11.804 10.967h-1.733v3.568h1.733zM21.7 10.964h-1.733v3.573H21.7z"/>
</svg>
