<svg xmlns="http://www.w3.org/2000/svg" width="32" height="32" viewBox="0 0 32 32">
    <defs>
        <clipPath id="a">
            <path d="M0 24h24V0H0z"/>
        </clipPath>
    </defs>
    <path fill="#00f" d="M4.568 23.625h14.057V20.44H4.568zm-1.733-4.917H20.36v6.648H2.835zM5.734 12.123L3.317 14.01l-1.07-1.366 3.487-2.718 3.483 2.718L8.15 14.01zM13.979 12.644l3.482-2.719 3.484 2.719-1.07 1.365-2.414-1.886-2.412 1.889z"/>
    <g clip-path="url(#a)" transform="matrix(1.33333 0 0 -1.33333 0 32)">
        <path fill="#00f" d="M20.83 10.969c-.129-.42-.3-.705-.516-.855-.193.107-.359.38-.5.822-.14.44-.209.779-.209 1.015 0 .41.065.893.194 1.454.13.558.301 1.128.515 1.709.151-.495.307-1.048.47-1.662.16-.612.24-1.081.24-1.403 0-.302-.065-.662-.194-1.08m.791 4.242a166.413 166.413 0 0 1-1.307 3.807 33.864 33.864 0 0 1-.629-1.597 41.41 41.41 0 0 1-.662-1.952 22.26 22.26 0 0 1-.515-1.936c-.129-.602-.194-1.097-.194-1.484 0-.667.178-1.372.532-2.113.355-.742.843-1.113 1.468-1.113.602 0 1.086.37 1.452 1.113.365.74.548 1.446.548 2.113 0 .709-.23 1.763-.693 3.162"/>
    </g>
</svg>
