<svg xmlns="http://www.w3.org/2000/svg" width="32" height="32" viewBox="0 0 32 32">
    <defs>
        <clipPath id="a">
            <path d="M0 24h24V0H0z"/>
        </clipPath>
    </defs>
    <g clip-path="url(#a)" transform="matrix(1.33333 0 0 -1.33333 0 32)">
        <path fill="#ff8c00" d="M12 2.227a9.786 9.786 0 0 1 9.772 9.77A9.787 9.787 0 0 1 12 21.774a9.787 9.787 0 0 1-9.773-9.775C2.236 6.602 6.603 2.238 12 2.227m-11 9.77C1 18.076 5.925 23 12 23s11-4.925 11-11.002C23 5.924 18.075 1 12 1S1 5.924 1 11.998"/>
        <path fill="#ff8c00" d="M5.443 9.268l1.173.358c.478-1.652 2.656-3.086 5.371-3.077 2.752-.01 4.952 1.465 5.393 3.145l1.182-.33c-.7-2.418-3.424-4.035-6.575-4.043-3.11.008-5.799 1.58-6.544 3.947M9.364 14.518c0-1.402-.559-2.54-1.252-2.54-.689 0-1.249 1.138-1.249 2.54 0 1.403.56 2.54 1.25 2.54.692 0 1.251-1.137 1.251-2.54M17.138 14.518c0-1.402-.56-2.54-1.25-2.54-.691 0-1.251 1.138-1.251 2.54 0 1.403.56 2.54 1.25 2.54.692 0 1.25-1.137 1.25-2.54"/>
    </g>
</svg>
