<svg xmlns="http://www.w3.org/2000/svg" width="32" height="32" viewBox="0 0 32 32">
    <defs>
        <clipPath id="a">
            <path d="M0 24h24V0H0z"/>
        </clipPath>
    </defs>
    <path fill="#00f" d="M10.137 11.199L7.719 9.315l-1.066 1.368 3.484 2.714 3.484-2.718-1.067-1.364zM21.862 13.397l3.484-2.716-1.067-1.365-2.417 1.884-2.417-1.884-1.064 1.365z"/>
    <g clip-path="url(#a)" transform="matrix(1.33333 0 0 -1.33333 0 32)">
        <path fill="#00f" d="M16.398 5.222V5.22a.928.928 0 0 0-.924.926c-.002 1.388.367 2.727.743 3.712.062.158.122.307.181.446.06-.14.12-.29.181-.448.376-.983.747-2.322.745-3.71a.927.927 0 0 0-.926-.924m-.002 7.817l-.557-.927c-.022-.052-1.656-2.737-1.666-5.966a2.225 2.225 0 1 1 4.45 0c-.01 3.23-1.647 5.914-1.668 5.966z"/>
    </g>
</svg>
