<svg xmlns="http://www.w3.org/2000/svg" width="32" height="32" viewBox="0 0 32 32">
    <defs>
        <clipPath id="a">
            <path d="M0 24h24V0H0z"/>
        </clipPath>
    </defs>
    <g clip-path="url(#a)" transform="matrix(1.33333 0 0 -1.33333 0 32)">
        <path fill="#00f" d="M6.55 15.724a1.05 1.05 0 1 1 2.098.002 1.05 1.05 0 0 1-2.097-.002m-1.3 0a2.349 2.349 0 0 0 4.697 0 2.35 2.35 0 0 0-2.346-2.35 2.351 2.351 0 0 0-2.35 2.35M16.396 14.674a1.05 1.05 0 1 1-1.052 1.051 1.057 1.057 0 0 1 1.052-1.051m-2.35 1.05c0 1.3 1.051 2.35 2.35 2.35a2.348 2.348 0 0 0 2.35-2.35 2.352 2.352 0 0 0-2.35-2.35 2.352 2.352 0 0 0-2.35 2.35M16.102 7.6a3.655 3.655 0 0 1-.409.558c-.623.689-1.668 1.409-3.695 1.417-2.556-.02-3.61-1.157-4.097-1.974zM6.11 6.3l.17.789c.006.095.942 3.8 5.72 3.785 4.78.015 5.711-3.69 5.718-3.785l.17-.788zM15.763 21.994h1.001v-2.916h-1.001zM17.764 21.995h1v-3.438h-1zM19.764 21.996h1.001v-7.375h-1.001z"/>
    </g>
</svg>
