<svg xmlns="http://www.w3.org/2000/svg" width="32" height="32" viewBox="0 0 32 32">
    <defs>
        <clipPath id="a">
            <path d="M0 24h24V0H0z"/>
        </clipPath>
    </defs>
    <path fill="#00f" d="M9.79 16.849l3.851-4.087v-1.19l-3.85-4.086-1.262 1.187 2.475 2.627H7.342v1.734h3.664L8.53 15.662zM24.659 11.301h-3.667l2.477-2.628-1.258-1.189-3.856 4.09v1.19l3.853 4.087 1.264-1.188-.003-.004-2.476-2.624h3.666z"/>
    <g clip-path="url(#a)" transform="matrix(1.33333 0 0 -1.33333 0 32)">
        <path fill="#00f" d="M12 8.782c3.24-.015 4.454-1.388 4.898-2.009.143-.208.176-.299.176-.3l1.206.487c-.022.136-1.408 3.145-6.28 3.123-4.872.022-6.258-2.987-6.28-3.123l1.206-.488c0 .002.033.093.175.301.445.621 1.659 1.994 4.899 2.01"/>
    </g>
</svg>
