<svg xmlns="http://www.w3.org/2000/svg" width="32" height="32" viewBox="0 0 32 32">
    <defs>
        <clipPath id="a">
            <path d="M0 24h24V0H0z"/>
        </clipPath>
    </defs>
    <g clip-path="url(#a)" transform="matrix(1.33333 0 0 -1.33333 0 32)">
        <path fill="red" d="M19.776 3.46c-1.169 0-2.11.465-2.824 1.396a5.038 5.038 0 0 0-1.072 3.151c0 1.189.363 2.24 1.087 3.148.725.91 1.662 1.366 2.81 1.366v-1.299c-.78 0-1.407-.336-1.884-1.008a3.734 3.734 0 0 1-.715-2.207c0-.801.24-1.543.715-2.225.477-.683 1.104-1.023 1.883-1.023zM5.942 19.538l3.672-3.673-.942-.942L5 18.596zm13.06-.942l-3.675-3.673-.942.942 3.672 3.673zM14.937 7.909L14.16 6.87l-2.144 1.623L9.84 6.87 9.06 7.909l2.955 2.176zm-6.82.098c0-1.17-.363-2.221-1.087-3.151-.727-.931-1.662-1.396-2.81-1.396v1.299c.758 0 1.38.34 1.867 1.023.488.682.731 1.424.731 2.225a3.65 3.65 0 0 1-.73 2.224c-.488.661-1.11.991-1.868.991v1.299c1.126 0 2.057-.456 2.793-1.366.737-.908 1.104-1.959 1.104-3.148"/>
    </g>
</svg>
