<svg xmlns="http://www.w3.org/2000/svg" width="32" height="32" viewBox="0 0 32 32">
    <defs>
        <clipPath id="a">
            <path d="M0 24h24V0H0z"/>
        </clipPath>
    </defs>
    <g clip-path="url(#a)" transform="matrix(1.33333 0 0 -1.33333 0 32)">
        <path fill="#a000a0" d="M8.412 18.036c-.604-.307-1.219-.449-1.686-.447-.556 0-.81.185-.857.302a.376.376 0 0 0-.036.167c-.044.35.565 1.271 1.661 1.798.602.307 1.215.45 1.685.45.555-.003.813-.188.858-.308a.342.342 0 0 0 .033-.163c.045-.35-.564-1.272-1.658-1.799m2.96 1.8c0 .253-.057.51-.174.745-.4.764-1.22 1.025-2.019 1.023-.717 0-1.506-.2-2.274-.589-1.343-.707-2.327-1.736-2.372-2.957 0-.247.052-.514.182-.759.392-.752 1.213-1.01 2.011-1.01.716.001 1.501.201 2.271.585 1.347.71 2.33 1.743 2.374 2.961M13.927 19.834c0 .08.013.122.03.155.053.13.306.313.86.315.47.003 1.083-.14 1.69-.448 1.093-.527 1.7-1.448 1.657-1.798a.388.388 0 0 0-.04-.174c-.038-.11-.296-.296-.851-.296-.471-.003-1.085.142-1.685.447-1.094.528-1.708 1.453-1.661 1.8m5.363-2.528c.117.24.175.497.173.751-.045 1.22-1.024 2.253-2.37 2.957-.773.39-1.56.588-2.275.59-.798.002-1.62-.262-2.016-1.02a1.62 1.62 0 0 1-.176-.75c.046-1.22 1.03-2.253 2.375-2.96.767-.388 1.552-.586 2.272-.588.797 0 1.619.26 2.017 1.02M3.688 16.514l-.26-1.274s.005 0 .091-.031c.552-.233 3.672-1.607 3.707-10.187 0-.612-.017-1.258-.05-1.941l1.298-.067v.002c.036.705.051 1.373.051 2.006.06 10.146-4.56 11.488-4.837 11.492M20.31 16.512c-.274-.002-4.9-1.344-4.84-11.49 0-.635.017-1.303.054-2.008l1.299.066v.002c-.035.683-.054 1.33-.054 1.94.002 4.896 1.062 7.46 2.034 8.78.488.663.957 1.024 1.29 1.222.168.097.302.155.386.185.085.032.093.027.09.032zM12.983 9.475c-.202-1.434-.109-2.727-.212-3.533-.046-.406-.144-.654-.227-.746-.082-.086-.16-.16-.545-.168-.386.009-.462.082-.544.168-.37.252-.193 2.144-.442 4.28-.216 1.485-.5 2.84-.496 3.784-.002.596.113.973.284 1.164.163.188.46.36 1.198.365.737-.004 1.033-.175 1.196-.365.17-.19.286-.568.284-1.164.004-.943-.282-2.3-.496-3.785M12 16.089c-.932.006-1.703-.25-2.186-.82-.478-.57-.594-1.28-.596-2.01.004-1.171.305-2.532.511-3.968.184-1.275.091-2.486.208-3.504.064-.506.175-1.003.522-1.427.351-.43.928-.643 1.541-.633h.042c.597 0 1.156.214 1.498.633.926 1.295.4 3 .731 4.93.202 1.437.505 2.796.51 3.97-.003.73-.118 1.44-.596 2.009-.486.57-1.255.826-2.185.82"/>
    </g>
</svg>
