<svg xmlns="http://www.w3.org/2000/svg" width="32" height="32" viewBox="0 0 32 32">
    <defs>
        <clipPath id="a">
            <path d="M0 24h24V0H0z"/>
        </clipPath>
    </defs>
    <path fill="#00f" d="M13.015 10.615H7.343v1.733h5.672zM24.659 10.615h-5.672v1.732h5.672z"/>
    <g clip-path="url(#a)" transform="matrix(1.33333 0 0 -1.33333 0 32)">
        <path fill="#00f" d="M18.799 9.496a4.443 4.443 0 0 0-1.21-.168c-1.124.028-2.643.361-3.722 2.45a2.71 2.71 0 0 1 .665-.093c.532-.003 1.122.19 1.654.65.455.41 1.394.96 2.213.948a1.96 1.96 0 0 0 .303-.027c.967-.169 1.46-.715 1.66-1.458.029-.115.044-.249.044-.387-.015-.682-.35-1.496-1.607-1.915M7.902 6.6C8.39 7.418 9.445 8.556 12 8.575c2.026-.009 3.072-.727 3.696-1.419.168-.189.302-.38.408-.556zm13.43 5.433v.004c-.258 1.09-1.14 2.011-2.467 2.207-1.521.225-2.65-.553-3.335-1.153-.366-.322-.691-.4-.998-.406-.534-.009-1.088.356-1.32.593l-.828-.504c.47-1.54 1.189-2.578 1.983-3.26-.66.223-1.44.363-2.367.36-4.777.015-5.713-3.69-5.72-3.786l-.17-.786h11.78l-.171.786c-.003.056-.344 1.39-1.62 2.46a4.719 4.719 0 0 1 1.399-.219l.09.001c.7 0 1.249.135 1.507.211 1.65.518 2.328 1.812 2.31 2.87 0 .221-.027.432-.073.622"/>
    </g>
</svg>
