<svg xmlns="http://www.w3.org/2000/svg" width="32" height="32" viewBox="0 0 32 32">
    <defs>
        <clipPath id="a">
            <path d="M0 24h24V0H0z"/>
        </clipPath>
    </defs>
    <g clip-path="url(#a)" transform="matrix(1.33333 0 0 -1.33333 0 32)">
        <path fill="#00f" d="M19.78 12.697c0 .343-.082.817-.243 1.42a53.967 53.967 0 0 1-.469 1.645 79.433 79.433 0 0 1-.484-1.71c-.15-.559-.224-1.044-.224-1.453 0-.237.067-.576.208-1.016.141-.442.307-.716.5-.824.194.151.36.436.501.856.14.42.21.78.21 1.082m1.291 0c0-.668-.184-1.373-.548-2.115-.367-.742-.85-1.114-1.454-1.114-.624 0-1.113.372-1.468 1.114-.354.742-.533 1.447-.533 2.115 0 .387.065.882.194 1.483.13.604.301 1.248.517 1.938.215.688.435 1.34.661 1.953.227.612.436 1.146.63 1.598.408-1.14.844-2.41 1.307-3.81.464-1.399.694-2.453.694-3.162m-6.553-5.779H2.928V8.21h11.59zM4.22 16.136a.65.65 0 0 1-.648-.65H3.57V13.27a.65.65 0 1 1 1.3 0v2.218a.65.65 0 0 1-.65.649M13.908 15.487a.65.65 0 0 1-1.299 0v-2.22a.65.65 0 0 1 1.3 0z"/>
    </g>
</svg>
