<svg xmlns="http://www.w3.org/2000/svg" width="32" height="32" viewBox="0 0 32 32">
    <defs>
        <clipPath id="a">
            <path d="M0 24h24V0H0z"/>
        </clipPath>
    </defs>
    <path fill="#00f" d="M21.615 14.253l-1.227 1.226-5.297-5.298 1.225-1.226zM9.465 10.18l-5.3 5.3-1.226-1.224L8.24 8.953z"/>
    <g clip-path="url(#a)" transform="matrix(1.33333 0 0 -1.33333 0 32)">
        <path fill="#00f" d="M9.254 10.274c-1.244-.058-2.09-1.046-2.813-1.899a14.455 14.455 0 0 1-1.187-1.743l1.132-.64v.002s.446.787 1.07 1.568c.604.804 1.475 1.472 1.798 1.414.32.058 1.192-.61 1.796-1.414.624-.78 1.066-1.568 1.07-1.568l1.134.636c-.012.02-.49.87-1.19 1.745-.722.853-1.568 1.841-2.81 1.9M19.533 10.484v-.002a.929.929 0 0 0-.924.926c-.002 1.388.367 2.727.744 3.712.061.158.121.307.18.446.06-.14.12-.289.182-.448.375-.983.746-2.322.744-3.71a.927.927 0 0 0-.926-.924m-.002 7.817l-.557-.928c-.02-.05-1.656-2.736-1.666-5.965a2.225 2.225 0 1 1 4.45 0c-.01 3.231-1.647 5.914-1.668 5.965z"/>
    </g>
</svg>
