<svg xmlns="http://www.w3.org/2000/svg" width="32" height="32" viewBox="0 0 32 32">
    <defs>
        <clipPath id="a">
            <path d="M0 24h24V0H0z"/>
        </clipPath>
    </defs>
    <g clip-path="url(#a)" transform="matrix(1.33333 0 0 -1.33333 0 32)">
        <path fill="#a000a0" d="M7.73 6.197c.124.421.327.974.647 1.523.677 1.133 1.707 2.165 3.623 2.176 1.914-.01 2.943-1.043 3.62-2.176.315-.543.52-1.098.646-1.523zm9.014 2.176C15.972 9.74 14.46 11.208 12 11.197c-2.461.011-3.974-1.457-4.746-2.824C6.46 7 6.28 5.683 6.27 5.637l-.106-.74h11.668l-.105.74c-.01.046-.191 1.362-.984 2.736M6.396 12.768l.947-.893v.002l3.31 3.514-3.31 3.51-.945-.892 1.854-1.97H5.503v-1.3H8.25zM15.747 16.04l1.856 1.97-.946.89-3.31-3.511 3.31-3.513.946.891v.002l-1.857 1.969h2.747v1.302z"/>
    </g>
</svg>
