<svg xmlns="http://www.w3.org/2000/svg" width="32" height="32" viewBox="0 0 32 32">
    <defs>
        <clipPath id="a">
            <path d="M0 24h24V0H0z"/>
        </clipPath>
    </defs>
    <g clip-path="url(#a)" transform="matrix(1.33333 0 0 -1.33333 0 32)">
        <path fill="#ff8c00" d="M18.358 6.122h-.002c.002 0 .395-.042 1.004-.149-1.516-1.794-4.18-2.863-7.359-2.878-3.178.015-5.845 1.084-7.36 2.877.608.106 1 .148 1 .15l.475.05-.098.947-.474-.05v.001c-.012-.002-.62-.066-1.506-.242-.23.398-.409.822-.534 1.271.85-.008 1.405-.065 1.407-.065l.474-.049.096.95-.473.047h-.002c-.01.002-.686.07-1.68.071a6.016 6.016 0 0 0-.03.47c.107-.01.214-.019.321-.019 1.07.006 2.153.435 2.18.441l.575.217-.354.502c-.04.021-.997 1.498-2.26 1.937.324.973.81 1.875 1.504 2.64l.122.134.682 4.17 2.3-2.32.353.104c.944.276 2.03.436 3.282.436 1.251 0 2.336-.16 3.278-.436l.353-.103 2.3 2.32.681-4.169.124-.137c.694-.764 1.182-1.666 1.503-2.64-1.263-.439-2.219-1.915-2.258-1.937l-.353-.5.573-.22c.027-.005 1.11-.432 2.18-.439.107 0 .213.01.32.02a5.985 5.985 0 0 0-.03-.47 17.94 17.94 0 0 1-1.68-.072l-.476-.047.096-.95.475.048v.002c.001 0 .558.055 1.407.063a5.53 5.53 0 0 0-.532-1.27c-.889.176-1.497.24-1.508.242l-.475.048-.096-.949zM3.11 10.52c-.382.114-.714.433-.69.69 0 .051.007.1.025.154.095.29.28.375.635.393.128 0 .26-.023.38-.057.351-.1.833-.494 1.185-.872.063-.065.121-.13.175-.19-.355-.094-.805-.183-1.203-.18-.195 0-.372.023-.507.062m17.434 1.18c.11.035.245.057.375.057.354-.02.543-.102.634-.386a.532.532 0 0 0 .024-.16c.025-.258-.306-.576-.69-.692a1.869 1.869 0 0 0-.505-.062c-.397 0-.844.09-1.2.185.054.06.112.123.173.187.351.377.834.77 1.187.871zm1.895-3.675l.473-.043.088.948-.475.044c-.215.02-.414.03-.618.041.017.206.038.411.04.625 0 .13-.006.26-.01.39.326.272.578.657.593 1.18 0 .144-.024.288-.063.426-.15.516-.525.807-.925.954-.343 1.212-.913 2.362-1.766 3.345l-1.018 6.21-3.49-3.528c-.974.251-2.06.388-3.267.388-1.206 0-2.293-.137-3.269-.388l-3.495 3.525-1.017-6.209c-.849-.982-1.42-2.13-1.762-3.342-.4-.145-.776-.435-.924-.947a1.406 1.406 0 0 1-.067-.434c.016-.522.267-.907.592-1.18-.004-.13-.01-.26-.01-.39.001-.214.022-.419.04-.625-.203-.012-.402-.022-.615-.04L1 8.93l.087-.95.475.044c.231.022.451.033.671.044.123-.54.31-1.05.551-1.527a18.89 18.89 0 0 1-.856-.24l-.456-.142.284-.91.455.142c.373.116.733.21 1.077.294 1.721-2.442 5.043-3.823 8.713-3.829 3.67.006 6.988 1.388 8.71 3.83.343-.084.704-.179 1.078-.295l.453-.142.283.908-.455.142c-.294.092-.579.17-.858.242.242.477.427.986.55 1.527.222-.01.444-.022.677-.044"/>
        <path fill="#ff8c00" d="M8.098 11.6l-1.456-1.076.568-.768.89.66.89-.658.565.766zM15.903 11.6l-1.46-1.074.567-.77.892.659.89-.658.568.767zM12 4.535c-.196-.014-.379.181-.531.573a2.48 2.48 0 0 0-.1.337c.239.085.457.217.631.395a1.66 1.66 0 0 1 .636-.396 2.748 2.748 0 0 0-.101-.336c-.155-.392-.337-.587-.535-.573m1.182 1.762a.71.71 0 0 0-.705.704v.193a.742.742 0 0 1 .277.571.754.754 0 0 1-1.509 0 .74.74 0 0 1 .279-.572v-.19h-.001a.705.705 0 0 0-.703-.706.71.71 0 0 0-.706.706h-.953c0-.772.528-1.413 1.241-1.599.035-.178.086-.397.172-.632.179-.487.586-1.175 1.426-1.187.839.012 1.249.698 1.425 1.187.089.235.141.454.176.632a1.654 1.654 0 0 1 1.237 1.6h-.951a.708.708 0 0 0-.705-.707"/>
    </g>
</svg>
