<svg xmlns="http://www.w3.org/2000/svg" width="32" height="32" viewBox="0 0 32 32">
    <defs>
        <clipPath id="a">
            <path d="M0 24h24V0H0z"/>
        </clipPath>
    </defs>
    <g clip-path="url(#a)" transform="matrix(1.33333 0 0 -1.33333 0 32)">
        <path fill="#ff8c00" d="M18.357 6.123v.002c.001 0 .393-.041 1.001-.149-1.515-1.794-4.18-2.863-7.357-2.877-3.177.014-5.843 1.083-7.359 2.875.608.106.998.149 1 .151l.473.048-.099.949-.473-.05c-.01 0-.619-.065-1.505-.24a5.53 5.53 0 0 0-.534 1.269c.85-.007 1.405-.065 1.407-.063l.473-.051.098.949-.475.047v.002c-.012 0-.685.067-1.68.071-.02.193-.036.386-.036.586 0 2.077.61 4.104 1.97 5.6l.122.134.684 4.172 2.297-2.321.355.104c.944.276 2.028.437 3.282.437 1.252 0 2.335-.161 3.28-.437l.352-.102 2.298 2.319.681-4.168.124-.136c1.362-1.496 1.973-3.523 1.973-5.602 0-.201-.017-.395-.037-.586a18.371 18.371 0 0 1-1.68-.071l-.476-.049.096-.949.474.049s.558.056 1.408.065a5.536 5.536 0 0 0-.534-1.269c-.887.175-1.495.24-1.507.241l-.473.047-.097-.947zm4.081 1.905l.473-.045.09.948-.476.043c-.214.02-.414.03-.617.041.017.207.038.413.04.627 0 2.253-.646 4.534-2.172 6.294l-1.016 6.206-3.49-3.523c-.976.25-2.062.387-3.269.387-1.207 0-2.295-.137-3.27-.388l-3.494 3.524-1.015-6.206c-1.526-1.76-2.17-4.042-2.17-6.294 0-.214.02-.42.038-.627-.203-.011-.402-.021-.615-.039L1 8.933l.088-.952.474.045c.232.023.452.035.672.045.123-.54.31-1.05.55-1.526a18.964 18.964 0 0 1-.857-.242l-.454-.141.283-.912.454.142c.375.117.734.211 1.08.295 1.721-2.442 5.042-3.823 8.711-3.828 3.668.005 6.988 1.386 8.71 3.83.343-.084.703-.18 1.077-.295l.454-.142.283.908-.454.142c-.294.091-.579.169-.858.241.242.478.427.986.551 1.528.22-.01.442-.022.674-.043"/>
        <path fill="#ff8c00" d="M14.053 12.076l.478-.822 2.194 1.266-.478.826zM9.945 12.076l-2.194 1.27-.476-.826 2.193-1.266zM8.1 11.215a.79.79 0 1 1 .791-.789.788.788 0 0 1-.792.789M15.902 11.215a.79.79 0 1 1 0-1.58.79.79 0 0 1 0 1.58M13.4 5.942a.922.922 0 0 0-.924.923v.333a.74.74 0 0 1 .277.57.754.754 0 0 1-1.508 0c0-.233.112-.434.278-.572v-.33a.923.923 0 1 0-1.844 0h-.95A1.873 1.873 0 0 1 12 5.613a1.873 1.873 0 0 1 3.272 1.251h-.952a.924.924 0 0 0-.92-.923"/>
    </g>
</svg>
