<svg xmlns="http://www.w3.org/2000/svg" width="32" height="32" viewBox="0 0 32 32">
    <defs>
        <clipPath id="a">
            <path d="M0 24h24V0H0z"/>
        </clipPath>
    </defs>
    <g clip-path="url(#a)" transform="matrix(1.33333 0 0 -1.33333 0 32)">
        <path fill="#ff8c00" d="M18.357 6.122c.001 0 .393-.04 1.001-.146-1.515-1.795-4.182-2.864-7.358-2.88l2.115 1.785-1.638 2.285v.032a.745.745 0 0 1 .275.57.753.753 0 0 1-1.508 0c0-.233.113-.434.28-.572V7.17l-1.64-2.287 2.113-1.787C8.82 3.112 6.155 4.181 4.64 5.974c.61.105 1 .148 1.001.15l.473.05-.097.946-.474-.049c-.01-.002-.618-.065-1.506-.242a5.49 5.49 0 0 0-.533 1.27c.85-.007 1.406-.066 1.406-.064l.474-.048.1.948-.475.047h-.002c-.012.002-.688.072-1.682.072a6.25 6.25 0 0 0-.036.586c0 2.078.611 4.106 1.973 5.601l.122.136.683 4.17 2.298-2.32.355.103c.945.277 2.03.437 3.28.437 1.254 0 2.337-.16 3.281-.435l.353-.105 2.298 2.322.681-4.17.124-.136C20.1 13.746 20.71 11.72 20.71 9.64a5.847 5.847 0 0 0-.037-.584c-.996-.002-1.67-.074-1.682-.074l-.477-.047.1-.95.472.048v.002c.002 0 .56.057 1.408.064a5.534 5.534 0 0 0-.533-1.27c-.888.175-1.497.24-1.508.244l-.473.047-.097-.949zM12 6.198l.83-1.157-.83-.7-.829.7zm10.438 1.828l.474-.043.09.948-.475.043c-.215.02-.415.03-.619.041.017.206.038.411.04.625 0 2.253-.645 4.534-2.17 6.296l-1.018 6.206-3.489-3.524c-.976.252-2.063.388-3.27.388-1.208 0-2.293-.136-3.27-.389l-3.492 3.526-1.018-6.206c-1.525-1.76-2.172-4.044-2.172-6.297.001-.214.022-.419.04-.625-.203-.012-.4-.019-.615-.039L1 8.931l.086-.95.474.045c.232.021.452.032.672.043.124-.54.31-1.05.551-1.526a20.404 20.404 0 0 1-.858-.242l-.454-.142.283-.91.455.142c.374.115.734.211 1.078.295C5.01 3.243 8.33 1.861 12 1.856c3.67.005 6.99 1.39 8.711 3.832.343-.086.704-.18 1.078-.297l.454-.142.283.908-.454.142c-.295.093-.58.171-.859.244.242.476.427.986.551 1.526.22-.01.442-.02.674-.043"/>
        <path fill="#ff8c00" d="M6.7 10.071l.476-.824 2.193 1.267-.477.827zM14.628 10.515l2.195-1.268.478.825-2.195 1.269z"/>
    </g>
</svg>
