<svg xmlns="http://www.w3.org/2000/svg" width="32" height="32" viewBox="0 0 32 32">
    <defs>
        <clipPath id="a">
            <path d="M0 24h24V0H0z"/>
        </clipPath>
    </defs>
    <g clip-path="url(#a)" transform="matrix(1.33333 0 0 -1.33333 0 32)">
        <path fill="#ff8c00" d="M16.7 16.27c.825-.81 1.35-2.407 1.343-4.143.002-1.378-.317-2.829-.955-4.016C15.931 6.57 14.135 5.829 12 5.822c-2.134.006-3.932.75-5.09 2.295-.636 1.19-.953 2.635-.95 4.011-.009 1.732.513 3.33 1.342 4.141 1.294 1.308 2.055 2.364 2.406 3.305a7.539 7.539 0 0 0 4.583.001c.351-.942 1.111-2 2.408-3.305m6.273-3.95c-.007 3.086-.925 5.895-2.169 7.585-1.598 2.152-3.15 3.079-4.506 3.095-.758.007-1.44-.342-1.825-.913a2.29 2.29 0 0 1-.404-1.13 9.095 9.095 0 0 1-2.069.237 9.086 9.086 0 0 1-2.068-.237 2.33 2.33 0 0 1-.4 1.13c-.388.573-1.074.92-1.829.913-1.354-.016-2.908-.945-4.506-3.095-1.244-1.687-2.162-4.497-2.169-7.585-.003-3.322 1.116-6.992 4.256-9.661V.999h1.263v2.259l-.232.186c-2.97 2.405-4.02 5.743-4.025 8.876-.007 2.823.888 5.455 1.922 6.833 1.463 1.99 2.78 2.599 3.491 2.585.407-.007.63-.146.788-.367.126-.187.195-.372.197-.637.016-.616-.502-1.807-2.28-3.573-1.173-1.188-1.705-3.068-1.713-5.032.002-1.584.358-3.238 1.13-4.658l.045-.076C7.3 5.458 9.562 4.553 12 4.56c2.44-.008 4.705.896 6.131 2.84l.027.034.02.038c.77 1.418 1.125 3.07 1.126 4.654-.005 1.968-.539 3.846-1.712 5.034-1.778 1.766-2.297 2.957-2.28 3.573.002.266.071.452.196.634.16.222.384.363.79.37.71.014 2.028-.593 3.493-2.583 1.03-1.383 1.926-4.014 1.92-6.835-.006-3.133-1.055-6.47-4.024-8.876l-.234-.188V1h1.266l-.002 1.657c3.14 2.67 4.26 6.34 4.255 9.663"/>
        <path fill="#ff8c00" d="M14.096 10.58s-.03-.067-.12-.2c-.275-.42-.937-1.188-1.913-1.174-.662-.002-1.186.324-1.572.69-.19.18-.34.367-.437.503-.096.137-.13.206-.132.204l-1.11-.602c.04-.04 1.035-2.01 3.25-2.059 2.225.048 3.134 2.043 3.169 2.085l-1.135.55zM8.483 12.198h1.252v2.47H8.483zM14.263 12.197h1.254v2.471h-1.254z"/>
    </g>
</svg>
