<svg xmlns="http://www.w3.org/2000/svg" width="32" height="32" viewBox="0 0 32 32">
    <defs>
        <clipPath id="a">
            <path d="M0 24h24V0H0z"/>
        </clipPath>
    </defs>
    <path fill="#ff8c00" d="M10.102 17.923l.723 1.388 3.835-1.994-.723-1.39zM18.066 15.928l-.724 1.388 3.834 1.996.722-1.39z"/>
    <g clip-path="url(#a)" transform="matrix(1.33333 0 0 -1.33333 0 32)">
        <path fill="#ff8c00" d="M18.928 4.48c-.884-.28-1.971-.436-2.956-.434-1.482-.047-2.641.467-2.643.726a1.678 1.678 0 0 0-.126.59c.028.304.064.342.22.406a7.232 7.232 0 0 1 1.908.587c2.059.187 3.938.926 3.967.935l-.431 1.093a15.14 15.14 0 0 0-1.471-.462c1.119 1.29 1.777 3.127 1.774 5.47 0 .1-.01.194-.012.292.244-.408.489-.884.699-1.383.563-1.278 1.018-2.69 1.268-3.491.136-.437.2-.863.2-1.264-.018-1.411-.755-2.521-2.397-3.064M12.002 6.83c-3.387.055-5.944 1.909-5.996 6.562.052 4.652 2.609 6.506 5.996 6.56 3.385-.055 5.94-1.909 5.993-6.56-.053-4.654-2.608-6.508-5.993-6.563m-1.205-1.47c0-.155-.037-.359-.125-.586-.001-.262-1.163-.772-2.644-.729-.986 0-2.07.156-2.955.435-1.646.545-2.381 1.654-2.4 3.064 0 .4.067.828.205 1.266.249.802.703 2.213 1.265 3.49.212.5.455.977.699 1.384-.001-.098-.011-.191-.011-.291-.003-2.343.654-4.176 1.77-5.467-.858.229-1.465.463-1.468.457l-.43-1.092c.03-.01 1.912-.75 3.973-.936a7.263 7.263 0 0 1 1.899-.585c.157-.062.195-.101.222-.41m11.449 3.8c-.255.817-.72 2.26-1.314 3.614-.566 1.234-1.151 2.39-2.025 2.997-.33 1.43-.963 2.593-1.84 3.456-1.321 1.3-3.131 1.903-5.065 1.9-1.935.002-3.747-.6-5.07-1.9-.876-.864-1.51-2.027-1.84-3.458-.873-.609-1.458-1.764-2.023-2.996-.595-1.351-1.058-2.795-1.313-3.612A5.451 5.451 0 0 1 1.5 7.544c-.018-1.878 1.157-3.548 3.216-4.18 1.027-.325 2.208-.49 3.312-.49 1.612.045 3.14.234 3.738 1.475.132.34.204.68.206 1.01.004.1-.02.199-.035.298l.065-.002h.009l.053.002c-.015-.1-.04-.197-.035-.295a2.84 2.84 0 0 1 .206-1.013c.595-1.242 2.124-1.43 3.737-1.475 1.105 0 2.285.166 3.313.488 2.057.636 3.235 2.305 3.215 4.183 0 .526-.085 1.07-.254 1.615"/>
    </g>
</svg>
