<svg xmlns="http://www.w3.org/2000/svg" width="32" height="32" viewBox="0 0 32 32">
    <defs>
        <clipPath id="a">
            <path d="M0 24h24V0H0z"/>
        </clipPath>
    </defs>
    <g clip-path="url(#a)" transform="matrix(1.33333 0 0 -1.33333 0 32)">
        <path fill="#b45000" d="M9.03 12.885a.644.644 0 1 1-1.287-.001.644.644 0 0 1 1.287 0M16.254 12.885a.644.644 0 0 1-1.286 0 .644.644 0 1 1 1.286 0M14.187 7.426c-.867 0-1.57.703-1.572 1.566H11.38a1.57 1.57 0 0 0-3.139 0H7.01A2.8 2.8 0 0 1 9.811 6.19 2.8 2.8 0 0 1 12 7.238a2.803 2.803 0 0 1 4.99 1.754h-1.235a1.57 1.57 0 0 0-1.567-1.566"/>
        <path fill="#b45000" d="M22.906 6.055l-.003 6.783a2.579 2.579 0 0 1-2.579 2.579c-.307 0-.596-.062-.869-.16-.578 3.602-3.69 6.358-7.456 6.358-3.768 0-6.88-2.756-7.458-6.358a2.543 2.543 0 0 1-.869.16 2.579 2.579 0 0 1-2.58-2.58V6.056h1.235v6.783a1.347 1.347 0 0 0 1.345 1.345 1.346 1.346 0 0 0 1.341-1.345V6.055H6.25v6.783a2.55 2.55 0 0 1-.559 1.586c.028.485.11.954.24 1.402a4.162 4.162 0 0 0 1.911 1.292c2.422.814 4.158-.922 4.158-.922s1.735 1.736 4.158.922a4.157 4.157 0 0 0 1.908-1.29c.132-.45.212-.92.24-1.404a2.564 2.564 0 0 1-.559-1.586V6.055h1.236v6.783a1.349 1.349 0 0 0 1.342 1.346 1.348 1.348 0 0 0 1.346-1.346V6.055z"/>
    </g>
</svg>
