<svg xmlns="http://www.w3.org/2000/svg" width="32" height="32" viewBox="0 0 32 32">
    <defs>
        <clipPath id="a">
            <path d="M0 24h24V0H0z"/>
        </clipPath>
    </defs>
    <path fill="#ff8c00" d="M15.207 15.053l-1.643-.29-.569 3.232 1.641.291zM21.031 19.409l1.64.292.57-3.232-1.642-.29zM17.168 22.613l-1.697-1.522-1.111 1.246 2.465 2.207 3.08-1.23-.617-1.547z"/>
    <g clip-path="url(#a)" transform="matrix(1.33333 0 0 -1.33333 0 32)">
        <path fill="#ff8c00" d="M20.521 9.202c-.643-3.632-3.72-6.182-7.129-6.18-.396 0-.802.035-1.208.105-3.437.604-5.868 3.687-5.87 7.214 0 .446.038.896.12 1.345.64 3.635 3.716 6.186 7.125 6.187h.005c.399 0 .797-.032 1.2-.106 3.445-.605 5.873-3.686 5.876-7.21 0-.443-.04-.895-.12-1.354zm1.366 1.354c.002 4.096-2.829 7.722-6.903 8.442a7.855 7.855 0 0 1-1.42.125 8.219 8.219 0 0 1-3.373-.736c.173.264.28.548.28.847-.035.965-.878 1.471-1.654 1.473-.09 0-.178-.007-.26-.022a14.514 14.514 0 0 1-.401-.063 4.541 4.541 0 0 1-.22.717c-.27.728-.987 1.64-2.228 1.658a.279.279 0 0 1-.06.001c-1.944-.08-3.5-2.233-3.535-4.764 0-.06 0-.112.004-.156.03-1.356.382-2.14.61-2.508a28 28 0 0 1-.026-1.305c0-2.53.259-7.839 2.177-13.264l1.18.417v.002C4.21 6.634 3.95 11.821 3.95 14.265c0 .931.038 1.45.038 1.45l.017.278-.182.19c-.046.065-.417.578-.455 1.937-.004.056-.004.091-.004.114-.002 1 .337 1.913.809 2.553.458.624 1.027.95 1.432.961l.059-.002c.62-.016.877-.356 1.114-.878a3.34 3.34 0 0 0 .194-.727v-.007c-.355-.276-.936-.784-1.296-1.438l1.108-.585c.134.266.44.595.712.833.194.172.357.292.436.35.845.461 1.29-.044 1.29-.06 0-.022-.007-.132-.218-.336-.97-.91-2.65-2.57-2.652-2.573l-.166-.165-.133-1.736a8.978 8.978 0 0 1-.987-4.083c-.003-4.099 2.83-7.726 6.902-8.448a8.193 8.193 0 0 1 4.468.474c.07-.063.149-.138.232-.23.25-.275.653-.834.647-1.136h1.25c-.032.766-.59 1.552-.942 1.95 2.096 1.248 3.666 3.406 4.13 6.04l.001.002c.09.526.133 1.045.133 1.563"/>
    </g>
</svg>
