<svg xmlns="http://www.w3.org/2000/svg" width="32" height="32" viewBox="0 0 32 32">
    <defs>
        <clipPath id="a">
            <path d="M0 24h24V0H0z"/>
        </clipPath>
    </defs>
    <path fill="#ff8c00" d="M13.27 17.04h-1.637v3.293h1.638zM18.73 20.333h1.638V17.04h-1.637z"/>
    <g clip-path="url(#a)" transform="matrix(1.33333 0 0 -1.33333 0 32)">
        <path fill="#ff8c00" d="M9.198 7.133s.381-2.48 2.816-2.48c2.435 0 2.817 2.48 2.817 2.48h-2.817z"/>
        <path fill="#ff8c00" d="M17.84 8.965c-.057-4.544-2.535-6.336-5.838-6.395-3.305.059-5.785 1.85-5.842 6.395.057 4.546 2.537 6.337 5.842 6.397 3.303-.06 5.78-1.851 5.838-6.397m2.709 13.826c-.206.037-.43.056-.662.056-1.061.01-2.628-.424-2.854-2.016-.035-.32-.064-.58-.09-.786a5.432 5.432 0 0 1-.464.134 1.905 1.905 0 0 1-.432.052c-.861.008-1.467-.482-1.59-1.347-.131-.93.26-1.586 1.03-1.875.216-.065.538-.181.746-.257.156-.548.925-1.345 1.309-1.594a13.713 13.713 0 0 0-.093-.948 5.884 5.884 0 0 1-.455.502c-1.302 1.285-3.09 1.879-4.992 1.877-1.905.002-3.693-.592-4.995-1.875a6.131 6.131 0 0 1-.458-.505 14.36 14.36 0 0 0-.093.948c.384.249 1.154 1.046 1.31 1.594.208.076.529.192.744.257.77.289 1.162.945 1.03 1.875-.122.865-.727 1.355-1.59 1.347-.145 0-.288-.02-.43-.052a5.329 5.329 0 0 1-.465-.134c-.025.207-.055.466-.09.786-.226 1.592-1.793 2.026-2.854 2.016-.232 0-.456-.02-.662-.056-1.246-.234-2.42-1.35-2.45-2.865 0-.067.003-.131.009-.191.093-1.092-.041-2.84 1.082-4.225C2.32 9.84 3.607 1.167 3.609 1.155l1.213.187c-.004.014-1.314 8.883-1.514 14.426l-.01.229s-1.032.769-1.067 3.827c-.001.039-.004.074-.004.1-.03.786.765 1.558 1.434 1.657.134.024.29.037.45.037.862-.01 1.514-.274 1.633-.924.148-1.314.334-2.32.334-2.32s.828.5 1.438.626c.609.125.922-.031.969-.203a.505.505 0 0 0-.338-.617c-.35-.117-1.236-.44-1.236-.44s-.145-.505-.63-1.005a3.117 3.117 0 0 0-1.063-.707v-.495c.003-1.036.263-2.532.35-3.017-.408-1.008-.637-2.192-.636-3.551C4.93 6.44 5.7 4.502 7.007 3.219c1.302-1.284 3.09-1.877 4.995-1.877 1.903 0 3.69.593 4.992 1.877 1.306 1.283 2.076 3.22 2.073 5.746.002 1.358-.228 2.543-.637 3.55.089.485.348 1.983.35 3.019v.495s-.58.207-1.063.707c-.484.5-.63 1.004-.63 1.005 0 0-.886.323-1.235.44a.503.503 0 0 0-.338.617c.047.172.359.328.969.203.609-.125 1.437-.625 1.437-.625s.187 1.005.334 2.319c.119.65.772.914 1.633.924.16 0 .316-.013.45-.037.669-.1 1.463-.871 1.435-1.656 0-.027-.003-.062-.004-.101-.035-3.058-1.07-3.827-1.07-3.827l-.007-.23c-.201-5.542-1.511-14.411-1.515-14.425l1.213-.187c.003.012 1.29 8.686 1.52 14.354 1.12 1.386.989 3.133 1.08 4.225.008.06.009.124.009.19-.028 1.517-1.203 2.632-2.45 2.866"/>
    </g>
</svg>
