<svg xmlns="http://www.w3.org/2000/svg" width="32" height="32" viewBox="0 0 32 32">
    <defs>
        <clipPath id="a">
            <path d="M0 24h24V0H0z"/>
        </clipPath>
    </defs>
    <path fill="#b45000" d="M7.685 16.13h2.666v14.533H7.685z"/>
    <g clip-path="url(#a)" transform="matrix(1.33333 0 0 -1.33333 0 32)">
        <path fill="#00be3c" d="M12.374 14.675c0 .747-.336 1.409-.858 1.864.042.179.068.364.068.556a2.48 2.48 0 0 1-2.426 2.477 2.48 2.48 0 0 1-2.395 1.859 2.478 2.478 0 0 1-2.394-1.86 2.48 2.48 0 0 1-2.427-2.476c0-.192.027-.377.068-.557a2.466 2.466 0 0 1-.858-1.863 2.48 2.48 0 0 1 1.45-2.252 2.464 2.464 0 0 1-.079-.592 2.485 2.485 0 0 1 4.241-1.755 2.483 2.483 0 0 1 4.238 1.755c0 .204-.032.4-.079.59a2.478 2.478 0 0 1 1.451 2.254"/>
        <path fill="red" d="M20.541 3.479h-2.529v6.215h2.529zm-3.828.285h-.986v6.043h-4.299V3.764h-.762v6.402l3.049 4.689 2.998-4.608zm-2.286 0h-1.7v1.969a.742.742 0 0 1 .367-.108.76.76 0 0 1 0 1.52.732.732 0 0 1-.367-.108v1.471h1.7zm3.114 13.28h-3.829l-.875-1.346v1.923h-2.175v-5.267L9.469 10.52V2.568H21.842v8.426z"/>
        <path fill="red" d="M20.071 6.35h-1.572v2.594h1.572z"/>
        <path fill="#00be3c" d="M21.303 4.268c-.48 0-.91-.2-1.22-.518a1.687 1.687 0 0 1-2.434-.001 1.697 1.697 0 0 1-2.916-1.178H9.268a1.697 1.697 0 0 1-2.916 1.178 1.688 1.688 0 0 1-2.436 0c-.308.32-.74.519-1.217.519-.938 0-1.7-.76-1.7-1.697V1h22v1.57c0 .937-.758 1.697-1.696 1.697"/>
    </g>
</svg>
