<svg xmlns="http://www.w3.org/2000/svg" width="32" height="32" viewBox="0 0 32 32">
    <path fill="#00f" d="M28.93 24.557l-7.558 3.831V7.44l4.606-2.333 2.952-1.495zM20.296 6.043H5.824l.004-.003 5.87-2.972H26.17l-2.605 1.32zm-.656 1.732V28.93h-5.574v-3.344H8.642v3.344H3.066V7.775zm-8.357-6.442l-9.95 5.044v24.286h19.383l9.948-5.042V1.333z"/>
    <path fill="#00f" d="M16.597 23.956h-2.413v-2.41h2.413zm0-4.008h-2.413v-2.439h2.413zm0-4.036h-2.413v-2.441h2.413zm0-4.04h-2.413v-2.44h2.413zm-4.012 12.084h-2.44v-2.41h2.44zm0-4.008h-2.44v-2.439h2.44zm0-4.036h-2.44v-2.441h2.44zm0-4.04h-2.44v-2.44h2.44zM8.55 23.956H6.108v-2.41h2.441zm0-4.008H6.108v-2.439h2.441zm0-4.036H6.108v-2.441h2.441zm0-4.04H6.108v-2.44h2.441zM27.542 20.496l-1.099.556v-2.41l1.099-.557zm0-4.008l-1.099.556v-2.437l1.099-.558zm0-4.036l-1.099.556v-2.44l1.099-.557zm0-4.04l-1.099.557V6.53l1.099-.556zm-1.828 13.01l-1.112.563v-2.409l1.112-.563zm0-4.009l-1.112.564V15.54l1.112-.563zm0-4.034l-1.112.562v-2.44l1.112-.564zm0-4.04l-1.112.564v-2.44l1.112-.563zm-1.842 13.016l-1.113.564v-2.41l1.113-.564zm0-4.008l-1.113.565v-2.441l1.113-.562zm0-4.038l-1.113.566v-2.442l1.113-.564zm0-4.037l-1.113.563V8.396l1.113-.564z"/>
</svg>
