<svg xmlns="http://www.w3.org/2000/svg" width="32" height="32" viewBox="0 0 32 32">
    <defs>
        <clipPath id="a">
            <path d="M0 24h24V0H0z"/>
        </clipPath>
    </defs>
    <path fill="#f0f" d="M30.667 6.57H1.333V4.823l7.899-3.49h13.577l7.858 3.49zM30.667 30.665H1.333V28.92h29.334z"/>
    <g clip-path="url(#a)" transform="matrix(1.33333 0 0 -1.33333 0 32)">
        <path fill="#f0f" d="M10.037 8.133v-.93c-.08-1.174-.404-1.827-2.057-1.9H3.613v4.732H7.98c1.653-.07 1.976-.723 2.057-1.902m-6.424 7.944H7.52c1.655-.07 1.978-.725 2.06-1.9v-.93c-.082-1.176-.405-1.832-2.06-1.903H3.613zm7.273-2.83v.93c0 .819-.225 1.638-.804 2.256-.578.619-1.468.96-2.563.956H2.307V3.993H8c1.085 0 1.967.34 2.541.955.58.62.807 1.439.807 2.256v.929c0 .823-.227 1.642-.807 2.257a2.606 2.606 0 0 1-.588.472c.045.042.088.084.13.128.578.62.803 1.437.803 2.257M21.693 17.387h-1.956l-5.773-5.135v5.135h-1.31V3.995h1.31v5.133l5.773-5.135h1.956l-7.53 6.697z"/>
    </g>
</svg>
