<svg xmlns="http://www.w3.org/2000/svg" width="32" height="32" viewBox="0 0 32 32">
    <defs>
        <clipPath id="a">
            <path d="M0 24h24V0H0z"/>
        </clipPath>
    </defs>
    <path fill="#00f" d="M30.667 6.57H1.333V4.823l7.899-3.49h13.577l7.858 3.49zM30.667 30.665H1.333V28.92h29.334zM15.97 23.02L12.851 8.83H11.11l3.877 17.845h1.964L20.826 8.83h-1.741z"/>
    <g clip-path="url(#a)" transform="matrix(1.33333 0 0 -1.33333 0 32)">
        <path fill="#00f" d="M18.636 16.069c.888-.015 1.325-.543 1.62-1.773l.135-.641 1.28.265-.133.64c-.262 1.472-1.231 2.833-2.902 2.817-1.013.01-1.876-.41-2.376-1.12-.501-.706-.675-1.592-.68-2.552-.085-1.147.345-3.035 2.883-3.65 1.99-.642 1.838-1.295 1.924-2.39-.082-1.645-.444-2.318-1.751-2.364-.884.017-1.323.544-1.62 1.774l-.131.639-1.278-.264.13-.638h-.001c.262-1.474 1.232-2.833 2.9-2.82h.043c.998 0 1.842.422 2.335 1.122.502.705.677 1.592.678 2.552.086 1.147-.341 3.034-2.881 3.65-1.993.642-1.835 1.296-1.92 2.389.08 1.646.444 2.32 1.745 2.364M5.362 17.377c-1.09.017-1.971-.609-2.418-1.458-.466-.849-.633-1.899-.635-3.027V8.476c.002-1.127.169-2.176.635-3.025.442-.838 1.307-1.458 2.376-1.458l.042.001c1.688-.016 2.657 1.373 2.912 2.867l.124.64-1.28.253-.127-.64c-.293-1.257-.737-1.797-1.63-1.813-.633.018-.951.25-1.275.785-.303.54-.474 1.404-.47 2.39v4.416c-.004.988.167 1.853.47 2.391.324.536.642.768 1.276.786.892-.016 1.336-.557 1.629-1.813l.124-.64 1.283.252-.124.642c-.255 1.493-1.224 2.882-2.912 2.867"/>
    </g>
</svg>
