<svg xmlns="http://www.w3.org/2000/svg" width="32" height="32" viewBox="0 0 32 32">
    <path fill="#00be3c" d="M28.93 25.61l-5.48 2.775V12.823l5.48-2.776zm-6.555-14.187h-1.7l3.79-1.922h1.706zm-.66 17.508h-5.448v-7.379H8.511v7.379H3.066V13.157h5.541V6.723h7.57v6.434h5.538zm-11.47-.18v-5.467h4.287l.003 5.467zm4.918-25.684h5.463l-3.79 1.92h-5.462zm8.23 5.037l-5.482 2.776V6.388l5.48-2.776zm1.733-.333V1.333h-10.38L6.874 5.324v3.628l-5.54 2.808v18.903H22.79l7.873-3.99V7.771z"/>
    <path fill="#00be3c" d="M4.865 23.353h1.8v-1.801h-1.8zM4.865 17.952h1.8v-1.799h-1.8zM9.281 17.952h1.8v-1.799h-1.8zM19.916 21.552h-1.8v1.801h1.8zM19.916 16.153h-1.8v1.799h1.8zM13.696 17.952H15.5v-1.799h-1.804zM14.203 10.044h-1.917V8.128H10.58v3.624h3.623z"/>
</svg>
