<svg xmlns="http://www.w3.org/2000/svg" width="32" height="32" viewBox="0 0 32 32">
    <defs>
        <clipPath id="a">
            <path d="M0 24h24V0H0z"/>
        </clipPath>
    </defs>
    <path fill="#f0f" d="M15.156 19.01h1.685v-1.682h-1.685z"/>
    <g clip-path="url(#a)" transform="matrix(1.33333 0 0 -1.33333 0 32)">
        <path fill="#f0f" d="M20.727 2.264h-6.671V6.05a2.056 2.056 0 0 1-4.113 0V2.264H3.27v3.923l6.578 5.26v4.632l2.15 1.842 2.15-1.843v-4.63l6.578-5.261zm-5.314 9.79v4.606l-2.783 2.382v1.2h1.493v1.264H12.63V23h-1.263v-1.494H9.875v-1.263h1.492V19.04l-2.781-2.38v-4.606L2.01 6.792V1h19.98v5.794z"/>
    </g>
</svg>
