<svg xmlns="http://www.w3.org/2000/svg" width="32" height="32" viewBox="0 0 32 32">
    <defs>
        <clipPath id="a">
            <path d="M0 24h24V0H0z"/>
        </clipPath>
    </defs>
    <g clip-path="url(#a)" transform="matrix(1.33333 0 0 -1.33333 0 32)">
        <path fill="#003c96" d="M7.023 10.934h11.57v-2.87H5.408v2.87zm7.463 1.646h-4.97l2.485 1.573zm1.86 4.113v-2.88h-1.449l-2.896 1.834-2.899-1.833H7.653v2.879zM1.773 1h20.451l-2.37 6.543v3.39h2.3l-4.547 2.53v3.23h2.267l-2.882 1.487v1.608c.846.732 1.11 2.817-1.41 3.212.818-1.084.39-2.15.007-2.748H8.41c-.38.598-.809 1.664.01 2.748-2.522-.395-2.257-2.478-1.413-3.211v-1.61l-2.88-1.486H6.39v-3.23l-4.543-2.53h2.298V7.547z"/>
        <path fill="#003c96" d="M8.322 10.01H7.06V8.747h1.262zM9.778 15.998H8.516v-1.263h1.262zM15.486 15.998h-1.263v-1.263h1.263zM16.942 10.009h-1.263V8.746h1.263zM12.633 10.009H11.37V8.746h1.263z"/>
    </g>
</svg>
