<svg xmlns="http://www.w3.org/2000/svg" width="32" height="32" viewBox="0 0 32 32">
    <path fill="#595959" d="M29.031 29.03H2.97V18.613l7.597-3.684v4.473l9.23-4.473v4.476l9.235-4.476zM5.801 2.97h1.93v11.513l-1.93.936zm15.633 13.821v-4.477L12.2 16.791v-4.474l-2.83 1.372L9.37 1.334H4.166v14.879l-2.832 1.373v13.081h29.333v-18.35z"/>
    <path fill="#595959" d="M6.079 21.545h1.377v1.375H6.079zM4.82 24.18h3.896v-3.89H4.82zM15.31 21.544h1.376l.001 1.378H15.31zm-1.256 2.638h3.893V20.29h-3.893zM25.919 22.92H24.54v-1.376h1.378zm1.26-2.632h-3.894v3.893h3.894z"/>
</svg>
