<svg xmlns="http://www.w3.org/2000/svg" width="32" height="32" viewBox="0 0 32 32">
    <defs>
        <clipPath id="a">
            <path d="M0 24h24V0H0z"/>
        </clipPath>
    </defs>
    <g clip-path="url(#a)" transform="matrix(1.33333 0 0 -1.33333 0 32)">
        <path fill="red" d="M6.15 6.806h10.964c-.262-.878-.61-1.52-1.047-1.938H7.335c-.182-.004-.41.123-.69.612-.198.339-.359.804-.496 1.326M7.33 19.132h8.735c.437-.42.786-1.06 1.05-1.94H6.146c.141.527.308.995.497 1.329.278.484.504.612.686.61M5.661 9.955h11.951a17.754 17.754 0 0 0-.268-2.204H5.941a22.897 22.897 0 0 0-.28 2.204M17.66 13.1a35.266 35.266 0 0 0 0-2.202H5.6c-.02.424-.03.812-.028 1.1 0 .292.008.675.028 1.102zm-.315 3.146c.124-.64.214-1.374.268-2.202H5.658c.056.71.148 1.478.281 2.202zm1.87.507c-.18.876-.419 1.7-.788 2.366-.258.472-.638.912-1.146 1.118V23H6.72v-2.761c-.51-.205-.889-.645-1.147-1.12-1.068-1.962-1.215-5.537-1.23-7.12.001-1.046.087-3.002.442-4.752.18-.878.418-1.703.788-2.366.258-.473.637-.912 1.146-1.118V1H17.28v2.764c.508.206.888.645 1.146 1.117 1.066 1.964 1.213 5.536 1.23 7.118-.003 1.048-.089 3.004-.443 4.755"/>
    </g>
</svg>
