<svg xmlns="http://www.w3.org/2000/svg" width="32" height="32" viewBox="0 0 32 32">
    <defs>
        <clipPath id="a">
            <path d="M0 24h24V0H0z"/>
        </clipPath>
    </defs>
    <g clip-path="url(#a)" transform="matrix(1.33333 0 0 -1.33333 0 32)">
        <path fill="#595959" d="M20.202 18.813c.006.535-.382.955-.785 1.12-.597.267-6.09 2.662-6.799 2.969a1.219 1.219 0 0 1-.487.099c-.394-.013-.803-.126-1.115-.544-.29-.421-2.867-3.696-2.869-3.7l-.188-.24.468-1.963-3.799-4.796 1.776-1.131-2.606-4.123 1.96-1.363 2.464-.198C7.63 3.577 7.584 2.042 7.576 1H8.84c-.013 1.21.13 3.045.921 4.127l.645.908-4.208.337-.689.479 1.242 1.966 2.661-.297-1.892 1.514.623.984-1.655 1.052 3.281 4.145.98-1.87 3.16 1.72-4.54 1.985-.04.165c.588.75 2.375 3.03 2.713 3.503.02.01.063.022.09.017v.001c.781-.339 6.2-2.7 6.768-2.956l.021-.01c-.464-1.07-5.033-11.536-5.037-11.548l-.386-.885h.965c.741-.009 1.326-.378 1.837-1.272.5-.888.816-2.286.815-4.066h1.264c-.002 1.925-.329 3.51-.975 4.68-.472.872-1.182 1.52-2.035 1.786 1.066 2.447 4.4 10.087 4.725 10.836.068.162.108.338.108.512"/>
    </g>
</svg>
