<svg xmlns="http://www.w3.org/2000/svg" width="32" height="32" viewBox="0 0 32 32">
    <defs>
        <clipPath id="a">
            <path d="M0 24h24V0H0z"/>
        </clipPath>
    </defs>
    <g clip-path="url(#a)" transform="matrix(1.33333 0 0 -1.33333 0 32)">
        <path fill="#595959" d="M22.966 17.59c0-.683-.134-1.347-.403-1.988a5.659 5.659 0 0 0-1.151-1.74 3.27 3.27 0 0 0-1.367-.76 6.18 6.18 0 0 0-1.74-.235c-.455 0-.91.037-1.366.11a14.63 14.63 0 0 0-1.306.264l-4.877-4.91c.104-.434.187-.875.248-1.32.063-.445.094-.896.094-1.352 0-.62-.073-1.195-.217-1.723a3.15 3.15 0 0 0-.746-1.352 5.874 5.874 0 0 0-1.756-1.165 5.048 5.048 0 0 0-2.004-.42c-.227 0-.456.022-.682.063-.23.042-.467.093-.715.155L7.71 3.95 7.09 7.089l-3.14.622-2.732-2.767c-.083.292-.14.549-.171.779a4.82 4.82 0 0 0-.047.65c0 .706.135 1.389.404 2.053a4.694 4.694 0 0 0 1.18 1.708c.353.373.798.63 1.337.776a6.622 6.622 0 0 0 1.739.218c.436 0 .88-.03 1.336-.093a9.441 9.441 0 0 0 1.337-.28l4.908 4.878a10.067 10.067 0 0 0-.373 2.672c0 .642.073 1.233.218 1.77.145.539.404.985.777 1.337a4.905 4.905 0 0 0 1.694 1.15 5.276 5.276 0 0 0 2.733.357c.238-.031.47-.077.699-.14l-2.733-2.734.62-3.17 3.139-.59 2.733 2.766c.064-.27.114-.518.156-.746.04-.228.062-.466.062-.715"/>
    </g>
</svg>
