<svg xmlns="http://www.w3.org/2000/svg" width="32" height="32" viewBox="0 0 32 32">
    <defs>
        <clipPath id="a">
            <path d="M0 24h24V0H0z"/>
        </clipPath>
    </defs>
    <g clip-path="url(#a)" transform="matrix(1.33333 0 0 -1.33333 0 32)">
        <path fill="#595959" d="M12.075 13.61l9.16-9.16-1.685-1.686-9.16 9.161zM3.726 18.59l1.683 1.684 1.57-1.569-1.684-1.684zM23 4.451L12.957 14.49l3.097 3.097a1.077 1.077 0 0 1 0 1.518l-3.579 3.58a1.073 1.073 0 0 1-1.517 0L7.86 19.587l-2.45 2.45-3.449-3.447 2.451-2.45-3.097-3.098a1.074 1.074 0 0 1 0-1.518l3.578-3.579a1.076 1.076 0 0 1 1.518 0l3.098 3.097L19.55 1z"/>
    </g>
</svg>
