<svg xmlns="http://www.w3.org/2000/svg" width="32" height="32" viewBox="0 0 32 32">
    <defs>
        <clipPath id="a">
            <path d="M0 24h24V0H0z"/>
        </clipPath>
    </defs>
    <g clip-path="url(#a)" transform="matrix(1.33333 0 0 -1.33333 0 32)">
        <path fill="#595959" d="M21.691 6.18c.01-.005-.295-.398-1.169-.705-.873-.323-2.272-.601-4.353-.601-4.13.002-6.864 1.39-8.045 2.067-1.134.628-2.196 1.923-3.312 2.358-.465.157-1.134.31-1.66.602-.532.312-.815.602-.825 1.185 0 .284.006.535.012.773 1.224-.922 3.61-2.636 5.776-3.7 2.95-1.45 5.014-2.306 8.35-2.306h.047c1.72 0 3.092.366 4.055.793.371.166.662.339.914.51.132-.31.235-.656.23-.843a.374.374 0 0 0-.02-.132M3.132 14.804l.173.173.016.243s.023.329.064.688c.021.179.046.364.07.508.015.07.027.13.037.166l-.006.003a.644.644 0 0 0 .07.098l.016-.008c.077-.016.447-.354.772-.69.383-.316.6-.726 1.343-.81.502.035.79.228 1.234.39.122.05.244.096.364.137a3.191 3.191 0 0 1-.25-.403c-.024-.045-.044-.093-.065-.14a2.634 2.634 0 0 1-.13-.345c-.016-.052-.033-.103-.045-.156a2.88 2.88 0 0 1-.08-.565c-.036-.526.302-1.345.961-1.69.362-.201.72-.26 1.018-.26.195.01.374.038.545.075.08.017.153.042.227.064a3.123 3.123 0 0 1 .623.264c.102.057.204.114.3.18 1.678-2.081 3.877-3.557 3.903-3.58l.377-.257.37.27c.002 0 .87.629 1.313.878.418.237.792.4 1.058.5.14.053.243.086.31.107.055-.008.148-.027.295-.071.284-.09.714-.266 1.24-.65A8.992 8.992 0 0 0 20.6 8.723a3.98 3.98 0 0 0 .312-.393c-.5-.385-2.106-1.202-4.4-1.177-3.138.008-4.855.728-7.825 2.174-2.515 1.227-5.509 3.52-6.21 4.067a.91.91 0 0 0-.012.142c.004.244.068.662.667 1.269m1.38 2.84a.35.35 0 0 0 .176.052c.21.048.681-.353 1.42-.596.24-.062.485-.121.73-.178-.137-.05-.27-.101-.398-.15-.223-.09-.424-.173-.575-.231a2 2 0 0 0-.148-.05c-.222.142-.694.725-1.24 1.13.012.008.021.017.034.024m3.93-2.264c.681.697 2.171 1.184 2.196 1.205a.401.401 0 0 0 .531-.438c-.02-.031-.173-1.314-.84-2.057-.489-.5-1.066-.833-1.636-.846a.95.95 0 0 0-.474.116c-.276.15-.413.466-.405.732.01.45.247.879.627 1.288m2.924 2.02a.4.4 0 0 0 .566-.012c.178-.186.341-.346.341-.346a.398.398 0 0 0 .004-.565.395.395 0 0 0-.565-.005c-.002.002-.169.167-.358.362h.002a.399.399 0 0 0 .01.566m1.76.169c.511-.185 1.027-.564 1.046-.572a.399.399 0 0 0 .092-.557.399.399 0 0 0-.557-.094c0-.002-.222.148-.467.286-.216.26-.43.497-.624.694a.401.401 0 0 0 .51.243m-1.317-3.14c.206.46.308.865.363 1.148.336.175.645.316.873.402a.4.4 0 0 0 .283-.748 7.397 7.397 0 0 1-1.005-.475 8.605 8.605 0 0 1-.514-.326m2.951.074a.4.4 0 0 0-.23-.516 7.351 7.351 0 0 1-1.005-.473c-.35-.195-1.069-.708-1.236-.827v.002a.397.397 0 0 0-.555.01.4.4 0 0 0 0 .566c.115.097.886.648 1.398.946.44.247.831.418 1.115.525a.396.396 0 0 0 .513-.233m.69-1.01a.397.397 0 0 0 .514-.232.398.398 0 0 0-.232-.514 7.523 7.523 0 0 1-1.006-.475c-.349-.196-1.069-.706-1.235-.827a.404.404 0 0 0-.555.012.401.401 0 0 0 0 .568c.114.096.886.648 1.4.944.438.247.83.418 1.113.524m1.318-1.177a.4.4 0 0 0 .516-.233.398.398 0 0 0-.233-.514 7.478 7.478 0 0 1-1.003-.475c-.352-.195-1.072-.706-1.239-.827a.405.405 0 0 0-.27-.105.4.4 0 0 0-.283.685c.114.097.885.646 1.4.944.437.247.828.418 1.112.525m5.483-3.81c-.114.424-.36.676-.678 1.079a10.12 10.12 0 0 1-1.55 1.387c-.784.572-1.44.804-1.869.902.01.169-.012.342-.075.51-.2.528-.72.822-1.254.785a1.23 1.23 0 0 1-.065.395c-.184.487-.64.79-1.13.805a1.249 1.249 0 0 1-.072.435 1.244 1.244 0 0 1-.693.706c.108.084.213.174.297.293a1.5 1.5 0 0 1-.354 2.09c-.06.032-.57.433-1.316.71a1.496 1.496 0 0 1-1.707-.536c-.148.065-.27.064-.347.07-.503-.024-1.054-.243-1.646-.482-.492.084-2.027.357-3.356.7-.257.017-.812.593-1.745.64-.265 0-.548-.07-.808-.215a3.868 3.868 0 0 1-1.307-1.18 3.41 3.41 0 0 1-.273-.473l-.066-.152-.01-.03a.123.123 0 0 1 .01.024l.033.062.027.035c-.02-.052-.043-.104-.058-.155l-.022.008.004.009.006.017a.063.063 0 0 1-.004-.01l-.006-.015v-.004l-.002-.003v-.002l.022-.007c-.08-.28-.095-.544-.14-.852a19.207 19.207 0 0 1-.05-.507c-.54-.595-.776-1.184-.848-1.672h-.003c-.004-.033-.167-.996-.167-2.79-.01-1.172.768-1.942 1.5-2.323.734-.401 1.526-.57 1.862-.691.484-.118 1.76-1.468 3.088-2.256 1.28-.74 4.27-2.242 8.693-2.24 4.39.05 6.174 1.032 6.73 2.127.08.209.111.414.111.61-.03.986-.604 1.929-.762 2.196M8.692 14.045c.202-.014.7.212 1.053.596.188.184.341.553.45.893-.445-.2-.97-.468-1.175-.702-.29-.3-.413-.622-.406-.74a.19.19 0 0 1 .003-.036.204.204 0 0 1 .075-.011"/>
    </g>
</svg>
