<svg xmlns="http://www.w3.org/2000/svg" width="32" height="32" viewBox="0 0 32 32">
    <defs>
        <clipPath id="a">
            <path d="M0 24h24V0H0z"/>
        </clipPath>
    </defs>
    <g clip-path="url(#a)" transform="matrix(1.33333 0 0 -1.33333 0 32)">
        <path fill="#595959" d="M21.9 13.947l-2.576 5.61-2.575-5.61 1.575.419v-1.268a4.514 4.514 0 0 0-4.506-4.51h-.817v9.22l1.574-.418L12 23l-2.577-5.61 1.577.419v-9.22h-.818a4.512 4.512 0 0 0-4.507 4.509v1.268l1.576-.42-2.576 5.61-2.575-5.61 1.575.42v-1.268a6.506 6.506 0 0 1 6.507-6.51H11V1h2.001v5.589h.817a6.507 6.507 0 0 1 6.506 6.509v1.268z"/>
    </g>
</svg>
