<svg xmlns="http://www.w3.org/2000/svg" width="32" height="32" viewBox="0 0 32 32">
    <defs>
        <clipPath id="a">
            <path d="M0 24h24V0H0z"/>
        </clipPath>
    </defs>
    <g clip-path="url(#a)" transform="matrix(1.33333 0 0 -1.33333 0 32)">
        <path fill="red" d="M14.107 14.049H9.894v1.17h4.213zm4.83-12.175l-3.57 12.27v.905l1.714 2.956-1.58 1.579V23h-1.258v-3.346L12 18.081l-2.24 1.57V23H8.501v-3.416l-1.579-1.579 1.711-2.954v-.907L4.828 1.068h.842a3.77 3.77 0 0 1 1.442.253c.315.118.4.166.687.172.267-.004.397-.063.701-.195A3.138 3.138 0 0 1 9.831 1c.595-.004 1.031.17 1.324.294.304.124.462.193.847.199.383-.006.541-.075.845-.199.293-.124.729-.298 1.326-.294h.02c.585 0 1.021.172 1.309.298.304.132.432.191.701.195.287-.006.37-.054.687-.172a3.765 3.765 0 0 1 1.442-.253h.84z"/>
    </g>
</svg>
