<svg xmlns="http://www.w3.org/2000/svg" width="32" height="32" viewBox="0 0 32 32">
    <defs>
        <clipPath id="a">
            <path d="M0 24h24V0H0z"/>
        </clipPath>
    </defs>
    <g clip-path="url(#a)" transform="matrix(1.33333 0 0 -1.33333 0 32)">
        <path fill="#b45000" d="M19.08 23h-7.729s.546-9.859.546-13.418c0-3.561-2.647-5.295-3.195-5.844-.548-.547-1.749-.945-2.51-1.185-.762-.242-1.278-.215-1.278-.823V1h7.03c2.783 0 2.231 3.812 5.153 4.406V1h1.186v4.107c0 1.28.734 1.553.734 2.465 0 .914-1.003 2.649-1.003 3.834 0 5.082 1.168 6.725 1.066 11.594"/>
    </g>
</svg>
