<svg xmlns="http://www.w3.org/2000/svg" width="32" height="32" viewBox="0 0 32 32">
    <defs>
        <clipPath id="a">
            <path d="M0 24h24V0H0z"/>
        </clipPath>
    </defs>
    <g clip-path="url(#a)" transform="matrix(1.33333 0 0 -1.33333 0 32)">
        <path fill="#f0f" d="M21.773 13.459A1.473 1.473 0 0 0 20.315 12h-1.651a1.475 1.475 0 0 0-1.462 1.45v7.97h4.57zM8.025 2.578v8.313h7.949V2.578zm-2.687 9.423H3.686c-.8 0-1.456.659-1.458 1.458v7.962h4.569v-7.962a1.47 1.47 0 0 0-1.46-1.458m10.636 8.76v-5.49H9.068zm-4.96-2.376l-2.988-2.376v4.754zm.988.785l-2.832 2.251h5.663zM1 22.648v-9.189a2.692 2.692 0 0 1 2.685-2.687h1.652a2.671 2.671 0 0 1 1.459.439V1.352H17.2v9.859a2.692 2.692 0 0 1 1.462-.438h1.651A2.693 2.693 0 0 1 23 13.459v9.189z"/>
    </g>
</svg>
