<svg xmlns="http://www.w3.org/2000/svg" width="32" height="32" viewBox="0 0 32 32">
    <defs>
        <clipPath id="a">
            <path d="M0 24h24V0H0z"/>
        </clipPath>
    </defs>
    <g clip-path="url(#a)" transform="matrix(1.33333 0 0 -1.33333 0 32)">
        <path fill="red" d="M17.908 8.423c-.677-.202-1.757-.473-3.327-.704-3.295-.481-5.51-.342-6.009-.308l-.389-1.46c2.42-.61 4.534-2.115 5.654-4.178l.145-.271 1.172.422.133.352c.94 2.497 2.394 4.498 3.693 5.515l-.19.942a8.822 8.822 0 0 0-.882-.31M17.95 17.929l-.457 3.29-.99-.137.442-3.19c-.468-.727-.683-1.131-1.37-2.003-.429-.543-1-1.058-1.192-1.226a87.18 87.18 0 0 0-.539-.01c-.264.355-2.093 2.873-4.55 4.233l.428 3.69-1.293.15-.478-4.127c-.783-1.471-1.432-3.125-1.455-3.74-1.039.117-1.699.419-2.084.688a2.3 2.3 0 0 0-.43.384c-.078.095-.074.11-.082.107l-1.145-.612c.056-.142 1.047-1.733 3.98-1.906l.153-.007c.571-.795 1.855-2.3 3.646-1.805 2.062.569 2.877 1.473 3.192 1.943.395.007.778.014 1.141.022.667-.376 1.92-.981 3.122-.932.992 0 2.11 1.683 2.031 2.833-.07 1.032-1.042 1.897-2.07 2.355"/>
    </g>
</svg>
