<svg xmlns="http://www.w3.org/2000/svg" width="32" height="32" viewBox="0 0 32 32">
    <defs>
        <clipPath id="a">
            <path d="M0 24h24V0H0z"/>
        </clipPath>
    </defs>
    <g clip-path="url(#a)" transform="matrix(1.33333 0 0 -1.33333 0 32)">
        <path fill="#003c96" d="M21.419 5.287H2.58a.353.353 0 0 0-.353.352v9.02h19.544v-9.02a.35.35 0 0 0-.353-.352M2.58 18.715h18.838a.352.352 0 0 0 .353-.352v-.806H2.228v.806c0 .192.159.352.353.352m18.838 1.227H2.58A1.58 1.58 0 0 1 1 18.363V5.64a1.584 1.584 0 0 1 1.58-1.58H21.42a1.584 1.584 0 0 1 1.58 1.58v12.724a1.58 1.58 0 0 1-1.58 1.58"/>
        <path fill="#003c96" d="M4.761 12.156h7.789v-1.049H4.761zm-1.23-2.275h10.248v3.502H3.531zM18.307 8.752h1.577V7.175h-1.577zm-1.225-2.805h4.03V9.98h-4.03z"/>
    </g>
</svg>
