<svg xmlns="http://www.w3.org/2000/svg" width="32" height="32" viewBox="0 0 32 32">
    <defs>
        <clipPath id="a">
            <path d="M0 24h24V0H0z"/>
        </clipPath>
    </defs>
    <g clip-path="url(#a)" transform="matrix(1.33333 0 0 -1.33333 0 32)">
        <path fill="red" d="M4.732 13.344c-.725-.291-.906-.842-.906-1.357V10.82c0-.446.29-.68.671-.854.104-.048.718-.226 1.546-.457v4.106c-.626-.09-1.093-.185-1.31-.272M19.503 9.967c.38.175.67.408.67.854v1.166c0 .515-.181 1.066-.905 1.357-.218.087-.686.183-1.314.272l-.001-4.107c.83.23 1.446.41 1.55.458"/>
        <path fill="red" d="M22.434 9.633c0 1.269-.085 1.848-1.26 1.848v-.66c0-.542-.218-1.288-1.255-1.763-.151-.07-.895-.288-1.936-.58a.99.99 0 0 0 .658-.93V5.456a2.19 2.19 0 0 0-2.187-2.187 2.19 2.19 0 0 0-2.188 2.187v2.008c-.676-.182-1.354-.364-2.008-.538L12 6.856l-.257.07-2.011.539v-2.01A2.19 2.19 0 0 0 7.544 3.27a2.19 2.19 0 0 0-2.187 2.187v2.092c0 .432.277.79.66.932-1.041.29-1.785.509-1.937.579-1.036.475-1.253 1.22-1.253 1.762v.66c-1.152 0-1.26-.58-1.26-1.848 0-.4-.565-6.885-.565-6.885A1.75 1.75 0 0 1 2.752 1H21.25c.967 0 1.75.783 1.75 1.75z"/>
        <path fill="red" d="M17.102 7.548l.002 10.348a5.106 5.106 0 0 1-10.21 0V7.548h-.538V5.456a1.187 1.187 0 0 1 2.375 0v2.092h-.537v10.348A3.806 3.806 0 0 0 12 21.699a3.809 3.809 0 0 0 3.805-3.803l-.002-10.348h-.537V5.456a1.187 1.187 0 1 1 2.375 0v2.092z"/>
        <path fill="red" d="M12 8.904a.982.982 0 1 0-.002 1.964A.982.982 0 0 0 12 8.904m0 5.104c-.983 0-2.001-.038-2.956-.099V8.686C10.621 8.26 12 7.891 12 7.891s1.377.367 2.952.794l.001 5.224c-.954.061-1.971.1-2.953.1"/>
    </g>
</svg>
