<svg xmlns="http://www.w3.org/2000/svg" width="32" height="32" viewBox="0 0 32 32">
    <defs>
        <clipPath id="a">
            <path d="M0 24h24V0H0z"/>
        </clipPath>
    </defs>
    <g clip-path="url(#a)" transform="matrix(1.33333 0 0 -1.33333 0 32)">
        <path fill="#b45000" d="M18.338 3.889c-1.59-1.043-3.84-1.713-6.34-1.711-2.495-.002-4.748.668-6.338 1.71-1.595 1.05-2.493 2.425-2.491 3.87-.005 1.317.754 2.578 2.095 3.582.594-2.35 3.47-3.875 6.736-3.884 3.265.009 6.144 1.535 6.736 3.886 1.34-1.006 2.099-2.266 2.096-3.584.002-1.445-.896-2.82-2.494-3.87M7.962 14.594c.517-1.434 2.076-2.302 3.686-2.305.134 0 .272.006.41.018h.004c1.835.147 3.032 1.168 3.634 2.49 1.273-.684 1.99-1.67 1.982-2.65 0-.873-.545-1.732-1.57-2.406C15.09 9.07 13.625 8.632 12 8.634c-1.626-.002-3.09.437-4.108 1.106-1.025.674-1.57 1.533-1.568 2.407-.008.888.58 1.775 1.638 2.446m1.002 1.236c.103.635.317.866.71 1.12.597.374 1.666.519 2.703 1.028.752.36 1.457 1.009 1.85 2.05.49-.944.757-2.004.755-2.98-.043-1.91-.871-3.346-3.027-3.567a3.81 3.81 0 0 0-.307-.014c-1.51.01-2.7.954-2.702 2.11 0 .085.006.17.018.253m9.83-3.105c-.242 1.379-1.311 2.496-2.742 3.209.069.366.114.737.106 1.114-.002 1.683-.623 3.462-1.755 4.845L13.492 23l-.131-1.428c-.242-2.116-1.136-2.425-2.378-2.883-.617-.205-1.293-.363-1.913-.731-.624-.355-1.158-1.021-1.27-1.961-.008-.048-.006-.098-.011-.148-1.35-.714-2.355-1.802-2.588-3.13-1.914-1.19-3.206-2.934-3.21-4.961C2.06 3.813 6.63 1.01 11.999 1c5.37.01 9.942 2.81 10.01 6.758-.003 2.029-1.296 3.774-3.214 4.966"/>
    </g>
</svg>
