<svg xmlns="http://www.w3.org/2000/svg" width="32" height="32" viewBox="0 0 32 32">
    <defs>
        <clipPath id="a">
            <path d="M0 24h24V0H0z"/>
        </clipPath>
    </defs>
    <g clip-path="url(#a)" transform="matrix(1.33333 0 0 -1.33333 0 32)">
        <path fill="#595959" d="M14.715 11.51c-.422-.26-1.12-.46-2.031-.457-.317 0-.66.023-1.027.074-2.041.35-2.395 1.065-2.448 2.099 0 .157.028.333.055.509h2.92c.004-.053.013-.106.013-.158-.068-.491-.02-.713-.851-.89l.188-1.288c1.432.152 2.03 1.362 1.963 2.178 0 .056-.011.103-.013.158h.71l.609-2.16c-.031-.02-.053-.043-.088-.065m8.023-3.725c-1.088 2.342-2.236 4.299-2.001 5.368.166.748 2.175.546 2 1.207-.172.662-2.196.34-2.673 1.429-.375.858-.211 1.584-.162 1.7.085.2-.1.417-.26.417H4.12v.792H1.79L1 17.906v-4.171h6.964c-.02-.17-.056-.34-.056-.51-.055-1.622 1.165-3.113 3.568-3.385.425-.06.827-.088 1.208-.088.958.002 1.812.192 2.48.537l.739-2.617.146-1.506s.177-.863.733-.863h5.658c.52 0 .796 1.41.298 2.482"/>
    </g>
</svg>
