<svg xmlns="http://www.w3.org/2000/svg" width="32" height="32" viewBox="0 0 32 32">
    <defs>
        <clipPath id="a">
            <path d="M0 24h24V0H0z"/>
        </clipPath>
    </defs>
    <g clip-path="url(#a)" transform="matrix(1.33333 0 0 -1.33333 0 32)">
        <path fill="red" d="M12.22 2.485c-1.815 0-5.742 1.36-5.742 6.686 0 0 2.353-2.532 4.19-3.554.403 2.014 1.553 4.254 1.553 4.254s1.153-2.24 1.554-4.254c1.839 1.022 4.189 3.554 4.189 3.554 0-5.326-3.925-6.686-5.743-6.686m9.542 8.471c-1.293 4.681.284 7.026.284 7.026-4.56-.546-6.235-5.402-6.235-5.402-.902 4.866 1.218 7.683 1.218 7.683-5.26.178-7.774-4.967-7.774-4.967s-.528 1.715-.36 3.737c.228 2.76.57 3.967.57 3.967s-5.055-1.324-6.935-7.806C.068 6.705 4.685 1 12.77 1c7.604 0 10.456 4.658 8.992 9.956"/>
    </g>
</svg>
