<svg xmlns="http://www.w3.org/2000/svg" width="32" height="32" viewBox="0 0 32 32">
    <defs>
        <clipPath id="a">
            <path d="M0 24h24V0H0z"/>
        </clipPath>
    </defs>
    <g clip-path="url(#a)" transform="matrix(1.33333 0 0 -1.33333 0 32)">
        <path fill="#00f" d="M14.889 16.306c.293-.045.543-.09.736-.13v-.06c-1.074-.267-3.411-.157-3.373-.338h-.026V6.492c-.077 0-.147.007-.225.007-1.085-.002-2.06.237-2.714.582-.671.354-.925.763-.912 1.032v9.329c.916-.594 2.239-.884 3.626-.91a19.26 19.26 0 0 0 2.888-.226m5.094-3.613c.293-.046.543-.091.738-.13V2.554c-.79.144-2.113.33-3.627.33-1.084 0-2.06.239-2.713.585-.672.354-.926.762-.912 1.03v9.329c.916-.593 2.238-.884 3.625-.908 1.129 0 2.149-.113 2.889-.226M3.282 21.052c.916-.594 2.238-.885 3.625-.908 1.576 0 2.939-.222 3.627-.355v-.061c-1.073-.268-3.41-.158-3.374-.34h-.03v-9.285c-.075 0-.145.006-.223.006-1.084-.001-2.061.238-2.715.584-.67.353-.924.762-.91 1.03zm-1.243-9.328c.145-1.93 2.403-2.814 4.868-2.857.078 0 .148-.004.224-.006v-.748c.147-1.93 2.404-2.815 4.87-2.856.077 0 .149-.005.225-.006v-.752c.145-1.927 2.403-2.814 4.868-2.857 1.129 0 2.149-.113 2.889-.227.746-.115 1.207-.23 1.209-.225L21.96 1v12.554l-.47.119c-.03.006-1.97.488-4.397.488-.078 0-.148.009-.225.012v2.996l-.474.118c-.027.006-1.965.486-4.394.488-.077 0-.151.01-.227.012v2.994l-.47.117c-.03.006-1.968.49-4.397.488C4.307 21.383 2.039 23 2.039 23z"/>
    </g>
</svg>
