<svg xmlns="http://www.w3.org/2000/svg" width="32" height="32" viewBox="0 0 32 32">
    <defs>
        <clipPath id="a">
            <path d="M0 24h24V0H0z"/>
        </clipPath>
    </defs>
    <g clip-path="url(#a)" transform="matrix(1.33333 0 0 -1.33333 0 32)">
        <path fill="#595959" d="M17.342 19.884a3.498 3.498 0 0 1-3.498-3.499V5.452a3.174 3.174 0 0 0-3.171-3.169 3.174 3.174 0 0 0-3.171 3.17v7.53l3.067 2.608v4.293H9.175V23h-1.28v-3.116H5.83V23H4.548v-3.116h-1.39v-4.293l3.063-2.607V5.452A4.454 4.454 0 0 1 10.673 1a4.454 4.454 0 0 1 4.452 4.452v10.933a2.218 2.218 0 0 0 4.438 0V1h1.279v15.385a3.499 3.499 0 0 1-3.5 3.5"/>
    </g>
</svg>
