<svg xmlns="http://www.w3.org/2000/svg" width="32" height="32" viewBox="0 0 32 32">
    <defs>
        <clipPath id="a">
            <path d="M0 24h24V0H0z"/>
        </clipPath>
    </defs>
    <g clip-path="url(#a)" transform="matrix(1.33333 0 0 -1.33333 0 32)">
        <path fill="#00f" d="M6.962 20.393c0-.637-.233-1.183-.7-1.64a2.284 2.284 0 0 0-1.655-.686c-.637 0-1.178.228-1.626.686a2.266 2.266 0 0 0-.67 1.64c0 .656.22 1.207.656 1.654.436.448.983.67 1.64.67a2.31 2.31 0 0 0 1.654-.67c.468-.447.701-.998.701-1.654m1.193-10.196c0-.557-.155-.965-.464-1.221-.308-.26-.75-.43-1.326-.508V1.283H2.787v7.185c-.595.078-1.043.248-1.34.508-.3.256-.448.664-.448 1.22v4.77c0 .755.243 1.242.73 1.462.488.217 1.168.327 2.043.327h1.61c.853 0 1.53-.11 2.027-.327.496-.22.746-.707.746-1.462z"/>
        <path fill="#595959" d="M11.375 2.476h-1.192v19.049h1.192z"/>
        <path fill="red" d="M20.05 20.393c0-.637-.23-1.183-.686-1.64a2.233 2.233 0 0 0-1.64-.686c-.636 0-1.182.228-1.64.686a2.236 2.236 0 0 0-.684 1.64c0 .656.222 1.207.67 1.654.447.448 1 .67 1.655.67.636 0 1.182-.222 1.639-.67.457-.447.686-.998.686-1.654M23 7.156c-.516-.278-1.163-.512-1.936-.701a14.925 14.925 0 0 0-2.206-.374V1.283H16.59V6.08c-.775.06-1.561.19-2.354.389-.795.199-1.432.457-1.91.776a644.337 644.337 0 0 1 2.059 5.334c.1.26.243.663.432 1.209s.342.938.462 1.177c.319.755.612 1.242.88 1.462.267.217.769.327 1.505.327.735 0 1.238-.11 1.506-.327.268-.22.56-.707.879-1.462.119-.278.279-.695.477-1.251.199-.557.347-.955.448-1.193.278-.795.566-1.585.862-2.37.299-.785.688-1.783 1.164-2.996"/>
    </g>
</svg>
