<svg xmlns="http://www.w3.org/2000/svg" width="32" height="32" viewBox="0 0 32 32">
    <defs>
        <clipPath id="a">
            <path d="M0 24h24V0H0z"/>
        </clipPath>
    </defs>
    <g clip-path="url(#a)" transform="matrix(1.33333 0 0 -1.33333 0 32)">
        <path fill="#00f" d="M21.01 10.889h-3.543l-.622.533v9.315h4.166zM5.506 2.317c.096.097.205.193.31.265l.398.274.127.455.743 2.674.324 1.174-1.15.402c-1.636.57-3.46 1.752-3.46 2.533v.59h11.387c.465 0 .885.074 1.265.225l1.51-1.297c-.026-.033-.036-.048-.068-.084-.705-.801-2.488-2.424-5.544-2.424V5.803c2.92.007 4.864 1.278 5.939 2.273-.454-1.896-.952-3.936-1.055-4.265l-.316-.988.86-.506zM2.798 12.09c.027.09.116.275.41.406.55.248 2.824 1.055 8.982 1.055h3.352v-.18a1.39 1.39 0 0 0-1.387-1.387H2.798zm19.704 10.894h-7.148V21.36h.19v-.947h-.946v-1.894h.947v-3.67H12.19c-5.354 0-8.272-.61-9.515-1.168-1.11-.498-1.177-1.482-1.177-1.482v-2.105c0-2.264 4.332-3.762 4.332-3.762l-.743-2.673s-1.145-.762-1.145-1.706c0-.933.398-.937.405-.937h13.122s.943.029.943.937c0 .909-.943 1.463-.943 1.463.207.65 1.514 6.172 1.514 6.172h3.328V21.36h.19z"/>
    </g>
</svg>
