<svg xmlns="http://www.w3.org/2000/svg" width="32" height="32" viewBox="0 0 32 32">
    <defs>
        <clipPath id="a">
            <path d="M0 24h24V0H0z"/>
        </clipPath>
    </defs>
    <g clip-path="url(#a)" transform="matrix(1.33333 0 0 -1.33333 0 32)">
        <path fill="#595959" d="M23 21.234h-6.58v-1.495h.178v-.871h-.873v-1.743h.873V11.63c0-.617-.087-1.063-.213-1.39a1.2 1.2 0 0 1-.273.036H4.149c-.467 0-.85-.244-.85-.541 0-.183.156-.338.378-.436.092-2.043 3.978-3.391 3.978-3.391l-.746-2.683s-.992-.477-.992-1.346c0-.867.374-.863.374-.863h12.077s.868.027.868.863-.868 1.346-.868 1.346c.191.599 1.393 5.68 1.393 5.68h3.063V19.74H23z"/>
        <path fill="#595959" d="M3.356 11.274h12.242v1.784l-2.401-.002c-4.928.002-7.612-.558-8.758-1.072-1.02-.46-1.083-.71-1.083-.71M10.198 16.514h.042c2.184.04 2.578 2.21 2.578 2.228l-.823.151c-.006 0-.314-1.577-1.755-1.538-1.5 0-1.799 1.191-1.84 2.496.041 1.265.446 2.282 1.84 2.293.716-.006 1.105-.3 1.373-.609.13-.155.218-.314.272-.429.054-.116.065-.175.068-.173l.81.226h-.002c0 .04-.52 1.81-2.52 1.825-.962.01-1.692-.417-2.11-1.033-.424-.613-.57-1.37-.573-2.1.002-.713.106-1.508.504-2.175.381-.663 1.117-1.162 2.136-1.162M5.298 16.678h.774L7.47 22.82h-.776l-1.017-4.473-1.056 4.473h-.774L2.83 18.349 1.775 22.82H1l1.45-6.143h.775l1.016 4.473z"/>
    </g>
</svg>
