<svg xmlns="http://www.w3.org/2000/svg" width="32" height="32" viewBox="0 0 32 32">
    <path fill="#00f" d="M25.027 27.5l-4.914-4.915 2.469-2.468 4.917 4.916zM7.627 7.628l3.546-.253 10.9 10.898-3.8 3.8-1.907-1.905 1.412-1.413-.903-.904-1.413 1.412-2.025-2.024 1.412-1.415-.906-.905-1.412 1.414-2.025-2.026 1.412-1.411-.905-.905-1.411 1.413-2.228-2.228zm23.039 16.593l-1.176-1.174-.81.81-4.92-4.917 3.262-3.26-1.177-1.176-2.594 2.592L11.813 5.661l-4.642.332-4.664-4.66-1.174 1.179 4.662 4.659-.334 4.644 11.434 11.437-2.594 2.6 1.178 1.176 3.262-3.268 4.912 4.92-.81.81 1.175 1.177z"/>
</svg>
