<svg xmlns="http://www.w3.org/2000/svg" width="32" height="32" viewBox="0 0 32 32">
    <defs>
        <clipPath id="a">
            <path d="M0 24h24V0H0z"/>
        </clipPath>
    </defs>
    <g clip-path="url(#a)" transform="matrix(1.33333 0 0 -1.33333 0 32)">
        <path fill="red" d="M13.888 3.5H6.722v17l5.79-.002c2.704 0 4.944-2.117 4.95-4.809a4.699 4.699 0 0 0-1.025-2.925l-.183-.229.252-.152c1.393-.844 2.326-2.338 2.33-4.08-.008-2.686-2.246-4.801-4.948-4.803M21.9 23H2.1A1.1 1.1 0 0 1 1 21.9V2.1A1.1 1.1 0 0 1 2.1 1h19.8A1.1 1.1 0 0 1 23 2.1v19.8a1.1 1.1 0 0 1-1.1 1.1"/>
        <path fill="red" d="M13.888 10.877l-4.935.004V5.732h4.935c1.53 0 2.71 1.19 2.716 2.571-.005 1.394-1.188 2.574-2.716 2.574M15.227 15.69c-.002 1.393-1.185 2.574-2.714 2.578h-3.56v-5.15h3.712c1.456.084 2.56 1.232 2.562 2.572"/>
    </g>
</svg>
