<svg xmlns="http://www.w3.org/2000/svg" width="32" height="32" viewBox="0 0 32 32">
    <defs>
        <clipPath id="a">
            <path d="M0 24h24V0H0z"/>
        </clipPath>
    </defs>
    <g clip-path="url(#a)" transform="matrix(1.33333 0 0 -1.33333 0 32)">
        <path fill="red" d="M17.557 5.96c-1.184-1.635-3.145-2.709-5.477-2.711l-.08.002h-.082c-2.328 0-4.295 1.078-5.474 2.709-1.217 1.656-1.746 3.783-1.748 6.042.002 2.257.53 4.386 1.746 6.038 1.18 1.637 3.144 2.71 5.476 2.713.028 0 .049 0 .07-.003.046.003.07.003.09.003 2.329 0 4.293-1.076 5.479-2.711 1.217-1.654 1.744-3.783 1.748-6.043-.004-2.256-.531-4.383-1.748-6.039M21.9 23H2.1A1.1 1.1 0 0 1 1 21.9V2.101A1.1 1.1 0 0 1 2.1 1h19.8A1.1 1.1 0 0 1 23 2.101V21.9a1.1 1.1 0 0 1-1.1 1.1"/>
        <path fill="red" d="M12.002 18.259c-1.668-.015-2.721-.631-3.512-1.676-.795-1.06-1.261-2.67-1.263-4.553 0 0-.002-.014 0-.042v-.016c0-1.881.466-3.49 1.261-4.552v-.003c.793-1.045 1.846-1.66 3.508-1.676 1.67.016 2.723.63 3.516 1.676.789 1.059 1.256 2.662 1.258 4.536l.002.007v.069c-.002 1.884-.469 3.494-1.26 4.552-.793 1.047-1.846 1.663-3.51 1.678"/>
    </g>
</svg>
