<svg xmlns="http://www.w3.org/2000/svg" width="32" height="32" viewBox="0 0 32 32">
    <defs>
        <clipPath id="a">
            <path d="M0 24h24V0H0z"/>
        </clipPath>
    </defs>
    <g clip-path="url(#a)" transform="matrix(1.33333 0 0 -1.33333 0 32)">
        <path fill="red" d="M13.047 11.997l2.594-9.796 2.308 2.737 3.534-.61-1.947 4.14c-.88.18-1.914.556-2.935 1.064-1.267.656-2.471 1.454-3.073 2.525a1.687 1.687 0 0 0-.423-.06zM10.471 12.057c-.6-1.07-1.806-1.868-3.074-2.524-1.02-.507-2.054-.882-2.933-1.064L2.517 4.328l3.534.61 2.307-2.736 2.595 9.796h-.057c-.148 0-.289.024-.425.059M13.104 17.496h-2.207a.431.431 0 0 1-.43-.428v-3.345a.434.434 0 0 1 .43-.426h2.207a.432.432 0 0 1 .427.426v3.345a.429.429 0 0 1-.427.428M5.271 14.746v1.301h3.896v1.021c0 .308.087.592.228.842v.11c-.287.626-1.365 1.487-2.582 2.08-1.246.64-2.672 1.05-3.286 1.05H3.5c-.401 0-.685-.089-.851-.245-.169-.153-.346-.45-.35-1.175v-8.668c.004-.722.183-1.02.35-1.174.166-.157.45-.245.851-.245.597-.012 2.049.403 3.313 1.051 1.217.591 2.295 1.454 2.582 2.08v.111a1.69 1.69 0 0 0-.228.838v1.023h-1.36zM21.35 20.904c-.167.157-.45.245-.851.245-.598.012-2.05-.4-3.313-1.05-1.216-.592-2.295-1.453-2.581-2.08v-.11c.14-.25.225-.534.225-.84v-1.023h3.9v-1.3h-3.9v-1.024a1.71 1.71 0 0 0-.225-.834v-.115c.286-.627 1.365-1.486 2.58-2.079 1.265-.647 2.716-1.063 3.314-1.05.402 0 .684.087.85.243.168.155.345.452.35 1.175v8.67c-.005.721-.182 1.02-.35 1.172"/>
    </g>
</svg>
