<svg xmlns="http://www.w3.org/2000/svg" width="32" height="32" viewBox="0 0 32 32">
    <defs>
        <clipPath id="a">
            <path d="M0 24h24V0H0z"/>
        </clipPath>
    </defs>
    <g clip-path="url(#a)" transform="matrix(1.33333 0 0 -1.33333 0 32)">
        <path fill="red" d="M15.947 5.433v10.085l5.751 1.884V7.874zM2.3 15.918l2.287-.571V5.29L2.3 6.077zm3.656 4.22a.92.92 0 0 0 .316.208c.225.102.453.154.697.154.432-.004.923-.16 1.494-.716.34-.31.511-.948.558-1.498-.18.048-.376.107-.58.17-.815.248-1.755.67-2.075 1.013-.4.389-.44.627-.436.635.004.008-.01 0 .026.035m5.244-.357c.573.556 1.063.716 1.497.72.24 0 .471-.054.693-.154.178-.08.286-.166.323-.21.021-.034.017-.026.021-.036.008-.006-.035-.242-.433-.635-.323-.34-1.26-.763-2.075-1.012a15.068 15.068 0 0 0-.582-.17c.047.55.217 1.19.556 1.497m3.616-3.265l-2.436.64c.322.124.647.267.96.43l3.654 1.236 2.9-.643zm-3.457-2.502l2.231.73V4.433l-2.23-.946zm-1.3-.035V3.414L6.943 4.483v10.275zm-2.406 3.03l-1.896-.615-1.724.43 1.96.62zm3.033-1.846l-2.6.65 1.8.608 2.573-.677zm-1.099 5.758c-.8.797-1.735 1.184-2.618 1.18a3.21 3.21 0 0 1-1.36-.301c-.607-.258-1.27-.816-1.277-1.697.01-.593.298-1.1.74-1.585L1 17.229V5.149l9.734-3.342L23 7.016v11.806l-7.732 1.715c-.178.63-.71 1.05-1.216 1.268a3.258 3.258 0 0 1-1.354.297c-.885.004-1.819-.383-2.62-1.18a3.296 3.296 0 0 1-.245-.292 3.274 3.274 0 0 1-.245.29z"/>
    </g>
</svg>
