<svg xmlns="http://www.w3.org/2000/svg" width="32" height="32" viewBox="0 0 32 32">
    <defs>
        <clipPath id="a">
            <path d="M0 24h24V0H0z"/>
        </clipPath>
    </defs>
    <g clip-path="url(#a)" transform="matrix(1.33333 0 0 -1.33333 0 32)">
        <path fill="#b45000" d="M11.999 17.906c-5.195 0-9.407-2.406-9.407-5.374v-3.91c0-2.969 4.212-5.375 9.407-5.375 5.198 0 9.408 2.406 9.408 5.375v3.91c0 2.968-4.21 5.374-9.408 5.374"/>
        <path fill="#595959" d="M21.407 10.53V8.622c0-.065-.013-.127-.017-.192.197-.379.31-.765.31-1.144C21.7 4.927 17.716 2.3 12 2.3c-5.717 0-9.7 2.627-9.7 4.986 0 .38.112.765.31 1.145-.005.064-.018.126-.018.191v1.908C1.588 9.582 1 8.474 1 7.286 1 3.816 5.924 1 12 1 18.076 1 23 3.815 23 7.286c0 1.188-.589 2.297-1.593 3.244"/>
        <path fill="#e6e6e6" d="M11.999 3.247c-5.083 0-9.212 2.305-9.39 5.185-.196-.38-.31-.767-.31-1.146 0-2.358 3.984-4.986 9.7-4.986 5.717 0 9.701 2.628 9.701 4.986 0 .38-.113.765-.309 1.145-.178-2.879-4.307-5.184-9.392-5.184"/>
        <path fill="#ff8c00" d="M20.107 8.622c0-1.928-3.33-4.075-8.108-4.075-4.778 0-8.107 2.147-8.107 4.075v1.192l-.002.002c1.634-1.59 4.65-2.66 8.11-2.66 3.46 0 6.474 1.07 8.108 2.66v-.002z"/>
        <path fill="#e6e6e6" d="M11.999 16.606c4.778 0 8.108-2.147 8.108-4.074 0-1.929-3.33-4.077-8.108-4.077-4.777 0-8.107 2.148-8.107 4.077 0 1.927 3.33 4.074 8.107 4.074"/>
        <path fill="red" d="M5.654 17.668h1.301v-3.743H5.654zM11.349 19.855h1.299v-3.742h-1.299zM8.615 13.376h1.3V9.632h-1.3zM14.082 13.527h1.3V9.784h-1.3z"/>
        <path fill="#ff8c00" d="M7.253 18.661c0 .666-.947 2.151-.947 2.151s-.947-1.485-.947-2.15c0-.428.385-.682.664-.81-.072.061-.135.138-.135.247 0 .295.418.95.418.95s.418-.655.418-.95c0-.109-.063-.186-.135-.248.279.13.664.383.664.81M12.946 20.85C12.946 21.516 12 23 12 23s-.946-1.484-.946-2.15c0-.428.387-.683.666-.812-.073.062-.136.139-.136.249 0 .295.418.95.418.95s.418-.655.418-.95c0-.108-.062-.184-.134-.246.28.13.661.384.661.809M10.213 14.368c0 .666-.947 2.151-.947 2.151s-.947-1.485-.947-2.15c0-.428.386-.683.665-.812-.072.063-.135.14-.135.25 0 .294.418.95.418.95s.418-.656.418-.95c0-.109-.062-.186-.134-.249.279.13.662.384.662.81M15.68 14.52c0 .666-.947 2.15-.947 2.15s-.946-1.485-.946-2.15c0-.428.385-.683.664-.812-.073.063-.135.14-.135.25 0 .294.418.95.418.95s.418-.656.418-.95c0-.109-.062-.186-.134-.249.279.13.662.385.662.81"/>
        <path fill="red" d="M17.045 17.667h1.3v-3.742h-1.3z"/>
        <path fill="#ff8c00" d="M18.643 18.661c0 .666-.947 2.151-.947 2.151s-.946-1.485-.946-2.15c0-.428.385-.683.664-.812-.073.063-.135.14-.135.25 0 .294.418.95.418.95s.418-.656.418-.95c0-.109-.062-.186-.134-.249.279.13.662.384.662.81"/>
    </g>
</svg>
