<svg xmlns="http://www.w3.org/2000/svg" width="32" height="32" viewBox="0 0 32 32">
    <defs>
        <clipPath id="a">
            <path d="M0 24h24V0H0z"/>
        </clipPath>
    </defs>
    <g clip-path="url(#a)" transform="matrix(1.33333 0 0 -1.33333 0 32)">
        <path fill="red" d="M7.133 11.788a.71.71 0 1 1 .004 1.418.71.71 0 0 1-.004-1.418M12.758 11.788a.71.71 0 1 1-.002 1.418.71.71 0 0 1 .002-1.418M8.285 10.55c.348 0 .82-.134 1.487-.55h.345c.665.418 1.14.55 1.485.55.798.053 1.228-.818 2.2-1.303-.439-.357-.955-.507-1.507-.51-.746-.001-1.545.294-2.156.753h-.388c-.612-.457-1.41-.754-2.157-.753-.552.003-1.069.153-1.506.51.97.484 1.4 1.356 2.197 1.303m1.66-1.718c.683-.455 1.515-.744 2.35-.746h.007c.846 0 1.708.318 2.331 1.075l-.178.525c-.943.154-1.404 1.454-2.853 1.514-.474 0-1.01-.165-1.658-.545-.648.379-1.183.543-1.659.545-1.45-.06-1.91-1.36-2.852-1.516l-.176-.523c.623-.758 1.487-1.076 2.337-1.075.835.002 1.667.292 2.35.746"/>
        <path fill="red" d="M19.504 16.232a.93.93 0 0 0-.928.928.93.93 0 0 0 .928.926.93.93 0 0 0 .928-.926.931.931 0 0 0-.928-.928m-9.56-13.48c-1.97 1.486-6.12 2.294-6.352 6.805.35-.783.827-1.47 1.416-2.028 1.28-1.222 3.039-1.863 4.937-1.86h.009c1.896 0 3.65.64 4.929 1.86a6.35 6.35 0 0 1 1.414 2.023c-.236-4.505-4.384-5.313-6.353-6.8M4.789 16.386c.083.491.28 1.231.73 2.022h9.247a3.809 3.809 0 0 1-.03-.422c.004-.565.116-1.148.229-1.599zm9.444-2.28c.035-.048.068-.093.098-.138l-2.87.506c.016.011.03.022.045.031.328.23.774.444 1.243.442.089 0 .178-.008.27-.024.53-.09.936-.453 1.214-.818m-5.815.368L5.56 13.97c.029.044.062.09.097.135.278.365.684.727 1.213.818.09.017.18.025.272.025h.029c.458 0 .888-.222 1.202-.444l.045-.03m-3.875.703H5.85c-.843-.572-1.186-1.51-1.204-1.527l.36-.438 4.198.74.188.534c-.015.01-.335.381-.858.692l2.822.001c-.523-.31-.843-.682-.86-.692l.189-.534 4.198-.74.359.437c-.015.016-.36.957-1.205 1.53h1.31c.25-.76.388-1.587.388-2.454-.028-3.776-2.528-5.814-5.79-5.849-3.26.035-5.761 2.073-5.79 5.85 0 .866.138 1.692.388 2.45m14.96 4.117c-.136 0-.27-.016-.4-.04-.432.62-1.338 1.4-2.63 2.18-1.41.83-3.243 1.564-5.216 1.566a7.098 7.098 0 0 1-2.9-.604c-4.438-1.968-4.818-5.843-4.841-6.514a8.896 8.896 0 0 1-.523-2.255l-.018.005c-.425-1.388-.613-2.609-.613-3.687-.002-6.238 6.426-7.248 7.115-8.369L9.945 1l.47.576c.687 1.121 7.112 2.133 7.112 8.371 0 1.076-.187 2.297-.611 3.685l-.017-.005a8.866 8.866 0 0 1-.56 2.357h.003c-.006.002-.404 1.175-.397 2.002-.006.322.073.543.118.6a.408.408 0 0 0 .093.01c.23.007.728-.143 1.177-.323.106-.037.202-.076.296-.113-.16-.3-.26-.637-.26-1 0-1.182.956-2.135 2.135-2.135a2.134 2.134 0 1 1 0 4.269"/>
    </g>
</svg>
