<svg xmlns="http://www.w3.org/2000/svg" width="32" height="32" viewBox="0 0 32 32">
    <defs>
        <clipPath id="a">
            <path d="M0 24h24V0H0z"/>
        </clipPath>
    </defs>
    <path fill="#e6e6e6" d="M6.24 16.161l-2.716-4.704 6.825-3.942 2.715 4.704zM25.762 16.161l-6.826-3.942 2.714-4.703 6.83 3.941z"/>
    <g clip-path="url(#a)" transform="matrix(1.33333 0 0 -1.33333 0 32)">
        <path fill="red" d="M7.382 15.791a1.34 1.34 0 1 1-2.32-1.34 1.34 1.34 0 0 1 2.32 1.34"/>
        <path fill="#595959" d="M19.321 11.879l-5.119 2.957 2.035 3.527 5.122-2.956zm-14.64 0l-2.039 3.528 5.12 2.957 2.036-3.528zm11.117 8.127L12 13.429l-3.797 6.578L1 15.849l3.24-5.613 6.158 3.558.906-1.57-4.403-7.63 1.042-.6L12 11.022l4.057-7.03 1.044.603-4.406 7.63.906 1.57 6.16-3.56L23 15.85z"/>
        <path fill="red" d="M18.45 16.281a1.339 1.339 0 1 1-1.339-2.318 1.339 1.339 0 0 1 1.34 2.318"/>
    </g>
</svg>
