<svg xmlns="http://www.w3.org/2000/svg" width="32" height="32" viewBox="0 0 32 32">
    <defs>
        <clipPath id="a">
            <path d="M0 24h24V0H0z"/>
        </clipPath>
    </defs>
    <g clip-path="url(#a)" transform="matrix(1.33333 0 0 -1.33333 0 32)">
        <path fill="red" d="M13.84 1l-.002.001V1zm-1.382 7.039h1.532l-.958 1.815c1.27.914 4.652 2.442 4.927 6.449.01.145.015.29.015.429-.004 3.29-2.585 6.252-5.971 6.268-3.39-.016-5.973-2.978-5.976-6.268 0-.135.003-.284.018-.445.275-3.989 3.654-5.518 4.924-6.433l-.957-1.815h1.468z"/>
        <path fill="#e6e6e6" d="M16.366 16.186a.33.33 0 0 0-.316.344l.003.2c.002 1.86-1.178 3.504-2.737 4.104v-.002a.33.33 0 0 0 .237.618c1.826-.71 3.155-2.582 3.161-4.72 0-.075-.002-.15-.004-.227a.334.334 0 0 0-.332-.317z"/>
        <path fill="#595959" d="M11.48 8.04a7.122 7.122 0 0 1-.047-.789c0-.962.227-1.956.949-2.683.463-.459.662-1.174.662-1.997A6.81 6.81 0 0 0 12.89 1.2l.947-.198c.104.503.172 1.038.172 1.57 0 .963-.224 1.957-.945 2.682-.467.463-.665 1.178-.665 1.998 0 .26.022.524.058.788z"/>
        <path fill="#e6e6e6" d="M16.505 15.23a.465.465 0 1 0-.93.002.465.465 0 0 0 .93-.002"/>
    </g>
</svg>
