<svg xmlns="http://www.w3.org/2000/svg" width="32" height="32" viewBox="0 0 32 32">
    <defs>
        <clipPath id="a">
            <path d="M0 24h24V0H0z"/>
        </clipPath>
    </defs>
    <g clip-path="url(#a)" transform="matrix(1.33333 0 0 -1.33333 0 32)">
        <path fill="#f0f" d="M18.263 4.027c.579.15 1.162.332 1.748.546l.78-1.706zM11.41 7.425c-.005.126.026.292.078.475.246-.122.447-.254.572-.388l.872.87c-.254.247-.577.446-.93.623.2.33.447.672.742 1.012l.57-.234v.002c.016.042.162.431.202 1.015.278.253.56.477.84.666l-.001-.01 1.212-.223c.003.02.063.36.102.914.205.067.387.104.53.104h.035c.198-.004.27-.049.308-.084.002-.002.005-.008.008-.01a.455.455 0 0 0 .053-.123.668.668 0 0 0 .023-.179c.028-.598-.616-1.928-1.765-3.057-1.13-1.15-2.458-1.792-3.057-1.765a.692.692 0 0 0-.184.025c-.028.007-.048.016-.066.023-.021.012-.048.024-.058.034h-.001c-.037.038-.081.104-.085.31m4.109.306c.859.26 1.727.59 2.582 1.003l.732-1.596a19.204 19.204 0 0 0-4.676-1.228l-.728.334c.69.332 1.4.843 2.09 1.487m-7.345 5.654c-.095-.15-.276-.25-.516-.253a.888.888 0 0 0-.461.134c-.275.17-.407.443-.405.66a.528.528 0 0 0 .076.268c.16.323.762.462 1.183.456l.044-.096c.099-.22.187-.51.185-.752a.766.766 0 0 0-.106-.417M22.603 1.872l-4.816 10.505-.005.013a1.536 1.536 0 0 1-.115.287l-.023.05c-.06.102-.127.2-.212.287-.005.005-.008.012-.012.017h-.001l-.003.003c-.323.325-.764.45-1.181.447a3.181 3.181 0 0 1-.54-.065c-.061 2.652-.995 7.228-5.953 9.584l-.526-1.113c4.587-2.177 5.24-6.43 5.254-8.833l-.001-.086a7.44 7.44 0 0 1-1.12-.713c-.247.793-.781 1.668-1.813 2.431-1.2.903-2.185 1.136-2.74 1.177-.288.477-.926 1.248-2.276 1.914-.845.425-1.628.593-2.31.59-1.83-.007-2.814-1.143-2.868-1.2l.932-.806c0 .002.02.026.099.097.25.22.882.681 1.838.68.485 0 1.065-.114 1.76-.46.61-.305 1.019-.614 1.299-.88-.498-.108-1.058-.358-1.448-.959-.174-.28-.26-.6-.26-.914.002-.678.374-1.32.99-1.707h.002a2.116 2.116 0 0 1 1.105-.316h.012a1.82 1.82 0 0 1 1.549.835c.218.354.292.732.292 1.065-.004.24-.04.462-.09.666.365-.13.828-.357 1.378-.766 1.132-.862 1.426-1.713 1.487-2.376-.61-.625-1.113-1.272-1.475-1.908a7.543 7.543 0 0 1-1.663.21C6.65 9.643 3.585 8.368 2.19 4.77l1.146-.45C4.552 7.407 7.02 8.38 9.149 8.395c.414.002.809-.043 1.175-.115a3.34 3.34 0 0 1-.143-.856c-.002-.412.118-.858.446-1.18.092-.093.195-.164.3-.225.026-.014.053-.023.078-.036.085-.043.17-.078.26-.103.009-.002.016-.007.022-.009l10.5-4.817a.62.62 0 0 1 .691.124.617.617 0 0 1 .125.693"/>
        <path fill="#f0f" d="M9.514 16.764h1.59v1.59h-1.59zM19.243 16.968h-1.59v-1.591h1.59zM6.589 3.805h1.589v1.591H6.589zM16.599 21.948l-1.047-1.813h2.094zM4.114 12.422l-1.047-1.813H5.16z"/>
    </g>
</svg>
