<svg xmlns="http://www.w3.org/2000/svg" width="32" height="32" viewBox="0 0 32 32">
    <defs>
        <clipPath id="a">
            <path d="M0 24h24V0H0z"/>
        </clipPath>
    </defs>
    <g clip-path="url(#a)" transform="matrix(1.33333 0 0 -1.33333 0 32)">
        <path fill="#00be3c" d="M6.62 2.302l.655 1.252h9.448l.656-1.252zM9.192 13.71c.267.018.497.097.71.202.026.014.057.023.084.037v-1.637l-.438-.672-1.146.96-.01-.011v1.362c.235-.13.496-.221.8-.241m-.47 4.349c.194.312.377.387.47.383.093.004.273-.071.47-.383.095-.156.18-.363.24-.602.054-.222.088-.47.087-.732a3 3 0 0 0-.088-.733 2.187 2.187 0 0 0-.24-.601c-.196-.312-.376-.386-.469-.382-.093-.004-.276.07-.47.382-.188.302-.33.787-.33 1.334 0 .545.142 1.032.33 1.334m2.808 3.258c.195.313.378.386.47.382.091.004.274-.07.47-.382.187-.302.33-.787.327-1.334.002-.545-.14-1.033-.327-1.335-.196-.312-.379-.387-.47-.38-.092-.007-.275.068-.47.38-.187.302-.33.79-.329 1.335-.002.547.142 1.032.33 1.334m2.808-3.258c.195.312.376.387.47.382.09.005.272-.07.467-.382.188-.302.331-.788.33-1.335.001-.545-.142-1.03-.33-1.333-.195-.313-.378-.387-.468-.382-.093-.005-.274.069-.47.382a2.166 2.166 0 0 0-.242.614 2.952 2.952 0 0 0-.086.719 2.96 2.96 0 0 0 .086.72c.06.243.144.456.243.615M7.907 5.953L9.548 7.33l1.083-1.78 1.37 1.608 1.368-1.608 1.083 1.78 1.641-1.378.373.975V4.855H7.532v2.078zm4.805 10.743v-4.061L12 11.814l-.712.82v4.092a4.696 4.696 0 0 1-.03.459 1.88 1.88 0 0 1 .741-.218c.281.02.522.104.742.218a5.05 5.05 0 0 1-.03-.46l.001-.03m2.096-2.986c.303.02.563.114.797.242v-1.358l-.007.009-1.146-.961-.44.675v1.634a1.9 1.9 0 0 1 .796-.241m2.958-9.346v3.029l.978-.452-.189 1.699 2.073.848-2.073.848.19 1.698-1.84-.883v5.575c-.02 1.47-.662 2.919-2.097 3.017a1.883 1.883 0 0 1-.712-.2v.413l.002.029c-.02 1.47-.663 2.919-2.099 3.016-1.436-.097-2.077-1.546-2.098-3.016v-.441c-.213.103-.443.18-.709.198-1.437-.096-2.078-1.545-2.099-3.015V11.15l-1.837.883.19-1.698-2.074-.848 2.073-.848-.189-1.7.976.452V4.365l-1.76-3.362h15.054l-.498.95z"/>
    </g>
</svg>
