<svg xmlns="http://www.w3.org/2000/svg" width="32" height="32" viewBox="0 0 32 32">
    <defs>
        <clipPath id="a">
            <path d="M0 24h24V0H0z"/>
        </clipPath>
    </defs>
    <g clip-path="url(#a)" transform="matrix(1.33333 0 0 -1.33333 0 32)">
        <path fill="#595959" d="M3.368 8.012v6.199L12 10.61l11 4.588-11 4.589-11-4.59 1.068-.445V8.012a1.409 1.409 0 0 1-.488-.377c-.29-.352-.413-.814-.413-1.338.055-1.267 1.05-2.228 1.066-2.292l.485-.545.486.545c.017.064 1.01 1.025 1.066 2.292 0 .524-.124.986-.414 1.338-.134.167-.305.29-.488.377"/>
        <path fill="#595959" d="M18.565 11.981L12 9.245l-6.566 2.736c-.2-1.02-.402-2.787-.557-3.654C4.6 6.782 6.672 5.75 7.353 5.41c1.59-.795 3.153-1.198 4.647-1.198 1.494 0 3.057.403 4.647 1.198.68.34 2.752 1.373 2.475 2.918-.155.867-.357 2.634-.557 3.654"/>
    </g>
</svg>
