<svg xmlns="http://www.w3.org/2000/svg" width="32" height="32" viewBox="0 0 32 32">
    <defs>
        <clipPath id="a">
            <path d="M0 24h24V0H0z"/>
        </clipPath>
    </defs>
    <g clip-path="url(#a)" transform="matrix(1.33333 0 0 -1.33333 0 32)">
        <path fill="#595959" d="M18.441 15.048c.534-1.135.883-2.826.882-4.365 0-.037.002-.037 0-.04.003-1.273-.249-2.467-.615-3.146-.236-.377-.387-.58-.557-.695v8.79c.084-.148.177-.317.29-.544m2.884 1.333c-.74 1.618-2.285 3.249-4.635 3.406-.546.504-1.226.814-2.002.832H4.965c-2.083-.05-3.462-2.178-3.465-4.568V3.38h16.651c1.244.169 2.847 1.596 3.368 2.642.714 1.368.972 2.992.981 4.63-.008 1.996-.399 4.036-1.175 5.728"/>
        <path fill="red" d="M12.444 14.152h4.482v-.805h-4.482zM14.688 19.395c.546 0 1.082-.306 1.518-.906.432-.594.72-1.466.72-2.439v-.675h-4.482v.676c0 .972.29 1.845.72 2.44.438.6.974.905 1.523.905zM2.724 16.05c0 .974.289 1.846.722 2.439.436.6.972.907 1.52.907h7.369c-.7-.853-1.113-2.055-1.115-3.345V4.607H2.724zM12.446 4.606v7.518h4.48V4.606zM20.43 6.582c-.464-.917-1.265-1.757-2.278-1.957v.865c.696.186 1.257.702 1.629 1.417.477.904.724 2.113.76 3.419l.008.005v.326l-.002.014c-.002 1.722-.366 3.534-.995 4.891-.472 1.11-1.046 1.621-1.575 1.863a5.319 5.319 0 0 1-.308.936c1.202-.428 2.038-1.419 2.543-2.493.688-1.488 1.06-3.386 1.065-5.212-.007-1.511-.256-2.952-.847-4.074"/>
        <path fill="#e6e6e6" d="M4.294 7.058a.68.68 0 1 1 0 0M9.623 7.058a.679.679 0 1 1 0-1.358.68.68 0 1 1 0 1.358"/>
    </g>
</svg>
