<svg xmlns="http://www.w3.org/2000/svg" width="32" height="32" viewBox="0 0 32 32">
    <defs>
        <clipPath id="a">
            <path d="M0 24h24V0H0z"/>
        </clipPath>
    </defs>
    <g clip-path="url(#a)" transform="matrix(1.33333 0 0 -1.33333 0 32)">
        <path fill="#00f" d="M4.865 21.737c.43 0 .776-.347.778-.777a.78.78 0 0 0-1.557 0c0 .43.348.777.78.777m2.038-.777a2.041 2.041 0 0 1-4.081 0c0-.904.593-1.661 1.407-1.928L4.232 1l1.264.002-.002 18.028a2.034 2.034 0 0 1 1.41 1.93"/>
        <path fill="#00f" d="M8.157 17.037a.727.727 0 1 0 1.453 0 .727.727 0 0 0-1.453 0m3.202 1.008c.27-.594.474-1.334.474-2.069 0-.712-.204-1.45-.474-2.046-.013-.026-.026-.043-.039-.067l-1.113-.002c.085.117.18.274.268.47.22.48.39 1.124.388 1.645.033.774-.392 1.764-.659 2.14h1.116l.04-.07m2.257-2.01c-.074.101-.107.1-.107.1-.053.018-.588-.17-.795-.394l-.664.71c.457.4.98.63 1.46.651.83-.05 1.2-.822 1.204-1.558-.004-.735-.375-1.506-1.205-1.557-.479.022-1 .252-1.458.654l.663.707c.21-.222.742-.412.795-.39 0 .002.033-.002.107.1.068.1.13.28.13.486 0 .21-.062.39-.13.49m-7.344-.047c0-.799.068-1.52.186-2.084.062-.28.132-.52.242-.742.111-.189.27-.523.795-.563h13.681l-1.088 3.39 1.085 3.388H7.496c-.526-.039-.684-.372-.795-.56-.302-.635-.418-1.618-.428-2.829M8.885 10.313a.727.727 0 1 1-.003-1.454.727.727 0 0 1 .003 1.454"/>
        <path fill="#00f" d="M19.443 6.41h-8.12l.036.068c.271.596.473 1.334.475 2.047-.002.735-.204 1.477-.475 2.07a2.216 2.216 0 0 0-.038.07h8.123l-.683-2.126zM7.536 8.537c-.002.723.064 1.381.158 1.818.026.123.056.23.082.31h2.43c.266-.38.691-1.366.658-2.14.002-.519-.169-1.166-.389-1.646a2.714 2.714 0 0 0-.268-.469H7.774c-.113.348-.25 1.205-.238 2.127m13.637 3.39H7.495c-.527-.04-.683-.372-.794-.564-.302-.633-.418-1.615-.429-2.826 0-.799.068-1.522.187-2.082.062-.283.132-.524.242-.744.111-.192.267-.524.794-.563h13.68l-1.087 3.39z"/>
        <path fill="#00f" d="M13.508 9.654c-.48-.02-1-.254-1.457-.654l.665-.71c.209.223.743.415.792.393 0 0 .036.004.11-.099a.913.913 0 0 0 .128-.49.892.892 0 0 0-.128-.485c-.074-.105-.11-.098-.11-.1-.05-.023-.585.168-.793.391l-.662-.713c.456-.398.978-.629 1.455-.648.832.05 1.203.82 1.209 1.554-.006.74-.377 1.508-1.21 1.561"/>
    </g>
</svg>
