<svg xmlns="http://www.w3.org/2000/svg" width="32" height="32" viewBox="0 0 32 32">
    <defs>
        <clipPath id="a">
            <path d="M0 24h24V0H0z"/>
        </clipPath>
    </defs>
    <g clip-path="url(#a)" transform="matrix(1.33333 0 0 -1.33333 0 32)">
        <path fill="#ff8c00" d="M12.65 13.182V23h-1.301v-9.818A2.28 2.28 0 0 1 9.712 11a2.288 2.288 0 0 1 4.575 0 2.278 2.278 0 0 1-1.637 2.182M12 7a.67.67 0 0 1-.673-.674.672.672 0 0 1 1.346 0A.672.672 0 0 1 12 7M14.828 8.172a.67.67 0 0 1 0-.951.67.67 0 0 1 .951 0 .67.67 0 0 1 .001.95.67.67 0 0 1-.952 0M17.345 11.001a.671.671 0 0 1-.672.673A.67.67 0 0 1 16 11a.672.672 0 1 1 1.345.001M15.778 13.83a.672.672 0 1 1-.95.951.668.668 0 0 1 0-.952.668.668 0 0 1 .95 0M9.17 13.83a.668.668 0 0 1 0 .95.673.673 0 1 1 0-.95M7.327 11.672A.675.675 0 0 1 6.65 11a.674.674 0 0 1 .676-.672.667.667 0 0 1 .672.672.669.669 0 0 1-.672.672M8.22 8.17a.673.673 0 1 1 .95 0 .668.668 0 0 1-.95 0M11.376 2.115c0-.518.142-1.115.624-1.115s.624.597.624 1.115c0 .521-.624 2.174-.624 2.174s-.624-1.653-.624-2.174M16.744 6.254s.73-1.61 1.096-1.98c.366-.364.89-.686 1.23-.345.342.34.02.864-.347 1.229-.368.369-1.979 1.096-1.979 1.096M20.885 11.623c-.521.002-2.174-.623-2.174-.623s1.653-.623 2.174-.625c.517.001 1.115.143 1.114.625 0 .482-.597.624-1.114.623M19.07 18.071c-.34.341-.864.02-1.229-.348-.37-.367-1.096-1.977-1.096-1.977s1.608.728 1.98 1.096c.364.365.687.888.345 1.23M7.253 15.746s-.729 1.608-1.095 1.98c-.365.364-.889.687-1.23.344-.34-.339-.018-.863.348-1.227.367-.37 1.977-1.097 1.977-1.097M3.113 11.625C2.597 11.624 2 11.482 2.001 11c-.002-.481.596-.624 1.113-.623.521-.002 2.174.623 2.174.623s-1.653.622-2.175.625M4.93 3.93c.339-.342.863-.02 1.228.347.369.367 1.096 1.977 1.096 1.977s-1.608-.728-1.98-1.095c-.364-.366-.687-.89-.344-1.23"/>
    </g>
</svg>
