<svg xmlns="http://www.w3.org/2000/svg" width="32" height="32" viewBox="0 0 32 32">
    <defs>
        <clipPath id="a">
            <path d="M0 24h24V0H0z"/>
        </clipPath>
    </defs>
    <g clip-path="url(#a)" transform="matrix(1.33333 0 0 -1.33333 0 32)">
        <path fill="#ff8c00" d="M10.588 20.722h2.826v-1.585c-.434.045-.9.067-1.412.064-.513.003-.978-.018-1.414-.064zm-1.07-9.683H5.052l2.235 3.87zm4.057-1.357H10.43l1.572 2.724zm3.143 5.226l2.235-3.869h-4.47zM13.722 4.79v.846H10.28V4.79c-4.755.717-6.14 4.254-6.14 4.254s.898-.246 2.735-.446L6.8 7.6l3.43-.254.076 1.023c.532-.014 2.857-.014 3.39 0l.075-1.023L17.2 7.6l-.072.997c1.837.2 2.734.446 2.734.446s-1.385-3.537-6.141-4.254m8.072 11.75c-.86.95-2.161 1.391-3.774 1.388-.3 0-.615-.015-.941-.045-.832.49-1.597.827-2.436 1.04v2.413a.607.607 0 0 1-.18.433.608.608 0 0 1-.433.181H9.976a.62.62 0 0 1-.435-.179.623.623 0 0 1-.181-.435v-2.414c-.84-.212-1.605-.55-2.437-1.04-.327.03-.641.046-.942.046-1.615.003-2.914-.438-3.775-1.39C1.349 15.588 1 14.248 1 12.623c0-.852.097-1.79.278-2.824.572-3.227 2.774-7.408 6.928-7.463.49 0 1 .062 1.528.192.664-.285 1.439-.433 2.237-.477h.063c.795.044 1.569.191 2.23.476a6.329 6.329 0 0 1 1.529-.19c4.154.054 6.357 4.235 6.93 7.462.18 1.033.277 1.974.277 2.826 0 1.623-.35 2.963-1.206 3.914"/>
    </g>
</svg>
