<svg xmlns="http://www.w3.org/2000/svg" width="32" height="32" viewBox="0 0 32 32">
    <defs>
        <clipPath id="a">
            <path d="M0 24h24V0H0z"/>
        </clipPath>
    </defs>
    <path fill="#595959" d="M11.841 14.49h1.734v-1.733H11.84zM11.841 24.135h1.734V22.4H11.84zM11.841 20.919h1.734v-1.734H11.84zM11.841 17.705h1.734v-1.734H11.84zM18.425 14.49h1.734v-1.733h-1.734zM18.425 24.135h1.734V22.4h-1.734zM18.425 20.919h1.734v-1.734h-1.734zM18.425 17.705h1.734v-1.734h-1.734zM15.135 14.49h1.733v-1.733h-1.733zM15.135 24.135h1.733V22.4h-1.733zM15.135 20.919h1.733v-1.734h-1.733zM15.135 17.705h1.733v-1.734h-1.733z"/>
    <g clip-path="url(#a)" transform="matrix(1.33333 0 0 -1.33333 0 32)">
        <path fill="#595959" d="M21.7 16.916h-4.945l-.046.662c-.099 1.268-1.186 1.838-1.898 1.76H9.186c-.712.078-1.799-.492-1.893-1.721l-.092-.701h-4.9v.163c.02 2.379 1.726 3.35 3.981 3.404h11.436c2.252-.053 3.96-1.025 3.981-3.404zm-10.863 1.123h2.325v-1.123h-2.325zm6.266-14.58H6.896C4.533 3.51 3.52 4.805 3.463 6.892c-.017 3.32 2.292 5.603 4.723 8.379l.13.146.265 2.03c.155.648.194.514.605.592h.351v-2.422h4.925v2.422h.35c.412-.078.45.056.606-.593l.13-1.873.142-.164c2.433-2.773 4.865-5.207 4.847-8.517-.06-2.087-1.072-3.381-3.434-3.433m5.895 13.62c.01 1.568-.645 2.816-1.652 3.589-1.003.779-2.3 1.114-3.628 1.116H6.282c-1.329-.002-2.627-.337-3.63-1.116-1.006-.773-1.66-2.021-1.653-3.59V15.617h5.763c-2.22-2.516-4.586-4.98-4.6-8.724-.002-1.301.393-2.498 1.216-3.37.82-.871 2.042-1.367 3.518-1.361H17.131c1.462 0 2.673.495 3.49 1.362.821.87 1.217 2.068 1.215 3.369-.018 3.687-2.399 6.234-4.6 8.725h5.762z"/>
    </g>
</svg>
