<svg xmlns="http://www.w3.org/2000/svg" width="32" height="32" viewBox="0 0 32 32">
    <defs>
        <clipPath id="a">
            <path d="M0 24h24V0H0z"/>
        </clipPath>
    </defs>
    <path fill="#595959" d="M25.621 1.335l-7.71 7.71 2.458 2.456 7.708-7.712zM9.044 17.911l-7.71 7.706 2.457 2.457 7.708-7.71z"/>
    <g clip-path="url(#a)" transform="matrix(1.33333 0 0 -1.33333 0 32)">
        <path fill="#595959" d="M21.987 20.248l-5.792-5.794.621-.62-3.326-3.327-3.324-3.323-.622.623-5.792-5.793c.386-.381 1.255-1.013 2.735-1.013h.01c2.164.01 5.416 1.3 10.314 6.187 4.892 4.895 6.18 8.15 6.19 10.316.002 1.488-.633 2.358-1.014 2.744"/>
    </g>
</svg>
