<svg xmlns="http://www.w3.org/2000/svg" width="32" height="32" viewBox="0 0 32 32">
    <defs>
        <clipPath id="a">
            <path d="M0 24h24V0H0z"/>
        </clipPath>
    </defs>
    <g clip-path="url(#a)" transform="matrix(1.33333 0 0 -1.33333 0 32)">
        <path fill="#595959" d="M21.563 18.384h-7.666V6.316h7.666zM20.65 5.277h-1.824v-1.4h1.824zm-2.306 0h-1.227v-1.4h1.227zm-1.709 0h-1.826v-1.4h1.826zm-4.176 13.584c0 .748.611 1.36 1.359 1.36h7.823c.748 0 1.361-.612 1.361-1.36V3.996c0-.748-.613-1.36-1.361-1.36h-7.823c-.748 0-1.359.612-1.359 1.36z"/>
        <path fill="red" d="M.999 13.854h3.963v4.217l6.413-6.665-6.413-6.664v4.216H.999z"/>
    </g>
</svg>
