<svg xmlns="http://www.w3.org/2000/svg" width="32" height="32" viewBox="0 0 32 32">
    <path fill="#ff8c00" d="M3.702 27.844V4.878h2.093v2.48h1.668v-2.48h3.434v2.48h1.666v-2.48h3.438v2.478h1.666V4.878h3.434v2.48h1.666v-2.48h2.09l.004 14.044-2.33-4.037-5.468-3.959h6.042V9.262H5.459v1.664h11.32l.32 3.098-11.64-.006v1.67l11.815.002.217 2.102.572.99H5.46v1.666h13.566l1.785 3.09H5.46v1.667h16.311l1.524 2.639zm15.296-11.675l-.148-1.419.365-.212 1.155.84zm6.537 12.221L19.44 17.836l2.152-1.24 6.096 10.553zm4.427-.632l-3.432-5.945-.004-18.597h-3.759V1.334h-1.666v1.882h-3.434V1.333h-1.666v1.883h-3.438V1.334h-1.666v1.882H7.463V1.334H5.795v1.882H2.038V29.51h22.219l.668 1.156z"/>
</svg>
