<svg xmlns="http://www.w3.org/2000/svg" width="32" height="32" viewBox="0 0 32 32">
    <defs>
        <clipPath id="a">
            <path d="M0 24h24V0H0z"/>
        </clipPath>
    </defs>
    <g clip-path="url(#a)" transform="matrix(1.33333 0 0 -1.33333 0 32)">
        <path fill="#595959" d="M4.993 17.313H3.16a.853.853 0 0 1-.85-.851V8.827c0-.467.383-.85.85-.85h1.833c.468 0 .851.383.851.85v7.635a.854.854 0 0 1-.85.85M21.049 11.54h-1.3v1.303h1.3zm0-2.079h-1.3v1.302h1.3zm0-2.078h-1.3v1.301h1.3zm-2.196 4.157h-1.3v1.303h1.3zm0-2.079h-1.3v1.302h1.3zm0-2.078h-1.3v1.301h1.3zM11.18 2.905c-.515 1.276-.467 2.187-.351 3.179h7.399c-.115-.991-.163-1.905.349-3.179zm-2.707 9.938h5.454v-2.574H8.473zm6.883 0h1.3V11.54h-1.3zm1.3-5.46h-1.3v1.301h1.3zm-1.3 3.38h1.3V9.461h-1.3zm2.501 9.993c.846-2.601.626-3.992.547-6.597h-7.398c.078 2.605.296 3.996-.547 6.597zm3.641-3.443h-1.124v3.5h-1.178c-.035.116-.063.225-.102.345l-.292.898H8.672l.551-1.7c.389-1.203.526-2.102.557-3.043H7.707a.854.854 0 0 1-.851-.851V6.934c0-.467.383-.85.851-.85H9.52c-.115-1.048-.148-2.172.454-3.665l.328-.814h10.199l-.718 1.785c-.417 1.039-.361 1.731-.245 2.694h1.96c.468 0 .851.383.851.85v9.528a.854.854 0 0 1-.851.851"/>
    </g>
</svg>
