<svg xmlns="http://www.w3.org/2000/svg" width="32" height="32" viewBox="0 0 32 32">
    <defs>
        <clipPath id="a">
            <path d="M0 24h24V0H0z"/>
        </clipPath>
    </defs>
    <g clip-path="url(#a)" transform="matrix(1.33333 0 0 -1.33333 0 32)">
        <path fill="red" d="M18.29 13.49c-.305.761-.872 1.793-1.94 2.864-1.068 1.065-2.101 1.633-2.86 1.938-.762.304-1.208.34-1.21.34l.113 1.294c.12-.009 2.467-.245 4.875-2.653 2.411-2.41 2.648-4.759 2.656-4.878h.002l-1.298-.114c-.011 0-.033.45-.338 1.208"/>
        <path fill="red" d="M21.63 13.168a8.306 8.306 0 0 1-.385 1.284c-.42 1.081-1.214 2.549-2.731 4.066-2.273 2.27-4.44 2.927-5.346 3.114-.302.062-.436.07-.436.068l.087 1.299c.1-.004 3.303-.251 6.613-3.561 3.314-3.314 3.56-6.519 3.565-6.618h.002l-1.3-.087c-.003 0-.006.134-.068.435M16.713 8.902c-.01-.006-.043-.018-.155-.02-.705-.054-2.817 1.113-4.67 3.01-1.894 1.851-3.06 3.964-3.007 4.667.004.152.029.144.02.152.007.006.009.027.165.031a.708.708 0 0 0 .047.002c.746 0 2.805-1.153 4.617-3.01 1.9-1.857 3.062-3.966 3.009-4.669-.002-.13-.023-.157-.026-.163M4.665 3.635l-.097-.254s-.103-.274-.22-.56a10.516 10.516 0 0 0-.166-.383c-.165.096-.49.341-.946.803-.382.383-.62.667-.741.85a1.907 1.907 0 0 0-.057.09c.118.055.29.13.438.19.266.108.506.197.506.2l.254.096 4.473 10.081c.573-1.165 1.576-2.46 2.86-3.776 1.313-1.283 2.607-2.287 3.773-2.86zm12.977 4.358c.293.3.4.702.397 1.072-.052 1.53-1.385 3.536-3.39 5.587-2.05 2.003-4.052 3.337-5.583 3.39-.373.002-.78-.105-1.08-.407-.01-.01-.016-.022-.025-.032l-.005.005-.011-.024a1.396 1.396 0 0 1-.347-.785L2.668 5.687c-.1-.039-.217-.086-.34-.137a8.479 8.479 0 0 1-.45-.194c-.155-.084-.223-.084-.436-.273-.13-.119-.365-.418-.36-.805.045-.673.419-1.107 1.236-1.958.85-.816 1.285-1.19 1.96-1.234h.01c.384 0 .67.227.79.35.194.22.194.287.277.442.114.244.245.567.332.79l11.103 4.93c.285.034.573.141.809.36l.007.003-.001.001c.009.01.02.015.03.025z"/>
    </g>
</svg>
