<svg xmlns="http://www.w3.org/2000/svg" width="32" height="32" viewBox="0 0 32 32">
    <defs>
        <clipPath id="a">
            <path d="M0 24h24V0H0z"/>
        </clipPath>
    </defs>
    <g clip-path="url(#a)" transform="matrix(1.33333 0 0 -1.33333 0 32)">
        <path fill="#595959" d="M16.902 9.068l.52-.674h2.54c.835 0 1.55-.289 2.141-.87.588-.58.885-1.3.885-2.157 0-.592-.158-1.13-.475-1.619a3.195 3.195 0 0 0-1.238-1.133 1 1 0 0 1 .047-.182.912.912 0 0 0 .047-.246c0-.488-.389-.81-1.164-.963a12.355 12.355 0 0 0-2.414-.23c-.348 0-.649.006-.905.015-.252.01-.482.036-.687.077a1.277 1.277 0 0 0-.842.597 2.05 2.05 0 0 0-.289 1.084c0 .715.264 1.22.795 1.516.53.295 1.191.443 1.988.443.49 0 .963-.094 1.422-.277a3.663 3.663 0 0 0 1.238-.824c.368.142.668.371.903.69.234.314.351.665.351 1.052 0 .51-.177.96-.535 1.346-.357.386-.779.58-1.269.58h-1.59l.978-1.315H1l2.447 3.09zM4.67 21.201h11.01v-7.07H4.67zm12.232-8.235v9.459H3.447v-9.459h4.657v-1.299H6.628v-1.3h7.093v1.3h-1.475v1.299z"/>
    </g>
</svg>
