<svg xmlns="http://www.w3.org/2000/svg" width="32" height="32" viewBox="0 0 32 32">
    <defs>
        <clipPath id="a">
            <path d="M0 24h24V0H0z"/>
        </clipPath>
    </defs>
    <g clip-path="url(#a)" transform="matrix(1.33333 0 0 -1.33333 0 32)">
        <path fill="#00f" d="M21.941 16.765a6.98 6.98 0 0 0-.443-2.43c-.299-.797-.71-1.473-1.248-2.027l-9.34-9.372A7.63 7.63 0 0 0 8.896 1.52 5.193 5.193 0 0 0 6.638 1c-.758 0-1.367.127-1.828.383-.46.256-.99.693-1.583 1.305a3.44 3.44 0 0 0-.89 1.37 4.986 4.986 0 0 0-.279 1.676c0 .61.094 1.212.278 1.795.184.584.481 1.062.891 1.43l7.622 7.62c.35.349.747.61 1.196.784.452.175.923.262 1.416.262.837 0 1.542-.256 2.105-.768.562-.514.842-1.198.842-2.06a3.24 3.24 0 0 0-.307-1.352 4.273 4.273 0 0 0-.765-1.168L10.08 6.993l-1.32 1.29 5.254 5.286c.164.184.295.383.4.598.1.214.153.426.153.63 0 .348-.1.599-.293.754-.195.153-.465.23-.812.23-.245 0-.483-.041-.708-.122a1.4 1.4 0 0 1-.582-.401l-7.654-7.59c-.204-.185-.358-.472-.46-.86a4.25 4.25 0 0 1-.154-1.074c0-.331.045-.643.138-.94.093-.298.251-.568.476-.814.45-.452.794-.753 1.031-.905.235-.155.598-.231 1.09-.231.532 0 1.05.128 1.552.383.501.256.967.59 1.398.999l9.374 9.374c.348.367.625.85.83 1.443.204.595.305 1.167.305 1.722 0 .778-.107 1.352-.322 1.722-.215.367-.639.869-1.273 1.504-.393.388-.918.68-1.582.877a6.797 6.797 0 0 1-1.89.292 5.411 5.411 0 0 1-1.538-.216 2.806 2.806 0 0 1-1.229-.706L4.886 12.83l-1.32 1.322 7.375 7.376a4.643 4.643 0 0 0 1.83 1.123 7.122 7.122 0 0 0 2.258.35c.857 0 1.726-.141 2.596-.427.873-.288 1.593-.718 2.166-1.292l.771-.77a4.443 4.443 0 0 0 1.027-1.658 6.142 6.142 0 0 0 .352-2.09"/>
    </g>
</svg>
