<svg xmlns="http://www.w3.org/2000/svg" width="32" height="32" viewBox="0 0 32 32">
    <defs>
        <clipPath id="a">
            <path d="M0 24h24V0H0z"/>
        </clipPath>
    </defs>
    <g clip-path="url(#a)" transform="matrix(1.33333 0 0 -1.33333 0 32)">
        <path fill="#00f" d="M21.773 3.553a.329.329 0 0 0-.33-.33H2.557a.33.33 0 0 0-.33.33v13.314c0 .18.15.33.33.33h18.884c.182 0 .331-.15.331-.33zM8.121 20.117h7.762v-1.691H8.118zm13.321-1.691h-3.67v3.579H6.236l-.007-3.58H2.56A1.561 1.561 0 0 1 1 16.868V3.553c0-.862.698-1.558 1.558-1.558h18.884c.86 0 1.558.699 1.558 1.558v13.314a1.56 1.56 0 0 1-1.558 1.559"/>
        <path fill="#00f" d="M2.856 14.202h18.29v.944H2.856zM21.145 13.102H2.856v-.944h18.289zM2.857 5.272h18.288v.945H2.857zM2.856 7.32h18.289v.944H2.856z"/>
    </g>
</svg>
