<svg xmlns="http://www.w3.org/2000/svg" width="32" height="32" viewBox="0 0 32 32">
    <defs>
        <clipPath id="a">
            <path d="M0 24h24V0H0z"/>
        </clipPath>
    </defs>
    <g clip-path="url(#a)" transform="matrix(1.33333 0 0 -1.33333 0 32)">
        <path fill="#00f" d="M17.967 21.222v.551h3.805V17.01a11.018 11.018 0 0 1-3.805 4.212m3.805-18.994h-4.736a11.035 11.035 0 0 1 4.736 4.737zm-19.544 0v4.737a11.035 11.035 0 0 1 4.736-4.737zm0 19.545h3.459v-.78a11.01 11.01 0 0 1-3.46-3.964zm14.512-7.597H6.914v7.597h9.824zm-2.712-1.227c.136-.29.23-.602.23-.947A2.266 2.266 0 0 0 12 9.74a2.264 2.264 0 0 0-2.26 2.262c0 .344.096.656.232.947zm-5.381 0a3.495 3.495 0 0 1-.135-.947A3.49 3.49 0 0 1 12 8.512a3.493 3.493 0 0 1 3.488 3.49c0 .328-.05.644-.134.947h2.613v6.783a9.745 9.745 0 0 0 3.805-7.73 9.785 9.785 0 0 0-9.773-9.774 9.784 9.784 0 0 0-9.771 9.774 9.73 9.73 0 0 0 3.459 7.45v-6.503zM1 1h21.998v22H1z"/>
    </g>
</svg>
