<svg xmlns="http://www.w3.org/2000/svg" width="32" height="32" viewBox="0 0 32 32">
    <defs>
        <clipPath id="a">
            <path d="M0 24h24V0H0z"/>
        </clipPath>
    </defs>
    <path fill="#ff8c00" d="M18.73 6.828H5.188v1.639H18.73zM10.519 12.035H5.188v1.636h5.33zM12.341 13.67h6.39v-1.635h-6.39zM18.73 17.239H5.189v1.637h13.543zM5.188 24.079h3.639V22.44H5.188z"/>
    <g clip-path="url(#a)" transform="matrix(1.33333 0 0 -1.33333 0 32)">
        <path fill="#ff8c00" d="M21.773 5.204a2.98 2.98 0 0 0-2.98-2.977H8.176a4.192 4.192 0 0 1 1.238 2.977v.738h12.36zM5.206 2.227v-.002a2.982 2.982 0 0 0-2.977 2.98v16.568h13.349V7.17H8.184V5.204a2.98 2.98 0 0 0-2.978-2.977M16.805 7.17V23H1.002V5.204A4.203 4.203 0 0 1 5.205 1h13.587A4.203 4.203 0 0 1 23 5.204V7.17z"/>
    </g>
</svg>
