<svg xmlns="http://www.w3.org/2000/svg" width="32" height="32" viewBox="0 0 32 32">
    <defs>
        <clipPath id="a">
            <path d="M0 24h24V0H0z"/>
        </clipPath>
    </defs>
    <g clip-path="url(#a)" transform="matrix(1.33333 0 0 -1.33333 0 32)">
        <path fill="#ff8c00" d="M4.822 9.784v11.61l14.354-7.173V2.606zm9.866 10.341l4.486-2.244.001-2.287-5.637 2.815zm5.374-1.317l-5.309 2.656a.613.613 0 0 1-.785-.208l-1.538-2.294-7.946 3.973a.615.615 0 0 1-.888-.549V9.404c0-.233.13-.443.34-.549l15.577-7.79A.607.607 0 0 1 19.79 1a.613.613 0 0 1 .614.613V18.26a.611.611 0 0 1-.34.548"/>
    </g>
</svg>
