<svg xmlns="http://www.w3.org/2000/svg" width="32" height="32" viewBox="0 0 32 32">
    <defs>
        <clipPath id="a">
            <path d="M0 24h24V0H0z"/>
        </clipPath>
    </defs>
    <g clip-path="url(#a)" transform="matrix(1.33333 0 0 -1.33333 0 32)">
        <path fill="#ff8c00" d="M7.53 17.574c-1.262.372-2.606.56-4.045.56l-.043.001-.118-.002v1l.118.001c.026 0 .049 0 .057-.002a15.167 15.167 0 0 0 4.314-.598 8.15 8.15 0 0 0 2.719-1.363h.002l-.612-.79a7.21 7.21 0 0 1-2.392 1.193M3.485 16.219a.405.405 0 0 1-.045.002l-.115-.002v1H3.498a15.7 15.7 0 0 0 3.028-.285l-.193-.982c-.906.179-1.851.267-2.848.267M8.316 15.386l.378.925c.335-.138.656-.294.964-.47l-.498-.866c-.267.152-.548.29-.844.411M3.485 14.306H3.44c-.029 0-.068 0-.116-.002v1.001H3.497c.42 0 .83-.014 1.238-.045l-.075-.997c-.38.027-.768.043-1.175.043M7.53 13.744c-.518.154-1.05.276-1.597.366l.164.987a14.212 14.212 0 0 0 1.717-.393 8.212 8.212 0 0 0 2.719-1.36l-.61-.792a7.183 7.183 0 0 1-2.393 1.192M7.532 11.83l.282.96a8.171 8.171 0 0 0 2.72-1.36l-.611-.792a7.182 7.182 0 0 1-2.391 1.192M7.531 9.919c-1.265.373-2.608.56-4.033.56-.058 0-.113 0-.165-.002l-.016.999c.064.002.123.002.181.002 1.512 0 2.953-.2 4.315-.598a8.222 8.222 0 0 0 2.72-1.363l-.61-.792c-.685.528-1.479.924-2.392 1.194M3.953 12.406c-.362 0-.598-.014-.598-.014l-.06 1c.008 0 .27.013.658.013.67-.002 1.698-.035 2.518-.294l-.307-.952c-.602.2-1.59.25-2.21.247M13.466 17.173a8.216 8.216 0 0 0 2.718 1.36c1.362.4 2.803.6 4.303.6h.07l.117-.001v-.998H20.5a14.21 14.21 0 0 1-4.033-.56 7.223 7.223 0 0 1-2.393-1.193zm.609-.792l.002-.002zM17.473 16.934a15.5 15.5 0 0 0 3.084.286l.117-.002v-.998H20.5c-.984 0-1.928-.09-2.835-.267zm.19-.98h.003zM14.34 15.842c.307.175.629.332.965.469l.38-.923a7.452 7.452 0 0 1-.846-.413zm.498-.868h.002zM19.263 15.261a16.19 16.19 0 0 0 1.294.045l.117-.002v-.998H20.5c-.394 0-.783-.014-1.164-.043zM13.466 13.344a8.21 8.21 0 0 0 2.72 1.362c.557.164 1.132.294 1.718.39l.162-.984a13.024 13.024 0 0 1-1.598-.367 7.178 7.178 0 0 1-2.392-1.192zm.609-.792h.002zM13.465 11.43a8.223 8.223 0 0 0 2.72 1.36l.283-.96a7.18 7.18 0 0 1-2.392-1.192zM13.466 9.518a8.225 8.225 0 0 0 2.719 1.362c1.362.399 2.802.598 4.315.598.058 0 .117 0 .183-.002l-.02-.997H20.5a14.21 14.21 0 0 1-4.033-.56 7.241 7.241 0 0 1-2.391-1.193zm.609-.793h.002zM17.526 13.112c.816.26 1.846.29 2.52.294.387 0 .65-.016.655-.016h.002l-.06-.998s-.236.014-.598.014c-.623.002-1.612-.047-2.21-.247z"/>
        <path fill="#ff8c00" d="M21.843 8.42a4.04 4.04 0 0 1-.771.102c-.26.009-.516.015-.766.015-1.527 0-2.963-.256-4.305-.767-1.125-.43-2.245-1.035-3.351-1.797v12.443c.029.03.063.069.09.092.89.908 1.99 1.556 3.304 1.942 1.313.387 2.705.58 4.174.58.27 0 .54-.005.81-.014a8.04 8.04 0 0 0 .815-.073zM20.34 4.968a6.087 6.087 0 0 1-.887.09c-.323.01-.648.014-.975.014-1.093 0-2.212-.16-3.361-.481a13.012 13.012 0 0 1-3.106-1.301c-.98.553-2.036.987-3.175 1.3-1.157.322-2.262.482-3.316.482-.348 0-.683-.004-1.002-.014a5.638 5.638 0 0 1-.862-.09L2.316 7.196c.185.037.38.059.585.068.26.01.525.015.795.015 1.496 0 2.91-.283 4.25-.847 1.344-.566 2.679-1.38 4.005-2.435l.063-.05.062.052c1.307 1.056 2.63 1.869 3.962 2.433 1.33.564 2.752.847 4.267.847.249 0 .504-.005.762-.015.21-.01.416-.031.617-.07zM2.157 20.943c.272.039.545.062.815.073.269.009.539.014.81.014a14.69 14.69 0 0 0 4.174-.58c1.315-.386 2.414-1.034 3.304-1.942.027-.023.06-.061.089-.09V5.98c-1.105.758-2.228 1.36-3.35 1.789-1.342.51-2.777.767-4.304.767-.25 0-.506-.006-.766-.015a4.04 4.04 0 0 1-.772-.102zm19.467 1.188c-.455.04-.924.059-1.406.059-1.623 0-3.146-.217-4.564-.653-1.42-.435-2.635-1.154-3.64-2.16a9.077 9.077 0 0 1-3.694 2.16c-1.422.436-2.933.653-4.538.653-.502 0-.981-.02-1.434-.06a8.063 8.063 0 0 1-1.35-.23V6.912L3.03 3.607c.442.077.868.129 1.274.16.406.028.812.046 1.218.046 1.063 0 2.174-.182 3.333-.538a12.321 12.321 0 0 0 3.159-1.464c.909.62 1.944 1.107 3.102 1.464 1.16.356 2.28.538 3.364.538a18.1 18.1 0 0 0 1.189-.045c.404-.032.85-.084 1.33-.161L23 6.912V21.9a8.8 8.8 0 0 1-1.377.23"/>
    </g>
</svg>
