<svg xmlns="http://www.w3.org/2000/svg" width="32" height="32" viewBox="0 0 32 32">
    <path fill="#00f" d="M4.437 23.495l-1.372 2.721v-2.721zM7.9 16.628l-2.826 5.607H3.065v-5.607zm.604-1.256H3.065V9.765h5.438zm0-6.864H3.065V3.065h5.438zm6.868 0H9.76V3.065h5.61zm6.861-1.35L19.5 3.702l-1.872 4.807h-.999V3.065h5.603zm4.504 1.35h-3.245V3.065h5.17zm2.192 0h-.459l.46-1.3zm-4.635 1.257h1.998l-.618 1.746zm-.802 5.607v-3.979l2.734 3.463 1.8-5.09h.904v5.606zm0 1.256h5.438v5.607h-5.438zm5.44 12.303h-5.44v-5.436h5.44zm-6.699-6.696H16.63v-5.607h5.603zM16.63 11.07V9.765h.507zm2.755-2.563l.604-1.55 1.224 1.55zm2.821 1.257l.027.035v5.572H16.71l2.186-5.607zm-5.576 13.73h5.603v5.436H16.63zm-5-1.26H9.761v-3.396zm3.326-6.863H9.76V9.765h5.61v4.536zm-2.168 5.563l-2.375-4.307h4.052zm2.584-2.128v3.428h-1.336zM9.76 28.93v-5.436h2.562l.714 1.3.507-1.3h1.827v5.436zm-2.854-6.696l1.596-3.17v3.17zM3.53 28.93l2.74-5.436h2.232v5.436zM30.663 1.333H1.333v29.334h29.334V1.333z"/>
</svg>
