<svg xmlns="http://www.w3.org/2000/svg" width="32" height="32" viewBox="0 0 32 32">
    <path fill="#00f" d="M8.51 28.93H3.066v-5.435h5.442zm0-6.695H3.066v-5.607h5.442zM3.974 9.765l1.8 5.092 2.734-3.464v3.979H3.067V9.765zm-.446-1.257h-.462V7.195zm4.178 1.257l-1.38 1.746-.618-1.746zm.802-6.698v5.441H5.264L3.34 3.067zm6.862 0v5.441h-.999L12.5 3.701 9.768 7.16V3.067zm6.868 5.441h-5.61V3.067h5.61zm6.692 0h-5.434V3.067h5.434zm-5.434 1.257h5.434v5.607h-5.434zm3.43 12.47L24.1 16.628h4.83v5.607zm.636 1.26h1.368v2.714zm-4.066-1.26v-3.17l1.596 3.17zm0 6.693v-5.433h2.232l2.739 5.433zm-5.532-6.693H16.63v-3.428zm-.92-6.863l-.416-1.07V9.766h5.61v5.607zm2.168 5.563l-1.677-4.307h4.05zm3.026-2.096v3.396H20.37zm-5.61 10.09v-5.434h1.827l.507 1.3.714-1.3h2.562v5.434zm-1.258-6.694H9.768v-5.607h5.603zm-.508-12.47h.508v1.306zm-4.075-1.257l1.224-1.55.604 1.55zm2.317 1.257l2.186 5.607H9.768V9.8l.027-.035zm-3.337 13.73h5.603v5.434H9.768zM30.665 1.333v-.001H1.335v.001h-.002v29.334h29.334V1.333z"/>
</svg>
