<svg xmlns="http://www.w3.org/2000/svg" width="32" height="32" viewBox="0 0 32 32">
    <defs>
        <clipPath id="a">
            <path d="M0 24h24V0H0z"/>
        </clipPath>
    </defs>
    <g clip-path="url(#a)" transform="matrix(1.33333 0 0 -1.33333 0 32)">
        <path fill="#00be3c" d="M12.332 6.295c.169.208.321.42.445.63.379.63.6 1.237.72 1.634l7.123.978c-1.34-.968-4.187-2.626-8.288-3.242m5.109.03c.744.306 1.408.624 1.99.94l.616-1.853zM11.666 7.6c-.273-.441-.606-.845-1.031-1.133l-1.642 4.928c.169.122.317.269.443.434l2.824-2.88a5.928 5.928 0 0 0-.594-1.35M9.198 6.032a6.775 6.775 0 0 0-6.767 6.766c.02 3.12 1.489 5.498 4.183 6.352l.866-3.863a2.162 2.162 0 0 1-1.924-2.144c0-1.195.97-2.166 2.17-2.166.011 0 .022.003.034.004l1.642-4.933c-.068-.005-.133-.016-.204-.016m6.063 14.329l1.1-4.91-.574-.08c-.683 1.022-1.61 1.463-1.648 1.482l-.553-1.178c.008-.003.081-.04.226-.135.13-.09.294-.215.463-.377l-1.132-.155c-.685 1.05-1.631 1.507-1.67 1.525l-.556-1.174s.073-.034.227-.136c.141-.097.322-.24.504-.421l-.576-.08-1.664-.228a2.198 2.198 0 0 1-.523.477L7.9 19.35zm5.007-9.558l-7.052-.97-3.332 3.399-.002.014 2.514.346c.087-.276.142-.585.142-.936h1.302a4.577 4.577 0 0 1-.156 1.113l1.368.187c.095-.284.154-.608.153-.976h1.302a4.434 4.434 0 0 1-.17 1.153l.579.08zm-1.083 2.956c.229.34.374.74.375 1.183a2.17 2.17 0 0 1-2.17 2.168c-.023 0-.044-.005-.067-.006l-1.056 4.709-9.938-1.39C2.97 19.43 1.11 16.36 1.131 12.797a8.064 8.064 0 0 1 8.066-8.065h.019c.211 0 .41.015.617.02l.551-1.652-6.84 2.398-.429-1.228L12.458.992l-1.277 3.836c1.588.14 3.019.432 4.289.809l6.651-2.333-1.543 4.635c1.169.746 1.799 1.335 1.822 1.357l.596.567zm-5.6 1.915h.001l-.001.002z"/>
    </g>
</svg>
