<svg xmlns="http://www.w3.org/2000/svg" width="32" height="32" viewBox="0 0 32 32">
    <defs>
        <clipPath id="a">
            <path d="M0 24h24V0H0z"/>
        </clipPath>
    </defs>
    <g clip-path="url(#a)" transform="matrix(1.33333 0 0 -1.33333 0 32)">
        <path fill="#00be3c" d="M22.44 17.2l-5.243 5.241a1.907 1.907 0 1 1-2.696-2.697l5.243-5.243a1.908 1.908 0 0 1 2.677-.018l.02.018.003.004.16.158.002.028c.574.746.52 1.823-.166 2.508M10.866 15.769L5 14.463 9.359 10.1 1 1.742 1.74 1 10.1 9.359l4.36-4.363 1.309 5.872-4.901 4.902zM11.607 16.51l4.902-4.901 2.326 2.325-4.903 4.902z"/>
    </g>
</svg>
