<svg xmlns="http://www.w3.org/2000/svg" width="32" height="32" viewBox="0 0 32 32">
    <defs>
        <clipPath id="a">
            <path d="M0 24h24V0H0z"/>
        </clipPath>
    </defs>
    <g clip-path="url(#a)" transform="matrix(1.33333 0 0 -1.33333 0 32)">
        <path fill="#ff8c00" d="M14.382 12.491c.107-1.546 1.96-2.443 1.51-5.476-.246-1.659-2.108-1.725-2.341-3.235-.232-1.489.658-2.4 2.13-2.706 2.374-.493 2.74 1.588 3.398 3.026.778 1.691 1.713 4.47 1.5 6.358-.09.787-1.166 2.875-3.026 3.46-.054.016-3.332.885-3.171-1.427M14.708 14.162c-.778-.184-1.6.477-1.84 1.48-.243 1.002.192 1.965.97 2.151.778.185 1.599-.474 1.842-1.479.24-1.003-.192-1.965-.972-2.152M16.725 14.452c-.55.093-.905.692-.794 1.336.107.648.64 1.097 1.187 1.005.549-.094.904-.692.796-1.338-.108-.647-.642-1.097-1.19-1.003M18.37 13.951c-.453.23-.6.846-.329 1.381.267.533.854.783 1.307.554.453-.232.603-.847.33-1.382-.267-.535-.855-.783-1.308-.553M19.618 13.073c-.3.306-.25.838.11 1.19.36.354.891.392 1.19.088.302-.308.254-.839-.11-1.19-.359-.355-.892-.394-1.19-.088M20.465 11.91c-.18.307-.005.738.39.968.393.227.854.167 1.034-.142.178-.307.002-.738-.393-.969-.391-.228-.853-.164-1.031.143M9.618 17.667c-.107-1.546-1.96-2.444-1.51-5.476.246-1.66 2.107-1.725 2.341-3.237.232-1.487-.659-2.398-2.13-2.704-2.374-.494-2.74 1.587-3.399 3.026-.777 1.691-1.712 4.47-1.499 6.358.09.788 1.165 2.874 3.026 3.46.053.016 3.332.885 3.171-1.427M9.291 19.338c.78-.185 1.6.476 1.84 1.478.243 1.004-.192 1.966-.97 2.152-.779.186-1.599-.473-1.842-1.478-.24-1.003.192-1.966.972-2.152M7.275 19.628c.549.093.906.692.794 1.336-.107.648-.64 1.097-1.187 1.005-.55-.095-.904-.691-.796-1.34.108-.645.642-1.095 1.189-1.001M5.63 19.127c.452.23.6.847.329 1.38-.268.534-.855.783-1.307.554-.453-.23-.603-.847-.33-1.382.266-.534.855-.783 1.308-.553M4.382 18.249c.3.306.25.838-.11 1.189-.36.355-.891.393-1.19.089-.302-.308-.254-.839.109-1.191.36-.354.893-.393 1.19-.087M3.535 17.086c.18.307.005.738-.39.968-.393.227-.854.167-1.034-.142-.178-.307-.002-.738.393-.97.39-.227.853-.163 1.03.144"/>
    </g>
</svg>
