<svg xmlns="http://www.w3.org/2000/svg" width="32" height="32" viewBox="0 0 32 32">
    <defs>
        <clipPath id="a">
            <path d="M0 24h24V0H0z"/>
        </clipPath>
    </defs>
    <g clip-path="url(#a)" transform="matrix(1.33333 0 0 -1.33333 0 32)">
        <path fill="#00be3c" d="M13.79 8.498c.352.202.687.437.983.732.294.295.536.624.737.974.191-.742.447-1.584.792-2.501-.922.346-1.769.603-2.513.795m-2.449.596l-.25.252 1.325 1.325.925-.925c-.556-.369-1.236-.58-2-.652m-1.17 1.171l-.868.867 1.326 1.326.868-.868zM9.143 9.239c-.442.098-.887.24-1.328.407l.566.567.868-.867zm-.3 5.005l.864-.867-1.325-1.325-.866.865zm-2.295-4.025a9.8 9.8 0 0 0-1.058.673l1.106 1.106.866-.866zM4.35 11.845a7.919 7.919 0 0 0-.686.793l1.147 1.147.867-.868-1.194-1.194c-.043.042-.092.079-.134.122m-1.397 1.922a6.161 6.161 0 0 0-.472 1.26l.543.544.867-.867zm.491 5.874l.906-.906-1.325-1.326-.487.487a5.2 5.2 0 0 0 .906 1.745m2.664 1.824l.486-.486-1.325-1.325-.905.906c.532.418 1.118.72 1.744.905M4.81 15.623l-.866.867 1.326 1.325.866-.866zm2.246.406l.868-.867-1.326-1.326-.868.868zm1.324 3.164l-1.325-1.324-.866.865 1.325 1.325zm.597 2.329a6.217 6.217 0 0 0 1.26-.473l-.938-.937-.866.866zm3.181-1.87c.042-.042.08-.091.121-.134l-1.192-1.193-.868.867 1.146 1.146c.27-.207.535-.429.793-.686m.952-1.141c.243-.339.474-.69.674-1.058l-.912-.913-.866.867zm1.246-2.324c.168-.441.311-.886.41-1.329l-.106-.105-.869.869zm.304-3.272l.25-.25c-.07-.766-.28-1.445-.65-2.001l-.926.926zm-1.788 1.788l.868-.869-1.325-1.325-.868.868zm-4.029 1.378l-.868.868L9.3 18.273l.867-.867zm2.243.406l.867-.865-1.326-1.326-.865.867zm7.115-8.868l-.326-.326a23.393 23.393 0 0 0-1.353 4.297c-.245 1.201-.267 1.884-.273 1.886h-.013c-.085 2.495-1.272 5.195-3.16 7.093-1.622 1.629-3.584 2.437-5.478 2.435a6.526 6.526 0 0 1-4.659-1.943 6.54 6.54 0 0 1-1.942-4.655c0-1.894.807-3.854 2.434-5.48 1.902-1.889 4.602-3.074 7.098-3.158v-.011c.005-.002.687-.03 1.886-.274a23.454 23.454 0 0 0 4.298-1.353l-.326-.327 4.797-4.798L23 2.82zM10.528 7.755v.002z"/>
        <path fill="#ff8c00" d="M4.695 3.13a1.849 1.849 0 1 1-3.698 0 1.849 1.849 0 0 1 3.698 0"/>
    </g>
</svg>
