<svg xmlns="http://www.w3.org/2000/svg" width="32" height="32" viewBox="0 0 32 32">
    <defs>
        <clipPath id="a">
            <path d="M0 24h24V0H0z"/>
        </clipPath>
    </defs>
    <g clip-path="url(#a)" transform="matrix(1.33333 0 0 -1.33333 0 32)">
        <path fill="#595959" d="M17.594 4.113l-.35.905 1.949 3.688 1.895 1.34.295-.38a9.688 9.688 0 0 0-3.79-5.553m-6.89-1.696l-.594.96 2.422 1.236.167-.002 3.64-.023.395-1.024A9.65 9.65 0 0 0 12 2.318a9.726 9.726 0 0 0-1.297.1M4.68 18.32l-.206-1.348-2.085-4.145-.03-.016a9.656 9.656 0 0 0 2.32 5.51m10.118 2.944l-2.597.045-1.617.256c.463.068.934.116 1.417.117a9.712 9.712 0 0 0 2.797-.418m6.106-5.468l-1.796 1.604-2.07 2.851a9.72 9.72 0 0 0 3.866-4.455m-2.205-6.216l-2.342 2.117-.041 3.863 1.955 1.247 2.166-1.935.216-3.91zM9.443 4.158L6.172 6.123l-.48 2.855 2.499 1.49 3.332-1.707.49-3.289zM2.705 11.86l1.998-3.024.465-2.773-.583-.277a9.656 9.656 0 0 0-2.25 5.87zm5.96-.51l-.047 3.93 3.189 1.89 3.508-1.648.042-3.794-3.393-2.069zm-2.793 8.14a9.725 9.725 0 0 0 2.377 1.435l3.385-.537-.325-2.352-3.235-1.916-2.606.732zM12 22.983C5.933 22.984 1.016 18.067 1.016 12 1.016 5.934 5.933 1.017 12 1.017c6.066 0 10.983 4.917 10.983 10.983 0 6.067-4.917 10.984-10.983 10.984"/>
    </g>
</svg>
