<svg xmlns="http://www.w3.org/2000/svg" width="32" height="32" viewBox="0 0 32 32">
    <defs>
        <clipPath id="a">
            <path d="M0 24h24V0H0z"/>
        </clipPath>
    </defs>
    <g clip-path="url(#a)" transform="matrix(1.33333 0 0 -1.33333 0 32)">
        <path fill="#00f" d="M16.519 6.142l-.054-.028c-.026.017-.044.045-.073.06L12.306 8.36l.263 1.784c.106.02.21.06.316.097l.358-1.492a1 1 0 0 1 .397-.584zm-2.08-2.967c-.264-.167-.426-.187-.526-.19a.436.436 0 0 0-.197.046c-.053.025-.11.03-.167.04l3.172 1.705zm7.419 8.69l-5.235 4.048a.994.994 0 0 1-.3.669l-2.033 1.937a1.005 1.005 0 0 1-.565.27l-3.114.39c.062.22.094.452.074.692a1.956 1.956 0 0 1-2.104 1.79 1.955 1.955 0 0 1-1.79-2.104 1.95 1.95 0 0 1 1.257-1.663c-.086-.051-.172-.102-.242-.18l-2.134-2.375a.995.995 0 0 1-.253-.588l-.18-2.186-3.243-4.943a.65.65 0 1 1 1.086-.713l3.004 4.573c.024-.004.044-.018.069-.02a1 1 0 0 1 1.077.917l.153 1.875.963 1.07c.11-.216.56-1.165 1.718-3.861.13-.304.334-.546.564-.756l-.404-2.752c-.062-.42.146-.83.519-1.03l3.626-1.938-2.63-1.413a1.106 1.106 0 0 0-.478-.132c-.146.006-.19.037-.266.078a.651.651 0 0 1-.659-1.121c.114-.07.45-.256.903-.256h.022c.317-.002.683.08 1.076.276l.51.275a.647.647 0 0 1 .322-.843c.118-.055.389-.168.742-.166h.008c.36 0 .798.119 1.246.415l5.735 4.02a.649.649 0 0 1-.747 1.062v.002l-.426-.3a.622.622 0 0 1-.064.21.65.65 0 0 1-.88.267l-.296-.16-3.392 2.384-.75 3.134a2.225 2.225 0 0 1-.146.519 141.582 141.582 0 0 1-1.612 3.652c-.006.01-.008.016-.013.027l.573-.072 1.792-1.711a.996.996 0 0 1 .689-.276c.064 0 .123.025.186.037l5.247-4.056a.652.652 0 0 1 .912.116.649.649 0 0 1-.117.91"/>
    </g>
</svg>
