<svg xmlns="http://www.w3.org/2000/svg" width="32" height="32" viewBox="0 0 32 32">
    <defs>
        <clipPath id="a">
            <path d="M0 24h24V0H0z"/>
        </clipPath>
    </defs>
    <g clip-path="url(#a)" transform="matrix(1.33333 0 0 -1.33333 0 32)">
        <path fill="#00f" d="M10.04 15.256h.018l.007-.002c.058 0 .117.006.176.018l3.181.633c.055.01.097.042.148.062.164-.46.257-.976.17-1.503-.48.068-1.594.222-2.23.229-.124-.007-.208.012-.488-.058-.789-.317-.733-.603-.958-.87a8.764 8.764 0 0 1-.438-.955l-2.552 2.535zm1.306-4.182c.096.324.21.649.32.93a7.6 7.6 0 0 0 .203.469 33.66 33.66 0 0 0 1.103-.127l.683-.092s.57-.02 1.126-.251l-1.022-1.197a1.094 1.094 0 0 1-.26-.767l.056-1.183-1.764 1.763zm-9.755 2.875L13.654 1.886a2.92 2.92 0 0 1 1.023-.658A3.486 3.486 0 0 1 15.944 1a3.31 3.31 0 0 1 1.848.549c.56.367.84.865.84 1.496 0 .266-.057.515-.168.749a1.88 1.88 0 0 1-.443.596l-1.405 1.404-.745.745-.153 3.173.853 1c.028.032.036.072.06.106l.012-.006c.796.946 1.026 2.342 1.026 3.776 0 .448-.089.965-.23 1.476l1.026-.35 2.236-2.55a.898.898 0 0 1 1.271-.085.901.901 0 0 1 .084 1.27l-2.394 2.73c-.013.016-.03.02-.044.035-.042.042-.092.074-.142.108-.05.034-.1.068-.156.09-.017.008-.029.022-.047.028l-3.44 1.172c-1 .34-2.856-.855-3.21-.932l-2.624-.522-3.043.09a.888.888 0 0 1-.905-.787l-.093.092a2.56 2.56 0 0 1-1.039.672 3.773 3.773 0 0 1-1.252.213 3.284 3.284 0 0 1-1.847-.534c-.54-.357-.809-.87-.809-1.542 0-.225.05-.454.152-.688.102-.234.245-.442.428-.625M13.637 18.566a1.866 1.866 0 0 1-.848 3.633 1.863 1.863 0 0 1-1.392-2.24 1.864 1.864 0 0 1 2.24-1.393"/>
    </g>
</svg>
