<svg xmlns="http://www.w3.org/2000/svg" width="32" height="32" viewBox="0 0 32 32">
    <defs>
        <clipPath id="a">
            <path d="M0 24h24V0H0z"/>
        </clipPath>
    </defs>
    <g clip-path="url(#a)" transform="matrix(1.33333 0 0 -1.33333 0 32)">
        <path fill="#ff8c00" d="M9.203 16.098c.244.315.443.976.848.705.673-.45.016-.42-.387-.798-.194-.182-.252-.464-.26-.7-.25.085-.478.178-.69.277.179.17.376.37.489.516m12.379-3.5c.374.157.653.42.653.42s-.258-.018-.676-.02c-.71-.003-1.526.679-1.526.679l.003-.008c-.503.428-1.14.806-2.004.765-.468.524-1.145.844-2.131.71-1.337-.18-2.206-.295-2.874-.347-.144.242-.266.587.104.707.532.174 1.472.534.594 1.957-.678 1.097-1.897 1.31-2.507 1.305-.55-.004-1.433-.037-1.94.02a.9.9 0 0 1-.244.29c-.412.315-1.018.215-1.353-.222a1.01 1.01 0 0 1-.19-.796l-.144-.12a.214.214 0 1 1 .274-.328l.057.047c.045-.058.082-.121.142-.167a.938.938 0 0 1 1.057-.042 2.475 2.475 0 0 0-.068-.352c-.148-.526-.474-.916-.748-1.17a6.926 6.926 0 0 0-1.262.998c-.41.399-.971.855-1.536 1.097l.083.847-.548-.706c-.06.01-.121.024-.18.028-.096.006-.164-.016-.246-.025l-.303.829-.213-.992c-.228-.15-.377-.357-.497-.537-.22-.326-.593-1.002-1.021-1.445 0 0-1.272-.94-1.334-1.288-.048-.271.418-1.113.708-1.167.435-.082 1.858 1.033 2.495.978 0 0 .687-.148 1.037-1.05.348-.906.495-1.266.75-2.387A4.547 4.547 0 0 1 7.208 8.95c-.606-.554-1.242-1.164-1.345-1.373-.204-.414.813-1.8 1.92-2.343.43-.211.904-.074 1.265-.081.572-.01.937-.055.967.065 0 0 .025.505-.45.738-.475.234-.63-.33-1.382.039-.752.37-1.438 1.027-1.253 1.403.12.244 1.08.593 1.8.786.34-.133.655-.308.806-.523.38-.545 1.3-1.988 3.124-2.444 0 0 .426-.11.836-.432.317-.25.495.89.269.93-.445.079-1.547.366-2.254 1.115-.43.455-.788 1.024-1.056 1.556 1.193.247 2.459.67 2.978.873.829.32 1.755.452 2.346.518.048-.215.046-.401-.062-.51-.274-.281-2.395-1.153-2.642-1.406-.25-.253-.67-1.385-.402-1.647 0 0 .583.2.62.55.039.349.203.6.743.87s2.899 1.019 3.132 1.342c.105.143.064.41.008.69a.566.566 0 0 1 .04-.008c.356-.358.834-.871.804-1.083-.037-.266-1.586-1.378-1.9-1.694-.126-.162-.493-.621-.504-1.033-.012-.404-.337-1.185.034-1.101.372.082.813.239.674.529-.141.29.042.836.564 1.189.522.356 2.687 1.6 2.739 1.977.027.19-.34.886-.637 1.54.006.109.013.22.027.359a8.441 8.441 0 0 1-.098 1.998c.436-.343.944-.69 1.32-.78 1.328-.314 2.624.685 2.76 1.027 0 0-.745-.13-1.417.013"/>
    </g>
</svg>
