<svg xmlns="http://www.w3.org/2000/svg" width="32" height="32" viewBox="0 0 32 32">
    <defs>
        <clipPath id="a">
            <path d="M0 24h24V0H0z"/>
        </clipPath>
    </defs>
    <g clip-path="url(#a)" transform="matrix(1.33333 0 0 -1.33333 0 32)">
        <path fill="#003c96" d="M4.178 9.37h-1.74c.246.994.831 1.735 1.74 2.236zm8.151-3.556c.068.006.66 2.01 2.302 2.15H23.011l-.003 1.404v.002H5.18v2.696c2.663 1.08 6.147 1.823 6.422 1.883.321.078 1.194.233 2.01.496 1.24.006 2.988.031 4.512.123.877.053 1.675.125 2.27.232.575.151 1.021.13 1.142.655l-.002.004a.886.886 0 0 1-.22.54c-.215.258-.624.475-1.305.473-.345 0-.759-.05-1.269-.175-.103.017-.346.06-.628.11 3.34 1.374 4.28 1.35 4.877 1.352H23v1.3l-.012.001c-.98.004-2.66-.058-9.09-3.106-.64-.344-2.108-.634-2.585-.737-.303-.07-4.496-.947-7.405-2.283-1.519-.673-2.489-1.977-2.794-3.564h-.008L1.1 9.295a5.655 5.655 0 0 1-.082-.757c-.014-.085-.03-.179-.032-.309-.01-.92.637-1.74 1.675-2.21.921-.428 2.191-.689 3.915-.749.247-.008.503-.012.77-.013h4.947v.468z"/>
        <path fill="#003c96" d="M13.715 6.255a4.867 4.867 0 0 1-.424-.735v-.263h9.725l-.003 1.706H14.63c-.234.024-.628-.284-.916-.708M6.334 11.29a.434.434 0 0 1 0-.868h2.603a.433.433 0 0 1 0 .868zM23 11.125v1.25h-9.406s7.781-.875 9.406-1.25"/>
    </g>
</svg>
