<svg xmlns="http://www.w3.org/2000/svg" width="32" height="32" viewBox="0 0 32 32">
    <defs>
        <clipPath id="a">
            <path d="M0 24h24V0H0z"/>
        </clipPath>
    </defs>
    <g clip-path="url(#a)" transform="matrix(1.33333 0 0 -1.33333 0 32)">
        <path fill="#00f" d="M6.336 10.302a1.242 1.242 0 1 1 2.484.002 1.242 1.242 0 0 1-2.484-.002M13.056 15.935h3.374l.724 1.925-2.16.278zM19.701 17.86h-1.916l-.725-1.926h1.918zM21.543 17.86h-1.21l-.725-1.926h1.935zM18.425 12.797c0-1.043 1.789-.994 3.162-.994H23v3.629h-.167c-1.123 0-4.408-1.4-4.408-2.635"/>
        <path fill="#00f" d="M4.114 7.54c-.775.373-1.781 1.125-1.786 2.853-.004 1.356.696 2.44 1.786 3.306zm10.342 12.823a1.615 1.615 0 0 1-1.31-.688l-1.906-2.288c-1.654-.054-4.003-.505-6.071-1.503-2.174-1.046-4.136-2.82-4.142-5.49-.01-1.824.922-3.009 1.82-3.623a5.2 5.2 0 0 1 .9-.502L1.99 3.64H23V7.268H5.414v7.273c.108.058.21.12.323.174 1.96.957 4.378 1.383 5.813 1.377h.304l2.32 2.79c.106.14.19.18.282.18H23v1.301z"/>
    </g>
</svg>
