<svg xmlns="http://www.w3.org/2000/svg" width="32" height="32" viewBox="0 0 32 32">
    <defs>
        <clipPath id="a">
            <path d="M0 24h24V0H0z"/>
        </clipPath>
    </defs>
    <g clip-path="url(#a)" transform="matrix(1.33333 0 0 -1.33333 0 32)">
        <path fill="#595959" d="M18.04 7.47c0 .299-.112.56-.335.78-.224.225-.475.336-.753.336-.316 0-.58-.111-.794-.336a1.077 1.077 0 0 1-.32-.78c0-.296.105-.557.32-.78.213-.221.478-.334.794-.334.278 0 .53.113.753.335.223.222.334.483.334.78m-.53 5.547c-.149.279-.359.687-.627 1.226-.27.54-.47.938-.599 1.199a2.578 2.578 0 0 1-.459.655.835.835 0 0 1-.6.265h-1.003v-3.345zm-4.404 0v3.345h-.947c-.204 0-.423-.056-.655-.167a2.71 2.71 0 0 1-.627-.418l-3.317-2.76zM7.001 7.47c0 .316-.107.58-.319.795a1.05 1.05 0 0 1-.767.32c-.297 0-.558-.111-.78-.336a1.064 1.064 0 0 1-.335-.78c0-.296.112-.557.334-.78.223-.221.484-.334.781-.334.297 0 .553.113.767.335.212.222.32.483.32.78M23 7.47h-3.846c0-.596-.219-1.115-.655-1.561-.438-.446-.953-.67-1.547-.67-.613 0-1.134.218-1.56.656a2.169 2.169 0 0 0-.642 1.575H8.117c0-.596-.219-1.115-.656-1.561-.436-.446-.952-.67-1.546-.67-.614 0-1.134.218-1.56.656a2.168 2.168 0 0 0-.642 1.575H1.01c0 .52.071 1.297.21 2.327.138 1.032.33 1.594.571 1.687.166.092.348.172.543.237l.711.236c.41.167.836.322 1.282.46l1.644.516c1.078.892 1.984 1.644 2.718 2.258a49.948 49.948 0 0 0 2.188 1.728c.223.185.422.32.6.405.175.083.385.125.626.125h3.708c.13 0 .263-.075.402-.223.14-.15.267-.298.378-.446.092-.15.214-.376.362-.683.15-.307.251-.507.307-.6.296-.54.543-.99.738-1.351.195-.363.396-.73.6-1.102.205-.017.682-.088 1.434-.21.753-.12 1.185-.208 1.297-.262.203-.075.343-.151.418-.223.073-.076.166-.225.28-.447.018-.055.085-.59.207-1.603.12-1.013.181-1.584.181-1.714H23z"/>
    </g>
</svg>
