<svg xmlns="http://www.w3.org/2000/svg" width="32" height="32" viewBox="0 0 32 32">
    <defs>
        <clipPath id="a">
            <path d="M0 24h24V0H0z"/>
        </clipPath>
    </defs>
    <g clip-path="url(#a)" transform="matrix(1.33333 0 0 -1.33333 0 32)">
        <path fill="#00be3c" d="M18.574 6.82c0 .314-.107.58-.32.793-.214.212-.469.32-.766.32-.315 0-.58-.113-.793-.335a1.086 1.086 0 0 1-.32-.779c0-.297.106-.557.32-.779.212-.222.478-.334.793-.334.297 0 .552.112.766.334.213.222.32.482.32.78m.556 9.991h-3.842v-3.339h3.842zm-4.927-3.339v3.34h-1.502c-.39 0-.65-.033-.78-.097-.13-.065-.376-.26-.687-.572a396.472 396.472 0 0 1-2.542-2.67zM7.578 6.82c0 .297-.11.557-.333.78-.223.221-.473.334-.752.334-.315 0-.58-.108-.793-.32a1.082 1.082 0 0 1-.32-.794c0-.297.102-.557.306-.779.204-.222.473-.334.807-.334.28 0 .53.112.752.334.223.222.333.482.333.78M23 6.82h-3.314c0-.595-.217-1.114-.653-1.559-.437-.447-.952-.668-1.545-.668a2.1 2.1 0 0 0-1.56.654c-.426.435-.64.96-.64 1.572H8.692a2.268 2.268 0 0 0-.668-1.572 2.065 2.065 0 0 0-1.53-.654 2.14 2.14 0 0 0-1.573.654 2.14 2.14 0 0 0-.654 1.572H1.038v3.257l1.03.028v1.28c0 .613.027.937.083.974l.223.111c.686.222 1.41.413 2.171.572.761.157 1.577.3 2.45.431.724.724 1.34 1.336 1.85 1.836.51.502 1.017 1.002 1.517 1.503.316.372.6.646.85.821.25.177.551.266.904.266h7.6c.258 0 .49-.075.694-.224.205-.149.436-.352.696-.612.186-.205.492-.668.92-1.39.426-.725.75-1.282.974-1.67z"/>
    </g>
</svg>
