<svg xmlns="http://www.w3.org/2000/svg" width="32" height="32" viewBox="0 0 32 32">
    <defs>
        <clipPath id="a">
            <path d="M0 24h24V0H0z"/>
        </clipPath>
    </defs>
    <g clip-path="url(#a)" transform="matrix(1.33333 0 0 -1.33333 0 32)">
        <path fill="red" d="M19.336 8.326H15.66V7.1h3.676zm-2.449 13.448H7.114v-1.225h9.773zM8.339 8.326H4.663V7.1h3.676zm10.997 5.485v3.707c0 .57-.254 1.015-.766 1.332a3.026 3.026 0 0 1-1.623.474H7.113c-.572 0-1.124-.168-1.654-.506-.531-.337-.796-.771-.796-1.3v-3.707c0-.247.07-.411.214-.492.143-.081.367-.122.674-.122h12.928c.287 0 .5.041.644.122.141.081.213.245.213.492m1.227-7.936l-1.227-2.451V2.199a1.17 1.17 0 0 0-.367-.857 1.17 1.17 0 0 0-.858-.368c-.328 0-.613.122-.857.368a1.17 1.17 0 0 0-.367.857v1.225H7.113V2.199c0-.326-.128-.612-.383-.857-.255-.246-.536-.368-.842-.368-.348 0-.638.122-.873.368a1.195 1.195 0 0 0-.352.857v1.225L3.438 5.875v14.337c0 .674.239 1.307.719 1.9.48.592 1.057.888 1.731.888H18.08c.654 0 1.231-.296 1.731-.888.502-.593.752-1.226.752-1.9z"/>
    </g>
</svg>
