<svg xmlns="http://www.w3.org/2000/svg" width="32" height="32" viewBox="0 0 32 32">
    <defs>
        <clipPath id="a">
            <path d="M0 24h24V0H0z"/>
        </clipPath>
    </defs>
    <g clip-path="url(#a)" transform="matrix(1.33333 0 0 -1.33333 0 32)">
        <path fill="#00f" d="M14.685 2.302H9.313l.658 1.947h4.058zm-3.91 10.87h2.447l.002-5.04h-2.45zm-1.117 4.982h4.683a2.545 2.545 0 0 0-4.682 0m2.34 3.546a2.546 2.546 0 0 0 2.341-1.548H9.66a2.55 2.55 0 0 0 2.339 1.548m2.526-7.228h-1.876v.899a3.84 3.84 0 0 1 3.198 3.78 3.85 3.85 0 0 1-3.848 3.85 3.851 3.851 0 0 1-3.847-3.85 3.843 3.843 0 0 1 3.198-3.78v-.9H9.475V6.834h1.875V5.55H9.036L7.502 1h8.996L14.96 5.55H12.65v1.283h1.875z"/>
    </g>
</svg>
