<svg xmlns="http://www.w3.org/2000/svg" width="32" height="32" viewBox="0 0 32 32">
    <defs>
        <clipPath id="a">
            <path d="M0 24h24V0H0z"/>
        </clipPath>
    </defs>
    <g clip-path="url(#a)" transform="matrix(1.33333 0 0 -1.33333 0 32)">
        <path fill="#003c96" d="M19.715 9.241a.71.71 0 0 1-1.002 0l-.93-.929-.105 1.891 1.502 1.503a.712.712 0 0 1 0 1.002l-.23.228a.71.71 0 0 1-1.001 0l-.403-.403-.117 2.087c.25.246.5.492.734.725 4.807 4.807 4.93 6.485 4.298 7.117-.631.632-2.308.508-7.115-4.299-.234-.234-.48-.484-.725-.734l-2.088.118.403.403a.712.712 0 0 1 0 1.002l-.23.228a.71.71 0 0 1-1.001 0l-1.501-1.5-1.891.105.928.928a.71.71 0 0 1 0 1.002l-.228.228a.71.71 0 0 1-1.002 0l-2.008-2.008c-.006-.006-.007-.013-.013-.019l-3.524.2-.864-1.389 9.406-3.12c-1.595-1.747-3.17-3.55-4.447-5.134l-5.116-.227L1 7.33l3.686-1.353c-.773-1.14-1.161-1.959-.914-2.206.246-.247 1.064.142 2.205.915L7.33 1l.916.445.228 5.116c1.583 1.278 3.386 2.852 5.133 4.447l3.12-9.406 1.387.865-.2 3.524c.007.006.015.007.02.013l2.009 2.008a.71.71 0 0 1 0 1.001z"/>
    </g>
</svg>
