<svg xmlns="http://www.w3.org/2000/svg" width="32" height="32" viewBox="0 0 32 32">
    <defs>
        <clipPath id="a">
            <path d="M0 24h24V0H0z"/>
        </clipPath>
    </defs>
    <g clip-path="url(#a)" transform="matrix(1.33333 0 0 -1.33333 0 32)">
        <path fill="#00f" d="M12.05 15.048l-1.679-.344-.133 1.533c-.002.116.014.226.027.337h1.784zM3.134 9.983H1S2.954 5.71 8.778 5.71h10.397l1.033 2.023h.753V5.71h1.558v2.023H23v5.117h-3.616v-1.586a59.247 59.247 0 0 1-3.638-.132l-.658 2.656a.854.854 0 0 1-1.03.62l-.32-.08a2.44 2.44 0 0 1 .988 2.003 2.45 2.45 0 0 1-2.494 2.4 2.449 2.449 0 0 1-2.398-2.494l.21-2.396h1.766a.836.836 0 0 1-.527-.498l-3.447-3.186c-.344-.062-.65-.12-.932-.174H4.437v1.744l3 1.289-4.302 1.849z"/>
    </g>
</svg>
