<svg xmlns="http://www.w3.org/2000/svg" width="32" height="32" viewBox="0 0 32 32">
    <defs>
        <clipPath id="a">
            <path d="M0 24h24V0H0z"/>
        </clipPath>
    </defs>
    <g clip-path="url(#a)" transform="matrix(1.33333 0 0 -1.33333 0 32)">
        <path fill="#00be3c" d="M20.045 8.306c-.104.22-.24.42-.397.602h2.05v-.602zM17.68 5.868a1.323 1.323 0 0 0-1.324 1.32 1.325 1.325 0 0 0 2.647 0 1.32 1.32 0 0 0-1.323-1.32m-11.282 0a1.32 1.32 0 0 0-1.321 1.32c0 .73.592 1.322 1.32 1.324a1.32 1.32 0 1 0 0-2.644M2.532 8.562c-.028.103-.055.22-.082.346h1.984a2.606 2.606 0 0 1-.397-.602H2.604a5.367 5.367 0 0 0-.073.256m13.184.346a2.62 2.62 0 0 1-.398-.602H8.764c-.104.22-.24.42-.398.602zm-13.408 1.3c-.002.069-.007.13-.007.202 0 .143.016.274.034.404h19.364v-.606zm3.26 2.229l4.047 3.545h6.467c.523.039 1.18-.603 1.639-1.441.459-.811.695-1.636.699-1.636l.137-.468h3.142v-.323H2.838c.09.133.18.247.25.323zm6.644 5.698l1.179-.001v-.852h-1.18zm10.788-4.4H19.51c-.134.365-.352.898-.66 1.444-.538.933-1.362 2.065-2.77 2.102h-1.39v2.154H10.91V17.28H9.124l-4.047-3.545H2.584l-.181-.15c-.056-.053-1.39-1.16-1.404-3.176.002-1.83.542-2.974.57-3.037l.177-.368h2.05a2.612 2.612 0 0 1 2.603-2.437 2.612 2.612 0 0 1 2.604 2.437h6.074a2.615 2.615 0 0 1 2.604-2.436 2.613 2.613 0 0 1 2.604 2.436h2.714z"/>
        <path fill="#00be3c" d="M16.592 15.33h-3.055v-2.639h3.055zM12.769 15.33H9.891l-2.975-2.639h5.853z"/>
    </g>
</svg>
