<svg xmlns="http://www.w3.org/2000/svg" width="32" height="32" viewBox="0 0 32 32">
    <defs>
        <clipPath id="a">
            <path d="M0 24h24V0H0z"/>
        </clipPath>
    </defs>
    <g clip-path="url(#a)" transform="matrix(1.33333 0 0 -1.33333 0 32)">
        <path fill="#00be3c" d="M10.241 18.809a2.127 2.127 0 1 1-1.03 4.128 2.129 2.129 0 0 1 1.03-4.128M18.652 2.363l-3.229 7.831-1.979 5.917 1.241-.259.986-2.542a.975.975 0 0 1 1.271-.562.983.983 0 0 1 .565 1.274l-1.178 3.04a.992.992 0 0 1-.718.61l-2.89.602-.003.007s-.727.421-1.645.264l-.057-.01c-.039-.008-.076-.01-.115-.02-.677-.168-1.145-.598-1.382-.86-.03-.03-.056-.063-.084-.097-.059-.072-.093-.12-.093-.12l.005-.016c-.025-.043-.06-.076-.08-.123v.002l-1.138-2.87-2.685-1.352a.983.983 0 0 1 .445-1.864c.15 0 .301.033.442.103l3.017 1.52a.982.982 0 0 1 .472.517l.374.942 1.208-4.457-1.93-2.552a1.006 1.006 0 0 1-.198-.507L8.86 2.065A.987.987 0 0 1 9.84.992c.508 0 .938.386.983.9l.391 4.435 1.12 1.477 1.304 1.553 3.194-7.745a.983.983 0 0 1 1.285-.535.986.986 0 0 1 .536 1.286"/>
    </g>
</svg>
