<svg xmlns="http://www.w3.org/2000/svg" width="32" height="32" viewBox="0 0 32 32">
    <defs>
        <clipPath id="a">
            <path d="M0 24h24V0H0z"/>
        </clipPath>
    </defs>
    <g clip-path="url(#a)" transform="matrix(1.33333 0 0 -1.33333 0 32)">
        <path fill="#00f" d="M21.701 10.002H8.334v7.764h13.367zm-3.303-5.029a1.09 1.09 0 1 0 .002 2.18 1.09 1.09 0 0 0-.002-2.18m-11.363 7.09H2.467l1.344 3.492h3.224zm-1.367-7.09a1.09 1.09 0 1 0 0 2.18 1.09 1.09 0 0 0 0-2.18m1.367 14.091v-2.207H3.021L1 12.063v-6h2.168a2.5 2.5 0 1 1 5 0h7.73a2.5 2.5 0 0 1 5 0H23v13.001z"/>
    </g>
</svg>
