<svg xmlns="http://www.w3.org/2000/svg" width="32" height="32" viewBox="0 0 32 32">
    <defs>
        <clipPath id="a">
            <path d="M0 24h24V0H0z"/>
        </clipPath>
    </defs>
    <path fill="#595959" d="M16.724 6.107h3.037l-1.517 2.036zm8.775 0L23.98 8.14l-1.517-2.033zm-4.388.461l1.384 1.85h2.974l1.379-1.847 1.384 1.848h1.692l-1.727-2.312h2.47V4.749H13.952v1.358h1.077l1.728 2.312h2.972z"/>
    <g clip-path="url(#a)" transform="matrix(1.33333 0 0 -1.33333 0 32)">
        <path fill="red" d="M23 17.686H7.649v2.152H5.552v-2.152H3.741L1 13.229V5.165h5.534c-.152.18-.255.402-.255.652 0 .573.48 1.038 1.073 1.038.591 0 1.072-.465 1.072-1.037 0-.25-.104-.473-.256-.653h8.691c-.152.18-.255.402-.255.652 0 .573.48 1.038 1.072 1.038.593 0 1.074-.465 1.074-1.037 0-.25-.104-.473-.256-.653H23z"/>
        <path fill="#e6e6e6" d="M17.582 9.783a2.26 2.26 0 0 0-2.254 2.254 2.26 2.26 0 0 0 2.254 2.254 2.256 2.256 0 0 0 2.25-2.254 2.257 2.257 0 0 0-2.25-2.254m.094 5.867a3.613 3.613 0 0 1-3.614-3.613c0-.875.324-1.666.841-2.29h-3.585v-1.32h6.358a3.612 3.612 0 0 1 0 7.223"/>
        <path fill="#595959" d="M7.352 4.777c-.593 0-1.072.465-1.072 1.041 0 .572.479 1.037 1.072 1.037.592 0 1.072-.465 1.072-1.037 0-.576-.48-1.04-1.072-1.04m0 3.308c-1.295 0-2.344-1.016-2.344-2.266 0-1.26 1.049-2.275 2.344-2.275 1.293 0 2.342 1.015 2.342 2.275 0 1.25-1.05 2.266-2.342 2.266M17.676 4.777c-.593 0-1.072.465-1.072 1.041 0 .572.479 1.037 1.072 1.037.592 0 1.072-.465 1.072-1.037 0-.576-.48-1.04-1.072-1.04m0 3.308c-1.295 0-2.344-1.016-2.344-2.266 0-1.26 1.049-2.275 2.344-2.275 1.293 0 2.342 1.015 2.342 2.275 0 1.25-1.05 2.266-2.342 2.266M6.664 12.79H3.17l1.652 2.794h1.843z"/>
    </g>
</svg>
