<svg xmlns="http://www.w3.org/2000/svg" width="32" height="32" viewBox="0 0 32 32">
    <defs>
        <clipPath id="a">
            <path d="M0 24h24V0H0z"/>
        </clipPath>
    </defs>
    <g clip-path="url(#a)" transform="matrix(1.33333 0 0 -1.33333 0 32)">
        <path fill="#00f" d="M13.7 11.805h-3.36v4.703h3.36a2.357 2.357 0 0 0 2.353-2.351 2.357 2.357 0 0 0-2.354-2.352m0 7.063H7.98V4.627h2.36v4.819h3.36a4.711 4.711 0 1 1 0 9.422"/>
        <path fill="#00f" d="M2.322 12.001C2.33 6.658 6.655 2.333 12 2.322a9.695 9.695 0 0 1 9.678 9.679A9.691 9.691 0 0 1 12 21.678a9.688 9.688 0 0 1-9.677-9.677m-1.3 0c0 6.062 4.915 10.978 10.977 10.978 6.061 0 10.977-4.916 10.977-10.978C22.976 5.939 18.06 1.023 12 1.023c-6.062 0-10.978 4.916-10.978 10.978"/>
    </g>
</svg>
