<svg xmlns="http://www.w3.org/2000/svg" width="32" height="32" viewBox="0 0 32 32">
    <defs>
        <clipPath id="a">
            <path d="M0 24h24V0H0z"/>
        </clipPath>
    </defs>
    <path fill="red" d="M16.841 1.333h-1.685v4.78h1.685zM9.51 7.155L6.131 3.78l-1.19 1.188L8.32 8.347zM27.059 4.97l-1.192-1.19-3.38 3.377 1.19 1.188z"/>
    <g clip-path="url(#a)" transform="matrix(1.33333 0 0 -1.33333 0 32)">
        <path fill="red" d="M6.268 2.262l.242 3.274 10.978-.002.243-3.272zm8.914 14.154a.429.429 0 0 0 .482-.374c.05-.41.523-6.47.524-6.478a.435.435 0 0 0-.4-.465h-.033a.432.432 0 0 0-.432.398c0 .005-.475 6.105-.518 6.437a.431.431 0 0 0 .377.482m1.288-8.478a.563.563 0 1 0-1.126.001.563.563 0 0 0 1.126-.001m1.109-1.141c-.167 2.058-.701 8.595-.76 9.052-.072.544-.506 1.443-1.517 1.443H8.7c-1.012 0-1.445-.9-1.517-1.443-.061-.457-.594-6.994-.761-9.052H5.338L4.908 1h14.184l-.432 5.797z"/>
    </g>
</svg>
