<svg xmlns="http://www.w3.org/2000/svg" width="32" height="32" viewBox="0 0 32 32">
    <defs>
        <clipPath id="a">
            <path d="M0 24h24V0H0z"/>
        </clipPath>
    </defs>
    <g clip-path="url(#a)" transform="matrix(1.33333 0 0 -1.33333 0 32)">
        <path fill="red" d="M4.46 3.65c-1.953.938-3.406 2.322-3.435 4.166.04 1.984 1.692 3.42 3.878 4.362v-.002l.63-1.469c-1.968-.834-2.945-1.987-2.906-2.89-.03-.847.796-1.9 2.523-2.724 1.7-.817 4.144-1.352 6.849-1.348 2.704-.004 5.15.531 6.848 1.348 1.727.824 2.552 1.877 2.524 2.723.039.904-.937 2.055-2.905 2.891l.628 1.471c2.186-.943 3.839-2.378 3.878-4.362-.03-1.844-1.482-3.228-3.433-4.166-1.984-.947-4.626-1.503-7.54-1.507-2.913.004-5.556.56-7.538 1.507"/>
        <path fill="red" d="M6.18 8.058c.388.38.634.75.778 1.125.14.362.233.91.23 1.633.005.516-.184 1.41-.61 2.583-.455 1.272-.704 2.323-.706 3.23a5.497 5.497 0 0 0 .344 1.958c.228.607.553 1.15.985 1.595l1.152-1.111a3 3 0 0 1-.64-1.045 3.925 3.925 0 0 1-.24-1.397c-.004-.6.187-1.518.61-2.686.453-1.27.702-2.276.706-3.127 0-.85-.1-1.577-.335-2.205-.241-.623-.636-1.187-1.15-1.693v-.002zM14.685 8.06c.387.379.633.749.775 1.12.14.369.235.917.233 1.637.007.514-.187 1.41-.611 2.583-.457 1.269-.706 2.323-.71 3.23 0 .684.116 1.343.348 1.956.228.61.555 1.15.981 1.594l1.154-1.107a3.016 3.016 0 0 1-.638-1.051 3.842 3.842 0 0 1-.242-1.392c-.004-.6.188-1.521.61-2.69.453-1.266.704-2.272.708-3.123 0-.854-.102-1.582-.336-2.203-.24-.627-.634-1.192-1.152-1.698v-.002zM10.306 6.778c.483.48.802.952.983 1.42.177.466.29 1.16.29 2.038.005.664-.232 1.76-.748 3.187-.55 1.528-.844 2.787-.846 3.851 0 .81.132 1.584.405 2.312a5.42 5.42 0 0 0 1.155 1.866l1.154-1.109c-.336-.348-.605-.78-.811-1.32a4.887 4.887 0 0 1-.302-1.749c-.005-.755.232-1.883.75-3.31.544-1.525.838-2.73.842-3.728-.002-1.01-.12-1.876-.395-2.608-.28-.727-.743-1.385-1.35-1.986V5.64z"/>
    </g>
</svg>
