<svg xmlns="http://www.w3.org/2000/svg" width="32" height="32" viewBox="0 0 32 32">
    <defs>
        <clipPath id="a">
            <path d="M0 24h24V0H0z"/>
        </clipPath>
    </defs>
    <g clip-path="url(#a)" transform="matrix(1.33333 0 0 -1.33333 0 32)">
        <path fill="#f0f" d="M20.138 9.917c-.042 1.286.728 5.214-1.02 5.468-1.281.186-2.4-.755-2.91-1.271a2.196 2.196 0 0 1-.668.302 4.056 4.056 0 0 1-1.023.125c.259.218.503.485.523.74.032.375-.157.621-.375.485-.46-.287-1.216-1.244-2.727-1.013V23h-1.316v-7.832c-.484.202-.41.662-.637 1.023a5.863 5.863 0 0 1-.493.642l.59.464s-.464-.041-1.181.296c-.718.337-.666.704-.651.923.016.218.578.328.578.328s-.913.204-1.593.699c-.28.328-.568.579-.861.702-.032.693-.118 1.482-.35 1.443-.228-.037-.47-.749-.641-1.373-.111-.013-.203-.04-.3-.064-.158.659-.381 1.37-.594 1.293-.203-.073-.31-.72-.367-1.329-.313-.075-.637-.184-.637-.184s.323-.156.48-.478c-.324-.427-.464-.932-.612-1.272-.313-.718-.125-.968-.625-1.687-.5-.719-1.531-.969-.625-2.063.089-.107 1.008-.823 1.437-.468.476.392 1.188.968 1.188.968s.78.094.53-.812c-.266-.972-.468-3.135-.468-3.135s-3.031-.094-3.156-.678C1.509 9.822 3.04 5.917 3.04 5.917l1.708-.75-.5 1.958-.614.063-.47 2.281s1.613-.138 2.918-.428c1.135-.252 1.79-.708 3.38-.944a10.45 10.45 0 0 1 1.16-.108V1h1.316v7.05c.833.135 1.144.408 1.144.408s.026-1.25.776-1.458c.75-.208 3.099.021 3.432-.437.333-.459-.875-2.23-.875-2.23l.5-2.333.969 1.219-.25 1.062s1.5 1.938 1.5 2.938c0 1-1.75.937-1.844 2.062-.024.294.192 1.494.047 2.67.437.409 1.103.775 1.228.057.275-1.573-.377-4.096 1.45-4.62 1.015-.29 2.358.856 2.358.856s-2.18.022-2.235 1.673"/>
    </g>
</svg>
