<svg xmlns="http://www.w3.org/2000/svg" width="32" height="32" viewBox="0 0 32 32">
    <defs>
        <clipPath id="a">
            <path d="M0 24h24V0H0z"/>
        </clipPath>
    </defs>
    <g clip-path="url(#a)" transform="matrix(1.33333 0 0 -1.33333 0 32)">
        <path fill="#595959" d="M17.938 3.11H6.701v6.343h11.236zM4.732 19.005c.308.31.658.54 1.022.731l.642-2.396L4 17.984c.192.364.422.713.729 1.021zm5.223.58l-1.763-1.764-.643 2.402c.054.003.106.016.161.016a4.217 4.217 0 0 0 2.244-.655m5.344-1.929c.206.205.435.368.67.51l.433-1.614-1.615.433c.144.238.306.466.51.671zm4.169-5.352l-.431 1.616 1.614-.433a3.421 3.421 0 0 0-.512-.673 3.405 3.405 0 0 0-.672-.51m-4.728 1.268a3.414 3.414 0 0 0-.444 1.618l1.627-.436zm5.955 3.324a3.45 3.45 0 0 0 .443-1.612l-1.62.434zm-3.024-5.078a3.392 3.392 0 0 0-1.61.44l1.177 1.18zm.096 6.835a3.4 3.4 0 0 0 1.613-.44L18.2 17.033zm-5.76-6.924c.381.382.694.804.953 1.25a5.245 5.245 0 0 1 1.022-1.48 5.137 5.137 0 0 1 1.133-.836H10.56a6.085 6.085 0 0 1 1.444 1.066M7.23 14.227l.642-2.4c-.054-.003-.106-.017-.16-.017a4.23 4.23 0 0 0-2.244.655zm2.438-1.91l-.64 2.394 2.392-.642a4.158 4.158 0 0 0-.73-1.022 4.157 4.157 0 0 0-1.022-.73m1.603 5.951c.43-.682.651-1.458.651-2.24 0-.056-.014-.109-.016-.165l-2.396.644zm-7.772-2.24c0 .053.012.106.014.16l2.403-.643-1.763-1.764a4.185 4.185 0 0 0-.654 2.246m17.955-4.53A5.278 5.278 0 0 1 23 15.232a5.28 5.28 0 0 1-5.284 5.285 5.266 5.266 0 0 1-3.736-1.547 5.168 5.168 0 0 1-.609-.748A6.065 6.065 0 0 1 7.71 22.1a6.046 6.046 0 0 1-4.293-1.777l-.003-.002a6.057 6.057 0 0 1-1.779-4.293 6.054 6.054 0 0 1 1.782-4.297 6.059 6.059 0 0 1 2.075-1.356V9.7L1 10.544V4.38l4.493.844V1.9h13.654v3.448h1.832v4.227h-1.832v.598a5.267 5.267 0 0 1 2.307 1.323"/>
        <path fill="#595959" d="M16.857 8.37H7.784V4.189h9.073z"/>
    </g>
</svg>
