<svg xmlns="http://www.w3.org/2000/svg" width="32" height="32" viewBox="0 0 32 32">
    <defs>
        <clipPath id="a">
            <path d="M0 24h24V0H0z"/>
        </clipPath>
    </defs>
    <g clip-path="url(#a)" transform="matrix(1.33333 0 0 -1.33333 0 32)">
        <path fill="#595959" d="M5.774 15.672l1.552.895a1.88 1.88 0 0 1 .577-.335v-1.8a3.645 3.645 0 0 0-2.13 1.24m-.881 2.354c0 .435.09.846.23 1.232l1.55-.896a1.858 1.858 0 0 1-.034-.336c0-.115.014-.227.033-.336l-1.55-.895a3.62 3.62 0 0 0-.23 1.231m3.012 3.595v-1.8a1.876 1.876 0 0 1-.576-.336l-1.553.897a3.649 3.649 0 0 0 2.129 1.24m3.429-1.24l-1.552-.897c-.17.144-.363.258-.576.335v1.801a3.64 3.64 0 0 0 2.128-1.24m.882-2.355a3.62 3.62 0 0 0-.23-1.23l-1.55.894c.02.11.035.221.035.336 0 .115-.014.227-.034.336l1.55.895a3.64 3.64 0 0 0 .229-1.23m-3.01-3.595v1.8c.214.077.407.191.577.335l1.55-.895a3.64 3.64 0 0 0-2.127-1.24m8.176 5.403V18.71a1.668 1.668 0 0 1-.378-.224l-.98.565c.363.381.83.656 1.358.784m2.657-.784l-.978-.565a1.788 1.788 0 0 1-.38.225v1.124a2.77 2.77 0 0 0 1.358-.784m-1.357-4.6v1.122c.137.057.26.136.379.224l.978-.564a2.77 2.77 0 0 0-1.357-.783M17 15.798a1.7 1.7 0 0 1 .38-.225V14.45a2.775 2.775 0 0 0-1.358.783zm3.807 1.343c0-.272-.052-.53-.125-.78l-.975.562c.01.073.023.145.023.22 0 .074-.013.146-.023.218l.974.562a2.77 2.77 0 0 0 .126-.782m-5.555 0c0 .274.053.532.126.782l.975-.563c-.01-.072-.022-.143-.022-.217 0-.075.013-.146.022-.218l-.976-.563a2.754 2.754 0 0 0-.125.78m.837-9.609h2.979v5.682c1.746.462 3.039 2.036 3.039 3.926a4.08 4.08 0 0 1-4.077 4.08 4.08 4.08 0 0 1-4.08-4.08c0-1.395.704-2.623 1.774-3.358h-4.635c1.446.867 2.425 2.435 2.425 4.243 0 2.74-2.22 4.96-4.96 4.962a4.963 4.963 0 0 1-4.961-4.962c0-2.32 1.6-4.256 3.756-4.797v-.325H5.542c-1.145 2.005-3.65 2.337-3.65 2.337V6.074s2.505.332 3.65 2.338H7.35v-.879h2.979V6.83h1.587L6.097 1.011h2.388l3.945 3.934V1.048h1.7V4.91l3.909-3.898h2.389l-5.82 5.82h1.48z"/>
    </g>
</svg>
