<svg xmlns="http://www.w3.org/2000/svg" width="32" height="32" viewBox="0 0 32 32">
    <defs>
        <clipPath id="a">
            <path d="M0 24h24V0H0z"/>
        </clipPath>
    </defs>
    <g clip-path="url(#a)" transform="matrix(1.33333 0 0 -1.33333 0 32)">
        <path fill="#595959" d="M15.677 4.587c-.108.26-.185.675-.185 1.157 0 .308.03.645.093.987.122.692.35 1.294.598 1.693.238.397.494.526.54.52h.005c.04-.006.145-.07.252-.322.107-.261.182-.673.182-1.155 0-.307-.03-.642-.09-.994-.12-.687-.35-1.287-.598-1.686-.25-.414-.516-.538-.547-.52h-.018c-.004-.004-.12.046-.232.32m2.353 1.718v.004c.068.399.102.788.102 1.158-.032 1.117-.23 2.158-1.223 2.432a.888.888 0 0 1-.181.016c-1.2-.131-1.771-1.453-2.1-3.011a6.49 6.49 0 0 1-.103-1.16c.029-1.12.229-2.162 1.224-2.434.06-.01.117-.014.178-.014 1.2.128 1.772 1.453 2.103 3.009"/>
        <path fill="#595959" d="M14.903 2.626c-.246.255-.865 1.004-.87 2.775 0 .459.04.982.147 1.58.33 1.856.965 2.824 1.47 3.336.254.256.48.401.632.481l.097.047 1.466-.26a6.35 6.35 0 0 0 .966-3.336 6.202 6.202 0 0 0-1.543-4.076 6.062 6.062 0 0 0-.76-.738c-.05-.041-.078-.06-.117-.089l-1.466.258-.022.022m-7.18 8.171c.446-.246 1.596-1.034 2.098-3.814a9.296 9.296 0 0 0 .148-1.582c0-1.181-.282-1.907-.535-2.337a2.346 2.346 0 0 0-.357-.46l-.413-.074c.33.745.651 1.792.655 3.06 0 .41-.037.838-.112 1.281a7.527 7.527 0 0 1-1.994 3.9l.413.073c.027-.011.057-.027.096-.047m10.603.985l-.488.086.353 1.524v.001l.765-.116v.002c.008.051.106.699.106 1.653-.008 1.299-.163 3.173-1.147 4.905-.956 1.751-3.007 3.205-5.912 3.162-2.904.043-4.957-1.411-5.915-3.162-.984-1.732-1.139-3.607-1.145-4.905 0-.956.102-1.61.107-1.659l.767.12v-.001l.353-1.523-.49-.087c-2.193-.405-3.179-2.583-3.165-4.73 0-.441.038-.891.12-1.338C3.06 3.308 4.607 1.046 6.973 1c.195 0 .391.021.592.053l.15.025.006.004 1.865.328.11.072c.128.067 1.548 1.134 1.536 3.919 0 .538-.052 1.134-.168 1.801-.7 4.13-3.062 4.897-3.24 4.906l-.128.033-.28-.051-.352 1.498.763.119c0 .002-.075.47-.075 1.225-.008 1.033.174 2.488.772 3.502.622.996 1.398 1.708 3.477 1.751 2.08-.043 2.852-.755 3.476-1.751.598-1.014.78-2.469.772-3.502 0-.759-.08-1.231-.072-1.233l.761-.116-.348-1.495-.287.051-.125-.031c-.176-.009-2.542-.774-3.242-4.905a10.262 10.262 0 0 1-.169-1.802c-.014-2.785 1.41-3.852 1.535-3.918l.112-.074 1.865-.326.006-.005.148-.025c.198-.034.397-.051.595-.051 2.364.044 3.91 2.305 4.341 4.714.076.448.116.892.116 1.336.014 2.148-.97 4.324-3.16 4.73"/>
    </g>
</svg>
