<svg xmlns="http://www.w3.org/2000/svg" width="32" height="32" viewBox="0 0 32 32">
    <defs>
        <clipPath id="a">
            <path d="M0 24h24V0H0z"/>
        </clipPath>
    </defs>
    <g clip-path="url(#a)" transform="matrix(1.33333 0 0 -1.33333 0 32)">
        <path fill="#595959" d="M7.436 11.23c-.523-.059-1.99.923-3.114 2.86-1.085 1.802-1.98 4.374-2.084 7.5H12.63c-.103-3.125-1-5.697-2.084-7.5-1.125-1.936-2.591-2.918-3.111-2.86m4.164 2.226c1.27 2.116 2.268 5.117 2.268 8.747v.615H1v-.616c0-3.63.998-6.63 2.268-8.747 1.299-2.095 2.744-3.392 4.167-3.451 1.42.059 2.865 1.356 4.163 3.452"/>
        <path fill="#595959" d="M7.436 15.055c-2.26 0-2.627-1.465-2.627-1.465s1.039.428 2.627.428c1.588 0 2.625-.428 2.625-.428s-.367 1.465-2.625 1.465M6.085 17.781a1.799 1.799 0 0 1 0 2.55l-2.55-2.55a1.804 1.804 0 0 1 2.55 0M11.332 17.781l-2.551 2.55a1.806 1.806 0 0 1 0-2.55 1.806 1.806 0 0 1 2.551 0M19.48 4.288c-1.708-1.375-3.41-1.876-4.808-1.878-1.26-.003-2.266.425-2.76.927-.506.5-.932 1.504-.93 2.765 0 1.396.503 3.1 1.882 4.804 1.355 1.675 2.815 2.29 4.162 2.294 1.24 0 2.423-.546 3.314-1.434.886-.889 1.433-2.072 1.433-3.314-.005-1.344-.62-2.805-2.293-4.164m1.73 8.344c-1.096 1.095-2.579 1.795-4.184 1.795-1.743.006-3.59-.844-5.12-2.749-1.537-1.905-2.153-3.885-2.15-5.576.001-1.528.484-2.82 1.288-3.632.81-.803 2.102-1.283 3.628-1.287 1.691 0 3.674.612 5.58 2.15 1.905 1.531 2.752 3.378 2.747 5.12 0 1.606-.702 3.09-1.79 4.18"/>
        <path fill="#595959" d="M14.313 5.736c-1.622 1.621-.316 3.943-.316 3.943s-2.259-2.834-.417-4.674c1.841-1.843 4.674.416 4.674.416s-2.322-1.306-3.94.315M16.523 11.188c-.567.57-1.49.57-2.059 0l2.06-2.058c.568.57.568 1.49 0 2.058M17.706 7.946l2.06-2.06a1.456 1.456 0 1 1-2.06 2.06"/>
    </g>
</svg>
