<svg xmlns="http://www.w3.org/2000/svg" width="32" height="32" viewBox="0 0 32 32">
    <defs>
        <clipPath id="a">
            <path d="M0 24h24V0H0z"/>
        </clipPath>
    </defs>
    <path fill="red" d="M17.845 10.408l5.267-5.271v2.637l-5.27 5.27zm9.019-1.522l-5.27 5.267h-2.636l5.266-5.267zm-14.747 9.882l1.113 1.113 4.152-4.152 4.863-.001 8.421-8.418-5.978.003v-5.98l-8.416 8.421-.003 4.862z"/>
    <g clip-path="url(#a)" transform="matrix(1.33333 0 0 -1.33333 0 32)">
        <path fill="red" d="M16.683 10.99a7.334 7.334 0 0 0-7.177-8.81 7.334 7.334 0 0 0-7.324 7.328 7.332 7.332 0 0 0 8.8 7.175l.237 1.157A8.506 8.506 0 0 1 1 9.508a8.508 8.508 0 1 1 16.838 1.72z"/>
        <path fill="red" d="M4.622 9.506a4.884 4.884 0 1 1 9.455 1.722l-1.102-.417-.002.002a3.705 3.705 0 0 0-3.466-5.009 3.705 3.705 0 0 0-3.703 3.702 3.706 3.706 0 0 0 5.002 3.468l.42 1.102a4.823 4.823 0 0 1-1.719.315 4.886 4.886 0 0 1-4.885-4.885"/>
    </g>
</svg>
