<svg xmlns="http://www.w3.org/2000/svg" width="32" height="32" viewBox="0 0 32 32">
    <defs>
        <clipPath id="a">
            <path d="M0 24h24V0H0z"/>
        </clipPath>
    </defs>
    <path fill="#595959" d="M16 1.333L2.152 8.012v15.979l13.845 6.676 13.851-6.676V8.012z"/>
    <path fill="#e6e6e6" d="M27.16 8.522L16 13.901 4.841 8.523l11.16-5.384zM3.78 9.82l11.405 5.495.003 13.152L3.78 22.97zM16.814 28.467v-13.15L28.22 9.819V22.97z"/>
    <g clip-path="url(#a)" transform="matrix(1.33333 0 0 -1.33333 0 32)">
        <path fill="#595959" d="M19.175 14.09c-.672-.278-1.216-1.05-1.216-1.721s.544-.99 1.216-.713c.672.279 1.216 1.049 1.216 1.72 0 .672-.544.993-1.216.715M14.602 7.624c-.672-.276-1.216-1.047-1.216-1.719 0-.671.545-.992 1.217-.713.671.279 1.216 1.05 1.216 1.721s-.545.989-1.217.711M16.889 10.86c-.671-.28-1.216-1.05-1.216-1.723 0-.67.545-.99 1.216-.713.672.28 1.217 1.051 1.217 1.722s-.545.99-1.217.713"/>
        <path fill="red" d="M10.16 16.72c1.017-.488 2.665-.488 3.682 0 1.016.492 1.016 1.286 0 1.774-1.017.492-2.665.492-3.683 0-1.015-.488-1.015-1.284 0-1.773"/>
        <path fill="#595959" d="M4.827 14.09c-.672.279-1.216-.042-1.216-.713 0-.672.544-1.442 1.216-1.721.672-.276 1.216.042 1.216.713 0 .67-.544 1.443-1.216 1.722M9.4 7.624c-.673.278-1.219-.04-1.219-.711 0-.671.546-1.442 1.218-1.721.67-.279 1.216.042 1.216.713 0 .672-.546 1.443-1.216 1.719"/>
    </g>
</svg>
