<svg xmlns="http://www.w3.org/2000/svg" width="32" height="32" viewBox="0 0 32 32">
    <defs>
        <clipPath id="a">
            <path d="M0 24h24V0H0z"/>
        </clipPath>
    </defs>
    <g clip-path="url(#a)" transform="matrix(1.33333 0 0 -1.33333 0 32)">
        <path fill="#595959" d="M8.22 6.995a.597.597 0 1 0-1.194-.002.597.597 0 0 0 1.193.002M5.2 6.397A.597.597 0 1 0 5.2 7.592a.597.597 0 0 0 0-1.195m1.118-.522a.596.596 0 1 0 0-1.192.596.596 0 0 0 0 1.192m13.368 10.301c-.025 1.197.73 2.28.77 3.674-.003 1.626-1.009 3.115-2.559 3.15-1.55-.037-2.554-1.524-2.557-3.15.04-1.394.794-2.477.767-3.674.07-.888-.894-2.118-1.449-3.802-.12.321-.202.617-.182.878-.028 1.196.728 2.28.767 3.674-.002 1.625-1.008 3.112-2.556 3.148-1.55-.036-2.554-1.523-2.558-3.148.041-1.395.795-2.478.77-3.674.02-.26-.063-.558-.185-.88-.554 1.686-1.517 2.915-1.45 3.804-.026 1.195.73 2.28.77 3.676-.003 1.625-1.009 3.112-2.558 3.147-1.55-.035-2.556-1.522-2.559-3.147.04-1.397.796-2.48.77-3.676.093-1.224-1.78-3.082-1.828-5.91 0-.446.061-.88.15-1.302a4.554 4.554 0 0 1-1.524-3.387A4.578 4.578 0 0 1 7.062 1c1.432 0 2.696.67 3.533 1.7.31-.5.545-.807.551-.823l.186-.243h2.708l.185.243c.015.04 1.181 1.516 1.758 3.466.216-.33.366-.529.375-.539l.184-.244h2.71l.185.244c.021.05 2.05 2.617 2.077 5.462-.047 2.828-1.92 4.686-1.828 5.91"/>
        <path fill="#e6e6e6" d="M17.898 21.764c.596-.002 1.32-.742 1.323-1.914.03-.625-.406-1.463-.635-2.54H17.21c-.23 1.077-.667 1.915-.635 2.54 0 1.172.728 1.912 1.322 1.914M12.688 18.838c.591-.002 1.32-.742 1.32-1.912.03-.627-.404-1.466-.632-2.541h-1.378c-.228 1.076-.665 1.914-.635 2.54.002 1.17.73 1.91 1.324 1.913M7.476 21.765c.593-.002 1.321-.743 1.323-1.913.03-.627-.406-1.467-.635-2.542H6.787c-.228 1.075-.665 1.915-.633 2.542 0 1.17.728 1.91 1.322 1.913M5.093 10.266c-.034 1.684.951 2.98 1.49 4.404h1.784c.518-1.365 1.432-2.621 1.475-4.208a10.787 10.787 0 0 1-.389-.997c-.697.43-1.51.69-2.39.69a4.516 4.516 0 0 1-1.933-.442 4.906 4.906 0 0 0-.037.553M14.161 4.126a11.51 11.51 0 0 0-.745-1.255h-1.462c-.15.222-.386.591-.633 1.053.2.514.32 1.069.32 1.653A4.539 4.539 0 0 1 10.476 8.6c.295 1.114.92 2.098 1.318 3.144h1.785c.54-1.423 1.523-2.721 1.486-4.404.006-1.111-.44-2.311-.905-3.214M19.373 7.05a11.51 11.51 0 0 0-.746-1.253h-1.461c-.2.29-.54.828-.863 1.502l.002.04c-.021 1.214-.381 2.239-.773 3.123.041 1.587.956 2.843 1.473 4.208h1.785c.54-1.422 1.524-2.721 1.488-4.403.004-1.112-.441-2.312-.905-3.216"/>
        <path fill="red" d="M8.369 14.67c-.463 1.049-.204 2.64-.204 2.64H6.787s.259-1.591-.204-2.64zM13.58 11.744s-.547 1.428-.205 2.641h-1.377c.342-1.213-.203-2.64-.203-2.64zM18.79 14.67c-.445 1.018-.204 2.64-.204 2.64h-1.377s.241-1.622-.204-2.64"/>
    </g>
</svg>
