<svg xmlns="http://www.w3.org/2000/svg" width="32" height="32" viewBox="0 0 32 32">
    <defs>
        <clipPath id="a">
            <path d="M0 24h24V0H0z"/>
        </clipPath>
    </defs>
    <g clip-path="url(#a)" transform="matrix(1.33333 0 0 -1.33333 0 32)">
        <path fill="red" d="M13.025 7.566a14.16 14.16 0 0 1-4.442-.718 13.789 13.789 0 0 1-3.367-1.667v1.654c.884.513 1.825.958 2.84 1.294 1.642.541 4.222.484 5.447.18.9-.225 1.751-.622 2.576-1.089-.994.222-2.016.346-3.054.346m5.757 14.205V8.328a14.915 14.915 0 0 1-8.287 2.512c-1.526 0-3.718-.24-5.279-.667v11.598zM3.99 1.001h16.02v22H3.99z"/>
        <path fill="red" d="M10.58 20.354a3.885 3.885 0 0 0 3.875-3.877 3.877 3.877 0 0 0-3.875-3.871 3.877 3.877 0 0 0-3.876 3.87 3.882 3.882 0 0 0 3.876 3.878m0-8.694a4.818 4.818 0 0 1 4.818 4.816 4.82 4.82 0 1 1-4.818-4.817"/>
    </g>
</svg>
