<svg xmlns="http://www.w3.org/2000/svg" width="32" height="32" viewBox="0 0 32 32">
    <defs>
        <clipPath id="a">
            <path d="M0 24h24V0H0z"/>
        </clipPath>
    </defs>
    <g clip-path="url(#a)" transform="matrix(1.33333 0 0 -1.33333 0 32)">
        <path fill="red" d="M12.633 22.204v.146a.65.65 0 1 1-1.301 0V6.999c-1.027.475-2.507.435-3.934-.232-2.123-.988-3.3-2.957-2.627-4.395C5.44.93 7.705.568 9.826 1.558c1.68.782 2.748 2.179 2.795 3.44.002.022.012 12.23.012 12.23 2.34-.367 4.129-2.137 4.129-4.594a4.94 4.94 0 0 0-1.066-3.047 6.652 6.652 0 0 1 3.767 5.992c0 3.459-3.368 6.302-6.83 6.625"/>
    </g>
</svg>
