<svg xmlns="http://www.w3.org/2000/svg" width="32" height="32" viewBox="0 0 32 32">
    <defs>
        <clipPath id="a">
            <path d="M0 24h24V0H0z"/>
        </clipPath>
    </defs>
    <g clip-path="url(#a)" transform="matrix(1.33333 0 0 -1.33333 0 32)">
        <path fill="#ff8c00" d="M18.52 9.002l1.217-2.603c.17-.374.252-.771.254-1.168 0-1.167-.72-2.342-1.948-2.907a3.533 3.533 0 0 0-1.456-.323c-1.191.004-2.274.624-2.755 1.676L6.677 19.816l1.332.6 7.939-15.799a.89.89 0 0 1 .81-.509c.12 0 .249.024.379.083a.91.91 0 0 1 .436 1.203L15.32 9.882c-.39.829-.524 1.558-.524 2.239-.017 1.569.77 2.892 1.008 4.3l3.87-2.718c-1.036-.774-1.437-2.126-1.44-3.247.002-.531.092-1.032.285-1.454m.906.421v.002c-.113.241-.19.615-.19 1.031-.003 1.12.524 2.391 1.551 2.723l.924.319-6.95 4.876.103-1.077c.006-.064.008-.129.008-.202.037-1.181-1.054-2.805-1.075-4.974 0-.408.042-.834.141-1.277l-2.61 5.195 1.181-.232-1.084 2.22-.55-1.085-.783 1.558 1.222-.241-1.084 2.222-.57-1.12-1.186 2.36-.978-.44a3.454 3.454 0 0 1-.503.844c-.368.447-.989.748-1.766.772H.94v-1.299h4.256c.516-.037.65-.151.81-.319.1-.11.197-.297.305-.531l-.95-.427 7.56-17.056c.667-1.45 2.131-2.266 3.666-2.262h.015c.621 0 1.254.136 1.86.413 1.572.725 2.527 2.24 2.53 3.815a3.8 3.8 0 0 1-.349 1.588z"/>
    </g>
</svg>
