<svg xmlns="http://www.w3.org/2000/svg" width="32" height="32" viewBox="0 0 32 32">
    <defs>
        <clipPath id="a">
            <path d="M0 24h24V0H0z"/>
        </clipPath>
    </defs>
    <g clip-path="url(#a)" transform="matrix(1.33333 0 0 -1.33333 0 32)">
        <path fill="red" d="M10.185 10.344l-.586.586 8.29 8.292.588-.587zm4.162-.604c-.254-.167-.532-.261-.882-.373-.617-.19-1.467-.388-2.238-1.164-.732-.742-.755-1.63-.86-2.334-.108-.73-.234-1.347-.931-2.058-.57-.565-1.336-.848-2.202-.85-1.145-.002-2.44.516-3.47 1.547-1.031 1.03-1.553 2.328-1.55 3.475 0 .867.286 1.632.853 2.197.71.7 1.328.824 2.059.934.702.103 1.587.125 2.332.859 1.282 1.355 1.039 2.629 1.745 3.387.12.148.24.267.355.365a3.334 3.334 0 0 1-.233-1.217c-.002-.514.137-1.086.457-1.678l-1.9-1.9 2.303-2.303 1.877 1.879c.862-.535 1.663-.736 2.285-.766m5.229 7.795L23 20.96l-1.3 1.295-5.183-1.66.515-.515-6.338-6.338c-.11.284-.155.54-.156.766 0 .416.13.777.285 1.072.075.149.154.276.225.395.045.11.11.15.155.32l.093.139-.075.267c-.213.555-.638.577-.917.592-.613-.006-1.365-.344-2.042-1.17-1.03-1.36-.76-2.463-1.661-3.293-.35-.36-.833-.41-1.643-.515-.78-.102-1.814-.328-2.75-1.276C1.389 10.223.999 9.117 1 7.983c.002-1.506.664-3.084 1.907-4.332C4.15 2.408 5.73 1.748 7.234 1.746h.01c1.129 0 2.23.39 3.048 1.207.949.934 1.174 1.967 1.278 2.748.106.81.156 1.297.515 1.645.53.527 1.046.65 1.735.859.67.196 1.52.534 2.14 1.49.12.219.232.28.268.669.022.185-.147.496-.341.582-.181.09-.292.087-.375.089-.325-.011-.551-.086-.963-.086-.42.004-.955.08-1.61.434l6.395 6.395z"/>
        <path fill="red" d="M3.802 7.975l3.426-3.428L9.133 6.45l-3.43 3.425z"/>
    </g>
</svg>
