<svg xmlns="http://www.w3.org/2000/svg" width="32" height="32" viewBox="0 0 32 32">
    <defs>
        <clipPath id="a">
            <path d="M0 24h24V0H0z"/>
        </clipPath>
    </defs>
    <path fill="#b45000" d="M8.99 20.1l2.912 2.912.782-.784-2.91-2.91z"/>
    <g clip-path="url(#a)" transform="matrix(1.33333 0 0 -1.33333 0 32)">
        <path fill="#b45000" d="M21.771 20.278a.105.105 0 0 0-.098-.098H20.28c-.048 0-.1.05-.1.098l.001 1.396v.016c.007.042.05.081.098.081h1.393c.05 0 .098-.049.098-.096l.001-.026zM15.427 11.8c-.002-.706-.298-1.342-.784-1.834-.386-.404-1.049-.776-1.579-1.366a1.535 1.535 0 0 1-.51.082c-1.465-.097-2.702-1.49-2.784-2.996-.014-.507.21-1.039.635-1.428a4.243 4.243 0 0 0-.61-.776c-.776-.769-1.653-1.255-2.608-1.253-.8 0-1.742.334-2.83 1.291l3.542 2.854-1.523 1.522-2.853-3.545C2.56 5.444 2.228 6.386 2.227 7.187c0 .957.482 1.832 1.256 2.606.241.242.504.442.775.611.39-.425.92-.646 1.425-.63 1.506.08 2.901 1.318 2.997 2.782.003.166-.023.34-.079.507.591.53.961 1.194 1.367 1.578.488.49 1.125.786 1.832.786.493 0 1.04-.149 1.617-.517l-4.33-3.968 1.86-1.859 3.96 4.321c.36-.57.52-1.113.52-1.604M23 21.674v.001a1.326 1.326 0 0 1-1.326 1.323H20.28c-.735 0-1.327-.59-1.329-1.323 0-.015 0-.03.002-.045v-1.352c.001-.093.011-.184.03-.27l-.047-.043-1.073 1.074-.867-.867 1.035-1.036-.692-.633-1.006 1.005-.867-.867.968-.968-2.089-1.914c-.837.607-1.712.897-2.545.896a3.802 3.802 0 0 1-2.7-1.147c-.663-.689-1.136-1.507-1.602-1.75l-.677-.387.536-.567c.074-.083.092-.134.097-.248.012-.215-.203-.66-.58-.998-.37-.346-.864-.568-1.19-.558-.287.02-.456.071-.678.48l-.27.548-.548-.267a5.663 5.663 0 0 1-1.57-1.1C1.701 9.751 1 8.576 1 7.186c0-1.313.634-2.715 2.056-4.132C4.471 1.635 5.873 1 7.187 1.002c1.39 0 2.562.703 3.474 1.611a5.77 5.77 0 0 1 1.102 1.575l.266.551-.548.268c-.413.225-.463.393-.483.68-.008.325.211.82.558 1.188.336.38.782.593.997.581a.337.337 0 0 0 .253-.1l.562-.53.39.67c.244.467 1.063.94 1.751 1.603.694.692 1.146 1.643 1.146 2.701.002.832-.288 1.706-.89 2.54l1.912 2.09.963-.965.87.868-1.004 1.003.633.69 1.032-1.03.868.866-1.07 1.07.044.048c.086-.017.175-.027.266-.028h1.358a1.427 1.427 0 0 1 .02.001h-.015.031A1.33 1.33 0 0 1 23 20.277z"/>
    </g>
</svg>
