<svg xmlns="http://www.w3.org/2000/svg" width="32" height="32" viewBox="0 0 32 32">
    <defs>
        <clipPath id="a">
            <path d="M0 24h24V0H0z"/>
        </clipPath>
    </defs>
    <g clip-path="url(#a)" transform="matrix(1.33333 0 0 -1.33333 0 32)">
        <path fill="#595959" d="M11.893 13.016a3.91 3.91 0 0 1-.948-.516H8.669c.166.264.358.514.595.739.525.498 1.229 1.045 1.995 1.61h.634zm3.17-1.84c.512-.514.766-1.18.766-1.852 0-.058-.013-.115-.017-.172h-2.617V11.5h1.469c.14-.093.275-.201.399-.324M15.06 7.47a4.05 4.05 0 0 0-1.866-1.066v1.748h2.344a2.64 2.64 0 0 0-.478-.682m-5.78 0a4.1 4.1 0 0 0-.547.682h1.403c.093-.127.187-.254.3-.368a.652.652 0 0 1 .92 0 .644.644 0 0 1 .174.368h.362V6.285A4.058 4.058 0 0 0 9.28 7.47m2.612 4.03V9.152h-.852a1.719 1.719 0 0 0 .315 2.022c.13.129.276.23.424.326zm-3.831-1.09c0 .373.068.737.168 1.09h1.755a3.038 3.038 0 0 1-.442-1.56c0-.266.048-.53.118-.788H8.277a4.16 4.16 0 0 0-.215 1.259m5.133 8.763c.07 2.292.85 2.47 1.433 2.526h.025c.303 0 .597-.147.638-.205.217-.217.4-.543.399-.9-.004-.374-.172-.897-.981-1.58a31.067 31.067 0 0 0-1.514-1.163zM23 14.85v1h-9.805v.398c.849.61 1.675 1.213 2.346 1.77 1.004.826 1.454 1.739 1.449 2.577-.002.794-.378 1.419-.782 1.822-.395.378-.942.572-1.58.583a2.435 2.435 0 0 1-1.9-.895c-.53-.643-.835-1.6-.835-2.931v-2.258a111.31 111.31 0 0 1-1.467-1.066H1v-1h8.135a16.197 16.197 0 0 1-.76-.664A5.009 5.009 0 0 1 7.198 12.5H1v-1h5.879a5.261 5.261 0 0 1-.117-1.09c0-.423.067-.843.165-1.258H1v-1h6.27a5.42 5.42 0 0 1 1.09-1.6 5.36 5.36 0 0 1 3.533-1.57v-.806A1.877 1.877 0 0 0 10.018 2.3a1.867 1.867 0 0 0-1.354.587c.37.248.675.645.675 1.223 0 .906-.614 1.412-1.398 1.495-.784.083-1.486-.448-1.596-1.198-.11-.75.34-1.407.848-1.65A3.166 3.166 0 0 1 10.018 1a3.179 3.179 0 0 1 3.177 3.176v.896a5.36 5.36 0 0 1 2.786 1.48 3.9 3.9 0 0 1 .95 1.6H23v1h-5.887c.003.057.016.114.016.172 0 .758-.223 1.519-.662 2.176H23v1h-7.514a3.893 3.893 0 0 1-2.277.743h-.014v1.607z"/>
    </g>
</svg>
