<svg xmlns="http://www.w3.org/2000/svg" width="32" height="32" viewBox="0 0 32 32">
    <defs>
        <clipPath id="a">
            <path d="M0 24h24V0H0z"/>
        </clipPath>
    </defs>
    <g clip-path="url(#a)" transform="matrix(1.33333 0 0 -1.33333 0 32)">
        <path fill="#a000a0" d="M21.773 4.882a.367.367 0 0 0-.362-.361H2.589a.368.368 0 0 0-.36.36v8.996c0 .193.166.359.36.359H21.41a.366.366 0 0 0 .361-.36zm-.362 10.583H6.197l16.356 5.729-.407 1.16-19.708-6.906A1.583 1.583 0 0 1 1 13.877V4.882a1.591 1.591 0 0 1 1.588-1.588h2.15V1h1.228v2.294h12.066V1h1.226v2.294h2.151A1.592 1.592 0 0 1 23 4.882v8.995a1.592 1.592 0 0 1-1.59 1.588"/>
        <path fill="#a000a0" d="M12.34 8.944h7.216v2.817H12.34zM7.02 7.082a2.3 2.3 0 0 0-2.297 2.297 2.298 2.298 0 0 0 4.593 0A2.299 2.299 0 0 0 7.02 7.082m0 5.82a3.525 3.525 0 1 1-.002-7.05 3.525 3.525 0 0 1 .002 7.05"/>
    </g>
</svg>
