<svg xmlns="http://www.w3.org/2000/svg" width="32" height="32" viewBox="0 0 32 32">
    <defs>
        <clipPath id="a">
            <path d="M0 24h24V0H0z"/>
        </clipPath>
    </defs>
    <g clip-path="url(#a)" transform="matrix(1.33333 0 0 -1.33333 0 32)">
        <path fill="#595959" d="M20.316 8.72h-2.852v.876A2.493 2.493 0 0 1 19.316 12a2.493 2.493 0 0 1-1.852 2.405v.874h-.002 2.854A4.763 4.763 0 0 0 21.63 12c0-1.27-.504-2.42-1.313-3.278M7.837 15.28h8.328V8.72H7.837zm-1.3-.876A2.492 2.492 0 0 1 4.687 12c0-1.154.786-2.116 1.85-2.403V8.72H3.685A4.762 4.762 0 0 0 2.373 12c0 1.274.502 2.422 1.312 3.28h2.853v-.001zM1 5.346h22v13.309H1z"/>
    </g>
</svg>
