<svg xmlns="http://www.w3.org/2000/svg" width="32" height="32" viewBox="0 0 32 32">
    <defs>
        <clipPath id="a">
            <path d="M0 24h24V0H0z"/>
        </clipPath>
    </defs>
    <g clip-path="url(#a)" transform="matrix(1.33333 0 0 -1.33333 0 32)">
        <path fill="red" d="M12.915 10.708c-1.104-.547-3.44-.737-4.55-.593.321.156.845 2.43 1.6 2.805.583.29 1.429.053 1.747.209.319.159.64.978 1.222 1.267.755.376 2.882-.578 3.202-.416-.555-.972-2.118-2.719-3.221-3.272m2.135-4.292c3.052 1.517 5.576 5.631 6.818 10.387-2.203-.042-7.134 3.01-8.737 3.097-.672.049-1.428.08-2.184-.295-.654-.326-1.012-1.393-1.616-1.695-.602-.299-1.67.062-2.326-.265-.755-.377-1.185-.999-1.551-1.565-.895-1.331-1.436-7.104-2.799-8.836 4.542-1.877 9.344-2.348 12.395-.828"/>
    </g>
</svg>
