<svg xmlns="http://www.w3.org/2000/svg" width="32" height="32" viewBox="0 0 32 32">
    <defs>
        <clipPath id="a">
            <path d="M0 24h24V0H0z"/>
        </clipPath>
    </defs>
    <g clip-path="url(#a)" transform="matrix(1.33333 0 0 -1.33333 0 32)">
        <path fill="#f0f" d="M20.559 7.727c0 1.61-.337 2.928-1.011 3.948-.673 1.02-1.764 1.53-3.274 1.53-1.53 0-2.826-.531-3.887-1.591-1.062-1.061-1.592-2.357-1.592-3.887 0-1.49.505-2.576 1.515-3.26 1.01-.683 2.3-1.025 3.872-1.025 1.592 0 2.719.316 3.383.949.662.632.994 1.744.994 3.336m1.225 1.133c0 2.305-.547 4.013-1.64 5.127-1.09 1.11-2.778 1.668-5.064 1.668-1.898 0-3.494-.65-4.79-1.944-1.296-1.296-1.943-2.892-1.943-4.791 0-2.264.56-3.947 1.683-5.05 1.122-1.102 2.826-1.653 5.11-1.653.064 0 .155.006.276.016.123.01.215.015.276.015-1.795.102-3.265.608-4.407 1.516-1.143.906-1.715 2.229-1.715 3.963 0 1.856.654 3.438 1.96 4.744 1.306 1.306 2.886 1.959 4.744 1.959 1.734 0 3.056-.572 3.964-1.714.907-1.143 1.413-2.612 1.514-4.408 0 .062.006.153.016.276.01.122.016.214.016.276m-10.99 7.406v5.51H8.348l1.836-6.121zm-1.346-1.224L6.51 20.55l-1.836-1.836 4.284-4.162zm13.56-6.122c0-2.183-.776-4.05-2.326-5.601C19.129 1.769 17.264.993 15.08.993c-2.571 0-4.54.684-5.907 2.05C7.806 4.412 7.122 6.37 7.122 8.92c0 .573.046 1.113.138 1.623.092.51.25.99.474 1.438H1v4.898l6.122 6.12h4.897v-6.733c.449.225.928.383 1.438.475.51.09 1.05.138 1.623.138 2.57 0 4.535-.673 5.893-2.02 1.356-1.347 2.035-3.326 2.035-5.94"/>
    </g>
</svg>
