<svg xmlns="http://www.w3.org/2000/svg" width="32" height="32" viewBox="0 0 32 32">
    <defs>
        <clipPath id="a">
            <path d="M0 24h24V0H0z"/>
        </clipPath>
    </defs>
    <g clip-path="url(#a)" transform="matrix(1.33333 0 0 -1.33333 0 32)">
        <path fill="#f0f" d="M22.31 11.47c.019.144.027.283.026.42-.028 2.3-2.31 3.884-4.757 3.884-.429 0-.87-.05-1.304-.155-3.13-.712-3.334-2.964-3.315-3.068a.478.478 0 0 1 .404-.482l.062-.01c-.164-.444-.232-.82-.285-1.013-.643-.245-1.136-.58-1.183-.61-.036.02-.065.052-.107.062 0 0-.236.059-.496.158a2.339 2.339 0 0 0-.357.166c-.097.052-.123.095-.129.09-.023.02-.044.086-.068.176.084.366.131.71.131 1.03.01 1.179-.588 2.056-1.382 2.54-.79.499-1.752.676-2.63.68a5.69 5.69 0 0 1-.712-.046C4.284 15.11.976 14.26 1 10.126c.033-2.428 1.443-3.554 1.358-4.43-.004-.298-.101-.641-.475-1.146a.48.48 0 0 1-.073-.431.484.484 0 0 1 .308-.31c.786-.256 1.485-.378 2.112-.378h.046c1.592 0 2.677.887 3.23 2.037.571 1.16.724 2.578.726 3.884a20.31 20.31 0 0 1-.298 3.347c.063.007.135.013.21.013.268-.003.53-.063.782-.312.352-.352.588-.725.733-1.006.146-.284.191-.451.195-.451.002-.005.006-.007.008-.01.053-.187.11-.364.191-.522.28-.366.695-.566 1.03-.681a4.04 4.04 0 0 0-.147-.236c-.163-.257-.318-.477-.318-.477a.477.477 0 0 1 .036-.594l.36-.404a.602.602 0 0 0-.1-.251c-.152-.243-.145-.444-.15-.631 0-.211.02-.421.02-.607-.042-.444-.015-.495-.299-.574a5.704 5.704 0 0 0-1.102-.1c-.553 0-.942.066-.944.063a.478.478 0 0 1-.547-.387l-.323-1.827.943-.167.245 1.386c.174-.014.388-.023.626-.023.385 0 .836.027 1.294.119.889.164 1.104 1.033 1.063 1.51 0 .24-.02.459-.02.607 0 .063.006.108.01.128h-.001c.195.31.247.604.245.806 0 .139-.021.232-.03.263l-.106.199-.222.25c.05.078.108.165.165.255.067.124.133.227.195.329.063-.102.129-.206.196-.331.057-.09.115-.176.165-.253l-.221-.25-.1-.177a.935.935 0 0 1-.04-.287c-.001-.19.045-.474.227-.77-.021-.168-.26-.7-.278-1.235-.05-.408.323-.975.884-1.044a7.438 7.438 0 0 1 1.47-.131c.208 0 .398.007.555.016l.123-1.326.952.085-.164 1.796a.475.475 0 0 1-.531.432c-.002 0-.396-.048-.935-.048-.396 0-.863.028-1.277.113-.116.026-.108.045-.113.039 0 0-.007 0-.007.068-.02.25.245.74.275 1.276a.76.76 0 0 1-.118.429.551.551 0 0 0-.102.249l.362.405a.479.479 0 0 1 .035.594s-.177.253-.351.53a6.509 6.509 0 0 0-.174.288c.218.12.52.273.833.373a.48.48 0 0 1 .257.203c.213.414.274.95.5 1.498.96-.143 2.415-.35 3.617-.476-.458-.872-1.02-1.735-1.02-1.738a.48.48 0 0 1 .753-.585c0 .003.114.125.305.257.194.134.442.245.644.24.16-.004.305-.04.514-.242a.684.684 0 0 0 .203-.511c.002-.284-.148-.652-.396-.922-.247-.274-.566-.436-.84-.432a.816.816 0 0 0-.212.029.479.479 0 0 1-.599-.465c.014-.85.541-2.211.568-2.307l.203-.698.92.266h-.003l-.126.436c.068.062.151.13.26.216.311.244.773.56 1.375.848.973.465 2.422 1.514 2.434 3.365.002.69-.21 1.452-.689 2.28"/>
        <path fill="#f0f" d="M12.002 13.867c0 .7 3.429 2.728 3.429 4.717 0 1.99-2.269 2.708-3.429 1.106-1.158 1.602-3.427.884-3.427-1.106 0-1.989 3.427-4.017 3.427-4.717"/>
    </g>
</svg>
