<svg xmlns="http://www.w3.org/2000/svg" width="32" height="32" viewBox="0 0 32 32">
    <defs>
        <clipPath id="a">
            <path d="M0 24h24V0H0z"/>
        </clipPath>
    </defs>
    <g clip-path="url(#a)" transform="matrix(1.33333 0 0 -1.33333 0 32)">
        <path fill="#f0f" d="M23.099 15.375a1.965 1.965 0 0 1-1.9 1.965 1.983 1.983 0 0 1-1.84 1.292h-.007c-.55 0-1.033-.242-1.392-.609-.011.069-.01.141-.028.208a1.96 1.96 0 0 1 .653 2.18 1.97 1.97 0 0 1-1.795 1.338c-.275.758-1 1.293-1.85 1.293a1.964 1.964 0 0 1-1.847-1.292 1.962 1.962 0 0 1-1.806-1.374 2.004 2.004 0 0 1-.077-.48 1.974 1.974 0 0 1-.576.11A1.975 1.975 0 0 1 8.792 21.3h-.014a1.99 1.99 0 0 1-1.844-1.293 1.96 1.96 0 0 1-1.804-1.369 1.938 1.938 0 0 1-.094-.597c0-.43.147-.834.393-1.166L4.482 6.781 1 5.495l4.435-4.494L6.72 4.543l8.965.818c.25-.116.515-.198.799-.202.405 0 .794.12 1.117.336a1.979 1.979 0 0 1 2.227.014c.542.401.834.975.843 1.604 0 .192-.025.376-.074.552.467.362.752.923.756 1.545 0 .192-.027.38-.08.566l-.008.028-.01.026a1.985 1.985 0 0 1-1.8 1.354 1.873 1.873 0 0 1-.222.408c.038.022.082.032.118.055a1.97 1.97 0 0 1 2.24.032 1.981 1.981 0 0 1 .749 2.14c.468.367.758.94.758 1.556"/>
        <path fill="#e6e6e6" d="M14.613 7.674c-.47.368-.757.93-.757 1.543 0 .142.034.274.064.408a1.94 1.94 0 0 0-.725.278 1.98 1.98 0 0 0-2.265.046 1.963 1.963 0 0 0-.728 2.133 1.979 1.979 0 0 0-.756 1.549c0 .138.035.27.064.405-.26.05-.51.133-.729.28a2.035 2.035 0 0 0-1.118-.335 1.955 1.955 0 0 0-1.135.377c-.115.083-.214.18-.306.282l-.745-7.952-.059-.626-.59-.22L2.8 5.095 5.034 2.83l.746 2.055.217.597.633.057 8.106.74a2.057 2.057 0 0 0-.2.872c.002.18.027.355.077.523"/>
        <path fill="#ff8cfa" d="M13.771 11.121l-.024.061a.603.603 0 0 1-.553.37.602.602 0 0 1-.554-.37c-.012-.03-.022-.052-.027-.068a.668.668 0 0 0-1.188.425c0 .123.033.246.107.36l.045.035a.604.604 0 0 1 .198.632.596.596 0 0 1-.507.43.835.835 0 0 1-.088.008.673.673 0 0 0-.4.83.668.668 0 0 0 .843.43c.005-.003.007-.017.007-.017a.596.596 0 0 1 .67.007c.201.138.3.386.245.622a.821.821 0 0 1-.018.084c.022.35.313.63.667.631.357 0 .65-.285.67-.638a.594.594 0 0 1 .22-.692.596.596 0 0 1 .659-.026l.002.02a.67.67 0 0 0 .23.043.67.67 0 0 0 .635-.465.737.737 0 0 0 .03-.205.662.662 0 0 0-.43-.624.93.93 0 0 1-.091-.009.596.596 0 0 1-.503-.425.602.602 0 0 1 .19-.629.602.602 0 0 0 .045-.039.667.667 0 0 0-1.079-.781M12.527 19.986a.66.66 0 0 0 .81.44.76.76 0 0 0 .056-.035.601.601 0 0 1 .9.642c-.007.033-.015.057-.019.072a.667.667 0 0 0 1.333-.002l-.017-.07a.6.6 0 0 1 .881-.653l.076.046a.595.595 0 0 0 .172.024.676.676 0 0 0 .635-.456.662.662 0 0 0-.4-.836l-.07-.005a.602.602 0 1 1-.352-1.04l.067-.059a.654.654 0 0 0 .107-.363.664.664 0 0 0-.667-.668.66.66 0 0 0-.519.25c-.009.018-.02.047-.038.088a.601.601 0 0 1-1.1-.039l-.022-.052a.674.674 0 0 0-.912-.12.664.664 0 0 0-.16.91c.011.011.032.027.057.048.177.16.245.41.168.636a.598.598 0 0 1-.516.41l-.066.003a.676.676 0 0 0-.439.627c0 .062.012.13.035.202M6.368 18.242a.663.663 0 0 0 .842.431c.01 0 .015-.017.015-.017a.595.595 0 0 1 .666.012c.2.137.295.384.246.621-.009.037-.015.063-.02.077a.668.668 0 0 0 1.335 0l-.016-.06a.602.602 0 0 1 .886-.664l.066.041a.672.672 0 0 0 .813-.443h.001a.669.669 0 0 0-.397-.824 3.218 3.218 0 0 1-.082-.006.6.6 0 0 1-.337-1.053l.05-.04a.677.677 0 0 0 .113-.37.671.671 0 0 0-.276-.54.677.677 0 0 0-.39-.127.663.663 0 0 0-.518.244l-.029.074a.603.603 0 1 1-1.128-.064.66.66 0 0 0-.912-.128.665.665 0 0 0-.169.91l.05.041a.6.6 0 0 1-.335 1.053l-.082.006a.674.674 0 0 0-.425.625c0 .064.01.13.033.201M19.218 9.865a.645.645 0 0 0 .163.021.686.686 0 0 0 .643-.467.667.667 0 0 0-.399-.825l-.058-.003a.603.603 0 0 1-.537-.416.598.598 0 0 1 .195-.65.44.44 0 0 0 .04-.034.665.665 0 0 0 .107-.36.686.686 0 0 0-.278-.55.69.69 0 0 0-.39-.122.663.663 0 0 0-.516.244l-.025.06a.597.597 0 0 1-.551.375.598.598 0 0 1-.583-.426.678.678 0 0 0-.526-.253.662.662 0 0 0-.387.125.66.66 0 0 0-.171.906l.046.037c.189.158.265.416.189.65a.601.601 0 0 1-.535.414l-.005-.014a.673.673 0 0 0-.484.64c0 .063.01.13.034.202.09.29.353.467.633.468a.646.646 0 0 0 .206-.035c.016-.004.018-.02.018-.02a.602.602 0 0 1 .907.656l-.014.053a.664.664 0 0 0 .658.637l.007-.002a.668.668 0 0 0 .667-.617l-.003-.03-.017-.073a.596.596 0 0 1 .243-.61.602.602 0 0 1 .658-.02c.03.017.05.03.065.04M21.374 14.749c-.021-.002-.052-.004-.097-.01a.601.601 0 0 1-.312-1.057l.04-.033a.664.664 0 0 0-.554-1.035.662.662 0 0 0-.519.244l-.015.043a.6.6 0 0 1-1.106.047.757.757 0 0 1-.04-.089.669.669 0 0 0-1.081.784l.055.045a.602.602 0 0 1-.319 1.051l-.09.009a.67.67 0 0 0-.435.624c0 .063.012.133.035.205a.668.668 0 0 0 .812.439l.085-.05a.6.6 0 0 1 .867.678.553.553 0 0 0-.014.055c.02.353.31.633.666.633a.671.671 0 0 0 .668-.669h-.012a.604.604 0 0 1 .203-.642.606.606 0 0 1 .745-.005.615.615 0 0 0 .174.025.674.674 0 0 0 .636-.461h-.001a.67.67 0 0 0-.391-.831"/>
    </g>
</svg>
