<svg xmlns="http://www.w3.org/2000/svg" width="32" height="32" viewBox="0 0 32 32">
    <defs>
        <clipPath id="a">
            <path d="M0 24h24V0H0z"/>
        </clipPath>
    </defs>
    <g clip-path="url(#a)" transform="matrix(1.33333 0 0 -1.33333 0 32)">
        <path fill="#f0f" d="M21.473 4.613a2.397 2.397 0 0 0-2.395-2.393l-3.551.008v1.638h1.885a2.382 2.382 0 0 1 2.383 2.385v1.76h-1.227V6.25a1.157 1.157 0 0 0-1.156-1.156H13.59a170.24 170.24 0 0 0-.013 2.506c-.017 1.133.81 2.506 1.7 3.547a14.63 14.63 0 0 0 1.51 1.535 4.96 4.96 0 0 1 .457-.026c.32.001.63.038.93.104.293-.252.945-.837 1.599-1.614.888-1.039 1.715-2.412 1.7-3.546zm-8.486-2.38c-.637.024-.82.37-.854.818.035.448.217.794.859.815h1.307V2.231zM5.617 4.82c.92 2.405 2.84 3.121 2.84 3.121.077-.026.145-.063.223-.086.4-.118.805-.17 1.205-.17.424.001.836.08 1.238.197 0 0 .843-.428 1.043-1.642.077-.46.16-.906.186-1.242a1.97 1.97 0 0 1-.92-.55 2.087 2.087 0 0 1-.36-2.214l-6.147.001c.115.631.319 1.614.692 2.585m9.226 8.568c.18-.117.364-.226.559-.317a15.287 15.287 0 0 1-.58-.583c.02.201.043.404.043.603 0 .1-.016.198-.022.297m-8.233-.834c0 .352.053.713.144 1.076 1.849 1 2.377 1.921 2.377 1.921s1.084-1.528 4.486-2.72a4.417 4.417 0 0 0-.16-.978c-.521-1.796-2.054-2.948-3.572-2.94-.29 0-.577.04-.863.121-1.446.415-2.408 1.848-2.412 3.52m10.634 1.332c-1.863.002-3.468 1.717-3.473 3.947 0 .214.028.417.056.62 1.734.12 4.195.485 6.334 1.496a4.295 4.295 0 0 0 .555-2.116c-.005-2.232-1.608-3.945-3.472-3.947m2.202-.623c1.499.876 2.495 2.611 2.499 4.57-.006 2.808-2.05 5.164-4.701 5.176-2.65-.012-4.697-2.368-4.701-5.176 0-.165.008-.328.024-.49-.31.184-.636.345-.996.45a4.288 4.288 0 0 1-1.205.174c-2.14-.006-4.094-1.555-4.756-3.83a5.644 5.644 0 0 1-.227-1.583 5.246 5.246 0 0 1 .088-.932c-.798-1.948-1.715-3.463-.712-5.658-1.14-2.22-1.241-4.955-1.241-4.955h15.559a3.61 3.61 0 0 1 3.625 3.604v2.988c-.064 2.447-2.156 4.647-3.256 5.662M4.685 15.774c0 .692 3.386 2.695 3.386 4.66 0 1.965-2.241 2.675-3.386 1.093-1.146 1.582-3.387.872-3.387-1.093 0-1.965 3.387-3.968 3.387-4.66"/>
    </g>
</svg>
