<svg xmlns="http://www.w3.org/2000/svg" width="32" height="32" viewBox="0 0 32 32">
    <defs>
        <clipPath id="a">
            <path d="M0 24h24V0H0z"/>
        </clipPath>
    </defs>
    <g clip-path="url(#a)" transform="matrix(1.33333 0 0 -1.33333 0 32)">
        <path fill="#595959" d="M16.86 23H7.072c-.935 0-1.7-.765-1.7-1.701v-2.754c.533.324 1.15.515 1.798.517v1.639h9.59v-1.677h1.8v2.275c0 .936-.766 1.701-1.702 1.701M15.621 2.552h-2.283v1.752h2.283zm-2.887 0h-1.535v1.752h1.535zm-2.138 0H8.313v1.752h2.283zm6.166 3.052h-9.59v2.313a3.467 3.467 0 0 0-1.799.518V2.701C5.373 1.766 6.138 1 7.074 1h9.785c.936 0 1.702.766 1.702 1.701v5.171h-1.799zM5.447 13.489c.03 2.486.891 3.3 1.765 3.306.874-.005 1.734-.82 1.764-3.306-.03-2.484-.89-3.301-1.764-3.304-.874.003-1.736.82-1.765 3.304m4.5 0c-.004 2.646-1.083 4.268-2.735 4.275-1.655-.007-2.734-1.63-2.738-4.275.004-2.645 1.083-4.266 2.738-4.274 1.652.008 2.731 1.629 2.735 4.274M14.733 17.723h-3.748v-8.55h.971v3.788h2.777v.973h-2.778v2.818h2.778zM16.746 13.934v2.818h2.777v.971h-3.747V9.171h.97v3.791h2.78v.972z"/>
    </g>
</svg>
