<svg xmlns="http://www.w3.org/2000/svg" width="32" height="32" viewBox="0 0 32 32">
    <defs>
        <clipPath id="a">
            <path d="M0 24h24V0H0z"/>
        </clipPath>
    </defs>
    <g clip-path="url(#a)" transform="matrix(1.33333 0 0 -1.33333 0 32)">
        <path fill="#595959" d="M21.29 13.39c-2.262 4.603-5.45 8.956-9.29 9.042-3.839-.086-7.027-4.44-9.288-9.04C1.708 11.296 1.006 9.16 1 7.232.973 5.2 1.89 3.315 4.028 2.409c1.06-.445 2.916-.61 4.611-.725.84-.051 1.621-.08 2.194-.096.288-.008.523-.011.686-.013l.19-.004h.023l.042-.001c.025 0 .046 0 .065.003.686.02 6.186.033 8.133.836 2.14.904 3.055 2.792 3.027 4.825-.002 1.929-.706 4.065-1.71 6.157"/>
        <path fill="#e6e6e6" d="M19.484 3.533c-.278-.127-.792-.239-1.414-.335v9.09H5.932V3.19c-.614.098-1.129.212-1.416.344-1.68.758-2.26 1.971-2.288 3.7-.003 1.621.626 3.631 1.59 5.623 2.11 4.461 5.337 8.35 8.092 8.35.03 0 .06 0 .09-.002 2.775.086 6.052-3.838 8.182-8.348.962-1.99 1.594-4 1.59-5.624-.027-1.73-.608-2.943-2.288-3.699"/>
    </g>
</svg>
