<svg xmlns="http://www.w3.org/2000/svg" width="32" height="32" viewBox="0 0 32 32">
    <defs>
        <clipPath id="a">
            <path d="M0 24h24V0H0z"/>
        </clipPath>
    </defs>
    <g clip-path="url(#a)" transform="matrix(1.33333 0 0 -1.33333 0 32)">
        <path fill="red" d="M22.994 11.844c-.01.057-.412 2.65-2.37 5.614a27.31 27.31 0 0 1-.899 1.276c-.405 1.593-1.559 3.694-2.923 3.694-.977 0-1.846-1.08-2.41-2.278L1 12.099V1.573h22v10.22z"/>
        <path fill="#e6e6e6" d="M2.227 11.137h19.548V8.472H2.227zM2.227 5.465h19.548V2.8H2.227zM16.802 15.005c1.295 0 2.397.697 2.854 1.683a15.766 15.766 0 0 0 1.72-3.52c.109-.318.183-.578.242-.804H3.824l9.973 5.995a3.7 3.7 0 0 1-.072-.674c0-1.481 1.378-2.68 3.077-2.68"/>
        <path fill="#e6e6e6" d="M18.376 17.51c.174 0 .314-.23.314-.511 0-.282-.14-.51-.314-.51s-.315.228-.315.51c0 .282.141.51.315.51M17.59 19.477c.173 0 .314-.229.314-.513 0-.282-.141-.51-.314-.51-.175 0-.315.228-.315.51 0 .284.14.513.315.513M16.803 21.443c.174 0 .314-.229.314-.51 0-.283-.14-.51-.314-.51s-.314.227-.314.51c0 .281.14.51.314.51M16.803 17.51c.174 0 .314-.23.314-.511 0-.282-.14-.51-.314-.51s-.314.228-.314.51c0 .282.14.51.314.51M16.017 19.477c.174 0 .314-.229.314-.513 0-.282-.14-.51-.314-.51s-.315.228-.315.51c0 .284.14.513.315.513M15.23 17.51c.173 0 .314-.23.314-.511 0-.282-.14-.51-.314-.51-.175 0-.315.228-.315.51 0 .282.14.51.316.51"/>
    </g>
</svg>
