<svg xmlns="http://www.w3.org/2000/svg" width="32" height="32" viewBox="0 0 32 32">
    <defs>
        <clipPath id="a">
            <path d="M0 24h24V0H0z"/>
        </clipPath>
    </defs>
    <g clip-path="url(#a)" transform="matrix(1.33333 0 0 -1.33333 0 32)">
        <path fill="#595959" d="M17.642 14.11L23 19.463l-3.171.555-5.038-5.035a20.417 20.417 0 0 1-3.971.383c-2.617-.002-4.991-.457-6.761-1.228-1.741-.766-3.027-1.868-3.06-3.39 0-.2.028-.394.075-.578.338-1.809 2.475-3.916 2.475-3.916 1.282-1.446 4.033-2.25 7.27-2.275 3.224.024 5.968.822 7.254 2.258 0 0 2.127 2.098 2.49 3.933h.002c.045.184.073.377.073.577-.033 1.506-1.288 2.595-2.996 3.361"/>
        <path fill="#e6e6e6" d="M10.82 12.438c-3.156 0-5.714-1.073-5.714-2.395 0-1.321 2.558-2.39 5.714-2.39 3.153 0 5.714 1.069 5.714 2.39 0 1.323-2.56 2.395-5.714 2.395"/>
        <path fill="#ff8c00" d="M12.07 10.132v.004c-.004.815-.98 1.47-2.185 1.47-1.203 0-2.178-.655-2.182-1.47v-.005c.001-.64.977-1.157 2.182-1.157 1.207 0 2.184.518 2.185 1.157z"/>
        <path fill="#e6e6e6" d="M3.708 7.682h.001l-.001-.002zm.001 0l.324.729C5.806 7.619 8.19 7.119 10.82 7.12c2.626-.001 5.009.497 6.782 1.289l.325-.731c-1.901-.848-4.38-1.357-7.107-1.357-2.73 0-5.211.51-7.111 1.36"/>
    </g>
</svg>
