<svg xmlns="http://www.w3.org/2000/svg" width="32" height="32" viewBox="0 0 32 32">
    <defs>
        <clipPath id="a">
            <path d="M0 24h24V0H0z"/>
        </clipPath>
    </defs>
    <g clip-path="url(#a)" transform="matrix(1.33333 0 0 -1.33333 0 32)">
        <path fill="#ff8c00" d="M22.513 20.29a6.27 6.27 0 0 1-.437 2.326.615.615 0 0 1-1.153-.042c-.066-.35-.655-.616-1.572-.828-.792-.225-1.812-.355-2.385-1.242-.39.193-.796.331-1.235.337a1.72 1.72 0 0 1-.676-.13c-.786-.361-1.147-1.011-1.318-1.553a3.56 3.56 0 0 1-1.35.318c-.268 0-.563-.043-.854-.183-.73-.358-1.034-.953-1.16-1.434a4.955 4.955 0 0 1-.822.077c-.475-.006-1.044-.071-1.504-.519-.67-.713-.688-1.649-.705-2.202 0-.098.004-.172.007-.244 0-.016 0-.041.002-.056L1.54 1.864a.613.613 0 0 1 .809-.811l13.059 5.812a4.73 4.73 0 0 1 .226-.006l.07-.002c.553.017 1.487.036 2.202.705.442.462.507 1.029.512 1.506a4.961 4.961 0 0 1-.066.767c.51.094 1.158.365 1.529 1.117.132.291.177.584.177.852-.01.512-.156.98-.317 1.346.542.174 1.196.539 1.559 1.337.086.219.12.445.12.662-.008.55-.211 1.049-.486 1.521 1.117.653 1.56 2.17 1.578 3.62"/>
        <path fill="#e6e6e6" d="M5.817 8.452v-.325H7.59v1.771H6.462zM7.59 10.9v1.533L6.907 10.9zM5.817 5.353H7.59v1.772H5.817zM5.817 3.941l.925.411h-.925zM4.817 5.353v.854l-.38-.854zM8.59 12.127v-1.228h.917c-.369.438-.662.844-.917 1.228M3.311 2.826l1.506.67v.856h-.826zM8.59 5.353h.4l1.371.61v1.162h-1.77zM11.362 7.125v-.717l1.61.717zM11.362 9.04v-.913h1.217c-.382.256-.783.546-1.217.913M8.59 8.127h1.771v1.771H8.59zM10.455 16.586a3.666 3.666 0 0 1-.904.122c-.34.006-.582-.087-.631-.155-.235-.191-.366-.902-.351-1.338 0-.182.01-.284.015-.314.006-.024.019-.086.073-.246.065-.196.179-.492.368-.865.377-.75 1.055-1.808 2.249-3.001 1.793-1.793 3.279-2.424 3.87-2.622.138-.045.199-.06.232-.07.023 0 .132-.012.33-.012.434-.018 1.143.114 1.332.346.07.05.16.299.155.637a4.06 4.06 0 0 1-.116.896c-4.226 1.68-6.143 5.523-6.622 6.622M18.383 13.108c-3.413 1.527-4.474 3.92-4.732 4.713a3.604 3.604 0 0 1-.307.165c-.291.142-.674.268-.956.263a.734.734 0 0 1-.33-.065c-.447-.18-.534-.73-.543-.96.048-.115.139-.33.296-.646.236-.468.602-1.113 1.11-1.808 1.007-1.378 2.57-2.934 4.809-3.752.024 0 .05-.003.094-.003.323.002.796.094.944.455a.789.789 0 0 1 .062.333c.004.285-.12.666-.26.954a4.446 4.446 0 0 1-.187.351M16.684 19.267c-.383.226-.735.354-.953.347a.502.502 0 0 1-.21-.038c-.264-.096-.471-.393-.594-.748a2.58 2.58 0 0 1-.13-.556c.018-.061.048-.157.108-.304.106-.264.29-.641.587-1.072.583-.833 1.608-1.868 3.409-2.675.119.017.303.048.512.12.355.126.65.329.747.593a.618.618 0 0 1 .035.216c.01.269-.192.739-.52 1.223-1.588.126-2.85 1.436-2.991 2.894M21.22 21.125c-.494-.309-1.082-.438-1.572-.57-.931-.202-1.622-.472-1.685-.744a.858.858 0 0 1-.075-.367c-.005-.369.219-.868.6-1.245.378-.382.883-.624 1.342-.62.055 0 .119.004.193.01v-.002c.59.034 1.28 1.198 1.26 2.703a5.21 5.21 0 0 1-.063.835"/>
    </g>
</svg>
