<svg xmlns="http://www.w3.org/2000/svg" width="32" height="32" viewBox="0 0 32 32">
    <defs>
        <clipPath id="a">
            <path d="M0 24h24V0H0z"/>
        </clipPath>
    </defs>
    <g clip-path="url(#a)" transform="matrix(1.33333 0 0 -1.33333 0 32)">
        <path fill="#ff8c00" d="M22.605 18.729a.6.6 0 0 1-.337.325l-2.477.972a.612.612 0 0 1-.795-.348l-1.061-2.703v3.837a.604.604 0 0 1-.18.433.606.606 0 0 1-.433.18l-4.707.002v.958A.614.614 0 0 1 12 23H9.34a.615.615 0 0 1-.615-.615v-1.372H6.68a.62.62 0 0 1-.614-.614v-3.426l-1.061 2.705a.614.614 0 0 1-.795.348l-2.476-.972a.61.61 0 0 1-.347-.796l1.831-4.671-.95-.485 1.538-9.945C4.005 1.962 4.966 1.022 6.15 1h11.698c1.186.022 2.148.962 2.343 2.157l1.543 9.945-.953.484 1.832 4.673c.06.152.058.32-.008.47"/>
        <path fill="#e6e6e6" d="M16.705 10.036h-1.431v10.161h1.431zM14.046 10.036h-1.432v10.162h1.432zM11.386 21.771V10.037H9.954l-.002 11.734zM7.293 19.786h1.433v-9.217H7.293zM4.087 18.658l1.979-5.043v-2.72l-.774.765-2.54 6.476zM18.708 11.662l-.773-.767v2.72l1.976 5.043 1.335-.522z"/>
    </g>
</svg>
