<svg xmlns="http://www.w3.org/2000/svg" width="32" height="32" viewBox="0 0 32 32">
    <defs>
        <clipPath id="a">
            <path d="M0 24h24V0H0z"/>
        </clipPath>
    </defs>
    <g clip-path="url(#a)" transform="matrix(1.33333 0 0 -1.33333 0 32)">
        <path fill="#ff8c00" d="M5.297 6.696l-4.26-4.26L2.45 1.018l4.272 4.272a4.238 4.238 0 0 0-.822.621 4.2 4.2 0 0 0-.603.784"/>
        <path fill="#b45000" d="M21.432 21.43a4.165 4.165 0 0 1-2.97 1.23 4.163 4.163 0 0 1-2.97-1.227 4.165 4.165 0 0 1-1.228-2.97c0-.223.03-.441.064-.657a4.318 4.318 0 0 1-.666.064 4.158 4.158 0 0 1-2.968-1.226 4.16 4.16 0 0 1-1.231-2.97c0-.223.032-.44.066-.656a4.215 4.215 0 0 1-.658.064 4.167 4.167 0 0 1-2.97-1.227 4.164 4.164 0 0 1-1.23-2.97A4.186 4.186 0 0 1 8.87 4.688c1.124 0 2.177.435 2.97 1.226a4.2 4.2 0 0 1 1.227 2.97c0 .225-.031.442-.064.658.217-.035.435-.067.659-.067a4.195 4.195 0 0 1 4.198 4.199c0 .223-.031.44-.065.656.22-.035.442-.065.668-.065a4.193 4.193 0 0 1 4.196 4.198 4.172 4.172 0 0 1-1.227 2.968"/>
        <path fill="#00be3c" d="M9.793 12.039c-.302.087-.61.146-.922.146-.848 0-1.689-.32-2.336-.966a3.276 3.276 0 0 1-.965-2.334 3.299 3.299 0 0 1 3.301-3.301 3.299 3.299 0 0 1 3.299 3.301c0 .314-.059.622-.147.924-.49.207-.942.506-1.33.89a4.19 4.19 0 0 0-.9 1.34"/>
        <path fill="#e6e6e6" d="M14.597 16.822c-.306.09-.618.15-.935.15a3.291 3.291 0 0 1-3.3-3.298c0-.849.318-1.69.964-2.337a3.3 3.3 0 0 1 2.336-.964 3.296 3.296 0 0 1 3.299 3.301c0 .315-.06.625-.148.93a4.177 4.177 0 0 0-1.32.885 4.168 4.168 0 0 0-.896 1.333"/>
        <path fill="#f0f" d="M20.795 16.127a3.287 3.287 0 0 0-2.332-.965c-.85 0-1.691.322-2.336.965a3.286 3.286 0 0 0-.967 2.336c0 .846.32 1.689.967 2.333a3.284 3.284 0 0 0 2.336.966c.844 0 1.687-.321 2.332-.966a3.285 3.285 0 0 0 .965-2.333 3.3 3.3 0 0 0-.965-2.336"/>
    </g>
</svg>
