<svg xmlns="http://www.w3.org/2000/svg" width="32" height="32" viewBox="0 0 32 32">
    <defs>
        <clipPath id="a">
            <path d="M0 24h24V0H0z"/>
        </clipPath>
    </defs>
    <g clip-path="url(#a)" transform="matrix(1.33333 0 0 -1.33333 0 32)">
        <path fill="#ff8c00" d="M21.41 11.669c-.256 5.982-4.07 11.295-9.409 11.33-5.34-.035-9.155-5.348-9.41-11.33H1.086l.314-.834c1.232-3.257 3.87-5.797 7.166-6.858V1h6.867v2.977c3.296 1.06 5.935 3.6 7.167 6.858l.314.834z"/>
        <path fill="#e6e6e6" d="M17.83 18.599c-1.49 1.965-3.52 3.173-5.829 3.173-2.31 0-4.34-1.208-5.832-3.173-1.38-1.823-2.25-4.291-2.369-6.93h16.4c-.118 2.639-.99 5.107-2.37 6.93"/>
        <path fill="#ff8c00" d="M12.186 14.234h1.696v1.695h-1.696zM10.489 12.538h1.696v1.696h-1.696zM13.882 12.538h1.696v1.696h-1.696zM17.275 12.538h1.695v1.696h-1.695zM15.578 17.626h-1.696V15.93h1.696zM15.578 14.234h1.697v1.695h-1.697z"/>
    </g>
</svg>
