<svg xmlns="http://www.w3.org/2000/svg" width="32" height="32" viewBox="0 0 32 32">
    <defs>
        <clipPath id="a">
            <path d="M0 24h24V0H0z"/>
        </clipPath>
    </defs>
    <g clip-path="url(#a)" transform="matrix(1.33333 0 0 -1.33333 0 32)">
        <path fill="#595959" d="M21.616 11.195c.001-.046.006-.09.006-.136l-.002-.25c-.007-1.062-.029-2.305-1.14-3.987L18.741 4.34c-.929-1.247-1.375-1.99-3.938-2.046h-2.363c-2.08.058-2.583.984-2.637 2.038v.472h-.737c-.199 0-.387.04-.564.104v-.576c-.002-.832.297-1.696.972-2.33.673-.64 1.682-1.011 2.966-1.007h2.363l.172-.002c2.782 0 3.987 1.319 4.83 2.602l1.747 2.493c1.308 1.942 1.374 3.62 1.368 4.722v.249a8.13 8.13 0 0 1-.193 1.72c-.029-.042-.06-.093-.086-.121z"/>
        <path fill="#e6e6e6" d="M15.001 4.804H9.805v-.472c.053-1.054.555-1.98 2.636-2.038h2.364c2.562.056 3.009.799 3.937 2.046l1.738 2.483c1.111 1.68 1.133 2.924 1.14 3.987l.002.249c0 .047-.005.09-.006.136l-3.204-4.568c-.039-.07-1.072-1.808-3.411-1.823M15.246 17.826c0 .048-.005.091-.006.138l-1.14-1.628v-.174c.377.07.65.072.694.076l.012-.002h.358c.07.483.078.925.08 1.34l.002.25M9.13 11.62c-.166-.02-.324-.049-.505-.05H3.428v-.472c.054-1.054.557-1.98 2.637-2.038h1.777c.188.464.422.99.746 1.621.159.3.348.62.542.938"/>
        <path fill="#ffbe00" d="M10.8 13.896c.092.111.116.156.145.2l1.404 2.005v.501c0 .312-.255.47-.567.567 0 0-.185.047-.503.11-.511.099-1.38.238-2.467.3-.066.005-.126.01-.193.013-.135.007-.277.01-.418.013-.077.002-.15.006-.228.007-.133.002-.272 0-.41-.001l-.275-.001a18.381 18.381 0 0 1-.513-.022c-.068-.003-.134-.004-.203-.008-.148-.01-.3-.025-.452-.038-.097-.01-.192-.014-.291-.024-.112-.013-.227-.03-.341-.045-.141-.018-.28-.033-.423-.055-.102-.016-.207-.038-.31-.056-.156-.027-.31-.052-.467-.085-.11-.023-.221-.052-.332-.078-.151-.035-.301-.067-.453-.108a17.713 17.713 0 0 1-.402-.772l-.003-.007a12.2 12.2 0 0 1-.177-.378l-.008-.017-.017-.037a16.27 16.27 0 0 1-.134-.308l-.033-.078-.007-.017a34.862 34.862 0 0 1-.145-.365l-.07-.187a5.325 5.325 0 0 1-.05-.148l-.038-.114c-.018-.06-.034-.11-.047-.16l-.016-.056a1.603 1.603 0 0 1-.035-.153l-.006-.004v-1.043c0-.208.17-.376.376-.376h5.934c1.21 0 1.897.684 2.176 1.026M13.404 19.696l.128-.026c.312-.097.567-.255.567-.567v-.501l1.16 1.655.023.023c.007.013.02.036.037.073.041.096.104.29.104.632v.267c0 .249-.203.45-.452.452H8.42c-.002-.008-.963-.02-1.62-.532a10.273 10.273 0 0 1-.653-.576l-.096-.094a12.12 12.12 0 0 1-.565-.592c3.218.677 7.192-.067 7.92-.214"/>
        <path fill="#595959" d="M15.423 20.984c0-.342-.063-.535-.104-.632-.016-.036-.03-.06-.037-.073l-.024-.023-1.158-1.654v.5c0 .312-.255.471-.568.567l-.128.026c-.727.148-4.7.892-7.92.214.02.021.037.042.055.062l.005.005c.163.178.33.355.506.526.032.031.063.063.096.093.209.2.425.393.652.576.659.512 1.619.524 1.62.533h6.554a.454.454 0 0 0 .45-.453zm-3.074-4.883l-1.404-2.006c-.03-.043-.053-.088-.144-.199a2.747 2.747 0 0 0-2.176-1.026H2.69a.377.377 0 0 0-.376.376v1.043l.005.004c.009.051.028.125.052.211l.005.018.04.138.002.002c.01.035.025.076.038.114l.003.01.047.136v.001c.06.168.135.36.222.57l.029.071c0 .003.003.005.004.007.046.111.097.225.15.345l.007.013a15.069 15.069 0 0 0 .179.382v.002l.003.005c.12.246.255.505.402.772.15.041.302.073.453.108.11.026.222.056.332.078.156.033.31.058.467.085.103.02.208.04.31.057.143.021.282.036.423.054.114.015.229.033.34.045.1.01.195.015.292.024.152.013.304.028.452.038.069.004.135.005.203.01.172.007.346.016.513.02.094.002.184 0 .276.001.137.001.276.003.409.001.078 0 .15-.005.228-.007.14-.003.283-.006.418-.013.067-.003.127-.008.193-.012a20.216 20.216 0 0 0 1.45-.137c.417-.055.762-.114 1.016-.164.319-.062.504-.108.504-.108.312-.098.567-.256.567-.568zm4.374 5.15c0 .97-.784 1.753-1.751 1.753H8.419c-.104-.009-1.316.008-2.423-.809-1.766-1.44-2.99-3.239-3.784-4.747-.798-1.56-1.161-2.604-1.197-3.159v-1.043a1.675 1.675 0 0 1 1.114-1.572h-.001v-.576c-.002-.833.296-1.697.97-2.332.676-.637 1.68-1.008 2.967-1.006h1.369c.053.32.187.752.408 1.3H6.065c-2.08.058-2.583.984-2.637 2.038v.471h5.197c.18.001.34.03.505.05.777 1.28 1.828 2.656 3.243 3.807.552.41 1.132.611 1.586.71.05.011.094.017.14.026v.174l1.14 1.627c.002-.046.007-.089.007-.137l-.002-.25a9.28 9.28 0 0 0-.08-1.34h1.31c.063.505.073.958.07 1.34l.002.25a8.17 8.17 0 0 1-.192 1.723c-.034-.048-.068-.1-.093-.13.15.174.469.675.462 1.565z"/>
        <path fill="red" d="M21.348 16.236h-6.542l-.012.002c-.101-.008-1.315.008-2.421-.811-1.768-1.44-2.988-3.24-3.785-4.746-.8-1.561-1.161-2.605-1.196-3.158V6.48c0-.925.749-1.676 1.675-1.676H15c2.339.015 3.372 1.754 3.41 1.823l4.232 6.03c.152.179.464.679.457 1.56v.268c0 .967-.784 1.75-1.752 1.75"/>
        <path fill="#e6e6e6" d="M8.748 7.24c0 .275.225.5.5.5.006 0 3.939 0 5.532-.002 1.68.041 1.933.697 2.132.94.174.245 4.018 5.73 4.018 5.728a.5.5 0 1 0 .819-.572l-4.016-5.732c-.145-.252-.944-1.402-2.953-1.363H9.248v-.002c-.275 0-.5.225-.5.502"/>
    </g>
</svg>
