<svg xmlns="http://www.w3.org/2000/svg" width="32" height="32" viewBox="0 0 32 32">
    <defs>
        <clipPath id="a">
            <path d="M0 24h24V0H0z"/>
        </clipPath>
    </defs>
    <g clip-path="url(#a)" transform="matrix(1.33333 0 0 -1.33333 0 32)">
        <path fill="#b45000" d="M22.999 12.407v.002c-.061 4.178-5.056 7.226-10.999 7.237-1.528 0-2.977-.21-4.3-.579-.444.444-.839.838-.91.912-.164.173-.491.416-.931.408a1.473 1.473 0 0 1-.456-.07c-.609-.184-2.841-1.373-3.203-1.546-.389-.173-.637-.557-.625-.908a.945.945 0 0 1 .272-.663l.885-.887C1.658 15.21 1 13.868 1 12.41c.004-.287.036-.566.086-.842.023-.138.066-.277.1-.418.023-.088.039-.178.066-.265.531-1.883 1.853-3.85 3.234-4.815 1.749-1.51 4.462-2.45 7.515-2.455 1.986.002 3.814.414 5.34 1.107a1.24 1.24 0 0 1 .783-.29h.016c.144 0 .29.023.445.064.625.19 2.854 1.377 3.217 1.55.389.174.635.561.624.91a.944.944 0 0 1-.274.665l-.627.63c.61.932 1.102 1.985 1.331 3.001.084.345.132.701.139 1.065 0 .03.005.062.005.091z"/>
        <path fill="#ff8c00" d="M19.182 16.785C17.37 17.95 14.822 18.69 12 18.688c-1.541 0-2.996-.224-4.3-.616l-.274-.083-1.314 1.314c-.11.102-.132.122-.252.128a.626.626 0 0 1-.187-.03c-.34-.088-3.123-1.53-3.134-1.54l1.57-1.57-.372-.339c-1.143-1.04-1.78-2.255-1.78-3.544a3.53 3.53 0 0 1 .058-.654c.017-.1.045-.196.07-.293.022-.098.045-.197.075-.297.383-1.178 1.307-2.263 2.66-3.134C6.63 6.865 9.18 6.126 12 6.126c1.542 0 2.998.227 4.302.618l.272.084 1.316-1.315c.11-.1.128-.12.25-.126.04 0 .106.006.189.03.339.087 3.124 1.528 3.134 1.54l-1.57 1.571.372.335c.839.762 1.4 1.621 1.643 2.532.007.031.017.061.024.09.007.025.009.05.014.075a3.72 3.72 0 0 1 .098.848c.002 1.65-1.046 3.207-2.862 4.377"/>
        <path fill="#595959" d="M20.943 12.407c0 .018-.007.036-.008.054-.036 2.03-2.084 3.774-5.042 4.606l-1.954 1.127a.334.334 0 0 1-.335 0l-1.069-.617c-.175.007-.35.012-.53.012h-.011c-4.845-.002-8.78-2.24-8.918-5.032a3.751 3.751 0 0 1 0-.3c.138-2.79 4.076-5.032 8.925-5.032 4.862 0 8.81 2.252 8.928 5.054.003.043.013.085.014.128"/>
        <path fill="#e6e6e6" d="M20.04 13.352c.149-.324.24-.644.233-.945.003-.305-.082-.627-.233-.952zM16.855 12.145l-2.181 1.26 2.18 1.259 2.182-1.26z"/>
        <path fill="#e6e6e6" d="M19.368 12.823v-1.56l-2.515-1.456-1.466.85a2.576 2.576 0 0 1-1.047.796v1.372l2.347-1.356a.332.332 0 0 1 .336 0zM16.288 15.11l-2.45-1.416a.328.328 0 0 1-.168-.289v-.686l-2.415 1.397v1.563l2.35-1.357a.329.329 0 0 1 .334 0l2.348 1.355zM11.36 16.9l-.608-.352a.334.334 0 0 1-.167-.289v-.095c-.554.234-1.215.321-1.9.323-.044 0-.088-.006-.13-.006.85.228 1.792.372 2.804.418M5.753 15.26c.772.325 1.906.56 2.932.558.769.004 1.46-.142 1.9-.412v-.458a6.848 6.848 0 0 1-1.755.239 7.56 7.56 0 0 1-4.825-1.733c.317.624.909 1.255 1.748 1.807"/>
        <path fill="#e6e6e6" d="M3.917 11.55a2.239 2.239 0 0 0-.178.73c1.509 1.653 3.442 2.235 5.091 2.235.658 0 1.249-.104 1.755-.254v-.34c0-.08.036-.15.086-.21-.464.07-.924.118-1.371.118-2.277-.002-4.283-.87-5.383-2.278"/>
        <path fill="#e6e6e6" d="M5.443 9.763a5.248 5.248 0 0 0-1.165 1.146c.871 1.323 2.776 2.256 5.021 2.252 1.19 0 2.47-.257 3.728-.843l.577-.333c.02-.012.044-.011.066-.018v-.306a3.749 3.749 0 0 1-.793.092c-.77-.001-1.488-.222-2.014-.6-.35.926-1.474 1.548-2.759 1.548-1.539 0-2.865-.883-2.885-2.125a1.74 1.74 0 0 1 .224-.813M8.158 8.454c.75.012 1.444.23 1.958.596.177-.469.552-.856 1.05-1.125-1.1.064-2.109.254-3.008.53M18.032 9.411c-.81-.492-1.82-.898-2.979-1.168.424.363.698.836.707 1.385 0 .015-.006.027-.007.043l.935-.539a.311.311 0 0 1 .165-.045c.06 0 .117.015.17.045l2.368 1.37a6.265 6.265 0 0 0-1.359-1.09M17.023 15.34c-.02.013-.044.01-.066.019v.592c1.372-.598 2.36-1.413 2.88-2.237zM13.773 17.52l2.18-1.261-2.18-1.26-2.184 1.26z"/>
        <path fill="#b45000" d="M12.877 11.753c-.782 0-1.489-.231-2.008-.604-.342.893-1.443 1.55-2.765 1.55-1.593 0-2.884-.951-2.884-2.124 0-.302.089-.59.244-.85.73-.52 1.656-.956 2.718-1.268.751.015 1.429.238 1.931.598.17-.445.526-.826 1.008-1.101a13.964 13.964 0 0 1 3.95.31c.425.37.691.842.691 1.364 0 1.173-1.291 2.125-2.885 2.125"/>
        <path fill="#e6e6e6" d="M6.542 10.992a.297.297 0 0 0 .194.561l1.236-.426 1.003.806a.293.293 0 0 0 .416-.045.299.299 0 0 0-.044-.417l-.713-.573.896-.308a.296.296 0 1 0-.192-.56l-1.25.43-1.042-.837a.292.292 0 0 0-.185-.068.294.294 0 0 0-.23.113.292.292 0 0 0 .044.414l.752.605zm4.774-.948a.295.295 0 0 0-.183.376.297.297 0 0 0 .377.184l1.236-.425 1.003.806a.293.293 0 0 0 .415-.045.3.3 0 0 0-.042-.418l-.713-.572.895-.309a.294.294 0 0 0 .186-.375.298.298 0 0 0-.377-.184l-1.25.43-1.043-.837a.288.288 0 0 0-.414.045.294.294 0 0 0 .043.414l.753.605z"/>
    </g>
</svg>
