<svg xmlns="http://www.w3.org/2000/svg" width="32" height="32" viewBox="0 0 32 32">
    <defs>
        <clipPath id="a">
            <path d="M0 24h24V0H0z"/>
        </clipPath>
    </defs>
    <g clip-path="url(#a)" transform="matrix(1.33333 0 0 -1.33333 0 32)">
        <path fill="#00f" d="M21.615 18.68s-.829.43-1.993-.902c0 0-.565-.446-1.399-1.557-.187 1.723-1.162 3.507-2.784 4.088-.359.738-1.5 2.648-3.928 2.69-2.429-.042-3.57-1.952-3.93-2.69-1.729-.618-2.736-2.601-2.827-4.42-.574-.48-1.82-1.793-1.825-4.113 0-.042.008-.092.01-.135h-.905l.182-.757c.677-2.701 3.604-4.71 7.495-5.246V3.98l-2.7-1.54V1h8.998v1.443L13.305 3.98v1.657c3.892.535 6.823 2.545 7.497 5.248l.181.755h-.905c.001.044.01.094.01.137-.003 1.33-.415 2.318-.872 3.018.948 1.054 1.91 1.894 2.107 2.07 0 0 1.225.988.292 1.815"/>
        <path fill="#e6e6e6" d="M18.385 13.797c.264-.505.474-1.168.475-2.02 0-.043-.007-.091-.01-.136h-1.798c.277.546.738 1.373 1.333 2.156M17.323 15.065l-.295.186.011.347v.107c.008.398-.07.813-.2 1.215-.456-1.042-1.117-1.738-1.972-1.789-.55-.02-1.068.175-1.377.567-.31.375-.52.827-.946 1.523a3.418 3.418 0 0 1-.429.593l-.015-.04c-.065-.165-.092-.346-.092-.344-.114-1.084-.285-1.96-.595-2.63-.288-.653-.839-1.175-1.565-1.175h-.017c-1.158.103-1.637 1.197-2.335 2.995-.004 0-.034.084-.09.171-.064.094-.156.19-.275.162-.103.002-.3-.039-.589-.226l-.502-.352a3.282 3.282 0 0 1-.064-.67v-.053l.042-.383-.323-.205c.002-.004-.067-.04-.208-.166a3.633 3.633 0 0 1-.538-.588c-.394-.54-.79-1.35-.793-2.535 0-.043.008-.09.01-.135h11.456a26.005 26.005 0 0 0 1.773 3.371l-.072.053"/>
        <path fill="red" d="M8.45 16.923c.313-.864.608-1.491.867-1.862.27-.384.438-.44.514-.436.255.01.428.107.677.599.228.48.403 1.282.508 2.324.002.02.037.284.15.586.114.268.317.755.945.794h.041l.037-.005c.218-.042.631-.23 1.211-1.184.436-.723.677-1.194.852-1.392.176-.175.175-.194.615-.216.156-.047.888.477 1.218 1.608l.13.439c-.314.423-.716.754-1.205.93l-.489.175-.226.465c-.356.725-1.192 1.949-2.763 1.978-1.614-.03-2.45-1.251-2.806-1.978l-.227-.463-.488-.175c-.57-.206-1.048-.682-1.395-1.25.176.059.35.094.515.094 1.092-.05 1.318-1.05 1.318-1.031"/>
        <path fill="#009bff" d="M19.338 10.413c-.87-1.757-3.327-3.297-6.705-3.618l-.554-.055V3.267l1.825-1.04h-4.79l1.825 1.04V6.74l-.554.055c-3.375.321-5.836 1.86-6.703 3.618z"/>
    </g>
</svg>
