<svg xmlns="http://www.w3.org/2000/svg" width="32" height="32" viewBox="0 0 32 32">
    <defs>
        <clipPath id="a">
            <path d="M0 24h24V0H0z"/>
        </clipPath>
    </defs>
    <g clip-path="url(#a)" transform="matrix(1.33333 0 0 -1.33333 0 32)">
        <path fill="#a000a0" d="M19.67 19.665c-2.141 2.136-4.734 3.326-7.017 3.335-1.292.002-2.51-.401-3.39-1.29C2.298 15.437.992 9.031 1 5.256c0-2.105.396-3.401.409-3.445l.095-.308.31-.098C1.86 1.391 3.154 1 5.257 1h.034c3.779 0 10.167 1.315 16.447 8.283.864.862 1.267 2.078 1.263 3.37-.01 2.283-1.2 4.873-3.33 7.012"/>
        <path fill="#ff8c00" d="M20.847 10.13l-.004-.004c-.614-.611-1.472-.921-2.52-.923-1.846-.008-4.208 1.026-6.146 2.97-1.95 1.942-2.98 4.305-2.976 6.148.005 1.045.314 1.9.919 2.509.635.63 1.489.939 2.534.943 1.843.007 4.206-1.027 6.148-2.976 1.943-1.938 2.979-4.298 2.97-6.144-.001-1.051-.313-1.91-.925-2.523M8.154 2.491c-1.465.466-2.906 1.375-4.107 2.693l.908.828c1.118-1.232 2.46-2.054 3.762-2.424L8.418 2.54c-.089-.018-.176-.032-.264-.048M12.244 5.385l-.216-1.21c-1.67.296-3.384 1.174-4.823 2.582l.857.877c1.272-1.244 2.78-2.004 4.182-2.25M9.792 9.16l.865.87c1.58-1.585 3.541-2.403 5.198-2.398.011 0 .051.002.113-.003l-.06-1.226h-.053c-2.048.005-4.275.971-6.063 2.756"/>
    </g>
</svg>
