<svg xmlns="http://www.w3.org/2000/svg" width="32" height="32" viewBox="0 0 32 32">
    <defs>
        <clipPath id="a">
            <path d="M0 24h24V0H0z"/>
        </clipPath>
    </defs>
    <g clip-path="url(#a)" transform="matrix(1.33333 0 0 -1.33333 0 32)">
        <path fill="#ff8c00" d="M19.245 12.11c0 .468-.049.925-.126 1.371L23 17.363l-1.209 1.21-3.234-3.237a7.956 7.956 0 0 1-7.269 4.728 7.953 7.953 0 0 1-7.954-7.955c0-.268.016-.53.043-.789H1c.855-1.59 2.185-2.949 3.844-3.94l.554-.3a12.445 12.445 0 0 1 4.51-1.356h.164c.065-.195.104-.418.104-.547 0-1.224-.049-1.69-1.119-2.445 0 0-2.786-.775-2.786-1.732h10.071c0 .957-2.784 1.732-2.784 1.732-1.07.754-1.119 1.221-1.119 2.445 0 .13.041.352.11.55h.174c1.623.173 3.134.64 4.468 1.34l.565.304c1.664.99 3.002 2.353 3.86 3.95H19.2c.027.258.044.52.044.788"/>
        <path fill="#e6e6e6" d="M4.633 12.11a6.663 6.663 0 0 0 6.655 6.654 6.666 6.666 0 0 0 6.658-6.655 6.44 6.44 0 0 0-.054-.789H4.687a6.44 6.44 0 0 0-.054.79"/>
    </g>
</svg>
