<svg xmlns="http://www.w3.org/2000/svg" width="32" height="32" viewBox="0 0 32 32">
    <defs>
        <clipPath id="a">
            <path d="M0 24h24V0H0z"/>
        </clipPath>
    </defs>
    <g clip-path="url(#a)" transform="matrix(1.33333 0 0 -1.33333 0 32)">
        <path fill="#ff8c00" d="M21.674 12.93a2.503 2.503 0 0 1-1.251 3.847 2.49 2.49 0 0 1-.589 2.191 2.495 2.495 0 0 1-2.117.816 2.499 2.499 0 0 1-2.445 1.978c-.444 0-.873-.118-1.25-.335a2.51 2.51 0 0 1-2.023 1.03 2.503 2.503 0 0 1-2.021-1.031 2.526 2.526 0 0 1-1.251.336 2.505 2.505 0 0 1-2.445-1.978 2.497 2.497 0 0 1-2.12-.818 2.495 2.495 0 0 1-.586-2.19 2.493 2.493 0 0 1-1.603-1.608 2.449 2.449 0 0 1-.124-.771 2.524 2.524 0 0 1 .477-1.47 2.496 2.496 0 0 1-.81-2.131 2.482 2.482 0 0 1 1.233-1.89 2.521 2.521 0 0 1-.217-1.02 2.502 2.502 0 0 1 2.24-2.482 2.5 2.5 0 0 1 3.274-2.376 2.503 2.503 0 0 1 2.283-1.485c.63.002 1.22.24 1.672.645a2.497 2.497 0 0 1 3.956.84 2.503 2.503 0 0 1 3.272 2.379 2.502 2.502 0 0 1 1.903 1.232 2.508 2.508 0 0 1 .118 2.268 2.494 2.494 0 0 1 1.25 2.169 2.507 2.507 0 0 1-.826 1.854"/>
        <path fill="#e6e6e6" d="M6.823 11.124a.875.875 0 1 0 0 1.75.875.875 0 0 0 0-1.75M8.547 7.337a.876.876 0 1 0 0 0M8.547 14.91a.875.875 0 1 0 0 1.75.875.875 0 0 0 0-1.75M10.274 11.124a.875.875 0 1 0 .001 1.75.875.875 0 0 0 0-1.75M12.001 7.337A.874.874 0 1 0 12 9.085.874.874 0 0 0 12 7.337M12.001 14.91a.876.876 0 1 0 .002 1.753.876.876 0 0 0-.002-1.753M13.727 11.124a.876.876 0 1 0 .005 1.751.876.876 0 0 0-.005-1.751M15.453 7.337a.878.878 0 0 0-.878.876.877.877 0 0 0 1.754 0 .876.876 0 0 0-.876-.876M15.453 14.91a.88.88 0 0 0-.878.876.877.877 0 0 0 1.754 0 .878.878 0 0 0-.876-.876M17.18 11.124a.878.878 0 0 0-.877.875.88.88 0 0 0 .877.876.877.877 0 0 0 0-1.751"/>
    </g>
</svg>
