<svg xmlns="http://www.w3.org/2000/svg" width="32" height="32" viewBox="0 0 32 32">
    <path fill="#b45000" d="M30.667 12.172L19.829 1.335l-8.072 8.072-.465-.467-5.697 3.516 1.314.621-5.576 5.57L13.35 30.666l5.714-5.714.845 1.898 3.112-6.182-.425-.424z"/>
    <path fill="#e6e6e6" d="M20.55 16.089l1.517 1.516 1.928-1.928.634.633-2.562 2.561-2.15-2.15zM18.673 15.48l-2.15-2.149.634-.636 1.515 1.515 1.927-1.927v.002l.636.632zM27.727 11.944l.636.635-2.563 2.56-2.15-2.15.633-.632 1.517 1.515zM24.332 8.55l.003.002.633.633-2.561 2.56-2.151-2.149.635-.632 1.514 1.513zM17.495 5.57l1.516 1.516 1.928-1.93.001.002.633.634-2.56 2.562-2.153-2.152zM13.762 9.303l1.516 1.515 1.928-1.928.002.001.634.632-2.563 2.563-2.15-2.15zM13.346 28.313l-9.66-9.664 4.82-4.816 2.26 1.068 4.642 6.708 2.336.382.593 1.335zM19.999 22.967l-1.102-2.472-2.521-.414-4.495-6.494-2.808-1.326 1.971-1.214 9.95 9.946z"/>
</svg>
