<svg xmlns="http://www.w3.org/2000/svg" width="32" height="32" viewBox="0 0 32 32">
    <defs>
        <clipPath id="a">
            <path d="M0 24h24V0H0z"/>
        </clipPath>
    </defs>
    <g clip-path="url(#a)" transform="matrix(1.33333 0 0 -1.33333 0 32)">
        <path fill="#f0f" d="M21.602 9.908L23 12.001l-1.398 2.091c.112.438.336 1.36.528 2.416l.166.912-.9-.215c-2.288-.539-3.732-1.506-4.482-2.133a5.787 5.787 0 0 1-9.827 0c-.75.627-2.193 1.594-4.478 2.134l-.904.21.166-.91c.192-1.054.418-1.975.53-2.413L1 12l1.4-2.094a36.348 36.348 0 0 1-.53-2.413l-.166-.91.905.212c2.285.54 3.73 1.505 4.478 2.133A5.795 5.795 0 0 1 12 6.2a5.788 5.788 0 0 1 4.913 2.73c.75-.627 2.193-1.593 4.482-2.135l.9-.212-.166.912a36.434 36.434 0 0 1-.528 2.414"/>
        <path fill="#e6e6e6" d="M12.001 16.586a4.56 4.56 0 0 0 2.081-.523L7.938 9.919A4.568 4.568 0 0 0 7.414 12a4.591 4.591 0 0 0 4.587 4.585M3.255 8.234c.2.944.388 1.623.386 1.625l.074.27L2.462 12l1.253 1.875-.074.265c0 .002-.186.681-.387 1.625a9.8 9.8 0 0 0 2.509-1.208 6.86 6.86 0 0 0 .777-.616 5.695 5.695 0 0 1-.308-1.334H4.875v-1.215h1.357c.048-.464.157-.91.309-1.335-.442-.408-1.496-1.243-3.286-1.823M12.001 7.414c-.754.001-1.454.2-2.082.523l6.145 6.145a4.55 4.55 0 0 0 .524-2.08 4.593 4.593 0 0 0-4.587-4.588M20.286 10.127l.073-.268c0-.003.187-.68.388-1.625a9.71 9.71 0 0 0-2.507 1.21 7.09 7.09 0 0 0-.78.616c.151.424.26.87.308 1.333h1.36v1.214h-1.36a5.775 5.775 0 0 1-.307 1.333c.44.41 1.495 1.246 3.286 1.827-.2-.945-.388-1.624-.388-1.625l-.073-.267 1.253-1.874z"/>
    </g>
</svg>
