<svg xmlns="http://www.w3.org/2000/svg" width="32" height="32" viewBox="0 0 32 32">
    <defs>
        <clipPath id="a">
            <path d="M0 24h24V0H0z"/>
        </clipPath>
    </defs>
    <g clip-path="url(#a)" transform="matrix(1.33333 0 0 -1.33333 0 32)">
        <path fill="#b45000" d="M8.05 1.016l-.12.05C3.968 2.733 1.212 7.198 1.191 11.372c-.007 2.928 1.416 5.364 3.596 6.902a2.712 2.712 0 0 0-.86 1.984 2.74 2.74 0 0 0 2.742 2.74h10.604a2.738 2.738 0 0 0 2.738-2.74c0-.78-.327-1.48-.849-1.975 2.187-1.54 3.615-3.977 3.61-6.911-.02-4.174-2.777-8.64-6.74-10.306l-.119-.05z"/>
        <path fill="#fff" d="M3.873 14.393c.933-.045 1.806-.458 1.593-1.672-.291-1.674.123-2.398 1.16-2.422 1.042-.023 1.384 1.026 1.289 2.152-.074.866.346 2.176 1.187 2.67.84.495 2.496.52 3.312-.396.815-.913.737-2.521.655-3.311-.217-2.112.779-2.657 1.576-2.657s1.715.282 1.539 2.396c-.186 2.224.457 3.277 1.372 3.35.344.029 1.01-.196 1.409-.716.503-.655.955-1.51 1.959-1.388.082.01.253.049.45.135-.358 2.282-1.747 4.074-3.756 5.178l-1.31.716 1.415.472c.576.193.99.724.99 1.358a1.444 1.444 0 0 1-1.44 1.44H6.67a1.443 1.443 0 0 1-1.441-1.44c0-.637.416-1.171.999-1.36l1.437-.466-1.326-.725c-1.438-.791-2.557-1.936-3.21-3.36.329.055.604.054.745.046"/>
        <path fill="#ffbe00" d="M3.873 14.393c.933-.045 1.806-.458 1.593-1.672-.291-1.674.123-2.398 1.16-2.422 1.042-.023 1.384 1.026 1.289 2.152-.074.866.346 2.176 1.187 2.67.84.495 2.496.52 3.312-.396.815-.913.737-2.521.655-3.311-.217-2.112.779-2.657 1.576-2.657s1.715.282 1.539 2.396c-.186 2.224.457 3.277 1.372 3.35.344.029 1.01-.196 1.409-.716.503-.655.955-1.51 1.959-1.388.082.01.253.049.45.135-.358 2.282-1.747 4.074-3.756 5.178l-1.31.716 1.415.472c.576.193.99.724.99 1.358a1.444 1.444 0 0 1-1.44 1.44H6.67a1.443 1.443 0 0 1-1.441-1.44c0-.637.416-1.171.999-1.36l1.437-.466-1.326-.725c-1.438-.791-2.557-1.936-3.21-3.36.329.055.604.054.745.046"/>
    </g>
</svg>
