<svg xmlns="http://www.w3.org/2000/svg" width="32" height="32" viewBox="0 0 32 32">
    <defs>
        <clipPath id="a">
            <path d="M0 24h24V0H0z"/>
        </clipPath>
    </defs>
    <g clip-path="url(#a)" transform="matrix(1.33333 0 0 -1.33333 0 32)">
        <path fill="#ff8c00" d="M18.043 16.922c-.043 1.047-.956 1.354-.956 1.354a2.47 2.47 0 0 1-1.796-.233l-.002-.001c-.602-.333-1-.897-1.138-1.52a2.393 2.393 0 0 1-1.19-.654 2.049 2.049 0 0 1-.576-.946 2.246 2.246 0 0 1-1.046-.414 2.28 2.28 0 0 1-.755-.905h-.053c-.377 0-.767-.092-1.121-.296a2.305 2.305 0 0 1-.87-.835c-.093.01-.185.014-.278.015a2.294 2.294 0 0 1-.906-.174 2.435 2.435 0 0 1-.904-.696 2.301 2.301 0 0 1-1.279-.03 2.293 2.293 0 0 1-1.422-1.26 2.317 2.317 0 0 1-2.14-3.143c-.384-.4-.618-.91-.611-1.456 0-.184.023-.37.072-.562.183-.743.786-1.275 1.502-1.433C2.672 2.57 3.7 1.82 4.763 1.819c.322-.001.656.064.975.2.449-.427.999-.664 1.565-.662h.005c.591 0 1.149.26 1.575.704.239-.1.495-.148.742-.147a2.373 2.373 0 0 1 2.035 1.229 2.02 2.02 0 0 1 .154-.006c.941.015 1.776.604 2.017 1.47h.008c.594-.003 1.141.22 1.516.61.346.352.541.826.572 1.328.445.095.903.347 1.246.79.331.408.496.862.495 1.27.407.167.748.474.977.833a2.325 2.325 0 0 1 .404 1.473 2.14 2.14 0 0 1 1.067 1.303c.05.198.077.398.077.594.002.296-.062.592-.189.86.354.407.579.95.58 1.563 0 .149-.015.292-.038.433v.008a1.885 1.885 0 0 1-.505 1.022s-.9.82-1.998.228"/>
        <path fill="red" d="M21.537 21.078l-1.636-2.123.99 2.363-1.456.542-.794-2.436.148 2.675-1.46.544-.242-4.367s.913-.307.956-1.354c1.098.592 1.998-.228 1.998-.228l2.96 3.842z"/>
    </g>
</svg>
