<svg xmlns="http://www.w3.org/2000/svg" width="32" height="32" viewBox="0 0 32 32">
    <defs>
        <clipPath id="a">
            <path d="M0 24h24V0H0z"/>
        </clipPath>
    </defs>
    <g clip-path="url(#a)" transform="matrix(1.33333 0 0 -1.33333 0 32)">
        <path fill="#00f" d="M20.436 2.273c0-.323-.117-.606-.348-.849a1.151 1.151 0 0 0-.865-.364c-.344 0-.631.117-.863.35a1.17 1.17 0 0 0-.348.863v6.09c-.445 0-.951.115-1.515.348-.565.231-.848.52-.848.863v9.09c0 .524.488 1.351 1.469 2.483.98 1.13 1.68 1.696 2.105 1.696.324 0 .608-.076.85-.227.24-.152.363-.389.363-.712zm-7.242 15.723c0-1.273-.348-2.58-1.046-3.924-.696-1.342-1.558-2.458-2.588-3.348v-8.45c0-.324-.128-.607-.38-.85s-.53-.364-.833-.364c-.343 0-.631.121-.863.364a1.191 1.191 0 0 0-.349.85v8.45h.03c-1.07.89-1.949 2.006-2.635 3.348-.688 1.344-1.03 2.651-1.03 3.924v3.635c0 .343.115.632.348.864.232.232.52.348.863.348.303 0 .58-.116.833-.348.253-.232.38-.52.38-.864v-4.24c0-.163.054-.304.166-.425a.565.565 0 0 1 .44-.18c.16 0 .302.06.423.18a.581.581 0 0 1 .182.424v4.241c0 .343.116.632.348.864.232.232.52.348.863.348.304 0 .581-.116.834-.348a1.13 1.13 0 0 0 .38-.864v-4.24c0-.163.055-.304.166-.425a.564.564 0 0 1 .438-.18c.162 0 .304.06.425.18a.581.581 0 0 1 .182.424v4.241c0 .343.116.632.35.864.23.232.517.348.861.348.305 0 .582-.116.834-.348.252-.232.377-.52.377-.864z"/>
    </g>
</svg>
