<svg xmlns="http://www.w3.org/2000/svg" width="32" height="32" viewBox="0 0 32 32">
    <defs>
        <clipPath id="a">
            <path d="M0 24h24V0H0z"/>
        </clipPath>
    </defs>
    <g clip-path="url(#a)" transform="matrix(1.33333 0 0 -1.33333 0 32)">
        <path fill="#f0f" d="M10.54 10.248a2.102 2.102 0 0 0-.575 1.468c0 .595.19 1.095.574 1.498.384.401.894.604 1.523.604.526 0 .998-.203 1.416-.604.42-.403.631-.903.631-1.498 0-.56-.212-1.049-.63-1.468-.419-.418-.89-.63-1.417-.63-.629 0-1.139.212-1.523.63m-6.688 7.38h10.664l-1.489-2.565h-6.9zm16.37 0l-2.274-2.565H14.53l1.49 2.565zm-6.888-9.74l9.708 11.02h-6.28l1.968 3.391-1.125.652-2.346-4.043H1l9.772-11.02V2.279H6.927V1h10.22v1.279h-3.814z"/>
    </g>
</svg>
