<svg xmlns="http://www.w3.org/2000/svg" width="32" height="32" viewBox="0 0 32 32">
    <defs>
        <clipPath id="a">
            <path d="M0 24h24V0H0z"/>
        </clipPath>
    </defs>
    <g clip-path="url(#a)" transform="matrix(1.33333 0 0 -1.33333 0 32)">
        <path fill="#00be3c" d="M15.821 15.136a7.868 7.868 0 0 0 1.715-.52c.492-.22.74-.571.74-1.053V4.787c0-.146-.037-.304-.11-.472a11.45 11.45 0 0 0-.269-.567 3.324 3.324 0 0 0-1.224-1.131c-.485-.252-1.092-.482-1.827-.693-.295-.336-.699-.57-1.212-.707a6.252 6.252 0 0 0-1.619-.205c-.608 0-1.17.068-1.682.205-.515.137-.908.37-1.18.707-.755.19-1.369.414-1.84.678a3.236 3.236 0 0 0-1.18 1.146c-.147.19-.25.367-.315.535a1.427 1.427 0 0 0-.095.504v8.776c0 .336.121.603.363.802.241.199.554.34.927.457.671.209 1.453.367 2.344.472.891.104 1.81.156 2.752.156.902 0 1.79-.052 2.66-.156.621-.075.665-.075 1.052-.158m.945-1.573c-.547.25-1.285.42-2.219.504-.933.084-1.86.125-2.785.125a22.64 22.64 0 0 1-2.484-.141c-.859-.095-1.54-.257-2.045-.488.546-.21 1.29-.367 2.234-.471a24.768 24.768 0 0 1 2.737-.158c.775 0 1.594.053 2.453.158.861.104 1.562.262 2.11.47m.25-8.743v7.517c-.649-.23-1.41-.398-2.28-.504a22.632 22.632 0 0 0-2.659-.156c-.944 0-1.86.053-2.752.156-.892.106-1.673.264-2.344.473V4.85c.063-.147.156-.315.283-.504.125-.188.252-.346.377-.471.4-.336 1.033-.582 1.904-.74.87-.158 1.693-.234 2.47-.234.733 0 1.53.076 2.39.234.858.158 1.511.404 1.95.74.063.063.19.219.38.47.187.253.28.41.28.474M8.17 17.768c-.008-.382-.144-.55-.442-.894-.147-.17-.352-.396-.515-.688h1.636c.29.348.627.858.62 1.582.01.863-.502 1.414-.804 1.728-.321.355-.444.475-.454.876.01.365.12.462.454.828.317.32.822.906.806 1.802h-1.3c-.016-.45-.141-.561-.456-.912-.295-.306-.817-.853-.805-1.718-.012-.876.495-1.443.803-1.762.33-.363.447-.476.457-.842M11.98 17.768c-.009-.382-.145-.55-.443-.894-.147-.17-.352-.396-.515-.688h1.636c.29.348.627.858.62 1.582.01.863-.502 1.414-.804 1.728-.32.355-.444.475-.454.876.01.365.121.462.454.828.317.32.821.906.806 1.802h-1.299c-.017-.45-.142-.561-.457-.912-.295-.306-.817-.853-.805-1.718-.012-.876.495-1.443.803-1.762.33-.363.447-.476.457-.842M15.79 17.768c-.01-.382-.145-.55-.443-.894-.147-.17-.352-.396-.515-.688h1.636c.291.348.627.858.62 1.582.01.863-.5 1.414-.804 1.728-.32.355-.443.475-.454.876.011.365.121.462.454.828.317.32.821.906.806 1.802h-1.299c-.017-.45-.142-.561-.456-.912-.297-.306-.818-.853-.806-1.718-.012-.876.495-1.443.804-1.762.328-.363.445-.476.456-.842"/>
    </g>
</svg>
