<svg xmlns="http://www.w3.org/2000/svg" width="32" height="32" viewBox="0 0 32 32">
    <defs>
        <clipPath id="a">
            <path d="M0 24h24V0H0z"/>
        </clipPath>
    </defs>
    <g clip-path="url(#a)" transform="matrix(1.33333 0 0 -1.33333 0 32)">
        <path fill="#ff8c00" d="M21.946 14.842c.124.292.313.833.316 1.488.023.785-.362 1.806-1.462 2.354-.534.272-1.155.353-1.835.356-1.37-.003-2.998-.364-4.376-.81a14.412 14.412 0 0 1-1.806-.71 7.313 7.313 0 0 1-.608-.338c-.835.598-1.847.497-2.646.845-1.439.524-3.044 1.277-4.52 1.293-.359 0-.715-.05-1.056-.177-1.665-.62-1.992-2.233-1.975-3.216 0-.452.056-.81.093-1.01l-1.07-4.007V1h6.99l.181.279c.098.145.195.33.254.549l2.57 9.597c.09-.025.18-.051.293-.056h.033c.633.05 1.117.39 1.468.854l2.783-10.395a1.85 1.85 0 0 1 .252-.55l.182-.277H23v9.913z"/>
        <path fill="#e6e6e6" d="M18.39 2.228c-.13.021-.257.033-.395.08-.083.026-.168.05-.252.088-.53.233-1.026.759-1.227 1.55-.105.387-.632 2.357-.632 2.357l1.114.3c0-.002.422-1.578.633-2.358a.115.115 0 0 1 .01-.03c.146-.485.348-.651.585-.77.035-.017.075-.027.114-.041.106-.036.223-.06.343-.071.13-.012.262-.012.384-.002v-.002a.575.575 0 0 0 .612-.538.572.572 0 0 0-.36-.562zM15.668 7.081l-.299 1.122 1.123.301.303-1.12zM12.7 16.045c.473.5 4.123 1.812 6.265 1.767.57.004 1.03-.086 1.268-.217.68-.372.78-.772.803-1.265 0-.29-.07-.591-.146-.811v-.003c-.459-.03-1.23-.192-1.583-1.043-.35-1.002-.218-2.617-.342-2.9-.205-.516-.153-.47-.408-.518l-.045-.002c-.202.008-.29.082-.467.429-.04.057-.175.69-.336 1.238-.215.508-.283 1.266-1.274 1.417a.794.794 0 0 1-.21-.03c-.498-.101-1.972-.578-2.86-.572a1.27 1.27 0 0 0-.33.03c-.068.019-.104.037-.107.033-.286.247-.556.79-.55 1.37 0 .353.09.719.31 1.072l.011.005M4.321 2.79c.021.319.296.56.612.538.122-.008.254-.008.386.005.121.011.235.034.341.07.04.015.08.025.114.042.237.118.44.284.586.771l.01.028.632 2.357 1.114-.297s-.526-1.97-.632-2.359c-.2-.791-.698-1.319-1.226-1.55-.084-.038-.169-.061-.253-.087-.139-.046-.268-.06-.399-.081h-.925a.573.573 0 0 0-.36.563M7.508 8.504l1.125-.301-.301-1.122-1.124.3zM11.33 12.599l-.04.036c-.183.162-.67.66-1.509.742-.04.004-.096.01-.164.01-.868-.041-1.307-.641-1.716-1.04-.396-.45-.767-.7-.829-.658a.181.181 0 0 0-.049.006c-.066-.03-.309.292-.505.966-.223.625-.362 1.437-1.093 1.978-.743.493-1.653.707-2.194.8a4.573 4.573 0 0 0-.025.488c.018.827.206 1.71 1.176 2.065.173.066.38.099.628.099 1.033.015 2.621-.658 4.093-1.216 1.048-.34 1.897-.422 2.311-.631a3.227 3.227 0 0 1-.266-1.275 3.152 3.152 0 0 1 .692-1.976c-.172-.241-.366-.37-.51-.394"/>
    </g>
</svg>
