<svg xmlns="http://www.w3.org/2000/svg" width="32" height="32" viewBox="0 0 32 32">
    <defs>
        <clipPath id="a">
            <path d="M0 24h24V0H0z"/>
        </clipPath>
    </defs>
    <g clip-path="url(#a)" transform="matrix(1.33333 0 0 -1.33333 0 32)">
        <path fill="red" d="M2.637 18.134a3.644 3.644 0 0 0 3.64 3.639 3.631 3.631 0 0 0 3.585-3.137H6.425l-.172-.33c-.012-.03-.757-1.462-1.293-3.552a3.636 3.636 0 0 0-2.323 3.38m11.534-.724l-1.38-2.972H9.403a4.832 4.832 0 0 1 1.665 2.972h1.01zm-.778-10.08c-.695 0-1.26.566-1.26 1.26a1.26 1.26 0 1 0 1.26-1.26m1.605 4.126a1.26 1.26 0 1 0 2.52 0 1.26 1.26 0 0 0-2.52 0m-8.721 3.042c-.038 0-.074.01-.112.01.107.407.219.792.333 1.138.265.802.527 1.414.688 1.764h2.652a3.64 3.64 0 0 0-3.561-2.912m10.7 2.912a17.676 17.676 0 0 0 1.034-2.972h-3.867l1.38 2.972zm.759 1.226h-1.644l.89 1.919 5.609 1.212-.26 1.2h-.001l-6.202-1.34-1.388-2.991h-3.651C10.835 21.085 8.789 23 6.277 23a4.866 4.866 0 0 1-4.868-4.866c0-2.13 1.378-3.918 3.286-4.576a15.698 15.698 0 0 1-.274-2.815c.017-3.561 3.235-5.76 7.046-5.977V2.23H7.366V1h9.43v1.23h-4.101v2.536c3.81.219 7.028 2.417 7.045 5.977-.007 4.062-1.814 7.516-1.834 7.563z"/>
    </g>
</svg>
