<svg xmlns="http://www.w3.org/2000/svg" width="32" height="32" viewBox="0 0 32 32">
    <defs>
        <clipPath id="a">
            <path d="M0 24h24V0H0z"/>
        </clipPath>
    </defs>
    <g clip-path="url(#a)" transform="matrix(1.33333 0 0 -1.33333 0 32)">
        <path fill="#f0f" d="M6.052 4.16a2.53 2.53 0 0 0-2.527-2.529 2.527 2.527 0 0 0 0 5.052A2.528 2.528 0 0 0 6.052 4.16M1.045 22.323L1.963 8.76h3.09l.904 13.563zM13.254 8.738c-.073 2.561 1.387 4.381 2.824 5.176 1.416.83 2.742 1.231 3.207 1.661.3.295.35.293.39.873.009.382-.251.935-1.112 1.496-.84.54-2.161.943-3.647.937-1.484.006-2.807-.397-3.643-.937-.863-.56-1.034-1.099-1.116-1.496H6.832c.009 1.884 1.188 3.378 2.65 4.3 1.487.943 3.376 1.456 5.434 1.46 2.06-.004 3.947-.517 5.436-1.46 1.465-.922 2.64-2.416 2.648-4.3.016-1.09-.367-2.123-.978-2.833-.608-.717-1.327-1.127-1.971-1.453-1.315-.627-2.43-1.049-2.904-1.615-.318-.373-.55-.764-.57-1.809zM17.457 4.219a2.54 2.54 0 1 0-5.08.001 2.54 2.54 0 0 0 5.08-.001"/>
    </g>
</svg>
