<svg xmlns="http://www.w3.org/2000/svg" width="32" height="32" viewBox="0 0 32 32">
    <defs>
        <clipPath id="a">
            <path d="M0 24h24V0H0z"/>
        </clipPath>
    </defs>
    <g clip-path="url(#a)" transform="matrix(1.33333 0 0 -1.33333 0 32)">
        <path fill="#595959" d="M14.758 3.887a2.758 2.758 0 1 0-5.515 0 2.758 2.758 0 0 0 5.515 0M10.192 8.065c-.066 2.78 1.47 4.59 2.996 5.55 1.511.99 2.951 1.52 3.502 2.056.36.369.442.447.478 1.072.008.414-.274 1.014-1.208 1.623-.912.586-2.348 1.024-3.96 1.018-1.615.006-3.049-.432-3.96-1.019-.935-.609-1.219-1.209-1.209-1.623H3.218c.008 2.045 1.29 3.67 2.88 4.671 1.614 1.023 3.664 1.581 5.901 1.587 2.24-.006 4.288-.564 5.904-1.587 1.591-1.002 2.87-2.626 2.88-4.67.013-1.186-.397-2.3-1.036-3.082-.634-.794-1.392-1.284-2.087-1.683-1.412-.769-2.639-1.31-3.202-2.01-.374-.463-.634-.769-.653-1.904z"/>
    </g>
</svg>
