<svg xmlns="http://www.w3.org/2000/svg" width="32" height="32" viewBox="0 0 32 32">
    <defs>
        <clipPath id="a">
            <path d="M0 24h24V0H0z"/>
        </clipPath>
    </defs>
    <g clip-path="url(#a)" transform="matrix(1.33333 0 0 -1.33333 0 32)">
        <path fill="red" d="M17.594 10.334a.65.65 0 0 0-.491 1.076c1.457 1.653 2.52 3.408 2.495 4.668 0 .919-.243 1.619-.605 2.135a.648.648 0 0 0 .159.905.648.648 0 0 0 .904-.157c.529-.75.844-1.731.842-2.883-.024-1.909-1.31-3.767-2.814-5.521a.644.644 0 0 0-.49-.223M15.92 8.332a.75.75 0 1 0 0 1.5.75.75 0 0 0 0-1.5M12 19.376c-3.465 4.784-10.227 2.64-10.227-3.299C1.773 10.139 12 4.09 12 2c0 2.09 10.227 8.139 10.227 14.077 0 5.939-6.763 8.083-10.227 3.299"/>
    </g>
</svg>
