<svg xmlns="http://www.w3.org/2000/svg" width="32" height="32" viewBox="0 0 32 32">
    <defs>
        <clipPath id="a">
            <path d="M0 24h24V0H0z"/>
        </clipPath>
    </defs>
    <g clip-path="url(#a)" transform="matrix(1.33333 0 0 -1.33333 0 32)">
        <path fill="red" d="M11.762 15.4c-2.365 3.27-6.99 1.803-6.99-2.254 0-4.059 6.99-8.19 6.99-9.62 0 1.43 6.992 5.561 6.992 9.62 0 4.057-4.623 5.524-6.992 2.253M17.738 21.287h.002v-.002zm2.017-1.529a8.835 8.835 0 0 1-2.015 1.528l.615 1.146a10.234 10.234 0 0 0 2.321-1.754 10.173 10.173 0 0 0 1.75-2.312l-1.146-.615a8.798 8.798 0 0 1-1.525 2.007M18.006 18.007a8.72 8.72 0 0 1-2.017 1.53l.616 1.145a10.181 10.181 0 0 0 2.32-1.755 10.11 10.11 0 0 0 1.75-2.31L19.529 16a8.753 8.753 0 0 1-1.523 2.006M1.57 5.646v-.002zm1.753-2.32A10.099 10.099 0 0 0 1.57 5.644l1.144.617a8.763 8.763 0 0 1 1.53-2.017A8.886 8.886 0 0 1 6.25 2.719l-.618-1.142c-.78.422-1.572 1.01-2.309 1.749M5.074 5.075a10.072 10.072 0 0 0-1.755 2.32l1.144.617a8.886 8.886 0 0 1 1.529-2.019A8.892 8.892 0 0 1 8 4.47l-.617-1.144a10.13 10.13 0 0 0-2.31 1.75"/>
    </g>
</svg>
