<svg xmlns="http://www.w3.org/2000/svg" width="32" height="32" viewBox="0 0 32 32">
    <defs>
        <clipPath id="a">
            <path d="M0 24h24V0H0z"/>
        </clipPath>
    </defs>
    <g clip-path="url(#a)" transform="matrix(1.33333 0 0 -1.33333 0 32)">
        <path fill="red" d="M8.486 12.422c-2.277 3.145-6.723 1.734-6.723-2.168 0-3.904 6.723-7.88 6.723-9.254 0 1.374 6.722 5.35 6.722 9.254 0 3.902-4.445 5.313-6.722 2.168M17.237 21.662c-1.753 2.42-5.175 1.335-5.175-1.668 0-3.006 5.175-6.066 5.175-7.123 0 1.057 5.174 4.117 5.174 7.123 0 3.003-3.422 4.088-5.174 1.668"/>
    </g>
</svg>
