<svg xmlns="http://www.w3.org/2000/svg" width="32" height="32" viewBox="0 0 32 32">
    <defs>
        <clipPath id="a">
            <path d="M0 24h24V0H0z"/>
        </clipPath>
    </defs>
    <g clip-path="url(#a)" transform="matrix(1.33333 0 0 -1.33333 0 32)">
        <path fill="#f0f" d="M19.49 18.412a4.751 4.751 0 0 1-6.705 0A4.684 4.684 0 0 1 12 17.328c-.21.385-.459.754-.785 1.084a4.751 4.751 0 0 1-6.708 0 4.75 4.75 0 0 1 0-6.71L12 4.201l7.491 7.5a4.748 4.748 0 0 1 0 6.71m1.777-6.78h.002L12 2.348l-9.273 9.282a5.877 5.877 0 0 0 0 8.303 5.879 5.879 0 0 0 8.302 0c.402-.407.711-.865.971-1.342.261.481.57.94.972 1.342a5.875 5.875 0 0 0 8.296 0 5.869 5.869 0 0 0 0-8.303"/>
        <path fill="#f0f" d="M16.92 15.969a2.946 2.946 0 0 1-4.165 0 2.918 2.918 0 0 1-.757-1.346 2.909 2.909 0 0 1-.757 1.346 2.946 2.946 0 0 1-4.165-4.164L12 6.875l4.92 4.93a2.945 2.945 0 0 1 0 4.164"/>
    </g>
</svg>
