<svg xmlns="http://www.w3.org/2000/svg" width="32" height="32" viewBox="0 0 32 32">
    <defs>
        <clipPath id="a">
            <path d="M0 24h24V0H0z"/>
        </clipPath>
    </defs>
    <g clip-path="url(#a)" transform="matrix(1.33333 0 0 -1.33333 0 32)">
        <path fill="#595959" d="M5.853 6.715L4.592 5.454 3.58 6.466 1 1l5.464 2.58-1.015 1.016 1.269 1.267c-.137.128-.272.252-.409.386-.152.15-.304.31-.456.466"/>
        <path fill="red" d="M19.374 13.513c-.006 3.207-2.337 5.249-4.868 5.255-.527.002-1.056-.112-1.574-.291l-.007.019v.002c-.089-.03-.175-.073-.262-.11-.07-.027-.14-.054-.209-.085a5.31 5.31 0 0 1-.769-.442c-.068-.047-.134-.1-.2-.15a5.673 5.673 0 0 1-.664-.588c-.024-.023-.051-.04-.074-.064-.023.024-.05.04-.074.064-.211.22-.434.413-.664.588-.066.05-.132.103-.199.15a5.32 5.32 0 0 1-.77.442c-.069.03-.139.058-.209.086-.087.036-.173.079-.262.109v-.002l-.007-.02c-.519.18-1.048.294-1.574.292-2.531-.006-4.862-2.048-4.868-5.255h-.006c.004-.286.042-.57.091-.853.004-.024.003-.05.008-.074a6.47 6.47 0 0 1 .181-.69c.025-.082.042-.166.071-.25.077-.225.175-.447.275-.67.036-.08.068-.161.107-.242a9.95 9.95 0 0 1 .372-.685c.038-.064.072-.13.112-.193.149-.243.309-.483.477-.72l.079-.113a20.85 20.85 0 0 1 1.966-2.308c.152-.156.304-.315.456-.466.137-.133.272-.257.409-.385 1.901-1.788 3.668-3.006 3.684-3.02l.345-.233.345.234c.016.013 1.783 1.23 3.684 3.019.137.128.272.252.41.385.151.15.303.31.455.466a20.735 20.735 0 0 1 1.965 2.308l.08.113c.168.237.328.477.477.72.039.064.074.129.112.193.133.227.26.454.372.685.039.08.071.162.107.242.099.223.197.445.275.67.029.084.046.169.071.252.07.228.138.456.181.688.005.025.004.05.008.074.049.284.087.567.091.853z"/>
        <path fill="#595959" d="M10.528 11.389l.857-.858 3.653 3.652h2.801L23 19.34h-3.662V23l-5.158-5.158V15.04z"/>
        <path fill="#e6e6e6" d="M20.068 18.126l-2.733-2.729h-1.083l2.73 2.729zM15.393 17.342l2.73 2.73v-1.087l-2.73-2.732z"/>
    </g>
</svg>
