<svg xmlns="http://www.w3.org/2000/svg" width="32" height="32" viewBox="0 0 32 32">
    <defs>
        <clipPath id="a">
            <path d="M0 24h24V0H0z"/>
        </clipPath>
    </defs>
    <g clip-path="url(#a)" transform="matrix(1.33333 0 0 -1.33333 0 32)">
        <path fill="#f0f" d="M14.33 21.37a1.48 1.48 0 0 1-2.087 0 1.456 1.456 0 0 1-.243-.337 1.509 1.509 0 0 1-.245.337 1.477 1.477 0 0 1-2.087-2.088L12 16.948l2.332 2.334h-.002a1.476 1.476 0 0 1 0 2.088M7.079 15.894a1.478 1.478 0 0 1-2.087 0 1.46 1.46 0 0 1-.244-.337 1.504 1.504 0 0 1-.244.337 1.477 1.477 0 0 1-2.088-2.088l2.332-2.334 2.332 2.334h-.001a1.476 1.476 0 0 1 0 2.088M9.673 7.036a1.478 1.478 0 0 1-2.087 0 1.447 1.447 0 0 1-.244-.337 1.46 1.46 0 0 1-.244.337A1.478 1.478 0 0 1 5.01 4.948l2.332-2.335 2.332 2.335h-.001a1.476 1.476 0 0 1 0 2.088M18.988 7.036a1.48 1.48 0 0 1-2.088 0 1.41 1.41 0 0 1-.242-.337c-.065.12-.145.235-.244.337a1.477 1.477 0 0 1-2.088-2.088l2.332-2.335 2.33 2.335a1.476 1.476 0 0 1 0 2.088M11.999 3.486a7.288 7.288 0 0 0-2.07.307L8.907 2.768a8.562 8.562 0 0 1 3.092-.583c1.091 0 2.13.212 3.091.583l-1.023 1.024a7.315 7.315 0 0 0-2.068-.306M16.271 16.648c.371.351.826.564 1.297.64a8.583 8.583 0 0 1-2.378 1.44l-1.014-1.016a7.257 7.257 0 0 0 2.095-1.064M19.243 10.063a7.245 7.245 0 0 0-.405-1.765c.312-.12.605-.303.855-.552.087-.086.156-.184.228-.28a8.554 8.554 0 0 1 .66 3.3c0 .2-.017.396-.03.592l-1.3-1.302zM5.159 8.3a7.234 7.234 0 0 0-.405 1.766l-.007-.007-1.3 1.3c-.014-.196-.03-.392-.03-.592 0-1.168.236-2.281.659-3.297.07.093.137.187.22.27.252.255.549.44.863.56M9.822 17.713l-.861.862c-.05.05-.087.108-.131.16a8.568 8.568 0 0 1-2.4-1.447 2.46 2.46 0 0 0 1.297-.64 7.264 7.264 0 0 0 2.095 1.065M21.584 15.893a1.48 1.48 0 0 1-2.089 0 1.478 1.478 0 0 1-.243-.338 1.444 1.444 0 0 1-.244.338 1.478 1.478 0 0 1-2.088-2.088l2.332-2.334 2.332 2.334a1.478 1.478 0 0 1 0 2.088"/>
    </g>
</svg>
