<svg xmlns="http://www.w3.org/2000/svg" width="32" height="32" viewBox="0 0 32 32">
    <defs>
        <clipPath id="a">
            <path d="M0 24h24V0H0z"/>
        </clipPath>
    </defs>
    <g clip-path="url(#a)" transform="matrix(1.33333 0 0 -1.33333 0 32)">
        <path fill="#f0f" d="M18.67 11.338l-6.668-6.68-6.67 6.68a4.228 4.228 0 0 0 0 5.973 4.229 4.229 0 0 0 5.972 0c.289-.293.512-.623.698-.965.19.345.412.675.7.965a4.227 4.227 0 0 0 5.968 0 4.219 4.219 0 0 0 0-5.973M21.348 23H2.65a1.654 1.654 0 0 1-1.653-1.654V2.65C.998 1.738 1.737 1 2.65 1h18.697c.912 0 1.65.738 1.65 1.65v18.696c0 .912-.736 1.654-1.65 1.654"/>
    </g>
</svg>
