<svg xmlns="http://www.w3.org/2000/svg" width="32" height="32" viewBox="0 0 32 32">
    <defs>
        <clipPath id="a">
            <path d="M0 24h24V0H0z"/>
        </clipPath>
    </defs>
    <g clip-path="url(#a)" transform="matrix(1.33333 0 0 -1.33333 0 32)">
        <path fill="#595959" d="M20.943 10.62C18.783 17.741 12 23 12 23s-6.783-5.258-8.944-12.38c-1.546-5.094 4.831-7.407 7.54-3.242-.082-1.156-.239-2.38-.539-3.224C9.32 2.082 8.202 1 8.202 1H15.797s-1.12 1.082-1.856 3.154c-.3.844-.456 2.068-.538 3.224 2.71-4.165 9.086-1.852 7.54 3.241"/>
    </g>
</svg>
