<svg xmlns="http://www.w3.org/2000/svg" width="32" height="32" viewBox="0 0 32 32">
    <defs>
        <clipPath id="a">
            <path d="M0 24h24V0H0z"/>
        </clipPath>
    </defs>
    <g clip-path="url(#a)" transform="matrix(1.33333 0 0 -1.33333 0 32)">
        <path fill="#595959" d="M19.715 14.265c-2.085.759-3.528.227-4.965-.394 1.032 1.104 1.96 2.274 1.96 4.42a4.71 4.71 0 0 1-9.42 0H7.29c0-2.146.928-3.315 1.96-4.42-1.437.622-2.881 1.153-4.966.394a4.708 4.708 0 0 1-2.813-6.04A4.709 4.709 0 0 1 7.506 5.41c1.688.614 2.509 1.604 3.134 2.7-.064-1.343-.22-2.931-.584-3.955C9.319 2.08 8.202 1 8.202 1h7.596s-1.121 1.08-1.857 3.155c-.364 1.025-.52 2.615-.582 3.959.625-1.097 1.446-2.09 3.134-2.704 1.734-.631 3.584-.166 4.839 1.02a4.64 4.64 0 0 1 1.2 1.796 4.712 4.712 0 0 1-2.817 6.039"/>
    </g>
</svg>
