<svg xmlns="http://www.w3.org/2000/svg" width="32" height="32" viewBox="0 0 32 32">
    <defs>
        <clipPath id="a">
            <path d="M0 24h24V0H0z"/>
        </clipPath>
    </defs>
    <g clip-path="url(#a)" transform="matrix(1.33333 0 0 -1.33333 0 32)">
        <path fill="#ff8c00" d="M21.077 3.456H2.922c-.647.051-.672.19-.698.407 0 .114.04.288.166.503l9.081 15.73c.23.388.428.45.527.45.1 0 .3-.062.53-.45l9.077-15.724c.126-.219.164-.395.164-.509-.026-.218-.05-.356-.692-.407m1.59 1.53l-9.076 15.722c-.354.623-.923 1.063-1.593 1.065-.67-.002-1.238-.442-1.592-1.065L1.33 4.986c-.213-.363-.333-.745-.333-1.123a1.54 1.54 0 0 1 .575-1.216c.367-.29.837-.419 1.351-.419h18.155c.513 0 .984.13 1.347.421.366.287.58.75.572 1.214 0 .378-.117.758-.329 1.123"/>
        <path fill="#ff8c00" d="M11.999 6.95a1.164 1.164 0 1 1 0-2.328 1.164 1.164 0 0 1 0 2.328M11.999 16.922a1.164 1.164 0 0 1-1.164-1.166l.427-7.171a.738.738 0 0 1 1.474.014l.426 7.143c0 .659-.52 1.18-1.163 1.18"/>
    </g>
</svg>
