<svg xmlns="http://www.w3.org/2000/svg" width="32" height="32" viewBox="0 0 32 32">
    <defs>
        <clipPath id="a">
            <path d="M0 24h24V0H0z"/>
        </clipPath>
    </defs>
    <g clip-path="url(#a)" transform="matrix(1.33333 0 0 -1.33333 0 32)">
        <path fill="#00f" d="M21.771 5.15a.424.424 0 0 0-.424-.424H2.651a.426.426 0 0 0-.427.424v13.695c0 .237.192.425.427.427h18.697a.426.426 0 0 0 .424-.427zm-.424 15.35H2.651a1.653 1.653 0 0 1-1.653-1.655V5.15c0-.912.74-1.65 1.653-1.65h18.697a1.65 1.65 0 0 1 1.65 1.65v13.695c0 .913-.737 1.654-1.65 1.654"/>
        <path fill="#00f" d="M4.098 7.078v1.3h5.315V15.6H4.098v1.302h6.617V7.078zm0 0v-.002zM12.938 7.077v1.301h5.315V15.6h-5.316V16.9h6.616V7.077z"/>
    </g>
</svg>
