<svg xmlns="http://www.w3.org/2000/svg" width="32" height="32" viewBox="0 0 32 32">
    <defs>
        <clipPath id="a">
            <path d="M0 24h24V0H0z"/>
        </clipPath>
    </defs>
    <g clip-path="url(#a)" transform="matrix(1.33333 0 0 -1.33333 0 32)">
        <path fill="red" d="M2.405 12.001a9.563 9.563 0 0 0 2.34 6.262l1.785-1.787.995.993-1.788 1.786A9.576 9.576 0 0 0 12 21.596a9.603 9.603 0 0 0 9.594-9.595 9.563 9.563 0 0 0-2.34-6.262l-1.88 1.88-.993-.994 1.879-1.879A9.567 9.567 0 0 0 12 2.404a9.607 9.607 0 0 0-9.595 9.597M12 23C5.924 23 1 18.076 1 12.001S5.924 1.002 12 1c6.076.002 10.998 4.926 11 11.001C22.998 18.076 18.076 23 12 23"/>
        <path fill="red" d="M14.027 8.352c-1.773.083-2.025.648-2.1 1.57h.002c.073.92.325 1.484 2.086 1.57H14.041c1.757-.085 2.011-.65 2.086-1.57-.075-.921-.329-1.487-2.1-1.57m0 7.296c1.602-.082 1.787-.562 1.861-1.375-.074-.814-.26-1.295-1.86-1.377-1.602.082-1.789.56-1.863 1.377.076.815.261 1.293 1.862 1.375m3.504-5.726c.004.769-.256 1.562-.877 2.124-.076.07-.17.123-.256.186.022.019.051.033.072.053.582.528.827 1.273.821 1.988.006.715-.239 1.46-.82 1.986-.579.53-1.415.796-2.444.794-1.033.002-1.867-.263-2.446-.794-.58-.526-.825-1.271-.819-1.986-.006-.715.24-1.46.82-1.986.023-.022.052-.036.074-.054-.086-.063-.179-.116-.257-.187-.62-.562-.88-1.355-.876-2.124h.002c-.006-.768.255-1.561.874-2.124.617-.564 1.511-.85 2.628-.848h.012c1.111 0 2 .286 2.615.848.621.563.881 1.356.877 2.124M8.385 16.764L6.22 15.582l.673-1.233 1.308.716V7.239h1.406v9.525z"/>
    </g>
</svg>
