<svg xmlns="http://www.w3.org/2000/svg" width="32" height="32" viewBox="0 0 32 32">
    <defs>
        <clipPath id="a">
            <path d="M0 24h24V0H0z"/>
        </clipPath>
    </defs>
    <path fill="red" d="M1.34 3.073h29.327V1.34H1.34zM17.82 6.316v19.375h1.734v-7.27l2.289-3.33 5.024 10.6 1.93.003-5.82-12.255 4.898-7.127-2.103.004-6.218 9.047V6.316zM1.34 30.667h29.327v-1.734H1.34z"/>
    <g clip-path="url(#a)" transform="matrix(1.33333 0 0 -1.33333 0 32)">
        <path fill="red" d="M4.287 16.427c.45 1.032.956 1.505 2.213 1.548 1.257-.043 1.762-.516 2.213-1.548.422-1.045.54-2.654.532-4.446.007-1.79-.11-3.4-.532-4.444-.45-1.032-.956-1.507-2.213-1.548-1.257.04-1.764.516-2.213 1.548-.422 1.045-.539 2.654-.535 4.444-.004 1.792.113 3.4.535 4.446M6.5 4.687h.058c1.694 0 2.867 1.018 3.363 2.37.536 1.367.621 3.08.625 4.924-.004 1.843-.089 3.559-.625 4.925-.502 1.368-1.696 2.395-3.42 2.37-1.729.025-2.922-1.002-3.424-2.37-.535-1.366-.62-3.082-.625-4.925.004-1.843.09-3.557.625-4.923C3.58 5.69 4.772 4.663 6.5 4.687"/>
    </g>
</svg>
