<svg xmlns="http://www.w3.org/2000/svg" width="32" height="32" viewBox="0 0 32 32">
    <defs>
        <clipPath id="a">
            <path d="M0 24h24V0H0z"/>
        </clipPath>
    </defs>
    <g clip-path="url(#a)" transform="matrix(1.33333 0 0 -1.33333 0 32)">
        <path fill="red" d="M16.36 17.818c.615.01 1.23-.46 1.743-1.537.214-.452.382-1.008.516-1.614h1.345c-.155.798-.379 1.534-.676 2.171-.595 1.283-1.58 2.281-2.928 2.29-1.348-.009-2.334-1.007-2.928-2.29-.607-1.303-.92-3.005-.922-4.86.002-1.85.315-3.553.922-4.855.594-1.284 1.58-2.283 2.928-2.29 1.08.006 1.923.653 2.523 1.57v-1.49h1.3v7.712H16.3v-1.3h2.575c-.067-1.436-.339-2.73-.772-3.647-.514-1.076-1.128-1.547-1.743-1.539-.615-.008-1.229.463-1.743 1.54-.498 1.055-.803 2.6-.8 4.3-.003 1.702.302 3.247.8 4.302.514 1.076 1.128 1.546 1.743 1.537M1.005 21.695H23v1.3H1.005zM9.14 4.914h1.776v14.168h-1.3V7.466L5.546 19.08H3.336V4.937h1.3v12.8zM1.005 1H23v1.3H1.005z"/>
    </g>
</svg>
