<svg xmlns="http://www.w3.org/2000/svg" width="32" height="32" viewBox="0 0 32 32">
    <defs>
        <clipPath id="a">
            <path d="M0 24h24V0H0z"/>
        </clipPath>
    </defs>
    <g clip-path="url(#a)" transform="matrix(1.33333 0 0 -1.33333 0 32)">
        <path fill="red" d="M12 2.405A9.61 9.61 0 0 0 2.402 12a9.607 9.607 0 0 0 9.599 9.594A9.605 9.605 0 0 0 21.596 12 9.607 9.607 0 0 0 12 2.405M12 23C5.923 22.998 1 18.076 1 12 1 5.926 5.923 1 12 1s10.998 4.926 11 11C23 18.076 18.078 22.998 12 23"/>
        <path fill="red" d="M10.085 9.893l.416 1.334a8.321 8.321 0 0 1-1.685 1.04v1.646h1.996v1.3H8.816v2.138c.668.119 1.297.246 1.721.367l-.362 1.247c-1.155-.34-4.782-.816-4.786-.82l.168-1.288c.01.003.899.118 1.959.28v-1.923H5.25v-1.301h2.255a9.35 9.35 0 0 0-2.794-5.125l.893-.95c.75.708 1.391 1.527 1.912 2.423V4.666h1.3v6.137a8.797 8.797 0 0 0 1.269-.91M15.986 16.473c-1.097 1.029-2.38 1.878-2.746 2.088l-.637-1.133c.252-.14 1.77-1.146 2.755-2.154z"/>
        <path fill="red" d="M17.911 13.345l-.967-.497a33.952 33.952 0 0 1 1.686 4.315l-1.24.391c-.72-2.312-1.756-4.734-3.1-6.79v4.788h-1.301V9.02c-.94-1.095-1.998-2-3.175-2.595l.592-1.159c.945.492 1.8 1.133 2.583 1.876v-.184a1.863 1.863 0 0 1 .255-1.016c.23-.409.774-.767 1.453-.767l.051.001h2.79v1.3h-2.79c-.35.018-.336.081-.394.144a.567.567 0 0 0-.068.26l.003.017v1.656c.99 1.22 1.83 2.608 2.537 4.058.266-.534 1.216-2.514 1.536-3.896l1.266.297c-.447 1.877-1.708 4.31-1.717 4.334"/>
        <path fill="red" d="M11.715 9.001l.8 4.844-1.28.212c-.003-.004-.72-4.349-.803-4.84z"/>
    </g>
</svg>
