<svg xmlns="http://www.w3.org/2000/svg" width="32" height="32" viewBox="0 0 32 32">
    <defs>
        <clipPath id="a">
            <path d="M0 24h24V0H0z"/>
        </clipPath>
    </defs>
    <g clip-path="url(#a)" transform="matrix(1.33333 0 0 -1.33333 0 32)">
        <path fill="red" d="M2.3 21.216V2.783c0-.265.219-.482.485-.484H21.2a.485.485 0 0 1 .483.484v18.433a.481.481 0 0 1-.483.483H2.785a.484.484 0 0 1-.484-.483M2.785 1C1.799 1 1.002 1.797 1 2.783v18.433A1.785 1.785 0 0 0 2.785 23H21.2c.985 0 1.784-.798 1.784-1.784V2.783c0-.986-.8-1.783-1.784-1.783z"/>
        <path fill="red" d="M7.866 7.656c-.912-1.134-1.354-1.663-3.045-2.563l.607-1.153c1.81.943 2.553 1.757 3.455 2.905l-1.017.81zM6.727 10.786h10.577v1.3H6.727z"/>
        <path fill="red" d="M5.21 8.02h6.202V5.547a.484.484 0 0 0-.484-.481H9.842V3.763l1.086.002c.986 0 1.782.798 1.784 1.782V8.02h6.163v1.3H5.21zM7.177 12.75h1.3v3.04l2.407-2.406.918.92-2.39 2.39h1.604v1.3H8.478v1.6H7.177v-1.6h-2.88v-1.3H6.24l-2.39-2.39.92-.92 2.406 2.407zM17.758 16.693h1.602v1.3h-2.54v1.6h-1.298v-1.6H12.64v-1.3h1.945l-2.39-2.39.919-.919 2.408 2.407v-3.04h1.299v3.04l2.407-2.407.92.92z"/>
        <path fill="red" d="M14.668 6.807l3.327-2.876.851.983-3.327 2.876z"/>
    </g>
</svg>
