<svg xmlns="http://www.w3.org/2000/svg" width="32" height="32" viewBox="0 0 32 32">
    <defs>
        <clipPath id="a">
            <path d="M0 24h24V0H0z"/>
        </clipPath>
    </defs>
    <g clip-path="url(#a)" transform="matrix(1.33333 0 0 -1.33333 0 32)">
        <path fill="red" d="M21.348 23H2.652a1.654 1.654 0 0 1-1.654-1.653V2.65c0-.911.74-1.65 1.654-1.65h18.696c.912 0 1.65.739 1.65 1.65v18.697a1.65 1.65 0 0 1-1.65 1.652"/>
        <path fill="#e6e6e6" d="M12 17.8a2.05 2.05 0 1 1 0 4.101 2.05 2.05 0 0 1 0-4.1M10.128 17.432a1.09 1.09 0 0 1-1.006-.792l-1.563-5.699 1.254-.343 1.315 4.797v-4.23l-2.24-3.122a.527.527 0 0 1 0-.75.528.528 0 0 1 .377-.156v-.002h2.364V3.23H9.147V2.101h5.707v1.13H13.37v3.904h2.364v.002c.136 0 .273.052.376.156a.527.527 0 0 1 0 .75l-2.237 3.118v4.204l1.308-4.767 1.254.343-1.564 5.7a1.088 1.088 0 0 1-.998.791z"/>
    </g>
</svg>
