<svg xmlns="http://www.w3.org/2000/svg" width="32" height="32" viewBox="0 0 32 32">
    <defs>
        <clipPath id="a">
            <path d="M0 24h24V0H0z"/>
        </clipPath>
    </defs>
    <g clip-path="url(#a)" transform="matrix(1.33333 0 0 -1.33333 0 32)">
        <path fill="#ff8c00" d="M21.35 23H2.654A1.654 1.654 0 0 1 1 21.347V2.65C1 1.738 1.74 1 2.654 1H21.35c.912 0 1.65.738 1.65 1.65v18.697A1.65 1.65 0 0 1 21.35 23"/>
        <path fill="#e6e6e6" d="M12 16.042a2.684 2.684 0 1 1 0 5.368 2.684 2.684 0 0 1 0-5.368"/>
        <path fill="#e6e6e6" d="M18.385 18.757a.99.99 0 0 1-1.402.03l-3.494-3.348h-2.981l-3.491 3.349a.99.99 0 0 1-1.402-.031.991.991 0 0 1 .029-1.402l3.358-3.221v-3.916h5.996v3.917l3.359 3.219a.992.992 0 0 1 .028 1.403M9.883 5.422l1.564 1.564-2.204 2.206-2.116-2.116a.853.853 0 0 1-.03-1.203l2.887-3.017a.848.848 0 0 1 1.202-.032c.34.325.354.864.029 1.204zM14.757 9.191l-2.205-2.205 1.563-1.565-1.332-1.393A.853.853 0 0 1 13.4 2.59a.84.84 0 0 1 .617.266l2.884 3.018a.852.852 0 0 1-.03 1.203z"/>
    </g>
</svg>
