<svg xmlns="http://www.w3.org/2000/svg" width="32" height="32" viewBox="0 0 32 32">
    <defs>
        <clipPath id="a">
            <path d="M0 24h24V0H0z"/>
        </clipPath>
    </defs>
    <path fill="red" d="M1.34 1.34h29.327v1.733H1.34zM1.34 28.933h29.327v1.734H1.34z"/>
    <g clip-path="url(#a)" transform="matrix(1.33333 0 0 -1.33333 0 32)">
        <path fill="red" d="M6.23 5.195c-.799-.008-1.769.21-2.472 1.023-.693.811-1.056 2.043-1.058 3.901-.003 1.771 0 9.475 0 9.475h1.417l-.002-9.475c-.002-1.684.349-2.559.714-2.97.362-.409.803-.53 1.402-.538.599.008 1.04.127 1.399.537.368.412.717 1.287.715 2.971v9.475H9.76L9.76 10.12c0-1.858-.364-3.09-1.06-3.9-.69-.799-1.637-1.026-2.43-1.026-.012 0-.025 0-.04.002M14.458 13.172c1.553.016 2.112 1.119 2.167 2.502-.055 1.383-.614 2.488-2.167 2.504h-2.019v-5.006zm-3.434-7.98v14.402s1.413.002 3.434.002c1.201.01 2.175-.52 2.756-1.288.587-.766.826-1.716.826-2.634 0-.92-.239-1.87-.826-2.635-.581-.767-1.555-1.293-2.756-1.283h-2.019V5.193zM18.977 19.595h1.415V8.793h-1.415zM20.594 6.146c0-.57-.407-1.033-.91-1.033-.5 0-.906.463-.906 1.033 0 .568.407 1.031.907 1.031.502 0 .909-.463.909-1.03"/>
    </g>
</svg>
