<svg xmlns="http://www.w3.org/2000/svg" width="32" height="32" viewBox="0 0 32 32">
    <defs>
        <clipPath id="a">
            <path d="M0 24h24V0H0z"/>
        </clipPath>
    </defs>
    <path fill="#00f" d="M1.333 30.667h29.334V20.58L1.333 25.752zM1.333 1.333V11.42l29.334-5.172V1.333z"/>
    <g clip-path="url(#a)" transform="matrix(1.33333 0 0 -1.33333 0 32)">
        <path fill="#00f" d="M10.749 11.645c-.267-2.347-1.187-2.733-1.826-2.791h-.062c-.638.002-1.146.476-1.199 2.246 0 .15.006.304.016.463.126 1.756.935 2.721 1.784 2.721h.041c.049 0 .09-.003.125-.007.607-.06 1.113-.565 1.148-2.064 0-.178-.008-.367-.027-.569m1.327.568c.037 1.777-.825 3.217-2.312 3.356a2.154 2.154 0 0 1-.261.015c-1.895-.033-3.007-1.852-3.121-3.933a7.398 7.398 0 0 1-.02-.55c.002-1.017.185-1.858.603-2.506a2.209 2.209 0 0 1 1.862-1.04H8.972c1.372.036 2.857 1.267 3.071 3.966v.003c.022.239.033.468.033.69M16.998 12.832h-.001c-.266-2.347-1.187-2.734-1.826-2.792h-.061c-.639 0-1.147.477-1.199 2.248 0 .15.004.304.017.458.126 1.758.933 2.724 1.782 2.725h.043a.9.9 0 0 0 .125-.008c.605-.058 1.111-.564 1.146-2.062 0-.177-.008-.365-.026-.569m1.326.568c.037 1.778-.823 3.216-2.31 3.357a2.15 2.15 0 0 1-.261.013c-1.896-.032-3.008-1.85-3.121-3.933a7.395 7.395 0 0 1-.021-.55c.002-1.015.185-1.857.603-2.504a2.205 2.205 0 0 1 1.862-1.041H15.222c1.372.037 2.855 1.267 3.069 3.968l.002.004c.02.237.031.465.031.687M4.19 13.365c.049 0 .09-.002.13-.006.312-.035.524-.152.728-.415l1.04.78a2.292 2.292 0 0 1-1.637.93c-.09.01-.18.011-.261.011-1.895-.03-3.007-1.849-3.121-3.93a7.379 7.379 0 0 1-.02-.552c.002-1.014.185-1.857.603-2.506a2.206 2.206 0 0 1 1.857-1.04h.149c.853.03 1.812.52 2.4 1.587l-1.132.638h-.002c-.411-.71-.886-.896-1.314-.928h-.062c-.64 0-1.146.478-1.2 2.25 0 .147.007.303.017.464.128 1.783.959 2.748 1.825 2.717M18.845 16.969l-.002-7.82 4.142.976v1.422l-2.77-.661.003 6.333z"/>
    </g>
</svg>
