<svg xmlns="http://www.w3.org/2000/svg" width="32" height="32" viewBox="0 0 32 32">
    <defs>
        <clipPath id="a">
            <path d="M0 24h24V0H0z"/>
        </clipPath>
    </defs>
    <g clip-path="url(#a)" transform="matrix(1.33333 0 0 -1.33333 0 32)">
        <path fill="red" d="M21.773 2.651a.428.428 0 0 0-.425-.425H2.652a.426.426 0 0 0-.426.425v18.696c0 .234.192.425.426.426h18.695a.43.43 0 0 0 .425-.426zm-.425 20.35H2.652a1.652 1.652 0 0 1-1.654-1.654V2.651c0-.912.74-1.65 1.653-1.65h18.695c.912 0 1.652.736 1.654 1.65v18.696A1.656 1.656 0 0 1 21.348 23"/>
        <path fill="red" d="M16.742 11.502H9.259v2.156h7.483zm0-3.385H9.259v2.156h7.483zm-7.372 6.77a18.86 18.86 0 0 1 1.237 2.45h9.616v1.228H11.05c.254.765.478 1.543.633 2.348l-1.206.232a17.43 17.43 0 0 0-.726-2.58H3.976v-1.228h5.282a17.674 17.674 0 0 0-5.653-7.04l.728-.988a18.96 18.96 0 0 1 3.698 3.593V3.221h1.228v3.668h7.483V5.432c-.011-.463-.112-.703-.203-.795-.09-.1-.24-.184-.631-.188h-1.043V3.221h1.065c.566 0 1.133.16 1.523.593.36.406.491.939.51 1.545h.008v9.528z"/>
    </g>
</svg>
