<svg xmlns="http://www.w3.org/2000/svg" width="32" height="32" viewBox="0 0 32 32">
    <defs>
        <clipPath id="a">
            <path d="M0 24h24V0H0z"/>
        </clipPath>
    </defs>
    <g clip-path="url(#a)" transform="matrix(1.33333 0 0 -1.33333 0 32)">
        <path fill="#ff8c00" d="M21.773 2.651a.428.428 0 0 0-.425-.425H2.653a.426.426 0 0 0-.425.425v18.696c0 .234.191.425.425.426h18.695a.43.43 0 0 0 .425-.426zm-.425 20.35H2.653A1.652 1.652 0 0 1 1 21.346V2.651c0-.912.74-1.65 1.653-1.65h18.695c.912 0 1.652.736 1.654 1.65v18.696A1.656 1.656 0 0 1 21.348 23"/>
        <path fill="#ff8c00" d="M17.995 13.652h-5.38v3.265h5.38zm0-4.504h-5.38v3.275h5.38zM6.008 12.424h5.379V9.149H6.008zm0 4.493h5.379v-3.265H6.008zm6.607 1.228v2.566h-1.228v-2.566H4.781V7.921h6.606V3.288h1.228v4.633h6.608v10.224z"/>
    </g>
</svg>
