<svg xmlns="http://www.w3.org/2000/svg" width="32" height="32" viewBox="0 0 32 32">
    <defs>
        <clipPath id="a">
            <path d="M0 24h24V0H0z"/>
        </clipPath>
    </defs>
    <g clip-path="url(#a)" transform="matrix(1.33333 0 0 -1.33333 0 32)">
        <path fill="red" d="M12.001 2.405A9.61 9.61 0 0 0 2.403 12a9.607 9.607 0 0 0 9.598 9.594A9.605 9.605 0 0 0 21.596 12a9.607 9.607 0 0 0-9.595-9.595m0 20.595C5.923 22.998 1 18.076 1 12 1 5.926 5.923 1 12.001 1 18.076 1 22.998 5.926 23 12c-.002 6.076-4.924 10.998-10.999 11"/>
        <path fill="red" d="M4.754 15.753c.769.723 2.342 2.423 2.947 3.635v-.002l1.16-.586c-.772-1.506-2.375-3.185-3.21-3.988zM7.718 15.371h-.002c-.602-1.21-2.18-2.91-2.946-3.635l.898-.94c.2.192.446.438.714.718V4.61h1.3V13c.46.58.89 1.196 1.194 1.786zM18.797 10.143v1.3H9.515v-1.3h5.47V8.86h-5.47v-1.3h1.978l-.782-.828 2.265-2.142.892.945-2.142 2.025h3.259V4.61h1.3v2.95h2.512v1.3h-2.511v1.283zM16.643 16.675h-5.097v1.311h5.097zm-5.098-1.3h5.097v-1.294h-5.097zm-1.299-2.593h7.696v6.504h-7.696z"/>
    </g>
</svg>
