<svg xmlns="http://www.w3.org/2000/svg" width="32" height="32" viewBox="0 0 32 32">
    <defs>
        <clipPath id="a">
            <path d="M0 24h24V0H0z"/>
        </clipPath>
    </defs>
    <g clip-path="url(#a)" transform="matrix(1.33333 0 0 -1.33333 0 32)">
        <path fill="#ff8c00" d="M2.3 21.216V2.783c0-.265.219-.482.485-.484H21.2a.485.485 0 0 1 .483.484v18.433a.481.481 0 0 1-.483.483H2.785a.484.484 0 0 1-.484-.483M2.785 1C1.799 1 1.002 1.797 1 2.783v18.433A1.785 1.785 0 0 0 2.785 23H21.2c.985 0 1.784-.798 1.784-1.784V2.783c0-.986-.8-1.783-1.784-1.783z"/>
        <path fill="#ff8c00" d="M7.013 5.157h4.408v1.866H7.013zm5.62-1.212H5.804v4.29h6.829zM13.918 15.024l-.002 3.514H9.855v1.887H8.554v-1.887h-4.09v-3.514h1.3v2.215h6.853v-2.215z"/>
        <path fill="#ff8c00" d="M9.855 10.59v1.015h1.886v1.299H9.855v1.013h1.885v1.299H9.855v1.179H8.553v-1.18H6.695v-1.298h1.858v-1.013H6.696v-1.3h1.857v-1.013H5.196v-1.3h8.044v1.3zM15.023 19.033h1.301V8.507h-1.301zM15.831 3.848v1.3h1.72c.217.037.683.095.683.715 0 1.089 0 13.144.003 13.144h1.298V5.863c.013-.734-.353-1.322-.782-1.62a2.12 2.12 0 0 0-1.203-.395zm0 0v-.002z"/>
    </g>
</svg>
