<svg xmlns="http://www.w3.org/2000/svg" width="32" height="32" viewBox="0 0 32 32">
    <defs>
        <clipPath id="a">
            <path d="M0 24h24V0H0z"/>
        </clipPath>
    </defs>
    <g clip-path="url(#a)" transform="matrix(1.33333 0 0 -1.33333 0 32)">
        <path fill="red" d="M2.3 21.216V2.783c0-.265.219-.482.485-.484H21.2a.485.485 0 0 1 .483.484v18.433a.481.481 0 0 1-.483.483H2.785a.484.484 0 0 1-.484-.483M2.785 1C1.799 1 1.002 1.797 1 2.783v18.433A1.785 1.785 0 0 0 2.785 23H21.2c.985 0 1.784-.798 1.784-1.784V2.783c0-.986-.8-1.783-1.784-1.783z"/>
        <path fill="red" d="M19.552 15.701H16.23v3.187h-1.3v-3.187H9.12v3.187H7.819v-3.187H4.43v-1.3h3.388V9.668h1.3v4.733h5.812V9.666s-.001-.198-.064-.547c-.237-1.099-.852-3.117-3.755-3.356l.099-1.298c2.405.17 3.767 1.51 4.38 2.757.63 1.245.636 2.382.64 2.438v4.741h3.32z"/>
    </g>
</svg>
