<svg xmlns="http://www.w3.org/2000/svg" width="32" height="32" viewBox="0 0 32 32">
    <defs>
        <clipPath id="a">
            <path d="M0 24h24V0H0z"/>
        </clipPath>
    </defs>
    <g clip-path="url(#a)" transform="matrix(1.33333 0 0 -1.33333 0 32)">
        <path fill="#a000a0" d="M21.684 2.783a.485.485 0 0 0-.482-.484H2.785a.487.487 0 0 0-.484.484v18.433c0 .267.218.483.484.483h18.417a.482.482 0 0 0 .482-.483zM21.202 23H2.785A1.785 1.785 0 0 1 1 21.216V2.783A1.784 1.784 0 0 1 2.785 1h18.417c.984 0 1.783.797 1.783 1.783v18.433c0 .986-.8 1.784-1.783 1.784"/>
        <path fill="#a000a0" d="M16.364 4.857h-8.73v2.338h8.73zm-7.68 8.781h6.633v-2.336H8.684zm8.981-5.142h-6.41l.746 1.506h4.615v4.936H7.384v-4.936h3.166l-.747-1.506h-3.47V3.559h11.332z"/>
        <path fill="#a000a0" d="M16.555 17.502l1.808 2.127-.992.841-2.521-2.969h-2.037c-.777 1.748-2.456 2.975-2.487 3.017l-.783-1.037s.434-.326.94-.86c.305-.319.617-.71.87-1.12H8.567c-.776 1.747-2.457 2.974-2.485 3.018l-.785-1.039c.002 0 .433-.326.939-.86.306-.317.619-.71.873-1.119H4.31v-3.586h1.3V16.2h12.778v-2.27h1.302l-.002 3.571z"/>
    </g>
</svg>
