<svg xmlns="http://www.w3.org/2000/svg" width="32" height="32" viewBox="0 0 32 32">
    <defs>
        <clipPath id="a">
            <path d="M0 24h24V0H0z"/>
        </clipPath>
    </defs>
    <g clip-path="url(#a)" transform="matrix(1.33333 0 0 -1.33333 0 32)">
        <path fill="red" d="M11.999 2.403A9.61 9.61 0 0 0 2.403 12a9.607 9.607 0 0 0 9.596 9.595A9.606 9.606 0 0 0 21.595 12a9.61 9.61 0 0 0-9.596-9.597m0 20.597c-6.076 0-11-4.924-11-11 0-6.074 4.923-11 11-11 6.078 0 11 4.926 11.002 11-.002 6.076-4.924 11-11.002 11"/>
        <path fill="red" d="M9.442 9.076l.92.92-2.135 2.135a13.995 13.995 0 0 1 1.722 3.052l.364.895H7.991v2.406h-1.3v-2.406H4.783v-1.3H8.34a12.795 12.795 0 0 0-3.96-4.657l.761-1.055c.548.396 1.065.832 1.55 1.301V5.514h1.3v5.013z"/>
        <path fill="red" d="M12.288 16.732h4.233v-3.814h-4.233zm3.933-10.035a.276.276 0 0 0-.274.274v4.647h1.872v6.414h-6.832v-6.414h1.374a6.716 6.716 0 0 0-3.004-5.237l.716-1.086a8.018 8.018 0 0 1 3.585 6.323h.991l-.003-4.647a1.576 1.576 0 0 1 1.575-1.573h2.139v1.299z"/>
    </g>
</svg>
