<svg xmlns="http://www.w3.org/2000/svg" width="32" height="32" viewBox="0 0 32 32">
    <defs>
        <clipPath id="a">
            <path d="M0 24h24V0H0z"/>
        </clipPath>
    </defs>
    <g clip-path="url(#a)" transform="matrix(1.33333 0 0 -1.33333 0 32)">
        <path fill="red" d="M3.094 13.813L7.34 4.688c2.282 2.311 9.92 9.996 13.673 13.121l-.267.377c-5.818-4.343-12.073-9.97-12.083-9.98l-.712-.64-2.48 6.642zm-1.898 1l5.119.854 2.19-5.862c1.876 1.657 7.146 6.246 12.005 9.823l.53.395 1.738-2.461-.478-.384C18.29 13.994 7.622 3.124 7.61 3.107l-.661-.669z"/>
    </g>
</svg>
