<svg xmlns="http://www.w3.org/2000/svg" width="32" height="32" viewBox="0 0 32 32">
    <defs>
        <clipPath id="a">
            <path d="M0 24h24V0H0z"/>
        </clipPath>
    </defs>
    <path fill="red" d="M1.35 2.519h29.326v1.733H1.349zM1.35 27.45h29.326v1.733H1.349z"/>
    <g clip-path="url(#a)" transform="matrix(1.33333 0 0 -1.33333 0 32)">
        <path fill="red" d="M13.524 8.046c.446.979.718 2.428.716 4.036.002 1.609-.27 3.057-.716 4.036-.463 1-1 1.41-1.526 1.402-.527.008-1.066-.402-1.529-1.402-.446-.98-.717-2.427-.714-4.036-.003-1.608.268-3.057.714-4.036.463-1.002 1.002-1.411 1.53-1.403.524-.008 1.062.4 1.525 1.403m-4.24-.537c-.55 1.225-.827 2.822-.829 4.573.002 1.753.278 3.349.831 4.573.533 1.202 1.441 2.157 2.712 2.165 1.27-.008 2.176-.963 2.71-2.165.552-1.224.83-2.82.831-4.573-.002-1.751-.279-3.348-.829-4.573-.536-1.201-1.443-2.158-2.712-2.167-1.27.009-2.179.966-2.714 2.167M2.59 8.084v-.002zm0-.002l1.292.15c.13-1.094.835-1.775 1.446-1.751.673.002 1.465.817 1.468 2.084.016 1.153-.89 2.086-1.892 2.944-.999.873-2.324 2.06-2.34 3.926.002 1.755 1.098 3.349 2.764 3.384 1.511-.025 2.562-1.36 2.74-2.897l-1.293-.15c-.13 1.093-.835 1.772-1.447 1.747-.67-.002-1.462-.817-1.465-2.084-.016-1.152.89-2.084 1.892-2.942 1-.872 2.324-2.061 2.341-3.928-.003-1.752-1.099-3.347-2.768-3.383-1.51.024-2.562 1.362-2.738 2.9M15.929 8.082h.002l1.29.152c.132-1.095.838-1.776 1.449-1.752.67.002 1.463.816 1.465 2.083.017 1.153-.89 2.085-1.891 2.943-1 .873-2.326 2.062-2.341 3.927.004 1.753 1.1 3.348 2.767 3.385 1.509-.025 2.56-1.362 2.738-2.898l-1.293-.15c-.131 1.093-.835 1.772-1.445 1.748-.673-.002-1.465-.817-1.468-2.085-.015-1.153.89-2.085 1.892-2.943 1-.873 2.326-2.06 2.342-3.927-.004-1.752-1.101-3.348-2.766-3.383-1.512.025-2.564 1.364-2.741 2.9"/>
    </g>
</svg>
