<svg xmlns="http://www.w3.org/2000/svg" width="32" height="32" viewBox="0 0 32 32">
    <defs>
        <clipPath id="a">
            <path d="M0 24h24V0H0z"/>
        </clipPath>
    </defs>
    <g clip-path="url(#a)" transform="matrix(1.33333 0 0 -1.33333 0 32)">
        <path fill="#00be3c" d="M21.477 4.322a.503.503 0 0 0-.354-.855.5.5 0 0 0-.355.146l-6.512 6.512a.506.506 0 0 0 0 .71.502.502 0 0 0 .707 0zM10.772 14.32a.507.507 0 0 0-.71 0l-6.51 6.512a.502.502 0 0 0 0 .708.499.499 0 0 0 .706 0l6.514-6.509a.509.509 0 0 0 0-.71m12.226 5.596L19.916 23l-7.918-7.918-7.916 7.916L1 19.918 8.917 12 1 4.083l3.08-3.082 7.917 7.917L19.918 1l3.081 3.083L15.082 12z"/>
    </g>
</svg>
