<svg xmlns="http://www.w3.org/2000/svg" width="32" height="32" viewBox="0 0 32 32">
    <defs>
        <clipPath id="a">
            <path d="M0 24h24V0H0z"/>
        </clipPath>
    </defs>
    <g clip-path="url(#a)" transform="matrix(1.33333 0 0 -1.33333 0 32)">
        <path fill="#a000a0" d="M13.44 18.242a.512.512 0 0 0-.512.513v2.172h-2.235a.512.512 0 0 0-.513.51c0 .283.23.512.514.512h2.745a.51.51 0 0 0 .51-.513l.003-2.68a.513.513 0 0 0-.512-.514m-4.051-.856h5.225v5.225H9.387zM22.352 10.552a.514.514 0 0 0-.512-.514.515.515 0 0 0-.513.514v2.386H2.39a.512.512 0 1 0 0 1.024H21.84a.534.534 0 0 0 .364-.148.52.52 0 0 0 .148-.364zM1 9.389h22v5.223H1zM13.44 2.246a.513.513 0 0 0-.512.514v2.172h-2.235a.512.512 0 0 0-.513.51c0 .283.23.511.514.511h2.745a.508.508 0 0 0 .51-.512l.003-2.68a.514.514 0 0 0-.512-.515M9.389 1.39h5.225v5.225H9.387z"/>
    </g>
</svg>
