<svg xmlns="http://www.w3.org/2000/svg" width="32" height="32" viewBox="0 0 32 32">
    <defs>
        <clipPath id="a">
            <path d="M0 24h24V0H0z"/>
        </clipPath>
    </defs>
    <g clip-path="url(#a)" transform="matrix(1.33333 0 0 -1.33333 0 32)">
        <path fill="#f0f" d="M13.852 11.984c0-.489-.184-.917-.553-1.283-.366-.368-.794-.552-1.284-.552-.509 0-.942.184-1.298.552a1.777 1.777 0 0 0-.536 1.283c0 .511.178.943.536 1.3.356.357.79.536 1.298.536.49 0 .918-.179 1.284-.536.37-.357.553-.789.553-1.3m7.922 0c0 1.041-.356 1.912-1.072 2.616-.713.702-1.58 1.055-2.6 1.055h-2.445v2.446c0 1.04-.36 1.911-1.073 2.615a3.525 3.525 0 0 1-2.569 1.056c-1.04 0-1.91-.352-2.614-1.056-.704-.704-1.055-1.575-1.055-2.615v-2.446H5.898c-1.04 0-1.91-.353-2.615-1.055-.702-.704-1.055-1.575-1.055-2.616 0-.999.357-1.855 1.07-2.569.715-.713 1.58-1.07 2.6-1.07h2.448V5.898c0-1.019.351-1.887 1.055-2.602.704-.713 1.574-1.069 2.614-1.069 1 0 1.857.356 2.57 1.07a3.552 3.552 0 0 1 1.072 2.601v2.445h2.445c1.02 0 1.887.358 2.6 1.071.716.714 1.072 1.57 1.072 2.57m1.221 0c0-1.325-.479-2.469-1.436-3.428-.959-.956-2.109-1.435-3.457-1.435h-1.225V5.9c0-1.348-.478-2.499-1.437-3.457-.957-.959-2.1-1.437-3.425-1.437-1.345 0-2.497.478-3.456 1.437-.957.958-1.437 2.11-1.437 3.457v1.223H5.899c-1.366 0-2.523.48-3.471 1.435-.95.96-1.423 2.103-1.423 3.427 0 1.346.479 2.5 1.438 3.457.957.958 2.11 1.437 3.455 1.437h1.224v1.223c0 1.346.48 2.498 1.438 3.456.958.958 2.11 1.438 3.455 1.438 1.325 0 2.468-.474 3.425-1.422.96-.948 1.438-2.107 1.438-3.472v-1.223h1.225c1.348 0 2.498-.479 3.457-1.437.957-.958 1.436-2.11 1.436-3.457"/>
    </g>
</svg>
