<svg xmlns="http://www.w3.org/2000/svg" width="32" height="32" viewBox="0 0 32 32">
    <defs>
        <clipPath id="a">
            <path d="M0 24h24V0H0z"/>
        </clipPath>
    </defs>
    <path fill="#ff8c00" d="M20.192 29.887h-8.383v-4.248h8.383z"/>
    <g clip-path="url(#a)" transform="matrix(1.33333 0 0 -1.33333 0 32)">
        <path fill="#ff8c00" d="M8.709 15.952c-.91-.917-1.34-1.965-1.346-3.292.007-1.277.434-2.31 1.35-3.244a4.625 4.625 0 0 1 1.105-.808l.339-.185V7.05h3.686v1.38l.336.185c.399.218.759.465 1.082.788.91.921 1.339 1.958 1.347 3.258-.008 1.323-.444 2.37-1.361 3.29-.934.915-1.97 1.343-3.245 1.35-1.327-.007-2.375-.439-3.294-1.348M8.857 5.75v1.912c-.37.227-.732.5-1.068.841-1.135 1.137-1.732 2.57-1.726 4.157-.006 1.627.586 3.08 1.729 4.211 1.13 1.142 2.583 1.735 4.21 1.728 1.587.007 3.02-.59 4.16-1.726 1.15-1.129 1.753-2.584 1.745-4.213a5.715 5.715 0 0 0-1.727-4.178 5.577 5.577 0 0 0-1.04-.813V5.75zM15.791 18.252l-2.116.947 1.421 3.173 2.116-.947zM18.517 14.889l-1.194 1.987 2.979 1.79 1.194-1.986zM8.213 18.252l2.116.947-1.421 3.173-2.116-.947zM5.487 14.889l1.194 1.987-2.979 1.79-1.194-1.986zM5.177 10.57l-.158 2.313-3.468-.234.157-2.314zM18.823 10.57l.158 2.313 3.468-.234-.157-2.314z"/>
    </g>
</svg>
