<svg xmlns="http://www.w3.org/2000/svg" width="32" height="32" viewBox="0 0 32 32">
    <defs>
        <clipPath id="a">
            <path d="M0 24h24V0H0z"/>
        </clipPath>
    </defs>
    <g clip-path="url(#a)" transform="matrix(1.33333 0 0 -1.33333 0 32)">
        <path fill="#595959" d="M8.535 16.623c-1.045 1.173-1.917 2.25-1.994 3.297h1.3c-.076-.094.673-1.442 1.642-2.406.922-1.034 2.195-1.857 2.518-1.791.32-.066 1.592.757 2.515 1.792.967.964 1.718 2.312 1.642 2.406h1.298c-.076-1.047-.95-2.124-1.994-3.297-1.09-1.106-2.221-2.135-3.461-2.201-1.242.065-2.374 1.094-3.466 2.2M16.157 4.08c.076.096-.675 1.442-1.64 2.407-.924 1.035-2.195 1.86-2.516 1.794-.323.066-1.597-.759-2.519-1.794-.967-.965-1.718-2.313-1.64-2.408h-1.3c.076 1.05.948 2.126 1.993 3.301 1.091 1.103 2.223 2.136 3.466 2.2 1.24-.064 2.37-1.097 3.461-2.2 1.047-1.175 1.92-2.253 1.995-3.3zM4.08 7.844c.092-.076 1.44.672 2.407 1.639C7.52 10.407 8.344 11.68 8.278 12c.066.322-.759 1.594-1.79 2.517-.968.967-2.316 1.716-2.408 1.64v1.3c1.045-.076 2.123-.948 3.297-1.993C8.482 14.375 9.513 13.243 9.58 12c-.066-1.243-1.097-2.372-2.202-3.464C6.203 7.49 5.127 6.619 4.08 6.543zM16.62 8.538C15.516 9.63 14.484 10.76 14.42 12c.064 1.243 1.096 2.374 2.2 3.465 1.175 1.046 2.253 1.918 3.301 1.994v-1.3c-.097.076-1.444-.673-2.408-1.64-1.036-.922-1.86-2.196-1.794-2.519-.066-.32.758-1.592 1.794-2.516.964-.966 2.311-1.716 2.408-1.64v-1.3c-1.048.076-2.126.948-3.3 1.995"/>
    </g>
</svg>
