<svg xmlns="http://www.w3.org/2000/svg" width="32" height="32" viewBox="0 0 32 32">
    <defs>
        <clipPath id="a">
            <path d="M0 24h24V0H0z"/>
        </clipPath>
    </defs>
    <g clip-path="url(#a)" transform="matrix(1.33333 0 0 -1.33333 0 32)">
        <path fill="#595959" d="M5.642 10.468c1.502 3.994 4.131 7.454 6.106 8.737.463.285.963.524 1.481.615.161.028.317.043.47.043a2.694 2.694 0 0 0 2.643-2.222c.026-.152.04-.302.04-.45.003-1.224-.923-2.292-2.28-2.672-2.745-.764-6.069-2.38-8.46-4.051m12.04 6.723a3.994 3.994 0 0 1-3.983 3.972c-.233 0-.466-.023-.696-.064-.757-.133-1.403-.461-1.954-.798C8.326 18.48 5.127 13.92 3.746 8.8l1.072-.642c1.981 1.869 6.39 4.226 9.63 5.106 1.816.496 3.227 2.018 3.233 3.927M19.415 7.13c-.309-.831-1.068-1.277-1.994-1.29-.227 0-.461.03-.694.09-1.696.443-3.812.666-5.768.666-.497 0-.982-.014-1.446-.044 2.589 2.03 5.645 3.287 7.434 3.376.044.002.102.004.153.004.389 0 .757-.041 1.088-.163l.002-.002a2.054 2.054 0 0 0 1.225-2.636m-.78 3.858v-.001c-.533.195-1.061.242-1.535.242-.079 0-.148-.002-.21-.004-2.7-.177-6.795-2.093-9.861-5.143l.609-1.091c.854.2 2.046.305 3.321.305 1.852 0 3.897-.22 5.443-.625.335-.087.679-.13 1.019-.13h.027c1.354 0 2.683.752 3.192 2.15.133.38.199.766.199 1.145a3.352 3.352 0 0 1-2.204 3.152"/>
    </g>
</svg>
