<svg xmlns="http://www.w3.org/2000/svg" width="32" height="32" viewBox="0 0 32 32">
    <defs>
        <clipPath id="a">
            <path d="M0 24h24V0H0z"/>
        </clipPath>
    </defs>
    <g clip-path="url(#a)" transform="matrix(1.33333 0 0 -1.33333 0 32)">
        <path fill="#ff8c00" d="M6.512 15.968l-.004-.463.317-8.96h3.482l.106.482c0 .003.23 1.023.897 2.042.68 1.024 1.687 1.958 3.344 1.963 1.658-.003 2.738-.95 3.473-1.983a7.587 7.587 0 0 0 .784-1.426c.162-.39.223-.627.226-.627l.124-.45h3.127v1.228h-2.221c-.442 1.204-1.926 4.417-5.513 4.485-2.18.004-3.591-1.306-4.372-2.52a8.386 8.386 0 0 1-.93-1.965H7.967l-.234 7.289c.69.245 2.019.809 2.852 1.913.004.007.012.013.018.02h-.001c.396.535.678 1.192.713 2a3.7 3.7 0 0 1-.237 1.277c-.643 1.78-2.214 2.737-3.79 2.727-1.963.016-3.955-1.472-4.335-4.186-.271-1.858-1.055-11.05-1.333-15.272-.007-.068-.007-.148-.007-.212-.002-.658.214-1.251.61-1.675.392-.421.95-.655 1.536-.655H22.388v1.228H3.773c-.543.027-.898.307-.933 1.102 0 .05.002.086.004.102.272 4.203 1.067 13.465 1.322 15.203.34 2.195 1.76 3.12 3.123 3.138 1.103-.01 2.15-.614 2.636-1.92.117-.322.163-.603.163-.856.005-.497-.193-.93-.5-1.31v.002a.838.838 0 0 0-.701-.368.854.854 0 0 0-.48.145.854.854 0 0 0-.367.704c0 .17.046.33.146.47l-1.003.707a2.007 2.007 0 0 1-.37-1.177 2.08 2.08 0 0 1 .904-1.717c.027-.018.059-.023.086-.04-.48-.216-.846-.317-.846-.323z"/>
    </g>
</svg>
