<svg xmlns="http://www.w3.org/2000/svg" width="32" height="32" viewBox="0 0 32 32">
    <defs>
        <clipPath id="a">
            <path d="M0 24h24V0H0z"/>
        </clipPath>
    </defs>
    <g clip-path="url(#a)" transform="matrix(1.33333 0 0 -1.33333 0 32)">
        <path fill="#ff8c00" d="M20.223 13.57c-1.657 1.316-3.948 2.635-6.602 3.728-3.332 1.371-6.5 2.094-8.83 2.098-1.69-.017-3.09-.338-3.65-1.553A1.822 1.822 0 0 1 1 17.118c.04-1.326 1.08-2.548 2.638-3.842 1.577-1.279 3.759-2.565 6.296-3.653l.563-.243.487 1.127-.565.243c-2.45 1.048-4.55 2.294-6.007 3.48-1.475 1.17-2.226 2.346-2.184 2.888a.6.6 0 0 0 .045.247c.096.373.954.82 2.519.802 2.08.004 5.15-.676 8.363-2.003 2.559-1.055 4.766-2.33 6.305-3.556 1.557-1.205 2.357-2.433 2.313-2.99 0-.1-.018-.183-.051-.266-.088-.356-.948-.804-2.514-.785-.412 0-.865.025-1.345.078l-.612.065-.131-1.22.612-.067a14.3 14.3 0 0 1 1.476-.083c1.69.015 3.09.334 3.653 1.55.092.233.139.478.139.727-.045 1.362-1.136 2.62-2.777 3.952"/>
        <path fill="#ff8c00" d="M16.778 11.328l-.013.031-2.654-1.212-2 2.168-.03-.013.331-2.929L9.753 8.16l.013-.03 2.861-.575.326-2.952.025.002 1.458 2.575 2.9-.585.02.016-2.015 2.182z"/>
    </g>
</svg>
