<svg xmlns="http://www.w3.org/2000/svg" width="32" height="32" viewBox="0 0 32 32">
    <defs>
        <clipPath id="a">
            <path d="M0 24h24V0H0z"/>
        </clipPath>
    </defs>
    <g clip-path="url(#a)" transform="matrix(1.33333 0 0 -1.33333 0 32)">
        <path fill="#ff8c00" d="M13.599 10.401C12.807 9.528 12.327 8.4 12 6.853c-.326 1.546-.805 2.675-1.596 3.548-.78.814-1.746 1.288-2.987 1.6 1.24.308 2.207.783 2.987 1.596.79.874 1.27 2.003 1.596 3.55.326-1.547.806-2.676 1.598-3.55.777-.813 1.745-1.288 2.985-1.597-1.24-.31-2.208-.785-2.985-1.599m.946 4.08c-1.117 1.153-1.595 3.622-1.898 8.52h-1.291c-.302-4.898-.781-7.367-1.9-8.52-1.06-1.185-3.147-1.533-7.147-1.837v-1.289c4-.304 6.087-.65 7.147-1.836 1.119-1.155 1.598-3.624 1.9-8.519h1.29c.304 4.895.782 7.364 1.899 8.52 1.06 1.184 3.15 1.531 7.147 1.835v1.29c-3.997.303-6.086.651-7.147 1.835"/>
        <path fill="#ff8c00" d="M7.97 16.945l-3.563 3.562-.915-.915 3.562-3.562zM3.493 4.406l.915-.915 3.563 3.562-.915.916zM16.032 7.056l3.563-3.563.915.916-3.563 3.562zM20.507 19.594l-.915.916-3.562-3.563.915-.915z"/>
    </g>
</svg>
