<svg xmlns="http://www.w3.org/2000/svg" width="32" height="32" viewBox="0 0 32 32">
    <defs>
        <clipPath id="a">
            <path d="M0 24h24V0H0z"/>
        </clipPath>
    </defs>
    <g clip-path="url(#a)" transform="matrix(1.33333 0 0 -1.33333 0 32)">
        <path fill="#00f" d="M20.39 11.546h-.011a.651.651 0 0 0-.654.635 7.728 7.728 0 0 1-7.715 7.55c-.478 0-.96-.042-1.433-.136a.65.65 0 1 0-.25 1.276 8.707 8.707 0 0 0 1.683.159 9.032 9.032 0 0 0 9.014-8.818h.002a.654.654 0 0 0-.635-.666m-.36-3.29a.889.889 0 0 0-1.035.709.888.888 0 1 0 1.036-.708M12 23C5.924 23 1 18.075 1 12 1 5.924 5.924 1 12 1c6.077 0 11 4.924 11 11 0 6.075-4.923 11-11 11"/>
    </g>
</svg>
