<svg xmlns="http://www.w3.org/2000/svg" width="32" height="32" viewBox="0 0 32 32">
    <defs>
        <clipPath id="a">
            <path d="M0 24h24V0H0z"/>
        </clipPath>
    </defs>
    <g clip-path="url(#a)" transform="matrix(1.33333 0 0 -1.33333 0 32)">
        <path fill="red" d="M21.408 16.273c-.682.374-1.396.488-1.936.52.06.312.108.69.11 1.104.035 1.223-.53 2.95-2.55 3.536a5.193 5.193 0 0 1-1.509.237c-1.31-.011-2.209-.57-2.77-1.104a4.325 4.325 0 0 1-.275.457c-.54.795-1.6 1.62-3.238 1.608-.313 0-.645-.03-.998-.088-2.878-.462-3.535-2.876-3.487-4.352a7.57 7.57 0 0 1 .033-.675c-.082.006-.169.01-.258.01-1.1.049-2.775-.664-3.33-3.065a6.335 6.335 0 0 1-.2-1.546c.017-2.271 1.321-3.634 2.14-4.268-.366-.475-.79-1.223-.808-2.181-.008-.79.346-1.672 1.188-2.444.833-.776 1.774-1.024 2.53-1.02.496.003.918.097 1.227.196.435-.665 1.368-1.775 2.914-1.828h.058c1.59 0 2.644.779 3.143 1.684.518.908.582 1.876.584 2.435 0 .133-.004.239-.007.32 1.365.61 2.617 1.589 3.484 3.248a5.91 5.91 0 0 1 .644 2.699c.002 1.482-.564 3.067-1.986 4-.877.575-2.057.922-3.35.924a7.026 7.026 0 0 1-3.55-.963c-1.869-1.074-3.317-2.92-3.31-5.42 0-.056.001-.103.003-.14.037-2.293 1.834-3.46 3.55-3.41.902.003 1.822.26 2.607.752 1.202.798 2.34 2.363 2.388 3.847.006.477-.16 1-.572 1.356-.412.355-.975.509-1.647.509-1.833-.033-2.972-1.552-2.988-2.894-.052-.815.613-1.713 1.642-1.748l.1 1.223c-.468.083-.463.162-.515.525-.004.307.166.76.483 1.096.32.339.748.57 1.278.57.994-.084.92-.22.992-.637.05-.758-.97-2.322-1.812-2.808a3.747 3.747 0 0 0-1.956-.562c-1.284.05-2.239.588-2.324 2.214-.002.04-.002.078-.002.107.006 2.004 1.094 3.41 2.7 4.36a5.79 5.79 0 0 0 2.932.797c1.066.002 2.04-.301 2.68-.725.988-.645 1.425-1.777 1.43-2.973a4.679 4.679 0 0 0-.505-2.13c-1.344-2.55-3.665-3.191-6.139-3.535l.165-1.218c.767.1 1.565.253 2.354.485-.01-.454-.098-1.147-.419-1.691-.357-.588-.873-1.051-2.135-1.071-.583-.005-1.11.359-1.507.792-.393.426-.593.85-.6.846l-.287.576-.562-.31a2.804 2.804 0 0 0-1.186-.27c-.514.004-1.092.14-1.695.693-.637.602-.789 1.097-.795 1.543-.004.474.212.943.455 1.29.238.35.465.539.461.545l.673.595-.797.413s-.107.052-.31.196c-.614.446-1.816 1.535-1.812 3.41 0 .377.047.79.161 1.246.537 1.953 1.42 2.089 2.14 2.136.22 0 .408-.03.544-.062.146-.035.231-.07.235-.065l1.13-.447-.31 1.174c0 .002-.146.555-.145 1.294.05 1.295.323 2.755 2.463 3.14.294.05.555.073.793.073 1.235-.012 1.83-.533 2.231-1.084.191-.276.316-.562.39-.772.07-.212.082-.323.088-.323l.301-1.861.851 1.687s.03.059.121.19c.295.407 1.002 1.202 2.301 1.2.334 0 .713-.05 1.153-.183 1.418-.455 1.638-1.373 1.675-2.361.004-.816-.256-1.51-.246-1.516l-.342-.936.991.118c.002 0 .123.016.35.016.431.004 1.163-.071 1.708-.38.537-.32.94-.748.96-1.845a4.77 4.77 0 0 0-.034-.557c-.238-1.795-.96-2.576-1.594-2.997a2.831 2.831 0 0 0-.853-.367c-.225-.055-.326-.047-.326-.055l-1.049-.025.535-.9s.13-.222.275-.614c.147-.39.29-.925.287-1.475-.023-.9-.298-1.801-1.673-2.578a3.548 3.548 0 0 0-1.725-.427c-.287 0-.52.03-.689.062-.178.034-.28.067-.282.059l-.375-1.17a4.733 4.733 0 0 1 1.346-.178c.647 0 1.48.119 2.316.578 1.747.939 2.331 2.43 2.31 3.654a5.628 5.628 0 0 1-.382 1.955c.281.09.61.232.95.45.93.588 1.888 1.785 2.146 3.882.03.246.045.477.045.703.021 1.473-.733 2.464-1.592 2.919"/>
    </g>
</svg>
