<svg xmlns="http://www.w3.org/2000/svg" width="32" height="32" viewBox="0 0 32 32">
    <defs>
        <clipPath id="a">
            <path d="M0 24h24V0H0z"/>
        </clipPath>
    </defs>
    <g clip-path="url(#a)" transform="matrix(1.33333 0 0 -1.33333 0 32)">
        <path fill="#595959" d="M6.857 8.527c.676 0 1.27-.295 1.66-.74l.099-.112.98.854-.097.113a3.508 3.508 0 0 1-2.642 1.182C4.97 9.822 3.407 8.36 3.402 6.5c.005-1.862 1.569-3.323 3.453-3.325 1.05 0 2.006.454 2.642 1.18l.098.113-.977.858-.1-.113a2.196 2.196 0 0 0-1.661-.739c-1.215.002-2.154.932-2.154 2.026 0 1.093.939 2.023 2.154 2.027M15.678 16.076c.002.467.219 1.023.566 1.426.358.414.81.656 1.258.656.949 0 1.82-.893 1.822-2.102-.001-1.209-.873-2.097-1.822-2.1-.447 0-.9.24-1.258.655-.347.406-.564.961-.566 1.428zm1.824 3.38h-.004a2.926 2.926 0 0 1-1.82-.706v3.592h-1.303v-9.684h1.303v.705a2.926 2.926 0 0 1 1.82-.705c1.785.008 3.125 1.572 3.129 3.398-.004 1.83-1.344 3.391-3.125 3.4M9.462 13.746H8.16l.001.855a4.414 4.414 0 0 0-1.232-.673 3.202 3.202 0 0 0-1.043-.182c-1.278 0-2.349.943-2.349 2.246 0 .147.013.29.038.44.331 1.52 2.038 2.37 3.714 2.4.266 0 .532-.027.797-.08-.199.848-.727 1.146-1.587 1.21v-.009c-.65.002-1.2-.326-1.46-.746l-1.1.691c.523.832 1.487 1.354 2.568 1.356.77 0 1.524-.25 2.083-.795.555-.535.87-1.334.87-2.275l.003-.018zM1 12h11v11H1z"/>
        <path fill="#595959" d="M7.228 17.535c-.015.002-.028.002-.043.002-1.188 0-2.325-.877-2.329-1.334a1.079 1.079 0 0 1-.021-.205c.025-.592.359-.918 1.05-.953.181 0 .39.033.615.11.616.216 1.05.59 1.334.91h.002c.168.191.268.343.326.437v.871a2.64 2.64 0 0 1-.886.16c-.013.002-.026.002-.048.002M17.54 7.164l-.038-.006c-.953 0-1.822-.889-1.826-2.099.002-1.209.873-2.102 1.826-2.102.443-.002.9.242 1.254.656.351.408.57.965.57 1.434v.02c0 .468-.219 1.031-.57 1.435-.356.414-.81.658-1.217.662"/>
        <path fill="#595959" d="M20.625 1.658h-1.299v.71a2.921 2.921 0 0 0-1.826-.71c-1.779.01-3.121 1.572-3.125 3.4.004 1.827 1.346 3.39 3.129 3.401.707-.016 1.326-.293 1.822-.709v3.592h1.299zM12 1h11v11H12z"/>
    </g>
</svg>
