<svg xmlns="http://www.w3.org/2000/svg" width="32" height="32" viewBox="0 0 32 32">
    <defs>
        <clipPath id="a">
            <path d="M0 24h24V0H0z"/>
        </clipPath>
    </defs>
    <g clip-path="url(#a)" transform="matrix(1.33333 0 0 -1.33333 0 32)">
        <path fill="#595959" d="M8.6 6.565a1.786 1.786 0 0 1-.15.126l.005.006c.427.388.625.915.654 1.44l.007.003v.154l-.002.012c.002.574-.194 1.167-.66 1.59-.462.423-1.129.636-1.944.636h-.023c-.817 0-1.483-.213-1.947-.639-.464-.422-.66-1.013-.66-1.585 0-.002 0-.03.004-.049l-.002-.308v-.249h1.185v.592c.076.653.161.961 1.44 1.05 1.262-.089 1.347-.397 1.421-1.062-.074-.64-.159-.948-1.436-1.035h-.886V6.061h.904c1.391-.088 1.533-.47 1.608-1.212-.077-.722-.217-1.105-1.626-1.189-1.398.086-1.538.467-1.612 1.212v.582H3.695V4.86c-.002.01-.002-.006-.002-.01 0-.613.207-1.24.703-1.694.496-.456 1.213-.685 2.102-.683h.012c.883 0 1.595.23 2.09.683.477.432.687 1.031.702 1.621l.001.001v.091c0 .615-.208 1.247-.704 1.697M17.854 5.65v2.73L15.74 5.65z"/>
        <path fill="#595959" d="M20.871 4.463l-1.832.002V2.473h-1.186v1.99h-3.726v1.04l3.888 5.026h1.024V5.65h1.832zM12 1h11.002v11H12zM7.89 13.684H6.702v6.155l-1.013-.552-.567 1.042 1.753.955H7.89zM1 12h11v11H1zM14.693 13.7v.864l.02.043.04.095.003.012.047.101c.037.087.093.204.163.338.14.27.335.603.58.886.727.82 1.73 1.231 2.463 1.65.77.44 1.112.754 1.106 1.215v.018c-.075.732-.225 1.106-1.609 1.192-1.412-.086-1.552-.467-1.626-1.212v-.585h-1.187v.603c-.002.615.205 1.247.703 1.7.496.453 1.215.681 2.104.681.886 0 1.602-.228 2.1-.68.48-.438.69-1.04.701-1.634l.003-.005v-.07c-.01-1.193-.925-1.825-1.714-2.259-.819-.45-1.687-.85-2.152-1.397a2.581 2.581 0 0 1-.26-.369h4.126V13.7z"/>
    </g>
</svg>
