<svg xmlns="http://www.w3.org/2000/svg" width="32" height="32" viewBox="0 0 32 32">
    <defs>
        <clipPath id="a">
            <path d="M0 24h24V0H0z"/>
        </clipPath>
    </defs>
    <g clip-path="url(#a)" transform="matrix(1.33333 0 0 -1.33333 0 32)">
        <path fill="#595959" d="M19.428 1.888c-1.381.004-2.711 1.36-2.715 4.356.002 1.39.313 2.382.832 3.049.517.669 1.238.963 1.883.959 1.438-.024 2.133-1.274 2.458-2.305l-1.05-.333c-.303.925-.772 1.564-1.408 1.539-.62-.025-1.568-.44-1.613-2.91.039-2.762 1.04-3.251 1.613-3.256.568-.054 1.256.797 1.433 2.01h.002l1.085-.164c-.225-1.43-1.013-2.892-2.52-2.945m-7.102 5.958l-2.853-.003v8.315h2.35c1.224-.003 2.197-1.006 2.2-2.23a2.252 2.252 0 0 0-.575-1.491c.657-.441 1.075-1.24 1.076-2.115-.002-1.304-.916-2.46-2.198-2.476m-6.108 6.35l-.54 1.933H3.653l-.54-1.932H1.97l2.166 7.766h1.06l2.165-7.766zm9.446-3.06v5.933H8.332v5.93H1V12.865h7.332V6.932h7.332V1h7.332v10.137z"/>
        <path fill="#595959" d="M12.326 11.695h-1.754V8.946h1.754c.532 0 1.096.56 1.098 1.375-.002.821-.564 1.374-1.098 1.374M12.925 13.928c-.003.629-.502 1.129-1.101 1.129h-1.252v-2.26h1.252c.6.002 1.098.5 1.1 1.13M3.959 17.23h1.413l-.706 2.535z"/>
    </g>
</svg>
