<svg xmlns="http://www.w3.org/2000/svg" width="32" height="32" viewBox="0 0 32 32">
    <defs>
        <clipPath id="a">
            <path d="M0 24h24V0H0z"/>
        </clipPath>
    </defs>
    <path fill="red" d="M1.35 4.25h29.326V2.518H1.349zM1.35 29.183h29.326v-1.734H1.349zM7.053 24.732h1.734V7.117H7.053z"/>
    <g clip-path="url(#a)" transform="matrix(1.33333 0 0 -1.33333 0 32)">
        <path fill="red" d="M19.151 12.057c-.058-3.785-1.862-5.259-4.176-5.305h-3.384v10.612h3.384c2.314-.045 4.118-1.519 4.176-5.307m-4.176-6.606h.017c1.481 0 2.887.563 3.884 1.692 1.002 1.134 1.576 2.794 1.576 4.914 0 2.122-.574 3.782-1.576 4.916-1 1.136-2.413 1.695-3.9 1.691l-4.685-.002V5.452z"/>
    </g>
</svg>
