<svg xmlns="http://www.w3.org/2000/svg" width="32" height="32" viewBox="0 0 32 32">
    <defs>
        <clipPath id="a">
            <path d="M0 24h24V0H0z"/>
        </clipPath>
    </defs>
    <g clip-path="url(#a)" transform="matrix(1.33333 0 0 -1.33333 0 32)">
        <path fill="#595959" d="M12.001 3.683a8.328 8.328 0 0 0-8.318 8.316 8.328 8.328 0 0 0 8.318 8.319 8.327 8.327 0 0 0 8.316-8.32 8.326 8.326 0 0 0-8.316-8.315m0 17.817a9.5 9.5 0 1 1 0-19.002A9.5 9.5 0 0 1 12 21.5"/>
        <path fill="#595959" d="M12.001 17.617a5.618 5.618 0 1 1 0-11.236 5.618 5.618 0 1 1 0 11.236"/>
    </g>
</svg>
