<svg xmlns="http://www.w3.org/2000/svg" width="32" height="32" viewBox="0 0 32 32">
    <defs>
        <clipPath id="a">
            <path d="M0 24h24V0H0z"/>
        </clipPath>
    </defs>
    <path fill="#00f" d="M13.01 22.014h-1.84l.891-2.638zm-1.76-4.893l-2.902 8.588h1.574l.744-2.2h2.88l.791 2.2h1.577l-3.082-8.588z"/>
    <g clip-path="url(#a)" transform="matrix(1.33333 0 0 -1.33333 0 32)">
        <path fill="#00f" d="M12.043 5.97zm3.369 1.334l-.028-.148c0-.004-.27-1.362-1.361-1.34h-.044c-1.21 0-1.435.98-1.486 2.224.053 1.184.356 2.009 1.486 2.023.584-.008.872-.251 1.1-.523.103-.131.227-.337.34-.594l.058-.134.919.379-.035.128c-.002.009-.49 1.814-2.382 1.84-.004.004-.028.002-.03.002-.89.002-1.581-.431-1.972-1.05-.397-.618-.529-1.365-.531-2.075.002-.691.095-1.47.465-2.137h.001c.36-.674 1.069-1.183 2.027-1.181h.04c2.065.049 2.411 2.062 2.435 2.244l.019.14zM19.374 8.375l2.479 2.754h-1.372L18.02 8.487v2.643h-1.153V4.686h1.153V6.87l.607.676 2.295-2.859h1.473zM3.382 10.1h1.21c.14-.013.585-.054.585-.63-.029-.757-.24-.79-.545-.816H2.814V10.1zm-.568-2.51h1.963c.434-.002.766-.531.766-.901-.009-.72-.398-.9-.659-.91h-2.07zm3.015.664c.212.314.33.72.327 1.217-.002 1.376-1.147 1.688-1.565 1.69L1.75 11.16V4.722h3.135c.8.002 1.64.727 1.638 1.967 0 .766-.315 1.26-.693 1.565M6.97 12.844h13.475v5.369H6.97v1.66l-4.414-4.32 4.414-4.326z"/>
    </g>
</svg>
