<svg xmlns="http://www.w3.org/2000/svg" width="32" height="32" viewBox="0 0 32 32">
    <defs>
        <clipPath id="a">
            <path d="M0 24h24V0H0z"/>
        </clipPath>
    </defs>
    <g clip-path="url(#a)" transform="matrix(1.33333 0 0 -1.33333 0 32)">
        <path fill="#ff8c00" d="M19.962 9.636c.002-1.338-.547-2.563-1.348-3.447-.8-.887-1.841-1.402-2.741-1.396H8.139c-.901-.006-1.947.51-2.75 1.402-.804.887-1.353 2.116-1.353 3.458v.9c-.017.383.02 1.042.106 1.682a2.426 2.426 0 0 1 1.8-.806c.572 0 1.09.205 1.505.533a2.437 2.437 0 0 1 2.075-1.17 2.439 2.439 0 0 1 2.235 1.469 2.788 2.788 0 0 1 1.458-1.472 3.685 3.685 0 0 1-1.104-2.634h1.3a2.413 2.413 0 0 0 2.406 2.408v1.297l-1.485.002c-.996 0-1.511.778-1.53 1.544.003.568.546.918 1.263.942h3.304c.387.013 1.112-.28 1.659-.784.562-.502.939-1.165.934-1.81zm-15.16 7.266a1.138 1.138 0 1 0 2.278 0V13.87a1.14 1.14 0 0 0-1.137-1.141 1.145 1.145 0 0 0-1.141 1.14zm3.579 1.166c0 .625.514 1.139 1.14 1.14a1.147 1.147 0 0 0 1.139-1.134l-.001-.007v-4.835h.002a1.142 1.142 0 0 0-1.14-1.14c-.626 0-1.14.513-1.14 1.14v3.67zm4.718 1.14a1.146 1.146 0 0 0 1.139-1.138V15.647h-.173c-.733-.002-1.59-.305-2.103-.948v3.368c0 .627.513 1.139 1.137 1.14m3.58 0c.625 0 1.137-.514 1.139-1.14v-2.484c-.151.028-.303.058-.45.064h-1.83v2.424a1.145 1.145 0 0 0 1.14 1.137m2.44-4.115v2.975a2.442 2.442 0 0 1-2.44 2.44 2.426 2.426 0 0 1-1.79-.795 2.428 2.428 0 0 1-1.79.795 2.423 2.423 0 0 1-1.787-.795 2.43 2.43 0 0 1-1.79.796 2.441 2.441 0 0 1-2.268-1.555 2.425 2.425 0 0 1-1.31.389 2.442 2.442 0 0 1-2.44-2.441v-2.363c-.754-1.201-.73-3.076-.767-3.986v-.9c.03-3.39 2.666-6.118 5.403-6.16h7.734c2.734.042 5.36 2.763 5.39 6.143v2.119c-.061 1.512-1.021 2.69-2.145 3.338"/>
    </g>
</svg>
