<svg xmlns="http://www.w3.org/2000/svg" width="32" height="32" viewBox="0 0 32 32">
    <defs>
        <clipPath id="a">
            <path d="M0 24h24V0H0z"/>
        </clipPath>
    </defs>
    <g clip-path="url(#a)" transform="matrix(1.33333 0 0 -1.33333 0 32)">
        <path fill="#ff8c00" d="M16.214 9.23a1.007 1.007 0 0 0 0 2.013h4.476c.553 0 1.006-.452 1.008-1.006A1.013 1.013 0 0 0 20.69 9.23zm5.484-2.305a1.018 1.018 0 0 0-1.008-1.01h-1.067l-.01.001h-3.4a1.007 1.007 0 1 0 0 2.014h4.477c.553 0 1.006-.454 1.008-1.005m-2.085-4.323h-2.81c-.555 0-1.008.45-1.008 1.007a1.01 1.01 0 0 0 1.009 1.006h2.809a1.01 1.01 0 0 0 1.006-1.006 1.01 1.01 0 0 0-1.006-1.007m1.077 11.955a1.014 1.014 0 0 0 1.008-1.006 1.013 1.013 0 0 0-1.008-1.007h-4.476c-.556 0-1.008.451-1.008 1.007a1.01 1.01 0 0 0 1.008 1.006zm2.307-4.32c0 .652-.273 1.238-.708 1.657.435.42.708 1.004.708 1.657a2.31 2.31 0 0 1-2.307 2.307h-4.476c-.067 0-.131-.014-.197-.02.167.66.262 1.349.262 2.06 0 1.044-.213 2.023-.524 2.926-.134.395-.354.89-.814 1.329a1.992 1.992 0 0 1-1.374.566 1.966 1.966 0 0 1-1.962-1.963v-.722c-.035-2.934-.463-3.263-.954-3.79l-2.316-1.96a3.116 3.116 0 0 0-2.07-.789H1.022v-1.3h5.245a4.413 4.413 0 0 1 2.92 1.105l2.343 1.985c.74.691 1.413 1.752 1.378 4.75v.72a.66.66 0 0 0 .66.661.684.684 0 0 0 .473-.202c.267-.26.37-.489.486-.815.277-.8.454-1.637.454-2.502 0-1.11-.257-2.16-.71-3.096l.007-.003a2.317 2.317 0 0 1-.36-1.138h-.001A5.098 5.098 0 0 0 10.34 8.8l.387-1.24a6.392 6.392 0 0 1 3.22 2.28 2.29 2.29 0 0 1 .667-1.26 2.292 2.292 0 0 1-.707-1.655c0-.814.422-1.525 1.056-1.936a2.303 2.303 0 0 1-.47-1.38c0-.304.064-.592.17-.858h-3.76c-2.034.015-3.21.17-5.167 1.598-.726.54-1.624.801-2.547.801H1v-1.3h2.188c.679 0 1.3-.194 1.772-.545 2.074-1.56 3.763-1.854 5.79-1.854h5.257c.249-.092.516-.15.796-.15h2.809a2.308 2.308 0 0 1 2.305 2.308c0 .435-.128.84-.338 1.185a2.311 2.311 0 0 1 1.417 2.131c0 .653-.272 1.237-.707 1.656.435.42.707 1.003.707 1.656"/>
    </g>
</svg>
