<svg xmlns="http://www.w3.org/2000/svg" width="32" height="32" viewBox="0 0 32 32">
    <defs>
        <clipPath id="a">
            <path d="M0 24h24V0H0z"/>
        </clipPath>
    </defs>
    <g clip-path="url(#a)" transform="matrix(1.33333 0 0 -1.33333 0 32)">
        <path fill="#ff8c00" d="M19.768 9.668l-.941-2.576a.994.994 0 0 0-1.93.344c0 .117.018.225.056.324l.002.006c0 .003.002.005.003.006l.946 2.593a.995.995 0 0 0 1.27.588.996.996 0 0 0 .654-.937c0-.112-.02-.229-.06-.348m-2.592-6.086c-.735-.816-1.692-1.286-2.51-1.28H9.064c-.813-.006-1.768.461-2.501 1.276-.735.812-1.237 1.936-1.237 3.16v1.961c-.004.67.389 1.358.967 1.876.566.52 1.316.823 1.72.811h3.4c.405.004.67-.078.778-.165.098-.084.187-.173.197-.592-.051-.857-.4-1.754-1.895-1.781H9.117V7.547a2.181 2.181 0 0 0 2.179-2.179h1.3c0 .772-.266 1.472-.692 2.048.287.027.564.103.817.234.243-.554.682-1.024 1.297-1.248.256-.089.52-.137.784-.137.358 0 .695.106 1.008.261.243-.554.683-1.024 1.299-1.248.257-.09.52-.137.784-.137h.005c.078 0 .15.027.226.035a4.822 4.822 0 0 0-.948-1.594M7.68 20.613a1.09 1.09 0 0 0 1.085 1.088c.594 0 1.083-.491 1.085-1.086v-.004l.317-7.924H8.014c-.108-.004-.223-.032-.334-.048zm1.556 2.186v-.002l-.001.001zm3.682-8.817a.934.934 0 0 0 .332-.059h.003a.995.995 0 0 0 .592-1.283l-.352-.971-.016-.043a1.645 1.645 0 0 1-.508.637c-.376.274-.8.375-1.23.408l.239.653a1 1 0 0 0 .94.658M15.07 12.2a.995.995 0 0 0 1.275.596.995.995 0 0 0 .59-1.283l-1.2-3.296a.996.996 0 0 0-1.873.669zm4.548-.026l-.001-.001a2.253 2.253 0 0 1-.782.141c-.203 0-.4-.039-.593-.091-.128.791-.643 1.498-1.451 1.795a2.298 2.298 0 0 1-.786.138c-.358 0-.696-.107-1.01-.263-.242.555-.678 1.025-1.294 1.251v.001a2.32 2.32 0 0 1-.783.138c-.573 0-1.11-.237-1.53-.616l-.238 5.951c0-.004-.001-.003-.001-.003A2.39 2.39 0 0 1 8.863 23h-.008l-.09.002a2.39 2.39 0 0 1-2.387-2.389v-8.411c-1.217-.643-2.29-1.886-2.351-3.503V6.738C4.056 3.582 6.5 1.047 9.064 1.003h5.602c2.353.04 4.604 2.181 4.988 4.972.163.197.302.418.395.672l.943 2.583c.09.261.135.524.135.786 0 .936-.573 1.819-1.51 2.158"/>
    </g>
</svg>
