<svg xmlns="http://www.w3.org/2000/svg" width="32" height="32" viewBox="0 0 32 32">
    <defs>
        <clipPath id="a">
            <path d="M0 24h24V0H0z"/>
        </clipPath>
    </defs>
    <g clip-path="url(#a)" transform="matrix(1.33333 0 0 -1.33333 0 32)">
        <path fill="#ff8c00" d="M2.878 16.337h4.374a1.88 1.88 0 0 0 1.787 2.456h6.057a3.998 3.998 0 0 0 1.86-.526l2.597-1.597c.228-.156.9-.348 1.175-.333H23v-1.301h-2.272a4.005 4.005 0 0 0-1.857.526l-2.597 1.597c-.23.157-.9.349-1.178.334H9.039a.579.579 0 0 1 0-1.156h4.419v-1.302H2.878a.581.581 0 0 1-.578-.58.585.585 0 0 1 .578-.577H8.61v-1.3a.579.579 0 0 1 0-1.156h1.638v-1.3a.578.578 0 1 1 0-1.156H11.74l.355-1.117-.476-.258a.574.574 0 0 1 .268-1.084h2.987c.284-.021 1.242.208 1.397.333l2.6 1.599a4.018 4.018 0 0 0 1.857.527H23V7.665h-2.272c-.275.013-.947-.177-1.175-.333l-2.6-1.6c-.608-.344-1.46-.504-2.08-.525h-2.986a1.878 1.878 0 0 0-1.782 2.464 1.877 1.877 0 0 0-1.641 2.457 1.88 1.88 0 0 0-1.641 2.45H2.878A1.88 1.88 0 0 0 1 14.456a1.88 1.88 0 0 0 1.878 1.88"/>
    </g>
</svg>
