<svg xmlns="http://www.w3.org/2000/svg" width="32" height="32" viewBox="0 0 32 32">
    <defs>
        <clipPath id="a">
            <path d="M0 24h24V0H0z"/>
        </clipPath>
    </defs>
    <g clip-path="url(#a)" transform="matrix(1.33333 0 0 -1.33333 0 32)">
        <path fill="#ff8c00" d="M9.975 2.756c-.211-.156-.426-.22-.714-.221-.866-.037-2.271.756-2.38.889l-.241.133a3.668 3.668 0 0 1-.985.119c-.448 0-.858-.047-1.271-.047-.192 0-.387.01-.587.033-.756.139-.654.379-.738.678-.006.047-.006.074-.006.123.055.498.11.602.709.69l.025.005v-.002a5.709 5.709 0 0 0 1.65-.076c.243-.05.35-.088.36-.088l.415 1.153c-.05.017-.756.265-1.862.265-.206 0-.424-.01-.65-.03h-.004c-.071 0-.14-.003-.206-.011h-.004c-.415.016-1.005.096-1.138.682a.96.96 0 0 0-.04.262c.005.256.108.423.293.58.155.13.383.209.509.222.123-.02.203-.025.219-.027.009-.002.017.002.026.002v-.004h-.002c1.17-.027 2.24-.46 2.272-.46l.458 1.14c-.04.01-1.25.504-2.697.549v-.002c-.06.009-.117.027-.178.029-.112.025-.26.066-.407.139-.313.164-.521.33-.565.76a.944.944 0 0 0-.007.1c0 .56.462.763.865.79.027.002.052 0 .072-.004.116-.045.192-.064.199-.068.017-.004.036 0 .053-.004l-.001-.006a7.836 7.836 0 0 0 1.582-.455c.348-.143.495-.24.504-.24l.648 1.04c-.05.032-.918.56-2.463.85-.046.018-.09.04-.134.055-.253.125-.592.344-.583.797 0 .055.006.12.018.197.013.25.41.568.96.568.027 0 .066-.003.119-.007.44-.012 1.692-.69 2.329-1.348l.213-.137c.579-.22.747-.271.774-.28l.225-.093a12.247 12.247 0 0 1-.018-.644c.002-.727.057-1.71.327-2.657l1.18.34c-.222.768-.28 1.657-.277 2.317 0 .59.044.976.042.978H8.86a.616.616 0 0 1-.081.383s-.105.174-.226.498c-.12.32-.236.768-.236 1.229 0 .058.004.12.008.187.14 1.133.335 1.26.846 1.348.05.006.097.008.147.008.403-.032.477-.08.6-.365a1.05 1.05 0 0 0 .057-.344c.002-.186-.044-.487-.046-.946a9.852 9.852 0 0 1 .346-2.414c.025-.15.159-.986.159-2.054 0-.766-.072-1.633-.291-2.407a.605.605 0 0 1 .022-.396c.144-.34.39-1.446.384-2.428.018-.953-.254-1.73-.574-1.873m1.687 7.104c0 1.292-.18 2.275-.184 2.296l-.018.079c-.002 0-.198.619-.282 1.64a5.857 5.857 0 0 0-.021.453c0 .37.04.617.044.946 0 .219-.03.472-.12.738-.25.804-1.043 1.23-1.763 1.199-.083 0-.175-.004-.27-.016-1.177-.07-1.913-1.147-1.946-2.476a3.038 3.038 0 0 1-.012-.28 4.63 4.63 0 0 1 .114-.982.42.42 0 0 0-.05.02c-.86.789-2.004 1.482-2.973 1.597-.062.006-.143.014-.232.014-.951-.002-1.965-.518-2.17-1.588a2.396 2.396 0 0 1-.035-.404c.014-.418.125-.756.28-1.026-.55-.304-1.016-.863-1.024-1.728 0-.07.004-.147.014-.215a2.027 2.027 0 0 1 .69-1.387c-.348-.33-.601-.802-.622-1.427 0-.186.026-.383.08-.582.172-.623.533-1.006.928-1.241a1.774 1.774 0 0 1-.264-1.027c0-.062 0-.146.012-.246-.022-.457.415-1.647 1.81-1.774a6.19 6.19 0 0 1 .736-.041c.499.002.92.049 1.27.047.206 0 .383-.013.553-.05.543-.393 1.748-1.057 3.054-1.09.47 0 .975.11 1.399.429.95.618 1.1 1.813 1.117 2.89-.004 1.056-.196 2.066-.4 2.687.22.87.283 1.765.285 2.545M21.77 10.201c-.043-.39-.254-.557-.566-.72a1.96 1.96 0 0 0-.422-.139c-.058-.002-.112-.02-.167-.028-1.448-.045-2.654-.537-2.691-.549l.458-1.14a7.28 7.28 0 0 0 2.267.461v.004c.008 0 .016-.004.023-.002.017.002.1.006.224.027.125-.016.35-.092.502-.225.183-.156.29-.322.293-.58 0-.074-.012-.162-.035-.269-.13-.576-.722-.656-1.137-.672h-.003a1.753 1.753 0 0 1-.206.012h-.004a7.912 7.912 0 0 1-.654.03c-1.108 0-1.81-.249-1.858-.265l.414-1.156s.107.04.36.09c.25.051.624.103 1.084.103.177 0 .365-.007.568-.027l.023-.002c.595-.09.65-.19.707-.69l-.004-.146c-.082-.277.02-.517-.74-.656a4.853 4.853 0 0 0-.586-.033c-.416 0-.826.047-1.275.047-.306 0-.638-.024-.981-.12l-.24-.132c-.111-.133-1.515-.926-2.383-.889-.29.002-.504.066-.654.182-.38.183-.65.96-.631 1.91-.008.984.237 2.092.384 2.428a.616.616 0 0 1 .024.4c-.223.773-.297 1.641-.295 2.404 0 1.067.139 1.905.162 2.053a9.676 9.676 0 0 1 .34 2.42c0 .46-.05.762-.046.937a.93.93 0 0 0 .059.34c.126.295.199.342.602.373.049 0 .095-.002.144-.006.515-.089.71-.216.85-1.343.005-.06.007-.125.007-.194 0-.459-.115-.906-.236-1.23-.12-.324-.228-.494-.224-.5a.6.6 0 0 1-.081-.379h-.001l-.001.002c0-.002.042-.39.042-.98 0-.659-.06-1.55-.278-2.319l1.18-.336c.267.947.324 1.926.327 2.654 0 .256-.01.465-.018.643l.279.113c.016.004.206.067.72.262l.216.137c.634.658 1.886 1.336 2.324 1.347.056.004.093.006.119.006.547 0 .946-.314.962-.564.012-.07.016-.137.016-.199-.006-.338-.146-.497-.34-.655a1.327 1.327 0 0 0-.238-.142c-.046-.012-.093-.037-.14-.055-1.544-.289-2.412-.818-2.462-.85l.65-1.043c0 .002.15.096.502.245a8.06 8.06 0 0 0 1.584.453l-.002.007c.018.002.035 0 .052.004.007.002.083.022.2.07l.07.001c.4-.026.863-.227.863-.789l-.002-.14m1.23.14c-.008.865-.472 1.422-1.022 1.726a2.143 2.143 0 0 1 .248 1.43c-.211 1.072-1.223 1.59-2.171 1.59-.09 0-.167-.006-.233-.012-.967-.119-2.113-.81-2.971-1.6l-.05-.019c.066.295.11.627.113.982 0 .088-.002.182-.01.28-.033 1.33-.77 2.408-1.956 2.478a2.4 2.4 0 0 1-.262.014c-.72.031-1.515-.395-1.761-1.196a2.22 2.22 0 0 1-.13-.746c.005-.33.05-.572.048-.937 0-.137-.004-.287-.017-.459-.08-1.02-.287-1.637-.28-1.639l-.018-.074c-.003-.023-.19-1.008-.19-2.3.003-.782.07-1.675.29-2.548-.207-.623-.394-1.63-.401-2.685.018-1.078.168-2.272 1.17-2.924.365-.283.863-.395 1.332-.395h.012c1.306.034 2.512.698 3.057 1.09.167.037.346.051.548.051.352.002.776-.045 1.275-.047.227 0 .474.01.735.041 1.397.127 1.834 1.317 1.815 1.8.002.08.005.144.005.22.021.37-.079.726-.265 1.027.397.236.76.623.934 1.25a2.018 2.018 0 0 1-.549 2A2.04 2.04 0 0 1 23 10.342M12.616 22.692h-1.228V19.5h1.228zM19.518 20.439l-.866.868-2.254-2.258.867-.867zM7.61 19.05l-2.257 2.258-.868-.868 2.256-2.256z"/>
    </g>
</svg>
