<svg xmlns="http://www.w3.org/2000/svg" width="32" height="32" viewBox="0 0 32 32">
    <defs>
        <clipPath id="a">
            <path d="M0 24h24V0H0z"/>
        </clipPath>
    </defs>
    <g clip-path="url(#a)" transform="matrix(1.33333 0 0 -1.33333 0 32)">
        <path fill="#ff8c00" d="M16.214 12.757a1.01 1.01 0 0 0-1.008 1.006c0 .556.452 1.007 1.008 1.009h4.476a1.014 1.014 0 0 0 1.008-1.01 1.014 1.014 0 0 0-1.008-1.005zm5.484-2.308a1.012 1.012 0 0 0-1.008-1.004h-4.476c-.554 0-1.003.447-1.007.998v.009a1.01 1.01 0 0 0 1.007 1.006h4.476a1.016 1.016 0 0 0 1.008-1.01m-6.492 6.629c0 .556.454 1.007 1.008 1.009h4.476a1.017 1.017 0 0 0 1.008-1.01 1.014 1.014 0 0 0-1.008-1.005h-4.476a1.01 1.01 0 0 0-1.008 1.006m4.406 4.323a1.013 1.013 0 0 0 1.007-1.008 1.01 1.01 0 0 0-1-1.005h-2.823a1.009 1.009 0 0 0-1.001 1.005 1.01 1.01 0 0 0 1.008 1.008zm3.385-7.637c0 .653-.273 1.239-.708 1.658.435.419.708 1.004.708 1.656 0 .959-.585 1.78-1.416 2.13.209.347.337.749.337 1.185a2.306 2.306 0 0 1-2.306 2.307h-2.81c-.28 0-.546-.058-.795-.15h-5.104c-2.095.017-3.814-.254-5.941-1.853-.474-.351-1.095-.544-1.775-.544H1V18.85h2.186c.925 0 1.822.26 2.548.8 1.958 1.43 3.134 1.584 5.168 1.599h3.76a2.295 2.295 0 0 1-.17-.858c.002-.52.18-.994.47-1.38a2.297 2.297 0 0 1-.35-3.592 2.295 2.295 0 0 1-.666-1.26 6.403 6.403 0 0 1-3.22 2.283L10.34 15.2a5.086 5.086 0 0 0 3.574-4.86h.004a2.3 2.3 0 0 1 .359-1.136L14.27 9.2a7.08 7.08 0 0 0 .708-3.095c0-.867-.177-1.701-.453-2.503-.116-.325-.218-.554-.486-.816a.687.687 0 0 0-.473-.201.661.661 0 0 0-.661.66v.72c.037 2.998-.636 4.06-1.34 4.717l-2.39 2.027a4.387 4.387 0 0 1-2.91 1.095H1.02v-1.298h5.245a3.116 3.116 0 0 0 2.058-.778l2.366-2.003c.452-.494.88-.823.915-3.76v-.72c0-1.082.877-1.96 1.962-1.961.545 0 1.029.233 1.373.566.462.438.68.932.815 1.328.31.903.524 1.88.524 2.927 0 .71-.095 1.399-.262 2.059.065-.006.13-.02.197-.02h4.476a2.309 2.309 0 0 1 2.307 2.305c0 .653-.273 1.239-.708 1.658.435.42.708 1.004.708 1.656"/>
    </g>
</svg>
