<svg xmlns="http://www.w3.org/2000/svg" width="32" height="32" viewBox="0 0 32 32">
    <defs>
        <clipPath id="a">
            <path d="M0 24h24V0H0z"/>
        </clipPath>
    </defs>
    <g clip-path="url(#a)" transform="matrix(1.33333 0 0 -1.33333 0 32)">
        <path fill="#ff8c00" d="M18.104 7.615c-.25 0-.511.022-.772.065a4.057 4.057 0 0 0-1.792.781l-.415.454-1.904 2.078a.444.444 0 0 0-.104.29.43.43 0 0 0 .15.331.454.454 0 0 0 .304.12.45.45 0 0 0 .34-.16l1.333-1.534.983.851-.914 1.053.085.488.665 3.857c.012.081.099.161.222.163.02 0 .026-.002.039-.004.137-.023.2-.118.207-.2l-.504-2.883-.103-.57h.002v-.003l.55-.096.73-.13v.002h.002l.025.147.58 3.262c.006.045.007.087.012.13l.09.523c.013.084.097.16.22.164.022 0 .028-.002.035-.004.15-.027.217-.128.217-.212l-.007-.057-.037-.206c-.004-.019-.016-.034-.02-.054l-.528-3.02-.132-.747h.003l-.001-.004.895-.156.385-.069v.002h.002l.074.427.599 3.37a.209.209 0 0 0 .204.14c.02 0 .027-.003.039-.003.142-.026.214-.13.212-.216 0-.002 0-.02-.006-.056l-.113-.634c-.005-.022-.02-.039-.023-.06l-.4-2.314-.146-.826h.004v-.002l.554-.096.724-.128v.002h.002l.075.427.485 2.74a.219.219 0 0 0 .204.135c.02 0 .029-.003.037-.003.145-.026.217-.13.215-.212 0-.004 0-.02-.005-.047l-1.045-5.86c-.093-.72-1.1-1.438-2.533-1.436m-7.335 3.362L9.34 9.42l-.006.005-.06-.077-.813-.886a4.039 4.039 0 0 0-1.795-.782 4.759 4.759 0 0 0-.768-.065c-1.433-.002-2.441.718-2.532 1.436l-1.05 5.875c-.002.015-.002.031-.002.031-.002.082.068.19.204.214.017.002.025.004.045.004.113-.002.189-.07.212-.148l.394-2.223.162-.932.003.001v-.002l.473.084.805.14-.001.002.004.001-.157.882-.39 2.251c-.003.02-.016.035-.02.055l-.12.67-.002.031c-.002.082.07.19.202.212.022.004.027.006.049.006a.215.215 0 0 0 .204-.136l.655-3.688.019-.113.189.033 1.092.19-.001.003-.048.28-.062.358-.545 3.13c-.004.024-.02.042-.024.065l-.04.22-.001.031c-.002.085.068.187.199.212a.22.22 0 0 0 .05.004c.125-.002.209-.08.222-.164l.095-.546c.004-.04.003-.076.012-.122l.425-2.387.175-1.005.004.001v-.003l.605.108.672.116-.001.003.003.001-.11.612-.004.025-.491 2.82c.006.078.07.175.198.196.016.004.024.006.047.004.123 0 .21-.08.224-.167l.749-4.34-.911-1.053.983-.85 1.33 1.535a.45.45 0 0 0 .64.041.435.435 0 0 0 .152-.335.466.466 0 0 0-.115-.306m12.216 3.981a1.526 1.526 0 0 1-1.277 1.49c-.09.017-.189.023-.274.023-.05 0-.096-.02-.144-.024a1.533 1.533 0 0 1-1.19 1.03 1.439 1.439 0 0 1-.277.027c-.149 0-.289-.034-.428-.074a1.527 1.527 0 0 1-1.26.664 1.516 1.516 0 0 1-1.13-.527 1.577 1.577 0 0 1-.448.16 1.518 1.518 0 0 1-1.775-1.216l-.62-3.59c-.193.07-.39.112-.592.111a1.745 1.745 0 0 1-1.57-.98 1.745 1.745 0 0 1-1.571.981 1.75 1.75 0 0 1-.59-.113l-.62 3.59a1.514 1.514 0 0 1-1.792 1.214 1.479 1.479 0 0 1-.43-.156 1.52 1.52 0 0 1-1.133.526 1.506 1.506 0 0 1-1.261-.664c-.138.04-.278.074-.426.073-.083 0-.184-.006-.295-.029A1.518 1.518 0 0 1 2.71 16.45c-.05.005-.096.025-.147.025-.084 0-.181-.006-.29-.029a1.523 1.523 0 0 1-1.26-1.489c0-.078.006-.173.028-.276l1.046-5.857c.325-1.64 2.014-2.507 3.81-2.507.325 0 .656.027.989.082 1.294.233 2.384.856 3.065 1.711l.3.381 1.487 1.625c.114.131.198.274.268.422.069-.143.137-.286.244-.41l1.44-1.573.38-.472c.682-.842 1.766-1.452 3.039-1.684.337-.054.667-.084.994-.084 1.797.002 3.486.868 3.813 2.51l1.047 5.873c.013.086.022.17.022.261"/>
    </g>
</svg>
