<svg xmlns="http://www.w3.org/2000/svg" width="32" height="32" viewBox="0 0 32 32">
    <defs>
        <clipPath id="a">
            <path d="M0 24h24V0H0z"/>
        </clipPath>
    </defs>
    <g clip-path="url(#a)" transform="matrix(1.33333 0 0 -1.33333 0 32)">
        <path fill="#595959" d="M20.593 19.943H4.057V3.407H2.756v17.837h17.837zM18.81 5.19L5.838 5.188V6.49H17.51v11.672h1.3zm2.1 17.791H3.087a2.073 2.073 0 0 1-2.067-2.067V3.09a2.07 2.07 0 0 1 2.067-2.066H20.91a2.069 2.069 0 0 1 2.066 2.066v17.825a2.07 2.07 0 0 1-2.066 2.067"/>
    </g>
</svg>
