<?xml version="1.0" encoding="UTF-8" standalone="no"?>
<svg xmlns="http://www.w3.org/2000/svg" height="24" width="24" version="1.1">
	<g transform="matrix(1,0,0,-1,-261,400)" id="KDDI_D_002">
		<path id="path16" style="fill:#ff6;fill-opacity:1;fill-rule:nonzero;stroke:none" d="m 282.9,378.5 c -1.8,0 -18.6,0 -19.6,0 -1.7,0 -2,0.9 -1.4,1.9 0.7,1.2 9.2,15.7 10,17.3 0.8,1.6 1.6,1.5 2.5,0.1 0.9,-1.5 9,-15.7 9.8,-17 0.8,-1.4 0.4,-2.3 -1.3,-2.3 z" />
		<path id="path18" style="fill:#fc0;fill-opacity:1;fill-rule:nonzero;stroke:none" d="m 262.8,378.5 c 0,0 -1.1,0.6 -1,1.1 0,0.5 2.5,1 2.5,1 l 17.8,-0.1 2.3,-0.2 c 0,0 0.5,-1.2 -0.1,-1.5 -0.6,-0.3 -21.5,-0.3 -21.5,-0.3 z" />
		<path id="path20" style="fill:#fc0;fill-opacity:1;fill-rule:nonzero;stroke:none" d="m 273.1,395.9 -1,1.9 c 0,0 0.4,1.1 1.1,1 0.7,0 1.2,-0.8 1.2,-0.8 l -1.1,-2.1 z" />
		<path id="path22" style="fill:#f90;fill-opacity:1;fill-rule:nonzero;stroke:none" d="m 274.1,398 -0.8,-2.1 8.8,-15.4 2.4,-0.4 z" />
		<path id="path24" style="fill:#f90;fill-opacity:1;fill-rule:nonzero;stroke:none" d="m 264.5,380.4 -1,-1.8 19.3,0.1 -0.8,1.7 z" />
		<path id="path26" style="fill:#fc0;fill-opacity:1;fill-rule:nonzero;stroke:none" d="m 282,380.2 c -0.3,0 -17.4,0 -17.7,0 -0.3,0 -0.5,0.3 -0.2,0.6 0.2,0.2 8.6,14.8 8.8,15.2 0.1,0.4 0.4,0.3 0.6,0.1 0.1,-0.3 8.6,-14.9 8.7,-15.2 0.2,-0.4 0.1,-0.7 -0.2,-0.7 z" />
		<path id="path28" style="fill:none;stroke:black;stroke-width:1;stroke-linecap:butt;stroke-linejoin:round;stroke-miterlimit:4;stroke-dasharray:none;stroke-opacity:1" d="m 282.9,378.5 c -1.8,0 -18.6,0 -19.6,0 -1.7,0 -2,0.9 -1.4,1.9 0.7,1.2 9.2,15.9 10,17.3 0.8,1.6 1.6,1.5 2.5,0.1 0.9,-1.5 9,-15.7 9.8,-17 0.8,-1.4 0.4,-2.3 -1.3,-2.3 z" />
		<path id="path30" style="fill:red;fill-opacity:1;fill-rule:nonzero;stroke:none" d="m 273.1,385.6 c -0.1,0 -1.3,4.7 -1.3,4.7 -0.1,0.6 -0.2,1.1 -0.2,1.6 0,0.8 0.5,1.3 1.5,1.3 1,0 1.6,-0.5 1.6,-1.3 0,-0.5 -0.2,-1 -0.3,-1.6 0,0 -1.2,-4.7 -1.3,-4.7 z" />
		<path id="path32" style="fill:red;fill-opacity:1;fill-rule:nonzero;stroke:none" d="m 274.7,382.5 c 0,-0.9 -0.7,-1.6 -1.6,-1.6 -0.8,0 -1.6,0.6 -1.6,1.6 0,0.9 0.8,1.6 1.6,1.6 0.9,0 1.6,-0.7 1.6,-1.6 z" />
	</g>
</svg>