<?xml version="1.0" encoding="UTF-8" standalone="no"?>
<svg xmlns="http://www.w3.org/2000/svg" height="24" width="24">
	<g transform="matrix(1,0,0,-1,-262,400)" id="KDDI_D_003">
		<path id="path16" style="fill:#36f;fill-opacity:1;fill-rule:nonzero;stroke:none" d="m 270.2,384.8 c 0,1.3 0.4,2.2 1.3,3.1 2.8,2.4 4.9,3.5 4.9,5.1 0,1.5 -1.2,2.4 -2.7,2.4 -2.9,0 -3.6,-1.5 -3.7,-3.1 0,-0.1 0,-1.3 0,-1.3 h -5.8 c 0,0 0,1.3 0,1.4 0.3,4.7 3.5,7.7 9.4,7.7 4.6,0 8.4,-2.3 8.4,-6.7 0,-2.6 -1.2,-3.7 -4.7,-6.3 -1.2,-0.8 -1.4,-2.1 -1.4,-2.8 v -0.4 h -5.7 z" />
		<path id="path18" style="fill:#309;fill-opacity:1;fill-rule:nonzero;stroke:none" d="m 276.1,376.3 h -6 v 5.5 h 6 z" />
		<path id="path20" style="fill:#39f;fill-opacity:1;fill-rule:nonzero;stroke:none" d="m 272.2,378.2 -2.1,3.6 h 6 z" />
		<path id="path22" style="fill:#3cf;fill-opacity:1;fill-rule:nonzero;stroke:none" d="m 273.1,379 -3,-2.7 v 5.5 z" />
		<path id="path24" style="fill:#36f;fill-opacity:1;fill-rule:nonzero;stroke:none" d="m 274.7,377.6 h -3.1 v 2.9 h 3.1 z" />
		<path id="path26" style="fill:#39f;fill-opacity:1;fill-rule:nonzero;stroke:none" d="m 264.2,392.4 c 0,-0.1 0,-1.4 0,-1.4 h 1.9 c 0,0 0,1.3 0,1.4 0.3,4.4 3.2,7.4 8.4,7.7 -0.3,0 -0.6,0 -0.9,0 -5.9,0 -9.1,-3 -9.4,-7.7 z" />
		<path id="path28" style="fill:#39f;fill-opacity:1;fill-rule:nonzero;stroke:none" d="m 273.5,387.9 c 2.8,2.4 4.4,3.5 4.4,5.1 0,1.5 -1.3,2.2 -2.2,2.3 -0.4,0.1 -0.9,0.1 -1.2,0 1.1,-0.3 1.9,-1.1 1.9,-2.3 0,-1.6 -2.1,-2.7 -4.9,-5.1 -0.9,-0.9 -1.3,-1.8 -1.3,-3.1 v -0.9 h 1.9 v 0.9 c 0,1.3 0.4,2.2 1.4,3.1 z" />
		<path id="path30" style="fill:#3cf;fill-opacity:1;fill-rule:nonzero;stroke:none" d="m 272.4,387.9 c 2.8,2.4 4.7,3.5 4.7,5.1 0,1.5 -1.7,2 -1.3,1.6 0.3,-0.4 0.6,-0.9 0.6,-1.6 0,-1.6 -2.1,-2.7 -4.9,-5.1 -0.9,-0.9 -1.3,-1.8 -1.3,-3.1 v -0.9 h 0.7 v 0.9 c 0,1.3 0.6,2.2 1.5,3.1 z" />
		<path id="path32" style="fill:#3cf;fill-opacity:1;fill-rule:nonzero;stroke:none" d="m 264.2,392.4 c 0,-0.1 0,-1.4 0,-1.4 h 1 c 0,0 0,1.3 0,1.4 0.3,4.6 3.3,7.5 8.9,7.7 -0.2,0 -0.4,0 -0.5,0 -5.9,0 -9.1,-3 -9.4,-7.7 z" />
		<path id="path34" style="fill:#309;fill-opacity:1;fill-rule:nonzero;stroke:none" d="m 273.5,400.1 c -0.1,0 -0.3,0 -0.5,0 4.4,-0.2 8,-2.5 8,-6.7 0,-2.6 -1.2,-3.7 -4.8,-6.3 -1.1,-0.8 -1.2,-2.1 -1.2,-2.8 v -0.4 h 0.9 v 0.4 c 0,0.7 0.2,2 1.4,2.8 3.5,2.6 4.7,3.7 4.7,6.3 0,4.4 -3.9,6.7 -8.5,6.7 z" />
		<path id="path36" style="fill:#309;fill-opacity:1;fill-rule:nonzero;stroke:none" d="m 269,392.3 c 0,-0.1 0,-1.3 0,-1.3 h 1 c 0,0 0,1.2 0,1.3 0.1,1.5 0.7,2.9 3.1,3.1 -0.1,0 -0.5,0.3 -0.6,0.3 -2.9,0 -3.4,-1.8 -3.5,-3.4 z" />
	</g>
</svg>