<svg xmlns="http://www.w3.org/2000/svg" height="24" width="24" viewbox="-1 -1 25 25">
	<g transform="matrix(1,0,0,-1,-261,400)" id="KDDI_D_013">
		<path id="path16" style="fill:#fc3;fill-opacity:1;fill-rule:nonzero;stroke:none" d="m 273.5,388.2 c 0,-6.3 -2.7,-11.4 -6,-11.4 -3.2,0 -5.9,5.1 -5.9,11.4 0,6.3 2.7,11.5 5.9,11.5 3.3,0 6,-5.2 6,-11.5 z" />
		<path id="path18" style="fill:#fc3;fill-opacity:1;fill-rule:nonzero;stroke:none" d="m 270.1,378 c 0,0 7.6,7.6 9.3,7.9 1.6,0.2 1.6,-1.9 2.7,-1.9 1.1,0 2.4,1.1 2.4,2 v 4.5 c 0,0.8 -1.3,1.9 -2.4,1.9 -1.1,0 -1.1,-2.1 -2.7,-1.9 -1.7,0.3 -9.3,7.9 -9.3,7.9" />
		<path id="path20" style="fill:#c93;fill-opacity:1;fill-rule:nonzero;stroke:none" d="m 272.4,388.4 c 0,-2.8 -0.9,-5.1 -2.1,-5.1 -0.6,0 0.2,2.6 -0.2,3.8 -0.2,0.8 -1.9,0.1 -1.9,1.3 0,2.8 1,5 2.1,5 1.2,0 2.1,-2.2 2.1,-5 z" />
		<path id="path22" style="fill:#c93;fill-opacity:1;fill-rule:nonzero;stroke:none" d="m 262.4,393.4 8.4,-5.2 0.5,0.6 -1.7,9.9 c 0,0 -1.5,1.5 -3.8,0.1 -2.7,-1.6 -3.4,-5.4 -3.4,-5.4 z" />
		<path id="path24" style="fill:#c93;fill-opacity:1;fill-rule:nonzero;stroke:none" d="m 282.4,392.3 c 0,0 0.9,-1.4 0.9,-2.1 -0.1,-0.7 0,-5.8 0,-5.8 0,0 0.9,0.8 1,1.6 0.1,0.8 0.1,4.2 -0.1,4.8 -0.2,0.6 -1.8,1.5 -1.8,1.5 z" />
		<path id="path26" style="fill:#960;fill-opacity:1;fill-rule:nonzero;stroke:none" d="m 263.7,396.5 6.6,-7.6 v 0 l -4.1,10.3 c 0,0 -0.9,-0.5 -1.4,-1.1 -0.5,-0.5 -1.1,-1.6 -1.1,-1.6 z" />
		<path id="path28" style="fill:#ff3;fill-opacity:1;fill-rule:nonzero;stroke:none" d="m 269.6,386.3 -2.8,-9.6 c 0,0 4.2,1.9 4.8,3.2 0.5,1.4 1.2,2.8 1.2,2.8 l -1.5,4.6 z" />
		<path id="path30" style="fill:#fc3;fill-opacity:1;fill-rule:nonzero;stroke:none" d="m 271.6,388.2 c 0,1.7 -1.1,2.1 -1.1,2.1 0,0 -4.4,-0.5 -5,-1 -0.7,-0.4 -0.6,-1.7 0,-2.1 0.6,-0.4 5,-1 5,-1 0,0 1.1,0.3 1.1,2 z" />
		<path id="path32" style="fill:#ffc;fill-opacity:1;fill-rule:nonzero;stroke:none" d="m 271,386.8 0.8,-7.1 -3,-2.8 1.8,9.5 z" />
		<path id="path34" style="fill:#960;fill-opacity:1;fill-rule:nonzero;stroke:none" d="m 265.8,387.4 c 0,0 2.1,-0.4 3.7,0.4 1.6,0.7 1.8,2 1.8,2 0,0 0.5,-1.9 0.4,-2.3 -0.4,-1.2 -1.4,-1.2 -1.4,-1.2 z" />
		<path id="path36" style="fill:#ffc;fill-opacity:1;fill-rule:nonzero;stroke:none" d="m 267.6,388.7 c 0,-0.5 -0.4,-0.8 -0.9,-0.8 -0.5,0 -0.9,0.3 -0.9,0.8 0,0.4 0.4,0.8 0.9,0.8 0.5,0 0.9,-0.4 0.9,-0.8 z" />
		<path id="path38" style="fill:#960;fill-opacity:1;fill-rule:nonzero;stroke:none" d="m 272.6,380.8 c 0,0 5.8,5.3 7.3,5.3 0.8,0 1.7,-1.9 2.2,-1.9 1.7,0 2.2,1.2 2.2,2.3 0,0.5 0,1.3 0,1.3 0,0 -1.1,-1.3 -1.7,-1.4 -0.7,0 -2,1 -2.7,1 -0.8,0 -2.6,-0.8 -3.2,-1.3 -0.6,-0.5 -3.7,-2.4 -3.7,-2.4 z" />
		<path id="path40" style="fill:#ffc;fill-opacity:1;fill-rule:nonzero;stroke:none" d="m 273.2,393.8 c 0,0 5.5,-4.6 6.4,-4.5 1,0 1.8,1.3 2.5,1.3 0.8,0 0.7,-0.4 0,-0.4 -0.8,0 -1.9,-1.8 -2.5,-1.7 -0.7,0.1 -6.4,3 -6.4,3 z" />
		<path id="path42" style="fill:#ffc;fill-opacity:1;fill-rule:nonzero;stroke:none" d="m 283,390 c 0,-0.6 -0.3,-1 -0.7,-1 -0.3,0 -0.6,0.4 -0.6,1 0,0.6 0.3,1.1 0.6,1.1 0.4,0 0.7,-0.5 0.7,-1.1 z" />
		<path id="path44" style="fill:none;stroke:black;stroke-width:1;stroke-linecap:round;stroke-linejoin:miter;stroke-miterlimit:4;stroke-dasharray:none;stroke-opacity:1" d="m 270.3,378 c 0,0 7.4,7.6 9.1,7.9 1.6,0.2 1.6,-1.9 2.7,-1.9 1.1,0 2.4,1.1 2.4,2 v 4.5 c 0,0.8 -1.3,1.9 -2.4,1.9 -1.1,0 -1.1,-2.1 -2.7,-1.9 -1.7,0.3 -9.1,7.9 -9.1,7.9" />
		<path id="path46" style="fill:none;stroke:black;stroke-width:1;stroke-linecap:round;stroke-linejoin:miter;stroke-miterlimit:4;stroke-dasharray:none;stroke-opacity:1" d="m 270.7,390.3 c 0,0 -4.6,-0.5 -5.2,-1 -0.8,-0.4 -0.7,-1.7 0,-2.1 0.6,-0.4 5.2,-1 5.2,-1" />
		<path id="path48" style="fill:none;stroke:black;stroke-width:1;stroke-linecap:butt;stroke-linejoin:miter;stroke-miterlimit:4;stroke-dasharray:none;stroke-opacity:1" d="m 273.5,388.2 c 0,-6.3 -2.7,-11.4 -6,-11.4 -3.2,0 -5.9,5.1 -5.9,11.4 0,6.3 2.7,11.5 5.9,11.5 3.3,0 6,-5.2 6,-11.5 z" />
		<path id="path50" style="fill:none;stroke:black;stroke-width:1;stroke-linecap:round;stroke-linejoin:miter;stroke-miterlimit:4;stroke-dasharray:none;stroke-opacity:1" d="m 282.1,384 v -2.6" />
	</g>
</svg>