<svg xmlns="http://www.w3.org/2000/svg" width="24" height="24">
	<g transform="translate(-288,-386)" id="KDDI_D_014">
		<path style="stroke:#330066; stroke-width:4; stroke-linejoin:round; stroke-linecap:round; fill:none" d="M 308.828 391.814C 308.413 390.653 307.33 389.89 306.031 389.89L 294.25 389.89C 292.6 389.89 291.25 391.24 291.25 392.89L 291.25 395.407C 291.25 397.057 292.6 397.89 294.25 397.89L 306.062 397.89C 307.713 397.89 309.062 399.24 309.062 400.89L 309.062 402.89C 309.062 404.54 307.713 405.89 306.062 405.89L 294 405.89C 292.701 405.89 291.524 405.146 291.109 403.985"/>
		<path style="stroke:#330066; stroke-width:3.2; stroke-linejoin:round; stroke-linecap:round; fill:none" d="M 300.734 387.501L 300.734 408.314L 300.734 387.501z"/>
		<path style="stroke:#cc33ff; stroke-width:3; stroke-linejoin:round; stroke-linecap:round; fill:none" d="M 309.062 391.14C 308.647 389.98 307.283 389.39 305.984 389.39L 293.5 389.39C 291.85 389.39 290.5 390.74 290.5 392.39L 290.5 394.876C 290.5 396.526 291.85 397.39 293.5 397.39L 305.312 397.39C 306.963 397.39 308.312 398.74 308.312 400.39L 308.312 402.39C 308.312 404.04 306.963 405.39 305.312 405.39L 294.327 405.39C 293.028 405.39 291.915 404.553 291.5 403.393"/>
		<path style="stroke:#cc33ff; stroke-width:3; stroke-linejoin:round; stroke-linecap:round; fill:none" d="M 299.289 387.423L 299.289 408.392L 299.289 387.423z"/>
		<path style="stroke:#9900ff; stroke-width:3; stroke-linejoin:round; stroke-linecap:round; fill:none" d="M 306.312 397.89"/>
		<path style="stroke:#9900ff; stroke-width:2.4; stroke-linejoin:round; stroke-linecap:round; fill:none" d="M 300 387.126L 300 408.673"/>
		<path style="stroke:#9900ff; stroke-width:2.3; stroke-linejoin:round; stroke-linecap:round; fill:none" d="M 308.812 391.89C 308.397 390.73 307.611 389.89 306.312 389.89L 294 389.89C 292.35 389.89 291 391.24 291 392.89L 291 394.89C 291 396.54 292.35 397.89 294 397.89L 306.062 397.89C 307.713 397.89 309.062 399.24 309.062 400.89L 309.062 402.89C 309.062 404.54 307.713 405.89 306.062 405.89L 294 405.89C 292.701 405.89 291.588 405.053 291.173 403.893"/>
	</g>
</svg>