<svg xmlns="http://www.w3.org/2000/svg" height="24" width="24">
	<g transform="matrix(1,0,0,-1,-262,400)" id="KDDI_D_015">
		<path id="path16" style="fill:#fc3;fill-opacity:1;fill-rule:nonzero;stroke:none" d="m 279.9,381.8 c -5.1,0 -9.3,3.9 -9.3,8.8 0,4.2 3.1,7.7 7.2,8.6 -1.1,0.4 -2.3,0.6 -3.5,0.6 -6.4,0 -11.6,-5.2 -11.6,-11.6 0,-6.4 5.2,-11.5 11.6,-11.5 4.5,0 8.4,2.6 10.3,6.3 -1.4,-0.8 -3,-1.2 -4.7,-1.2 z" />
		<path id="path18" style="fill:#ff9;fill-opacity:1;fill-rule:nonzero;stroke:none" d="m 275.4,377.9 c -6,0 -11,4.6 -11,10.4 0,2.3 0.8,5.1 2.2,6.8 2,2.6 5.7,4.2 5.7,4.2 -3.9,0 -9.6,-4.7 -9.6,-11.1 0,-6.4 5.2,-11.5 11.6,-11.5 4.3,0 8,2.3 10,5.8 -2,-2.7 -5.3,-4.6 -8.9,-4.6 z" />
		<path id="path20" style="fill:#f90;fill-opacity:1;fill-rule:nonzero;stroke:none" d="m 283.7,382.2 c 0,0 -3.2,-0.6 -4,-0.6 -5.1,0 -9.1,4.1 -9.1,9 0.1,5.8 4.9,7.8 4.9,7.8 0,0 -5.5,-1.3 -6.5,-6.2 -0.4,-2.5 -0.1,-4.9 1.1,-7 1.1,-2 3.1,-3.6 5.8,-4.1 5,-0.9 7.8,1.1 7.8,1.1 z" />
		<path id="path22" style="fill:none;stroke:black;stroke-width:1;stroke-linecap:butt;stroke-linejoin:round;stroke-miterlimit:4;stroke-dasharray:none;stroke-opacity:1" d="m 279.9,382.1 c -5.1,0 -9.1,3.6 -9.1,8.5 0,4.2 2.9,7.7 7,8.6 -1.1,0.4 -2.3,0.6 -3.5,0.6 -6.4,0 -11.6,-5.2 -11.6,-11.6 0,-6.4 5.2,-11.5 11.6,-11.5 4.5,0 8.4,2.6 10.3,6.3 -1.4,-0.5 -3,-0.9 -4.7,-0.9 z" />
	</g>
</svg>