<svg xmlns="http://www.w3.org/2000/svg" height="24" width="24">
	<g transform="matrix(1,0,0,-1,-262,400)" id="KDDI_D_016">
		<path id="path16" style="fill:#fc3;fill-opacity:1;fill-rule:nonzero;stroke:none" d="m 274.4,400 -11.2,-11.5 10.2,-0.3 -11.3,-11.7 h 6.5 l 6.8,8.6 h 3.7 l -5.3,-8.6 h 5.5 l 4.4,11.4 h -5.3 l -0.3,0.6 1.9,2.3 h -9.6 l -0.6,0.8 8.5,8.4 z" />
		<path id="path18" style="fill:#ff9;fill-opacity:1;fill-rule:nonzero;stroke:none" d="m 275.5,400 -10.5,-10.7 -2.1,-1 11.6,11.7 z" />
		<path id="path20" style="fill:#ff9;fill-opacity:1;fill-rule:nonzero;stroke:none" d="m 273.7,388.2 h 0.7 l -11,-11.7 h -1.5 z" />
		<path id="path22" style="fill:#ff9;fill-opacity:1;fill-rule:nonzero;stroke:none" d="m 279.1,385.4 0.7,-0.1 -4.6,-8.8 h -1.4 z" />
		<path id="path24" style="fill:#f90;fill-opacity:1;fill-rule:nonzero;stroke:none" d="m 279.2,390.9 -2.3,-2.5 1.2,0.1 1.9,2.3 z" />
		<path id="path26" style="fill:#f90;fill-opacity:1;fill-rule:nonzero;stroke:none" d="m 283.2,388.2 -5.3,-11.7 h 1.4 l 4.4,11.7 z" />
		<path id="path28" style="fill:#f90;fill-opacity:1;fill-rule:nonzero;stroke:none" d="m 275.5,385.4 -0.9,-0.2 -7.7,-8.7 h 1.7 z" />
		<path id="path30" style="fill:none;stroke:black;stroke-width:1;stroke-linecap:round;stroke-linejoin:round;stroke-miterlimit:4;stroke-dasharray:none;stroke-opacity:1" d="m 274.1,399.8 -11.7,-11.6 h 10.9 l -11.5,-11.5" />
		<path id="path32" style="fill:none;stroke:black;stroke-width:1;stroke-linecap:round;stroke-linejoin:round;stroke-miterlimit:4;stroke-dasharray:none;stroke-opacity:1" d="m 279.6,376.8 4.5,11.5 h -5.7 l 2.4,2.8 h -11 l 8.7,8.7" />
		<path id="path34" style="fill:none;stroke:black;stroke-width:1;stroke-linecap:round;stroke-linejoin:miter;stroke-miterlimit:4;stroke-dasharray:none;stroke-opacity:1" d="m 273.7,376.8 5,8.3 h -3 l -6.5,-8.4" />
	</g>
</svg>