<svg xmlns="http://www.w3.org/2000/svg" height="24" width="24">
	<g transform="matrix(1,0,0,-1,-264,408)" id="KDDI_D_019">
		<path id="path16" style="fill:#fc0;fill-opacity:1;fill-rule:nonzero;stroke:none" d="m 287.5,389.6 c 0,-2.8 -5.1,-5.1 -11.5,-5.1 -6.4,0 -11.5,2.3 -11.5,5.1 0,2.8 5.1,5.1 11.5,5.1 6.4,0 11.5,-2.3 11.5,-5.1 z" />
		<path id="path18" style="fill:#fc0;fill-opacity:1;fill-rule:nonzero;stroke:none" d="m 287.5,389.6 c 0,1.3 -1.3,3.9 -2.3,5.6 -1,1.7 -0.9,4.7 -1.4,5.9 -0.8,2.3 -3,4.3 -4,5.1 -1,0.7 -2,1.2 -3.8,1.2 -1.7,0 -2.6,-0.5 -3.8,-1.2 -1.3,-0.8 -3.2,-2.8 -4,-5.1 -0.5,-1.2 -0.4,-4.2 -1.4,-5.9 -1,-1.7 -2.3,-4.3 -2.3,-5.6" />
		<path id="path20" style="fill:#c90;fill-opacity:1;fill-rule:nonzero;stroke:none" d="m 276.4,407.2 c 0,0 1.3,-2.7 1.3,-4.1 0,-1.5 0.1,-4.1 0,-5.6 -0.1,-1.3 0.1,-2.6 0.1,-2.6 l 4,-0.6 c 0,0 -1,1.6 -1.5,3.6 -0.5,2.1 -0.3,4 -0.9,5.7 -0.6,1.8 -1.5,2.9 -3,3.6 z" />
		<path id="path22" style="fill:#ff3;fill-opacity:1;fill-rule:nonzero;stroke:none" d="m 276,407.4 c 0,0 -2.5,-3.5 -2.7,-5.1 -0.1,-1.5 0,-4 -0.2,-4.7 -0.4,-1.7 -2,-2.9 -2,-2.9 l -2.8,-1 c 0,0 1.9,1.9 2.6,3.4 0.9,1.7 0.4,4.2 0.8,5.7 0.8,3.6 4.3,4.6 4.3,4.6 z" />
		<path id="path24" style="fill:#960;fill-opacity:1;fill-rule:nonzero;stroke:none" d="m 276.4,407.2 c 0,0 2.7,-1.4 2.9,-4.1 0.2,-1.5 0.4,-3.8 0.6,-5.3 0.3,-1.5 1.2,-3.5 1.2,-3.5 l 2.2,-0.6 c 0,0 -1.6,1.9 -1.9,4 -0.2,1.8 -0.1,4.3 -0.9,5.9 -0.8,1.7 -2.4,3.2 -4.1,3.6 z" />
		<path id="path26" style="fill:#ffc;fill-opacity:1;fill-rule:nonzero;stroke:none" d="m 274,402.1 c 0,-0.7 -0.6,-1.4 -1.5,-1.4 -0.8,0 -1.5,0.7 -1.5,1.4 0,0.8 0.7,1.4 1.5,1.4 0.9,0 1.5,-0.6 1.5,-1.4 z" />
		<path id="path28" style="fill:#c90;fill-opacity:1;fill-rule:nonzero;stroke:none" d="m 267.1,386.8 c 0,0 2,1 2.4,1.7 0.4,0.6 2.9,5 2.9,5 l 4,-1.2 c 0,0 -1.2,-4.3 -1.3,-5 -0.1,-0.8 0.9,-2.6 0.9,-2.6 0,0 -5,0.5 -6,0.8 z" />
		<path id="path30" style="fill:#ff3;fill-opacity:1;fill-rule:nonzero;stroke:none" d="m 286.3,387.5 c 0,0 -1.7,0.5 -3.5,1.9 -1.7,1.4 -3.7,4 -3.7,4 l -3.5,-1.1 c 0,0 1.2,-4.3 1.3,-5 0.1,-0.8 1,-2.5 1,-2.5 0,0 1.9,0 4.1,0.7 2.3,0.8 4.3,2 4.3,2 z" />
		<path id="path32" style="fill:#ffc;fill-opacity:1;fill-rule:nonzero;stroke:none" d="m 278.5,390.7 c 0,0 1.7,-2.1 2.4,-2.9 0.8,-0.8 2.2,-1.8 2.2,-1.8 l -2.3,-0.6 c 0,0 -1.6,2.1 -2,2.6 -0.3,0.5 -1.1,2.2 -1.1,2.2 z" />
		<path id="path34" style="fill:#960;fill-opacity:1;fill-rule:nonzero;stroke:none" d="m 272.8,390.7 c 0,0 -1.1,-2.2 -1.8,-3.1 -0.7,-0.9 -2.1,-1.5 -2.1,-1.5 l 2.9,-1.1 c 0,0 0,1.4 0.2,2.1 0.2,0.7 1.2,2.6 1.2,2.6 z" />
		<path id="path36" style="fill:#fc0;fill-opacity:1;fill-rule:nonzero;stroke:none" d="m 279.5,394.1 v -2.2 c 0,-1.9 -1.5,-3.5 -3.5,-3.5 v 0 c -1.9,0 -3.4,1.6 -3.4,3.5 v 2.3" />
		<path id="path38" style="fill:#ffc;fill-opacity:1;fill-rule:nonzero;stroke:none" d="m 276,390.7 c 0,-0.5 -0.4,-0.9 -0.9,-0.9 -0.6,0 -1,0.4 -1,0.9 0,0.5 0.4,1 1,1 0.5,0 0.9,-0.5 0.9,-1 z" />
		<path id="path40" style="fill:#c90;fill-opacity:1;fill-rule:nonzero;stroke:none" d="m 276.8,394.3 c 0,0 0,-2.7 0,-3 0,-0.3 0.2,-0.7 0.7,-0.7 0.5,0 0.6,0.2 0.8,1 0.1,0.8 0.2,2.6 0.2,2.6 z" />
		<path id="path42" style="fill:none;stroke:black;stroke-width:1.0101;stroke-linecap:butt;stroke-linejoin:miter;stroke-miterlimit:4;stroke-dasharray:none;stroke-opacity:1" d="m 287.5,389.6 c 0,1.3 -1.3,3.9 -2.3,5.6 -1,1.7 -1,4.6 -1.4,5.9 -0.5,2.2 -2.4,4.2 -3.7,5.1 -1,0.6 -2.3,1.2 -4.1,1.2 -1.7,0 -2.9,-0.5 -4.1,-1.2 -1.3,-0.8 -3.1,-2.8 -3.7,-5.1 -0.4,-1.3 -0.4,-4.2 -1.4,-5.9 -1,-1.7 -2.3,-4.3 -2.3,-5.6" />
		<path id="path44" style="fill:none;stroke:black;stroke-width:0.9091;stroke-linecap:butt;stroke-linejoin:miter;stroke-miterlimit:4;stroke-dasharray:none;stroke-opacity:1" d="m 279.5,394.1 v -2.2 c 0,-1.9 -1.5,-3.5 -3.5,-3.5 v 0 c -1.9,0 -3.4,1.6 -3.4,3.5 v 2.3" />
		<path id="path46" style="fill:none;stroke:black;stroke-width:1.0101;stroke-linecap:butt;stroke-linejoin:miter;stroke-miterlimit:4;stroke-dasharray:none;stroke-opacity:1" d="m 287.5,389.6 c 0,-2.8 -5.1,-5.1 -11.5,-5.1 -6.4,0 -11.5,2.3 -11.5,5.1 0,2.8 5.1,5.1 11.5,5.1 6.4,0 11.5,-2.3 11.5,-5.1 z" />
	</g>
</svg>