<svg xmlns="http://www.w3.org/2000/svg" width="24" height="24">
	<g transform="translate(-288,-386)" id="KDDI_D_026">
		<g>
			<path style="stroke:none; fill:#ff9999" d="M 312.01 394.876L 303.01 394.876L 302 395.876L 311 395.876L 312.01 394.876z"/>
			<path style="stroke:none; fill:#ff9999" d="M 297 385.876L 297 394.876L 288 394.876L 288 400.886L 289 399.876L 289 395.876L 298 395.876L 298 386.876L 302 386.876L 303.01 385.876L 297 385.876z"/>
			<path style="stroke:none; fill:#ff9999" d="M 298 399.876L 297 400.886L 297 409.886L 298 408.876L 298 399.876z"/>
			<path style="stroke:none; fill:#990000" d="M 311 399.876L 311 395.876L 312.01 394.876L 312.01 400.886L 303.01 400.886L 303.01 409.886L 297 409.886L 298 408.876L 302 408.876L 302 399.876L 311 399.876z"/>
			<path style="stroke:none; fill:#990000" d="M 302 395.876L 303.01 394.876L 303.01 385.876L 302 386.876L 302 395.876z"/>
			<path style="stroke:none; fill:#990000" d="M 289 399.876L 288 400.886L 297 400.886L 298 399.876L 289 399.876z"/>
			<path style="stroke:none; fill:#ff0000" d="M 311 395.876L 302 395.876L 302 386.876L 298 386.876L 298 395.876L 289 395.876L 289 399.876L 298 399.876L 298 408.876L 302 408.876L 302 399.876L 311 399.876L 311 395.876z"/>
		</g>
	</g>
</svg>
