<svg xmlns="http://www.w3.org/2000/svg" width="24" height="24">
	<g transform="translate(-288,-386)" id="KDDI_D_028">
		<g>
			<path style="stroke:#3333ff; stroke-width:0.8; stroke-linecap:round; fill:#3333ff" d="M 299.511 386.39L 299.511 409.39L 300.5 409.39L 300.5 386.39L 299.511 386.39z"/>
			<path style="stroke:#3333ff; stroke-width:0.8; stroke-linecap:round; fill:#3333ff" d="M 311.5 397.39L 288.5 397.39L 288.5 398.372L 311.5 398.372L 311.5 397.39z"/>
			<path style="stroke:#3333ff; stroke-width:1.5; stroke-linecap:square; fill:#3333ff" d="M 297 394.89L 303 400.89"/>
			<path style="stroke:#3333ff; stroke-width:1.5; stroke-linecap:square; fill:#3333ff" d="M 303 394.89L 297 400.89"/>
			<g>
				<path style="stroke:#3333ff; stroke-width:0.9; stroke-linejoin:round; stroke-linecap:round; fill:#3333ff" d="M 292.48 405.89C 292.48 406.155 292.265 406.37 292 406.37C 291.734 406.37 291.52 406.155 291.52 405.89C 291.52 405.624 291.734 405.409 292 405.409C 292.265 405.409 292.48 405.624 292.48 405.89z"/>
				<path style="stroke:#3333ff; stroke-width:0.9; stroke-linejoin:round; stroke-linecap:round; fill:#3333ff" d="M 307.52 405.89C 307.52 406.155 307.734 406.37 308 406.37C 308.266 406.37 308.48 406.155 308.48 405.89C 308.48 405.624 308.266 405.409 308 405.409C 307.734 405.409 307.52 405.624 307.52 405.89z"/>
				<path style="stroke:#3333ff; stroke-width:0.9; stroke-linejoin:round; stroke-linecap:round; fill:#3333ff" d="M 292.48 389.89C 292.48 389.625 292.265 389.41 292 389.41C 291.734 389.41 291.52 389.625 291.52 389.89C 291.52 390.155 291.734 390.37 292 390.37C 292.265 390.37 292.48 390.155 292.48 389.89z"/>
				<path style="stroke:#3333ff; stroke-width:0.9; stroke-linejoin:round; stroke-linecap:round; fill:#3333ff" d="M 307.52 389.89C 307.52 389.625 307.734 389.41 308 389.41C 308.266 389.41 308.48 389.625 308.48 389.89C 308.48 390.155 308.266 390.37 308 390.37C 307.734 390.37 307.52 390.155 307.52 389.89z"/>
			</g>
			<path style="stroke:#3333ff; stroke-width:0.9; stroke-linejoin:round; stroke-linecap:round; fill:#3333ff" d="M 304.5 392.89C 304.5 392.613 304.724 392.39 305 392.39C 305.276 392.39 305.5 392.613 305.5 392.89C 305.5 393.166 305.276 393.39 305 393.39C 304.724 393.39 304.5 393.166 304.5 392.89z"/>
			<path style="stroke:#3333ff; stroke-width:0.9; stroke-linejoin:round; stroke-linecap:round; fill:#3333ff" d="M 294.5 402.89C 294.5 402.613 294.724 402.39 295 402.39C 295.276 402.39 295.5 402.613 295.5 402.89C 295.5 403.166 295.276 403.39 295 403.39C 294.724 403.39 294.5 403.166 294.5 402.89z"/>
			<path style="stroke:#3333ff; stroke-width:0.9; stroke-linejoin:round; stroke-linecap:round; fill:#3333ff" d="M 294.5 392.89C 294.5 392.613 294.724 392.39 295 392.39C 295.276 392.39 295.5 392.613 295.5 392.89C 295.5 393.166 295.276 393.39 295 393.39C 294.724 393.39 294.5 393.166 294.5 392.89z"/>
			<path style="stroke:#3333ff; stroke-width:0.9; stroke-linejoin:round; stroke-linecap:round; fill:#3333ff" d="M 304.5 402.89C 304.5 402.613 304.724 402.39 305 402.39C 305.276 402.39 305.5 402.613 305.5 402.89C 305.5 403.166 305.276 403.39 305 403.39C 304.724 403.39 304.5 403.166 304.5 402.89z"/>
		</g>
	</g>
</svg>