<svg xmlns="http://www.w3.org/2000/svg" height="24" width="24">
	<g transform="matrix(1,0,0,-1,-262,400)" id="KDDI_D_028">
		<path id="path16" style="fill:#ff9;fill-opacity:1;fill-rule:nonzero;stroke:none" d="m 282.1,387.4 c 0,-4.9 -4,-8.9 -8.9,-8.9 -5,0 -9,4 -9,8.9 0,5 4,9 9,9 4.9,0 8.9,-4 8.9,-9 z" />
		<path id="path18" style="fill:#ffc;fill-opacity:1;fill-rule:nonzero;stroke:none" d="m 278.4,384.6 3.1,-0.1 -1.7,-2.8 -2.6,-1.9 -0.9,2.2 z" />
		<path id="path20" style="fill:yellow;fill-opacity:1;fill-rule:nonzero;stroke:none" d="m 273.2,396.1 c -5,0 -8.8,-3.7 -8.8,-8.7 0,-1.9 0.6,-3.4 1.6,-4.9 1.5,-1.3 3.4,-2.2 5.5,-2.2 4.9,0 8.9,4 8.9,9 0,1.9 -0.8,3.4 -1.8,4.9 -1.5,1.2 -3.3,1.9 -5.4,1.9 z" />
		<path id="path22" style="fill:#f90;fill-opacity:1;fill-rule:nonzero;stroke:none" d="m 275.5,394.5 c 1.6,0 3.1,-0.7 4.4,-1.5 -1.7,1.9 -4,3.1 -6.7,3.1 -5,0 -8.8,-3.7 -8.8,-8.7 0,-3.3 1.7,-5.9 4.4,-7.5 -1.3,1.6 -2.3,3.4 -2.3,5.6 0,5 4,9 9,9 z" />
		<path id="path24" style="fill:#f60;fill-opacity:1;fill-rule:nonzero;stroke:none" d="m 267.9,390.3 -2.9,0.1 c 0,0 0.7,1.6 1.6,2.8 0.9,1.1 2.6,1.9 2.6,1.9 l 0.8,-2.2 z" />
		<path id="path26" style="fill:#fc0;fill-opacity:1;fill-rule:nonzero;stroke:none" d="m 279.7,387.1 c 0,-3.6 -2.9,-6.5 -6.5,-6.5 -3.6,0 -6.5,2.9 -6.5,6.5 0,3.6 2.9,6.5 6.5,6.5 3.6,0 6.5,-2.9 6.5,-6.5 z" />
		<path id="path28" style="fill:black;fill-opacity:1;fill-rule:nonzero;stroke:none" d="m 274.5,387.2 c 0,-0.7 -0.6,-1.3 -1.3,-1.3 -0.7,0 -1.3,0.6 -1.3,1.3 0,0.7 0.6,1.3 1.3,1.3 0.7,0 1.3,-0.6 1.3,-1.3 z" />
		<path id="path30" style="fill:none;stroke:black;stroke-width:1;stroke-linecap:round;stroke-linejoin:miter;stroke-miterlimit:4;stroke-dasharray:none;stroke-opacity:1" d="m 273.2,387.2 -5.4,3.6" />
		<path id="path32" style="fill:none;stroke:black;stroke-width:1;stroke-linecap:round;stroke-linejoin:miter;stroke-miterlimit:4;stroke-dasharray:none;stroke-opacity:1" d="m 273.2,387.2 6.5,4.2" />
		<path id="path34" style="fill:#333;fill-opacity:1;fill-rule:nonzero;stroke:none" d="m 273.8,387.2 c 0,-0.3 -0.3,-0.6 -0.6,-0.6 -0.3,0 -0.6,0.3 -0.6,0.6 0,0.3 0.3,0.6 0.6,0.6 0.3,0 0.6,-0.3 0.6,-0.6 z" />
		<path id="path36" style="fill:#666;fill-opacity:1;fill-rule:nonzero;stroke:black;stroke-width:1;stroke-linecap:butt;stroke-linejoin:miter;stroke-miterlimit:4;stroke-dasharray:none;stroke-opacity:1" d="m 279.7,396.9 -1.2,-1.7" />
		<path id="path38" style="fill:#999;fill-opacity:1;fill-rule:nonzero;stroke:none" d="m 276.4,398.3 c 0,0.2 0.1,0.3 0.2,0.5 0.8,1.4 2.8,1.7 4.4,0.8 1.7,-1 2.3,-2.9 1.5,-4.3 0,-0.1 -0.1,-0.2 -0.2,-0.4 z" />
		<path id="path40" style="fill:#666;fill-opacity:1;fill-rule:nonzero;stroke:none" d="m 282.5,395.3 c 0,-0.1 -0.1,-0.2 -0.2,-0.4 l -5.9,3.4 c 0,0.2 0.1,0.3 0.2,0.5 0.2,0.4 0.6,0.7 1,0.9 l 5.3,-3 c 0,-0.5 -0.1,-1 -0.4,-1.4 z" />
		<path id="path42" style="fill:#333;fill-opacity:1;fill-rule:nonzero;stroke:none" d="m 282.5,395.3 c 0,-0.1 -0.1,-0.2 -0.2,-0.4 l -5.9,3.4 c 0,0.2 0.1,0.3 0.2,0.5 0,0.1 0.1,0.2 0.1,0.2 l 6,-3.4 c -0.1,-0.1 -0.1,-0.2 -0.2,-0.3 z" />
		<path id="path44" style="fill:#ccc;fill-opacity:1;fill-rule:nonzero;stroke:none" d="m 280.3,398.9 c 0,-0.2 -0.4,-0.3 -0.8,-0.2 -0.4,0.2 -0.7,0.5 -0.6,0.7 0.1,0.3 0.5,0.4 0.9,0.2 0.4,-0.1 0.6,-0.4 0.5,-0.7 z" />
		<path id="path46" style="fill:#666;fill-opacity:1;fill-rule:nonzero;stroke:black;stroke-width:1;stroke-linecap:butt;stroke-linejoin:miter;stroke-miterlimit:4;stroke-dasharray:none;stroke-opacity:1" d="m 266.7,396.9 1.2,-1.9" />
		<path id="path48" style="fill:#999;fill-opacity:1;fill-rule:nonzero;stroke:none" d="m 270,398.3 c -0.1,0.2 -0.1,0.3 -0.2,0.5 -0.8,1.4 -2.8,1.7 -4.5,0.8 -1.6,-1 -2.3,-2.9 -1.5,-4.3 0.1,-0.1 0.2,-0.2 0.3,-0.4 z" />
		<path id="path50" style="fill:#666;fill-opacity:1;fill-rule:nonzero;stroke:none" d="m 263.8,395.3 c 0.1,-0.1 0.2,-0.2 0.3,-0.4 l 5.9,3.4 c -0.1,0.2 -0.1,0.3 -0.2,0.5 -0.3,0.4 -0.6,0.7 -1,0.9 l -5.3,-3 c 0,-0.5 0,-1 0.3,-1.4 z" />
		<path id="path52" style="fill:#333;fill-opacity:1;fill-rule:nonzero;stroke:none" d="m 263.8,395.3 c 0.1,-0.1 0.2,-0.2 0.3,-0.4 l 5.9,3.4 c -0.1,0.2 -0.1,0.3 -0.2,0.5 -0.1,0.1 -0.1,0.2 -0.2,0.2 l -5.9,-3.4 c 0,-0.1 0,-0.2 0.1,-0.3 z" />
		<path id="path54" style="fill:#ccc;fill-opacity:1;fill-rule:nonzero;stroke:none" d="m 266.1,398.8 c 0.2,-0.2 0,-0.6 -0.4,-1 -0.4,-0.3 -0.9,-0.3 -1.1,-0.1 -0.1,0.2 0,0.7 0.4,1 0.5,0.3 0.9,0.3 1.1,0.1 z" />
		<path id="path56" style="fill:#666;fill-opacity:1;fill-rule:nonzero;stroke:none" d="m 273.1,396.5 h -0.7 v 2.6 h 0.7 z" />
		<path id="path58" style="fill:#333;fill-opacity:1;fill-rule:nonzero;stroke:none" d="m 273.8,396.5 h -0.7 v 2.6 h 0.7 z" />
		<path id="path60" style="fill:none;stroke:black;stroke-width:1.5;stroke-linecap:round;stroke-linejoin:miter;stroke-miterlimit:4;stroke-dasharray:none;stroke-opacity:1" d="m 272.3,398.9 h 2.6" />
		<path id="path62" style="fill:none;stroke:#333;stroke-width:1.5;stroke-linecap:round;stroke-linejoin:miter;stroke-miterlimit:4;stroke-dasharray:none;stroke-opacity:1" d="m 271.4,398.9 h 0.9" />
		<path id="path64" style="fill:none;stroke:black;stroke-width:1;stroke-linecap:butt;stroke-linejoin:miter;stroke-miterlimit:4;stroke-dasharray:none;stroke-opacity:1" d="m 282.1,387.4 c 0,-4.9 -4,-8.9 -8.9,-8.9 -5,0 -9,4 -9,8.9 0,5 4,9 9,9 4.9,0 8.9,-4 8.9,-9 z" />
		<path id="path66" style="fill:none;stroke:black;stroke-width:1;stroke-linecap:round;stroke-linejoin:miter;stroke-miterlimit:4;stroke-dasharray:none;stroke-opacity:1" d="m 268.6,379.6 -1.3,-2.8" />
		<path id="path68" style="fill:none;stroke:black;stroke-width:1;stroke-linecap:round;stroke-linejoin:miter;stroke-miterlimit:4;stroke-dasharray:none;stroke-opacity:1" d="m 277.7,379.6 1.4,-2.8" />
	</g>
</svg>