<svg xmlns="http://www.w3.org/2000/svg" width="24" height="24">
	<g transform="translate(-288,-386)" id="KDDI_D_029">
		<g>
			<path style="stroke:none; fill:none" d="M 312 409.89L 288 409.89L 288 385.89L 312 385.89L 312 409.89z"/>
		</g>
		<g>
			<g>
				<path style="stroke:none; fill:#66ff00" d="M 288.058 397.892L 292.996 395.892L 300.012 388.876L 300.012 385.989L 288.058 397.892z"/>
				<path style="stroke:none; fill:#339900" d="M 311.926 397.892L 307.011 395.892L 300.012 388.876L 300.012 385.989L 311.926 397.892z"/>
			</g>
			<path style="stroke:none; fill:#006600" d="M 292.996 395.892L 288.058 397.892L 295 397.892L 297.006 395.892L 292.996 395.892z"/>
			<path style="stroke:none; fill:#006600" d="M 311.926 397.892L 307.011 395.892L 303 395.892L 304.984 397.892L 311.926 397.892z"/>
			<path style="stroke:none; fill:#006600" d="M 304.984 397.892L 303 395.892L 303 407.898L 304.984 409.897L 304.984 397.892z"/>
			<path style="stroke:none; fill:#33cc00" d="M 297.006 407.898L 295 409.897L 295 397.892L 297.006 395.892L 297.006 407.898z"/>
			<path style="stroke:none; fill:#339900" d="M 307.011 395.892L 300.012 388.876L 292.996 395.892L 297.006 395.892L 297.006 407.898L 303 407.898L 303 395.892L 307.011 395.892z"/>
			<path style="stroke:none; fill:#006600" d="M 297.006 407.898L 295 409.897L 304.984 409.897L 303 407.898L 297.006 407.898z"/>
		</g>
	</g>
</svg>
