<svg xmlns="http://www.w3.org/2000/svg" width="24" height="24">
	<g transform="translate(-288,-386)" id="KDDI_D_030">
		<g>
			<path style="stroke:none; fill:none" d="M 312 409.89L 288 409.89L 288 385.89L 312 385.89L 312 409.89z"/>
		</g>
		<g>
			<g>
				<g>
					<path style="stroke:none; fill:#66ff00" d="M 302.994 387.907L 305 385.908L 295.016 385.908L 297 387.907L 302.994 387.907z"/>
					<path style="stroke:none; fill:#006600" d="M 311.942 397.918L 306.999 399.897L 299.988 406.924L 299.988 409.816L 311.942 397.918z"/>
					<path style="stroke:none; fill:#33cc00" d="M 306.999 399.897L 311.942 397.918L 305 397.918L 302.994 399.897L 306.999 399.897z"/>
					<path style="stroke:none; fill:#006600" d="M 302.994 387.907L 305 385.908L 305 397.876L 302.994 399.897L 302.994 387.907z"/>
				</g>
				<path style="stroke:none; fill:#339900" d="M 288.074 397.918L 292.989 399.897L 299.988 406.924L 299.988 409.816L 288.074 397.918z"/>
				<path style="stroke:none; fill:#66ff00" d="M 288.074 397.918L 292.989 399.897L 297.012 399.897L 295.016 397.918L 288.074 397.918z"/>
				<path style="stroke:none; fill:#33cc00" d="M 295.016 397.892L 297.012 399.897L 297 387.907L 295.016 385.908L 295.016 397.892z"/>
				<path style="stroke:none; fill:#339900" d="M 292.989 399.897L 299.988 406.924L 307.015 399.897L 302.994 399.897L 302.994 387.907L 297 387.907L 297.012 399.897L 292.989 399.897z"/>
			</g>
		</g>
	</g>
</svg>
