<svg xmlns="http://www.w3.org/2000/svg" width="24" height="24">
	<g transform="translate(-288,-386)" id="KDDI_D_034">
		<g>
			<path style="stroke:none; fill:none" d="M 312 409.89L 288 409.89L 288 385.89L 312 385.89L 312 409.89z"/>
		</g>
		<g>
			<g>
				<path style="stroke:none; fill:#cc00cc" d="M 309.801 399.94L 305.94 401.436L 300 407.376L 300 409.74L 309.801 399.94z"/>
				<path style="stroke:none; fill:#ff33ff" d="M 290.199 399.94L 294.06 401.435L 300 407.376L 300 409.74L 290.199 399.94z"/>
				<path style="stroke:none; fill:#ff33ff" d="M 294.06 401.435L 300 407.376L 305.94 401.436L 294.06 401.435z"/>
				<path style="stroke:none; fill:#ff99ff" d="M 290.199 399.94L 294.06 401.435L 305.94 401.436L 309.801 399.94L 290.199 399.94z"/>
			</g>
			<g>
				<path style="stroke:none; fill:#cc00cc" d="M 309.801 385.89L 305.94 387.386L 300 393.326L 300 395.691L 309.801 385.89z"/>
				<path style="stroke:none; fill:#ff33ff" d="M 290.199 385.89L 294.06 387.385L 300 393.326L 300 395.691L 290.199 385.89z"/>
				<path style="stroke:none; fill:#ff33ff" d="M 294.06 387.385L 300 393.326L 305.94 387.386L 294.06 387.385z"/>
				<path style="stroke:none; fill:#ff99ff" d="M 290.199 385.89L 294.06 387.385L 305.94 387.386L 309.801 385.89L 290.199 385.89z"/>
			</g>
		</g>
	</g>
</svg>
