<svg xmlns="http://www.w3.org/2000/svg" width="24" height="24">
	<g transform="translate(-288,-386)" id="KDDI_D_040">
		<g>
			<g>
				<path style="stroke:#993300; stroke-width:0.75; stroke-linejoin:round; stroke-linecap:round; fill:#993300" d="M 311.5 397.89C 311.5 404.241 306.352 409.39 300 409.39C 293.649 409.39 288.5 404.241 288.5 397.89C 288.5 391.539 293.649 386.39 300 386.39C 306.352 386.39 311.5 391.539 311.5 397.89z"/>
				<path style="stroke:#cc0000; stroke-width:0.75; stroke-linejoin:round; stroke-linecap:round; fill:#cc0000" d="M 300 386.39C 293.649 386.39 288.5 391.539 288.5 397.89C 288.5 400.811 289.598 403.469 291.392 405.498C 293.421 407.292 296.079 408.39 299 408.39C 305.352 408.39 310.5 403.241 310.5 396.89C 310.5 393.969 309.402 391.31 307.607 389.282C 305.579 387.488 302.921 386.39 300 386.39z"/>
				<path style="stroke:#ff0033; stroke-width:0.75; stroke-linejoin:round; stroke-linecap:round; fill:#ff0033" d="M 300 386.39C 293.649 386.39 288.5 391.539 288.5 397.89C 288.5 400.298 289.255 402.522 290.523 404.367C 292.368 405.634 294.592 406.39 297 406.39C 303.352 406.39 308.5 401.241 308.5 394.89C 308.5 392.482 307.745 390.258 306.478 388.413C 304.632 387.145 302.408 386.39 300 386.39z"/>
				<path style="stroke:#ff99cc; stroke-width:1; stroke-linejoin:round; stroke-linecap:round; fill:#ff99cc" d="M 291.5 398.89C 291.5 399.166 291.276 399.39 291 399.39C 290.724 399.39 290.5 399.166 290.5 398.89C 290.5 398.613 290.724 398.39 291 398.39C 291.276 398.39 291.5 398.613 291.5 398.89z"/>
				<path style="stroke:#ff99cc; stroke-width:0.75; stroke-linejoin:round; stroke-linecap:round; fill:#ff99cc" d="M 299.719 388.189C 295 388.095 291.147 392.241 291 396.39C 292.573 392.396 295.125 389.626 299.719 388.189z"/>
				<path style="stroke:#ffccff; stroke-width:0.75; stroke-linejoin:round; stroke-linecap:round; fill:#ffccff" d="M 297.438 389.189C 294.75 389.845 292.375 392.532 291.625 395.064C 293.271 392.202 295 390.47 297.438 389.189z"/>
			</g>
		</g>
	</g>
</svg>
