<svg xmlns="http://www.w3.org/2000/svg" width="24" height="24">
	<g transform="translate(-288,-386)" id="KDDI_D_042">
		<g>
			<path style="stroke:none; fill:none" d="M 312 409.89L 288 409.89L 288 385.89L 312 385.89L 312 409.89z"/>
		</g>
		<g>
			<g>
				<path style="stroke:none; fill:#0033ff" d="M 292.02 399.982L 290.027 404.716L 295.593 399.169L 295.593 396.403L 292.02 399.982z"/>
				<path style="stroke:none; fill:#0033ff" d="M 306.85 387.948L 302.014 389.92L 298.475 393.468L 301.416 393.468L 306.85 387.948z"/>
				<path style="stroke:none; fill:#0099ff" d="M 301.416 393.468L 298.475 393.468L 308.018 402.932L 310.928 402.932L 301.416 393.468z"/>
				<path style="stroke:none; fill:#0066ff" d="M 305.031 405.911L 305.031 408.806L 295.593 399.169L 295.593 396.403L 305.031 405.911z"/>
				<path style="stroke:none; fill:#0033ff" d="M 305.031 405.911L 305.031 408.806L 310.928 402.932L 308.018 402.932L 305.031 405.911z"/>
				<path style="stroke:none; fill:#00ffff" d="M 306.85 387.948L 302.014 389.92L 292.02 389.92L 290.027 387.956L 306.85 387.948z"/>
				<path style="stroke:none; fill:#00ccff" d="M 290.027 404.716L 292.02 399.982L 292.02 389.92L 290.027 387.956L 290.027 404.716z"/>
				<path style="stroke:none; fill:#0099ff" d="M 302.014 389.92L 292.02 389.92L 292.02 399.982L 295.593 396.403L 305.031 405.911L 308.018 402.932L 298.475 393.468L 302.014 389.92z"/>
			</g>
		</g>
	</g>
</svg>
