<svg xmlns="http://www.w3.org/2000/svg" width="24" height="24">
	<g transform="translate(-288,-386)" id="KDDI_D_043">
		<g>
			<path style="stroke:none; fill:none" d="M 312 409.89L 288 409.89L 288 385.89L 312 385.89L 312 409.89z"/>
		</g>
		<g>
			<g>
				<g>
					<path style="stroke:none; fill:#00ffff" d="M 307.98 395.798L 309.973 391.064L 304.407 396.611L 304.407 399.376L 307.98 395.798z"/>
					<path style="stroke:none; fill:#00ffff" d="M 293.15 407.832L 297.986 405.859L 301.525 402.311L 298.584 402.311L 293.15 407.832z"/>
					<path style="stroke:none; fill:#0066ff" d="M 298.584 402.311L 301.525 402.311L 291.982 392.848L 289.072 392.848L 298.584 402.311z"/>
					<path style="stroke:none; fill:#0099ff" d="M 294.969 389.869L 294.969 386.974L 304.407 396.611L 304.407 399.376L 294.969 389.869z"/>
					<path style="stroke:none; fill:#00ffff" d="M 294.969 389.869L 294.969 386.974L 289.072 392.848L 291.982 392.848L 294.969 389.869z"/>
					<path style="stroke:none; fill:#0033ff" d="M 293.15 407.832L 297.986 405.859L 307.98 405.859L 309.973 407.823L 293.15 407.832z"/>
					<path style="stroke:none; fill:#0033ff" d="M 309.973 391.064L 307.98 395.798L 307.98 405.859L 309.973 407.823L 309.973 391.064z"/>
				</g>
				<path style="stroke:none; fill:#0099ff" d="M 297.986 405.859L 307.98 405.859L 307.98 395.798L 304.407 399.376L 294.969 389.869L 291.982 392.848L 301.525 402.311L 297.986 405.859z"/>
			</g>
		</g>
	</g>
</svg>
