<svg xmlns="http://www.w3.org/2000/svg" height="24" width="24">
	<g transform="matrix(1,0,0,-1,-262,400)" id="KDDI_D_044">
		<path id="path16" style="fill:#f60;fill-opacity:1;fill-rule:nonzero;stroke:none" d="m 281,388.2 c 0,-4.3 -3.5,-7.9 -7.9,-7.9 -4.4,0 -7.9,3.6 -7.9,7.9 0,4.4 3.5,8 7.9,8 4.4,0 7.9,-3.6 7.9,-8 z" />
		<path id="path18" style="fill:#f90;fill-opacity:1;fill-rule:nonzero;stroke:none" d="m 271.8,383.7 c -0.8,1.1 -1.2,2.4 -1.2,3.8 0,2.4 1.2,4.5 3.1,5.7 0.8,0.6 0.6,2 -0.6,2 -3.8,0 -6.9,-3.1 -6.9,-6.8 0,-2.6 2,-5.1 3.5,-5.6 1,-0.4 2.6,0 2.1,0.9 z" />
		<path id="path20" style="fill:yellow;fill-opacity:1;fill-rule:nonzero;stroke:none" d="m 269.6,386.6 c -0.2,0.7 -0.4,2.1 -0.3,2.9 0.1,0.8 0.5,1.7 1.2,2.3 0.4,0.3 0.1,1.3 -0.5,1.2 -1.6,-0.2 -2.8,-1.8 -2.8,-3.4 0,-1.5 0.6,-2.7 1.2,-3.2 0.5,-0.4 1.3,-0.3 1.2,0.2 z" />
		<path id="path22" style="fill:#ffc;fill-opacity:1;fill-rule:nonzero;stroke:none" d="m 269.5,390.3 c 0,-0.6 -0.5,-1.1 -1.1,-1.1 -0.6,0 -1.1,0.5 -1.1,1.1 0,0.6 0.5,1.1 1.1,1.1 0.6,0 1.1,-0.5 1.1,-1.1 z" />
		<path id="path24" style="fill:#f30;fill-opacity:1;fill-rule:nonzero;stroke:none" d="m 273.4,396.1 c 3,-1.1 4.7,-4.4 4.7,-7.5 0,-3.9 -3,-7.8 -7.4,-7.8 -0.1,0 -0.2,0 -0.3,0 0.8,-0.3 1.7,-0.5 2.7,-0.5 4.4,0 7.9,3.6 7.9,7.9 0,4.3 -3.3,7.8 -7.6,7.9 z" />
		<path id="path26" style="fill:#c30;fill-opacity:1;fill-rule:nonzero;stroke:none" d="m 281,387.5 c 0.2,2.5 -0.7,4.7 -2.3,6.4 0.9,-1.7 1.3,-3.8 1.1,-6 -0.4,-3.6 -2.3,-6.3 -5.1,-7.4 3.3,0.6 5.9,3.4 6.3,7 z" />
		<path id="path28" style="fill:#900;fill-opacity:1;fill-rule:nonzero;stroke:none" d="m 280.5,387.9 c -0.3,-2.9 -1.6,-5.2 -3.5,-6.6 2.2,1.3 3.7,3.5 4,6.2 0.1,1.5 -0.2,2.9 -0.7,4.1 0.2,-1.2 0.3,-2.4 0.2,-3.7 z" />
		<path id="path30" style="fill:none;stroke:#f30;stroke-width:1;stroke-linecap:butt;stroke-linejoin:miter;stroke-miterlimit:4;stroke-dasharray:none;stroke-opacity:1" d="m 273.1,398.1 v -1.5" />
		<path id="path32" style="fill:none;stroke:#f60;stroke-width:1;stroke-linecap:butt;stroke-linejoin:miter;stroke-miterlimit:4;stroke-dasharray:none;stroke-opacity:1" d="m 273.1,400.2 v -2.1" />
		<path id="path34" style="fill:none;stroke:#f30;stroke-width:1;stroke-linecap:butt;stroke-linejoin:miter;stroke-miterlimit:4;stroke-dasharray:none;stroke-opacity:1" d="m 263.3,388.2 h 1.4" />
		<path id="path36" style="fill:none;stroke:#f60;stroke-width:1;stroke-linecap:butt;stroke-linejoin:miter;stroke-miterlimit:4;stroke-dasharray:none;stroke-opacity:1" d="m 261.2,388.2 h 2.1" />
		<path id="path38" style="fill:none;stroke:#f30;stroke-width:1;stroke-linecap:butt;stroke-linejoin:miter;stroke-miterlimit:4;stroke-dasharray:none;stroke-opacity:1" d="m 273.1,378.4 v 1.4" />
		<path id="path40" style="fill:none;stroke:#f60;stroke-width:1;stroke-linecap:butt;stroke-linejoin:miter;stroke-miterlimit:4;stroke-dasharray:none;stroke-opacity:1" d="m 273.1,376.3 v 2.1" />
		<path id="path42" style="fill:none;stroke:#f30;stroke-width:1;stroke-linecap:butt;stroke-linejoin:miter;stroke-miterlimit:4;stroke-dasharray:none;stroke-opacity:1" d="m 283,388.2 h -1.5" />
		<path id="path44" style="fill:none;stroke:#f60;stroke-width:1;stroke-linecap:butt;stroke-linejoin:miter;stroke-miterlimit:4;stroke-dasharray:none;stroke-opacity:1" d="m 285,388.2 h -2" />
		<path id="path46" style="fill:none;stroke:#f30;stroke-width:1;stroke-linecap:butt;stroke-linejoin:miter;stroke-miterlimit:4;stroke-dasharray:none;stroke-opacity:1" d="m 265.3,396 1.3,-1.2" />
		<path id="path48" style="fill:none;stroke:#f60;stroke-width:1;stroke-linecap:butt;stroke-linejoin:miter;stroke-miterlimit:4;stroke-dasharray:none;stroke-opacity:1" d="m 263.6,397.8 1.7,-1.8" />
		<path id="path50" style="fill:none;stroke:#f30;stroke-width:1;stroke-linecap:butt;stroke-linejoin:miter;stroke-miterlimit:4;stroke-dasharray:none;stroke-opacity:1" d="m 265.3,380.5 1.3,1.2" />
		<path id="path52" style="fill:none;stroke:#f60;stroke-width:1;stroke-linecap:butt;stroke-linejoin:miter;stroke-miterlimit:4;stroke-dasharray:none;stroke-opacity:1" d="m 263.6,378.7 1.7,1.8" />
		<path id="path54" style="fill:none;stroke:#f30;stroke-width:1;stroke-linecap:butt;stroke-linejoin:miter;stroke-miterlimit:4;stroke-dasharray:none;stroke-opacity:1" d="m 280.9,380.5 -1.2,1.2" />
		<path id="path56" style="fill:none;stroke:#f60;stroke-width:1;stroke-linecap:butt;stroke-linejoin:miter;stroke-miterlimit:4;stroke-dasharray:none;stroke-opacity:1" d="m 282.7,378.7 -1.8,1.8" />
		<path id="path58" style="fill:none;stroke:#f30;stroke-width:1;stroke-linecap:butt;stroke-linejoin:miter;stroke-miterlimit:4;stroke-dasharray:none;stroke-opacity:1" d="m 280.9,396 -1.2,-1.2" />
		<path id="path60" style="fill:none;stroke:#f60;stroke-width:1;stroke-linecap:butt;stroke-linejoin:miter;stroke-miterlimit:4;stroke-dasharray:none;stroke-opacity:1" d="M 282.7,397.8 280.9,396" />
	</g>
</svg>