<svg xmlns="http://www.w3.org/2000/svg" height="24" width="24">
	<g transform="matrix(1,0,0,-1,-262,400)" id="KDDI_D_045">
        <path d="M284.7 388.2c0-6.3-5.2-11.5-11.5-11.5-6.4 0-11.5 5.2-11.5 11.5 0 6.4 5.1 11.5 11.5 11.5 6.3 0 11.5-5.1 11.5-11.5z" fill="#fff"/>
        <path d="M276.8 399.1c-.7.3-1.5.5-2.3.6 3.7-2.4 5.2-7.8 3.4-13.1-1.8-5.2-6.2-8.6-10.6-8.3.7-.4 1.4-.7 2.2-1 6-2 12.5 1.2 14.6 7.3 2 6-1.2 12.5-7.3 14.5z" fill="#ccc"/>
        <path d="M278.5 398.4c-.2.1-.4.1-.6.1 3.7-2.4 5.2-7.7 3.4-13-1.8-5.3-6.2-8.6-10.6-8.3.2-.1.4-.2.5-.3 5.5-.9 11 2.2 12.9 7.7 1.8 5.4-.7 11.2-5.6 13.8z" fill="#999"/>
        <path d="M284.1 384.6c1.5 4.5 0 9.3-3.4 12.3 2.6-2.7 3.5-7.4 2-11.9s-5-7.6-8.8-8.2c4.5.3 8.6 3.2 10.2 7.8z" fill="#666"/>
        <path d="M267.6 394.4c-.6.7-1.3 1.4-2.2 2" fill="none" stroke="#c00" stroke-width="1.3"/>
        <path d="M269.8 390c-.3 1.6-1.1 3.1-2.2 4.4" fill="none" stroke="#f30" stroke-width="1.3"/>
        <path d="M268.7 383.5c.8 1.5 1.3 3.1 1.3 4.7 0 .7-.1 1.2-.2 1.8M265.5 380.1c1.3 1 2.4 2.1 3.2 3.4" fill="none" stroke="#c00" stroke-width="1.3"/>
        <path d="M278.7 394.4c.6.7 1.3 1.3 2.1 1.9" fill="none" stroke="#900" stroke-width="1.3"/>
        <path d="M276.5 390c.3 1.6 1.1 3.1 2.2 4.4M277.7 383.5c-.9 1.5-1.4 3.1-1.4 4.7 0 .7.1 1.2.2 1.8" fill="none" stroke="#c00" stroke-width="1.3"/>
        <path d="M280.8 380.2c-1.3.9-2.4 2-3.1 3.3" fill="none" stroke="#900" stroke-width="1.3"/>
        <path d="M284.7 388.2c0-6.3-5.2-11.5-11.5-11.5-6.4 0-11.5 5.2-11.5 11.5 0 6.4 5.1 11.5 11.5 11.5 6.3 0 11.5-5.1 11.5-11.5z" fill="none" stroke="#000"/>
    </g>
</svg>
