<svg xmlns="http://www.w3.org/2000/svg" height="24" width="24">
	<g transform="matrix(1,0,0,-1,-262,400)" id="KDDI_D_046">
        <path d="M282.1 387.4c0-4.9-4-8.9-8.9-8.9-5 0-9 4-9 8.9 0 5 4 9 9 9 4.9 0 8.9-4 8.9-9z" fill="#ff9"/>
        <path d="M278.4 384.6l3.1-.1-1.7-2.8-2.6-1.9-.9 2.2z" fill="#ffc"/>
        <path d="M273.2 396.1c-5 0-8.8-3.7-8.8-8.7 0-1.9.6-3.4 1.6-4.9 1.5-1.3 3.4-2.2 5.5-2.2 4.9 0 8.9 4 8.9 9 0 1.9-.8 3.4-1.8 4.9-1.5 1.2-3.3 1.9-5.4 1.9z" fill="#ff0"/>
        <path d="M275.5 394.5c1.6 0 3.1-.7 4.4-1.5-1.7 1.9-4 3.1-6.7 3.1-5 0-8.8-3.7-8.8-8.7 0-3.3 1.7-5.9 4.4-7.5-1.3 1.6-2.3 3.4-2.3 5.6 0 5 4 9 9 9z" fill="#f90"/>
        <path d="M267.9 390.3l-2.9.1s.7 1.6 1.6 2.8c.9 1.1 2.6 1.9 2.6 1.9l.8-2.2z" fill="#f60"/>
        <path d="M279.7 387.1c0-3.6-2.9-6.5-6.5-6.5s-6.5 2.9-6.5 6.5 2.9 6.5 6.5 6.5 6.5-2.9 6.5-6.5z" fill="#fc0"/>
        <path d="M274.5 387.2c0-.7-.6-1.3-1.3-1.3-.7 0-1.3.6-1.3 1.3 0 .7.6 1.3 1.3 1.3.7 0 1.3-.6 1.3-1.3z"/>
        <path d="M273.2 387.2l-5.4 3.6M273.2 387.2l6.5 4.2" fill="none" stroke="#000" stroke-linecap="round"/>
        <path d="M273.8 387.2c0-.3-.3-.6-.6-.6s-.6.3-.6.6.3.6.6.6.6-.3.6-.6z" fill="#333"/>
        <path d="M279.7 396.9l-1.2-1.7" fill="#666" stroke="#000"/>
        <path d="M276.4 398.3c0 .2.1.3.2.5.8 1.4 2.8 1.7 4.4.8 1.7-1 2.3-2.9 1.5-4.3 0-.1-.1-.2-.2-.4z" fill="#999"/>
        <path d="M282.5 395.3c0-.1-.1-.2-.2-.4l-5.9 3.4c0 .2.1.3.2.5.2.4.6.7 1 .9l5.3-3c0-.5-.1-1-.4-1.4z" fill="#666"/>
        <path d="M282.5 395.3c0-.1-.1-.2-.2-.4l-5.9 3.4c0 .2.1.3.2.5 0 .1.1.2.1.2l6-3.4c-.1-.1-.1-.2-.2-.3z" fill="#333"/>
        <path d="M280.3 398.9c0-.2-.4-.3-.8-.2-.4.2-.7.5-.6.7.1.3.5.4.9.2.4-.1.6-.4.5-.7z" fill="#ccc"/>
        <path d="M266.7 396.9l1.2-1.9" fill="#666" stroke="#000"/>
        <path d="M270 398.3c-.1.2-.1.3-.2.5-.8 1.4-2.8 1.7-4.5.8-1.6-1-2.3-2.9-1.5-4.3.1-.1.2-.2.3-.4z" fill="#999"/>
        <path d="M263.8 395.3c.1-.1.2-.2.3-.4l5.9 3.4c-.1.2-.1.3-.2.5-.3.4-.6.7-1 .9l-5.3-3c0-.5 0-1 .3-1.4z" fill="#666"/>
        <path d="M263.8 395.3c.1-.1.2-.2.3-.4l5.9 3.4c-.1.2-.1.3-.2.5-.1.1-.1.2-.2.2l-5.9-3.4c0-.1 0-.2.1-.3z" fill="#333"/>
        <path d="M266.1 398.8c.2-.2 0-.6-.4-1-.4-.3-.9-.3-1.1-.1-.1.2 0 .7.4 1 .5.3.9.3 1.1.1z" fill="#ccc"/>
        <path d="M273.1 396.5h-.7v2.6h.7z" fill="#666"/>
        <path d="M273.8 396.5h-.7v2.6h.7z" fill="#333"/>
        <path d="M272.3 398.9h2.6" fill="none" stroke="#000" stroke-width="1.5" stroke-linecap="round"/>
        <path d="M271.4 398.9h.9" fill="none" stroke="#333" stroke-width="1.5" stroke-linecap="round"/>
        <path d="M282.1 387.4c0-4.9-4-8.9-8.9-8.9-5 0-9 4-9 8.9 0 5 4 9 9 9 4.9 0 8.9-4 8.9-9z" fill="none" stroke="#000"/>
        <path d="M268.6 379.6l-1.3-2.8M277.7 379.6l1.4-2.8" fill="none" stroke="#000" stroke-linecap="round"/>
    </g>
</svg>
