<svg xmlns="http://www.w3.org/2000/svg" height="24" width="24">
	<g transform="matrix(1,0,0,-1,-264,408)" id="KDDI_D_047">
        <path d="M287.5 396c0-6.4-5.1-11.5-11.5-11.5s-11.5 5.1-11.5 11.5 5.1 11.5 11.5 11.5 11.5-5.1 11.5-11.5z" fill="#fc0"/>
        <path d="M287.5 396c0-6.4-5.1-11.5-11.5-11.5s-11.5 5.1-11.5 11.5 5.1 11.5 11.5 11.5 11.5-5.1 11.5-11.5z" fill="#f90"/>
        <path d="M284.6 393.4l2.4.4s-1-3.1-1.9-4.3c-.9-1.1-2.9-2.8-2.9-2.8l-.7 2.1s1.4 1.4 1.9 2c.4.6 1.2 2.6 1.2 2.6z" fill="#f60"/>
        <path d="M285.2 396c0-5.1-4.1-9.2-9.2-9.2s-9.2 4.1-9.2 9.2 4.1 9.2 9.2 9.2 9.2-4.1 9.2-9.2z" fill="#fc0"/>
        <path d="M272.6 407c-4.7-1.5-8.1-5.8-8.1-11 0-4.3 2.4-8.1 5.9-10.1 3.7 2.2 6.3 6.4 6.3 11.4 0 3.9-1.6 7.3-4.1 9.7z" fill="#6cf"/>
        <path d="M267.4 398.6l-2.4-.4s1 3.1 1.9 4.3c.9 1.1 2.9 2.8 2.9 2.8l.7-2.1s-1.4-1.4-1.9-2c-.4-.6-1.2-2.6-1.2-2.6z" fill="#9ff"/>
        <path d="M274.3 405c-4.3-.8-7.5-4.5-7.5-9 0-3.9 2.4-7.2 5.7-8.5 2.6 2.3 4.2 5.8 4.2 9.8 0 2.9-.9 5.6-2.4 7.7z" fill="#69c"/>
        <path d="M277.1 395s-3.3-.7-3.3-1.3c-.1-.6 2.8-1.9 2.8-1.9z" fill="#fc0"/>
        <path d="M287.5 396c0-6.4-5.1-11.5-11.5-11.5s-11.5 5.1-11.5 11.5 5.1 11.5 11.5 11.5 11.5-5.1 11.5-11.5z" fill="none" stroke="#000"/>
        <path d="M272.5 406.9c-4.7-1.4-8-5.8-8-10.9 0-4.3 2.4-8.1 6-10.1 2.3 1.3 4.1 3.5 5.2 6.1 0 0-2.6.6-2.2 1.8.5 1.1 3 1.2 3 1.2.1.7.2 1.4.2 2.2 0 3.9-1.7 7.4-4.2 9.7z" fill="none" stroke="#000"/>
        <path d="M269.4 393.2c.8-1.9 3.4-3.4 6.6-3.4 3.2 0 5.8 1.5 6.6 3.4" fill="none" stroke="#000" stroke-linecap="round"/>
        <path d="M272.1 400.7V396M279.9 400.7V396" fill="none" stroke="#000" stroke-width="1.5" stroke-linecap="round"/>
    </g>
</svg>
