<svg xmlns="http://www.w3.org/2000/svg" height="24" width="24">
	<g transform="matrix(1,0,0,-1,-264,408)" id="KDDI_D_048">
        <path d="M287.5 389.6c0-2.8-5.1-5.1-11.5-5.1s-11.5 2.3-11.5 5.1 5.1 5.1 11.5 5.1 11.5-2.3 11.5-5.1z" fill="#fc0"/>
        <path d="M287.5 389.6c0 1.3-1.3 3.9-2.3 5.6-1 1.7-.9 4.7-1.4 5.9-.8 2.3-3 4.3-4 5.1-1 .7-2 1.2-3.8 1.2-1.7 0-2.6-.5-3.8-1.2-1.3-.8-3.2-2.8-4-5.1-.5-1.2-.4-4.2-1.4-5.9-1-1.7-2.3-4.3-2.3-5.6" fill="#fc0"/>
        <path d="M276.4 407.2s1.3-2.7 1.3-4.1c0-1.5.1-4.1 0-5.6-.1-1.3.1-2.6.1-2.6l4-.6s-1 1.6-1.5 3.6c-.5 2.1-.3 4-.9 5.7-.6 1.8-1.5 2.9-3 3.6z" fill="#c90"/>
        <path d="M276 407.4s-2.5-3.5-2.7-5.1c-.1-1.5 0-4-.2-4.7-.4-1.7-2-2.9-2-2.9l-2.8-1s1.9 1.9 2.6 3.4c.9 1.7.4 4.2.8 5.7.8 3.6 4.3 4.6 4.3 4.6z" fill="#ff3"/>
        <path d="M276.4 407.2s2.7-1.4 2.9-4.1c.2-1.5.4-3.8.6-5.3.3-1.5 1.2-3.5 1.2-3.5l2.2-.6s-1.6 1.9-1.9 4c-.2 1.8-.1 4.3-.9 5.9-.8 1.7-2.4 3.2-4.1 3.6z" fill="#960"/>
        <path d="M274 402.1c0-.7-.6-1.4-1.5-1.4-.8 0-1.5.7-1.5 1.4 0 .8.7 1.4 1.5 1.4.9 0 1.5-.6 1.5-1.4z" fill="#ffc"/>
        <path d="M267.1 386.8s2 1 2.4 1.7c.4.6 2.9 5 2.9 5l4-1.2s-1.2-4.3-1.3-5c-.1-.8.9-2.6.9-2.6s-5 .5-6 .8z" fill="#c90"/>
        <path d="M286.3 387.5s-1.7.5-3.5 1.9c-1.7 1.4-3.7 4-3.7 4l-3.5-1.1s1.2-4.3 1.3-5c.1-.8 1-2.5 1-2.5s1.9 0 4.1.7c2.3.8 4.3 2 4.3 2z" fill="#ff3"/>
        <path d="M278.5 390.7s1.7-2.1 2.4-2.9c.8-.8 2.2-1.8 2.2-1.8l-2.3-.6s-1.6 2.1-2 2.6c-.3.5-1.1 2.2-1.1 2.2z" fill="#ffc"/>
        <path d="M272.8 390.7s-1.1-2.2-1.8-3.1c-.7-.9-2.1-1.5-2.1-1.5l2.9-1.1s0 1.4.2 2.1c.2.7 1.2 2.6 1.2 2.6z" fill="#960"/>
        <path d="M279.5 394.1v-2.2c0-1.9-1.5-3.5-3.5-3.5-1.9 0-3.4 1.6-3.4 3.5v2.3" fill="#fc0"/>
        <path d="M276 390.7c0-.5-.4-.9-.9-.9-.6 0-1 .4-1 .9s.4 1 1 1c.5 0 .9-.5.9-1z" fill="#ffc"/>
        <path d="M276.8 394.3v-3c0-.3.2-.7.7-.7.5 0 .6.2.8 1 .1.8.2 2.6.2 2.6z" fill="#c90"/>
        <path d="M287.5 389.6c0 1.3-1.3 3.9-2.3 5.6-1 1.7-1 4.6-1.4 5.9-.5 2.2-2.4 4.2-3.7 5.1-1 .6-2.3 1.2-4.1 1.2-1.7 0-2.9-.5-4.1-1.2-1.3-.8-3.1-2.8-3.7-5.1-.4-1.3-.4-4.2-1.4-5.9-1-1.7-2.3-4.3-2.3-5.6" fill="none" stroke="#000" stroke-width="1.01"/>
        <path d="M279.5 394.1v-2.2c0-1.9-1.5-3.5-3.5-3.5-1.9 0-3.4 1.6-3.4 3.5v2.3" fill="none" stroke="#000" stroke-width=".909"/>
        <path d="M287.5 389.6c0-2.8-5.1-5.1-11.5-5.1s-11.5 2.3-11.5 5.1 5.1 5.1 11.5 5.1 11.5-2.3 11.5-5.1z" fill="none" stroke="#000" stroke-width="1.01"/>
    </g>
</svg>
