<svg xmlns="http://www.w3.org/2000/svg" width="24" height="24">
	<g transform="translate(-288,-386)" id="KDDI_D_049">
		<g>
			<path style="stroke:none; fill:none" d="M 312 409.89L 288 409.89L 288 385.89L 312 385.89L 312 409.89z"/>
		</g>
		<g>
			<path style="stroke:#000000; stroke-width:1; stroke-linejoin:round; stroke-linecap:round; fill:#cccccc" d="M 290.204 409.39L 301.606 397.988L 299.903 396.488L 288.5 407.89L 288.5 409.39L 290.204 409.39z"/>
			<path style="stroke:#990033; stroke-width:0.75; stroke-linejoin:round; stroke-linecap:round; fill:#990033" d="M 303.487 402.398C 307.905 402.398 311.487 398.817 311.486 394.398C 311.486 389.98 307.905 386.399 303.487 386.399C 299.067 386.399 295.486 389.981 295.486 394.399C 295.486 398.817 299.068 402.399 303.487 402.398z"/>
			<path style="stroke:#cc3366; stroke-width:0.75; stroke-linejoin:round; stroke-linecap:round; fill:#ff6699" d="M 303.487 386.399C 299.067 386.399 295.486 389.981 295.486 394.399C 295.486 396.156 296.06 397.776 297.021 399.096C 300.149 401.22 304.44 400.899 307.214 398.126C 309.987 395.353 310.308 391.06 308.183 387.931C 306.863 386.971 305.244 386.399 303.487 386.399z"/>
			<path style="stroke:#ff99cc; stroke-width:1; stroke-linejoin:round; stroke-linecap:round; fill:#ffccff" d="M 303.727 390.132C 304.969 391.373 304.968 393.384 303.728 394.623C 302.486 395.864 300.477 395.865 299.235 394.624C 297.996 393.384 297.995 391.373 299.235 390.132C 300.477 388.892 302.487 388.892 303.727 390.132z"/>
			<path style="stroke:#ffffff; stroke-width:0.75; stroke-linejoin:round; stroke-linecap:round; fill:#ffffff" d="M 302.207 391.682C 302.598 392.073 302.598 392.706 302.207 393.097C 301.815 393.487 301.184 393.487 300.793 393.097C 300.402 392.707 300.401 392.073 300.793 391.683C 301.184 391.292 301.816 391.292 302.207 391.682z"/>
			<path style="stroke:#000000; stroke-width:1; stroke-linejoin:round; stroke-linecap:round; fill:none" d="M 303.487 402.398C 307.905 402.398 311.487 398.817 311.486 394.398C 311.486 389.98 307.905 386.399 303.487 386.399C 299.067 386.399 295.486 389.981 295.486 394.399C 295.486 398.817 299.068 402.399 303.487 402.398z"/>
		</g>
	</g>
</svg>
