<svg xmlns="http://www.w3.org/2000/svg" height="24" width="24">
	<g transform="matrix(1,0,0,-1,-264,408)" id="KDDI_D_050">
        <path d="M272.7 384l.9 3.5 6.6.3 1-3.8z" fill="#fc9"/>
        <path d="M282.4 403.6s-1.7.7-2.3.1c-.6-.6-2.8-2.5-3.4-2.9-.5-.3-7-2.4-7.6-5-.2-1-.3-6.1 2-7.6 1.5-.9 2.9-2.8 5.3-3.1 2.4-.2 2.6 1.1 3.7 2 1.1.9 3.1 2.6 3.3 3.8.2 1.2.2 6 .2 7.6 0 1.6-.7 4.6-1.2 5.1z" fill="#fc9"/>
        <path d="M276.7 385.1l.9-.3.1-.8h3l-.7 2.3z" fill="#f90"/>
        <path d="M274.1 385.8s1.5-.5 2.6-.4c1.6.2 3.7 1.5 3.7 1.5" fill="none" stroke="#c60"/>
        <path d="M280.7 402.3s-1.4-1.5-3.4-2.9c-.8-.6-3.7-1.7-5.9-1.9-2.1-.2-1 .3-1 .3l4.7 2.2 5.1 3.2z" fill="#c96"/>
        <path d="M272.9 384.6l1.4.8s-2.6 2.2-3.2 2.6c-.3.2-1.3 1.3-1.7 2.2-.6 1.2-.2 4.8-.3 5.5-.2.9.9 1.8 2.4 2.9 1.1.8 2.4.8 3.5 1.2 1.6.4 3.4 3.6 5.7 3.3.4-1.3 2.6-3.6 2.9-3.9 1.1-1.3.1-1.3.2-2.6s-.2-6.4-1-7.1c-.9-.7-3-2.4-3-2.8-.1-.4.5-2 1.1-2.1.6-.1 4.7 1.7 5 2.5.3.7.9 5.2.9 6.6 0 1.4 0 6-.3 7.1-1.1 3.9-3.4 4.3-5.1 4.3-.5.2-1.4 1.6-2 1.8-.5.2-4 .5-5.3 0-1.4-.4-3.3-1.8-5.7-3.7-2.4-1.9-4-5.9-4-8.1.1-1.5 1.4-5.2 2.8-6.7s3.2-2.9 4.2-3.3c1.3-.6 1.5-.5 1.5-.5z" fill="#c60"/>
        <path d="M276 407.3s-5.3-1.4-6.7-3.2c-1.3-1.9-2.7-3-3.1-3.8-.4-.8-2-5.1-1.8-6 .2-1 1.9-4.5 2.4-5.5.5-.9 3-3 2.5-1.5s-2.6 4.8-2.5 7.3c.1 2.4 1.6 5.3 2.8 6.1 1.3.8 6.6 3.9 7.2 4.7.6.9.7 1.7-.8 1.9" fill="#f90"/>
        <path d="M279.5 406.6s1-1 .9-1.7c-.1-.6-.5-1.5-.5-1.5l.9-.6 1.1 2.7z" fill="#930"/>
        <path d="M270.2 403.7l1.4-1-1.9-1.5-1.6.5z" fill="#fc6"/>
        <path d="M285.8 399.8c-.2-1 .6-4.9.5-6.5-.2-1.7-.8-4-1.2-4.9-.7-1.5-2.6-3.2-2.6-3.2s2.8 1.1 3.8 2.9c.6.8 1.1 4.4 1.2 5.2.1.7-1.2 8-1.2 8s-.3-.6-.5-1.5z" fill="#930"/>
        <path d="M276.8 392.4l-.4-.6" fill="none" stroke="#c96" stroke-linecap="round"/>
        <path d="M279 390.2h-4.7s.9-1.9 2.3-1.9c1.3 0 2.4 1.9 2.4 1.9z" fill="#c00"/>
        <path d="M276.1 388.9s.7-.5 1.1-.3c.3.2.9.7.8.9-.2.2-1.9-.1-1.9-.6z" fill="#900"/>
        <path d="M280.6 399.1l-1.2-.1" fill="none" stroke="#666" stroke-width=".798" stroke-linecap="round"/>
        <path d="M281.8 395.8c0-1.2-.8-2.3-1.9-2.3-1 0-1.9 1.1-1.9 2.3 0 1.3.9 2.3 1.9 2.3 1.1 0 1.9-1 1.9-2.3z" fill="#666"/>
        <path d="M281.5 395.4c0-1.2-.7-2.2-1.6-2.2-.8 0-1.6 1-1.6 2.2 0 1.1.8 2.1 1.6 2.1.9 0 1.6-1 1.6-2.1z" fill="#fff"/>
        <path d="M279.9 396c0-.2-.1-.4-.4-.4-.2 0-.3.2-.3.4s.1.3.3.3c.3 0 .4-.1.4-.3z" fill="#fff"/>
        <path d="M281.4 396.2s-.1-.2-1.2-.2c-1.1 0-2.1 1.5-2.1 1.5s1.2-.5 2.2-.2c1.1.4 1.1-1.1 1.1-1.1z"/>
        <path d="M281.9 394.9c0-.9-.8-1.7-1.6-1.7-.9 0-1.6.8-1.6 1.7v1c0 .9.7 1.6 1.6 1.6.8 0 1.6-.7 1.6-1.6z"/>
        <path d="M280.6 396c0-.4-.4-.7-.8-.7-.5 0-.8.3-.8.7 0 .4.3.7.8.7.4 0 .8-.3.8-.7z" fill="#fff"/>
        <path d="M275 395.8c0-1.2-.9-2.3-1.9-2.3-1.1 0-1.9 1.1-1.9 2.3 0 1.3.8 2.3 1.9 2.3 1 0 1.9-1 1.9-2.3z" fill="#666"/>
        <path d="M274.7 395.4c0-1.2-.7-2.2-1.6-2.2-.9 0-1.6 1-1.6 2.2 0 1.1.7 2.1 1.6 2.1.9 0 1.6-1 1.6-2.1z" fill="#fff"/>
        <path d="M273.1 396c0-.2-.2-.4-.4-.4s-.4.2-.4.4.2.3.4.3.4-.1.4-.3z" fill="#fff"/>
        <path d="M274.6 396.2s-.1-.2-1.2-.2c-1.1 0-2.1 1.5-2.1 1.5s1.3-.5 2.2-.2c1.1.4 1.1-1.1 1.1-1.1z"/>
        <path d="M275.1 394.9c0-.9-.8-1.7-1.6-1.7-.9 0-1.6.8-1.6 1.7v1c0 .9.7 1.6 1.6 1.6.8 0 1.6-.7 1.6-1.6z"/>
        <path d="M273.8 396c0-.4-.4-.7-.8-.7-.5 0-.8.3-.8.7 0 .4.3.7.8.7.4 0 .8-.3.8-.7z" fill="#fff"/>
        <path d="M283.8 398.6c-1.1.7-1.9 1.7-2.5 2.7-.5.9-.6 1.6-.9 2.3-.8-.5-3.2-3.3-5.3-4.2-2.1-.8-3.4-.7-4.7-1.6-1.2-.9-1.3-2.3-1.4-4.1 0-1.1 0-2.5.9-4 .6-1 1.7-2.1 2.5-2.7 1.5-1.1 2.3-1.5 2.3-1.5" fill="none" stroke="#930" stroke-linecap="round"/>
        <path d="M274.7 385.5s-1.3-1.1-1.9-1.1h-.4" fill="none" stroke="#630" stroke-linecap="round"/>
        <path d="M279.8 386.4s1 .9 2 1.9c0 0 1.2 1.1 1.8 2.7.5 1.6.2 5.1.2 7.5M280.9 384.4c-1.3.1-1.1 2-1.1 2" fill="none" stroke="#930" stroke-linecap="round"/>
        <path d="M287.2 390.2c-.5-1.6-1.1-2.6-2.7-3.9-1.6-1.2-3.6-1.9-3.6-1.9M281.1 405.2s2.5.6 4.3-1.4c1.1-1.2 1.8-5 2-6.7.2-2 .3-5.3-.2-6.9M275.7 407.4c.4.1.8.1 1.3.1 3.7 0 4.1-2.3 4.1-2.3" fill="none" stroke="#300" stroke-linecap="round"/>
        <path d="M265.3 391.1c-.6 1.3-.9 2.6-.9 3.7 0 2.9 1.8 5.9 3 7.4 1.7 2.1 3.8 4.8 8.3 5.2M272.4 384.4c-.6.1-1.5.4-2.7 1.2-2 1.2-3.5 3.4-4.4 5.5" fill="none" stroke="#630" stroke-linecap="round"/>
    </g>
</svg>
