<svg xmlns="http://www.w3.org/2000/svg" height="24" width="24">
	<g transform="matrix(1,0,0,-1,-264,408)" id="KDDI_D_053">
        <path d="M278.5 408c-1.6 0-2.3-1.6-2.5-2-.2.4-.9 2-2.4 2-2.2 0-3.5-1.8-2.5-3.7 1.2-2.1 4.5-4.5 4.9-4.8.4.3 3.7 2.7 4.9 4.8 1 1.9-.3 3.7-2.4 3.7z" fill="#390"/>
        <path d="M271.8 403.9c-1 1.9.2 3.7 2.4 3.7.3 0 0 .4-.6.4-2.2 0-3.5-1.8-2.5-3.7.6-1.1 1.1-1.3.7-.4z" fill="#6c0"/>
        <path d="M279.3 407.9c1.1-.6 1.6-1.9.9-3.3-1.1-2-4.3-5-4.2-5.1.4.3 3.7 2.7 4.9 4.8.9 1.6.1 3.2-1.6 3.6z" fill="#060"/>
        <path d="M288 395.1c0 1.7-1.7 2.5-2 2.7.3.2 2 1 2 2.6 0 2.4-1.9 3.8-3.7 2.7-2.2-1.3-4.6-4.8-4.9-5.3h-.1.1c.3-.5 2.7-4.1 4.9-5.3 1.8-1.1 3.7.3 3.7 2.6z" fill="#390"/>
        <path d="M283.8 402.4c1.9 1.1 3.8-.3 3.8-2.7 0-.3.4.1.4.7 0 2.4-1.9 3.8-3.7 2.7-1.1-.6-1.3-1.2-.5-.7z" fill="#6c0"/>
        <path d="M287.9 394.2c-.7-1.2-2-1.7-3.4-.9-2 1.1-5.1 4.6-5.1 4.5h-.1.1c.3-.5 2.7-4.1 4.9-5.3 1.6-1 3.2-.1 3.6 1.7z" fill="#060"/>
        <path d="M264 395.1c0 1.7 1.7 2.5 2 2.7-.3.2-2 1-2 2.6 0 2.4 1.9 3.8 3.7 2.7 2.2-1.3 4.6-4.8 4.9-5.3h0c-.3-.5-2.7-4.1-4.9-5.3-1.8-1.1-3.7.3-3.7 2.6z" fill="#390"/>
        <path d="M268.2 402.4c-1.9 1.1-3.8-.3-3.8-2.7 0-.3-.4.1-.4.7 0 2.4 1.9 3.8 3.7 2.7 1.1-.6 1.3-1.2.5-.7z" fill="#6c0"/>
        <path d="M264.1 394.2c.7-1.2 2-1.7 3.4-.9 2 1.1 5.1 4.6 5.1 4.5h0c-.3-.5-2.7-4.1-4.9-5.3-1.6-1-3.2-.1-3.6 1.7z" fill="#060"/>
        <path d="M278.5 387c-1.6 0-2.3 1.6-2.5 2-.2-.4-.9-2-2.4-2-2.2 0-3.5 1.8-2.5 3.7 1.2 2.2 4.5 4.6 4.9 4.9.4-.3 3.7-2.7 4.9-4.9 1-1.9-.3-3.7-2.4-3.7z" fill="#390"/>
        <path d="M271.8 391.2c-1-1.9.2-3.8 2.4-3.8.3 0 0-.4-.6-.4-2.2 0-3.5 1.8-2.5 3.7.6 1.1 1.1 1.3.7.5z" fill="#6c0"/>
        <path d="M279.3 387.1c1.1.6 1.6 2 .9 3.3-1.1 2-4.3 5.2-4.2 5.2.4-.3 3.7-2.7 4.9-4.9.9-1.6.1-3.2-1.6-3.6z" fill="#060"/>
        <path d="M276 403.1v-10.2M270.9 397.8h10.2M276.6 390.8c.1-.4 1-3.3-.2-4.9-.7-1-2.3-1.4-4.4-1.4-3.8.1-3.9 2.5-4.7 3.5-.8.8-1.9.9-3.3.9" fill="none" stroke="#390"/>
    </g>
</svg>
