<svg xmlns="http://www.w3.org/2000/svg" width="24" height="24">
	<g transform="translate(-274,-380)" id="KDDI_D_055">
		<g>
			<g>
				<path style="stroke:none; fill:#090" d="M 275.5 384.39L 278.5 381.39L 286 388.888L 293.5 381.39L 296.5 384.39L 289.023 391.888L 296.513 399.377L 293.5 402.39L 286.011 394.9L 278.511 402.4L 275.5 399.39L 283.001 391.889L 275.5 384.39z"/>
				<path style="stroke:none; fill:none" d="M 285 391.444L 278.5 383.888L 278.5 382.097C 278.023 382.573 276.684 383.913 276.207 384.39C 276.849 385.032 283.708 391.889 283.708 391.889C 283.708 391.889 276.849 398.748 276.207 399.39C 276.685 399.867 278.033 401.216 278.511 401.693L 278.511 400.39L 285 391.444z"/>
				<path style="stroke:none; fill:none" d="M 286.011 394.193C 286.011 394.193 292.858 401.041 293.5 401.683C 293.978 401.205 295.328 399.855 295.806 399.377C 295.164 398.735 288.317 391.889 288.317 391.889C 288.317 391.889 295.153 385.032 295.793 384.39C 295.317 383.914 293.977 382.574 293.5 382.097C 292.858 382.739 286 389.595 286 389.595L 286 394.204C 286.001 394.203 286.011 394.193 286.011 394.193z"/>
				<path style="stroke:none; fill:#9c9" d="M 276.207 399.39C 276.849 398.748 283.708 391.889 283.708 391.889C 283.708 391.889 276.849 385.032 276.207 384.39C 276.684 383.913 278.023 382.573 278.5 382.097L 278.5 380.683L 274.793 384.39C 274.793 384.39 281.652 391.247 282.294 391.889C 281.652 392.531 274.793 399.39 274.793 399.39L 278.511 403.108L 278.511 401.693C 278.033 401.216 276.685 399.867 276.207 399.39z"/>
				<path style="stroke:none; fill:#366" d="M 278.511 401.693L 278.511 403.108C 278.511 403.108 285.316 396.302 286 395.618L 286 394.204C 285.883 394.321 279.147 401.057 278.511 401.693z"/>
				<path style="stroke:none; fill:#366" d="M 286 389.595L 286 388.181C 285.358 387.539 278.5 380.683 278.5 380.683L 278.5 382.097C 279.142 382.739 286 389.595 286 389.595z"/>
				<path style="stroke:none; fill:none" d="M 287 391.444L 293.489 400.39L 293.489 401.672C 293.492 401.674 293.498 401.68 293.5 401.683C 293.978 401.205 295.328 399.855 295.806 399.377C 295.164 398.735 288.317 391.889 288.317 391.889C 288.317 391.889 295.153 385.032 295.793 384.39C 295.317 383.914 293.977 382.574 293.5 382.097L 293.5 383.888L 287 391.444z"/>
				<path style="stroke:none; fill:#366" d="M 297.22 399.377C 297.22 399.377 290.371 392.529 289.73 391.888C 290.37 391.246 297.207 384.389 297.207 384.389L 293.5 380.683L 293.5 382.097C 293.977 382.574 295.317 383.914 295.793 384.39C 295.153 385.032 288.317 391.889 288.317 391.889C 288.317 391.889 295.164 398.735 295.806 399.377C 295.328 399.855 293.978 401.205 293.5 401.683C 293.498 401.68 293.492 401.674 293.489 401.672L 293.489 403.086C 293.49 403.087 293.5 403.097 293.5 403.097L 297.22 399.377z"/>
				<path style="stroke:none; fill:#9c9" d="M 286 388.181L 286 389.595C 286 389.595 292.858 382.739 293.5 382.097L 293.5 380.683L 293.147 381.036C 293.147 381.036 286.642 387.539 286 388.181z"/>
				<path style="stroke:none; fill:#9c9" d="M 286.011 394.193C 286.011 394.193 286.001 394.203 286 394.204L 286 395.618C 286.002 395.616 286.008 395.61 286.011 395.608C 286.647 396.244 293.372 402.969 293.489 403.086L 293.489 401.672C 292.806 400.988 286.011 394.193 286.011 394.193z"/>
			</g>
		</g>
	</g>
</svg>
