<svg xmlns="http://www.w3.org/2000/svg" width="24" height="24">
	<g transform="translate(-274,-380)" id="KDDI_D_056">
		<g>
			<g>
				<path style="stroke:none; fill:#ff9" d="M 275.5 397.92L 275.5 381.39L 291.5 381.39L 291.5 402.398C 291.5 402.398 280.522 402.398 278.696 402.398C 276.869 402.398 275.5 401.118 275.5 397.92z"/>
				<path style="stroke:none; fill:#cc9" d="M 275.5 397.888L 275.5 397.92C 275.5 401.118 276.869 402.398 278.696 402.398C 280.522 402.398 281.5 400.612 281.5 399.289C 281.5 398.855 281.5 398.29 281.5 397.888L 275.5 397.888z"/>
				<g>
					<path style="stroke:none; fill:#cc9" d="M 277 384.886L 277 385.888L 278 385.888L 278 384.886L 277 384.886z"/>
					<path style="stroke:none; fill:#996" d="M 278 384.886L 278 385.888L 279.002 385.888L 279.002 384.886L 278 384.886z"/>
					<path style="stroke:none; fill:#666" d="M 279.002 384.886L 279.002 385.888L 282 385.888L 282 384.886L 279.002 384.886z"/>
					<path style="stroke:none; fill:#996" d="M 282 384.886L 282 385.888L 284.001 385.888L 284.001 384.886L 282 384.886z"/>
					<path style="stroke:none; fill:#666" d="M 284 384.886L 284 385.888L 286 385.888L 286 384.886L 284 384.886z"/>
					<path style="stroke:none; fill:#996" d="M 286 384.886L 286 385.888L 287 385.888L 287 384.886L 286 384.886z"/>
					<path style="stroke:none; fill:#666" d="M 287 384.886L 287 385.888L 288 385.888L 288 384.886L 287 384.886z"/>
					<path style="stroke:none; fill:#996" d="M 288 384.886L 288 385.888L 289.023 385.888L 289.023 384.886L 288 384.886z"/>
					<path style="stroke:none; fill:#cc9" d="M 289.023 384.886L 289.023 385.888L 290 385.888L 290 384.886L 289.023 384.886z"/>
				</g>
				<g>
					<path style="stroke:none; fill:#cc9" d="M 277 386.888L 277 387.912L 278 387.912L 278 386.888L 277 386.888z"/>
					<path style="stroke:none; fill:#996" d="M 278 386.888L 278 387.912L 279.002 387.912L 279.002 386.888L 278 386.888z"/>
					<path style="stroke:none; fill:#666" d="M 279.002 386.888L 279.002 387.912L 281 387.912L 281 386.888L 279.002 386.888z"/>
					<path style="stroke:none; fill:#996" d="M 281 386.888L 281 387.912L 282.001 387.912L 282.001 386.888L 281 386.888z"/>
					<path style="stroke:none; fill:#666" d="M 282 386.888L 282 387.912L 285 387.912L 285 386.888L 282 386.888z"/>
					<path style="stroke:none; fill:#996" d="M 285 386.888L 285 387.912L 286 387.912L 286 386.888L 285 386.888z"/>
					<path style="stroke:none; fill:#666" d="M 286 386.888L 286 387.912L 288 387.912L 288 386.888L 286 386.888z"/>
					<path style="stroke:none; fill:#996" d="M 288 386.888L 288 387.912L 289.023 387.912L 289.023 386.888L 288 386.888z"/>
					<path style="stroke:none; fill:#cc9" d="M 289.023 386.888L 289.023 387.912L 290 387.912L 290 386.888L 289.023 386.888z"/>
				</g>
				<g>
					<path style="stroke:none; fill:#cc9" d="M 277 388.888L 277 389.888L 278 389.888L 278 388.888L 277 388.888z"/>
					<path style="stroke:none; fill:#996" d="M 278 388.888L 278 389.888L 279.002 389.888L 279.002 388.888L 278 388.888z"/>
					<path style="stroke:none; fill:#666" d="M 279.002 388.888L 279.002 389.888L 281 389.888L 281 388.888L 279.002 388.888z"/>
					<path style="stroke:none; fill:#996" d="M 281 388.888L 281 389.888L 282.001 389.888L 282.001 388.888L 281 388.888z"/>
					<path style="stroke:none; fill:#666" d="M 282 388.888L 282 389.888L 286 389.888L 286 388.888L 282 388.888z"/>
					<path style="stroke:none; fill:#996" d="M 286 388.888L 286 389.888L 287 389.888L 287 388.888L 286 388.888z"/>
					<path style="stroke:none; fill:#666" d="M 287 388.888L 287 389.888L 288 389.888L 288 388.888L 287 388.888z"/>
					<path style="stroke:none; fill:#996" d="M 288 388.888L 288 389.888L 289.023 389.888L 289.023 388.888L 288 388.888z"/>
					<path style="stroke:none; fill:#cc9" d="M 289.023 388.888L 289.023 389.888L 290 389.888L 290 388.888L 289.023 388.888z"/>
				</g>
				<g>
					<path style="stroke:none; fill:#cc9" d="M 277 392.888L 277 393.888L 278 393.888L 278 392.888L 277 392.888z"/>
					<path style="stroke:none; fill:#996" d="M 278 392.888L 278 393.888L 279.002 393.888L 279.002 392.888L 278 392.888z"/>
					<path style="stroke:none; fill:#666" d="M 279.002 392.888L 279.002 393.888L 281 393.888L 281 392.888L 279.002 392.888z"/>
					<path style="stroke:none; fill:#996" d="M 281 392.888L 281 393.888L 282.001 393.888L 282.001 392.888L 281 392.888z"/>
					<path style="stroke:none; fill:#666" d="M 282 392.888L 282 393.888L 285 393.888L 285 392.888L 282 392.888z"/>
					<path style="stroke:none; fill:#996" d="M 285 392.888L 285 393.888L 286 393.888L 286 392.888L 285 392.888z"/>
					<path style="stroke:none; fill:#666" d="M 286 392.888L 286 393.888L 288 393.888L 288 392.888L 286 392.888z"/>
					<path style="stroke:none; fill:#996" d="M 288 392.888L 288 393.888L 289.023 393.888L 289.023 392.888L 288 392.888z"/>
					<path style="stroke:none; fill:#cc9" d="M 289.023 392.888L 289.023 393.888L 290 393.888L 290 392.888L 289.023 392.888z"/>
				</g>
				<g>
					<path style="stroke:none; fill:#cc9" d="M 277 390.888L 277 391.888L 278 391.888L 278 390.888L 277 390.888z"/>
					<path style="stroke:none; fill:#996" d="M 278 390.888L 278 391.888L 279.002 391.888L 279.002 390.888L 278 390.888z"/>
					<path style="stroke:none; fill:#666" d="M 279.002 390.888L 279.002 391.888L 283.001 391.888L 283.001 390.888L 279.002 390.888z"/>
					<path style="stroke:none; fill:#996" d="M 283 390.888L 283 391.888L 284 391.888L 284 390.888L 283 390.888z"/>
					<path style="stroke:none; fill:#666" d="M 284 390.888L 284 391.888L 288 391.888L 288 390.888L 284 390.888z"/>
					<path style="stroke:none; fill:#996" d="M 288 390.888L 288 391.888L 289.023 391.888L 289.023 390.888L 288 390.888z"/>
					<path style="stroke:none; fill:#cc9" d="M 289.023 390.888L 289.023 391.888L 290 391.888L 290 390.888L 289.023 390.888z"/>
				</g>
				<g>
					<path style="stroke:none; fill:#cc9" d="M 277 394.912L 277 395.888L 278 395.888L 278 394.912L 277 394.912z"/>
					<path style="stroke:none; fill:#996" d="M 278 394.912L 278 395.888L 279.002 395.888L 279.002 394.912L 278 394.912z"/>
					<path style="stroke:none; fill:#666" d="M 279.002 394.912L 279.002 395.888L 280.001 395.888L 280.001 394.912L 279.002 394.912z"/>
					<path style="stroke:none; fill:#996" d="M 280 394.912L 280 395.888L 281.001 395.888L 281.001 394.912L 280 394.912z"/>
					<path style="stroke:none; fill:#666" d="M 281 394.912L 281 395.888L 284 395.888L 284 394.912L 281 394.912z"/>
					<path style="stroke:none; fill:#996" d="M 284 394.912L 284 395.888L 285.001 395.888L 285.001 394.912L 284 394.912z"/>
					<path style="stroke:none; fill:#666" d="M 287 394.912L 287 395.888L 288 395.888L 288 394.912L 287 394.912z"/>
					<path style="stroke:none; fill:#996" d="M 288 394.912L 288 395.888L 289.023 395.888L 289.023 394.912L 288 394.912z"/>
					<path style="stroke:none; fill:#666" d="M 285 394.912L 285 395.888L 286 395.888L 286 394.912L 285 394.912z"/>
					<path style="stroke:none; fill:#996" d="M 286 394.912L 286 395.888L 287 395.888L 287 394.912L 286 394.912z"/>
					<path style="stroke:none; fill:#cc9" d="M 289.023 394.912L 289.023 395.888L 290 395.888L 290 394.912L 289.023 394.912z"/>
				</g>
				<path style="stroke:none; fill:#996" d="M 280 397.888C 280 398.29 280 398.855 280 399.289C 280 400.612 278.826 401.888 277 401.888C 276.996 401.888 276.992 401.888 276.987 401.888C 277.476 402.231 278.055 402.398 278.696 402.398C 280.522 402.398 281.5 400.612 281.5 399.289C 281.5 398.855 281.5 398.29 281.5 397.888L 280 397.888z"/>
				<path style="stroke:#000; stroke-width:1; fill:none" d="M 275.5 397.92L 275.5 381.39L 291.5 381.39L 291.5 402.398C 291.5 402.398 280.522 402.398 278.696 402.398C 276.869 402.398 275.5 401.118 275.5 397.92z"/>
				<path style="stroke:none; fill:#ff9" d="M 281.5 397.39C 281.5 397.39 281.5 398.542 281.5 399.289C 281.5 400.612 280.522 402.398 278.696 402.398L 293.767 402.398C 295.594 402.398 296.507 400.612 296.507 399.289C 296.507 398.542 296.507 397.39 296.507 397.39L 281.5 397.39z"/>
				<path style="stroke:none; fill:#996" d="M 278.696 402.398L 293.767 402.398C 294.893 402.398 295.669 401.719 296.101 400.888L 281.073 400.888C 280.622 401.719 279.822 402.398 278.696 402.398z"/>
				<path style="stroke:none; fill:#cc9" d="M 296.507 398.89L 281.5 398.89C 281.5 399.029 281.5 399.165 281.5 399.289C 281.5 399.796 281.353 400.371 281.073 400.888L 296.101 400.888C 296.37 400.371 296.507 399.796 296.507 399.289C 296.507 399.165 296.507 399.029 296.507 398.89z"/>
				<path style="stroke:#000; stroke-width:1; fill:none" d="M 281.5 397.39C 281.5 397.39 281.5 398.542 281.5 399.289C 281.5 400.612 280.522 402.398 278.696 402.398L 293.767 402.398C 295.594 402.398 296.507 400.612 296.507 399.289C 296.507 398.542 296.507 397.39 296.507 397.39L 281.5 397.39z"/>
			</g>
		</g>
	</g>
</svg>
