<svg xmlns="http://www.w3.org/2000/svg" width="24" height="24">
	<g transform="translate(-274,-380)" id="KDDI_D_057">
		<g>
			<g>
				<path style="stroke:none; fill:#fff" d="M 290 388.899C 291.001 387.898 291.5 387.4 291.5 386.4C 291.5 385.899 291.5 383.377 291.5 383.377L 280.51 383.377C 280.51 383.377 280.51 385.899 280.51 386.4C 280.51 387.4 281.009 387.898 282.01 388.899C 283.012 389.899 283.51 390.398 284.01 390.899C 284.507 391.395 284.5 391.877 284.5 391.888C 284.5 391.9 284.507 392.382 284.01 392.878C 283.51 393.379 283.012 393.878 282.01 394.878C 281.009 395.879 280.51 396.377 280.51 397.377C 280.51 397.878 280.51 400.4 280.51 400.4L 291.5 400.4C 291.5 400.4 291.5 397.878 291.5 397.377C 291.5 396.377 291.001 395.879 290 394.878C 288.999 393.878 288.5 393.379 288 392.878C 287.503 392.382 287.51 391.9 287.51 391.888C 287.51 391.877 287.503 391.395 288 390.899C 288.5 390.398 288.999 389.899 290 388.899z"/>
				<path style="stroke:none; fill:#9ff" d="M 290 388.899C 291.001 387.898 291.5 387.4 291.5 386.4C 291.5 385.899 291.5 383.377 291.5 383.377L 287 383.377L 283 383.377C 283 384.355 283 386.503 283 386.888C 283 387.39 283 387.962 284 388.89C 285 389.818 286 390.39 286 391.888C 286 393.387 285 393.959 284 394.887C 283 395.815 283 396.387 283 396.888C 283 397.274 283 399.422 283 400.4L 287 400.4L 291.5 400.4C 291.5 400.4 291.5 397.878 291.5 397.377C 291.5 396.377 291.001 395.879 290 394.878C 288.999 393.878 288.5 393.379 288 392.878C 287.503 392.382 287.51 391.9 287.51 391.888C 287.51 391.877 287.503 391.395 288 390.899C 288.5 390.398 288.999 389.899 290 388.899z"/>
				<path style="stroke:none; fill:#03f" d="M 288 396.888C 287.25 396.139 287 395.39 287 394.413C 287 393.39 287 391.888 287 391.888L 290.022 388.89L 281.978 388.89L 285 391.888C 285 391.888 285 393.39 285 394.413C 285 395.39 284.75 396.139 284 396.888L 280 400.858C 280 401.171 280 401.875 280 401.875L 292.03 401.875C 292.03 401.875 292.03 401.184 292.03 400.888L 288 396.888z"/>
				<path style="stroke:none; fill:#06f" d="M 285 391.888C 285 391.888 285 393.39 285 394.413C 285 395.39 284.75 396.139 284 396.888L 280 400.858C 280 401.171 280 401.875 280 401.875L 281.002 401.875C 282.239 400.637 284.631 397.777 285 397.408C 285.501 396.908 286 396.032 286 394.912C 286 394.434 286 392.39 286 391.888C 286 391.725 285.915 390.942 285.5 390.39C 285 389.724 284 388.89 284 388.89L 281.978 388.89L 285 391.888z"/>
				<path style="stroke:none; fill:#930" d="M 277.002 393.887L 278.002 393.887L 278.002 389.887L 277.002 389.887L 277.002 393.887z"/>
				<path style="stroke:none; fill:#c60" d="M 279.002 401.327L 276.002 401.327L 276.002 392.888L 279.002 392.888L 279.002 401.327z"/>
				<path style="stroke:none; fill:#f90" d="M 276.002 401.327L 277.002 401.327L 277.002 392.888L 276.002 392.888L 276.002 401.327z"/>
				<path style="stroke:none; fill:#930" d="M 278.002 401.327L 279.002 401.327L 279.002 392.888L 278.002 392.888L 278.002 401.327z"/>
				<path style="stroke:none; fill:#c60" d="M 279.002 390.888L 276.002 390.888L 276.002 383.453L 279.002 383.453L 279.002 390.888z"/>
				<path style="stroke:none; fill:#f90" d="M 276.002 390.888L 277.002 390.888L 277.002 384.89L 276.002 384.89L 276.002 390.888z"/>
				<path style="stroke:none; fill:#930" d="M 278.002 390.888L 279.002 390.888L 279.002 384.89L 278.002 384.89L 278.002 390.888z"/>
				<path style="stroke:none; fill:#300" d="M 278.002 384.89L 279.002 384.89L 279.002 383.389L 278.002 383.389L 278.002 384.89z"/>
				<path style="stroke:none; fill:#930" d="M 294 393.887L 295 393.887L 295 389.887L 294 389.887L 294 393.887z"/>
				<path style="stroke:none; fill:#c60" d="M 296 401.327L 293 401.327L 293 392.888L 296 392.888L 296 401.327z"/>
				<path style="stroke:none; fill:#f90" d="M 293 401.327L 294 401.327L 294 392.888L 293 392.888L 293 401.327z"/>
				<path style="stroke:none; fill:#930" d="M 295 401.327L 296 401.327L 296 392.888L 295 392.888L 295 401.327z"/>
				<path style="stroke:none; fill:#c60" d="M 296 390.888L 293 390.888L 293 383.453L 296 383.453L 296 390.888z"/>
				<path style="stroke:none; fill:#f90" d="M 293 390.888L 294 390.888L 294 384.89L 293 384.89L 293 390.888z"/>
				<path style="stroke:none; fill:#930" d="M 295 390.888L 296 390.888L 296 384.89L 295 384.89L 295 390.888z"/>
				<path style="stroke:none; fill:#300" d="M 295 384.89L 296 384.89L 296 383.389L 295 383.389L 295 384.89z"/>
				<path style="stroke:#666; stroke-width:1; fill:none" d="M 290 388.899C 291.001 387.898 291.5 387.4 291.5 386.4C 291.5 385.899 291.5 383.377 291.5 383.377L 280.51 383.377C 280.51 383.377 280.51 385.899 280.51 386.4C 280.51 387.4 281.009 387.898 282.01 388.899C 283.012 389.899 283.51 390.398 284.01 390.899C 284.507 391.395 284.5 391.877 284.5 391.888C 284.5 391.9 284.507 392.382 284.01 392.878C 283.51 393.379 283.012 393.878 282.01 394.878C 281.009 395.879 280.51 396.377 280.51 397.377C 280.51 397.878 280.51 400.4 280.51 400.4L 291.5 400.4C 291.5 400.4 291.5 397.878 291.5 397.377C 291.5 396.377 291.001 395.879 290 394.878C 288.999 393.878 288.5 393.379 288 392.878C 287.503 392.382 287.51 391.9 287.51 391.888C 287.51 391.877 287.503 391.395 288 390.899C 288.5 390.398 288.999 389.899 290 388.899z"/>
				<path style="stroke:none; fill:#999" d="M 291.53 383.452L 282.5 383.452L 282.5 384.891L 291.53 384.891C 291.53 383.956 291.53 383.452 291.53 383.452z"/>
				<path style="stroke:none; fill:#cc9" d="M 280 383.452C 280 383.452 280 383.956 280 384.891L 283 384.891L 283 383.452L 280 383.452z"/>
				<path style="stroke:none; fill:#336" d="M 291 384.891L 292 384.891L 292 383.39L 291 383.39L 291 384.891z"/>
				<path style="stroke:none; fill:#336" d="M 280 384.891L 281 384.891L 281 383.39L 280 383.39L 280 384.891z"/>
				<path style="stroke:none; fill:#930" d="M 297 383.89L 297 380.892L 275 380.892L 275 383.89L 297 383.89z"/>
				<path style="stroke:none; fill:#300" d="M 296 380.892L 296 382.891L 275 382.891L 275 383.89L 297 383.89L 297 380.892L 296 380.892z"/>
				<path style="stroke:none; fill:#c60" d="M 280.5 382.891L 276 382.891L 276 381.89L 280.5 381.89L 280.5 382.891z"/>
				<path style="stroke:none; fill:#f90" d="M 284.5 382.891L 280 382.891L 280 381.89L 284.5 381.89L 284.5 382.891z"/>
				<path style="stroke:none; fill:#c60" d="M 296 382.891L 291.5 382.891L 291.5 381.89L 296 381.89L 296 382.891z"/>
				<path style="stroke:none; fill:#f90" d="M 292 382.891L 287.5 382.891L 287.5 381.89L 292 381.89L 292 382.891z"/>
				<path style="stroke:none; fill:#fc0" d="M 288 382.891L 284 382.891L 284 381.89L 288 381.89L 288 382.891z"/>
				<path style="stroke:none; fill:#930" d="M 297 402.886L 297 399.888L 275 399.888L 275 402.886L 297 402.886z"/>
				<path style="stroke:none; fill:#300" d="M 296 399.888L 296 401.887L 275 401.887L 275 402.886L 297 402.886L 297 399.888L 296 399.888z"/>
				<path style="stroke:none; fill:#c60" d="M 280.5 401.887L 276 401.887L 276 400.886L 280.5 400.886L 280.5 401.887z"/>
				<path style="stroke:none; fill:#f90" d="M 284.5 401.887L 280 401.887L 280 400.886L 284.5 400.886L 284.5 401.887z"/>
				<path style="stroke:none; fill:#c60" d="M 296 401.887L 291.5 401.887L 291.5 400.886L 296 400.886L 296 401.887z"/>
				<path style="stroke:none; fill:#f90" d="M 292 401.887L 287.5 401.887L 287.5 400.886L 292 400.886L 292 401.887z"/>
				<path style="stroke:none; fill:#fc0" d="M 288 401.887L 284 401.887L 284 400.886L 288 400.886L 288 401.887z"/>
			</g>
		</g>
	</g>
</svg>
