<svg xmlns="http://www.w3.org/2000/svg" width="24" height="24">
	<g transform="translate(-274,-380)" id="KDDI_D_058">
		<g>
			<g>
				<path style="stroke:none; fill:#fff" d="M 290 388.899C 291.001 387.898 291.5 387.4 291.5 386.4C 291.5 385.899 291.5 383.377 291.5 383.377L 280.51 383.377C 280.51 383.377 280.51 385.899 280.51 386.4C 280.51 387.4 281.009 387.898 282.01 388.899C 283.012 389.899 283.51 390.398 284.01 390.899C 284.507 391.395 284.5 391.877 284.5 391.888C 284.5 391.9 284.507 392.382 284.01 392.878C 283.51 393.379 283.012 393.878 282.01 394.878C 281.009 395.879 280.51 396.377 280.51 397.377C 280.51 397.878 280.51 400.4 280.51 400.4L 291.5 400.4C 291.5 400.4 291.5 397.878 291.5 397.377C 291.5 396.377 291.001 395.879 290 394.878C 288.999 393.878 288.5 393.379 288 392.878C 287.503 392.382 287.51 391.9 287.51 391.888C 287.51 391.877 287.503 391.395 288 390.899C 288.5 390.398 288.999 389.899 290 388.899z"/>
				<path style="stroke:none; fill:#9ff" d="M 290 388.899C 291.001 387.898 291.5 387.4 291.5 386.4C 291.5 385.899 291.5 383.377 291.5 383.377L 287 383.377L 283 383.377C 283 384.355 283 386.503 283 386.888C 283 387.39 283 387.962 284 388.89C 285 389.818 286 390.39 286 391.888C 286 393.387 285 393.959 284 394.887C 283 395.815 283 396.387 283 396.888C 283 397.274 283 399.422 283 400.4L 287 400.4L 291.5 400.4C 291.5 400.4 291.5 397.878 291.5 397.377C 291.5 396.377 291.001 395.879 290 394.878C 288.999 393.878 288.5 393.379 288 392.878C 287.503 392.382 287.51 391.9 287.51 391.888C 287.51 391.877 287.503 391.395 288 390.899C 288.5 390.398 288.999 389.899 290 388.899z"/>
				<path style="stroke:none; fill:#f09" d="M 280.51 385.888C 280.51 386.115 280.51 386.299 280.51 386.4C 280.51 387.4 281.009 387.898 282.01 388.899C 283.012 389.899 283.51 390.398 284.01 390.899C 284.507 391.395 284.5 391.877 284.5 391.888L 287.51 391.888C 287.51 391.877 287.503 391.395 288 390.899C 288.5 390.398 288.999 389.899 290 388.899C 291.001 387.898 291.5 387.4 291.5 386.4C 291.5 386.299 291.5 386.115 291.5 385.888L 280.51 385.888z"/>
				<path style="stroke:none; fill:#f3f" d="M 284.01 390.899C 284.507 391.395 284.5 391.877 284.5 391.888L 286 391.888C 286 390.39 285 389.818 284 388.89C 283 387.962 283 387.39 283 386.888C 283 386.746 283 386.362 283 385.888L 280.51 385.888C 280.51 386.115 280.51 386.299 280.51 386.4C 280.51 387.4 281.009 387.898 282.01 388.899C 283.012 389.899 283.51 390.398 284.01 390.899z"/>
				<path style="stroke:none; fill:#930" d="M 277.002 393.887L 278.002 393.887L 278.002 389.887L 277.002 389.887L 277.002 393.887z"/>
				<path style="stroke:none; fill:#c60" d="M 279.002 401.327L 276.002 401.327L 276.002 392.888L 279.002 392.888L 279.002 401.327z"/>
				<path style="stroke:none; fill:#f90" d="M 276.002 401.327L 277.002 401.327L 277.002 392.888L 276.002 392.888L 276.002 401.327z"/>
				<path style="stroke:none; fill:#930" d="M 278.002 401.327L 279.002 401.327L 279.002 392.888L 278.002 392.888L 278.002 401.327z"/>
				<path style="stroke:none; fill:#c60" d="M 279.002 390.888L 276.002 390.888L 276.002 383.453L 279.002 383.453L 279.002 390.888z"/>
				<path style="stroke:none; fill:#f90" d="M 276.002 390.888L 277.002 390.888L 277.002 384.89L 276.002 384.89L 276.002 390.888z"/>
				<path style="stroke:none; fill:#930" d="M 278.002 390.888L 279.002 390.888L 279.002 384.89L 278.002 384.89L 278.002 390.888z"/>
				<path style="stroke:none; fill:#300" d="M 278.002 384.89L 279.002 384.89L 279.002 383.389L 278.002 383.389L 278.002 384.89z"/>
				<path style="stroke:none; fill:#930" d="M 294 393.887L 295 393.887L 295 389.887L 294 389.887L 294 393.887z"/>
				<path style="stroke:none; fill:#c60" d="M 296 401.327L 293 401.327L 293 392.888L 296 392.888L 296 401.327z"/>
				<path style="stroke:none; fill:#f90" d="M 293 401.327L 294 401.327L 294 392.888L 293 392.888L 293 401.327z"/>
				<path style="stroke:none; fill:#930" d="M 295 401.327L 296 401.327L 296 392.888L 295 392.888L 295 401.327z"/>
				<path style="stroke:none; fill:#c60" d="M 296 390.888L 293 390.888L 293 383.453L 296 383.453L 296 390.888z"/>
				<path style="stroke:none; fill:#f90" d="M 293 390.888L 294 390.888L 294 384.89L 293 384.89L 293 390.888z"/>
				<path style="stroke:none; fill:#930" d="M 295 390.888L 296 390.888L 296 384.89L 295 384.89L 295 390.888z"/>
				<path style="stroke:none; fill:#300" d="M 295 384.89L 296 384.89L 296 383.389L 295 383.389L 295 384.89z"/>
				<path style="stroke:#666; stroke-width:1; fill:none" d="M 290 388.899C 291.001 387.898 291.5 387.4 291.5 386.4C 291.5 385.899 291.5 383.377 291.5 383.377L 280.51 383.377C 280.51 383.377 280.51 385.899 280.51 386.4C 280.51 387.4 281.009 387.898 282.01 388.899C 283.012 389.899 283.51 390.398 284.01 390.899C 284.507 391.395 284.5 391.877 284.5 391.888C 284.5 391.9 284.507 392.382 284.01 392.878C 283.51 393.379 283.012 393.878 282.01 394.878C 281.009 395.879 280.51 396.377 280.51 397.377C 280.51 397.878 280.51 400.4 280.51 400.4L 291.5 400.4C 291.5 400.4 291.5 397.878 291.5 397.377C 291.5 396.377 291.001 395.879 290 394.878C 288.999 393.878 288.5 393.379 288 392.878C 287.503 392.382 287.51 391.9 287.51 391.888C 287.51 391.877 287.503 391.395 288 390.899C 288.5 390.398 288.999 389.899 290 388.899z"/>
				<path style="stroke:none; fill:#999" d="M 291.53 383.452L 282.5 383.452L 282.5 384.891L 291.53 384.891C 291.53 383.956 291.53 383.452 291.53 383.452z"/>
				<path style="stroke:none; fill:#cc9" d="M 280 383.452C 280 383.452 280 383.956 280 384.891L 283 384.891L 283 383.452L 280 383.452z"/>
				<path style="stroke:none; fill:#336" d="M 291 384.891L 292 384.891L 292 383.39L 291 383.39L 291 384.891z"/>
				<path style="stroke:none; fill:#336" d="M 280 384.891L 281 384.891L 281 383.39L 280 383.39L 280 384.891z"/>
				<path style="stroke:none; fill:#930" d="M 297 383.89L 297 380.892L 275 380.892L 275 383.89L 297 383.89z"/>
				<path style="stroke:none; fill:#300" d="M 296 380.892L 296 382.891L 275 382.891L 275 383.89L 297 383.89L 297 380.892L 296 380.892z"/>
				<path style="stroke:none; fill:#c60" d="M 280.5 382.891L 276 382.891L 276 381.89L 280.5 381.89L 280.5 382.891z"/>
				<path style="stroke:none; fill:#f90" d="M 284.5 382.891L 280 382.891L 280 381.89L 284.5 381.89L 284.5 382.891z"/>
				<path style="stroke:none; fill:#c60" d="M 296 382.891L 291.5 382.891L 291.5 381.89L 296 381.89L 296 382.891z"/>
				<path style="stroke:none; fill:#f90" d="M 292 382.891L 287.5 382.891L 287.5 381.89L 292 381.89L 292 382.891z"/>
				<path style="stroke:none; fill:#fc0" d="M 288 382.891L 284 382.891L 284 381.89L 288 381.89L 288 382.891z"/>
				<path style="stroke:none; fill:#930" d="M 297 402.886L 297 399.888L 275 399.888L 275 402.886L 297 402.886z"/>
				<path style="stroke:none; fill:#300" d="M 296 399.888L 296 401.887L 275 401.887L 275 402.886L 297 402.886L 297 399.888L 296 399.888z"/>
				<path style="stroke:none; fill:#c60" d="M 280.5 401.887L 276 401.887L 276 400.886L 280.5 400.886L 280.5 401.887z"/>
				<path style="stroke:none; fill:#f90" d="M 284.5 401.887L 280 401.887L 280 400.886L 284.5 400.886L 284.5 401.887z"/>
				<path style="stroke:none; fill:#c60" d="M 296 401.887L 291.5 401.887L 291.5 400.886L 296 400.886L 296 401.887z"/>
				<path style="stroke:none; fill:#f90" d="M 292 401.887L 287.5 401.887L 287.5 400.886L 292 400.886L 292 401.887z"/>
				<path style="stroke:none; fill:#fc0" d="M 288 401.887L 284 401.887L 284 400.886L 288 400.886L 288 401.887z"/>
			</g>
		</g>
		<g>
			<g>
				<path style="stroke:none; fill:#fff" d="M 290 388.899C 291.001 387.898 291.5 387.4 291.5 386.4C 291.5 385.899 291.5 383.377 291.5 383.377L 280.51 383.377C 280.51 383.377 280.51 385.899 280.51 386.4C 280.51 387.4 281.009 387.898 282.01 388.899C 283.012 389.899 283.51 390.398 284.01 390.899C 284.507 391.395 284.5 391.877 284.5 391.888C 284.5 391.9 284.507 392.382 284.01 392.878C 283.51 393.379 283.012 393.878 282.01 394.878C 281.009 395.879 280.51 396.377 280.51 397.377C 280.51 397.878 280.51 400.4 280.51 400.4L 291.5 400.4C 291.5 400.4 291.5 397.878 291.5 397.377C 291.5 396.377 291.001 395.879 290 394.878C 288.999 393.878 288.5 393.379 288 392.878C 287.503 392.382 287.51 391.9 287.51 391.888C 287.51 391.877 287.503 391.395 288 390.899C 288.5 390.398 288.999 389.899 290 388.899z"/>
				<path style="stroke:none; fill:#9ff" d="M 290 388.899C 291.001 387.898 291.5 387.4 291.5 386.4C 291.5 385.899 291.5 383.377 291.5 383.377L 287 383.377L 283 383.377C 283 384.355 283 386.503 283 386.888C 283 387.39 283 387.962 284 388.89C 285 389.818 286 390.39 286 391.888C 286 393.387 285 393.959 284 394.887C 283 395.815 283 396.387 283 396.888C 283 397.274 283 399.422 283 400.4L 287 400.4L 291.5 400.4C 291.5 400.4 291.5 397.878 291.5 397.377C 291.5 396.377 291.001 395.879 290 394.878C 288.999 393.878 288.5 393.379 288 392.878C 287.503 392.382 287.51 391.9 287.51 391.888C 287.51 391.877 287.503 391.395 288 390.899C 288.5 390.398 288.999 389.899 290 388.899z"/>
				<path style="stroke:none; fill:#f09" d="M 286 386.89C 283 386.89 280.51 385.888 280.51 385.888C 280.51 386.115 280.51 386.299 280.51 386.4C 280.51 387.4 281.009 387.898 282.01 388.899C 283.012 389.899 283.51 390.398 284.01 390.899C 284.507 391.395 284.5 391.877 284.5 391.888L 287.51 391.888C 287.51 391.877 287.503 391.395 288 390.899C 288.5 390.398 288.999 389.899 290 388.899C 291.001 387.898 291.5 387.4 291.5 386.4C 291.5 386.299 291.5 386.115 291.5 385.888C 291.5 385.888 289 386.89 286 386.89z"/>
				<path style="stroke:none; fill:#f3f" d="M 284 388.89C 283 387.962 283 387.39 283 386.888C 283 386.828 283 386.718 283 386.583C 281.508 386.289 280.51 385.888 280.51 385.888C 280.51 386.115 280.51 386.299 280.51 386.4C 280.51 387.4 281.009 387.898 282.01 388.899C 283.012 389.899 283.51 390.398 284.01 390.899C 284.507 391.395 284.5 391.877 284.5 391.888L 286 391.888C 286 390.39 285 389.818 284 388.89z"/>
				<path style="stroke:#666; stroke-width:1; fill:none" d="M 290 388.899C 291.001 387.898 291.5 387.4 291.5 386.4C 291.5 385.899 291.5 383.377 291.5 383.377L 280.51 383.377C 280.51 383.377 280.51 385.899 280.51 386.4C 280.51 387.4 281.009 387.898 282.01 388.899C 283.012 389.899 283.51 390.398 284.01 390.899C 284.507 391.395 284.5 391.877 284.5 391.888C 284.5 391.9 284.507 392.382 284.01 392.878C 283.51 393.379 283.012 393.878 282.01 394.878C 281.009 395.879 280.51 396.377 280.51 397.377C 280.51 397.878 280.51 400.4 280.51 400.4L 291.5 400.4C 291.5 400.4 291.5 397.878 291.5 397.377C 291.5 396.377 291.001 395.879 290 394.878C 288.999 393.878 288.5 393.379 288 392.878C 287.503 392.382 287.51 391.9 287.51 391.888C 287.51 391.877 287.503 391.395 288 390.899C 288.5 390.398 288.999 389.899 290 388.899z"/>
				<path style="stroke:none; fill:#999" d="M 291.53 383.452L 282.5 383.452L 282.5 384.891L 291.53 384.891C 291.53 383.956 291.53 383.452 291.53 383.452z"/>
				<path style="stroke:none; fill:#cc9" d="M 280 383.452C 280 383.452 280 383.956 280 384.891L 283 384.891L 283 383.452L 280 383.452z"/>
				<path style="stroke:none; fill:#336" d="M 291 384.891L 292 384.891L 292 383.39L 291 383.39L 291 384.891z"/>
				<path style="stroke:none; fill:#336" d="M 280 384.891L 281 384.891L 281 383.39L 280 383.39L 280 384.891z"/>
				<path style="stroke:none; fill:#f09" d="M 287 397.89C 287 396.939 287 391.89 287 391.89L 285 391.89L 285 398.89L 284 399.89L 288 399.89C 288 399.89 287 398.841 287 397.89z"/>
				<path style="stroke:none; fill:#f3f" d="M 286 391.89L 285 391.89C 285 391.89 285 396.863 285 397.89C 285 398.918 284 399.89 284 399.89L 285 399.89C 285 399.89 286 398.945 286 397.89C 286 396.835 286 391.89 286 391.89z"/>
				<path style="stroke:none; fill:#930" d="M 277.002 393.887L 278.002 393.887L 278.002 389.887L 277.002 389.887L 277.002 393.887z"/>
				<path style="stroke:none; fill:#c60" d="M 279.002 401.327L 276.002 401.327L 276.002 392.888L 279.002 392.888L 279.002 401.327z"/>
				<path style="stroke:none; fill:#f90" d="M 276.002 401.327L 277.002 401.327L 277.002 392.888L 276.002 392.888L 276.002 401.327z"/>
				<path style="stroke:none; fill:#930" d="M 278.002 401.327L 279.002 401.327L 279.002 392.888L 278.002 392.888L 278.002 401.327z"/>
				<path style="stroke:none; fill:#c60" d="M 279.002 390.888L 276.002 390.888L 276.002 383.453L 279.002 383.453L 279.002 390.888z"/>
				<path style="stroke:none; fill:#f90" d="M 276.002 390.888L 277.002 390.888L 277.002 384.89L 276.002 384.89L 276.002 390.888z"/>
				<path style="stroke:none; fill:#930" d="M 278.002 390.888L 279.002 390.888L 279.002 384.89L 278.002 384.89L 278.002 390.888z"/>
				<path style="stroke:none; fill:#300" d="M 278.002 384.89L 279.002 384.89L 279.002 383.389L 278.002 383.389L 278.002 384.89z"/>
				<path style="stroke:none; fill:#930" d="M 294 393.887L 295 393.887L 295 389.887L 294 389.887L 294 393.887z"/>
				<path style="stroke:none; fill:#c60" d="M 296 401.327L 293 401.327L 293 392.888L 296 392.888L 296 401.327z"/>
				<path style="stroke:none; fill:#f90" d="M 293 401.327L 294 401.327L 294 392.888L 293 392.888L 293 401.327z"/>
				<path style="stroke:none; fill:#930" d="M 295 401.327L 296 401.327L 296 392.888L 295 392.888L 295 401.327z"/>
				<path style="stroke:none; fill:#c60" d="M 296 390.888L 293 390.888L 293 383.453L 296 383.453L 296 390.888z"/>
				<path style="stroke:none; fill:#f90" d="M 293 390.888L 294 390.888L 294 384.89L 293 384.89L 293 390.888z"/>
				<path style="stroke:none; fill:#930" d="M 295 390.888L 296 390.888L 296 384.89L 295 384.89L 295 390.888z"/>
				<path style="stroke:none; fill:#300" d="M 295 384.89L 296 384.89L 296 383.389L 295 383.389L 295 384.89z"/>
				<path style="stroke:none; fill:#930" d="M 297 383.89L 297 380.892L 275 380.892L 275 383.89L 297 383.89z"/>
				<path style="stroke:none; fill:#300" d="M 296 380.892L 296 382.891L 275 382.891L 275 383.89L 297 383.89L 297 380.892L 296 380.892z"/>
				<path style="stroke:none; fill:#c60" d="M 280.5 382.891L 276 382.891L 276 381.89L 280.5 381.89L 280.5 382.891z"/>
				<path style="stroke:none; fill:#f90" d="M 284.5 382.891L 280 382.891L 280 381.89L 284.5 381.89L 284.5 382.891z"/>
				<path style="stroke:none; fill:#c60" d="M 296 382.891L 291.5 382.891L 291.5 381.89L 296 381.89L 296 382.891z"/>
				<path style="stroke:none; fill:#f90" d="M 292 382.891L 287.5 382.891L 287.5 381.89L 292 381.89L 292 382.891z"/>
				<path style="stroke:none; fill:#fc0" d="M 288 382.891L 284 382.891L 284 381.89L 288 381.89L 288 382.891z"/>
				<path style="stroke:none; fill:#930" d="M 297 402.886L 297 399.888L 275 399.888L 275 402.886L 297 402.886z"/>
				<path style="stroke:none; fill:#300" d="M 296 399.888L 296 401.887L 275 401.887L 275 402.886L 297 402.886L 297 399.888L 296 399.888z"/>
				<path style="stroke:none; fill:#c60" d="M 280.5 401.887L 276 401.887L 276 400.886L 280.5 400.886L 280.5 401.887z"/>
				<path style="stroke:none; fill:#f90" d="M 284.5 401.887L 280 401.887L 280 400.886L 284.5 400.886L 284.5 401.887z"/>
				<path style="stroke:none; fill:#c60" d="M 296 401.887L 291.5 401.887L 291.5 400.886L 296 400.886L 296 401.887z"/>
				<path style="stroke:none; fill:#f90" d="M 292 401.887L 287.5 401.887L 287.5 400.886L 292 400.886L 292 401.887z"/>
				<path style="stroke:none; fill:#fc0" d="M 288 401.887L 284 401.887L 284 400.886L 288 400.886L 288 401.887z"/>
			</g>
		</g>
		<g>
			<g>
				<path style="stroke:none; fill:#fff" d="M 290 388.899C 291.001 387.898 291.5 387.4 291.5 386.4C 291.5 385.899 291.5 383.377 291.5 383.377L 280.51 383.377C 280.51 383.377 280.51 385.899 280.51 386.4C 280.51 387.4 281.009 387.898 282.01 388.899C 283.012 389.899 283.51 390.398 284.01 390.899C 284.507 391.395 284.5 391.877 284.5 391.888C 284.5 391.9 284.507 392.382 284.01 392.878C 283.51 393.379 283.012 393.878 282.01 394.878C 281.009 395.879 280.51 396.377 280.51 397.377C 280.51 397.878 280.51 400.4 280.51 400.4L 291.5 400.4C 291.5 400.4 291.5 397.878 291.5 397.377C 291.5 396.377 291.001 395.879 290 394.878C 288.999 393.878 288.5 393.379 288 392.878C 287.503 392.382 287.51 391.9 287.51 391.888C 287.51 391.877 287.503 391.395 288 390.899C 288.5 390.398 288.999 389.899 290 388.899z"/>
				<path style="stroke:none; fill:#9ff" d="M 290 388.899C 291.001 387.898 291.5 387.4 291.5 386.4C 291.5 385.899 291.5 383.377 291.5 383.377L 287 383.377L 283 383.377C 283 384.355 283 386.503 283 386.888C 283 387.39 283 387.962 284 388.89C 285 389.818 286 390.39 286 391.888C 286 393.387 285 393.959 284 394.887C 283 395.815 283 396.387 283 396.888C 283 397.274 283 399.422 283 400.4L 287 400.4L 291.5 400.4C 291.5 400.4 291.5 397.878 291.5 397.377C 291.5 396.377 291.001 395.879 290 394.878C 288.999 393.878 288.5 393.379 288 392.878C 287.503 392.382 287.51 391.9 287.51 391.888C 287.51 391.877 287.503 391.395 288 390.899C 288.5 390.398 288.999 389.899 290 388.899z"/>
				<path style="stroke:none; fill:#f09" d="M 281.08 387.89C 281.319 388.191 281.614 388.503 282.01 388.899C 283.012 389.899 283.51 390.398 284.01 390.899C 284.507 391.395 284.5 391.877 284.5 391.888L 287.51 391.888C 287.51 391.877 287.503 391.395 288 390.899C 288.5 390.398 288.999 389.899 290 388.899C 290.397 388.503 290.691 388.191 290.93 387.89L 281.08 387.89z"/>
				<path style="stroke:none; fill:#f3f" d="M 284 388.89C 283.58 388.5 283.342 388.175 283.201 387.89L 281.08 387.89C 281.319 388.191 281.614 388.503 282.01 388.899C 283.012 389.899 283.51 390.398 284.01 390.899C 284.507 391.395 284.5 391.877 284.5 391.888L 286 391.888C 286 390.39 285 389.818 284 388.89z"/>
				<path style="stroke:none; fill:#f09" d="M 289 398.89C 288 398.89 287 397.89 287 396.89C 287 395.89 287 391.89 287 391.89L 285 391.89L 285 397.89L 284 398.89L 280.5 398.89L 280.5 399.89L 291.5 399.89L 291.5 398.89C 291.5 398.89 290 398.89 289 398.89z"/>
				<path style="stroke:none; fill:#f3f" d="M 285 391.89C 285 391.89 285 396.153 285 396.89C 285 397.89 283.999 398.89 283 398.89C 282 398.89 280.5 398.89 280.5 398.89L 280.5 399.89C 280.5 399.89 280.999 399.89 283 399.89C 285 399.89 286 397.89 286 396.89C 286 395.89 286 391.89 286 391.89L 285 391.89z"/>
				<path style="stroke:#666; stroke-width:1; fill:none" d="M 290 388.899C 291.001 387.898 291.5 387.4 291.5 386.4C 291.5 385.899 291.5 383.377 291.5 383.377L 280.51 383.377C 280.51 383.377 280.51 385.899 280.51 386.4C 280.51 387.4 281.009 387.898 282.01 388.899C 283.012 389.899 283.51 390.398 284.01 390.899C 284.507 391.395 284.5 391.877 284.5 391.888C 284.5 391.9 284.507 392.382 284.01 392.878C 283.51 393.379 283.012 393.878 282.01 394.878C 281.009 395.879 280.51 396.377 280.51 397.377C 280.51 397.878 280.51 400.4 280.51 400.4L 291.5 400.4C 291.5 400.4 291.5 397.878 291.5 397.377C 291.5 396.377 291.001 395.879 290 394.878C 288.999 393.878 288.5 393.379 288 392.878C 287.503 392.382 287.51 391.9 287.51 391.888C 287.51 391.877 287.503 391.395 288 390.899C 288.5 390.398 288.999 389.899 290 388.899z"/>
				<path style="stroke:none; fill:#999" d="M 291.53 383.452L 282.5 383.452L 282.5 384.891L 291.53 384.891C 291.53 383.956 291.53 383.452 291.53 383.452z"/>
				<path style="stroke:none; fill:#cc9" d="M 280 383.452C 280 383.452 280 383.956 280 384.891L 283 384.891L 283 383.452L 280 383.452z"/>
				<path style="stroke:none; fill:#336" d="M 291 384.891L 292 384.891L 292 383.39L 291 383.39L 291 384.891z"/>
				<path style="stroke:none; fill:#336" d="M 280 384.891L 281 384.891L 281 383.39L 280 383.39L 280 384.891z"/>
				<path style="stroke:none; fill:#930" d="M 277.002 393.887L 278.002 393.887L 278.002 389.887L 277.002 389.887L 277.002 393.887z"/>
				<path style="stroke:none; fill:#c60" d="M 279.002 401.327L 276.002 401.327L 276.002 392.888L 279.002 392.888L 279.002 401.327z"/>
				<path style="stroke:none; fill:#f90" d="M 276.002 401.327L 277.002 401.327L 277.002 392.888L 276.002 392.888L 276.002 401.327z"/>
				<path style="stroke:none; fill:#930" d="M 278.002 401.327L 279.002 401.327L 279.002 392.888L 278.002 392.888L 278.002 401.327z"/>
				<path style="stroke:none; fill:#c60" d="M 279.002 390.888L 276.002 390.888L 276.002 383.453L 279.002 383.453L 279.002 390.888z"/>
				<path style="stroke:none; fill:#f90" d="M 276.002 390.888L 277.002 390.888L 277.002 384.89L 276.002 384.89L 276.002 390.888z"/>
				<path style="stroke:none; fill:#930" d="M 278.002 390.888L 279.002 390.888L 279.002 384.89L 278.002 384.89L 278.002 390.888z"/>
				<path style="stroke:none; fill:#300" d="M 278.002 384.89L 279.002 384.89L 279.002 383.389L 278.002 383.389L 278.002 384.89z"/>
				<path style="stroke:none; fill:#930" d="M 294 393.887L 295 393.887L 295 389.887L 294 389.887L 294 393.887z"/>
				<path style="stroke:none; fill:#c60" d="M 296 401.327L 293 401.327L 293 392.888L 296 392.888L 296 401.327z"/>
				<path style="stroke:none; fill:#f90" d="M 293 401.327L 294 401.327L 294 392.888L 293 392.888L 293 401.327z"/>
				<path style="stroke:none; fill:#930" d="M 295 401.327L 296 401.327L 296 392.888L 295 392.888L 295 401.327z"/>
				<path style="stroke:none; fill:#c60" d="M 296 390.888L 293 390.888L 293 383.453L 296 383.453L 296 390.888z"/>
				<path style="stroke:none; fill:#f90" d="M 293 390.888L 294 390.888L 294 384.89L 293 384.89L 293 390.888z"/>
				<path style="stroke:none; fill:#930" d="M 295 390.888L 296 390.888L 296 384.89L 295 384.89L 295 390.888z"/>
				<path style="stroke:none; fill:#300" d="M 295 384.89L 296 384.89L 296 383.389L 295 383.389L 295 384.89z"/>
				<path style="stroke:none; fill:#930" d="M 297 383.89L 297 380.892L 275 380.892L 275 383.89L 297 383.89z"/>
				<path style="stroke:none; fill:#300" d="M 296 380.892L 296 382.891L 275 382.891L 275 383.89L 297 383.89L 297 380.892L 296 380.892z"/>
				<path style="stroke:none; fill:#c60" d="M 280.5 382.891L 276 382.891L 276 381.89L 280.5 381.89L 280.5 382.891z"/>
				<path style="stroke:none; fill:#f90" d="M 284.5 382.891L 280 382.891L 280 381.89L 284.5 381.89L 284.5 382.891z"/>
				<path style="stroke:none; fill:#c60" d="M 296 382.891L 291.5 382.891L 291.5 381.89L 296 381.89L 296 382.891z"/>
				<path style="stroke:none; fill:#f90" d="M 292 382.891L 287.5 382.891L 287.5 381.89L 292 381.89L 292 382.891z"/>
				<path style="stroke:none; fill:#fc0" d="M 288 382.891L 284 382.891L 284 381.89L 288 381.89L 288 382.891z"/>
				<path style="stroke:none; fill:#930" d="M 297 402.886L 297 399.888L 275 399.888L 275 402.886L 297 402.886z"/>
				<path style="stroke:none; fill:#300" d="M 296 399.888L 296 401.887L 275 401.887L 275 402.886L 297 402.886L 297 399.888L 296 399.888z"/>
				<path style="stroke:none; fill:#c60" d="M 280.5 401.887L 276 401.887L 276 400.886L 280.5 400.886L 280.5 401.887z"/>
				<path style="stroke:none; fill:#f90" d="M 284.5 401.887L 280 401.887L 280 400.886L 284.5 400.886L 284.5 401.887z"/>
				<path style="stroke:none; fill:#c60" d="M 296 401.887L 291.5 401.887L 291.5 400.886L 296 400.886L 296 401.887z"/>
				<path style="stroke:none; fill:#f90" d="M 292 401.887L 287.5 401.887L 287.5 400.886L 292 400.886L 292 401.887z"/>
				<path style="stroke:none; fill:#fc0" d="M 288 401.887L 284 401.887L 284 400.886L 288 400.886L 288 401.887z"/>
			</g>
		</g>
		<g>
			<g>
				<path style="stroke:none; fill:#fff" d="M 290 388.899C 291.001 387.898 291.5 387.4 291.5 386.4C 291.5 385.899 291.5 383.377 291.5 383.377L 280.51 383.377C 280.51 383.377 280.51 385.899 280.51 386.4C 280.51 387.4 281.009 387.898 282.01 388.899C 283.012 389.899 283.51 390.398 284.01 390.899C 284.507 391.395 284.5 391.877 284.5 391.888C 284.5 391.9 284.507 392.382 284.01 392.878C 283.51 393.379 283.012 393.878 282.01 394.878C 281.009 395.879 280.51 396.377 280.51 397.377C 280.51 397.878 280.51 400.4 280.51 400.4L 291.5 400.4C 291.5 400.4 291.5 397.878 291.5 397.377C 291.5 396.377 291.001 395.879 290 394.878C 288.999 393.878 288.5 393.379 288 392.878C 287.503 392.382 287.51 391.9 287.51 391.888C 287.51 391.877 287.503 391.395 288 390.899C 288.5 390.398 288.999 389.899 290 388.899z"/>
				<path style="stroke:none; fill:#9ff" d="M 290 388.899C 291.001 387.898 291.5 387.4 291.5 386.4C 291.5 385.899 291.5 383.377 291.5 383.377L 287 383.377L 283 383.377C 283 384.355 283 386.503 283 386.888C 283 387.39 283 387.962 284 388.89C 285 389.818 286 390.39 286 391.888C 286 393.387 285 393.959 284 394.887C 283 395.815 283 396.387 283 396.888C 283 397.274 283 399.422 283 400.4L 287 400.4L 291.5 400.4C 291.5 400.4 291.5 397.878 291.5 397.377C 291.5 396.377 291.001 395.879 290 394.878C 288.999 393.878 288.5 393.379 288 392.878C 287.503 392.382 287.51 391.9 287.51 391.888C 287.51 391.877 287.503 391.395 288 390.899C 288.5 390.398 288.999 389.899 290 388.899z"/>
				<path style="stroke:none; fill:#f09" d="M 286 388.89C 284 388.89 281.08 387.89 281.08 387.89C 281.319 388.191 281.614 388.503 282.01 388.899C 283.012 389.899 283.51 390.398 284.01 390.899C 284.507 391.395 284.5 391.877 284.5 391.888L 287.51 391.888C 287.51 391.877 287.503 391.395 288 390.899C 288.5 390.398 288.999 389.899 290 388.899C 290.397 388.503 290.691 388.191 290.93 387.89C 290.93 387.89 287.999 388.89 286 388.89z"/>
				<g>
					<path style="stroke:none; fill:#f3f" d="M 281.098 387.89L 281.08 387.89C 281.08 387.89 281.092 387.894 281.1 387.897C 281.1 387.895 281.098 387.892 281.098 387.89z"/>
					<path style="stroke:none; fill:#f3f" d="M 284 388.89C 283.893 388.791 283.798 388.695 283.713 388.604C 282.387 388.325 281.228 387.94 281.1 387.897C 281.102 387.91 281.098 387.912 281.08 387.89C 281.319 388.191 281.614 388.503 282.01 388.899C 283.012 389.899 283.51 390.398 284.01 390.899C 284.507 391.395 284.5 391.877 284.5 391.888L 286 391.888C 286 390.39 285 389.818 284 388.89z"/>
				</g>
				<path style="stroke:none; fill:#f09" d="M 289 397.89C 288.105 397.442 287 396.39 287 395.39C 287 394.39 287 391.89 287 391.89L 285 391.89L 285 397.89L 284 398.89L 280.5 398.89L 280.5 399.89L 291 399.89L 291 398.89C 291 398.89 290 398.39 289 397.89z"/>
				<path style="stroke:none; fill:#f3f" d="M 285 391.89C 285 391.89 285 394.653 285 395.39C 285 396.39 283.894 397.442 283 397.89C 282 398.39 281 398.89 281 398.89L 281 399.89C 281 399.89 282 399.89 284 399.89C 284 398.89 284.5 398.515 285 397.89C 285.5 397.265 286 396.39 286 395.39C 286 394.39 286 391.89 286 391.89L 285 391.89z"/>
				<path style="stroke:#666; stroke-width:1; fill:none" d="M 290 388.899C 291.001 387.898 291.5 387.4 291.5 386.4C 291.5 385.899 291.5 383.377 291.5 383.377L 280.51 383.377C 280.51 383.377 280.51 385.899 280.51 386.4C 280.51 387.4 281.009 387.898 282.01 388.899C 283.012 389.899 283.51 390.398 284.01 390.899C 284.507 391.395 284.5 391.877 284.5 391.888C 284.5 391.9 284.507 392.382 284.01 392.878C 283.51 393.379 283.012 393.878 282.01 394.878C 281.009 395.879 280.51 396.377 280.51 397.377C 280.51 397.878 280.51 400.4 280.51 400.4L 291.5 400.4C 291.5 400.4 291.5 397.878 291.5 397.377C 291.5 396.377 291.001 395.879 290 394.878C 288.999 393.878 288.5 393.379 288 392.878C 287.503 392.382 287.51 391.9 287.51 391.888C 287.51 391.877 287.503 391.395 288 390.899C 288.5 390.398 288.999 389.899 290 388.899z"/>
				<path style="stroke:none; fill:#999" d="M 291.53 383.452L 282.5 383.452L 282.5 384.891L 291.53 384.891C 291.53 383.956 291.53 383.452 291.53 383.452z"/>
				<path style="stroke:none; fill:#cc9" d="M 280 383.452C 280 383.452 280 383.956 280 384.891L 283 384.891L 283 383.452L 280 383.452z"/>
				<path style="stroke:none; fill:#336" d="M 291 384.891L 292 384.891L 292 383.39L 291 383.39L 291 384.891z"/>
				<path style="stroke:none; fill:#336" d="M 280 384.891L 281 384.891L 281 383.39L 280 383.39L 280 384.891z"/>
				<path style="stroke:none; fill:#930" d="M 277.002 393.887L 278.002 393.887L 278.002 389.887L 277.002 389.887L 277.002 393.887z"/>
				<path style="stroke:none; fill:#c60" d="M 279.002 401.327L 276.002 401.327L 276.002 392.888L 279.002 392.888L 279.002 401.327z"/>
				<path style="stroke:none; fill:#f90" d="M 276.002 401.327L 277.002 401.327L 277.002 392.888L 276.002 392.888L 276.002 401.327z"/>
				<path style="stroke:none; fill:#930" d="M 278.002 401.327L 279.002 401.327L 279.002 392.888L 278.002 392.888L 278.002 401.327z"/>
				<path style="stroke:none; fill:#c60" d="M 279.002 390.888L 276.002 390.888L 276.002 383.453L 279.002 383.453L 279.002 390.888z"/>
				<path style="stroke:none; fill:#f90" d="M 276.002 390.888L 277.002 390.888L 277.002 384.89L 276.002 384.89L 276.002 390.888z"/>
				<path style="stroke:none; fill:#930" d="M 278.002 390.888L 279.002 390.888L 279.002 384.89L 278.002 384.89L 278.002 390.888z"/>
				<path style="stroke:none; fill:#300" d="M 278.002 384.89L 279.002 384.89L 279.002 383.389L 278.002 383.389L 278.002 384.89z"/>
				<path style="stroke:none; fill:#930" d="M 294 393.887L 295 393.887L 295 389.887L 294 389.887L 294 393.887z"/>
				<path style="stroke:none; fill:#c60" d="M 296 401.327L 293 401.327L 293 392.888L 296 392.888L 296 401.327z"/>
				<path style="stroke:none; fill:#f90" d="M 293 401.327L 294 401.327L 294 392.888L 293 392.888L 293 401.327z"/>
				<path style="stroke:none; fill:#930" d="M 295 401.327L 296 401.327L 296 392.888L 295 392.888L 295 401.327z"/>
				<path style="stroke:none; fill:#c60" d="M 296 390.888L 293 390.888L 293 383.453L 296 383.453L 296 390.888z"/>
				<path style="stroke:none; fill:#f90" d="M 293 390.888L 294 390.888L 294 384.89L 293 384.89L 293 390.888z"/>
				<path style="stroke:none; fill:#930" d="M 295 390.888L 296 390.888L 296 384.89L 295 384.89L 295 390.888z"/>
				<path style="stroke:none; fill:#300" d="M 295 384.89L 296 384.89L 296 383.389L 295 383.389L 295 384.89z"/>
				<path style="stroke:none; fill:#930" d="M 297 383.89L 297 380.892L 275 380.892L 275 383.89L 297 383.89z"/>
				<path style="stroke:none; fill:#300" d="M 296 380.892L 296 382.891L 275 382.891L 275 383.89L 297 383.89L 297 380.892L 296 380.892z"/>
				<path style="stroke:none; fill:#c60" d="M 280.5 382.891L 276 382.891L 276 381.89L 280.5 381.89L 280.5 382.891z"/>
				<path style="stroke:none; fill:#f90" d="M 284.5 382.891L 280 382.891L 280 381.89L 284.5 381.89L 284.5 382.891z"/>
				<path style="stroke:none; fill:#c60" d="M 296 382.891L 291.5 382.891L 291.5 381.89L 296 381.89L 296 382.891z"/>
				<path style="stroke:none; fill:#f90" d="M 292 382.891L 287.5 382.891L 287.5 381.89L 292 381.89L 292 382.891z"/>
				<path style="stroke:none; fill:#fc0" d="M 288 382.891L 284 382.891L 284 381.89L 288 381.89L 288 382.891z"/>
				<path style="stroke:none; fill:#930" d="M 297 402.886L 297 399.888L 275 399.888L 275 402.886L 297 402.886z"/>
				<path style="stroke:none; fill:#300" d="M 296 399.888L 296 401.887L 275 401.887L 275 402.886L 297 402.886L 297 399.888L 296 399.888z"/>
				<path style="stroke:none; fill:#c60" d="M 280.5 401.887L 276 401.887L 276 400.886L 280.5 400.886L 280.5 401.887z"/>
				<path style="stroke:none; fill:#f90" d="M 284.5 401.887L 280 401.887L 280 400.886L 284.5 400.886L 284.5 401.887z"/>
				<path style="stroke:none; fill:#c60" d="M 296 401.887L 291.5 401.887L 291.5 400.886L 296 400.886L 296 401.887z"/>
				<path style="stroke:none; fill:#f90" d="M 292 401.887L 287.5 401.887L 287.5 400.886L 292 400.886L 292 401.887z"/>
				<path style="stroke:none; fill:#fc0" d="M 288 401.887L 284 401.887L 284 400.886L 288 400.886L 288 401.887z"/>
			</g>
		</g>
		<g>
			<g>
				<path style="stroke:none; fill:#fff" d="M 290 388.899C 291.001 387.898 291.5 387.4 291.5 386.4C 291.5 385.899 291.5 383.377 291.5 383.377L 280.51 383.377C 280.51 383.377 280.51 385.899 280.51 386.4C 280.51 387.4 281.009 387.898 282.01 388.899C 283.012 389.899 283.51 390.398 284.01 390.899C 284.507 391.395 284.5 391.877 284.5 391.888C 284.5 391.9 284.507 392.382 284.01 392.878C 283.51 393.379 283.012 393.878 282.01 394.878C 281.009 395.879 280.51 396.377 280.51 397.377C 280.51 397.878 280.51 400.4 280.51 400.4L 291.5 400.4C 291.5 400.4 291.5 397.878 291.5 397.377C 291.5 396.377 291.001 395.879 290 394.878C 288.999 393.878 288.5 393.379 288 392.878C 287.503 392.382 287.51 391.9 287.51 391.888C 287.51 391.877 287.503 391.395 288 390.899C 288.5 390.398 288.999 389.899 290 388.899z"/>
				<path style="stroke:none; fill:#9ff" d="M 290 388.899C 291.001 387.898 291.5 387.4 291.5 386.4C 291.5 385.899 291.5 383.377 291.5 383.377L 287 383.377L 283 383.377C 283 384.355 283 386.503 283 386.888C 283 387.39 283 387.962 284 388.89C 285 389.818 286 390.39 286 391.888C 286 393.387 285 393.959 284 394.887C 283 395.815 283 396.387 283 396.888C 283 397.274 283 399.422 283 400.4L 287 400.4L 291.5 400.4C 291.5 400.4 291.5 397.878 291.5 397.377C 291.5 396.377 291.001 395.879 290 394.878C 288.999 393.878 288.5 393.379 288 392.878C 287.503 392.382 287.51 391.9 287.51 391.888C 287.51 391.877 287.503 391.395 288 390.899C 288.5 390.398 288.999 389.899 290 388.899z"/>
				<path style="stroke:none; fill:#f09" d="M 283.002 389.89C 283.403 390.291 283.713 390.601 284.01 390.899C 284.507 391.395 284.5 391.877 284.5 391.888L 287.51 391.888C 287.51 391.877 287.503 391.395 288 390.899C 288.297 390.601 288.607 390.291 289.009 389.89L 283.002 389.89z"/>
				<path style="stroke:none; fill:#f09" d="M 289 396.89C 288.105 396.442 287 395.89 287 394.89C 287 393.89 287 391.89 287 391.89L 285 391.89L 285 396.39L 283 398.89L 280.5 398.89L 280.5 399.89L 291 399.89L 291 397.89C 291 397.89 290 397.39 289 396.89z"/>
				<path style="stroke:none; fill:#f3f" d="M 284.01 390.899C 284.507 391.395 284.5 391.877 284.5 391.888L 286 391.888C 286 390.974 285.625 390.405 285.108 389.89L 283.002 389.89C 283.403 390.291 283.713 390.601 284.01 390.899z"/>
				<path style="stroke:none; fill:#f3f" d="M 285 391.89C 285 391.89 285 394.153 285 394.89C 285 395.89 283.894 396.441 283 396.888C 282 397.388 281 397.89 281 397.89L 281 399.89C 281 399.89 282 399.89 284 399.89C 284 397.89 284.5 397.515 285 396.89C 285.5 396.265 286 395.89 286 394.89C 286 393.89 286 391.89 286 391.89L 285 391.89z"/>
				<path style="stroke:#666; stroke-width:1; fill:none" d="M 290 388.899C 291.001 387.898 291.5 387.4 291.5 386.4C 291.5 385.899 291.5 383.377 291.5 383.377L 280.51 383.377C 280.51 383.377 280.51 385.899 280.51 386.4C 280.51 387.4 281.009 387.898 282.01 388.899C 283.012 389.899 283.51 390.398 284.01 390.899C 284.507 391.395 284.5 391.877 284.5 391.888C 284.5 391.9 284.507 392.382 284.01 392.878C 283.51 393.379 283.012 393.878 282.01 394.878C 281.009 395.879 280.51 396.377 280.51 397.377C 280.51 397.878 280.51 400.4 280.51 400.4L 291.5 400.4C 291.5 400.4 291.5 397.878 291.5 397.377C 291.5 396.377 291.001 395.879 290 394.878C 288.999 393.878 288.5 393.379 288 392.878C 287.503 392.382 287.51 391.9 287.51 391.888C 287.51 391.877 287.503 391.395 288 390.899C 288.5 390.398 288.999 389.899 290 388.899z"/>
				<path style="stroke:none; fill:#999" d="M 291.53 383.452L 282.5 383.452L 282.5 384.891L 291.53 384.891C 291.53 383.956 291.53 383.452 291.53 383.452z"/>
				<path style="stroke:none; fill:#cc9" d="M 280 383.452C 280 383.452 280 383.956 280 384.891L 283 384.891L 283 383.452L 280 383.452z"/>
				<path style="stroke:none; fill:#336" d="M 291 384.891L 292 384.891L 292 383.39L 291 383.39L 291 384.891z"/>
				<path style="stroke:none; fill:#336" d="M 280 384.891L 281 384.891L 281 383.39L 280 383.39L 280 384.891z"/>
				<path style="stroke:none; fill:#930" d="M 277.002 393.887L 278.002 393.887L 278.002 389.887L 277.002 389.887L 277.002 393.887z"/>
				<path style="stroke:none; fill:#c60" d="M 279.002 401.327L 276.002 401.327L 276.002 392.888L 279.002 392.888L 279.002 401.327z"/>
				<path style="stroke:none; fill:#f90" d="M 276.002 401.327L 277.002 401.327L 277.002 392.888L 276.002 392.888L 276.002 401.327z"/>
				<path style="stroke:none; fill:#930" d="M 278.002 401.327L 279.002 401.327L 279.002 392.888L 278.002 392.888L 278.002 401.327z"/>
				<path style="stroke:none; fill:#c60" d="M 279.002 390.888L 276.002 390.888L 276.002 383.453L 279.002 383.453L 279.002 390.888z"/>
				<path style="stroke:none; fill:#f90" d="M 276.002 390.888L 277.002 390.888L 277.002 384.89L 276.002 384.89L 276.002 390.888z"/>
				<path style="stroke:none; fill:#930" d="M 278.002 390.888L 279.002 390.888L 279.002 384.89L 278.002 384.89L 278.002 390.888z"/>
				<path style="stroke:none; fill:#300" d="M 278.002 384.89L 279.002 384.89L 279.002 383.389L 278.002 383.389L 278.002 384.89z"/>
				<path style="stroke:none; fill:#930" d="M 294 393.887L 295 393.887L 295 389.887L 294 389.887L 294 393.887z"/>
				<path style="stroke:none; fill:#c60" d="M 296 401.327L 293 401.327L 293 392.888L 296 392.888L 296 401.327z"/>
				<path style="stroke:none; fill:#f90" d="M 293 401.327L 294 401.327L 294 392.888L 293 392.888L 293 401.327z"/>
				<path style="stroke:none; fill:#930" d="M 295 401.327L 296 401.327L 296 392.888L 295 392.888L 295 401.327z"/>
				<path style="stroke:none; fill:#c60" d="M 296 390.888L 293 390.888L 293 383.453L 296 383.453L 296 390.888z"/>
				<path style="stroke:none; fill:#f90" d="M 293 390.888L 294 390.888L 294 384.89L 293 384.89L 293 390.888z"/>
				<path style="stroke:none; fill:#930" d="M 295 390.888L 296 390.888L 296 384.89L 295 384.89L 295 390.888z"/>
				<path style="stroke:none; fill:#300" d="M 295 384.89L 296 384.89L 296 383.389L 295 383.389L 295 384.89z"/>
				<path style="stroke:none; fill:#930" d="M 297 383.89L 297 380.892L 275 380.892L 275 383.89L 297 383.89z"/>
				<path style="stroke:none; fill:#300" d="M 296 380.892L 296 382.891L 275 382.891L 275 383.89L 297 383.89L 297 380.892L 296 380.892z"/>
				<path style="stroke:none; fill:#c60" d="M 280.5 382.891L 276 382.891L 276 381.89L 280.5 381.89L 280.5 382.891z"/>
				<path style="stroke:none; fill:#f90" d="M 284.5 382.891L 280 382.891L 280 381.89L 284.5 381.89L 284.5 382.891z"/>
				<path style="stroke:none; fill:#c60" d="M 296 382.891L 291.5 382.891L 291.5 381.89L 296 381.89L 296 382.891z"/>
				<path style="stroke:none; fill:#f90" d="M 292 382.891L 287.5 382.891L 287.5 381.89L 292 381.89L 292 382.891z"/>
				<path style="stroke:none; fill:#fc0" d="M 288 382.891L 284 382.891L 284 381.89L 288 381.89L 288 382.891z"/>
				<path style="stroke:none; fill:#930" d="M 297 402.886L 297 399.888L 275 399.888L 275 402.886L 297 402.886z"/>
				<path style="stroke:none; fill:#300" d="M 296 399.888L 296 401.887L 275 401.887L 275 402.886L 297 402.886L 297 399.888L 296 399.888z"/>
				<path style="stroke:none; fill:#c60" d="M 280.5 401.887L 276 401.887L 276 400.886L 280.5 400.886L 280.5 401.887z"/>
				<path style="stroke:none; fill:#f90" d="M 284.5 401.887L 280 401.887L 280 400.886L 284.5 400.886L 284.5 401.887z"/>
				<path style="stroke:none; fill:#c60" d="M 296 401.887L 291.5 401.887L 291.5 400.886L 296 400.886L 296 401.887z"/>
				<path style="stroke:none; fill:#f90" d="M 292 401.887L 287.5 401.887L 287.5 400.886L 292 400.886L 292 401.887z"/>
				<path style="stroke:none; fill:#fc0" d="M 288 401.887L 284 401.887L 284 400.886L 288 400.886L 288 401.887z"/>
				<path style="stroke:none; fill:#f09" d="M 281.098 387.89L 281.08 387.89C 281.08 387.89 281.092 387.894 281.1 387.897C 281.1 387.895 281.098 387.892 281.098 387.89z"/>
			</g>
		</g>
		<g>
			<g>
				<path style="stroke:none; fill:#fff" d="M 290 388.899C 291.001 387.898 291.5 387.4 291.5 386.4C 291.5 385.899 291.5 383.377 291.5 383.377L 280.51 383.377C 280.51 383.377 280.51 385.899 280.51 386.4C 280.51 387.4 281.009 387.898 282.01 388.899C 283.012 389.899 283.51 390.398 284.01 390.899C 284.507 391.395 284.5 391.877 284.5 391.888C 284.5 391.9 284.507 392.382 284.01 392.878C 283.51 393.379 283.012 393.878 282.01 394.878C 281.009 395.879 280.51 396.377 280.51 397.377C 280.51 397.878 280.51 400.4 280.51 400.4L 291.5 400.4C 291.5 400.4 291.5 397.878 291.5 397.377C 291.5 396.377 291.001 395.879 290 394.878C 288.999 393.878 288.5 393.379 288 392.878C 287.503 392.382 287.51 391.9 287.51 391.888C 287.51 391.877 287.503 391.395 288 390.899C 288.5 390.398 288.999 389.899 290 388.899z"/>
				<path style="stroke:none; fill:#9ff" d="M 290 388.899C 291.001 387.898 291.5 387.4 291.5 386.4C 291.5 385.899 291.5 383.377 291.5 383.377L 287 383.377L 283 383.377C 283 384.355 283 386.503 283 386.888C 283 387.39 283 387.962 284 388.89C 285 389.818 286 390.39 286 391.888C 286 393.387 285 393.959 284 394.887C 283 395.815 283 396.387 283 396.888C 283 397.274 283 399.422 283 400.4L 287 400.4L 291.5 400.4C 291.5 400.4 291.5 397.878 291.5 397.377C 291.5 396.377 291.001 395.879 290 394.878C 288.999 393.878 288.5 393.379 288 392.878C 287.503 392.382 287.51 391.9 287.51 391.888C 287.51 391.877 287.503 391.395 288 390.899C 288.5 390.398 288.999 389.899 290 388.899z"/>
				<path style="stroke:none; fill:#f09" d="M 289 395.89C 288.293 395.183 287.5 393.89 286 393.89C 284.5 393.89 283.706 395.183 283 395.89C 282 396.89 281 397.89 281 397.89L 281 399.89L 291 399.89L 291 397.89C 291 397.89 290 396.89 289 395.89z"/>
				<path style="stroke:none; fill:#f3f" d="M 286 393.89C 284.5 393.89 283.706 395.183 283 395.89C 282 396.89 281 397.89 281 397.89L 281 399.89L 284 399.89C 284 399.89 284 398.903 284 397.89C 284 396.876 285.125 394.876 286 393.89z"/>
				<path style="stroke:#666; stroke-width:1; fill:none" d="M 290 388.899C 291.001 387.898 291.5 387.4 291.5 386.4C 291.5 385.899 291.5 383.377 291.5 383.377L 280.51 383.377C 280.51 383.377 280.51 385.899 280.51 386.4C 280.51 387.4 281.009 387.898 282.01 388.899C 283.012 389.899 283.51 390.398 284.01 390.899C 284.507 391.395 284.5 391.877 284.5 391.888C 284.5 391.9 284.507 392.382 284.01 392.878C 283.51 393.379 283.012 393.878 282.01 394.878C 281.009 395.879 280.51 396.377 280.51 397.377C 280.51 397.878 280.51 400.4 280.51 400.4L 291.5 400.4C 291.5 400.4 291.5 397.878 291.5 397.377C 291.5 396.377 291.001 395.879 290 394.878C 288.999 393.878 288.5 393.379 288 392.878C 287.503 392.382 287.51 391.9 287.51 391.888C 287.51 391.877 287.503 391.395 288 390.899C 288.5 390.398 288.999 389.899 290 388.899z"/>
				<path style="stroke:none; fill:#999" d="M 291.53 383.452L 282.5 383.452L 282.5 384.891L 291.53 384.891C 291.53 383.956 291.53 383.452 291.53 383.452z"/>
				<path style="stroke:none; fill:#cc9" d="M 280 383.452C 280 383.452 280 383.956 280 384.891L 283 384.891L 283 383.452L 280 383.452z"/>
				<path style="stroke:none; fill:#336" d="M 291 384.891L 292 384.891L 292 383.39L 291 383.39L 291 384.891z"/>
				<path style="stroke:none; fill:#336" d="M 280 384.891L 281 384.891L 281 383.39L 280 383.39L 280 384.891z"/>
				<path style="stroke:none; fill:#930" d="M 277.002 393.887L 278.002 393.887L 278.002 389.887L 277.002 389.887L 277.002 393.887z"/>
				<path style="stroke:none; fill:#c60" d="M 279.002 401.327L 276.002 401.327L 276.002 392.888L 279.002 392.888L 279.002 401.327z"/>
				<path style="stroke:none; fill:#f90" d="M 276.002 401.327L 277.002 401.327L 277.002 392.888L 276.002 392.888L 276.002 401.327z"/>
				<path style="stroke:none; fill:#930" d="M 278.002 401.327L 279.002 401.327L 279.002 392.888L 278.002 392.888L 278.002 401.327z"/>
				<path style="stroke:none; fill:#c60" d="M 279.002 390.888L 276.002 390.888L 276.002 383.453L 279.002 383.453L 279.002 390.888z"/>
				<path style="stroke:none; fill:#f90" d="M 276.002 390.888L 277.002 390.888L 277.002 384.89L 276.002 384.89L 276.002 390.888z"/>
				<path style="stroke:none; fill:#930" d="M 278.002 390.888L 279.002 390.888L 279.002 384.89L 278.002 384.89L 278.002 390.888z"/>
				<path style="stroke:none; fill:#300" d="M 278.002 384.89L 279.002 384.89L 279.002 383.389L 278.002 383.389L 278.002 384.89z"/>
				<path style="stroke:none; fill:#930" d="M 294 393.887L 295 393.887L 295 389.887L 294 389.887L 294 393.887z"/>
				<path style="stroke:none; fill:#c60" d="M 296 401.327L 293 401.327L 293 392.888L 296 392.888L 296 401.327z"/>
				<path style="stroke:none; fill:#f90" d="M 293 401.327L 294 401.327L 294 392.888L 293 392.888L 293 401.327z"/>
				<path style="stroke:none; fill:#930" d="M 295 401.327L 296 401.327L 296 392.888L 295 392.888L 295 401.327z"/>
				<path style="stroke:none; fill:#c60" d="M 296 390.888L 293 390.888L 293 383.453L 296 383.453L 296 390.888z"/>
				<path style="stroke:none; fill:#f90" d="M 293 390.888L 294 390.888L 294 384.89L 293 384.89L 293 390.888z"/>
				<path style="stroke:none; fill:#930" d="M 295 390.888L 296 390.888L 296 384.89L 295 384.89L 295 390.888z"/>
				<path style="stroke:none; fill:#300" d="M 295 384.89L 296 384.89L 296 383.389L 295 383.389L 295 384.89z"/>
				<path style="stroke:none; fill:#930" d="M 297 383.89L 297 380.892L 275 380.892L 275 383.89L 297 383.89z"/>
				<path style="stroke:none; fill:#300" d="M 296 380.892L 296 382.891L 275 382.891L 275 383.89L 297 383.89L 297 380.892L 296 380.892z"/>
				<path style="stroke:none; fill:#c60" d="M 280.5 382.891L 276 382.891L 276 381.89L 280.5 381.89L 280.5 382.891z"/>
				<path style="stroke:none; fill:#f90" d="M 284.5 382.891L 280 382.891L 280 381.89L 284.5 381.89L 284.5 382.891z"/>
				<path style="stroke:none; fill:#c60" d="M 296 382.891L 291.5 382.891L 291.5 381.89L 296 381.89L 296 382.891z"/>
				<path style="stroke:none; fill:#f90" d="M 292 382.891L 287.5 382.891L 287.5 381.89L 292 381.89L 292 382.891z"/>
				<path style="stroke:none; fill:#fc0" d="M 288 382.891L 284 382.891L 284 381.89L 288 381.89L 288 382.891z"/>
				<path style="stroke:none; fill:#930" d="M 297 402.886L 297 399.888L 275 399.888L 275 402.886L 297 402.886z"/>
				<path style="stroke:none; fill:#300" d="M 296 399.888L 296 401.887L 275 401.887L 275 402.886L 297 402.886L 297 399.888L 296 399.888z"/>
				<path style="stroke:none; fill:#c60" d="M 280.5 401.887L 276 401.887L 276 400.886L 280.5 400.886L 280.5 401.887z"/>
				<path style="stroke:none; fill:#f90" d="M 284.5 401.887L 280 401.887L 280 400.886L 284.5 400.886L 284.5 401.887z"/>
				<path style="stroke:none; fill:#c60" d="M 296 401.887L 291.5 401.887L 291.5 400.886L 296 400.886L 296 401.887z"/>
				<path style="stroke:none; fill:#f90" d="M 292 401.887L 287.5 401.887L 287.5 400.886L 292 400.886L 292 401.887z"/>
				<path style="stroke:none; fill:#fc0" d="M 288 401.887L 284 401.887L 284 400.886L 288 400.886L 288 401.887z"/>
				<path style="stroke:none; fill:#f09" d="M 281.098 387.89L 281.08 387.89C 281.08 387.89 281.092 387.894 281.1 387.897C 281.1 387.895 281.098 387.892 281.098 387.89z"/>
			</g>
		</g>
	</g>
</svg>
