<svg xmlns="http://www.w3.org/2000/svg" width="24" height="24">
	<g transform="translate(-264,-386)" id="KDDI_D_059">
		<g>
			<path style="stroke:none; fill:none" d="M 288 409.89L 264 409.89L 264 385.89L 288 385.89L 288 409.89z"/>
		</g>
		<g>
			<path style="stroke:none; fill:#060" d="M 285.5 385.89L 264 385.89L 264 409.89L 288 409.89L 288 388.39L 285.5 385.89z"/>
			<path style="stroke:none; fill:#030" d="M 268 393.89L 268 386.556L 267 386.556L 267 393.89L 268 394.89L 270.833 394.89L 270.833 393.89L 268 393.89z"/>
			<path style="stroke:none; fill:#030" d="M 284.542 404.39L 286 404.39L 286 405.89L 284.542 405.89L 284.542 404.39z"/>
			<path style="stroke:none; fill:#030" d="M 265.042 404.39L 266.5 404.39L 266.5 405.89L 265.042 405.89L 265.042 404.39z"/>
			<path style="stroke:none; fill:#ff9" d="M 283.526 408.89L 269.526 408.89L 269.5 397.39L 283.5 397.39L 283.526 408.89z"/>
			<path style="stroke:none; fill:#cc9" d="M 269 396.89L 269 408.89L 270 408.89C 270 408.89 270 398.805 270 397.89C 270.93 397.89 283.5 397.89 283.5 397.89L 283.5 396.89L 269 396.89z"/>
			<path style="stroke:none; fill:#999" d="M 271.5 399.39L 271.5 400.39L 282 400.39L 282 399.39L 271.5 399.39z"/>
			<path style="stroke:none; fill:#999" d="M 271.5 402.39L 271.5 403.39L 282 403.39L 282 402.39L 271.5 402.39z"/>
			<path style="stroke:none; fill:#999" d="M 271.5 405.39L 271.5 406.39L 282 406.39L 282 405.39L 271.5 405.39z"/>
			<path style="stroke:none; fill:#396" d="M 287 404.39L 286 404.39C 286 404.39 286 405.327 286 405.89C 285.606 405.89 284.94 405.89 284.486 405.89L 284.486 396.89L 283.486 396.89L 283.486 408.89L 284.486 408.89L 284.486 406.89L 287 406.89L 287 404.39z"/>
			<path style="stroke:none; fill:#030" d="M 285.147 386.743C 285.147 386.743 286.749 388.345 287 388.597C 287 388.993 287 407.946 287 408.89C 286.044 408.89 265 408.89 265 408.89L 264 409.89L 288 409.89L 288 388.183L 285.853 386.036L 285.147 386.743z"/>
			<path style="stroke:none; fill:#396" d="M 285.707 385.89L 264 385.89L 264 409.89L 265 408.89C 265 408.383 265 407.697 265 406.89L 267.5 406.89L 267.5 404.39L 266.5 404.39C 266.5 404.39 266.5 405.327 266.5 405.89C 266.109 405.89 265.454 405.89 265 405.89C 265 399.49 265 387.588 265 386.89C 265.719 386.89 277.108 386.89 282.5 386.89L 282.5 394.89L 283.5 394.89L 283.5 386.89C 284.612 386.89 285.293 386.89 285.293 386.89L 287 388.597L 288 388.183L 285.707 385.89z"/>
			<path style="stroke:none; fill:#ff9" d="M 282.5 385.89L 270.5 385.89L 270.5 394.89L 282.5 394.89L 282.5 385.89z"/>
			<path style="stroke:none; fill:#cc9" d="M 282.5 386.89L 282.5 394.89L 270.5 394.89L 270.5 393.89L 273 393.89L 280 386.89L 282.5 386.89z"/>
			<path style="stroke:none; fill:#cc9" d="M 275.5 386.89L 271.5 390.89L 271.5 392.39L 277.012 386.89L 275.5 386.89z"/>
			<path style="stroke:none; fill:#cc9" d="M 273.5 386.89L 271.5 386.89L 271.5 388.89L 273.5 386.89z"/>
			<path style="stroke:none; fill:#030" d="M 281 393.39L 278 393.39L 278 386.89L 281 386.89L 281 393.39z"/>
			<path style="stroke:none; fill:#060" d="M 281 393.39L 278.973 393.39L 278.973 387.89L 281 387.89L 281 393.39z"/>
		</g>
	</g>
</svg>
