<svg xmlns="http://www.w3.org/2000/svg" height="24" width="24">
	<g transform="matrix(1,0,0,-1,-264,408)" id="KDDI_D_060">
        <path d="M277.6 394.4h-3.2v3.2h3.2z" fill="#6cf"/>
        <path d="M275.5 395.5h-2.1v1h2.1zM278.6 395.5h-2.1v1h2.1zM276.5 393.4h-1v2.1h1zM276.5 398.6h-1v-2.1h1zM267.1 396.5H264v1.1h3.1zM267.1 394.4H264v1.1h3.1zM268.2 396.5h-1.1v-1h1.1zM269.2 397.6h-1v-1.1h1zM269.2 395.5h-1v-1.1h1z" fill="#039"/>
        <path d="M274.4 394.4h-1v1.1h1zM274.4 394.4h1.1v-1h-1.1zM276.5 394.4h1.1v-1h-1.1zM277.6 395.5h1v-1.1h-1zM277.6 397.6h1v-1.1h-1zM276.5 398.6h1.1v-1h-1.1zM274.4 398.6h1.1v-1h-1.1zM273.4 397.6h1v-1.1h-1zM275.5 396.5h1v-1h-1z" fill="#cff"/>
        <path d="M267.1 395.5H264v1h3.1zM273.4 395.5h-3.1v1h3.1zM270.3 394.4h-1.1v1.1h1.1zM268.2 394.4h-1.1v1.1h1.1zM269.2 395.5h-1v1h1zM268.2 396.5h-1.1v1.1h1.1zM270.3 396.5h-1.1v1.1h1.1z" fill="#6cf"/>
        <path d="M269.2 395.5h-1v1h1z" fill="#cff"/>
        <path d="M270.3 396.5h-1.1v-1h1.1zM282.8 396.5h-1.1v-1h1.1zM283.8 397.6h-1v-1.1h1zM283.8 395.5h-1v-1.1h1zM288 394.4h-3.1v1.1h3.1zM288 397.6h-3.1v-1.1h3.1z" fill="#039"/>
        <path d="M281.7 395.5h-3.1v1h3.1zM288 395.5h-3.1v1h3.1zM284.9 394.4h-1.1v1.1h1.1zM282.8 394.4h-1.1v1.1h1.1zM283.8 395.5h-1v1h1zM282.8 396.5h-1.1v1.1h1.1zM284.9 396.5h-1.1v1.1h1.1z" fill="#6cf"/>
        <path d="M283.8 395.5h-1v1h1z" fill="#cff"/>
        <path d="M284.9 396.5h-1.1v-1h1.1zM275.5 402.8v-1.1h1v1.1zM274.4 403.8v-1h1.1v1zM276.5 403.8v-1h1.1v1zM277.6 408v-3.1h-1.1v3.1zM274.4 408v-3.1h1.1v3.1z" fill="#039"/>
        <path d="M276.5 401.7v-3.1h-1v3.1zM276.5 408v-3.1h-1v3.1zM277.6 404.9v-1.1h-1.1v1.1zM277.6 402.8v-1.1h-1.1v1.1zM276.5 403.8v-1h-1v1zM275.5 402.8v-1.1h-1.1v1.1zM275.5 404.9v-1.1h-1.1v1.1z" fill="#6cf"/>
        <path d="M276.5 403.8v-1h-1v1z" fill="#cff"/>
        <path d="M275.5 404.9v-1.1h1v1.1zM275.5 387.1V384h-1.1v3.1zM277.6 387.1V384h-1.1v3.1zM275.5 388.2v-1.1h1v1.1zM274.4 389.2v-1h1.1v1zM276.5 389.2v-1h1.1v1z" fill="#039"/>
        <path d="M276.5 387.1V384h-1v3.1zM276.5 393.4v-3.1h-1v3.1zM277.6 390.3v-1.1h-1.1v1.1zM277.6 388.2v-1.1h-1.1v1.1zM276.5 389.2v-1h-1v1zM275.5 388.2v-1.1h-1.1v1.1zM275.5 390.3v-1.1h-1.1v1.1z" fill="#6cf"/>
        <path d="M276.5 389.2v-1h-1v1z" fill="#cff"/>
        <path d="M275.5 390.3v-1.1h1v1.1zM272.3 390.3h1.1v1h-1.1zM273.4 393.4h1v1h-1z" fill="#039"/>
        <path d="M272.3 392.3h1.1v1.1h-1.1zM270.3 392.3h1v1.1h-1z" fill="#039"/>
        <path d="M267.1 391.3h1.1v-1h-1.1zM270.3 388.2h1v-1.1h-1zM269.2 389.2h1.1v1.1h-1.1zM268.2 388.2h1v1h-1zM273.4 393.4v1h-2.1v-2.1h1v1.1z" fill="#6cf"/>
        <path d="M273.4 392.3h-1.1v-1h2.1v2.1h-1z" fill="#6cf"/>
        <path d="M272.3 390.3h-1v1h1zM271.3 391.3h-1v1h1zM268.2 387.1h-1.1v1.1h1.1z" fill="#cff"/>
        <path d="M271.3 391.3h1v1h-1zM270.3 391.3h-2.1v-1h2.1v-2.1h1v3.1z" fill="#039"/>
        <path d="M270.3 390.3h1v1h-1z" fill="#6cf"/>
        <path d="M279.7 390.3h-1.1v1h1.1zM278.6 393.4h-1v1h1z" fill="#039"/>
        <path d="M279.7 392.3h-1.1v1.1h1.1zM281.7 392.3h-1v1.1h1z" fill="#039"/>
        <path d="M284.9 391.3h-1.1v-1h1.1zM281.7 388.2h-1v-1.1h1zM282.8 389.2h-1.1v1.1h1.1zM283.8 388.2h-1v1h1zM278.6 393.4v1h2.1v-2.1h-1v1.1z" fill="#6cf"/>
        <path d="M278.6 392.3h1.1v-1h-2.1v2.1h1z" fill="#6cf"/>
        <path d="M279.7 390.3h1v1h-1zM280.7 391.3h1v1h-1zM283.8 387.1h1.1v1.1h-1.1z" fill="#cff"/>
        <path d="M280.7 391.3h-1v1h1zM281.7 391.3h2.1v-1h-2.1v-2.1h-1v3.1z" fill="#039"/>
        <path d="M281.7 390.3h-1v1h1z" fill="#6cf"/>
        <path d="M272.3 401.7h1.1v-1h-1.1zM273.4 398.6h1v-1h-1z" fill="#039"/>
        <path d="M272.3 399.7h1.1v-1.1h-1.1zM270.3 399.7h1v-1.1h-1z" fill="#039"/>
        <path d="M267.1 400.7h1.1v1h-1.1zM270.3 403.8h1v1.1h-1zM269.2 402.8h1.1v-1.1h-1.1zM268.2 403.8h1v-1h-1zM273.4 398.6v-1h-2.1v2.1h1v-1.1z" fill="#6cf"/>
        <path d="M273.4 399.7h-1.1v1h2.1v-2.1h-1z" fill="#6cf"/>
        <path d="M272.3 401.7h-1v-1h1zM271.3 400.7h-1v-1h1zM268.2 404.9h-1.1v-1.1h1.1z" fill="#cff"/>
        <path d="M271.3 400.7h1v-1h-1zM270.3 400.7h-2.1v1h2.1v2.1h1v-3.1z" fill="#039"/>
        <path d="M270.3 401.7h1v-1h-1z" fill="#6cf"/>
        <path d="M279.7 401.7h-1.1v-1h1.1zM278.6 398.6h-1v-1h1z" fill="#039"/>
        <path d="M279.7 399.7h-1.1v-1.1h1.1zM281.7 399.7h-1v-1.1h1z" fill="#039"/>
        <path d="M284.9 400.7h-1.1v1h1.1zM281.7 403.8h-1v1.1h1zM282.8 402.8h-1.1v-1.1h1.1zM283.8 403.8h-1v-1h1zM278.6 398.6v-1h2.1v2.1h-1v-1.1z" fill="#6cf"/>
        <path d="M278.6 399.7h1.1v1h-2.1v-2.1h1z" fill="#6cf"/>
        <path d="M279.7 401.7h1v-1h-1zM280.7 400.7h1v-1h-1zM283.8 404.9h1.1v-1.1h-1.1z" fill="#cff"/>
        <path d="M280.7 400.7h-1v-1h1zM281.7 400.7h2.1v1h-2.1v2.1h-1v-3.1z" fill="#039"/>
        <path d="M281.7 401.7h-1v-1h1z" fill="#6cf"/>
        <path d="M273.4 394.4h-3.1v1.1h3.1zM273.4 397.6h-3.1v-1.1h3.1zM275.5 401.7v-3.1h-1.1v3.1zM277.6 401.7v-3.1h-1.1v3.1zM281.7 396.5h-3.1v1.1h3.1zM281.7 394.4h-3.1v1.1h3.1zM277.6 393.4v-3.1h-1.1v3.1zM274.4 393.4v-3.1h1.1v3.1z" fill="#039"/>
    </g>
</svg>
