<svg xmlns="http://www.w3.org/2000/svg" width="24" height="24">
	<g transform="translate(-264,-386)" id="KDDI_D_062">
		<g>
			<path style="stroke:none; fill:none" d="M 288 409.89L 264 409.89L 264 385.89L 288 385.89L 288 409.89z"/>
		</g>
		<g>
			<path style="stroke:none; fill:#ffcc00" d="M 288 409.89L 264 409.89L 264 385.89L 288 385.89L 288 409.89z"/>
			<path style="stroke:none; fill:#ff0000" d="M 264.667 389.89L 272.667 397.89L 264.667 405.89L 268.009 409.223L 276.009 401.223L 283.991 409.223L 287.333 405.89L 279.333 397.89L 287.333 389.89L 283.991 386.557L 275.995 394.557L 267.993 386.557L 264.667 389.89z"/>
			<path style="stroke:none; fill:#ff9999" d="M 264.312 389.536L 263.959 389.89C 263.959 389.89 271.313 397.244 271.959 397.89C 271.313 398.536 263.959 405.89 263.959 405.89L 268.009 409.903L 268.009 408.516C 268.009 408.516 265.938 406.455 265.373 405.89C 266.019 405.244 273.373 397.89 273.373 397.89C 273.373 397.89 266.019 390.536 265.373 389.89C 265.939 389.325 267.993 387.263 267.993 387.263L 267.993 385.89L 264.312 389.536z"/>
			<path style="stroke:none; fill:#990000" d="M 267.993 387.264L 275.995 395.236L 276.586 394.481L 267.993 385.856L 267.993 387.264z"/>
			<path style="stroke:none; fill:#990000" d="M 283.991 387.264C 283.991 387.264 286.061 389.325 286.626 389.89C 285.98 390.536 278.626 397.89 278.626 397.89C 278.626 397.89 285.98 405.244 286.626 405.89C 286.061 406.455 283.991 408.516 283.991 408.516L 283.991 409.903L 288.04 405.89C 288.04 405.89 280.686 398.536 280.04 397.89C 280.686 397.244 288.04 389.89 288.04 389.89L 283.991 385.89L 283.991 387.264z"/>
			<path style="stroke:none; fill:#990000" d="M 268.009 408.516L 268.009 409.903L 276.009 401.91L 276.009 400.509L 268.009 408.516z"/>
			<path style="stroke:none; fill:#ff9999" d="M 275.995 393.89L 275.995 395.264L 283.991 387.264L 283.991 385.904L 275.995 393.89z"/>
			<path style="stroke:none; fill:#ff9999" d="M 276.009 401.955L 283.991 409.903L 283.991 408.516L 276.009 400.516L 276.009 401.955z"/>
			<path style="stroke:none; fill:#ff0000" d="M 265.374 389.89C 266.02 390.536 273.374 397.89 273.374 397.89C 273.374 397.89 266.02 405.244 265.374 405.89C 265.872 406.388 267.511 408.018 268.009 408.516C 268.655 407.87 276.009 400.516 276.009 400.516C 276.009 400.516 283.345 407.87 283.991 408.516C 284.489 408.018 286.128 406.388 286.626 405.89C 285.98 405.244 278.626 397.89 278.626 397.89C 278.626 397.89 285.98 390.536 286.626 389.89C 286.128 389.392 284.489 387.762 283.991 387.264C 283.345 387.91 275.995 395.264 275.995 395.264C 275.995 395.264 268.639 387.91 267.993 387.264C 267.495 387.762 265.872 389.392 265.374 389.89z"/>
		</g>
	</g>
</svg>