<svg xmlns="http://www.w3.org/2000/svg" width="24" height="24">
	<g transform="translate(-288,-386)" id="KDDI_D_063">
		<g>
			<path style="stroke:none; fill:none" d="M 312 409.89L 288 409.89L 288 385.89L 312 385.89L 312 409.89z"/>
		</g>
		<g>
			<g>
				<path style="stroke:none; fill:#339900" d="M 300.006 385.934L 302.006 390.872L 309.022 397.892L 311.908 397.892L 300.006 385.934z"/>
				<path style="stroke:none; fill:#33cc00" d="M 302.006 390.872L 300.006 385.934L 300.006 392.907L 302.006 394.907L 302.006 390.872z"/>
				<path style="stroke:none; fill:#66ff00" d="M 290 394.907L 288 392.907L 300.006 392.907L 302.006 394.907L 290 394.907z"/>
			</g>
			<path style="stroke:none; fill:#006600" d="M 300.006 409.802L 302.006 404.907L 309.022 397.892L 311.908 397.892L 300.006 409.802z"/>
			<path style="stroke:none; fill:#33cc00" d="M 300.006 409.802L 302.006 404.907L 302.006 400.876L 300.006 402.876L 300.006 409.802z"/>
			<path style="stroke:none; fill:#006600" d="M 300.006 402.876L 302.006 400.876L 290 400.876L 288 402.876L 300.006 402.876z"/>
			<path style="stroke:none; fill:#33cc00" d="M 290 394.907L 288 392.907L 288 402.876L 290 400.876L 290 394.907z"/>
			<path style="stroke:none; fill:#339900" d="M 302.006 404.907L 309.022 397.892L 302.006 390.872L 302.006 394.907L 290 394.907L 290 400.876L 302.006 400.876L 302.006 404.907z"/>
		</g>
	</g>
</svg>