<svg xmlns="http://www.w3.org/2000/svg" width="24" height="24">
	<g transform="translate(-288,-386)" id="KDDI_D_064">
		<g>
			<path style="stroke:none; fill:none" d="M 312 409.89L 288 409.89L 288 385.89L 312 385.89L 312 409.89z"/>
		</g>
		<g>
			<g>
				<path style="stroke:none; fill:#66ff00" d="M 299.994 385.934L 297.994 390.872L 290.978 397.892L 288.092 397.892L 299.994 385.934z"/>
				<path style="stroke:none; fill:#006600" d="M 297.994 390.872L 299.994 385.934L 299.994 392.907L 297.994 394.907L 297.994 390.872z"/>
				<path style="stroke:none; fill:#33cc00" d="M 310 394.907L 312 392.907L 299.994 392.907L 297.994 394.907L 310 394.907z"/>
			</g>
			<path style="stroke:none; fill:#339900" d="M 299.994 409.802L 297.994 404.907L 290.978 397.892L 288.092 397.892L 299.994 409.802z"/>
			<path style="stroke:none; fill:#006600" d="M 299.994 409.802L 297.994 404.907L 297.994 400.876L 299.994 402.876L 299.994 409.802z"/>
			<path style="stroke:none; fill:#006600" d="M 299.994 402.876L 297.994 400.876L 310 400.876L 312 402.876L 299.994 402.876z"/>
			<path style="stroke:none; fill:#006600" d="M 310 394.907L 312 392.907L 312 402.876L 310 400.876L 310 394.907z"/>
			<path style="stroke:none; fill:#339900" d="M 297.994 404.907L 290.978 397.892L 297.994 390.872L 297.994 394.907L 310 394.907L 310 400.876L 297.994 400.876L 297.994 404.907z"/>
		</g>
	</g>
</svg>