<svg xmlns="http://www.w3.org/2000/svg" height="24" width="24">
	<g transform="matrix(1,0,0,-1,-264,408)" id="KDDI_D_065">
        <path d="M271.6 400.1h-5.2c-.9 0-1.6-.8-1.6-1.7v-7.6c0-.9 1.3-2.1 2.2-2.1h4.6v2.4h-3.5c-.2 0-1 .6-1 .9v5.2c0 .3.2.5.3.5h4.2z" fill="#fc0"/>
        <path d="M265.3 399.1s.4.3.6 0c.2-.3 0-8 0-8s-.5-1.2-.8-.9c-.2.2.2 8.9.2 8.9z" fill="#ff9"/>
        <path d="M266.9 388.9s-.5.5-.2.7c.3.2.6.2.6.2h3.5l-.2-.9z" fill="#c90"/>
        <path d="M266.8 399.9s-.5-.4-.2-.6c.4-.2.8-.3.8-.3h3.4v1z" fill="#ff3"/>
        <path d="M271.6 400.1h-5.2c-.9 0-1.6-.8-1.6-1.7v-7.6c0-.9 1-2.3 2.8-2.3h4" fill="none" stroke="#000"/>
        <path d="M271.7 391.3h-3.2c-.8 0-1.3.4-1.3 1.2v4.7c0 .3.2.5.3.5h4.2" fill="none" stroke="#000"/>
        <path d="M285.4 402.6c0 .5-.4 1-1 1h-12.3c-.6 0-1-.5-1-1v-17c0-.6.4-1 1-1h12.3c.6 0 1 .4 1 1z" fill="#fc0"/>
        <path d="M285.3 386.4h-2.4v13.9h2.4z" fill="#c60"/>
        <path d="M282.9 386.4h-2.2v13.9h2.2z" fill="#c90"/>
        <path d="M278.6 386.4h-2v13.9h2zM274.8 386.4h-2v13.9h2z" fill="#ff3"/>
        <path d="M276.7 386.4h-2v13.9h2z" fill="#ffc"/>
        <path d="M272.8 384.8v1.6h8.6v-.7l-.9-.9z" fill="#c90"/>
        <path d="M279.5 384.8v1.6h5.6v-.7l-.6-.9z" fill="#c60"/>
        <path d="M271.1 402.6v-16.8c0-.6.6-1.2 1.2-1.2h11.9c.6 0 1.2.6 1.2 1.2v16.8" fill="none" stroke="#000"/>
        <path d="M271.5 406.7s-2.9-.1-2.9-2.3c0-2.2 2.6-2.5 2.6-2.5s0-.8 1.2-1.1c1.4-.4 5.7-.6 7.1-.4.1-.8.1-1.1.4-1.4.4-.3 1.1-.6 1.1-.6s-.4-1.9.9-2.1c1-.1 1.1.5 1.4 1.1.2.7.7 1.9.5 2.8.4.1 2.2.3 2.9 1.1 1.3 1.4.6 3.9-1.3 4.8-1.4.7-4.3 1.3-7.8 1.3s-6.1-.7-6.1-.7z" fill="#fff"/>
        <path d="M280.1 406.9s.6-1.3.3-2.2c-.2-.9-2.9-2-3.9-2.4-1-.4-.9-1.4-.5-1.7.4-.2 3.5-.2 3.5-.2s.8.4 1.2-.1c.4-.6 1.1-.5 1.1-.9 0-.3.2-2.6.6-2.6.4 0 1.2 1.9 1.3 2.4.1.5.1 1 .1 1s2.2.8 2.4 1.1c.2.3 1.4 1.6.5 3-.9 1.3-3.9 2.8-6.6 2.6z" fill="#ff9"/>
        <path d="M284.3 406s1.2-1.3 1.2-2.1c0-.7-1.7-2.2-2.2-2.5-.4-.3.4-.9.8-.9.3 0 2.4.6 2.7 1.6.3 1 .1 2.4-.2 2.7-.2.3-1.4 1-2.3 1.2z" fill="#ff3"/>
        <path d="M283.1 402.3c0-.4-.3-.7-.8-.7-.4 0-.8.3-.8.7 0 .3.4.6.8.6.5 0 .8-.3.8-.6z" fill="#fff"/>
        <path d="M284.1 400.5s-.2.8.5 1.1c.7.2 2.4 1.7 2.4 1.7s.4-.8.1-1.3c-.3-.5-3-1.5-3-1.5zM283.7 400.4s-1 .4-.9-.2c.1-.6 0-2.9 0-2.9s.4.6.5 1.2c.1.6.4 1.9.4 1.9z" fill="#fc3"/>
        <path d="M270.5 402.6s.2.8 1.1.8c.8.1.7-.1.5-.4-.1-.2-.7-.8-.7-.8z" fill="#ff9"/>
        <path d="M276.5 400.8s.1.5.4.7c.3.2 1.5.4 2.1.4.6-.1.5-1.1.5-1.1z" fill="#ff3"/>
        <path d="M272.1 407.2c-1.3-.3-3.5-.9-3.4-2.8.2-2.2 2.5-2.5 2.5-2.5s0-.8 1.2-1.1c1.4-.4 5.4-.4 7.1-.4.1-.8.1-1.1.4-1.4.4-.3 1.1-.6 1.1-.6s-.4-1.9.9-2.1c1-.1 1.1.5 1.4 1.1.2.7.7 1.9.5 2.8.4.1 2.2.3 2.9 1.1 1.3 1.4.6 3.9-1.3 4.8-1.4.7-4.3 1.3-7.8 1.3s-4.8-.1-5.5-.2z" fill="none" stroke="#000" stroke-linejoin="round"/>
    </g>
</svg>
