<svg xmlns="http://www.w3.org/2000/svg" height="24" width="24">
	<g transform="matrix(1,0,0,-1,-264,408)" id="KDDI_D_068">
        <path d="M287.5 396c0-6.4-5.1-11.5-11.5-11.5s-11.5 5.1-11.5 11.5 5.1 11.5 11.5 11.5 11.5-5.1 11.5-11.5z" fill="#f90"/>
        <path d="M278.1 407.3c4.6-1.5 7.9-5.8 7.9-10.9 0-6.4-5.1-11.5-11.5-11.5-.7 0-1.4 0-2.1.2 1.2-.4 2.4-.6 3.6-.6 6.4 0 11.5 5.1 11.5 11.5 0 5.6-4.1 10.3-9.4 11.3z" fill="#c60"/>
        <path d="M284.8 397.1c0 4.3-2.4 8-5.8 10-1 .3-2 .4-3 .4-6.4 0-11.5-5.1-11.5-11.5 0-4.3 2.3-8 5.8-10 .9-.2 1.9-.4 3-.4 6.3 0 11.5 5.2 11.5 11.5z" fill="#fc0"/>
        <path d="M284.8 397.1c0 4.3-2.4 8-5.8 10-1 .3-2 .4-3 .4-6.4 0-11.5-5.1-11.5-11.5 0-4.3 2.3-8 5.8-10 .9-.2 1.9-.4 3-.4 6.3 0 11.5 5.2 11.5 11.5z" fill="#fc0"/>
        <path d="M266.4 394.8c0 6.3 5.1 11.5 11.5 11.5 1.9 0 3.8-.5 5.4-1.4-2 1.6-4.5 2.6-7.3 2.6-6.4 0-11.5-5.1-11.5-11.5 0-4.4 2.5-8.2 6.1-10.1-2.6 2.1-4.2 5.3-4.2 8.9z" fill="#ff3"/>
        <path d="M268.4 402.8c1.4 1.8 3 2.3 3.3 1.5.2-.7-.6-1.2-1.7-2.2-1.1-1-1.7-2.2-2.4-2-.7.2-.6 1 .8 2.7z" fill="#ffc"/>
        <path d="M287.5 396c0-6.4-5.1-11.5-11.5-11.5s-11.5 5.1-11.5 11.5 5.1 11.5 11.5 11.5 11.5-5.1 11.5-11.5z" fill="none" stroke="#000"/>
        <path d="M269.1 394.1c.3-2.3 3.6-4.2 6.9-4.2 3.3 0 6.6 2 6.9 4.2" fill="none" stroke="#000" stroke-linecap="round"/>
        <path d="M272.4 400.3v-3.1M279.6 400.3v-3.1" fill="none" stroke="#000" stroke-width="2" stroke-linecap="square"/>
    </g>
</svg>
