<svg xmlns="http://www.w3.org/2000/svg" height="24" width="24">
	<g transform="matrix(1,0,0,-1,-264,408)" id="KDDI_D_069">
        <path d="M271.4 393.8l-7.4 5.5h9.1l3 8.7 2.8-8.7h9.2l-7.4-5.5 2.8-8.7-7.4 5.4-7.6-5.4z" fill="#f90"/>
        <path d="M277.1 396.8l2.1-.5 8.9 3-7.4-5.5-4.7 1 .1-4.3-7.6-5.4z" fill="#c60"/>
        <path d="M273.4 396.2l-9.4 3.1h9.1l3 8.7-.1-8.8z" fill="#ff3"/>
        <path d="M272.9 394.4l-5.6 3.8h6.6l2.2 6.3 2-6.3h6.6l-5.7-3.9 2.4-6-5.3 3.8-5.2-3.8z" fill="#fc0"/>
    </g>
</svg>
