<svg xmlns="http://www.w3.org/2000/svg" width="24" height="24">
	<g transform="translate(-288,-386)" id="KDDI_D_070">
		<g>
			<path style="stroke:none; fill:none" d="M 312 409.89L 288 409.89L 288 385.89L 312 385.89L 312 409.89z"/>
		</g>
		<g>
			<g>
				<g>
					<path style="stroke:none; fill:#0066ff" d="M 297.908 389.909L 293.174 387.917L 298.721 393.483L 301.486 393.483L 297.908 389.909z"/>
					<path style="stroke:none; fill:#0066ff" d="M 309.941 404.739L 307.97 399.903L 304.422 396.364L 304.422 399.306L 309.941 404.739z"/>
					<path style="stroke:none; fill:#0033ff" d="M 304.422 399.306L 304.422 396.364L 294.958 405.907L 294.958 408.817L 304.422 399.306z"/>
					<path style="stroke:none; fill:#00ffff" d="M 291.979 402.921L 289.084 402.921L 298.721 393.483L 301.486 393.483L 291.979 402.921z"/>
					<path style="stroke:none; fill:#0066ff" d="M 291.979 402.921L 289.084 402.921L 294.958 408.817L 294.958 405.907L 291.979 402.921z"/>
					<path style="stroke:none; fill:#0033ff" d="M 309.941 404.739L 307.97 399.903L 307.97 389.909L 309.934 387.917L 309.941 404.739z"/>
					<path style="stroke:none; fill:#00ccff" d="M 293.174 387.917L 297.908 389.909L 307.97 389.909L 309.934 387.917L 293.174 387.917z"/>
				</g>
				<path style="stroke:none; fill:#0099ff" d="M 307.97 399.903L 307.97 389.909L 297.908 389.909L 301.486 393.483L 291.979 402.921L 294.958 405.907L 304.422 396.364L 307.97 399.903z"/>
			</g>
		</g>
	</g>
</svg>
