<svg xmlns="http://www.w3.org/2000/svg" width="24" height="24">
	<g transform="translate(-288,-386)" id="KDDI_D_071">
		<g>
			<path style="stroke:none; fill:none" d="M 312 409.89L 288 409.89L 288 385.89L 312 385.89L 312 409.89z"/>
		</g>
		<g>
			<g>
				<g>
					<path style="stroke:none; fill:#0066ff" d="M 302.092 405.87L 306.826 407.862L 301.279 402.297L 298.514 402.297L 302.092 405.87z"/>
					<path style="stroke:none; fill:#0066ff" d="M 290.059 391.04L 292.03 395.876L 295.578 399.415L 295.578 396.474L 290.059 391.04z"/>
					<path style="stroke:none; fill:#00ffff" d="M 295.578 396.474L 295.578 399.415L 305.042 389.872L 305.042 386.962L 295.578 396.474z"/>
					<path style="stroke:none; fill:#0033ff" d="M 308.022 392.858L 310.916 392.858L 301.279 402.297L 298.514 402.297L 308.022 392.858z"/>
					<path style="stroke:none; fill:#0066ff" d="M 308.022 392.858L 310.916 392.858L 305.042 386.962L 305.042 389.872L 308.022 392.858z"/>
					<path style="stroke:none; fill:#00ccff" d="M 290.059 391.04L 292.03 395.876L 292.03 405.87L 290.066 407.862L 290.059 391.04z"/>
					<path style="stroke:none; fill:#0033ff" d="M 306.826 407.862L 302.092 405.87L 292.03 405.87L 290.066 407.862L 306.826 407.862z"/>
				</g>
				<path style="stroke:none; fill:#0099ff" d="M 292.03 395.876L 292.03 405.87L 302.092 405.87L 298.514 402.297L 308.022 392.858L 305.042 389.872L 295.578 399.415L 292.03 395.876z"/>
			</g>
		</g>
	</g>
</svg>
