<svg xmlns="http://www.w3.org/2000/svg" height="24" width="24">
	<g transform="matrix(1,0,0,-1,-264,408)" id="KDDI_D_072">
        <path d="M276 399.5c-4.3 0-7.7-3.5-7.7-7.7 0-4.3 3.4-7.8 7.7-7.8 4.3 0 7.7 3.5 7.7 7.8 0 4.2-3.4 7.7-7.7 7.7m0-12.7c-2.7 0-4.9 2.2-4.9 5 0 2.7 2.2 4.9 4.9 4.9s4.9-2.2 4.9-4.9c0-2.8-2.2-5-4.9-5z" fill="#f90"/>
        <path d="M270.1 387.5c-.7 1.1-1.2 2.7-1.2 4.1 0 4.3 3.6 7.5 7.9 7.5.9 0 .5.4-.8.4-4.3 0-7.7-3.5-7.7-7.7 0-1.7.5-3.2 1.4-4.5.8-1.2 1.2-1.1.4.2zM280.7 395.7c.5-1 1-2.4 1-3.6 0-3.6-3.1-6.4-6.7-6.4-.8 0-.4-.3.7-.3 3.6 0 6.5 3 6.5 6.6 0 1.4-.4 2.7-1.1 3.8-.8 1-1.1.9-.4-.1z" fill="#fc0"/>
        <path d="M281 389.3s.5 1.1.7 1c.2 0 .1-.8-.1-1.3-.3-.6-.7-1-.9-1-.2.1.1.8.3 1.3zM270.9 396.2s-.8-.9-.9-.8c-.2.1 0 .8.4 1.2.4.5 1 .8 1.1.7.2-.1-.3-.7-.6-1.1z" fill="#ff9"/>
        <path d="M271.4 390.1c-.2.5-.3 1.1-.3 1.7 0 2.7 2.2 4.9 4.9 4.9.9 0 1.1.2.4.4-.4.1-.8.2-1.3.2-2.7 0-4.9-2.2-4.9-4.9 0-.9.3-1.7.7-2.4.4-.8.8-.7.5.1z" fill="#c60"/>
        <path d="M276.7 396.8c-.3 0-.7.1-1 .1-2.8 0-5-2.2-5-4.9 0-.9.3-1.7.7-2.4v-.1c.1 0 .1.2 0 .6-.2.5-.3 1.1-.3 1.7 0 2.7 2.2 4.9 4.9 4.9.3 0 .6 0 .7.1zM282.8 395.4c-.6 1.2-1.2 1.3-.7.3s.8-2.1.8-3.3c0-4.3-3.5-7.8-7.8-7.8-1.4 0-1-.6.9-.6 4.3 0 7.7 3.5 7.7 7.8 0 1.3-.3 2.5-.9 3.6z" fill="#960"/>
        <path d="M281.4 403.5l-3.9 4h-3l.2-3.9 1.3-5.6z" fill="#69f"/>
        <path d="M276 398.5l-2.9 4.8 2 .1.9-4.9" fill="#999"/>
        <path d="M277.2 403.6l-6.3.1 3.9 3.6h2.4z" fill="#fff"/>
        <path d="M271.1 403.4h2.3l2.6-4.9z" fill="#ccf"/>
        <path d="M277.1 403.1l-1.1-4.6 4.8 4.8z" fill="#66f"/>
        <path d="M274.5 407.5l-1.7-3.7h1.8z" fill="#9cf"/>
        <path d="M277.2 407.3l1.6-3.6 1.3.1z" fill="#36c"/>
        <path d="M277.8 403.3l-1.8-4.8 3.3 4.8z" fill="#fff"/>
        <path d="M277.2 403.6h-2.5v2.2h2.5z" fill="#9ff"/>
        <path d="M276 398l5.4 5.5" fill="none" stroke="#006" stroke-linecap="round"/>
        <path d="M270.6 403.5l5.4-5.5" fill="none" stroke="#36f" stroke-linecap="round"/>
        <path d="M274.5 407.5l-3.9-4" fill="none" stroke="#ccc" stroke-linecap="round"/>
        <path d="M277.5 407.5h-3" fill="none" stroke="#33f" stroke-linecap="round"/>
        <path d="M281.4 403.5l-3.9 4" fill="none" stroke="#339" stroke-linecap="round"/>
        <path d="M279.1 403.5h2.3" fill="none" stroke="#33f" stroke-linecap="round"/>
        <path d="M276.6 403.5h2.5" fill="none" stroke="#39f" stroke-linecap="round"/>
        <path d="M273.6 403.5h3" fill="none" stroke="#cff" stroke-linecap="round"/>
        <path d="M270.6 403.5h3" fill="none" stroke="#33f" stroke-linecap="round"/>
    </g>
</svg>
