<svg xmlns="http://www.w3.org/2000/svg" width="24" height="24">
	<g transform="translate(-264,-386)" id="KDDI_D_073">
		<g>
			<path style="stroke:none; fill:none" d="M 288 409.89L 264 409.89L 264 385.89L 288 385.89L 288 409.89z"/>
		</g>
		<g>
			<path style="stroke:none; fill:#03f" d="M 287.979 387.168L 275.056 400.05L 269.098 394.092L 264.098 399.092L 273.348 408.342L 287.979 393.668L 287.979 387.168z"/>
			<path style="stroke:none; fill:#99f" d="M 273.726 403.755L 287.979 389.501L 287.979 387.168L 275.056 400.05L 269.098 394.092L 264.098 399.092L 269.062 399.092L 273.726 403.755z"/>
			<path style="stroke:none; fill:#33f" d="M 287.979 388.222C 284.667 391.525 275.055 401.109 275.055 401.109L 275.035 400.029L 269.628 394.622L 265.158 399.092L 273.347 407.28C 273.347 407.28 284.815 395.783 287.979 392.61L 287.979 388.222z"/>
			<path style="stroke:none; fill:#66f" d="M 286.766 389.434C 282.954 393.234 275.055 401.109 275.055 401.109L 275.035 400.029L 269.628 394.622L 265.593 398.657L 273.251 406.315L 286.766 392.764L 286.766 389.434z"/>
		</g>
	</g>
</svg>
