<svg xmlns="http://www.w3.org/2000/svg" width="24" height="24">
	<g transform="translate(-264,-432)" id="KDDI_D_074">
		<g>
			<g>
				<path style="stroke:none; fill:#ffffff" d="M 286.226 436.817C 286.542 437.68 285.905 438.709 284.804 439.111C 283.701 439.515 282.551 439.142 282.235 438.276C 281.918 437.413 282.555 436.385 283.658 435.983C 284.76 435.578 285.91 435.952 286.226 436.817z"/>
				<path style="stroke:none; fill:#ffffff" d="M 272.25 434.452C 271.252 434.388 269.688 434.327 268.938 435.015C 268.409 435.499 268 436.015 268.062 436.952C 268.127 437.92 267.826 438.592 267 438.702C 266.062 438.827 264.625 439.452 264.625 440.202C 264.625 440.952 265.833 442.827 266.75 442.827C 267.667 442.827 269.083 442.89 269.083 442.89C 269.083 442.89 269.5 444.557 268.833 445.64C 268.623 445.982 268.25 446.249 268.062 446.64C 267.656 447.485 267.75 448.64 267.833 449.307C 267.987 450.535 269.562 450.952 268.75 452.14C 268.491 452.519 267.633 453.475 266.812 454.14C 266.431 454.449 265.882 454.675 265.75 454.807C 265.333 455.223 265.042 456.16 265.875 456.327C 266.36 456.425 267.077 456.592 267.812 456.14C 268.341 455.816 268.721 455.051 269 454.807C 269.667 454.223 272.083 452.223 272.083 452.223C 272.083 452.223 272.833 452.89 273.333 453.39C 273.833 453.89 274.667 453.807 274.667 453.807C 274.667 453.807 275 455.473 274.5 455.473C 274 455.473 272.75 456.224 272.75 456.807C 272.75 457.89 276.167 457.307 276.167 457.307C 276.167 457.307 276.75 456.807 276.75 455.64C 276.75 454.473 276.75 450.723 276.75 450.723L 279.688 449.265L 280.375 452.14L 280.312 453.89C 280.312 453.89 278.583 454.889 278.583 455.723C 278.583 456.557 281 456.223 281.833 456.14C 282.667 456.057 282.083 453.639 282.083 452.973C 282.083 452.307 283.875 450.702 283.875 450.702C 283.875 450.702 284.688 453.223 285.188 453.327C 285.452 453.383 285.321 455.405 285.65 456.327C 285.912 457.062 286.32 457.39 286.837 457.39C 288.004 457.39 287.366 450.807 287.366 450.807C 287.366 450.807 285.792 450.536 285.875 449.702C 285.958 448.868 286.407 446.557 286.329 445.89C 286.25 445.223 284.583 442.224 283.167 442.307C 281.75 442.39 280.5 444.035 279 444.202C 277.5 444.369 276.188 443.952 275.625 443.327C 275.272 442.936 274.083 442.057 274.5 441.807C 274.917 441.557 275.417 441.224 275.5 440.557C 275.583 439.89 275.667 438.224 274.75 437.807C 273.833 437.39 274.833 434.619 272.25 434.452z"/>
				<path style="stroke:none; fill:#cccc99" d="M 269.062 450.89C 270.438 452.015 268.383 454.1 267.562 454.765C 267.181 455.074 265.882 454.675 265.75 454.807C 265.333 455.223 265.042 456.16 265.875 456.327C 266.36 456.425 267.077 456.592 267.812 456.14C 268.341 455.816 268.721 455.051 269 454.807C 269.667 454.223 271.938 452.39 271.938 452.39C 271.938 452.39 271.5 450.577 272.812 450.64C 273.267 450.661 274.161 450.643 274.667 451.057C 275.306 451.579 275.82 452.634 275.75 453.577C 275.625 455.265 275.75 455.89 275.25 455.89C 274.75 455.89 272.75 456.224 272.75 456.807C 272.75 457.89 276.167 457.307 276.167 457.307C 276.167 457.307 276.75 456.807 276.75 455.64C 276.75 454.473 276.75 450.723 276.75 450.723L 279.688 449.265L 280.375 452.14L 280.312 453.89C 280.312 453.89 278.583 454.889 278.583 455.723C 278.583 456.557 281 456.223 281.833 456.14C 282.667 456.057 282.083 453.639 282.083 452.973C 282.083 452.307 283.875 450.702 283.875 450.702C 283.875 450.702 284.699 449.739 285.333 450.307C 285.811 450.733 286.098 452.72 286.312 452.765C 286.577 452.82 286.688 454.14 286.688 455.39C 286.688 456.169 286.32 457.39 286.837 457.39C 288.004 457.39 287.366 450.807 287.366 450.807C 287.366 450.807 285.792 450.536 285.875 449.702C 285.958 448.868 286.407 446.557 286.329 445.89C 286.25 445.223 284.426 444.26 283.125 444.827C 280.688 445.89 280.333 447.358 277.688 448.015C 276.193 448.387 276 447.307 274.833 447.307C 273.667 447.307 273.562 447.973 273 449.223C 272.64 450.023 270 451.077 269.062 450.89z"/>
				<path style="stroke:none; fill:#cccc99" d="M 272.625 442.077C 272.625 442.077 273.375 443.64 274.312 444.015C 275.25 444.39 276.375 443.827 276.375 443.827L 274.375 441.827L 272.625 442.077z"/>
				<path style="stroke:none; fill:#cccc99" d="M 271.75 434.952C 271.75 434.952 273.188 435.202 273.125 437.515C 273.113 437.956 274.358 438.941 274.312 439.515C 274.188 441.077 272.812 441.952 272.812 441.952C 272.812 441.952 274.875 441.827 275.188 441.265C 275.5 440.702 275.312 438.89 275.188 438.452C 275.062 438.015 274.438 437.952 274.375 437.577C 274.312 437.202 274.188 435.265 273.5 435.015C 272.812 434.765 271.75 434.952 271.75 434.952z"/>
				<path style="stroke:none; fill:#cccc99" d="M 265.5 441.577C 265.5 441.577 267.812 442.015 268.188 441.702C 268.562 441.39 269.595 441.382 269.688 441.827C 270.167 444.14 270.336 444.558 270.312 444.577C 269.833 444.973 268.25 446.057 268.25 446.057L 269.125 443.015L 266.375 442.765L 265.5 441.577z"/>
				<path style="stroke:none; fill:#cccc99" d="M 285.762 435.947C 285.762 435.947 286.054 437.606 284.934 438.195C 283.815 438.786 282.797 438.946 282.797 438.946C 284.068 440.07 285.754 438.939 286.174 438.369C 287.173 437.015 285.762 435.947 285.762 435.947z"/>
				<path style="stroke:none; fill:#999999" d="M 286 445.64C 286 445.64 285.188 445.015 285.062 445.64C 284.938 446.265 284.75 448.202 284.75 449.577C 284.75 450.695 285.312 450.765 285.688 450.952C 286.062 451.14 285.875 449.702 285.875 449.702L 286 445.64z"/>
				<path style="stroke:none; fill:#999999" d="M 276.625 450.577C 276.625 450.577 275.938 449.765 276.438 449.577C 276.938 449.39 279.812 447.515 280.375 447.265C 280.938 447.015 281.5 446.827 281.188 447.327C 280.875 447.827 279.375 449.327 278.812 449.64C 278.25 449.952 276.625 450.577 276.625 450.577z"/>
				<path style="stroke:none; fill:#999999" d="M 271.188 450.515L 269.438 453.702L 271.938 452.39L 271.188 450.515z"/>
				<path style="stroke:none; fill:#ffffff" d="M 281.688 447.64C 281.688 447.64 282.188 446.702 282.438 446.765C 282.688 446.827 282.375 448.14 282.938 448.452C 283.5 448.765 285.521 450.223 285.083 450.723C 284.646 451.223 282.25 449.827 281.875 449.265C 281.5 448.702 281.688 447.64 281.688 447.64z"/>
				<path style="stroke:#999966; stroke-width:0.75; stroke-linecap:round; fill:none" d="M 265.5 441.577C 265.5 441.577 266 441.723 266.667 441.64C 267.333 441.557 267.625 441.202 267.625 441.202"/>
				<path style="stroke:#000000; stroke-width:1; stroke-linejoin:round; stroke-linecap:round; fill:none" d="M 265.75 454.807C 265.333 455.223 265.042 456.16 265.875 456.327C 266.36 456.425 267.077 456.592 267.812 456.14C 268.341 455.816 268.721 455.051 269 454.807C 269.667 454.223 272.083 452.223 272.083 452.223C 272.083 452.223 272.833 452.89 273.333 453.39C 273.833 453.89 274.667 453.807 274.667 453.807C 274.667 453.807 275 455.473 274.5 455.473C 274 455.473 272.75 456.224 272.75 456.807C 272.75 457.89 276.167 457.307 276.167 457.307C 276.167 457.307 276.75 456.807 276.75 455.64C 276.75 454.473 276.75 450.723 276.75 450.723L 279.688 449.265L 280.375 452.14L 280.312 453.89C 280.312 453.89 278.583 454.889 278.583 455.723C 278.583 456.557 281 456.223 281.833 456.14C 282.667 456.057 282.083 453.639 282.083 452.973C 282.083 452.307 283.875 450.702 283.875 450.702C 283.875 450.702 284.688 453.223 285.188 453.327C 285.452 453.383 285.321 455.405 285.65 456.327C 285.912 457.062 286.32 457.39 286.837 457.39C 288.004 457.39 287.366 450.807 287.366 450.807C 287.366 450.807 285.792 450.536 285.875 449.702C 285.958 448.868 286.407 446.557 286.329 445.89C 286.25 445.223 284.583 442.224 283.167 442.307C 281.75 442.39 280.5 444.035 279 444.202C 277.5 444.369 276.188 443.952 275.625 443.327C 275.272 442.936 274.083 442.057 274.5 441.807C 274.917 441.557 275.417 441.224 275.5 440.557C 275.583 439.89 275.667 438.224 274.75 437.807C 273.833 437.39 274.833 434.619 272.25 434.452C 271.548 434.407 270.566 434.363 269.785 434.58"/>
				<path style="stroke:#333333; stroke-width:1; stroke-linejoin:round; stroke-linecap:round; fill:none" d="M 268.972 451.747C 268.919 451.868 268.847 451.998 268.75 452.14C 268.491 452.519 267.633 453.475 266.812 454.14C 266.431 454.449 265.882 454.675 265.75 454.807"/>
				<path style="stroke:#000000; stroke-width:1; stroke-linejoin:round; stroke-linecap:round; fill:none" d="M 265.077 441.397C 265.512 442.117 266.39 442.378 266.938 442.515C 267.938 442.765 268.917 442.589 269.083 443.089C 269.25 443.589 268.358 444.849 268.066 445.557C 267.709 446.425 267.833 448.057 268.25 449.307C 268.628 450.441 269.359 450.854 268.972 451.747"/>
				<path style="stroke:#666666; stroke-width:1; stroke-linejoin:round; stroke-linecap:round; fill:none" d="M 264.625 440.302C 264.625 440.591 264.804 440.946 265.077 441.397"/>
				<path style="stroke:#333333; stroke-width:1; stroke-linejoin:round; stroke-linecap:round; fill:none" d="M 265.621 439.233C 265.067 439.508 264.625 439.886 264.625 440.302"/>
				<path style="stroke:#666666; stroke-width:1; stroke-linejoin:round; stroke-linecap:round; fill:none" d="M 267.713 438.055C 267.55 438.411 267.354 438.642 266.9 438.702C 266.482 438.758 266.066 439.012 265.621 439.233"/>
				<path style="stroke:#333333; stroke-width:1; stroke-linejoin:round; stroke-linecap:round; fill:none" d="M 269.785 434.58C 269.455 434.672 269.06 434.811 268.837 435.015C 268.309 435.499 267.875 436.14 267.767 437.057C 267.715 437.49 267.846 437.764 267.713 438.055"/>
				<path style="stroke:#000000; stroke-width:1; stroke-linecap:round; fill:none" d="M 271.5 450.265L 272.083 452.223"/>
				<path style="stroke:#000000; stroke-width:1; stroke-linecap:round; fill:none" d="M 281.25 447.327L 279.833 449.39"/>
				<path style="stroke:#000000; stroke-width:1; stroke-linecap:round; fill:none" d="M 270.917 440.932C 270.917 440.932 271.149 441.53 271.75 442.057C 272.417 442.641 274.25 442.057 274.25 442.057"/>
				<path style="stroke:#333333; stroke-width:1; stroke-linecap:round; fill:none" d="M 281.25 447.327C 281.25 447.327 281.312 448.952 282.062 449.64C 282.812 450.327 283.938 450.515 283.938 450.515"/>
				<path style="stroke:#000000; stroke-width:1; stroke-linecap:round; fill:none" d="M 283.708 442.432L 283.725 439.751"/>
				<path style="stroke:#666666; stroke-width:1; stroke-linecap:round; fill:none" d="M 282.134 437.311C 282.335 436.678 282.779 436.09 283.267 435.788C 283.449 435.674 283.665 435.594 283.897 435.545"/>
				<path style="stroke:#000000; stroke-width:1; stroke-linecap:round; fill:none" d="M 283.897 435.545C 284.899 435.335 286.026 435.841 286.342 436.481C 286.732 437.269 286.694 438.164 285.62 438.947C 284.546 439.73 283.089 439.716 282.469 439.106C 281.978 438.622 281.934 437.943 282.134 437.311"/>
				<path style="stroke:#333333; stroke-width:1; stroke-linecap:round; fill:none" d="M 269.8 437.739L 269.8 438.39"/>
			</g>
		</g>
	</g>
</svg>
