<svg xmlns="http://www.w3.org/2000/svg" height="24" width="24">
	<g transform="matrix(1,0,0,-1,-264,408)" id="KDDI_D_075">
        <path d="M270.8 392.1l-6.8 5h8.5l2.7 8.1 2.6-8.1h8.5l-6.8-5 2.6-8.1-6.9 5-7-5z" fill="#03c"/>
        <path d="M276.1 394.8l1.9-.5 8.3 2.8-6.8-5-4.4.8.1-3.9-7-5z" fill="#009"/>
        <path d="M272.7 394.3l-8.7 2.8h8.5l2.7 8.1-.1-8.2z" fill="#39f"/>
        <path d="M272.2 392.6l-5.1 3.6h6.1l2 5.8 1.9-5.8h6.1l-5.3-3.7 2.2-5.6-4.9 3.6-4.8-3.5z" fill="#36f"/>
        <path d="M287.2 407.5l-8.3-8.3M277.4 403.1l4.5 4.4" fill="none" stroke="#999"/>
    </g>
</svg>
