<svg xmlns="http://www.w3.org/2000/svg" height="24" width="24">
	<g transform="matrix(1,0,0,-1,-264,408)" id="KDDI_D_076">
        <path d="M274.3 394.3H272v3.4h2.3z" fill="#f90"/>
        <path d="M274.3 396.6h-1.2v1.1h1.2zM274.3 394.3h-1.2v1.1h1.2z" fill="#fc0"/>
        <path d="M280 394.3h-2.3v3.4h2.3zM277.7 392h-3.4v2.3h3.4zM277.7 397.7h-3.4v2.3h3.4z" fill="#f90"/>
        <path d="M278.9 396.6h-1.2v1.1h1.2zM278.9 394.3h-1.2v1.1h1.2z" fill="#fc0"/>
        <path d="M272 395.4h-3.4v1.2h3.4zM283.4 395.4H280v1.2h3.4zM276.6 388.6h-1.2v3.4h1.2zM276.6 400h-1.2v3.4h1.2z" fill="red"/>
        <path d="M275.4 396.6h-1.1v1.1h1.1zM277.7 396.6h-1.1v1.1h1.1zM277.7 394.3h-1.1v1.1h1.1zM275.4 394.3h-1.1v1.1h1.1zM274.3 393.1h-1.2v1.2h1.2zM273.1 392H272v1.1h1.1zM278.9 393.1h-1.2v1.2h1.2zM280 392h-1.1v1.1h1.1z" fill="#f90"/>
        <path d="M277.7 395.4h-3.4v1.2h3.4z" fill="red"/>
        <path d="M274.3 397.7h-1.2v1.2h1.2zM273.1 398.9H272v1.1h1.1zM278.9 397.7h-1.2v1.2h1.2zM280 398.9h-1.1v1.1h1.1z" fill="#f90"/>
        <path d="M276.6 394.3h-1.2v3.4h1.2z" fill="red"/>
        <path d="M274.3 395.4h-1.2v1.2h1.2zM278.9 395.4h-1.2v1.2h1.2zM272 390.9h-1.1v1.1h1.1z" fill="#f90"/>
        <path d="M270.9 389.7h-1.2v1.2h1.2zM269.7 388.6h-1.1v1.1h1.1z" fill="#ff0"/>
        <path d="M281.1 390.9H280v1.1h1.1z" fill="#f90"/>
        <path d="M282.3 389.7h-1.2v1.2h1.2z" fill="#ff0"/>
        <path d="M283.4 388.6h-1.1v1.1h1.1z" fill="#ff0"/>
        <path d="M281.1 400H280v1.1h1.1z" fill="#f90"/>
        <path d="M282.3 401.1h-1.2v1.2h1.2zM283.4 402.3h-1.1v1.1h1.1z" fill="#ff0"/>
        <path d="M272 400h-1.1v1.1h1.1z" fill="#f90"/>
        <path d="M270.9 401.1h-1.2v1.2h1.2zM269.7 402.3h-1.1v1.1h1.1z" fill="#ff0"/>
        <path d="M275.4 397.7h-1.1v1.2h1.1zM276.6 398.9h1.1v-1.2h-1.1zM275.4 393.1h-1.1v1.2h1.1zM277.7 393.1h-1.1v1.2h1.1z" fill="#fc0"/>
        <path d="M276.6 387.4h-1.2v1.2h1.2zM284.6 395.4h-1.2v1.2h1.2zM276.6 403.4h-1.2v1.2h1.2zM268.6 395.4h-1.2v1.2h1.2z" fill="#ff0"/>
        <path d="M276.6 385.1h-1.2v2.3h1.2zM286.8 395.4h-2.2v1.2h2.2zM276.6 404.6h-1.2v2.2h1.2zM267.4 395.4h-2.3v1.2h2.3z" fill="#f90"/>
        <path d="M265.1 395.4H264v1.2h1.1zM288 395.4h-1.2v1.2h1.2zM276.6 406.8h-1.2v1.2h1.2zM276.6 384h-1.2v1.1h1.2z" fill="red"/>
        <path d="M268.6 386.3h-2.3v2.3h2.3z" fill="#fc0"/>
        <path d="M268.6 387.4h-1.2v1.2h1.2z" fill="#f90"/>
        <path d="M267.4 386.3h-1.1v1.1h1.1z" fill="red"/>
        <path d="M285.7 386.3h-2.3v2.3h2.3z" fill="#fc0"/>
        <path d="M284.6 387.4h-1.2v1.2h1.2z" fill="#f90"/>
        <path d="M285.7 386.3h-1.1v1.1h1.1z" fill="red"/>
        <path d="M285.7 403.4h-2.3v2.3h2.3z" fill="#fc0"/>
        <path d="M284.6 403.4h-1.2v1.2h1.2z" fill="#f90"/>
        <path d="M285.7 404.6h-1.1v1.1h1.1z" fill="red"/>
        <path d="M268.6 403.4h-2.3v2.3h2.3z" fill="#fc0"/>
        <path d="M268.6 403.4h-1.2v1.2h1.2z" fill="#f90"/>
        <path d="M267.4 404.6h-1.1v1.1h1.1z" fill="red"/>
        <path d="M265.1 396.6H264v1.1h1.1zM265.1 394.3H264v1.1h1.1zM275.4 384h-1.1v1.1h1.1zM277.7 384h-1.1v1.1h1.1zM288 396.6h-1.2v1.1h1.2zM288 394.3h-1.2v1.1h1.2zM277.7 406.8h-1.1v1.2h1.1zM275.4 406.8h-1.1v1.2h1.1z" fill="#fc3"/>
    </g>
</svg>
