<svg xmlns="http://www.w3.org/2000/svg" height="24" width="24">
	<g transform="matrix(1,0,0,-1,-264,408)" id="KDDI_D_077">
        <path d="M277.3 385.4c0-.4-.6-.8-1.3-.8-.8 0-1.3.4-1.3.8 0 .5.5.9 1.3.9.7 0 1.3-.4 1.3-.9z" fill="#c93"/>
        <path d="M281.9 400.5c0 3.8-2.5 6.7-5.9 6.7-3.4 0-6.1-2.8-6.1-6.6 0-2.7 1.4-5 3.4-6.1v-2.4h5.2l.1 2.5c1.9 1.2 3.3 3.2 3.3 5.9z" fill="#fc3"/>
        <path d="M279.1 406.2c-1 .6-2 .3-1.1-.6 1.2-1.2 1.9-3 1.9-5 0-3.5-3.3-3.7-3.3-6.1v-2.4h1.9l.1 2.5c1.9 1.2 3.3 3.2 3.3 5.9 0 2.5-1.1 4.5-2.8 5.7z" fill="#f93"/>
        <path d="M273.3 406.2c.7.4 1.6-.8 1-1.4-.7-.9-1.9-2.6-1.9-4.2 0-4.3 2.4-4.6 2.4-6.1v-2.4h-1.3l-.1 2.5c-2 1.2-3.2 3.6-3.2 6.3 0 2.8 1.8 4.5 3.1 5.3z" fill="#ff6"/>
        <path d="M274.1 403.1c-.3-.8-.9-1.3-1.4-1.2-.5.2-.8 1-.5 1.8.2.8.9 1.3 1.4 1.1.5-.2.8-.9.5-1.7z" fill="#fff"/>
        <path d="M274.9 385.6h-2.3v6h2.3z" fill="#ff9"/>
        <path d="M277.5 385.6h-2.9v6h2.9z" fill="#fc6"/>
        <path d="M279.4 385.6h-1.9v6h1.9z" fill="#960"/>
        <path d="M278.7 389.7h-5.8M278.7 387.5h-5.8" fill="none" stroke="#c93" stroke-width="1.025"/>
        <path d="M271.8 390.9l1.2 1.2" fill="none" stroke="#666" stroke-width="1.025" stroke-linecap="round"/>
        <path d="M273 389.7l-1.2 1.2" fill="none" stroke="#000" stroke-width="1.025" stroke-linecap="round"/>
        <path d="M271.8 388.6l1.2 1.1" fill="none" stroke="#666" stroke-width="1.025" stroke-linecap="round"/>
        <path d="M273 387.5l-1.2 1.1" fill="none" stroke="#000" stroke-width="1.025" stroke-linecap="round"/>
        <path d="M271.8 386.3l1.2 1.2M278.8 387.5l1.2-1.2" fill="none" stroke="#666" stroke-width="1.025" stroke-linecap="round"/>
        <path d="M280 388.6l-1.2-1.1" fill="none" stroke="#000" stroke-width="1.025" stroke-linecap="round"/>
        <path d="M278.8 389.7l1.2-1.1" fill="none" stroke="#666" stroke-width="1.025" stroke-linecap="round"/>
        <path d="M280 390.9l-1.2-1.2" fill="none" stroke="#000" stroke-width="1.025" stroke-linecap="round"/>
        <path d="M278.8 392.1l1.2-1.2" fill="none" stroke="#666" stroke-width="1.025" stroke-linecap="round"/>
        <path d="M279.9 386.3l-1.1-1h-1.4s-.4-.8-1.5-.8-1.4.8-1.4.8H273l-1.2 1" fill="none" stroke="#000" stroke-width="1.025" stroke-linecap="round"/>
        <path d="M282.1 400.6c0 3.8-2.7 6.8-6.1 6.8-3.3 0-6.1-3-6.1-6.8 0-2.7 1.6-4.8 3.4-6.1v-2.4h5.5v2.4c1.8 1.3 3.3 3.4 3.3 6.1z" fill="none" stroke="#000" stroke-linejoin="round"/>
        <path d="M264 400.8h3.8M268.2 403.8l-3.7 3.7M268.2 397.8l-3.7-3.7M288 400.8h-3.8M283.8 403.8l3.7 3.7M283.8 397.8l3.7-3.7" fill="none" stroke="#f30"/>
    </g>
</svg>
