<svg xmlns="http://www.w3.org/2000/svg" height="24" width="24">
	<g transform="matrix(1,0,0,-1,-264,408)" id="KDDI_D_078">
        <path d="M267.6 399.8c0 2.9 1 5.3 2.7 6.6 1.7 1.3 5 1.7 7.1-.4 2.1-2.1 2-3.9 3.5-5.2 1.5-1.2 6.5-1.2 6.5-1.2s-3.1-5.9-4.8-7.8c-1.8-1.8-3.2-2.7-6.2-2.7s-5.8 2.2-6.9 3.9c-1.1 1.7-1.9 3.5-1.9 6.8z" fill="#fc0"/>
        <path d="M268.8 398.8c0 2.9.7 5.1 2.5 6.5 1.5 1.2 4.5 1.9 6.5.2-.1.1-.2.3-.4.5-2.1 2.1-5.4 1.7-7.1.4-1.7-1.3-2.7-3.7-2.7-6.6 0-3.3 1.2-4.3 1.2-1z" fill="#ff3"/>
        <path d="M286.8 399.7s-4.2-4.7-5.3-5.9c-1.7-1.8-3-2.9-5.5-2.7-.9.1-2.6.7-3.5 1-1.9.7-2-.3-1.3-.9 1.4-1.2 3.3-2.1 5.2-2.1 3 0 4.4.9 6.2 2.7 1.7 1.9 4.8 7.8 4.8 7.8z" fill="#f90"/>
        <path d="M286.8 399s-3.7-4.7-5-6c-1.7-1.8-3.1-2.8-6.1-2.8-2.8 0-5.5 2-6.7 3.6.2-.2.3-.5.5-.8 1.1-1.7 3.9-3.9 6.9-3.9 3 0 4.4.9 6.2 2.7 1.7 1.9 4.2 7.2 4.2 7.2z" fill="#c60"/>
        <path d="M264 401.9l3.8-.5-.3-2.6z" fill="#f90"/>
        <path d="M267.5 398.8l-2.7-3.1h3l-.3 3.1M278.3 404.5s-.2-2.2.7-3.4c.5-.7 2.6-.9 2.6-.9z" fill="#f90"/>
        <path d="M272.6 403.3c-.5 0-1-.4-1.2-1 .1 0 .3.1.4.1.5 0 .8-.3.8-.7 0-.4-.3-.7-.8-.7-.2 0-.4.1-.5.3 0-1.2.6-2 1.3-2 .7 0 1.2.9 1.2 2s-.5 2-1.2 2z"/>
        <path d="M272.5 401.6c0-.3-.3-.6-.7-.6-.4 0-.7.3-.7.6 0 .4.3.7.7.7.4 0 .7-.3.7-.7z" fill="#fff"/>
        <path d="M274.3 384.6v5" fill="none" stroke="#960"/>
        <path d="M271.5 384.5h3.3" fill="none" stroke="#333"/>
        <path d="M279.7 384.6v5" fill="none" stroke="#960"/>
        <path d="M276.9 384.5h3.4" fill="none" stroke="#333"/>
        <path d="M267.6 399.8c0 2.9 1 5.3 2.7 6.6 1.7 1.3 5 1.7 7.1-.4 2.1-2.1 2-3.9 3.5-5.2 1.5-1.2 6.4-1.2 6.4-1.2s-3-5.9-4.7-7.8c-1.8-1.8-3.2-2.7-6.2-2.7s-5.8 2.2-6.9 3.9c-1.1 1.7-1.9 3.5-1.9 6.8z" fill="none" stroke="#000"/>
    </g>
</svg>
