<svg xmlns="http://www.w3.org/2000/svg" width="24" height="24">
	<g transform="translate(-264,-386)" id="KDDI_D_079">
		<g>
			<path style="stroke:none; fill:none" d="M 288 409.89L 264 409.89L 264 385.89L 288 385.89L 288 409.89z"/>
		</g>
		<g>
			<path style="stroke:none; fill:#ff9" d="M 269.5 401.39L 284.396 409.89C 284.396 409.89 284.396 397.007 284.396 396.197C 283.648 395.82 269.5 388.461 269.5 388.461L 269.5 401.39z"/>
			<path style="stroke:none; fill:#ff6" d="M 278.5 404.89L 269.979 400.39C 269.979 400.803 269.979 401.241 269.979 401.348C 270.728 401.727 283.306 409.076 284.146 409.501C 284.146 407.966 284 396.578 284 396.578L 282.5 395.461L 278.5 404.89z"/>
			<path style="stroke:none; fill:#ff3" d="M 273 389.461L 284.472 395.702C 284.472 395.702 284.472 407.279 284.472 409.035C 285.101 408.41 287.038 406.606 287.354 406.293C 287.354 405.713 287.354 392.614 287.354 392.614L 282.312 390.239L 280.5 390.961L 273 386.961L 273 389.461z"/>
			<path style="stroke:none; fill:#fc3" d="M 272.5 389.461L 284.83 396.631L 286 394.461L 280.5 391.461L 272.5 386.983L 272.5 389.461z"/>
			<path style="stroke:none; fill:#c93" d="M 287 392.961L 285 395.961L 285 408.89L 287.5 406.89L 287 392.961z"/>
			<path style="stroke:none; fill:#960" d="M 284 396.578L 284 409.39L 285 409.39L 285 395.961L 284 396.578z"/>
			<path style="stroke:none; fill:#333" d="M 273 389.961L 271.984 389.961L 271.984 387.025L 273 386.983L 273 389.961z"/>
			<path style="stroke:none; fill:#000" d="M 287 392.51L 287 406.476L 284.486 408.89L 270 401.348L 270 388.961L 269 387.557L 269 401.89L 284.5 409.89L 285 409.89L 288 406.901L 288 392.336L 287 392.51z"/>
			<path style="stroke:none; fill:#333" d="M 269.984 389.197L 284 396.578L 285 395.961L 269.016 387.557L 269.984 389.197z"/>
			<path style="stroke:none; fill:#333" d="M 288 392.336L 282.562 389.551L 280.61 390.435L 271.984 385.89L 271.984 387.025L 280.49 391.515L 282.518 390.582L 287 392.953L 288 392.336z"/>
		</g>
	</g>
</svg>
