<svg xmlns="http://www.w3.org/2000/svg" height="24" width="24">
	<g transform="matrix(1,0,0,-1,-264,408)" id="KDDI_D_080">
        <path d="M278.4 405.3l7.7-5.2s.1-6.1-.3-7.3c-.5-1.7-2.4-1.4-2.4-1.4s-.4-2.8-2-4.2c-1.4-1.3-3.9-2.8-5.4-2.8-1.5 0-4 1.5-5.4 2.8-1.6 1.4-2 4.2-2 4.2s-1.9-.3-2.4 1.4c-.4 1.2-.3 7.3-.3 7.3z" fill="#fc9"/>
        <path d="M280.8 402.3s-.4-1.2.4-2.9c.7-1.2 1.2-2.9.4-6.7-.7-3.3-1.5-4.3-2.4-5.3-1.2-1.2-2.8-1.7-2.8-2.1 0-.5.5-.8.5-.8s3.1 1.1 3.9 2.2c.8 1.1 2.4 2.7 2.6 4.3 0 .1 1.5.2 1.8 1 1.2 3.8.5 4.7-.1 4.9-.9.2-1.3-1.3-1.3-1.3l.3 3.2-2.4 3.5" fill="#c96"/>
        <path d="M282.5 399.7s.8-5.8-.6-9.4c-1-2.9-4-4.7-4-5 0-.2.3-.6.8-.4.6.3 2.5 1.4 3.1 2.5.6 1.1 1.6 3.8 1.6 3.8l.4 5v3s-1.3 2.1-1.3.5z" fill="#963"/>
        <path d="M278.3 397.7l2.7.1M271.5 397.8l2.6-.1" fill="none" stroke="#666" stroke-width="1.2" stroke-linejoin="round"/>
        <path d="M273.7 389.5h4.8s-.3-1.9-2.3-1.9c-2 0-2.5 1.9-2.5 1.9z" fill="#633"/>
        <path d="M281.2 395c0-1-.7-1.8-1.6-1.8-.9 0-1.6.8-1.6 1.8s.7 1.8 1.6 1.8c.9 0 1.6-.8 1.6-1.8z" fill="#666"/>
        <path d="M281 394.3c0-.7-.6-1.3-1.3-1.3-.8 0-1.3.6-1.3 1.3v.8c0 .7.5 1.3 1.3 1.3.7 0 1.3-.6 1.3-1.3z"/>
        <path d="M279.8 395.2c0-.3-.3-.6-.7-.6-.3 0-.6.3-.6.6s.3.6.6.6c.4 0 .7-.3.7-.6z" fill="#fff"/>
        <path d="M274.3 395c0-1-.7-1.8-1.6-1.8-.8 0-1.5.8-1.5 1.8s.7 1.8 1.5 1.8c.9 0 1.6-.8 1.6-1.8z" fill="#666"/>
        <path d="M274.2 394.3c0-.7-.6-1.3-1.3-1.3-.7 0-1.3.6-1.3 1.3v.8c0 .7.6 1.3 1.3 1.3.7 0 1.3-.6 1.3-1.3z"/>
        <path d="M273 395.2c0-.3-.2-.6-.6-.6-.4 0-.6.3-.6.6s.2.6.6.6c.4 0 .6-.3.6-.6z" fill="#fff"/>
        <path d="M283.4 398.9s-.6.3-1.7 1.7c-1 1.4-.6 2.3-.6 2.3s-2-2.8-5.1-3.2c.4.8-.2 2.1-.2 2.1s-.6-.3-2.4-1.5c-1.5-.9-3.9-.4-4.1-.5-.6-.2-.6-4-.6-4s.3 1.1-1.3 1.1c-.5 0-1.1-.6-1.2-1.9 0-1.6.2-1.6.2-1.6s-1.2 2.7-1 5.5c.4 5.3 3.2 7 4.9 7.7 2.5 1.1 7.1 1 9 .5 1.9-.6 2.6-2.5 2.6-2.5s1.5 0 2.5-.5c1-.6 1.4-1.6 1.8-2.8.4-1.1.6-2.5.2-4.2-.3-1.4-.6-2.2-.6-2.2s.2 2.1-1 2c-1.1-.1-1.3-1.1-1.3-1.1z" fill="#669"/>
        <path d="M268.7 396.2v-.4s.1.2 0 .4zM279.3 407.1c-1.9.5-6.5.6-9-.5-.5-.2-1-.4-1.5-.8.6-.6.9-1.7.5-2.5-.6-1.5-2-2.8-2-5.1 0-.3.1-.7.1-1.3 1 0 1.3-.4 1.3-.7 0 1 .1 3.4.6 3.6.2.1 2.6-.4 4.1.5 1.8 1.2 2.4 1.5 2.4 1.5s.6-1.3.2-2.1c2.5.3 4.2 2.1 4.8 2.9.2.4.4.9.6 1.2.2.3.3.6.5.9-.2.2-.9 1.8-2.6 2.4zM284.4 404.1c-.1 0-.2.1-.4.1-.4-.5-.9-1.1-1-1.6-.1-.4-.2-1.6-.4-3 .5-.6.8-.7.8-.7l.1-3.1s.2 1 1.3 1.1c1.2.1 1-2 1-2s.3.8.6 2.2c.4 1.7.2 3.1-.2 4.2-.4 1.2-.8 2.2-1.8 2.8z" fill="#336"/>
        <path d="M267.8 404.4l.6-1-1-2-1 .1z" fill="#99c"/>
        <path d="M276.5 393.1v-2.2" fill="none" stroke="#c96"/>
        <path d="M277.3 389.5c0-.5-.1-1.1-.5-1.8 1.5.4 1.7 1.8 1.7 1.8z" fill="#300"/>
        <path d="M283.4 399.3s-.6-.1-1.7 1.3c-1 1.4-.6 2.3-.6 2.3s-2.4-3.2-5.3-3.3c.4.8.2 2.3.2 2.3s-.8-.4-2.6-1.6c-1.5-.9-4-.4-4.3-.5-.5-.2-.5-4.2-.5-4.2s.1 1.2-1.2 1.3c-1.6.2-1.4-2-1.4-2s-.7 1.7-.4 4.5c.5 4.5 2.9 6.4 4.5 7.1 2.7 1.3 7.3 1.1 9.2.6 1.9-.6 2.6-2.5 2.6-2.5s1.5 0 2.5-.5c1-.6 1.4-1.6 1.8-2.8.4-1.1.5-2.8.2-4.5-.3-1.4-.6-3-.6-3s.4 3.1-1 3.1c-.9 0-1.3-1.3-1.3-1.3z" fill="none" stroke="#000" stroke-linejoin="round"/>
        <path d="M286.1 395.7s-.2-1.9-.6-3c-.6-1.7-2.1-1.3-2.1-1.3s-.8-2.9-2-4.2c-1.2-1.4-2.8-2.8-5.4-2.8-2.6 0-4.7 1.8-5.4 2.8-1.3 1.7-2 4.2-2 4.2s-1.6-.6-2.2 1c-.4 1.2-.5 3.3-.5 3.3" fill="none" stroke="#000" stroke-linejoin="round"/>
    </g>
</svg>
