<svg xmlns="http://www.w3.org/2000/svg" width="24" height="24">
	<g transform="translate(-264,-386)" id="KDDI_D_081">
		<g>
			<path style="stroke:none; fill:none" d="M 288 409.89L 264 409.89L 264 385.89L 288 385.89L 288 409.89z"/>
		</g>
		<g>
			<path style="stroke:#039; stroke-width:2.0548; fill:#fff" d="M 286.96 397.889C 286.96 403.942 282.053 408.848 276 408.848C 269.948 408.848 265.042 403.942 265.042 397.889C 265.042 391.837 269.948 386.93 276 386.93C 282.053 386.93 286.96 391.837 286.96 397.889z"/>
			<path style="stroke:none; fill:#039" d="M 276.647 404.118C 273 404.118 272.36 399.584 272.36 397.903C 272.36 396.223 273 391.689 276.647 391.689C 279.375 391.689 279.786 394.25 279.938 394.876L 282.75 394.876C 282.47 393.696 281.582 392.528 280.562 391.689C 279.603 390.929 277.96 390.376 276.28 390.376C 274.36 390.376 272.76 391.243 271.52 392.583C 270.228 393.992 269.592 395.767 269.565 397.903C 269.592 400.04 270.228 401.815 271.52 403.224C 272.76 404.564 274.36 405.431 276.28 405.431C 277.96 405.431 279.603 404.878 280.562 404.118C 281.582 403.278 282.47 402.111 282.75 400.931L 279.938 400.931C 279.786 401.557 279.188 404.118 276.647 404.118z"/>
		</g>
	</g>
</svg>
