<svg xmlns="http://www.w3.org/2000/svg" width="24" height="24">
	<g transform="translate(-264,-386)" id="KDDI_D_082">
		<g>
			<path style="stroke:none; fill:none" d="M 288 409.89L 264 409.89L 264 385.89L 288 385.89L 288 409.89z"/>
		</g>
		<g>
			<path style="stroke:#039; stroke-width:2; fill:#fff" d="M 286.96 397.889C 286.96 403.942 282.053 408.848 276 408.848C 269.948 408.848 265.042 403.942 265.042 397.889C 265.042 391.837 269.948 386.93 276 386.93C 282.053 386.93 286.96 391.837 286.96 397.889z"/>
			<path style="stroke:#039; stroke-width:2; fill:none" d="M 271.458 404.835L 271.458 391.626C 271.458 391.626 276.417 391.626 277.333 391.626C 278.25 391.626 281.458 392.293 281.458 394.96C 281.458 397.626 278.667 398.168 277.333 398.168C 276 398.168 271.708 398.168 271.708 398.168"/>
			<path style="stroke:#039; stroke-width:2; fill:none" d="M 277.208 398.293L 281.333 404.418"/>
		</g>
	</g>
</svg>
