<svg xmlns="http://www.w3.org/2000/svg" height="24" width="24">
	<g transform="matrix(1,0,0,-1,-264,408)" id="KDDI_D_083">
        <path d="M287.5 385.5c0-.6-.4-1-1-1h-20.9c-.6 0-1 .4-1 1v10.8c0 .6.4 1 1 1h20.9c.6 0 1-.4 1-1z" fill="#c33"/>
        <path d="M285.4 394.9l-18.6-8.3s-.7-.8-1.1-1c-.9-.4-1.1-.2-1.1-.1v10.8c0 .6.4 1 1 1h20.9c.6 0 1.1-.7 1.1-.7z" fill="#f99"/>
        <path d="M267 396.1h20.5v.2c0 .6-.4 1-1 1h-20.9c-.6 0-1-.4-1-1v-10.8c0-.6.4-1 1-1h.2v10.4c0 1.1.1 1.2 1.2 1.2z" fill="#fcc"/>
        <path d="M286.3 395.5v-8.7c0-1-.3-1.2-1.3-1.2h-19.2l-.8-.8h21.6c.5 0 .6.1.6.6l.1 10.9z" fill="#900"/>
        <path d="M285.3 386.6h-18.5v8.4h18.5z" fill="#f66"/>
        <path d="M285.3 395v-8.4h-18.5l-1-1H285c1 0 1.3.2 1.3 1.2v8.7z" fill="#c33"/>
        <path d="M266 396l.6-.7" fill="none" stroke="#fff" stroke-linecap="round"/>
        <path d="M287.5 397.1v2.2c0 2-2 4.9-3.5 6-1.3 1-4 1.9-5.3 2-1.2.1-3.5.1-5.1 0-1.8-.1-4-1-5.3-2-1.5-1.1-3.5-3.6-3.5-6v-2.2" fill="none" stroke="#333" stroke-width=".993" stroke-linecap="round"/>
        <path d="M266.9 404.4c-1.2-1.4-2.4-3.3-2.4-5.1v-2.2M287.2 397.1v2.2c0 2-2 4.9-3.5 6-1.3 1-4 1.9-5.3 2-1.2.1-3.5.1-5.1 0-.8-.1-1.6-.3-2.5-.5" fill="none" stroke="#666" stroke-width=".993" stroke-linecap="round"/>
        <path d="M285.9 391.7H281s-2.6-2-3.4-2.1h-3.2c-.8.1-3.4 2.1-3.4 2.1h-6.3" fill="none" stroke="#c33"/>
        <path d="M287.3 392.3H281s-2.6-2-3.4-2.1h-3.2c-.8.1-3.4 2.1-3.4 2.1h-6.3" fill="none" stroke="#333"/>
        <path d="M287.5 385.5c0-.6-.4-1-1-1h-20.9c-.6 0-1 .4-1 1v10.8c0 .6.4 1 1 1h20.9c.6 0 1-.4 1-1z" fill="none" stroke="#000"/>
        <path d="M270.8 406.8c-1.1-.4-2.1-.9-2.8-1.5-.4-.2-.7-.6-1.1-.9" fill="none" stroke="#999" stroke-width=".993" stroke-linecap="round"/>
        <path d="M277.7 389.2c0-.6-.5-1-1-1h-.3c-.5 0-1 .4-1 1v2.3c0 .5.5 1 1 1h.3c.5 0 1-.5 1-1z" fill="#c33"/>
        <path d="M277.2 389.5c0-.6-.5-1-1-1h-.3c-.5 0-1 .4-1 1v2.3c0 .5.5 1 1 1h.3c.5 0 1-.5 1-1z" fill="#fc0"/>
        <path d="M276 389.4c-.7 0-1.1.1-1.1.1 0-.6.5-1 1-1h.3c.5 0 1 .4 1 1v.7s-.4-.8-1.2-.8z" fill="#c90"/>
        <path d="M276.9 390.6c0-.8-.4-1.4-.9-1.4s-.9.6-.9 1.4c0 .7.4 1.3.9 1.3s.9-.6.9-1.3z" fill="#ff0"/>
        <path d="M276 391.2c0-.3-.2-.6-.4-.6s-.4.3-.4.6c0 .4.2.7.4.7s.4-.3.4-.7z" fill="#fff"/>
    </g>
</svg>
