<svg xmlns="http://www.w3.org/2000/svg" width="24" height="24">
	<g transform="translate(-264,-386)" id="KDDI_D_084">
		<g>
			<path style="stroke:none; fill:none" d="M 288 409.89L 264 409.89L 264 385.89L 288 385.89L 288 409.89z"/>
		</g>
		<g>
			<path style="stroke:none; fill:#ff3" d="M 273 388.961L 284.472 395.13C 284.472 395.13 284.472 407.279 284.472 409.035C 285.101 408.41 287.038 406.606 287.354 406.293C 287.354 405.713 287.354 392.614 287.354 392.614L 282.312 390.239L 280.5 390.961L 273 386.461L 273 388.961z"/>
			<path style="stroke:none; fill:#fc3" d="M 272.5 402.89L 285 409.39L 286 406.39L 287.5 394.39L 280.5 391.461L 272.5 386.483L 272.5 402.89z"/>
			<path style="stroke:none; fill:#000" d="M 273 396.89L 271.978 396.89L 271.978 385.89L 273 386.483L 273 396.89z"/>
			<path style="stroke:none; fill:#c93" d="M 287 392.961L 286 405.89L 283 404.39L 284.5 409.39L 287.5 406.89L 287 392.961z"/>
			<path style="stroke:none; fill:#ff6" d="M 269 401.39L 284.5 409.39L 281.5 401.39L 265.062 392.845L 269 401.39z"/>
			<path style="stroke:none; fill:#333" d="M 263.979 391.491L 269 401.89L 269.562 400.939L 265.917 393.626L 263.979 391.491z"/>
			<path style="stroke:none; fill:#333" d="M 265.917 393.626L 281.734 401.97L 282.562 401.278L 263.979 391.491L 265.917 393.626z"/>
			<path style="stroke:none; fill:#960" d="M 281.734 401.97L 284.401 409.426L 285.344 409.091L 282.562 401.278L 281.734 401.97z"/>
			<path style="stroke:none; fill:#000" d="M 287 392.51L 287 406.476L 284.486 408.89L 269.562 400.939L 269 401.89L 284.5 409.89L 285 409.89L 288 406.901L 288 392.336L 287 392.51z"/>
			<path style="stroke:none; fill:#333" d="M 288 392.336L 282.562 389.551L 280.61 390.435L 271.984 385.89L 273 387.572L 280.49 391.515L 282.518 390.582L 287 392.953L 288 392.336z"/>
		</g>
	</g>
</svg>
