<svg xmlns="http://www.w3.org/2000/svg" height="24" width="24">
	<g transform="matrix(1,0,0,-1,-264,408)" id="KDDI_D_085">
        <path d="M281.9 403.7s-.3-3.4 1.2-5.7c1.5-2.3 4.5-5.8 4.5-8.4 0-2.6-1.8-5.2-6.3-5.2h-10.5c-4.6 0-6.4 2.6-6.4 5.2s3 6.1 4.5 8.4c1.5 2.3 1.2 5.7 1.2 5.7" fill="#9cc"/>
        <path d="M281.3 399.9s-.5-1-.1-1.9c.3-.9 3.4-6.1 3.4-7.3 0-1.3-.6-4.1-1.9-4.4-1.4-.4-1.6-1.6-1.6-1.6s2.4.1 3.3.6c.9.4 2.4 1.4 2.6 2.8.2 1.3.7 2.6-.2 3.8-.8 1.3-3.7 5.7-4 6.4-.4.6-1.5 1.6-1.5 1.6z" fill="#366"/>
        <path d="M280.8 399.4s-1.8.6-4.8.6-4.7-.6-4.7-.6v1.7s2.1.5 4.7.5 4.8-.5 4.8-.5z" fill="#699"/>
        <path d="M280.8 400.5s-1.8.6-4.8.6-4.7-.6-4.7-.6v1.7s2.1.5 4.7.5 4.8-.5 4.8-.5z" fill="#366"/>
        <path d="M281.1 398.4s2.2-5.1 2.2-6.9c0-1.5-.5-3.2-1.5-4-1.3-1.1-3.5-1.4-5.8-1.4-2.2 0-5.3-.1-5.2-.6.2-.5.1-.7 2.4-.8 2.2-.1 5.6.1 7.6 0s3.3 1.5 3.9 2.6c.6 1.2 1.1 3.9-.2 5.8-1.2 1.9-3.4 5.3-3.4 5.3z" fill="#699"/>
        <path d="M270.7 399.9s.5-1 .1-1.9c-.3-.9-3-5.2-3.4-7.3-.2-1.3-.3-2.4.4-3.2.9-.9.4-2.4-1-1.7-.8.3-1.9 1.2-2 2.5-.2 1.4-.1 2.4.4 3.6.5 1.4 3.7 5.7 4.1 6.4.3.6 1.4 1.6 1.4 1.6z" fill="#cfc"/>
        <path d="M273.3 394.9h-2.1v2.2h2.1z" fill="#366"/>
        <path d="M273.3 394.9h-1.1v1.1h1.1z"/>
        <path d="M277.1 394.9H275v2.2h2.1z" fill="#366"/>
        <path d="M277.1 394.9H276v1.1h1.1z"/>
        <path d="M280.9 394.9h-2.1v2.2h2.1z" fill="#366"/>
        <path d="M280.9 394.9h-1.1v1.1h1.1z"/>
        <path d="M273.3 391.4h-2.1v2.2h2.1z" fill="#366"/>
        <path d="M273.3 391.4h-1.1v1.1h1.1z"/>
        <path d="M277.1 391.4H275v2.2h2.1z" fill="#366"/>
        <path d="M277.1 391.4H276v1.1h1.1z"/>
        <path d="M280.9 391.4h-2.1v2.2h2.1z" fill="#366"/>
        <path d="M280.9 391.4h-1.1v1.1h1.1z"/>
        <path d="M273.3 387.9h-2.1v2.2h2.1z" fill="#366"/>
        <path d="M273.3 387.9h-1.1v1.1h1.1z"/>
        <path d="M277.1 387.9H275v2.2h2.1z" fill="#366"/>
        <path d="M277.1 387.9H276v1.1h1.1z"/>
        <path d="M280.9 387.9h-2.1v2.2h2.1z" fill="#366"/>
        <path d="M280.9 387.9h-1.1v1.1h1.1z"/>
        <path d="M272.3 396h-1.1v1.1h1.1zM276.1 396H275v1.1h1.1zM279.8 396h-1v1.1h1zM272.3 392.5h-1.1v1.1h1.1zM276.1 392.5H275v1.1h1.1zM279.8 392.5h-1v1.1h1zM279.8 389h-1v1.1h1zM276.1 389H275v1.1h1.1zM272.3 389h-1.1v1.1h1.1z" fill="#cfc"/>
        <path d="M280.8 401.8h-9.6v1.1h9.6z" fill="#033"/>
        <path d="M281.9 403.7s-.3-3.4 1.2-5.7c1.5-2.3 4.5-5.8 4.5-8.4 0-2.6-1.8-5.2-6.3-5.2h-10.5c-4.6 0-6.4 2.6-6.4 5.2s3 6.1 4.5 8.4c1.5 2.3 1.2 5.7 1.2 5.7" fill="none" stroke="#000"/>
        <path d="M280.8 403.2v-3.1c0-.8 1-1.7 1.7-1.7h3.7c.8 0 1.2.5 1.2 1.3v2c0 1.6-.6 3.1-1.8 4.4-1 1-4 1.4-5.7 1.4h-7.8c-1.7 0-4.7-.4-5.7-1.4-1.2-1.3-1.8-2.8-1.8-4.4v-2c0-.8.4-1.3 1.2-1.3h3.7c.8 0 1.7.9 1.7 1.7v3.1z" fill="#9cc"/>
        <path d="M266 398.6s.6.4.6.9c0 .8-.1 1.8 0 2.4.2.9.9 2.9 2.1 3.5 1.1.6 9 .4 10.7.4 1.7 0 3.1-.1 3.1.5 0 1.3-3.1 1.1-5.2 1.1-2.2 0-6.9-.1-8-.3-1.2-.2-2.6-.8-3.1-1.6-.5-.7-1.5-2.4-1.4-3.5v-2c.1-.7.2-1.2.7-1.2.5-.1.5-.2.5-.2z" fill="#cfc"/>
        <path d="M285.9 405.1c-.6.2-1.1.3-1.1-.2-.1-.5.3-2 .3-3.5v-1.5c0-.7-.5-1.2-.5-1.2s1.1 0 1.7.1c.5 0 .7.2.8.8.2.5.1 3.2-.1 3.8-.2.7-1.1 1.7-1.1 1.7zM281.2 403h-10.3l.6 1.7h9.1z" fill="#699"/>
        <path d="M270.7 403.1h-1.1v-2.8c0-1.1-.8-1.5-.8-1.5h1.2l.9 1.3zM287.3 403.1l-1 1.2s.5-2.5.1-4.2c-.3-1.1-1-1.3-1-1.3h1.2l1 1.3z" fill="#366"/>
        <path d="M270 403.1h-1v-2.8c0-1.1-.9-1.5-.9-1.5h1.2s.7.3.7 1.2v3.1z" fill="#699"/>
        <path d="M281 403h1s-.1-1.4-.1-2.2c0-.9-.2-1.9-.6-1.4-.4.5-.3 1-.3 1z" fill="#cfc"/>
        <path d="M280.8 403.2v-3.1c0-.8 1-1.7 1.7-1.7h3.7c.8 0 1.2.5 1.2 1.3v2c0 1.6-.6 3.1-1.8 4.4-1 1-4 1.4-5.7 1.4h-7.8c-1.7 0-4.7-.4-5.7-1.4-1.2-1.3-1.8-2.8-1.8-4.4v-2c0-.8.4-1.3 1.2-1.3h3.7c.8 0 1.7.9 1.7 1.7v3.1z" fill="none" stroke="#000"/>
        <path d="M268.3 404c-.5-.5-1.1-.7-1.3-.5-.2.2.1.8.6 1.2.5.5 1.1.7 1.3.5.1-.2-.1-.7-.6-1.2z" fill="#fff"/>
    </g>
</svg>
