<svg xmlns="http://www.w3.org/2000/svg" width="24" height="24">
	<g transform="translate(-274,-380)" id="KDDI_D_087">
		<g>
			<g>
				<path style="stroke:none; fill:#c96" d="M 275.495 397.888C 275.495 398.888 275.995 399.39 276.995 399.39C 277.995 399.39 294 399.39 295 399.39C 296 399.39 296.5 398.888 296.5 397.888C 296.5 396.888 296.5 387.886 296.5 386.888C 296.5 385.89 296 385.39 295 385.39C 294 385.39 277.995 385.39 276.995 385.39C 275.995 385.39 275.495 385.887 275.495 386.888C 275.495 387.89 275.495 397.888 275.495 397.888z"/>
				<path style="stroke:none; fill:#fc6" d="M 296 397.888L 290 397.888L 290 390.888L 296 390.888L 296 397.888z"/>
				<path style="stroke:none; fill:#fff" d="M 295 396.89L 291 396.89L 291 391.89L 295 391.89L 295 396.89z"/>
				<path style="stroke:none; fill:#c00" d="M 290.989 392.888L 290.989 393.888L 294 393.888L 294 392.888L 290.989 392.888z"/>
				<path style="stroke:none; fill:#999" d="M 294 392.888L 294 393.888L 295 393.888L 295 392.888L 294 392.888z"/>
				<path style="stroke:none; fill:#009" d="M 290.989 394.89L 290.989 395.89L 294 395.89L 294 394.89L 290.989 394.89z"/>
				<path style="stroke:none; fill:#0c0" d="M 294 394.89L 294 395.89L 295 395.89L 295 394.89L 294 394.89z"/>
				<path style="stroke:none; fill:#936" d="M 275.495 386.888L 275.495 387.888L 296.5 387.888L 296.5 386.888L 275.495 386.888z"/>
				<path style="stroke:none; fill:#336" d="M 275.495 387.888L 275.495 389.888L 296.5 389.888L 296.5 387.888L 275.495 387.888z"/>
				<path style="stroke:none; fill:#cc9" d="M 278 391.89L 276.998 391.89L 276.998 390.888L 278 390.888L 278 391.89z"/>
				<path style="stroke:none; fill:#cc9" d="M 278 393.89L 276.998 393.89L 276.998 392.888L 278 392.888L 278 393.89z"/>
				<path style="stroke:none; fill:#cc9" d="M 280 391.89L 278.999 391.89L 278.999 390.888L 280 390.888L 280 391.89z"/>
				<path style="stroke:none; fill:#cc9" d="M 278.999 392.891L 277.997 392.891L 277.997 391.89L 278.999 391.89L 278.999 392.891z"/>
				<path style="stroke:none; fill:#cc9" d="M 280 393.89L 278.999 393.89L 278.999 392.888L 280 392.888L 280 393.89z"/>
				<path style="stroke:none; fill:#cc9" d="M 282 391.89L 280.998 391.89L 280.998 390.888L 282 390.888L 282 391.89z"/>
				<path style="stroke:none; fill:#cc9" d="M 282 393.89L 280.998 393.89L 280.998 392.888L 282 392.888L 282 393.89z"/>
				<path style="stroke:none; fill:#cc9" d="M 284 391.89L 282.999 391.89L 282.999 390.888L 284 390.888L 284 391.89z"/>
				<path style="stroke:none; fill:#cc9" d="M 282.999 392.891L 281.997 392.891L 281.997 391.89L 282.999 391.89L 282.999 392.891z"/>
				<path style="stroke:none; fill:#cc9" d="M 284 393.89L 282.999 393.89L 282.999 392.888L 284 392.888L 284 393.89z"/>
				<path style="stroke:none; fill:#cc9" d="M 286 391.89L 284.998 391.89L 284.998 390.888L 286 390.888L 286 391.89z"/>
				<path style="stroke:none; fill:#cc9" d="M 286 393.89L 284.998 393.89L 284.998 392.888L 286 392.888L 286 393.89z"/>
				<path style="stroke:none; fill:#cc9" d="M 288 391.89L 286.999 391.89L 286.999 390.888L 288 390.888L 288 391.89z"/>
				<path style="stroke:none; fill:#cc9" d="M 286.999 392.891L 285.997 392.891L 285.997 391.89L 286.999 391.89L 286.999 392.891z"/>
				<path style="stroke:none; fill:#cc9" d="M 288 393.89L 286.999 393.89L 286.999 392.888L 288 392.888L 288 393.89z"/>
				<path style="stroke:none; fill:#666" d="M 280 386.891L 278.999 386.891L 278.999 385.889L 280 385.889L 280 386.891z"/>
				<path style="stroke:none; fill:#666" d="M 279.001 396.89L 278 396.89L 278 395.888L 279.001 395.888L 279.001 396.89z"/>
				<path style="stroke:none; fill:#666" d="M 281.001 396.89L 280 396.89L 280 395.888L 281.001 395.888L 281.001 396.89z"/>
				<path style="stroke:none; fill:#666" d="M 283.002 396.89L 282 396.89L 282 395.888L 283.002 395.888L 283.002 396.89z"/>
				<path style="stroke:none; fill:#666" d="M 285.001 396.89L 284 396.89L 284 395.888L 285.001 395.888L 285.001 396.89z"/>
				<path style="stroke:none; fill:#666" d="M 287.001 396.89L 286 396.89L 286 395.888L 287.001 395.888L 287.001 396.89z"/>
				<path style="stroke:#000; stroke-width:1; fill:none" d="M 275.495 397.888C 275.495 398.888 275.995 399.39 276.995 399.39C 277.995 399.39 294 399.39 295 399.39C 296 399.39 296.5 398.888 296.5 397.888C 296.5 396.888 296.5 387.886 296.5 386.888C 296.5 385.89 296 385.39 295 385.39C 294 385.39 277.995 385.39 276.995 385.39C 275.995 385.39 275.495 385.887 275.495 386.888C 275.495 387.89 275.495 397.888 275.495 397.888z"/>
			</g>
		</g>
	</g>
</svg>
