<svg xmlns="http://www.w3.org/2000/svg" width="24" height="24">
	<g transform="translate(-264,-386)" id="KDDI_D_088">
		<g>
			<path style="stroke:none; fill:none" d="M 288 409.89L 264 409.89L 264 385.89L 288 385.89L 288 409.89z"/>
		</g>
		<g>
			<path style="stroke:none; fill:#f99" d="M 276 391.224L 276 386.96L 264.834 409.876L 268.011 407.876L 276 391.224z"/>
			<path style="stroke:none; fill:#900" d="M 287.167 409.876L 276 386.96L 276 391.224L 268.011 407.876L 264.834 409.876L 287.167 409.876z"/>
			<path style="stroke:none; fill:#f66" d="M 276 389.11L 266.453 408.811C 266.443 408.831 266.432 408.858 266.423 408.876C 268.954 408.876 283.047 408.876 285.577 408.876C 284.474 406.571 277.37 392.084 276 389.11z"/>
			<path style="stroke:none; fill:#c00" d="M 285.577 408.876C 284.474 406.571 276 389.11 276 389.11L 276 391.224L 268.011 407.876C 268.011 407.876 266.432 408.858 266.423 408.876C 268.954 408.876 283.047 408.876 285.577 408.876z"/>
			<path style="stroke:none; fill:#f00" d="M 267.901 407.876L 284.099 407.876L 276 391.192L 267.901 407.876z"/>
		</g>
	</g>
</svg>
