<svg xmlns="http://www.w3.org/2000/svg" width="24" height="24">
	<g transform="translate(-264,-386)" id="KDDI_D_090">
		<g>
			<path style="stroke:none; fill:none" d="M 288 409.89L 264 409.89L 264 385.89L 288 385.89L 288 409.89z"/>
		</g>
		<g>
			<path style="stroke:none; fill:#fff" d="M 287.458 391.376C 287.458 391.376 285.188 391.376 284.667 391.376C 283.583 391.376 283.202 390.404 282.875 389.793C 282.542 389.168 281.917 388.251 279.667 388.251C 278.75 388.251 278.017 388.043 277.583 387.501C 276.917 386.668 276.25 386.392 275.031 386.392C 274.239 386.392 264.542 386.392 264.542 386.392L 264.542 404.39C 264.542 404.39 274.239 404.39 275.031 404.39C 276.25 404.39 276.917 404.666 277.583 405.499C 278.017 406.041 278.75 406.249 279.667 406.249C 281.917 406.249 282.542 407.166 282.875 407.791C 283.202 408.402 283.583 409.374 284.667 409.374C 285.188 409.374 287.458 409.374 287.458 409.374L 287.458 391.376z"/>
			<path style="stroke:none; fill:#f00" d="M 264.542 401.89L 264.542 402.89L 275.031 402.89C 276.109 402.89 276.915 403.135 277.5 403.812C 278 404.39 278.507 404.749 279.667 404.749C 281.752 404.749 282.556 405.446 283 405.89C 283.444 406.334 284 407.874 285 407.874L 287.458 407.874L 287.458 406.874L 285.5 406.874C 284.5 406.874 284.338 406.528 283.491 405.38C 282.644 404.233 282.047 403.749 279.667 403.749C 278.831 403.749 278.277 403.565 277.974 403.187C 277.217 402.241 276.42 401.89 275.031 401.89L 264.542 401.89z"/>
			<path style="stroke:none; fill:#f00" d="M 264.542 399.89L 264.542 400.89L 275.031 400.89C 276.109 400.89 276.915 401.135 277.5 401.812C 278 402.39 278.507 402.749 279.667 402.749C 281.752 402.749 282.556 403.446 283 403.89C 283.444 404.334 284 405.874 285 405.874L 287.458 405.874L 287.458 404.874L 285.5 404.874C 284.5 404.874 284.338 404.528 283.491 403.38C 282.644 402.233 282.047 401.749 279.667 401.749C 278.831 401.749 278.277 401.565 277.974 401.187C 277.217 400.241 276.42 399.89 275.031 399.89L 264.542 399.89z"/>
			<path style="stroke:none; fill:#f00" d="M 264.542 397.905L 264.542 398.905L 275.031 398.905C 276.109 398.905 276.915 399.151 277.5 399.827C 278 400.405 278.507 400.765 279.667 400.765C 281.752 400.765 282.556 401.462 283 401.905C 283.444 402.349 284 403.89 285 403.89L 287.458 403.89L 287.458 402.89L 285.5 402.89C 284.5 402.89 284.338 402.544 283.491 401.396C 282.644 400.248 282.047 399.765 279.667 399.765C 278.831 399.765 278.277 399.581 277.974 399.202C 277.217 398.257 276.42 397.905 275.031 397.905L 264.542 397.905z"/>
			<path style="stroke:none; fill:#f00" d="M 264.542 395.905L 264.542 396.905L 275.031 396.905C 276.109 396.905 276.915 397.151 277.5 397.827C 278 398.405 278.507 398.765 279.667 398.765C 281.752 398.765 282.556 399.462 283 399.905C 283.444 400.349 284 401.89 285 401.89L 287.458 401.89L 287.458 400.89L 285.5 400.89C 284.5 400.89 284.338 400.544 283.491 399.396C 282.644 398.248 282.047 397.765 279.667 397.765C 278.831 397.765 278.277 397.581 277.974 397.202C 277.217 396.257 276.42 395.905 275.031 395.905L 264.542 395.905z"/>
			<path style="stroke:none; fill:#f00" d="M 264.542 393.905L 264.542 394.905L 275.031 394.905C 276.109 394.905 276.915 395.151 277.5 395.827C 278 396.405 278.507 396.765 279.667 396.765C 281.752 396.765 282.556 397.462 283 397.905C 283.444 398.349 284 399.89 285 399.89L 287.458 399.89L 287.458 398.89L 285.5 398.89C 284.5 398.89 284.338 398.544 283.491 397.396C 282.644 396.248 282.047 395.765 279.667 395.765C 278.831 395.765 278.277 395.581 277.974 395.202C 277.217 394.257 276.42 393.905 275.031 393.905L 264.542 393.905z"/>
			<path style="stroke:none; fill:#f00" d="M 264.542 391.905L 264.542 392.905L 275.031 392.905C 276.109 392.905 276.915 393.151 277.5 393.827C 278 394.405 278.507 394.765 279.667 394.765C 281.752 394.765 282.556 395.462 283 395.905C 283.444 396.349 284 397.89 285 397.89L 287.458 397.89L 287.458 396.89L 285.5 396.89C 284.5 396.89 284.338 396.544 283.491 395.396C 282.644 394.248 282.047 393.765 279.667 393.765C 278.831 393.765 278.277 393.581 277.974 393.202C 277.217 392.257 276.42 391.905 275.031 391.905L 264.542 391.905z"/>
			<path style="stroke:none; fill:#f00" d="M 264.542 389.921L 264.542 390.921L 275.031 390.921C 276.109 390.921 276.915 391.167 277.5 391.843C 278 392.421 278.507 392.78 279.667 392.78C 281.752 392.78 282.556 393.477 283 393.921C 283.444 394.365 284 395.905 285 395.905L 287.458 395.905L 287.458 394.905L 285.5 394.905C 284.5 394.905 284.338 394.56 283.491 393.412C 282.644 392.264 282.047 391.78 279.667 391.78C 278.831 391.78 278.277 391.596 277.974 391.218C 277.217 390.273 276.42 389.921 275.031 389.921L 264.542 389.921z"/>
			<path style="stroke:none; fill:#f00" d="M 264.542 387.921L 264.542 388.921L 275.031 388.921C 276.109 388.921 276.915 389.167 277.5 389.843C 278 390.421 278.507 390.78 279.667 390.78C 281.752 390.78 282.556 391.477 283 391.921C 283.444 392.365 284 393.905 285 393.905L 287.458 393.905L 287.458 392.905L 285.5 392.905C 284.5 392.905 284.338 392.56 283.491 391.412C 282.644 390.264 282.047 389.78 279.667 389.78C 278.831 389.78 278.277 389.596 277.974 389.218C 277.217 388.273 276.42 387.921 275.031 387.921L 264.542 387.921z"/>
			<path style="stroke:none; fill:#cc9" d="M 277.989 405.39L 275.036 404.39L 275.036 386.433L 277.989 387.39L 277.989 405.39z"/>
			<path style="stroke:none; fill:#cc9" d="M 284 409.397L 282.46 407.293L 281.042 406.418L 281.042 388.46L 282.458 389.418L 284 391.376L 284 409.397z"/>
			<path style="stroke:#000; stroke-width:0.75; fill:none" d="M 283.594 409.439"/>
			<path style="stroke:#cc9; stroke-dasharray:0.6,1.45; stroke-width:1; fill:none" d="M 275.5 389.11L 275.5 396.11"/>
			<g>
				<path style="stroke:none; fill:#900" d="M 277.974 403.187C 277.218 402.242 276.421 401.891 275.036 401.89L 275.036 402.89C 276.111 402.891 276.917 403.136 277.5 403.812C 277.655 403.991 277.814 404.146 277.989 404.279L 277.989 403.201C 277.985 403.195 277.978 403.192 277.974 403.187z"/>
				<path style="stroke:none; fill:#900" d="M 277.989 402.279L 277.989 401.201C 277.985 401.195 277.978 401.192 277.974 401.187C 277.218 400.242 276.421 399.891 275.036 399.89L 275.036 400.89C 276.111 400.891 276.917 401.136 277.5 401.812C 277.655 401.991 277.814 402.146 277.989 402.279z"/>
				<path style="stroke:none; fill:#900" d="M 277.989 400.295L 277.989 399.216C 277.985 399.211 277.978 399.208 277.974 399.202C 277.218 398.258 276.421 397.906 275.036 397.906L 275.036 398.906C 276.111 398.906 276.917 399.152 277.5 399.827C 277.655 400.006 277.814 400.162 277.989 400.295z"/>
				<path style="stroke:none; fill:#900" d="M 277.989 398.295L 277.989 397.216C 277.985 397.211 277.978 397.208 277.974 397.202C 277.218 396.258 276.421 395.906 275.036 395.906L 275.036 396.906C 276.111 396.906 276.917 397.152 277.5 397.827C 277.655 398.006 277.814 398.162 277.989 398.295z"/>
				<path style="stroke:none; fill:#900" d="M 277.989 396.295L 277.989 395.216C 277.985 395.211 277.978 395.208 277.974 395.202C 277.218 394.258 276.421 393.906 275.036 393.906L 275.036 394.906C 276.111 394.906 276.917 395.152 277.5 395.827C 277.655 396.006 277.814 396.162 277.989 396.295z"/>
				<path style="stroke:none; fill:#900" d="M 277.989 394.295L 277.989 393.216C 277.985 393.211 277.978 393.208 277.974 393.202C 277.218 392.258 276.421 391.906 275.036 391.906L 275.036 392.906C 276.111 392.906 276.917 393.152 277.5 393.827C 277.655 394.006 277.814 394.162 277.989 394.295z"/>
				<path style="stroke:none; fill:#900" d="M 277.989 392.311L 277.989 391.232C 277.985 391.227 277.978 391.223 277.974 391.218C 277.218 390.274 276.421 389.922 275.036 389.921L 275.036 390.921C 276.111 390.922 276.917 391.168 277.5 391.843C 277.655 392.022 277.814 392.177 277.989 392.311z"/>
				<path style="stroke:none; fill:#900" d="M 277.989 390.311L 277.989 389.232C 277.985 389.227 277.978 389.223 277.974 389.218C 277.218 388.274 276.421 387.922 275.036 387.921L 275.036 388.921C 276.111 388.922 276.917 389.168 277.5 389.843C 277.655 390.022 277.814 390.177 277.989 390.311z"/>
			</g>
			<g>
				<path style="stroke:none; fill:#900" d="M 281.042 403.831L 281.042 404.874C 282.141 405.094 282.671 405.561 283 405.89C 283.268 406.157 283.578 406.82 284 407.307L 284 406.069C 283.855 405.88 283.693 405.655 283.491 405.38C 282.838 404.496 282.326 404.01 281.042 403.831z"/>
				<path style="stroke:none; fill:#900" d="M 281.042 401.831L 281.042 402.874C 282.141 403.094 282.671 403.561 283 403.89C 283.268 404.157 283.578 404.82 284 405.307L 284 404.069C 283.855 403.88 283.693 403.655 283.491 403.38C 282.838 402.496 282.326 402.01 281.042 401.831z"/>
				<path style="stroke:none; fill:#900" d="M 281.042 399.847L 281.042 400.89C 282.141 401.11 282.671 401.576 283 401.905C 283.268 402.173 283.578 402.836 284 403.323L 284 402.085C 283.855 401.896 283.693 401.671 283.491 401.396C 282.838 400.512 282.326 400.025 281.042 399.847z"/>
				<path style="stroke:none; fill:#900" d="M 281.042 397.847L 281.042 398.89C 282.141 399.11 282.671 399.576 283 399.905C 283.268 400.173 283.578 400.836 284 401.323L 284 400.085C 283.855 399.896 283.693 399.671 283.491 399.396C 282.838 398.512 282.326 398.025 281.042 397.847z"/>
				<path style="stroke:none; fill:#900" d="M 281.042 395.847L 281.042 396.89C 282.141 397.11 282.671 397.576 283 397.905C 283.268 398.173 283.578 398.836 284 399.323L 284 398.085C 283.855 397.896 283.693 397.671 283.491 397.396C 282.838 396.512 282.326 396.025 281.042 395.847z"/>
				<path style="stroke:none; fill:#900" d="M 281.042 393.847L 281.042 394.89C 282.141 395.11 282.671 395.576 283 395.905C 283.268 396.173 283.578 396.836 284 397.323L 284 396.085C 283.855 395.896 283.693 395.671 283.491 395.396C 282.838 394.512 282.326 394.025 281.042 393.847z"/>
				<path style="stroke:none; fill:#900" d="M 281.042 391.862L 281.042 392.905C 282.141 393.126 282.671 393.592 283 393.921C 283.268 394.189 283.578 394.852 284 395.338L 284 394.101C 283.855 393.912 283.693 393.686 283.491 393.412C 282.838 392.527 282.326 392.041 281.042 391.862z"/>
				<path style="stroke:none; fill:#900" d="M 283 391.921C 283.268 392.189 283.578 392.852 284 393.338L 284 392.101C 283.855 391.912 283.693 391.686 283.491 391.412C 282.838 390.527 282.326 390.041 281.042 389.862L 281.042 390.905C 282.141 391.126 282.671 391.592 283 391.921z"/>
			</g>
			<path style="stroke:none; fill:#309" d="M 275.031 386.892C 275.031 386.892 265.948 386.892 265.042 386.892C 265.042 387.345 265.042 391.922 265.042 395.89C 265.948 395.89 275.031 395.89 275.031 395.89C 275.946 395.89 276.461 396.071 276.938 396.546L 276.938 387.548C 276.461 387.073 275.946 386.892 275.031 386.892z"/>
			<path style="stroke:none; fill:#306" d="M 275 386.892L 275 395.89C 275.006 395.89 275.031 395.89 275.031 395.89C 275.946 395.89 276.461 396.071 276.938 396.546L 276.938 387.548C 276.461 387.073 275.946 386.892 275.031 386.892C 275.031 386.892 275.006 386.892 275 386.892z"/>
			<g>
				<path style="stroke:none; fill:#fff" d="M 266.315 387.402L 266.5 387.89L 267.021 387.915L 266.614 388.242L 266.751 388.745L 266.315 388.46L 265.878 388.745L 266.015 388.242L 265.608 387.915L 266.13 387.89L 266.315 387.402z"/>
				<path style="stroke:none; fill:#fff" d="M 268.315 387.402L 268.5 387.89L 269.021 387.915L 268.614 388.242L 268.751 388.745L 268.315 388.46L 267.878 388.745L 268.015 388.242L 267.608 387.915L 268.13 387.89L 268.315 387.402z"/>
				<path style="stroke:none; fill:#fff" d="M 270.294 387.402L 270.479 387.89L 271 387.915L 270.594 388.242L 270.73 388.745L 270.294 388.46L 269.857 388.745L 269.994 388.242L 269.588 387.915L 270.109 387.89L 270.294 387.402z"/>
				<path style="stroke:none; fill:#fff" d="M 272.206 387.402L 272.392 387.89L 272.912 387.915L 272.506 388.242L 272.643 388.745L 272.206 388.46L 271.77 388.745L 271.906 388.242L 271.5 387.915L 272.022 387.89L 272.206 387.402z"/>
				<path style="stroke:none; fill:#fff" d="M 274.294 387.402L 274.479 387.89L 275 387.915L 274.594 388.242L 274.73 388.745L 274.294 388.46L 273.857 388.745L 273.994 388.242L 273.588 387.915L 274.109 387.89L 274.294 387.402z"/>
				<path style="stroke:none; fill:#fff" d="M 266.315 389.547L 266.5 390.034L 267.021 390.06L 266.614 390.387L 266.751 390.89L 266.315 390.605L 265.878 390.89L 266.015 390.387L 265.608 390.06L 266.13 390.034L 266.315 389.547z"/>
				<path style="stroke:none; fill:#fff" d="M 268.315 389.547L 268.5 390.034L 269.021 390.06L 268.614 390.387L 268.751 390.89L 268.315 390.605L 267.878 390.89L 268.015 390.387L 267.608 390.06L 268.13 390.034L 268.315 389.547z"/>
				<path style="stroke:none; fill:#fff" d="M 270.294 389.547L 270.479 390.034L 271 390.06L 270.594 390.387L 270.73 390.89L 270.294 390.605L 269.857 390.89L 269.994 390.387L 269.588 390.06L 270.109 390.034L 270.294 389.547z"/>
				<path style="stroke:none; fill:#fff" d="M 272.206 389.547L 272.392 390.034L 272.912 390.06L 272.506 390.387L 272.643 390.89L 272.206 390.605L 271.77 390.89L 271.906 390.387L 271.5 390.06L 272.022 390.034L 272.206 389.547z"/>
				<path style="stroke:none; fill:#fff" d="M 274.294 389.547L 274.479 390.034L 275 390.06L 274.594 390.387L 274.73 390.89L 274.294 390.605L 273.857 390.89L 273.994 390.387L 273.588 390.06L 274.109 390.034L 274.294 389.547z"/>
				<path style="stroke:none; fill:#fff" d="M 266.315 391.547L 266.5 392.034L 267.021 392.06L 266.614 392.387L 266.751 392.89L 266.315 392.605L 265.878 392.89L 266.015 392.387L 265.608 392.06L 266.13 392.034L 266.315 391.547z"/>
				<path style="stroke:none; fill:#fff" d="M 268.315 391.547L 268.5 392.034L 269.021 392.06L 268.614 392.387L 268.751 392.89L 268.315 392.605L 267.878 392.89L 268.015 392.387L 267.608 392.06L 268.13 392.034L 268.315 391.547z"/>
				<path style="stroke:none; fill:#fff" d="M 270.294 391.547L 270.479 392.034L 271 392.06L 270.594 392.387L 270.73 392.89L 270.294 392.605L 269.857 392.89L 269.994 392.387L 269.588 392.06L 270.109 392.034L 270.294 391.547z"/>
				<path style="stroke:none; fill:#fff" d="M 272.206 391.547L 272.392 392.034L 272.912 392.06L 272.506 392.387L 272.643 392.89L 272.206 392.605L 271.77 392.89L 271.906 392.387L 271.5 392.06L 272.022 392.034L 272.206 391.547z"/>
				<path style="stroke:none; fill:#fff" d="M 274.294 391.547L 274.479 392.034L 275 392.06L 274.594 392.387L 274.73 392.89L 274.294 392.605L 273.857 392.89L 273.994 392.387L 273.588 392.06L 274.109 392.034L 274.294 391.547z"/>
				<path style="stroke:none; fill:#fff" d="M 266.315 393.547L 266.5 394.034L 267.021 394.06L 266.614 394.387L 266.751 394.89L 266.315 394.605L 265.878 394.89L 266.015 394.387L 265.608 394.06L 266.13 394.034L 266.315 393.547z"/>
				<path style="stroke:none; fill:#fff" d="M 268.315 393.547L 268.5 394.034L 269.021 394.06L 268.614 394.387L 268.751 394.89L 268.315 394.605L 267.878 394.89L 268.015 394.387L 267.608 394.06L 268.13 394.034L 268.315 393.547z"/>
				<path style="stroke:none; fill:#fff" d="M 270.294 393.547L 270.479 394.034L 271 394.06L 270.594 394.387L 270.73 394.89L 270.294 394.605L 269.857 394.89L 269.994 394.387L 269.588 394.06L 270.109 394.034L 270.294 393.547z"/>
				<path style="stroke:none; fill:#fff" d="M 272.206 393.547L 272.392 394.034L 272.912 394.06L 272.506 394.387L 272.643 394.89L 272.206 394.605L 271.77 394.89L 271.906 394.387L 271.5 394.06L 272.022 394.034L 272.206 393.547z"/>
				<path style="stroke:none; fill:#fff" d="M 274.294 393.547L 274.479 394.034L 275 394.06L 274.594 394.387L 274.73 394.89L 274.294 394.605L 273.857 394.89L 273.994 394.387L 273.588 394.06L 274.109 394.034L 274.294 393.547z"/>
			</g>
			<path style="stroke:none; fill:#fff" d="M 274.294 387.402L 274.479 387.89L 275 387.915L 274.594 388.242L 274.73 388.745L 274.294 388.46L 273.857 388.745L 273.994 388.242L 273.588 387.915L 274.109 387.89L 274.294 387.402z"/>
			<path style="stroke:#000; stroke-width:1; fill:none" d="M 287.458 391.376C 287.458 391.376 285.188 391.376 284.667 391.376C 283.583 391.376 283.202 390.404 282.875 389.793C 282.542 389.168 281.917 388.251 279.667 388.251C 278.75 388.251 278.017 388.043 277.583 387.501C 276.917 386.668 276.25 386.392 275.031 386.392C 274.239 386.392 264.542 386.392 264.542 386.392L 264.542 404.39C 264.542 404.39 274.239 404.39 275.031 404.39C 276.25 404.39 276.917 404.666 277.583 405.499C 278.017 406.041 278.75 406.249 279.667 406.249C 281.917 406.249 282.542 407.166 282.875 407.791C 283.202 408.402 283.583 409.374 284.667 409.374C 285.188 409.374 287.458 409.374 287.458 409.374L 287.458 391.376z"/>
		</g>
	</g>
</svg>
