<svg xmlns="http://www.w3.org/2000/svg" width="24" height="24">
	<g transform="translate(-264,-386)" id="KDDI_D_092">
		<g>
			<path style="stroke:none; fill:none" d="M 288 409.89L 264 409.89L 264 385.89L 288 385.89L 288 409.89z"/>
		</g>
		<g>
			<path style="stroke:none; fill:#06f" d="M 266.5 387.413C 265.95 387.413 265.5 387.868 265.5 388.418L 265.5 408.36C 265.5 408.91 265.95 409.36 266.5 409.36L 285.5 409.36C 286.05 409.36 286.5 408.91 286.5 408.36L 286.5 388.418C 286.5 387.868 286.05 387.413 285.5 387.413L 266.5 387.413z"/>
			<path style="stroke:#000; stroke-width:1; fill:none" d="M 266.5 387.413C 265.95 387.413 265.5 387.868 265.5 388.418L 265.5 408.36C 265.5 408.91 265.95 409.36 266.5 409.36L 285.5 409.36C 286.05 409.36 286.5 408.91 286.5 408.36L 286.5 388.418C 286.5 387.868 286.05 387.413 285.5 387.413L 266.5 387.413z"/>
			<path style="stroke:#666; stroke-width:1; fill:none" d="M 283 387.413L 266.5 387.413C 265.95 387.413 265.5 387.868 265.5 388.418L 265.5 408.36"/>
			<path style="stroke:none; fill:#fff" d="M 283 405.89L 269 405.89L 269 387.89L 283 387.89L 283 405.89z"/>
			<path style="stroke:none; fill:#cc9" d="M 281.989 387.46L 270.01 387.46L 270.01 390.751L 281.989 390.751L 281.989 387.46z"/>
			<path style="stroke:none; fill:#996" d="M 282 388.428L 279.646 390.751L 272.292 390.751L 270 388.428L 270 387.89L 282 387.89L 282 388.428z"/>
			<path style="stroke:#cc9; stroke-width:1; fill:none" d="M 272.406 389.558L 279.562 389.558"/>
			<path style="stroke:#666; stroke-width:0.75; fill:none" d="M 270.348 387.543L 273.223 390.402L 278.775 390.402L 281.65 387.511"/>
			<path style="stroke:none; fill:#666" d="M 283 385.89L 269 385.89L 269 387.181L 283 387.181L 283 385.89z"/>
			<path style="stroke:#999; stroke-width:1; fill:none" d="M 270.021 387.413L 272.062 387.413"/>
			<path style="stroke:#999; stroke-width:1; fill:none" d="M 279.958 387.413L 282 387.413"/>
			<path style="stroke:#69f; stroke-width:1; fill:none" d="M 266.5 387.89L 266.5 408.89"/>
			<path style="stroke:none; fill:#039" d="M 285 387.939C 285 387.939 285 406.93 285 407.881C 284.053 407.881 267.021 407.881 267.021 407.881L 266 408.881L 286 408.881L 286 387.939L 285 387.939z"/>
		</g>
	</g>
</svg>
