<svg xmlns="http://www.w3.org/2000/svg" height="24" width="24">
	<g transform="matrix(1,0,0,-1,-264,408)" id="KDDI_D_093">
        <path d="M287.5 389c0-2.5-5.1-4.6-11.5-4.6s-11.5 2.1-11.5 4.6c0 2.5 5.1 4.5 11.5 4.5s11.5-2 11.5-4.5z" fill="#fc6"/>
        <path d="M287.5 389c0-2.5-5.1-4.6-11.5-4.6s-11.5 2.1-11.5 4.6c0 2.5 5.1 4.5 11.5 4.5s11.5-2 11.5-4.5z" fill="#ff9"/>
        <path d="M283.9 389.1c0-1.8-3.5-3.2-7.9-3.2s-7.9 1.4-7.9 3.2c0 1.7 3.5 3.1 7.9 3.1s7.9-1.4 7.9-3.1z" fill="#fc6"/>
        <path d="M281.9 389c0-1-2.6-1.8-5.8-1.8-3.2 0-5.8.8-5.8 1.8s2.6 1.8 5.8 1.8c3.2 0 5.8-.8 5.8-1.8z" fill="#f93"/>
        <path d="M287.5 389c0-2.5-5.1-4.6-11.5-4.6s-11.5 2.1-11.5 4.6c0 2.5 5.1 4.5 11.5 4.5s11.5-2 11.5-4.5z" fill="none" stroke="#000"/>
        <path d="M280.1 389.2c0-.8-1.9-1.4-4.2-1.4-2.3 0-4.2.6-4.2 1.4 0 .7 1.9 1.3 4.2 1.3 2.3 0 4.2-.6 4.2-1.3zM283.3 402.1h2.5c.5 0 1.5-.8 1.5-2.1v-3.6c0-1-1.3-1.6-2.2-1.8-.9-.3-2.5-.7-2.5-.7l.2 1.8s2 .4 2.5.7c.5.4.2 2.2.2 3 0 .9-2.2.7-2.2.7z" fill="#c60"/>
        <path d="M283.6 401.2l2.2-.1s1.1.3.4.8c-.8.5-2.6.1-2.6.1z" fill="#f93"/>
        <path d="M283.1 402.2s1.8.1 2.4.1c1.1 0 2-1 2-2.2v-3.5c0-1.3-1.6-1.9-2.5-2.3-1-.4-2.4-.4-2.4-.4l.1 2s2 .2 2.5.5.3 2.5.3 3.3c0 .9-2.4.5-2.4.5z" fill="none" stroke="#000"/>
        <path d="M283.5 403.9v-7.2c0-1.4-.4-3.5-1.4-4.9-1-1.5-3.3-2.8-3.3-2.8s-1.9-.3-2.8-.3c-.9 0-2.7.3-2.7.3s-2.4 1.3-3.4 2.8c-1 1.4-1.4 3.5-1.4 4.9v7.2" fill="#fc6"/>
        <path d="M279.2 403.9v-7.1c0-1.4-.4-4-1.3-5.4-.9-1.4-3.1-2.2-3.1-2.2h-.4c.5-.1 1.5-.2 2-.2.9 0 2.6.2 2.6.2s2.1 1.4 3 2.7c1 1.4 1.4 3.5 1.4 4.9v7.1z" fill="#f93"/>
        <path d="M280.8 403.9v-7.1c0-1.4-.1-3.5-1-4.9-.9-1.3-1.8-2.1-.9-2.3 1-.3 2.2 1 3.1 2.3 1 1.4 1.4 3.5 1.4 4.9v7.1z" fill="#c60"/>
        <path d="M272.9 391.8c-1 1.4-1.4 3.5-1.4 4.9v7.2h-3v-7.2c0-1.4.4-3.5 1.4-4.9 1-1.5 1.3-1.9 2.2-2 .9-.2 1.8.5.8 2z" fill="#ff9"/>
        <path d="M271.8 391.8c.6-1 .9-1.5 1.3-1.7.3.3.4.9-.2 1.7-1 1.4-1.4 3.5-1.4 4.9v7.2h-1.2v-7.2c0-1.4.5-3.5 1.5-4.9z" fill="#ffc"/>
        <path d="M283.5 403.9c0-2-3.4-3.6-7.5-3.6s-7.5 1.6-7.5 3.6c0 1.9 3.4 3.5 7.5 3.5s7.5-1.6 7.5-3.5z" fill="#fc6"/>
        <path d="M271.3 406.4l3 .9v-3.1l-3-1.1v3.3" fill="#f93"/>
        <path d="M269.2 402.3c1.2-1.2 3.8-2 6.8-2s5.6.8 6.8 2c-.8 1.5-3.6 2.7-6.8 2.7-3.2 0-6-1.2-6.8-2.7z" fill="#630"/>
        <path d="M283.5 403.9v-7.2c0-1.4-.4-3.5-1.4-4.9-1-1.5-3.3-2.8-3.3-2.8s-1.9-.3-2.8-.3c-.9 0-2.7.3-2.7.3s-2.4 1.3-3.4 2.8c-1 1.4-1.4 3.5-1.4 4.9v7.2" fill="none" stroke="#000"/>
        <path d="M283.5 403.9c0-2-3.4-3.6-7.5-3.6s-7.5 1.6-7.5 3.6c0 1.9 3.4 3.5 7.5 3.5s7.5-1.6 7.5-3.5z" fill="none" stroke="#000"/>
    </g>
</svg>
