<svg xmlns="http://www.w3.org/2000/svg" height="24" width="24">
	<g transform="matrix(1,0,0,-1,-264,408)" id="KDDI_D_094">
        <path d="M266.4 394.8H265v4.5h1.4z" fill="#fff"/>
        <path d="M269.3 394.8h-3v4.5h3z" fill="#ccc"/>
        <path d="M285.8 394.8h-2.1v4.5h2.1z" fill="#999"/>
        <path d="M287.1 394.8h-1.3v4.5h1.3z" fill="#333"/>
        <path d="M284.1 394.8H269v4.5h15.1z" fill="#ccc"/>
        <path d="M269.3 398.4h-4v.8h4z" fill="#fff"/>
        <path d="M268.1 399.8h-2.5v1.5h2.5z" fill="#666"/>
        <path d="M267.5 399.8h-.7v1.5h.7z" fill="#333"/>
        <path d="M283.9 399.8h2.5v1.5h-2.5z" fill="#666"/>
        <path d="M285.2 399.8h.7v1.5h-.7z" fill="#333"/>
        <path d="M266.4 384.7H265v9.2h1.4z" fill="#ccc"/>
        <path d="M269.3 384.7h-2.9v9.2h2.9z" fill="#999"/>
        <path d="M285.6 384.7h-3.2v9.2h3.2z" fill="#333"/>
        <path d="M287.1 384.7h-1.5v9.2h1.5z"/>
        <path d="M284.2 384.7h-16.1v9.2h16.1z" fill="#666"/>
        <path d="M266.4 384.7H265v1h1.4z" fill="#999"/>
        <path d="M269.3 384.7h-2.9v1h2.9z" fill="#666"/>
        <path d="M285.6 384.7h-3.2v1h3.2zM287.1 384.7h-1.5v1h1.5z"/>
        <path d="M284.2 384.7h-16.1v1h16.1z" fill="#333"/>
        <path d="M264.8 394.3H287" fill="none" stroke="#000"/>
        <path d="M283 392.2c0-3.9-3.1-7-7-7-3.8 0-6.9 3.1-6.9 7 0 3.8 3.1 6.9 6.9 6.9 3.9 0 7-3.1 7-6.9z" fill="#666"/>
        <path d="M279.6 398.1c1-1.2 1.7-2.8 1.7-4.4 0-3.9-3.2-7-7-7-1.3 0-2.6.4-3.6 1 1.3-1.5 3.2-2.5 5.3-2.5 3.9 0 7 3.1 7 7 0 2.5-1.3 4.7-3.4 5.9z" fill="#ccc"/>
        <path d="M280.8 392c0-2.5-2.1-4.6-4.6-4.6-2.6 0-4.6 2.1-4.6 4.6 0 2.6 2 4.7 4.6 4.7 2.5 0 4.6-2.1 4.6-4.7z" fill="#999"/>
        <path d="M279.5 392.1c0-1.9-1.5-3.4-3.4-3.4s-3.4 1.5-3.4 3.4 1.5 3.4 3.4 3.4 3.4-1.5 3.4-3.4z" fill="#369"/>
        <path d="M277.7 395.1c.5-.6.7-1.3.7-2.1 0-1.9-1.5-3.4-3.4-3.4-.6 0-1.1.2-1.6.4.6-.8 1.6-1.3 2.7-1.3 1.9 0 3.4 1.5 3.4 3.4 0 1.3-.7 2.4-1.8 3z" fill="#039"/>
        <path d="M278.3 390.8c0-.4-.4-.7-.8-.7s-.7.3-.7.7c0 .4.3.8.7.8.4 0 .8-.4.8-.8z" fill="#09f"/>
        <path d="M275.9 393.8s-1.5-.2-1.6-1.5" fill="none" stroke="#9cf" stroke-width="1.5" stroke-linecap="round"/>
        <path d="M275.6 393.4c0-.4-.4-.7-.7-.7-.4 0-.8.3-.8.7 0 .4.4.7.8.7.3 0 .7-.3.7-.7z" fill="#fff"/>
        <path d="M282.2 399.3v1.7l-4.1 4.1h-4.2l-4.1-4.1v-1.7" fill="#ccc"/>
        <path d="M273.7 404.4l.7-.6-2.7-3-.2-1.5h-1.7l.1 1.5 3.8 3.6" fill="#fff"/>
        <path d="M278.3 404.4l-.7-.6 2.2-3.1h2.4l-3.9 3.7" fill="#999"/>
        <path d="M278.3 404.4l-.3-.3 2.8-3.4v-1.4h1.4v1.4l-3.9 3.7" fill="#666"/>
        <path d="M280.9 399.5h-9.4v1.3h9.4z" fill="#999"/>
        <path d="M271.5 401.1h6.8" fill="none" stroke="#fff" stroke-linecap="round"/>
        <path d="M282.3 399.7h5.2v-15.3h-22.9v15.3h5.1" fill="none" stroke="#000"/>
        <path d="M283.1 392.1c0-3.9-3.1-7-7-7-3.8 0-6.9 3.1-6.9 7 0 3.8 3.1 6.9 6.9 6.9 3.9 0 7-3.1 7-6.9z" fill="none" stroke="#333"/>
        <path d="M282.4 392.1c0-3.5-2.8-6.3-6.3-6.3s-6.3 2.8-6.3 6.3 2.8 6.3 6.3 6.3 6.3-2.8 6.3-6.3z" fill="none" stroke="#000" stroke-width="1.2"/>
        <path d="M282.2 399.1v1.9l-4.1 4.1h-4.2l-4.1-4.1v-1.9z" fill="none" stroke="#000"/>
    </g>
</svg>
