<svg xmlns="http://www.w3.org/2000/svg" height="24" width="24">
	<g transform="matrix(1,0,0,-1,-264,408)" id="KDDI_D_095">
        <path d="M276 393.7c3 0 4.5-2.6 4.5-2.6s1.6 2.4 3.8 2.4c2.1 0 3.2-2.4 3.2-2.4s.1.7-.2 2.2c-.2 1.8-1.4 4.4-2.9 6-1.4 1.6-3.7 2.5-5.3 2.8-1.6.2-4.8.2-6.2 0-1.4-.3-3.5-.8-5.3-2.8-1.5-1.6-2.7-4.2-2.9-6-.2-1.5-.2-2.2-.2-2.2s1.1 2.4 3.3 2.4c2.1 0 3.7-2.4 3.7-2.4s1.5 2.6 4.5 2.6z" fill="#3c6"/>
        <path d="M276 402.1s-2-.6-3.2-1.8c-1.5-1.5-1.7-3.9-1.7-4.8v-3.6s-2.3 2-3.6 1.7c.4 1.4.7 2.9 1.4 4.1.7 1.2 1.7 2.4 2.5 2.9 1.1.7 4.6 1.5 4.6 1.5z" fill="#fff"/>
        <path d="M276 402.1s2-.6 3.3-1.8c1.4-1.5 1.6-3.9 1.6-4.8v-3.6s2.4 2 3.6 1.7c1.3-.3 2.6-1.4 2.6-1.4s-.2 3.5-1.5 5.4c-1.3 1.8-3.9 3.6-5.3 3.9-1.3.3-4.3.6-4.3.6z" fill="#396"/>
        <path d="M271.4 400.6c1.1.7 4.6 1.5 4.6 1.5s-3-.3-4.3-.6c-1.4-.3-4-2.1-5.3-3.9-1.3-1.9-1.5-5.4-1.5-5.4s1.4 1.1 2.6 1.4c.4 1.4.7 2.9 1.4 4.1.7 1.2 1.7 2.4 2.5 2.9z" fill="#9fc"/>
        <path d="M276 402.1s2-.6 3.3-1.8c1.4-1.5 1.6-3.9 1.6-4.8v-3.6l-4.9 2z" fill="#6c9"/>
        <path d="M276 402.1s2-.6 3.3-1.8c1.4-1.5 1.6-3.9 1.6-4.8v-3.6s2.4 2 3.6 1.7c-.4 1.4-.7 2.9-1.4 4.1-.7 1.2-1.7 2.4-2.5 2.9-1.1.7-4.6 1.5-4.6 1.5z" fill="#066"/>
        <path d="M264.7 408v-3.5M264.7 402.4v-3.1M269.1 408v-2M269.1 404.5v-2M273.7 408v-5.6M287.3 408v-3.5M287.3 402.4v-3.1M282.9 408v-2M282.9 404.5v-2M278.3 408v-5.6" fill="none" stroke="#09f" stroke-width="1.5"/>
        <path d="M276 393.7c3 0 4.5-2.6 4.5-2.6s1.6 2.4 3.8 2.4c2.1 0 3.1-2.4 3.1-2.4s.2.7-.1 2.2c-.2 1.8-1.3 4.4-2.8 6-1.4 1.6-3.8 2.5-5.4 2.8-1.6.2-4.8.2-6.2 0-1.4-.3-3.6-.8-5.4-2.8-1.5-1.6-2.6-4.2-2.8-6-.2-1.5-.1-2.2-.1-2.2s1 2.4 3.2 2.4c2.1 0 3.7-2.4 3.7-2.4s1.5 2.6 4.5 2.6zM276 402.3v2.6" fill="none" stroke="#000" stroke-linecap="round" stroke-linejoin="round"/>
        <path d="M276 393.7v-6.3c0-1.3-.2-3-2.4-2.9-2.6 0-2.4 3-2.4 3" fill="none" stroke="#000" stroke-linecap="round" stroke-linejoin="round"/>
    </g>
</svg>
