<svg xmlns="http://www.w3.org/2000/svg" height="24" width="24">
	<g transform="matrix(1,0,0,-1,-264,408)" id="KDDI_D_096">
        <path d="M264.6 387.1l-.1 6.2c0 2.4 1.3 6.9 4.3 10 3.1 3 6.9 4.2 9.9 4.2h5.5c1.9-.1 3.3-2.7 3.3-2.7l.1-6c0-2.5-1.3-7-4.4-10-3.1-3.1-6.9-4.3-9.9-4.3h-6.2c-1.5 0-2.5 2.6-2.5 2.6z" fill="#c60"/>
        <path d="M266.8 385.1c1.7.4 4.1 1.1 6.1 1.7 5.7 1.6 10.7 6.8 12.2 12.1.6 2.2 1.3 4.8 1.8 6.5.1.3.7-1.2.7-1.2v-5.4c0-2.5-1.3-7-4.4-10-3.1-3.1-6.9-4.3-9.9-4.3h-5.6c-.2 0-1.1.5-.9.6z" fill="#960"/>
        <path d="M268.9 384.7c1.8.1 3.7.4 5.3.8 5.6 1.7 10.6 6.8 12.1 12.2.6 1.9.9 4.5 1.1 6.5.1 1.9.2-1 .2-1v-4.4c0-2.5-1.3-7-4.4-10-3.1-3.1-6.9-4.3-9.9-4.3h-3.7c-2.6 0-3.1 0-.7.2z" fill="#930"/>
        <path d="M285.1 406.9c-1.7-.4-4-1.1-6-1.7-5.7-1.6-10.7-6.8-12.2-12.1-.6-2.1-1.3-4.6-1.8-6.3-.1-.2-.7 1.5-.7 1.5v5c0 2.4 1.4 6.9 4.4 10 3.1 3 6.9 4.2 9.9 4.2h4.8c.2 0 1.8-.6 1.6-.6z" fill="#c90"/>
        <path d="M283.8 407.4c-1.9-.1-4.2-.4-6-.9-5.6-1.7-10.6-6.8-12.1-12.2-.6-1.8-.9-4.3-1-6.2-.2-2-.3.1-.3.1v5.1c0 2.4 1.4 6.9 4.4 10 3.1 3 6.9 4.2 9.9 4.2h4.1c2.4 0 3 0 1-.1z" fill="#fc0"/>
        <path d="M274 384.6l-1.7.2-7.6 7.7.1 1.5.2 1.7 10.7-10.8z" fill="#cc6"/>
        <path d="M272.3 384.8l1.7-.2 1.7.3-2 2.1c-.3-.1-.5-.2-.8-.2-.6-.2-1.3-.4-2-.6z" fill="#993"/>
        <path d="M278 407.4l1.7-.2 7.6-7.7V398l-.3-1.7-10.7 10.8z" fill="#cc6"/>
        <path d="M287 396.3l.3 1.7v1.5l-1.6 1.6c-.2-.7-.4-1.5-.6-2.2-.1-.2-.1-.3-.2-.5z" fill="#993"/>
        <path d="M265 395.7l-.2-1.7-.1-1.5 1.6-1.6c.2.7.4 1.5.6 2.2.1.2.1.3.2.5zM279.7 407.2l-1.7.2-1.7-.3 2-2.1c.3.1.5.2.8.2.6.2 1.3.4 2 .6z" fill="#cf9"/>
        <path d="M279.8 399.8h-3.7l-3.8-3.8v-3.7h3.5l4 4z" fill="#cc6"/>
        <path d="M279.8 399.2v.6h-.6l-6.9-6.9v-.6h.5z" fill="#fff"/>
        <path d="M264.7 395.3l10.6-10.6M276.7 407.3l10.6-10.6" fill="none" stroke="#fff"/>
        <path d="M264.5 388.6c-.1 1.8 0 3.6.1 4.7.1 2.7 1.2 6.9 4.2 10 3.1 3 6.8 4 9.9 4.1 1.4.1 2.6.1 4.8.1 2.3-.1 4-.8 4.1-4 0-2.3.1-3-.1-4.7-.1-2-1.2-7-4.3-10-3.1-3.1-6.9-4.2-9.9-4.3-1.5 0-3.4-.1-4.8 0-2.5.1-3.8 1.2-4 4.1z" fill="none" stroke="#000" stroke-linejoin="round"/>
    </g>
</svg>
