<svg xmlns="http://www.w3.org/2000/svg" height="24" width="24">
	<g transform="matrix(1,0,0,-1,-264,408)" id="KDDI_D_098">
        <path d="M287.5 396c0-6.4-5.1-11.5-11.5-11.5s-11.5 5.1-11.5 11.5 5.1 11.5 11.5 11.5 11.5-5.1 11.5-11.5z" fill="#fff"/>
        <path d="M278.1 407.3c4.6-1.5 7.9-5.8 7.9-10.9 0-6.4-5.1-11.5-11.5-11.5-.7 0-1.4 0-2.1.2 1.2-.4 2.4-.6 3.6-.6 6.4 0 11.5 5.1 11.5 11.5 0 5.6-4.1 10.3-9.4 11.3z" fill="#cc9"/>
        <path d="M287.5 396c0-6.4-5.1-11.5-11.5-11.5s-11.5 5.1-11.5 11.5 5.1 11.5 11.5 11.5 11.5-5.1 11.5-11.5z" fill="none" stroke="#000"/>
        <path d="M267.7 394.6c.6-4 4.1-7.1 8.3-7.1 4.2 0 7.7 3.1 8.3 7.1zM284.3 397.4c-.6 4-4.1 7.1-8.3 7.1-4.2 0-7.7-3.1-8.3-7.1z" fill="#c00"/>
    </g>
</svg>
