<svg xmlns="http://www.w3.org/2000/svg" height="24" width="24">
	<g transform="matrix(1,0,0,-1,-264,408)" id="KDDI_D_099">
        <path d="M265.9 384h-1.4v10.4h1.4z"/>
        <path d="M285.5 407.5h-21v-13h21c1.1 0 2 .9 2 2v9c0 1.1-.9 2-2 2z" fill="#ccc"/>
        <path d="M285.5 394.8l-1.3 1.4s.7 0 1.1.1c.5.2.6.6.6.6l1.1-.6s.2-.8-.2-1c-.5-.1-1.3-.5-1.3-.5z" fill="#333"/>
        <path d="M284.2 396.2h-19.7v-1.7h21c.4 0-.2 1.7-1.3 1.7z" fill="#666"/>
        <path d="M284.3 405.8h-19.8v1.7h21c1.1 0-.1-1.7-1.2-1.7z" fill="#fff"/>
        <path d="M286.9 406.6l-1-.9v-9l1.1-1 .2 1v8.8l-.3 1.1" fill="#999"/>
        <path d="M284.7 401.3c0-1.7-1.2-3.1-2.6-3.1-1.5 0-2.6 1.4-2.6 3.1 0 1.7 1.1 3.1 2.6 3.1 1.4 0 2.6-1.4 2.6-3.1z" fill="#c00"/>
        <path d="M282.6 403.6c.3 0 .6 0 .9-.1.3-.2.2.2-.2.5-.3.3-.8.4-1.2.4-1.5 0-2.6-1.4-2.6-3.1 0-.9.5-1.3.5-.7 0 1.7 1.1 3 2.6 3z" fill="#f66"/>
        <path d="M284.6 402.2c-.2.6-.6.5-.6-.1 0-1.7-1.1-3.1-2.6-3.1-.2 0-.5.1-.7.2-.3.1-.4-.2-.1-.4.4-.4.9-.6 1.5-.6 1.4 0 2.6 1.4 2.6 3.1 0 .3 0 .6-.1.9z" fill="#900"/>
        <path d="M283.6 400.7c.3-.3.3-.8-.1-1.2-.3-.3-.9-.4-1.2-.1-.3.3 0 .6.3 1 .4.4.7.6 1 .3z" fill="#600"/>
        <path d="M281.9 403.3c.3-.3 0-.6-.3-1-.4-.3-.7-.6-1-.3-.3.3-.3.8.1 1.2.3.3.9.4 1.2.1z" fill="#f9c"/>
        <path d="M278.1 401.3c0-1.7-1.2-3.1-2.6-3.1-1.4 0-2.6 1.4-2.6 3.1 0 1.7 1.2 3.1 2.6 3.1 1.4 0 2.6-1.4 2.6-3.1z" fill="#999"/>
        <path d="M276 403.6c.3 0 .6 0 .9-.1.3-.2.3.2-.2.5-.3.3-.8.4-1.2.4-1.4 0-2.6-1.4-2.6-3.1 0-.9.5-1.3.5-.7 0 1.7 1.2 3 2.6 3z" fill="#ccc"/>
        <path d="M278 402.2c-.2.6-.5.5-.5-.1 0-1.7-1.2-3.1-2.6-3.1-.3 0-.6.1-.8.2-.3.1-.4-.2-.1-.4.4-.4.9-.6 1.5-.6 1.4 0 2.6 1.4 2.6 3.1 0 .3 0 .6-.1.9z" fill="#666"/>
        <path d="M277 400.7c.3-.3.3-.8-.1-1.2-.3-.3-.9-.4-1.2-.1-.3.3 0 .6.3 1 .4.4.7.6 1 .3z" fill="#333"/>
        <path d="M275.3 403.3c.3-.3 0-.6-.3-1-.4-.3-.7-.6-1-.3-.3.3-.2.8.1 1.2.4.3.9.4 1.2.1z" fill="#fff"/>
        <path d="M271.5 401.3c0-1.7-1.1-3.1-2.6-3.1-1.4 0-2.6 1.4-2.6 3.1 0 1.7 1.2 3.1 2.6 3.1 1.5 0 2.6-1.4 2.6-3.1z" fill="#999"/>
        <path d="M269.4 403.6c.3 0 .6 0 .9-.1.3-.2.3.2-.1.5s-.8.4-1.3.4c-1.4 0-2.6-1.4-2.6-3.1 0-.9.5-1.3.5-.7 0 1.7 1.2 3 2.6 3z" fill="#ccc"/>
        <path d="M271.4 402.2c-.1.6-.5.5-.5-.1 0-1.7-1.2-3.1-2.6-3.1-.3 0-.6.1-.8.2-.3.1-.4-.2-.1-.4.4-.4 1-.6 1.5-.6 1.5 0 2.6 1.4 2.6 3.1 0 .3 0 .6-.1.9z" fill="#666"/>
        <path d="M270.4 400.7c.3-.3.3-.8-.1-1.2-.3-.3-.8-.4-1.2-.1-.3.3 0 .6.3 1 .4.4.7.6 1 .3z" fill="#333"/>
        <path d="M268.7 403.3c.3-.3 0-.6-.3-1-.4-.3-.6-.6-1-.3-.3.3-.2.8.1 1.2.4.3.9.4 1.2.1z" fill="#fff"/>
        <path d="M264.5 394.5h21c1.1 0 2 .9 2 2v9c0 1.1-.9 2-2 2h-21" fill="none" stroke="#000"/>
        <path d="M264.5 408v-24" fill="none" stroke="#666"/>
        <path d="M265.9 384h-1.4v10.4h1.4z"/>
        <path d="M285.5 407.5h-21v-13h21c1.1 0 2 .9 2 2v9c0 1.1-.9 2-2 2z" fill="#ccc"/>
        <path d="M285.5 394.8l-1.3 1.4s.7 0 1.1.1c.5.2.6.6.6.6l1.1-.6s.2-.8-.2-1c-.5-.1-1.3-.5-1.3-.5z" fill="#333"/>
        <path d="M284.2 396.2h-19.7v-1.7h21c.4 0-.2 1.7-1.3 1.7z" fill="#666"/>
        <path d="M284.3 405.8h-19.8v1.7h21c1.1 0-.1-1.7-1.2-1.7z" fill="#fff"/>
        <path d="M286.9 406.6l-1-.9v-9l1.1-1 .2 1v8.8l-.3 1.1M284.7 401.3c0-1.7-1.2-3.1-2.6-3.1-1.5 0-2.6 1.4-2.6 3.1 0 1.7 1.1 3.1 2.6 3.1 1.4 0 2.6-1.4 2.6-3.1z" fill="#999"/>
        <path d="M282.6 403.6c.3 0 .6 0 .9-.1.3-.2.2.2-.2.5-.3.3-.8.4-1.2.4-1.5 0-2.6-1.4-2.6-3.1 0-.9.5-1.3.5-.7 0 1.7 1.1 3 2.6 3z" fill="#ccc"/>
        <path d="M284.6 402.2c-.2.6-.6.5-.6-.1 0-1.7-1.1-3.1-2.6-3.1-.2 0-.5.1-.7.2-.3.1-.4-.2-.1-.4.4-.4.9-.6 1.5-.6 1.4 0 2.6 1.4 2.6 3.1 0 .3 0 .6-.1.9z" fill="#666"/>
        <path d="M283.6 400.7c.3-.3.3-.8-.1-1.2-.3-.3-.9-.4-1.2-.1-.3.3 0 .6.3 1 .4.4.7.6 1 .3z" fill="#333"/>
        <path d="M281.9 403.3c.3-.3 0-.6-.3-1-.4-.3-.7-.6-1-.3-.3.3-.3.8.1 1.2.3.3.9.4 1.2.1z" fill="#fff"/>
        <path d="M278.1 401.3c0-1.7-1.2-3.1-2.6-3.1-1.4 0-2.6 1.4-2.6 3.1 0 1.7 1.2 3.1 2.6 3.1 1.4 0 2.6-1.4 2.6-3.1z" fill="#fc0"/>
        <path d="M276 403.6c.3 0 .6 0 .9-.1.3-.2.3.2-.2.5-.3.3-.8.4-1.2.4-1.4 0-2.6-1.4-2.6-3.1 0-.9.5-1.3.5-.7 0 1.7 1.2 3 2.6 3z" fill="#ff0"/>
        <path d="M278 402.2c-.2.6-.5.5-.5-.1 0-1.7-1.2-3.1-2.6-3.1-.3 0-.6.1-.8.2-.3.1-.4-.2-.1-.4.4-.4.9-.6 1.5-.6 1.4 0 2.6 1.4 2.6 3.1 0 .3 0 .6-.1.9z" fill="#f90"/>
        <path d="M277 400.7c.3-.3.3-.8-.1-1.2-.3-.3-.9-.4-1.2-.1-.3.3 0 .6.3 1 .4.4.7.6 1 .3z" fill="#c60"/>
        <path d="M275.3 403.3c.3-.3 0-.6-.3-1-.4-.3-.7-.6-1-.3-.3.3-.2.8.1 1.2.4.3.9.4 1.2.1z" fill="#ffc"/>
        <path d="M271.5 401.3c0-1.7-1.1-3.1-2.6-3.1-1.4 0-2.6 1.4-2.6 3.1 0 1.7 1.2 3.1 2.6 3.1 1.5 0 2.6-1.4 2.6-3.1z" fill="#999"/>
        <path d="M269.4 403.6c.3 0 .6 0 .9-.1.3-.2.3.2-.1.5s-.8.4-1.3.4c-1.4 0-2.6-1.4-2.6-3.1 0-.9.5-1.3.5-.7 0 1.7 1.2 3 2.6 3z" fill="#ccc"/>
        <path d="M271.4 402.2c-.1.6-.5.5-.5-.1 0-1.7-1.2-3.1-2.6-3.1-.3 0-.6.1-.8.2-.3.1-.4-.2-.1-.4.4-.4 1-.6 1.5-.6 1.5 0 2.6 1.4 2.6 3.1 0 .3 0 .6-.1.9z" fill="#666"/>
        <path d="M270.4 400.7c.3-.3.3-.8-.1-1.2-.3-.3-.8-.4-1.2-.1-.3.3 0 .6.3 1 .4.4.7.6 1 .3z" fill="#333"/>
        <path d="M268.7 403.3c.3-.3 0-.6-.3-1-.4-.3-.6-.6-1-.3-.3.3-.2.8.1 1.2.4.3.9.4 1.2.1z" fill="#fff"/>
        <path d="M264.5 394.5h21c1.1 0 2 .9 2 2v9c0 1.1-.9 2-2 2h-21" fill="none" stroke="#000"/>
        <path d="M264.5 408v-24" fill="none" stroke="#666"/>
        <path d="M265.9 384h-1.4v10.4h1.4z"/>
        <path d="M285.5 407.5h-21v-13h21c1.1 0 2 .9 2 2v9c0 1.1-.9 2-2 2z" fill="#ccc"/>
        <path d="M285.5 394.8l-1.3 1.4s.7 0 1.1.1c.5.2.6.6.6.6l1.1-.6s.2-.8-.2-1c-.5-.1-1.3-.5-1.3-.5z" fill="#333"/>
        <path d="M284.2 396.2h-19.7v-1.7h21c.4 0-.2 1.7-1.3 1.7z" fill="#666"/>
        <path d="M284.3 405.8h-19.8v1.7h21c1.1 0-.1-1.7-1.2-1.7z" fill="#fff"/>
        <path d="M286.9 406.6l-1-.9v-9l1.1-1 .2 1v8.8l-.3 1.1M284.7 401.3c0-1.7-1.2-3.1-2.6-3.1-1.5 0-2.6 1.4-2.6 3.1 0 1.7 1.1 3.1 2.6 3.1 1.4 0 2.6-1.4 2.6-3.1z" fill="#999"/>
        <path d="M282.6 403.6c.3 0 .6 0 .9-.1.3-.2.2.2-.2.5-.3.3-.8.4-1.2.4-1.5 0-2.6-1.4-2.6-3.1 0-.9.5-1.3.5-.7 0 1.7 1.1 3 2.6 3z" fill="#ccc"/>
        <path d="M284.6 402.2c-.2.6-.6.5-.6-.1 0-1.7-1.1-3.1-2.6-3.1-.2 0-.5.1-.7.2-.3.1-.4-.2-.1-.4.4-.4.9-.6 1.5-.6 1.4 0 2.6 1.4 2.6 3.1 0 .3 0 .6-.1.9z" fill="#666"/>
        <path d="M283.6 400.7c.3-.3.3-.8-.1-1.2-.3-.3-.9-.4-1.2-.1-.3.3 0 .6.3 1 .4.4.7.6 1 .3z" fill="#333"/>
        <path d="M281.9 403.3c.3-.3 0-.6-.3-1-.4-.3-.7-.6-1-.3-.3.3-.3.8.1 1.2.3.3.9.4 1.2.1z" fill="#fff"/>
        <path d="M278.1 401.3c0-1.7-1.2-3.1-2.6-3.1-1.4 0-2.6 1.4-2.6 3.1 0 1.7 1.2 3.1 2.6 3.1 1.4 0 2.6-1.4 2.6-3.1z" fill="#999"/>
        <path d="M276 403.6c.3 0 .6 0 .9-.1.3-.2.3.2-.2.5-.3.3-.8.4-1.2.4-1.4 0-2.6-1.4-2.6-3.1 0-.9.5-1.3.5-.7 0 1.7 1.2 3 2.6 3z" fill="#ccc"/>
        <path d="M278 402.2c-.2.6-.5.5-.5-.1 0-1.7-1.2-3.1-2.6-3.1-.3 0-.6.1-.8.2-.3.1-.4-.2-.1-.4.4-.4.9-.6 1.5-.6 1.4 0 2.6 1.4 2.6 3.1 0 .3 0 .6-.1.9z" fill="#666"/>
        <path d="M277 400.7c.3-.3.3-.8-.1-1.2-.3-.3-.9-.4-1.2-.1-.3.3 0 .6.3 1 .4.4.7.6 1 .3z" fill="#333"/>
        <path d="M275.3 403.3c.3-.3 0-.6-.3-1-.4-.3-.7-.6-1-.3-.3.3-.2.8.1 1.2.4.3.9.4 1.2.1z" fill="#fff"/>
        <path d="M271.5 401.3c0-1.7-1.1-3.1-2.6-3.1-1.4 0-2.6 1.4-2.6 3.1 0 1.7 1.2 3.1 2.6 3.1 1.5 0 2.6-1.4 2.6-3.1z" fill="#03f"/>
        <path d="M269.4 403.6c.3 0 .6 0 .9-.1.3-.2.3.2-.1.5s-.8.4-1.3.4c-1.4 0-2.6-1.4-2.6-3.1 0-.9.5-1.3.5-.7 0 1.7 1.2 3 2.6 3z" fill="#39f"/>
        <path d="M271.4 402.2c-.1.6-.5.5-.5-.1 0-1.7-1.2-3.1-2.6-3.1-.3 0-.6.1-.8.2-.3.1-.4-.2-.1-.4.4-.4 1-.6 1.5-.6 1.5 0 2.6 1.4 2.6 3.1 0 .3 0 .6-.1.9z" fill="#30f"/>
        <path d="M270.4 400.7c.3-.3.3-.8-.1-1.2-.3-.3-.8-.4-1.2-.1-.3.3 0 .6.3 1 .4.4.7.6 1 .3z" fill="#009"/>
        <path d="M268.7 403.3c.3-.3 0-.6-.3-1-.4-.3-.6-.6-1-.3-.3.3-.2.8.1 1.2.4.3.9.4 1.2.1z" fill="#9ff"/>
        <path d="M264.5 394.5h21c1.1 0 2 .9 2 2v9c0 1.1-.9 2-2 2h-21" fill="none" stroke="#000"/>
        <path d="M264.5 408v-24" fill="none" stroke="#666"/>
    </g>
</svg>
