<svg xmlns="http://www.w3.org/2000/svg" width="24" height="24">
	<g transform="translate(-264,-386)" id="KDDI_D_100">
		<g>
			<path style="stroke:none; fill:none" d="M 288 409.89L 264 409.89L 264 385.89L 288 385.89L 288 409.89z"/>
		</g>
		<g>
			<path style="stroke:none; fill:#03f" d="M 264.578 391.376L 273.578 400.376L 287 400.376L 278 391.376L 264.578 391.376z"/>
			<path style="stroke:none; fill:#99f" d="M 265 391.39L 274 400.39L 275.5 400.39L 266.5 391.39L 265 391.39z"/>
			<path style="stroke:none; fill:#ff9" d="M 273.5 400.39L 265 391.89L 265 397.89L 273.5 406.39L 274.5 406.39L 274.5 400.39L 273.5 400.39z"/>
			<path style="stroke:none; fill:#996" d="M 265 394.39L 265 396.39L 273.5 404.876L 273.5 403.876L 266 396.39L 266 394.89L 265 394.39z"/>
			<path style="stroke:none; fill:#cc9" d="M 265 395.39L 265 397.39L 273.5 405.876L 273.5 404.876L 266 397.39L 266 395.89L 265 395.39z"/>
			<path style="stroke:none; fill:#996" d="M 265 392.39L 265 394.39L 273.5 402.876L 273.5 401.876L 266 394.39L 266 392.376L 265 392.39z"/>
			<path style="stroke:none; fill:#cc9" d="M 287.5 400.376L 273.5 400.376L 273.5 406.39L 287.5 406.39L 287.5 400.376z"/>
			<path style="stroke:none; fill:#996" d="M 273.5 403.876L 273.5 404.876L 287.5 404.876L 287.5 403.876L 273.5 403.876z"/>
			<path style="stroke:none; fill:#996" d="M 273.5 401.876L 273.5 402.876L 287.5 402.876L 287.5 401.876L 273.5 401.876z"/>
			<path style="stroke:#009; stroke-width:1; stroke-linejoin:round; fill:none" d="M 267 391.376L 278 391.376L 287.266 400.657"/>
			<path style="stroke:none; fill:#996" d="M 264.998 392.39L 264.998 397.39L 265.998 398.89L 265.998 392.39L 264.998 392.39z"/>
			<path style="stroke:#009; stroke-width:1; stroke-linejoin:round; fill:none" d="M 265 397.403L 264.5 397.403L 273.5 406.39L 286.5 406.39C 287.05 406.39 287.5 405.94 287.5 405.39L 287.5 401.376C 287.5 400.826 287.05 400.376 286.5 400.376L 273.5 400.39L 264.516 391.39L 268 391.389"/>
			<path style="stroke:none; fill:#ff9" d="M 272 393.39C 272.276 393.666 272.276 393.89 272 393.89C 271.724 393.89 271.276 393.666 271 393.39C 270.724 393.113 270.724 392.89 271 392.89C 271.276 392.89 271.724 393.113 272 393.39z"/>
			<path style="stroke:none; fill:#ff9" d="M 274.5 393.39C 274.776 393.666 274.776 393.89 274.5 393.89C 274.224 393.89 273.776 393.666 273.5 393.39C 273.224 393.113 273.224 392.89 273.5 392.89C 273.776 392.89 274.224 393.113 274.5 393.39z"/>
			<path style="stroke:none; fill:#ff9" d="M 277 393.39C 277.276 393.666 277.276 393.89 277 393.89C 276.724 393.89 276.276 393.666 276 393.39C 275.724 393.113 275.724 392.89 276 392.89C 276.276 392.89 276.724 393.113 277 393.39z"/>
		</g>
	</g>
</svg>
