<svg xmlns="http://www.w3.org/2000/svg" width="24" height="24">
	<g transform="translate(-264,-386)" id="KDDI_D_102">
		<g>
			<path style="stroke:none; fill:none" d="M 288 409.89L 264 409.89L 264 385.89L 288 385.89L 288 409.89z"/>
		</g>
		<g>
			<path style="stroke:none; fill:#060" d="M 283.5 405.39L 269.5 405.39L 269.5 386.39L 283.5 386.39L 283.5 405.39z"/>
			<path style="stroke:none; fill:#cc9" d="M 269 409.091L 283.5 409.091L 283.5 405.39L 269 405.39L 269 409.091z"/>
			<path style="stroke:none; fill:#696" d="M 269 386.39L 269 405.39L 270 405.39L 270 386.39L 269 386.39z"/>
			<path style="stroke:none; fill:#ff9" d="M 281 391.89L 272.5 391.89L 272.5 388.89L 281 388.89L 281 391.89z"/>
			<path style="stroke:none; fill:#cc9" d="M 272.5 389.89L 272.5 390.89L 281 390.89L 281 389.89L 272.5 389.89z"/>
			<path style="stroke:none; fill:#ff9" d="M 269 405.876L 269 408.89L 270 408.89L 270 405.876L 269 405.876z"/>
			<path style="stroke:none; fill:#996" d="M 283 405.091L 283 406.89L 268.5 406.89L 268.5 407.89L 283 407.89L 283 409.591L 284 409.591L 284 405.091L 283 405.091z"/>
			<path style="stroke:none; fill:#000" d="M 269.5 404.89C 268.673 404.89 268 405.563 268 406.39L 268 408.39C 268 409.217 268.673 409.89 269.5 409.89L 284 409.89L 284 408.89L 269.5 408.89C 269.224 408.89 269 408.666 269 408.39L 269 406.39C 269 406.114 269.224 405.89 269.5 405.89L 284 405.89L 283 404.89L 269.5 404.89z"/>
			<path style="stroke:none; fill:#000" d="M 268 387.689L 268 407.376L 269 407.376L 269 387.689C 269 387.114 269.224 386.89 269.5 386.89L 269.5 385.89C 268.673 385.89 268 386.563 268 387.689z"/>
			<path style="stroke:none; fill:#030" d="M 283.5 385.89L 269.5 385.89C 269.086 385.89 268.711 386.058 268.44 386.33L 269.147 387.036C 269.237 386.946 269.362 386.89 269.5 386.89C 269.5 386.89 282.07 386.89 283 386.89C 283 387.836 283 404.89 283 404.89L 284 405.89L 284 385.89L 283.5 385.89z"/>
			<path style="stroke:none; fill:#996" d="M 274 390.39C 274 390.666 273.888 390.89 273.75 390.89C 273.612 390.89 273.5 390.666 273.5 390.39C 273.5 390.113 273.612 389.89 273.75 389.89C 273.888 389.89 274 390.113 274 390.39z"/>
			<path style="stroke:none; fill:#996" d="M 276 390.39C 276 390.666 275.888 390.89 275.75 390.89C 275.612 390.89 275.5 390.666 275.5 390.39C 275.5 390.113 275.612 389.89 275.75 389.89C 275.888 389.89 276 390.113 276 390.39z"/>
			<path style="stroke:none; fill:#996" d="M 278 390.39C 278 390.666 277.888 390.89 277.75 390.89C 277.612 390.89 277.5 390.666 277.5 390.39C 277.5 390.113 277.612 389.89 277.75 389.89C 277.888 389.89 278 390.113 278 390.39z"/>
			<path style="stroke:none; fill:#996" d="M 280 390.39C 280 390.666 279.888 390.89 279.75 390.89C 279.612 390.89 279.5 390.666 279.5 390.39C 279.5 390.113 279.612 389.89 279.75 389.89C 279.888 389.89 280 390.113 280 390.39z"/>
		</g>
	</g>
</svg>
