<svg xmlns="http://www.w3.org/2000/svg" width="24" height="24">
	<g transform="translate(-264,-386)" id="KDDI_D_103">
		<g>
			<path style="stroke:none; fill:none" d="M 288 409.89L 264 409.89L 264 385.89L 288 385.89L 288 409.89z"/>
		</g>
		<g>
			<path style="stroke:none; fill:#fff" d="M 268.5 391.39L 273.5 386.39L 273.5 391.39L 268.5 391.39z"/>
			<path style="stroke:#336; stroke-width:1; fill:none" d="M 276 386.39L 273.25 386.39L 268.5 391.126L 268.5 393.751"/>
			<path style="stroke:none; fill:#cff" d="M 268.5 391.39L 268.5 409.39L 283.5 409.39L 283.5 386.39L 273.5 386.39L 273.5 391.39L 268.5 391.39z"/>
			<path style="stroke:#699; stroke-width:1; fill:none" d="M 268.5 392.39L 272.75 392.39"/>
			<path style="stroke:#900; stroke-width:1; fill:none" d="M 275.5 389.848L 282 389.848"/>
			<path style="stroke:#900; stroke-width:1; fill:none" d="M 275.5 392.397L 282 392.397"/>
			<path style="stroke:#900; stroke-width:1; fill:none" d="M 270 395.414L 282 395.414"/>
			<path style="stroke:#900; stroke-width:1; fill:none" d="M 270.008 404.397L 281.906 404.397"/>
			<path style="stroke:#900; stroke-width:1; fill:none" d="M 270 401.403L 282 401.403"/>
			<path style="stroke:#900; stroke-width:1; fill:none" d="M 270 398.434L 282 398.434"/>
			<path style="stroke:#000; stroke-width:1; fill:none" d="M 268.5 391.39L 268.5 409.39L 283.5 409.39L 283.5 386.39L 273.5 386.39L 273.5 391.39L 268.5 391.39z"/>
			<path style="stroke:#336; stroke-width:1; fill:none" d="M 283 386.39L 273.5 386.39L 273.5 391.39L 268.5 391.39L 268.5 408.89"/>
			<path style="stroke:#c99; stroke-dasharray:0.75,2; stroke-width:1; fill:none" d="M 275.5 389.876L 276 389.876"/>
			<path style="stroke:#c99; stroke-dasharray:0.75,2; stroke-width:1; fill:none" d="M 281.5 389.876L 282 389.876"/>
			<path style="stroke:#c99; stroke-dasharray:0.75,2; stroke-width:1; fill:none" d="M 279.5 389.876L 280 389.876"/>
			<path style="stroke:#c99; stroke-dasharray:0.75,2; stroke-width:1; fill:none" d="M 275.5 392.39L 276 392.39"/>
			<path style="stroke:#c99; stroke-dasharray:0.75,2; stroke-width:1; fill:none" d="M 277.5 392.39L 278 392.39"/>
			<path style="stroke:#c99; stroke-dasharray:0.75,2; stroke-width:1; fill:none" d="M 270 395.39L 270.5 395.39"/>
			<path style="stroke:#c99; stroke-dasharray:0.75,2; stroke-width:1; fill:none" d="M 270 398.39L 270.5 398.39"/>
			<path style="stroke:#c99; stroke-dasharray:0.75,2; stroke-width:1; fill:none" d="M 272.5 398.39L 273 398.39"/>
			<path style="stroke:#c99; stroke-dasharray:0.75,2; stroke-width:1; fill:none" d="M 275.5 398.39L 276 398.39"/>
			<path style="stroke:#c99; stroke-dasharray:0.75,2; stroke-width:1; fill:none" d="M 278.5 398.39L 279 398.39"/>
			<path style="stroke:#c99; stroke-dasharray:0.75,2; stroke-width:1; fill:none" d="M 270 401.39L 270.5 401.39"/>
			<path style="stroke:#c99; stroke-dasharray:0.75,2; stroke-width:1; fill:none" d="M 274 401.39L 274.5 401.39"/>
			<path style="stroke:#c99; stroke-dasharray:0.75,2; stroke-width:1; fill:none" d="M 277 401.39L 277.5 401.39"/>
			<path style="stroke:#c99; stroke-dasharray:0.75,2; stroke-width:1; fill:none" d="M 270 404.39L 270.5 404.39"/>
			<path style="stroke:#c99; stroke-dasharray:0.75,2; stroke-width:1; fill:none" d="M 274.5 404.39L 275 404.39"/>
			<path style="stroke:#c99; stroke-dasharray:0.75,2; stroke-width:1; fill:none" d="M 278 404.39L 278.5 404.39"/>
			<path style="stroke:#c99; stroke-dasharray:0.75,2; stroke-width:1; fill:none" d="M 281.5 395.39L 282 395.39"/>
			<path style="stroke:#c99; stroke-dasharray:0.75,2; stroke-width:1; fill:none" d="M 277.5 395.39L 278 395.39"/>
			<path style="stroke:#c99; stroke-dasharray:0.75,2; stroke-width:1; fill:none" d="M 273.5 395.39L 274 395.39"/>
			<path style="stroke:#c99; stroke-dasharray:0.75,2; stroke-width:1; fill:none" d="M 281.5 398.39L 282 398.39"/>
			<path style="stroke:#c99; stroke-dasharray:0.75,2; stroke-width:1; fill:none" d="M 281.5 401.39L 282 401.39"/>
			<path style="stroke:#c99; stroke-dasharray:0.75,2; stroke-width:1; fill:none" d="M 281.5 404.39L 282 404.39"/>
			<path style="stroke:#c99; stroke-dasharray:0.75,2; stroke-width:1; fill:none" d="M 281.5 392.39L 282 392.39"/>
		</g>
	</g>
</svg>
