<svg xmlns="http://www.w3.org/2000/svg" height="24" width="24">
	<g transform="matrix(1,0,0,-1,-264,408)" id="KDDI_D_104">
        <path d="M283.1 407.8s1.5-4.3-1.4-9.2c-1.4-2.4-7.8-6.6-7.8-6.6l-.2.8z" fill="#00c"/>
        <path d="M283.3 406.8c-.1.7-.2 1-.2 1l-9.4-15 .5-.1z" fill="#69f"/>
        <path d="M267.4 385c1.4-1.2 4.2-1.3 5.7 0s1.4 3.2 1.4 4.6v3.9s-3-.1-6.2-1.7c-3.1-1.6-2.4-5.5-.9-6.8m2.1 5.7c1.7 1.4 3.7 1.4 3.7 1.4s.1-1.7.1-2.6c0-.8 0-1.9-.9-2.8-.9-.8-2.7-.7-3.5 0-.9.8-.9 2.7.6 4z" fill="#00c"/>
        <path d="M268.8 391.5c2.4 1.3 4.8 1.6 5.7 1.7v.3s-3-.1-6.2-1.7c-3.1-1.6-2.4-5.5-.9-6.8.2-.2.6-.4.9-.6-.1.1-.3.2-.4.4-1.5 1.2-2.2 5.1.9 6.7z" fill="#36f"/>
        <path d="M272.4 386.7c-.7-.6-1.9-.7-2.8-.4.9-.6 2.4-.6 3.3.2.9.8.9 1.9.9 2.8 0 .8-.1 3.1-.1 3.1s-.2-.2-.5-.3c0-.5.1-1.9.1-2.6 0-.8 0-1.9-.9-2.8z" fill="#36f"/>
        <path d="M268 391.6c-.5-.3-.9-.7-1.2-1.1l.4-.5c.3.5.6.9 1.1 1.2zM273.1 386.7c.2.3.4.5.5.8l-.5.3-.3-.6z" fill="#69f"/>
        <path d="M268.9 407.8s-1.5-4.3 1.4-9.2c1.4-2.4 7.8-6.6 7.8-6.6l.2.8z" fill="#00c"/>
        <path d="M271 398.8c-2.2 3.5-1.9 6.8-1.6 8.3l-.5.7s-1.5-4.3 1.4-9.2c1.4-2.4 7.8-6.6 7.8-6.6l.1.5c-1.5 1.1-6.1 4.3-7.2 6.3z" fill="#36f"/>
        <path d="M269.6 402c-.6 2.2-.4 4.1-.2 5.1l-.5.7s-.9-2.6.1-6.1z" fill="#69f"/>
        <path d="M283.7 391.8c-3.2 1.6-6.2 1.7-6.2 1.7v-3.9c0-1.4-.1-3.3 1.4-4.6 1.5-1.3 4.3-1.2 5.7 0 1.5 1.3 2.2 5.2-.9 6.8m-.6-5.1c-.8-.7-2.6-.8-3.5 0-.9.9-.9 2-.9 2.8 0 .9.1 2.6.1 2.6s2 0 3.7-1.4c1.5-1.3 1.5-3.2.6-4z" fill="#00c"/>
        <path d="M278 389.5c0 .7 0 1.7-.1 2.5s-.4 1.1-.4 1.1v-3.5c0-1.4-.1-3.3 1.4-4.6.6-.6 1.5-.9 2.4-.9-.7.1-1.3.4-1.8.8-1.5 1.4-1.5 3.2-1.5 4.6zM283.1 386.7c-.5-.4-1.2-.6-1.9-.5.9-.2 1.9-.1 2.5.5.9.7.9 2.6-.7 3.9-1.3 1.1-2.9 1.4-3.4 1.4.7-.1 1.9-.5 2.9-1.3 1.5-1.3 1.5-3.2.6-4z" fill="#36f"/>
        <path d="M284.2 387.7l-.5.3c0-.3-.1-.5-.2-.7l.3-.5c.2.3.4.6.4.9z" fill="#69f"/>
        <path d="M277.3 394.5c0-.6-.5-1.1-1.2-1.1-.6 0-1.2.5-1.2 1.1 0 .7.6 1.2 1.2 1.2.7 0 1.2-.5 1.2-1.2z" fill="#006"/>
        <path d="M276.7 394.5c0-.3-.2-.6-.6-.6-.3 0-.6.3-.6.6 0 .4.3.6.6.6.4 0 .6-.2.6-.6z" fill="#03f"/>
        <path d="M276 394.8c0-.1-.1-.3-.2-.3s-.2.2-.2.3c0 .1.1.2.2.2s.2-.1.2-.2z" fill="#69f"/>
    </g>
</svg>
