<svg xmlns="http://www.w3.org/2000/svg" height="24" width="24">
	<g transform="matrix(1,0,0,-1,-264,408)" id="KDDI_D_106">
        <path d="M283.3 404.3v-3.4c0-.5-.5-1-1-1h-1.6c-.6 0-1 .5-1 1v3.4h-15.1v-16.5h22.9v16.5z" fill="#ff9"/>
        <path d="M276.8 399.5h-1v-1.1h1z" fill="#336"/>
        <path d="M268.9 400.5h-1.1v-1h1.1zM268.9 398.4h-1.1v-1h1.1z" fill="#999"/>
        <path d="M269.9 397.4h-1v1h1zM267.8 397.4h-1v1h1z" fill="#cc9"/>
        <path d="M268.9 398.4h-1.1v1.1h1.1z" fill="#6cf"/>
        <path d="M267.8 399.5h-1v1h1zM269.9 399.5h-1v1h1z" fill="#cc9"/>
        <path d="M269.9 399.5h-1v-1.1h1z" fill="#666"/>
        <path d="M270.8 399.5h-1v-1.1h1z" fill="#cc9"/>
        <path d="M271.9 400.5h-1.1v-1h1.1z" fill="#336"/>
        <path d="M271.9 398.4h-1.1v-1h1.1z" fill="#999"/>
        <path d="M272.9 397.4h-1v1h1z" fill="#cc9"/>
        <path d="M270.8 397.4h-1v1h1z" fill="#ccc"/>
        <path d="M271.9 398.4h-1.1v1.1h1.1z" fill="#6cf"/>
        <path d="M270.8 399.5h-1v1h1z" fill="#ccc"/>
        <path d="M272.9 399.5h-1v1h1z" fill="#cc9"/>
        <path d="M271.9 398.4h-1.1v1.1h1.1zM272.9 399.5h-1v-1.1h1z" fill="#666"/>
        <path d="M273.8 399.5h-1v-1.1h1z" fill="#336"/>
        <path d="M274.9 398.4h-1.1v-1h1.1z" fill="#999"/>
        <path d="M273.8 397.4h-1v1h1z" fill="#666"/>
        <path d="M275.9 397.4h-1v1h1z" fill="#cc9"/>
        <path d="M274.9 398.4h-1.1v1.1h1.1z" fill="#6cf"/>
        <path d="M273.8 399.5h-1v1h1z" fill="#ccc"/>
        <path d="M275.9 399.5h-1v1h1zM274.9 398.4h-1.1v1.1h1.1z" fill="#cc9"/>
        <path d="M276.8 397.4h-1v1h1zM276.8 399.5h-1v1h1z" fill="#ccc"/>
        <path d="M278.1 394.5h-1v-1h1z" fill="#336"/>
        <path d="M278.1 392.4h-1v-1h1z" fill="#999"/>
        <path d="M277.1 391.4H276v1h1.1z" fill="#ccc"/>
        <path d="M278.1 392.4h-1v1.1h1z" fill="#6cf"/>
        <path d="M277.1 393.5H276v1h1.1z" fill="#999"/>
        <path d="M279.1 393.5h-1v1h1zM278.1 392.4h-1v1.1h1z" fill="#cc9"/>
        <path d="M279.1 393.5h-1v-1.1h1z" fill="#666"/>
        <path d="M280.1 393.5H279v-1.1h1.1zM281.1 394.5h-1v-1h1z" fill="#336"/>
        <path d="M281.1 392.4h-1v-1h1z" fill="#999"/>
        <path d="M282.1 391.4h-1v1h1z" fill="#336"/>
        <path d="M280.1 391.4H279v1h1.1z" fill="#ccc"/>
        <path d="M281.1 392.4h-1v1.1h1z" fill="#6cf"/>
        <path d="M280.1 393.5H279v1h1.1z" fill="#ccc"/>
        <path d="M282.1 393.5h-1v1h1z" fill="#cc9"/>
        <path d="M281.1 392.4h-1v1.1h1zM282.1 393.5h-1v-1.1h1z" fill="#666"/>
        <path d="M283.1 393.5H282v-1.1h1.1z" fill="#336"/>
        <path d="M284.1 394.5h-1v-1h1zM284.1 392.4h-1v-1h1z" fill="#999"/>
        <path d="M285.1 391.4h-1v1h1z" fill="#336"/>
        <path d="M283.1 391.4H282v1h1.1z" fill="#ccc"/>
        <path d="M284.1 392.4h-1v1.1h1z" fill="#6cf"/>
        <path d="M283.1 393.5H282v1h1.1z" fill="#ccc"/>
        <path d="M285.1 393.5h-1v1h1zM284.1 392.4h-1v1.1h1z" fill="#336"/>
        <path d="M285.1 393.5h-1v-1.1h1z" fill="#666"/>
        <path d="M267.9 393.5h-1.1v-1h1.1z" fill="#cc9"/>
        <path d="M268.9 392.5h-1v-1.1h1z" fill="#336"/>
        <path d="M270 391.4h-1.1v1.1h1.1zM267.9 391.4h-1.1v1.1h1.1z" fill="#cc9"/>
        <path d="M268.9 392.5h-1v1h1z" fill="#6cf"/>
        <path d="M268.9 392.5h-1v1h1zM270 393.5h-1.1v-1h1.1z" fill="#666"/>
        <path d="M270.9 393.5h-1.1v-1h1.1zM271.9 392.5h-1v-1.1h1z" fill="#999"/>
        <path d="M273 391.4h-1.1v1.1h1.1z" fill="#cc9"/>
        <path d="M270.9 391.4h-1.1v1.1h1.1z" fill="#ccc"/>
        <path d="M271.9 392.5h-1v1h1z" fill="#6cf"/>
        <path d="M271.9 392.5h-1v1h1zM273 393.5h-1.1v-1h1.1z" fill="#666"/>
        <path d="M267.8 399.5h-1v-1.1h1zM273.9 393.5h-1.1v-1h1.1z" fill="#999"/>
        <path d="M273.9 391.4h-1.1v1.1h1.1z" fill="#ccc"/>
        <path d="M274.9 400.5h-1.1v-1h1.1z" fill="#666"/>
        <path d="M268.9 398.4h-1.1v1.1h1.1z" fill="#336"/>
        <path d="M275.9 399.5h-1v-1.1h1zM277.1 393.5H276v-1.1h1.1z" fill="#666"/>
        <path d="M279.1 391.4h-1v1h1z" fill="#336"/>
        <path d="M283.3 404.3v-3.4c0-.5-.5-1-1-1h-1.6c-.6 0-1 .5-1 1v3.4h-15.1v-16.5h22.9v16.5z" fill="none" stroke="#000" stroke-linecap="round" stroke-linejoin="round"/>
        <path d="M287.5 404.3h-4.2" fill="none" stroke="#666" stroke-linecap="round" stroke-linejoin="round"/>
        <path d="M264.6 404.3v-16.5" fill="none" stroke="#999" stroke-linecap="round" stroke-linejoin="round"/>
        <path d="M279.7 404.3h-15.1" fill="none" stroke="#666" stroke-linecap="round" stroke-linejoin="round"/>
        <path d="M280.7 399.9c-.6 0-1 .5-1 1v3.4" fill="none" stroke="#000" stroke-linecap="round" stroke-linejoin="round"/>
        <path d="M283.3 400.9c0-.5-.5-1-1-1h-1.6" fill="none" stroke="#666" stroke-linecap="round" stroke-linejoin="round"/>
        <path d="M283.3 404.3v-3.4" fill="none" stroke="#999" stroke-linecap="round" stroke-linejoin="round"/>
    </g>
</svg>
