<svg xmlns="http://www.w3.org/2000/svg" height="24" width="24">
	<g transform="matrix(1,0,0,-1,-264,408)" id="KDDI_D_107">
        <path d="M273.2 399s-.3 2.4 1.1 3.1c.5 1.1.5 3.7 5 3.7 3 0 4.3-1 4.9-1.8 1.5-.1 3.3-1.3 3.3-3.8 0-3.3-3.1-4.5-4.1-4.6" fill="#fff"/>
        <path d="M285.7 403.5c.3-.5.5-1.2.5-2 0-3.2-3.1-4.4-4.1-4.5l1.3-1.4c1 .1 4.1 1.3 4.1 4.6 0 1.7-.8 2.7-1.8 3.3z" fill="#cc9"/>
        <path d="M283.6 395.6c1.1.2 3.9 1.4 3.9 4.6 0 1.2-.4 2.1-1 2.7l-.1.1c.3-.5.5-1.2.5-2 0-3.2-3.1-4.4-4.1-4.5z" fill="#999"/>
        <path d="M282.5 404.8s1.2-.8.9-2.1c-.2-1.2.8 1.3.8 1.3z" fill="#ccc"/>
        <path d="M273.2 399s-.3 2.4 1.1 3.1c.5 1.1.5 3.7 5 3.7 3 0 4.3-1 4.9-1.8 1.5-.1 3.3-1.3 3.3-3.8 0-3.3-3.1-4.5-4.1-4.6" fill="none" stroke="#000"/>
        <path d="M273.1 399.9c-4.3 0-4.5-2.9-4.5-2.9s-3.9-.8-4-4.4c0-2.9.8-3.5 1.7-4.1.9-.7 3.2-.8 3.2-.8s.4-1.4 3.9-1.4c3.5-.1 4.9 1.3 4.9 1.3s3.3-.9 5.9 0c1.8.7 1.9 2.7 1.9 2.7s1.4.9 1.4 2.8c0 3.3-3.4 3.4-3.4 3.4s-.8 1.5-3.1 1.6c-2.2.1-4-.2-4-.2s-.5 2-3.9 2z" fill="#fff"/>
        <path d="M284 396.2s2-.9 2.1-2.3c.1-1.4-1.3-2-1.3-2s0-2-1.9-2.6c-2.5-1-5.8 0-5.8 0s-.4-1.6-3.9-1.5c-3.5.1-3.4 1.4-3.4 1.4s-1.8-.2-2.6 0c-.9.2-2.3 1-2.3 1 .3-.9.9-1.3 1.4-1.7.9-.7 3.2-.8 3.2-.8s.4-1.4 3.9-1.4c3.5-.1 4.9 1.3 4.9 1.3s3.3-.9 5.9 0c1.8.7 1.9 2.7 1.9 2.7s1.4.9 1.4 2.8c0 3.3-3.5 3.1-3.5 3.1z" fill="#cc9"/>
        <path d="M287 394.9l-.3.3c.1-.3.1-.7.1-1.1 0-1.9-1.4-2.8-1.4-2.8s0-2-1.9-2.7c-2.6-1-5.9 0-5.9 0s-1.4-1.5-4.9-1.4c-3.5.1-3.3.6-3.3.6s.4-1.4 3.9-1.4c3.5-.1 4.9 1.3 4.9 1.3s3.3-.9 5.9 0c1.8.7 1.9 2.7 1.9 2.7s1.4.9 1.4 2.8c0 .7-.1 1.3-.4 1.7z" fill="#999"/>
        <path d="M276 398.9l-1.7.7s2-1.4 1.7-3.6c.3.8 1.1 1.8 1.1 1.8zM270.8 399.1s-.8-.7-1-1.4c-.2-.6-.3-1.7-.3-1.7s-1.6.1-3-1.2c-1.1-1.1-1.5-3.5-1.5-3.5s-.1 3.5.8 4.3c1 .8 2.8 1.4 2.8 1.4s.2 1.2.8 1.6c.7.4 1.4.5 1.4.5z" fill="#ccc"/>
        <path d="M273.1 399.9c-4.3 0-4.5-2.9-4.5-2.9s-3.9-.8-4-4.4c0-2.9.8-3.5 1.7-4.1.9-.7 3.2-.8 3.2-.8s.4-1.4 3.9-1.4c3.5-.1 4.9 1.3 4.9 1.3s3.3-.9 5.9 0c1.8.7 1.9 2.7 1.9 2.7s1.4.9 1.4 2.8c0 3.3-3.4 3.4-3.4 3.4s-.3 1.4-3.1 1.7c-2.2.2-4-.3-4-.3s-.5 2-3.9 2z" fill="none" stroke="#000"/>
    </g>
</svg>
