<svg xmlns="http://www.w3.org/2000/svg" height="24" width="24">
	<g transform="matrix(1,0,0,-1,-264,408)" id="KDDI_D_110">
        <path d="M269.8 401.4h-1.9l-2.8 2.8-1.1.1v-11.2h1.1l2.8 2.8h1.9" fill="#336"/>
        <path d="M269.8 399.5h-1.9l-2.8 1.4H264v1.4h1.1l2.8-1.8h1.9" fill="#99c"/>
        <path d="M269.8 397.1h-1.9l-2.8-1.6H264v-2.4h1.1l2.8 2.8h1.9" fill="#666"/>
        <path d="M269.8 396.5h-1.9l-2.8-2.2H264v-1.2h1.1l2.8 2.8h1.9"/>
        <path d="M279.2 388.8h-1.9v-1.6h-3.5v4.8h5.4z" fill="#336"/>
        <path d="M278.4 392v-3.2h.8v3.2zM276.5 387.2h.8v1.6h-.8z"/>
        <path d="M274.9 387.2h-1.1v4.8h1.1z" fill="#666"/>
        <path d="M284.1 397.5l3.2-2.7h.7v8.5h-.7l-3.2-2.8" fill="#336"/>
        <path d="M284.1 399.5l3.2 1.4h.7v1h-.7l-3.2-1.8" fill="#99c"/>
        <path d="M284.1 397.5l3.2-2.7h.7v2.3h-.7l-3.2 1.4" fill="#666"/>
        <path d="M284.1 397.5l3.2-2.7h.7v1.3h-.7l-3.2 2"/>
        <path d="M284.7 404.9v.7h-15.2v-14h.7v13.3z" fill="#999"/>
        <path d="M270.2 391.6h11.2v1.7h3.3v11.6h-14.5z" fill="#666"/>
        <path d="M283.9 405.6V394h-3.3v-1.7h-11.1v-.7h11.9v1.7h3.3v12.3z"/>
        <path d="M278.1 397.1h-6.5v6h6.5z" fill="#fff"/>
        <path d="M272.8 397.1h-1.2v6h1.2z" fill="#69c"/>
        <path d="M278.1 397.1h-5.3v4.9h5.3zM281.4 397.1H279v6h2.4z" fill="#9cc"/>
        <path d="M281.4 399.2H279v3.9h2.4z" fill="#fff"/>
        <path d="M282.4 398H279v4h3.4z" fill="#9cc"/>
        <path d="M272.6 394.3h-1v1h1zM274.7 394.3h-1.1v1h1.1zM277.5 394.3h-1.1v1h1.1z" fill="#fff"/>
        <path d="M278.5 394.3h-1v1h1z" fill="#3c3"/>
        <path d="M279.5 394.3h-1v1h1z" fill="#fff"/>
        <path d="M273.6 394.3h-1v1h1z" fill="#c00"/>
        <path d="M278.9 396.6h-.8v6.9h.8z" fill="#666"/>
    </g>
</svg>
