<svg xmlns="http://www.w3.org/2000/svg" width="24" height="24">
	<g transform="translate(-264,-386)" id="KDDI_D_111">
		<g>
			<path style="stroke:none; fill:none" d="M 288 409.89L 264 409.89L 264 385.89L 288 385.89L 288 409.89z"/>
		</g>
		<g>
			<path style="stroke:none; fill:#336" d="M 278.5 388.39L 281 388.39L 283 386.39L 287.5 386.39L 287.5 392.89L 278.5 392.89"/>
			<path style="stroke:none; fill:#cc9" d="M 287 393.89L 284 390.89L 281 390.89L 277.5 387.39L 273.5 387.39L 273.5 394.39"/>
			<path style="stroke:none; fill:#cc9" d="M 287.5 407.39L 274.5 407.39L 274.5 394.39L 287.5 394.39L 287.5 407.39z"/>
			<path style="stroke:none; fill:#cc9" d="M 274.5 408.39L 268.5 408.39C 267.5 408.39 266.5 407.89 266.5 406.89L 266.5 388.39C 266.5 387.84 266.95 387.39 267.5 387.39L 272.5 387.39C 273.5 387.39 274.5 388.39 274.5 389.39L 274.5 408.39z"/>
			<path style="stroke:#999; stroke-width:1; fill:none" d="M 280.5 393.39L 286.5 393.39"/>
			<path style="stroke:#666; stroke-width:1; fill:none" d="M 274.5 389.89L 272 387.39"/>
			<path style="stroke:#999; stroke-width:2; fill:none" d="M 274.5 388.89L 279 388.89"/>
			<path style="stroke:#000; stroke-width:1; stroke-linecap:square; fill:none" d="M 278 387.89L 278.5 388.39L 281 388.39L 283 386.39L 287.5 386.39L 287.5 392.39L 286 392.39"/>
			<path style="stroke:#000; stroke-width:1; stroke-linecap:square; fill:none" d="M 287.5 407.39L 274.5 407.39L 274.5 394.39L 287.5 394.39L 287.5 407.39z"/>
			<path style="stroke:none; fill:#69f" d="M 285.5 404.39L 277.5 404.39L 277.5 397.39L 285.5 397.39L 285.5 404.39z"/>
			<path style="stroke:#336; stroke-width:1; fill:none" d="M 274.5 408.39L 280.5 408.39"/>
			<path style="stroke:#9cf; stroke-width:0.75; fill:none" d="M 278 403.89L 284.5 397.39"/>
			<path style="stroke:#9cf; stroke-width:1; fill:none" d="M 280 404.39L 285.5 398.89"/>
			<path style="stroke:#fff; stroke-width:1; stroke-linecap:square; fill:none" d="M 285.5 397.39L 285.5 404.39L 277.5 404.39"/>
			<path style="stroke:#669; stroke-width:1; stroke-linecap:square; fill:none" d="M 277.5 404.39L 277.5 397.39L 285.5 397.39"/>
			<path style="stroke:none; fill:#f60" d="M 272 403.89L 270 403.89L 270 401.89L 272 401.89L 272 403.89z"/>
			<path style="stroke:#fff; stroke-width:1; stroke-linecap:square; fill:none" d="M 267.5 388.89L 267.5 407.89"/>
			<path style="stroke:#336; stroke-width:1; fill:none" d="M 267 407.39L 274.5 407.39"/>
			<path style="stroke:#666; stroke-width:1; fill:none" d="M 267 406.39L 274.5 406.39"/>
			<path style="stroke:#666; stroke-width:1; fill:none" d="M 267 388.39L 268 388.39"/>
			<path style="stroke:#000; stroke-width:1; stroke-linecap:square; fill:none" d="M 274.5 408.39L 268.5 408.39C 267.5 408.39 266.5 407.89 266.5 406.89L 266.5 388.39C 266.5 387.84 266.95 387.39 267.5 387.39L 272.5 387.39C 273.5 387.39 274.5 388.39 274.5 389.39L 274.5 408.39z"/>
			<path style="stroke:none; fill:#666" d="M 272.5 397.89C 272.5 398.44 272.05 398.89 271.5 398.89L 267.5 398.89C 266.95 398.89 266.5 398.44 266.5 397.89L 266.5 391.39C 266.5 390.84 266.95 390.39 267.5 390.39L 271.5 390.39C 272.05 390.39 272.5 390.84 272.5 391.39L 272.5 397.89z"/>
			<path style="stroke:none; fill:#336" d="M 270.5 397.39C 270.5 397.94 270.05 398.39 269.5 398.39L 265.5 398.39C 264.95 398.39 264.5 397.94 264.5 397.39L 264.5 391.39C 264.5 390.84 264.95 390.39 265.5 390.39L 269.5 390.39C 270.05 390.39 270.5 390.84 270.5 391.39L 270.5 397.39z"/>
			<path style="stroke:#fff; stroke-width:1; stroke-linecap:square; fill:none" d="M 286.5 395.39L 275.5 395.39L 275.5 406.39"/>
			<path style="stroke:#000; stroke-width:1; stroke-linecap:square; fill:none" d="M 272.5 387.39L 277.5 387.39L 281 390.89L 284.219 390.89L 287.219 393.89"/>
			<path style="stroke:none; fill:#69f" d="M 269.5 396.39C 269.5 396.94 269.05 397.39 268.5 397.39L 266.5 397.39C 265.95 397.39 265.5 396.94 265.5 396.39L 265.5 392.39C 265.5 391.84 265.95 391.39 266.5 391.39L 268.5 391.39C 269.05 391.39 269.5 391.84 269.5 392.39L 269.5 396.39z"/>
			<path style="stroke:#669; stroke-width:1; fill:none" d="M 269.5 396.39C 269.5 396.94 269.05 397.39 268.5 397.39L 266.5 397.39C 265.95 397.39 265.5 396.94 265.5 396.39L 265.5 392.39C 265.5 391.84 265.95 391.39 266.5 391.39L 268.5 391.39C 269.05 391.39 269.5 391.84 269.5 392.39L 269.5 396.39z"/>
			<path style="stroke:#9cf; stroke-width:1; fill:#9cf" d="M 270.5 394.89L 268.5 394.89C 267.95 394.89 267.5 394.44 267.5 393.89L 267.5 393.39C 267.5 392.84 267.95 392.39 268.5 392.39L 270.5 392.39"/>
			<path style="stroke:#fff; stroke-width:1; stroke-linecap:round; fill:none" d="M 269.5 392.39L 269.5 392.39"/>
			<path style="stroke:#000; stroke-width:1; stroke-linecap:square; fill:none" d="M 270.5 397.39C 270.5 397.94 270.05 398.39 269.5 398.39L 265.5 398.39C 264.95 398.39 264.5 397.94 264.5 397.39L 264.5 391.39C 264.5 390.84 264.95 390.39 265.5 390.39L 269.5 390.39C 270.05 390.39 270.5 390.84 270.5 391.39L 270.5 397.39z"/>
		</g>
	</g>
</svg>
