<svg xmlns="http://www.w3.org/2000/svg" width="24" height="24">
	<g transform="translate(-264,-386)" id="KDDI_D_114">
		<g>
			<path style="stroke:none; fill:none" d="M 288 409.89L 264 409.89L 264 385.89L 288 385.89L 288 409.89z"/>
		</g>
		<g>
			<path style="stroke:#c99; stroke-width:1; stroke-linecap:square; fill:none" d="M 287.5 393.39L 282 393.39"/>
			<path style="stroke:#966; stroke-width:1; stroke-linecap:square; fill:none" d="M 287.5 394.39L 282 394.39"/>
			<path style="stroke:#636; stroke-width:1; stroke-linecap:square; fill:none" d="M 287.5 395.39L 282 395.39"/>
			<path style="stroke:#000; stroke-width:1; stroke-linecap:square; fill:none" d="M 287.5 396.39L 282 396.39"/>
			<path style="stroke:#000; stroke-width:1; stroke-linecap:square; fill:none" d="M 287.5 392.39L 282 392.39"/>
			<path style="stroke:none; fill:#fff" d="M 282 392.39C 282 392.39 272.5 392.39 271.5 392.39C 269.5 392.39 264.5 394.89 264.5 397.89C 264.5 400.89 264.5 403.39 264.5 403.39L 282 403.39L 282 396.39L 282 392.39z"/>
			<path style="stroke:none; fill:#666" d="M 264.5 397.89C 264.5 398.409 264.5 398.911 264.5 399.39L 282 399.39L 282 396.39L 282 392.39C 282 392.39 272.5 392.39 271.5 392.39C 269.5 392.39 264.5 394.89 264.5 397.89z"/>
			<path style="stroke:#996; stroke-width:0.75; fill:none" d="M 270 401.39L 279 392.39"/>
			<path style="stroke:#996; stroke-width:1; fill:none" d="M 267 401.39L 276 392.39"/>
			<path style="stroke:none; fill:#fff" d="M 264.5 398.89C 264.5 401.425 264.5 403.39 264.5 403.39L 282 403.39L 282 398.89L 264.5 398.89z"/>
			<path style="stroke:#999; stroke-width:1; stroke-linecap:square; fill:none" d="M 282 393.39C 282 393.39 271.5 393.39 270.5 393.39C 268.5 393.39 265.5 395.89 265.5 397.89L 265.5 399.39"/>
			<path style="stroke:#000; stroke-width:1; fill:none" d="M 282 392.39C 282 392.39 271.5 392.39 270.5 392.39C 268.5 392.39 264.5 394.89 264.5 397.89C 264.5 400.89 264.5 403.39 264.5 403.39L 282 403.39L 282 396.39L 282 392.39z"/>
			<path style="stroke:#999; stroke-dasharray:1.04,1.85; stroke-width:1; fill:none" d="M 268 399.39L 280.5 399.39"/>
			<path style="stroke:#999; stroke-width:1; fill:none" d="M 266 399.39L 267 399.39"/>
		</g>
	</g>
</svg>
