<svg xmlns="http://www.w3.org/2000/svg" height="24" width="24">
    <g transform="matrix(1,0,0,-1,-264,408)" id="KDDI_D_">        <path d="M276.8 391.3c0 1.2 1.1 2 3.1 2h5.1c1.2 0 2.5-.8 2.5-2.7 0-1.9-1-4.8-3.9-4.8-2.8 0-4.7.8-5.5 1.7-.8.9-1.3 2.6-1.3 3.8zM275.3 391.3c0 1.2-1.2 2-3.2 2H267c-1.2 0-2.5-.8-2.5-2.7 0-1.9 1-4.8 3.9-4.8 2.8 0 4.7.8 5.5 1.7.9.9 1.4 2.6 1.4 3.8z" fill="#fff"/>
        <path d="M266.2 392.9s-.3-4.2.2-5c.5-.7 1.8-1.8 1.8-1.8l1.1.2.3 1.7-1.8 5.3-1.6-.4" fill="#cff"/>
        <path d="M267.2 393.3v-3.7c0-.6.2-1.2.7-1.6.5-.4 1.5-.7 1.5-.7v6h-2.2" fill="#6cf"/>
        <path d="M269.3 393.3v-7.4s1.6.3 2.7.8 1.7 1.1 1.7 1.1v5.1l-4.4.4" fill="#699"/>
        <path d="M274 392.8s1.4-.6 1.3-1.5c-.2-.9-1.2-3.5-1.7-3.9-.5-.4-1.8-.9-2.8-1.1-.6.9 1.1 1 2 1.8v5z" fill="#369"/>
        <path d="M278 392.7s0-2.7 1.4-3.9c.7-.7 1.5-.8 1.5-.8v5.3l-2.9-.6" fill="#cff"/>
        <path d="M279.2 393.3v-2.1s-.1-.7.6-1.2 1-.4 1-.4v3.7l-2.1-.1" fill="#6cf"/>
        <path d="M280.6 393.1v-6.8l1.6-.2 1.5-.3v7.3z" fill="#699"/>
        <path d="M283.4 393.3v-5.1c0-.7-.2-.9-.5-1.3-.3-.3-.3-.7-.1-.8.3-.2 2.2 0 3 .7.7.8 1.1 2 1.4 3.4.2 1.4-.7 2.8-1.7 3-1 .1-2.1.1-2.1.1" fill="#369"/>
        <path d="M275 391.9h2.1" fill="none" stroke="#000" stroke-width="2"/>
        <path d="M272.3 402.8s0 3.3-1.5 3.5c-1.4.3-2.4-.8-3.1-2.2-.9-1.7-3.1-5.9-3.1-12.5M279.7 402.8s.1 3.3 1.5 3.5c1.4.3 2.4-.8 3.1-2.2.9-1.7 3.1-5.9 3.1-12.5" fill="none" stroke="#666" stroke-linecap="round"/>
        <path d="M275.3 391.3c0 1.2-1.2 2-3.2 2H267c-1.2 0-2.5-.8-2.5-2.7 0-1.9 1-4.8 3.9-4.8 2.8 0 4.7.8 5.5 1.7.9.9 1.4 2.6 1.4 3.8zM276.8 391.3c0 1.2 1.1 2 3.1 2h5.1c1.2 0 2.5-.8 2.5-2.7 0-1.9-1-4.8-3.9-4.8-2.8 0-4.7.8-5.5 1.7-.8.9-1.3 2.6-1.3 3.8z" fill="none" stroke="#000"/>
    </g>
</svg>
