<svg xmlns="http://www.w3.org/2000/svg" width="24" height="24">
	<g transform="translate(-264,-386)" id="KDDI_D_117">
		<g>
			<path style="stroke:none; fill:none" d="M 288 409.89L 264 409.89L 264 385.89L 288 385.89L 288 409.89z"/>
		</g>
		<g>
			<path style="stroke:none; fill:#cc0000" d="M 283 398.39L 283 401.89L 281 401.89L 281 408.89L 287.257 402.633L 286.5 401.89L 283 398.39z"/>
			<path style="stroke:none; fill:#ff6666" d="M 283 398.39L 281 396.39L 281 401.89L 283 401.89L 283 398.39z"/>
			<path style="stroke:#cc0000; stroke-width:1; fill:none" d="M 268.5 395.89L 268.5 392.39C 268.5 391.287 269.397 390.39 270.5 390.39L 286 390.39"/>
			<path style="stroke:#ff0000; stroke-width:1; fill:none" d="M 281 400.39L 271 400.39C 269.897 400.39 268.5 399.493 268.5 398.39L 268.5 394.89"/>
			<path style="stroke:#cc0000; stroke-width:1; fill:none" d="M 286 386.39L 271.5 386.39C 268.191 386.39 265.5 389.081 265.5 392.39L 265.5 398.39C 265.5 401.698 268.191 404.39 271.5 404.39L 281 404.39"/>
			<path style="stroke:#ff6666; stroke-width:1; fill:none" d="M 286 386.39L 271.5 386.39C 268.191 386.39 265.5 389.081 265.5 392.39L 265.5 398.39C 265.5 400.164 266.273 401.76 267.501 402.859"/>
			<path style="stroke:#ff0000; stroke-width:3; fill:none" d="M 286 388.39L 271.5 388.39C 269 388.39 267.5 389.89 267.5 392.39L 267.5 398.39C 267.5 400.89 269 402.39 271.5 402.39L 281 402.39"/>
			<path style="stroke:none; fill:#ff0000" d="M 281.781 397.157L 281.781 399.89L 281 399.89L 281 407.89L 286.5 402.39L 286.735 402.125L 281.781 397.157z"/>
		</g>
	</g>
</svg>