<svg xmlns="http://www.w3.org/2000/svg" height="24" width="24">
    <g transform="matrix(1,0,0,-1,-264,408)" id="KDDI_D_">        <path d="M269.5 392.8h-3.6l-1.4-1.4v-1.1" fill="none" stroke="#f63"/>
        <path d="M269.5 393.3h-3.6l-1.4-1.4v-1.1" fill="none" stroke="red"/>
        <path d="M269.5 389.6h-3.6l-1.4-1.3v-1.2" fill="none" stroke="#f63"/>
        <path d="M269.5 390.1h-3.6l-1.4-1.3v-1.2" fill="none" stroke="red"/>
        <path d="M269.5 386.4h-3.6l-1.4-1.3v-1.2" fill="none" stroke="#f63"/>
        <path d="M269.5 386.9h-3.6l-1.4-1.3v-1.2" fill="none" stroke="red"/>
        <path d="M282.5 392.8h3.6l1.4-1.4v-1.1" fill="none" stroke="#f63"/>
        <path d="M282.5 393.3h3.6l1.4-1.4v-1.1" fill="none" stroke="red"/>
        <path d="M282.5 389.6h3.6l1.4-1.3v-1.2" fill="none" stroke="#f63"/>
        <path d="M282.5 390.1h3.6l1.4-1.3v-1.2" fill="none" stroke="red"/>
        <path d="M282.5 386.4h3.6l1.4-1.3v-1.2" fill="none" stroke="#f63"/>
        <path d="M282.5 386.9h3.6l1.4-1.3v-1.2" fill="none" stroke="red"/>
        <path d="M268.5 397.7v-2.2l1.9-1.9" fill="none" stroke="#900"/>
        <path d="M268 397.7v-2.2l1.8-1.9" fill="none" stroke="#c00"/>
        <path d="M283.5 397.7v-2.2l-1.9-1.9" fill="none" stroke="#900"/>
        <path d="M284 397.7v-2.2l-1.8-1.9" fill="none" stroke="#c00"/>
        <path d="M274.3 401.4v1.2" fill="none" stroke="#000"/>
        <path d="M274.3 396.8v4.6" fill="none" stroke="#c00"/>
        <path d="M277.7 401.4v1.2" fill="none" stroke="#000"/>
        <path d="M277.7 396.8v4.6" fill="none" stroke="#c00"/>
        <path d="M269.9 407.9l-1.7-7.8-1.7 7.8c-1.5-.9-2.5-2.9-2.5-5.2 0-3.1 1.9-5.6 4.2-5.6 2.3 0 4.2 2.5 4.2 5.6 0 2.3-1.1 4.3-2.5 5.2z" fill="red"/>
        <path d="M265.9 407.4c.2.2.4.3.6.5l1.7-7.8z" fill="#c00"/>
        <path d="M270.9 407c-.2.3 1-2.8.1-5.9-.4-1.4-1-2.8-2.8-4 2.3 0 4.2 2.5 4.2 5.6 0 1.7-.6 3.3-1.5 4.3z" fill="#900"/>
        <path d="M265.5 405.7c-.5.1-.9-1.2-.9-2.3 0-1.2.4-2.5.8-2.5.4.1-.2 1-.1 2.4s.7 2.3.2 2.4z" fill="#f63"/>
        <path d="M285.5 407.9l-1.6-7.8-1.7 7.8c-1.5-.9-2.5-2.9-2.5-5.2 0-3.1 1.8-5.6 4.2-5.6 2.3 0 4.1 2.5 4.1 5.6 0 2.3-1 4.3-2.5 5.2z" fill="red"/>
        <path d="M281.5 407.4c.2.2.5.3.7.5l1.7-7.8z" fill="#c00"/>
        <path d="M286.5 407c-.2.3 1-2.8.2-5.9-.4-1.4-1-2.8-2.8-4 2.3 0 4.1 2.5 4.1 5.6 0 1.7-.6 3.3-1.5 4.3z" fill="#900"/>
        <path d="M281.2 405.7c-.5.1-.9-1.2-.9-2.3 0-1.2.3-2.5.7-2.5.4.1-.2 1-.1 2.4s.8 2.3.3 2.4z" fill="#f63"/>
        <path d="M283.6 389c0-2.8-2.4-5-5.2-5h-4.8c-2.8 0-5.2 2.2-5.2 5v3c0 2.8 2.4 5 5.2 5h4.8c2.8 0 5.2-2.2 5.2-5z" fill="red"/>
        <path d="M281.8 388.7c0-1.6-1.3-3-2.9-3h-5.8c-1.6 0-2.8 1.4-2.8 3v3.6c0 1.6 1.2 3 2.8 3h5.8c1.6 0 2.9-1.4 2.9-3z" fill="red"/>
        <path d="M281.8 394.7c-.5-.3-.5-.9-.5-1.4.1-.5.2-2.7 0-4.1-.1-1.4-.8-2.7-2.8-3-1.9-.3-6.3-.2-6.8-.2-.4.1-1.1.3-1.3-.2-.1-.4.3-1 .9-1.3.7-.3 1.5-.5 2.3-.5h4.8c2.8 0 5.2 2.2 5.2 5v3c0 .6-.2 1.2-.4 1.8-.2.6-.9 1.2-1.4.9z" fill="#c00"/>
        <path d="M283.5 392.9c0-.2 0-.4-.1-.7l-.3-2.9c-.4-2.8-2.5-4.6-5.2-4.9-2.8-.3-4.7-.3-4.7-.3h-.5c.3-.1.6-.1.9-.1h4.8c2.8 0 5.2 2.2 5.2 5v3c0 .3-.1.6-.1.9z" fill="#900"/>
        <path d="M272.2 387.7v4.3c0 1.6 1.1 2.8 2.5 2.8h4.1c.4 0 1 .3 1 .8s-.8.8-1.5.8h-4.4c-2.6 0-4.7-2.1-4.7-4.6V390c0-.6-.2-2.3 3-2.3z" fill="#f63"/>
        <path d="M272.8 395.3s-.9.2-1.6-.4c-1-1.1-1-3.1-.3-3.1.8 0 .9 1.3 1.2 2 .3.7 1.2 1.1.7 1.5z" fill="#f96"/>
        <path d="M271.9 394.8s-.5.1-.9-.3c-.7-.6-.7-1.9-.2-1.9.5 0 .5.8.7 1.3.2.4.8.6.4.9z" fill="#fc9"/>
    </g>
</svg>
