<svg xmlns="http://www.w3.org/2000/svg" width="24" height="24">
	<g transform="translate(-264,-386)" id="KDDI_D_118">
		<g>
			<path style="stroke:none; fill:none" d="M 288 409.89L 264 409.89L 264 385.89L 288 385.89L 288 409.89z"/>
		</g>
		<g>
			<path style="stroke:none; fill:#f66" d="M 271.047 395.89L 271.047 408.39L 265.547 402.89L 264.547 402.39L 271.047 395.89z"/>
			<path style="stroke:none; fill:#c00" d="M 271.047 396.89L 271.047 408.89L 264.548 402.391L 265.547 402.39L 271.047 396.89z"/>
			<path style="stroke:none; fill:#f66" d="M 269.047 398.39L 271.047 396.39L 271.047 401.89L 269.047 401.89L 269.047 398.39z"/>
			<path style="stroke:#c00; stroke-width:1; fill:none" d="M 283.5 395.89L 283.5 392.39C 283.5 391.287 282.603 390.39 281.5 390.39L 266.047 390.39"/>
			<path style="stroke:#f00; stroke-width:1; fill:none" d="M 271.047 400.39L 281 400.39C 282.103 400.39 283.5 399.493 283.5 398.39L 283.5 394.89"/>
			<path style="stroke:#c00; stroke-width:1; fill:none" d="M 266.047 386.39L 280.5 386.39C 283.809 386.39 286.5 389.081 286.5 392.39L 286.5 398.39C 286.5 401.698 283.809 404.39 280.5 404.39L 271.047 404.39"/>
			<path style="stroke:none; fill:#f00" d="M 271.047 396.89L 271.047 407.89L 265.547 402.39L 265.547 402.39L 271.047 396.89z"/>
			<path style="stroke:#f66; stroke-width:1; fill:none" d="M 266.047 386.39L 280.5 386.39C 281.201 386.39 281.875 386.51 282.5 386.733"/>
			<path style="stroke:#f00; stroke-width:3; fill:none" d="M 266.047 388.39L 280.5 388.39C 283 388.39 284.5 389.89 284.5 392.39L 284.5 398.39C 284.5 400.89 283 402.39 280.5 402.39L 271.047 402.39"/>
		</g>
	</g>
</svg>
