<svg xmlns="http://www.w3.org/2000/svg" height="24" width="24">
    <g transform="matrix(1,0,0,-1,-264,408)" id="KDDI_D_">        <path d="M283.8 390c.3-.2.2-.6-.1-.9l-.8-.8c-.2-.3-.7-.3-.9-.1l-3.9 3.9c-.2.2-.2.6.1.9l.8.8c.3.3.7.3 1 .1z" fill="#996"/>
        <path d="M279 393.8l-.4-.4c.3.3.7.3 1 .1l3.8-3.9c.3-.2.2-.6 0-.9l.3.4c.3.3.4.7.1.9l-3.8 3.9c-.3.2-.7.2-1-.1z" fill="#cc9"/>
        <path d="M282.4 388.6l-3.9 3.8c-.2.3-.2.7.1 1l-.4-.4c-.3-.3-.3-.7-.1-.9l3.9-3.9c.2-.2.7-.2.9.1l.4.4c-.3-.3-.7-.4-.9-.1z"/>
        <path d="M287.7 386.9c.4-.3.3-.9-.1-1.3l-1.1-1.2c-.4-.4-1-.5-1.4-.1l-5.5 5.5c-.3.4-.3 1 .1 1.4l1.2 1.1c.4.4 1 .5 1.3.1z" fill="#996"/>
        <path d="M280.9 392.3l-.6-.5c.4.4 1 .4 1.4.1l5.5-5.6c.3-.3.3-.9-.1-1.3l.5.6c.4.4.5 1 .1 1.3l-5.5 5.5c-.3.4-.9.3-1.3-.1z" fill="#cc9"/>
        <path d="M285.7 384.8l-5.6 5.6c-.3.3-.2.9.2 1.3l-.6-.5c-.4-.4-.4-1-.1-1.4l5.5-5.5c.4-.4 1-.3 1.4.1l.5.6c-.4-.5-1-.5-1.3-.2z"/>
        <path d="M281.1 398.8c0-4.3-3.5-7.8-7.8-7.8-4.4 0-7.9 3.5-7.9 7.8s3.5 7.8 7.9 7.8c4.3 0 7.8-3.5 7.8-7.8z" fill="#9cc"/>
        <path d="M281.1 398.8c0-4.3-3.5-7.8-7.8-7.8-4.4 0-7.9 3.5-7.9 7.8s3.5 7.8 7.9 7.8c4.3 0 7.8-3.5 7.8-7.8z" fill="#9cc"/>
        <path d="M272.9 402c.6 0 1.4.2 1.4.7.1.5-.8.7-1.4.7-2.3 0-4.2-1.9-4.2-4.3 0-.5 0-1.3.6-1.3.5 0 .7.8.7 1.3 0 1.6 1.3 2.9 2.9 2.9z" fill="#6cf"/>
        <path d="M278.6 400.5c-.6-.1-.4-1.1-.3-1.4 0-.7-.1-1.4-.3-2.1-.1 0-.1-.1-.1-.1-.1-.2-.1-.3-.2-.4-.1-.1-.1-.2-.2-.3 0-.1-.1-.2-.2-.3 0-.1-.1-.2-.2-.3-.1-.1-.1-.2-.2-.3-.1-.1-.2-.1-.3-.2-.1-.1-.2-.2-.3-.2l-.3-.3c-.1 0-.2-.1-.3-.1 0-.1-.1-.1-.2-.2-.2 0-.3-.1-.4-.2-.6-.2-1.3-.3-2-.3-.3 0-1 .1-1.1-.5 0-.6.6-.8 1-.8 1 0 2.1.2 3 .7h.1c.1.1.2.1.2.1.2.1.3.2.4.3.2.1.3.2.4.3.1 0 .2.1.3.2.2.1.3.3.4.4l.3.3c.1.1.2.2.3.4 0 .1.1.2.2.3.1.2.2.3.2.5.1 0 .1.1.1.1.1.1.1.2.1.2.4 1 .6 2 .5 3 0 .4-.3 1.4-.9 1.2z" fill="#cff"/>
        <path d="M275.8 399c0-1.5-1.2-2.7-2.8-2.7-.5 0-1.3-.2-1.3-.7-.1-.5.8-.6 1.3-.6 2.3 0 4.1 1.8 4.1 4 0 .5-.1 1.5-.7 1.5-.5-.1-.6-.9-.6-1.5z" fill="#6cf"/>
        <path d="M272.7 405.3c-.9 0-1.8-.3-2.6-.7h-.1c0-.1-.1-.1-.2-.2-.1 0-.2-.1-.3-.2-.2-.1-.3-.2-.4-.2l-.3-.3c-.1-.1-.2-.2-.2-.3-.2-.1-.3-.2-.4-.3 0-.1-.1-.2-.2-.3-.1-.1-.2-.2-.2-.4-.1-.1-.2-.2-.2-.3l-.2-.2v-.2c-.4-.7-.6-1.6-.6-2.5-.1-.5.2-1.5.8-1.4.5.1.4 1 .4 1.4 0 .6.2 1.3.4 1.8l.1.1c0 .2.1.3.2.4 0 .1.1.2.1.3l.2.2c.1.1.2.2.2.3l.2.2.3.3.2.2c.1 0 .2.1.3.2.1 0 .2.1.2.1.1.1.3.2.4.2 0 0 .1.1.2.1.5.3 1.1.4 1.7.5.4 0 1.3 0 1.4.5 0 .7-.9.8-1.4.7z" fill="#369"/>
        <path d="M273 403.1c.4 0 1.3.1 1.3.7s-.9.6-1.3.6c-2.9 0-5.3-2.4-5.3-5.4 0-.3 0-1.1.6-1.1.5 0 .7.8.7 1.1 0 2.3 1.8 4.1 4 4.1z" fill="#699"/>
        <path d="M277.8 400.4c-.5 0-.7-1-.7-1.4 0-2.3-1.8-4.1-4-4.1-.4 0-1.2 0-1.2-.6 0-.5.8-.7 1.2-.7 2.9 0 5.3 2.4 5.3 5.4 0 .4 0 1.4-.6 1.4z" fill="#fff"/>
        <path d="M265.4 397.4c-.1.4-.1.9-.1 1.4 0 4.4 3.5 8 8 8 .3 0 .7 0 1.1-.1M266.1 395.2c-.3.7-.6 1.4-.7 2.2M274.4 406.7c1.1-.1 2.1-.5 3-1.1" fill="none" stroke="#366" stroke-linecap="round"/>
        <path d="M277.4 405.6c2.3-1.4 3.9-3.9 3.9-6.8 0-4.4-3.6-8-8-8-3.2 0-5.9 1.8-7.2 4.4" fill="none" stroke="#699" stroke-linecap="round"/>
        <path d="M282 398.8c0-4.8-3.9-8.7-8.7-8.7-4.9 0-8.8 3.9-8.8 8.7 0 4.8 3.9 8.7 8.8 8.7 4.8 0 8.7-3.9 8.7-8.7z" fill="none" stroke="#000"/>
    </g>
</svg>
