<svg xmlns="http://www.w3.org/2000/svg" height="24" width="24">
    <g transform="matrix(1,0,0,-1,-264,408)" id="KDDI_D_">        <path d="M274.9 397.6l10.8-10.8-1.6-2h2.7l.2 2.6-11.2 11.1z" fill="#666"/>
        <path d="M287.8 392.9l-4.1-4.1-3.1 3.1 4.1 4.1z" fill="#333"/>
        <path d="M287.2 393.5l-4.1-4.1-2.5 2.5 4.1 4.1z" fill="#999"/>
        <path d="M271.7 402.8c.4.4.4 1.2-.1 1.6-.5.5-1.2.5-1.6.1l-2.9-2.9c-.4-.4-.4-1.1.1-1.6s1.2-.5 1.6-.1l.1.4c-.4-.3-.9-.3-1.2 0-.4.4-.4.9 0 1.3l2.4 2.4c.3.3.9.3 1.2 0 .4-.3.4-.9 0-1.2" fill="#333"/>
        <path d="M275.8 405.6c-2.4 2.4-6.4 2.1-9.1-.6-2.7-2.7-3-6.8-.6-9.1 2.3-2.4 6.4-2.2 9.1.5 2.7 2.7 3 6.8.6 9.2m-4.1-2.8h-.4l-2.4-2.5-.1-.4c-.4-.4-1.1-.4-1.6.1s-.5 1.2-.1 1.6l2.9 2.9c.4.4 1.1.4 1.6-.1.5-.4.5-1.2.1-1.6z" fill="#999"/>
        <path d="M271.3 402.8h.4l-2.9-2.9.1.4z" fill="#666"/>
        <path d="M266.7 405c-2.7-2.7-3-6.8-.6-9.1 2.3-2.4 6.4-2.2 9.1.5 2.7 2.7 3 6.8.6 9.2-2.4 2.4-6.4 2.1-9.1-.6m7.9-8c-2.3-2.3-5.8-2.5-7.8-.4-2.1 2-1.8 5.5.5 7.8s5.8 2.5 7.8.5 1.8-5.6-.5-7.9z" fill="#666"/>
        <path d="M285.7 386.8l-10.8 10.8-1.8-1.8 11.2-10.8h.9z" fill="#999"/>
        <path d="M273.3 395.8c-2.1-1-4.5-.7-6.1.8-2 2.1-1.6 5.7.8 8.2.4.4.8.7 1.2 1 1.3.8.6 1.2-1 .3-.6-.3-1.1-.7-1.6-1.2-2.7-2.7-3-6.8-.6-9.1 1.9-2 5.1-2.2 7.7-.6.5.3.4.9-.4.6z" fill="#ccc"/>
        <path d="M284.5 386.2l-10.4 10.3s-.8-.8-2.9-1.2c-.5-.2 2.4-.1 2.4-.1l10.7-10.5z" fill="#ccc"/>
        <path d="M266 401l-1.3.2-.2-2.5 1.5.4c-.1.6-.1 1.2 0 1.9z" fill="#fff"/>
        <path d="M281.2 393.1l-4.8 4.8c1.5 2.6 1.4 5.7-.6 7.7-2.4 2.4-6.4 2.1-9.1-.6-2.7-2.7-3-6.8-.6-9.1 1.9-2 5-2.2 7.6-.7l10.5-10.5 2.5.2.2 2.5-2.6 2.6 3.2 3.2-3.1 3.1" fill="none" stroke="#000" stroke-linejoin="round"/>
        <path d="M284.4 396.3l-3.2-3.2" fill="none" stroke="#333" stroke-linecap="round" stroke-linejoin="round"/>
        <path d="M286.3 395.1l-2.4-2.4" fill="none" stroke="#333"/>
    </g>
</svg>
