<svg xmlns="http://www.w3.org/2000/svg" height="24" width="24">
    <g transform="matrix(1,0,0,-1,-264,408)" id="KDDI_D_">        <path d="M276 385.4s2.4 1.7 6.1 1.7c3.6 0 5.4-1.7 5.4-1.7v18.2s-2.1 1.6-5.4 1.6c-3.4 0-6.1-1.6-6.1-1.6zM276 385.4s-2.3 1.7-6 1.7-5.4-1.7-5.4-1.7v18.2s2.1 1.6 5.4 1.6c3.4 0 6-1.6 6-1.6z" fill="#996" stroke="#996" stroke-linejoin="round"/>
        <path d="M276 386.8s-2.3 1.7-6 1.7-5.4-1.7-5.4-1.7v18.1s2.1 1.7 5.4 1.7c3.4 0 6-1.7 6-1.7z" fill="#ff9"/>
        <path d="M274 387.7c1.3-.4 2-.9 2-.9v18.1s-.7.5-2 1z" fill="#fc6"/>
        <path d="M266.3 405.9c-1.1-.5-1.7-1-1.7-1v-18.1s.5.5 1.7.9z" fill="#fff"/>
        <path d="M276 386.8s2.4 1.7 6.1 1.7c3.6 0 5.4-1.7 5.4-1.7v18.1s-2.1 1.7-5.4 1.7c-3.4 0-6.1-1.7-6.1-1.7z" fill="#ff9"/>
        <path d="M279.7 388.6c-1.3-.5-1.8-.9-1.8-.9l-.1 17.9s.7.3 1.9.7z" fill="#fff"/>
        <path d="M285.8 405.9c1.1-.5 1.7-1 1.7-1v-18.1s-.6.5-1.7.9z" fill="#fc6"/>
        <path d="M272.4 402.7h1.3" fill="none" stroke="#000"/>
        <path d="M268 402.7h4.4" fill="none" stroke="#333"/>
        <path d="M266.7 402.7h1.3" fill="none" stroke="#666"/>
        <path d="M272.4 400h1.3" fill="none" stroke="#000"/>
        <path d="M268 400h4.4" fill="none" stroke="#333"/>
        <path d="M266.7 400h1.3" fill="none" stroke="#666"/>
        <path d="M272.4 397.2h1.3" fill="none" stroke="#000"/>
        <path d="M268 397.2h4.4" fill="none" stroke="#333"/>
        <path d="M266.7 397.2h1.3" fill="none" stroke="#666"/>
        <path d="M272.4 394.5h1.3" fill="none" stroke="#000"/>
        <path d="M268 394.5h4.4" fill="none" stroke="#333"/>
        <path d="M266.7 394.5h1.3" fill="none" stroke="#666"/>
        <path d="M272.4 391.8h1.3" fill="none" stroke="#000"/>
        <path d="M268 391.8h4.4" fill="none" stroke="#333"/>
        <path d="M266.7 391.8h1.3" fill="none" stroke="#666"/>
        <path d="M284.2 402.7h1.3" fill="none" stroke="#000"/>
        <path d="M279.8 402.7h4.4" fill="none" stroke="#333"/>
        <path d="M278.5 402.7h1.3" fill="none" stroke="#666"/>
        <path d="M284.2 400h1.3" fill="none" stroke="#000"/>
        <path d="M279.8 400h4.4" fill="none" stroke="#333"/>
        <path d="M278.5 400h1.3" fill="none" stroke="#666"/>
        <path d="M284.2 397.2h1.3" fill="none" stroke="#000"/>
        <path d="M279.8 397.2h4.4" fill="none" stroke="#333"/>
        <path d="M278.5 397.2h1.3" fill="none" stroke="#666"/>
        <path d="M284.2 394.5h1.3" fill="none" stroke="#000"/>
        <path d="M279.8 394.5h4.4" fill="none" stroke="#333"/>
        <path d="M278.5 394.5h1.3" fill="none" stroke="#666"/>
        <path d="M284.2 391.8h1.3" fill="none" stroke="#000"/>
        <path d="M279.8 391.8h4.4" fill="none" stroke="#333"/>
        <path d="M278.5 391.8h1.3" fill="none" stroke="#666"/>
        <path d="M276 386.8s-2.3 1.7-6 1.7-5.4-1.7-5.4-1.7v18.1s2.1 1.7 5.4 1.7c3.4 0 6-1.7 6-1.7zM276 386.8s2.4 1.7 6.1 1.7c3.6 0 5.4-1.7 5.4-1.7v18.1s-2.1 1.7-5.4 1.7c-3.4 0-6.1-1.7-6.1-1.7z" fill="none" stroke="#000" stroke-linejoin="round"/>
    </g>
</svg>
