<svg xmlns="http://www.w3.org/2000/svg" width="24" height="24">
	<g transform="translate(-264,-386)" id="KDDI_D_123">
		<g>
			<path style="stroke:none; fill:none" d="M 288 409.89L 264 409.89L 264 385.89L 288 385.89L 288 409.89z"/>
		</g>
		<g>
			<path style="stroke:none; fill:#cc9" d="M 286.5 402.39L 284.5 404.39L 280.5 404.39L 278.5 402.39L 278.5 394.897L 281 392.39L 284.5 392.39L 286.5 394.89L 286.5 402.39z"/>
			<path style="stroke:#999; stroke-width:1; stroke-linecap:square; fill:none" d="M 282.5 401.39L 279.5 401.39L 279.5 403.157"/>
			<path style="stroke:none; fill:#999" d="M 280 400.39L 277.5 400.39L 277.5 396.39L 280 396.39L 280 400.39z"/>
			<path style="stroke:none; fill:#cc9" d="M 276 403.39L 270 403.39L 270 395.89L 276 395.89L 276 403.39z"/>
			<path style="stroke:#cc9; stroke-width:1; stroke-linecap:square; fill:none" d="M 267.605 391.39L 274.5 391.39L 276.5 393.39L 276.5 402.418"/>
			<path style="stroke:#999; stroke-width:1; stroke-linecap:square; fill:none" d="M 280.042 393.39L 282.562 393.39"/>
			<path style="stroke:#336; stroke-width:1; stroke-linecap:square; fill:none" d="M 282.5 400.39L 278.5 400.39"/>
			<path style="stroke:#fff; stroke-width:1; stroke-linecap:square; fill:none" d="M 284.5 395.39L 284.5 401.39L 285.5 401.39"/>
			<path style="stroke:#999; stroke-width:1; stroke-linecap:square; fill:none" d="M 283.5 397.39L 283.5 399.39"/>
			<path style="stroke:#336; stroke-width:1; stroke-linecap:square; fill:none" d="M 280 392.89L 278.5 394.39L 278.5 396.39L 277.5 396.39L 277.5 400.39L 278.5 400.39L 278.5 402.39L 280 403.89"/>
			<path style="stroke:#999; stroke-width:1; stroke-linecap:square; fill:none" d="M 278.5 396.403L 282.5 396.403"/>
			<path style="stroke:#cc9; stroke-width:1; fill:#cc9" d="M 268.5 391.39L 266.605 391.39L 264.605 393.39L 264.605 403.39L 266.605 405.39L 268.5 405.39L 270.5 403.39L 270.5 393.39L 268.5 391.39z"/>
			<path style="stroke:#999; stroke-width:1; fill:#999" d="M 274.5 392.39L 269.5 392.39L 270.5 393.39L 270.5 394.39L 275.5 394.39L 275.5 393.39L 274.5 392.39z"/>
			<path style="stroke:#336; stroke-width:1; stroke-linecap:square; fill:none" d="M 270.5 395.39L 276.5 395.39"/>
			<path style="stroke:none; fill:#666" d="M 277 402.89L 271.293 402.89L 268.293 405.89L 274.708 405.89L 276.984 403.558L 277 402.89z"/>
			<path style="stroke:#fff; stroke-width:1; fill:#fff" d="M 268.5 392.39L 269.5 393.39L 269.5 401.39L 268.5 402.39L 266.605 402.39L 265.605 401.39L 265.605 394.39L 267.5 392.39L 268.5 392.39z"/>
			<path style="stroke:none; fill:#999" d="M 269 395.89L 268.203 394.89L 267.203 394.89L 266.105 395.89L 266.105 400.89L 267.203 401.89L 268.203 401.89L 269 400.89L 269 395.89z"/>
			<path style="stroke:#cc9; stroke-width:1; stroke-linecap:square; fill:none" d="M 287.5 396.39L 286.5 396.39"/>
			<path style="stroke:#666; stroke-width:1; fill:none" d="M 280 392.89L 280.5 392.39L 284.5 392.39L 286.5 394.89L 286.5 398.39L 287.5 398.39L 287.5 400.39L 286.5 400.39L 286.5 402.39L 284.5 404.39L 280.5 404.39L 280.04 403.93"/>
			<path style="stroke:#336; stroke-width:1; stroke-linecap:square; fill:none" d="M 286.5 396.39L 286.5 400.39"/>
			<path style="stroke:#336; stroke-width:1; stroke-linecap:square; fill:none" d="M 287.5 397.39L 287.5 399.39"/>
		</g>
	</g>
</svg>
