<svg xmlns="http://www.w3.org/2000/svg" height="24" width="24">
    <g transform="matrix(1,0,0,-1,-264,408)" id="KDDI_D_">        <path d="M284.8 405.6c-1.1.4-2.5-.9-3.2-2-.7-1.1-2.3-3.3-3.2-4.4-.9-1.1-2.7-2.6-3.7-3.2-.9-.5-2.1-.6-2.1-.6s-1.5-3.1-3.5-4.2c-2-1.2-4.4-1.8-4.8-2.6-.3-.8-.5-2.6 1.4-3.2h7.9s7.7 8.5 8.4 8.7c.8.2 0-8.8 0-8.8h1.9s.5 4.7 1.4 6.7c.8 2 2.7 4.3 2.7 7.1 0 2.7-1.2 5.8-3.2 6.5m-4.7-8.2c-3.7-3.7-6.2-2.3-6.2-2.3s1.3.5 2.9 1.4c1.1.6 2.1 1.8 2.5 2.3.9 1 3.2 5.4 4.2 5.2 1.6-.2-1.1-4.2-3.4-6.6z"/>
        <path d="M283.5 404c-1 .2-3.3-4.2-4.2-5.2-.4-.5-1.4-1.7-2.5-2.3-1.6-.9-2.9-1.4-2.9-1.4s2.5-1.4 6.2 2.3c2.3 2.4 5 6.4 3.4 6.6z" fill="#996"/>
        <path d="M286.1 399.4c0-.3-.2-.5-.4-.5-.3 0-.4.2-.4.5v1.8c0 .2.1.4.4.4.2 0 .4-.2.4-.4z" fill="#666"/>
        <path d="M285.7 401.6c-.3 0-.4-.2-.4-.4v-.6h.8v.6c0 .2-.2.4-.4.4z" fill="#999"/>
        <path d="M267.6 391.6s2.1.8 2.8.8c.6-.1.9-.5.9-1.2.1-.6-.4-1-1.2-1-.5 0-2.4.6-2.4.6z" fill="#900"/>
        <path d="M267.5 391.7s-1 1.8-1.1 2.6c0 .6.5 1.1 1.1 1.2.7 0 1.2-.3 1.1-1.2 0-.4-.2-2.5-.2-2.5z" fill="#900"/>
        <path d="M267.5 392.1l-.7-3.5h1.9l-.6 3.3z" fill="#900"/>
        <path d="M267.3 391.7l-2.9.6v-2.2l3 .8z" fill="#900"/>
        <path d="M267.5 392.1s2.1.8 2.7.8c.6-.1.9-.5.9-1.2.1-.6-.4-1-1.2-1-.5 0-2.3.6-2.3.6z" fill="red"/>
        <path d="M266.9 391.7s-1 1.9-1 2.7c-.1.6.4 1.1 1.1 1.2.6 0 1.1-.4 1.1-1.2-.1-.5-.3-2.5-.3-2.5z" fill="red"/>
        <path d="M267 392.2l-.7-3.5h1.9l-.6 3.3z" fill="red"/>
        <path d="M267.1 392.2l-2.8.6v-2.2l3 .8z" fill="red"/>
    </g>
</svg>
