<svg xmlns="http://www.w3.org/2000/svg" height="24" width="24">
	<g transform="matrix(1,0,0,-1,-264,408)" id="KDDI_D_125">
        <path d="M274.7 402.9l-5.1-5.1h7.9v5z" fill="#9cf"/>
        <path d="M273.7 402.1l3.6-3.6-.2-.6-1.1-.1-3.1 3.2z" fill="#fff"/>
        <path d="M273.8 402.9l-.3-.7h4.1l-.1.6z" fill="#69c"/>
        <path d="M277.5 402.8v-5.2l8.2-.1-4.4 5.3z" fill="#9cf"/>
        <path d="M278.4 403.3l5.8-5.7-2.1.1-4.5 4.6z" fill="#fff"/>
        <path d="M277.5 402.8v-5.2h1.4v4.6h3.3l.1.6z" fill="#69c"/>
        <path d="M274.8 403.3l-5.9-6M281.2 403.3l4.8-5.7" fill="none" stroke="#369"/>
        <path d="M288 392.2c0-1.7-1.3-3-3-3h-18c-1.7 0-3 1.3-3 3v1.8c0 1.7 1.8 4 3.4 4h18.4c1.7 0 2.2-1.3 2.2-3z" fill="red"/>
        <path d="M264 393.4v-1.2c0-1.7 1.3-3 3-3h18c1.7 0 3 1.3 3 3v1.2z" fill="#c00"/>
        <path d="M285.3 390.2h-18.6c-1.1 0-2 .4-2.6 1.2.4-1.3 1.5-2.2 2.9-2.2h18c1.4 0 2.5.9 2.9 2.2-.6-.8-1.5-1.2-2.6-1.2z" fill="#900"/>
        <path d="M287.2 395.6c0-.7-.6-1.2-1.2-1.2h-18.6c-.6 0-1.1.5-1.1 1.2 0 .6.5 1.2 1.1 1.2H286c.6 0 1.2-.6 1.2-1.2z" fill="#f66"/>
        <path d="M266.3 395.4c.1-.6.6-1 1.1-1H286c.6 0 1 .4 1.1 1z" fill="#f99"/>
        <path d="M277.5 394.8v-5.6" fill="none" stroke="#900"/>
        <path d="M277.5 398.1v-3.5" fill="none" stroke="#c00"/>
        <path d="M277.5 403v-5" fill="none" stroke="red" stroke-width="1.3"/>
        <path d="M274.3 396.4h1.5M282.4 396.4h1.5" fill="none" stroke="#333" stroke-width="1.3" stroke-linecap="round"/>
        <path d="M266.1 392.5H264v.9h2.1z" fill="#999"/>
        <path d="M266.1 391.6H264v.9h2.1zM288 393.1h-1.1v.9h1.1z"/>
        <path d="M288 392.1h-1.1v.9h1.1z" fill="#f60"/>
        <path d="M273.6 402.8h8.8l-1 1h-6.8z" fill="red"/>
        <path d="M268 396.8c0 .1-.1.1-.3.2.3-.5 0-1.2-.8-1.8-.6-.4-1.2-.6-1.6-.4.3-.5 1.2-.4 1.9.2.8.5 1.2 1.3.8 1.8z" fill="#666"/>
        <path d="M266.9 395.2c.8.6 1.1 1.3.8 1.8-.4.1-1-.1-1.6-.5-.7-.5-1.1-1.3-.8-1.7.4-.2 1 0 1.6.4z" fill="#ccc"/>
        <path d="M267.5 396.5c.3-.3 0-.8-.5-1.2-.5-.5-1.1-.6-1.4-.3-.2.3.1.9.6 1.3s1.1.5 1.3.2z" fill="#fff"/>
        <path d="M274.2 390.1c0-1.5-1.5-2.8-3.4-2.8-1.8 0-3.3 1.3-3.3 2.8 0 1.6 1.5 2.8 3.3 2.8 1.9 0 3.4-1.2 3.4-2.8z"/>
        <path d="M272.7 390.1c0-.8-.8-1.5-1.9-1.5-1 0-1.8.7-1.8 1.5 0 .9.8 1.6 1.8 1.6 1.1 0 1.9-.7 1.9-1.6z" fill="#666"/>
        <path d="M271.4 391.1c.4 0 .8-.1 1.1-.3-.3.5-.9.9-1.7.9-1 0-1.8-.7-1.8-1.6 0-.5.3-.9.8-1.2-.1.2-.2.4-.2.6 0 .9.8 1.6 1.8 1.6z" fill="#99c"/>
        <path d="M270.6 391c.1-.2 0-.5-.3-.6-.3-.2-.6-.1-.7.1-.1.2 0 .4.3.6.2.2.6.1.7-.1z" fill="#ccc"/>
        <path d="M285.8 390.1c0-1.5-1.5-2.8-3.3-2.8-1.9 0-3.4 1.3-3.4 2.8 0 1.6 1.5 2.8 3.4 2.8 1.8 0 3.3-1.2 3.3-2.8z"/>
        <path d="M284.3 390.1c0-.8-.8-1.5-1.8-1.5s-1.9.7-1.9 1.5c0 .9.9 1.6 1.9 1.6 1 0 1.8-.7 1.8-1.6z" fill="#666"/>
        <path d="M283.1 391.1c.4 0 .7-.1 1-.3-.3.5-.9.9-1.6.9-1 0-1.9-.7-1.9-1.6 0-.5.4-.9.8-1.2-.1.2-.2.4-.2.6 0 .9.9 1.6 1.9 1.6z" fill="#99c"/>
        <path d="M282.2 391c.1-.2 0-.5-.3-.6-.3-.2-.6-.1-.7.1-.1.2 0 .4.3.6.3.2.6.1.7-.1z" fill="#ccc"/>
    </g>
</svg>
