<svg xmlns="http://www.w3.org/2000/svg" width="24" height="24">
	<g transform="translate(-264,-386)" id="KDDI_D_126">
		<g>
			<path style="stroke:none; fill:none" d="M 288 409.89L 264 409.89L 264 385.89L 288 385.89L 288 409.89z"/>
		</g>
		<g>
			<path style="stroke:none; fill:#f06" d="M 287.5 389.89L 287.5 409.39L 264.5 409.39L 264.5 386.39L 284 386.39L 287.5 389.89z"/>
			<path style="stroke:none; fill:#000" d="M 264 385.89L 264 409.89L 288 409.89L 288 389.683L 284.207 385.89L 264 385.89zM 283.793 386.89C 284.05 387.147 286.743 389.84 287 390.097C 287 390.492 287 407.951 287 408.89C 286.065 408.89 265.935 408.89 265 408.89C 265 407.954 265 387.825 265 386.89C 265.939 386.89 283.398 386.89 283.793 386.89z"/>
			<path style="stroke:none; fill:#f69" d="M 265 397.89C 265 403.955 269.935 408.89 276 408.89C 282.065 408.89 287 403.955 287 397.89C 287 391.824 282.065 386.89 276 386.89C 269.935 386.89 265 391.824 265 397.89z"/>
			<path style="stroke:none; fill:#c06" d="M 272 397.89C 272 400.095 273.794 401.89 276 401.89C 278.206 401.89 280 400.095 280 397.89C 280 395.684 278.206 393.89 276 393.89C 273.794 393.89 272 395.684 272 397.89z"/>
			<path style="stroke:none; fill:#f36" d="M 274 397.89C 274 398.993 274.897 399.89 276 399.89C 277.103 399.89 278 398.993 278 397.89C 278 396.787 277.103 395.89 276 395.89C 274.897 395.89 274 396.787 274 397.89z"/>
			<path style="stroke:none; fill:#cc9" d="M 282 396.39L 270.5 396.39L 269.5 395.39L 269.5 386.89L 282 386.89L 282 396.39z"/>
			<path style="stroke:none; fill:#000" d="M 266 404.39L 266 407.89L 268 407.89L 268 404.39L 266 404.39z"/>
			<path style="stroke:none; fill:#000" d="M 284 404.39L 284 407.89L 286 407.89L 286 404.39L 284 404.39z"/>
			<path style="stroke:none; fill:#606" d="M 277 386.89L 277 393.39L 278 393.39L 278 386.89L 277 386.89z"/>
			<path style="stroke:none; fill:#f69" d="M 278 386.89L 278 393.39L 280 393.39L 280 386.89L 278 386.89z"/>
			<path style="stroke:none; fill:#fff" d="M 269.235 386.655L 279.235 396.655L 279.765 396.125L 269.765 386.125L 269.235 386.655z"/>
			<path style="stroke:none; fill:#fff" d="M 269.235 388.655L 277.235 396.655L 277.765 396.125L 269.765 388.125L 269.235 388.655z"/>
			<path style="stroke:none; fill:#606" d="M 281.5 395.89L 270 395.89L 270 386.39L 269 386.39L 269 395.39L 270.5 396.89L 282 396.89L 282 395.89L 281.5 395.89z"/>
			<path style="stroke:none; fill:#666" d="M 264 385.89L 264 409.89L 265 408.907C 265 408.907 265 387.847 265 386.89C 265.939 386.89 283.793 386.89 283.793 386.89L 284.207 385.89L 264 385.89z"/>
			<path style="stroke:none; fill:#606" d="M 266 404.39L 266 406.89L 267 406.89L 267 404.39L 266 404.39z"/>
			<path style="stroke:none; fill:#606" d="M 284 404.39L 284 406.89L 285 406.89L 285 404.39L 284 404.39z"/>
		</g>
	</g>
</svg>
