<svg xmlns="http://www.w3.org/2000/svg" width="24" height="24">
	<g transform="translate(-264,-386)" id="KDDI_D_127">
		<g>
			<path style="stroke:none; fill:none" d="M 288 409.89L 264 409.89L 264 385.89L 288 385.89L 288 409.89z"/>
		</g>
		<g>
			<path style="stroke:none; fill:#ff9" d="M 287.5 408.39L 265.5 408.39L 265.5 386.39L 287.5 386.39L 287.5 408.39z"/>
			<path style="stroke:#f90; stroke-width:1; stroke-linecap:square; fill:none" d="M 266 386.39L 287.5 386.39L 287.5 407.89"/>
			<path style="stroke:#396; stroke-width:1; fill:none" d="M 269.5 393.39L 269.5 407.89"/>
			<path style="stroke:#060; stroke-width:1; fill:none" d="M 270.5 393.39L 270.5 407.89"/>
			<path style="stroke:#030; stroke-width:1; fill:none" d="M 271.438 393.39L 271.438 407.89"/>
			<path style="stroke:#f66; stroke-width:1; fill:none" d="M 275.5 398.89L 275.5 407.89"/>
			<path style="stroke:#f00; stroke-width:1; fill:none" d="M 276.5 398.89L 276.5 407.89"/>
			<path style="stroke:#c00; stroke-width:1; fill:none" d="M 277.5 398.89L 277.5 407.89"/>
			<path style="stroke:#c6f; stroke-width:1; fill:none" d="M 281.5 390.39L 281.5 407.89"/>
			<path style="stroke:#90f; stroke-width:1; fill:none" d="M 282.5 390.39L 282.5 407.89"/>
			<path style="stroke:#609; stroke-width:1; fill:none" d="M 283.5 390.39L 283.5 407.89"/>
			<path style="stroke:#666; stroke-width:1; fill:none" d="M 264 386.39L 265 386.39"/>
			<path style="stroke:#666; stroke-width:1; fill:none" d="M 264 388.39L 265 388.39"/>
			<path style="stroke:#666; stroke-width:1; fill:none" d="M 264 390.39L 265 390.39"/>
			<path style="stroke:#666; stroke-width:1; fill:none" d="M 264 392.39L 265 392.39"/>
			<path style="stroke:#666; stroke-width:1; fill:none" d="M 264 394.39L 265 394.39"/>
			<path style="stroke:#666; stroke-width:1; fill:none" d="M 264 396.39L 265 396.39"/>
			<path style="stroke:#666; stroke-width:1; fill:none" d="M 264 398.39L 265 398.39"/>
			<path style="stroke:#666; stroke-width:1; fill:none" d="M 264 400.39L 265 400.39"/>
			<path style="stroke:#666; stroke-width:1; fill:none" d="M 264 402.39L 265 402.39"/>
			<path style="stroke:#666; stroke-width:1; fill:none" d="M 264 404.39L 265 404.39"/>
			<path style="stroke:#666; stroke-width:1; fill:none" d="M 264 406.39L 265 406.39"/>
			<path style="stroke:#666; stroke-width:1; fill:none" d="M 264 408.39L 265 408.39"/>
			<path style="stroke:#666; stroke-width:1; fill:none" d="M 265.5 409.89L 265.5 408.89"/>
			<path style="stroke:#666; stroke-width:1; fill:none" d="M 267.5 409.89L 267.5 408.89"/>
			<path style="stroke:#666; stroke-width:1; fill:none" d="M 269.5 409.89L 269.5 408.89"/>
			<path style="stroke:#666; stroke-width:1; fill:none" d="M 271.5 409.89L 271.5 408.89"/>
			<path style="stroke:#666; stroke-width:1; fill:none" d="M 273.5 409.89L 273.5 408.89"/>
			<path style="stroke:#666; stroke-width:1; fill:none" d="M 275.5 409.89L 275.5 408.89"/>
			<path style="stroke:#666; stroke-width:1; fill:none" d="M 277.5 409.89L 277.5 408.89"/>
			<path style="stroke:#666; stroke-width:1; fill:none" d="M 279.5 409.89L 279.5 408.89"/>
			<path style="stroke:#666; stroke-width:1; fill:none" d="M 281.5 409.89L 281.5 408.89"/>
			<path style="stroke:#666; stroke-width:1; fill:none" d="M 283.5 409.89L 283.5 408.89"/>
			<path style="stroke:#666; stroke-width:1; fill:none" d="M 285.5 409.89L 285.5 408.89"/>
			<path style="stroke:#666; stroke-width:1; fill:none" d="M 287.5 409.89L 287.5 408.89"/>
			<path style="stroke:#000; stroke-width:1; stroke-linecap:square; fill:none" d="M 265.5 386.39L 265.5 408.39L 287.5 408.39"/>
		</g>
	</g>
</svg>
