<svg xmlns="http://www.w3.org/2000/svg" width="24" height="24">
	<g transform="translate(-264,-386)" id="KDDI_D_128">
		<g>
			<path style="stroke:none; fill:none" d="M 288 409.89L 264 409.89L 264 385.89L 288 385.89L 288 409.89z"/>
		</g>
		<g>
			<path style="stroke:none; fill:#ff9" d="M 287.5 408.39L 265.5 408.39L 265.5 386.39L 287.5 386.39L 287.5 408.39z"/>
			<path style="stroke:#f96; stroke-width:0.8; fill:none" d="M 265.5 404.89L 271.5 398.89L 276 403.39L 287.5 391.89"/>
			<path style="stroke:#666; stroke-width:1; fill:none" d="M 264 386.39L 265 386.39"/>
			<path style="stroke:#666; stroke-width:1; fill:none" d="M 264 388.39L 265 388.39"/>
			<path style="stroke:#666; stroke-width:1; fill:none" d="M 264 390.39L 265 390.39"/>
			<path style="stroke:#666; stroke-width:1; fill:none" d="M 264 392.39L 265 392.39"/>
			<path style="stroke:#666; stroke-width:1; fill:none" d="M 264 394.39L 265 394.39"/>
			<path style="stroke:#666; stroke-width:1; fill:none" d="M 264 396.39L 265 396.39"/>
			<path style="stroke:#666; stroke-width:1; fill:none" d="M 264 398.39L 265 398.39"/>
			<path style="stroke:#666; stroke-width:1; fill:none" d="M 264 400.39L 265 400.39"/>
			<path style="stroke:#666; stroke-width:1; fill:none" d="M 264 402.39L 265 402.39"/>
			<path style="stroke:#666; stroke-width:1; fill:none" d="M 264 404.39L 265 404.39"/>
			<path style="stroke:#666; stroke-width:1; fill:none" d="M 264 406.39L 265 406.39"/>
			<path style="stroke:#666; stroke-width:1; fill:none" d="M 264 408.39L 265 408.39"/>
			<path style="stroke:#666; stroke-width:1; fill:none" d="M 265.5 409.89L 265.5 408.89"/>
			<path style="stroke:#f96; stroke-width:1; fill:none" d="M 271.212 398.602L 275.735 403.125"/>
			<path style="stroke:#666; stroke-width:1; fill:none" d="M 267.5 409.89L 267.5 408.89"/>
			<path style="stroke:#666; stroke-width:1; fill:none" d="M 269.5 409.89L 269.5 408.89"/>
			<path style="stroke:#666; stroke-width:1; fill:none" d="M 271.5 409.89L 271.5 408.89"/>
			<path style="stroke:#666; stroke-width:1; fill:none" d="M 273.5 409.89L 273.5 408.89"/>
			<path style="stroke:#666; stroke-width:1; fill:none" d="M 275.5 409.89L 275.5 408.89"/>
			<path style="stroke:#666; stroke-width:1; fill:none" d="M 277.5 409.89L 277.5 408.89"/>
			<path style="stroke:#666; stroke-width:1; fill:none" d="M 279.5 409.89L 279.5 408.89"/>
			<path style="stroke:#666; stroke-width:1; fill:none" d="M 281.5 409.89L 281.5 408.89"/>
			<path style="stroke:#666; stroke-width:1; fill:none" d="M 283.5 409.89L 283.5 408.89"/>
			<path style="stroke:#666; stroke-width:1; fill:none" d="M 285.5 409.89L 285.5 408.89"/>
			<path style="stroke:#666; stroke-width:1; fill:none" d="M 287.5 409.89L 287.5 408.89"/>
			<path style="stroke:#f00; stroke-width:0.5; stroke-linecap:square; fill:none" d="M 265.5 405.39L 271.5 399.39L 275.5 403.39L 287.5 391.376"/>
			<path style="stroke:#f90; stroke-width:1; stroke-linecap:square; fill:none" d="M 266 386.39L 287.5 386.39L 287.5 407.89"/>
			<path style="stroke:#000; stroke-width:1; stroke-linecap:square; fill:none" d="M 265.5 386.39L 265.5 408.39L 287.5 408.39"/>
		</g>
	</g>
</svg>
