<svg xmlns="http://www.w3.org/2000/svg" height="24" width="24">
	<g transform="matrix(1,0,0,-1,-264,408)" id="KDDI_D_129">
        <path d="M282.1 407.4H269.9v-16.2h6.7v-.1h11v10.8c0 3.1-2.4 5.5-5.5 5.5z" fill="red"/>
        <path d="M275.5 391.1h-11v10.8c0 3.1 2.4 5.5 5.5 5.5 3 0 5.5-2.4 5.5-5.5z" fill="red"/>
        <path d="M287.4 401.4h-11.9v-9.9h11.9z" fill="#c00"/>
        <path d="M272.5 407.2l.9-.8 1.7-2h11.7l-1.6 1.9-2.3.8-10.4.1" fill="#f33"/>
        <path d="M273.9 405.8h11.8" fill="none" stroke="#f66"/>
        <path d="M266.6 400h6.7M266.6 397.6h6.7M268.9 397.6v-3.7" fill="none" stroke="#f99" stroke-width="1.3"/>
        <path d="M266.6 401.1h6.7M266.6 398.8h6.7M269.9 398.8v-4.9" fill="none" stroke="#fff" stroke-width="1.3"/>
        <path d="M278.2 384h-4.4v7.3h4.4z" fill="#c60"/>
        <path d="M278.2 384h-1v5.5h-2.4v1.8h3.4z" fill="#630"/>
        <path d="M274.8 384h-1v7.3h1z" fill="#c93"/>
        <path d="M269.9 391.2h6.7v-.1h11v10.8c0 3.1-2.4 5.5-5.5 5.5H269.9" fill="none" stroke="#000"/>
        <path d="M275.5 391.1h-11v10.8c0 3.1 2.4 5.5 5.5 5.5 3 0 5.5-2.4 5.5-5.5z" fill="none" stroke="#000"/>
    </g>
</svg>
