<svg xmlns="http://www.w3.org/2000/svg" width="24" height="24">
	<g transform="translate(-264,-386)" id="KDDI_D_130">
		<g>
			<path style="stroke:none; fill:#999" d="M 284 393.39L 275.175 393.39C 274.426 392.77 273.506 392.39 272.5 392.39C 272.156 392.39 269 392.39 269 392.39L 269 402.39C 269 402.39 272.155 402.39 272.5 402.39C 273.506 402.39 274.426 402.01 275.175 401.39L 284 401.39C 285 401.39 287.5 400.89 287.5 397.39C 287.5 393.89 285 393.39 284 393.39z"/>
			<path style="stroke:none; fill:#ccc" d="M 272.5 392.39C 272.156 392.39 269 392.39 269 392.39L 269 395.89L 287.307 395.89C 286.706 393.744 284.834 393.39 284 393.39L 275.175 393.39C 274.426 392.77 273.506 392.39 272.5 392.39z"/>
			<path style="stroke:none; fill:#666" d="M 269 398.89L 269 402.39C 269 402.39 272.155 402.39 272.5 402.39C 273.506 402.39 274.426 402.01 275.175 401.39L 284 401.39C 284.834 401.39 286.706 401.035 287.307 398.89L 269 398.89z"/>
			<path style="stroke:none; fill:#f60" d="M 264 391.405L 266.97 393.905L 267.5 393.375L 265.015 390.39L 264 391.405z"/>
			<path style="stroke:none; fill:#f60" d="M 264.03 386.92L 269.5 392.89L 270.03 392.359L 265.03 385.92L 264.03 386.92z"/>
			<path style="stroke:none; fill:#f60" d="M 264 403.405L 266.97 400.905L 267.5 401.435L 265.015 404.42L 264 403.405z"/>
			<path style="stroke:none; fill:#f60" d="M 264.03 407.89L 269.5 401.92L 270.03 402.45L 265.03 408.89L 264.03 407.89z"/>
			<path style="stroke:none; fill:#f93" d="M 273.5 397.39C 273.5 400.151 271.485 402.39 269 402.39C 266.515 402.39 264.5 400.151 264.5 397.39C 264.5 394.628 266.515 392.39 269 392.39C 271.485 392.39 273.5 394.628 273.5 397.39z"/>
			<path style="stroke:none; fill:#fc6" d="M 268.25 392.474C 266.124 392.872 264.5 394.914 264.5 397.39C 264.5 399.866 266.124 401.907 268.25 402.306C 270.5 402.306 272.5 399.866 272.5 397.39C 272.5 394.914 270.5 392.474 268.25 392.474z"/>
			<path style="stroke:#000; stroke-width:1; fill:none" d="M 273.5 397.39C 273.5 400.151 271.485 402.39 269 402.39C 266.515 402.39 264.5 400.151 264.5 397.39C 264.5 394.628 266.515 392.39 269 392.39C 271.485 392.39 273.5 394.628 273.5 397.39z"/>
			<path style="stroke:none; fill:#ff9" d="M 271 397.39C 271 399.323 269.657 400.89 268 400.89C 266.343 400.89 265 399.323 265 397.39C 265 395.457 266.343 393.89 268 393.89C 269.657 393.89 271 395.457 271 397.39z"/>
			<path style="stroke:none; fill:#ccc" d="M 271 397.39C 271 397.942 270.552 398.39 270 398.39C 269.448 398.39 269 397.942 269 397.39C 269 396.838 269.448 396.39 270 396.39C 270.552 396.39 271 396.838 271 397.39z"/>
			<path style="stroke:none; fill:#ff6100" d="M 272.8 397.39C 272.8 397.832 272.442 398.19 272 398.19C 271.558 398.19 271.2 397.832 271.2 397.39C 271.2 396.948 271.558 396.589 272 396.589C 272.442 396.589 272.8 396.948 272.8 397.39z"/>
			<path style="stroke:#000; stroke-width:1; fill:none" d="M 269 392.39C 269 392.39 272.156 392.39 272.5 392.39C 274.985 392.39 277 394.628 277 397.39C 277 400.151 274.985 402.39 272.5 402.39C 272.155 402.39 269 402.39 269 402.39"/>
			<path style="stroke:#000; stroke-width:1; fill:none" d="M 275 393.39L 284 393.39C 285 393.39 287.5 393.89 287.5 397.39C 287.5 400.89 285 401.39 284 401.39L 275 401.39"/>
			<path style="stroke:#000; stroke-width:1; fill:none" d="M 281 393.39C 282 393.39 284.5 393.89 284.5 397.39C 284.5 400.89 282 401.39 281 401.39"/>
		</g>
	</g>
</svg>
