<svg xmlns="http://www.w3.org/2000/svg" width="24" height="24">
	<g transform="translate(-264,-386)" id="KDDI_D_131">
		<g>
			<path style="stroke:none; fill:none" d="M 288 409.89L 264 409.89L 264 385.89L 288 385.89L 288 409.89z"/>
		</g>
		<g>
			<path style="stroke:#666; stroke-width:1; fill:none" d="M 264.5 392.89L 264.5 399.89"/>
			<path style="stroke:#33f; stroke-width:5; fill:none" d="M 267.5 394.017L 267.5 398.89"/>
			<path style="stroke:#3cf; stroke-width:1; fill:none" d="M 265 395.39L 269.5 395.39"/>
			<path style="stroke:#000; stroke-width:1; fill:none" d="M 269.5 398.89L 269.5 396.89"/>
			<path style="stroke:#336; stroke-width:1; fill:none" d="M 269.5 395.89L 269.5 396.89"/>
			<path style="stroke:#336; stroke-width:1; fill:none" d="M 264.5 398.89L 264.5 399.89"/>
			<path style="stroke:#336; stroke-width:1; fill:none" d="M 264.5 392.89L 264.5 393.89"/>
			<path style="stroke:#999; stroke-width:1; fill:none" d="M 264.5 394.89L 264.5 395.89"/>
			<path style="stroke:#666; stroke-width:1; fill:none" d="M 287.5 392.89L 287.5 399.89"/>
			<path style="stroke:#33f; stroke-width:5; fill:none" d="M 284.5 394.017L 284.5 398.89"/>
			<path style="stroke:#3cf; stroke-width:1; fill:none" d="M 287 395.39L 282.5 395.39"/>
			<path style="stroke:#000; stroke-width:1; stroke-linecap:square; fill:none" d="M 283.5 399.39L 285 399.39L 287.5 408.39C 287.5 408.94 287.05 409.39 286.5 409.39L 265.5 409.39C 264.95 409.39 264.5 408.94 264.5 408.39L 267 399.39L 268.5 399.39"/>
			<path style="stroke:#000; stroke-width:1; fill:none" d="M 282.5 398.89L 282.5 396.89"/>
			<path style="stroke:#336; stroke-width:1; fill:none" d="M 282.5 395.89L 282.5 396.89"/>
			<path style="stroke:#336; stroke-width:1; fill:none" d="M 287.5 398.89L 287.5 399.89"/>
			<path style="stroke:#336; stroke-width:1; fill:none" d="M 287.5 392.89L 287.5 393.89"/>
			<path style="stroke:#999; stroke-width:1; fill:none" d="M 287.5 394.89L 287.5 395.89"/>
			<path style="stroke:none; fill:#fc6" d="M 281.5 403.39L 270.5 403.39L 270.5 386.39L 281.5 386.39L 281.5 403.39z"/>
			<path style="stroke:#666; stroke-width:1; fill:none" d="M 281.5 403.39L 270.5 403.39L 270.5 386.39L 281.5 386.39L 281.5 403.39z"/>
			<path style="stroke:#960; stroke-width:1; stroke-linecap:square; fill:none" d="M 270.5 404.39L 281.5 404.39"/>
			<path style="stroke:#6c0; stroke-width:1; stroke-linecap:square; fill:none" d="M 270.5 405.39L 281.5 405.39"/>
			<path style="stroke:#666; stroke-width:1; stroke-linecap:square; fill:none" d="M 270.5 406.39L 281.5 406.39"/>
			<path style="stroke:#960; stroke-width:1; stroke-linecap:square; fill:none" d="M 270.5 407.39L 281.5 407.39"/>
			<path style="stroke:#666; stroke-width:1; stroke-linecap:square; fill:none" d="M 270.5 408.39L 281.5 408.39"/>
			<path style="stroke:#6c0; stroke-width:1; stroke-linecap:square; fill:none" d="M 272.5 406.39L 274.5 406.39"/>
			<path style="stroke:#6c0; stroke-width:1; stroke-linecap:square; fill:none" d="M 272.5 407.39L 274.5 407.39"/>
			<path style="stroke:#960; stroke-width:1; stroke-linecap:square; fill:none" d="M 272.5 408.39L 274.5 408.39"/>
			<path style="stroke:#666; stroke-width:1; fill:none" d="M 269.5 395.89L 269.5 394.39L 282.5 394.39L 282.5 395.89"/>
			<path style="stroke:#2f2fff; stroke-width:1; fill:none" d="M 274.5 392.89L 274.5 395.89"/>
			<path style="stroke:#3cf; stroke-width:1; fill:none" d="M 274 394.39L 275 394.39"/>
			<path style="stroke:#666; stroke-width:0.75; fill:none" d="M 272.5 388.89L 272.5 389.392"/>
			<path style="stroke:#666; stroke-width:0.75; fill:none" d="M 274.5 388.89L 274.5 389.392"/>
			<path style="stroke:#666; stroke-width:0.75; fill:none" d="M 276.5 388.89L 276.5 389.392"/>
			<path style="stroke:#666; stroke-width:0.75; fill:none" d="M 278.5 388.89L 278.5 389.392"/>
			<path style="stroke:#666; stroke-width:0.75; fill:none" d="M 272.5 398.921L 272.5 399.423"/>
			<path style="stroke:#666; stroke-width:0.75; fill:none" d="M 274.5 398.921L 274.5 399.423"/>
			<path style="stroke:#666; stroke-width:0.75; fill:none" d="M 276.5 398.921L 276.5 399.423"/>
			<path style="stroke:#666; stroke-width:0.75; fill:none" d="M 278.5 398.921L 278.5 399.423"/>
			<path style="stroke:#2f2fff; stroke-width:1; fill:none" d="M 277.5 392.89L 277.5 395.89"/>
			<path style="stroke:#3cf; stroke-width:1; fill:none" d="M 277 394.39L 278 394.39"/>
		</g>
	</g>
</svg>
