<svg xmlns="http://www.w3.org/2000/svg" width="24" height="24">
	<g transform="translate(-264,-386)" id="KDDI_D_132">
		<g>
			<path style="stroke:none; fill:none" d="M 288 409.89L 264 409.89L 264 385.89L 288 385.89L 288 409.89z"/>
		</g>
		<g>
			<path style="stroke:#f00; stroke-width:0.75; fill:#f00" d="M 264.54 399.43L 272.5 407.39L 274.5 407.39L 287.5 390.89L 287.5 388.39L 273.5 402.959L 267.25 396.626L 264.54 399.43z"/>
			<path style="stroke:#f00; stroke-width:0.75; fill:none" d="M 287.5 388.39L 273.5 402.959"/>
			<path style="stroke:none; fill:#f66" d="M 287.359 390.827C 287.253 390.962 274.577 407.079 274.43 407.267C 274.242 407.267 273.197 407.267 273.197 407.267L 273.197 407.767L 274.672 407.767L 287.859 391.017L 287.859 387.48C 287.859 387.48 287.359 390.669 287.359 390.827z"/>
			<path style="stroke:none; fill:#f66" d="M 266.894 396.446L 273.514 403.144L 273.5 402.423L 267.25 396.095L 266.894 396.446z"/>
			<path style="stroke:none; fill:#c00" d="M 264.385 399.069L 272.551 407.267L 274.43 407.267L 274.188 406.767L 272.764 406.773L 264.738 398.716L 264.385 399.069z"/>
			<path style="stroke:none; fill:#900" d="M 264.031 399.423L 272.344 407.767L 274.672 407.767L 274.43 407.267C 274.43 407.267 272.717 407.267 272.551 407.267C 272.407 407.123 264.385 399.069 264.385 399.069L 264.031 399.423z"/>
		</g>
	</g>
</svg>
