<svg xmlns="http://www.w3.org/2000/svg" height="24" width="24">
	<g transform="matrix(1,0,0,-1,-264,408)" id="KDDI_D_133">
        <path d="M273.6 403.1c.4 2.1 2.4 4.1 2.4 4.1s2.1-2.3 2.4-4.1c.4-1.8 0-4.6 0-4.6s1.2 1.9 3.3 3c1.4.8 5.7 1.4 5.7 1.4s-.7-3.8-2.1-5.4c-1.5-1.7-5.1-2.8-5.1-2.8s2.1-1 3.3-2.6c1.3-1.8 2.6-6.3 2.6-6.3s-3.8.6-6.3 2.1c-2.1 1.4-3.8 3-3.8 3s-1.5-1.6-3.7-3c-2-1.2-6.3-2.1-6.3-2.1s1.2 4.5 2.5 6.3c1.3 1.6 3.4 2.6 3.4 2.6s-3.7 1.1-5.1 2.8c-1.4 1.6-2.2 5.4-2.2 5.4s4.4-.6 5.8-1.4c2.1-1.1 3.2-3 3.2-3s-.4 2.5 0 4.6z" fill="#c00"/>
        <path d="M276 400.6l1.2-4.1 4.2 2-3.1-3.9 2.3-4-4.6 2-5-2.2 3 4.2-4.3 4.2 5.1-2.2z" fill="#f30"/>
        <path d="M276 397.5l.7-1.7 1.5.2-1-1.2.6-1.8-1.8.7-1.5-.7.3 1.8-1.1 1.1 1.6-.1z" fill="#f60"/>
        <path d="M276.5 395.6l.3-.7-.8-.8-.8.8.3.7z" fill="#fc0"/>
        <path d="M273.8 392.9l-7.4-6.6M285.7 386.1l-6.9 6.1M279.5 397.1l7.5 5.5M276 398.4v8.6M272.7 396.7l-7.7 5.9" fill="none" stroke="#f30"/>
        <path d="M275.6 390.5V384" fill="none" stroke="#900" stroke-width="1.2"/>
        <path d="M276.5 390.4V384" fill="none" stroke="#600"/>
        <path d="M273.6 403.1c.4 2.1 2.4 4.1 2.4 4.1s2.1-2.3 2.4-4.1c.4-1.8 0-4.6 0-4.6s1.2 1.9 3.3 3c1.4.8 5.7 1.4 5.7 1.4s-.7-3.8-2.1-5.4c-1.5-1.7-5.1-2.8-5.1-2.8s2.1-1 3.3-2.6c1.3-1.8 2.6-6.3 2.6-6.3s-3.8.6-6.3 2.1c-2.1 1.4-3.8 3-3.8 3s-1.5-1.6-3.7-3c-2-1.2-6.3-2.1-6.3-2.1s1.2 4.5 2.5 6.3c1.3 1.6 3.4 2.6 3.4 2.6s-3.7 1.1-5.1 2.8c-1.4 1.6-2.2 5.4-2.2 5.4s4.4-.6 5.8-1.4c2.1-1.1 3.2-3 3.2-3s-.4 2.5 0 4.6z" fill="none" stroke="#900"/>
    </g>
</svg>
