<svg xmlns="http://www.w3.org/2000/svg" height="24" width="24">
    <g transform="matrix(1,0,0,-1,-264,408)" id="KDDI_D_">
	<path d="M284.6 406.8c0-2.8.1-11 .1-12.8 0-3.2-2.7-6.1-4.4-7.4 0 0-2.5-2.1-4.3-2.1-1.7 0-3.2 1.3-4.3 2.1-1.7 1.3-4.4 4.2-4.4 7.4 0 1.8.1 10.2.1 12.8 0 2.7 5.4-3.6 5.4-3.6h6.4s5.4 6.5 5.4 3.6z" fill="#fc6"/>
        <path d="M270.5 403s-1.5-8.8-1.2-9.8c.2-1 2.4-5.5 4.4-6.8.2-.1.2 1.9.1 3.9 0 1.9-1.5 5.1-1.5 6 0 6.3 2.4 6.8 2.4 6.8z" fill="#ff3"/>
        <path d="M267.6 401.8s-.2-7.9.1-8.9c.2-1 1.7-4.2 3.6-5.6 2-1.3 2.1-1.5 2.4-.9.2.6-1.4 1.8-1.9 2.9-.9 2-1.1 5-1.1 6.7 0 3.3.1 6.8.1 6.8z" fill="#ff9"/>
        <path d="M284.3 400.8s.3-6.9 0-7.9c-.2-1-1.7-4.9-3.6-6.2-1.9-1.3-3.6-1.9-4.7-1.9s-.9.7-.7 1c.3.4 3.8 1.3 4.8 2.5 1.4 1.8 1.3 6.5 1.2 7.7v6.7z" fill="#f93"/>
        <path d="M269.8 401.9c-1.7-.9-2.4-2-2.4-2v6.9c0 2.7 5.5-4 5.5-4s-1.3 0-3.1-.9z" fill="#c66"/>
        <path d="M269.4 403c-1.1-.6-1.8-1.5-1.8-1.5s-.2 2.7-.2 5.3c0 2 4.4-3 4.4-3s-1.2-.2-2.4-.8z" fill="#933"/>
        <path d="M282.2 401.9c1.7-.9 2.4-2 2.4-2v6.9c0 2.7-5.5-4-5.5-4s1.3 0 3.1-.9z" fill="#c66"/>
        <path d="M282.6 403c1.2-.6 1.8-1.5 1.8-1.5s.2 2.7.2 5.3c0 2-4.4-3-4.4-3s1.2-.2 2.4-.8z" fill="#933"/>
        <path d="M284.6 406.8c0-2.8.1-11 .1-12.8 0-3.2-2.6-6.3-4.1-7.5-.9-.8-2.8-2-4.6-2-1.7 0-3.5 1.2-4.6 2-1.7 1.3-4.1 4.3-4.1 7.5 0 1.8.1 10.2.1 12.8 0 2.7 5.4-3.6 5.4-3.6h6.4s5.4 6.5 5.4 3.6z" fill="none" stroke="#000"/>
        <path d="M271.6 397.1V395" fill="none" stroke="#000" stroke-width="1.3"/>
        <path d="M271.6 393.8v1.2" fill="none" stroke="#666" stroke-width="1.3"/>
        <path d="M280.4 397.1V395" fill="none" stroke="#000" stroke-width="1.3"/>
        <path d="M280.4 393.8v1.2M276 391.3v1.1" fill="none" stroke="#666" stroke-width="1.3"/>
        <path d="M272.4 389.1s1-1.2 2-1.2 1.6 1 1.6 1.4v2M279.6 389.1s-1-1.2-2-1.2-1.6 1-1.6 1.4v2" fill="none" stroke="#000"/>
    </g>
</svg>
