<svg xmlns="http://www.w3.org/2000/svg" width="24" height="24">
	<g transform="translate(-264,-386)" id="KDDI_D_136">
		<g>
			<path style="stroke:none; fill:none" d="M 288 409.89L 264 409.89L 264 385.89L 288 385.89L 288 409.89z"/>
		</g>
		<g>
			<path style="stroke:none; fill:#39f" d="M 288 409.89L 288 405.556C 287.163 404.261 287 402.917 287 402.917L 285.5 402.917C 285.5 407.138 285.5 407.052 285.5 408.417C 285.5 408.953 285.519 409.441 285.552 409.89L 288 409.89z"/>
			<path style="stroke:none; fill:#39f" d="M 268.236 385.89L 266.5 385.89C 266.5 389.096 266.5 389.144 266.5 390.39C 266.5 394.39 267.453 395.89 268.938 395.89L 274 395.876C 274 395.876 273.562 389.893 273.5 389.89C 269.991 389.89 268.693 387.348 268.236 385.89z"/>
			<path style="stroke:none; fill:#39f" d="M 274.5 397.89C 274.5 397.89 274.062 396.799 273.5 396.39C 273.479 395.792 273.5 389.89 273.5 389.89L 274.5 389.89L 274.5 397.89z"/>
			<path style="stroke:none; fill:#3cf" d="M 269 395.89C 270.685 395.89 270.303 395.89 270.938 395.89C 271.37 395.89 272.578 395.913 273.5 396.39C 273.5 396.39 273.515 389.89 273.5 389.89C 271.093 389.89 269.766 388.735 269 387.564L 269 395.89z"/>
			<path style="stroke:none; fill:#9ff" d="M 269 389.39C 269 389.39 269 392.548 269 392.882C 269 392.882 269.729 393.918 271.229 394.21C 272.51 394.458 273.5 394.39 273.5 394.39L 273.5 391.39C 273.5 391.39 270.125 391.348 269 389.39z"/>
			<path style="stroke:none; fill:#39f" d="M 278.438 404.917C 276.953 404.917 276 403.418 276 399.417C 276 398.052 276 398.138 276 393.917L 277.5 393.917C 277.5 393.917 278.084 398.917 283 398.917C 283.062 398.92 283.5 404.903 283.5 404.903L 278.438 404.917"/>
			<path style="stroke:none; fill:#39f" d="M 284 406.917C 284 406.917 283.562 405.826 283 405.417C 282.979 404.819 283 398.917 283 398.917L 284 398.917L 284 406.917z"/>
			<path style="stroke:none; fill:#3cf" d="M 278.5 404.917C 280.185 404.917 279.803 404.917 280.438 404.917C 280.87 404.917 282.078 404.941 283 405.417C 283 405.417 283.015 398.917 283 398.917C 280.593 398.917 279.266 397.763 278.5 396.591L 278.5 404.917z"/>
			<path style="stroke:none; fill:#9ff" d="M 278.5 398.417C 278.5 398.417 278.5 401.576 278.5 401.909C 278.5 401.909 279.229 402.945 280.729 403.237C 282.01 403.485 283 403.417 283 403.417L 283 400.417C 283 400.417 279.625 400.376 278.5 398.417z"/>
			<path style="stroke:none; fill:#30f" d="M 277.5 402.417C 277.5 401.775 277.5 392.402 277.5 392.39C 277.5 389.88 274.5 389.89 274.5 389.89C 274.5 389.901 274.5 399.257 274.5 399.528C 274.5 403.022 276.099 404.581 277.901 404.858C 278.26 404.944 278.5 404.917 278.5 404.917C 278.257 404.792 277.5 404.417 277.5 402.417z"/>
			<path style="stroke:none; fill:#39f" d="M 263.991 385.89C 263.992 386.623 263.994 387.196 264 387.362C 264.562 387.772 265 388.89 265 388.89L 265 385.89L 263.991 385.89z"/>
			<path style="stroke:none; fill:#30f" d="M 268 393.389C 268 392.966 268 388.733 268 385.89L 265 385.89C 265 388.165 265 390.372 265 390.501C 265 393.995 266.599 395.554 268.401 395.831C 268.76 395.917 269 395.89 269 395.89C 268.757 395.765 268 395.39 268 393.389z"/>
			<path style="stroke:none; fill:#30f" d="M 287 409.89C 287 407.062 287 401.427 287 401.417C 287 398.907 284 398.917 284 398.917C 284 398.928 284 408.285 284 408.555C 284 409.039 284.037 409.478 284.095 409.89L 287 409.89z"/>
		</g>
	</g>
</svg>
