<svg xmlns="http://www.w3.org/2000/svg" width="24" height="24">
	<g transform="translate(-264,-386)" id="KDDI_D_137">
		<g>
			<path style="stroke:none; fill:none" d="M 288 409.89L 264 409.89L 264 385.89L 288 385.89L 288 409.89z"/>
		</g>
		<g>
			<path style="stroke:none; fill:#6c9" d="M 279.5 400.39L 279.5 408.39L 278.5 408.39L 266.5 396.39L 266.5 395.39L 274.5 395.39L 279.5 400.39z"/>
			<path style="stroke:none; fill:#396" d="M 278.5 408.39L 275.5 405.39L 275.5 403.39L 271 398.89L 276 398.89L 277.5 400.39L 279.5 400.39L 279.5 407.89L 278.5 408.39z"/>
			<path style="stroke:none; fill:#066" d="M 279.5 401.39L 277 401.39L 275.5 402.89L 275.5 403.39L 279.5 407.39L 279.5 401.39z"/>
			<path style="stroke:none; fill:#396" d="M 280.5 390.39C 280.5 390.39 280.5 388.89 280.5 388.39C 280.5 387.89 281 387.39 281.5 387.39C 282 387.39 283 387.39 283 387.39L 287.5 391.89C 287.5 391.89 287.5 392.891 287.5 393.39C 287.5 393.89 287 394.39 286.5 394.39C 286 394.39 284.5 394.39 284.5 394.39"/>
			<path style="stroke:none; fill:#066" d="M 286 390.647C 286 390.647 286.663 392.227 286 392.89C 284.996 393.894 282.178 392.212 282.178 392.212L 284.369 394.403L 286.667 394.46L 287.521 393.585L 287.312 391.605L 286 390.647z"/>
			<path style="stroke:none; fill:#6c9" d="M 282.854 387.397L 280.938 387.501L 280.5 388.085L 280.521 390.293L 281.104 391.105L 282 391.39C 282 391.39 281.545 390.345 282 389.89C 283.299 388.591 286.083 390.939 286.083 390.939L 282.854 387.397z"/>
			<path style="stroke:none; fill:#fff" d="M 281.375 387.46L 280.667 388.001L 280.844 390.262C 280.844 390.262 280.958 389.585 281.708 388.876C 282.385 388.237 284 388.89 284 388.89L 283.188 387.397L 281.375 387.46z"/>
			<path style="stroke:none; fill:#066" d="M 275.288 395.602L 280.5 390.39L 284.5 394.39L 279.194 399.695"/>
			<path style="stroke:none; fill:#fff" d="M 266.75 395.657L 266.75 396.657L 275.688 396.657L 275.25 395.657L 266.75 395.657z"/>
			<path style="stroke:#666; stroke-width:1; fill:none" d="M 266.25 409.39L 273 402.64"/>
			<path style="stroke:#6c9; stroke-width:0.75; fill:none" d="M 276.125 397.014L 281.75 391.389"/>
			<path style="stroke:#fff; stroke-width:1; fill:none" d="M 275.343 396.546L 280.968 390.921"/>
			<path style="stroke:#396; stroke-width:1; fill:none" d="M 276.75 397.64L 282.493 391.897"/>
			<path style="stroke:#fff; stroke-width:1; fill:none" d="M 265.25 408.89L 272 402.14"/>
			<path style="stroke:#cc9; stroke-width:0.5; fill:none" d="M 265.5 409.39L 272.25 402.64"/>
			<path style="stroke:#000; stroke-width:0.75; fill:none" d="M 271.5 401.89L 265.5 407.89L 265.5 409.39L 267 409.39L 273 403.39"/>
			<path style="stroke:#000; stroke-width:0.75; fill:none" d="M 279.5 400.39L 279.5 408.39L 278.5 408.39L 266.5 396.39L 266.5 395.39L 274.5 395.39L 279.5 400.39z"/>
			<path style="stroke:#000; stroke-width:0.75; fill:none" d="M 275 395.89L 280.5 390.39L 284.5 394.39L 279 399.89"/>
			<path style="stroke:#000; stroke-width:0.75; fill:none" d="M 280.5 390.39C 280.5 390.39 280.5 388.89 280.5 388.39C 280.5 387.89 281 387.39 281.5 387.39C 282 387.39 283 387.39 283 387.39L 287.5 391.89C 287.5 391.89 287.5 392.891 287.5 393.39C 287.5 393.89 287 394.39 286.5 394.39C 286 394.39 284.5 394.39 284.5 394.39"/>
		</g>
	</g>
</svg>
