<svg xmlns="http://www.w3.org/2000/svg" height="24" width="24">
	<g transform="matrix(1,0,0,-1,-264,408)" id="KDDI_D_138">
		<path d="M278.8 407.4h-5.6c-3.4 0-6-2.7-6-6v-9.9h4.5v9.6c0 1.1.9 2 2 2h4.6c1.1 0 2-.9 2-2v-9.6h4.5v9.9c0 3.3-2.7 6-6 6z" fill="#cc9"/>
		<path d="M274.3 406h4.5c1.4 0 1.4 1.4 0 1.4h-5.6c-3.4 0-6-2.7-6-6v-9.9h1.7v10.1c0 3.3 2 4.4 5.4 4.4z" fill="#fff"/>
		<path d="M280.2 402.1h-.1c.1-.3.2-.7.2-1v-9.6h1.9v8.6c0 1.1-.9 2-2 2z" fill="#cc9"/>
		<path d="M280.4 397.9v3.7s.5.3.9-.1c.3-.4.4-1 .4-1v-2.7l-1.3.1" fill="#fff"/>
		<path d="M281.9 406.3s1.5-2.5 1.5-4v-4.5h1.2v4.6c0 1.9-2.7 3.9-2.7 3.9z" fill="#996"/>
		<path d="M284.8 391.5h-17.6v9.9c0 3.3 2.6 6 6 6h5.6c3.3 0 6-2.7 6-6z" fill="none" stroke="#000"/>
		<path d="M280.3 394h-8.6v7.1c0 1.1.9 2 2 2h4.6c1.1 0 2-.9 2-2z" fill="none" stroke="#000"/>
		<path d="M285.9 384.5h-19.8v13.1h19.8z" fill="#c90"/>
		<path d="M271.1 384.7h9.9v12.7h-9.9z" fill="#c90"/>
		<path d="M270.6 384.7h-2.2v12.7h2.2z" fill="#fc0"/>
		<path d="M268.9 384.7h-2.4v12.7h2.4z" fill="#c90"/>
		<path d="M283.2 384.7H281v12.7h2.2z" fill="#960"/>
		<path d="M285.7 384.7h-2.5v12.7h2.5z" fill="#630"/>
		<path d="M271.1 395.9h9.9v1.5h-9.9z" fill="#fc0"/>
		<path d="M270.6 395.9h-2.2v1.5h2.2z" fill="#ff9"/>
		<path d="M268.9 395.9h-2.4v1.5h2.4z" fill="#fc0"/>
		<path d="M283.2 395.9H281v1.5h2.2z" fill="#c90"/>
		<path d="M285.7 395.9h-2.5v1.5h2.5zM271.1 384.9h9.9v1.5h-9.9z" fill="#960"/>
		<path d="M270.6 384.9h-2.2v1.5h2.2z" fill="#c90"/>
		<path d="M268.9 384.9h-2.4v1.5h2.4z" fill="#960"/>
		<path d="M283.2 384.9H281v1.5h2.2z" fill="#630"/>
		<path d="M285.7 384.9h-2.5v1.5h2.5z" fill="#300"/>
		<path d="M271 386.4v-1.8" fill="none" stroke="#fc0"/>
		<path d="M271 396v-9.6" fill="none" stroke="#ff6"/>
		<path d="M271 397.5V396" fill="none" stroke="#fff"/>
		<path d="M285.9 384.5h-19.8v13.1h19.8z" fill="none" stroke="#000"/>
		<path d="M277.8 392.7c0-1-.8-1.8-1.8-1.8s-1.9.8-1.9 1.8.9 1.8 1.9 1.8c1 0 1.8-.8 1.8-1.8z"/>
		<path d="M276.8 388.5h-1.5v2.9h1.5z"/>
		<path d="M274.2 392.7c0-.6.3-1.1.7-1.4.1 0 .3-.1.5-.1 1 0 1.8.8 1.8 1.9 0 .5-.3 1-.7 1.4-.2 0-.3.1-.5.1-1 0-1.8-.9-1.8-1.9z"/>
		<path d="M277.9 392.7c0 1-.9 1.9-1.9 1.9.2 0 .3-.1.5-.1.4-.4.7-.9.7-1.4 0-.6-.2-1-.6-1.4l-.3-.2v-2.4h-1v-.6h1.5v2.5c.6.3 1.1 1 1.1 1.7z" fill="#333"/>
	</g>
</svg>
