<svg xmlns="http://www.w3.org/2000/svg" width="24" height="24">
	<g transform="translate(-264,-386)" id="KDDI_D_139">
		<g>
			<path style="stroke:none; fill:none" d="M 288 409.89L 264 409.89L 264 385.89L 288 385.89L 288 409.89z"/>
		</g>
		<g>
			<path style="stroke:none; fill:#ff9" d="M 287.5 405.39L 264.5 405.39L 264.5 391.39L 287.5 391.39L 287.5 405.39z"/>
			<path style="stroke:#336; stroke-width:1; fill:none" d="M 287.5 405.39L 264.5 405.39L 264.5 391.39L 287.5 391.39L 287.5 405.39z"/>
			<path style="stroke:#999; stroke-width:1; fill:none" d="M 285.5 403.39L 266.5 403.39L 266.5 393.39L 285.5 393.39L 285.5 403.39z"/>
			<path style="stroke:#cc9; stroke-width:1; fill:#cc9" d="M 272.5 400.39L 269.5 400.39L 269.5 396.39L 272.5 396.39L 272.5 400.39z"/>
			<path style="stroke:#cc9; stroke-width:1; fill:#cc9" d="M 277.5 401.39L 274.5 401.39L 274.5 395.39L 277.5 395.39L 277.5 401.39z"/>
			<path style="stroke:#cc9; stroke-width:3; fill:none" d="M 272 398.39L 280 398.39"/>
			<path style="stroke:#999; stroke-width:1; stroke-linecap:square; fill:none" d="M 267.5 401.341L 266.5 401.341"/>
			<path style="stroke:#999; stroke-width:1; stroke-linecap:square; fill:none" d="M 268.5 403.39L 268.5 402.39"/>
			<path style="stroke:#999; stroke-width:1; stroke-linecap:square; fill:none" d="M 266.5 395.39L 267.5 395.39"/>
			<path style="stroke:#999; stroke-width:1; stroke-linecap:square; fill:none" d="M 268.5 394.39L 268.5 393.39"/>
			<path style="stroke:#999; stroke-width:1; stroke-linecap:square; fill:none" d="M 283.5 393.39L 283.5 394.39"/>
			<path style="stroke:#999; stroke-width:1; stroke-linecap:square; fill:none" d="M 285.5 395.39L 284.5 395.39"/>
			<path style="stroke:#999; stroke-width:1; stroke-linecap:square; fill:none" d="M 285.5 401.39L 284.5 401.39"/>
			<path style="stroke:#999; stroke-width:1; stroke-linecap:square; fill:none" d="M 283.5 403.39L 283.5 402.39"/>
			<path style="stroke:#666; stroke-width:1; stroke-linejoin:round; stroke-linecap:round; fill:none" d="M 277.5 400.399C 277.5 400.892 277 401.439 276.516 401.439L 275.516 401.439C 275 401.439 274.5 400.907 274.5 400.399L 274.5 396.39C 274.5 395.923 275.016 395.39 275.5 395.39L 276.5 395.39C 277 395.39 277.5 395.907 277.5 396.39L 277.5 400.399z"/>
			<path style="stroke:#666; stroke-width:3; fill:none" d="M 274.594 398.407L 277.5 398.407"/>
			<path style="stroke:#6c9; stroke-width:1; fill:#6c9" d="M 282.5 398.39C 282.5 400.039 281.829 401.376 281 401.376C 280.171 401.376 279.5 400.039 279.5 398.39C 279.5 396.74 280.171 395.403 281 395.403C 281.829 395.403 282.5 396.74 282.5 398.39z"/>
			<path style="stroke:none; fill:#666" d="M 268.705 393.39C 268.705 393.503 268.613 393.595 268.5 393.595C 268.387 393.595 268.295 393.503 268.295 393.39C 268.295 393.276 268.387 393.185 268.5 393.185C 268.613 393.185 268.705 393.276 268.705 393.39z"/>
			<path style="stroke:none; fill:#666" d="M 266.705 393.39C 266.705 393.503 266.613 393.595 266.5 393.595C 266.387 393.595 266.295 393.503 266.295 393.39C 266.295 393.276 266.387 393.185 266.5 393.185C 266.613 393.185 266.705 393.276 266.705 393.39z"/>
			<path style="stroke:none; fill:#666" d="M 272.705 393.39C 272.705 393.503 272.613 393.595 272.5 393.595C 272.387 393.595 272.295 393.503 272.295 393.39C 272.295 393.276 272.387 393.185 272.5 393.185C 272.613 393.185 272.705 393.276 272.705 393.39z"/>
			<path style="stroke:none; fill:#666" d="M 270.705 393.39C 270.705 393.503 270.613 393.595 270.5 393.595C 270.387 393.595 270.295 393.503 270.295 393.39C 270.295 393.276 270.387 393.185 270.5 393.185C 270.613 393.185 270.705 393.276 270.705 393.39z"/>
			<path style="stroke:none; fill:#666" d="M 276.736 393.39C 276.736 393.503 276.645 393.595 276.531 393.595C 276.418 393.595 276.326 393.503 276.326 393.39C 276.326 393.276 276.418 393.185 276.531 393.185C 276.645 393.185 276.736 393.276 276.736 393.39z"/>
			<path style="stroke:none; fill:#666" d="M 274.736 393.39C 274.736 393.503 274.645 393.595 274.531 393.595C 274.418 393.595 274.326 393.503 274.326 393.39C 274.326 393.276 274.418 393.185 274.531 393.185C 274.645 393.185 274.736 393.276 274.736 393.39z"/>
			<path style="stroke:none; fill:#666" d="M 280.736 393.39C 280.736 393.503 280.645 393.595 280.531 393.595C 280.418 393.595 280.326 393.503 280.326 393.39C 280.326 393.276 280.418 393.185 280.531 393.185C 280.645 393.185 280.736 393.276 280.736 393.39z"/>
			<path style="stroke:none; fill:#666" d="M 278.736 393.39C 278.736 393.503 278.645 393.595 278.531 393.595C 278.418 393.595 278.326 393.503 278.326 393.39C 278.326 393.276 278.418 393.185 278.531 393.185C 278.645 393.185 278.736 393.276 278.736 393.39z"/>
			<path style="stroke:none; fill:#666" d="M 282.736 393.39C 282.736 393.503 282.645 393.595 282.531 393.595C 282.418 393.595 282.326 393.503 282.326 393.39C 282.326 393.276 282.418 393.185 282.531 393.185C 282.645 393.185 282.736 393.276 282.736 393.39z"/>
			<path style="stroke:none; fill:#666" d="M 285.705 394.376C 285.705 394.489 285.613 394.581 285.5 394.581C 285.387 394.581 285.295 394.489 285.295 394.376C 285.295 394.263 285.387 394.171 285.5 394.171C 285.613 394.171 285.705 394.263 285.705 394.376z"/>
			<path style="stroke:none; fill:#666" d="M 285.705 396.407C 285.705 396.521 285.613 396.612 285.5 396.612C 285.387 396.612 285.295 396.521 285.295 396.407C 285.295 396.294 285.387 396.202 285.5 396.202C 285.613 396.202 285.705 396.294 285.705 396.407z"/>
			<path style="stroke:none; fill:#666" d="M 285.705 398.407C 285.705 398.521 285.613 398.612 285.5 398.612C 285.387 398.612 285.295 398.521 285.295 398.407C 285.295 398.294 285.387 398.202 285.5 398.202C 285.613 398.202 285.705 398.294 285.705 398.407z"/>
			<path style="stroke:none; fill:#666" d="M 285.705 400.439C 285.705 400.552 285.613 400.644 285.5 400.644C 285.387 400.644 285.295 400.552 285.295 400.439C 285.295 400.325 285.387 400.233 285.5 400.233C 285.613 400.233 285.705 400.325 285.705 400.439z"/>
			<path style="stroke:none; fill:#666" d="M 285.705 402.407C 285.705 402.521 285.613 402.612 285.5 402.612C 285.387 402.612 285.295 402.521 285.295 402.407C 285.295 402.294 285.387 402.202 285.5 402.202C 285.613 402.202 285.705 402.294 285.705 402.407z"/>
			<path style="stroke:none; fill:#666" d="M 266.705 395.39C 266.705 395.503 266.613 395.595 266.5 395.595C 266.387 395.595 266.295 395.503 266.295 395.39C 266.295 395.276 266.387 395.185 266.5 395.185C 266.613 395.185 266.705 395.276 266.705 395.39z"/>
			<path style="stroke:none; fill:#666" d="M 266.705 397.397C 266.705 397.51 266.613 397.602 266.5 397.602C 266.387 397.602 266.295 397.51 266.295 397.397C 266.295 397.284 266.387 397.192 266.5 397.192C 266.613 397.192 266.705 397.284 266.705 397.397z"/>
			<path style="stroke:none; fill:#666" d="M 266.705 399.372C 266.705 399.485 266.613 399.577 266.5 399.577C 266.387 399.577 266.295 399.485 266.295 399.372C 266.295 399.259 266.387 399.167 266.5 399.167C 266.613 399.167 266.705 399.259 266.705 399.372z"/>
			<path style="stroke:none; fill:#666" d="M 266.705 401.418C 266.705 401.531 266.613 401.623 266.5 401.623C 266.387 401.623 266.295 401.531 266.295 401.418C 266.295 401.304 266.387 401.213 266.5 401.213C 266.613 401.213 266.705 401.304 266.705 401.418z"/>
			<path style="stroke:none; fill:#666" d="M 284.736 393.39C 284.736 393.503 284.645 393.595 284.531 393.595C 284.418 393.595 284.326 393.503 284.326 393.39C 284.326 393.276 284.418 393.185 284.531 393.185C 284.645 393.185 284.736 393.276 284.736 393.39z"/>
			<path style="stroke:none; fill:#666" d="M 268.705 403.39C 268.705 403.503 268.613 403.595 268.5 403.595C 268.387 403.595 268.295 403.503 268.295 403.39C 268.295 403.276 268.387 403.185 268.5 403.185C 268.613 403.185 268.705 403.276 268.705 403.39z"/>
			<path style="stroke:none; fill:#666" d="M 266.705 403.39C 266.705 403.503 266.613 403.595 266.5 403.595C 266.387 403.595 266.295 403.503 266.295 403.39C 266.295 403.276 266.387 403.185 266.5 403.185C 266.613 403.185 266.705 403.276 266.705 403.39z"/>
			<path style="stroke:none; fill:#666" d="M 272.705 403.39C 272.705 403.503 272.613 403.595 272.5 403.595C 272.387 403.595 272.295 403.503 272.295 403.39C 272.295 403.276 272.387 403.185 272.5 403.185C 272.613 403.185 272.705 403.276 272.705 403.39z"/>
			<path style="stroke:none; fill:#666" d="M 270.705 403.39C 270.705 403.503 270.613 403.595 270.5 403.595C 270.387 403.595 270.295 403.503 270.295 403.39C 270.295 403.276 270.387 403.185 270.5 403.185C 270.613 403.185 270.705 403.276 270.705 403.39z"/>
			<path style="stroke:none; fill:#666" d="M 276.736 403.39C 276.736 403.503 276.645 403.595 276.531 403.595C 276.418 403.595 276.326 403.503 276.326 403.39C 276.326 403.276 276.418 403.185 276.531 403.185C 276.645 403.185 276.736 403.276 276.736 403.39z"/>
			<path style="stroke:none; fill:#666" d="M 274.736 403.39C 274.736 403.503 274.645 403.595 274.531 403.595C 274.418 403.595 274.326 403.503 274.326 403.39C 274.326 403.276 274.418 403.185 274.531 403.185C 274.645 403.185 274.736 403.276 274.736 403.39z"/>
			<path style="stroke:none; fill:#666" d="M 280.736 403.39C 280.736 403.503 280.645 403.595 280.531 403.595C 280.418 403.595 280.326 403.503 280.326 403.39C 280.326 403.276 280.418 403.185 280.531 403.185C 280.645 403.185 280.736 403.276 280.736 403.39z"/>
			<path style="stroke:none; fill:#666" d="M 278.736 403.39C 278.736 403.503 278.645 403.595 278.531 403.595C 278.418 403.595 278.326 403.503 278.326 403.39C 278.326 403.276 278.418 403.185 278.531 403.185C 278.645 403.185 278.736 403.276 278.736 403.39z"/>
			<path style="stroke:none; fill:#666" d="M 282.736 403.39C 282.736 403.503 282.645 403.595 282.531 403.595C 282.418 403.595 282.326 403.503 282.326 403.39C 282.326 403.276 282.418 403.185 282.531 403.185C 282.645 403.185 282.736 403.276 282.736 403.39z"/>
			<path style="stroke:none; fill:#cc6" d="M 272.705 400.39C 272.705 400.503 272.613 400.595 272.5 400.595C 272.387 400.595 272.295 400.503 272.295 400.39C 272.295 400.276 272.387 400.185 272.5 400.185C 272.613 400.185 272.705 400.276 272.705 400.39z"/>
			<path style="stroke:none; fill:#cc6" d="M 269.705 400.39C 269.705 400.503 269.613 400.595 269.5 400.595C 269.387 400.595 269.295 400.503 269.295 400.39C 269.295 400.276 269.387 400.185 269.5 400.185C 269.613 400.185 269.705 400.276 269.705 400.39z"/>
			<path style="stroke:none; fill:#cc6" d="M 271.236 399.418C 271.236 399.531 271.145 399.623 271.031 399.623C 270.918 399.623 270.826 399.531 270.826 399.418C 270.826 399.304 270.918 399.213 271.031 399.213C 271.145 399.213 271.236 399.304 271.236 399.418z"/>
			<path style="stroke:none; fill:#cc6" d="M 272.705 398.376C 272.705 398.489 272.613 398.581 272.5 398.581C 272.387 398.581 272.295 398.489 272.295 398.376C 272.295 398.263 272.387 398.171 272.5 398.171C 272.613 398.171 272.705 398.263 272.705 398.376z"/>
			<path style="stroke:none; fill:#cc6" d="M 269.705 398.376C 269.705 398.489 269.613 398.581 269.5 398.581C 269.387 398.581 269.295 398.489 269.295 398.376C 269.295 398.263 269.387 398.171 269.5 398.171C 269.613 398.171 269.705 398.263 269.705 398.376z"/>
			<path style="stroke:none; fill:#cc6" d="M 272.705 396.39C 272.705 396.503 272.613 396.595 272.5 396.595C 272.387 396.595 272.295 396.503 272.295 396.39C 272.295 396.276 272.387 396.185 272.5 396.185C 272.613 396.185 272.705 396.276 272.705 396.39z"/>
			<path style="stroke:none; fill:#cc6" d="M 269.705 396.39C 269.705 396.503 269.613 396.595 269.5 396.595C 269.387 396.595 269.295 396.503 269.295 396.39C 269.295 396.276 269.387 396.185 269.5 396.185C 269.613 396.185 269.705 396.276 269.705 396.39z"/>
			<path style="stroke:none; fill:#cc6" d="M 271.221 397.392C 271.221 397.505 271.129 397.597 271.016 397.597C 270.902 397.597 270.81 397.505 270.81 397.392C 270.81 397.278 270.902 397.187 271.016 397.187C 271.129 397.187 271.221 397.278 271.221 397.392z"/>
			<path style="stroke:none; fill:#090" d="M 281.205 401.376C 281.205 401.489 281.113 401.581 281 401.581C 280.887 401.581 280.795 401.489 280.795 401.376C 280.795 401.263 280.887 401.171 281 401.171C 281.113 401.171 281.205 401.263 281.205 401.376z"/>
			<path style="stroke:none; fill:#090" d="M 281.205 399.407C 281.205 399.521 281.113 399.612 281 399.612C 280.887 399.612 280.795 399.521 280.795 399.407C 280.795 399.294 280.887 399.202 281 399.202C 281.113 399.202 281.205 399.294 281.205 399.407z"/>
			<path style="stroke:none; fill:#090" d="M 281.205 397.407C 281.205 397.521 281.113 397.612 281 397.612C 280.887 397.612 280.795 397.521 280.795 397.407C 280.795 397.294 280.887 397.202 281 397.202C 281.113 397.202 281.205 397.294 281.205 397.407z"/>
			<path style="stroke:none; fill:#090" d="M 282.705 398.39C 282.705 398.503 282.613 398.595 282.5 398.595C 282.387 398.595 282.295 398.503 282.295 398.39C 282.295 398.276 282.387 398.185 282.5 398.185C 282.613 398.185 282.705 398.276 282.705 398.39z"/>
			<path style="stroke:none; fill:#090" d="M 279.705 398.39C 279.705 398.503 279.613 398.595 279.5 398.595C 279.387 398.595 279.295 398.503 279.295 398.39C 279.295 398.276 279.387 398.185 279.5 398.185C 279.613 398.185 279.705 398.276 279.705 398.39z"/>
			<path style="stroke:none; fill:#090" d="M 282.705 400.345C 282.705 400.458 282.613 400.55 282.5 400.55C 282.387 400.55 282.295 400.458 282.295 400.345C 282.295 400.232 282.387 400.14 282.5 400.14C 282.613 400.14 282.705 400.232 282.705 400.345z"/>
			<path style="stroke:none; fill:#090" d="M 279.705 400.345C 279.705 400.458 279.613 400.55 279.5 400.55C 279.387 400.55 279.295 400.458 279.295 400.345C 279.295 400.232 279.387 400.14 279.5 400.14C 279.613 400.14 279.705 400.232 279.705 400.345z"/>
			<path style="stroke:none; fill:#666" d="M 284.736 403.39C 284.736 403.503 284.645 403.595 284.531 403.595C 284.418 403.595 284.326 403.503 284.326 403.39C 284.326 403.276 284.418 403.185 284.531 403.185C 284.645 403.185 284.736 403.276 284.736 403.39z"/>
		</g>
	</g>
</svg>
