<svg xmlns="http://www.w3.org/2000/svg" height="32" width="32">
	<g transform="translate(-316,-438)">
		<path d="M348.046 462.431c-2 0-3.999 1.067-5.065 2.266-1.2 1.2-8.131.933-10.664.533-1.333-.266-2.133-.666-2.8-1.6-.533-1.066-.133-2.265-.133-2.265s-1.2-.267-1.6-2.133c-.266-1.866.534-2.266.534-2.266s-1.2-.533-1.466-2.4c-.267-1.066-.134-1.866.133-2.399h-6.665c-2.4 0-3.6-1.333-3.6-2.933 0-1.6 1.734-2.666 3.467-2.666h11.063c1.467 0 6.132-2.532 8.398-2.532 2 0 2.666 1.466 3.6 1.866 1.466.666 3.599 3.599 4.798 3.599" fill="#fc9"/>
		<path d="M348.18 459.099s-2 .133-3.333.933c-1.333.8-3.2 3.066-6.798 3.332-3.6.267-5.332.267-5.999-.666-.4-.4 0-.933.4-1.733-.933-.267-2.666-.8-2.666-2.666 0-1.2 2.4-1.6 2.4-1.6s-3.2-1.6-3.2-3.199c0-1.6 2.133-.666 2.8-1.2-1.333-.666-1.467-1.866-1.467-1.866h-12.663s.533 1.333 1.6 1.333c1.066.133 7.73.267 7.73.267s-.532 1.733-.132 2.532c.266.934 1.466 1.867 1.466 1.867s-.4 1.6-.267 2.532c.134.8 1.467 2.133 1.467 2.133s-.534 1.866.266 2.666c.8.933 4.133 1.333 5.466 1.466 1.333.267 5.065-.4 5.731-.666.667-.133 3.6-1.866 4.133-1.866.533 0 3.066-.533 3.066-.533zM346.58 448.968l-3.333-3.066s1.067 2.666 2.133 3.866c.933 1.066 2.8 1.466 2.8 1.466V449.5z" fill="#f96"/>
		<path d="M317.254 450.168c.533.533.4-1.467 2-1.467H330.717c2.533 0 3.066-1.2 3.866-1.466.8-.133 3.333-1.466 4.399-1.733.933-.4 1.066-1.866-.267-1.333-1.6.533-3.465 1.066-4.132 1.6-.666.4-2 .8-2.933.8h-12.13c-.666 0-3.866 1.999-2.266 3.599z" fill="#ff9"/>
		<path d="M347.913 460.698s-2.266-.133-3.999 1.333c-1.466 1.2-5.732 2.133-7.332 2.133-1.6 0-2.932.267-1.999.933 1.066.533 1.466.4 2.666.4s3.2-.133 4.399-.4c1.333-.4 3.066-2 3.999-2.266 1.066-.267 2.4-.133 2.4-.133z" fill="#c60"/>
		<path d="M332.317 456.566h1.2" fill="none" stroke="#f93" stroke-linecap="round" stroke-width="1.333"/>
		<path d="M329.384 456.566h2.933" fill="none" stroke="#c60" stroke-linecap="round" stroke-width="1.333"/>
		<path d="M328.051 456.566h2.4M329.384 461.098h4" fill="none" stroke="#930" stroke-linecap="round" stroke-width="1.333"/>
		<path d="M327.118 452.434s-.666.4-.266 2.132c.266 1.867 1.466 2.4 1.466 2.4s-.667.933-.533 2.266c.4 2 1.6 2.133 1.6 2.133s-.4 1.2.133 2.266c.666.933 1.6 1.466 2.799 1.733 2.666.533 7.998.266 9.864-.667 1.6-.666 3.866-2 5.865-2" fill="none" stroke="#000" stroke-width="1.333"/>
		<path d="M330.317 452.167h3.066" fill="none" stroke="#c60" stroke-linecap="round" stroke-width="1.333"/>
		<path d="M331.65 446.568h3.6" fill="none" stroke="#933" stroke-linecap="round" stroke-width="1.333"/>
		<path d="M348.046 449.501c-1.2 0-3.465-2.8-4.265-3.466-.667-.666-2.8-2-4.8-2-1.999 0-6.264 2.533-7.73 2.533h-11.064c-1.733 0-3.466 1.2-3.466 2.666 0 1.467 1.2 2.933 3.599 2.933h9.997" fill="none" stroke="#000" stroke-width="1.333"/>
	</g>
</svg>
