<svg xmlns="http://www.w3.org/2000/svg" height="32" width="32">
	<g transform="translate(-316,-438)" id="KDDI_D_141">
		<path d="M316.188 462.431c2 0 3.999 1.067 5.065 2.266 1.066 1.2 8.131.933 10.53.533 1.334-.266 2.267-.666 2.933-1.6.533-1.066.134-2.265.134-2.265s1.2-.267 1.466-2.133c.4-1.866-.4-2.266-.4-2.266s1.066-.533 1.466-2.4a6.397 6.397 0 0 0-.133-2.399h6.665c2.4 0 3.6-1.333 3.6-2.933 0-1.6-1.734-2.666-3.6-2.666h-10.93c-1.467 0-6.132-2.532-8.532-2.532-1.866 0-2.533 1.466-3.466 1.866-1.466.666-3.599 3.599-4.798 3.599" fill="#fc9"/>
		<path d="M316.054 459.099s2 .133 3.333.933c1.333.8 3.199 3.066 6.798 3.332 3.466.267 5.332.267 5.999-.666.266-.4-.134-.933-.534-1.733 1.067-.267 2.666-.8 2.666-2.666 0-1.2-2.266-1.6-2.266-1.6s3.066-1.6 3.066-3.199c0-1.6-2.133-.666-2.8-1.2 1.334-.666 1.467-1.866 1.467-1.866h10.797c1.467 0 2.533-1.733 2.533-1.733s0 3.066-2.133 3.066c-1.2 0-7.998.133-7.998.133s.667 1.867.4 2.666c-.4.934-1.6 1.867-1.6 1.867s.534 1.6.4 2.532c-.133.8-1.466 2.133-1.466 2.133s.4 1.866-.4 2.666c-.666.933-3.999 1.333-5.332 1.466-1.333.267-5.065-.4-5.732-.666-.666-.133-3.599-1.866-4.265-1.866-.533 0-2.933-.533-2.933-.533z" fill="#f96"/>
		<path d="M317.654 448.968l3.332-3.066s-1.2 2.666-2.132 3.866c-1.067 1.066-2.8 1.466-2.8 1.466V449.5zM346.58 447.501c0 .534 0 1.2-1.6 1.2H333.517c-2.533 0-3.2-1.2-3.866-1.466-.8-.133-3.333-1.466-4.399-1.733-.933-.4-1.2-1.866.267-1.333 1.466.533 3.465 1.066 4.132 1.6.666.4 2 .8 2.932.8h12.13c.667 0 1.867.4 1.867.932z" fill="#ff9"/>
		<path d="M329.65 447.235c-.799-.133-3.332-1.466-4.398-1.733-.933-.4-1.2-1.866.267-1.333 1.466.533 3.465 1.066 4.132 1.6.666.4 2 .8 2.932.8 1.067 0-2.266.933-2.932.666z" fill="#f96"/>
		<path d="M316.32 460.698s2.4-.266 4 1.333c1.6 1.733 5.732 2.133 7.331 2.133 1.467 0 2.933.267 2 .933-1.066.533-1.466.4-2.666.4-1.333 0-3.333-.133-4.532-.4-1.2-.4-2.933-2-4-2.266-.932-.267-2.399-.133-2.399-.133z" fill="#c60"/>
		<path d="M331.784 456.566h-1.2" fill="none" stroke="#f93" stroke-linecap="round" stroke-width="1.333"/>
		<path d="M334.85 456.566h-3.066" fill="none" stroke="#c60" stroke-linecap="round" stroke-width="1.333"/>
		<path d="M336.183 456.566h-2.533M334.716 461.098h-3.999" fill="none" stroke="#930" stroke-linecap="round" stroke-width="1.333"/>
		<path d="M336.982 452.434s.667.4.4 2.132c-.4 1.867-1.466 2.4-1.466 2.4s.666.933.4 2.266c-.267 2-1.466 2.133-1.466 2.133s.4 1.2-.134 2.266c-.666.933-1.6 1.466-2.932 1.733-2.666.533-7.998.266-9.864-.667-1.467-.666-3.733-2-5.732-2" fill="none" stroke="#000" stroke-width="1.333"/>
		<path d="M333.783 452.167h-2.932" fill="none" stroke="#c60" stroke-linecap="round" stroke-width="1.333"/>
		<path d="M332.45 446.568h-3.599" fill="none" stroke="#933" stroke-linecap="round" stroke-width="1.333"/>
		<path d="M316.188 449.501c1.2 0 3.332-2.8 4.132-3.466.8-.666 2.8-2 4.799-2 2 0 6.398 2.533 7.864 2.533h10.931c1.866 0 3.6 1.2 3.6 2.666 0 1.467-1.2 2.933-3.6 2.933h-10.13" fill="none" stroke="#000" stroke-width="1.333"/>
	</g>
</svg>
