<svg xmlns="http://www.w3.org/2000/svg" width="24" height="24">
	<g transform="translate(-264,-386)" id="KDDI_D_142">
		<g>
			<path style="stroke:none; fill:none" d="M 288 409.89L 264 409.89L 264 385.89L 288 385.89L 288 409.89z"/>
		</g>
		<g>
			<path style="stroke:none; fill:#fc6" d="M 285.5 405.39L 267.5 405.39L 267.5 386.39L 285.5 386.39L 285.5 405.39z"/>
			<path style="stroke:none; fill:#ff9" d="M 267.5 405.39L 267.5 408.39L 268.5 408.39L 268.5 409.39L 285.5 409.39L 285.5 405.39"/>
			<path style="stroke:none; fill:#996" d="M 267.5 408.39L 268.5 409.39L 270 409.39L 270 405.39L 267.5 405.39L 267.5 408.39z"/>
			<path style="stroke:#996; stroke-width:1; fill:none" d="M 267.5 407.39L 285.601 407.393"/>
			<path style="stroke:none; fill:#996" d="M 267.5 404.89L 272 404.89L 272 386.39L 267.5 386.39L 267.5 404.89z"/>
			<path style="stroke:#330; stroke-width:1; fill:none" d="M 285.5 409.39L 285.5 405.39"/>
			<path style="stroke:#000; stroke-width:1; stroke-linecap:square; fill:none" d="M 267.5 405.39L 267.5 408.39C 267.5 408.94 267.95 409.39 268.5 409.39L 285.5 409.39"/>
			<path style="stroke:#ff9; stroke-width:1; fill:none" d="M 268.5 386.89L 268.5 403.39"/>
			<path style="stroke:#060; stroke-width:3; fill:none" d="M 274 391.39L 283 391.39"/>
			<path style="stroke:#ff9; stroke-width:1; stroke-linecap:square; fill:none" d="M 275.516 401.39L 281.469 401.39"/>
			<path style="stroke:#000; stroke-width:1; fill:none" d="M 285.5 405.39L 267.5 405.39L 267.5 386.39L 285.5 386.39L 285.5 405.39z"/>
			<path style="stroke:none; fill:#ff9" d="M 275.792 391.397C 275.792 391.558 275.661 391.689 275.5 391.689C 275.339 391.689 275.208 391.558 275.208 391.397C 275.208 391.236 275.339 391.106 275.5 391.106C 275.661 391.106 275.792 391.236 275.792 391.397z"/>
			<path style="stroke:#336; stroke-width:1; stroke-linecap:square; fill:none" d="M 267.5 386.39L 267.5 402.89"/>
			<path style="stroke:none; fill:#ff9" d="M 277.792 391.397C 277.792 391.558 277.661 391.689 277.5 391.689C 277.339 391.689 277.208 391.558 277.208 391.397C 277.208 391.236 277.339 391.106 277.5 391.106C 277.661 391.106 277.792 391.236 277.792 391.397z"/>
			<path style="stroke:none; fill:#ff9" d="M 279.792 391.397C 279.792 391.558 279.661 391.689 279.5 391.689C 279.339 391.689 279.208 391.558 279.208 391.397C 279.208 391.236 279.339 391.106 279.5 391.106C 279.661 391.106 279.792 391.236 279.792 391.397z"/>
			<path style="stroke:none; fill:#ff9" d="M 281.823 391.397C 281.823 391.558 281.692 391.689 281.531 391.689C 281.37 391.689 281.24 391.558 281.24 391.397C 281.24 391.236 281.37 391.106 281.531 391.106C 281.692 391.106 281.823 391.236 281.823 391.397z"/>
			<path style="stroke:none; fill:#060" d="M 275.807 401.407C 275.807 401.568 275.677 401.699 275.516 401.699C 275.354 401.699 275.224 401.568 275.224 401.407C 275.224 401.246 275.354 401.116 275.516 401.116C 275.677 401.116 275.807 401.246 275.807 401.407z"/>
			<path style="stroke:none; fill:#060" d="M 277.792 401.407C 277.792 401.568 277.661 401.699 277.5 401.699C 277.339 401.699 277.208 401.568 277.208 401.407C 277.208 401.246 277.339 401.116 277.5 401.116C 277.661 401.116 277.792 401.246 277.792 401.407z"/>
			<path style="stroke:none; fill:#060" d="M 279.807 401.407C 279.807 401.568 279.677 401.699 279.516 401.699C 279.354 401.699 279.224 401.568 279.224 401.407C 279.224 401.246 279.354 401.116 279.516 401.116C 279.677 401.116 279.807 401.246 279.807 401.407z"/>
			<path style="stroke:none; fill:#060" d="M 281.76 401.407C 281.76 401.568 281.63 401.699 281.469 401.699C 281.308 401.699 281.177 401.568 281.177 401.407C 281.177 401.246 281.308 401.116 281.469 401.116C 281.63 401.116 281.76 401.246 281.76 401.407z"/>
			<path style="stroke:#666; stroke-width:0.75; fill:none" d="M 267 405.39C 266 405.39 265.5 404.942 265.5 404.39C 265.5 403.838 266 403.39 267 403.39C 267.355 403.39 269 403.39 269 403.39"/>
			<path style="stroke:#666; stroke-width:0.75; fill:none" d="M 267 403.39C 266 403.39 265.5 402.942 265.5 402.39C 265.5 401.838 266 401.39 267 401.39C 267.355 401.39 269 401.39 269 401.39"/>
			<path style="stroke:#666; stroke-width:0.75; fill:none" d="M 267 401.39C 266 401.39 265.5 400.942 265.5 400.39C 265.5 399.838 266 399.39 267 399.39C 267.355 399.39 269 399.39 269 399.39"/>
			<path style="stroke:#666; stroke-width:0.75; fill:none" d="M 267 399.39C 266 399.39 265.5 398.942 265.5 398.39C 265.5 397.838 266 397.39 267 397.39C 267.355 397.39 269 397.39 269 397.39"/>
			<path style="stroke:#666; stroke-width:0.75; fill:none" d="M 267 397.39C 266 397.39 265.5 396.942 265.5 396.39C 265.5 395.838 266 395.39 267 395.39C 267.355 395.39 269 395.39 269 395.39"/>
			<path style="stroke:#666; stroke-width:0.75; fill:none" d="M 267 395.39C 266 395.39 265.5 394.942 265.5 394.39C 265.5 393.838 266 393.39 267 393.39C 267.355 393.39 269 393.39 269 393.39"/>
			<path style="stroke:#666; stroke-width:0.75; fill:none" d="M 267 393.39C 266 393.39 265.5 392.942 265.5 392.39C 265.5 391.838 266 391.39 267 391.39C 267.355 391.39 269 391.39 269 391.39"/>
			<path style="stroke:#666; stroke-width:0.75; fill:none" d="M 267 391.39C 266 391.39 265.5 390.942 265.5 390.39C 265.5 389.838 266 389.39 267 389.39C 267.355 389.39 269 389.39 269 389.39"/>
			<path style="stroke:#666; stroke-width:0.75; fill:none" d="M 267 389.39C 266 389.39 265.5 388.942 265.5 388.39C 265.5 387.838 266 387.39 267 387.39C 267.355 387.39 269 387.39 269 387.39"/>
		</g>
	</g>
</svg>
