<svg xmlns="http://www.w3.org/2000/svg" height="32" width="32">
    <g fill="none" stroke-linecap="round" transform="translate(-316,-438)">
        <path d="M338.182 464.03l-11.864-11.863c-1.2-1.333-1.2-3.2 0-4.532 1.2-1.2 3.2-1.2 4.4 0 0 0 9.33 9.464 11.996 11.997 2.666 2.666 3.6 5.732.933 8.398-2.666 2.666-5.998 1.866-8.664-.933L320.187 452.3c-2.8-2.666-2.8-7.198 0-9.997 2.799-2.8 7.198-2.8 9.997 0l14.93 14.796" stroke="#333" stroke-width="1.333"/>
        <path d="M338.715 462.964l-11.997-11.863c-1.2-1.2-1.2-3.2 0-4.4 1.333-1.199 3.2-1.199 4.532 0 0 0 9.331 9.332 11.864 11.998 2.666 2.532 3.733 5.732.933 8.398-2.666 2.666-5.865 1.733-8.664-1.067l-14.797-14.663a7.16 7.16 0 0 1 0-10.13 7.16 7.16 0 0 1 10.131 0l14.797 14.929" stroke="#666" stroke-width="1.333"/>
    </g>
</svg>
