<svg xmlns="http://www.w3.org/2000/svg" height="24" width="24">
    <g transform="matrix(1,0,0,-1,-264,408)" id="KDDI_D_">        <path d="M264 397.6v-8.1c0-3 5.4-5.5 12-5.5s12 2.5 12 5.5v8.1z" fill="#f90"/>
        <path d="M265.2 387.2c1.3-1.3 3.6-2.3 6.5-2.8v13.2h-6.5z" fill="#fc3"/>
        <path d="M265.2 397.6H264v-8.1c0-1.4 1.7-2.8 1.2-2.3z" fill="#f90"/>
        <path d="M284.1 385.4c1.1.5 2.1 1.1 2.7 1.8v10.4h-2.7z" fill="#c60"/>
        <path d="M279.3 384.2c1.9.2 3.6.7 5 1.3v12.1h-5z" fill="#f60"/>
        <path d="M287.3 397.8c0-2.9-5-5.2-11.3-5.2-6.2 0-11.2 2.3-11.2 5.2 0 2.8 5 5.1 11.2 5.1 6.3 0 11.3-2.3 11.3-5.1z" fill="#ff3"/>
        <path d="M287.5 397.8c0-3-5.2-5.3-11.5-5.3s-11.5 2.3-11.5 5.3c0 2.9 5.2 5.3 11.5 5.3s11.5-2.4 11.5-5.3z" fill="none" stroke="#fc3"/>
        <path d="M268.3 393.2l16 8.9" fill="none" stroke="red" stroke-width="1.5" stroke-linecap="round"/>
        <path d="M268.3 385.5v7.7" fill="none" stroke="#c00" stroke-width="1.5" stroke-linecap="round"/>
        <path d="M283.8 393.2l-16.1 8.9" fill="none" stroke="red" stroke-width="1.5" stroke-linecap="round"/>
        <path d="M283.8 385.5v7.7" fill="none" stroke="#c00" stroke-width="1.5" stroke-linecap="round"/>
        <path d="M276.5 397.9l-7.2-2.1 2.6-1.6 5.9 3.3z" fill="#900"/>
        <path d="M276.4 398.3l-7.2-2 2.6-1.5 5.6 3z" fill="red"/>
        <path d="M275.5 397.9l7.3-2.1-2.7-1.6-5.8 3.3z" fill="#900"/>
        <path d="M275.6 398.3l7.2-2-2.6-1.5-5.6 3z" fill="red"/>
        <path d="M281.3 403.4c.9-1.1.7-2.8-.4-3.9-1.2-1-4.1-.9-4.1-.9s-.3 3.6.9 4.7c1.1 1 2.7 1.1 3.6.1z" fill="none" stroke="#f63" stroke-width="1.5"/>
        <path d="M282.1 402.3c.9-1 .7-2.7-.5-3.8-1.1-1.1-4.7-.4-4.7-.4s.4 3 1.5 4.1c1.2 1.1 2.8 1.1 3.7.1z" fill="none" stroke="#900" stroke-width="1.5"/>
        <path d="M281.7 402.9c.9-1 .7-2.7-.5-3.8-1.1-1-4.4-.7-4.4-.7s.1 3.4 1.3 4.4c1.1 1.1 2.7 1.2 3.6.1z" fill="none" stroke="red" stroke-width="1.5"/>
        <path d="M270.7 403.4c-.9-1.1-.7-2.8.4-3.9 1.2-1 4.1-.9 4.1-.9s.3 3.6-.9 4.7c-1.1 1-2.7 1.1-3.6.1z" fill="none" stroke="#f63" stroke-width="1.5"/>
        <path d="M269.9 402.3c-.9-1-.7-2.7.5-3.8 1.1-1.1 4.7-.4 4.7-.4s-.4 3-1.5 4.1c-1.2 1.1-2.8 1.1-3.7.1z" fill="none" stroke="#900" stroke-width="1.5"/>
        <path d="M270.3 402.9c-.9-1-.7-2.7.5-3.8 1.1-1 4.4-.7 4.4-.7s-.1 3.4-1.3 4.4c-1.1 1.1-2.7 1.2-3.6.1z" fill="none" stroke="red" stroke-width="1.5"/>
        <path d="M277 398.1c0-.6-.4-1-1-1-.5 0-.9.4-.9 1 0 .5.4 1 .9 1 .6 0 1-.5 1-1z" fill="red"/>
    </g>
</svg>
