<svg xmlns="http://www.w3.org/2000/svg" height="24" width="24">
    <g transform="matrix(1,0,0,-1,-264,408)" id="KDDI_D_">        <path d="M276 384.4c3.7 0 6.5.6 8 1.6 1.7 1.1 3.5 3.4 3.5 9.5s-3.7 10.8-3.7 10.8l-4-5.6-3.8 6.7-3.8-6.7-3.9 5.6s-3.8-4.7-3.8-10.8c0-6.1 2-8.4 3.5-9.5 1.8-1.2 4.3-1.6 8-1.6z" fill="red"/>
        <path d="M279.9 400.1l-3.9 7.3-.9-1.6s2.5-4.2 3.1-5.2c.6-1 1.7-.5 1.7-.5zM272.3 400.1l-4 6.2s-.5-.5-1-1.4c0 0 2.1-3.1 2.8-4.1.7-1 2.2-.7 2.2-.7zM280.9 385.2c5.7 1.4 6.6 5.2 6.6 10.3 0 6.1-3.7 10.8-3.7 10.8l-1-1.4c.7-1 3-4.9 3-10.2 0-2.1-.4-4.8-1.9-6.4-.9-1-2-1.7-3.1-2.4-.8-.4-.6-.9.1-.7z" fill="#c00"/>
        <path d="M268.8 387.3c-1.5 1-3 4.3-3 8.2 0 3.9 1.7 6.8 2.5 7.9v2.5s-3.8-4.3-3.8-10.4c0-6.1 2-8.4 3.5-9.5 1.8-1.2 2.6.1.8 1.3zM283.8 403.5v2.3l-4.2-5.5s1.2-.7 2.5.7c1.3 1.3 1.7 2.5 1.7 2.5zM276 404.1v2.7l-3.9-6.5s1.3-.7 2.4 1.2c1.1 1.9 1.5 2.6 1.5 2.6z" fill="#f69"/>
        <path d="M276 384.4c3.7 0 6.5.6 8 1.6 1.7 1.1 3.5 3.4 3.5 9.5s-3.7 10.8-3.7 10.8l-4-5.6-3.8 6.7-3.8-6.7-3.9 5.6s-3.8-4.7-3.8-10.8c0-6.1 2-8.4 3.5-9.5 1.8-1.2 4.3-1.6 8-1.6z" fill="none" stroke="#000" stroke-linejoin="round"/>
        <path d="M282.6 392.2h-13v4.9h13z" fill="#fff"/>
    </g>
</svg>
