<svg xmlns="http://www.w3.org/2000/svg" height="24" width="24">
    <g transform="matrix(1,0,0,-1,-264,408)" id="KDDI_D_">        <path d="M276.5 406.6c0 .5-.3.8-.8.8-.4 0-.8-.3-.8-.8v-6.2h-1.7v6.2c0 .5-.3.8-.8.8-.4 0-.7-.3-.7-.8v-6.2h-1.8v6.2c0 .5-.3.8-.7.8-.5 0-.8-.3-.8-.8v-8.2-.3c.3-1.6 1.3-3 2.9-3.4v-9.2c0-.6.6-1 1.1-1 .6 0 1.2.4 1.2 1v9.3c1.6.3 2.6 1.6 2.8 3.2.1.1.1.3.1.4z" fill="#999"/>
        <path d="M275.2 396.8c-.6-.6-.9-.8-2.1-1.1-.1 0-.5-.2-.5-.7v-9.3c0-.6-.6-.4-1.2-.4h-.1c.1-.4.7-.8 1.1-.8.6 0 1.2.4 1.2 1v9.4c1.6.4 2.3 1.5 2.6 3.2.1.1-.1 1.3-.1 1.4 0 0 0-1.6-.9-2.7z" fill="#666"/>
        <path d="M268.4 398.4s.2-1.4.8-2.3c.8-1.1 2.1-1.4 2.1-1.4" fill="none" stroke="#333" stroke-linecap="round" stroke-linejoin="round"/>
        <path d="M271.7 400.4h-1.8v6.2c0 .5-.3.8-.7.8" fill="none" stroke="#333" stroke-linejoin="round"/>
        <path d="M274.9 400.4h-1.7v6.2c0 .5-.3.8-.8.8" fill="none" stroke="#333" stroke-linecap="round" stroke-linejoin="round"/>
        <path d="M271.3 385.5c0-.6.6-1 1.1-1 .6 0 1.2.4 1.2 1v9.3c1.6.3 2.6 1.6 2.8 3.2.1.1.1.3.1.4v8.2c0 .5-.3.8-.8.8" fill="none" stroke="#333" stroke-linecap="round" stroke-linejoin="round"/>
        <path d="M271.3 394.7v-9.2M269.2 407.4c-.5 0-.8-.3-.8-.8v-8.2M272.4 407.4c-.4 0-.7-.3-.7-.8v-6.2M275.7 407.4c-.4 0-.8-.3-.8-.8v-6.2" fill="none" stroke="#666" stroke-linecap="round" stroke-linejoin="round"/>
        <path d="M283.4 407.5v-22s-.1-1.1-1-1.1c-.8 0-1.1 1.3-1.1 1.3v8.3s-2.5.6-2.5 2.8v5.8c0 2.2.8 4.9 4.6 4.9z" fill="#999"/>
        <path d="M283.4 407.5v-22s-.1-1.1-1-1.1c-.8 0-1.1 1.3-1.1 1.3v8.3s-2.5.6-2.5 2.8v5.8c0 2.2.8 4.9 4.6 4.9z" fill="#999"/>
        <path d="M279.2 404.3l3.4-1.8-.1-1.3-3.6 1.9zM279.2 400.9l3.4-1.8-.1-1.3-3.6 1.9z" fill="#ccc"/>
        <path d="M282.3 394.1v13l1.1.2-.1-21.6s0-.9-.8-.9c-.7 0-1.1 1.2-1.1 1.2l-.1 8z" fill="#666"/>
        <path d="M280.2 406.4c.7.7 1.7 1.1 3.2 1.1v-22s-.1-1.1-1-1.1c-.8 0-1.1 1.3-1.1 1.3v8.3s-2.5.6-2.5 2.8" fill="none" stroke="#333" stroke-linejoin="round"/>
        <path d="M278.8 396.8v5.8c0 1.3.3 2.8 1.4 3.8" fill="none" stroke="#666" stroke-linecap="round" stroke-linejoin="round"/>
    </g>
</svg>
