<svg xmlns="http://www.w3.org/2000/svg" width="24" height="24">
	<g transform="translate(-264,-386)" id="KDDI_D_147">
		<g>
			<path style="stroke:none; fill:none" d="M 288 409.89L 264 409.89L 264 385.89L 288 385.89L 288 409.89z"/>
		</g>
		<g>
			<g>
				<path style="stroke:none; fill:#06f" d="M 265.5 396.39L 279 396.39L 287 404.39L 273.5 404.39L 265.5 396.39z"/>
				<path style="stroke:none; fill:#996" d="M 266 396.89L 273.5 404.39L 286.5 404.39C 287.05 404.39 287.5 404.84 287.5 405.39L 287.5 407.39C 287.5 407.94 287.05 408.39 286.5 408.39L 273.5 408.39L 266 400.89L 266 396.89z"/>
				<path style="stroke:#009; stroke-width:0.75; stroke-linecap:square; fill:none" d="M 266 396.39L 279 396.39L 287 404.39"/>
				<path style="stroke:none; fill:#ff9" d="M 266.511 400.879L 273.5 407.89L 273.5 406.39L 266.5 399.39L 266.511 400.879z"/>
				<path style="stroke:#ff9; stroke-width:1; fill:none" d="M 286 407.39L 273.5 407.39"/>
				<path style="stroke:#090; stroke-width:1; fill:none" d="M 270.042 397.418L 276.979 397.418"/>
				<path style="stroke:none; fill:#ff9" d="M 270.833 397.418C 270.833 397.579 270.703 397.709 270.542 397.709C 270.38 397.709 270.25 397.579 270.25 397.418C 270.25 397.256 270.38 397.126 270.542 397.126C 270.703 397.126 270.833 397.256 270.833 397.418z"/>
				<path style="stroke:none; fill:#ff9" d="M 272.792 397.418C 272.792 397.579 272.661 397.709 272.5 397.709C 272.339 397.709 272.208 397.579 272.208 397.418C 272.208 397.256 272.339 397.126 272.5 397.126C 272.661 397.126 272.792 397.256 272.792 397.418z"/>
				<path style="stroke:none; fill:#ff9" d="M 274.771 397.418C 274.771 397.579 274.64 397.709 274.479 397.709C 274.318 397.709 274.188 397.579 274.188 397.418C 274.188 397.256 274.318 397.126 274.479 397.126C 274.64 397.126 274.771 397.256 274.771 397.418z"/>
				<path style="stroke:none; fill:#ff9" d="M 276.771 397.418C 276.771 397.579 276.64 397.709 276.479 397.709C 276.318 397.709 276.188 397.579 276.188 397.418C 276.188 397.256 276.318 397.126 276.479 397.126C 276.64 397.126 276.771 397.256 276.771 397.418z"/>
				<path style="stroke:#009; stroke-width:0.75; stroke-linecap:square; fill:none" d="M 266 396.89L 273.5 404.39L 286.5 404.39C 287.05 404.39 287.5 404.84 287.5 405.39L 287.5 407.39C 287.5 407.94 287.05 408.39 286.5 408.39L 273.5 408.39L 266 400.89"/>
			</g>
			<g>
				<path style="stroke:none; fill:#f60" d="M 265 391.39L 278 391.39L 286 399.39L 272.5 399.39L 265 391.39z"/>
				<path style="stroke:none; fill:#996" d="M 264.754 391.644L 272.5 399.39L 285.5 399.39C 286.05 399.39 286.5 399.84 286.5 400.39L 286.5 402.39C 286.5 402.94 286.05 403.39 285.5 403.39L 272.5 403.39L 264.754 395.644L 264.754 391.644z"/>
				<path style="stroke:#c30; stroke-width:0.75; stroke-linecap:square; fill:none" d="M 265 391.39L 278 391.39L 286 399.39"/>
				<path style="stroke:none; fill:#ff9" d="M 265.511 395.879L 272.5 402.89L 272.5 401.39L 265.5 394.39L 265.511 395.879z"/>
				<path style="stroke:#ff9; stroke-width:1; fill:none" d="M 285 402.39L 272.5 402.39"/>
				<path style="stroke:#090; stroke-width:1; fill:none" d="M 269.042 392.418L 275.979 392.418"/>
				<path style="stroke:none; fill:#ff9" d="M 269.833 392.418C 269.833 392.579 269.703 392.709 269.542 392.709C 269.38 392.709 269.25 392.579 269.25 392.418C 269.25 392.256 269.38 392.126 269.542 392.126C 269.703 392.126 269.833 392.256 269.833 392.418z"/>
				<path style="stroke:none; fill:#ff9" d="M 271.792 392.418C 271.792 392.579 271.661 392.709 271.5 392.709C 271.339 392.709 271.208 392.579 271.208 392.418C 271.208 392.256 271.339 392.126 271.5 392.126C 271.661 392.126 271.792 392.256 271.792 392.418z"/>
				<path style="stroke:none; fill:#ff9" d="M 273.771 392.418C 273.771 392.579 273.64 392.709 273.479 392.709C 273.318 392.709 273.188 392.579 273.188 392.418C 273.188 392.256 273.318 392.126 273.479 392.126C 273.64 392.126 273.771 392.256 273.771 392.418z"/>
				<path style="stroke:none; fill:#ff9" d="M 275.771 392.418C 275.771 392.579 275.64 392.709 275.479 392.709C 275.318 392.709 275.188 392.579 275.188 392.418C 275.188 392.256 275.318 392.126 275.479 392.126C 275.64 392.126 275.771 392.256 275.771 392.418z"/>
				<path style="stroke:#c30; stroke-width:0.75; stroke-linecap:square; fill:none" d="M 264.754 391.644L 272.5 399.39L 285.5 399.39C 286.05 399.39 286.5 399.84 286.5 400.39L 286.5 402.39C 286.5 402.94 286.05 403.39 285.5 403.39L 272.5 403.39L 264.754 395.644"/>
			</g>
			<g>
				<path style="stroke:none; fill:#060" d="M 266 386.39L 279 386.39L 287 394.39L 273.5 394.39L 266 386.39z"/>
				<path style="stroke:none; fill:#996" d="M 266 386.89L 273.5 394.39L 286.5 394.39C 287.05 394.39 287.5 394.84 287.5 395.39L 287.5 397.39C 287.5 397.94 287.05 398.39 286.5 398.39L 273.5 398.39L 266 390.89L 266 386.89z"/>
				<path style="stroke:#000; stroke-width:0.75; stroke-linecap:square; fill:none" d="M 266 386.39L 279 386.39L 287 394.39"/>
				<path style="stroke:none; fill:#ff9" d="M 266.511 390.879L 273.5 397.89L 273.5 396.39L 266.5 389.39L 266.511 390.879z"/>
				<path style="stroke:#ff9; stroke-width:1; fill:none" d="M 286 397.39L 273.5 397.39"/>
				<path style="stroke:#090; stroke-width:1; fill:none" d="M 270.042 387.418L 276.979 387.418"/>
				<path style="stroke:none; fill:#ff9" d="M 270.833 387.418C 270.833 387.579 270.703 387.709 270.542 387.709C 270.38 387.709 270.25 387.579 270.25 387.418C 270.25 387.256 270.38 387.126 270.542 387.126C 270.703 387.126 270.833 387.256 270.833 387.418z"/>
				<path style="stroke:none; fill:#ff9" d="M 272.792 387.418C 272.792 387.579 272.661 387.709 272.5 387.709C 272.339 387.709 272.208 387.579 272.208 387.418C 272.208 387.256 272.339 387.126 272.5 387.126C 272.661 387.126 272.792 387.256 272.792 387.418z"/>
				<path style="stroke:none; fill:#ff9" d="M 274.771 387.418C 274.771 387.579 274.64 387.709 274.479 387.709C 274.318 387.709 274.188 387.579 274.188 387.418C 274.188 387.256 274.318 387.126 274.479 387.126C 274.64 387.126 274.771 387.256 274.771 387.418z"/>
				<path style="stroke:none; fill:#ff9" d="M 276.771 387.418C 276.771 387.579 276.64 387.709 276.479 387.709C 276.318 387.709 276.188 387.579 276.188 387.418C 276.188 387.256 276.318 387.126 276.479 387.126C 276.64 387.126 276.771 387.256 276.771 387.418z"/>
				<path style="stroke:#000; stroke-width:0.75; stroke-linecap:square; fill:none" d="M 266 386.89L 273.5 394.39L 286.5 394.39C 287.05 394.39 287.5 394.84 287.5 395.39L 287.5 397.39C 287.5 397.94 287.05 398.39 286.5 398.39L 273.5 398.39L 266 390.89"/>
			</g>
		</g>
	</g>
</svg>
