<svg xmlns="http://www.w3.org/2000/svg" height="24" width="24">
    <g transform="matrix(1,0,0,-1,-264,408)" id="KDDI_D_">        <path d="M272.1 402.5h-3.6c-.8 0-1.9 0-2.2-1.1-.4-1.1-1.2-4.3-1.6-5.2-.4-.9-.7-1.5-.7-3.2v-3c0-.9.2-1.5 1.2-1.5h6.9z" fill="#30c"/>
        <path d="M264.4 392.6c0 1.6.3 2.2.7 3.2.4.9 1.2 4.1 1.6 5.2.3 1.1 1.4 1.1 2.2 1.1h3.2v.4h-3.6c-.8 0-1.9 0-2.2-1.1-.4-1.1-1.2-4.3-1.6-5.2-.4-.9-.7-1.5-.7-3.2v-3c0-.7.1-1.2.6-1.4-.1.3-.2.6-.2 1v3z" fill="#33f"/>
        <path d="M264.7 396.2c-.2-.4-.4-.7-.5-1.1h6.1v6.2h-4.1c-.4-1.3-1.1-4.3-1.5-5.1z" fill="#cff"/>
        <path d="M264.7 396.2c-.2-.4-.4-.7-.5-1.1h3.1l1.5 6.2h-2.6c-.4-1.3-1.1-4.3-1.5-5.1z" fill="#3cf"/>
        <path d="M264.3 392.5c.5 0 1 .3 1 .8 0 .4-.5.7-1 .7h-.3v-.6-.9h.3z" fill="#39f"/>
        <path d="M264 390.7h1.7" fill="none" stroke="#669"/>
        <path d="M288 390.8h-16.3v13H288z" fill="#fc0"/>
        <path d="M288 390.8h-15.3v12H288z" fill="#f90"/>
        <path d="M274.3 402.8v-11.3M276.9 402.8v-11.3M279.6 402.8v-11.3M282.2 402.8v-11.3M284.8 402.8v-11.3M287.5 402.8v-11.3" fill="none" stroke="#960"/>
        <path d="M288 388.5h-16.3v5.3H288z" fill="#336"/>
        <path d="M288 389.3h-16.3v4.5H288z" fill="#369"/>
        <path d="M272.5 389.7c0-1.6-1.3-2.8-2.9-2.8-1.7 0-3 1.2-3 2.8 0 1.5 1.3 2.8 3 2.8 1.6 0 2.9-1.3 2.9-2.8z"/>
        <path d="M271.2 389.7c0-.9-.7-1.6-1.6-1.6-.9 0-1.7.7-1.7 1.6 0 .8.8 1.5 1.7 1.5.9 0 1.6-.7 1.6-1.5z" fill="#666"/>
        <path d="M270.1 390.6c.3 0 .7-.1.9-.3-.2.5-.8.9-1.4.9-.9 0-1.7-.7-1.7-1.5 0-.6.3-1 .7-1.3-.1.2-.2.4-.2.7 0 .8.8 1.5 1.7 1.5z" fill="#99c"/>
        <path d="M269.3 390.6c.1-.2 0-.5-.2-.7-.3-.1-.6-.1-.7.1-.1.2 0 .5.3.6.2.2.5.2.6 0z" fill="#ccc"/>
        <path d="M284.9 389.7c0-1.6-1.3-2.8-3-2.8-1.6 0-3 1.2-3 2.8 0 1.5 1.4 2.8 3 2.8 1.7 0 3-1.3 3-2.8z"/>
        <path d="M283.5 389.7c0-.9-.7-1.6-1.6-1.6-.9 0-1.6.7-1.6 1.6 0 .8.7 1.5 1.6 1.5.9 0 1.6-.7 1.6-1.5z" fill="#666"/>
        <path d="M282.4 390.6c.4 0 .7-.1 1-.3-.3.5-.8.9-1.5.9-.9 0-1.6-.7-1.6-1.5 0-.6.2-1 .7-1.3-.1.2-.2.4-.2.7 0 .8.7 1.5 1.6 1.5z" fill="#99c"/>
        <path d="M281.7 390.6c.1-.2-.1-.5-.3-.7-.2-.1-.5-.1-.6.1-.1.2 0 .5.2.6.3.2.6.2.7 0z" fill="#ccc"/>
    </g>
</svg>
