<svg xmlns="http://www.w3.org/2000/svg" height="24" width="24">
    <g transform="matrix(1,0,0,-1,-264,408)" id="KDDI_D_">        <path d="M283.9 408H280l-14-14-2-10 10 2 14 14v3.9z" fill="#fc3"/>
        <path d="M274 390l-10-6 10 2 4 4z" fill="#c60"/>
        <path d="M276 396l-6-1-6-11 11 6z" fill="#f93"/>
        <path d="M273 389h2l-1-3 14 14v3.9z" fill="#00c"/>
        <path d="M274.5 387.5l-.5-1.5 14 14v1z" fill="#006"/>
        <path d="M283.9 408L269 393h4v-4l15 14.9z" fill="#369"/>
        <path d="M283.9 408H280l-14-14 3 1v-2z" fill="#6cf"/>
        <path d="M283.9 408h-.9l-14-14v-1z" fill="#9ff"/>
        <path d="M267.7 386.2l-1.4 1.5-1.5.4-.8-4.1 4.1.8z" fill="#039"/>
        <path d="M266.6 387.4l-.3.3-.6.1-1.7-3.8z" fill="#36c"/>
        <path d="M267.7 386.2L264 384l4.1.8z" fill="#006"/>
    </g>
</svg>
