<svg xmlns="http://www.w3.org/2000/svg" height="32" width="32">
	<g transform="matrix(1,0,0,1,-400,-300)" id="KDDI_D_150">
		<path d="M424.027 300.218c2 2.4 2.8 6.399 2.8 10.798 0 5.465-1.333 11.33-4.8 13.596 4.533-1.2 7.866-6.398 7.866-13.196 0-5.866-2.4-9.598-5.866-11.198zM416.696 329.944h-3.866v-28.926h3.866z"/>
		<path d="M422.96 318.214c0 1.333-.799 2.532-1.865 2.532-.933 0-1.733-1.2-1.733-2.532V305.95c0-1.466.8-2.532 1.733-2.532 1.066 0 1.866 1.066 1.866 2.532z" fill="#1395b6" fill-rule="evenodd"/>
	</g>
</svg>
