<svg xmlns="http://www.w3.org/2000/svg" width="24" height="24">
	<g transform="translate(-264,-386)" id="KDDI_D_151">
		<g>
			<path style="stroke:none; fill:none" d="M 288 409.89L 264 409.89L 264 385.89L 288 385.89L 288 409.89z"/>
		</g>
		<g>
			<path style="stroke:#fc9; stroke-width:0.75; stroke-linecap:round; fill:none" d="M 277.125 390.366L 277.777 389.714L 277.809 389.09L 279.261 387.637"/>
			<path style="stroke:#ff9; stroke-width:1; fill:#ff9" d="M 282.5 408.39L 264.5 408.39L 264.5 397.39L 282.5 397.39L 282.5 408.39z"/>
			<path style="stroke:#cc9; stroke-width:1; stroke-linecap:square; fill:none" d="M 265 407.39L 281.5 407.39L 281.5 397.751"/>
			<path style="stroke:#666; stroke-width:0.75; stroke-linecap:square; fill:none" d="M 264.578 408.39L 269.968 403"/>
			<path style="stroke:#666; stroke-width:0.75; stroke-linecap:square; fill:none" d="M 282.5 408.376L 277.5 402.876"/>
			<path style="stroke:#f99; stroke-width:0.75; stroke-linecap:round; fill:none" d="M 274.058 393.434L 277.205 390.286L 277.199 389.698L 278.532 388.366"/>
			<path style="stroke:#666; stroke-width:0.75; stroke-linecap:square; fill:none" d="M 265 397.89L 271.297 404.173L 275.656 404.157L 282 397.89"/>
			<path style="stroke:#000; stroke-width:1; fill:none" d="M 282.5 408.39L 264.5 408.39L 264.5 397.39L 282.5 397.39L 282.5 408.39z"/>
			<path style="stroke:#f00; stroke-width:0.75; stroke-linecap:round; fill:none" d="M 274.261 392.637L 277.321 389.577"/>
			<path style="stroke:#fc9; stroke-width:0.75; stroke-linecap:round; fill:none" d="M 282.263 390.366L 282.915 389.714L 282.946 389.09L 284.398 387.637"/>
			<path style="stroke:#f99; stroke-width:0.75; stroke-linecap:round; fill:none" d="M 278.016 394.613L 282.343 390.286L 282.337 389.698L 283.67 388.366"/>
			<path style="stroke:#f00; stroke-width:0.75; stroke-linecap:round; fill:none" d="M 278.219 393.817L 282.459 389.577"/>
			<path style="stroke:#fc9; stroke-width:0.75; stroke-linecap:round; fill:none" d="M 285.364 395.29L 286.017 394.638L 286.048 394.014L 287.5 392.561"/>
			<path style="stroke:#f99; stroke-width:0.75; stroke-linecap:round; fill:none" d="M 284.028 396.626L 285.444 395.21L 285.439 394.622L 286.772 393.29"/>
			<path style="stroke:#f00; stroke-width:0.75; stroke-linecap:round; fill:none" d="M 284.231 395.829L 285.56 394.501"/>
		</g>
	</g>
</svg>
