<svg xmlns="http://www.w3.org/2000/svg" width="24" height="24">
	<g transform="translate(-264,-386)" id="KDDI_D_152">
		<g>
			<path style="stroke:none; fill:none" d="M 288 409.89L 264 409.89L 264 385.89L 288 385.89L 288 409.89z"/>
		</g>
		<g>
			<path style="stroke:#666; stroke-width:0.5; fill:#666" d="M 266.5 391.39L 264.5 391.39C 264.5 391.39 264.5 393.845 264.5 394.845C 264.5 395.845 265.281 396.689 266.281 397.689C 267.556 398.963 270.938 400.189 274.5 399.39L 284.5 409.39C 284.5 409.39 286.25 409.64 287 408.89C 287.75 408.14 287.5 406.39 287.5 406.39L 277.5 396.39C 277.5 396.39 278.5 394.89 278.5 391.89C 278.5 388.89 276.458 386.39 273.458 386.39C 270.458 386.39 269.5 386.39 269.5 386.39L 269.5 388.39L 270.5 389.39L 274 389.39L 274.5 389.89L 274.5 393.39L 272.5 395.39L 269 395.39L 267.5 393.89L 267.5 392.39L 266.5 391.39z"/>
			<path style="stroke:none; fill:#c99" d="M 274.875 390.23L 274.875 393.522L 272.667 395.772L 273.365 395.783L 275.417 393.751L 275.417 390.835L 274.875 390.23z"/>
			<path style="stroke:none; fill:#336" d="M 285.625 404.72C 285.625 404.72 286.469 406.345 286.469 407.439C 286.469 408.532 286.208 409.085 286.208 409.085L 287.208 409.085L 287.271 406.282L 285.625 404.72z"/>
			<path style="stroke:none; fill:#336" d="M 280.772 402.491L 283.689 405.407L 283.697 402.741L 280.775 399.819L 280.772 402.491z"/>
			<path style="stroke:none; fill:#336" d="M 276.178 388.73C 276.999 389.551 277.292 390.894 277.292 391.876L 277.292 392.009C 277.293 393.145 277.293 394.126 276.825 395.172L 276.781 395.269L 276.781 398.477L 278.912 400.689L 278.926 398.032C 278.926 398.032 278 397.054 277.781 396.823C 277.781 396.525 277.781 395.497 277.781 395.422C 278.248 394.289 278.292 393.238 278.292 392.141C 278.292 392.097 278.292 391.876 278.292 391.876C 278.292 390.344 277.766 388.903 276.885 388.023L 276.178 388.73z"/>
			<path style="stroke:none; fill:#336" d="M 269.875 388.522L 269.875 389.202L 273.833 389.202L 273.285 388.528L 269.875 388.522z"/>
			<path style="stroke:none; fill:#996" d="M 286.243 407.352L 276.969 398.095L 276.979 396.46L 276.792 395.272L 275.728 397.732L 273.542 398.335L 273.656 399.189L 275.969 398.814L 285.375 408.064C 285.375 408.064 285.942 408.787 286.354 408.376C 286.787 407.944 286.243 407.352 286.243 407.352z"/>
			<path style="stroke:#c99; stroke-width:1; stroke-linecap:square; fill:none" d="M 265.062 391.939C 265.062 391.939 265.062 393.939 265.062 394.376C 265.062 395.064 265.83 396.838 268.094 397.97C 269.99 398.918 271.75 399.032 273.125 398.876"/>
			<path style="stroke:#000; stroke-width:0.75; stroke-linecap:square; fill:none" d="M 269.5 388.657L 269.5 386.39C 269.5 386.39 270.458 386.39 273.458 386.39C 276.458 386.39 278.5 388.89 278.5 391.89C 278.5 394.89 277.5 396.39 277.5 396.39L 287.5 406.39C 287.5 406.39 287.75 408.14 287 408.89C 286.25 409.64 284.5 409.39 284.5 409.39L 274.5 399.39C 270.938 400.189 267.556 398.963 266.281 397.689C 265.281 396.689 264.5 395.845 264.5 394.845C 264.5 393.845 264.5 391.39 264.5 391.39L 266.935 391.39L 267.5 391.906L 267.5 393.39L 269.5 395.39L 272.5 395.39L 274.5 393.39L 274.5 390.39L 273.5 389.39L 270.25 389.39L 269.5 388.657z"/>
		</g>
	</g>
</svg>
