<svg xmlns="http://www.w3.org/2000/svg" width="24" height="24">
	<g transform="translate(-264,-386)" id="KDDI_D_155">
		<g>
			<path style="stroke:none; fill:none" d="M 288 409.89L 264 409.89L 264 385.89L 288 385.89L 288 409.89z"/>
		</g>
		<g>
			<path style="stroke:#3c9; stroke-width:0.75; fill:#3c9" d="M 287.562 390.827C 287.625 388.515 286.322 387.102 285.188 386.671C 284.281 386.327 283.094 386.015 281.382 387.647C 280.87 388.135 279.544 389.44 279.042 390.056C 278.125 391.181 278.257 392.772 279.257 393.772C 280.257 394.772 282.167 395.39 282.167 395.39L 282.125 396.452C 282.125 396.452 281.912 398.423 279.229 401.106C 276.547 403.788 274.443 404.001 274.443 404.001L 273.38 404.043C 273.38 404.043 272.762 402.133 271.762 401.133C 270.762 400.133 269.172 400.001 268.047 400.918C 267.43 401.42 266.125 402.746 265.637 403.258C 264.005 404.97 264.318 406.157 264.662 407.064C 265.092 408.198 266.505 409.501 268.818 409.439L 269.839 409.335L 271.519 409.376C 276.125 409.376 279.833 407.412 282.85 404.287C 285.699 401.31 287.5 397.899 287.5 393.528L 287.458 391.848L 287.562 390.827z"/>
			<path style="stroke:none; fill:#9ff" d="M 264.547 406.501C 264.255 404.876 265.464 403.397 266.13 402.96C 266.13 402.96 265.839 405.126 266.464 406.168C 267.089 407.21 268.38 408.085 268.38 408.085L 267.63 409.418C 267.63 409.418 264.871 408.308 264.547 406.501z"/>
			<path style="stroke:none; fill:#9ff" d="M 281.188 387.537L 279.105 389.661C 278.604 390.162 278.338 390.816 278.338 391.53C 278.338 391.64 278.345 391.751 278.357 391.862C 278.443 392.626 278.812 393.368 279.397 393.952C 280.2 394.755 281.446 395.249 282.07 395.46C 282.043 396.288 281.783 398.264 279.468 400.743C 277.162 403.212 275.224 404.043 275.224 404.043C 275.224 404.043 277.588 404.221 280.199 401.426C 283.268 398.14 283.092 395.218 283.082 395.068L 283.061 394.711L 282.715 394.616C 282.698 394.611 280.996 394.137 280.103 393.245C 279.685 392.826 279.411 392.282 279.351 391.751C 279.309 391.373 279.354 390.826 279.812 390.368L 281.895 388.243C 282.054 388.085 283.667 386.39 283.667 386.39C 283.219 386.594 281.452 387.272 281.188 387.537z"/>
			<path style="stroke:none; fill:#066" d="M 286.417 390.032L 286.417 393.265C 286.417 397.782 284.99 400.681 281.927 403.758C 278.847 406.852 275.788 408.293 271.214 408.293L 270.068 408.329C 269.396 408.359 268.476 408.401 268.194 408.315L 267.9 409.271C 268.316 409.399 269.046 409.377 270.113 409.328L 271.214 409.293C 276.071 409.293 279.355 407.758 282.636 404.463C 285.897 401.187 287.417 398.064 287.417 393.265L 287.417 390.015C 287.417 389.555 286.74 387.415 285.234 386.615C 285.234 386.615 286.417 388.39 286.417 390.032z"/>
			<path style="stroke:#036; stroke-width:0.75; stroke-linecap:square; fill:none" d="M 287.438 389.765C 287.438 389.765 285.812 390.015 283.625 392.015C 282.057 393.448 281.333 394.973 281.333 394.973"/>
			<path style="stroke:#036; stroke-width:0.75; stroke-linecap:square; fill:none" d="M 267.88 409.397C 267.88 409.397 268.13 407.772 270.13 405.584C 271.564 404.016 273.088 403.293 273.088 403.293"/>
			<path style="stroke:#000; stroke-width:0.75; stroke-linejoin:round; stroke-linecap:square; fill:none" d="M 287.562 390.827C 287.625 388.515 286.322 387.102 285.188 386.671C 284.281 386.327 283.094 386.015 281.382 387.647C 280.87 388.135 279.544 389.44 279.042 390.056C 278.125 391.181 278.257 392.772 279.257 393.772C 280.257 394.772 282.167 395.39 282.167 395.39L 282.125 396.452C 282.125 396.452 281.912 398.423 279.229 401.106C 276.547 403.788 274.443 404.001 274.443 404.001L 273.38 404.043C 273.38 404.043 272.762 402.133 271.762 401.133C 270.762 400.133 269.172 400.001 268.047 400.918C 267.43 401.42 266.125 402.746 265.637 403.258C 264.005 404.97 264.318 406.157 264.662 407.064C 265.092 408.198 266.505 409.501 268.818 409.439L 269.839 409.335L 271.519 409.376C 276.125 409.376 279.833 407.412 282.85 404.287C 285.699 401.31 287.5 397.899 287.5 393.528L 287.458 391.848L 287.562 390.827z"/>
		</g>
	</g>
</svg>
