<svg xmlns="http://www.w3.org/2000/svg" height="24" width="24">
    <g transform="matrix(1,0,0,-1,-264,408)" id="KDDI_D_">        <path d="M282 402h-12v5h12z" fill="#c60"/>
        <path d="M281 402h1v5h-1z" fill="#930"/>
        <path d="M271 402h-1v5h1z" fill="#f93"/>
        <path d="M280 402h-8v4h8z" fill="#fff"/>
        <path d="M279 403h-7v3h7z" fill="#6ff"/>
        <path d="M273 402h-1v4h1z" fill="#69f"/>
        <path d="M272 405h8v1h-8z" fill="#69f"/>
        <path d="M288 385h-24v17h24z" fill="#c60"/>
        <path d="M275 386h-5v4.7h5z" fill="#6ff"/>
        <path d="M274.9 389.4v-.9L270 386v.9z" fill="#fff"/>
        <path d="M271 386h-1v4.7h1z" fill="#69f"/>
        <path d="M282 386h-5v4.7h5z" fill="#6ff"/>
        <path d="M281.9 389.4v-.9L277 386v.9z" fill="#fff"/>
        <path d="M278 386h-1v4.7h1z" fill="#69f"/>
        <path d="M265 386h-1v16h1z" fill="#f93"/>
        <path d="M288 386h-1v16h1z" fill="#930"/>
        <path d="M272 399h-6v1h6z" fill="#fff"/>
        <path d="M271 399h-5v1h5z" fill="#6ff"/>
        <path d="M268 399h-2v1h2z" fill="#69f"/>
        <path d="M272 396.9h-6v1h6z" fill="#fff"/>
        <path d="M271 396.9h-5v1h5z" fill="#6ff"/>
        <path d="M268 396.9h-2v1h2z" fill="#69f"/>
        <path d="M272 394.8h-6v1h6z" fill="#fff"/>
        <path d="M271 394.8h-5v1h5z" fill="#6ff"/>
        <path d="M268 394.8h-2v1h2z" fill="#69f"/>
        <path d="M272 392.7h-6v1h6z" fill="#fff"/>
        <path d="M271 392.7h-5v1h5z" fill="#6ff"/>
        <path d="M268 392.7h-2v1h2z" fill="#69f"/>
        <path d="M279 399h-6v1h6z" fill="#fff"/>
        <path d="M278 399h-5v1h5z" fill="#6ff"/>
        <path d="M275 399h-2v1h2z" fill="#69f"/>
        <path d="M279 396.9h-6v1h6z" fill="#fff"/>
        <path d="M278 396.9h-5v1h5z" fill="#6ff"/>
        <path d="M275 396.9h-2v1h2z" fill="#69f"/>
        <path d="M279 394.8h-6v1h6z" fill="#fff"/>
        <path d="M278 394.8h-5v1h5z" fill="#6ff"/>
        <path d="M275 394.8h-2v1h2z" fill="#69f"/>
        <path d="M279 392.7h-6v1h6z" fill="#fff"/>
        <path d="M278 392.7h-5v1h5z" fill="#6ff"/>
        <path d="M275 392.7h-2v1h2z" fill="#69f"/>
        <path d="M286 399h-6v1h6z" fill="#fff"/>
        <path d="M285 399h-5v1h5z" fill="#6ff"/>
        <path d="M282 399h-2v1h2z" fill="#69f"/>
        <path d="M286 396.9h-6v1h6z" fill="#fff"/>
        <path d="M285 396.9h-5v1h5z" fill="#6ff"/>
        <path d="M282 396.9h-2v1h2z" fill="#69f"/>
        <path d="M286 394.8h-6v1h6z" fill="#fff"/>
        <path d="M285 394.8h-5v1h5z" fill="#6ff"/>
        <path d="M282 394.8h-2v1h2z" fill="#69f"/>
        <path d="M286 392.7h-6v1h6z" fill="#fff"/>
        <path d="M285 392.7h-5v1h5z" fill="#6ff"/>
        <path d="M282 392.7h-2v1h2z" fill="#69f"/>
        <path d="M288 386h-24v-1h24z"/>
    </g>
</svg>
