<svg xmlns="http://www.w3.org/2000/svg" width="24" height="24">
	<g transform="translate(-264,-386)" id="KDDI_D_157">
		<g>
			<path style="stroke:none; fill:none" d="M 288 409.89L 264 409.89L 264 385.89L 288 385.89L 288 409.89z"/>
		</g>
		<g>
			<path style="stroke:#fff; stroke-width:2; stroke-linecap:square; fill:none" d="M 265.5 400.778L 286.5 400.778"/>
			<path style="stroke:#69f; stroke-width:5; fill:none" d="M 266 397.39L 287 397.39"/>
			<path style="stroke:#9cf; stroke-width:1; stroke-linecap:square; fill:none" d="M 265.5 393.89L 265.5 401.89"/>
			<path style="stroke:#9cf; stroke-width:1; stroke-linecap:square; fill:none" d="M 265.5 394.39L 286.5 394.39"/>
			<path style="stroke:#336; stroke-width:1; stroke-linecap:square; fill:none" d="M 266.5 393.89L 266.5 395.39"/>
			<path style="stroke:#ccf; stroke-width:1; stroke-linecap:square; fill:none" d="M 265.5 393.89L 265.5 394.39"/>
			<path style="stroke:#336; stroke-width:1; stroke-linecap:square; fill:none" d="M 269.5 393.89L 269.5 395.39"/>
			<path style="stroke:#336; stroke-width:1; stroke-linecap:square; fill:none" d="M 272.5 393.89L 272.5 395.39"/>
			<path style="stroke:#336; stroke-width:1; stroke-linecap:square; fill:none" d="M 275.5 393.89L 275.5 395.39"/>
			<path style="stroke:#336; stroke-width:1; stroke-linecap:square; fill:none" d="M 284.5 393.89L 284.5 395.39"/>
			<path style="stroke:#336; stroke-width:1; stroke-linecap:square; fill:none" d="M 278.5 393.89L 278.5 395.39"/>
			<path style="stroke:#336; stroke-width:1; stroke-linecap:square; fill:none" d="M 281.5 393.89L 281.5 395.39"/>
			<path style="stroke:#000; stroke-width:1; fill:none" d="M 287.5 402.39L 264.5 402.39L 264.5 393.39L 287.5 393.39L 287.5 402.39z"/>
		</g>
	</g>
</svg>
