<svg xmlns="http://www.w3.org/2000/svg" height="24" width="24">
    <g transform="matrix(1,0,0,-1,-264,408)" id="KDDI_D_">        <path d="M287.3 407.6l-22.9-23h23l-.1 23m-6.8-18.2c-1 0-1.8.8-1.8 1.8s.8 1.9 1.8 1.9 1.9-.9 1.9-1.9c0-1-.9-1.8-1.9-1.8z" fill="#cff"/>
        <path d="M287.4 384.6l-.1 23-1.5-4.2-.1-17.2z" fill="#9cf"/>
        <path d="M287.4 384.6l-1.6 1.6h-16.9l-3.4-1.6z" fill="#36c"/>
        <path d="M285.8 403.4l-17.2-17.3h17.3l-.1 17.3m-5.3-14c-1 0-1.8.8-1.8 1.8s.8 1.9 1.8 1.9 1.9-.9 1.9-1.9c0-1-.9-1.8-1.9-1.8z" fill="#39f"/>
        <path d="M286.1 403.7l-17.5-17.6h2l15.5 15.5z" fill="#9cf"/>
        <path d="M270.1 389.9l1.4-1.4M272.2 392.1l1.4-1.4M274.4 394.3l1.4-1.5M276.5 396.4l1.4-1.4M278.7 398.6l1.4-1.4M280.8 400.7l1.4-1.4M283 402.9l1.4-1.4" fill="none" stroke="#666"/>
        <path d="M281 392.6c.4 0 .7-.1 1-.3-.3.5-.9.8-1.5.8-1 0-1.8-.9-1.8-1.9 0-.6.3-1.1.8-1.5-.3.3-.4.7-.4 1.1 0 1 .8 1.8 1.9 1.8z" fill="#036"/>
        <path d="M287.6 384.4l-.1 23-22.9-23z" fill="none" stroke="#000" stroke-linejoin="round"/>
    </g>
</svg>
