<svg xmlns="http://www.w3.org/2000/svg" width="24" height="24">
	<g transform="translate(-264,-386)" id="KDDI_D_159">
		<g>
			<path style="stroke:none; fill:none" d="M 288 409.89L 264 409.89L 264 385.89L 288 385.89L 288 409.89z"/>
		</g>
		<g>
			<path style="stroke:none; fill:#cff" d="M 287.5 408.39L 265.5 408.39L 265.5 386.39L 287.5 386.39L 287.5 408.39z"/>
			<path style="stroke:#9cf; stroke-width:1; stroke-linecap:square; fill:none" d="M 266 392.39L 286.5 392.39"/>
			<path style="stroke:#9cf; stroke-width:1; stroke-linecap:square; fill:none" d="M 266 388.39L 286.5 388.39"/>
			<path style="stroke:#9cf; stroke-width:1; stroke-linecap:square; fill:none" d="M 269.5 387.39L 269.5 407.89"/>
			<path style="stroke:#9cf; stroke-width:1; stroke-linecap:square; fill:none" d="M 273.5 387.39L 273.5 407.89"/>
			<path style="stroke:#9cf; stroke-width:1; stroke-linecap:square; fill:none" d="M 277.5 387.39L 277.5 407.89"/>
			<path style="stroke:#9cf; stroke-width:1; stroke-linecap:square; fill:none" d="M 281.5 387.39L 281.5 407.89"/>
			<path style="stroke:#9cf; stroke-width:1; stroke-linecap:square; fill:none" d="M 285.5 387.39L 285.5 407.89"/>
			<path style="stroke:#9cf; stroke-width:1; stroke-linecap:square; fill:none" d="M 266 396.39L 286.5 396.39"/>
			<path style="stroke:#9cf; stroke-width:1; stroke-linecap:square; fill:none" d="M 266 400.39L 286.5 400.39"/>
			<path style="stroke:#9cf; stroke-width:1; stroke-linecap:square; fill:none" d="M 266 404.39L 286.5 404.39"/>
			<path style="stroke:#69f; stroke-width:0.8; fill:none" d="M 265.5 394.89L 271.5 400.918L 276 396.335L 287.5 407.89"/>
			<path style="stroke:#666; stroke-width:1; fill:none" d="M 264 386.39L 265 386.39"/>
			<path style="stroke:#666; stroke-width:1; fill:none" d="M 264 388.39L 265 388.39"/>
			<path style="stroke:#666; stroke-width:1; fill:none" d="M 264 390.39L 265 390.39"/>
			<path style="stroke:#666; stroke-width:1; fill:none" d="M 264 392.39L 265 392.39"/>
			<path style="stroke:#666; stroke-width:1; fill:none" d="M 264 394.39L 265 394.39"/>
			<path style="stroke:#666; stroke-width:1; fill:none" d="M 264 396.39L 265 396.39"/>
			<path style="stroke:#666; stroke-width:1; fill:none" d="M 264 398.39L 265 398.39"/>
			<path style="stroke:#666; stroke-width:1; fill:none" d="M 264 400.39L 265 400.39"/>
			<path style="stroke:#666; stroke-width:1; fill:none" d="M 264 402.39L 265 402.39"/>
			<path style="stroke:#666; stroke-width:1; fill:none" d="M 264 404.39L 265 404.39"/>
			<path style="stroke:#666; stroke-width:1; fill:none" d="M 264 406.39L 265 406.39"/>
			<path style="stroke:#666; stroke-width:1; fill:none" d="M 264 408.39L 265 408.39"/>
			<path style="stroke:#666; stroke-width:1; fill:none" d="M 265.5 409.89L 265.5 408.89"/>
			<path style="stroke:#69f; stroke-width:1; stroke-linecap:square; fill:none" d="M 271.554 400.836L 275.5 396.89"/>
			<path style="stroke:#666; stroke-width:1; fill:none" d="M 267.5 409.89L 267.5 408.89"/>
			<path style="stroke:#666; stroke-width:1; fill:none" d="M 269.5 409.89L 269.5 408.89"/>
			<path style="stroke:#666; stroke-width:1; fill:none" d="M 271.5 409.89L 271.5 408.89"/>
			<path style="stroke:#666; stroke-width:1; fill:none" d="M 273.5 409.89L 273.5 408.89"/>
			<path style="stroke:#666; stroke-width:1; fill:none" d="M 275.5 409.89L 275.5 408.89"/>
			<path style="stroke:#666; stroke-width:1; fill:none" d="M 277.5 409.89L 277.5 408.89"/>
			<path style="stroke:#666; stroke-width:1; fill:none" d="M 279.5 409.89L 279.5 408.89"/>
			<path style="stroke:#666; stroke-width:1; fill:none" d="M 281.5 409.89L 281.5 408.89"/>
			<path style="stroke:#666; stroke-width:1; fill:none" d="M 283.5 409.89L 283.5 408.89"/>
			<path style="stroke:#666; stroke-width:1; fill:none" d="M 285.5 409.89L 285.5 408.89"/>
			<path style="stroke:#666; stroke-width:1; fill:none" d="M 287.5 409.89L 287.5 408.89"/>
			<path style="stroke:#03f; stroke-width:0.75; fill:none" d="M 265.5 394.39L 271.5 400.39L 275.5 396.39L 287.5 408.403"/>
			<path style="stroke:#90f; stroke-width:1; fill:none" d="M 266 386.39L 287.5 386.39L 287.5 407.89"/>
			<path style="stroke:#000; stroke-width:1; stroke-linecap:square; fill:none" d="M 265.5 386.39L 265.5 408.39L 287.5 408.39"/>
		</g>
	</g>
</svg>
