<svg xmlns="http://www.w3.org/2000/svg" height="24" width="24">
    <g transform="matrix(1,0,0,-1,-264,408)" id="KDDI_D_">        <path d="M285.7 405.7c0 1-.8 1.8-1.8 1.8s-1.8-.8-1.8-1.8c0-.5.1-.9.4-1.2l-14.9-15c-.3.3-.8.5-1.2.5-1 0-1.8-.8-1.8-1.8s.8-1.9 1.8-1.9c0-1 .8-1.8 1.8-1.8s1.9.8 1.9 1.8c0 .5-.2.9-.5 1.2l14.9 15c.3-.3.8-.5 1.2-.5 1 0 1.9.8 1.9 1.8s-.9 1.9-1.9 1.9z" fill="#cc9"/>
        <path d="M267.6 389.3c.4 0 .8-.2 1.2-.5l14.9 14.9c-.3.3-.5.8-.5 1.2 0 1 .8 1.9 1.9 1.9.1 0 .2-.1.3-.1-.3.5-.9.8-1.5.8-1 0-1.8-.8-1.8-1.8 0-.5.1-.9.4-1.2l-14.9-15c-.3.3-.8.5-1.2.5-1 0-1.8-.8-1.8-1.8 0-.9.6-1.7 1.5-1.8-.3.3-.4.6-.4 1 0 1 .8 1.9 1.9 1.9z" fill="#ffc"/>
        <path d="M287.2 404.9c-.1.1-.2.3-.4.4.1-.1.1-.3.1-.4h.3zM266.4 386c.2-.8.7-1.3 1.5-1.5-.2.3-.3.7-.3 1.1-.5 0-.9.1-1.2.4zM286.8 405.3c-.1.7-.7 1.3-1.4 1.4.2-.3.3-.6.3-1 .4 0 .8-.2 1.1-.4zM266.1 386.4c.1-.2.2-.3.3-.4v.3c-.1 0-.2 0-.3.1z" fill="#cc9"/>
        <path d="M285.7 405.7c0 1-.8 1.8-1.8 1.8s-1.8-.8-1.8-1.8c0-.5.1-.9.4-1.2l-14.9-15c-.3.3-.8.5-1.2.5-1 0-1.8-.8-1.8-1.8s.8-1.9 1.8-1.9c0-1 .8-1.8 1.8-1.8s1.9.8 1.9 1.8c0 .5-.2.9-.5 1.2l14.9 15c.3-.3.8-.5 1.2-.5 1 0 1.9.8 1.9 1.8s-.9 1.9-1.9 1.9z" fill="none" stroke="#663" stroke-linejoin="round"/>
        <path d="M284.3 398c0 3.1-2.8 5.6-6.2 5.6-3.3 0-5.4-1.8-5.6-4.7-3-.4-4.7-2.2-4.7-5 0-3.1 2.8-5.6 6.2-5.6 3.3 0 5.4 1.8 5.6 4.7 3 .4 4.7 2.2 4.7 5z" fill="#f90"/>
        <path d="M278.1 394.5c-1.2-1.7-2.8-4.3-6-4.3-1.3 0-.6-1.8 1.8-1.8 3.3 0 5.4 1.8 5.6 4.7 3 .4 4.7 2.2 4.7 5 0 2-1.8 2.8-1.8 1.8 0-2.8-2.7-4.4-4.3-5.4z" fill="#c60"/>
        <path d="M278.7 393.9c-.8-1.5-1.6-4.6-5.5-4.6-1.5 0-1.4-.9.7-.9 3.3 0 5.4 1.8 5.6 4.7 3 .4 4.7 2.2 4.7 5 0 1.7-.7 2.2-.7 1 0-3.3-3.4-4.5-4.8-5.2z" fill="#c30"/>
        <path d="M273.9 397.5c1.2 1.7 2.8 4.3 6 4.3 1.3 0 2.6.3 1.8.8-1 .7-2.3 1-3.6 1-3.3 0-5.4-1.8-5.6-4.7-3-.4-4.7-2.2-4.7-5 0-.9.2-1.8.7-2.5.5-.9 1.1-.3 1.1.7 0 2.8 2.7 4.4 4.3 5.4z" fill="#fc0"/>
        <path d="M273.3 398.1c.8 1.5 1.6 4.6 5.5 4.6 1.5 0 3.3-.7 4.4-1.5-1.1 1.5-3 2.4-5.1 2.4-3.3 0-5.4-1.8-5.6-4.7-3-.4-4.7-2.2-4.7-5 0-1.7.9-3.3 2.2-4.3-.7.9-1.5 2.1-1.5 3.3 0 3.3 3.4 4.5 4.8 5.2z" fill="#ff0"/>
        <path d="M274.9 394.5c0-.3-.2-.5-.5-.5s-.5.2-.5.5.2.5.5.5.5-.2.5-.5zM272.1 391.8c0-.2-.2-.5-.5-.5s-.5.3-.5.5c0 .3.2.5.5.5s.5-.2.5-.5z" fill="#c30"/>
        <path d="M271.4 394.5c0-.3-.2-.5-.5-.5s-.5.2-.5.5.2.5.5.5.5-.2.5-.5zM273.9 397.5c0-.3-.2-.5-.5-.5s-.5.2-.5.5.2.5.5.5.5-.2.5-.5zM277.1 399.3c0-.3-.2-.5-.5-.5s-.5.2-.5.5.2.5.5.5.5-.2.5-.5z" fill="#c60"/>
        <path d="M280.3 399.8c0-.2-.2-.5-.5-.5-.2 0-.5.3-.5.5 0 .3.3.5.5.5.3 0 .5-.2.5-.5zM282.2 398.1c0-.3-.3-.5-.5-.5-.3 0-.5.2-.5.5s.2.5.5.5c.2 0 .5-.2.5-.5zM280.1 396c0-.3-.3-.5-.5-.5-.3 0-.5.2-.5.5s.2.5.5.5c.2 0 .5-.2.5-.5zM277 393.3c0-.3-.2-.5-.5-.5s-.5.2-.5.5.2.6.5.6.5-.3.5-.6zM275 391.2c0-.2-.2-.4-.5-.4s-.5.2-.5.4c0 .3.2.5.5.5s.5-.2.5-.5z" fill="#c30"/>
        <path d="M277 401.8c0-.2-.2-.5-.5-.5-.2 0-.4.3-.4.5 0 .3.2.5.4.5.3 0 .5-.2.5-.5z" fill="#f90"/>
        <path d="M276.9 396.5c0-.2-.2-.4-.4-.4-.3 0-.5.2-.5.4 0 .3.2.5.5.5.2 0 .4-.2.4-.5z" fill="#c30"/>
        <path d="M284.3 398c0 3.1-2.8 5.6-6.2 5.6-3.3 0-5.4-1.8-5.6-4.7-3-.4-4.7-2.2-4.7-5 0-3.1 2.8-5.6 6.2-5.6 3.3 0 5.4 1.8 5.6 4.7 3 .4 4.7 2.2 4.7 5z" fill="none" stroke="#c60"/>
        <path d="M271 389c.9-.5 1.9-.7 3-.7 3.3 0 5.4 1.8 5.6 4.7 3 .4 4.7 2.2 4.7 5 0 1.2-.4 2.3-1.1 3.2" fill="none" stroke="#930" stroke-linecap="round"/>
        <path d="M283.2 401.2c-1.1 1.5-3 2.4-5.1 2.4-3.3 0-5.4-1.8-5.6-4.7-3-.4-4.7-2.2-4.7-5 0-2.1 1.3-4 3.2-4.9" fill="none" stroke="#c60" stroke-linecap="round"/>
    </g>
</svg>
