<svg xmlns="http://www.w3.org/2000/svg" height="24" width="24">
    <g transform="matrix(1,0,0,-1,-264,408)" id="KDDI_D_">        <path d="M279.5 404.3l2.6 2.5" fill="none" stroke="#000" stroke-linecap="round" stroke-linejoin="round"/>
        <path d="M279.3 404.9l2.6 2.5" fill="none" stroke="#333" stroke-linecap="round" stroke-linejoin="round"/>
        <path d="M278.9 404.8l-13-13.1v-.9l6.3-6.3h1l13 13v1l-6.2 6.3z" fill="#09f"/>
        <path d="M273.8 394.7c-.2-.2-.7-.2-1 .2-.4.3-.4.8-.2 1 .2.3.7.2 1.1-.1.3-.4.4-.8.1-1.1zM275.6 393c-.3-.3-.7-.2-1.1.1-.3.4-.4.8-.1 1.1.2.2.7.2 1-.2.3-.3.4-.8.2-1zM277.3 391.2c-.2-.2-.7-.1-1 .2-.4.3-.4.8-.2 1 .2.3.7.2 1-.1.4-.4.5-.8.2-1.1zM272.2 393.1c-.3-.3-.7-.2-1.1.1-.3.4-.4.8-.2 1.1.3.2.8.1 1.1-.2.3-.3.4-.8.2-1zM273.9 391.3c-.2-.2-.7-.2-1 .2-.4.3-.4.8-.2 1 .2.3.7.2 1-.1.4-.4.5-.9.2-1.1zM275.7 389.6c-.3-.3-.7-.2-1.1.1-.3.4-.4.8-.2 1.1.3.2.8.1 1.1-.2.3-.3.4-.8.2-1zM270.5 391.4c-.2-.2-.7-.2-1 .2-.4.3-.4.8-.2 1 .2.3.7.2 1-.2.4-.3.5-.8.2-1zM272.3 389.7c-.3-.3-.7-.2-1.1.1-.3.4-.4.8-.2 1.1.3.2.8.1 1.1-.2.3-.3.4-.8.2-1zM274 387.9c-.2-.2-.7-.2-1 .2-.4.3-.5.8-.2 1 .2.3.7.2 1-.1.4-.4.5-.9.2-1.1z" fill="#cc9"/>
        <path d="M285.1 398.1l-12-12h-.9l-5.2 5.2-.8-.5 6-6h1l12.7 12.6z" fill="#069"/>
        <path d="M285.9 398.6l-6 6h-1.1l-12.7-12.9.9-.3 11.9 12h1.1l5.1-5.3z" fill="#6cf"/>
        <path d="M278.9 404.8l-13-13.1v-.9l6.3-6.3h1l13 13v1l-6.2 6.3z" fill="none" stroke="#000"/>
        <path d="M278.7 401.7l-4.2-4.3v-.5l3.8-3.8h.6l4.2 4.2v.6l-3.7 3.8z" fill="#3f3"/>
        <path d="M283.1 397.9l-3.7 3.8h-.7l-4.2-4.3v-.5l.5-.5 3.7 3.8h.7l3.3-3.3.4.4z" fill="#3c3"/>
        <path d="M278.7 401.7l-4.2-4.3v-.5l3.8-3.8h.6l4.2 4.2v.6l-3.7 3.8z" fill="none" stroke="#000"/>
    </g>
</svg>
