<svg xmlns="http://www.w3.org/2000/svg" width="24" height="24">
	<g transform="translate(-264,-386)" id="KDDI_D_162">
		<g>
			<path style="stroke:none; fill:none" d="M 288 409.89L 264 409.89L 264 385.89L 288 385.89L 288 409.89z"/>
		</g>
		<g>
			<path style="stroke:#039; stroke-width:1; stroke-linecap:square; fill:none" d="M 270.5 404.39C 270.5 404.39 270.5 404.73 270.5 405.23C 270.5 406.835 270.812 408.39 274 408.39C 275.575 408.39 276.588 408.075 277.542 406.835C 278.472 405.624 279.458 402.272 280 401.126C 280.81 399.414 281.771 398.39 283.5 398.39C 285 398.39 286.5 399.89 286.5 401.89C 286.5 404.39 286.5 409.39 286.5 409.39"/>
			<path style="stroke:#069; stroke-width:1; stroke-linecap:square; fill:none" d="M 271.5 404.39C 271.5 404.89 271.512 404.889 271.512 405.39C 271.512 406.89 272.001 407.39 274 407.39C 276.562 407.39 276.737 406.382 277.479 404.879C 277.948 403.931 278.754 401.482 279 400.918C 279.708 399.293 280.938 397.355 283.5 397.39C 285.5 397.417 287.5 399.39 287.5 401.89C 287.5 404.39 287.5 409.39 287.5 409.39"/>
			<path style="stroke:#009; stroke-width:1; stroke-linecap:square; fill:none" d="M 269.5 404.39C 269.5 405.39 269.5 405.043 269.5 405.543C 269.5 408.751 272.021 409.39 273.667 409.39C 276.812 409.39 278.055 408.184 279.021 406.168C 279.979 404.168 280.146 403.46 281 401.251C 281.403 400.208 282 399.39 283.5 399.39C 284.5 399.39 285.5 400.39 285.5 401.39C 285.5 402.39 285.5 409.39 285.5 409.39"/>
			<path style="stroke:#336; stroke-width:1; stroke-linecap:square; fill:none" d="M 266.5 386.39L 266.5 391.89"/>
			<path style="stroke:#666; stroke-width:2; stroke-linecap:square; fill:none" d="M 268 386.89L 268 391.89"/>
			<path style="stroke:#336; stroke-width:1; stroke-linecap:square; fill:none" d="M 272.5 386.39L 272.5 391.89"/>
			<path style="stroke:#666; stroke-width:2; stroke-linecap:square; fill:none" d="M 274 386.89L 274 391.89"/>
			<path style="stroke:#39f; stroke-width:0.75; fill:#39f" d="M 276.5 398.89C 276.5 400.889 273.5 403.89 271.5 403.89C 269.5 403.89 270.5 403.89 269.5 403.89C 267 403.89 264.5 400.89 264.5 398.89C 264.5 395.889 264.5 391.89 264.5 391.89L 276.5 391.89C 276.5 391.89 276.5 396.89 276.5 398.89z"/>
			<path style="stroke:#069; stroke-width:1; fill:#069" d="M 272.5 399.39L 268.5 399.39L 268.5 395.39L 272.5 395.39L 272.5 399.39z"/>
			<path style="stroke:#039; stroke-width:1; stroke-linecap:square; fill:none" d="M 268.5 399.39L 268.5 395.39L 272.5 395.39"/>
			<path style="stroke:#039; stroke-width:1; stroke-linecap:square; fill:none" d="M 265.375 392.39C 265.375 392.39 265.375 398.202 265.375 398.89C 265.375 400.327 266.969 403.72 270.312 403.72C 270.875 403.72 272.719 403.72 272.719 403.72"/>
			<path style="stroke:#3cf; stroke-width:1; stroke-linecap:square; fill:none" d="M 275.562 392.251C 275.562 392.251 275.562 397.72 275.562 398.407C 275.562 399.845 275.219 401.501 274.531 402.376"/>
			<path style="stroke:#000; stroke-width:0.75; stroke-linecap:square; fill:none" d="M 276.5 398.89C 276.5 400.889 274 404.39 271 404.39L 270 404.39C 267 404.39 264.5 400.89 264.5 398.89C 264.5 395.889 264.5 391.89 264.5 391.89L 276.5 391.89C 276.5 391.89 276.5 396.89 276.5 398.89z"/>
		</g>
	</g>
</svg>
