<svg xmlns="http://www.w3.org/2000/svg" height="24" width="24">
    <g transform="matrix(1,0,0,-1,-264,408)" id="KDDI_D_">        <path d="M273 395h-6v4h6z" fill="#fc6"/>
        <path d="M273 395h-1.6v4h1.6z" fill="#f93"/>
        <path d="M274.5 400c0-1.1-.9-2-2-2h-5c-1.1 0-2 .9-2 2v5c0 1.1.9 2 2 2h5c1.1 0 2-.9 2-2z" fill="#fc6"/>
        <path d="M274.5 400c0-1.1-.9-2-2-2h-2.4v2.8l-.8.2.1.8.7.6v4.8h2.4c1.1 0 2-.9 2-2z" fill="#f93"/>
        <path d="M272 408h-4c-1.1 0-2.5-1.1-2.5-2.4v-3.1l.8.1s0 .8.2 1.3c.3.3 1 .7 1.1.9.1.4.5 1.6.5 1.6s.2-1 .6-1.4c.7-.6 2.3-.7 3.1-.7h1.7l.4-1.8.6-.1v3.2c0 1.5-1.4 2.4-2.5 2.4z"/>
        <path d="M273.6 403.8l.3-1.3.6-.1v1.3zM265.5 403.5v-1l.8.1s0 .8.2 1.3z" fill="#666"/>
        <path d="M268.3 403.1v-1.2M271.7 403.1v-1.2" fill="none" stroke="#003" stroke-width="1.2" stroke-linecap="round"/>
        <path d="M268.7 399.7s.3-.4 1.3-.4c.9 0 1.3.5 1.3.5" fill="none" stroke="#003" stroke-linecap="round"/>
        <path d="M284.2 393.8h-4.4v4h4.4z" fill="#f60"/>
        <path d="M280.9 393.8h-1.1v4h1.1z" fill="#f90"/>
        <path d="M284.2 393.8h-1v4h1z" fill="#c30"/>
        <path d="M288 384v7c0 2.2-1.8 4-4 4h-4c-2.2 0-4-1.8-4-4v-7z" fill="#f60"/>
        <path d="M284 395h-2.2c2.2 0 4-1.8 4-4v-7h2.2v7c0 2.2-1.8 4-4 4z" fill="#c30"/>
        <path d="M282.2 395H280c-2.2 0-4-1.8-4-4v-7h2.2v7c0 2.2 1.8 4 4 4z" fill="#f90"/>
        <path d="M266.9 384v8.8c0 2.2 1.8 4 4 4H268c-2.2 0-4-1.8-4-4V384z" fill="#39f"/>
        <path d="M273.1 392.8V384h2.9v8.8c0 2.2-1.8 4-4 4h-2.9c2.2 0 4-1.8 4-4z" fill="#00f"/>
        <path d="M273.1 384v8.8c0 2.2-.9 4-2.1 4h-2.1c-1.1 0-2.1-1.8-2.1-4V384z" fill="#06f"/>
        <path d="M284.2 398c0-1.1-.9-2-2-2h-.4c-1.1 0-2 .9-2 2v4.8c0 1.1.9 2 2 2h.4c1.1 0 2-.9 2-2z" fill="#fc9"/>
        <path d="M287.5 400.2s-.5-.4-1.2-.5v4.2c0 2.2-1.7 4.1-4 4.1h-.7c-2.2 0-4-1.9-4-4.1v-4.2c-.6.1-1.1.5-1.1.5s-.3-.6-.2-1.8c.2-1.3.9-1.6 1.8-1.7.9-.1 2.1.1 2.5 1.4.3.8-.1 1.5-.8 1.7v3.5h.1c.7 0 1.1.7 1.2 1 .1.3.2.5.2.5s.2-.4.4-.7c.1-.3.8-1 1.9-1 .2 0 .4 0 .6.1v-3.4c-.6-.2-1.1-.9-.8-1.7.4-1.3 1.6-1.5 2.5-1.4.9.1 1.6.4 1.8 1.7.1 1.2-.2 1.8-.2 1.8z" fill="#930"/>
        <path d="M279.8 401.9V398c0-1.1.9-2 2-2h.4c1.1 0 2 .9 2 2v3.9z" fill="#fc9"/>
        <path d="M280.5 401.8v-.9M283.4 401.8v-.9" fill="none" stroke="#000" stroke-width="1.2" stroke-linecap="round"/>
        <path d="M281.4 398.3s.3-.2.6-.2.6.2.6.2" fill="none" stroke="#c00" stroke-linecap="round"/>
        <path d="M281.4 384c-.5 1.2-1.6 2.1-3 2.1h-4.6c-1.4 0-2.6-.9-3-2.1zM276.4 394.5h-.8c-2.2 0-4-1.9-4-3.9 0-2.1 1.1-2.5 1.1-2.5h1v1.4c0 1.3 1 1.5 2.3 1.5 1.3 0 2.4-.2 2.4-1.5v-1.4h1s1 .4 1 2.5c0 2-1.8 3.9-4 3.9z" fill="#900"/>
        <path d="M278.4 388.1v1.4c0 1.3-1.1 1.5-2.4 1.5-1.3 0-2.3-.2-2.3-1.5v-1.4h-.7c.4-1.5 1.6-2.6 3-2.6s2.6 1.1 3 2.6z" fill="#fc9"/>
        <path d="M274.4 389.2v-.4M277.7 389.2v-.4" fill="none" stroke="#000" stroke-width="1.3" stroke-linecap="round"/>
        <path d="M275.4 387.2s.3-.2.6-.2.7.3.7.3" fill="none" stroke="#c00" stroke-linecap="round"/>
    </g>
</svg>
