<svg xmlns="http://www.w3.org/2000/svg" width="24" height="24">
	<g transform="translate(-264,-386)" id="KDDI_D_164">
		<g>
			<path style="stroke:none; fill:none" d="M 288 409.89L 264 409.89L 264 385.89L 288 385.89L 288 409.89z"/>
		</g>
		<g>
			<path style="stroke:none; fill:#c30" d="M 266.912 407.186C 265.173 405.446 265.261 401.671 267.266 400.468C 269.033 399.407 273.982 400.115 273.982 400.115L 274.337 399.761C 274.337 399.761 272.569 397.286 270.801 398.347C 269.803 398.946 265.498 399.408 264.438 402.59C 263.647 404.962 263.958 407.06 265.498 408.6C 266.173 409.275 267.727 409.748 269.21 409.858L 269.21 408.317C 268.329 408.151 267.503 407.777 266.912 407.186z"/>
			<path style="stroke:none; fill:#990" d="M 271.509 409.661C 274.69 408.6 275.166 404.27 275.751 403.297C 276.811 401.529 274.337 399.761 274.337 399.761L 273.982 400.115L 273.983 400.115L 273.985 400.118C 273.99 400.171 274.69 405.065 273.63 406.832C 272.835 408.155 270.921 408.639 269.21 408.317L 269.21 409.858C 270.06 409.922 270.886 409.869 271.509 409.661z"/>
			<path style="stroke:none; fill:#990" d="M 278.579 389.154C 279.782 387.15 283.558 387.062 285.297 388.801C 285.888 389.393 286.262 390.219 286.428 391.1L 287.969 391.099C 287.858 389.616 287.386 388.062 286.711 387.387C 285.171 385.847 283.072 385.537 280.701 386.327C 277.519 387.387 277.057 391.692 276.458 392.691C 275.397 394.458 277.872 396.226 277.872 396.226L 278.226 395.872C 278.226 395.872 277.519 390.922 278.579 389.154z"/>
			<path style="stroke:none; fill:#660" d="M 278.578 388.627C 277.048 389.474 275.803 390.565 274.794 391.776C 274.069 393.137 273.637 394.493 273.638 395.512C 273.638 396.918 273.63 398.347 273.63 400.468C 273.63 400.474 273.629 400.479 273.63 400.486L 273.629 407.361C 275.155 406.516 276.398 405.432 277.406 404.228C 278.135 402.862 278.568 401.501 278.569 400.48C 278.569 398.346 278.58 396.929 278.579 395.519C 278.579 395.513 278.579 395.508 278.579 395.502L 278.578 388.627z"/>
			<path style="stroke:none; fill:#c30" d="M 281.408 397.64C 282.381 397.056 286.711 396.579 287.772 393.398C 287.979 392.775 288.033 391.948 287.969 391.099L 286.428 391.1C 286.749 392.81 286.267 394.724 284.943 395.519C 283.176 396.579 278.281 395.88 278.228 395.875L 278.226 395.872L 278.226 395.872L 277.872 396.226C 277.872 396.226 279.64 398.701 281.408 397.64z"/>
			<path style="stroke:none; fill:#f66" d="M 278.597 395.519C 278.59 395.519 278.585 395.519 278.579 395.519C 276.458 395.52 275.029 395.527 273.622 395.527C 272.603 395.527 271.248 395.96 269.887 396.683C 268.679 397.69 267.589 398.933 266.742 400.459L 278.591 400.459C 279.611 400.458 280.973 400.024 282.339 399.295C 283.542 398.287 284.627 397.045 285.472 395.519L 278.597 395.519z"/>
			<path style="stroke:none; fill:#c66" d="M 269.887 396.683C 267.478 397.965 265.05 400.172 264.438 402.59C 265.852 400.468 267.254 400.497 267.266 400.468C 268.16 398.437 268.406 397.917 269.887 396.683z"/>
			<path style="stroke:none; fill:#c66" d="M 282.339 399.295C 284.742 398.014 287.162 395.812 287.772 393.398C 286.357 395.519 284.955 395.491 284.943 395.519C 284.052 397.547 283.81 398.062 282.339 399.295z"/>
			<path style="stroke:none; fill:#660" d="M 273.63 406.832C 273.603 406.844 273.63 408.247 271.509 409.661C 273.923 409.051 276.124 406.631 277.406 404.228C 276.173 405.7 275.657 405.939 273.63 406.832z"/>
			<path style="stroke:none; fill:#996" d="M 278.579 389.154C 278.607 389.141 278.579 387.74 280.701 386.327C 278.282 386.939 276.075 389.366 274.794 391.776C 276.027 390.295 276.547 390.048 278.579 389.154z"/>
			<path style="stroke:none; fill:#f96" d="M 279.258 395.519L 274.311 400.466C 274.753 400.465 275.227 400.464 275.729 400.462L 280.673 395.519L 279.258 395.519z"/>
			<path style="stroke:none; fill:#fc6" d="M 277.845 395.519C 277.845 395.519 277.845 395.519 277.844 395.52L 272.896 400.468C 273.355 400.469 273.826 400.468 274.311 400.466L 279.258 395.519C 279.258 395.519 277.851 395.519 277.845 395.519z"/>
			<path style="stroke:none; fill:#f96" d="M 276.429 395.521L 271.48 400.469L 272.895 400.469L 277.844 395.52L 276.429 395.521z"/>
		</g>
	</g>
</svg>
