<svg xmlns="http://www.w3.org/2000/svg" height="24" width="24">
    <g transform="matrix(1,0,0,-1,-264,408)" id="KDDI_D_">        <path d="M287.5 399.7v-8.5l-12.3-6.7-10.7 4.5v8.6" fill="#960"/>
        <path d="M275.2 393.1v-8.6l-10.7 4.5v8.6" fill="#c90"/>
        <path d="M287.6 399.7l-12.4-6.6-10.7 4.5 12.3 6.6z" fill="#fc0"/>
        <path d="M275.2 393.1v-8.6" fill="none" stroke="#fc0" stroke-linecap="round"/>
        <path d="M275.2 393.1l-10.7 4.5" fill="none" stroke="#ffc" stroke-linejoin="round"/>
        <path d="M287.6 399.7l-12.4-6.6" fill="none" stroke="#ff6" stroke-linecap="round" stroke-linejoin="round"/>
        <path d="M287.5 399.7v-8.5l-12.3-6.7-10.7 4.5v8.6" fill="none" stroke="#000" stroke-linejoin="round"/>
        <path d="M264.5 397.6l12.3 6.6 10.8-4.5" fill="none" stroke="#000" stroke-linecap="round" stroke-linejoin="round"/>
        <path d="M269 396.1c-.3-.1-.6-.5-.6-.8v-8.5l1.8-.6v8.6c.9.5 13.3 7.2 13.3 7.2l-2 .8z" fill="#900"/>
        <path d="M269.1 396.2l-.1-.1c-.3-.1-.5-.4-.6-.8l1.8-.6v.1c.1.1.9.5.9.5z" fill="#c30"/>
        <path d="M269.5 400.9s10.4-4.4 11.5-4.8V387l1.5.9v8.7c0 .4-.3.8-.7.9l-10.5 4.4z" fill="#900"/>
        <path d="M280.3 396.4c.2-.1.6-.3.7-.3v-.5l1.5.8v.2c0 .3-.2.6-.4.8z" fill="#c00"/>
        <path d="M278.9 399.5c0-.9-.9-1.6-2-1.6s-2 .7-2 1.6c0 .8.9 1.5 2 1.5s2-.7 2-1.5z" fill="#600"/>
        <path d="M278.1 399.3c0-.4-.7-.8-1.5-.8s-1.5.4-1.5.8c0 .5.7.8 1.5.8s1.5-.3 1.5-.8z" fill="#300"/>
        <path d="M276.6 401l7.1 7 1.7-.7-8.2-6.5" fill="#c00"/>
        <path d="M277.1 401l7.1 7 1.7-.7-8.3-6.5" fill="#900"/>
        <path d="M275.4 401.4l-5.1 6.6-1.5-.7 6.2-6.3" fill="#c00"/>
        <path d="M275.9 401.4l-5.2 6.6-1.5-.7 6.2-6.3" fill="#900"/>
        <path d="M275.7 399c0 .6.6 1 1.5 1 .5 0 1-.2 1.2-.5 0 .1.1.1.1.2 0 1-1.1 1.8-2.3 1.8-1.3 0-2.3-.8-2.3-1.8s1-1.8 2.3-1.8c.3 0 .6 0 .9.1-.8 0-1.4.5-1.4 1z" fill="#900"/>
        <path d="M274.4 399.7v-.2l1.3-.4c.1.2.1.4.3.5l-1.4 1c-.1-.2-.2-.6-.2-.9z" fill="#c00"/>
    </g>
</svg>
