<svg xmlns="http://www.w3.org/2000/svg" height="24" width="24">
    <g transform="matrix(1,0,0,-1,-264,408)" id="KDDI_D_">        <path d="M273.7 406v-1.3" fill="none" stroke="#f30"/>
        <path d="M273.7 407.9V406" fill="none" stroke="#f60"/>
        <path d="M266 398.3h1.3" fill="none" stroke="#f30"/>
        <path d="M264.1 398.3h1.9" fill="none" stroke="#f60"/>
        <path d="M281.4 398.3H280" fill="none" stroke="#f30"/>
        <path d="M283.3 398.3h-1.9" fill="none" stroke="#f60"/>
        <path d="M267.6 404.4l1-1.1" fill="none" stroke="#f30"/>
        <path d="M266 406l1.6-1.6" fill="none" stroke="#f60"/>
        <path d="M279.8 404.4l-1.1-1.1" fill="none" stroke="#f30"/>
        <path d="M281.4 406l-1.6-1.6" fill="none" stroke="#f60"/>
        <path d="M280 398.3c0-3.5-2.8-6.4-6.3-6.4s-6.4 2.9-6.4 6.4c0 3.5 2.9 6.4 6.4 6.4 3.5 0 6.3-2.9 6.3-6.4z" fill="#f60"/>
        <path d="M272.6 394.6c-.6.9-.9 2-.9 3.1 0 1.9.9 3.6 2.5 4.6.6.4.4 1.6-.6 1.6-3 0-5.5-2.5-5.5-5.5 0-2.1 1.6-4.1 2.8-4.5.9-.3 2.2 0 1.7.7z" fill="#f90"/>
        <path d="M270.8 397c-.1.6-.3 1.7-.2 2.3.1.6.4 1.4.9 1.9.4.2.1 1-.4 1-1.2-.2-2.1-1.5-2.1-2.8 0-1.2.4-2.2.9-2.6.4-.3 1.1-.2.9.2z" fill="#ff0"/>
        <path d="M270.7 400c0-.5-.3-.9-.8-.9s-.9.4-.9.9c0 .4.4.8.9.8s.8-.4.8-.8z" fill="#ffc"/>
        <path d="M273.9 404.6c2.5-.9 3.8-3.6 3.8-6 0-3.1-2.5-6.3-6-6.3h-.2c.7-.2 1.4-.4 2.2-.4 3.5 0 6.3 2.9 6.3 6.4 0 3.4-2.7 6.2-6.1 6.3z" fill="#f30"/>
        <path d="M280 397.7c.2 2-.5 3.8-1.9 5.1.8-1.3 1.1-3 .9-4.8-.3-2.9-1.8-5.1-4.1-6 2.7.6 4.8 2.8 5.1 5.7z" fill="#c30"/>
        <path d="M279.6 398c-.2-2.3-1.3-4.2-2.8-5.3 1.7 1 3 2.8 3.2 5 .1 1.2-.1 2.3-.6 3.3.2-.9.3-2 .2-3z" fill="#900"/>
        <path d="M273.1 398.1c-4.3 0-4.5-2.9-4.5-2.9s-3.9-.9-4-4.5c0-2.8.8-3.4 1.7-4.1.9-.7 3.2-.7 3.2-.7s.4-1.4 3.9-1.5c3.5-.1 4.9 1.4 4.9 1.4s3.3-1 5.9 0c1.8.7 1.9 2.7 1.9 2.7s1.4.9 1.4 2.8c0 3.3-3.4 3.3-3.4 3.3s-.8 1.6-3.1 1.7c-2.2.1-4-.2-4-.2s-.5 2-3.9 2z" fill="#fff"/>
        <path d="M284 394.3s2-.8 2.1-2.2c.1-1.4-1.3-2-1.3-2s0-2-1.9-2.7c-2.5-.9-5.8 0-5.8 0s-.4-1.5-3.9-1.4c-3.5.1-3.4 1.3-3.4 1.3s-1.8-.2-2.6 0c-.9.3-2.3 1.1-2.3 1.1.3-1 .9-1.3 1.4-1.8.9-.7 3.2-.7 3.2-.7s.4-1.4 3.9-1.5c3.5-.1 4.9 1.4 4.9 1.4s3.3-1 5.9 0c1.8.7 1.9 2.7 1.9 2.7s1.4.9 1.4 2.8c0 3.3-3.5 3-3.5 3z" fill="#cc9"/>
        <path d="M287 393.1c-.1.1-.2.2-.3.2.1-.3.1-.6.1-1 0-1.9-1.4-2.9-1.4-2.9s0-2-1.9-2.6c-2.6-1-5.9 0-5.9 0s-1.4-1.5-4.9-1.4c-3.5.1-3.3.6-3.3.6s.4-1.4 3.9-1.5c3.5-.1 4.9 1.4 4.9 1.4s3.3-.9 5.9 0c1.8.7 1.9 2.7 1.9 2.7s1.4.9 1.4 2.8c0 .7-.1 1.3-.4 1.7z" fill="#999"/>
        <path d="M276 397.1l-1.7.6s2-1.3 1.7-3.6c.3.9 1.1 1.9 1.1 1.9zM270.8 397.3s-.8-.7-1-1.5c-.2-.5-.3-1.7-.3-1.7s-1.6.2-3-1.2c-1.1-1-1.5-3.4-1.5-3.4s-.1 3.5.8 4.3c1 .8 2.8 1.4 2.8 1.4s.2 1.2.8 1.6c.7.4 1.4.5 1.4.5z" fill="#ccc"/>
        <path d="M273.1 398.1c-4.3 0-4.5-2.9-4.5-2.9s-3.9-.9-4-4.5c0-2.8.8-3.4 1.7-4.1.9-.7 3.2-.7 3.2-.7s.4-1.4 3.9-1.5c3.5-.1 4.9 1.4 4.9 1.4s3.3-1 5.9 0c1.8.7 1.9 2.7 1.9 2.7s1.4.9 1.4 2.8c0 3.3-3.4 3.3-3.4 3.3s-.3 1.5-3.1 1.8c-2.2.2-4-.3-4-.3s-.5 2-3.9 2z" fill="none" stroke="#000"/>
    </g>
</svg>
