<svg xmlns="http://www.w3.org/2000/svg" height="24" width="24">
	<g transform="matrix(1,0,0,-1,-264,408)" id="KDDI_D_168">
		<path d="M274.1 401.3s-8.2-3.2-9.4-4.3c-1.3-1.1-.4-2 .9-2h8.6" fill="#39c"/>
		<path d="M274.1 400.7l.1-5.7-.1 6.3s-8.2-3.2-9.4-4.3c-.6-.5-.7-1-.5-1.3 0 .2.2.4.5.6 1.2 1.1 9.4 4.4 9.4 4.4z" fill="#6cf"/>
		<path d="M265.6 395.7c-.3 0-.4-.7 0-.7h8.6v.7h-8.6z" fill="#036"/>
		<path d="M277.9 401.3s8.2-3.2 9.4-4.3c1.3-1.1.4-2-.9-2h-8.6" fill="#39c"/>
		<path d="M277.9 400.7l-.1-5.7.1 6.3s8.2-3.2 9.4-4.3c.6-.5.7-1 .5-1.3 0 .2-.2.4-.5.6-1.2 1.1-9.4 4.4-9.4 4.4z" fill="#6cf"/>
		<path d="M286.4 395.7c.3 0 .4-.7 0-.7h-8.6v.7h8.6z" fill="#036"/>
		<path d="M274.1 388.3s-2.8-1.8-4-2.7c-1.1-.7-1.3-1.6.2-1.6h5.7" fill="#39c"/>
		<path d="M270 385.1c1.3.9 4 2.7 4 2.7l.1.5s-2.8-1.8-4-2.7c-.7-.5-1-1-.8-1.3.1.5.4.6.7.8z" fill="#6cf"/>
		<path d="M275.7 384.6h-5.5c-.5 0-.8-.6.1-.6h5.7z" fill="#036"/>
		<path d="M277.9 388.3s2.8-1.8 4-2.7c1.1-.7 1.3-1.6-.2-1.6H276" fill="#39c"/>
		<path d="M282 385.1c-1.3.9-4 2.7-4 2.7l-.1.5s2.8-1.8 4-2.7c.7-.5 1-1 .8-1.3-.1.5-.4.6-.7.8z" fill="#6cf"/>
		<path d="M276.3 384.6h5.5c.5 0 .8-.6-.1-.6H276z" fill="#036"/>
		<path d="M278.2 387.1c0-1.3-1-3.1-2.2-3.1-1.2 0-2.2 1.8-2.2 3.1V405c0 1.2 1 3 2.2 3 1.2 0 2.2-1.8 2.2-3z" fill="#6cf"/>
		<path d="M276 408h-.3c1.1-.2 1.9-1.9 1.9-3v-17.9c0-1.1-.8-2.9-1.9-3.1h.3c1.2 0 2.2 1.8 2.2 3.1V405c0 1.2-1 3-2.2 3z" fill="#036"/>
		<path d="M274.6 387.1V405c0 1.1.7 2.9 1.7 3h-.3c-1.2 0-2.2-1.8-2.2-3v-17.9c0-1.3 1-3.1 2.2-3.1h.3c-1 .1-1.7 1.9-1.7 3.1z" fill="#6cf"/>
		<path d="M277.4 387.1c0-1.3-.7-3.1-1.4-3.1-.8 0-1.4 1.8-1.4 3.1V405c0 1.2.6 3 1.4 3 .7 0 1.4-1.8 1.4-3z" fill="#39c"/>
		<path d="M276.1 408c.5-.1.9-1.8.9-3v-17.9c0-1.2-.4-3-.9-3.1.8.1 1.5 1.9 1.5 3.1V405c0 1.2-.7 2.9-1.5 3z" fill="#069"/>
		<path d="M276 408h0zM276 384h0z" fill="#39c"/>
		<path d="M276.5 385.7c0-1.5-.3-1.7-.5-1.7s-.5.2-.5 1.7.3 3.8.5 3.8.5-2.3.5-3.8z" fill="#036"/>
		<path d="M276 389.5c-.2-.1-.5-2.3-.5-3.8s.3-1.7.5-1.7z" fill="#6cf"/>
		<path d="M277.4 403.7c0-.7-.7 0-1.4 0s-1.4-.7-1.4 0 .7 1.3 1.4 1.3 1.4-.6 1.4-1.3z" fill="#fff"/>
		<path d="M274.6 401.5v-.6M274.6 399.4v-.5M274.6 397.4v-.6M274.6 395.4v-.6M274.6 393.3v-.5M274.6 391.3v-.6M274.6 389.3v-.6" fill="none" stroke="#fff" stroke-width=".75" stroke-linecap="round"/>
		<path d="M277 403.4c.2-.1.4-.1.4.3 0 .3-.2.7-.4.9z" fill="#6cf"/>
	</g>
</svg>
