<svg xmlns="http://www.w3.org/2000/svg" height="24" width="24">
    <g transform="matrix(1,0,0,-1,-264,408)" id="KDDI_D_">        <path d="M278.7 407.6l8.6-15.2h-8.6v15.2" fill="#ff0"/>
        <path d="M287.3 392.4l-8.6 15.2v-6.9s2.1-1.7 3.4-3.4c1.4-1.8 2.3-4.9 2.3-4.9z" fill="#fc0"/>
        <path d="M278.7 407.6l6.8-12-6.8 7.9v4.1" fill="#f90"/>
        <path d="M277.5 407.6s-3.3-5-6.1-8.2c-2.8-3.2-7.1-7-7.1-7h13.2v15.2" fill="#ff0"/>
        <path d="M271.4 399.4c-2.8-3.2-7.1-7-7.1-7h4.4l8.8 8.3v6.9s-3.3-5-6.1-8.2z" fill="#fc0"/>
        <path d="M271.4 399.4c-2.8-3.2-7.1-7-7.1-7h2.2s4.3 3.8 7.1 7c1.3 1.5 2.7 3.4 3.9 5v3.2s-3.3-5-6.1-8.2z" fill="#f90"/>
        <path d="M278.7 394.9h7.2l-1.9 3.2h-5.3z" fill="#3c6"/>
        <path d="M284.8 396.8l-.8 1.3h-2.5c.2-.2.4-.5.6-.8.6-.7 1-1.6 1.4-2.4h2.4z" fill="#090"/>
        <path d="M285.5 395.6l-.7 1.2-.8 1.3h-.7z" fill="#066"/>
        <path d="M277.6 394.9H268l3.1 3.2h6.5z" fill="#3c6"/>
        <path d="M271.3 394.9l3.4 3.2h-4.5c-1.1-1.1-2.2-2.3-3.2-3.2z" fill="#090"/>
        <path d="M270.2 398.1c-.2-.3-.5-.5-.7-.8-.1 0-.1-.1-.2-.1-.2-.3-.5-.5-.7-.8-.3-.2-.6-.5-.8-.8h-.1l-.7-.7h2.2c1 .9 2.1 2.1 3.2 3.2z" fill="#066"/>
        <path d="M264 392.3h24" fill="none" stroke="#c60" stroke-linejoin="round"/>
        <path d="M277.2 408v-18.2h1V408z"/>
        <path d="M278.5 389.8V408" fill="none" stroke="#ccc" stroke-linejoin="round"/>
        <path d="M264.5 389.6h23v-3.5l-1.8-1.7h-15.9z" fill="#36f"/>
        <path d="M267 389.6h20.5v-3.5l-1.8-1.7H271z" fill="#069"/>
        <path d="M285.2 389.6v-3.5l-1.8-1.7h2.3l1.8 1.7v3.5z" fill="#03c"/>
        <path d="M285.7 384.4h-15.9" fill="none" stroke="#039" stroke-linecap="round" stroke-linejoin="round"/>
        <path d="M264.5 389.6h23" fill="none" stroke="#39f" stroke-linecap="round" stroke-linejoin="round"/>
        <path d="M287.5 389.6v-3.5l-1.8-1.7M269.8 384.4l-5.3 5.2" fill="none" stroke="#006" stroke-linecap="round" stroke-linejoin="round"/>
    </g>
</svg>
