<svg xmlns="http://www.w3.org/2000/svg" height="24" width="24">
    <g transform="matrix(1,0,0,-1,-264,408)" id="KDDI_D_">        <path d="M287.5 401.7l-11.4-5.7-11.5 5.7 11.5 5.8z" fill="#fff"/>
        <path d="M287.5 401.7v-11.5l-11.4-5.7-11.5 5.7v11.5" fill="#fff"/>
        <path d="M287.5 401.7l-11.4-5.7-11.5 5.7M276 396v-11.4" fill="none" stroke="#666" stroke-linecap="round" stroke-linejoin="round"/>
        <path d="M287.5 401.7v-11.5l-11.4-5.7-11.5 5.7v11.5" fill="none" stroke="#000" stroke-linejoin="round"/>
        <path d="M264.6 401.7l11.5 5.8 11.4-5.8" fill="none" stroke="#000" stroke-linecap="round" stroke-linejoin="round"/>
        <path d="M279 402c0-.9-1.3-1.6-3-1.6s-3.1.7-3.1 1.6c0 .9 1.4 1.6 3.1 1.6 1.7 0 3-.7 3-1.6z" fill="red"/>
        <path d="M276.4 402.9c1.2 0 2.2-.4 2.6-1v.1c0 .9-1.3 1.6-3 1.6s-3.1-.7-3.1-1.6c0-.4.3-.7.7-1-.1.1-.1.2-.1.3 0 .9 1.3 1.6 2.9 1.6z" fill="#900"/>
        <path d="M274 390.9c0-1-.6-1.9-1.4-1.9-.9 0-1.5.9-1.5 1.9 0 1 .6 1.8 1.5 1.8.8 0 1.4-.8 1.4-1.8z"/>
        <path d="M271.5 391.2c0 .6.3 1.1.6 1.5-.6-.3-1-1-1-1.8 0-1 .6-1.9 1.5-1.9.3 0 .6.2.8.4-.1 0-.2-.1-.4-.1-.8 0-1.5.9-1.5 1.9z" fill="#333"/>
        <path d="M269.6 395.6c0-1-.7-1.9-1.5-1.9-.9 0-1.5.9-1.5 1.9 0 1 .6 1.8 1.5 1.8.8 0 1.5-.8 1.5-1.8z"/>
        <path d="M267 395.9c0 .6.3 1.1.6 1.4-.6-.2-1-.9-1-1.7 0-1 .6-1.9 1.5-1.9.3 0 .6.2.9.4-.2-.1-.3-.1-.5-.1-.8 0-1.5.8-1.5 1.9zM282.7 394.3c.1-.2.1-.4.1-.6 0-.9-.5-1.6-1.1-1.6-.3 0-.6.2-.8.5.1-.6.5-1.1 1-1.1.6 0 1.2.8 1.2 1.7 0 .4-.2.8-.4 1.1z" fill="#333"/>
        <path d="M280.9 392.6c.2-.3.5-.5.8-.5.6 0 1.1.7 1.1 1.6 0 .2 0 .4-.1.6.1-.2.2-.3.3-.5-.2.6-.6 1-1.1 1-.6 0-1.1-.7-1.1-1.6 0-.4.1-.7.2-1 0 .1-.1.2-.1.4z"/>
        <path d="M285.8 397.7v-.6c0-.9-.5-1.6-1.1-1.6-.3 0-.6.2-.8.5.2-.6.6-1.1 1.1-1.1.6 0 1.1.8 1.1 1.7 0 .4-.1.8-.3 1.1z" fill="#333"/>
        <path d="M283.9 396c.2-.3.5-.5.8-.5.6 0 1.1.7 1.1 1.6v.6c.1-.2.1-.3.2-.5-.2.6-.6 1-1 1-.7 0-1.2-.7-1.2-1.6 0-.4.1-.7.3-1-.1.1-.1.2-.2.4z"/>
        <path d="M279.7 390.8c0-.2.1-.4.1-.6 0-.9-.5-1.6-1.1-1.6-.4 0-.6.1-.8.4.1-.6.5-1 1-1 .6 0 1.1.7 1.1 1.6 0 .5-.1.9-.3 1.2z" fill="#333"/>
        <path d="M277.9 389c.2-.3.4-.4.8-.4.6 0 1.1.7 1.1 1.6 0 .2-.1.4-.1.6.1-.2.2-.4.2-.6-.1.6-.5 1-1 1-.6 0-1.1-.7-1.1-1.6 0-.3.1-.7.2-1-.1.2-.1.3-.1.4z"/>
    </g>
</svg>
