<svg xmlns="http://www.w3.org/2000/svg" width="24" height="24">
	<g transform="translate(-264,-386)" id="KDDI_D_171">
		<g>
			<path style="stroke:none; fill:none" d="M 288 409.89L 264 409.89L 264 385.89L 288 385.89L 288 409.89z"/>
		</g>
		<g>
			<path style="stroke:none; fill:#fff" d="M 282.5 409.39L 268.5 409.39L 268.5 391.39L 282.5 391.39L 282.5 409.39z"/>
			<path style="stroke:none; fill:#cc9" d="M 276.5 399.39L 268.5 399.39L 268.5 393.39L 276.5 393.39L 276.5 399.39z"/>
			<path style="stroke:none; fill:#999" d="M 268.5 391.89L 280.5 386.89L 280.5 391.89"/>
			<path style="stroke:#999; stroke-width:2; stroke-linecap:square; fill:none" d="M 280 402.89L 280 408.89"/>
			<path style="stroke:#999; stroke-width:1; stroke-linecap:square; fill:none" d="M 281.5 400.39L 279.5 400.39L 279.5 393.39L 281.5 393.39L 281.5 400.39z"/>
			<path style="stroke:none; fill:#666" d="M 273.5 394.89C 273.5 395.442 273.052 395.89 272.5 395.89C 271.948 395.89 271.5 395.442 271.5 394.89C 271.5 394.338 271.948 393.89 272.5 393.89C 273.052 393.89 273.5 394.338 273.5 394.89z"/>
			<path style="stroke:none; fill:#666" d="M 275 396.89C 275 396.34 274.55 395.89 274 395.89L 271 395.89C 270.45 395.89 270 396.34 270 396.89L 270 399.39L 275 399.39L 275 396.89z"/>
			<path style="stroke:#cc9; stroke-width:1; stroke-linecap:round; fill:none" d="M 273.5 399.39L 273.5 397.39"/>
			<path style="stroke:#999; stroke-width:1; stroke-linecap:square; fill:none" d="M 276.5 399.39L 268.5 399.39L 268.5 393.39L 276.5 393.39L 276.5 399.39z"/>
			<path style="stroke:#666; stroke-width:1; fill:none" d="M 280.5 395.89L 280.5 394.89"/>
			<path style="stroke:#666; stroke-width:1; fill:none" d="M 280.5 398.89L 280.5 397.89"/>
			<g>
				<path style="stroke:#999; stroke-width:1; stroke-linecap:square; fill:none" d="M 270.5 402.39L 270.5 401.39"/>
				<path style="stroke:#666; stroke-width:1; fill:none" d="M 270.5 401.89L 270.5 400.89"/>
			</g>
			<g>
				<path style="stroke:#999; stroke-width:1; stroke-linecap:square; fill:none" d="M 274.5 405.39L 274.5 404.39"/>
				<path style="stroke:#666; stroke-width:1; fill:none" d="M 274.5 404.89L 274.5 403.89"/>
			</g>
			<g>
				<path style="stroke:#999; stroke-width:1; stroke-linecap:square; fill:none" d="M 274.5 408.39L 274.5 407.39"/>
				<path style="stroke:#666; stroke-width:1; fill:none" d="M 274.5 407.89L 274.5 406.89"/>
			</g>
			<g>
				<path style="stroke:#999; stroke-width:1; stroke-linecap:square; fill:none" d="M 270.5 408.39L 270.5 407.39"/>
				<path style="stroke:#666; stroke-width:1; fill:none" d="M 270.5 407.89L 270.5 406.89"/>
			</g>
			<g>
				<path style="stroke:#999; stroke-width:1; stroke-linecap:square; fill:none" d="M 276.5 405.39L 276.5 404.39"/>
				<path style="stroke:#666; stroke-width:1; fill:none" d="M 276.5 404.89L 276.5 403.89"/>
			</g>
			<g>
				<path style="stroke:#999; stroke-width:1; stroke-linecap:square; fill:none" d="M 272.5 401.39L 272.5 402.39"/>
				<path style="stroke:#666; stroke-width:1; fill:none" d="M 272.5 401.89L 272.5 402.89"/>
			</g>
			<g>
				<path style="stroke:#999; stroke-width:1; stroke-linecap:square; fill:none" d="M 272.5 404.39L 272.5 405.39"/>
				<path style="stroke:#666; stroke-width:1; fill:none" d="M 272.5 404.89L 272.5 405.89"/>
			</g>
			<g>
				<path style="stroke:#999; stroke-width:1; stroke-linecap:square; fill:none" d="M 270.5 404.39L 270.5 405.39"/>
				<path style="stroke:#666; stroke-width:1; fill:none" d="M 270.5 404.89L 270.5 405.89"/>
			</g>
			<g>
				<path style="stroke:#999; stroke-width:1; stroke-linecap:square; fill:none" d="M 272.5 407.39L 272.5 408.39"/>
				<path style="stroke:#666; stroke-width:1; fill:none" d="M 272.5 407.89L 272.5 408.89"/>
			</g>
			<g>
				<path style="stroke:#999; stroke-width:1; stroke-linecap:square; fill:none" d="M 276.5 407.39L 276.5 408.39"/>
				<path style="stroke:#666; stroke-width:1; fill:none" d="M 276.5 407.89L 276.5 408.89"/>
			</g>
			<g>
				<path style="stroke:#999; stroke-width:1; stroke-linecap:square; fill:none" d="M 274.5 402.39L 274.5 401.39"/>
				<path style="stroke:#666; stroke-width:1; fill:none" d="M 274.5 401.89L 274.5 400.89"/>
			</g>
			<g>
				<path style="stroke:#999; stroke-width:1; stroke-linecap:square; fill:none" d="M 276.5 401.39L 276.5 402.39"/>
				<path style="stroke:#666; stroke-width:1; fill:none" d="M 276.5 401.89L 276.5 402.89"/>
			</g>
			<path style="stroke:#cc9; stroke-width:0.75; stroke-linecap:square; fill:none" d="M 280 388.39L 277 391.39"/>
			<path style="stroke:#cc9; stroke-width:0.75; stroke-linecap:square; fill:none" d="M 280.257 390.647L 279.757 391.147"/>
			<path style="stroke:#cc9; stroke-width:0.75; stroke-linecap:square; fill:none" d="M 278.604 387.494L 274.708 391.39"/>
			<path style="stroke:#336; stroke-width:1; fill:none" d="M 268.5 391.39L 280.5 386.89L 280.5 391.89"/>
			<path style="stroke:#000; stroke-width:1; fill:none" d="M 282.5 409.39L 268.5 409.39L 268.5 391.39L 282.5 391.39L 282.5 409.39z"/>
		</g>
	</g>
</svg>
