<svg xmlns="http://www.w3.org/2000/svg" height="24" width="24">
    <g transform="matrix(1,0,0,-1,-264,408)" id="KDDI_D_">        <path d="M270.6 389.3c0-1.2-1-2.2-2.2-2.2-1.3 0-2.3 1-2.3 2.2 0 1.3 1 2.3 2.3 2.3 1.2 0 2.2-1 2.2-2.3z" fill="#333"/>
        <path d="M269.5 389.3c0-.6-.5-1.1-1.1-1.1-.6 0-1.2.5-1.2 1.1 0 .6.6 1.1 1.2 1.1s1.1-.5 1.1-1.1z" stroke="#666" stroke-width=".5"/>
        <path d="M286 389.3c0-1.2-1-2.2-2.3-2.2-1.2 0-2.2 1-2.2 2.2 0 1.3 1 2.3 2.2 2.3 1.3 0 2.3-1 2.3-2.3z" fill="#333"/>
        <path d="M284.8 389.3c0-.6-.5-1.1-1.1-1.1-.6 0-1.1.5-1.1 1.1 0 .6.5 1.1 1.1 1.1.6 0 1.1-.5 1.1-1.1z" stroke="#666" stroke-width=".5"/>
        <path d="M264 386.6h24" fill="none" stroke="#000"/>
        <path d="M272.8 405.3l1.9-1.9-1.9-1.9" fill="none" stroke="#9cc"/>
        <path d="M272.8 401.5l-2 1.9 2 1.9" fill="none" stroke="#699" stroke-linecap="square"/>
        <path d="M272.8 406.3l2.9-2.9-2.9-2.9" fill="none" stroke="#336"/>
        <path d="M272.8 400.5l-3 2.9 3 2.9" fill="none" stroke="#669"/>
        <path d="M283.4 405.3l2-1.9-2-1.9" fill="none" stroke="#9cc"/>
        <path d="M283.4 401.5l-1.9 1.9 1.9 1.9" fill="none" stroke="#699" stroke-linecap="square"/>
        <path d="M283.4 406.3l3-2.9-3-2.9" fill="none" stroke="#336"/>
        <path d="M283.4 400.5l-2.9 2.9 2.9 2.9" fill="none" stroke="#669"/>
        <path d="M287.5 389.7h-23v5.1l5.2 5.1h17.8z" fill="#f69"/>
        <path d="M287.5 389.7h-22.4v4.5l4.7 4.9h17.7z" fill="#f06"/>
        <path d="M264.5 392.6v-2.7h23v2.7z" fill="#369"/>
        <path d="M286.1 393.8h-1.9v3h1.9zM282.7 393.8h-1.9v3h1.9zM279.4 393.8h-1.9v3h1.9zM276 393.8h-1.9v3h1.9zM272.7 393.8h-1.9v3h1.9zM268.4 396.8l-1-1v-2h2v3z" fill="#fff"/>
        <path d="M287.5 399.9v-7.5" fill="none" stroke="#900" stroke-linecap="square"/>
        <path d="M264.5 392.4v2.4l5.2 5.1h17.8" fill="none" stroke="#f69"/>
        <path d="M264.5 389.9v2.7" fill="none" stroke="#09f"/>
        <path d="M287.5 389.7h-23" fill="none" stroke="#036" stroke-linecap="square"/>
        <path d="M287.5 392.7v-3.4" fill="none" stroke="#006"/>
    </g>
</svg>
