<svg xmlns="http://www.w3.org/2000/svg" height="24" width="24">
    <g transform="matrix(1,0,0,-1,-264,408)" id="KDDI_D_">        <path d="M280.6 391.3h7v-5.5h-7z" fill="#c90"/>
        <path d="M280.6 389.7h7v-3.9h-7z" fill="#c60"/>
        <path d="M268.3 391.3h12.6v-5.5h-12.6z" fill="#fff"/>
        <path d="M268.3 389.7h12.6v-3.9h-12.6z" fill="#cc9"/>
        <path d="M265.3 391.3h3.2v-5.5h-3.2z" fill="#c00"/>
        <path d="M268.5 391.3h19v-5.5h-19" fill="none" stroke="#000"/>
        <path d="M268.5 385.8h-3.3" fill="none" stroke="#600"/>
        <path d="M265.2 391.3h3.3" fill="none" stroke="#f30"/>
        <path d="M264.6 392.9v2.9c0 1.7 1.4 3.1 2.6 3.1 2.1 0 3.8 1 3.8 2.9s.6 3.6 1.8 3.7M268.8 392.9v1.8c0 .8.6 2.3 3 2.5 3.9.3 6 2.1 6 4.1v4.6" fill="none" stroke="#999"/>
    </g>
</svg>
