<svg xmlns="http://www.w3.org/2000/svg" height="24" width="24">
    <g transform="matrix(1,0,0,-1,-264,408)" fill="#06f">
        <path d="M278.3 401.8c-1.2 0-2.1-.8-2.1-1.7-.1-1.3-.4-3.3-1.1-4-1.2-1.1-3.5-1.2-5.3-1.2-2.4 0-4.8-2.1-4.8-4.5v-4.2h-.4c-.3 0-.6-.2-.6-.5s.3-.6.6-.6h3.1c.2 0 .5.2.5.5v4.8c0 .4.6 1.4 1.6 1.4 2.5 0 6-.3 8.4 2 2 1.9 2.2 5.5 2.2 6.2 0 1-1 1.8-2.1 1.8z"/>
        <path d="M278.2 408c-1.2 0-2.2-1-2.2-2.1V404c0-1.2 1-1.4 2.2-1.4v-2.9h2.1v6.2c0 1.1-1 2.1-2.1 2.1zM277.9 399.5c0-.6-.4-1-.9-1h-7.1c-.5 0-.9.4-.9 1 0 .5.4.9.9.9h7.1c.5 0 .9-.4.9-.9z"/>
        <path d="M281.6 403.5v-3.9c1.7-1.2 2.9-3.2 2.9-5.5 0-3.6-3-6.6-6.6-6.6-2.3 0-4.2 1.1-5.4 2.8h-1.9c-.8 0-1.1-.6-1.1-1s.1-.9.1-.9c1.8-2.7 4.8-4.4 8.3-4.4 5.6 0 10.1 4.6 10.1 10.1 0 4.3-2.7 8-6.4 9.4z"/>
    </g>
</svg>
