<svg xmlns="http://www.w3.org/2000/svg" height="24" width="24">
    <g transform="matrix(1,0,0,-1,-264,408)" id="KDDI_D_">        <path d="M276 402s-3.3 3.4-4 4.1c-.7.7-1.4.9-2.3.9-.8 0-2.2-.8-2.2-2.3v-9.3c0-1.5.8-2.4.8-2.4l7.7-7.7z" fill="#ff3"/>
        <path d="M268.3 393s-.8.9-.8 2.4v2.4c0-1.5.8-2.4.8-2.4l7.7-7.7v-2.4z" fill="#fc3"/>
        <path d="M269.4 403.9c0 1.3 1.1 2 1.7 2 .7 0 1.6-.5.9.2-.7.7-1.4.9-2.3.9-.8 0-2.2-.8-2.2-2.3v-9.3c0-1.5.8-2.4.8-2.4s1.1 1.6 1.1 2.5v8.4z" fill="#ff9"/>
        <path d="M276 402s3.3 3.4 4 4.1c.7.7 1.4.9 2.3.9.8 0 2.2-.8 2.2-2.3v-9.3c0-1.5-.8-2.4-.8-2.4l-7.7-7.7z" fill="#090"/>
        <path d="M283.7 393s.8.9.8 2.4v2.4c0-1.5-.8-2.4-.8-2.4l-7.7-7.7v-2.4z" fill="#060"/>
        <path d="M282.6 403.9c0 1.3-1.1 2-1.7 2-.7 0-1.6-.5-.9.2.7.7 1.4.9 2.3.9.8 0 2.2-.8 2.2-2.3v-9.3c0-1.5-.8-2.4-.8-2.4l-2.3-2.2c.5 1.4 1.2 3.8 1.2 4.7v8.4z" fill="#060"/>
        <path d="M283.7 393s.8.9.8 2.4v9.3c0 1.5-1.4 2.3-2.2 2.3-.9 0-1.6-.2-2.3-.9l-4-4.1s-3.3 3.4-4 4.1c-.7.7-1.4.9-2.3.9-.8 0-2.2-.8-2.2-2.3v-9.3c0-1.5.8-2.4.8-2.4l7.7-7.7z" fill="none" stroke="#000" stroke-width="2"/>
    </g>
</svg>
