<svg xmlns="http://www.w3.org/2000/svg" width="24" height="24">
	<g transform="translate(-288,-386)" id="KDDI_D_180">
		<g>
			<g>
				<path style="stroke:none; fill:#0000cc" d="M 288 409.89L 312 385.89L 312 409.89L 288 409.89"/>
				<path style="stroke:none; fill:#99ccff" d="M 312 385.89L 288 385.89L 288 409.89L 312 385.89z"/>
				<path style="stroke:none; fill:#0066ff" d="M 310.5 408.39L 289.5 408.39L 289.5 387.39L 310.5 387.39L 310.5 408.39z"/>
				<path style="stroke:none; fill:#0000cc" d="M 298.039 389.907L 298.039 390.892C 298.039 391.581 297.703 391.921 297.016 391.921C 296.641 391.921 296.042 391.921 296.042 391.921L 296.042 392.858L 298.039 392.858L 298.039 405.89L 300.969 405.89L 300.969 389.907L 298.039 389.907z"/>
				<path style="stroke:none; fill:#ffffff" d="M 299.039 389.907L 299.039 390.892C 299.039 391.581 298.703 391.921 298.016 391.921C 297.641 391.921 297.042 391.921 297.042 391.921L 297.042 392.858L 299.039 392.858L 299.039 405.89L 301.969 405.89L 301.969 389.907L 299.039 389.907z"/>
			</g>
		</g>
	</g>
</svg>
