<svg xmlns="http://www.w3.org/2000/svg" width="24" height="24">
	<g transform="translate(-288,-386)" id="KDDI_D_181">
		<g>
			<g>
				<path style="stroke:none; fill:#0000cc" d="M 288 409.89L 312 385.89L 312 409.89L 288 409.89"/>
				<path style="stroke:none; fill:#99ccff" d="M 312 385.89L 288 385.89L 288 409.89L 312 385.89z"/>
				<path style="stroke:none; fill:#0066ff" d="M 310.5 408.39L 289.5 408.39L 289.5 387.39L 310.5 387.39L 310.5 408.39z"/>
				<path style="stroke:none; fill:#0000cc" d="M 302.353 399.243C 304.903 396.694 305 396.08 305 393.89C 305 391.684 302.289 389.89 300.083 389.89L 297.984 389.89C 295.442 389.89 293.047 391.692 293.047 394.835L 296 394.835C 296 393.035 296.521 390.845 299 390.845C 300.654 390.845 302.031 392.235 302.031 393.89C 302.031 395.788 302 396.183 299.647 398.536L 293.047 405.183L 293.047 405.874L 305 405.874L 305 404.89L 296.707 404.89L 302.353 399.243z"/>
			</g>
			<path style="stroke:none; fill:#ffffff" d="M 303.353 399.243C 305.903 396.694 306 396.08 306 393.89C 306 391.684 303.289 389.89 301.083 389.89L 298.984 389.89C 296.442 389.89 294.047 391.692 294.047 394.835L 297 394.835C 297 393.035 297.521 390.845 300 390.845C 301.654 390.845 303.031 392.235 303.031 393.89C 303.031 395.788 303 396.183 300.647 398.536L 294.047 405.183L 294.047 405.874L 305.984 405.874L 305.984 404.439L 298.158 404.439L 303.353 399.243z"/>
		</g>
	</g>
</svg>
