<svg xmlns="http://www.w3.org/2000/svg" width="24" height="24">
	<g transform="translate(-288,-386)" id="KDDI_D_182">
		<g>
			<g>
				<path style="stroke:none; fill:#0000cc" d="M 288 409.89L 312 385.89L 312 409.89L 288 409.89"/>
				<path style="stroke:none; fill:#99ccff" d="M 312 385.89L 288 385.89L 288 409.89L 312 385.89z"/>
				<path style="stroke:none; fill:#0066ff" d="M 310.5 408.39L 289.5 408.39L 289.5 387.39L 310.5 387.39L 310.5 408.39z"/>
				<path style="stroke:none; fill:#0000cc" d="M 300.031 395.89L 299.009 395.89L 304.009 390.89L 304.823 390.89L 304.823 389.931L 293.094 389.931L 293.094 390.89L 302.094 390.89L 296.109 396.848L 299.031 396.848C 301.047 396.848 302.073 397.897 302.073 399.89L 302.073 401.89C 302.073 403.855 301.031 404.89 299.031 404.89C 297.031 404.89 295.969 403.782 295.969 401.89L 293.031 401.89C 293.031 403.845 295.073 405.89 298.01 405.89L 300.073 405.89C 303.011 405.89 305.031 403.907 305.031 401.89L 305.031 399.89C 305.031 397.907 303.031 395.89 300.031 395.89z"/>
				<path style="stroke:none; fill:#ffffff" d="M 301 395.89L 300.478 395.89L 305.478 390.89L 305.792 390.89L 305.792 389.931L 294.062 389.931L 294.062 390.89L 303.062 390.89L 297.078 396.848L 300 396.848C 302.016 396.848 303.042 397.897 303.042 399.89L 303.042 401.89C 303.042 403.855 302 404.89 300 404.89C 298 404.89 296.938 403.782 296.938 401.89L 294 401.89C 294 403.845 296.042 405.89 298.979 405.89L 301.042 405.89C 303.979 405.89 306 403.907 306 401.89L 306 399.89C 306 397.907 304 395.89 301 395.89z"/>
			</g>
		</g>
	</g>
</svg>
