<svg xmlns="http://www.w3.org/2000/svg" width="24" height="24">
	<g transform="translate(-288,-386)" id="KDDI_D_183">
		<g>
			<g>
				<path style="stroke:none; fill:#0000cc" d="M 288 409.89L 312 385.89L 312 409.89L 288 409.89"/>
				<path style="stroke:none; fill:#99ccff" d="M 312 385.89L 288 385.89L 288 409.89L 312 385.89z"/>
				<path style="stroke:none; fill:#0066ff" d="M 310.5 408.39L 289.5 408.39L 289.5 387.39L 310.5 387.39L 310.5 408.39z"/>
				<path style="stroke:none; fill:#0000cc" d="M 303.969 400.89L 303.969 389.89L 301.031 389.89L 292.031 398.89L 292.031 401.848L 301.036 401.848L 301.036 405.89L 303.969 405.89L 303.969 401.848L 304.969 401.848L 304.969 400.89C 304.969 400.89 304.581 400.89 303.969 400.89zM 301.036 400.89L 293.958 400.89L 293.958 399.39L 301.036 392.39L 301.036 400.89z"/>
				<path style="stroke:none; fill:#ffffff" d="M 305 400.89L 305 389.89L 302.062 389.89L 293.062 398.89L 293.062 401.848L 302.067 401.848L 302.067 405.89L 305 405.89L 305 401.848L 306 401.848L 306 400.89C 306 400.89 305.612 400.89 305 400.89zM 302.067 400.89L 294.99 400.89L 294.99 399.39L 302.067 392.39L 302.067 400.89z"/>
			</g>
		</g>
	</g>
</svg>
