<svg xmlns="http://www.w3.org/2000/svg" width="24" height="24">
	<g transform="translate(-288,-386)" id="KDDI_D_184">
		<g>
			<path style="stroke:none; fill:#0000cc" d="M 288 409.89L 312 385.89L 312 409.89L 288 409.89"/>
			<path style="stroke:none; fill:#99ccff" d="M 312 385.89L 288 385.89L 288 409.89L 312 385.89z"/>
			<path style="stroke:none; fill:#0066ff" d="M 310.5 408.39L 289.5 408.39L 289.5 387.39L 310.5 387.39L 310.5 408.39z"/>
			<path style="stroke:none; fill:#0000cc" d="M 304.572 390.89L 304.572 389.89L 293.147 389.89L 293.147 396.89L 299.084 396.89C 301.084 396.89 302.147 397.918 302.147 399.862L 302.147 401.89C 302.147 403.876 301.053 404.89 299.084 404.89C 297.115 404.89 296.084 403.907 296.084 401.89L 293.084 401.89C 293.084 404.095 295.083 405.89 298.146 405.89L 300.147 405.89C 303.084 405.89 305.043 404.095 305.043 401.89L 305.043 399.862C 305.043 397.835 303.125 395.89 301.084 395.89L 296.084 395.89L 296.084 390.89C 298.668 390.89 304.572 390.89 304.572 390.89z"/>
			<path style="stroke:none; fill:#ffffff" d="M 305.489 390.89L 305.489 389.89L 294.063 389.89L 294.063 396.89L 300 396.89C 302 396.89 303.062 397.918 303.062 399.862L 303.062 401.89C 303.062 403.876 301.969 404.89 300 404.89C 298.031 404.89 297 403.907 297 401.89L 294 401.89C 294 404.095 296 405.89 299.062 405.89L 301.062 405.89C 304 405.89 305.959 404.095 305.959 401.89L 305.959 399.862C 305.959 397.835 304.042 395.89 302 395.608L 297 395.608L 297 390.89C 299.585 390.89 305.489 390.89 305.489 390.89z"/>
		</g>
	</g>
</svg>
