<svg xmlns="http://www.w3.org/2000/svg" width="24" height="24">
	<g transform="translate(-288,-386)" id="KDDI_D_185">
		<g>
			<path style="stroke:none; fill:#0000cc" d="M 288 409.89L 312 385.89L 312 409.89L 288 409.89"/>
			<path style="stroke:none; fill:#99ccff" d="M 312 385.89L 288 385.89L 288 409.89L 312 385.89z"/>
			<path style="stroke:none; fill:#0066ff" d="M 310.5 408.39L 289.5 408.39L 289.5 387.39L 310.5 387.39L 310.5 408.39z"/>
			<path style="stroke:none; fill:#0000cc" d="M 301 395.921L 297 395.921C 296.657 395.921 296.332 395.977 296.018 396.062C 296.204 391.525 299.795 390.845 302.969 390.845L 302.969 389.927L 301 389.927C 299.022 389.927 293.031 389.89 293.031 396.39L 293.031 401.89C 293.031 404.095 294.794 405.858 297 405.858L 301 405.858C 303.206 405.858 304.969 404.095 304.969 401.89L 304.969 399.89C 304.969 397.684 303.206 395.921 301 395.921zM 302.031 401.9C 302.031 403.835 301 404.907 299 404.907C 297.021 404.907 295.99 403.876 295.99 401.9L 295.99 399.9C 295.99 397.876 297.021 396.89 299 396.89C 301 396.89 302.031 397.918 302.031 399.9L 302.031 401.9z"/>
			<path style="stroke:none; fill:#ffffff" d="M 302 395.921L 298 395.921C 297.657 395.921 297.332 395.977 297.018 396.062C 297.204 391.525 300.795 390.845 303.969 390.845L 303.969 389.927L 302 389.927C 300.022 389.927 294.031 389.89 294.031 396.39L 294.031 401.89C 294.031 404.095 295.794 405.858 298 405.858L 302 405.858C 304.206 405.858 305.969 404.095 305.969 401.89L 305.969 399.89C 305.969 397.684 304.206 395.921 302 395.921zM 303.031 401.9C 303.031 403.835 302 404.907 300 404.907C 298.021 404.907 296.99 403.876 296.99 401.9L 296.99 399.9C 296.99 397.876 298.021 396.89 300 396.89C 302 396.89 303.031 397.918 303.031 399.9L 303.031 401.9z"/>
		</g>
	</g>
</svg>
