<svg xmlns="http://www.w3.org/2000/svg" width="24" height="24">
	<g transform="translate(-288,-386)" id="KDDI_D_187">
		<g>
			<path style="stroke:none; fill:#0000cc" d="M 288 409.89L 312 385.89L 312 409.89L 288 409.89"/>
			<path style="stroke:none; fill:#99ccff" d="M 312 385.89L 288 385.89L 288 409.89L 312 385.89z"/>
			<path style="stroke:none; fill:#0066ff" d="M 310.5 408.39L 289.5 408.39L 289.5 387.39L 310.5 387.39L 310.5 408.39z"/>
			<path style="stroke:none; fill:#0000cc" d="M 302.918 397.39C 304.164 396.712 305 395.406 305 393.89C 305 391.684 303.185 389.91 300.978 389.91L 297.104 389.91C 294.899 389.91 293.042 391.684 293.042 393.89C 293.042 395.406 293.878 396.712 295.125 397.39C 293.878 398.068 293.062 399.374 293.062 400.89L 293.062 401.89C 293.062 404.095 294.847 405.874 297.052 405.874L 300.99 405.874C 303.195 405.874 305 404.095 305 401.89L 305 400.89C 305 399.374 304.164 398.068 302.918 397.39zM 302.043 401.89C 302.043 403.876 301.022 404.892 299.022 404.892C 297.037 404.892 296.016 403.86 296.016 401.89L 296.016 400.89C 296.016 398.876 297.021 397.855 299.022 397.855C 301.022 397.855 302.043 398.897 302.043 400.89L 302.043 401.89zM 299.022 396.897C 297.021 396.897 296.005 395.876 296.005 393.89C 296.005 391.876 297.052 390.89 299.022 390.89C 301.006 390.89 302.037 391.892 302.037 393.89C 302.037 395.876 301.022 396.897 299.022 396.897z"/>
			<path style="stroke:none; fill:#ffffff" d="M 303.897 397.39C 305.143 396.712 305.979 395.406 305.979 393.89C 305.979 391.684 304.164 389.91 301.958 389.91L 298.083 389.91C 295.878 389.91 294.021 391.684 294.021 393.89C 294.021 395.406 294.857 396.712 296.104 397.39C 294.857 398.068 294.042 399.374 294.042 400.89L 294.042 401.89C 294.042 404.095 295.826 405.874 298.031 405.874L 301.969 405.874C 304.175 405.874 305.979 404.095 305.979 401.89L 305.979 400.89C 305.979 399.374 305.143 398.068 303.897 397.39zM 303.022 401.89C 303.022 403.876 302 404.892 300 404.892C 298.016 404.892 296.995 403.86 296.995 401.89L 296.995 400.89C 296.995 398.876 298 397.855 300 397.855C 302 397.855 303.022 398.897 303.022 400.89L 303.022 401.89zM 300 396.897C 298 396.897 296.984 395.876 296.984 393.89C 296.984 391.876 298.031 390.89 300 390.89C 301.984 390.89 303.016 391.892 303.016 393.89C 303.016 395.876 302 396.897 300 396.897z"/>
		</g>
	</g>
</svg>
