<svg xmlns="http://www.w3.org/2000/svg" width="24" height="24">
	<g transform="translate(-288,-386)" id="KDDI_D_188">
		<g>
			<path style="stroke:none; fill:#0000cc" d="M 288 409.89L 312 385.89L 312 409.89L 288 409.89"/>
			<path style="stroke:none; fill:#99ccff" d="M 312 385.89L 288 385.89L 288 409.89L 312 385.89z"/>
			<path style="stroke:none; fill:#0066ff" d="M 310.5 408.39L 289.5 408.39L 289.5 387.39L 310.5 387.39L 310.5 408.39z"/>
			<path style="stroke:none; fill:#0000cc" d="M 297.031 399.864L 301.031 399.864C 301.375 399.864 301.699 399.809 302.014 399.724C 302.014 404.189 299.011 404.918 295.062 404.918L 295.062 405.858L 297.031 405.858C 299.01 405.858 305 405.376 305 398.876L 305 393.896C 305 391.69 303.236 389.927 301.031 389.927L 297.031 389.927C 294.825 389.927 293.062 391.69 293.062 393.896L 293.062 395.896C 293.062 398.101 294.825 399.864 297.031 399.864zM 296 393.885C 296 391.951 297.031 390.878 299.031 390.878C 301.01 390.878 302.041 391.909 302.041 393.885L 302.041 395.885C 302.041 397.909 301.01 398.896 299.031 398.896C 297.031 398.896 296 397.868 296 395.885L 296 393.885z"/>
			<path style="stroke:none; fill:#ffffff" d="M 298 399.864L 302 399.864C 302.344 399.864 302.668 399.809 302.982 399.724C 302.982 404.189 299.979 404.918 296.031 404.918L 296.031 405.858L 298 405.858C 299.978 405.858 305.969 405.376 305.969 398.876L 305.969 393.896C 305.969 391.69 304.205 389.927 302 389.927L 298 389.927C 295.794 389.927 294.031 391.69 294.031 393.896L 294.031 395.896C 294.031 398.101 295.794 399.864 298 399.864zM 296.969 393.885C 296.969 391.951 298 390.878 300 390.878C 301.978 390.878 303.01 391.909 303.01 393.885L 303.01 395.885C 303.01 397.909 301.978 398.896 300 398.896C 298 398.896 296.969 397.868 296.969 395.885L 296.969 393.885z"/>
		</g>
	</g>
</svg>
