<svg xmlns="http://www.w3.org/2000/svg" width="24" height="24">
	<g transform="translate(-288,-386)" id="KDDI_D_189">
		<g>
			<g>
				<path style="stroke:none; fill:#0000cc" d="M 288 409.89L 312 385.89L 312 409.89L 288 409.89"/>
				<path style="stroke:none; fill:#99ccff" d="M 312 385.89L 288 385.89L 288 409.89L 312 385.89z"/>
				<path style="stroke:none; fill:#0066ff" d="M 310.5 408.39L 289.5 408.39L 289.5 387.39L 310.5 387.39L 310.5 408.39z"/>
				<path style="stroke:none; fill:#0000cc" d="M 292.039 389.907L 292.039 390.892C 292.039 391.581 291.703 391.921 291.016 391.921C 290.641 391.921 290.042 391.921 290.042 391.921L 290.042 392.858L 292.039 392.858L 292.039 405.89L 294.969 405.89L 294.969 389.907L 292.039 389.907z"/>
				<path style="stroke:none; fill:#ffffff" d="M 293.039 389.907L 293.039 390.892C 293.039 391.581 292.703 391.921 292.016 391.921C 291.641 391.921 291.042 391.921 291.042 391.921L 291.042 392.858L 293.039 392.858L 293.039 405.89L 295.969 405.89L 295.969 389.907L 293.039 389.907z"/>
				<path style="stroke:none; fill:#0000cc" d="M 304.062 389.897L 302.103 389.897C 299.903 389.897 298.103 391.697 298.103 393.897L 298.103 401.876C 298.103 404.076 299.903 405.876 302.103 405.876L 304.062 405.876C 306.263 405.876 308.062 404.076 308.062 401.876L 308.062 393.897C 308.062 391.697 306.263 389.897 304.062 389.897zM 305.114 402.876C 305.114 404.526 304.204 404.892 303.091 404.892C 301.978 404.892 301.067 404.526 301.067 402.876L 301.067 392.845C 301.067 391.195 301.978 390.86 303.091 390.86C 304.204 390.86 305.114 391.195 305.114 392.845L 305.114 402.876z"/>
				<path style="stroke:none; fill:#ffffff" d="M 304.979 389.897L 303.021 389.897C 300.82 389.897 299.021 391.697 299.021 393.897L 299.021 401.876C 299.021 404.076 300.82 405.876 303.021 405.876L 304.979 405.876C 307.18 405.876 308.979 404.076 308.979 401.876L 308.979 393.897C 308.979 391.697 307.18 389.897 304.979 389.897zM 306.031 402.876C 306.031 404.526 305.121 404.892 304.008 404.892C 302.895 404.892 301.984 404.526 301.984 402.876L 301.984 392.845C 301.984 391.195 302.895 390.86 304.008 390.86C 305.121 390.86 306.031 391.195 306.031 392.845L 306.031 402.876z"/>
			</g>
		</g>
	</g>
</svg>
