<svg xmlns="http://www.w3.org/2000/svg" height="24" width="24">
    <g transform="matrix(1,0,0,-1,-264,408)" id="KDDI_D_">        <path d="M281 383.9c1.9 0 4 .4 5.4 1.6 2 1.8 1.6 4.1 1.6 4.1s-1.1-1.7-2.4-2.5c-1.3-.7-4.3-.4-5.7 1.8.6.4 1.2.8 1.8 1.3 1.2 1.2 2.4 3.1 2.4 5.8 0 7.6-6.1 11.9-12.9 11.9-2.7 0-4.8-.8-6-2.1-1.4-1.5-1.2-3.7-1.2-3.7s.7 1 1.6 1.9c.7.7 2.1 1.3 3.7 1.4 1.6 0 3.3-.9 4.9-2.3-3.5-.4-6.3-3.4-6.3-7.1 0-.2 0-.4.1-.6.2-7.2 6.3-11.5 13-11.5z" fill="#39f"/>
        <path d="M275.1 389.3c.3-.1.6-.1 1-.1 4.3 0 6.3 3.7 6.3 6.7 0 4.5-2.4 7.5-4.7 8.9-2.3 1.5-5.6 1.7-5.6 1.7s3.1-1.5 5-3.5c2-2.1 2.8-4.7 2.8-7.1 0-1.4-.5-4.5-3.8-4.5-3.4 0-4 4-4 4.5 0 .7.3 2.4 2 2.4 2 0 2.4-1.6 2.4-2.4 0-.4-.1-.5-.4-.5-.3 0-.4.1-.6.4-.2.2-.7.6-1.3.3-.6-.4-.5-1.2-.3-1.6.2-.5.7-1.2 2.2-1.2 1.2 0 2.3 1.2 2.3 2.6 0 1.9-1.1 4.3-4.3 4.3-2.6 0-4.3-1.7-4.5-3.8v-.5c0-4.9 3-7.5 5-8.6 2.2-1.2 7.8-1.9 7.8-1.9s-4.7 1.5-7.3 3.9z" fill="#009" stroke="#06f" stroke-width=".65" stroke-linecap="round" stroke-linejoin="round"/>
    </g>
</svg>
