<svg xmlns="http://www.w3.org/2000/svg" height="24" width="24">
    <g transform="matrix(1,0,0,-1,-264,408)" id="KDDI_D_">        <path d="M274.4 402.9h-2.2v5h2.2z" fill="#f99"/>
        <path d="M276.4 402.9h-2.2v5h2.2z" fill="red"/>
        <path d="M278.5 402.9h-2.2v5h2.2z" fill="#c00"/>
        <path d="M279.7 402.9h-1.2v5h1.2z" fill="#900"/>
        <path d="M279.1 395.5c2.2.8 3.6 2.3 3.6 4.1 0 2.6-3 4.7-6.7 4.7-3.8 0-6.8-2.1-6.8-4.7 0-1.8 1.5-3.3 3.6-4.1-2.8-.9-4.8-2.9-4.8-5.3 0-3.2 3.6-5.8 8-5.8s8 2.6 8 5.8c0 2.4-2 4.4-4.9 5.3z" fill="#fff"/>
        <path d="M279.4 395.5c2 .8 3.4 2.3 3.4 4.1 0 2.6-3.7 4.7-6.3 4.7-.4 0-.8-.1-1.2-.1 2.1-.4 3.8-2.3 3.8-4.6 0-1.4-.7-2.7-1.7-3.6-.3-.2-.3-.8-.1-.9 1.6-1 2.7-2.8 2.7-4.9 0-2.9-2.1-5.2-4.7-5.7.4 0 .8-.1 1.2-.1 4.1 0 7.5 2.6 7.5 5.8 0 2.4-1.9 4.4-4.6 5.3z" fill="#9cf"/>
        <path d="M279.7 395.5c1.6.7 3.1 2.2 3.1 4 0 2.5-3.5 4.5-5.2 4.5-.4 0-.7 0-.9-.1 2.4-.3 4.7-2.2 4.7-4.4 0-1.8-.9-3.2-2.6-4 2.3-.8 3.6-2.8 3.6-5.2 0-2.8-2.7-5.1-5.7-5.5h.9c3.4 0 6.2 2.5 6.2 5.5 0 2.4-1.9 4.3-4.1 5.2z" fill="#699"/>
        <path d="M279.1 395.5c2.2.8 3.6 2.3 3.6 4.1 0 2.6-3 4.7-6.7 4.7-3.8 0-6.8-2.1-6.8-4.7 0-1.8 1.5-3.3 3.6-4.1-2.8-.9-4.8-2.9-4.8-5.3 0-3.2 3.6-5.8 8-5.8s8 2.6 8 5.8c0 2.4-2 4.4-4.9 5.3z" fill="none" stroke="#039" stroke-linejoin="round"/>
        <path d="M272.7 401.3v-2.7M279.2 401.3v-2.7" fill="none" stroke="#000" stroke-width="1.3"/>
        <path d="M271.6 391.3l-6.4 6.4" fill="none" stroke="#666"/>
        <path d="M271 390.7l-6.5 6.4" fill="none" stroke="#000"/>
    </g>
</svg>
