<svg xmlns="http://www.w3.org/2000/svg" height="24" width="24">
    <g transform="matrix(1,0,0,-1,-264,408)" id="KDDI_D_">        <path d="M272.8 388.5v-3.4c0-.6.2-1.1.7-1.1.5 0 1.2.8 1.6 1.9.4 1.1.8 3.1.8 3.1" fill="#c00"/>
        <path d="M275.3 388.9c-.1-.4-.4-2.1-.8-3-.3-.9-.9-1.6-1.3-1.8 0-.1.2-.1.3-.1.5 0 1.2.8 1.6 1.9.4 1.1.8 3.1.8 3.1z" fill="#600"/>
        <path d="M280.5 388.5s-.1-2.8-.1-3.4c0-.6.2-1.1.7-1.1.5 0 1.3.8 1.7 1.9.4 1.1.8 3.1.8 3.1" fill="#c00"/>
        <path d="M282.9 388.9c-.1-.4-.4-2.1-.8-3-.3-.9-.9-1.6-1.3-1.8.1-.1.2-.1.3-.1.5 0 1.3.8 1.7 1.9.4 1.1.8 3.1.8 3.1z" fill="#600"/>
        <path d="M268.4 395.3s-2.9 1.5-1.8 6.4c.9 4.2 4.9 4 4.9 4s.6 1.6 2.9 1.8c2.4.2 3.5-1.3 3.5-1.3s1.6 1.2 3.5 1.2c3.1-.1 4.6-2.6 4.9-3.3.9-1.7.2-3.5.2-3.5s1.3-1.9 1.1-4.6c-.1-1.6 0-3.2-1-4.8-.8-1.3-2.2-2.6-4.5-2.7-3.5-.2-4.4 1.2-4.4 1.2s-1.5-1.3-4-1.3c-2.8 0-3.7.6-4.8 2.3-1.1 1.9-.5 4.6-.5 4.6z" fill="#fff"/>
        <path d="M270.5 405.3s.9 0 1.1-.5M277.1 406.6s1.5-1.3 1.2-2.3M286 400.4s-.2-1.7-1-1.7" fill="none" stroke="#ccc" stroke-width=".75" stroke-linecap="round"/>
        <path d="M287 398.3s-.2-3.2-.6-4.7c-.6-1.9-2-2.6-2.6-2.9-.7-.2-1 1.5-1.3 1.5-.3 0-.3-1.9-1.3-2.1-2.1-.3-3.1.9-3.5.9-.5 0-1.8-1.2-3.2-1.2-.7.1-.3.9-.8.9s-.7-.9-1.4-.9c-1.6 0-3 2.1-2.7 2.5.3.3 1.5.1 2.8.5 1.1.4 2.4 1 1.9 1.5s-1.8-.5-2.2-.7c-.3-.2-2.3-.6-2.6-.6h-.1c-.1.8-1.3.2-.9-1 .7-1.9 2.4-3.6 5.2-3.6 2.5 0 4 1.3 4 1.3s1.3-1.1 4.5-1.1c2.4 0 4 1.6 4.7 3.4 1 2.6.1 6.3.1 6.3z" fill="#cc9"/>
        <path d="M280.4 398.2c1 .2 1.6-.2 2.1-.8.2-.3.2-1.4.2-1.4M280.4 393.4s-.6.6-1.3.3" fill="none" stroke="#ccc" stroke-width=".75" stroke-linecap="round"/>
        <path d="M283.8 400.8c0-.2-.2-.4-.4-.4s-.4.2-.4.4.2.4.4.4.4-.2.4-.4zM281.1 401.8c0-.3-.2-.4-.4-.4s-.4.1-.4.4c0 .2.2.3.4.3s.4-.1.4-.3zM284.9 394.5c0-.2-.2-.4-.4-.4s-.4.2-.4.4.2.4.4.4.4-.2.4-.4zM281.8 404.6c0-.2-.2-.3-.4-.3-.3 0-.4.1-.4.3 0 .2.1.4.4.4.2 0 .4-.2.4-.4zM285.4 403.9c0-.2-.2-.4-.4-.4s-.4.2-.4.4.2.4.4.4.4-.2.4-.4z" fill="#ccc"/>
        <path d="M277.7 389.7s-1.5-1.3-4-1.3c-1.1 0-1.8.1-2.5.3" fill="none" stroke="#330" stroke-linecap="round"/>
        <path d="M280 388.8c-1.4.3-2.3.9-2.3.9" fill="none" stroke="#663" stroke-linecap="round"/>
        <path d="M286.4 391.3c-.7-1.3-2.3-2.6-4.6-2.7-.7 0-1.3 0-1.8.2" fill="none" stroke="#330" stroke-linecap="round"/>
        <path d="M271.2 388.7c-1 .3-1.6 1-2.3 2-1.1 1.9-.5 4.6-.5 4.6s-2.9 1.5-1.8 6.4c.9 4.2 4.6 4 4.6 4s.9 1.6 3.2 1.8c2.4.2 3.5-1.3 3.5-1.3s1.6 1.2 3.5 1.2c3.1-.1 4.6-2.6 4.9-3.3.9-1.7 0-3.5 0-3.5s1.5-1.9 1.3-4.6c-.1-1.6-.2-3.1-1.2-4.7" fill="none" stroke="#663" stroke-linecap="round"/>
        <path d="M269.7 399.6l-.6.8s0 2.9 4.2 2.9c4 0 4.5-3.3 4.4-4.6-.1-1.4-.2-3.8-2.1-4.2-1.8-.4-3.5.8-3.7 1.9z" fill="#fc0"/>
        <path d="M269.7 399.6s.7 1.8 1.7 2.3c1.7 1 3.7.1 4.2-.5.4-.5-.4-.6-1.5-.4-.8 0-1.8 0-2.5-.9-.5-.6-.6-2.1-.6-2.1z" fill="#ff9"/>
        <path d="M271.3 397.6c.2-1.6 2.3-2.8 2.3-2.8s-1.6-1-2.2-1.2c-.6-.2-4.1-.3-5.2-.3-1 0-1.7 1.2-1.7 2.1 0 .9 1.1 1.9 1.9 2.5.7.6 2.7 2.5 2.7 2.5s2.1-1.3 2.2-2.8z" fill="#fc9"/>
        <path d="M271.3 397.6c.2-1.6 2.3-2.8 2.3-2.8l-3-1.4s.6.4.9 1.5c.2 1.2-1.6 4.3-3.2 4.9-.1 0 .8.6.8.6s2.1-1.3 2.2-2.8zM265.9 395.3c0-.6-.3-1-.6-1s-.6.4-.6 1 .3 1.1.6 1.1.6-.5.6-1.1z" fill="#f93"/>
        <path d="M273.4 399.3s-.6-1.2-.4-2.3c.4-1.5 1.5-2.1 1.5-2.1s-2.3.4-2.4 1.5c-.1 1.2.1 2.7 1.3 2.9z" fill="#ff9"/>
        <path d="M275.8 402.6s1.3-1.9 1.3-3.9c0-2.7-1.5-3.7-1.5-3.7s1.5.2 1.8 1.4c.4 1.3.1 3.7-.3 4.6-.3.8-1.3 1.6-1.3 1.6zM274.1 399.5s.5-.5.4-1c0-.5-.3-1-.3-1s1 .5 1 1.1c-.1.6-1.1.9-1.1.9z" fill="#c90"/>
        <path d="M273.3 394.4s-1.3-.6-1.9-.8" fill="none" stroke="#960" stroke-linecap="round"/>
        <path d="M271.4 393.6c-.6-.2-4.4-.4-5.5-.3-1.1.2-1.4 1.5-1.4 2.5 0 .9 1.1 1.5 1.9 2.1.7.6 2.6 2.5 2.6 2.5s.7 3 4.4 3c4 0 4.4-3.2 4.5-4.5.2-1.7-.4-4-2.3-4.4-1.8-.4-3.5.8-3.7 1.9-.3 1.2.2 3 1.6 3.3 1.4.3 1.9-.4 1.9-1 0-.7-.3-1.3-.9-1.4" fill="none" stroke="#000" stroke-linecap="round"/>
        <path d="M268.7 398v-1.7" fill="none" stroke="#000" stroke-width="1.3"/>
    </g>
</svg>
