<svg xmlns="http://www.w3.org/2000/svg" height="24" width="24">
    <g transform="matrix(1,0,0,-1,-264,408)" id="KDDI_D_">        <path d="M278.7 400.9v3.2c0 1.7 2.4 2.4 3.6.5.9-1.5.7-4.6.7-4.6h4.4s-.2-3.1-1.1-3.6c-1-.5-3.5-.9-3.5-.9s-1-4.1-1.1-5.4c-.1-1.4-.9-2.9-2-3.3 0 0 1.9-2.3-3.7-2.3s-3.7 2.3-3.7 2.3c-1.1.4-1.9 1.9-2 3.3-.1 1.4-1.1 5.4-1.1 5.4s-2.5.4-3.4.9c-1 .5-1.2 3.6-1.2 3.6h4.4s-.2 3.1.8 4.6c1.1 1.9 3.5 1.2 3.5-.5v-3.2z" fill="#c60"/>
        <path d="M274.4 395.2c0-1.7.6-3.3.7-4.9.1-2 0-5 0-5l-1.3 1.5c-1.1.4-1.6 2-2.1 3.3-.5 1.4-1.2 5.4-1.2 5.4v5.3l5.4.1s-1.5-2.8-1.5-5.7z" fill="#c63"/>
        <path d="M272.3 395.2c0-1.7 1.2-2.4 1.3-4 .1-2 0-5.9 0-5.9l-1.3 1.5c-1.1.4-2 2-2 3.4-.1 1.6-1 5.3-1 5.3l-.2 5.3 5.3.1s-2.1-2.8-2.1-5.7z" fill="#f93"/>
        <path d="M279.8 395.2c0-1.7-1.3-2.4-1.4-4-.1-2 0-5.9 0-5.9l1.3 1.5c1.1.4 1.8 1.9 1.9 3.3.1 1.3 1.2 5.4 1.2 5.4v5.3l-5.2.1s2.2-2.8 2.2-5.7z" fill="#930"/>
        <path d="M269.2 400.9s.1 2.4 1 3.8c1.1 1.8 2.8 2.7 4 2.7.3 0-.9-1.5-.9-3.1v-3.4z" fill="#ff9"/>
        <path d="M271.8 400.9v2.9c0 1.7 2.1 2.6 2.1 2.6s-.6-1.3-.6-2.8v-2.7z" fill="#fc3"/>
        <path d="M283 400.9s.2 2.5-.7 3.9c-1.2 1.8-3.1 2.5-4.3 2.5-1.2 0 .8-1.4.8-3v-3.4z" fill="#ff9"/>
        <path d="M283 400.9s0 2.2-.9 3.6c-1.2 1.8-3.1 2.5-3.1 2.5s1.7-1.7 2.3-3.2c.5-1.3.4-2.9.4-2.9z" fill="#fc3"/>
        <path d="M269.5 395.5s-2.6.4-3.6.9-1.3 3.6-1.3 3.6h4.9" fill="#f93"/>
        <path d="M269.5 395.5s-2.8.5-3.4 1.1c-.6.6-1.1 1.9-1.1 1.9h4.5" fill="#c60"/>
        <path d="M282.5 395.5s2.6.4 3.6.9 1.3 3.6 1.3 3.6h-4.9" fill="#f93"/>
        <path d="M282.5 395.5s2.8.5 3.4 1.1c.6.6 1.1 1.9 1.1 1.9h-4.5" fill="#c60"/>
        <path d="M280 386.1c0-1-1.8-1.7-4-1.7s-3.9.7-3.9 1.7c0 1.8 1.7 1.8 3.9 1.8s4-.1 4-1.8z" fill="#600"/>
        <path d="M278.8 400.9v3c0 1.9-2.2 3.6-1 3.6 1.2 0 3.3-1 4.5-2.9.9-1.5.7-4.6.7-4.6h4.4s-.2-3.1-1.1-3.6c-1-.5-3.3-.9-3.3-.9s-.9-4-1.1-5.4c-.1-1.3-1-2.9-2.1-3.3 0 0 1.8-2.3-3.8-2.3s-3.8 2.3-3.8 2.3c-1.1.4-1.9 1.7-2.1 3.3-.2 1.4-1.1 5.4-1.1 5.4s-2.3.4-3.2.9c-1 .5-1.2 3.6-1.2 3.6h4.4s-.2 3.1.8 4.6c1.1 1.9 3.2 2.9 4.4 2.9 1.2 0-1-1.5-1-3.6v-3zM271.7 400.9h8.6" fill="none" stroke="#000"/>
        <path d="M272.2 397.1v-1.8" fill="none" stroke="#000" stroke-width="1.2"/>
        <path d="M273.2 397.1v-1.8M279.8 397.1v-1.8" fill="none" stroke="#333" stroke-width="1.2"/>
        <path d="M278.8 397.1v-1.8" fill="none" stroke="#000" stroke-width="1.2"/>
    </g>
</svg>
