<svg xmlns="http://www.w3.org/2000/svg" height="24" width="24">
    <g transform="matrix(1,0,0,-1,-264,408)" id="KDDI_D_">        <path d="M264 385.9c.7-.1 1.4-.2 2.2-.2 5.4 0 9.8 4.6 9.8 10.2 0 5.7-4.4 10.2-9.8 10.2-.8 0-1.5 0-2.2-.2" fill="#f90"/>
        <path d="M273.3 391.1c-2.1-3.1-2.8-3.7-5.2-5 3.7 1.1 6.5 3.4 7.4 7.5.4 1.9.2 3.8-.3 5.5 0 0 .2-4.8-1.9-8z" fill="#c60"/>
        <path d="M288 385.9c-.7-.1-1.4-.2-2.2-.2-5.4 0-9.8 4.6-9.8 10.2 0 5.7 4.4 10.2 9.8 10.2.8 0 1.5 0 2.2-.2" fill="#ff0"/>
        <path d="M288 386.1c-.5-.1-1.1-.2-1.7-.2-4.2 0-7.6 4.5-7.6 10 0 5.6 3.4 10.1 7.6 10.1.6 0 1.2-.1 1.7-.3M264 386.1c.5-.1 1-.2 1.5-.2 3.8 0 6.9 4.5 6.9 10 0 5.6-3.1 10.1-6.9 10.1-.5 0-1-.1-1.5-.3" fill="#fc0"/>
        <path d="M278.7 400.7c2.1 3.1 2.8 3.7 5.2 5-3.6-1-6.5-3.3-7.4-7.4-.4-1.9-.2-3.9.3-5.6 0 0-.2 4.8 1.9 8z" fill="#ff9"/>
        <path d="M273.9 393.1s-.9-1.4-3.2-1.4c-1.9 0-4 .6-5.8 2.4" fill="none" stroke="#000" stroke-linecap="round"/>
        <path d="M268.9 398.5c0-1.4-.7-2.6-1.5-2.6-.7 0-1.4 1.2-1.4 2.6 0 1.5.7 2.6 1.4 2.6.8 0 1.5-1.1 1.5-2.6z"/>
        <path d="M268.8 399.1c0-.3-.3-.6-.6-.6-.4 0-.6.3-.6.6 0 .4.2.7.6.7.3 0 .6-.3.6-.7z" fill="#fff"/>
        <path d="M274.4 398.3c0-1.3-.5-2.3-1.1-2.3-.6 0-1.1 1-1.1 2.3 0 1.3.5 2.3 1.1 2.3.6 0 1.1-1 1.1-2.3z"/>
        <path d="M274.3 398.8c0-.3-.2-.5-.4-.5-.3 0-.5.2-.5.5s.2.6.5.6c.2 0 .4-.3.4-.6z" fill="#fff"/>
        <path d="M278.1 393.1s.9-1.4 3.2-1.4c1.9 0 4 .6 5.8 2.4" fill="none" stroke="#000" stroke-linecap="round"/>
        <path d="M283.1 398.5c0-1.4.7-2.6 1.5-2.6.7 0 1.4 1.2 1.4 2.6 0 1.5-.7 2.6-1.4 2.6-.8 0-1.5-1.1-1.5-2.6z"/>
        <path d="M283.2 399.1c0-.3.3-.6.6-.6.4 0 .6.3.6.6 0 .4-.2.7-.6.7-.3 0-.6-.3-.6-.7z" fill="#fff"/>
        <path d="M277.6 398.3c0-1.3.5-2.3 1.1-2.3.6 0 1.1 1 1.1 2.3 0 1.3-.5 2.3-1.1 2.3-.6 0-1.1-1-1.1-2.3z"/>
        <path d="M277.7 398.8c0-.3.2-.5.4-.5.3 0 .5.2.5.5s-.2.6-.5.6c-.2 0-.4-.3-.4-.6z" fill="#fff"/>
        <path d="M288 385.9c-.7-.1-1.4-.2-2.2-.2-5.4 0-9.8 4.6-9.8 10.2 0 5.7 4.4 10.2 9.8 10.2.8 0 1.5 0 2.2-.2M264 385.9c.7-.1 1.4-.2 2.2-.2 5.4 0 9.8 4.6 9.8 10.2 0 5.7-4.4 10.2-9.8 10.2-.8 0-1.5 0-2.2-.2" fill="none" stroke="#000"/>
    </g>
</svg>
