<svg xmlns="http://www.w3.org/2000/svg" height="24" width="24">
    <g transform="matrix(1,0,0,-1,-264,408)" id="KDDI_D_">        <path d="M274.9 392.3h4.3V384h-4.3z" fill="#f90"/>
        <path d="M274.9 392.3h1.2V384h-1.2z" fill="#fc0"/>
        <path d="M278.3 392.3h.9V384h-.9z" fill="#c60"/>
        <path d="M269.4 392.3h4.3V384h-4.3z" fill="#f90"/>
        <path d="M269.4 392.3h1.2V384h-1.2z" fill="#fc0"/>
        <path d="M272.8 392.3h.9V384h-.9z" fill="#c60"/>
        <path d="M277.7 398h5.8c1.4 0 4.5-1 4.5-4.1V384h-4.4v5.9s-.8-.9-1.3-1.1c-.5-.2-1.2-.4-2.8-.4h-4.8c-1 0-4.1 1-4.6 2.3-.5 1.3 2.2 6.8 7.6 7.3z" fill="#f90"/>
        <path d="M287.2 388.6c0 1 .8 2.6.8 2.6V384h-.8v4.6z" fill="#c60"/>
        <path d="M283.6 389.9l1.1 1.4V384h-1.1z" fill="#fc0"/>
        <path d="M283.1 390.8c.7.8 1.7.6 1.7.6l-1.2-1.5s-.8-.9-1.3-1.1c-.5-.2-1.4-.4-3.9-.4 2.3.5 3.5.8 4.7 2.4z" fill="#c60"/>
        <path d="M286.3 396.3s1.3 1 1.3 2.2c0 2.9-1.6 3.7-1.6 3.7" fill="none" stroke="#f93"/>
        <path d="M283.8 403.6s.6.3 1.6.2c1-.1 2.2-1.4 1.5-2.2-.6-.8-1.3-.8-2.1-.1-.9.7-1 2.1-1 2.1z" fill="#c60"/>
        <path d="M282.7 399.6c0-4.6-3.1-10.2-9.4-10.2-6.2 0-9.3 5.6-9.3 10.2 0 4.7 2.5 8.4 9.3 8.4 6.9 0 9.4-3.7 9.4-8.4z" fill="#990"/>
        <path d="M275.2 407.9c-.6.1-.8 0-.9-.1-.1-.2.1-.4.5-.5 4.6-.9 6.3-4 6.3-7.7s-2.2-8.1-6.6-9.4c-.8-.2-.7-.3-.7-.5.1-.3.6-.2 1.1-.2 5.2.9 7.8 5.9 7.8 10.1 0 4.2-2.1 7.7-7.5 8.3z" fill="#660"/>
        <path d="M269.4 407.5c.6.2 1.4.3 1.5-.1.1-.3-.7-.5-1.3-.8-2.9-1.4-4-4-4-7 0-4.1 1.9-6.5 3-7.9.8-1 1-1.5.7-1.4-3.5 1.8-5.3 5.8-5.3 9.3 0 3.6 1.5 6.7 5.4 7.9z" fill="#cc0"/>
        <path d="M278.3 399.5c0-1.3-.7-2.5-1.4-3.6-.9-1.2-1.5-2.3-3.6-2.3-2.2 0-2.7 1.1-3.7 2.4-.7 1-1.3 2.3-1.3 3.5 0 2.9 2.2 5.3 5 5.3 2.7 0 5-2.4 5-5.3z" fill="#f90"/>
        <path d="M271.7 399.8c0-.9-.5-1.5-1.2-1.5-.6 0-1.1.6-1.1 1.5 0 .8.5 1.5 1.1 1.5.7 0 1.2-.7 1.2-1.5z"/>
        <path d="M270.5 400c0-.3-.2-.5-.5-.5-.2 0-.4.2-.4.5s.2.5.4.5c.3 0 .5-.2.5-.5z" fill="#fff"/>
        <path d="M277.2 399.8c0-.9-.5-1.5-1.2-1.5-.6 0-1.1.6-1.1 1.5 0 .8.5 1.5 1.1 1.5.7 0 1.2-.7 1.2-1.5z"/>
        <path d="M276 400c0-.3-.2-.5-.5-.5-.2 0-.4.2-.4.5s.2.5.4.5c.3 0 .5-.2.5-.5z" fill="#fff"/>
    </g>
</svg>
