<svg xmlns="http://www.w3.org/2000/svg" height="24" width="24">
    <g transform="matrix(1,0,0,-1,-264,408)" id="KDDI_D_">        <path d="M288 384s0 1.1-.5 2.1c-.5.9-2 2.1-2.8 2.8-.9.7-1.6 1.6-2 2.4-.4.8-2.9.5-2.9.5h-1.1s-2.5.3-2.9-.5c-.4-.8-1.1-1.7-1.9-2.4-.9-.7-2.4-1.9-2.9-2.8-.5-1-.5-2.1-.5-2.1z" fill="#f36"/>
        <path d="M287.5 386.1c-.5.9-2 2.1-2.8 2.8-.9.7-1.6 1.6-2 2.4-.4.8-2.3.5-2.3.5s.5-.2.6-.5c.3-.8.6-2.3 1.2-3 .7-.9.8-1.3 1.3-2.2.4-1 .4-2.1.4-2.1h4.1s0 1.1-.5 2.1z" fill="#c36"/>
        <path d="M284.7 388.9c-.9.7-1.6 1.6-2 2.4-.1.4-.6.5-1.1.5h-.2s.5-.2.6-.5c.4-.8 1.7-2.3 2.3-3 .7-.9 1.3-1.3 1.7-2.2.5-1 .5-2.1.5-2.1h1.5s0 1.1-.5 2.1c-.5.9-2 2.1-2.8 2.8z" fill="#903"/>
        <path d="M276.9 391.8h.8s.2.1.5.1c-.4 0-.9 0-1.3-.1zM278.2 391.9c.3 0 .5-.1.5-.1h.5c-.3.1-.7.1-1 .1z" fill="#f36"/>
        <path d="M279.4 391.8h-1.1s-2.1.3-2.5-.5c-.4-.8-1.1-1.7-1.9-2.4-.9-.7-2.4-1.9-2.9-2.8-.5-1-.5-2.1-.5-2.1h4.6s0 1.1.4 2.1c.4.9 1.2 2.1 1.9 2.8.7.7 1.2 1.6 1.5 2.4.2.5.5.5.5.5z" fill="#f69"/>
        <path d="M276.1 388.9c.7.7 1.3 1.6 1.6 2.4.2.5.4.5.4.5h-.2c-.5 0-.8-.2-1-.5-.3-.8-1-1.7-1.9-2.4-.9-.7-2.4-1.9-2.9-2.8-.5-1-.5-2.1-.5-2.1h1.8s0 1.1.4 2.1c.4.9 1.6 2.1 2.3 2.8z" fill="#f9c"/>
        <path d="M282.6 397.1h1v-7.6h-1zM276 397.1h-1.1v-7.6h1.1zM281.8 395.5h-5v1.9h5z" fill="#fc9"/>
        <path d="M283.2 398.2h-7.4v2.3h7.4z" fill="#f90"/>
        <path d="M282.3 399.3h-3.5-2.6c-1.5 0-1.6-1.5-1.6-2.2h1.4V395c0-.4.2-.9.5-1.2.3-.2 2.7-.4 2.7-.4h.1s2.4.1 2.7.4c.3.3.6.8.6 1.2v2.1h1.3c.1.7-.1 2.2-1.6 2.2m-3-3.5c-1.2 0-2.2.5-2.2 1.1v.2h4.3c0-.1.1-.1.1-.2 0-.6-1-1.1-2.2-1.1z" fill="#f36"/>
        <path d="M282.3 399.3h-.6s.2-1.7.1-3.2c0-1.3-.3-2.5-.3-2.5.2.1.5.1.5.2.3.3.6.8.6 1.2v2.1h1.3c.1.7-.1 2.2-1.6 2.2z" fill="#c36"/>
        <path d="M274.6 397.1h1.4V395c0-.4.3-.7.6-.7.3.1 0 1.1 0 2.2s.2 2.8.2 2.8h-.6c-1.5 0-1.7-1.5-1.6-2.2z" fill="#f69"/>
        <path d="M281.5 391.8h-4.4v1.8h4.4z"/>
        <path d="M282.7 401.5c0-1.8-1.5-3.3-3.4-3.3s-3.5 1.5-3.5 3.3v3.7c0 1.8 6.9 1.8 6.9 0z" fill="#fc9"/>
        <path d="M279.4 408c1.7 0 4.3-.5 4.3-3.6 0-2.7.1-3.1.1-3.7 0-.6 2 0 2 0s.5-1.4-.2-1.9c-.7-.6-2.1-.9-2.7-.3-.6.6-.6 1.3-.6 2.2v3s-.4-.2-.9.1c-.5.3-.8 1-.8 1s-.3-.7-.9-1c-.1 0-.6-.1-.6-.1l.3 1.2s-1-1.2-1.7-1.3c-.7 0-1.5.1-1.5.1v-3c0-.9 0-1.6-.6-2.2-.5-.6-2-.3-2.7.3-.6.5-.1 1.9-.1 1.9s2-.6 2 0v3.7c0 3.1 2.6 3.6 4.4 3.6z" fill="#630"/>
        <path d="M278.1 400.4v-.1c0-.4.5-.8 1.2-.8.6 0 1.2.4 1.2.8 0 .1 0 .1-.1.1z" fill="#c00"/>
        <path d="M280.9 402.3v-.5M277.7 402.3v-.5" fill="none" stroke="#000" stroke-linecap="round"/>
        <path d="M276.7 407.5c-1.1-.4-1.9-1.4-1.9-3.1v-2.1c0-.6.6.4.6 1.5.1 1 .6 2.3 1.2 3.1.3.5.5.8.1.6z" fill="#960"/>
        <path d="M274.9 405h.4s.1.6.3 1.1l.6.8-.2.2c-.6-.4-1-1.1-1.1-2.1z" fill="#c93"/>
        <path d="M268.1 395.2l-3.6 2.7h4.4l1.5 4.2 1.3-4.2h4.4l-3.5-2.7 1.4-4.2-3.6 2.6-3.7-2.6z" fill="#ff3" stroke="#f90" stroke-linejoin="round"/>
    </g>
</svg>
