<svg xmlns="http://www.w3.org/2000/svg" height="24" width="24">
    <g transform="matrix(1,0,0,-1,-264,408)" id="KDDI_D_">        <path d="M275 407v-19.2c0-.6.4-1 1-1s1 .4 1 1V407c0 .6-.4 1-1 1s-1-.4-1-1z" fill="#06f"/>
        <path d="M276.1 408c.2-.2.2-.3.2-.5v-19.3c0-.5-.4-1-1-1h-.1c.2-.2.5-.4.8-.4.6 0 1 .4 1 1V407c0 .5-.4.9-.9 1z" fill="#009"/>
        <path d="M283.7 383.9v.9s-1.9.3-2.4.7c-.6.4-1 1-1 1.5v1.3h-8.6V387c0-.5-.4-1.1-.9-1.5-.6-.4-2.5-.7-2.5-.7v-.9z" fill="#06f"/>
        <path d="M275.3 385.5c.4.4.7 1 .7 1.5v1.3h-3.2V387c0-.5-.2-1.1-.6-1.5-.5-.4-1.8-.7-1.8-.7v-.9h4v.9s.5.3.9.7zM276 387.8V407" fill="#09f"/>
        <path d="M265 403.8h22M268.9 407v-13.7" fill="none" stroke="#009"/>
        <path d="M268.3 401.6l-3.8-7.9" fill="none" stroke="#666"/>
        <path d="M269.4 401.6l3.8-7.9" fill="none" stroke="#000"/>
        <path d="M268.9 401.8v-8.5" fill="none" stroke="#333"/>
        <path d="M264 393.8v-.3c0-2.2 1.8-4.1 4-4.1h1.8c2.2 0 4 1.9 4 4.1v.3z" fill="#f60"/>
        <path d="M265.2 393.5v.3H264v-.3c0-2.2 1.8-4.1 4-4.1 0 0-2.8.9-2.8 4.1z" fill="#f90"/>
        <path d="M272.2 393.8v-.3c0-2.2-1.8-4.1-4-4.1h1.6c2.2 0 4 1.9 4 4.1v.3z" fill="#c30"/>
        <path d="M283.1 407v-13.7" fill="none" stroke="#009"/>
        <path d="M282.5 401.6l-3.8-7.9" fill="none" stroke="#666"/>
        <path d="M283.6 401.6l3.8-7.9" fill="none" stroke="#000"/>
        <path d="M283.1 401.8v-8.5" fill="none" stroke="#333"/>
        <path d="M278.2 393.8v-.3c0-2.2 1.8-4.1 4-4.1h1.8c2.2 0 4 1.9 4 4.1v.3z" fill="#f60"/>
        <path d="M279.4 393.5v.3h-1.2v-.3c0-2.2 1.8-4.1 4-4.1 0 0-2.8.9-2.8 4.1z" fill="#f90"/>
        <path d="M286.4 393.8v-.3c0-2.2-1.8-4.1-4-4.1h1.6c2.2 0 4 1.9 4 4.1v.3z" fill="#c30"/>
        <path d="M274.4 385.9c.1.4.2.6.2 1.1v1.3h-1V387c0-.5-.1-.7-.2-1.1-.2-.4-1.3-1.1-1.3-1.1v-.9h1.2v.9s.9.7 1.1 1.1z" fill="#3cf"/>
        <path d="M281.3 385.5c-.6.4-1 1-1 1.5v1.3h-.8v-2c0-.8-2.1-.4-2.1-.9 0-.4 4.1-.6 4.1-.6v-.9h2.2v.9s-1.9.3-2.4.7z" fill="#009"/>
    </g>
</svg>
