<svg xmlns="http://www.w3.org/2000/svg" height="24" width="24">
    <g transform="matrix(1,0,0,-1,-264,408)" id="KDDI_D_">        <path d="M276.6 388.6V386l-1.6-1.6h-2.3M278.7 388.7v-2.8l1.4-1.5h1.3M281.9 389.4v-2.8l2.2-2.2h2.8" fill="none" stroke="#900" stroke-width=".75"/>
        <path d="M276.1 388.6V386l-1.5-1.6h-2.4M278.2 388.7v-2.8l1.5-1.5h1.2M281.5 389.4v-2.8l2.1-2.2h2.8" fill="none" stroke="red" stroke-width=".75"/>
        <path d="M274.1 394.8s.2 2.1-.8 3.6c-.6.8-2.4 1.6-2.4 1.6l-.3-.9s1.3-.8 1.5-1.5c.1-.7 0-2.8 0-2.8z" fill="red"/>
        <path d="M272.6 397.6c-.1.7-1.4 1.5-1.4 1.5l.2.7c-.3.1-.5.2-.5.2l-.3-.9s1.3-.8 1.5-1.5c.1-.7 0-2.8 0-2.8h.6c0 .1 0 2.1-.1 2.8z" fill="#c00"/>
        <path d="M273.3 398.4c-.6.8-2.4 1.6-2.4 1.6l-.1-.1c.6-.3 1.7-.9 2.1-1.5 1-1.5.8-3.6.8-3.6h-1.6 2s.2 2.1-.8 3.6z" fill="#900"/>
        <path d="M267.3 402.8c-1.4 0-2.4-.7-3-1.7l4.7-1.9-5-.3c.3-1.6 1.5-2.7 3.3-2.7 2.1 0 4.3 2.1 4.3 3.3 0 1.3-2.2 3.3-4.3 3.3z" fill="red"/>
        <path d="M269 399.2l-5-.3c.2-.9.6-1.7 1.4-2.1-.6.4-.9 1.1-1 1.8zM267.7 402.6c.9 0 1.8-.4 2.6-1-.8.7-1.9 1.2-3 1.2-1.4 0-2.4-.7-3-1.7l.4-.2c.6 1 1.6 1.7 3 1.7z" fill="#f63"/>
        <path d="M269.1 402.4c1-.7 1.8-1.7 1.8-2.5 0-1.2-2.2-3.3-4.3-3.3-.5 0-1 .1-1.5.3.6-.4 1.3-.7 2.2-.7 2.1 0 4.3 2.1 4.3 3.3 0 .9-1.1 2.2-2.5 2.9z" fill="#c00"/>
        <path d="M270 388s1.6 0 1.9.2c.2.3.7 1.4.7 1.4l1.3-.3s-.3-1.8-1-2.3c-.7-.5-3.3-.8-3.3-.8z" fill="red"/>
        <path d="M272.1 388c.2.2.7 1.3.7 1.3l1.1-.2v.2l-1.3.3s-.5-1.1-.7-1.4c-.3-.2-1.9-.2-1.9-.2l-.4-1.8h.2l.4 1.6s1.6-.1 1.9.2z" fill="#f63"/>
        <path d="M273.6 389.4c-.1-.5-.5-1.7-1-2.1-.5-.4-2.2-.6-3-.7v-.4s2.6.3 3.3.8c.7.5 1 2.3 1 2.3z" fill="#900"/>
        <path d="M267.1 390.2c-1.4 0-2.3-.7-2.8-1.7l4.3-1.7-4.6-.3c.3-1.4 1.4-2.5 3.1-2.5 1.9 0 3.9 1.9 3.9 3.1 0 1.2-2 3.1-3.9 3.1z" fill="red"/>
        <path d="M268.6 386.8l-4.6-.3c.2-.8.6-1.5 1.3-1.9-.5.4-.9 1-1 1.7zM267.4 389.9c.8 0 1.7-.4 2.4-.9-.7.7-1.7 1.2-2.7 1.2-1.4 0-2.3-.7-2.8-1.7l.4-.1c.5.9 1.4 1.5 2.7 1.5z" fill="#f63"/>
        <path d="M268.7 389.7c1-.6 1.7-1.5 1.7-2.2 0-1.2-2-3.1-4-3.1-.5 0-.9.1-1.3.3.5-.4 1.2-.7 2-.7 1.9 0 3.9 1.9 3.9 3.1 0 .8-1 2-2.3 2.6z" fill="#c00"/>
        <path d="M285.6 400.3c.4-1.6.1-4-.4-4.6-.5-.6-2.1-1.3-2.1-1.3s-.5.4-1.3.5c-.9.2-2 .4-6.1.4s-5.6-.3-6.4-1.2c-.8-.9-.7-2.9.3-3.8 1-.8 3.2-1.4 4.3-1.5 1.8-.3 5.9-.5 7.2-.2 1.6.4 2.6 1.1 2.8 1.9.4.7 2.7 1.7 3.6 4.2.5 1.2.6 5.3.3 6.4-.7 2.2-2.1 3.4-3 4.2-1 .7-1.9 1.9-2.7 2.2-.9.3-1.7.7-3 .3-1.2-.3-1.3-1.4-2.3-2.2-1-.9-1.7-1.6-1.7-1.6s1.9 0 2.5-.1c.7-.1 1.3-.6 2.7-.3 1.5.2 1.9.9 1.9.9s2.6-.8 3.4-4.2z" fill="red"/>
        <path d="M277.3 405.5c1.3.8 1.1 1.4 2.3 1.8.6.2.6.3.6.5s-.7.2-1.1 0c-1.2-.3-1.3-1.4-2.3-2.2-1-.9-1.7-1.6-1.7-1.6h.2s1 .8 2 1.5z" fill="#f63"/>
        <path d="M282.1 407.5c-.2.2-.6.3-1.1.4.1-.1.3-.1.3-.2 1.1-1.1.7-2.2.1-3-.2-.3-.4-.6-1.8-.9-.7-.1-1.1-.1-1.5 0 .5-.2 1.1-.4 2.2-.2 1.5.2 1.6.6 1.9.9.6.8 1 1.9-.1 3zM281.7 392.8c-.8.2-2.4.4-5.9.4-3.5 0-4.7-.2-5.4-.7-.8-.6-.7-1.8.2-2.3.8-.5 2.7-.8 3.7-.9 1.5-.2 4.9-.3 6-.1 1.4.2 1.6.4 2.5 1.1.8.8-.1 2.3-1.1 2.5z" fill="#c00"/>
        <path d="M282 404.3c.1.1.2.1.3.2h-.1l-.2-.2z" fill="red"/>
        <path d="M287.8 401.1c-.7 2.2-2.1 3.4-3 4.2-1 .7-1.9 1.9-2.7 2.2-.1.1-.3.2-.5.3-.4.1-.9.1-.9.1.2-.1.8-.3 1.2-.6.5-.3.8-.7.8-.7s.6-.5.9-.8c.9-.7 2.3-1.9 3.2-3.9.7-1.4.7-4.4-.1-6.4-1-2.4-3.4-3.2-3.8-3.8-.3-.7-1.3-1.4-2.9-1.8-1.3-.3-5.4 0-7.1.2-.8.1-1.9.1-3 .7-.6.4-.8 1.3-.7 2.2.1.5-.4.3-.4-.2-.1-.7 0-1.4.4-2 .1-.2.2-.3.4-.5 1-.8 3.2-1.4 4.3-1.5 1.8-.3 5.9-.5 7.2-.2.2.1.4.1.6.2h.1c.2.1.3.2.5.2v.1c.2 0 .3.1.5.2.6.4 1 .8 1.1 1.2.4.7 2.7 1.7 3.6 4.2.5 1.2.6 5.3.3 6.4z" fill="#900"/>
        <path d="M285.9 400.7c-.8 3.3-3.3 4-3.6 3.8.3-.2 1.6-.7 2.5-2.2l.3-.6c.1-.1.1-.2.2-.3.1-.3.2-.7.3-1.1.4-1.6.1-4-.4-4.6-.1 0-.1-.1-.2-.2-.1 0-.1 0-.2-.1-.6-.5-1.7-1-1.7-1s-.5.4-1.3.5c-.9.2-2 .4-6.1.4s-5.6-.3-6.4-1.2c-.3-.3.4-.6 1-.3.7.2 2.1 1.1 5.7 1.1 4.1 0 5.2-.3 6.1-.4.8-.2 1.2-.4 1.2-.4s1.4.6 1.9 1.2c.4.4.8 1.3.9 2 .2 1.1.1 2.2-.2 3.4z" fill="#f63"/>
        <path d="M287.8 401.1s-.3-4.7-.7-5.9c-1-2.5-3.2-3.4-3.6-4.1-.2-.7-1.3-1.4-2.9-1.8-1.3-.3-5.4-.3-7.1 0-1.2.1-3.1.5-2.5.3 1-.5 2.2-.7 2.9-.8 1.8-.3 5.9-.5 7.2-.2 1.6.4 2.6 1.1 2.8 1.9.4.7 2.7 1.7 3.6 4.2.5 1.2.6 5.3.3 6.4z" fill="#600"/>
        <path d="M271.2 391.7c0-.3-.3-.6-.6-.6s-.6.3-.6.6.3.5.6.5.6-.2.6-.5z"/>
    </g>
</svg>
