<svg xmlns="http://www.w3.org/2000/svg" height="24" width="24">
    <g transform="matrix(1,0,0,-1,-264,408)" id="KDDI_D_">        <path d="M267.8 385.2l19 19" fill="none" stroke="#666"/>
        <path d="M283.6 388.4h4.4l-3.5 3.5H280v-4.4l3.6-3.5z" fill="#f60"/>
        <path d="M283.6 388.4h4.4l-3.5 3.5h-.9l2.9-2.9h-3.7z" fill="#c30"/>
        <path d="M265 407l18.8-18.8" fill="none" stroke="#000"/>
        <path d="M264 408v-6.1l2 4.1 4 2z" fill="#c30"/>
        <path d="M268.5 407.3l1.5.7h-6v-6.1l.8 1.6v3.8z" fill="#f60"/>
        <path d="M273 399.1c6.4 6.4 13.1 4.7 13.6 4.7 1 0 1.4 0 1.4 2s-.6 2.2-.6 2.2-.6 0-.6-1.2c0-.5-1-.7-2.1 0-1.1.5-2.8 1.2-5 1.2-3.7 0-7.5-2-8.8-3.1-1.4-1-2.8-2.4-3.9-3.8-1-1.4-3-5.1-3-8.8 0-2.2.7-3.9 1.3-5 .6-1.1.4-2-.1-2-1.2 0-1.2-.7-1.2-.7s.2-.6 2.2-.6 2.1.4 2.1 1.4c0 .5-1.7 7.3 4.7 13.7z" fill="#090"/>
        <path d="M265.8 386.5s-.9 2.7-.9 5c0 3.6 1.9 7.3 3 8.8 1.1 1.4 2.5 2.7 3.8 3.8 1.4 1.1 5.2 3 8.8 3 2.3 0 5-.9 5-.9s.3-.1-.8.6c-1.1.5-2.8 1.2-5 1.2-3.7 0-7.5-2-8.8-3.1-1.4-1-2.8-2.4-3.9-3.8-1-1.4-3-5.1-3-8.8 0-2.2.7-3.9 1.3-5 .6-1.1.5-.8.5-.8z" fill="#0c0"/>
        <path d="M287.4 408h-.1c.2-.3.3-.8.3-1.7 0-2-.4-2.1-1.4-2.1-.5 0-7.5 2.1-13.9-4.4-6.5-6.4-4.5-13.5-4.5-14 0-1-.1-1.4-2.1-1.4-.9 0-1.4.1-1.7.3v-.1s.2-.6 2.2-.6 2.1.4 2.1 1.4c0 .5-1.7 7.3 4.7 13.7 6.4 6.4 13.1 4.7 13.6 4.7 1 0 1.4 0 1.4 2s-.6 2.2-.6 2.2z" fill="#063"/>
        <path d="M265.7 384.8c.5 0 .7.9.1 2s-1.3 2.8-1.3 5c0 3.7 1.8 7.6 2.8 9 1.1 1.4 2.5 2.8 3.9 3.8 1.3 1.1 5.3 2.9 9 2.9 2.2 0 3.9-.7 5-1.2 1.1-.7 2.1-.5 2.1 0 0 .9.3 1.1.5 1.2-.2.4-.4.5-.4.5s-.6 0-.6-1.2c0-.5-1-.7-2.1 0-1.1.5-2.8 1.2-5 1.2-3.7 0-7.5-2-8.8-3.1-1.4-1-2.8-2.4-3.9-3.8-1-1.4-3-5.1-3-8.8 0-2.2.7-3.9 1.3-5 .6-1.1.4-2-.1-2-1.2 0-1.2-.7-1.2-.7s.1-.2.5-.4c.1.2.3.6 1.2.6z" fill="#0f6"/>
    </g>
</svg>
