<svg xmlns="http://www.w3.org/2000/svg" height="24" width="24">
    <g transform="matrix(1,0,0,-1,-264,408)" id="KDDI_D_">        <path d="M269.2 396.7c-2.5 0-3.2 1.9-3.3 4.3-.2 2.3 1 4.2 2.7 4.2 1.6 0 3.1-1.9 3.2-4.2v-1.1l2.2-1.2c.1.6.1 1.1.1 1.7-.2 3.8-2.7 6.8-5.5 6.8-2.7 0-4.8-3-4.5-6.8.2-3.8 1.4-6.8 5.5-6.8.3 0 .6 0 .9.1z" fill="#96f"/>
        <path d="M264.1 400.8v.5c-.1-.3 0-.6 0-.9.2-3.8 1.4-6.8 5.5-6.8.3 0 .6 0 .9.1l-.2.3h-.7c-4.1 0-5.3 3-5.5 6.8zM271.8 401.3c-.1 2.4-1.6 4.2-3.2 4.2-1.7 0-2.9-1.8-2.7-4.2 0 2.2 1.1 3.9 2.7 3.9s3.1-1.9 3.2-4.2v-.2.5z" fill="#60c"/>
        <path d="M274 399.1l-2.2 1.2v-.4l2.2-1.2c.1.4.1.8.1 1.2 0-.3 0-.6-.1-.8zM271.8 400.8v-.5.5z" fill="#96f"/>
        <path d="M269.3 396l1-2.3h.2l-1.3 3c-1.9 0-2.8 1.1-3.1 2.8.2-2 1-3.5 3.2-3.5z" fill="#99f"/>
        <path d="M268.8 406.5c2.4 0 4.5-2.2 5.2-5.3-.5 3.4-2.8 6-5.4 6-2.7 0-4.8-3-4.5-6.8 0-.7.1-1.5.3-2.2-.1.5-.2 1-.2 1.6-.2 3.7 1.8 6.7 4.6 6.7z" fill="#99f"/>
        <path d="M274.2 399.8c0 .5-.1.9-.2 1.4 0-.3.1-.5.1-.8 0-.6 0-1.1-.1-1.7l-2.1 1.1v-.6l2.3-1.2c0 .6.1 1.1 0 1.8zM282.8 396.7c2.5 0 3.2 1.9 3.3 4.3.2 2.3-1 4.2-2.7 4.2-1.6 0-3.1-1.9-3.2-4.2v-1.1l-2.2-1.2c-.1.6-.1 1.1-.1 1.7.2 3.8 2.7 6.8 5.5 6.8 2.7 0 4.8-3 4.5-6.8-.2-3.8-1.4-6.8-5.5-6.8-.3 0-.6 0-.9.1z" fill="#96f"/>
        <path d="M283.2 405.4c-1.7 0-3.1-1.8-3.3-4.2 0-.4 0-.7.1-1l-2.1-1.1c0-.2 0-.3.1-.4l2.2 1.2v1.1c.1 2.3 1.6 4.2 3.2 4.2.6 0 1.1-.3 1.5-.6-.5.5-1.1.8-1.7.8zM286 406.1c1.1-1.2 1.8-3.1 1.7-5.4-.3-3.8-1.5-6.9-5.6-6.9-.1 0-.3.1-.5.1l-.1-.2c.3-.1.6-.1.9-.1 4.1 0 5.3 3 5.5 6.8.2 2.5-.6 4.6-1.9 5.7z" fill="#60c"/>
        <path d="M278.3 400c.2 3.8 2.7 6.8 5.4 6.8 1.1 0 2.1-.5 2.9-1.3-.8 1.1-2 1.7-3.2 1.7-2.8 0-5.3-3-5.5-6.8 0-.6 0-1.1.1-1.7l.3.2v1.1zM286.5 400.5c.1 1.5-.4 2.8-1.2 3.6.6-.8.9-1.9.8-3.1-.1-2.4-.8-4.3-3.3-4.3l-1.3-3c.2 0 .4-.1.6-.1l1.1 2.7c2.4 0 3.2 1.9 3.3 4.2z" fill="#99f"/>
        <path d="M276 408c1.3 0 4.5-.4 4.6-2.5.1-2.1-.3-3.1-.3-4.3 0-1.3 3.4-2.6 3.4-7.3 0-2.9-.9-4.6-2-6.3-1.6-2.3-3.5-3.6-3.5-3.6h-4.4s-1.9 1.3-3.5 3.6c-1.1 1.7-2 3.4-2 6.3 0 4.7 3.4 6 3.4 7.3 0 1.2-.4 2.2-.3 4.3.1 2.1 3.3 2.5 4.6 2.5z" fill="#96f"/>
        <path d="M272.5 392.8c0 3.2 2.1 4 2.1 6 0 1.2-.1 4.6 0 6.7.1 1.6 1.5 2.2 2.6 2.4-.2 0-.5.1-.7.1-1.5-.1-4.1-.7-4.1-2.5-.1-2.1.2-3.1.2-4.3 0-1.3-3.3-2.6-3.3-7.3 0-2.9.8-4.6 2-6.3 1.5-2.3 3.5-3.6 3.5-3.6h.7s-1 1.4-1.9 3.2c-.9 1.7-1.1 3.6-1.1 5.6z" fill="#99f"/>
        <path d="M272.4 395.3c.6 0 1.1.8 1.3 1.2.4.7.9 1.4.9 2.3 0 1.2-.1 4.6 0 6.7.1 1.6 1.5 2.2 2.6 2.4-.2 0-.5.1-.7.1-.3 0-.5-.1-.8-.1-1.1-.2-2.5-.8-2.6-2.4-.1-2.1.3-5.1.3-6.3 0-.8-.6-1.5-1.1-2.2-.3-.5-.5-1.7.1-1.7z" fill="#ccf"/>
        <path d="M280.3 401.2c0 1.2.4 2.2.3 4.3-.1 2.1-3.3 2.5-4.6 2.5-.4 0-.9 0-1.4-.1 1.2-.3 2.7-.9 2.7-2.4.1-2.1.1-5.1.1-6.3 0-2.2 2.9-2.9 2.9-6.1 0-3-.4-3.8-1.4-5.5-1.3-2.3-2.9-3.6-2.9-3.6h2.2s1.9 1.3 3.5 3.6c1.1 1.7 2 3.4 2 6.3 0 4.7-3.4 6-3.4 7.3z" fill="#93f"/>
        <path d="M280.3 401.2c0 1.2.4 2.2.3 4.3-.1 2.1-3.3 2.5-4.6 2.5h-.6c1.5-.1 3.9-.7 4-2.5.1-2.1-.3-3.1-.3-4.3 0-1.3 3.4-2.6 3.4-7.3 0-2.9-.8-4.6-2-6.3-1.5-2.3-3.5-3.6-3.5-3.6h1.2s1.9 1.3 3.5 3.6c1.1 1.7 2 3.4 2 6.3 0 4.7-3.4 6-3.4 7.3z" fill="#60c"/>
        <path d="M269.3 389.4s3-.7 6.7-.7c3.8 0 6.7.7 6.7.7.6 1.2 1 2.6 1 4.4 0 0-5.3-.7-7.7-.7-2.4 0-7.7.7-7.7.7 0-1.8.4-3.2 1-4.4z" fill="#f69"/>
        <path d="M273 388.8c-.4 1.3-.5 2.6-.5 4 0 .2.1.3.1.5-1.3.1-2.5.3-3.3.4 0-1.9.4-3.3 1-4.5.6-.1 1.6-.3 2.7-.4z" fill="#f9c"/>
        <path d="M271.2 391.1c.1-1.1.4-2.1.4-2.1.4-.1.9-.1 1.4-.2-.4 1.3-.5 2.6-.5 4 0 .2.1.3.1.5-.5.1-1 .1-1.5.2 0 0 0-1.3.1-2.4z" fill="#fcf"/>
        <path d="M280.3 393.4v-.3c0-2.1-.2-3.2-.7-4.2 1.9.2 3.1.5 3.1.5.3.6.5 1.2.7 1.9v.2c.1.3.1.6.2.9v.2c0 .4.1.8.1 1.2 0 0-1.6-.2-3.4-.4z" fill="#f36"/>
        <path d="M282.5 393.7c-.1-1.9-.5-3.3-1.1-4.5.9.1 1.3.2 1.3.2.3.6.5 1.2.7 1.9v.2c.1.3.1.6.2.9v.2c0 .4.1.8.1 1.2 0 0-.5 0-1.2-.1z" fill="#c00"/>
        <path d="M279.1 405.3c0-.9-1.4-1.6-3.1-1.6-1.7 0-3.1.7-3.1 1.6 0 .8 1.4 1.5 3.1 1.5 1.7 0 3.1-.7 3.1-1.5z"/>
        <path d="M278.9 405.3c.1-.2.2-.4.2-.6 0-.9-1.4-1.6-3.1-1.6-.3 0-1-.1-1-.6s.7-.5 1-.5c2.5 0 4.7.9 4.6 3 0 .1 0 .2-.1.3z" fill="#60c"/>
        <path d="M276 408c-1.3 0-4.5-.4-4.6-2.5-.1-2.1 2.1-3 4.6-3 2.5 0 4.7.9 4.6 3-.1 2.1-3.3 2.5-4.6 2.5m0-4.3c-1.7 0-3.1.7-3.1 1.6 0 .8 1.4 1.5 3.1 1.5 1.7 0 3.1-.7 3.1-1.5 0-.9-1.4-1.6-3.1-1.6z" fill="#99f"/>
        <path d="M276 406.8c1.1 0 2.1-.3 2.7-.7-.5.6-1.6 1-2.9 1-1.8 0-3.2-.7-3.2-1.6 0-.3.2-.6.5-.8-.1.1-.2.3-.2.6 0 .8 1.4 1.5 3.1 1.5zM280.3 405.7c.1-2.1-2-3-4.5-3-.7 0-1.3.1-1.8.2-.8.2-.7 0 .2-.2.6-.2 1.2-.2 1.8-.2 2.5 0 4.7.9 4.6 3 0 .6-.3.7-.3.2z" fill="#93f"/>
        <path d="M276.3 407.8c.6 0 1.7-.2 2.7-.5.4-.2.5-.1.2 0-1.1.6-2.4.7-3.2.7-1.3 0-4.5-.4-4.6-2.5 0-.9.2-1 .3-.3 0 2.1 3.2 2.6 4.6 2.6zM276.3 403.4c1.7 0 3.1.7 3.1 1.6 0 .3-.2.6-.5.8.1-.1.2-.3.2-.5 0-.9-1.4-1.6-3.1-1.6-1.1 0-1.1-.3.3-.3z" fill="#ccf"/>
    </g>
</svg>
