<svg xmlns="http://www.w3.org/2000/svg" height="24" width="24">
    <g transform="matrix(1,0,0,-1,-264,408)" id="KDDI_D_">        <path d="M273.1 403.3c-2.1 0-4.7-.6-6.4-2.3-1.3-1.3-2.2-3.7-2.2-5.5 0-2.2 2.5-5 5.5-5.6 3-.6 5.5.3 7.1 1.2 1.6.8 3.6 2.4 5.1 2.4 1.4 0 5.4-3.2 5.4-3.2v10.8s-3.8-3.6-5-3.6c-1.3 0-2.4 2.6-4 3.7s-3.3 2.1-5.5 2.1z" fill="#3cf"/>
        <path d="M265.9 394.6c0 1.8.6 4.3 1.9 5.6 1.7 1.6 4.3 2.3 6.4 2.3 2 0 1.1.8-1.1.8-2.1 0-4.7-.6-6.4-2.3-1.3-1.3-2.2-3.7-2.2-5.5 0-1.5 1.3-3.4 3.1-4.6-1.2 1.1-1.7 2.5-1.7 3.7zM283.7 396.6c.8 0 2.7 1.5 3.9 2.6v1.9s-3.8-3.6-5-3.6c-.1 0-.2 0-.3.1.4-.6.9-1 1.4-1z" fill="#9ff"/>
        <path d="M270 396c-.6 0-1.5-.8-1.3-2.2.2-1.5-.2-3.6 1.3-3.9 3-.6 5.5.3 7.1 1.2 1.6.8 3.6 2.4 5.1 2.4 1.4 0 5.4-3.2 5.4-3.2v5.7H270z" fill="#09f"/>
        <path d="M264.8 394.3c.7-1.9 2.8-3.9 5.2-4.4 3-.6 5.5.3 7.1 1.2 1.6.8 3.6 2.4 5.1 2.4 1.4 0 1.6.8.4.8h-17.8z" fill="#ff6"/>
        <path d="M283.7 394.3c-1.6 0-3.2-.5-1.8-.5 1.4 0 5.7-3.5 5.7-3.5v2s-2.7 2-3.9 2z" fill="#36f"/>
        <path d="M271 389.8l2.1-2.4s3.2-.7 5.2.2c1.9.9 2.9 2.1 2.9 2.1l-1.4 3.1" fill="#ff6"/>
        <path d="M276.9 402.4c-2.4 1.1-4.4.8-4.4.8l1.8 2.4s3.2.3 4.7-.7 2.3-2.4 2.3-2.4l-.7-3.4s-1.3 2.2-3.7 3.3z" fill="#9ff"/>
        <path d="M275.3 403.2l2 2.3M277.5 401.8l2.3 2.4" fill="none" stroke="#6cf"/>
        <path d="M272.5 403.2l1.8 2.4s3.2.3 4.7-.7 2.3-2.4 2.3-2.4l-1-2.9" fill="none" stroke="#06f"/>
        <path d="M274.8 390l2.2-2.7M277.1 391.1l2.7-2.6" fill="none" stroke="#f90"/>
        <path d="M271 389.8l2.1-2.4s3.2-.7 5.2.2c1.9.9 2.9 2.1 2.9 2.1l-1.4 3.1" fill="none" stroke="#f60"/>
        <path d="M270.6 400.5s1.8-1.4 1.8-4.4c0-3-1.5-4.1-1.5-4.1" fill="none" stroke="#009"/>
        <path d="M268.8 399.3v-2.5" fill="none" stroke="#000"/>
        <path d="M265 393.9s1.9-.1 2.7.1c.8.2 1.3 1.1 1.3 1.1" fill="none" stroke="#009"/>
        <path d="M287.6 401.1s-3.8-3.6-5-3.6c-1.3 0-2.5 2.4-4 3.7-1.5 1.2-3.3 2.1-5.5 2.1-2.1 0-4.6-.7-6.3-2.4-1.3-1.3-2.3-3.6-2.3-5.4 0-.4.1-.8.2-1.2" fill="none" stroke="#06f" stroke-linecap="round" stroke-linejoin="round"/>
        <path d="M287.6 399.9v1.2M287.6 398v1M287.6 396v1M287.6 394v1M287.6 392.1v.9M287.6 390.3v.8M282.2 393.5c1.4 0 5.4-3.2 5.4-3.2" fill="none" stroke="#009" stroke-linecap="round"/>
        <path d="M287.6 399v.9M287.6 397v1M287.6 395v1M287.6 393v1M287.6 391.1v1" fill="none" stroke="#39f"/>
        <path d="M264.7 394.3c.7-1.9 2.8-3.9 5.3-4.4 3-.6 5.5.3 7.1 1.2 1.6.8 3.6 2.4 5.1 2.4" fill="none" stroke="#f90" stroke-linecap="round"/>
    </g>
</svg>
