<svg xmlns="http://www.w3.org/2000/svg" height="24" width="24">
    <g transform="matrix(1,0,0,-1,-264,408)" id="KDDI_D_">        <path d="M276.4 394.3c-.6-.4-2.3-1.6-2.8-2.2-.4-.5-.6-1.3-.6-2.9v-3.6s-.7.1-1-.3c-.2-.5-.2-1.3-.2-1.3h4.2v6.1l3.4 2.7z" fill="#f90"/>
        <path d="M278.8 393.2c-.1-.1-.5-.4-.5-.4l-3.4-2.7-.9-6.1h2v6.1l3.4 2.7z" fill="#f60"/>
        <path d="M273.9 404.8c.1 1.8-1.9 2.3-3.3 2.3-1.5-.1-2.8-1.2-2.8-1.2s-3.8-1.1-3.8-4.3c0-4.5 3.1-3.7 3.1-5.1.1-1.4-3.1-2.6-3.1-5.8 0-5 3-6.7 8.1-6.7 4.8 0 9 5.7 11.8 5.7 1.7 0 4.1-1.1 4.1-1.1s-2.3 3.2-5.2 3c-1.7-.1-4.4-3.2-10-3.4-1.5-.1-4.3 0-4.4 2.2 0 2.3 2.3 3.2 2.3 5.9 0 3.6-3.4 3.4-3.4 4.5 0 1 1.5 1.9 1.5 1.9s1.6-.3 2.6-.1c.9.1 2.4.6 2.5 2.2z" fill="#900"/>
        <path d="M267.8 391c0-.9.4-1.4 1.1-1.8-.3.3-.4.7-.5 1.2 0 2.3 2.3 3.2 2.3 5.9 0 1.7-.8 2.6-1.7 3.1.6-.5 1-1.3 1-2.6 0-2.7-2.3-3.5-2.2-5.8zM270.7 403.1c-.9-.1-2.6.2-2.6.2s-1.5-.9-1.5-2c0-.3.3-.5.8-.7-.1 0-.1.1-.1.2 0 1 1.5 1.9 1.5 1.9s1.6-.3 2.6-.1c.9.1 2.4.6 2.5 2.2 0 .9-.5 1.5-1.1 1.8.2-.3.4-.7.4-1.3-.1-1.5-1.6-2-2.5-2.2zM286.7 389.9c-.7.3-2.5.9-3.9.6-2.9-.6-6.3-5.3-12-5.5-1.7-.1-3.6.3-5 .8 1.4-1.3 3.5-1.8 6.3-1.8 4.8 0 9 5.7 11.8 5.7 1.7 0 4.1-1.1 4.1-1.1s-.5.6-1.3 1.3z" fill="#600"/>
        <path d="M268.3 404.6s1.4 1.1 2.8 1.2c1 0 .8 1.3-.5 1.3-1.5-.1-2.8-1.2-2.8-1.2s-3.8-1.1-3.8-4.3c0-1.5.3-2.3.7-2.9-.1.4-.1.9-.1 1.6 0 3.1 3.7 4.3 3.7 4.3zM267.7 395.2c0 .4-.3.6-.7.8-.5-1.2-3-2.4-3-5.3 0-1.6.3-2.9.9-3.8-.2.7-.3 1.5-.3 2.5 0 3.2 3.2 4.4 3.1 5.8z" fill="#c00"/>
        <path d="M271.3 405.3c0-.3-.2-.5-.5-.5s-.5.2-.5.5c0 .2.2.5.5.5s.5-.3.5-.5z"/>
        <path d="M279.4 392.8s.6-3 .5-3.7V384h4.7s.2.9-.3 1.2c-.4.2-1.8.8-1.8.8v7.8z" fill="#f90"/>
        <path d="M280.3 392.8s.4-3 .3-3.7V384h3.2s.1.9-.2 1.2l-1.2.8v7.8z" fill="#f60"/>
        <path d="M284.3 385.2c-.4.2-1.8.8-1.8.8v7.8l-1-.3V386s1.3-.6 1.8-.8c.4-.3.2-1.2.2-1.2h1.1s.2.9-.3 1.2z" fill="#c60"/>
        <path d="M283 402.8c-1.4.2-3.7.1-4.6.1 0 0-1.4-.2-2-.6-.6-.5-1-1.2-1.6-1.7-.6-.6-1.5-1.3-2.2-1.3-.7 0-2.1.5-2.1.5s-.3.6-.8.6c-1.1.1-1.6-.4-1.5-1.3.1-.8.6-1.6 1.7-1.8 1.1-.2 3.8-.4 4.7 0 .8.5 2.3 1.6 2.3 1.6l.2-1.2.7-1.2-.2-1.7 4.9-1s.8 0 1.1.3c.2.3.3 1 .3 1s3 1.7 3 3.5-2.5 3.9-3.9 4.2m.6-5.2l-1-.2v2.9l1.8-1.5z" fill="#f90"/>
        <path d="M273.8 397.9c-.9-.4-3.6-.1-4.7 0-.2.1-.4.1-.5.2.2-.4.7-.7 1.3-.8 1.1-.2 3.8-.4 4.7 0 .5.3 1.1.7 1.6 1.1l-.1 1.2s-1.5-1.2-2.3-1.7z" fill="#c60"/>
        <path d="M273.8 397.9l.8-.6c.5.3 1.8 1.3 2.3 1.6l-.5 1.4s-1.8-1.9-2.6-2.4zM283.9 395.1s3 1.7 3 3.5c0 .2 0 .4-.1.6l-1.3 2.1c-.4.3-.7.6-1.1.8 0-.4-.1-.9-.2-1.3-.2-.4-1-.7-1.2-.8l1.4-1.2-.8-1.2-1-.2v.8l-.4-.5-.6-3.7.9-.2s.8 0 1.1.3c.2.3.3 1 .3 1z" fill="#f60"/>
        <path d="M284.4 402.1c.9-.8 1.7-1.9 1.7-2.9 0-1.8-3-3.5-3-3.5s-.1-.7-.3-1c-.3-.3-1.1-.3-1.1-.3l-4.1.9v-.5l4.9-1s.8 0 1.1.3c.2.3.3 1 .3 1s3 1.7 3 3.5c0 1.2-1.2 2.7-2.5 3.5z" fill="#c60"/>
        <path d="M282.6 400.3l-.8.6V396l.8-.1z" fill="#c60"/>
        <path d="M276.7 399.6l.4-1.9.7-1.2-.2-1.4h4.2v2.2s-2.6-.5-3.9.6" fill="#f60"/>
        <path d="M277.6 396s-.2-.7-.6-1c-.4-.2-1.1-.7-1.1-.7l2.7-2.4.6.4.1-.5h3.3v4.2z" fill="#036"/>
        <path d="M278.7 393.7l-1.1-.9 1-.9.6.4.1-.5h3.3v4.2H279z"/>
        <path d="M278.3 408l-.6-.7v-2.6l.7-.1v-2.1h3.8v4.4l-.7 1.1z" fill="#f90"/>
        <path d="M282.2 402.5v4.4l-.2.3-1.5-1.3.3-1.5v-1.9z" fill="#c60"/>
        <path d="M278.3 408l-.6-.7v-.5h2.4l.4-.9.6.2.3-.5v-.7l-.6-.5.1-.8 1.3.1v3.2l-.7 1.1z"/>
        <path d="M278.4 402.8v-.3h1.7v.6zM277.7 406.2h.7v-1.9h-.7z" fill="#c60"/>
    </g>
</svg>
