<svg xmlns="http://www.w3.org/2000/svg" height="24" width="24">
    <g transform="matrix(1,0,0,-1,-264,408)" id="KDDI_D_">        <path d="M288 388.4h-24v15.1h24z" fill="#009"/>
        <path d="M288 402.5h-24v1h24z" fill="#36f"/>
        <path d="M288 388.4h-24v1.1h24z" fill="#006"/>
        <path d="M265 389.5l-1-1.1v15.1h1z" fill="#36f"/>
        <path d="M288 388.4h-1.1v14.1l1.1 1z" fill="#006"/>
        <path d="M288 403.5h-24v4.5h24z" fill="#f39"/>
        <path d="M288 403.5h-1v4.5h1z" fill="#c00"/>
        <path d="M287 407h-23v1h24z" fill="#f9c"/>
        <path d="M265 403.5h-1v4.5h1z" fill="#f9c"/>
        <path d="M288 388.4h-24V384h24z" fill="#3c0"/>
        <path d="M265 388.4h-1V384h1z" fill="#6f6"/>
        <path d="M288 385.1l-23-.1-1-1h24z" fill="#090"/>
        <path d="M288 388.4h-1V384h1z" fill="#090"/>
        <path d="M265.4 389.5v2.2c3.3 5.5 4 6.1 4 7.7 0 .7-.2 1.3-.8 1.3-.9 0-.9-1.1-.9-1.9h-2.1c-.2 2.4.9 3.8 2.8 3.8 1.8 0 3.1-1 3.1-3.4 0-2.9-2.7-6.2-3.9-7.7h4v-2zM272 395c2.5 7.3 2.5 7.4 2.5 7.4h2.8v-8h.8v-2h-.8v-2.9h-2.1v2.9H272v2.6m3.4-.6l.2 6.2h-.1l-1.9-6.2zM284 397.2v5.2h2.2v-12.9H284v5.7h-2.6v-5.7h-2.2v12.9h2.2v-5.2z" fill="#fff"/>
    </g>
</svg>
