<svg xmlns="http://www.w3.org/2000/svg" height="24" width="24">
    <g transform="matrix(1,0,0,-1,-264,408)" id="KDDI_D_">        <path d="M271.2 403.3s0-1 .2-1.3c.3-.3 2.2-.3 2.7-1.3.7-1.3-.4-8-.4-8l-.8-.6-.9-8.1h-3.2l-1 8.1-.7.6s-1.1 6.7-.5 8c.6 1 2.5 1 2.7 1.3.3.3.2 1.3.2 1.3" fill="#00c"/>
        <path d="M267.7 392.9s-1 6.3-.3 7.6c.5 1 2.3 1.2 2.5 1.5.3.3.2 1.3.2 1.3h-.6s.1-1-.2-1.3c-.2-.3-2.1-.3-2.7-1.3-.6-1.3.5-8 .5-8l.7-.6 1-8.1h.6l-1 8.4z" fill="#06f"/>
        <path d="M274.1 400.7c-.5 1-2.4 1-2.7 1.3-.2.3-.2 1.3-.2 1.3h-.7s-.1-1 .2-1.3c.2-.3 2-.5 2.6-1.5.6-1.3-.4-7.6-.4-7.6l-.7-.5-1-8.4h.8l.9 8.1.8.6s1.1 6.7.4 8z" fill="#009"/>
        <path d="M281.7 403.3s-.2-1.1.2-1.6c.5-.5 1.3-.1 1.7-1.3.3-.8.3-2.6-.1-3.2-.4-.6-.7-.9-.7-1.6 0-.7 1.2-1.5 1.9-3.9.6-2.2.7-7.7.7-7.7h-8.8s.1 5.5.7 7.7c.7 2.4 1.9 3.2 1.9 3.9 0 .7-.3 1-.7 1.6-.4.6-.4 2.4-.1 3.2.4 1.2 1.2.8 1.7 1.3.4.5.2 1.6.2 1.6" fill="red"/>
        <path d="M279.8 395.6c0 .7-.3 1-.7 1.6-.4.6-.3 2.3 0 3.1.4 1.2 1 .9 1.4 1.4.4.5.2 1.6.2 1.6h-.4s.2-1.1-.2-1.6c-.5-.5-1.3-.1-1.7-1.3-.3-.8-.3-2.6.1-3.2.4-.6.7-.9.7-1.6 0-.7-1.2-1.5-1.9-3.9-.6-2.2-.7-7.7-.7-7.7h.5s.2 5.5.8 7.7c.7 2.4 1.9 3.2 1.9 3.9z" fill="#f66"/>
        <path d="M284.7 391.7c-.7 2.4-1.9 3.2-1.9 3.9 0 .7.3 1 .7 1.6.4.6.4 2.4.1 3.2-.4 1.2-1.2.8-1.7 1.3-.4.5-.2 1.6-.2 1.6h-.5s-.2-1.1.3-1.6c.4-.5 1-.3 1.4-1.4.3-.8.4-2.5 0-3.1-.4-.6-.7-.9-.7-1.6 0-.7 1.2-1.5 1.9-3.9.6-2.2.7-7.7.7-7.7h.6s-.1 5.5-.7 7.7z" fill="#c00"/>
        <path d="M283.8 405.3c0-1.6-1.3-2.8-2.8-2.8-1.5 0-2.8 1.2-2.8 2.8 0 1.5 1.3 2.7 2.8 2.7 1.5 0 2.8-1.2 2.8-2.7z" fill="red"/>
        <path d="M281 407.6c.4 0 .9.4 0 .4-1.5 0-2.8-1.2-2.8-2.7 0-.5.1-.8.3-1.2.1-.3.3-.3.2.1-.1.2-.1.4-.1.7 0 1.4 1 2.6 2.4 2.7z" fill="#f66"/>
        <path d="M282.8 407.4c.3-.5.6-1.1.6-1.7 0-1.5-1.3-2.8-2.8-2.8-.7 0-1.3.3-1.8.7.5-.7 1.3-1.1 2.2-1.1 1.5 0 2.8 1.2 2.8 2.8 0 .8-.4 1.6-1 2.1z" fill="#c00"/>
        <path d="M273.2 405.3c0-1.6-1.3-2.8-2.8-2.8-1.6 0-2.8 1.2-2.8 2.8 0 1.5 1.2 2.7 2.8 2.7 1.5 0 2.8-1.2 2.8-2.7z" fill="#00c"/>
        <path d="M270.3 407.6c.1 0 .4 0 .4.2s-.6.2-.6.2c-1.4-.2-2.5-1.3-2.5-2.7 0-.5.1-.9.3-1.3.2-.3.3-.3.2.1-.1.2-.1.5-.1.8 0 1.3 1 2.5 2.3 2.7z" fill="#36f"/>
        <path d="M271.4 407.8c.8-.5 1.3-1.3 1.3-2.3 0-1.5-1.3-2.7-2.8-2.7-.4 0-.7 0-1 .1.4-.2.9-.4 1.5-.4 1.5 0 2.8 1.2 2.8 2.8 0 1.1-.8 2.1-1.8 2.5z" fill="#009"/>
    </g>
</svg>
