<svg xmlns="http://www.w3.org/2000/svg" height="24" width="24">
    <g transform="matrix(1,0,0,-1,-264,408)" id="KDDI_D_">        <path d="M288 384h-24v24h24z" fill="#fff"/>
        <path d="M288 408h-24v-24h1v23h23z" fill="#06f"/>
        <path d="M288 384h-1.1l.1 23 1 1z" fill="#039"/>
        <path d="M288 384h-24l1 1h22z" fill="#006"/>
        <path d="M273.3 392v-5.7h-4.5v19.2h7c1.7 0 3.6 0 5.2-1.2 2.3-1.7 2.3-4.7 2.3-5.4 0-3.4-1.3-4.7-1.8-5.2-1.5-1.4-3.1-1.6-5.7-1.7h-2.5m0 9.5v-5.3h1.8c1.1 0 1.7 0 2.3.3.9.4 1.3 1.2 1.3 2.4 0 2.6-1.9 2.6-3.6 2.6z" fill="#00c"/>
        <path d="M276.4 404.9c.8 0 1.6 0 2.3-.1 1-.1 1.1.2.4.4-1.1.3-2.2.3-3.3.3h-7v-19.2h.6v18.6z" fill="#06f"/>
        <path d="M277.4 396.5c-.6-.3-1.2-.3-2.3-.3h-2.5v-.5h3.1c1.1 0 1.7 0 2.3.2.8.4 1.3 1.3 1.3 2.4 0 .4-.1.7-.1.9-.2.7-.5.4-.5-.3 0-1.2-.4-2-1.3-2.4z" fill="#06f"/>
        <path d="M282.5 402.6c-.4.6-.6.5-.4-.1.5-1.3.5-2.6.5-3 0-3.4-1.1-4.7-1.6-5.2-1.5-1.4-3.3-1.5-5.9-1.6h-2.5v-5.8h-3.2l-.6-.6h4.5v5.7h2.5c2.6.1 4.2.3 5.7 1.7.5.5 1.8 1.8 1.8 5.2 0 .5 0 2.1-.8 3.7zM273.3 401.5h1.8c.5 0 1.1 0 1.6-.1.3 0 .2.4-.2.6-.6.2-1.4.2-2.1.2h-1.8v-6.5l.7.6z" fill="#006"/>
    </g>
</svg>
