<svg xmlns="http://www.w3.org/2000/svg" height="24" width="24">
    <g transform="matrix(1,0,0,-1,-264,408)" id="KDDI_D_">        <path d="M276 396.5v-10.7" fill="none" stroke="#333"/>
        <path d="M281.5 402c0-3-2.5-5.5-5.5-5.5s-5.5 2.5-5.5 5.5 2.5 5.5 5.5 5.5 5.5-2.5 5.5-5.5z" fill="#fff"/>
        <path d="M277.7 406.1c-.5.8-.6 1.3-.4 1.2 2.4-.5 4.2-2.7 4.2-5.3 0-3-2.5-5.5-5.5-5.5s1.6 1.3 2.3 4.7c.3 1.9 0 3.9-.6 4.9z" fill="#ccc"/>
        <path d="M281 384v1l-3.3 3.3h-3.4L271 385v-1z" fill="#c30"/>
        <path d="M281 384v1h-10v-1z" fill="#c00"/>
        <path d="M272.6 384v1l2.6 3.3h-.9L271 385v-1z" fill="#c96"/>
        <path d="M272.6 384v1H271v-1z" fill="#c60"/>
        <path d="M279.4 384v1l-2.6 3.3h.9l3.3-3.3v-1z" fill="#930"/>
        <path d="M279.4 384v1h1.6v-1z" fill="#630"/>
        <path d="M279.8 400.8h-7.5v1.3h7.5z" fill="red"/>
        <path d="M279.8 402.1h-7.5v1.4h7.5z" fill="#f66"/>
        <path d="M281.5 402c0-3-2.5-5.5-5.5-5.5s-5.5 2.5-5.5 5.5 2.5 5.5 5.5 5.5 5.5-2.5 5.5-5.5z" fill="none" stroke="#333"/>
    </g>
</svg>
