<svg xmlns="http://www.w3.org/2000/svg" height="24" width="24">
    <g transform="matrix(1,0,0,-1,-264,408)" id="KDDI_D_">        <path d="M268.5 392.8l-4-8.4h12.3v8.4z" fill="#cc9"/>
        <path d="M272.1 392.8l-3.3-8.4h8v8.4z" fill="#999"/>
        <path d="M273.6 392.8v-8.4h3.2v8.4z" fill="#666"/>
        <path d="M275.5 392.8v-8.4h1.3v8.4z" fill="#333"/>
        <path d="M268.5 392.8l-4-8.4h12.3v8.4z" fill="none" stroke="#000" stroke-linejoin="round"/>
        <path d="M268.5 405.8v-13.2l4.1-4.1h12.6" fill="#09f"/>
        <path d="M271.5 389.6l1.1-1.1h12.6l-3.8 3.9z" fill="#36c"/>
        <path d="M269.8 391.3l-1.1 1.1V405l3.9-3.8z" fill="#6cf"/>
        <path d="M281.3 401.4c4.9-4.9 7.4-10.4 5.5-12.2-1.8-1.9-7.3.6-12.2 5.5-4.9 4.9-7.4 10.3-5.5 12.2 1.8 1.9 7.3-.6 12.2-5.5z" fill="#3cf"/>
        <path d="M272.1 397.4l2.7 8.9c-2.6 1.3-4.7 1.6-5.7.6-1.5-1.5-.2-5.4 3-9.5z" fill="#09f"/>
        <path d="M271.6 407.5c-1.1.1-2 0-2.5-.6-1.2-1.2-.6-3.8 1.2-6.8z" fill="#36c"/>
        <path d="M276.1 393.3c1.3-1.2 2.3-2 3.6-2.8l7.7 1.2c-.3 1.8-1.5 4.1-3.4 6.6z" fill="#6ff"/>
        <path d="M278.4 391.3l8.4 2.3c-.2.6-.5 1.2-.8 1.8l-8.6-3.3c.3-.2.7-.5 1-.8z" fill="#cff"/>
        <path d="M281.4 389.6c2.4-1.2 4.4-1.4 5.4-.4.3.2.5.6.6 1z" fill="#09f"/>
        <path d="M268.5 405.8v-13.2l4.1-4.1h12.6" fill="none" stroke="#000"/>
        <path d="M281.3 401.4c4.9-4.9 7.4-10.4 5.5-12.2-1.8-1.9-7.3.6-12.2 5.5-4.9 4.9-7.4 10.3-5.5 12.2 1.8 1.9 7.3-.6 12.2-5.5z" fill="none" stroke="#000"/>
        <path d="M284.3 402.2c.6.6.6 1.6 0 2.1-.5.6-1.5.6-2.1 0-.5-.5-.5-1.3-.2-1.8l-2.1-1.3-3.2-3.6-.1-1 1 .1 3.6 3.1 1.3 2.2c.6-.4 1.3-.3 1.8.2z" fill="#6ff" stroke="#000" stroke-linejoin="round"/>
    </g>
</svg>
