<svg xmlns="http://www.w3.org/2000/svg" height="24" width="24">
    <g transform="matrix(1,0,0,-1,-264,408)" id="KDDI_D_">        <path d="M270.5 397.9v1.1h10.9v-1.1z" fill="#69f"/>
        <path d="M276.1 387.3H275v14.2h1.1z" fill="#69f"/>
        <path d="M276.9 387.3h-1.1v14.1h1.1z" fill="#36f"/>
        <path d="M270.5 397v1.1h10.9V397zM272.6 404.6c0-1.9 1.6-3.4 3.5-3.4s3.4 1.5 3.4 3.4-1.5 3.4-3.4 3.4-3.5-1.5-3.5-3.4m1 0c0 1.3 1.1 2.4 2.5 2.4 1.3 0 2.4-1.1 2.4-2.4 0-1.3-1.1-2.4-2.4-2.4-1.4 0-2.5 1.1-2.5 2.4z" fill="#36f"/>
        <path d="M276 384s.9.8 1.5 1.1c.6.3 3.6.6 7.1 3.6 3.9 3.3 3.3 11.7 3.3 11.7l-5.3-5.1h2.2s-.8-3-2.7-4.3c-1.9-1.3-4.3-1.9-6.1-1.9-1.8 0-4.2.6-6.1 1.9-1.9 1.3-2.7 4.3-2.7 4.3h2.2l-5.3 5.1s-.6-8.4 3.3-11.7c3.5-3 6.5-3.3 7.1-3.6.6-.3 1.5-1.1 1.5-1.1z" fill="#36f"/>
        <path d="M283.2 395.8l-.6-.5h2c.2.3.2.5.2.5zM267.4 395.3h2l-.6.5h-1.6s0-.2.2-.5z" fill="#33c"/>
        <path d="M284.6 389.3c-3.5-3.1-6.5-3.3-7.1-3.6-.6-.4-1.5-1.1-1.5-1.1s-.9.7-1.5 1.1c-.6.3-3.6.5-7.1 3.6-2.8 2.4-3.3 7.5-3.3 10.1 0-2.3.2-8.1 3.3-10.7 3.5-3 6.5-3.3 7.1-3.6.6-.3 1.5-1.1 1.5-1.1s.9.8 1.5 1.1c.6.3 3.6.6 7.1 3.6 3.1 2.6 3.3 8.4 3.3 10.7 0-2.6-.5-7.7-3.3-10.1z" fill="#33c"/>
    </g>
</svg>
