<svg xmlns="http://www.w3.org/2000/svg" height="24" width="24">
    <g transform="matrix(1,0,0,-1,-264,408)" id="KDDI_D_">        <path d="M288 384h-24v24h24z" fill="#00c"/>
        <path d="M287 407h-23v1h24z" fill="#06f"/>
        <path d="M265 384h-1v24h1z" fill="#06f"/>
        <path d="M288 384h-1v23l1 1z" fill="#009"/>
        <path d="M288 384h-24l1 1h23z" fill="#006"/>
        <path d="M270 406.9c1.2 0 2.3 0 3-.8.5-.4.7-1.1.7-1.8 0-.5-.1-.9-.3-1.3-.5-.7-1.1-.7-1.4-.8.3 0 .5 0 .9-.3 1-.6 1.1-1.7 1.1-2.2 0-.4 0-.8-.2-1.2-.6-1.5-2.1-1.5-3.1-1.5h-4.8v9.9h4.1m-1.8-2.1v-1.7h2c.4 0 1.2 0 1.2.8 0 .9-.8.9-1.3.9h-1.9m0-3.7V399h2.1c.3 0 .8 0 1 .3.2.2.3.5.3.8 0 .4-.1.6-.3.8-.3.2-.7.2-1.1.2zM279.9 406.9l3.5-9.9h-2.5l-.5 1.3h-3.5l-.4-1.3h-2.4l3.4 9.9h2.4m-2.3-6.7h2.2l-1.1 3.4zM276.5 394.9V385h-2.4l-3.4 5.9V385h-2.2v9.9h2.3l3.4-5.9v5.9zM283.7 391.7l3.2-6.7h-2.6l-2.4 4.9-1.3-1.4V385h-2.3v9.9h2.3v-3.3l3.1 3.3h2.8z" fill="#fff"/>
    </g>
</svg>
