<svg xmlns="http://www.w3.org/2000/svg" width="24" height="24">
	<g transform="translate(-264,-386)" id="KDDI_D_214">
		<g>
			<path style="stroke:none; fill:none" d="M 288 409.89L 264.001 409.89L 264.001 385.89L 288 385.89L 288 409.89z"/>
		</g>
		<g>
			<path style="stroke:none; fill:#6ff" d="M 288 409.89L 264.001 409.89L 264.001 385.89L 288 385.89L 288 409.89z"/>
			<path style="stroke:none; fill:#9c6" d="M 264 385.89L 264 399.809C 266.5 392.89 271 387.89 277.723 385.89L 264 385.89z"/>
			<path style="stroke:none; fill:#690" d="M 264 385.89L 264 397.14C 266 390.89 269.5 387.39 274.97 385.89L 264 385.89z"/>
			<path style="stroke:#069; stroke-width:1; stroke-linecap:square; fill:none" d="M 287.5 386.39L 287.5 409.39L 264.5 409.39"/>
			<path style="stroke:none; fill:#360" d="M 264 385.89L 264 393.266C 265 389.89 268 386.89 271.159 385.89L 264 385.89z"/>
			<path style="stroke:none; fill:#3c9" d="M 281 387.89L 281 389.89L 280 390.89L 279 390.89L 279 391.89L 279 393.89L 280 393.89L 280 392.89L 281 392.89L 282 393.89L 283 393.89L 283.5 392.39L 285 391.89L 285 390.89L 284 390.89L 283.5 390.39L 283 389.89L 283 388.89L 282 388.89L 282 387.89L 281 387.89z"/>
			<path style="stroke:none; fill:#3c9" d="M 280 394.89L 280 395.89L 279 395.89L 279 399.39L 278 399.39L 278 400.39L 277 400.39L 277 399.39L 276 399.39L 275 400.39L 272 400.39L 271 401.39L 271 402.39L 272 402.39L 272 403.39L 277 403.39L 277 404.39L 276 404.39L 276 405.39L 279 405.39L 280 404.39L 281 404.39L 281 405.39L 282 405.39L 282 402.39L 281 402.39L 281 401.39L 282 401.39L 282 396.39L 281 395.89L 281 394.89L 280 394.89z"/>
			<path style="stroke:none; fill:#3c9" d="M 272 404.39L 272 406.39L 273 406.39L 273.5 405.89L 274 406.39L 275 406.39L 275 404.39L 272 404.39z"/>
			<path style="stroke:none; fill:#3c9" d="M 269 408.39L 269 407.39L 270 407.39L 270 406.39L 271 406.39L 271 403.39L 270 402.39L 268 402.39L 267 403.39L 267 404.39L 268 404.39L 268 405.39L 267 405.39L 267 407.39L 268 408.39L 269 408.39z"/>
			<path style="stroke:none; fill:#360" d="M 281 386.89L 281 388.89L 280 389.89L 279 389.89L 279 392.89L 280 392.89L 280 391.89L 281 391.89L 282 392.89L 283 392.89L 283.5 391.39L 285 390.89L 285 389.89L 284 389.89L 283.5 389.39L 283 388.89L 283 387.89L 282 387.89L 282 386.89L 281 386.89z"/>
			<path style="stroke:none; fill:#360" d="M 280 393.89L 280 394.89L 279 394.89L 279 398.39L 278 398.39L 278 399.39L 277 399.39L 277 398.39L 276 398.39L 275 399.39L 272 399.39L 271 400.39L 271 401.39L 272 401.39L 272 402.39L 277 402.39L 277 403.39L 276 403.39L 276 404.39L 279 404.39L 280 403.39L 281 403.39L 281 404.39L 282 404.39L 282 401.39L 281 401.39L 281 400.39L 282 400.39L 282 395.89L 281 394.89L 281 393.89L 280 393.89z"/>
			<path style="stroke:none; fill:#360" d="M 272 403.39L 272 405.39L 273 405.39L 273.5 404.89L 274 405.39L 275 405.39L 275 403.39L 272 403.39z"/>
			<path style="stroke:none; fill:#360" d="M 269 407.39L 269 406.39L 270 406.39L 270 405.39L 271 405.39L 271 402.39L 270 401.39L 268 401.39L 267 402.39L 267 403.39L 268 403.39L 268 404.39L 267 404.39L 267 406.39L 268 407.39L 269 407.39z"/>
		</g>
	</g>
</svg>
