<svg xmlns="http://www.w3.org/2000/svg" height="24" width="24">
    <g transform="matrix(1,0,0,-1,-264,408)" id="KDDI_D_">        <path d="M273.5 390.3c0-2.5-2.1-4.5-4.5-4.5-2.5 0-4.5 2-4.5 4.5 0 2.4 2 4.5 4.5 4.5 2.4 0 4.5-2.1 4.5-4.5z" fill="#666"/>
        <path d="M272.2 390.3c0-1.8-1.5-3.3-3.2-3.3-1.8 0-3.3 1.5-3.3 3.3 0 1.7 1.5 3.2 3.3 3.2 1.7 0 3.2-1.5 3.2-3.2z" fill="#999"/>
        <path d="M269 390.3v4.5M269 390.3h-4.5M268.9 390.3v-4.5M268.9 390.3h4.5" fill="none" stroke="#fff"/>
        <path d="M273.5 390.3c0-2.5-2.1-4.5-4.5-4.5-2.5 0-4.5 2-4.5 4.5 0 2.4 2 4.5 4.5 4.5 2.4 0 4.5-2.1 4.5-4.5z" fill="none" stroke="#000"/>
        <path d="M287.5 390.3c0-2.5-2-4.5-4.5-4.5s-4.5 2-4.5 4.5c0 2.4 2 4.5 4.5 4.5s4.5-2.1 4.5-4.5z" fill="#666"/>
        <path d="M286.2 390.3c0-1.8-1.4-3.3-3.2-3.3-1.7 0-3.2 1.5-3.2 3.3 0 1.7 1.5 3.2 3.2 3.2 1.8 0 3.2-1.5 3.2-3.2z" fill="#999"/>
        <path d="M283 390.3v4.5M283 390.3v-4.5M283 390.3h4.5" fill="none" stroke="#fff"/>
        <path d="M287.5 390.3c0-2.5-2-4.5-4.5-4.5s-4.5 2-4.5 4.5c0 2.4 2 4.5 4.5 4.5s4.5-2.1 4.5-4.5z" fill="none" stroke="#000"/>
        <path d="M271.2 400.9l-.1 2.4s-1.6.4-1.6 1.3.8 1.6 1.8 1.6h2.5" fill="none" stroke="#666" stroke-linecap="round"/>
        <path d="M280.8 397.6h6.2" fill="none" stroke="#666" stroke-width="1.1"/>
        <path d="M273.8 406.2h2" fill="none" stroke="#000" stroke-linecap="round"/>
        <path d="M281.7 400.5v1.6" fill="none" stroke="#666"/>
        <path d="M281.7 396.8v3.7" fill="none" stroke="#c00"/>
        <path d="M283.1 403.8c-1.1 0-1-1-2.2-1-1.2 0-3.2 0-3.2-.5 0-.6.1-.7.7-.7h4.7c.8 0 1.6.2 1.6 1.1 0 .8-.4 1.1-1.6 1.1z"/>
        <path d="M281.3 402.4c1.2 0 1.1 1 2.2 1 .5 0 .8 0 1.1-.1-.2.3-.7.5-1.5.5-1.1 0-1-1-2.2-1-1.2 0-3.2 0-3.2-.5s.1-.7.5-.7c-.1.1-.1.2-.1.3 0 .6 2 .5 3.2.5z" fill="#333"/>
        <path d="M280.6 396.8h6.4" fill="none" stroke="#333" stroke-width="1.1"/>
        <path d="M268.8 390.4s1 1.7 1.5 2.7c.5 1 .9 3.7.9 4.8v3.7M271.4 398.1l4.8-7.4 4.6 6.6v2.5h-9.4M280.6 396.8h2.4v-6.5" fill="none" stroke="#f3c" stroke-width="1.2" stroke-linecap="round"/>
        <path d="M283 390.3h-6.8v-3.1h-1.5" fill="none" stroke="#036" stroke-linecap="round"/>
        <path d="M277.4 390.9c0-.7-.6-1.3-1.3-1.3-.7 0-1.3.6-1.3 1.3 0 .7.6 1.3 1.3 1.3.7 0 1.3-.6 1.3-1.3z" fill="#f3c"/>
    </g>
</svg>
