<svg xmlns="http://www.w3.org/2000/svg" height="24" width="24">
    <g transform="matrix(1,0,0,-1,-264,408)" id="KDDI_D_">        <path d="M287.5 389.5c0-.6-.4-1-1-1h-20.9c-.6 0-1 .4-1 1v12.3c0 .5.4 1 1 1h20.9c.6 0 1-.5 1-1z" fill="#fff"/>
        <path d="M287.2 402.5H286v-9h1.2z" fill="#cc9"/>
        <path d="M287.1 388.8h-22.3v4.7h22.3z" fill="#f60"/>
        <path d="M287.2 388.8H286v4.7h1.2z" fill="#c30"/>
        <path d="M266.1 389.7h-1.2v3h1.2z" fill="#f90"/>
        <path d="M287.1 388.8h-22.3v.9h22.3z" fill="#c30"/>
        <path d="M266.1 391.6h-1.2v1.1h1.2z" fill="#cc9"/>
        <path d="M269.3 394.7h-4.6v6.4h4.6z" fill="#369"/>
        <path d="M268.6 401.1v-5.8h-3.9v-.6h4.6v6.4z" fill="#009"/>
        <path d="M266.1 398.8v2.3h-1.4v-2.3z" fill="#6cf"/>
        <path d="M285.1 397.6h-2.3v1.9h2.3z" fill="#369"/>
        <path d="M281.4 401.1V397h4.2v4.1h-4.2m3.7-3.6h-1.9v1.7h1.9z" fill="#6cf"/>
        <path d="M284.8 401.1v-3.3h-3.4v-.8h4.2v4.1z" fill="#009"/>
        <path d="M285.6 400.4v.7h-4.2V397h.7v3.4zM279.8 397.6h-2.3v1.9h2.3z" fill="#369"/>
        <path d="M276.1 401.1V397h4.2v4.1h-4.2m3.7-3.6h-1.9v1.7h1.9z" fill="#6cf"/>
        <path d="M279.5 401.1v-3.3h-3.4v-.8h4.2v4.1z" fill="#009"/>
        <path d="M280.3 400.4v.7h-4.2V397h.7v3.4zM274.5 397.6h-2.3v1.9h2.3z" fill="#369"/>
        <path d="M270.8 401.1V397h4.2v4.1h-4.2m3.7-3.6h-1.9v1.7h1.9z" fill="#6cf"/>
        <path d="M274.2 401.1v-3.3h-3.4v-.8h4.2v4.1z" fill="#009"/>
        <path d="M275 400.4v.7h-4.2V397h.7v3.4z" fill="#369"/>
        <path d="M264.6 389.5v12.3c0 .5.4 1 1 1H286" fill="none" stroke="#333"/>
        <path d="M286 402.8h.5c.6 0 1-.5 1-1v-12.3c0-.6-.4-1-1-1h-20.9c-.6 0-1 .4-1 1" fill="none" stroke="#000"/>
        <path d="M272.4 389.7c0-1.3-1.1-2.4-2.4-2.4-1.4 0-2.5 1.1-2.5 2.4 0 1.4 1.1 2.5 2.5 2.5 1.3 0 2.4-1.1 2.4-2.5z" fill="#cc9"/>
        <path d="M269.8 390.5c0-.4-.2-.7-.6-.7-.3 0-.6.3-.6.7 0 .3.3.6.6.6.4 0 .6-.3.6-.6z" fill="#fff"/>
        <path d="M271.2 391.8c.3-.4.5-.9.5-1.4 0-1.4-1.1-2.5-2.5-2.5-.4 0-.9.1-1.2.4.4-.7 1.1-1 2-1 1.3 0 2.4 1.1 2.4 2.4 0 .9-.5 1.7-1.2 2.1z" fill="#999"/>
        <path d="M272.4 389.7c0-1.3-1.1-2.4-2.4-2.4-1.4 0-2.5 1.1-2.5 2.4 0 1.4 1.1 2.5 2.5 2.5 1.3 0 2.4-1.1 2.4-2.5z" fill="none" stroke="#000"/>
        <path d="M284.8 389.7c0-1.3-1.2-2.4-2.5-2.4-1.4 0-2.5 1.1-2.5 2.4 0 1.4 1.1 2.5 2.5 2.5 1.3 0 2.5-1.1 2.5-2.5z" fill="#cc9"/>
        <path d="M282.2 390.5c0-.4-.3-.7-.7-.7-.3 0-.6.3-.6.7 0 .3.3.6.6.6.4 0 .7-.3.7-.6z" fill="#fff"/>
        <path d="M283.5 391.8c.3-.4.5-.9.5-1.4 0-1.4-1.1-2.5-2.5-2.5-.4 0-.8.1-1.2.4.5-.7 1.2-1 2-1 1.3 0 2.5 1.1 2.5 2.4 0 .9-.5 1.7-1.3 2.1z" fill="#999"/>
        <path d="M284.8 389.7c0-1.3-1.2-2.4-2.5-2.4-1.4 0-2.5 1.1-2.5 2.4 0 1.4 1.1 2.5 2.5 2.5 1.3 0 2.5-1.1 2.5-2.5z" fill="none" stroke="#000"/>
    </g>
</svg>
