<svg xmlns="http://www.w3.org/2000/svg" height="24" width="24">
    <g transform="matrix(1,0,0,-1,-264,408)" id="KDDI_D_">        <path d="M288 405.6h-8.4c-3.1 0-8.4-5.3-8.4-5.3s-2.9-1.3-4.2-2.3c-1.2-1-2.5-1.8-2.5-4 0-1.4 1.4-2.7 1.4-2.7H288" fill="#fff"/>
        <path d="M288 396.6h-14.3c-2.7 0-6.2-1.7-6.2-3 0-1.4 1.2-2.3 1.2-2.3H288" fill="#ccc"/>
        <path d="M288 391.3h-22.1l-.1-2.6-1.3-2.8H288" fill="#39c"/>
        <path d="M288 391.3h-19.2s.1-1.4-.1-2.6c-.2-1.3-1.1-2.8-1.1-2.8H288" fill="#36c"/>
        <path d="M287.6 400.2h-3.8c-.5 0-1-.5-1-1v-2.6c0-.6.5-1 1-1h3.8z" fill="#6cf"/>
        <path d="M274.7 403c-.9-.8-2.6-2.1-2.6-2.1h6.7s1-.1 1 1.5c0 1.7-2.7 2.2-2.7 2.2s-1.4-.7-2.4-1.6z" fill="#fff"/>
        <path d="M276.3 402.8c-.8-.7-2.4-2-2.4-2l5.1.1s.8-.1.8 1.5c0 1-1.6 1.7-1.6 1.7s-1.1-.5-1.9-1.3z" fill="#6cf"/>
        <path d="M285.6 399.9l-2.5-2.4" fill="none" stroke="#fff" stroke-width=".75"/>
        <path d="M278.1 397.1c0-1.5-2.2-2.2-2.6-2.2-.4 0-.7 1-.7 2.3 0 1.2.3 2.3.7 2.3.4 0 2.6-.9 2.6-2.4z" fill="#f60"/>
        <path d="M276 397.2c0-1-.3-1.8-.5-1.8-.3 0-.5.8-.5 1.8s.2 1.7.5 1.7c.2 0 .5-.7.5-1.7z" fill="red"/>
        <path d="M265.9 391.3s-.1-1.4-.4-2.6c-.2-1.3-1-2.8-1-2.8H288" fill="none" stroke="#000" stroke-linejoin="round"/>
        <path d="M273.3 396.6c.1-.2.1-.4.1-.6.2-2.7-.7-4.7-.7-4.7" fill="none" stroke="#000"/>
        <path d="M271.2 400.1c.6-.3 1.8-1.2 2.1-3.5" fill="none" stroke="#036"/>
        <path d="M280 402.4c0 1.7-3 2.4-3 2.4" fill="none" stroke="#699"/>
        <path d="M272.1 400.9h6.7s1.2-.1 1.2 1.5" fill="none" stroke="#369"/>
        <path d="M264.5 394c0-1.4 1.4-2.7 1.4-2.7H288" fill="none" stroke="#000"/>
        <path d="M279.6 405.6c-3.1 0-8.4-5.3-8.4-5.3s-2.9-1.2-4.2-2.1c-1.4-.9-2.5-2-2.5-4.2" fill="none" stroke="#333"/>
        <path d="M288 405.6h-8.4" fill="none" stroke="#000"/>
        <path d="M287.6 400.2h-3.8c-.5 0-1-.5-1-1v-2.6c0-.6.5-1 1-1h3.8z" fill="none" stroke="#369"/>
    </g>
</svg>
