<svg xmlns="http://www.w3.org/2000/svg" height="24" width="24">
    <g transform="matrix(1,0,0,-1,-264,408)" id="KDDI_D_">        <path d="M274.9 401.2c-.4.7-1.2.7-1.8 0-.7-.6-2.5-2.9-2.5-2.9l-2.6 1.9s0 .8-.3 1.3c-.2.2-.9.4-.9.4s-.3.5-.7.4c-.4 0-.6-1.4-.4-2.5.3-1 1.6-1.7 1.6-1.7s2.9-2.9 3.6-2.8c.6.1 3 2.9 3.6 3.6.7 1 1.2 1.2.4 2.3z" fill="#f90"/>
        <path d="M274.9 401.2c-.2.4-.7.6-1.1.5.2-.1.4-.2.5-.4.7-1.2.2-1.4-.5-2.3-.4-.6-2.5-3.1-3.4-3.6.2-.1.4-.1.5-.1.6.1 3 2.9 3.6 3.6.7 1 1.2 1.2.4 2.3zM266.1 402s.7-.2.9-.5c.3-.5.3-1.3.3-1.3l2.7-1.9s.5-.2.6 0l-2.6 1.9s0 .8-.3 1.3c-.2.2-.9.4-.9.4s-.3.5-.7.4c-.1 0-.1 0-.2-.1.2-.1.2-.2.2-.2z" fill="#c60"/>
        <path d="M277.6 402.5h-3.4c-.5 0-1 .4-1 1v3.5c0 .5.5 1 1 1h2.4c.5 0 1-.5 1-1z" fill="#f90"/>
        <path d="M273.3 405.8l-.9-1v-.6h.9z" fill="#f90"/>
        <path d="M273.3 405.5h1.5" fill="none" stroke="#c60" stroke-width=".8"/>
        <path d="M276.6 408h-2.4c-.5 0-1-.5-1-1v-.1h2.1v-1.1h1.1v-3.3h1.2v4.5c0 .5-.5 1-1 1z" fill="#036"/>
        <path d="M273.2 407v-.1h1l.1.6.4.5h-.5c-.5 0-1-.5-1-1z" fill="#666"/>
        <path d="M276.9 407.9v-5.4h.7v4.5c0 .4-.3.8-.7.9z"/>
        <path d="M276 402.6c-1 0-1.7-.3-2.2-.6-.4-.3-.5-1.2-.5-2.7v-4.4h5.3v5.7c0 1.7-.6 2-2.6 2z" fill="#090"/>
        <path d="M276 402.6c-.3 0-.5 0-.7-.1 1.1-.2 1.5-.6 1.5-1.9v-5.7h1.8v5.7c0 1.7-.6 2-2.6 2z" fill="#063"/>
        <path d="M276.3 393c.5.5 1.6-.2 2.1-1.1.5-.7 1.9-2.4 1.9-2.4s2.1 1.6 2.5 2c.4.5.9.5 1.7-.5.5-.7 0-1.3-.4-1.7-.5-.5-3-2.9-4.1-2.9-1.1 0-3.9 3.4-4.4 4.5-.4 1 0 1.5.7 2.1z" fill="#f90"/>
        <path d="M284.5 391c-.7.8-1.1 1-1.5.7.2-.1.4-.3.6-.6.6-.6.1-1.3-.3-1.7-.5-.4-2.7-2.4-3.9-2.8.3-.1.4-.2.6-.2 1.1 0 3.6 2.4 4.1 2.9.4.4.9 1 .4 1.7zM277.6 392.1c.4-.8 1.8-2.5 1.8-2.5s.6-.3.9-.1c-.5.6-1.6 1.9-1.9 2.4-.4.8-1.4 1.4-1.9 1.2.4-.2.8-.6 1.1-1z" fill="#c60"/>
        <path d="M282.6 391.7l1.5.8.6-.1s2.3-3.9 2.7-4.5c.3-.6.2-.8-.4-1.2-.6-.3-1.2.7-1.7 1.3-.5.6-1.1 1.1-1.1 1.1z" fill="#00c"/>
        <path d="M285.8 389.5l1.5-2.6c.3.3.4.5.1 1-.4.6-2.7 4.5-2.7 4.5l-.6.1-.8-.4 1.3-1.9z" fill="#006"/>
        <path d="M272.1 384s1.1.3 1.1 1.1v4.8s2.6 1.3 3.4 1.5c1 .4 1.5 1.2 1.2 2-.2.7-1.3 1.2-2.2 1-.8-.2-3.8-1.6-4.4-2.3-.7-.7-.8-1.5-.8-2.2 0-.8.1-4 .1-4" fill="#f90"/>
        <path d="M277.8 393.4c-.1.4-.6.8-1.2.9.2-.1.4-.3.5-.5.2-.8-.2-1.7-1.2-2-.8-.2-3.5-1.5-3.5-1.5v-4.8c0-.6-.5-.9-.8-1l.5-.5s1.1.3 1.1 1.1v4.8s2.6 1.3 3.4 1.5c1 .4 1.5 1.2 1.2 2z" fill="#c60"/>
        <path d="M273.2 386.2v-1.8l-.4-.4h-5.3c-.7 0-.8.2-.8.9s1.2.7 2 .8c.7.1 1.5.5 1.5.5z" fill="#00c"/>
        <path d="M271.4 386.2v-.9l-1.1-.5-.2-.8h2.7l.4.4v1.8z" fill="#006"/>
        <path d="M276.7 399.6c-.5.9-.1 1.6.6 2 .8.5 1.5.5 2.9.4 1.4-.1 3.3-.4 3.6-1.1.5-1.2-.4-4.5-.4-4.5s.1-1.1-.1-1.7c-.2-.6-1.5-.9-2-.6-.6.3-1.1 1.1-.8 1.9.2.6 1 1 1 1l.4 2.9s-1.5-.5-2.3-.7c-.7-.1-2.5-.4-2.9.4z" fill="#f90"/>
        <path d="M279.3 399.7c-.6-.2-2.1-.4-2.7.1 0 0 0-.1.1-.2.4-.8 2.2-.5 2.9-.4.6.2 1.8.5 2.3.7l-.3.4s-1.4-.5-2.3-.6zM283.4 396.4s.9 3.3.4 4.5c0 .1-.1.2-.2.2.4-1.2-.5-4.2-.5-4.2s.1-1.2-.1-1.8c-.2-.6-1.5-.9-2-.6-.2.1-.3.3-.5.4.2-.3.5-.6.8-.8.5-.3 1.8 0 2 .6.2.6.1 1.7.1 1.7z" fill="#c60"/>
        <path d="M275.1 390.6s0 1.2-.7 2.2c-.4.4-1.1.7-1.1.7v1.4h5.3V392c0-.7-3.5-1.4-3.5-1.4z" fill="#00c"/>
        <path d="M275.1 390.6s0 1.2-.7 2.2l4.2 1.6V392c0-.7-3.5-1.4-3.5-1.4z" fill="#006"/>
    </g>
</svg>
