<svg xmlns="http://www.w3.org/2000/svg" height="24" width="24">
    <g transform="matrix(1,0,0,-1,-264,408)" id="KDDI_D_">        <path d="M287.5 396c0-6.4-5.2-11.5-11.5-11.5s-11.5 5.1-11.5 11.5c0 6.3 5.2 11.4 11.5 11.4s11.5-5.1 11.5-11.4z" fill="#fff"/>
        <path d="M279.3 407c2.8-2.1 4.7-5.5 4.7-9.3 0-6.3-5.2-11.4-11.5-11.4-1.1 0-2.2.1-3.3.4 1.9-1.4 4.3-2.2 6.8-2.2 6.3 0 11.5 5.1 11.5 11.5 0 5.2-3.5 9.6-8.2 11z" fill="#ccc"/>
        <path d="M280.7 406.4c3.3-2 5.5-5.6 5.5-9.7 0-6.4-5.2-11.5-11.5-11.5-1.7 0-3.2.3-4.6 1 1.7-1.1 3.7-1.7 5.9-1.7 6.3 0 11.5 5.1 11.5 11.5 0 4.6-2.8 8.7-6.8 10.4z" fill="#999"/>
        <path d="M276 403.8l-3.9 1.4.7 1.6 3.2.8 3.3-.8.7-1.6zM268.7 398.5l-2.6-3.4-1.3 1.3.3 3.3 1.7 2.8 1.8.2zM271.5 389.9l2.4-3.5-1.6-.9-3 1.3-2.2 2.5.3 1.7zM280.6 389.9l4 1.1.4-1.7-2.2-2.5-3.1-1.3-1.5.9zM283.4 398.5l.1 4.2 1.8-.2 1.7-2.8.3-3.4-1.4-1.2zM273.5 391.8l-1.6 4.9 4.1 3.1 4.2-3.1-1.6-4.9z"/>
        <path d="M268.6 402.7c-.8-1.1-1.5-2.4-1.9-4-.4-1.2-.5-2.4-.5-3.5l2.5 3.3zM271.5 389.9l-4.1 1.1v-.4c.5-.7 1.2-1.3 2-1.5.8-.3 1.7-.2 2.5.2zM276.2 403.9c-.5.8-1.2 1.4-2.1 1.6-.6.2-1.3.2-1.9 0l-.1-.3 3.9-1.4zM276 399.8l-4.1-3.1 1.6-4.9h1.4c.8 1.1 1.5 2.5 2 4 .2 1.1.4 2.1.4 3z" fill="#333"/>
        <path d="M287.5 396c0-6.4-5.2-11.5-11.5-11.5s-11.5 5.1-11.5 11.5c0 6.3 5.2 11.4 11.5 11.4s11.5-5.1 11.5-11.4z" fill="none" stroke="#000"/>
    </g>
</svg>
