<svg xmlns="http://www.w3.org/2000/svg" height="24" width="24">
    <g transform="matrix(1,0,0,-1,-264,408)" id="KDDI_D_">        <path d="M285.7 389c0-2.5-2.1-4.5-4.6-4.5-2.5 0-4.5 2-4.5 4.5s2 4.5 4.5 4.5 4.6-2 4.6-4.5z" fill="#fc0"/>
        <path d="M277.7 388.7c.2 2 1.9 3.5 3.8 3.7.8.1 1.3 1-.2 1-2.5 0-4.5-2.1-4.5-4.6 0-1.5.8-1.1.9-.1z" fill="#ff3"/>
        <path d="M282.9 393.2c.9-.8 1.6-2.1 1.6-3.4 0-2.5-2.1-4.6-4.6-4.6-.6 0-1.2.1-1.7.4.8-.7 1.8-1.1 2.9-1.1 2.5 0 4.6 2 4.6 4.5 0 1.9-1.2 3.5-2.8 4.2z" fill="#f90"/>
        <path d="M271.7 389.3h-1.1v5.1h1.1z" fill="#c63"/>
        <path d="M273.8 389.3h-1v5.1h1z" fill="#900"/>
        <path d="M272.8 389.3h-1.1v5.1h1.1z" fill="#c00"/>
        <path d="M271.7 384h-1.1v5.5h1.1z" fill="#999"/>
        <path d="M273.8 384h-1v5.5h1z" fill="#333"/>
        <path d="M272.8 384h-1.1v5.5h1.1z" fill="#666"/>
        <path d="M277.7 401c0-3.7-2.4-6.6-5.5-6.6s-5.5 2.9-5.5 6.6c0 3.6 2.4 6.5 5.5 6.5s5.5-2.9 5.5-6.5z" fill="#fff"/>
        <path d="M272.2 406.1h-1.5M269.3 406.1h1.4M273.7 406.1h-1.5M268.9 406.1h.4M275.2 406.1h-1.5M275.7 406.1h-.5M275.2 404.6h-1.5M273.7 404.6h-1.5M267.8 404.6h-.1M270.7 404.6h1.5M276.8 404.6h-.2M269.3 404.6h1.4M276.6 404.6h-1.4M269.3 404.6h-1.5M267.8 403.1h-.7M270.7 403.1h1.5M270.7 403.1h-1.4M276.6 403.1h-1.4M272.2 403.1h1.5M269.3 403.1h-1.5M277.4 403.1h-.8M275.2 403.1h-1.5M269.3 401.6h-1.5M266.8 401.6h1M277.7 401.6h-1.1M272.2 401.6h1.5M272.2 401.6h-1.5M276.6 401.6h-1.4M273.7 401.6h1.5M270.7 401.6h-1.4M277.7 400.1h-1.1M266.9 400.1h.9M275.2 400.1h1.4M272.2 400.1h1.5M273.7 400.1h1.5M272.2 400.1h-1.5M269.3 400.1h1.4M267.8 400.1h1.5M269.3 398.6h1.4M272.2 398.6h-1.5M267.8 398.6h1.5M275.2 398.6h1.4M273.7 398.6h-1.5M267.2 398.6h.6M273.7 398.6h1.5M277.4 398.6h-.8M267.8 397.1h.1M276.7 397.1h-.1M275.2 397.1h1.4M275.2 397.1h-1.5M267.9 397.1h1.4M272.2 397.1h-1.5M273.7 397.1h-1.5M269.3 397.1h1.4M269.1 395.6h.2M269.3 395.6h1.4M273.7 395.6h-1.5M270.7 395.6h1.5M275.4 395.6h-.2M275.2 395.6h-1.5M267.8 400.1v-1.5M267.8 397.1v.2M267.8 401.6v-1.5M267.8 404.6v-1.5M267.8 404.6v.1M267.8 403.1v-1.5M267.8 397.3v1.3M269.3 406.1v-1.5M269.3 398.6v-1.5M269.3 403.1v-1.5M269.3 406.4v-.3M269.3 398.6v1.5M269.3 395.5v.1M269.3 401.6v-1.5M269.3 404.6v-1.5M269.3 397.1v-1.5M270.7 394.7v.9M270.7 398.6v1.5M270.7 400.1v1.5M270.7 395.6v1.5M270.7 403.1v-1.5M270.7 397.1v1.5M270.7 404.6v-1.5M270.7 406.1v-1.5M270.7 407.3v-1.2M272.2 400.1v1.5M272.2 394.3v.1M272.2 398.6v1.5M272.2 407.5v-1.4M272.2 403.1v-1.5M272.2 404.6v-1.5M272.2 406.1v-1.5M272.2 394.4v1.2M272.2 397.1v1.5M272.2 395.6v1.5M273.7 400.1v1.5M273.7 395.6v-1M273.7 407.3v-1.2M273.7 397.1v1.5M273.7 403.1v-1.5M273.7 406.1v-1.5M273.7 403.1v1.5M273.7 395.6v1.5M273.7 398.6v1.5M275.2 406.5v-.4M275.2 395.4v.2M275.2 404.6v-1.5M275.2 397.1v-1.5M275.2 401.6v1.5M275.2 397.1v1.5M275.2 398.6v1.5M275.2 400.1v1.5M275.2 404.6v1.5M276.6 398.6v1.5M276.6 401.6v1.5M276.6 397v.1M276.6 403.1v1.5M276.6 400.1v1.5M276.6 398.6v-1.5M276.6 404.9v-.3M276.8 404.6c.3-.4.5-1 .6-1.5M277.7 401.6v-.6-.9M268.9 406.1c-.4-.4-.8-.9-1.1-1.4M268.9 406.1c.1.1.2.2.4.3M277.4 398.6c-.2-.5-.4-1-.7-1.5M266.9 400.1c-.1.3-.1.6-.1.9v.6M270.7 407.3c-.5-.2-1-.5-1.4-.9M267.9 397.1c.3-.6.7-1.1 1.2-1.5M269.3 395.5c.4-.4.9-.6 1.4-.8M272.2 394.4h.1c.5 0 .9.1 1.4.2M270.7 394.7c.5-.2 1-.3 1.5-.3M273.7 394.6c.5.2 1 .5 1.5.8M275.4 395.6l-.2-.2M269.1 395.6c.1 0 .1-.1.2-.1M267.8 404.7l-.1-.1M267.1 403.1l-.3-1.5M267.1 403.1c.2.5.4 1.1.6 1.5M272.2 407.5c-.5 0-1-.1-1.5-.2M266.9 400.1c0-.5.1-1 .3-1.5M267.9 397.1c-.1.1-.1.1-.1.2M275.7 406.1c-.2.2-.4.3-.5.4M276.6 404.9c-.2.4-.6.9-.9 1.2M275.2 406.5c-.5.4-1 .6-1.5.8M273.7 407.3c-.5.1-.9.2-1.4.2h-.1M276.8 404.6c0 .1-.1.2-.2.3M267.2 398.6c.1-.5.3-.9.6-1.3M276.6 397l.1.1M275.4 395.6c.5.4.9.9 1.2 1.4M277.4 398.6l.3 1.5M277.7 401.6c0 .5-.1 1-.3 1.5" fill="none" stroke="#999" stroke-width=".5"/>
        <path d="M278.1 385.6c.9.9 1.5 2.1 1.5 3.4 0 1.3-.6 2.5-1.5 3.3M284.2 385.6c-.9.9-1.5 2.1-1.5 3.4 0 1.3.6 2.5 1.5 3.3" fill="none" stroke="#fff"/>
        <path d="M285.2 390.9c.3-.6.5-1.2.5-1.9 0-2.5-2.1-4.5-4.6-4.5-.6 0-1.2.1-1.7.3" fill="none" stroke="#c60" stroke-linecap="round"/>
        <path d="M279.4 384.8c-1.7.7-2.8 2.3-2.8 4.2" fill="none" stroke="#f93" stroke-linecap="round"/>
        <path d="M277.7 401c0-3.7-2.4-6.6-5.5-6.6s-5.5 2.9-5.5 6.6c0 3.6 2.4 6.5 5.5 6.5s5.5-2.9 5.5-6.5z" fill="none" stroke="#c00"/>
        <path d="M281.1 393.5c1.9 0 3.4-1 4.1-2.6" fill="none" stroke="#f93" stroke-linecap="round"/>
        <path d="M276.6 389c0 2.5 2 4.5 4.5 4.5" fill="none" stroke="#fc0" stroke-linecap="round"/>
    </g>
</svg>
