<svg xmlns="http://www.w3.org/2000/svg" height="24" width="24">
    <g transform="matrix(1,0,0,-1,-264,408)" id="KDDI_D_">        <path d="M288 384h-24v24h24z" fill="#6cf"/>
        <path d="M264 384v16.8c.7 0 1.2.2 1.6.6.4.4 1.5.8 2.2.8.8 0 2.3-1 3.2-1.4.9-.4 2-1.7 2.5-2.3.5-.6 2.1-2 3.4-2.2 1.3-.3 3.6-.1 5.4-.7 1.7-.7 3.6-2.7 4.2-3.1.4-.3 1-.3 1.5-.3V384z" fill="#fff"/>
        <path d="M282.3 395.6c-.4.1-.9.2-1.3.3.3-.8.7-1.6.8-1.8.1-.3 1.2-1.3 1.1-1.7-.1-.3 0-2.2.9-2.5.8-.3 2 .8 2.8.5.4-.1.9-.1 1.4-.1v1.9c-.5 0-1.1 0-1.5.3-.6.4-2.5 2.4-4.2 3.1zM265.3 397.2c-.3-.1-.9-.2-1.3-.2v-4.7c.3.1.6.1.7.2.6.2.3 1.3.8 1.6.6.3.3 1.2.6 1.7.3.4 1.7.7 1.6 1.1-.1.5-1.7.4-2.4.3z" fill="#9ff"/>
        <path d="M268.1 388.5c-.5.2.4-1.7-.2-1.6-.5 0-2.9.5-3.9.6v-1.7s2.3.1 3.3-.5.2-1.3.2-1.3h12.4c-3 1.2-11.4 4.3-11.8 4.5z" fill="#6ff"/>
        <path d="M266.3 389.4c-.3.1 0-.8 0-1.3 1.1-.5 4.7-2.2 5.6-2.9.7-.6 1.5-.9 2.4-1.2h5.6c-3 1.2-13.2 5.2-13.6 5.4z" fill="#69c"/>
        <path d="M264 400.8c.7 0 1.2.2 1.6.6.4.4 1.5.8 2.2.8.8 0 2.3-1 3.2-1.4.9-.4 2-1.7 2.5-2.3.5-.6 2.1-2 3.4-2.2 1.3-.3 3.6-.1 5.4-.7 1.7-.7 3.6-2.7 4.2-3.1.4-.3 1-.3 1.5-.3" fill="none" stroke="#09f"/>
        <path d="M266.6 390.7c1.1 0 4.8-1.3 6.7-1.8 1.9-.4 7.4-2.1 8.8-2.6 1.3-.4 3-1 3-1.7 0-.6-1.7-.6-3.2-.6-1.5 0-4.7.1-5.9.6-1.2.5-7.9 3.3-8.9 3.7-1 .5-3.1 1.2-3.1 1.8 0 .5.9.6 2.6.6z" fill="#666"/>
        <path d="M276.1 385c-1.2.5-7.9 3.3-8.9 3.8-1 .4-2.8 1-3 1.6-.1-.1-.2-.2-.2-.3 0-.6 2.1-1.3 3.1-1.8 1-.4 7.7-3.2 8.9-3.7 1.2-.5 4.4-.6 5.9-.6s3.2 0 3.2.6v.2c-.5-.4-1.9-.4-3.1-.4-1.5 0-4.7.1-5.9.6z" fill="#006"/>
        <path d="M276 397.3s-4.1-2.2-4.6-2.9c-.6-.6-2.4-4.9-2.4-4.9l1.6-.6 1.1.3s1.4 2.3 1.9 2.9c.6.7 2.4 2.1 2.4 2.1s-.6-2.1-.9-2.8c-.2-.7-.2-3.9-.2-3.9l1.1-.2 1.1-.2s.2 2.3.6 3.7c.3 1.3.9 2.4 1.2 2.7 1 .9 1.3 2.9 1.3 2.9s-1.3.9-2 1c-.8 0-2.2-.1-2.2-.1z" fill="#f60"/>
        <path d="M278.7 396.9s.1-1.7-.5-3.1c-.2-.4-.9-1.6-1.3-2.9-.3-1.4-.6-3.4-.6-3.6l.8-.2s.2 2.3.6 3.7c.3 1.3.9 2.4 1.2 2.7 1 .9 1.3 2.9 1.3 2.9zM272.9 392.4c-.6-.6-2-3.1-2-3.1l-.7-.2.4-.2 1.1.3s1.4 2.3 1.9 2.9c.3.3 1.9 1.7 2.4 2.1.2.5-.7.1-.7.1s-1.9-1.2-2.4-1.9z" fill="#930"/>
        <path d="M278.3 403.6c-1.1 0-2.8 0-4-.6-1-.4-2-1.4-2.7-2.2-.7-.7-2.8-3.5-2.8-3.5s.4-.4 1-.5c.5-.1 1.2-.2 1.2-.2s1.9 2.2 2.7 2.8c.9.7 2.3 1.2 2.3 1.2l.3-1.6-.3-1.7s1.1-.6 2-.6c.9 0 2.2-.3 2.2-.3l1.4 4.5s1.6-1.1 1.9-1.8c.6-1.3.1-4.2.1-4.2s.3-.4 1.2-.4c.9 0 1.1.4 1.1.4s.1 4-.4 5.4c-.5 1.2-1.6 2.4-3.2 3-1 .4-2.9.4-4 .3z" fill="#039"/>
        <path d="M273 399.7c-1.4-1.1-2.3-2.6-2.4-3 .2-.1.4-.1.4-.1s1.9 2.2 2.7 2.8c.6.5 1.8 1 2.3 1.2l-.4.7s-1.7-.9-2.6-1.6zM279.5 396.5c.5-.1.7-.1.7-.1l1.4 4.5c-.3.1-.8 0-.8 0z"/>
        <path d="M285.5 400.3c-.5 1.2-1.6 2.4-3.2 3-.7.3-2 .4-3.1.4 1-.1 2.1-.1 2.7-.4 1.6-.6 2.5-1.9 3-3.2.5-1.3.3-4.8.3-4.8s.1-.7-.5-.8h.1c.9 0 1.1.4 1.1.4s.1 4-.4 5.4z"/>
        <path d="M279.3 404.8c0-.6-.5-1.1-1.2-1.1-.6 0-1.2.5-1.2 1.1v1.9c0 .6.6 1.1 1.2 1.1.7 0 1.2-.5 1.2-1.1z" fill="#633"/>
        <path d="M277.5 406h1.6" fill="none" stroke="#000" stroke-width=".5"/>
        <path d="M278.1 407.8c-.6 0-1.2-.5-1.2-1.1h2.4c0 .6-.5 1.1-1.2 1.1z"/>
        <path d="M276.8 403.5l.2.6h2.2l.1-.7z" fill="#039"/>
        <path d="M278.4 406v-1.1" fill="none" stroke="#000" stroke-width=".5"/>
    </g>
</svg>
