<svg xmlns="http://www.w3.org/2000/svg" height="24" width="24">
    <g transform="matrix(1,0,0,-1,-264,408)" id="KDDI_D_">        <path d="M278 400c-.1 1-.1 2.2-.1 3.3-1.2-.2-2.4-.5-3.5-.7.2-1.1.4-2.2.5-3.1 1 .2 2.2.3 3.1.5zM283.1 394c1.3 0 2.8-.1 3.9-.1-.2.9-.3 1.9-.5 3-1 .1-2.6.2-4.1.2.2-1.1.4-2.2.7-3.1zM275.6 396.3c.2-1 .4-2.2.7-3.3.9.2 1.9.4 2.7.6-.2 1.1-.4 2.2-.6 3.2-.9-.2-1.8-.4-2.8-.5zM282 403.8c0-1.2 0-2.5.1-3.7 1.4-.1 3-.2 4.2-.2v.3c-.1 1.2-.1 2.3-.1 3.3-1.1.1-2.8.3-4.2.3zM278 400c.1-.5.1-1 .2-1.4 0-.6.1-1.2.2-1.8.7.1 1.3.2 1.9.3.5 0 1.3.1 2.1 0-.1.5-.1 1-.2 1.5 0 .5-.1 1-.1 1.5h-2.2c-.5 0-1.1 0-1.9-.1z" fill="#fff"/>
        <path d="M275.6 396.3c-.2.8-.4 1.5-.5 1.9 0 .3-.1.8-.2 1.3-1-.1-1.9-.2-2.6-.3h-1.1c.2-1 .4-1.9.5-2.4.1-.3.2-.6.3-1 .2 0 .4.1.6.1 1 .1 2 .2 3 .4zM274.1 392.8c-.4-.1-.8-.1-1.2-.1.4-1.2.7-2.3 1-3.1.9-.1 1.7-.1 2.4 0 .2.1.4.1.7.2-.2.8-.5 2-.7 3.2-.7-.1-1.5-.2-2.2-.2zM280.8 394c-.5-.1-1.1-.2-1.8-.4.2-1.2.4-2.3.6-3.1.9.3 1.9.5 2.8.6.4 0 .9 0 1.4.1-.2.6-.5 1.6-.7 2.8h-2.3z" fill="#fff"/>
        <path d="M272 395.8h-3.2l1.1-3c1 0 2-.1 3-.1-.3 1.1-.7 2.2-.9 3.1z" fill="#ccc"/>
        <path d="M277.9 403.3c1.1.2 2.1.4 3.1.4.3 0 .6.1 1 .1-.1 1.5-.1 2.9 0 3.6h-2.6c-.5 0-1-.1-1.5-.2 0-.9-.1-2.4 0-3.9zM272.8 402.4c.5 0 1.1.1 1.6.2-.2 1.3-.3 2.6-.5 3.6-1-.3-1.9-.5-2.4-.6-.4-.1-1-.2-1.8-.2.3-.9.5-2.1.8-3.2.8 0 1.6.1 2.3.2z" fill="#fff"/>
        <path d="M270.5 402.2c-1.5-.1-3.1-.2-4.1-.2l1.2-3.1c1.1.1 2.5.2 3.6.3-.3.9-.5 1.9-.7 3zM285.1 393.9h1.9c-.2.9-.3 1.9-.5 3-.5 0-1.3.1-2.1.1.2-1.1.5-2.1.7-3.1zM286.3 400.2c-.1 1.2-.1 2.3-.1 3.3-.6.1-1.5.1-2.4.2 0-.7-.1-1.3 0-1.7 0-.6 0-1.3.1-2 .9-.1 1.7-.1 2.4-.1v.3z" fill="#ccc"/>
        <path d="M280.3 397.1c-.6-.1-1.2-.2-1.9-.3.2-1 .4-2.1.6-3.2.7.2 1.3.3 1.8.4h2.3c-.3.9-.5 2-.7 3.1-.8.1-1.6 0-2.1 0z"/>
        <path d="M282.2 398.6c.1-.5.1-1 .2-1.5 1.5 0 3.1-.1 4.1-.2-.1.9-.2 2-.2 3-1.2 0-2.8.1-4.2.2 0-.5.1-1 .1-1.5zM278 400c-.9-.2-2.1-.3-3.1-.5.1-.5.2-1 .2-1.3.1-.4.3-1.1.5-1.9 1 .1 1.9.3 2.8.5-.1.6-.2 1.2-.2 1.8-.1.4-.1.9-.2 1.4zM279.9 400.1h2.2c-.1 1.2-.1 2.5-.1 3.7-.4 0-.7-.1-1-.1-1 0-2-.2-3.1-.4 0-1.1 0-2.3.1-3.3.8.1 1.4.1 1.9.1zM282 403.8c1.4 0 3.1-.2 4.2-.3 0 2.4.2 3.8.2 3.8s-2.3.1-4.4.1c-.1-.7-.1-2.1 0-3.6zM274.9 399.5c-.1.9-.3 2-.5 3.1-.5-.1-1.1-.2-1.6-.2-.7-.1-1.5-.2-2.3-.2.2-1.1.4-2.1.7-3h1.1c.7.1 1.6.2 2.6.3zM272.6 395.9c-.2 0-.4-.1-.6-.1.2-.9.6-2 .9-3.1.4 0 .8 0 1.2.1.7 0 1.5.1 2.2.2-.3 1.1-.5 2.3-.7 3.3-1-.2-2-.3-3-.4zM276.3 393c.2-1.2.5-2.4.7-3.2.8.2 1.7.4 2.6.7-.2.8-.4 1.9-.6 3.1-.8-.2-1.8-.4-2.7-.6z"/>
        <path d="M269.9 392.8l1.2-2.9s1.4-.2 2.8-.3c-.3.8-.6 1.9-1 3.1-1 0-2 .1-3 .1zM283.1 394c.2-1.2.5-2.2.7-2.8h3.7s-.3 1.1-.5 2.7c-1.1 0-2.6.1-3.9.1zM277.9 403.3c-.1 1.5 0 3 0 3.9-1.3-.2-2.7-.6-4-1 .2-1 .3-2.3.5-3.6 1.1.2 2.3.5 3.5.7zM272 395.8c-.1.4-.2.7-.3 1-.1.5-.3 1.4-.5 2.4-1.1-.1-2.5-.2-3.6-.3l1.2-3.1h3.2zM269.7 405.4c-1.9-.1-4.6-.2-4.6-.2l1.3-3.2c1 0 2.6.1 4.1.2-.3 1.1-.5 2.3-.8 3.2z"/>
        <path d="M279.3 390.4c.1 0 .2.1.3.1-.2.8-.4 1.9-.6 3.1-.3 0-.6-.1-.9-.2.5-1.1.9-2.2 1.2-3zM281.8 394c-.3 1-.5 2.1-.8 3.1h-.7c-.6-.1-1.2-.2-1.9-.3.2-1 .4-2.1.6-3.2.7.2 1.3.3 1.8.4h1zM278.2 398.6c-.1.4-.1.9-.2 1.4-.5-.1-1.1-.2-1.7-.3.1-.4.1-.7.2-1 .1-.6.3-1.4.6-2.1.4 0 .9.1 1.3.2-.1.6-.2 1.2-.2 1.8zM279.8 402.1c-.1.4-.2.9-.3 1.5-.5-.1-1.1-.2-1.6-.3 0-1.1 0-2.3.1-3.3.8.1 1.4.1 1.9.1h.3c-.2.8-.3 1.5-.4 2z" fill="#333"/>
        <path d="M275.3 406.6c.1-1 .3-2.3.5-3.7.7.1 1.4.3 2.1.4-.1 1.5 0 3 0 3.9-.8-.1-1.7-.4-2.6-.6z" fill="#333"/>
        <path d="M265.1 405.2s5 .1 6.4.4c1.4.2 5.6 1.7 7.9 1.8 2.2.1 7-.1 7-.1s-.3-2.8-.1-7.1c.1-4.3 1.2-9 1.2-9s-3.2 0-5.1-.1c-2-.2-4.2-1.1-6.1-1.5-1.8-.3-5.2.3-5.2.3z" fill="none" stroke="#666"/>
        <path d="M273.1 384.6l-8 20.6" fill="none" stroke="#333" stroke-linecap="round"/>
        <path d="M272.5 384.5l-8 20.6" fill="none" stroke="#666" stroke-linecap="round"/>
    </g>
</svg>
