<svg xmlns="http://www.w3.org/2000/svg" height="24" width="24">
    <g transform="matrix(1,0,0,-1,-264,408)" id="KDDI_D_">        <path d="M276 396v7.9M276 396l-5.6 5.6M276 396h-7.9M276 396l-5.6-5.6M276 396v-7.9M276 396l5.6-5.6M276 396h7.9M276 396l5.6 5.6" fill="none" stroke="#c00"/>
        <path d="M271.8 389.1l-4.7-4.7h-1.3M280.3 389.1l4.6-4.7h1.3" fill="none" stroke="#333"/>
        <path d="M278.6 396c0-1.5-1.1-2.6-2.6-2.6s-2.6 1.1-2.6 2.6 1.1 2.6 2.6 2.6 2.6-1.1 2.6-2.6z" fill="#f60"/>
        <path d="M276.4 398.2c.7 0 1 .1.4.3-.3.1-.5.1-.8.1-1.5 0-2.6-1.1-2.6-2.6 0-.3 0-.5.1-.8.1-.5.3-.2.3.3 0 1.5 1.2 2.7 2.6 2.7z" fill="#f90"/>
        <path d="M278.2 397.4c-.2.3-.3-.1-.3-.6 0-1.4-1.2-2.6-2.6-2.6-.6 0-1.1-.2-.7-.4.4-.3.9-.4 1.4-.4 1.5 0 2.6 1.1 2.6 2.6 0 .5-.1 1-.4 1.4z" fill="#c30"/>
        <path d="M278.5 396.9v-.4c0-1.6-1.3-2.9-2.9-2.9-.3 0-.5 0-.8.1.4-.2.8-.3 1.2-.3 1.5 0 2.6 1.1 2.6 2.6 0 .3 0 .6-.1.9z" fill="#900"/>
        <path d="M283.8 396c0-4.3-3.5-7.8-7.8-7.8s-7.8 3.5-7.8 7.8 3.5 7.8 7.8 7.8 7.8-3.5 7.8-7.8z" fill="none" stroke="#fc0"/>
        <path d="M277.4 396c0-.8-.6-1.4-1.4-1.4-.8 0-1.4.6-1.4 1.4 0 .8.6 1.4 1.4 1.4.8 0 1.4-.6 1.4-1.4z" fill="#fc0"/>
        <path d="M277.4 402.8H276M269.2 397.4V396M274.6 389.2h1.4M282.8 394.6v1.4" fill="none" stroke="#c00"/>
        <path d="M275.9 396.5c0-.3-.2-.5-.4-.5-.3 0-.5.2-.5.5 0 .2.2.4.5.4.2 0 .4-.2.4-.4z" fill="#ff6"/>
        <path d="M278.8 387.3c0-1.8-1.3-3.3-2.8-3.3-1.5 0-2.8 1.5-2.8 3.3 0 1.8 1.3 2.6 2.8 2.6 1.5 0 2.8-.8 2.8-2.6z" fill="#009"/>
        <path d="M276.9 390.3c.8-.6 1.3-1.6 1.3-2.7 0-1.8-1.3-3.3-2.8-3.3-.3 0-.6.1-.9.2.4-.3.9-.5 1.5-.5 1.5 0 2.8 1.5 2.8 3.3 0 1.4-.8 2.6-1.9 3z" fill="#006"/>
        <path d="M276 390.5c-1.5 0-2.8-1.4-2.8-3.2 0-.1.1-.1.1-.1h5.4c.1 0 .1 0 .1.1 0 1.8-1.3 3.2-2.8 3.2z" fill="red"/>
        <path d="M277.5 387.3c0 .7-.7 1-1.6 1-.9 0-1.6-.3-1.6-1v-.1h3.2v.1z" fill="#fff"/>
        <path d="M278.8 404.7c0-1.8-1.3-3.2-2.8-3.2-1.5 0-2.8 1.4-2.8 3.2 0 1.8 1.3 2.7 2.8 2.7 1.5 0 2.8-.9 2.8-2.7z" fill="#009"/>
        <path d="M276.9 407.8c.8-.6 1.3-1.6 1.3-2.8 0-1.8-1.3-3.2-2.8-3.2-.3 0-.6.1-.9.2.4-.3.9-.5 1.5-.5 1.5 0 2.8 1.4 2.8 3.2 0 1.4-.8 2.6-1.9 3.1z" fill="#006"/>
        <path d="M276 408c-1.5 0-2.8-1.5-2.8-3.3h5.6c0 1.8-1.3 3.3-2.8 3.3z" fill="#f0c"/>
        <path d="M277.5 404.8c0 .7-.7.9-1.6.9-.9 0-1.6-.2-1.6-.9v-.1h3.2v.1z" fill="#fff"/>
        <path d="M288 396.8c0-1.8-1.2-3.2-2.7-3.2-1.6 0-2.8 1.4-2.8 3.2 0 1.8 1.2 2.7 2.8 2.7 1.5 0 2.7-.9 2.7-2.7z" fill="#009"/>
        <path d="M286.2 399.9c.7-.6 1.2-1.6 1.2-2.7 0-1.8-1.2-3.3-2.7-3.3-.4 0-.7.1-1 .2.5-.3 1-.5 1.6-.5 1.5 0 2.7 1.4 2.7 3.2 0 1.4-.8 2.6-1.8 3.1z" fill="#006"/>
        <path d="M285.3 400.1c-1.6 0-2.8-1.5-2.8-3.3h5.5c0 1.8-1.2 3.3-2.7 3.3z" fill="#06f"/>
        <path d="M286.8 396.9c0 .7-.8 1-1.6 1-.9 0-1.6-.3-1.6-1v-.1h3.1l.1.1z" fill="#fff"/>
        <path d="M269.6 396.8c0-1.8-1.2-3.2-2.8-3.2-1.5 0-2.7 1.4-2.7 3.2 0 1.8 1.2 2.7 2.7 2.7 1.6 0 2.8-.9 2.8-2.7z" fill="#009"/>
        <path d="M267.8 399.9c.7-.6 1.2-1.6 1.2-2.7 0-1.8-1.2-3.3-2.7-3.3-.4 0-.7.1-1 .2.5-.3 1-.5 1.5-.5 1.6 0 2.8 1.4 2.8 3.2 0 1.4-.8 2.6-1.8 3.1z" fill="#006"/>
        <path d="M266.8 400.1c-1.5 0-2.7-1.5-2.7-3.3h5.5c0 1.8-1.2 3.3-2.8 3.3z" fill="#0f0"/>
        <path d="M268.3 396.9c0 .7-.7 1-1.5 1-.9 0-1.6-.3-1.6-1v-.1h3.1v.1z" fill="#fff"/>
    </g>
</svg>
