<svg xmlns="http://www.w3.org/2000/svg" height="24" width="24">
    <g transform="matrix(1,0,0,-1,-264,408)" id="KDDI_D_">        <path d="M285.5 398.1c.4-.8.7-1.8.7-3 0-5.3-4.6-6.9-10.2-6.9s-10.2 2-10.2 6.9c0 1.1.2 2 .6 2.8-1.5-1.3-2.4-3.2-2.4-5.6 0-5.8 5.4-8.3 12-8.3s12 2 12 8.3c0 2.7-.9 4.5-2.5 5.8z" fill="red"/>
        <path d="M285.5 398.1c.4-.8.7-1.8.7-3 0-5.3-4.6-6.9-10.2-6.9s-10.2 2-10.2 6.9c0 1.1.2 2 .6 2.8-.9-.6-1-3.9-.5-5.5s3.5-4.9 10.1-4.9 9.6 3 10.2 4.9c.6 1.8.2 5-.7 5.7z" fill="#f60"/>
        <path d="M276 384.6c-6.5 0-11.8 2.4-12 8.1v-.4c0-5.8 5.4-8.3 12-8.3s12 2 12 8.3v.4c-.2-6.2-5.5-8.1-12-8.1z" fill="#c00"/>
        <path d="M271.7 408s-3.9-2.2-3.9-4.7 1.8-3.8 1.8-5.7c0-1.8-1.8-5.3-1.8-5.3s4.5 2.8 4.5 5.3c0 2.4-1.8 3.4-1.8 5.7 0 2.3 1.2 4.7 1.2 4.7z" fill="red"/>
        <path d="M271.7 408s-3.9-2.2-3.9-4.7 1.8-3.8 1.8-5.7c0-1.8-1.8-5.3-1.8-5.3s2.2 2.7 2.2 5.2c0 2.4-1.7 3.5-1.7 5.8s3.4 4.7 3.4 4.7z" fill="#f60"/>
        <path d="M271.7 408s-1.8-2.3-1.8-4.8 1.7-3.7 1.7-5.6c0-1.8-3.8-5.3-3.8-5.3s4.5 2.8 4.5 5.3c0 2.4-1.8 3.4-1.8 5.7 0 2.3 1.2 4.7 1.2 4.7z" fill="#c00"/>
        <path d="M277.5 408s-4-2.2-4-4.7 1.9-3.8 1.9-5.7c0-1.8-1.9-5.3-1.9-5.3s4.5 2.8 4.5 5.3c0 2.4-1.7 3.4-1.7 5.7 0 2.3 1.2 4.7 1.2 4.7z" fill="red"/>
        <path d="M277.5 408s-4-2.2-4-4.7 1.9-3.8 1.9-5.7c0-1.8-1.9-5.3-1.9-5.3s2.3 2.7 2.3 5.2c0 2.4-1.8 3.5-1.8 5.8s3.5 4.7 3.5 4.7z" fill="#f60"/>
        <path d="M277.5 408s-1.9-2.3-1.9-4.8 1.8-3.7 1.8-5.6c0-1.8-3.9-5.3-3.9-5.3s4.5 2.8 4.5 5.3c0 2.4-1.7 3.4-1.7 5.7 0 2.3 1.2 4.7 1.2 4.7z" fill="#c00"/>
        <path d="M283.2 408s-3.9-2.2-3.9-4.7 1.8-3.8 1.8-5.7c0-1.8-1.8-5.3-1.8-5.3s4.5 2.8 4.5 5.3c0 2.4-1.8 3.4-1.8 5.7 0 2.3 1.2 4.7 1.2 4.7z" fill="red"/>
        <path d="M283.2 408s-3.9-2.2-3.9-4.7 1.8-3.8 1.8-5.7c0-1.8-1.8-5.3-1.8-5.3s2.2 2.7 2.2 5.2c0 2.4-1.7 3.5-1.7 5.8s3.4 4.7 3.4 4.7z" fill="#f60"/>
        <path d="M283.2 408s-1.8-2.3-1.8-4.8 1.7-3.7 1.7-5.6c0-1.8-3.8-5.3-3.8-5.3s4.5 2.8 4.5 5.3c0 2.4-1.8 3.4-1.8 5.7 0 2.3 1.2 4.7 1.2 4.7z" fill="#c00"/>
    </g>
</svg>
