<svg xmlns="http://www.w3.org/2000/svg" height="24" width="24">
    <g transform="matrix(1,0,0,-1,-264,408)" id="KDDI_D_">        <path d="M280.6 404.3h-9.1v3.6h9.1z" fill="#333"/>
        <path d="M275 404.3h-1.9v3.6h1.9z" fill="#666"/>
        <path d="M280.6 404.3H277v3.6h3.6z"/>
        <path d="M280.6 384h-9.1v3.7h9.1z" fill="#333"/>
        <path d="M275 384h-1.9v3.7h1.9z" fill="#666"/>
        <path d="M280.6 384H277v3.7h3.6z"/>
        <path d="M284.5 391.6c0-2.2-1.8-4-4-4h-8.9c-2.2 0-4 1.8-4 4v8.7c0 2.2 1.8 4 4 4h8.9c2.2 0 4-1.8 4-4z" fill="red"/>
        <path d="M268.7 391.6v8.7c0 2.2 1.8 4 4 4h-1.1c-2.2 0-4-1.8-4-4v-8.7c0-2.2 1.8-4 4-4h1.1c-2.2 0-4 1.8-4 4zM280.5 404.3H277l-.1-16.7h3.6c2.3 0 4 1.8 4 4v8.7c0 2.2-1.7 4-4 4z" fill="#c00"/>
        <path d="M280.5 404.3h-3.1c1.8 0 3.3-1.8 3.3-4v-8.7c0-2.2-1.5-4-3.3-4h3.1c2.2 0 4 1.8 4 4v8.7c0 2.2-1.8 4-4 4z" fill="#900"/>
        <path d="M280.5 404.3h-1.8c2.2 0 4-1.8 4-4v-8.7c0-2.2-1.8-4-4-4h1.8c2.2 0 4 1.8 4 4v8.7c0 2.2-1.8 4-4 4z" fill="#600"/>
        <path d="M275 404.3h-.9c-1.6 0-2.9-1.8-2.9-4v-8.7c0-2.2 1.3-4 2.9-4h.9z" fill="#f66"/>
    </g>
</svg>
