<svg xmlns="http://www.w3.org/2000/svg" height="24" width="24">
    <g transform="matrix(1,0,0,-1,-264,408)" id="KDDI_D_">        <path d="M288 384h-24v24h24z" fill="#006"/>
        <path d="M273.3 394.3v-5.2M279.4 394.7v-5.6" fill="none" stroke="#03c" stroke-width="1.3"/>
        <path d="M272.9 394.3v-5.2M279 394.3v-5.2" fill="none" stroke="#0cf" stroke-width="1.3"/>
        <path d="M264 395.7c2.1 0 4.5 5.1 4.5 5.1s2.6-7.3 7.5-7.3c4.8 0 7.3 7.5 7.3 7.5s2.5-5.3 4.7-5.3" fill="none" stroke="#9f9" stroke-linejoin="round"/>
        <path d="M264 387.9h24" fill="none" stroke="#03c" stroke-width="1.5"/>
        <path d="M269 402.5v-13.7M283.8 402.5v-13.7" fill="none" stroke="#03c" stroke-width="1.3" stroke-linecap="round"/>
        <path d="M264 388.7h24" fill="none" stroke="#0cf" stroke-width="1.5"/>
        <path d="M268.5 402.5v-13.7M283.4 402.5v-13.7" fill="none" stroke="#0cf" stroke-width="1.3" stroke-linecap="round"/>
        <path d="M266.6 407.1l.4-.7.7-.4-.7-.4-.4-.7-.4.7-.7.4.7.4z" fill="#ff6"/>
        <path d="M272.4 406.2l.4-.8.7-.4-.7-.4-.4-.7-.4.7-.7.4.7.4z" fill="#3fc"/>
        <path d="M276.2 398.9l.4-.7.7-.4-.7-.4-.4-.7-.4.7-.7.4.7.4zM273 402.1l.3-.6.7-.4-.7-.3-.3-.7-.3.7-.7.3.7.4z" fill="#ff6"/>
        <path d="M279 403l.4-.8.9-.5-.9-.4-.4-.9-.5.9-.8.4.8.5z" fill="#3fc"/>
        <path d="M280 407.2l.4-.8.7-.4-.7-.4-.4-.7-.4.7-.7.4.7.4z" fill="#ff6"/>
        <path d="M285.9 406.3l.4-.8.7-.4-.7-.4-.4-.7-.4.7-.8.4.8.4z" fill="#3fc"/>
    </g>
</svg>
