<svg xmlns="http://www.w3.org/2000/svg" height="24" width="24">
    <g transform="matrix(1,0,0,-1,-264,408)" id="KDDI_D_">        <path d="M276.1 389.2c3.6 0 7.1-5.2 7.1-5.2h2.2s-4.7 7.1-6.1 11c-1.4 3.9-3.2 13-3.2 13s-1.9-9.1-3.3-13c-1.4-3.9-6.1-11-6.1-11h2.3s3.4 5.2 7.1 5.2z" fill="red"/>
        <path d="M276.1 389.9c-3.6 0-7.1-4.8-7.8-5.9h.7s3.4 5.2 7.1 5.2c3.6 0 7.1-5.2 7.1-5.2h.7c-.8 1.1-4.2 5.9-7.8 5.9zM279.3 395c-1.4 3.9-3.2 13-3.2 13l-.1-2.6s1.6-7.8 2.5-10.4c1.4-3.9 6.1-11 6.1-11h.8s-4.7 7.1-6.1 11z" fill="#900"/>
        <path d="M272.7 395c1.4 3.9 3.4 13 3.4 13l-.1-2.6s-1.6-7.8-2.5-10.4c-1.4-3.9-6.1-11-6.1-11h-.8s4.7 7.1 6.1 11z" fill="#f60"/>
        <path d="M282 393.2l.7 3.6h-13.2l.7-3.6z" fill="#039"/>
        <path d="M282 393.5l.9 3.6h-13.6l.9-3.6z" fill="#06c"/>
        <path d="M279.1 393.5h2.9l.9 3.6h-3.8z" fill="#039"/>
        <path d="M273.1 397.1h-3.8l.9-3.6h2.9z" fill="#09f"/>
        <path d="M272.8 393.5h-1.4v2.1h1.4z" fill="#9ff"/>
        <path d="M275.5 393.5h-1.4v2.1h1.4zM278.1 393.5h-1.4v2.1h1.4z" fill="#6ff"/>
        <path d="M280.7 393.5h-1.4v2.1h1.4z" fill="#09f"/>
        <path d="M278 402.3h-4v2h4z" fill="#039"/>
        <path d="M278 402.6h-4v1.7h4z" fill="#06c"/>
        <path d="M275.1 402.6H274v1.7h1.1z" fill="#09f"/>
        <path d="M278 402.6h-1.2v1.7h1.2z" fill="#039"/>
    </g>
</svg>
