<svg xmlns="http://www.w3.org/2000/svg" height="24" width="24">
    <g transform="matrix(1,0,0,-1,-264,408)" id="KDDI_D_">        <path d="M276 406.4l8.3-9.9c2.8 2.3 3.1 6.4.8 9.2-2.3 2.7-6.4 3-9.1.7z" fill="#fc0"/>
        <path d="M285.1 405.7c-.6.7-1.3 1.2-2.1 1.6.5-.5.9-1.1 1.2-1.7 1.1-2.5.5-5.4-1.4-7.3l1.5-1.8c2.8 2.3 3.1 6.4.8 9.2z" fill="#f90"/>
        <path d="M285.1 405.7c1.3-2.8.8-6.3-1.4-8.5l.6-.7c2.8 2.3 3.1 6.4.8 9.2z" fill="#c60"/>
        <path d="M276 406.5l8.3-10 .4.3-8.4 9.9z" fill="#c60"/>
        <path d="M276 406.5c-2.7 2.3-6.8 1.9-9.1-.8-2.3-2.8-2-6.9.8-9.2z" fill="#fc0"/>
        <path d="M265.8 403.7c-1-2.5-.3-5.4 1.9-7.2l1.3 1.6c-2 1.1-3.3 3.3-3.2 5.6z" fill="#f90"/>
        <path d="M265.6 399.8c.3-1.2 1-2.4 2.1-3.3l.5.7c-1.2.7-2.1 1.6-2.6 2.6z" fill="#c60"/>
        <path d="M276 406.5c-.9.7-2 1.2-3.2 1.4l-.9-6.3z" fill="#fc0"/>
        <path d="M270.5 403.6c-1-.6-2.2-.4-2.7.3-.4.8 0 1.9 1 2.5 1 .6 2.2.5 2.7-.3.4-.8 0-1.9-1-2.5z" fill="#ff0"/>
        <path d="M270.3 404.8c-.5-.2-1-.2-1.2.2-.2.3 0 .8.4 1.1.5.2 1 .2 1.2-.2.2-.3 0-.8-.4-1.1z" fill="#fff"/>
        <path d="M275.8 406.7l-8.4-10 .3-.2 8.3 10z" fill="#c60"/>
        <path d="M276.2 402s-2.2-2.4-2.2-4.4c0-2 2-2.3 2-4.4 0-2.2-1.2-1.9-1.2-4.2 0-1.6 3.6-4.1 3.6-4.1" fill="none" stroke="#f60" stroke-width="2"/>
        <path d="M271.3 392.5h-1.4v2.8h1.4z" fill="#c33"/>
        <path d="M270.9 392.7h-1.4v2.8h1.4z" fill="#f6c"/>
        <path d="M270.9 392.7h-1.4v1.5h1.4z" fill="#f39"/>
        <path d="M278.5 395.4h-1.2v2.8h1.2z" fill="#f6c"/>
        <path d="M278.5 395.4h-1.2v1.5h1.2zM274.7 384h-1.6v1.6h1.6z" fill="#f39"/>
        <path d="M283.4 389.9v-2.4h-2v1.1h1.1v1.3z" fill="#c33"/>
        <path d="M283.1 390.2v-2.4h-2v1.1h1.1v1.3z" fill="#f39"/>
        <path d="M267.4 391.5H264v1.3h3.4z" fill="#3c3"/>
        <path d="M285.9 393.4h-1.2v1.2h1.2z" fill="#090"/>
        <path d="M285.5 393.7h-1.2v1.2h1.2zM286.5 387.9h1.5v1.5h-1.5z" fill="#3c3"/>
        <path d="M271.1 383.9h-1.5v2.7h1.5z" fill="#090"/>
        <path d="M270.6 384.3h-1.4v2.6h1.4z" fill="#3c3"/>
        <path d="M280.4 391.7h-1.1v1.1h1.1z" fill="#03f"/>
        <path d="M280 392.2h-1.2v1.1h1.2z" fill="#09f"/>
        <path d="M272.7 389.3h-1.1v1.1h1.1z" fill="#03f"/>
        <path d="M272.4 389.7h-1.1v1.1h1.1z" fill="#09f"/>
        <path d="M286 384h-1.3v1.4h1.3z" fill="#009"/>
        <path d="M285.7 384.3h-1.4v1.5h1.4zM267.4 386.7h-1.6v2.5h1.6z" fill="#03f"/>
    </g>
</svg>
