<svg xmlns="http://www.w3.org/2000/svg" height="24" width="24">
    <g transform="matrix(1,0,0,-1,-264,408)" id="KDDI_D_">        <path d="M283.7 394.1c0 5.3-4.2 9.5-9.5 9.5-5.2 0-9.5-4.2-9.5-9.5 0-5.2 4.3-9.5 9.5-9.5 5.3 0 9.5 4.3 9.5 9.5z" fill="#fff"/>
        <path d="M283.7 394.1c0 5.3-4.2 9.5-9.5 9.5-5.2 0-9.5-4.2-9.5-9.5 0-5.2 4.3-9.5 9.5-9.5 5.3 0 9.5 4.3 9.5 9.5z" fill="none" stroke="red" stroke-width="1.3"/>
        <path d="M280.9 394.1c0 3.7-3 6.7-6.7 6.7s-6.6-3-6.6-6.7 2.9-6.6 6.6-6.6c3.7 0 6.7 2.9 6.7 6.6z" fill="none" stroke="red" stroke-width="1.3"/>
        <path d="M277.5 394.1c0 1.9-1.4 3.4-3.3 3.4-1.8 0-3.3-1.5-3.3-3.4 0-1.8 1.5-3.3 3.3-3.3 1.9 0 3.3 1.5 3.3 3.3z" fill="none" stroke="red" stroke-width="1.3"/>
        <path d="M275.7 394.1c0 .8-.7 1.5-1.5 1.5s-1.4-.7-1.4-1.5.6-1.4 1.4-1.4c.8 0 1.5.6 1.5 1.4z" fill="red"/>
        <path d="M283.1 402.5h4.9l-5.5-5.5h-4.9" fill="#39f"/>
        <path d="M278.5 397.9h4.9l.7.7h-4.9zM280.1 399.5h4.9l.7.7h-5zM281.7 401.1h4.9l.6.6h-4.9z" fill="#03c"/>
        <path d="M282.5 403.1v4.9l-5.5-5.5v-4.9" fill="#39f"/>
        <path d="M277.9 398.5v4.9l.7.7v-4.9zM279.5 400.1v4.9l.7.7v-5zM281.1 401.7v4.9l.6.6v-4.9z" fill="#03c"/>
        <path d="M274.1 394.2l10.1 10.1" fill="none" stroke="#666" stroke-width="1.6" stroke-linecap="round"/>
        <path d="M274.4 394l10 10" fill="none" stroke="#000" stroke-linecap="round"/>
    </g>
</svg>
