<svg xmlns="http://www.w3.org/2000/svg" height="24" width="24">
    <g transform="matrix(1,0,0,-1,-264,408)" id="KDDI_D_">        <path d="M281.6 391.5h-10.7v7.2h10.7z" fill="#666"/>
        <path d="M281.6 397.7h-10.7v1h10.7zM281.6 391.5h-10.7v1.7h10.7z" fill="#333"/>
        <path d="M281.6 391.5h-10.7v.8h10.7z"/>
        <path d="M268.5 402.4c1.8 0 4.7-1.3 4.7-4.6v-5.5c0-2.9-4.1-8.3-6.2-8.3-1.5 0-3 2.8-3 5.3v8.9c0 1.8 1.8 4.2 4.5 4.2z" fill="#666"/>
        <path d="M273.2 392.3v5.5c0 3.3-2.9 4.6-4.7 4.6-1.1-1-1.7-2.5-1.7-3.7v-10.5c0-1.4.4-2.9.9-4 2.2.9 5.5 5.5 5.5 8.1z" fill="#333"/>
        <path d="M265.2 398.4c0 1.2.5 2.5 1.3 3.6-1.6-.8-2.5-2.5-2.5-3.8v-8.9c0-1.7.7-3.5 1.6-4.5-.3.9-.4 1.8-.4 2.8v10.8z" fill="#999"/>
        <path d="M270.3 402.1c.9-.9 1.5-2.1 1.5-3.9v-6.1c0-2.2-2.4-6.7-1.7-5.9 1.6 1.8 3.1 4.4 3.1 6.1v5.5c0 2.3-1.4 3.7-2.9 4.3z"/>
        <path d="M268.5 401c1.4 0 3.5-1.1 3.5-3.8v-4.6c0-2.4-3-6.9-4.6-6.9-1.1 0-2.3 2.4-2.3 4.4v7.4c0 1.5 1.4 3.5 3.4 3.5z" fill="#666"/>
        <path d="M265.5 389.9v7.4c0 1.2.8 2.6 2 3.2.4.2 1.4.5 1 .5-.4 0-.8-.1-1.1-.2-1.4-.6-2.3-2.1-2.3-3.3v-7.4c0-1 .3-2 .7-2.8.4-.8-.3.9-.3 2.6z" fill="#ccc"/>
        <path d="M283.5 402.4c-1.8 0-4.7-1.3-4.7-4.6v-5.5c0-2.9 4.1-8.3 6.2-8.3 1.5 0 3 2.8 3 5.3v8.9c0 1.8-1.7 4.2-4.5 4.2z" fill="#666"/>
        <path d="M280.3 398c0 1.7.5 3 1.2 4-1.4-.7-2.7-2-2.7-4.2v-5.5c0-.9.4-2 1.1-3.2.1-.2.2-.5.3-.7.4-.5.1 1.4.1 2.5v7.1z" fill="#999"/>
        <path d="M288 389.3v8.9c0 1.8-1.7 4.1-4.3 4.2-.6-.5-1.3-1.3-1.4-2.4-.3-1.7 0-11.7 0-11.7s-.2-1.5.1-2.7c.9-1 1.9-1.6 2.6-1.6 1.5 0 3 2.8 3 5.3z" fill="#333"/>
        <path d="M284.8 402.2c1.2-1 1.9-2.5 1.9-3.8v-10.1c0-1.4-.4-3-1-4.1 1.2.7 2.3 3 2.3 5.1v8.9c0 1.5-1.2 3.4-3.2 4z"/>
        <path d="M283.5 401c-1.4 0-3.5-1.1-3.5-3.8v-4.6c0-2.4 3-6.9 4.6-6.9 1.1 0 2.3 2.4 2.3 4.4v7.4c0 1.5-1.4 3.5-3.4 3.5z" fill="#666"/>
        <path d="M281.7 388.8c-.7 1.3-1.3 2.7-1.3 3.8v4.8c0 1.5.7 2.5 1.5 3.2-1-.6-1.9-1.6-1.9-3.4v-4.6c0-2.1 2.4-5 1.7-3.8z" fill="#ccc"/>
        <path d="M284.7 397.6c0-.5-.4-.9-.9-.9s-.9.4-.9.9.4.9.9.9.9-.4.9-.9zM284.7 393.9c0-.5-.4-.9-.9-.9s-.9.4-.9.9.4.9.9.9.9-.4.9-.9zM281.9 396.7c.5 0 .9-.4.9-.9 0-.6-.4-1-.9-1s-.9.4-.9 1c0 .5.4.9.9.9zM285.7 396.7c.5 0 .9-.4.9-.9 0-.6-.4-1-.9-1s-.9.4-.9 1c0 .5.4.9.9.9zM270.7 396.5h-.9v.9c0 .5-.4.9-.8.9-.5 0-.9-.4-.9-.9v-.9h-.9c-.5 0-.9-.4-.9-.8 0-.5.4-.9.9-.9h.9v-.9c0-.5.4-.9.9-.9.4 0 .8.4.8.9v.9h.9c.5 0 .9.4.9.9 0 .4-.4.8-.9.8z"/>
        <path d="M270.5 396.9h-.9v.8c0 .5-.4.9-.9.9-.4 0-.8-.4-.8-.9v-.8h-.9c-.5 0-.9-.4-.9-.9s.4-.9.9-.9h.9v-.8c0-.5.4-.9.8-.9.5 0 .9.4.9.9v.8h.9c.5 0 .8.4.8.9s-.3.9-.8.9z" fill="#fff"/>
        <path d="M284.5 397.9c0-.5-.4-.9-.9-.9s-.9.4-.9.9.4.9.9.9.9-.4.9-.9z" fill="#9f3"/>
        <path d="M284.5 394.2c0-.5-.4-.9-.9-.9s-.9.4-.9.9.4.9.9.9.9-.4.9-.9z" fill="#9cf"/>
        <path d="M281.7 397c.5 0 1-.5 1-1s-.5-.9-1-.9-.9.4-.9.9.4 1 .9 1z" fill="#f9c"/>
        <path d="M285.5 397c.5 0 .9-.5.9-1s-.4-.9-.9-.9-.9.4-.9.9.4 1 .9 1z" fill="#fc0"/>
        <path d="M276 397.7V408" fill="none" stroke="#000" stroke-width="1.3"/>
    </g>
</svg>
