<svg xmlns="http://www.w3.org/2000/svg" height="24" width="24">
    <g transform="matrix(1,0,0,-1,-264,408)" id="KDDI_D_">        <path d="M268.5 407.4l3-4s-6.8-2.7-6.9-9.4c-.1-6.3 5.1-9.7 11.1-9.5 6 .2 9.8 5 9.8 9 0 7.2-7 9.9-7 9.9l3 4z" fill="#fc0"/>
        <path d="M281.5 407.4h-1.8c.2-.4.4-.9.6-1.5z" fill="#fc0"/>
        <path d="M281.6 401.5c.3-1.5.5-3.2.5-4.9 0-4-3.8-8.9-9.8-9-.8 0-1.5 0-2.2.1-1.5.2-2.7-.6-1.7-1.3 2-1.3 4.6-2 7.3-1.9 6 .2 9.8 5 9.8 9 0 3.8-2 6.4-3.9 8z" fill="#f90"/>
        <path d="M281.6 401.5c-.3 1.7-.8 3.2-1.3 4.4l-1.8-2.5s1.5-.6 3.1-1.9z" fill="#fc0"/>
        <path d="M270.8 407.4l1.5-3.9s-4.6-1.5-4.7-6.9c0-5.1 3.6-6.4 5.2-5.8 1.7.5.6 3.4.6 6.7 0 3.3 1.4 5.8 1.4 5.8l-.1 4.1z" fill="#ff0"/>
        <path d="M278.5 403.4l3 4h-2.9l-2.5-3.9s6.1-2.7 6.1-9.9c0-3.2-3.6-6.6-7.4-7.3-1.4-.2-1.1-1.7-1.1-1.7s1.3-.1 2-.1c6 .2 9.8 5 9.8 9 0 7.2-7 9.9-7 9.9z" fill="#c90"/>
        <path d="M271 398.5c-.3-1-.8-1.6-1.3-1.5-.5.1-.7.9-.4 1.9.2.9.8 1.6 1.2 1.5.5-.1.7-1 .5-1.9z" fill="#ffc"/>
        <path d="M268.6 386.3c1.9-1.3 4.4-1.9 7.1-1.8 6 .2 9.9 5 9.9 9 0 7.2-7.1 9.9-7.1 9.9" fill="none" stroke="#000" stroke-linecap="round" stroke-linejoin="round"/>
        <path d="M264.6 394c0-3.5 1.5-6.1 4-7.7" fill="none" stroke="#333" stroke-linecap="round" stroke-linejoin="round"/>
        <path d="M271.5 403.4s-6.8-2.7-6.9-9.4" fill="none" stroke="#666" stroke-linecap="round" stroke-linejoin="round"/>
        <path d="M268.5 407.4l3-4" fill="none" stroke="#000" stroke-linejoin="round"/>
        <path d="M281.5 407.4h-13" fill="none" stroke="#666" stroke-linecap="round" stroke-linejoin="round"/>
        <path d="M278.5 403.4l3 4" fill="none" stroke="#000" stroke-linecap="round" stroke-linejoin="round"/>
        <path d="M270.3 403.5h9.3M287.3 407.2l-7.2-3.5 7.2-4.2" fill="none" stroke="#900" stroke-width="1.5" stroke-linecap="round"/>
        <path d="M281.7 403.4c0-.8-.7-1.4-1.5-1.4-.7 0-1.4.6-1.4 1.4 0 .8.7 1.4 1.4 1.4.8 0 1.5-.6 1.5-1.4z" fill="#900"/>
        <path d="M281.7 403.4c0-.8-.7-1.4-1.5-1.4-.7 0-1.4.6-1.4 1.4 0 .8.7 1.4 1.4 1.4.8 0 1.5-.6 1.5-1.4z" fill="#600"/>
        <path d="M281.3 403.8c0-.8-.6-1.4-1.4-1.4-.7 0-1.3.6-1.3 1.4 0 .7.6 1.3 1.3 1.3.8 0 1.4-.6 1.4-1.3z" fill="#900"/>
        <path d="M278.9 392.3v-1h-3.2v-2.7h-1.5v2.7H271v1h3.2v.4l-.3.5H271v1h2.2l-2.9 4.6h1.7l3-4.7 2.9 4.7h1.7l-2.9-4.6h2.2v-1H276l-.3-.5v-.4z"/>
        <path d="M271 394.2v-1h2.7c0 .9-.2 2.1-.3 3.3l-1.4 2.3h-1.7l2.9-4.6zM273.8 392.3H271v-1h2.5c.1.2.2.6.3 1z" fill="#333"/>
    </g>
</svg>
