<svg xmlns="http://www.w3.org/2000/svg" height="24" width="24">
    <g transform="matrix(1,0,0,-1,-264,408)" id="KDDI_D_">        <path d="M276.9 386.8h-1.6v2.9h1.6z" fill="#600"/>
        <path d="M282.4 387.7v-1.3L280 384h-8l-2.4 2.4v1.3z" fill="#930"/>
        <path d="M282.4 387.7v-1.3L280 384h-2.6l1.1 2.4v1.3z" fill="#600"/>
        <path d="M281 387.7v-1.3l-1.9-2.4h-.7l1.2 2.4v1.3z" fill="#300"/>
        <path d="M269.6 387.7v-1.3l2.4-2.4h1.7l-1.1 2.4v1.3z" fill="#c60"/>
        <path d="M276 406.3l4.3-4.1h-1.8l4.5-3.8h-2.3l4.7-3.9h-2.6l5.2-5.1h-24l5.2 5.1h-2.6l4.7 3.9H269l4.5 3.8h-1.8z" fill="#360"/>
        <path d="M282.8 394.5h2.6l-4.7 3.9h2.3l-4.5 3.8h1.8l-4.3 4.1 1.8-4.1h-1l2.4-3.8h-1.7l2.9-3.9h-1.3l2.8-5.1h6.1z" fill="#030"/>
        <path d="M269.2 394.5h-2.6l4.7 3.9H269l4.5 3.8h-1.8l4.3 4.1-1.7-4.1h.9l-2.4-3.8h1.7l-2.9-3.9h1.3l-2.8-5.1H264z" fill="#090"/>
        <path d="M274.2 404.5l-2.7 1.3h3.4l1.1 2.2 1-2.2h3.4l-2.7-1.3 1.1-2.2-2.8 1.4-2.8-1.4z" fill="#f90"/>
        <path d="M276.4 405.2l.7-.1 3.3.7-2.7-1.3-1.7.2v-1l-2.8-1.4z" fill="#960"/>
        <path d="M275 405.1l-3.5.7h3.4l1.1 2.2v-2.2z" fill="#ff0"/>
        <path d="M274.8 404.6l-2 1h2.4l.8 1.5.7-1.5h2.5l-2.1-1 .9-1.5-2 1-1.9-1z" fill="#fc0"/>
        <path d="M284.9 392.3c0-.5-.4-.9-.8-.9-.5 0-.8.4-.8.9 0 .4.3.8.8.8.4 0 .8-.4.8-.8z" fill="red"/>
        <path d="M284.5 393c.1-.2.1-.3.1-.5 0-.5-.3-.8-.8-.8-.1 0-.2 0-.4.1.2-.2.4-.4.7-.4.4 0 .8.4.8.9 0 .3-.2.5-.4.7z" fill="#c00"/>
        <path d="M269.4 391.3c0-.5-.4-.8-.8-.8-.5 0-.8.3-.8.8s.3.8.8.8c.4 0 .8-.3.8-.8z" fill="red"/>
        <path d="M269 392c.1-.1.1-.3.1-.5 0-.4-.3-.8-.8-.8-.1 0-.2 0-.4.1.2-.2.4-.3.7-.3.4 0 .8.3.8.8 0 .3-.2.6-.4.7z" fill="#c00"/>
        <path d="M279.4 399.8c0-.6-.4-1-.9-1-.6 0-1 .4-1 1 0 .5.4 1 1 1 .5 0 .9-.5.9-1z" fill="red"/>
        <path d="M278.9 400.7c.1-.2.2-.4.2-.6 0-.6-.4-1-1-1-.1 0-.3 0-.4.1.2-.2.4-.4.8-.4.5 0 .9.4.9 1 0 .4-.2.7-.5.9z" fill="#c00"/>
        <path d="M275.4 400.3c0-.4-.4-.8-.9-.8-.4 0-.8.4-.8.8 0 .5.4.9.8.9.5 0 .9-.4.9-.9z" fill="#03f"/>
        <path d="M274.9 401.1c.1-.2.2-.4.2-.5 0-.5-.4-.9-.8-.9-.2 0-.3.1-.4.1.1-.2.4-.3.6-.3.5 0 .9.4.9.8 0 .3-.2.6-.5.8z" fill="#00f"/>
        <path d="M274.6 397.2c0-.5-.4-.9-.9-.9-.4 0-.8.4-.8.9 0 .4.4.8.8.8.5 0 .9-.4.9-.8z" fill="#03f"/>
        <path d="M274.1 397.9c.1-.1.2-.3.2-.5 0-.5-.4-.8-.8-.8-.2 0-.3 0-.4.1.1-.2.4-.4.6-.4.5 0 .9.4.9.9 0 .3-.2.6-.5.7z" fill="#00f"/>
        <path d="M274.6 393.3c0-.5-.5-1-1-1-.6 0-1 .5-1 1s.4 1 1 1c.5 0 1-.5 1-1z" fill="#03f"/>
        <path d="M274.1 394.2c.1-.2.2-.4.2-.6 0-.6-.5-1-1-1-.2 0-.3 0-.5.1.2-.2.5-.4.8-.4.5 0 1 .5 1 1 0 .4-.2.7-.5.9z" fill="#00f"/>
        <path d="M277.2 391.2c0-.4-.4-.8-.8-.8-.5 0-.9.4-.9.8 0 .5.4.8.9.8.4 0 .8-.3.8-.8z" fill="#03f"/>
        <path d="M276.8 391.9c.1-.1.1-.3.1-.5 0-.4-.3-.8-.8-.8-.1 0-.3.1-.4.1.2-.2.4-.3.7-.3.4 0 .8.4.8.8 0 .3-.2.6-.4.7z" fill="#00f"/>
        <path d="M271.2 394.5c0-.7-.5-1.2-1.2-1.2-.6 0-1.1.5-1.1 1.2s.5 1.2 1.1 1.2c.7 0 1.2-.5 1.2-1.2z" fill="#fc0"/>
        <path d="M270.6 395.5c.1-.2.3-.4.3-.7 0-.6-.6-1.2-1.2-1.2-.2 0-.4.1-.6.2.2-.3.6-.5.9-.5.7 0 1.2.5 1.2 1.2 0 .5-.2.8-.6 1z" fill="#f90"/>
        <path d="M280.4 393.8v-1.6M276.8 395.9v-1.6" fill="none" stroke="#fc0" stroke-width="1.5" stroke-linecap="round"/>
        <path d="M281.4 398.2v-1.5" fill="none" stroke="#03f" stroke-width="1.5" stroke-linecap="round"/>
        <path d="M271.1 400v-1.6" fill="none" stroke="red" stroke-width="1.5" stroke-linecap="round"/>
    </g>
</svg>
