<svg xmlns="http://www.w3.org/2000/svg" height="24" width="24">
    <g transform="matrix(1,0,0,-1,-264,408)" id="KDDI_D_">        <path d="M279 389.4c-1.8-.1-4.1.7-4.1.7s-2.9-1.2-4.8-.3c-1.8.9-1.9 2.8-1.9 2.8s-1.3 0-1.8.6c-.6.6-.6 1.8-.6 1.8s-1.5.9-1.5 2.7c0 1.9 1.9 3.4 1.9 3.4s-.3 2.3 1 3.6c1.4 1.3 4.2.7 4.2.7s.8 2.2 4.6 2.2c5 0 5.9-1.9 5.9-1.9s2 .6 3.2-.6c1.4-1.5.8-2.9.8-2.9s1.7-1.1 1.7-3.7c0-2.5-1.7-3.6-1.7-3.6s.5-2.2-.7-3c-1.1-.8-2.9-.8-2.9-.8s-.8-1.5-3.3-1.7z" fill="#f9c"/>
        <path d="M279.2 405.1c-.1 1.2-1 2-1.8 2.4-.4.1-.9.1-1.4.1-3.8 0-4.6-2.2-4.6-2.2s-2.8.6-4.2-.7c-1.3-1.3-1-3.6-1-3.6s-1.9-1.5-1.9-3.4c0-1 .5-1.7.8-2.1h.1v-.1c.3-.3.6-.5.6-.5s0-.4.1-.8c.6-.7 1.7-1.6 3.9-1.6 2.3-.1 4.4 3.1 4.4 3.1s2.4-.6 4 2.1c1.2 2-.7 3.9-.7 3.9s1.8 1.6 1.7 3.4z" fill="#fcf"/>
        <path d="M268.3 401.7c.2.9 1.1 1.5 2.2 1.5.4 0 .7-.1 1-.2.4-.2.5.1.2.3-.4.4-.9.6-1.5.6-1.3 0-2.2-.9-2.2-1.9 0-.4.3-.7.3-.3zM273.5 404.5c.4.7 1.4.8 2.3.4.3-.2.5-.4.7-.6.2-.3.4-.3.3 0-.1.5-.5 1-1 1.2-.9.5-2 .2-2.5-.6-.1-.3 0-.7.2-.4zM267.8 396.3c-.1.8.3 1.6 1.1 1.9.3.2.6.2.9.2.3 0 .3.3-.1.4-.4.1-.8.1-1.3-.1-.9-.5-1.4-1.5-1-2.4.1-.3.4-.1.4 0z" fill="#fff"/>
        <path d="M287.6 398.5c0 2.6-1.7 3.7-1.7 3.7s.6 1.4-.8 2.9c-1.2 1.2-3.2.6-3.2.6s-.4.8-2.1 1.4c.5-.7 1.5-1.5 1.5-2.4.1-1.1-.3-1.9-.3-1.9s1.3-.9 1.1-2.5c-.2-1.7-2-2.5-2-2.5s.3-1.9-.5-3.2c-.8-1.3-3.9-1.8-3.9-1.8s.6-1.5-1.1-2.8c.2 0 .3.1.3.1s2.3-.8 4.1-.7c2.5.2 3.3 1.7 3.3 1.7s1.8 0 2.9.8c1.2.8.7 3 .7 3s1.7 1.1 1.7 3.6z" fill="#f69"/>
        <path d="M285.9 398.4c-.7-.9-2.1-1.4-2.1-1.4s1.2-1.7 0-3.3c-.8-1.2-2.9-1.4-2.9-1.4s-.3-1.8-1.8-2.9c2.4.2 3.2 1.7 3.2 1.7s1.8 0 2.9.8c1.2.8.7 3 .7 3s1.7 1.1 1.7 3.6c0 1.5-.6 2.5-1.1 3.1.3-1.6-.2-2.7-.6-3.2z" fill="#c66"/>
        <path d="M275.8 394.5s-1.5 2.7-2.7 4.1c-1.2 1.4-2.8 3.2-2.8 3.2s1 .3 3-1.5c2-1.7 3-5 3-5z" fill="#f9c"/>
        <path d="M276 396l4.3 4.1s-1-2.5-1.8-3.6-1.7-2.6-1.7-2.6z" fill="#f69"/>
        <path d="M274.3 397.8s-1.4.7-3.1.5c-.7-.1-2.6-1-2.6-1s1.5.3 3.1.3c2.1-.1 3.5-1.6 3.5-1.6zM273.5 399.8s.7 1.2 1.3 1.5c.7.4 1.2.4 1.2.4l-.9-.9c-.5-.6-.8-1.8-.8-1.8z" fill="#f9c"/>
        <path d="M277.3 392.8s2 2.6 3.1 3.4c1.1.7 3.7 1.2 3.7 1.2s-3-2.2-3.7-3.1c-.6-.9-2.3-4.9-2.3-4.9z" fill="#c66"/>
        <path d="M276 402.2c0-.3-.2-.5-.5-.5s-.6.2-.6.5.3.6.6.6.5-.3.5-.6zM270.4 400.3c0-.3-.2-.6-.5-.6s-.6.3-.6.6c0 .2.3.5.6.5s.5-.3.5-.5zM267.4 398.5c0-.3-.3-.5-.6-.5s-.5.2-.5.5.2.5.5.5.6-.2.6-.5zM272 395c0-.3-.3-.5-.6-.5s-.5.2-.5.5.2.5.5.5.6-.2.6-.5zM275.4 399.4c0-.3-.3-.5-.6-.5s-.5.2-.5.5.2.6.5.6.6-.3.6-.6zM277.9 399.1c0-.3-.3-.6-.6-.6s-.5.3-.5.6.2.5.5.5.6-.2.6-.5z" fill="#fff"/>
        <path d="M280.8 400.3c0-.3-.3-.5-.5-.5-.3 0-.6.2-.6.5s.3.6.6.6c.2 0 .5-.3.5-.6zM280.5 402.9c0-.3-.3-.5-.6-.5s-.5.2-.5.5.2.6.5.6.6-.3.6-.6zM273.2 391.8c0-.3-.2-.5-.5-.5s-.6.2-.6.5.3.6.6.6.5-.3.5-.6zM275 393.5c0-.3-.3-.5-.6-.5s-.5.2-.5.5.2.5.5.5.6-.2.6-.5z" fill="#fcf"/>
        <path d="M278.9 405.6c0-.3-.3-.6-.6-.6s-.5.3-.5.6.2.5.5.5.6-.2.6-.5z" fill="#fff"/>
        <path d="M284.2 399.2c0-.3-.3-.5-.6-.5s-.5.2-.5.5.2.6.5.6.6-.3.6-.6zM283.7 403c0-.3-.2-.5-.5-.5s-.6.2-.6.5.3.5.6.5.5-.2.5-.5zM282.2 394.2c0-.3-.2-.6-.5-.6s-.6.3-.6.6.3.5.6.5.5-.2.5-.5z" fill="#f9c"/>
        <path d="M274.9 390.1s-2.9-1.2-4.8-.3c-1.8.9-1.9 2.8-1.9 2.8s-1.3 0-1.8.6c-.6.6-.6 1.8-.6 1.8s-1.5.9-1.5 2.7c0 1.9 1.9 3.4 1.9 3.4s-.3 2.3 1 3.6c1.4 1.3 4.2.7 4.2.7s.8 2.2 4.6 2.2c2.3 0 3.8-.4 4.7-.9" fill="none" stroke="#f9c"/>
        <path d="M279 389.4c-1.8-.1-4.1.7-4.1.7" fill="none" stroke="#f69"/>
        <path d="M286.7 401.3c.5-.6.9-1.5.9-2.8 0-2.5-1.7-3.6-1.7-3.6s.4-1.8-.7-3c-.9-1-2.9-.8-2.9-.8s-.8-1.5-3.3-1.7" fill="none" stroke="#c66"/>
        <path d="M280.7 406.7c.9-.5 1.2-1 1.2-1s2 .6 3.2-.6c1.4-1.5.8-2.9.8-2.9s.4-.3.8-.9" fill="none" stroke="#f69"/>
        <path d="M272.7 384s1.3.6 2.3 1.8c1 1.1 1.7 3.2 1.3 6.3-.3 3.1-3.5 8-3.5 8s3.5-4 4.3-5.8c.7-1.9 1.3-6.3 1.7-7.4.5-1.1 2.3-2.9 2.3-2.9z" fill="#600"/>
        <path d="M275.9 385.8c.9 1.1 1.1 3.2.6 6.3-.1.8-.5 1.7-.9 2.6.4-.9.6-1.8.7-2.6.4-3.1-.3-5.2-1.3-6.3-1-1.2-2.3-1.8-2.3-1.8h1.5s.8.6 1.7 1.8z" fill="#933"/>
        <path d="M277.3 391.9s.9 1.8 2 2.9c1.2 1.2 3.4 2 3.4 2s-2.3-1.6-2.9-2.7c-.7-1.2-1.8-4.4-1.8-4.4" fill="#600"/>
        <path d="M278.8 386.9c-.4 1.1-1 5.5-1.7 7.4-.8 1.8-4.3 5.8-4.3 5.8s.5-.9 1.2-2c1-1.3 2.2-2.9 2.6-3.8.7-1.9 1.3-6.3 1.7-7.4.5-1.1 1.5-2.9 1.5-2.9h1.3s-1.8 1.8-2.3 2.9z" fill="#300"/>
        <path d="M275.9 395.3l3.6 3.5-3.1-4.5" fill="#600"/>
    </g>
</svg>
