<svg xmlns="http://www.w3.org/2000/svg" height="24" width="24">
    <g transform="matrix(1,0,0,-1,-264,408)" id="KDDI_D_">        <path d="M283.1 388.6c-1 1.4-1.5 3.2-1.5 4.7v.6c.5.1 1.4.1 1.9-.1.6-.4.5-2.4 1.2-2.4.8 0 1 .9 1 2s-.1 4.3-1 5.6c-.7.9-2.3.7-3.1.7v1.1c0 3.7-2.9 6.6-6.5 6.6-3.7 0-6.6-2.9-6.6-6.6v-1.1c-.8 0-2.3.2-3-.7-.9-1.3-1-4.5-1-5.6 0-1.1.3-2 1-2 .8 0 .7 2 1.3 2.4.4.2 1.2.2 1.7.1v-.6c0-4.2 3-7.6 6.6-8.2 3.3-.6 12.5-.6 12.5-.6s-2.7 1.7-4.5 4.1z" fill="#fff"/>
        <path d="M287.6 384.5s-2.7 1.7-4.5 4.1c-1 1.4-1.5 3.2-1.5 4.7v7.5c0 2.7-1.6 5-3.9 6.1 1.5-1.5 2.4-3.7 2.4-6.1v-7.5c0-3.6-2.9-6.6-6.5-6.6-.9 0-1.8.2-2.6.6 1.1-1.2 2.5-1.9 4.1-2.2 3.3-.6 12.5-.6 12.5-.6z" fill="#ccf"/>
        <path d="M278.6 397.8c0-.5-.4-.8-.8-.8H272c-.4 0-.7.3-.7.8 0 .4.3.7.7.7h5.8c.4 0 .8-.3.8-.7z" fill="#c00"/>
        <path d="M277.8 397.4H272c-.3 0-.6.2-.7.6v-.2c0-.5.3-.8.7-.8h5.8c.4 0 .8.3.8.8 0 0 0 .1-.1.2-.1-.4-.3-.6-.7-.6z" fill="#600"/>
        <path d="M276.4 396c0-.9-.7-1.5-1.5-1.5s-1.5.6-1.5 1.5v1.5c0 .9 3 .9 3 0z" fill="#c00"/>
        <path d="M276 384.9c3.9-.4 11.6-.4 11.6-.4s-5.1 1.4-5.9 1.9c-1-1.2-3.5-1.4-5.7-1.5z" fill="#c9c"/>
        <path d="M281.6 393.9c.5.1 1.4.1 1.9-.1.6-.4.5-2.4 1.2-2.4.5 0 .6.6.7 1.1-.4 1.1-.9 2-1.1 2.3-1 .6-3.1.5-3.1.5zM268.8 395s-1.7.3-2.1-.1c-.2-.1-.3-.8-.2-1.6 0 .2.1.4.3.5.4.2 1.2.2 1.7.1v-.6-.3l.2.1z" fill="#ccf"/>
        <path d="M283.1 388.6c-1 1.4-1.5 3.2-1.5 4.7v.6c.5.1 1.4.1 1.9-.1.6-.4.5-2.4 1.2-2.4.8 0 1 .9 1 2s-.1 4.3-1 5.6c-.7.9-2.3.7-3.1.7v1.1c0 3.7-2.9 6.6-6.5 6.6-3.7 0-6.6-2.9-6.6-6.6v-1.1c-.8 0-2.3.2-3-.7-.9-1.3-1-4.5-1-5.6 0-1.1.3-2 1-2 .8 0 .7 2 1.3 2.4.4.2 1.2.2 1.7.1v-.6c0-4.2 3-7.6 6.6-8.2 3.3-.6 12.5-.6 12.5-.6s-2.7 1.7-4.5 4.1z" fill="none" stroke="#000" stroke-linejoin="round"/>
        <path d="M277.4 403.2v-1.8M272.5 403.2v-1.8" fill="none" stroke="#000" stroke-width="2" stroke-linecap="round"/>
    </g>
</svg>
