<svg xmlns="http://www.w3.org/2000/svg" height="24" width="24">
    <g transform="matrix(1,0,0,-1,-264,408)" id="KDDI_D_">        <path d="M264.7 398.4s-1.4-3.7-.4-8c.9-3.6 5.3-6 8.5-6.2 4.1-.4 7.9 1.2 10.7 3.6 2.7 2.2 4 5.5 4.3 10.8.1 3.6.1 8.9.1 8.9l-.4.1z" fill="#090"/>
        <path d="M287.8 399.6c-.3-5.3-1.2-8.9-4.5-11.5-2.9-2.3-6.3-3.6-10.7-3.2-2.2.2-5.6 1.6-7.4 3.5 1.6-2.5 5-4 7.6-4.2 4.1-.4 7.9 1.2 10.7 3.6 2.7 2.2 4 5.5 4.3 10.8 0 1.2.1 2.6.1 4-.1-1.1-.1-2.1-.1-3z" fill="#060"/>
        <path d="M264.7 398.4l.5-.2 22.7 9.2v.1l-.4.1-22.8-9.2z" fill="#090"/>
        <path d="M264.6 398.3v-.1-.1c0-.1-.1-.2-.1-.2v-.1c0-.1-.1-.3-.1-.4-.1-1.5.3-2.4.5-3.3.1-.8-.2-1.3.2-2.5.3-1 1-1.2 1.5-2 .4-.7.2-1.4.9-2.2.6-.8 1.3-.9 2.1-1.1.6-.1 1-.7 2-1 1-.3 1.6-.2 2.7-.3.8-.1 1.7-.4 2.2-.6 1.8.3 3.4 1 4.9 1.9l-1.3-.5c-.7-.2-1-.4-1.5-.4s-.6.1-1.7.1c-1 0-1.3-.2-2.4 0-.9.2-1.8 1-2.2 1-.9.2-1.5 0-2.3.5-.9.6-.7 1-1.5 1.6-.7.6-1.2.4-1.3 1.3-.2 1.4-.4 2.2-.7 2.7-.2.5-.8 1.1-.8 1.1-.3.6-.4 2-.3 3.3l-.4 1.1-.3.3-.1-.1z" fill="#030"/>
        <path d="M287.8 399.6c-.3-5.3-1.2-8.9-4.5-11.5-2.9-2.3-6.3-3.6-10.7-3.2-1.3.1-3.1.6-5.1 1.9-2.1 1.2-2.7 2.7-3.1 3.2.2-.5.5-1.1.8-1.6l.1-.1c.2-.3.3-.5.5-.7l.3-.3c.2-.1.3-.3.5-.4l.3-.3c.2-.1.4-.3.5-.4.1-.1.2-.2.3-.2.3-.2.5-.3.8-.5.1 0 .1 0 .2-.1.2-.1.5-.3.8-.4 1.1-.5 2.2-.8 3.3-.8 4.1-.4 7.9 1.2 10.7 3.6 2.7 2.2 4 5.5 4.3 10.8 0 1.2.1 2.6.1 4-.1-1.1-.1-2.1-.1-3z" fill="#060"/>
        <path d="M280.1 385.8c-.7-.2-1-.4-1.5-.4h-.4c-1-.3-2.1-.5-3.3-.5.6-.2 1.2-.4 1.6-.5.5.1.9.2 1.3.3.4.1.8.3 1.3.4v.1c.4.1.8.3 1.1.4.1.1.1.1.2.1.3.2.7.4 1 .6z" fill="#333"/>
        <path d="M287.3 407.2c0 .1-.3.3-.3.3l-21.8-8.9c1-2.6 2.1-6.2 4.9-9.3 2.7-2.8 9.5-4.1 13.1-.8 3.5 3.4 3.7 6.9 4.1 11.3.1 2.4 0 5.4 0 7.4z" fill="#6c3"/>
        <path d="M287 407.5l-22-9 .3-.3 22 9c0 .1-.3.3-.3.3z" fill="#9f9"/>
        <path d="M286.8 399.7c.2 2.2 0 5.4 0 7.3 0 .1-.2.3-.2.3l-20.9-8.5c1.2-3.1 3.2-7.5 4.7-8.9 3.1-3 9.2-3.8 12.6-.7 3.4 3.2 3.6 6.5 3.8 10.5z" fill="#cfc"/>
        <path d="M265.9 398.5l20.9 8.5c0 .1-.2.3-.2.3l-21-8.5z" fill="#ffc"/>
        <path d="M286.1 406.7c0 .1-.2.3-.2.3l-19.1-7.7c.9-2.7 2.7-6.3 4.3-8 2.2-2.2 7.9-3.8 11-1 3.1 2.9 3.5 6.2 3.9 9.8.3 2.2.1 5 .1 6.6z" fill="red"/>
        <path d="M267 398.9l19.1 7.8c0 .1-.2.3-.2.3l-10.6-4.3-8.6-3.5z" fill="#f66"/>
        <path d="M272.8 397.2c.1-.5-.2-1-.5-1-.4 0-.7.4-.7 1s.2 1 .6 1c.3.1.6-.4.6-1z"/>
        <path d="M272.3 397.4c0-.2-.1-.4-.2-.4s-.2.2-.2.4c0 .3.1.5.2.5s.2-.2.2-.5z" fill="#333"/>
        <path d="M282.8 401.9c0-.6-.2-1.1-.6-1.1-.3 0-.6.5-.7 1 0 .6.3 1.1.6 1.1.4 0 .7-.4.7-1z"/>
        <path d="M282.3 402.1c0-.3-.1-.5-.2-.5s-.2.2-.2.5c0 .2 0 .4.1.4.2 0 .2-.2.3-.4z" fill="#333"/>
        <path d="M282.4 395.9c0-.6-.2-1.1-.6-1.1-.3 0-.6.5-.7 1 0 .6.3 1.1.6 1.1.4 0 .7-.4.7-1z"/>
        <path d="M281.9 396.1c0-.3-.1-.5-.2-.5s-.2.2-.2.5c0 .2.1.4.2.4s.2-.2.2-.4z" fill="#333"/>
        <path d="M277.4 392.6c0-.6-.2-1-.6-1.1-.3 0-.6.5-.6 1.1-.1.5.2 1 .5 1 .4 0 .7-.4.7-1z"/>
        <path d="M276.9 392.8c0-.2-.1-.4-.2-.4s-.2.2-.2.4c0 .3.1.5.2.5s.2-.2.2-.5z" fill="#333"/>
        <path d="M278.2 399.2c0-.6-.2-1.1-.6-1.1-.3 0-.6.4-.7 1 0 .6.3 1.1.6 1.1.4 0 .7-.5.7-1z"/>
        <path d="M277.7 399.4c0-.3-.1-.5-.2-.5s-.2.2-.2.4c0 .3 0 .5.2.5.1 0 .1-.2.2-.4z" fill="#333"/>
    </g>
</svg>
