<svg xmlns="http://www.w3.org/2000/svg" height="24" width="24">
    <g transform="matrix(1,0,0,-1,-264,408)" id="KDDI_D_">        <path d="M287.6 390.5c0-3.3-5.1-6-11.5-6s-11.5 2.7-11.5 6 5.1 5.9 11.5 5.9 11.5-2.6 11.5-5.9z" fill="#cff"/>
        <path d="M282.3 395.5c2.2-1.1 3.7-2.6 3.7-4.4 0-3.3-5.2-5.9-11.6-5.9-2.2 0-4.4.3-6.1.9 2-1 4.8-1.6 7.8-1.6 6.4 0 11.5 2.7 11.5 6 0 2.1-2.1 3.9-5.3 5z" fill="#fff"/>
        <path d="M284.2 390.7c0-2.4-3.6-4.2-8.1-4.2s-8.1 1.8-8.1 4.2c0 2.3 3.6 4.2 8.1 4.2s8.1-1.9 8.1-4.2z" fill="#9cf"/>
        <path d="M287.6 390.5c0-3.3-5.1-6-11.5-6s-11.5 2.7-11.5 6 5.1 5.9 11.5 5.9 11.5-2.6 11.5-5.9z" fill="none" stroke="#09f" stroke-linejoin="round"/>
        <path d="M271.5 390.6v2.3l15 8.2v-2.5z" fill="#fff"/>
        <path d="M277.1 394.6c0-.7-1-1.7-2.1-2.3-1.2-.5-2.1-.4-2 .3 0 .7.9 1.7 2.1 2.3 1.1.5 2 .4 2-.3z" fill="red"/>
        <path d="M277 394.6c-.1-.2-.7-.7-1.5-1-.7-.4-1.3-.6-1.3-.4 0 .2.6.7 1.4 1 .7.4 1.4.6 1.4.4z" fill="#f66"/>
        <path d="M284.5 398.6c0-.7-1-1.7-2.1-2.3-1.2-.5-2.1-.4-2.1.3.1.7 1 1.7 2.2 2.3 1.1.5 2 .4 2-.3z" fill="red"/>
        <path d="M284.3 398.6c0-.2-.6-.7-1.4-1-.8-.4-1.4-.6-1.4-.4 0 .2.7.7 1.4 1 .8.4 1.4.6 1.4.4z" fill="#f66"/>
        <path d="M286.5 400.7v4.4l-15-8v-4.5zM271.5 391v-3.8l15 8.1v3.8z" fill="#ffc"/>
        <path d="M271.8 397.2l-.3-.1v-9.9l15 8.1v1.2l-14.7-7.9z" fill="#fc9"/>
        <path d="M271.6 391l-.1-.7 15 8.1v.7zM286.6 400.8v.6l-14.9-8.1-.1-.7z" fill="#fc9"/>
        <path d="M267.7 400.6c-1.3 2.1-1.8 4.6-1.8 4.6l20.6-.1-15-8s-2.5 1.5-3.8 3.5z" fill="#fff"/>
        <path d="M265.9 405.2v-9.8s.5-2.6 1.8-4.6c1.3-2 3.8-3.6 3.8-3.6v9.9s-2.5 1.5-3.8 3.5c-1.3 2.1-1.8 4.6-1.8 4.6z" fill="#fff"/>
        <path d="M268.3 391.5c-1.7 2.8-2.2 7.1-2.2 7.1l-.2-3.2s.5-2.6 1.8-4.6c1.3-2 3.8-3.6 3.8-3.6v1.3s-1.9 1-3.2 3z" fill="#ccc"/>
        <path d="M265.9 395.4v9.8" fill="none" stroke="#f93" stroke-linecap="round" stroke-linejoin="round"/>
        <path d="M271.5 387.2s-2.5 1.6-3.8 3.6c-1.3 2-1.8 4.6-1.8 4.6M286.5 405.1v-9.8" fill="none" stroke="#c93" stroke-linecap="round" stroke-linejoin="round"/>
        <path d="M286.5 395.3l-15-8.1" fill="none" stroke="#c60" stroke-linecap="round" stroke-linejoin="round"/>
        <path d="M267.7 400.6c-1.3 2.1-1.8 4.6-1.8 4.6l20.6-.1-15-8s-2.5 1.5-3.8 3.5z" fill="#fff"/>
        <path d="M271.5 397.1v-9.9" fill="none" stroke="#c93" stroke-linecap="round" stroke-linejoin="round"/>
        <path d="M267.7 400.6c-1.3 2.1-1.8 4.6-1.8 4.6l20.6-.1-15-8s-2.5 1.5-3.8 3.5z" fill="none" stroke="#f93" stroke-linejoin="round"/>
        <path d="M268.8 404.5c-.4 0 .4-2 1.1-2.8.7-.7 2.5-2.5 2.7-2.3.2.2-1.9 1.9-2.3 2.7-.5.7-1.2 2.4-1.5 2.4z" fill="#ffc"/>
        <path d="M277.5 404.2c0-1.6-1.4-2.8-3-2.8-1.7 0-3.1 1.2-3.1 2.8 0 1.5 1.4 3.8 3.1 3.8 1.6 0 3-2.3 3-3.8z" fill="red"/>
        <path d="M274.5 404.9c-.3-.8-1.1-1.3-1.7-1.1-.7.2-.9 1-.6 1.8.3.8 1.2 1.8 1.8 1.6.7-.2.8-1.5.5-2.3z" fill="#f30"/>
        <path d="M273.8 406c-.1-.2-.3-.3-.5-.2-.2.1-.3.3-.3.5.1.2.4.4.6.3.2 0 .2-.4.2-.6z" fill="#f99"/>
        <path d="M275.6 407.6c.8-.8 1.3-2 1.3-2.9 0-1.5-1.4-2.8-3.1-2.8-.6 0-1.2.2-1.6.5.5-.6 1.3-1 2.3-1 1.6 0 3 1.2 3 2.8 0 1.2-.8 2.7-1.9 3.4z" fill="#c00"/>
        <path d="M275 403.6c0-.1-.1-.3-.3-.3-.1 0-.2.2-.2.3 0 .2.1.3.2.3.2 0 .3-.1.3-.3z" fill="#f33"/>
        <path d="M274.8 403.6c0-.1-.1-.2-.1-.2-.1 0-.2.1-.2.2s.1.2.2.2c0 0 .1-.1.1-.2z"/>
        <path d="M276.6 405.6c0-.2-.1-.3-.2-.3-.2 0-.3.1-.3.3 0 .1.1.3.3.3.1 0 .2-.2.2-.3z" fill="#f33"/>
        <path d="M276.4 405.6c0-.1 0-.2-.1-.2s-.1.1-.1.2 0 .2.1.2.1-.1.1-.2z"/>
        <path d="M275.3 406.8c0-.2-.1-.3-.3-.3-.1 0-.2.1-.2.3 0 .1.1.3.2.3.2 0 .3-.2.3-.3z" fill="#f33"/>
        <path d="M275.1 406.8c0-.1-.1-.2-.1-.2-.1 0-.2.1-.2.2s.1.2.2.2c0 0 .1-.1.1-.2z"/>
        <path d="M272.4 403.8c0-.1-.1-.3-.3-.3-.1 0-.2.2-.2.3 0 .2.1.3.2.3.2 0 .3-.1.3-.3z" fill="#f33"/>
        <path d="M272.2 403.8c0-.1-.1-.2-.1-.2-.1 0-.2.1-.2.2 0 .2.1.2.2.2 0 0 .1 0 .1-.2z"/>
        <path d="M276.7 403.3c0-.2-.1-.3-.2-.3-.2 0-.3.1-.3.3 0 .1.1.2.3.2.1 0 .2-.1.2-.2z" fill="#f33"/>
        <path d="M276.5 403.3c0-.2 0-.2-.1-.2s-.1 0-.1.2c0 .1 0 .2.1.2s.1-.1.1-.2z"/>
        <path d="M273.4 405.1c0-.1-.2-.3-.3-.3-.1.1-.2.2-.2.4 0 .1.1.2.3.2.1 0 .2-.1.2-.3z" fill="#f66"/>
        <path d="M273.2 405.1c0-.1-.1-.2-.2-.1 0 0-.1.1-.1.2s.1.2.2.2c0 0 .1-.1.1-.3z"/>
        <path d="M275.8 404.8c0-.2-.1-.3-.2-.3-.2 0-.3.1-.3.3 0 .2.1.3.3.3.1 0 .2-.1.2-.3z" fill="#f33"/>
        <path d="M275.6 404.8c0-.1 0-.2-.1-.2s-.1.1-.1.2 0 .2.1.2.1-.1.1-.2z"/>
        <path d="M273.7 402.8c0-.2-.1-.3-.2-.3s-.2.1-.2.3c0 .2.1.3.2.3s.2-.1.2-.3z" fill="#f33"/>
        <path d="M273.6 402.8c0-.1-.1-.2-.2-.2 0 0-.1.1-.1.2s.1.2.1.2c.1 0 .2-.1.2-.2z"/>
    </g>
</svg>
