<svg xmlns="http://www.w3.org/2000/svg" height="24" width="24">
    <g transform="matrix(1,0,0,-1,-264,408)" id="KDDI_D_">        <path d="M287.5 386.8c.7-.7.7-1.7 0-2.4-.6-.6-1.7-.6-2.3 0l-6.1 6.1c-.6.6-.6 1.7 0 2.3.7.7 1.7.7 2.4 0z" fill="#900"/>
        <path d="M285.1 385.1l-6 6c-.2.2-.4.5-.5.7 0-.4.1-.9.5-1.3l6.1-6.1c.6-.6 1.7-.6 2.3 0 .5.5.6 1.1.5 1.7-.1-.4-.2-.8-.5-1-.7-.7-1.7-.7-2.4 0z" fill="#600"/>
        <path d="M286.1 386.9c.6-.6.9-1.3.7-1.5-.3-.3-1 0-1.5.6l-5.5 5.4c-.6.6-.8 1.3-.6 1.5.3.3.9 0 1.5-.6z" fill="#c60"/>
        <path d="M286 397c0-6.1-4.9-11-11-11s-11 4.9-11 11 4.9 11 11 11 11-4.9 11-11z" fill="#333"/>
        <path d="M285.6 400c-.6 2-.8 1.8-.3-.2.1-.8.2-1.5.2-2.3 0-6.1-4.9-11-11-11-1.1 0-2.1.2-3.1.5-1.7.4-1.6.1.1-.4 1.1-.4 2.3-.6 3.5-.6 6.1 0 11 4.9 11 11 0 1-.1 2.1-.4 3z" fill="#666"/>
        <path d="M275.8 407.2c1.6 0 3.3-.5 4.6-1.1 1.1-.5 1-.1-.1.5-1.5.9-3.4 1.4-5.3 1.4-6.1 0-11-4.9-11-11 0-2.2.7-4.3 1.8-6 .6-.9.8-.7.3.2-.7 1.4-1.3 3.3-1.3 5 0 6.1 4.9 11 11 11z"/>
        <path d="M284.6 396.7c0-5.1-4.1-9.2-9.2-9.2s-9.2 4.1-9.2 9.2c0 5 4.1 9.1 9.2 9.1s9.2-4.1 9.2-9.1z" fill="#666"/>
        <path d="M284.3 396.8c0-5.1-4-9.1-9-9.1-5.1 0-9.1 4-9.1 9.1 0 5 4 9 9.1 9 5 0 9-4 9-9z" fill="#999"/>
        <path d="M284 397c0-5-4-9-9-9s-9 4-9 9 4 9 9 9 9-4 9-9z" fill="#666"/>
        <path d="M281 397c0-3.3-2.7-6-6-6s-6 2.7-6 6 2.7 6 6 6 6-2.7 6-6z" fill="#fff"/>
        <path d="M279.4 401.2c.8-1.1 1.4-2.4 1.4-3.9 0-3.3-2.8-6-6.1-6-1.7 0-3.3.7-4.4 1.9 1.1-1.4 2.8-2.2 4.7-2.2 3.3 0 6 2.7 6 6 0 1.6-.6 3.1-1.6 4.2z" fill="#ccc"/>
        <path d="M278 397c0-1.7-1.3-3-3-3s-3 1.3-3 3 1.3 3 3 3 3-1.3 3-3z" fill="#f60"/>
        <path d="M276.7 397.3c0-1.2-.9-2.2-2.1-2.2-1.2 0-2.1 1-2.1 2.2 0 1.1.9 2.1 2.1 2.1 1.2 0 2.1-1 2.1-2.1z" fill="#f90"/>
        <path d="M275.1 397.8c0-.6-.4-1-1-1s-1.1.4-1.1 1 .5 1.1 1.1 1.1c.6 0 1-.5 1-1.1z" fill="#ff0"/>
    </g>
</svg>
