<svg xmlns="http://www.w3.org/2000/svg" height="24" width="24">
    <g transform="matrix(1,0,0,-1,-264,408)" id="KDDI_D_">        <path d="M282.4 395.8s0 3.6.4 5.8c.4 2 2.1 5.2 2.1 5.2s-3.3-.1-7.1-3.1c-2.8-2.2-4.4-5.3-4.4-5.3M284.9 406.8s1.4.3 2.3.3" fill="none" stroke="#030" stroke-width="1.5" stroke-linecap="round" stroke-linejoin="round"/>
        <path d="M282.1 396s0 3.6.4 5.8c.4 2 2.1 5.2 2.1 5.2s-3.3-.1-7.1-3.1c-2.8-2.2-4.4-5.3-4.4-5.3M284.6 407s1.4.3 2.3.3" fill="none" stroke="#060" stroke-width="1.5" stroke-linecap="round" stroke-linejoin="round"/>
        <path d="M287.6 388.7c-1.4-3.7-5.5-5.6-9.2-4.3-3.7 1.4-5.6 5.5-4.2 9.2 1.3 3.7 5.4 5.6 9.1 4.2 3.7-1.3 5.6-5.4 4.3-9.1z" fill="#f03"/>
        <path d="M281.2 394c-.4-1-1.5-1.6-2.6-1.2-1 .4-1.6 1.6-1.2 2.6.4 1.1 1.6 1.6 2.6 1.2 1.1-.3 1.6-1.5 1.2-2.6z" fill="#f66"/>
        <path d="M280 395.3c-.2-.4-.6-.6-1-.5-.3.2-.5.6-.4 1 .1.3.6.5.9.4.4-.1.6-.6.5-.9z" fill="#fcc"/>
        <path d="M286.7 395.3c.1-1.1 0-2.2-.4-3.3-1.4-3.7-5.4-5.6-9.1-4.3-1.4.5-2.6 1.5-3.4 2.6.3-2.6 2-4.9 4.6-5.9 3.7-1.3 7.8.6 9.2 4.3.8 2.3.4 4.7-.9 6.6z" fill="#c03"/>
        <path d="M287.9 392c0-.6-.1-1.3-.4-2-1.4-3.9-5.8-6-9.9-4.5-1 .4-1.9.9-2.6 1.6.8-1.2 2-2.1 3.4-2.7 3.7-1.3 7.8.6 9.2 4.3.4 1.1.5 2.2.3 3.3z" fill="#903"/>
        <path d="M278.1 391.8c-.6-3.9-4.3-6.5-8.2-5.8-3.9.7-6.5 4.4-5.8 8.3.7 3.9 4.4 6.4 8.3 5.8 3.8-.7 6.4-4.4 5.7-8.3z" fill="#f03"/>
        <path d="M271 396c-.2-1.1-1.3-1.9-2.4-1.7-1.1.2-1.8 1.3-1.6 2.4.2 1.1 1.2 1.8 2.3 1.6 1.1-.2 1.9-1.2 1.7-2.3z" fill="#f66"/>
        <path d="M269.5 397c-.1-.4-.4-.7-.8-.6-.4.1-.7.4-.6.8.1.4.4.7.8.6.4-.1.7-.4.6-.8z" fill="#fcc"/>
        <path d="M276.1 398.1c.3-1 .4-2.1.2-3.3-.7-3.8-4.4-6.4-8.2-5.7-1.5.2-2.8.9-3.8 1.9.8-2.5 2.9-4.5 5.6-5 3.9-.7 7.6 1.9 8.2 5.8.5 2.4-.4 4.7-2 6.3z" fill="#c03"/>
        <path d="M277.9 395.2c.1-.7.1-1.4 0-2.1-.8-4.1-4.8-6.9-9-6.1-1 .1-2 .5-2.9 1.1 1-1 2.4-1.8 3.9-2.1 3.9-.7 7.6 1.9 8.2 5.8.3 1.2.2 2.3-.2 3.4z" fill="#903"/>
    </g>
</svg>
