<svg xmlns="http://www.w3.org/2000/svg" height="24" width="24">
    <g transform="matrix(1,0,0,-1,-264,408)" id="KDDI_D_">        <path d="M273.3 404c-1.8-.1-5.5-.5-7.1-2.5-1.5-2-1.6-4.9-1.5-6.5 0-.4 1.6-.2 1.7-.7.1-.5-1.3-1.6-1.1-2.1 1-2.8 3.7-5.8 9.4-5.8 7.7.1 8.5 9.4 9.5 9.6.9.2 2.2-1.6 2.7-1.3.9.4 1.1 6.4.1 6.9s-2.2-1.3-2.9-1.3c-1.2 0-2.8 1.7-4.3 2.4-1.5.8-3.6 1.4-6.5 1.3z" fill="#fff"/>
        <path d="M284 397c-1-.1-1.8-9-9.6-9.1-4 0-6.5 1.4-8.1 3.2-.7.8-.8.4-.1-.7 1.4-2.1 4-4 8.5-4 7.7.1 8.5 9.4 9.5 9.6.9.2.7 1.2-.2 1z" fill="#cc9"/>
        <path d="M284.2 396c.9.2 2.2-1.6 2.7-1.3.9.4 1.1 6.4.1 6.9s-2.2-1.3-2.9-1.3c-1.2 0-.9-4.5.1-4.3z" fill="#999" stroke="#999"/>
        <path d="M284.1 398.9l3.3.9M284.2 397.4l3.4-.4" fill="none" stroke="#fff"/>
        <path d="M273.3 404c-1.8-.1-5.5-.5-7.1-2.5-1.5-2-1.6-4.9-1.5-6.5 0 0 2.5 1 10.3 1 5.2 0 7.9-.3 8.9-.2.9.2.4 4.5-.2 4.5-1.2 0-2.4 1.7-3.9 2.4-1.5.8-3.6 1.4-6.5 1.3z" fill="#69c"/>
        <path d="M272.5 403.9c.1 0 .2 0 .2.1 0-.1-.1-.1-.2-.1zM272.5 403.9c-1.9-.2-4.9-.7-6.3-2.4-1.5-2-1.6-4.9-1.5-6.5 0 0 .2.1.7.2.2 1.7.3 4.1 1.3 5.7 1.3 2.1 4.1 2.7 5.8 3z" fill="#69c"/>
        <path d="M283.7 400.3c-1.2 0-2.4 1.7-3.9 2.4-1.3.7-3.2 1.3-5.7 1.3 2.1-.1 3.8-.7 5-1.5 1.3-.9 2.5-1.8 3.2-2.9.6-1.2 1-2.2.9-3.8h.7c.9.2.4 4.5-.2 4.5z" fill="#369"/>
        <path d="M274.1 404h-1.4 1.4zM272.5 403.9z" fill="#69c"/>
        <path d="M273.7 402.8c.9.2 2.3 1.3-.4 1.2-1.8-.1-5-.5-6.6-2.6-1.6-1.9-2.1-4.8-2-6.4 0 0 .7.3 2.6.6.2 1.4.1 3.1 1.2 4.6 1.1 1.3 3.6 2.2 5.2 2.6z" fill="#9cf"/>
        <path d="M279.8 402.7s-.1 2.3.5 2.9c.7.6 3.8-1.2 3.7-2.2-.1-1-2.3-2.1-2.3-2.1M281 389.7s.6-2.1 1.5-2.4c.8-.3 3 2.4 2.6 3.3-.5.9-2.9 1.1-2.9 1.1" fill="#999"/>
        <path d="M270.3 398.9c0-.8-.7-1.4-1.5-1.4-.7 0-1.4.6-1.4 1.4 0 .8.7 1.4 1.4 1.4.8 0 1.5-.6 1.5-1.4z" fill="#fff"/>
        <path d="M269.4 398.9c0-.4-.3-.7-.7-.7-.4 0-.7.3-.7.7 0 .4.3.7.7.7.4 0 .7-.3.7-.7z"/>
        <path d="M282.2 390.9l2.6-1.5M283.7 388l-2.2 2.1M280.5 402.5l1.3 2.8M283.4 404.2L281 402" fill="none" stroke="#fff" stroke-width=".75"/>
        <path d="M278.1 398.1c0-.4-.4-.7-.9-.7s-.9.3-.9.7c0 .4.4.7.9.7s.9-.3.9-.7zM275.2 399.3c0-.3-.4-.6-.9-.6-.6 0-1 .3-1 .6 0 .4.4.7 1 .7.5 0 .9-.3.9-.7zM280.5 397.5c0-.4-.4-.7-.9-.7s-.9.3-.9.7c0 .4.4.7.9.7s.9-.3.9-.7zM279.2 400.3c0-.5-.5-.9-1.1-.9-.7 0-1.2.4-1.2.9s.5.9 1.2.9c.6 0 1.1-.4 1.1-.9z" fill="#369"/>
        <path d="M279.8 402.9s-.1 2.1.5 2.7c.2.1.5.1.9 0" fill="none" stroke="#333" stroke-linecap="round"/>
        <path d="M284.1 400.3c-1.2 0-2.8 1.7-4.3 2.4-1.5.8-3.6 1.5-6.5 1.4-.4 0-.9 0-1.5-.1" fill="none" stroke="#000" stroke-linejoin="round"/>
        <path d="M287 401.6c-1 .5-2.2-1.3-2.9-1.3" fill="none" stroke="#333" stroke-linecap="round" stroke-linejoin="round"/>
        <path d="M265 398.7c-.4-1.3-.4-2.5-.4-3.4 0 0 1.7-.3 1.8-1 .1-.7-1.1-2.4-1.1-2.1 1-2.8 3.7-5.8 9.4-5.8 7.7.1 8.5 9.4 9.5 9.6.9.2 2.2-1.6 2.7-1.3.9.4 1.1 6.4.1 6.9" fill="none" stroke="#000" stroke-linecap="round" stroke-linejoin="round"/>
        <path d="M271.8 404c-1.8-.2-4.1-.7-5.5-2.6-.6-.9-1-1.8-1.3-2.7" fill="none" stroke="#333" stroke-linecap="round" stroke-linejoin="round"/>
        <path d="M281.2 405.6c1.1-.3 2.9-1.4 2.8-2.2-.1-1-1.9-2-1.9-2" fill="none" stroke="#000" stroke-linecap="round"/>
        <path d="M280.8 389.3s.8-1.7 1.7-2c.8-.3 2.7 2.3 2.6 3.3-.2 1.1-2.8 1.2-2.8 1.2" fill="none" stroke="#000"/>
        <path d="M264.3 395.2s1.9-.1 2.1-.9c.3-.8-1.4-2.3-1.4-2.3" fill="none" stroke="#039" stroke-linecap="round"/>
        <path d="M271.9 395.6l-.5-1.5s1.7-1.1 2.6-.9c.8.1 1.4 3.6.5 4.2-.8.5-3-.4-3-.4z" fill="#999"/>
        <path d="M271.9 396.2h2.9M274.6 394.4l-2.9.7" fill="none" stroke="#fff" stroke-width=".75"/>
        <path d="M271.7 393.8s1.4-.8 2.3-.6c.8.1 1.2 3.4.5 4.2-.7.8-2.8-.2-2.8-.2" fill="none" stroke="#000" stroke-linecap="round"/>
    </g>
</svg>
