<svg xmlns="http://www.w3.org/2000/svg" height="24" width="24">
    <g transform="matrix(1,0,0,-1,-264,408)" id="KDDI_D_">        <path d="M268.6 389.4c1.9-3 4.5-4.8 7.4-4.8 5.7 0 9.9 8.4 9.9 13.2 0 1.8 0 3.1-.6 4.2-.5 1-1.3 1.7-2.1 2.4-1.9 1.5-5.2 2.2-7.2 2.2s-5.3-.7-7.2-2.2c-1.7-1.4-3-2.9-3-6.6 0-2.4 1.1-5.7 2.8-8.4z" fill="red"/>
        <path d="M284.1 401.8c0 .8-.4 1.7-.5 2.3-.2.1-.3.2-.4.3-1.9 1.5-5.2 2.2-7.2 2.2s-5.3-.7-7.2-2.2c-1.7-1.4-3-2.9-3-6.6v-.2c1.5-3.3 4.5-4.7 9.3-4.6 7.4.2 9 5.1 9 8.8z" fill="#f33"/>
        <path d="M268.8 404.4c-1.3-1.1-2.4-2.3-2.8-4.5 1.8-2.4 5.6-3.6 10-3.4 6.8.3 8.1 4.5 7.3 7.8l-.1.1c-1.9 1.5-5.2 2.2-7.2 2.2s-5.3-.7-7.2-2.2z" fill="#f66"/>
        <path d="M270.5 404.7c-1.3-.8-2.4-2.4-1.6-3.8.9-1.4 3.8-2.4 6.7-2.4 5.9 0 7.5 3.1 7.4 4.7-.1 1.6-4 2.9-5.8 3-1.9.1-5-.3-6.7-1.5z" fill="#fc9"/>
        <path d="M271.9 405.1c-1-.5-1.8-1.6-1.1-2.5.6-1 2.8-1.6 5-1.6 4.4 0 5.6 2 5.5 3.1-.1 1-3 2-4.4 2-1.4.1-3.7-.2-5-1z" fill="#ff9"/>
        <path d="M285.5 401.6c-.3.6-.6 1.1-1 1.6 0 0 .1-1.9 0-3.4-.4-4.5-4.5-11.2-10-11.2-3.5 0-6.5 2.5-8.2 6.2.5-1.8 1.3-3.8 2.4-5.6 1-1.5 2.2-2.9 3.5-3.8 1.2-.9 2.4-1 3.8-1 5.7 0 9.9 8.6 9.9 13.4 0 1.6 0 2.8-.4 3.8z" fill="#c00"/>
        <path d="M285.1 402.3s.2-1.7 0-3.3c-.6-5.4-4.8-12.8-10.4-12.8-2.6 0-5 1.8-6.7 4.3 1.8-3.5 4.7-6.1 8-6.1 5.7 0 9.9 8.6 9.9 13.4 0 2.1-.1 3.5-.8 4.5z" fill="#900"/>
        <path d="M285.3 401.9c.4-.9.6-2 .6-3.6 0-4.7-4.6-13.7-10.4-13.7-1.6 0-3.1.6-4.4 1.7 1.5-1.4 3.1-2.3 4.9-2.3 5.7 0 10.2 9 10.2 13.8 0 1.8-.4 3.1-.9 4.1z" fill="#600"/>
        <path d="M270.4 395.9c0-.6-.3-1-.8-1s-.9.4-.9 1 .4 1.1.9 1.1.8-.5.8-1.1z" fill="#f66"/>
        <path d="M270.1 395.7c0-.4-.2-.7-.5-.7s-.6.3-.6.7c0 .4.3.7.6.7s.5-.3.5-.7z"/>
        <path d="M276.2 394.4c0-.6-.4-1.1-.9-1.1-.4 0-.8.5-.8 1.1 0 .6.4 1.1.8 1.1.5 0 .9-.5.9-1.1z" fill="#f66"/>
        <path d="M275.9 394.1c0-.3-.3-.6-.6-.6s-.5.3-.5.6c0 .4.2.7.5.7s.6-.3.6-.7z"/>
        <path d="M283.9 396.8c0-.6-.3-1.1-.8-1.1s-.9.5-.9 1.1c0 .6.4 1.1.9 1.1s.8-.5.8-1.1z" fill="#f33"/>
        <path d="M283.6 396.6c0-.4-.2-.7-.5-.7s-.6.3-.6.7c0 .3.3.7.6.7s.5-.4.5-.7z"/>
        <path d="M280.9 392.3c0-.6-.3-1.1-.8-1.1s-.9.5-.9 1.1c0 .6.4 1.1.9 1.1s.8-.5.8-1.1z" fill="#f33"/>
        <path d="M280.6 392.1c0-.4-.2-.7-.5-.7s-.6.3-.6.7c0 .3.3.7.6.7s.5-.4.5-.7z"/>
        <path d="M273.1 390.1c0-.7-.4-1.1-.9-1.1-.4 0-.8.4-.8 1.1 0 .6.4 1 .8 1 .5 0 .9-.4.9-1z" fill="#f33"/>
        <path d="M272.8 389.8c0-.4-.2-.7-.6-.7-.3 0-.5.3-.5.7 0 .4.2.7.5.7.4 0 .6-.3.6-.7z"/>
        <path d="M277.3 388c0-.6-.4-1.1-.9-1.1s-.8.5-.8 1.1c0 .6.3 1.1.8 1.1s.9-.5.9-1.1z" fill="red"/>
        <path d="M277 387.7c0-.4-.3-.7-.6-.7s-.5.3-.5.7c0 .4.2.7.5.7s.6-.3.6-.7z"/>
        <path d="M276 403.2l4.5-3.4-1.4 4.5 5.3.9-5.1 1.5.3 1.3-3.6-.8-3.6.8.4-1.3-5.2-1.5 5.3-.9-1.4-4.5z" fill="#090"/>
        <path d="M279.5 407.8l.1.2-3.6-.8.8-.2z" fill="#3c0"/>
        <path d="M284.4 405.2l-1.9.5-4.2-.7 1.2-3.6-3.5 3-4-2.9-.5-1.7 4.5 3.4 4.5-3.4-1.4 4.5zM268.9 405.6l-1.3-.4 5.3-.9.8.3z" fill="#060"/>
        <path d="M272.9 404.3l-1.4-4.5.8.7 1.4 4.1zM268.2 405.1l5.2 1.5-.3 1.3-.7.1.4-1.3-5.2-1.5z" fill="#3f0"/>
    </g>
</svg>
