<svg xmlns="http://www.w3.org/2000/svg" height="24" width="24">
    <g transform="matrix(1,0,0,-1,-264,408)" id="KDDI_D_">        <path d="M280.7 405c-1.8 3.2-7.5 3.2-9.2 0-1.4-2.8-5.2-10.3-6.4-12.9-1.5-3.3-.1-7.4 3.5-7.6 2.9-.1 12.5-.1 15 0 3.1.1 4.8 4.8 3.4 7.6-1.3 2.7-5 10.3-6.3 12.9z" fill="#fff"/>
        <path d="M287 392.1c-1.3 2.7-5 10.3-6.3 12.9-.8 1.4-2.4 2.2-4 2.3 1.2-.2 2-1.1 2.6-2.3 1.2-2.4 4.8-9.4 6-12.1 1.2-2.6.1-6.7-3-6.7h-12.5c-3.8 0-5.1 3.6-3.8 6.7 1.1 2.5.3 1.8-.9-.8-1.5-3.3-.1-7.4 3.5-7.6 2.9-.1 12.5-.1 15 0 3.1.1 4.8 4.8 3.4 7.6z" fill="#ccc"/>
        <path d="M280.5 396.8h-9v-12.5h9z"/>
        <path d="M280.5 387.3s-1-.2-2.5-.2-3.3.4-4.3.4-2.2-.2-2.2-.2v-1.1h9zM276 395.4c1.3 0 1.7.6 3.3.5.1 0 1.1-.1 1.2-.1v1.1h-7.2s1.5-1.5 2.7-1.5zM276.7 392.5c-.9-.4-1.9.3-2.9.4-.9.1-1.6 0-2.3-.2v-2.6c.3.3.9.8 1.3 1 1.5.5 3.7.2 4.4.4.7.1 1.8 0 1.8.6 0 .7-1.4.8-2.3.4z" fill="#333"/>
        <path d="M276.9 404c0-.5-.3-.9-.8-.9-.4 0-.7.4-.7.9s.3.9.7.9c.5 0 .8-.4.8-.9z" fill="#ccc"/>
        <path d="M276.5 403.8c0-.2-.2-.4-.4-.4-.1 0-.3.2-.3.4s.2.4.3.4c.2 0 .4-.2.4-.4z" fill="#666"/>
        <path d="M273.2 401.2c0-.5-.3-.9-.8-.9-.4 0-.7.4-.7.9s.3.9.7.9c.5 0 .8-.4.8-.9z" fill="#ccc"/>
        <path d="M272.8 401c0-.2-.2-.4-.4-.4s-.3.2-.3.4c0 .3.1.4.3.4.2 0 .4-.1.4-.4z" fill="#666"/>
        <path d="M276 399.2c0-.5-.4-.9-.8-.9s-.8.4-.8.9.4.9.8.9.8-.4.8-.9z" fill="#ccc"/>
        <path d="M275.6 399c0-.2-.2-.4-.4-.4s-.3.2-.3.4.1.4.3.4c.2 0 .4-.2.4-.4z" fill="#666"/>
        <path d="M281.2 399.3c0-.5-.4-.9-.8-.9-.5 0-.8.4-.8.9s.3.9.8.9c.4 0 .8-.4.8-.9z" fill="#ccc"/>
        <path d="M280.7 399.1c0-.2-.1-.4-.3-.4-.2 0-.4.2-.4.4s.2.4.4.4.3-.2.3-.4z" fill="#666"/>
        <path d="M283.6 393.8c0-.5-.4-.9-.8-.9-.5 0-.8.4-.8.9s.3.9.8.9c.4 0 .8-.4.8-.9z" fill="#ccc"/>
        <path d="M283.1 393.6c0-.2-.1-.4-.3-.4-.2 0-.4.2-.4.4s.2.4.4.4.3-.2.3-.4z" fill="#666"/>
        <path d="M283.3 389.4c0-.5-.4-.9-.8-.9s-.8.4-.8.9.4.9.8.9.8-.4.8-.9z" fill="#ccc"/>
        <path d="M282.8 389.3c0-.2-.1-.4-.3-.4-.2 0-.4.2-.4.4s.2.4.4.4.3-.2.3-.4z" fill="#666"/>
        <path d="M270.3 394.2c0-.5-.3-.9-.8-.9-.4 0-.8.4-.8.9s.4.9.8.9c.5 0 .8-.4.8-.9z" fill="#ccc"/>
        <path d="M269.9 394c0-.2-.2-.4-.4-.4s-.3.2-.3.4.1.4.3.4c.2 0 .4-.2.4-.4z" fill="#666"/>
        <path d="M268.8 389.7c0-.5-.3-.9-.8-.9-.4 0-.8.4-.8.9s.4.9.8.9c.5 0 .8-.4.8-.9z" fill="#ccc"/>
        <path d="M268.4 389.6c0-.3-.2-.4-.4-.4s-.3.1-.3.4c0 .2.1.4.3.4.2 0 .4-.2.4-.4z" fill="#666"/>
        <path d="M265.1 392.1c-1.5-3.3-.1-7.4 3.5-7.6 2.9-.1 12.5-.1 15 0 3.1.1 4.8 4.8 3.4 7.6-1.3 2.7-5 10.3-6.3 12.9-.9 1.6-2.8 2.4-4.6 2.4" fill="none" stroke="#000"/>
        <path d="M276.1 407.4c-1.9 0-3.8-.8-4.6-2.4-1.4-2.8-5.2-10.3-6.4-12.9" fill="none" stroke="#333" stroke-linecap="round"/>
    </g>
</svg>
