<svg xmlns="http://www.w3.org/2000/svg" height="24" width="24">
    <g transform="matrix(1,0,0,-1,-264,408)" id="KDDI_D_">        <path d="M288 389.6h-24v1.8h24z" fill="#090"/>
        <path d="M288 389.6h-3.6v1.8h3.6z" fill="#063"/>
        <path d="M288 389.6h-1.5v1.8h1.5z" fill="#030"/>
        <path d="M284.3 389.6h-1.7v1.8h1.7z" fill="#090"/>
        <path d="M282.4 389.6h-1.6v1.8h1.6z" fill="#063"/>
        <path d="M280.1 389.6h-1.6v1.8h1.6zM277.2 389.6h-1.6v1.8h1.6zM272.6 389.6h-2.2v1.8h2.2zM268.5 389.6h-1.7v1.8h1.7z" fill="#3c0"/>
        <path d="M265.5 389.6h-1.4v1.8h1.4z" fill="#6f0"/>
        <path d="M288 391.4h-24v1.9h24z" fill="#fc0"/>
        <path d="M273.7 391.4h-7.1v1.9h7.1z" fill="#ff3"/>
        <path d="M270.4 391.4h-3.8v1.9h3.8z" fill="#ff9"/>
        <path d="M288 394.3c0-.6-.4-1-1-1h-21.9c-.6 0-1 .4-1 1v1.6c0 .6.4 1 1 1H287c.6 0 1-.4 1-1z" fill="#600"/>
        <path d="M287 396.9h-21.2c.1-.3.5-.6.9-.6h21.2c-.2.4-.5.6-.9.6z" fill="#300"/>
        <path d="M287 396.9h-2.8c.2-.2 1-.7 1-1v-1.6c0-.3-.8-.8-1-1h2.8c.6 0 1 .4 1 1v1.6c0 .6-.4 1-1 1z" fill="#300"/>
        <path d="M276 394.8c0-.1-.2-.3-.4-.3h-9.3c-.3 0-.5.2-.5.3v.6c0 .2.2.4.5.4h9.3c.2 0 .4-.2.4-.4z" fill="#633"/>
        <path d="M266.9 394.6c-.5 0-1-.2-1-.5v-.6c0-.1.1-.2.2-.2H287c.6 0 1 .4 1 1v.3z" fill="#300"/>
        <path d="M264.2 393.8c.1-.3.5-.5.9-.5H287c.4 0 .7.2.9.5h-23.7z"/>
        <path d="M288.1 396.9v1c0 5.9-5.4 10.1-12 10.1h-.1c-6.6 0-12-4.2-12-10.1v-1zM264 389.6V388c0-2.2 1.8-4 4-4h16c2.2 0 4 1.8 4 4v1.6z" fill="#c60"/>
        <path d="M285.3 389.6v-.2c0-2.2-1.8-4-4-4h-16.4c.8-.8 1.9-1.4 3.1-1.4h16c2.2 0 4 1.8 4 4v1.6z" fill="#930"/>
        <path d="M286.5 389.6s0-1.4-.3-2.7c-.3-1.3-1.6-2.5-3.4-2.9h1.2c2.2 0 4 1.8 4 4v1.6z" fill="#630"/>
        <path d="M288.1 397.9c0 3.9-2.4 7.1-6 8.8.2-.7.4-1.5.4-2.3 0-3.1-2.2-5.9-5.7-7.5h11.3z" fill="#930"/>
        <path d="M288.1 397.9c0 2-.6 3.8-1.7 5.3 0-2.4-1-4.5-2.7-6.3h4.4z" fill="#630"/>
        <path d="M274.7 405c.6-1.2-.5-2.9-2.4-3.8-1.9-.9-3.9-.6-4.4.6-.6 1.3.5 3 2.4 3.8 1.9.9 3.9.6 4.4-.6z" fill="#f93"/>
        <path d="M271.9 405c-.2.5-1 .5-1.7.1-.8-.4-1.2-1.1-1-1.5.2-.4 1-.4 1.7 0 .8.4 1.2 1 1 1.4z" fill="#fc6"/>
        <path d="M274.6 388.3H264v-.3c0-.4.1-.7.2-1.1h10.4c.4 0 .7.3.7.7 0 .4-.3.7-.7.7z" fill="#f93"/>
    </g>
</svg>
