<svg xmlns="http://www.w3.org/2000/svg" height="24" width="24">
    <g transform="matrix(1,0,0,-1,-264,408)" id="KDDI_D_">        <path d="M264.7 387.7c.4-1.7 2.8-3.8 4.3-3.8h8.5c1.3 0 4.3 2 6.5 3.1.5.3 1 .5 1.4.7z" fill="#09f"/>
        <path d="M265.7 387.7H264c.4-1.7 2.8-3.8 4.3-3.8h.7c-1.4.6-2.9 2.3-3.3 3.8z" fill="#6cf"/>
        <path d="M281.4 387.7c-2.1-1.2-4.7-2.8-5.8-2.8h-6.5c-.2 0-3 .1-3.1.1.8-.6 1.7-1.1 2.3-1.1h9.2c1.3 0 4.3 2 6.5 3.1.5.3 1 .5 1.4.7z" fill="#36f"/>
        <path d="M266 385c.2-.2.4-.3.6-.4v-.1l.6-.3c.1 0 .1 0 .2-.1.1 0 .2-.1.4-.1s.4-.1.5-.1h.7c-.5.2-1 .6-1.5 1-.7.1-1.4.1-1.5.1z" fill="#39f"/>
        <path d="M285.7 391.4c-.5-.8-2.2-.6-3.1.4-.9 1.1-3.9 6.9-9.9 6.9-3 0-5.4-1.9-6.7-3.5-1.4-2-2-4.8-2-7.2v-.3h21.4c1.6.7 2.6.9 2.6.9v5.9s-1.8-2.2-2.3-3.1z" fill="#33f"/>
        <path d="M285.4 387.7c1.6.7 2.6.9 2.6.9v1.9c-.9-.5-2.5-1.6-4.9-1.6-1.8 0-3.6 1.4-5.2 1.7-1.3.3-4.9.6-7-.4-1.5-.8-2.4-1.9-3-2.5z" fill="#339"/>
        <path d="M271.4 388.5c-.5-.2-.9-.5-1.3-.8h11.5c-1.1.4-2.2 1-3.2 1.2-1.3.3-4.9.6-7-.4z" fill="#309"/>
        <path d="M266.3 390.5c1.5-.7 3.4.5 4.6 1.8 1.2 1.2 2.6 2.6 3.8 3.1 1.3.7 3 .9 4 1-1.5 1.2-3.5 2.3-6 2.3-.5 0-1-.1-1.5-.2-1.4-.8-2.8-2-3.5-3-1.1-1.4-2.9-4.2-1.4-5z" fill="#36f"/>
        <path d="M271.6 397.7c-.2.3-.8.3-1.4.2-1-.8-2-1.7-2.5-2.4-.4-.5-.9-1.2-1.2-1.8v-.2c.5-.4 2.3.3 3 .9 1.2.9 2.4 2.4 2.1 3.3z" fill="#39f"/>
        <path d="M269.5 391.3c0-1.1-.4-1.9-.8-1.9-.5 0-.9.8-.9 1.9 0 1 .4 1.8.9 1.8.4 0 .8-.8.8-1.8z"/>
        <path d="M266.7 402.3v2.4c0 1.4 1.2 2.7 2.7 2.7 1.6 0 2.9-1.9 2.9-4.1v-3.5M277.9 402.3v2.4c0 1.4-1.1 2.7-2.7 2.7s-2.9-1.9-2.9-4.1v-3.5" fill="none" stroke="#09f" stroke-width="1.2"/>
    </g>
</svg>
