<svg xmlns="http://www.w3.org/2000/svg" height="24" width="24">
    <g transform="matrix(1,0,0,-1,-264,408)" id="KDDI_D_">        <path d="M269.1 396.2s-2.1 4.2-2.5 6.9c-.3 2.8 1.2 4.3 3.1 4.3 1.2 0 2.5-1 2.8-2.4.3-1.4 1.1-7.5 1.1-7.5zM282.9 396.2s2.1 4.2 2.5 6.9c.3 2.8-1.2 4.3-3.1 4.3-1.2 0-2.5-1-2.8-2.4-.3-1.4-1.1-7.5-1.1-7.5z" fill="#ff6"/>
        <path d="M283.3 406.8c.4 0 .7 0 1.1-.2-.6.5-1.3.8-2.1.8-1.2 0-2.5-1-2.8-2.4-.3-1.4-1.1-7.5-1.1-7.5l1-.3c.1 1.3.8 6 1 7.2.4 1.4 1.6 2.4 2.9 2.4zM270.2 407.4h-.5c-1.9 0-3.4-1.5-3.1-4.3.4-2.7 2.5-6.9 2.5-6.9l1 .3c-.5 1-2.1 4.3-2.4 6.6-.3 2.5.9 4 2.5 4.3z" fill="#ffc"/>
        <path d="M276 398.2c1.1 0 2.5-.2 2.5-.2s.7 5.6 1 7c.3 1.4 1.6 2.4 2.8 2.4 2 0 3.5-1.5 3.1-4.3-.3-2.7-2.3-6.4-2.3-6.4s2.2-2.3 2.2-5.3-1.7-6.9-9.3-6.9c-7.6 0-9.2 3.9-9.2 6.9 0 3 2.2 5.3 2.2 5.3s-2 3.7-2.4 6.4c-.3 2.8 1.2 4.3 3.1 4.3 1.2 0 2.5-1 2.8-2.4.3-1.4 1-7 1-7s1.4.2 2.5.2z" fill="#ff6"/>
        <path d="M270.5 396.4s-1.6 4-2.1 6.2c-.4 1.8.1 3.1 1.2 3.1.7 0 1.6-.9 1.8-2.1.2-1.1.9-6.7.9-6.7zM281.6 396.4s1.6 4 2.1 6.2c.4 1.8-.1 3.1-1.2 3.1-.7 0-1.6-.9-1.8-2.1-.2-1.1-.9-6.7-.9-6.7z" fill="#f66"/>
        <path d="M276 397.9c5.3 0 6.5-1.1 7.1-1.7.6-.7 2.2-1.8 2.2-4.8s-1.7-6.9-9.3-6.9c-7.6 0-9.2 3.9-9.2 6.9 0 3 1.6 4.3 2.2 4.8.5.5 1.7 1.7 7 1.7z" fill="#ff6"/>
        <path d="M283 396.3c-.1.1-.2.2-.4.3.6-.7.4-2.2.2-3.9-.5-3-2.6-5.9-8.2-6.4-1 0-1.9-.1-2.9 0-.9.1-2.4-.3-1-.9 1.3-.5 3-.8 5.2-.8 7.6 0 9.3 3.9 9.3 6.9 0 3-1.6 4.1-2.2 4.8z" fill="#fc0"/>
        <path d="M283.6 395.7c.3-.8.7-1.8.7-3.2 0-3.3-1.7-7.5-9.3-7.5-2.1 0-3.7.3-5 .8.2-.1.4-.2.7-.4 1.3-.5 3-.8 5.2-.8 7.6 0 9.3 3.9 9.3 6.9 0 2.3-.9 3.5-1.6 4.2z" fill="#f90"/>
        <path d="M270.3 388.4c-.2 1-.5 1.6-.5 2.5 0 2.5 2.6 4.8 5.7 5.1 1.3.2 3.2 1.9.5 1.9-4 0-6.2-.9-7-1.7-.6-.6-2.2-2.5-2.2-4.8 0-1.2.2-2.6 1.1-3.8 1-1.4 2.6-.6 2.4.8z" fill="#ffc"/>
        <path d="M270.8 394.6c-.3-.5-.9-.7-1.2-.5-.4.3-.4.8-.2 1.3.3.5.9.7 1.3.5.3-.2.4-.8.1-1.3z" fill="#fff"/>
        <path d="M276 398.2c1.1 0 2.5-.2 2.5-.2s.7 5.6 1 7c.3 1.4 1.6 2.4 2.8 2.4 2 0 3.5-1.5 3.1-4.3-.3-2.7-2.3-6.4-2.3-6.4s2.2-2.3 2.2-5.3-1.7-6.9-9.3-6.9c-7.6 0-9.2 3.9-9.2 6.9 0 3 2.2 5.3 2.2 5.3s-2 3.7-2.4 6.4c-.3 2.8 1.2 4.3 3.1 4.3 1.2 0 2.5-1 2.8-2.4.3-1.4 1-7 1-7s1.4.2 2.5.2z" fill="none" stroke="#c63" stroke-linejoin="round"/>
        <path d="M271.6 392.2c0-.6-.5-1-1-1-.6 0-1 .4-1 1 0 .5.4 1 1 1 .5 0 1-.5 1-1zM280.4 392.2c0-.6.5-1 1-1 .6 0 1 .4 1 1 0 .5-.4 1-1 1-.5 0-1-.5-1-1z" fill="#c00"/>
        <path d="M279.9 388.1s-.6-1-2-.9c-1.4.1-1.9 2.4-1.9 2.4s-.4-2.3-1.8-2.4c-1.5-.1-2 .9-2 .9" fill="none" stroke="#c00" stroke-width=".996" stroke-linecap="round" stroke-linejoin="round"/>
    </g>
</svg>
