<svg xmlns="http://www.w3.org/2000/svg" height="24" width="24">
    <g transform="matrix(1,0,0,-1,-264,408)" id="KDDI_D_">        <path d="M269.6 406.8h2.6l-.3-1.2 1.4-.5-.2-1.6 1.3-.5v-1.4l1.6-.6-.3-1.4-2.6.2z" fill="#990"/>
        <path d="M269.6 406.2h2.1l-.2-1.1 1.1-.4-.2-1.5 1.1-.5-.1-1.3 1.4-.5-.3-1.3-2.1.1z" fill="#660"/>
        <path d="M282 398.4s.6 1.8 2 2.3c1.3.4 2.3-.4 2.8-.8.7-.7 1.3-2.7 1.3-2.7s-1.9 1.6-2.8 1.9c-1.4.3-3.3-.7-3.3-.7z" fill="#990"/>
        <path d="M284.1 399.6c-.6-.1-1.1-.5-1.5-.9.7.3 1.8.6 2.7.4.9-.3 2.8-1.9 2.8-1.9-.3.6-.7 1.3-1.1 1.7-.5.4-1.5 1.1-2.9.7z" fill="#660"/>
        <path d="M269 396.9h-3.6c-.9 0-1.4-1.1-1.4-2 0-.8 1-3.9 1-3.9l1-2 1 2-1 1v2.9l3.4-.7-1.2-6.3-.1-1.6-.5-2.1 2.3 1-.3 1.2.1 1.2 2.1 4.5s2.1-.4 3.4-.5c1.2-.1 3.7.7 3.7.7l.7-3.1-1.9-2.6-.3-1.3-1.4-1.4h2.8v1.1l.2 1.1 2.3 2.6.9 1.1 2.2-1.1-1.1-2.9-2-1.9h2.8l.5 1.4s1.6 3.3 1.6 3.9c0 .7-1.4 3.8-1.4 3.8s.4 1.2.4 2.2c-.1 1-.9 2.6-1.8 3.2-1.9 1.4-6.6.6-9.2 2-1.2.7-4 6.2-4 6.2s-.1 1.4-.8 1.4c-.6 0-.6-1.4-.6-1.4s-3.5-1.8-4.3-2.2c-.7-.4-.4-2.3.7-2.3h3.2z" fill="#f60"/>
        <path d="M265.1 403.6c.1.5 4.2 2.5 4.2 2.5l.1 1.9c-.6-.1-.6-1.4-.6-1.4s-3.5-1.8-4.3-2.2c-.5-.3-.5-1.5-.1-1.9.4 0 .7.8.7 1.1zM269.8 395.2l-.4-1-1.2-6.3-.1-1.6-.5-2.1.6.2c.1 1 .3 3.2.3 3.5.1.5 1.8 6.1 2 6.7.2.5-.7.6-.7.6zM267.1 396.9h-1.7c-.1 0-.3 0-.4-.1-.1 0-.2-.1-.3-.2-.1 0-.1-.1-.1-.1-.1 0-.1-.1-.1-.1l-.2-.2v-.1c-.2-.3-.3-.8-.3-1.2 0-.6.6-2.6.9-3.5-.1.8-.2 1.8-.3 2.2-.2.6.3 2 .7 2.3.2.1 1 .3 1.8.4.5 0 1 .6 0 .6zM269.1 402l-.7.1.5-5.3s.7.3.7 1.6c0 1.2-.5 3.6-.5 3.6zM279.3 393.5c-.3.2-.4-1.1-.6-1.3.1.1.2.1.2.1l.7-3.1-1.9-2.6-.3-1.3-1.4-1.4h1.1l.7 1.3s0 1.1.3 1.2c.3.1 1.9 2.7 2.1 3.1.2.3-.7 3.7-.9 4z" fill="#f90"/>
        <path d="M284.8 393s.4 1.2.4 2.2c-.1 1-.9 2.6-1.8 3.2-.3 0-.6-.3-.2-.9.4-.6.9-1.1.9-3s-1.9-3.2-2.4-4c-.3-.6-1-2.1-1.5-3l1.1 1.2.9 1.1z" fill="#c30"/>
        <path d="M284.8 393s0 .1.1.3h-.5l-1-1.6s1.9-2 1.9-2.4c0-.3-1.4-4.1-1.9-5.4h.7l.5 1.4s1.6 3.3 1.6 3.9c0 .7-1.4 3.8-1.4 3.8zM277.7 392c.3.5-1.5.3-3 .7-1.5.4-3 1.2-3 1.2l-.4-1.1-1.3-4.5 1.8 3.8s2.1-.4 3.4-.5c.6 0 1.7.2 2.5.4zM274.2 400.4c-1 .5-3 4.3-3.7 5.7.2-1 0-1.6.6-3 .5-1.3 2-3.2 2.9-3.4.9-.2 2-.2 2.8-.1-1 .2-1.9.4-2.6.8z" fill="#c30"/>
        <path d="M265 391l1-2 1 2-1 1zM269.6 386.4v.2l-1.5-.1v-.2l-.5-2.1 2.3 1zM278.8 385l.1.2-1.5.2v-.1l-1.4-1.4h2.8zM283.3 385.8l-2-1.9h2.8l.4 1.3z" fill="#990"/>
        <path d="M268.5 405c0-.3-.2-.5-.5-.5s-.5.2-.5.5c0 .2.2.5.5.5s.5-.3.5-.5z"/>
        <path d="M265.8 391.8l.8-1.7.4.9-1 1zM269.1 386.5v-1.6l.8.3-.3 1.2v.2zM278.3 385.3l-.5-1.4h1v1.1l.1.2zM283.2 383.9h.9l.4 1.3-.6.3z" fill="#660"/>
    </g>
</svg>
