<svg xmlns="http://www.w3.org/2000/svg" height="24" width="24">
    <g transform="matrix(1,0,0,-1,-264,408)" id="KDDI_D_">        <path d="M286.3 398.9v2.7c0 2.6-2.1 4.7-4.7 4.7-2.3 0-4.2-1.6-4.6-3.8-.4 0-.7.1-1 .1-.3 0-.6-.1-1-.1-.4 2.2-2.3 3.8-4.6 3.8-2.6 0-4.7-2.1-4.7-4.7v-2.7c-1.1-1.2-1.7-2.6-1.7-4.2 0-4.7 5.4-9.2 12-9.2s12 4.5 12 9.2c0 1.6-.6 3-1.7 4.2z" fill="#390"/>
        <path d="M265 393.9c0 1.6.6 3 1.7 4.2v3.5c0 1.8 1 2.8 2 3.4.7.4.5 1.2 0 1-1.7-.7-3-2.4-3-4.4v-2.7c-1.1-1.2-1.7-2.6-1.7-4.2 0-2.6 1.7-5.1 4.3-6.9-2.1 1.7-3.3 3.9-3.3 6.1z" fill="#3c0"/>
        <path d="M273.9 403.1c.2-.5.6-.5.9-.5h.2c-.3 1.8-1.7 3.2-3.5 3.6 1.5-1 2-1.7 2.4-3.1zM286.3 398.9v2.7c0 2.4-1.8 4.3-4.1 4.7 1.4-.9 2.8-1.4 2.9-4.2 0-2.1-.6-2.6-.6-2.6 1-1.1 1.7-2.6 1.7-4.1 0-4.7-5.4-9.2-12-9.2-1.4 0-2.8.2-4.1.6 1.8-.8 3.8-1.3 5.9-1.3 6.6 0 12 4.5 12 9.2 0 1.6-.6 3-1.7 4.2z" fill="#060"/>
        <path d="M280.7 405.9c.4.2-.1.4-.6.2-1.6-.5-2.8-1.9-3.1-3.5h-2s.2-.9.8-.9h1.4c.5 0 .6.4.6.4l.1.4c.3 1.5 1.4 2.8 2.8 3.4z" fill="#3c0"/>
        <path d="M271.4 393.3h9.2s-1.5-4-4.7-4c-3.1 0-4.5 4-4.5 4z" fill="red"/>
        <path d="M273 392.6h7.3c.2.4.3.7.3.7h-9.2s1.2-3.5 3.9-3.9c-1.6 1.1-2.3 3.2-2.3 3.2z" fill="#c00"/>
        <path d="M269.6 393.3c0-1.1-.8-1.9-1.8-1.9-1.1 0-1.9.8-1.9 1.9 0 1 .8 1.8 1.9 1.8 1 0 1.8-.8 1.8-1.8zM282.4 393.3c0-1.1.8-1.9 1.9-1.9 1 0 1.8.8 1.8 1.9 0 1-.8 1.8-1.8 1.8-1.1 0-1.9-.8-1.9-1.8z" fill="#6f0"/>
        <path d="M286.1 393.3c0 .2-.1.4-.1.6-.2-.8-.6-1.6-1-2.3.6.2 1.1.9 1.1 1.7z" fill="#0c0"/>
        <path d="M273.4 401.4c0-1.6-1.3-2.9-2.9-2.9-1.5 0-2.8 1.3-2.8 2.9 0 1.6 1.3 2.9 2.8 2.9 1.6 0 2.9-1.3 2.9-2.9z" fill="#fff"/>
        <path d="M271.4 404.1c.8-.5 1.4-1.4 1.4-2.5 0-1.6-1.3-2.8-2.8-2.8-.3 0-.6 0-.9.1.4-.3.9-.4 1.4-.4 1.6 0 2.9 1.3 2.9 2.9 0 1.3-.8 2.4-2 2.7z" fill="#ccc"/>
        <path d="M272 401.4c0-.8-.7-1.5-1.5-1.5s-1.4.7-1.4 1.5.6 1.4 1.4 1.4c.8 0 1.5-.6 1.5-1.4z"/>
        <path d="M270.3 401.7c0-.2-.1-.4-.3-.4-.2 0-.3.2-.3.4s.1.4.3.4c.2 0 .3-.2.3-.4z" fill="#666"/>
        <path d="M284.3 401.4c0-1.6-1.3-2.9-2.8-2.9-1.6 0-2.9 1.3-2.9 2.9 0 1.6 1.3 2.9 2.9 2.9 1.5 0 2.8-1.3 2.8-2.9z" fill="#fff"/>
        <path d="M282.3 404.1c.9-.5 1.5-1.4 1.5-2.5 0-1.6-1.3-2.8-2.9-2.8-.3 0-.6 0-.9.1.5-.3.9-.4 1.5-.4 1.5 0 2.8 1.3 2.8 2.9 0 1.3-.8 2.4-2 2.7z" fill="#ccc"/>
        <path d="M282.9 401.4c0-.8-.6-1.5-1.4-1.5-.8 0-1.5.7-1.5 1.5s.7 1.4 1.5 1.4 1.4-.6 1.4-1.4z"/>
        <path d="M281.3 401.7c0-.2-.2-.4-.4-.4s-.3.2-.3.4.1.4.3.4c.2 0 .4-.2.4-.4z" fill="#666"/>
    </g>
</svg>
