<svg xmlns="http://www.w3.org/2000/svg" height="24" width="24">
	<g transform="matrix(1,0,0,-1,-261,400)" id="KDDI_D_">
		<path d="M273.1 396.1c9.2 0 11.6-4 11.6-9.6 0-3.7-4.8-7.2-7.9-7.8-2.3-.5-5.1-.5-7.3 0-3.5.7-7.9 4.1-7.9 7.8 0 5.1 2.3 9.6 11.5 9.6z" fill="#fc6"/>
		<path d="M271.8 378.3s5.7 1.5 8 5.5c1.3 2.3 1.6 6.1 2.8 6.4 1.2.2 2.8-3.2 1.3-6-1.4-2.6-5.7-5.8-12.1-5.9z" fill="#c93"/>
		<path d="M265.6 391.5c.9 1.1 3.9 2.5 4.7.9.4-1-3-5.7-5-5.4-1.9.3-1.2 2.8.3 4.5z" fill="#ff9"/>
		<path d="M273.1 396.1c8.7 0 11.6-4 11.6-9.6 0-4.2-4.8-7.2-7.9-7.8-2.3-.5-5.1-.5-7.3 0-3.5.7-7.9 3.7-7.9 7.8 0 5.1 2.9 9.6 11.5 9.6z" fill="none" stroke="#c33" stroke-width=".996"/>
		<path d="M264 392.8c0 3.6 1 6.8 1 6.8l4.4-5.1" fill="#f63"/>
		<path d="M264 392.8c0 3.6 1 6.8 1 6.8l4.7-5.8" fill="none" stroke="#c33" stroke-width="1.047" stroke-linejoin="round"/>
		<path d="M271.5 395.6v-2.8" fill="none" stroke="#c33" stroke-width=".996"/>
		<path d="M282.4 392.8c0 3.6-1.1 6.8-1.1 6.8l-4.4-5.1" fill="#f63"/>
		<path d="M282.4 392.8c0 3.6-1.1 6.8-1.1 6.8l-4.7-5.8" fill="none" stroke="#c33" stroke-width="1.047" stroke-linejoin="round"/>
		<path d="M274.8 395.6v-2.8" fill="none" stroke="#c33" stroke-width=".996"/>
		<path d="M268.6 388.5c0-.7-.5-1.2-1.1-1.2-.7 0-1.2.5-1.2 1.2 0 .6.5 1.1 1.2 1.1.6 0 1.1-.5 1.1-1.1zM277.8 388.5c0-.7.5-1.2 1.1-1.2.6 0 1.1.5 1.1 1.2 0 .6-.5 1.1-1.1 1.1-.6 0-1.1-.5-1.1-1.1z"/>
		<path d="M266.3 385.1l-4.9 2.9M266.2 383.5l-4.5-2.4M280.1 385.1l4.8 2.9M280.2 383.5l4.5-2.4" fill="none" stroke="#333" stroke-width=".996"/>
		<path d="M277.4 383.4s-.6-1.1-2.2-1c-1.5.2-2 2.8-2 2.8s-.5-2.6-2.1-2.8c-1.6-.1-2.2 1-2.2 1" fill="none" stroke="#000" stroke-width=".996" stroke-linecap="round" stroke-linejoin="round"/>
	</g>
</svg>
