<svg xmlns="http://www.w3.org/2000/svg" height="24" width="24">
    <g transform="matrix(1,0,0,-1,-264,408)" id="KDDI_D_">        <path d="M280.8 383.9l3.5 5.5v12.4c0 3.9-3.1 6.1-7 6.1h-1c-3.8 0-7-2.2-7-6.1v-17.9z" fill="#39f"/>
        <path d="M277.2 407.9h-.9c-3.8 0-7-2.2-7-6.1h.9c0 3.9 3.1 6.1 7 6.1z" fill="#6cf"/>
        <path d="M277.3 407.9s-.5-.3.1-.6c1.8-1 3-2.9 3-5.5 0 0 .4-8-1.1-12.3-6.5-1.6-6.6-5.6-6.6-5.6h7.8l3.8 5.5v12.4c0 3.9-3.1 6.1-7 6.1z" fill="#36f"/>
        <path d="M280.4 407.3c-.7.3-1.6.2-.8-.3 1.6-1 2.6-2.8 2.6-5.2v-10.9c0-4.6-7.8-7-7.8-7h7.8c.9 0 2.2.8 2.2 2.8V401.8c0 3-1.8 4.8-4 5.5z" fill="#33f"/>
        <path d="M269.8 398.1s-2.8-.3-4.1-1.8c-1.9-2-1.8-5-1.3-5 1.1 0 1.6 1.5 2.4 1.9.7.4 2.9.2 2.9.2z" fill="#39f"/>
        <path d="M264.4 391.3c1.1 0 1.6 1.5 2.4 1.9.7.4 2.6.2 2.6.2l.2 1s-2.1.1-2.8-.3c-.8-.4-1.3-1.9-2.4-1.9-.1 0-.2.3-.3.7-.1-1 .1-1.6.3-1.6zM282.5 398.1s2.6-.3 4-1.8c1.9-2 1.8-5 1.2-5-1.1 0-1.6 1.5-2.3 1.9-.8.4-2.9.2-2.9.2z" fill="#36f"/>
        <path d="M287.7 392.1c-1.1 0-1.6 1.5-2.3 1.9-.8.4-2.9.2-2.9.2v-.8s2.1.2 2.9-.2c.7-.4 1.2-1.9 2.3-1.9.2 0 .4.6.3 1.5 0-.5-.2-.7-.3-.7zM266.8 394.1h-.1v-1s0 .1.1.1c.7.4 2.6.2 2.6.2l.2 1s-2.1.1-2.8-.3z" fill="#33f"/>
        <path d="M274 400.9c-2.5 0-3.7-.7-3.7-.7v-13c1.1-.7 2.3-1.1 3.7-1.1 4.8 0 6.6 3.3 6.6 7.4 0 4.1-2.8 7.4-6.6 7.4z" fill="#cff"/>
        <path d="M272.3 399c-1.3 0-2-.5-2-.5V390c.6-.5 1.3-.8 2-.8 2.7 0 3.7 2.2 3.7 4.9s-1.6 4.9-3.7 4.9z" fill="#fff"/>
        <path d="M279.9 397c-.5 1-1.1 1.8-1.9 2.4.7-.8 1.1-1.8 1.4-2.8.2-.7.3-1.4.3-2.1 0-4.1-1.8-7.4-6.7-7.4-.9 0-1.8.2-2.7.6v-.5c1.1-.7 2.3-1.1 3.7-1.1 4.8 0 6.6 3.3 6.6 7.4 0 1.3-.2 2.5-.7 3.5z" fill="#9cf"/>
        <path d="M275.1 403.5c0-.6-.4-1.1-1-1.1s-1.1.5-1.1 1.1c0 .6.5 1.1 1.1 1.1.6 0 1-.5 1-1.1z" fill="#003"/>
        <path d="M270.3 401.7c-1.4 0-4.7-.4-4.7-1.9s3.6-1.8 4.7-1.8" fill="#fc3"/>
        <path d="M270.3 400.6v1.1c-1.4 0-4.7-.4-4.7-1.9 0-.4.3-.8.8-1.1v.1c0 1.2 2.3 1.7 3.9 1.8z" fill="#ff6"/>
        <path d="M273.3 384.5c.3.3.5.7.5 1.1 0 1.2-1.3 2.2-3 2.2s-3-1-3-2.2c0-.4.2-.8.5-1.1z" fill="#fc3"/>
        <path d="M271.7 386.9c.7 0 1.3-.1 1.9-.4-.5.7-1.6 1.3-2.8 1.3-1.7 0-3-1-3-2.2 0-.4.2-.8.5-1.1h.4v.3c0 1.2 1.3 2.1 3 2.1z" fill="#ff6"/>
        <path d="M282.5 384.5c.3.3.5.7.5 1.1 0 1.2-1.3 2.2-3 2.2-1.6 0-3-1-3-2.2 0-.4.2-.8.5-1.1z" fill="#fc3"/>
        <path d="M280.9 386.9c.7 0 1.4-.1 1.9-.4-.5.7-1.5 1.3-2.8 1.3-1.6 0-3-1-3-2.2 0-.4.2-.8.5-1.1h.4v.3c0 1.2 1.3 2.1 3 2.1z" fill="#ff6"/>
        <path d="M268.3 384.5h5c.3.3.5.7.5 1.1 0 .6-.3 1.1-.8 1.5" fill="none" stroke="#33f" stroke-linecap="round"/>
        <path d="M270.3 401.7c-1.4 0-4.7-.4-4.7-1.9s3.6-1.8 4.7-1.8" fill="none" stroke="#36f" stroke-width="1.4"/>
        <path d="M273 387.1c-.6.4-1.3.7-2.2.7-1.7 0-3-1-3-2.2 0-.4.2-.8.5-1.1" fill="none" stroke="#36f" stroke-linecap="round"/>
        <path d="M277.5 384.5h5c.3.3.5.7.5 1.1 0 .6-.3 1.1-.8 1.5" fill="none" stroke="#33f" stroke-linecap="round"/>
        <path d="M282.2 387.1c-.6.4-1.3.7-2.2.7-1.6 0-3-1-3-2.2 0-.4.2-.8.5-1.1" fill="none" stroke="#36f" stroke-linecap="round"/>
    </g>
</svg>
