<svg xmlns="http://www.w3.org/2000/svg" height="24" width="24">
    <g transform="matrix(1,0,0,-1,-264,408)" id="KDDI_D_">        <path d="M268.7 407.3h-4" fill="none" stroke="#333" stroke-width="1.3" stroke-linecap="round"/>
        <path d="M271.4 402.4l-.4 2.6-2.3 2.3" fill="none" stroke="#000" stroke-width="1.3" stroke-linecap="round"/>
        <path d="M267.3 404.8h-2.2" fill="none" stroke="#333" stroke-width="1.3" stroke-linecap="round"/>
        <path d="M269.9 401.3l-.7 2.1-1.9 1.4" fill="none" stroke="#000" stroke-width="1.3" stroke-linecap="round"/>
        <path d="M267.1 388.8h-2.5M269.6 394.4l-2.5-5.6" fill="none" stroke="#333" stroke-width="1.3" stroke-linecap="round"/>
        <path d="M274.8 396.1l-5.2-1.7" fill="none" stroke="#666" stroke-width="1.3" stroke-linecap="round"/>
        <path d="M272.3 385.9l-1.8-1.3M272.3 392.4v-6.5" fill="none" stroke="#333" stroke-width="1.3" stroke-linecap="round"/>
        <path d="M276 394l-3.7-1.6" fill="none" stroke="#666" stroke-width="1.3" stroke-linecap="round"/>
        <path d="M283.1 386.7v-2.1" fill="none" stroke="#333" stroke-width="1.3" stroke-linecap="round"/>
        <path d="M278.1 388l5-1.3" fill="none" stroke="#666" stroke-width="1.3" stroke-linecap="round"/>
        <path d="M278.1 392.3V388" fill="none" stroke="#333" stroke-width="1.3" stroke-linecap="round"/>
        <path d="M288 393.2c0-2-2.4-3.7-5.4-3.7-4.5 0-5.3 1.7-5.3 3.7 0 2.1 1.2 3.7 5.3 3.7 3 0 5.4-1.6 5.4-3.7z"/>
        <path d="M278.2 393.6c.8.9 2.2 1.4 4.6 1.4 1.4 0 2.6-.4 3.6-1 .7-.4 1.1 1 .2 1.7-1 .7-2.4 1.2-4 1.2-3.5 0-4.9-1.2-5.2-2.8-.1-.3.4-1 .8-.5z" fill="#333"/>
        <path d="M281.1 396.8v-4.1h1.2v4.2c-.4 0-.8 0-1.2-.1z" fill="#333"/>
        <path d="M281.1 394.9c.4 0 .8.1 1.2.1v1.9h-.2c-.3 0-.6 0-.9-.1h-.1z" fill="#666"/>
        <path d="M283.8 396.8v-4.1h1.2v3.8c-.4.2-.8.3-1.2.3z" fill="#333"/>
        <path d="M283.8 396.8v-1.9c.4 0 .8-.1 1.2-.2v1.8c-.1.1-.3.1-.4.2-.2 0-.4.1-.6.1h-.2z" fill="#666"/>
        <path d="M279.4 396.8c.5-1.5-.2-3.2-1.5-3.6-1.4-.4-2.9.5-3.4 2.1-.5 1.5.2 3.2 1.6 3.6 1.3.4 2.8-.5 3.3-2.1z"/>
        <path d="M275.8 397.6c1.4.4 2.9-.5 3.4-2.1.1-.3.1-.6.1-.9.3.6.4 1.4.1 2.2-.5 1.6-2 2.5-3.3 2.1-1.1-.4-1-1.5-.3-1.3z" fill="#333"/>
        <path d="M276 403.4c-.9 1.2-2.1 1.7-3.4 1.4-1.4-.2-3.3-3.7-4.1-4.3-.8-.7-2.1-2-1.3-3.1.6-.9 2.9-1.2 4.5-.9 1.3.2 4.8 1.2 5.1 2.7.2 1.4-.1 3.2-.8 4.2z" fill="#333"/>
        <path d="M276.8 399.2c.1.8 0 1.9-.2 2.8-.8.6-1.7.8-2.8.7-1.3-.2-3.2-2.9-3.9-3.5-.8-.5-2-1.5-1.3-2.4l.3-.3c.9-.2 2-.2 2.8 0 1.3.2 4.8 1.2 5.1 2.7z"/>
        <path d="M273.8 404.1c.3.2.9.1 1.3.2-.7.5-1.6.7-2.5.5-1.4-.2-3.3-3.7-4.1-4.3-.2-.2-.5-.4-.7-.7.4 0 1.2-.1 1.6.1 1.2.7 3 3.7 4.4 4.2z" fill="#666"/>
    </g>
</svg>
