<svg xmlns="http://www.w3.org/2000/svg" height="24" width="24">
    <g transform="matrix(1,0,0,-1,-264,408)" id="KDDI_D_">        <path d="M287.5 393.3c0-4.8-5.2-8.6-11.5-8.6-6.4 0-11.6 3.8-11.6 8.6 0 5.6 5.2 8.7 11.6 8.7 6.3 0 11.5-3.1 11.5-8.7z" fill="#f99"/>
        <path d="M286.5 397.2c-.6 1-2.2 1.7-1.7-.5.2-1 .5-3.5-.4-5.3-1.4-2.9-5.1-6.3-11-6.5.2 0 2.3-.2 2.6-.2 6.3 0 11.5 3.8 11.5 8.6 0 1.5-.3 2.8-1 3.9z" fill="#f66"/>
        <path d="M266.9 398.1s-.9 2.4-.6 5.2c.1 2 2.3 4.1 2.3 4.1s3.1-2.1 3.1-6.6M282.5 400.1c1.1-.6 2.7-1.7 2.7-1.7s.8 2.1.6 4.9c-.2 2-2.4 4.1-2.4 4.1s-3-1.8-3-6.3c0 0 .9-.4 2.1-1z" fill="#f99"/>
        <path d="M283.8 399.3s.7 1.5.6 3.1c-.1 1.4-1.1 2.9-1.1 2.9s-1.7-1.6-1.7-4.7zM268.2 399.3s-.7 1.5-.6 3.1c.1 1.4 1.1 2.9 1.1 2.9s1.7-1.6 1.7-4.7z" fill="#f63"/>
        <path d="M269 404.9c-.2.2-.3.4-.3.4s-1-1.5-1.1-2.9c-.1-1.6.6-3.1.6-3.1l.4.3c-.2.5-.5 1.6-.5 2.8.1 1 .6 2 .9 2.5zM283.3 405.3s-1.7-1.6-1.7-4.7l.5-.3c.1 2.5 1.2 3.9 1.6 4.4l-.4.6z" fill="#c60"/>
        <path d="M271.9 397.8c.8-.9-.2-1.6-1.4-2.7s-2.2-2.1-3.1-1.1c-.8.9-.4 2.5.8 3.6 1.2 1 2.8 1.2 3.7.2z" fill="#fcc"/>
        <path d="M280.7 390.3c0-1.7-2-3.1-4.5-3.1s-4.6 1.4-4.6 3.1c0 1.7 2.1 3.1 4.6 3.1 2.5 0 4.5-1.4 4.5-3.1z" fill="#c33"/>
        <path d="M280.4 390.5c0-1.7-2-3-4.4-3-2.4 0-4.4 1.3-4.4 3 0 1.6 2 2.9 4.4 2.9 2.4 0 4.4-1.3 4.4-2.9z" fill="#f66"/>
        <path d="M275.3 390.3c0-.6-.5-1-1-1-.6 0-1 .4-1 1 0 .5.4 1 1 1 .5 0 1-.5 1-1zM276.7 390.3c0-.6.5-1 1-1 .6 0 1 .4 1 1 0 .5-.4 1-1 1-.5 0-1-.5-1-1zM271.5 394.2c0-.6-.4-1-1-1s-1 .4-1 1c0 .5.4 1 1 1s1-.5 1-1zM280.5 394.2c0-.6.4-1 1-1s1 .4 1 1c0 .5-.4 1-1 1s-1-.5-1-1z"/>
        <path d="M285.3 398.8c.2.9.6 2.6.5 4.5-.2 2-2.4 4.1-2.4 4.1s-2.8-1.9-3-5.9c-1.4.3-2.9.5-4.4.5-1.6 0-3-.2-4.4-.5-.2 4-3 5.9-3 5.9s-2.2-2.1-2.3-4.1c-.2-1.9.1-3.6.4-4.5-1.4-1.4-2.3-3.2-2.3-5.5 0-4.8 5.2-8.6 11.6-8.6 6.3 0 11.5 3.8 11.5 8.6 0 2.3-.8 4.1-2.2 5.5z" fill="none" stroke="#930" stroke-linejoin="round"/>
    </g>
</svg>
