<svg xmlns="http://www.w3.org/2000/svg" height="24" width="24">
    <g transform="matrix(1,0,0,-1,-264,408)" id="KDDI_D_">        <path d="M288 384h-24v24h24z" fill="#cff"/>
        <path d="M288 384h-24v11.1h24z" fill="#9cf"/>
        <path d="M288 384h-24v9.3h24z" fill="#39f"/>
        <path d="M288 384h-24v7.6h24z" fill="#06f"/>
        <path d="M288 384h-24v3.9h24z" fill="#00c"/>
        <path d="M288 384v7.4s-7.4 0-13.9-2.2c-4.3-1.4-8.6-5.2-8.6-5.2z" fill="#ffc"/>
        <path d="M288 384v5.9s-6 .4-12.5-1.8c-4.3-1.4-7.6-4.1-7.6-4.1z" fill="#cc9"/>
        <path d="M288 386.2h-5.6v1.6h5.6z" fill="#996"/>
        <path d="M277.9 386.1l5.4.1-.8 2.3-.2 12.4.7 2.3-2.9.2-1.3-.3s1.6-1.5 1.8-3.3c.3-1.8-.1-10.9-.4-11.5-.3-.7-2.3-2.2-2.3-2.2z" fill="#633"/>
        <path d="M287.2 402.6c.2 0 .5-.1.8-.1v1.6c-1 .4-2 .4-2.3.4-.7 0 1.3 1 2.3 1.9v1.6h-1.3c-1.2-.2-2.3-1.9-2.3-1.9s0 1.3-1 1.9h-2.1c-1.1-.5-1.7-1.7-1.7-1.7s-.7.9-1.6 1.7h-3.9c-.7-.9-.9-1.9-.9-1.9s-1.1 1.2-2.2 1.9h-3c.5-.5 1.1-1 1.5-1.4.8-.6 1-.3 2.8-1.8 0 0-3.3.2-4.6-.6-2.5-1.7-2.5-4.5-2.5-4.5s2.6 1.9 4 2.2c1.5.4 4.7.4 4.7.4s-1.6-.8-3.3-2.3c-1.6-1.3-1.5-3.6-1.5-3.6s2.6 1.4 3.5 2.2c.8.7 3.7 2.9 3.7 2.9l1.5-2.3 1.7 2.2s1.5-1.8 3.4-3.1c1.8-1.3 3.8-2 3.8-2s-1.2 2.3-2.1 3.8c-.8 1.2-1.7 2.3-1.7 2.3s3.1.5 4.3.2z" fill="#093"/>
        <path d="M282.4 402l3.8-5.1-3.7 3.4z" fill="#063"/>
        <path d="M283.3 408s.1-.9-.2-1.7c-.3-.7-.8-1.7-.8-1.7s1.7.3 1.9 1.2c.2.9-.9 2.2-.9 2.2zM269.7 403.5s2.9.9 4 .4c1.1-.4 1.7-1.6 1.7-1.6z" fill="#033"/>
        <path d="M272.5 403.5s-3.5-.1-4-.6c-.6-.4-2.3-2.3-2.3-2.3s2.2 1.3 3.8 1.6c1.6.2 4.3.3 4.3.3s-1.1.7-1.8 1zM275.9 401.9s-2.8-1.4-3.3-1.9c-.6-.4-3.2-3.3-3.2-3.3s2.8 1.6 3.8 2.4c1 .8 2.7 2.8 2.7 2.8zM274.2 405.1s2.1 1 2.4 1c.3 0 2.8-.7 2.8-.7s-1.2 1.7-2.5 1.7-2.7-2-2.7-2z" fill="#063"/>
        <path d="M275.2 403.1l2.5.6 1.8 1.4 2.1-1.5 3-.3-1.7-.9.1-1.2-1.9 1.3-2.8-1.5.3 1.5-4-1.9 3 2.2z" fill="#033"/>
        <path d="M280.5 400.9c0-.6-.5-1.1-1.1-1.1-.6 0-1.1.5-1.1 1.1 0 .6.5 1.1 1.1 1.1.6 0 1.1-.5 1.1-1.1z" fill="#930"/>
        <path d="M281.2 399.1c0-.6-.5-1.1-1.1-1.1-.7 0-1.2.5-1.2 1.1 0 .6.5 1.1 1.2 1.1.6 0 1.1-.5 1.1-1.1z" fill="#c90"/>
        <path d="M271.1 408H269.4c.6-.3 1.2-.7 1.4-.9.5-.5 2.4-1.8 2.4-1.8s-1.2 2.2-2.1 2.7zM288 407.4c-.4-.1-.7-.3-1-.3-.6-.3-2.1-1.7-2.1-1.7s.1-.9.5-.6c.2.2 1.5 1.1 2.6 1.9zM288 403.1c-.8.3-1.5.6-2 .6-1.2.1-4.1-.8-4.1-.8s1.5-.4 2.3-.4c.4 0 2.3 0 3.8-.1z" fill="#063"/>
    </g>
</svg>
