<svg xmlns="http://www.w3.org/2000/svg" height="24" width="24">
    <g transform="matrix(1,0,0,-1,-264,408)" id="KDDI_D_">        <path d="M277.4 386.9h-2.3v3.5h2.3z" fill="#060"/>
        <path d="M276.1 384.5s-1.9.3-3.8.1c-1.2.5-1.8 2.6-3.6 3.3-1.7.7-4.6.2-4.6.2s1.2 2.6 4 3.3c4.8 1.1 8-3.7 8-3.7z" fill="#090"/>
        <path d="M276.1 386.1s-1.3 1.4-3.2 1.8c-1.3.3-2.3 1.6-4 1.9-1.7.4-3.4-.8-3.4-.8s.8 1.5 2.7 1.5c2.7 0 3.3-1.5 4.9-1.8 1.9-.4 3-2.1 3-2.1z" fill="#3c0"/>
        <path d="M268.5 387.3c1.7-.7 2.6-2.6 3.8-3 2.1.1 3.8.2 3.8.2v1.2s-1.6-.7-3.6-.2c-1.7.5-1.8 2.5-4.3 3.2-1.2.3-2.9-.1-4.1-.6 0 0 2.7-.1 4.4-.8z" fill="#060"/>
        <path d="M272.3 384.3c1.9-.8 3.8.2 3.8.2v.9c-.6-.3-2.2-.8-3.5-.5-.4.1-1.1.4-1.9.7.5-.6 1-1.1 1.6-1.3z" fill="#033"/>
        <path d="M276 384.5s2 .3 3.8.1c1.3.5 1.9 2.6 3.6 3.3 1.7.7 4.7.2 4.7.2s-1.2 2.6-4 3.3c-4.9 1.1-8-3.7-8-3.7z" fill="#090"/>
        <path d="M276 386.1s1.4 1.4 3.3 1.8c1.2.3 2.3 1.6 4 1.9 1.7.4 3.4-.8 3.4-.8s-.9 1.5-2.7 1.5c-2.7 0-3.3-1.5-4.9-1.8-1.9-.4-3.1-2.1-3.1-2.1z" fill="#3c0"/>
        <path d="M283.7 387.3c-1.7-.7-2.6-2.6-3.8-3-2.1.1-3.9.2-3.9.2v1.2s1.7-.7 3.6-.2c1.8.5 1.8 2.5 4.4 3.2 1.1.3 2.8-.1 4.1-.6 0 0-2.7-.1-4.4-.8z" fill="#060"/>
        <path d="M279.9 384.3c-1.9-.8-3.9.2-3.9.2v.9h.1c.5-.3 2.2-.8 3.5-.5.4.1 1.1.4 1.9.7-.6-.6-1.1-1.1-1.6-1.3z" fill="#033"/>
        <path d="M276.8 402.5s.8 1.1.8 2.2-1.6 3.3-1.6 3.3-1.6-2.2-1.6-3.3c0-1.1.8-2.2.8-2.2z" fill="#fc0"/>
        <path d="M274.7 402.4s.3 1.3-.1 2.3c-.5 1-2.8 2.4-2.8 2.4s-.6-2.7-.2-3.7c.5-1 1.7-1.7 1.7-1.7z" fill="#fc0"/>
        <path d="M272.9 401.5s-.3 1.3-1.1 2c-.8.8-3.6 1-3.6 1s.6-2.6 1.4-3.4c.8-.7 2.2-.8 2.2-.8z" fill="#fc0"/>
        <path d="M271.6 399.9s-.8 1.1-1.9 1.4c-1 .3-3.6-.5-3.6-.5s1.6-2.2 2.6-2.6c1.1-.3 2.4.1 2.4.1z" fill="#fc0"/>
        <path d="M271 397.8s-1.2.7-2.3.6c-1.1-.1-3.1-1.9-3.1-1.9s2.4-1.4 3.5-1.3c1.1.1 2.1 1 2.1 1z" fill="#fc0"/>
        <path d="M271.3 395.8s-1.3.1-2.3-.4c-.9-.6-2-3.1-2-3.1s2.7-.3 3.6.3c1 .5 1.5 1.8 1.5 1.8z" fill="#fc0"/>
        <path d="M272.4 394s-1.3-.4-1.9-1.3c-.7-.9-.6-3.6-.6-3.6s2.6.8 3.2 1.7c.7.9.7 2.3.7 2.3z" fill="#fc0"/>
        <path d="M274.2 392.9s-1-.9-1.3-2c-.2-1.1.9-3.6.9-3.6s2.1 1.9 2.3 2.9c.2 1.1-.3 2.4-.3 2.4z" fill="#fc0"/>
        <path d="M276.2 392.6s-.5-1.3-.3-2.4c.2-1 2.3-2.9 2.3-2.9s1.1 2.5.9 3.6c-.3 1.1-1.3 2-1.3 2z" fill="#fc0"/>
        <path d="M278.3 393.1s-.1-1.4.6-2.3c.6-.9 3.2-1.7 3.2-1.7s.1 2.7-.6 3.6c-.6.9-1.9 1.3-1.9 1.3z" fill="#fc0"/>
        <path d="M279.9 394.4s.5-1.3 1.5-1.8c.9-.6 3.6-.3 3.6-.3s-1.1 2.5-2 3.1c-1 .5-2.3.4-2.3.4z" fill="#fc0"/>
        <path d="M280.8 396.2s1-.9 2.1-1c1.1-.1 3.5 1.3 3.5 1.3s-2 1.8-3.1 1.9c-1.1.1-2.3-.6-2.3-.6z" fill="#fc0"/>
        <path d="M281 398.3s1.2-.4 2.3-.1c1 .4 2.6 2.6 2.6 2.6s-2.6.9-3.6.5c-1.1-.3-1.8-1.4-1.8-1.4z" fill="#fc0"/>
        <path d="M280.2 400.3s1.4.1 2.2.8c.8.8 1.4 3.4 1.4 3.4s-2.8-.2-3.6-1c-.8-.7-1.1-2-1.1-2z" fill="#fc0"/>
        <path d="M278.8 401.7s1.1.7 1.6 1.7c.4 1-.2 3.7-.2 3.7s-2.3-1.3-2.8-2.4c-.4-1-.1-2.3-.1-2.3z" fill="#fc0"/>
        <path d="M282.4 397.2c0-3.4-2.7-6.1-6.1-6.1-3.3 0-6 2.7-6 6.1 0 3.3 2.7 6.1 6 6.1 3.4 0 6.1-2.8 6.1-6.1z" fill="#ff6"/>
        <path d="M271.2 396.2l-.6-.4h.7l.8-1.4s-.1-.3-.3-.6l.6.2 1.4-.9s0-.3-.1-.7l.5.5 1.6-.3s.1-.3.2-.7c.1.4.2.7.2.7l1.6.3s.3-.2.5-.5v.7l1.3.9.6-.2c-.2.3-.3.6-.3.6l.8 1.4h.7l-.6.4.2 1.6s.3.2.7.4c-.5 0-.7.1-.7.1l-.5 1.6s.1.2.4.5c-.4-.1-.7-.1-.7-.1l-1.1 1.2s.1.3.2.7l-.5-.5-1.5.7s-.1.3-.1.7l-.4-.6h-1.6l-.4.6c0-.4-.1-.7-.1-.7l-1.4-.7s-.3.2-.6.5c.1-.4.2-.7.2-.7l-1.1-1.2s-.3 0-.7.1l.5-.5-.5-1.6s-.3-.1-.8-.1c.4-.2.7-.4.7-.4zM274.5 405.1h-.2l.1-.1s0 .1.1.1z" fill="#ff9"/>
        <path d="M281.8 397.5c0-3.2-2.6-5.7-5.8-5.7-3.2 0-5.7 2.5-5.7 5.7s2.5 5.8 5.7 5.8 5.8-2.6 5.8-5.8z" fill="#c60"/>
        <path d="M279.7 401.9c.8-1 1.3-2.3 1.3-3.6 0-3.2-2.6-5.8-5.7-5.8-1.4 0-2.7.5-3.7 1.3 1-1.2 2.6-2 4.4-2 3.2 0 5.8 2.5 5.8 5.7 0 1.8-.9 3.4-2.1 4.4z" fill="#930"/>
        <path d="M277 393.2c0-.5-.4-1-1-1s-1 .5-1 1c0 .6.4 1 1 1s1-.4 1-1zM279 394.3c.3-.5.1-1.1-.3-1.4-.5-.3-1.1-.1-1.4.4-.3.5-.1 1.1.4 1.4.4.2 1.1.1 1.3-.4zM280.3 396.2c.4-.2.6-.8.3-1.3s-.9-.7-1.3-.4c-.5.3-.7.9-.4 1.4.3.5.9.6 1.4.3zM280.3 398.5c.6 0 1-.4 1-1 0-.5-.4-1-1-1-.5 0-1 .5-1 1 0 .6.5 1 1 1zM279.3 400.6c.4.3 1 .1 1.3-.4.3-.5.1-1.1-.3-1.4-.5-.2-1.1-.1-1.4.4-.3.5-.1 1.1.4 1.4z" fill="#630"/>
        <path d="M277.3 401.8c.3.5.9.6 1.4.4.4-.3.6-.9.3-1.4-.2-.5-.9-.6-1.3-.4-.5.3-.7.9-.4 1.4zM275 401.9c0 .5.4 1 1 1s1-.5 1-1c0-.6-.5-1-1-1-.6 0-1 .4-1 1z" fill="#963"/>
        <path d="M273 400.8c-.3.5-.2 1.1.3 1.4.5.2 1.1.1 1.4-.4.3-.5.1-1.1-.4-1.4-.4-.2-1.1-.1-1.3.4zM271.7 398.8c-.4.3-.6.9-.3 1.4.3.5.9.7 1.3.4.5-.3.7-.9.4-1.4-.3-.5-.9-.6-1.4-.4zM271.7 396.5c-.6 0-1 .5-1 1 0 .6.4 1 1 1 .5 0 1-.4 1-1 0-.5-.5-1-1-1zM272.7 394.5c-.4-.3-1-.1-1.3.4-.3.5-.1 1.1.3 1.3.5.3 1.1.1 1.4-.3.3-.5.1-1.1-.4-1.4z" fill="#c90"/>
        <path d="M274.7 393.3c-.3-.5-.9-.7-1.4-.4-.4.3-.6.9-.3 1.4.2.5.9.6 1.3.4.5-.3.7-.9.4-1.4z" fill="#963"/>
        <path d="M277 395.4c0-.6-.4-1-1-1s-1 .4-1 1c0 .5.4 1 1 1s1-.5 1-1zM278.4 397.8c.5-.2.8-.7.6-1.2-.1-.6-.7-.9-1.2-.7-.5.2-.8.8-.7 1.3.2.5.8.8 1.3.6zM276.5 399.9c.3.5.9.6 1.4.2.4-.3.5-.9.2-1.4-.3-.4-1-.5-1.4-.2-.4.3-.5 1-.2 1.4z" fill="#930"/>
        <path d="M273.9 398.7c-.3.5-.2 1.1.2 1.4.5.4 1.1.3 1.4-.2.3-.4.2-1.1-.2-1.4-.4-.3-1.1-.2-1.4.2zM274.2 395.9c-.5-.2-1.1.1-1.2.7-.2.5.1 1 .6 1.2.5.2 1.1-.1 1.3-.6.1-.5-.1-1.1-.7-1.3z" fill="#963"/>
        <path d="M276.3 396.6c-.5-.2-1.1.1-1.2.6-.2.6.1 1.1.6 1.3.5.2 1.1-.1 1.3-.7.1-.5-.1-1-.7-1.2z" fill="#930"/>
    </g>
</svg>
