<svg xmlns="http://www.w3.org/2000/svg" height="24" width="24">
    <g transform="matrix(1,0,0,-1,-264,408)" id="KDDI_D_">        <path d="M270 408v-4c0-1.1-.9-2-2-2h-4v-5h6c2.8 0 5 2.2 5 5v6z" fill="red"/>
        <path d="M273.3 408v-4.3c0-3.7-1.7-5-5-5H264V397h6c2.8 0 5 2.2 5 5v6z" fill="#c00"/>
        <path d="M271 403.6v4.4h-1v-4c0-1.1-.9-2-2-2h-4v-1h4.4c1.8 0 2.6 1.5 2.6 2.6z" fill="#f66"/>
        <path d="M274 408v-5.6c0-2.7-2.2-4.4-5-4.4h-5v-1h6c2.8 0 5 2.2 5 5v6z" fill="#900"/>
        <path d="M264 390h4c1.1 0 2-.9 2-2v-4h5v6c0 2.8-2.2 5-5 5h-6z" fill="red"/>
        <path d="M264 393.3h4.3c3.7 0 5-1.7 5-5V384h1.7v6c0 2.8-2.2 5-5 5h-6z" fill="#c00"/>
        <path d="M268.4 391H264v-1h4c1.1 0 2-.9 2-2v-4h1v4.4c0 1.8-1.5 2.6-2.6 2.6z" fill="#f66"/>
        <path d="M264 394h5.6c2.7 0 4.4-2.2 4.4-5v-5h1v6c0 2.8-2.2 5-5 5h-6z" fill="#900"/>
        <path d="M282 384v4c0 1.1.9 2 2 2h4v5h-6c-2.8 0-5-2.2-5-5v-6z" fill="red"/>
        <path d="M278.7 384v4.3c0 3.7 1.7 5 5 5h4.3v1.7h-6c-2.8 0-5-2.2-5-5v-6z" fill="#c00"/>
        <path d="M281 388.4V384h1v4c0 1.1.9 2 2 2h4v1h-4.4c-1.8 0-2.6-1.5-2.6-2.6z" fill="#f66"/>
        <path d="M278 384v5.6c0 2.7 2.2 4.4 5 4.4h5v1h-6c-2.8 0-5-2.2-5-5v-6z" fill="#900"/>
        <path d="M288 402h-4c-1.1 0-2 .9-2 2v4h-5v-6c0-2.8 2.2-5 5-5h6z" fill="red"/>
        <path d="M288 398.7h-4.3c-3.7 0-5 1.7-5 5v4.3H277v-6c0-2.8 2.2-5 5-5h6z" fill="#c00"/>
        <path d="M283.6 401h4.4v1h-4c-1.1 0-2 .9-2 2v4h-1v-4.4c0-1.8 1.5-2.6 2.6-2.6z" fill="#f66"/>
        <path d="M288 398h-5.6c-2.7 0-4.4 2.2-4.4 5v5h-1v-6c0-2.8 2.2-5 5-5h6z" fill="#900"/>
    </g>
</svg>
