<svg xmlns="http://www.w3.org/2000/svg" height="24" width="24">
    <g transform="matrix(1,0,0,-1,-264,408)" id="KDDI_D_">        <path d="M276 384.4c6.1 0 7.2 4.1 7.2 6.9 0 2.3-1.7 5.4-3.7 8-2.4 3.2-3.5 8.1-3.5 8.1s-1.1-4.9-3.5-8.1c-2-2.6-3.7-5.7-3.7-8 0-2.8 1.1-6.9 7.2-6.9z" fill="#9cf"/>
        <path d="M279.5 399.3c-2.4 3.2-.4-2.8-.4-5.1 0-2.8-.9-6.8-5.7-6.8-2.1 0-3.5.7-4.4 1.8.6-2.4 2.3-4.8 7-4.8 6.1 0 7.2 4.1 7.2 6.9 0 2.3-1.7 5.4-3.7 8z" fill="#69f"/>
        <path d="M279.5 399.3c-1.6 2.2-2.7 5.2-3.2 6.9 0-2.1 1.3-6.2 2.1-7.8 1.4-2.9 1.7-4.3 1.7-6.6 0-2.9-.9-5.8-6.3-5.8-1.6 0-2.8.3-3.7.9 1-1.4 2.8-2.5 5.9-2.5 6.1 0 7.2 4.1 7.2 6.9 0 2.3-1.7 5.4-3.7 8z" fill="#36c"/>
        <path d="M277.2 392.4c-.8-2.4-2.9-3.9-4.7-3.2-1.7.6-2.4 3-1.6 5.4.9 2.4 3 3.8 4.7 3.2 1.7-.6 2.5-3 1.6-5.4z" fill="#cff"/>
        <path d="M274.3 394.6c-.3-.7-.9-1.2-1.5-1-.5.2-.7.9-.4 1.7.2.7.9 1.1 1.4.9.5-.2.7-.9.5-1.6z" fill="#fff"/>
        <path d="M283.2 391.3c0 .9-.2 1.9-.6 2.9-.1-1.9-.3-4.4-1.8-6.5-1.7-2.4-4.9-2.8-6.9-3.1.6-.1 1.3-.2 2.1-.2 6.1 0 7.2 4.1 7.2 6.9z" fill="#039"/>
        <path d="M269.7 387.5c.9-1.7 2.8-3.1 6.3-3.1 6.1 0 7.2 4.1 7.2 6.9 0 2.3-1.7 5.4-3.7 8-2.4 3.2-3.5 8.1-3.5 8.1" fill="none" stroke="#000" stroke-linecap="round" stroke-linejoin="round"/>
        <path d="M276 407.4s-1.1-4.9-3.5-8.1c-2-2.6-3.7-5.7-3.7-8 0-1.2.2-2.6.9-3.8" fill="none" stroke="#333" stroke-linecap="round" stroke-linejoin="round"/>
    </g>
</svg>
