<svg xmlns="http://www.w3.org/2000/svg" height="24" width="24">
    <g transform="matrix(1,0,0,-1,-264,408)" id="KDDI_D_">        <path d="M275.8 388.9l-3.4 3.6 4 5.3-4.1 4.1 2.7 4.5c-.9.8-2.3 1.6-4.3 1.6-4.1 0-6.8-3.1-6.8-8 0-4.1 2.9-7.1 4.4-8.7l.3-.3c1.2-1.3 2.1-2.2 6.1-5.8z" fill="#f39"/>
        <path d="M281.2 408c-.5 0-1-.1-1.4-.2l-3.5-5.7 3.8-4.2-4.8-5.3 2.8-3.6-1.5-4.4c4.5 4 5.5 5.1 6.7 6.4l.3.3c1.5 1.6 4.4 4.6 4.4 8.7 0 4.9-2.7 8-6.8 8z" fill="#f39"/>
        <path d="M272.4 392.5l.4.5c-2.3 3.8-2.3 5.3-2.3 7 0 2.9 2.3 3 2.3 3-.5.7-1.8 1.8-3.3 1.8-2.6 0-3.6-1.9-3.6-3.8 0-3 2.2-5.3 3.3-6.3.6-.6 2-1.7 3.6-2.6z" fill="#f69"/>
        <path d="M266.4 401c0-2.7 2-4.9 3.1-5.9.5-.5 1.5-1.3 2.7-2.1-2.1 3.5-2.2 5.1-2.2 6.7v.3c0 1.9 1 2.9 1.8 3.3-.5.5-1.4 1-2.3 1-2.8 0-3.1-2.3-3.1-3.3z" fill="#f9c"/>
        <path d="M267.5 401c0-1.8 1-3.3 1.9-4.4-.3 1.2-.4 2.2-.4 3.2v.2c0 1.4.5 2.4 1.1 3.2-.2 0-.4.1-.6.1-.5 0-2 0-2-2.3z" fill="#fff"/>
        <path d="M274.8 406l.2.4c-.5.5-1.3 1-2.2 1.3.8-.4 1.5-1 2-1.7zM281.2 408c-.5 0-1-.1-1.4-.2l-.4-.7c.5.1 1 .2 1.6.2 3 0 4.6-3.8 4-7.3-.5-3.2-1.8-4.6-3-6l-.9-.9c-.8-.9-1.5-1.7-3.5-3.5l.5-.6-1.5-4.4c4.5 4 5.5 5.1 6.7 6.4l.3.3c1.5 1.6 4.4 4.6 4.4 8.7 0 4.9-2.7 8-6.8 8zM275.6 388.2c-2.2.8-5.3 2.8-7.5 4.8-1.5 1.5-4.2 4.1-4.2 7 0-4.1 2.9-7.1 4.4-8.7l.3-.3c1.2-1.3 2.1-2.2 6.1-5.8z" fill="#c36"/>
        <path d="M281.7 408c3.2-.4 5.6-3.3 5.3-8-.2-2.9-2.5-5.6-4-7.2l-.4-.5c-1-1.1-2-2-5-4.9l-1-2.8c4.5 4 5.5 5.1 6.7 6.4l.3.3c1.5 1.6 4.4 4.6 4.4 8.7 0 4.7-2.4 7.7-6.3 8z" fill="#906"/>
        <path d="M288 400.9c-.3-4.7-3.9-8.2-5.3-9.7l-.4-.5c-1.1-1.1-1.8-1.8-5.3-5l-.4-1.1c4.5 4 5.5 5.1 6.7 6.4l.3.3c1.5 1.6 4.4 4.6 4.4 8.7v.9z" fill="#603"/>
    </g>
</svg>
