<svg xmlns="http://www.w3.org/2000/svg" height="24" width="24">
    <g transform="matrix(1,0,0,-1,-264,408)" id="KDDI_D_">        <path d="M283 406.9c-.3.4-1 1.1-2.2 1.1-1.8 0-2.9-1.3-2.9-3.4 0-1.7 1.2-2.9 1.9-3.6l.1-.1c.5-.6.9-1 2.9-2.8l.2-.1.1.1c2 1.8 2.4 2.2 3 2.8l.1.1c.6.7 1.8 1.9 1.8 3.6 0 2.1-1.1 3.4-2.9 3.4-1.1 0-1.8-.7-2.1-1.1z" fill="#f39"/>
        <path d="M282 401.1c-.8.4-1.5 1-1.9 1.3-.4.4-1.3 1.4-1.3 2.7 0 .8.4 1.6 1.5 1.6.6 0 1.1-.5 1.3-.8 0 0-.9-.1-.9-1.3 0-.7-.1-1.4 1.3-3.5z" fill="#f69"/>
        <path d="M279 405.1c0-1.2.8-2.1 1.3-2.5.2-.2.6-.5 1.1-.9-.9 1.5-.9 2.2-.9 2.8v.1c0 .9.4 1.2.7 1.4-.2.2-.6.4-.9.4-1.2 0-1.3-.9-1.3-1.3z" fill="#f9c"/>
        <path d="M279.4 405.1c0-.8.4-1.4.8-1.9-.1.5-.1.9-.1 1.4 0 .6.2 1.1.4 1.4h-.2c-.2 0-.9 0-.9-.9z" fill="#fff"/>
        <path d="M285.1 408c-.3 0-.5-.1-.8-.1-.2-.1-.3-.2-.4-.2h-.1c-.2-.2-.4-.4-.6-.5v-.1c-.1-.1-.2-.1-.2-.2-.3.3-.7.7-1.4 1 .7-.4 1.2-1.1 1.4-2 .1.5.2 1 .5 1.3.4.4.9.5 1.6.5 1.2 0 1.9-1.6 1.6-3.1-.2-1.3-.7-1.9-1.2-2.5 0 0-.4-.3-.4-.4-.4-.4-.8-.8-2.1-2-.9.3-2.4 1.1-3.3 2-.7.6-1.8 1.8-1.8 2.9 0-1.7 1.2-2.9 1.9-3.6l.1-.1c.5-.6.9-1 2.9-2.8l.2-.1.1.1c2 1.8 2.4 2.2 3 2.8l.1.1c.6.7 1.8 1.9 1.8 3.6 0 2.1-1.1 3.4-2.9 3.4z" fill="#c36"/>
        <path d="M286.1 400.9l.1.1c.6.7 1.8 1.9 1.8 3.6 0 2-1 3.3-2.6 3.4 1.3-.2 2.3-1.4 2.2-3.4-.1-1.2-1.1-2.3-1.7-3l-.2-.1c-.5-.6-.9-1-2.7-2.7v-.8l.1.1c2 1.8 2.4 2.2 3 2.8z" fill="#906"/>
        <path d="M286.1 400.9l.1.1c.6.7 1.8 1.9 1.8 3.6v.4c-.1-1.9-1.6-3.4-2.2-4l-.2-.2c-.5-.6-.8-.8-2.6-2.5v-.3l.1.1c2 1.8 2.4 2.2 3 2.8z" fill="#603"/>
        <path d="M276.5 401.6c-.4.5-1.3 1.4-2.9 1.4-2.2 0-3.7-1.7-3.7-4.4 0-2.2 1.6-3.8 2.4-4.7l.2-.1c.6-.8 1.2-1.3 3.8-3.7l.2-.1.2.1c2.5 2.4 3.1 2.9 3.8 3.7l.1.1c.8.9 2.4 2.5 2.4 4.7 0 2.7-1.4 4.4-3.7 4.4-1.5 0-2.4-.9-2.8-1.4z" fill="#f39"/>
        <path d="M275.2 394.1c-1 .5-2 1.3-2.4 1.7-.6.5-1.8 1.8-1.8 3.4 0 1 .5 2.1 2 2.1.8 0 1.5-.7 1.7-1 0 0-1.2-.1-1.2-1.7 0-1 0-1.9 1.7-4.5z" fill="#f69"/>
        <path d="M271.3 399.2c0-1.5 1.1-2.7 1.7-3.2.2-.2.8-.7 1.4-1.1-1.1 1.9-1.2 2.7-1.2 3.6v.1c0 1.1.6 1.6 1 1.8-.3.3-.7.6-1.2.6-1.5 0-1.7-1.3-1.7-1.8z" fill="#f9c"/>
        <path d="M271.8 399.2c0-1 .6-1.8 1.1-2.4-.2.7-.2 1.2-.2 1.7v.1c0 .8.2 1.4.6 1.8h-.3c-.3 0-1.2 0-1.2-1.2z" fill="#fff"/>
        <path d="M279.3 403c-.4 0-.8-.1-1.1-.2-.2 0-.4-.1-.6-.2-.4-.2-.6-.5-.8-.7h-.1c-.1-.1-.2-.2-.2-.3-.3.4-.9.9-1.8 1.2 1-.4 1.6-1.3 1.8-2.5.1.6.3 1.2.7 1.7.4.4 1.2.6 2 .6 1.6 0 2.5-2 2.2-4-.3-1.7-1-2.4-1.7-3.2l-.4-.5c-.6-.6-1.1-1.1-2.8-2.7-1.2.4-3.1 1.5-4.3 2.7-.8.8-2.3 2.2-2.3 3.7 0-2.2 1.6-3.8 2.4-4.7l.2-.1c.6-.8 1.2-1.3 3.8-3.7l.2-.1.2.1c2.5 2.4 3.1 2.9 3.8 3.7l.1.1c.8.9 2.4 2.5 2.4 4.7 0 2.7-1.4 4.4-3.7 4.4z" fill="#c36"/>
        <path d="M280.5 393.8l.1.1c.8.9 2.4 2.5 2.4 4.7 0 2.6-1.3 4.2-3.4 4.4 1.7-.2 3-1.8 2.9-4.4-.1-1.5-1.4-3-2.2-3.9l-.2-.2c-.7-.7-1.2-1.3-3.6-3.5v-1l.2.1c2.5 2.4 3.1 2.9 3.8 3.7z" fill="#906"/>
        <path d="M280.5 393.8l.1.1c.8.9 2.4 2.5 2.4 4.7v.5c-.2-2.5-2.1-4.4-2.9-5.2l-.2-.3c-.7-.7-1-1-3.4-3.2v-.4l.2.1c2.5 2.4 3.1 2.9 3.8 3.7z" fill="#603"/>
    </g>
</svg>
