<svg xmlns="http://www.w3.org/2000/svg" height="24" width="24">
    <g transform="matrix(1,0,0,-1,-264,408)" id="KDDI_D_">        <path d="M276 399.8v2.4c0 1.8 1.3 3.7 4.3 3.7s4.7-1.5 4.7-4" fill="none" stroke="#c60" stroke-width="1.2"/>
        <path d="M284.5 392.4c0-4.7-3.8-8.5-8.5-8.5s-8.5 3.8-8.5 8.5 3.8 8.5 8.5 8.5 8.5-3.8 8.5-8.5z"/>
        <path d="M280.8 393.7c0-3.3-2.7-6-6.1-6-3.3 0-6 2.7-6 6 0 3.4 2.7 6.1 6 6.1 3.4 0 6.1-2.7 6.1-6.1z" fill="#333"/>
        <path d="M276.5 395.3c0-1.8-1.5-3.3-3.3-3.3-1.8 0-3.3 1.5-3.3 3.3 0 1.8 1.5 3.3 3.3 3.3 1.8 0 3.3-1.5 3.3-3.3z" fill="#666"/>
        <path d="M273.1 396.2c0-.6-.4-1-1-1s-1.1.4-1.1 1 .5 1.1 1.1 1.1c.6 0 1-.5 1-1.1z" fill="#fff"/>
    </g>
</svg>
