<svg xmlns="http://www.w3.org/2000/svg" height="24" width="24">
    <g transform="matrix(1,0,0,-1,-264,408)" id="KDDI_D_">        <path d="M269.8 403.3c.4 1.5 1.5 4.5 1.5 4.5s-2.9-.8-5.7-4.7c-1.8-2.7-1.6-5.4-1.4-8.5 0-2 .5-5.9 3.8-8.4 1.9-1.3 4.6-2.2 8.5-2.1 8.2.3 10.5 3.7 10.8 6.3.3 2.6-.4 3.8-.9 6.7-.6 2.9.1 6.6.1 6.6s-2.6-1.4-4.1-2.8c-1.5-1.4-2.8-4.4-2.8-4.4s-1 2.4-1 4.6c0 2.3.4 5.2.4 5.2s-2.4-.5-4.6-2.2c-2.1-1.7-3-4.3-3-4.3s-2.1 1.9-1.6 3.5z" fill="#f90"/>
        <path d="M271.6 403.6c.4 2.6 2.1 4.4 2.1 4.4s-4.2-.7-7.2-4.6c-2-2.6-2.5-5.4-2.5-8.5 0-2 .4-5.9 3.7-8.5 1.8-1.4 4.6-2.4 8.7-2.4 8.6 0 11.1 3.2 11.5 5.8.5 2.6.1 4.6-.7 6.8-1 2.8.8 6.3.8 6.3s-3-1.1-4.7-2.5c-1.6-1.3-3.2-4.1-3.2-4.1s-.9 2.4-.8 4.6c.1 3.7 2.1 5.1 2.1 5.1s-3.7-.7-6.1-2.2c-2.3-1.6-3.5-4-3.5-4s-.5 2.2-.2 3.8z" fill="red"/>
        <path d="M270 400.5c-.1 1.3.6 4.6.6 4.6s-2.7-2.4-3.7-4.4c-1.1-2.5-1.1-4-1.1-6.5 0-1.7.6-4.9 3.4-7 1.5-1.2 3.8-2.6 7.2-2.6 7.1 0 8.9 3.6 9.7 5.6.8 1.9.4 3 0 5.4-.4 2.4.1 5.1.1 5.1s-2-.7-3.1-2c-1.7-1.9-2.8-4.6-2.8-4.6s-1.6 2.4-2.1 4.7c-.2 1.3 0 4.6 0 4.6s-2-1-3.3-2.3c-1.6-1.7-3-5.1-3-5.1s-1.7 2.2-1.9 4.5z" fill="#f60"/>
        <path d="M269.8 397.8c-.3 1.1-.5 4.1-.5 4.1s-1.2-2.3-1.7-4c-.7-2.2-.6-3.2-.6-5.3 0-1.3.5-4.1 2.9-5.9 1.3-.9 3.2-2.1 6.1-2.1 4.8 0 7.6 3 8.5 4.6.7 1.5.9 2.6.6 4.5-.3 2 .1 4.3.1 4.3s-1.7-.6-2.7-1.7c-1.4-1.6-3-4.5-3-4.5s-1.5 3.2-2.2 4.9c-.4 1.1-.8 3.9-.8 3.9s-1.5-1.2-2.4-2.5c-1.6-2.4-1.4-2.6-1.9-4 0 0-2 1.8-2.4 3.7z" fill="#f90"/>
        <path d="M270.6 394.3c-.8 1.3-1.4 3.3-1.4 3.3s-.6-1.8-.7-3.2c-.2-1.8-.2-2.6.1-4.2.2-1.1.7-2.6 2.5-4 1-.8 2.6-1.4 4.8-1.4 3.6-.1 5.2 1.7 6.1 2.8.7 1 1 1.9 1 3.4 0 1.6.6 3.3.6 3.3s-1.3-.3-2.2-1c-1.3-1-3-3.3-3-3.3s-1.2 2.5-1.7 3.9c-.4.8-.6 3-.6 3s-1.3-.9-1.9-1.9c-.9-1.7-1-2.8-1.3-3.9 0 0-1.6 1.8-2.3 3.2z" fill="#fc0"/>
        <path d="M271.9 390.6c-.6.7-1.1 2-1.1 2s-.3-1.2-.3-2.1c0-1.1.1-1.5.2-2.5.1-.7.5-1.7 1.6-2.5.7-.5 1.7-.9 3.2-.9 2.3 0 3.4 1.2 3.9 1.9.5.6.7 1.2.8 2.1 0 1 .4 2.1.4 2.1s-.9-.2-1.5-.6c-.8-.7-2-2.1-2-2.1s-.7 1.5-1.1 2.4c-.2.5-.3 1.8-.3 1.8s-.9-.5-1.2-1.2c-.6-1.1-.7-1.7-.9-2.4 0 0-1.2 1.2-1.7 2z" fill="#ff0"/>
    </g>
</svg>
