<svg xmlns="http://www.w3.org/2000/svg" height="24" width="24">
    <g transform="matrix(1,0,0,-1,-264,408)" id="KDDI_D_">        <path d="M288 393.3h-1.9c-.3.5-1.5 3.2-5.7 3.2-4.1 0-5.8-3.7-5.8-3.7l-2.3-.1s.2 2.6 0 3.6c-.1 1.1-1.1 4-1.1 4s2.4-1.5 4.1 0c1.8 1.4 1.2 4.1.4 5.2-.9 1.1-2.5 2-4.4 1.9-2-.1-5-1.2-5.8-4.1-.8-2.9-.9-6.1-.9-8.6 0-2.7 1.1-8.4 1.1-8.4s6.7-2.2 12.1-2c5.3.3 10.2 1.1 10.2 1.1z" fill="#c63"/>
        <path d="M266.5 389.8c-.2 1.3-.3 3.2-.3 4.8 0 2.5-.1 5.8.9 8.7 1.2 3.8 6.2 1.7 5.5 4-.4.1-.9.1-1.3.1-2-.1-5-1.2-5.8-4.1-.8-2.9-.9-6.1-.9-8.6 0-1.6.3-4.1.6-6 .3-1.4.9-1.3 1.2-.9.4.3.2 1.1.1 2z" fill="#f90"/>
        <path d="M268.5 386.7c-1.7.4-1.7-.6-.1-1.1 2.5-.6 6.2-1.4 9.4-1.3 5.3.3 10.2 1.3 10.2 1.3v3.7c-1.2-.2-5.5-2.2-10.2-2.8-3.2-.4-6.8-.4-9.3.2z" fill="#930"/>
        <path d="M279.3 385.1c-1.8-.4-3.8-.6-5.7-.6 1.4-.1 2.8-.2 4.2-.2 5.3.3 10.2 1.1 10.2 1.1v2c-1.7-.5-5.1-1.5-8.7-2.3z" fill="#600"/>
        <path d="M268.4 385.5c.1-.4.6-.8 1.5-.8 1.1-.1 2.4-.2 3.7-.2-1.9.3-3.7.6-5.2 1z" fill="#930"/>
        <path d="M271 402.2l.8-2.2c.8-.4 2.3-.7 3.5.3 1.2.9 1.3 2.3 1.1 3.6-.2-.7-.5-1.3-1.1-1.7-1.8-1.4-4.3 0-4.3 0z" fill="#c63"/>
        <path d="M275.3 401.6c-1.8-1.4-4.3 0-4.3 0s.3-.7.5-1.5c.8-.4 2.5-.9 3.8.2 1 .7 1.2 2 1.1 3.1-.1-.7-.4-1.3-1.1-1.8zM271.3 399.8s-1.1 1.1-1.3.5c-.2-.5.5-3 .6-4.6.1-1.7-.2-4-.2-4l1.9 1s-.1 2.6-.3 3.8c-.2 1.2-.5 2.7-.7 3.3z" fill="#930"/>
        <path d="M283.3 395.1c.3-1.1-1.3-2.6-3.6-3.2-2.3-.7-4.4-.3-4.7.9-.3 1.1 1.2 2.6 3.5 3.2 2.3.7 4.4.3 4.8-.9z" fill="#f90"/>
        <path d="M281.2 395.3c.2-.7-.7-1.6-2.1-2-1.3-.4-2.6-.1-2.8.6-.2.7.8 1.5 2.1 1.9 1.4.4 2.6.2 2.8-.5z" fill="#fc9"/>
        <path d="M270.2 402.3s-.4 1.6.6 2c1.5.5 2.4-1 2.4-1s-1.4.1-1.8-.1l-1.2-.9z" fill="#930"/>
        <path d="M284.9 394.3s-1.6-2-1.4-2.2c.3-.3 3.3.8 3.3.8z" fill="#963"/>
        <path d="M271.3 399.8s-.7 1.4-.7 2c0 .7.2 1.4 1.4 1.5 1.1.1 1.7-1 1.7-1" fill="none" stroke="#600" stroke-linecap="round" stroke-dasharray="12"/>
        <path d="M288 393.3h-1.9c-.3.5-1.5 3.2-5.7 3.2-4.1 0-5.8-3.7-5.8-3.7l-2.3-.1s.2 2.6 0 3.6c-.1 1.1-1.1 4-1.1 4s2.4-1.5 4.1 0c1.8 1.4 1.2 4.1.4 5.2-.9 1.1-2.5 2-4.4 1.9-2-.1-4.6-.4-5.6-3.3s-1.1-6.9-1.1-9.4c0-2.7.6-7.9 1.1-8.4.4-.6 6.7-2.1 12.1-1.9 5.3.3 10.2 1 10.2 1" fill="none" stroke="#000" stroke-linejoin="round"/>
        <path d="M279.6 398.9v5.3M283.3 398.9v5.3M287 398.9v3.5" fill="none" stroke="red" stroke-width="1.7"/>
    </g>
</svg>
