<svg xmlns="http://www.w3.org/2000/svg" width="24" height="24">
	<g transform="translate(-264,-386)" id="KDDI_D_272">
		<g>
			<path style="stroke:none; fill:none" d="M 288 409.89L 264 409.89L 264 385.89L 288 385.89L 288 409.89z"/>
		</g>
		<g>
			<path style="stroke:none; fill:#603" d="M 274 390.13C 273.397 389.341 272.014 387.966 269.686 387.966C 266.257 387.966 264.065 390.518 264.065 394.625C 264.065 398.027 266.43 400.494 267.667 401.818L 267.905 402.074C 268.943 403.201 269.808 404.067 273.723 407.638L 274 407.89L 274.279 407.638C 278.193 404.068 279.059 403.201 280.097 402.074L 280.334 401.818C 281.573 400.494 283.945 398.027 283.945 394.625C 283.945 390.518 281.744 387.966 278.315 387.966C 275.987 387.966 274.605 389.341 274 390.13z"/>
			<path style="stroke:none; fill:#906" d="M 279.216 402.296C 279.22 402.293 279.537 401.95 279.537 401.95C 280.722 400.685 283.667 397.757 283.922 393.907C 283.679 390.224 281.541 387.966 278.315 387.966C 275.987 387.966 274.605 389.341 274 390.13C 273.397 389.341 272.014 387.966 269.686 387.966C 266.257 387.966 264.065 390.518 264.065 394.625C 264.065 398.027 266.43 400.494 267.667 401.818L 267.905 402.074C 268.943 403.201 269.808 404.067 273.723 407.638L 274 407.89L 274 407.239C 277.636 403.922 278.224 403.373 279.216 402.296z"/>
			<path style="stroke:none; fill:#c09" d="M 279.489 400.965C 279.491 400.961 279.808 400.62 279.808 400.62C 281.045 399.299 282.97 397.026 283.119 394.625C 283.355 390.738 281.417 388.312 278.764 387.987C 278.615 387.977 278.469 387.966 278.315 387.966C 275.987 387.966 274.605 389.341 274 390.13C 273.397 389.341 272.014 387.966 269.686 387.966C 266.257 387.966 264.065 390.518 264.065 394.625C 264.065 398.027 266.43 400.494 267.667 401.818L 267.905 402.074C 268.943 403.201 269.808 404.067 273.723 407.638L 274 407.89L 274 406.258C 277.636 402.941 278.495 402.044 279.489 400.965z"/>
			<path style="stroke:none; fill:#f39" d="M 278.055 388.225C 277.255 388.225 276.604 388.362 276.06 388.568C 274.983 389.314 274.256 390.594 274 392.108C 273.699 390.338 272.76 388.88 271.362 388.233C 270.869 388.071 270.315 387.966 269.686 387.966C 266.257 387.966 264.065 390.518 264.065 394.625C 264.065 396.977 266.24 399.208 267.519 400.402C 269.404 402.165 274 404.977 274 404.977C 274 404.977 277.108 402.432 278.577 400.965C 280.045 399.496 282.322 396.8 282.322 394.156C 282.322 390.795 280.399 388.225 278.055 388.225z"/>
			<path style="stroke:none; fill:#f69" d="M 272.276 401.403C 270.626 400.654 269.188 399.446 268.564 398.877C 267.686 398.077 265.883 396.153 265.883 393.681C 265.883 392.139 266.656 390.574 268.847 390.574C 270.024 390.574 271.088 391.493 271.502 392.03C 271.502 392.03 269.647 392.156 269.647 394.524C 269.647 396.04 269.569 397.458 272.276 401.403z"/>
			<path style="stroke:none; fill:#f9c" d="M 266.294 393.681C 266.294 395.916 267.89 397.706 268.841 398.572C 269.215 398.912 270.027 399.601 271.027 400.238C 269.291 397.396 269.234 396.039 269.234 394.772C 269.234 394.731 269.234 394.524 269.234 394.524C 269.234 392.935 270.015 392.159 270.735 391.829C 270.256 391.402 269.561 390.987 268.847 390.987C 266.543 390.987 266.294 392.869 266.294 393.681z"/>
			<path style="stroke:none; fill:#fff" d="M 267.12 393.681C 267.12 395.155 267.96 396.427 268.737 397.292C 268.464 396.335 268.409 395.528 268.409 394.682C 268.409 394.67 268.409 394.524 268.409 394.524C 268.409 393.348 268.787 392.5 269.31 391.904C 269.153 391.85 268.996 391.813 268.847 391.813C 268.419 391.813 267.12 391.813 267.12 393.681z"/>
			<path style="stroke:#c36; stroke-width:1; fill:none" d="M 274 397.39L 276 397.39L 279.5 400.89"/>
			<path style="stroke:none; fill:#fc0" d="M 284 396.39L 287 393.39L 279.5 393.39L 276.5 396.39L 284 396.39z"/>
			<path style="stroke:#6c0; stroke-width:1; stroke-linecap:square; fill:none" d="M 279.438 396.39L 281.938 393.89"/>
			<path style="stroke:#6c0; stroke-width:1; stroke-linecap:square; fill:none" d="M 282 396.39L 284.5 393.89"/>
			<path style="stroke:#300; stroke-width:1; stroke-linejoin:bevel; fill:none" d="M 284.5 396.39L 287.5 393.39L 279.5 393.39L 276.5 396.39"/>
			<path style="stroke:none; fill:#fc0" d="M 284 396.39L 287 399.39L 279.5 399.39L 276.5 396.39L 284 396.39z"/>
			<path style="stroke:#6c0; stroke-width:1; stroke-linecap:square; fill:none" d="M 279.5 396.39L 282 398.89"/>
			<path style="stroke:#6c0; stroke-width:1; stroke-linecap:square; fill:none" d="M 282 396.39L 284.5 398.89"/>
			<path style="stroke:#300; stroke-width:1; stroke-linejoin:bevel; fill:none" d="M 284.5 396.39L 287.5 399.39L 279.5 399.39L 276.5 396.39"/>
			<path style="stroke:#300; stroke-width:1; fill:none" d="M 274 396.39L 286 396.39"/>
		</g>
	</g>
</svg>
