<svg xmlns="http://www.w3.org/2000/svg" width="24" height="24">
	<g transform="translate(-264,-386)" id="KDDI_D_273">
		<g>
			<path style="stroke:none; fill:none" d="M 288 409.89L 264 409.89L 264 385.89L 288 385.89L 288 409.89z"/>
		</g>
		<g>
			<path style="stroke:none; fill:#f06" d="M 283.5 392.39C 282 390.89 279.5 388.39 279.5 388.39C 279.5 388.39 277.625 390.39 276 390.39C 274.375 390.39 272.5 388.39 272.5 388.39C 272.5 388.39 270 390.89 268.5 392.39C 267 393.89 264 396.89 264 396.89C 264 396.89 267 399.89 269 401.89C 271 403.89 273.5 405.39 276 405.39C 278.5 405.39 281 403.89 283 401.89C 285 399.89 288 396.89 288 396.89C 288 396.89 285 393.89 283.5 392.39z"/>
			<path style="stroke:none; fill:none" d="M 269.707 401.183C 271.775 403.251 274.01 404.39 276 404.39C 277.99 404.39 280.225 403.251 282.293 401.183C 282.293 401.183 285.982 397.493 286.586 396.89L 265.414 396.89C 266.018 397.493 269.707 401.183 269.707 401.183z"/>
			<path style="stroke:none; fill:#c03" d="M 282.5 401.39C 280.432 403.458 277.99 404.39 276 404.39C 274.01 404.39 271.568 403.458 269.5 401.39C 269.5 401.39 265.603 397.493 265 396.89L 264 396.89L 269 401.89C 271.257 404.147 273.743 405.39 276 405.39C 278.257 405.39 280.743 404.147 283 401.89L 288 396.89L 287 396.89C 286.397 397.493 282.5 401.39 282.5 401.39z"/>
			<path style="stroke:#f9f; stroke-width:1; stroke-linecap:square; fill:none" d="M 273.06 389.95L 266.121 396.89"/>
			<path style="stroke:#f9f; stroke-width:1; stroke-linecap:round; fill:none" d="M 268.5 396.89C 268.5 396.89 270.349 399.617 271.56 400.829C 272.544 401.813 273.632 402.228 275 402.349"/>
			<path style="stroke:none; fill:#c03" d="M 276 390.39C 274.772 390.39 273.384 389.226 272.844 388.726L 272.491 388.399C 272.491 388.399 272.755 389.518 274 390.39C 275 390.89 276 390.39 276 390.39z"/>
			<path style="stroke:none; fill:#c03" d="M 280.5 389.39C 280.5 389.39 286.517 396.407 287 396.89L 288 396.89L 280.5 389.39z"/>
			<path style="stroke:#fff; stroke-width:1; stroke-linecap:round; fill:none" d="M 270.56 392.45L 269.56 393.45"/>
			<path style="stroke:none; fill:#c03" d="M 287 395.89L 283 395.89C 281 395.89 279.5 394.878 279.5 394.878C 279.5 394.878 278.86 395.89 276 395.89C 273.14 395.89 272.5 394.878 272.5 394.878C 272.5 394.878 271 395.89 269 395.89L 265 395.89C 264.41 396.48 264 396.89 264 396.89L 265.5 397.89L 269 397.89C 269.755 397.89 271.561 397.619 272.464 396.875C 272.947 397.382 273.931 397.89 276 397.89C 278.069 397.89 279.053 397.382 279.536 396.875C 280.439 397.619 282.219 397.89 283 397.89C 284.5 397.89 285.5 396.89 285.5 396.89L 288 396.89C 288 396.89 287.59 396.48 287 395.89z"/>
			<path style="stroke:none; fill:#900" d="M 283 395.89C 281 395.89 279.5 394.878 279.5 394.878C 279.5 394.878 278.86 395.89 276 395.89C 273.14 395.89 272.5 394.878 272.5 394.878C 272.5 394.878 271 395.89 269 395.89L 265 395.89C 264.41 396.48 264 396.89 264 396.89L 268.5 396.89C 270 396.89 271.561 396.133 272.464 395.39C 272.947 395.897 273.931 396.89 276 396.89C 278.069 396.89 279.053 395.897 279.536 395.39C 280.439 396.133 282 396.89 283.5 396.89L 288 396.89C 288 396.89 287.59 396.48 287 395.89L 283 395.89z"/>
			<path style="stroke:#fff; stroke-width:1; stroke-linecap:round; fill:none" d="M 271.147 400.387C 271.29 400.548 271.429 400.698 271.56 400.829C 271.773 401.042 271.991 401.227 272.214 401.39"/>
		</g>
	</g>
</svg>
