<svg xmlns="http://www.w3.org/2000/svg" height="24" width="24">
    <g transform="matrix(1,0,0,-1,-264,408)" id="KDDI_D_">        <path d="M270.6 395.3V391c0-2.1-1.3-2.7-2.5-2.7-1.3 0-3.3 1.1-3.3 2.9v3.8" fill="none" stroke="#c3c" stroke-width="1.7" stroke-linecap="round"/>
        <path d="M270.6 398.1v-2.8" fill="none" stroke="#939" stroke-width="1.7" stroke-linecap="round"/>
        <path d="M274.1 394v-9.2" fill="none" stroke="#c3c" stroke-width="1.7" stroke-linecap="round"/>
        <path d="M274.1 397.5V394" fill="none" stroke="#939" stroke-width="1.7" stroke-linecap="round"/>
        <path d="M281.4 395.3V391c0-2.1 1.3-2.7 2.5-2.7 1.3 0 3.3 1.1 3.3 2.9v3.8" fill="none" stroke="#c3c" stroke-width="1.7" stroke-linecap="round"/>
        <path d="M281.4 398.1v-2.8" fill="none" stroke="#939" stroke-width="1.7" stroke-linecap="round"/>
        <path d="M277.9 394v-9.2" fill="none" stroke="#c3c" stroke-width="1.7" stroke-linecap="round"/>
        <path d="M277.9 397.5V394" fill="none" stroke="#939" stroke-width="1.7" stroke-linecap="round"/>
        <path d="M286.1 400.8c0-3-4.6-4.4-10.1-4.4s-10.1 1.4-10.1 4.4c0 3.1 1.6 7.2 10.1 7.2s10.1-4.1 10.1-7.2z" fill="#c3c"/>
        <path d="M268.6 399c-.1.3-.2.7-.2 1.2 0 3.1 1.5 7.5 9.4 7.5 1.1 0 .1.3-1.8.3-8.5 0-10.1-4.1-10.1-7.2 0-1 .5-1.8 1.4-2.5.8-.5 1.6-.1 1.3.7z" fill="#c6c"/>
        <path d="M271.9 407.2c-3.1-.6-4.6-2.3-4.8-4.1-.1-1.4 1.2-.8 1.2-.4.3 1.5 1.3 3.4 3.7 4.1 1 .4.9.7-.1.4z" fill="#c9c"/>
        <path d="M281.3 407.3c1.8-1.6 2.5-3.8 2.2-5.7-.4-2.8-4.2-4.8-9.3-4.8-2.1 0-4.1.3-5.7.9 1.9-.9 4.5-1.3 7.5-1.3 5.5 0 10.1 1.4 10.1 4.4 0 2.3-.9 5.1-4.8 6.5z" fill="#939"/>
        <path d="M282.1 406.9c2.4-1.5 3.1-3.9 3.1-5.8 0-3.1-4.4-4.6-9.7-4.7h.5c5.5 0 10.1 1.4 10.1 4.4 0 2.1-.8 4.7-4 6.1z" fill="#606"/>
        <path d="M277.6 399.6c0-.9-.7-1.6-1.6-1.6-.9 0-1.6.7-1.6 1.6 0 .9.7 1.6 1.6 1.6.9 0 1.6-.7 1.6-1.6z" fill="#fff"/>
        <path d="M276.2 402.3c-1.6 0-2.8-1.3-2.8-2.8 0-1.5 1.2-2.8 2.8-2.8 1.5 0 2.8 1.3 2.8 2.8 0 1.5-1.3 2.8-2.8 2.8m0-3.9c-.6 0-1.1.5-1.1 1.1 0 .6.5 1.1 1.1 1.1.6 0 1.1-.5 1.1-1.1 0-.6-.5-1.1-1.1-1.1z" fill="#606"/>
        <path d="M275.9 402.5c-1.5 0-2.8-1.2-2.8-2.7 0-1.6 1.3-2.8 2.8-2.8 1.6 0 2.8 1.2 2.8 2.8 0 1.5-1.2 2.7-2.8 2.7m0-3.9c-.6 0-1.1.5-1.1 1.2 0 .6.5 1.1 1.1 1.1.6 0 1.1-.5 1.1-1.1 0-.7-.5-1.2-1.1-1.2z" fill="#939"/>
        <path d="M273.4 399.6c0 1.5 1.2 2.8 2.8 2.8.5 0 1-.2 1.4-.4-.5.3-1 .5-1.7.5-1.5 0-2.8-1.2-2.8-2.7 0-1.1.6-2 1.4-2.4-.7.5-1.1 1.3-1.1 2.2z" fill="#c6c"/>
        <path d="M271.5 403.4c0-.6-.5-1.1-1-1.1-.6 0-1.1.5-1.1 1.1 0 .6.5 1 1.1 1 .5 0 1-.4 1-1zM280.5 403.4c0-.6.5-1.1 1-1.1.6 0 1.1.5 1.1 1.1 0 .6-.5 1-1.1 1-.5 0-1-.4-1-1z" fill="#fff"/>
    </g>
</svg>
