<svg xmlns="http://www.w3.org/2000/svg" width="24" height="24">
	<g transform="translate(-264,-386)" id="KDDI_D_275">
		<g>
			<path style="stroke:none; fill:none" d="M 288 409.89L 264 409.89L 264 385.89L 288 385.89L 288 409.89z"/>
		</g>
		<g>
			<path style="stroke:#f96; stroke-width:1; fill:#fc9" d="M 287.4 397.89C 287.4 398.558 286.397 399.128 286.283 399.762C 286.167 400.4 286.909 401.269 286.689 401.863C 286.44 402.533 285.277 402.756 284.908 403.357C 284.58 403.89 284.969 404.955 284.557 405.422C 284.147 405.887 283.043 405.634 282.56 406.024C 282.08 406.413 282.096 407.545 281.553 407.848C 281.015 408.149 280.059 407.543 279.469 407.75C 278.885 407.956 278.515 409.029 277.891 409.133C 277.301 409.232 276.618 408.34 276 408.34C 275.332 408.34 274.594 409.222 273.958 409.108C 273.321 408.992 272.953 407.908 272.358 407.688C 271.689 407.439 270.636 407.976 270.036 407.607C 269.503 407.279 269.564 406.146 269.096 405.734C 268.631 405.325 267.517 405.53 267.126 405.047C 266.739 404.567 267.175 403.523 266.872 402.98C 266.571 402.442 265.451 402.264 265.244 401.675C 265.039 401.091 265.798 400.25 265.693 399.625C 265.595 399.036 264.6 398.507 264.6 397.89C 264.6 397.222 265.603 396.652 265.718 396.018C 265.833 395.379 265.091 394.511 265.311 393.917C 265.56 393.247 266.723 393.023 267.092 392.422C 267.42 391.89 267.031 390.825 267.443 390.358C 267.853 389.892 268.956 390.146 269.44 389.755C 269.92 389.368 269.904 388.235 270.447 387.932C 270.985 387.631 271.941 388.237 272.531 388.029C 273.114 387.824 273.484 386.751 274.108 386.646C 274.698 386.548 275.382 387.44 276 387.44C 276.668 387.44 277.407 386.557 278.042 386.672C 278.679 386.788 279.048 387.871 279.642 388.092C 280.311 388.341 281.364 387.804 281.964 388.173C 282.498 388.501 282.437 389.634 282.904 390.046C 283.37 390.456 284.483 390.25 284.874 390.733C 285.262 391.213 284.826 392.257 285.129 392.8C 285.43 393.338 286.549 393.516 286.757 394.106C 286.962 394.689 286.203 395.532 286.307 396.156C 286.406 396.745 287.4 397.273 287.4 397.89z"/>
			<path style="stroke:#f03; stroke-width:1; stroke-linecap:round; fill:none" d="M 272.5 390.39C 270.5 391.89 268.5 394.89 268.5 397.89C 268.5 400.89 270 405.39 276 405.39C 282 405.39 283.5 401.39 283.5 398.39C 283.5 395.39 281 391.89 278 391.89C 275 391.89 272 394.39 272 397.89C 272 400.39 274 401.89 276 401.89C 278 401.89 280 400.39 280 398.89C 280 397.39 279.5 395.89 278 395.89C 276.5 395.89 276 396.89 276 397.89"/>
		</g>
	</g>
</svg>
