<svg xmlns="http://www.w3.org/2000/svg" width="24" height="24">
	<g transform="translate(-264,-386)" id="KDDI_D_276">
		<g>
			<path style="stroke:none; fill:none" d="M 288 409.89L 264 409.89L 264 385.89L 288 385.89L 288 409.89z"/>
		</g>
		<g>
			<path style="stroke:none; fill:#000" d="M 267.5 399.89C 267.5 400.442 267.052 400.89 266.5 400.89C 265.948 400.89 265.5 400.442 265.5 399.89C 265.5 399.338 265.948 398.89 266.5 398.89C 267.052 398.89 267.5 399.338 267.5 399.89z"/>
			<path style="stroke:none; fill:#000" d="M 271.5 399.89C 271.5 400.442 271.053 400.89 270.5 400.89C 269.948 400.89 269.5 400.442 269.5 399.89C 269.5 399.338 269.948 398.89 270.5 398.89C 271.053 398.89 271.5 399.338 271.5 399.89z"/>
			<path style="stroke:none; fill:#000" d="M 275.5 399.89C 275.5 400.442 275.052 400.89 274.5 400.89C 273.948 400.89 273.5 400.442 273.5 399.89C 273.5 399.338 273.948 398.89 274.5 398.89C 275.052 398.89 275.5 399.338 275.5 399.89z"/>
			<path style="stroke:none; fill:#000" d="M 265.5 403.89C 265.5 403.34 266.5 401.89 270.5 401.89C 274.5 401.89 275.5 403.34 275.5 403.89C 275.5 405.428 275.5 403.428 275.5 404.89C 275.5 406.39 273 409.89 271.5 409.89C 270 409.89 271 409.89 269.5 409.89C 268 409.89 265.5 406.39 265.5 404.89C 265.5 403.39 265.5 403.89 265.5 403.89z"/>
			<path style="stroke:none; fill:#000" d="M 278.5 386.89C 278.5 387.442 278.052 387.89 277.5 387.89C 276.948 387.89 276.5 387.442 276.5 386.89C 276.5 386.338 276.948 385.89 277.5 385.89C 278.052 385.89 278.5 386.338 278.5 386.89z"/>
			<path style="stroke:none; fill:#000" d="M 282.5 386.89C 282.5 387.442 282.053 387.89 281.5 387.89C 280.948 387.89 280.5 387.442 280.5 386.89C 280.5 386.338 280.948 385.89 281.5 385.89C 282.053 385.89 282.5 386.338 282.5 386.89z"/>
			<path style="stroke:none; fill:#000" d="M 286.5 386.89C 286.5 387.442 286.052 387.89 285.5 387.89C 284.948 387.89 284.5 387.442 284.5 386.89C 284.5 386.338 284.948 385.89 285.5 385.89C 286.052 385.89 286.5 386.338 286.5 386.89z"/>
			<path style="stroke:none; fill:#000" d="M 276.5 390.89C 276.5 390.34 277.5 388.89 281.5 388.89C 285.5 388.89 286.5 390.34 286.5 390.89C 286.5 392.428 286.5 390.428 286.5 391.89C 286.5 393.39 284 396.89 282.5 396.89C 281 396.89 282 396.89 280.5 396.89C 279 396.89 276.5 393.39 276.5 391.89C 276.5 390.39 276.5 390.89 276.5 390.89z"/>
		</g>
	</g>
</svg>
