<svg xmlns="http://www.w3.org/2000/svg" height="24" width="24">
    <g transform="matrix(1,0,0,-1,-264,408)" id="KDDI_D_">        <path d="M280.3 386.1h-8.6V384h8.6z"/>
        <path d="M272.7 386.1h-1V384h1z" fill="#333"/>
        <path d="M286 392.5c0-4.2-3.6-7.7-8.2-7.7h-3.5c-4.5 0-8.2 3.5-8.2 7.7v3.9c0 4.3 3.7 7.7 8.2 7.7h3.5c4.6 0 8.2-3.4 8.2-7.7z"/>
        <path d="M267.2 398.6s-1.3 2.9-1.6 3.4c-.3.5-1.6 1.7-1.6 1.7l5.2 4.3s-1.2-2.7-1.3-3.8c0-1.2.6-2.9.6-2.9zM284.8 398.6s1.3 2.9 1.6 3.4c.4.5 1.6 1.7 1.6 1.7l-5.2 4.3s1.2-2.7 1.3-3.8c0-1.2-.6-2.9-.6-2.9z"/>
        <path d="M266.7 395.9c0 4.3 3.6 7.8 8.1 7.8h3.4c2.8 0 5.2-1.3 6.6-3.3-1.4 2.2-4 3.7-7 3.7h-3.5c-4.5 0-8.2-3.4-8.2-7.7v-3.9c0-2.1.9-4 2.3-5.3-1.1 1.3-1.7 2.9-1.7 4.7z" fill="#333"/>
        <path d="M284.4 392.9c0-3.9-2.5-5.9-8.4-5.9s-8.4 2-8.4 5.9c0 3.9 3 8.2 8.4 8.2 5.3 0 8.4-4.3 8.4-8.2z" fill="#fcc"/>
        <path d="M268.8 393.6c-.4 0-.8-.1-1.2-.3v-.4c0-2.5 1-4.2 3.4-5.2.5.7.9 1.5.9 2.5 0 1.9-1.4 3.4-3.1 3.4zM280.1 390.2c0-1 .4-1.8.9-2.4 2.3.9 3.4 2.6 3.4 5.1v.4c-.4.2-.8.3-1.2.3-1.7 0-3.1-1.5-3.1-3.4z" fill="#f99"/>
        <path d="M266.1 397.3L264 396l2.1-1.5M285.9 397.3l2.1-1.3-2.1-1.5"/>
        <path d="M273.8 400.8s-.7-.4-.5-.9c.2-.5 1.9-.9 2-1.5 0-.6-.2-1.3-.2-1.3s1.5.5 2.5 1.3c1 .7 1.1 2.2.6 2.5-.5.2-3.6.5-4.4-.1z" fill="#930"/>
        <path d="M278.2 400.9c-.2.1-1 .2-1.8.2.2-.5.3-1 .2-1.4-.2-.6-1-1.8-1.5-2.5v-.1s1.5.5 2.5 1.3c1 .7 1.1 2.2.6 2.5z" fill="#960"/>
        <path d="M274.5 400.8c-.2-.1-.5-.2-.4-.5.2-.4 1.2-.9 1.2-.9s-.6.7-.4 1c.2.3-.1.4-.4.4z" fill="#c60"/>
        <path d="M278.2 400.9c-.1 0-.3.1-.5.1.1-.5.3-1.4-.1-1.9s-1.9-1.6-2.5-2c0 0 1.5.5 2.5 1.3 1 .7 1.1 2.2.6 2.5z" fill="#633"/>
        <path d="M273.8 394.7c0-.7-.6-1.3-1.3-1.3-.7 0-1.3.6-1.3 1.3 0 .7.6 1.3 1.3 1.3.7 0 1.3-.6 1.3-1.3z"/>
        <path d="M273.1 395.8s-1.1.9-1.8 1c-.8 0-1.8-.2-1.8-.2s1.1-.4 1.5-.7c.5-.3.8-1 .8-1zM278.1 394.7c0-.7.6-1.3 1.3-1.3.8 0 1.3.6 1.3 1.3 0 .7-.5 1.3-1.3 1.3-.7 0-1.3-.6-1.3-1.3z"/>
        <path d="M278.9 395.8s1.1.9 1.7 1c.8 0 1.8-.2 1.8-.2s-1-.4-1.5-.7c-.5-.3-.7-1-.7-1z"/>
        <path d="M273.2 389.9h5.5" fill="none" stroke="#000"/>
    </g>
</svg>
