<svg xmlns="http://www.w3.org/2000/svg" width="24" height="24">
	<g transform="translate(-264,-386)" id="KDDI_D_278">
		<g>
			<path style="stroke:none; fill:none" d="M 288 409.89L 264 409.89L 264 385.89L 288 385.89L 288 409.89z"/>
		</g>
		<g>
			<path style="stroke:#f03; stroke-width:1; fill:none" d="M 264.5 400.89C 264.5 404.39 266 408.89 269.5 408.89C 273 408.89 273.5 406.89 273.5 406.89C 273.5 406.89 275 409.39 277 409.39C 279 409.39 280 406.89 280 406.89C 280 406.89 282.5 409.89 284.5 407.89C 286.5 405.89 284 403.39 284 403.39C 284 403.39 287.5 403.39 287.5 400.39C 287.5 398.39 285 397.89 285 397.89C 285 397.89 287.5 396.89 287.5 394.89C 287.5 392.39 284 392.39 284 392.39C 284 392.39 287 389.39 285 387.39C 283.5 385.89 278 385.89 277 388.39C 275.5 385.89 273.5 386.39 272 386.39C 270.5 386.39 267.5 388.89 268.5 391.89C 266 391.39 264.5 393.39 264.5 394.89C 264.5 396.89 266 398.39 269.5 398.39C 269.5 400.89 270 401.89 271.5 402.89C 273 403.89 279 403.39 279 400.89C 281 401.39 282 399.39 282 397.89C 282 394.89 279 394.39 279 394.39C 279 394.39 279 392.39 276 392.39C 273 392.39 272 394.39 272 395.89C 272 398.39 273.578 399.823 275 399.89C 277.5 399.89 278 398.89 278 397.39C 278 396.074 276.5 395.89 275.5 395.89"/>
		</g>
	</g>
</svg>
