<svg xmlns="http://www.w3.org/2000/svg" width="24" height="24">
	<g transform="translate(-264,-386)" id="KDDI_D_280">
		<g>
			<path style="stroke:none; fill:none" d="M 288 409.89L 264 409.89L 264 385.89L 288 385.89L 288 409.89z"/>
		</g>
		<g>
			<path style="stroke:#f03; stroke-width:2; stroke-linejoin:bevel; fill:none" d="M 264.5 390.39L 270.5 386.89L 265 407.39"/>
			<path style="stroke:#f03; stroke-width:2; fill:none" d="M 271 403.89L 282 403.89"/>
			<path style="stroke:#f03; stroke-width:2; fill:none" d="M 268 406.89L 288 406.89"/>
			<path style="stroke:#f03; stroke-width:2; fill:none" d="M 286.6 394.17C 285.772 397.351 283.935 399.866 282.5 399.855C 281.065 399.844 280.573 397.311 281.401 394.129C 282.229 390.949 284.065 388.379 285.5 388.39C 286.937 388.4 287.428 390.989 286.6 394.17z"/>
			<path style="stroke:#f03; stroke-width:2; fill:none" d="M 277.6 394.17C 276.772 397.351 274.935 399.866 273.5 399.855C 272.065 399.844 271.573 397.311 272.401 394.129C 273.229 390.949 275.065 388.379 276.5 388.39C 277.937 388.4 278.428 390.989 277.6 394.17z"/>
		</g>
	</g>
</svg>
