<svg xmlns="http://www.w3.org/2000/svg" height="24" width="24">
    <g transform="matrix(1,0,0,-1,-264,408)" id="KDDI_D_">        <path d="M285.3 387.6c0-1.7-1.2-3.1-4.3-3.1-3.2 0-4.3 1.4-4.3 3.1 0 1.8 1.9 3.2 4.3 3.2s4.3-1.4 4.3-3.2z" fill="#fc9"/>
        <path d="M281 390.8c-1.9 0-3.5-.9-4.1-2.1.7.5 1.7.8 2.8.8 1.9 0 3.5-1 3.5-2.1 0-1.2-.9-2.1-3.5-2.1-1 0-1.7.1-2.2.3.6-.7 1.7-1.1 3.5-1.1 3.1 0 4.3 1.4 4.3 3.1 0 1.8-1.9 3.2-4.3 3.2z" fill="#f93"/>
        <path d="M285.3 387.6c0 1.8-1.9 3.2-4.3 3.2-1.6 0-3-.6-3.7-1.6.7.4 1.6.7 2.6.7 2.4 0 4.3-1.4 4.3-3.2 0-.6-.1-1.2-.5-1.7 1.1.6 1.6 1.5 1.6 2.6z" fill="#c63"/>
        <path d="M281.2 387c0-.5-1-.8-2.3-.8-1.2 0-2.2.3-2.2.8 0 .4 1 .8 2.2.8 1.3 0 2.3-.4 2.3-.8z" fill="#ffc"/>
        <path d="M285.3 387.6c0-1.7-1.2-3.1-4.3-3.1-3.2 0-4.3 1.4-4.3 3.1 0 1.8 1.9 3.2 4.3 3.2s4.3-1.4 4.3-3.2z" fill="none" stroke="#000"/>
        <path d="M281.5 392.4c0-1.7 1.4-3.1 3-3.1 1.7 0 3 1.4 3 3.1v7.5s.3 4-1.7 5.2c-2 1.1-5.3 2.2-9 2.3-3.8.1-6-.5-8.7-1.7-2.7-1.3-3.7-3.4-3.7-4.8v-7c0-1.7 1.2-3.1 2.7-3.1 1.4 0 2.6 1.4 2.6 3.1z" fill="#fc9"/>
        <path d="M266.5 390.9c.2-.1.4-.1.6-.1 1.3 0 2.4 1.2 2.6 2.7l-1.8.2c0-1.2-.6-2.3-1.4-2.8z" fill="#fc9"/>
        <path d="M284.3 405.3c-.7.4-.9-.8-.1-1.9.7-1 .5-3.7.5-3.7s-.1-6.5-.1-7.6c0-1-1.3-2.5-1.2-2.5 1.8 0 2.8 1.1 2.8 2.8v7.5s.2 4.2-1.9 5.4z" fill="#f93"/>
        <path d="M285.6 405.1c-1.7.9-.9-.7-.6-1.3.7-1.7.6-3.9.6-3.9v-7.8c0-1.2-.7-2.2-1.6-2.8h.3c1.8 0 3.2 1.4 3.2 3.1v7.5s.3 4-1.9 5.2z" fill="#c63"/>
        <path d="M285.8 405.1c-.3.2-.5.2-.7.3 1.4-1.6 1.2-4.9 1.2-4.9v-7.9c0-1.2-.2-1-1-1.8-.7-.7-.8-1.3-1-1.5h.3c1.6 0 2.9 1.4 2.9 3.1v7.5s.2 4-1.7 5.2z" fill="#930"/>
        <path d="M266.2 399.8c0 1.5.9 3.5 3.6 4.8 2.7 1.2 4.1 1.4 7.9 1.3 3.1 0 2.8 1.4-.9 1.5-3.8.1-6-.5-8.7-1.7-2.7-1.3-3.7-3.4-3.7-4.8v-7c0-1.6 1.8-1.6 1.8.1v5.8z" fill="#ffc"/>
        <path d="M269.6 397.4v-5.8c0-1.5 1.4-2.7 3-2.7 1.7 0 3 1.2 3 2.7v6M275.6 396.9v-5.8c0-1.5 1.4-2.7 3-2.7 1.7 0 3 1.2 3 2.7v6" fill="#f93"/>
        <path d="M273.5 397.3v-5.2c0-1.4-.9-2.6-2.2-3 .4-.1.7-.2 1.1-.2 1.8 0 3.2 1.4 3.2 3.2v7.1s-2.1-.2-2.1-1.9zM268.1 398.2v-4.6c0-1.2-.7-2.2-1.8-2.6.3-.1.6-.1.9-.1 1.4 0 2.6 1.2 2.6 2.7v6.2s-1.7-.1-1.7-1.6z" fill="#f93"/>
        <path d="M271.6 392.1v6.1c0 1.4-2 1.2-2 1.2v-7.3c0-.6.2-1.1.5-1.6.5-.9 1.5.2 1.5 1.6zM277.9 391.8v6.1c0 1.4-2 1.2-2 1.2v-7.3c0-.6.1-1.2.4-1.6.5-1 1.6.2 1.6 1.6zM283.3 392.1v6.1c0 1.4-1.6 1.2-1.6 1.2v-7.3c0-.6.1-1.1.3-1.6.5-.9 1.3.2 1.3 1.6z" fill="#ffc"/>
        <path d="M275.8 398.7s-1.4 0-1.4-4c0-3.2 0-4.6-1-5.4.8-.1 2.1.8 2.2 1.5.1.8.2 7.9.2 7.9z" fill="#c63"/>
        <path d="M279.6 397.3v-5.2c0-1.4-.9-2.6-2.1-3 .3-.1.6-.2 1-.2 1.7 0 3.1 1.4 3.1 3.2v7.1s-2-.2-2-1.9z" fill="#f93"/>
        <path d="M281.8 398.7s-1.3 0-1.3-4c0-3.2.1-4.9-.9-5.7.7-.6 1.9 1.1 2 1.8.1.8.2 7.9.2 7.9z" fill="#c63"/>
        <path d="M273.6 391.7c0-.5-.5-.9-1-.9-.6 0-1 .4-1 .9v7.1c0 .5.4.9 1 .9.5 0 1-.4 1-.9zM279.6 391.5c0-.5-.4-.9-.9-.9-.4 0-.8.4-.8.9v7c0 .5.4.9.8.9.5 0 .9-.4.9-.9z" fill="#fc9"/>
        <path d="M281.2 391.4c.4-.1-.2-1.6-.9-2.1-.8-.4-1.5-.6-1.7-.3-.2.3.5.6 1.3 1 .7.5.6 1.5 1.3 1.4zM275.3 391.8c.3 0-.3-1.5-1-2s-1.5-.6-1.7-.3c-.2.3.6.5 1.3 1 .7.5.7 1.4 1.4 1.3z" fill="#930"/>
        <path d="M275.7 391.6c0-1.7 1.3-3.1 3-3.1 1.6 0 3 1.4 3 3.1v7.6M269.7 399v-6.9c0-1.8 1.4-3.2 3-3.2 1.7 0 3 1.4 3 3.2v7.1" fill="none" stroke="#000" stroke-linecap="round"/>
        <path d="M281.7 392.4c0-1.7 1.2-3.1 2.8-3.1 1.7 0 3 1.4 3 3.1v7.5s.2 4-1.7 5.2c-1.1.6-3.1 1.1-4.3 1.2-1.1.1-1.4 1.1-4.1 1.1-3.4 0-8.1-1.5-9.3-1.9-1.9-.6-3.6-3.2-3.6-4.6v-7c0-1.7 1.2-3.1 2.6-3.1 1.5 0 2.7 1.4 2.7 3.1v5.3" fill="none" stroke="#000" stroke-linecap="round"/>
    </g>
</svg>
