<svg xmlns="http://www.w3.org/2000/svg" width="24" height="24">
	<g transform="translate(-264,-386)" id="KDDI_D_282">
		<g>
			<path style="stroke:none; fill:none" d="M 288 409.89L 264 409.89L 264 385.89L 288 385.89L 288 409.89z"/>
		</g>
		<g>
			<path style="stroke:none; fill:#fc0" d="M 286.5 394.89C 285.407 393.748 282.635 394.087 280.851 394.316C 282.009 393.245 283.5 391.757 283.5 390.049C 283.5 388.166 282 386.39 279.5 386.39C 278.146 386.39 275.974 387.751 275.703 388.876C 275.587 389.358 275.457 390.133 275.833 390.341C 276.625 390.778 276.667 389.382 276.966 388.891C 277.312 388.007 278.206 387.39 279.485 387.39C 281.5 387.39 282.5 388.365 282.5 390.049C 282.5 391.68 281.615 392.717 280.617 393.381C 279.894 393.863 279.13 394.165 279.292 394.695C 279.47 395.283 279.936 395.056 280.671 395.001C 282.336 394.878 284.405 395.024 285.249 395.906C 285.775 396.456 286 397.049 286 397.89C 286 398.73 285.775 399.323 285.249 399.873C 284.405 400.755 282.336 400.901 280.671 400.778C 279.936 400.724 279.47 400.497 279.292 401.085C 279.13 401.615 279.894 401.917 280.617 402.398C 281.615 403.063 282.5 404.1 282.5 405.731C 282.5 407.415 281.5 408.39 279.485 408.39C 278.206 408.39 277.312 407.772 276.966 406.889C 276.667 406.397 276.625 405.001 275.833 405.439C 275.457 405.647 275.587 406.422 275.703 406.903C 275.974 408.028 278.146 409.39 279.5 409.39C 282 409.39 283.5 407.614 283.5 405.731C 283.5 404.022 282.009 402.534 280.851 401.463C 282.635 401.692 285.407 402.032 286.5 400.89C 287.202 400.156 287.5 398.982 287.5 397.89C 287.5 396.798 287.202 395.623 286.5 394.89z"/>
			<path style="stroke:#f03; stroke-width:1; fill:none" d="M 264 394.89L 276.938 394.89"/>
			<path style="stroke:#f03; stroke-width:1; fill:none" d="M 264 397.89L 276.938 397.89"/>
			<path style="stroke:#f03; stroke-width:1; fill:none" d="M 264 400.89L 276.938 400.89"/>
			<path style="stroke:#f03; stroke-width:1; stroke-linejoin:round; stroke-linecap:round; fill:none" d="M 276.192 389.003C 276.601 387.494 277.927 386.39 279.5 386.39C 281.398 386.39 283.5 387.436 283.5 390.049C 283.5 392.662 281.911 393.783 280.5 394.231C 280.5 394.231 287.5 392.14 287.5 397.89C 287.5 403.64 280.5 401.549 280.5 401.549C 281.911 401.996 283.5 403.117 283.5 405.731C 283.5 408.344 281.398 409.39 279.5 409.39C 277.927 409.39 276.601 408.285 276.192 406.776"/>
		</g>
	</g>
</svg>
