<svg xmlns="http://www.w3.org/2000/svg" width="24" height="24">
	<g transform="translate(-264,-386)" id="KDDI_D_283">
		<g>
			<path style="stroke:none; fill:none" d="M 288 409.89L 264 409.89L 264 385.89L 288 385.89L 288 409.89z"/>
		</g>
		<g>
			<path style="stroke:none; fill:#996600" d="M 276.252 386.329L 275.5 385.89L 275.5 386.76C 275.5 388.629 274.569 390.39 272.5 390.39L 272.5 391.39C 272.918 391.39 282.5 393.39 282.5 393.39C 282.5 389.152 276.507 386.477 276.252 386.329z"/>
			<path style="stroke:#663300; stroke-width:1; fill:#663300" d="M 287.5 405.89C 287.5 408.137 286.15 409.39 284.5 409.39L 267.5 409.39C 265.85 409.39 264.5 408.137 264.5 405.89C 264.5 403.646 265.85 402.39 267.5 402.39L 284.5 402.39C 286.15 402.39 287.5 403.646 287.5 405.89z"/>
			<path style="stroke:none; fill:#996600" d="M 284.5 401.89L 267.5 401.89C 265.44 401.89 264 403.535 264 405.89C 264 408.496 264.789 408.89 267.5 408.89L 284.5 408.89C 286.352 408.89 288 407.212 288 405.89C 288 403.535 286.56 401.89 284.5 401.89z"/>
			<path style="stroke:none; fill:#cc9900" d="M 264.028 405.525C 264.167 407.545 265.034 407.89 267.5 407.89L 284.5 407.89C 286.352 407.89 287 406.212 287 404.89C 287 403.582 286.665 402.276 285.214 401.962C 284.985 401.916 284.748 401.89 284.5 401.89L 267.5 401.89C 265.55 401.89 264.173 403.371 264.028 405.525z"/>
			<path style="stroke:none; fill:#663300" d="M 282.5 395.814L 269.5 395.814C 267.44 395.814 266 398.459 266 400.814L 266 401.89C 266 401.89 266 402.89 267.5 402.89C 271.289 402.89 284.071 402.89 284.5 402.89C 285 402.89 286 402.39 286 401.39C 286 400.89 286 400.814 286 400.814C 286 398.459 284.56 395.814 282.5 395.814z"/>
			<path style="stroke:none; fill:#996600" d="M 285.922 399.89C 285.922 397.389 284.279 395.814 282.5 395.814L 269.5 395.814C 267.44 395.814 266 397.889 266 400.814C 266 400.814 266 401.89 267.5 401.89C 271.159 401.89 283.147 401.89 284 401.89C 285 401.89 285.922 400.89 285.922 399.89z"/>
			<path style="stroke:none; fill:#cc9900" d="M 282.5 395.814L 269.5 395.814C 268.451 395.814 267.567 396.356 266.948 397.269C 266.668 398.002 266.5 398.855 266.5 399.814C 266.5 399.814 266.5 400.89 268 400.89C 271.659 400.89 282.226 400.89 283.078 400.89C 284.5 400.89 285 399.89 285 398.89C 285 397.911 284.743 397.08 284.329 396.423C 283.787 396.03 283.153 395.814 282.5 395.814z"/>
			<path style="stroke:none; fill:#663300" d="M 269.5 396.89C 272.502 396.89 281.276 396.89 282 396.89C 282.875 396.89 283.5 396.442 283.5 395.89C 283.5 395.109 283.5 394.12 283.5 393.89C 283.5 391.646 280.65 390.39 279 390.39L 273 390.39C 271.35 390.39 268.5 391.646 268.5 393.89C 268.5 394.12 268.5 395.109 268.5 395.89C 268.5 396.442 268.875 396.89 269.5 396.89z"/>
			<path style="stroke:none; fill:#996600" d="M 282.102 391.463C 282.092 391.439 282.085 391.414 282.075 391.389C 280.875 390.627 279.032 389.857 278 388.889C 276.47 387.454 276.379 386.403 276.252 386.329L 275.5 385.89L 275.5 386.76C 275.5 388.629 274.569 390.39 272.5 390.39L 272.5 390.427C 270.833 390.64 268.5 391.858 268.5 393.89C 268.5 394.065 268.5 394.482 268.5 394.89C 268.5 395.397 268.875 395.89 269.5 395.89C 272.518 395.89 281.378 395.89 282 395.89C 282.75 395.89 283.5 395.007 283.5 394.39C 283.5 394.175 283.5 393.992 283.5 393.89C 283.5 392.866 282.904 392.05 282.102 391.463z"/>
			<path style="stroke:none; fill:#cc9900" d="M 282.5 393.39C 282.5 393.175 282.5 392.992 282.5 392.89C 282.5 392.287 282.278 391.765 281.944 391.311C 280.745 390.574 278.997 389.824 278 388.889C 277.719 388.626 277.5 388.381 277.307 388.147C 277.201 388.062 277.094 387.977 277 387.889C 276.105 387.05 275.71 386.35 275.504 385.892L 275.5 385.89L 275.5 386.76C 275.5 388.629 274.569 390.39 272.5 390.39L 272.5 390.427C 271.316 390.578 269.811 391.245 269.03 392.341C 269.015 392.519 269 392.697 269 392.89C 269 393.065 269 393.482 269 393.89C 269 394.397 269.375 394.89 270 394.89C 273.018 394.89 280.378 394.89 281 394.89C 281.75 394.89 282.5 394.007 282.5 393.39z"/>
			<path style="stroke:none; fill:#ffcc33" d="M 275.5 387.39C 275.5 387.39 275.423 390.415 274 390.89C 272.5 391.39 270.5 391.39 270.5 392.89C 270.5 393.768 271 393.888 272.5 393.888C 272.826 393.888 274.661 393.89 275 393.89C 277.333 393.89 277.5 392.903 277.5 392.39C 277.5 391.39 275.5 389.89 275.5 387.39z"/>
			<path style="stroke:none; fill:#ffcc33" d="M 277.5 398.89C 277.5 399.44 277.1 399.89 276 399.89L 269.5 399.89C 268.4 399.89 268 399.44 268 398.89C 268 398.34 268.4 397.89 269.5 397.89L 276 397.89C 277.1 397.89 277.5 398.34 277.5 398.89z"/>
			<path style="stroke:none; fill:#ffcc33" d="M 277.5 404.89C 277.5 405.44 277.1 405.89 276 405.89L 267 405.89C 265.9 405.89 265.5 405.44 265.5 404.89C 265.5 404.34 265.9 403.89 267 403.89L 276 403.89C 277.1 403.89 277.5 404.34 277.5 404.89z"/>
		</g>
	</g>
</svg>