<svg xmlns="http://www.w3.org/2000/svg" height="24" width="24">
    <g transform="matrix(1,0,0,-1,-264,408)" id="KDDI_D_">        <path d="M271.2 384c0 .6.1.8-.5 1.4-2.2 2.1-3.6 6.2-3.5 7.5 0 1.1 6.4 4.3 9.3 4.2 3-.1 8.9-4.1 8.5-6.4-.3-1.5-2.5-3.8-3.4-5.3-.3-.7-.2-1.1-.2-1.4" fill="#fc9"/>
        <path d="M278.9 384s.5 2.5 1.4 3.4c.9.9 2.5 2.2 2.6 3.3.1 1.1 1.1 3.1 1.1 3.1s1.3-2.7.6-4.1c-.8-1.3-3.3-3.9-3.2-4.6.1-.8-.1-1.1-.1-1.1zM271.9 392.2s0-2.8.4-3.5c.4-.7.6-1.5 1.3-1.6.9-.1 1.3.6 2.4.7.7.1 2.4-.2 2.9.1 1.1.8 1.2 3.5.6 4.7-.8 1.6-2.3 2.6-3.8 2.5-1.6-.2-3.8-2.9-3.8-2.9z" fill="#f93"/>
        <path d="M273.8 391.5s-.9-2.3-.6-2.8c.2-.5 1.1-.7 2.6-.1.7.3 2.2.6 2.1 1.8-.2 1.2-3.1 2.2-4.1 1.1zM279.9 384s-.1 1.1.9 2.6c1.1 1.5 3.9 3.6 3.9 3.6s-2.6-3.9-3.1-4.7c-.4-.9-.2-1.5-.2-1.5z" fill="#c63"/>
        <path d="M268.9 391.1s.8-2.2 1.4-3c.5-.8 2.5-2.1 2.5-2.8V384H271s.2.5-.2.8c-.3.3-3.4 5.6-3.4 6.6l-.1.9z" fill="#ffc"/>
        <path d="M281.4 384c0 .3-.1.7.2 1.4.9 1.5 3.1 3.8 3.4 5.3.4 2.3-5.5 6.3-8.5 6.4-2.9.1-9.3-3.1-9.3-4.2-.1-1.3 1.3-5.4 3.5-7.5.6-.6.5-.8.5-1.4" fill="none" stroke="#000"/>
        <path d="M276.6 393.9l-.4 1.7s-.3 2.6 0 5.5c.2 3 .9 6.3 2.3 6.4 1.4 0 1.7-4.2 1.8-6.4.2-2.1.4-6 .4-6z" fill="#fc9"/>
        <path d="M279 406.6s-.8-.3-1-1.3c-.2-.8-.7-4.2-.7-5.7s.2-4 .2-4l-1.1-.3s-.4 3.7-.3 6.1c.2 2.5 1.3 5.9 2.1 6.1.8.1.8-.9.8-.9z" fill="#ffc"/>
        <path d="M269.8 390.6c1-.8 3-2.7 3.8-1.6.8 1.1-.2 2.9-2 4.4-1.6 1.3-3.8 1.6-4.4.6-1-1.5 1.6-2.5 2.6-3.4z" fill="#fc9"/>
        <path d="M269.6 394.2s1.1-1 1.7-1.8c.6-.8 1.1-1.4.7-2.1-.2-.4-1.4-.6-1.4-.6s2.7-1.3 3-.3c.3 1.1 0 1.8-.8 2.6s-3.2 2.2-3.2 2.2zM279.9 405.7l-1-.5s.3-1.4.3-3.5c0-3.1-.2-6-.2-6l1.4.7v5.5z" fill="#f93"/>
        <path d="M276.2 395.6s-.3 2.6 0 5.5c.2 3 .6 6.4 2.3 6.4 2.1-.1 1.8-4.2 1.8-6.3.1-2.1.4-6.1.4-6.1" fill="none" stroke="#000" stroke-linecap="round" stroke-linejoin="round"/>
        <path d="M274 395.7c1.1-.9 3.2-3.1 4.1-1.8.8 1.2-.2 3-2.1 4.6-1.7 1.5-4.1 2-4.8.9-1-1.6 1.7-2.7 2.8-3.7z" fill="#fc9"/>
        <path d="M274.2 399.5s3.5-2.4 4-3.7c.5-1.4.1-2.1-.4-2.2-.8-.3-2.4.9-2.4.9s1.2.3 1.3 1.1c.1 1.1-2.5 3.9-2.5 3.9z" fill="#f93"/>
        <path d="M277.2 396.8s.5-1.5.2-2-1-.5-1-.5 1.3-.8 1.6-.2c.6 1.4-.8 2.7-.8 2.7z" fill="#c63"/>
        <path d="M273 397.9c.4-.6 2.6-2.8 2.6-2.8s-3.6 1.5-4.1 2.4c-.6.9-.6 2.2 1.2 2.4 0 0-.2-1.4.3-2z" fill="#ffc"/>
        <path d="M274 395.7c1.1-.9 3.2-3.1 4.1-1.8.8 1.2-.2 3-2.1 4.6-1.7 1.5-4.1 2-4.8.9-1-1.6 1.7-2.7 2.8-3.7z" fill="none" stroke="#000" stroke-linecap="round"/>
        <path d="M279.5 391.5s-1.2-3.2-2.8-3c-1.7.1-.9 3.9 0 5.4.8 1.3 2.8 2.4 4.4 2.5 1.7.1 4.5-3.3 3.8-6.2" fill="#fc9"/>
        <path d="M282.6 389.8s.8 1.5.4 3c-.4 2.2-2.6 3.3-2.6 3.3s.9.2 2-.4c1-.5 2-1.8 2.2-3.3.1-1.6-.6-2.7-.6-2.7z" fill="#f93"/>
        <path d="M272.6 391.9s.5-1.6.2-2.1c-.3-.4-1-.5-1-.5s1.4-.8 1.7-.1c.6 1.3-.9 2.7-.9 2.7z" fill="#c63"/>
        <path d="M280.2 395.9s-1.8-1.3-2.4-2c-.6-.7-.9-3.6-.7-4 .2-.3.8-1.1.8-1.1s-1.5-.4-1.9.3c-.7 1.3 0 4 .4 4.7 1.1 2.1 3.8 2.1 3.8 2.1zM268.6 392.9c.4-.8 2.9-3.2 2.9-3.2s-3.4 1.9-4 2.8c-.6.8-.4 1.8 1.3 2 0 0-.5-.9-.2-1.6z" fill="#ffc"/>
        <path d="M279.5 391.7s1 .6.6 1c-.3.5-1.7.2-1.8-.4-.1-.5.3-.8.3-1.2-.1-.5.1-1.2.1-1.2z" fill="#f93"/>
        <path d="M269.8 390.6c1-.8 3-2.7 3.8-1.6.8 1.1-.2 2.9-2 4.4-1.6 1.3-3.9 1.8-4.4.6-.7-1.6 1.6-2.5 2.6-3.4z" fill="none" stroke="#000" stroke-linecap="round"/>
        <path d="M281.4 393.7c.6.1 1.2-1.5 1-2.2-.2-.7-1.4-2.4-1.8-2.2-.4.1.7 1.4.7 2 0 .6-.5 2.2.1 2.4z" fill="#ffc"/>
        <path d="M278.8 392.8l.7-1.4 1.3.9" fill="none" stroke="#933" stroke-linecap="round"/>
        <path d="M271.5 393.5c1.1-1 3.2-3.1 4.1-1.9.8 1.3-.2 3-2.1 4.6-1.7 1.5-4.1 2-4.8.9-1-1.6 1.7-2.7 2.8-3.6z" fill="#fc9"/>
        <path d="M271.7 397.2s3.5-2.3 4-3.7c.5-1.4.1-2-.4-2.2-.9-.2-2.4 1-2.4 1s1.2.3 1.3 1c.1 1.1-2.5 3.9-2.5 3.9z" fill="#f93"/>
        <path d="M274.7 394.5s.5-1.5.2-2-1-.5-1-.5 1.3-.8 1.6-.1c.6 1.3-.8 2.6-.8 2.6z" fill="#c63"/>
        <path d="M270.5 395.6c.4-.6 2.6-2.8 2.6-2.8s-3.6 1.6-4.2 2.4c-.5.9-.5 2.3 1.2 2.4 0 0-.1-1.3.4-2z" fill="#ffc"/>
        <path d="M271.5 393.5c1.1-1 3.2-3.1 4.1-1.9.8 1.3-.2 3-2.1 4.6-1.7 1.5-4.1 2-4.8.9-1-1.6 1.7-2.7 2.8-3.6z" fill="none" stroke="#000" stroke-linecap="round"/>
        <path d="M279.5 391.5s-.3-3.2-2.7-2.8c-1.7.3-.8 3.8-.2 5.4.4 1.3 3.1 2.3 4.5 2.3 1.7 0 4.5-3.3 3.8-6.2" fill="none" stroke="#000" stroke-linecap="round"/>
    </g>
</svg>
