<svg xmlns="http://www.w3.org/2000/svg" width="24" height="24">
	<g transform="translate(-288,-386)" id="KDDI_D_285">
		<g>
			<path style="stroke:none; fill:none" d="M 312 409.89L 288 409.89L 288 385.89L 312 385.89L 312 409.89z"/>
		</g>
		<g>
			<path style="stroke:#ff0033; stroke-width:1; fill:#ffcc00" d="M 311.5 397.89C 311.5 404.241 306.352 409.39 300 409.39C 293.649 409.39 288.5 404.241 288.5 397.89C 288.5 391.539 293.649 386.39 300 386.39C 306.352 386.39 311.5 391.539 311.5 397.89z"/>
			<path style="stroke:#006600; stroke-width:1.3; stroke-linejoin:round; stroke-linecap:round; fill:none" d="M 296 390.39L 292.917 393.043"/>
			<path style="stroke:#006600; stroke-width:1.3; stroke-linejoin:round; stroke-linecap:round; fill:none" d="M 296.264 394.765L 292.583 399.585"/>
			<path style="stroke:#006600; stroke-width:1.3; stroke-linejoin:round; stroke-linecap:round; fill:none" d="M 294.876 396.695L 294.876 405.918"/>
			<path style="stroke:#006600; stroke-width:1.3; stroke-linejoin:round; stroke-linecap:round; fill:none" d="M 297.708 397.89L 307 397.89"/>
			<path style="stroke:#006600; stroke-width:1.3; stroke-linejoin:round; stroke-linecap:round; fill:none" d="M 297.167 400.598L 307.792 400.598"/>
			<path style="stroke:#006600; stroke-width:1.3; stroke-linejoin:round; stroke-linecap:round; fill:none" d="M 299.25 402.793L 300.417 403.71"/>
			<path style="stroke:#006600; stroke-width:1.3; stroke-linejoin:round; stroke-linecap:round; fill:none" d="M 305.333 397.96L 305.333 405.168L 303.542 405.71"/>
			<path style="stroke:#006600; stroke-width:1.3; stroke-linejoin:round; stroke-linecap:round; fill:none" d="M 305.834 395.418L 298.958 395.418L 298.958 390.46L 305.834 390.46L 305.834 395.418z"/>
			<path style="stroke:#006600; stroke-width:1.3; stroke-linejoin:round; stroke-linecap:round; fill:none" d="M 299.083 392.918L 305.833 392.918"/>
		</g>
	</g>
</svg>
