<svg xmlns="http://www.w3.org/2000/svg" height="24" width="24">
    <g transform="matrix(1,0,0,-1,-264,408)" id="KDDI_D_">        <path d="M288.2 397.7c0 9-8.4 10.2-12.1 10.2-3.8 0-12.1-1.2-12.1-10.2 0-5.1 2-5.6 4-8.6s1.6-5.2 1.6-5.2h2.7v3.9h2.2v-3.9h3v3.9h2.2v-3.9h2.9s-.4 2.2 1.6 5.2 4 3.5 4 8.6z"/>
        <path d="M277.1 407.5c1.6 0 3.9-.2 6.2-1.2-2.5 1.3-5.4 1.6-7.2 1.6-3.8 0-12.1-1.2-12.1-10.2 0-3.3.8-4.7 2-6-.6 1.2-1 2.6-1 5.1 0 8.4 8.3 10.7 12.1 10.7z" fill="#333"/>
        <path d="M269.3 400.5c1.3 1.8 3.3 2.8 4.7 1.8 1.4-.9 1.5-4.8.5-5.8-1.6-1.7-3.7-1.5-5.2-1-1.6.6-1.3 3.1 0 5zM282.7 400.5c-1.3 1.8-3.3 2.8-4.7 1.8-1.4-.9-1.5-4.8-.5-5.8 1.6-1.7 3.8-1.5 5.2-1 1.6.6 1.3 3.1 0 5z" fill="#fff"/>
    </g>
</svg>
