<svg xmlns="http://www.w3.org/2000/svg" height="24" width="24">
    <g transform="matrix(1,0,0,-1,-264,408)" id="KDDI_D_">        <path d="M264.1 388.1c.6 0 3 .2 3.6-.4 2.1-2.1 6.2-3.3 7.6-3.2.4 0 3.1-.6 4.5.9 1.8 2.1 2.4 9.1 2.4 10.8-.2 2.8-7 5.4-9.2 5-1.6-.2-3.8-2.4-5.3-3.2-.6-.4-3.3-.4-3.6-.4" fill="#fc9"/>
        <path d="M276.8 387.3s-2.2 0-2.7.5-1.2.8-1.3 1.7c-.1 1.1.5 1.6.6 3 0 .9-.2 3.1.1 3.7.6 1.4 2.6 1.5 3.6.7 1.2-1 2-2.9 1.9-4.8-.1-1.9-2.2-4.8-2.2-4.8z" fill="#f93"/>
        <path d="M279.3 392.4c-.2-3.3-4-4.1-4.6-3.9-1.1.3-.3 2.4-.1 4.2.1 1.2-.3 3.3.8 3.6 1.3.3 4-.5 3.9-3.9z" fill="#c63"/>
        <path d="M278.4 386.5l-3.1 1.8s.8-3-3.9-1c-.9.3-3.1 2.5-4.6 2.5-.7 0-2.7-.1-2.7-.1v-1.8s2.7.4 3 0c.4-.4 5.7-3.1 6.6-3.2 1-.1 4.3-.2 4.3-.2z" fill="#f93"/>
        <path d="M269.8 386.7s3-.9 4.1-.9c1.1 0 2.6.9 2.6.9l.6-2.4-3.4.4z" fill="#c63"/>
        <path d="M264.1 397.6c.3 0 3.2-.2 3.6.4 1.2 1.5 3.7 2.9 5.3 3.2 4.8 1 8.7-4.6 8.8-7.4.1-2.1.7-6.7-1.5-8.8-.9-.9-3.8-.5-5-.5-1.4 0-5.5 1.1-7.6 3.2-.6.6-3 .4-3.6.4" fill="none" stroke="#000"/>
        <path d="M274.4 398.7l4.6-.1s.9 2.1 1.2 4.3c.2 2-.1 3.6-.4 4.1-.9 1-3.3.6-3.5-.5-.3-1.2 0-1.7-.9-2.7-.9-1-3.8-3.1-3.8-3.1z" fill="#fc9"/>
        <path d="M279.8 407c-.5.5-1.2.6-2 .5.3-.1.5-.2.6-.4.4-.4 1-1.7.8-3.6-.3-2.2-2.1-4.7-2.1-4.7l1.9-.2s.9 2.1 1.2 4.3c.2 2-.1 3.6-.4 4.1z" fill="#f93"/>
        <path d="M264.1 395s1.2.1 2.3.1c.9.1 1.9-.1 3.4.4 1.4.5 1.8 2.4 2.6 2.9 1.8 1.1 2.7 1.8 4 3.2 2 2 1.4 5.7.4 5.2-.3-.1-.4-1.8-.6-2.9-.1-1-.8-1.7-1.9-2.6-2.3-1.9-6.2-4.4-6.6-4.6-.9-.4-3.6-.4-3.6-.4z" fill="#ffc"/>
        <path d="M279 398.6s1.2 2.2 1.5 4.5c.3 1.9-.4 3.4-.7 3.9-.9 1-3.3.6-3.5-.5-.3-1.2 0-1.7-.9-2.7-.9-1-2.8-2.7-3.6-3" fill="none" stroke="#000" stroke-linecap="round"/>
        <path d="M281.6 396.3c-1.7 0-5.3-.5-5.2 1.4.1 1.9 2.4 2.8 5.4 2.9 2.7.1 5.4-1.4 5.2-2.9-.2-2.4-3.6-1.3-5.4-1.4z" fill="#fc9"/>
        <path d="M284.8 397.3c1.7-.6-.5-1-.5-1l-7.4.1s-.5 1.7-.1 2.2c.7.9 1.6 1.2 1.6 1.2s-.3-1.6.5-2c1.3-.9 5.4-.3 5.9-.5z" fill="#f93"/>
        <path d="M280.6 399c.7.2.5.1 1.3.1 2.2 0 4.3-.9 5-2 .1.2.1.3.1.6.2 1.5-2.6 2.3-4.5 2.4-.9 0-1.1.2-1.9 0-1.7-.4-1.5-1.4 0-1.1z" fill="#ffc"/>
        <path d="M279.4 396.5s-1.3.6-1.8 1.3c-.3.6 0 1.5 0 1.5s-1.4-.7-1.2-1.5c.4-1.8 3-1.3 3-1.3z" fill="#c63"/>
        <path d="M281.6 396.3c-1.7 0-5.3-.5-5.2 1.4.1 1.9 2.3 2.4 5.3 2.5 2.8 0 5.5-.7 5.4-2.3-.2-2.4-3.7-1.5-5.5-1.6z" fill="none" stroke="#000" stroke-linecap="round"/>
        <path d="M282.1 392.1c-1.8-.1-5.5-.5-5.4 1.4.1 1.9 2.5 2.8 5.6 2.8 2.8.1 5.5-1.2 5.3-2.7-.2-2.4-3.7-1.5-5.5-1.5z" fill="#fc9"/>
        <path d="M285.4 393.1c1.7-.7-.6-1.1-.6-1.1l-7.6.2s-.4 1.6-.1 2.1c.7 1 1.7 1.2 1.7 1.2s-.3-1.5.5-2c1.3-.8 5.6-.2 6.1-.4z" fill="#f93"/>
        <path d="M281.1 394.8c.7.1.5 0 1.3 0 2.2.1 4.4-.7 5.1-1.8 0 .1.1.3.1.6.2 1.5-2.6 2.2-4.6 2.2-.9.1-1.2.2-1.9 0-1.8-.4-1.6-1.3 0-1z" fill="#ffc"/>
        <path d="M279.8 392.3s-1.4.5-1.8 1.3c-.4.5 0 1.5 0 1.5s-1.5-.7-1.3-1.6c.5-1.8 3.1-1.2 3.1-1.2z" fill="#c63"/>
        <path d="M282.1 392.1c-1.8-.1-5.5-.3-5.4 1.6.1 1.9 2.4 2.1 5.5 2.2 2.8.1 5.6-.5 5.5-2.1-.2-2.4-3.8-1.7-5.6-1.7z" fill="none" stroke="#000" stroke-linecap="round"/>
        <path d="M282 388.1c-1.8 0-5.4-.4-5.3 1.4.1 1.8 2.4 2.7 5.4 2.8 2.8 0 5.3-1.2 5.2-2.7-.2-2.3-3.6-1.4-5.3-1.5z" fill="#fc9"/>
        <path d="M285.1 389.1c1.7-.6-.5-1-.5-1l-7.4.1s-.4 1.6-.1 2.1c.7.9 1.6 1.1 1.6 1.1s-.3-1.4.5-1.9c1.3-.8 5.4-.2 5.9-.4z" fill="#f93"/>
        <path d="M280.9 390.7c.7.2.5.1 1.3.1 2.2.1 4.3-.7 5-1.8 0 .2.1.4.1.6.1 1.5-2.6 2.1-4.5 2.2-.9 0-1.1.1-1.9 0-1.7-.4-1.5-1.3 0-1.1z" fill="#ffc"/>
        <path d="M279.7 388.4s-1.3.5-1.8 1.2c-.3.5 0 1.4 0 1.4s-1.4-.6-1.2-1.5c.4-1.7 3-1.1 3-1.1z" fill="#c63"/>
        <path d="M282 388c-1.7 0-5.4-.1-5.3 1.7.1 1.8 2.3 2.1 5.3 2.2 2.8 0 5.5-.6 5.3-2.1-.2-2.3-3.5-1.8-5.3-1.8z" fill="none" stroke="#000" stroke-linecap="round"/>
        <path d="M281.2 384.5c-1.5 0-4.7-.3-4.7 1.4.1 1.7 2.2 2.4 4.9 2.4 2.4 0 4.7-1.2 4.6-2.6-.2-2.1-3.2-1.2-4.8-1.2z" fill="#fc9"/>
        <path d="M284.1 385.3c1.4-.6-.5-.9-.5-.9l-6.6.3s-.4 1.5-.1 1.9c.6.9 1.4 1 1.4 1s-.2-1.4.4-1.8c1.2-.8 4.9-.3 5.4-.5z" fill="#f93"/>
        <path d="M280.3 386.9c.6.1.4.1 1.1.1 2 0 3.9-.8 4.5-1.8.1.1.1.3.1.5.1 1.4-2.3 2-4 2.1-.8.1-1 .2-1.7.1-1.5-.4-1.3-1.2 0-1z" fill="#ffc"/>
        <path d="M279.2 384.7s-1.2.5-1.6 1.2c-.3.5 0 1.4 0 1.4s-1.2-.6-1.1-1.4c.4-1.6 2.7-1.2 2.7-1.2z" fill="#c63"/>
        <path d="M281.2 384.2c-1.6 0-4.7.1-4.7 1.8.1 1.8 2.1 1.9 4.8 1.9 2.5 0 4.9-.6 4.7-2-.1-2.1-3.2-1.7-4.8-1.7z" fill="none" stroke="#000" stroke-linecap="round"/>
    </g>
</svg>
