<svg xmlns="http://www.w3.org/2000/svg" height="24" width="24">
    <g transform="matrix(1,0,0,-1,-264,408)" id="KDDI_D_">        <path d="M273.6 403.7l-3.7 3.7M278.4 403.7l3.7 3.7" fill="#666" stroke="#000" stroke-width="1.2" stroke-linecap="round"/>
        <path d="M269.3 388.3v-3.6M282.7 388.3v-3.6" fill="#666" stroke="#000" stroke-width="1.5" stroke-linecap="round"/>
        <path d="M285.9 389.4c0-.5-.5-1-1-1h-17.5c-.6 0-1.1.5-1.1 1v13.3c0 .6.5 1.1 1.1 1.1h17.5c.5 0 1-.5 1-1.1z" fill="#6f0"/>
        <path d="M284.9 403.8h-.2v-13.3c0-.5-.4-1-1-1h-17.4v-.1c0-.5.5-1 1.1-1h17.5c.5 0 1 .5 1 1v13.3c0 .6-.5 1.1-1 1.1z" fill="#3c0"/>
        <path d="M268.5 402.6h16.3s.6 1.2.1 1.2h-17.5c-.6 0-1.1-.5-1.1-1.1v-13.3c0-.5 1.2.2 1.2.2v12c0 .5.4 1 1 1z" fill="#cf9"/>
        <path d="M285.9 389.4c0-.5-.5-1-1-1h-17.5c-.6 0-1.1.5-1.1 1v13.3c0 .6.5 1.1 1.1 1.1h17.5c.5 0 1-.5 1-1.1z" fill="none" stroke="#000"/>
        <path d="M281 392.1c0-.6-.4-1-1-1h-9.8c-.6 0-1 .4-1 1v7.7c0 .6.4 1 1 1h9.8c.6 0 1-.4 1-1z" fill="#666"/>
        <path d="M273.2 398h3.8s1.3.1 1.3.9-1.3.8-1.3.8h-5.6c-.6 0-1-.4-1-.9v-4.2s0-1.6 1-1.6c.9 0 .8 1.6.8 1.6v2.4c0 .6.5 1 1 1z" fill="#999"/>
        <path d="M281 392.1c0-.6-.4-1-1-1h-9.8c-.6 0-1 .4-1 1v7.7c0 .6.4 1 1 1h9.8c.6 0 1-.4 1-1z" fill="none" stroke="#000"/>
        <path d="M284.7 397.7c0-.6-.5-1-1.1-1-.6 0-1 .4-1 1s.4 1.1 1 1.1 1.1-.5 1.1-1.1zM284.7 394c0-.6-.5-1.1-1.1-1.1-.6 0-1 .5-1 1.1 0 .5.4 1 1 1s1.1-.5 1.1-1z" fill="#666" stroke="#000" stroke-width=".75"/>
    </g>
</svg>
