<svg xmlns="http://www.w3.org/2000/svg" width="24" height="24">
	<g transform="translate(-264,-386)" id="KDDI_D_289">
		<g>
			<path style="stroke:none; fill:none" d="M 288 409.89L 264 409.89L 264 385.89L 288 385.89L 288 409.89z"/>
		</g>
		<g>
			<path style="stroke:none; fill:#ccf" d="M 272.5 408.277C 271.333 409.443 269.504 409.524 268.435 408.453C 267.365 407.384 267.445 405.555 268.611 404.388L 277.304 395.695C 278.471 394.529 280.3 394.449 281.37 395.519C 282.44 396.589 282.359 398.418 281.193 399.585L 272.5 408.277z"/>
			<path style="stroke:#333; stroke-width:1; stroke-linecap:square; fill:none" d="M 264.5 392.89C 264.5 392.89 264.5 391.89 264.5 390.39C 264.5 388.89 266 388.39 267 388.39C 268 388.39 270.5 388.39 271.5 388.39C 272.5 388.39 273.5 388.89 273.5 390.39C 273.5 391.89 273.5 391.39 273.5 391.89C 273.5 392.39 273.081 393.586 272.5 394.249C 271.5 395.39 266.614 399.561 265.5 400.809C 264.915 401.464 264.5 402.39 264.5 402.89C 264.5 403.89 264.5 406.89 264.5 407.39C 264.5 408.39 265.5 409.39 266.5 409.39C 268 409.39 268.25 409.64 269 408.89"/>
			<path style="stroke:#669; stroke-width:2; fill:none" d="M 280.5 398.89L 271 408.39"/>
			<path style="stroke:#99c; stroke-width:1; fill:none" d="M 279 398.39L 269.5 407.89"/>
			<path style="stroke:none; fill:#33c" d="M 272.647 407.398C 271.529 408.045 270.133 407.958 269.25 407.074C 268.548 406.372 268.351 405.344 268.622 404.39L 268.61 404.39C 267.445 405.557 267.365 407.384 268.435 408.453C 269.504 409.524 271.333 409.443 272.5 408.277L 273 407.777L 273 407.39C 273 407.39 272.863 407.397 272.647 407.398z"/>
			<path style="stroke:none; fill:#66f" d="M 269.25 407.074C 268.548 406.372 268.351 405.344 268.622 404.39L 268.61 404.39C 267.502 405.499 267.389 407.198 268.298 408.282C 269.093 408.099 269.688 407.439 269.688 407.439L 269.692 407.418C 269.536 407.32 269.385 407.21 269.25 407.074z"/>
			<path style="stroke:#000; stroke-width:1; fill:none" d="M 272.5 408.277C 271.333 409.443 269.504 409.524 268.435 408.453C 267.365 407.384 267.445 405.555 268.611 404.388L 277.304 395.695C 278.471 394.529 280.3 394.449 281.37 395.519C 282.44 396.589 282.359 398.418 281.193 399.585L 272.5 408.277z"/>
			<path style="stroke:none; fill:#999" d="M 287.5 394.39C 287.5 397.151 285.261 399.39 282.5 399.39C 279.739 399.39 277.5 397.151 277.5 394.39C 277.5 391.629 279.739 389.39 282.5 389.39C 285.261 389.39 287.5 391.629 287.5 394.39z"/>
			<path style="stroke:#ccc; stroke-width:1; fill:none" d="M 281 389.39L 287.5 395.89"/>
			<path style="stroke:#ccc; stroke-width:1; fill:none" d="M 278.337 391.671L 285.049 398.382"/>
			<path style="stroke:#33c; stroke-width:1; fill:none" d="M 279 390.89L 286 397.89"/>
			<path style="stroke:none; fill:#666" d="M 282.5 398.39C 279.91 398.39 277.805 396.413 277.55 393.89C 277.534 394.057 277.5 394.218 277.5 394.39C 277.5 397.151 279.739 399.39 282.5 399.39C 284.55 399.39 286.312 398.156 287.084 396.39C 286.5 396.89 285.09 398.39 282.5 398.39z"/>
			<path style="stroke:#000; stroke-width:1; fill:none" d="M 282.5 389.39C 285.261 389.39 287.5 391.629 287.5 394.39C 287.5 397.151 285.261 399.39 282.5 399.39C 279.739 399.39 277.5 397.151 277.5 394.39C 277.5 391.629 279.739 389.39 282.5 389.39z"/>
		</g>
	</g>
</svg>
