<svg xmlns="http://www.w3.org/2000/svg" width="24" height="24">
	<g transform="translate(-264,-386)" id="KDDI_D_290">
		<g>
			<path style="stroke:none; fill:none" d="M 288 409.89L 264 409.89L 264 385.89L 288 385.89L 288 409.89z"/>
		</g>
		<g>
			<path style="stroke:none; fill:#c09" d="M 285.5 397.89C 285.5 397.89 285.5 394.391 285.5 393.39C 285.5 391.89 284 391.39 283 391.39C 281.5 391.39 276 391.39 276 391.39C 276 391.39 270.5 391.39 269 391.39C 268 391.39 266.5 391.89 266.5 393.39C 266.5 394.39 266.5 397.89 266.5 397.89C 265.5 398.89 264.5 400.39 264.5 401.39C 264.5 402.39 264.5 402.89 264.5 404.39C 264.5 405.39 264.5 407.39 266.5 407.39C 269 407.39 276 407.39 276 407.39C 276 407.39 283 407.39 285.5 407.39C 287.5 407.39 287.5 405.39 287.5 404.39C 287.5 402.89 287.5 402.39 287.5 401.39C 287.5 400.39 286.5 398.89 285.5 397.89z"/>
			<path style="stroke:none; fill:#f9c" d="M 276 392.89C 276 392.89 272.458 392.89 271.5 392.89C 269.5 392.89 268 394.39 268 396.39L 268 398.511L 267.56 398.95C 266.536 399.976 266 400.89 266 401.89L 266 404.39C 266 405.89 267.221 405.89 267.5 405.89L 284.5 405.89C 284.779 405.89 286 405.89 286 404.39L 286 401.89C 286 400.89 285.464 399.976 284.44 398.95L 284 398.511L 284 396.89C 284 395.39 280.5 392.89 279 392.89C 278 392.89 276 392.89 276 392.89z"/>
			<path style="stroke:none; fill:#f09" d="M 284 398.511C 284 398.511 284 397.89 284 395.89C 284 393.89 283 392.89 281 392.89C 278.5 392.89 277 392.89 277 392.89C 277 392.89 272.958 392.89 272 392.89C 270 392.89 269 394.39 269 395.89L 269 398.89L 268.56 399.329C 267.536 400.355 267 401.39 267 402.39L 267 404.89C 267 405.39 267.5 405.89 268 405.89L 284.5 405.89C 284.779 405.89 286 405.89 286 404.39L 286 401.89C 286 400.89 285.464 399.976 284.44 398.95L 284 398.511z"/>
			<path style="stroke:#906; stroke-width:1; fill:none" d="M 285.5 397.89C 285.5 397.89 285.5 395.391 285.5 394.39C 285.5 392.89 284 392.39 283 392.39C 281.5 392.39 276 392.39 276 392.39C 276 392.39 270.5 392.39 269 392.39C 268 392.39 266.5 392.89 266.5 394.39C 266.5 395.39 266.5 397.89 266.5 397.89C 265.5 398.89 264.5 400.39 264.5 401.39C 264.5 402.39 264.5 402.89 264.5 404.39C 264.5 405.39 264.5 407.39 266.5 407.39C 269 407.39 276 407.39 276 407.39C 276 407.39 283 407.39 285.5 407.39C 287.5 407.39 287.5 405.39 287.5 404.39C 287.5 402.89 287.5 402.39 287.5 401.39C 287.5 400.39 286.5 398.89 285.5 397.89z"/>
			<path style="stroke:none; fill:#c90" d="M 276 389.411C 276 390.233 275.333 390.901 274.509 390.901C 273.685 390.901 273.019 390.233 273.019 389.411C 273.019 388.587 273.685 387.92 274.509 387.92C 275.333 387.92 276 388.587 276 389.411z"/>
			<path style="stroke:none; fill:#960" d="M 275.302 388.152C 275.431 388.373 275.51 388.627 275.51 388.9C 275.51 389.724 274.843 390.391 274.02 390.391C 273.727 390.391 273.457 390.304 273.227 390.159C 273.485 390.601 273.96 390.901 274.509 390.901C 275.333 390.901 276 390.233 276 389.411C 276 388.879 275.72 388.416 275.302 388.152z"/>
			<path style="stroke:none; fill:#c90" d="M 276.019 389.39C 276.019 390.213 276.686 390.88 277.509 390.88C 278.333 390.88 279 390.213 279 389.39C 279 388.566 278.333 387.899 277.509 387.899C 276.686 387.899 276.019 388.566 276.019 389.39z"/>
			<path style="stroke:none; fill:#960" d="M 276.717 388.131C 276.588 388.352 276.509 388.606 276.509 388.879C 276.509 389.703 277.176 390.37 278 390.37C 278.292 390.37 278.562 390.283 278.792 390.138C 278.534 390.58 278.06 390.88 277.509 390.88C 276.686 390.88 276.019 390.213 276.019 389.39C 276.019 388.858 276.299 388.395 276.717 388.131z"/>
			<path style="stroke:#c90; stroke-width:1; fill:none" d="M 266.5 395.89C 266.5 393.639 266.5 393.639 266.5 393.39C 266.5 391.89 268 391.39 269 391.39C 270 391.39 282 391.39 283 391.39C 284 391.39 285.5 391.89 285.5 393.39C 285.5 394.89 285.5 395.89 285.5 395.89"/>
			<path style="stroke:none; fill:#ffc" d="M 274.5 388.89C 274.5 389.166 274.276 389.39 274 389.39C 273.724 389.39 273.5 389.166 273.5 388.89C 273.5 388.613 273.724 388.39 274 388.39C 274.276 388.39 274.5 388.613 274.5 388.89z"/>
			<path style="stroke:none; fill:#ffc" d="M 278.5 388.89C 278.5 389.166 278.276 389.39 278 389.39C 277.724 389.39 277.5 389.166 277.5 388.89C 277.5 388.613 277.724 388.39 278 388.39C 278.276 388.39 278.5 388.613 278.5 388.89z"/>
		</g>
	</g>
</svg>
