<svg xmlns="http://www.w3.org/2000/svg" width="24" height="24">
	<g transform="translate(-264,-386)" id="KDDI_D_291">
		<g>
			<path style="stroke:none; fill:none" d="M 288 409.89L 264 409.89L 264 385.89L 288 385.89L 288 409.89z"/>
		</g>
		<g>
			<path style="stroke:none; fill:#333" d="M 272.285 401.604C 273.652 402.971 273.178 405.662 271.225 407.615C 269.272 409.567 266.581 410.042 265.214 408.675C 263.848 407.308 264.322 404.617 266.275 402.665C 268.228 400.713 270.919 400.237 272.285 401.604z"/>
			<path style="stroke:none; fill:#333" d="M 272.5 392.89L 273 393.89L 285 388.89L 286 387.135L 272.5 392.89z"/>
			<path style="stroke:#000; stroke-width:1; fill:none" d="M 272.5 403.89L 272.5 392.39L 285.5 386.89L 285.5 402.39"/>
			<path style="stroke:none; fill:#000" d="M 266.275 402.665C 264.444 404.495 263.934 406.96 265 408.389C 266.43 409.456 268.895 408.944 270.725 407.115C 272.024 405.815 273.039 404.374 272.986 402.966C 272.878 402.444 272.654 401.973 272.285 401.604C 270.919 400.237 268.228 400.713 266.275 402.665z"/>
			<path style="stroke:none; fill:#000" d="M 272.5 391.89L 273 392.89L 285 387.89L 286 386.135L 272.5 391.89z"/>
			<path style="stroke:none; fill:#ccc" d="M 267.104 402.994C 265.929 404.196 266.104 405.994 266.104 405.994C 266.104 405.994 266.152 404.946 267.604 403.494C 269.057 402.042 270.104 401.994 270.104 401.994C 270.104 401.994 268.386 401.683 267.104 402.994z"/>
			<path style="stroke:none; fill:#fff" d="M 268.145 402.542C 268.297 402.7 268.027 403.087 267.604 403.494C 267.182 403.901 266.766 404.173 266.613 404.016C 266.462 403.858 266.682 403.401 267.104 402.994C 267.527 402.587 267.993 402.385 268.145 402.542z"/>
			<path style="stroke:none; fill:#333" d="M 285.285 399.604C 286.652 400.971 286.178 403.662 284.225 405.615C 282.272 407.567 279.581 408.042 278.214 406.675C 276.848 405.308 277.322 402.617 279.275 400.665C 281.228 398.713 283.919 398.237 285.285 399.604z"/>
			<path style="stroke:none; fill:#000" d="M 279.275 400.665C 277.444 402.495 276.934 404.96 278 406.389C 279.43 407.456 281.895 406.944 283.725 405.115C 285.024 403.815 286.039 402.374 285.986 400.966C 285.878 400.444 285.654 399.973 285.285 399.604C 283.919 398.237 281.228 398.713 279.275 400.665z"/>
			<path style="stroke:none; fill:#ccc" d="M 280.104 400.994C 278.929 402.196 279.104 403.994 279.104 403.994C 279.104 403.994 279.152 402.946 280.604 401.494C 282.057 400.042 283.104 399.994 283.104 399.994C 283.104 399.994 281.386 399.683 280.104 400.994z"/>
			<path style="stroke:none; fill:#fff" d="M 281.145 400.542C 281.297 400.7 281.027 401.087 280.604 401.494C 280.182 401.901 279.766 402.173 279.613 402.016C 279.462 401.858 279.682 401.401 280.104 400.994C 280.527 400.587 280.993 400.385 281.145 400.542z"/>
		</g>
	</g>
</svg>
