<svg xmlns="http://www.w3.org/2000/svg" width="24" height="24">
	<g transform="translate(-264,-386)" id="KDDI_D_292">
		<g>
			<path style="stroke:none; fill:none" d="M 288 409.89L 264 409.89L 264 385.89L 288 385.89L 288 409.89z"/>
		</g>
		<g>
			<path style="stroke:none; fill:#600" d="M 273.5 393.39C 272.562 393.39 272.5 393.89 272 394.89C 271.5 395.89 271 396.89 270 397.89C 268.5 399.39 264 398.126 264 402.89C 264 407.39 266.562 409.89 270.5 409.89C 275.016 409.89 275.23 406.393 276 404.923C 276.516 403.939 276.607 402.947 278 402.39C 279.973 401.601 280.596 400.759 280.608 400.235C 280.611 400.095 280.656 399.064 280.5 398.89C 280.242 398.603 279.207 399.837 278.5 399.89C 278.125 399.918 276.5 399.39 275.5 398.39C 274.5 397.39 274 397.007 274 395.89C 274 394.39 274.347 393.39 273.5 393.39z"/>
			<path style="stroke:none; fill:#903" d="M 274 391.89C 273.062 391.89 272.5 392.89 272 393.89C 271.5 394.89 271 395.89 270 396.89C 268.5 398.39 264 397.626 264 402.39C 264 406.39 266.562 408.89 270.5 408.89C 274.5 408.89 274.708 405.348 275.5 403.89C 276.254 402.5 276.607 401.947 278 401.39C 280.5 400.39 280.833 399.306 280.5 398.89C 280.058 398.338 279.497 398.816 278.5 398.89C 278.125 398.918 276.359 398.767 275.25 397.657C 274.438 396.845 274.085 395.928 274.5 394.89C 275.5 392.39 274.847 391.89 274 391.89z"/>
			<path style="stroke:none; fill:#f99" d="M 278.5 398.89C 278.304 398.904 276.25 400.14 274.5 398.39C 273.737 397.627 273.837 396.38 273.815 395.574L 273.5 395.89L 274 392.89L 274.745 392.145C 274.572 391.974 274.331 391.903 274.06 391.895C 274.045 391.895 274.029 391.894 274.015 391.894C 274.009 391.893 274.006 391.89 274 391.89C 273.062 391.89 272.5 392.89 272 393.89C 271.5 394.89 271 395.89 270 396.89C 268.5 398.39 264 397.626 264 402.39C 264 404.518 265.5 405.89 265.5 405.89C 269.5 405.89 274.208 404.848 275 403.39C 275.754 402 276.107 401.447 277.5 400.89C 279.142 400.233 279.914 399.736 280.109 399.221C 280.238 399.093 280.361 398.975 280.476 398.867C 280.037 398.36 279.479 398.817 278.5 398.89z"/>
			<path style="stroke:none; fill:#960" d="M 274.25 398.126L 282.809 389.685C 282.809 389.685 282.684 389.501 282.689 389.234C 282.692 389.054 282.669 388.733 282.669 388.733C 282.669 388.733 285.772 387.158 286.772 386.617C 287.233 386.368 287.787 386.525 287.991 386.749C 287.991 386.749 287.991 387.045 287.991 387.249C 287.991 387.534 287.844 387.951 287.344 387.951C 286.844 388.701 285.963 389.916 285.562 390.381C 285.214 390.785 284.845 390.894 284.47 390.888C 283.97 390.881 283.534 390.473 283.534 390.473L 275.257 399.133"/>
			<path style="stroke:none; fill:#c03" d="M 272.447 394.111C 271.938 395.13 271.411 396.184 270.353 397.241C 269.793 397.801 268.954 398.07 268.066 398.354C 266.232 398.941 264.5 399.496 264.5 402.387C 264.5 406.088 266.799 408.387 270.5 408.387C 273.317 408.387 273.984 406.506 274.572 404.847L 275.06 403.649C 275.821 402.248 276.256 401.546 277.815 400.923C 279.772 400.14 280.109 399.402 280.109 399.221C 280.109 399.212 280.108 399.204 280.106 399.198C 280.036 399.11 280.011 399.086 279.496 399.214L 278.537 399.386C 278.119 399.417 276.157 399.269 274.897 398.008C 274.051 397.163 273.915 395.973 273.999 395.31C 274.083 394.647 275 392.39 273.993 392.39C 273.359 392.396 272.881 393.242 272.447 394.111z"/>
			<path style="stroke:none; fill:#600" d="M 273.5 397.39C 273.111 397.001 272.475 397.001 272.086 397.39L 269 400.476C 268.611 400.864 268.611 401.501 269 401.89L 271.293 404.183C 271.682 404.571 271.682 405.208 271.293 405.597L 270 406.89C 269.611 407.278 269.749 407.639 270 407.89C 270.786 408.675 271.612 407.777 271.5 407.89L 273 406.39C 274.706 404.684 273.531 403.622 274.5 402.39C 275.469 401.157 275.698 400.987 275.698 400.987C 276.139 400.658 276.182 400.071 275.793 399.683L 273.5 397.39z"/>
			<path style="stroke:#903; stroke-width:1.5; fill:none" d="M 275 397.89L 268.5 404.389"/>
			<path style="stroke:none; fill:#ccc" d="M 271 407.39C 271 407.666 270.776 407.89 270.5 407.89C 270.224 407.89 270 407.666 270 407.39C 270 407.113 270.224 406.89 270.5 406.89C 270.776 406.89 271 407.113 271 407.39z"/>
			<path style="stroke:none; fill:#ccc" d="M 273 405.39C 273 405.666 272.776 405.89 272.5 405.89C 272.224 405.89 272 405.666 272 405.39C 272 405.113 272.224 404.89 272.5 404.89C 272.776 404.89 273 405.113 273 405.39z"/>
			<path style="stroke:#ccc; stroke-width:0.75; stroke-linecap:round; fill:none" d="M 270 401.39L 271.25 402.64"/>
			<path style="stroke:#ccc; stroke-width:0.75; stroke-linecap:round; fill:none" d="M 273 398.39L 274.25 399.64"/>
			<path style="stroke:#ccc; stroke-width:0.75; stroke-linecap:round; fill:none" d="M 271.5 399.89L 272.75 401.14"/>
			<path style="stroke:#ccc; stroke-width:1; stroke-linecap:round; fill:none" d="M 267.576 403.938L 269.076 405.438"/>
			<path style="stroke:none; fill:#c90" d="M 274.25 397.626L 282.809 389.185C 282.809 389.185 282.333 388.54 283 388.157C 283.613 387.805 285.772 386.658 286.772 386.117C 287.543 385.701 287.991 386.242 287.991 386.749C 287.991 387.034 287.751 387.451 287.251 387.451C 286.751 388.201 285.871 389.416 285.47 389.881C 285.122 390.285 284.845 390.394 284.47 390.388C 283.97 390.381 283.534 389.973 283.534 389.973L 275.257 398.633"/>
		</g>
	</g>
</svg>
