<svg xmlns="http://www.w3.org/2000/svg" width="24" height="24">
	<g transform="translate(-264,-386)" id="KDDI_D_293">
		<g>
			<path style="stroke:none; fill:none" d="M 288 409.89L 264 409.89L 264 385.89L 288 385.89L 288 409.89z"/>
		</g>
		<g>
			<path style="stroke:none; fill:#600" d="M 279.133 397.751C 279.134 397.637 279.125 396.345 279.125 396.345C 279.125 396.345 278.255 394.833 277.5 394.077C 276.5 393.077 274.5 392.077 273 392.577C 271.912 392.94 271.062 395.515 270 396.577C 268.375 398.202 267.5 396.577 267.5 396.577C 267.312 397.64 265.631 397.736 265 398.577C 264.669 399.019 264.165 399.898 264.165 399.898C 264.165 399.898 264.093 401.204 264.154 401.814C 264.289 403.15 264.93 404.507 266 405.577C 268 407.577 271 408.077 273 406.577C 273.841 405.946 273.938 404.265 275 404.077L 275 402.89L 274.282 402.843C 274.282 402.843 274.508 402.069 275 401.577C 276.062 400.515 277 401.577 277 401.577C 277 400.095 278.637 399.665 279 398.577C 279.088 398.314 279.129 398.036 279.133 397.751z"/>
			<path style="stroke:none; fill:#c63" d="M 277.147 406.037L 275.147 408.036C 275.052 408.13 275.003 408.253 275 408.376C 274.997 408.508 275.021 409.418 275.021 409.418C 275.021 409.418 275.658 408.939 275.853 408.743L 277.853 406.744C 278.049 406.548 278.049 406.232 277.853 406.037C 277.658 405.841 277.342 405.841 277.147 406.037z"/>
			<path style="stroke:#669; stroke-width:1; stroke-linecap:round; fill:none" d="M 275.5 409.39L 287.5 397.39L 287.5 395.14"/>
			<path style="stroke:none; fill:#630" d="M 277.5 392.89C 276.5 391.89 274.5 390.89 273 391.39C 271.912 391.753 271.482 393.39 270 393.39C 270 393.39 271.062 394.327 270 395.39C 268.375 397.015 267.5 395.39 267.5 395.39C 267.312 396.452 265.631 396.548 265 397.39C 263.5 399.39 264 402.39 266 404.39C 268 406.39 271 406.89 273 405.39C 273.841 404.759 273.938 403.077 275 402.89C 275 402.89 273.375 402.015 275 400.39C 276.062 399.327 277 400.39 277 400.39C 277 398.907 278.637 398.478 279 397.39C 279.5 395.89 278.5 393.89 277.5 392.89z"/>
			<path style="stroke:none; fill:#c63" d="M 273.158 391.864C 272.829 391.974 272.537 392.295 272.228 392.633C 271.865 393.033 271.431 393.492 270.822 393.728C 270.9 393.91 270.964 394.111 270.972 394.349C 270.972 394.366 270.972 394.383 270.972 394.401C 270.972 394.881 270.764 395.333 270.353 395.743C 269.699 396.398 269.044 396.685 268.407 396.597C 268.066 396.549 267.809 396.397 267.599 396.231C 267.278 396.588 266.829 396.829 266.4 397.038C 266.005 397.23 265.596 397.428 265.4 397.69C 264.881 398.381 264.63 399.224 264.63 400.105C 264.63 401.461 265.225 402.908 266.353 404.036C 268.215 405.898 270.943 406.307 272.7 404.99C 272.961 404.794 273.16 404.385 273.352 403.99C 273.56 403.561 273.802 403.111 274.161 402.79C 273.996 402.582 273.844 402.331 273.795 401.995C 273.783 401.915 273.777 401.836 273.777 401.756C 273.777 401.191 274.069 400.614 274.647 400.036C 275.069 399.613 275.535 399.405 276.031 399.418C 276.279 399.424 276.453 399.526 276.641 399.609C 276.871 398.977 277.347 398.533 277.756 398.161C 278.095 397.853 278.415 397.561 278.526 397.232C 278.599 397.013 278.632 396.775 278.632 396.526C 278.632 395.398 277.947 394.044 277.147 393.243C 276.169 392.266 274.367 391.461 273.158 391.864z"/>
			<path style="stroke:none; fill:#fc9" d="M 267 399.889C 268.027 398.862 270 398.39 271 397.39C 272.777 395.612 272.21 395.084 273.5 393.89C 274.448 393.012 275.5 393.39 275.5 393.39C 275.5 393.39 273.934 392.32 272.684 393.39C 271.434 394.46 272.365 395.209 270.684 396.89C 269.003 398.57 268.69 396.747 266.5 398.39C 264.5 399.89 265.056 403.261 266.184 404.39C 265.5 402.89 265.981 400.908 267 399.889z"/>
			<path style="stroke:none; fill:#630" d="M 266.31 403.813C 266.31 403.813 266.768 402.257 266.31 401.313C 265.982 400.638 265.115 400.169 264.641 399.953C 264.639 400.004 264.63 400.053 264.63 400.105C 264.63 401.461 265.225 402.908 266.353 404.036C 266.599 404.281 266.31 403.813 266.31 403.813z"/>
			<path style="stroke:none; fill:#630" d="M 266.5 404.39C 266.744 404.634 266.694 404.661 266.964 404.854L 270.353 401.743L 269.353 400.743C 269.353 400.743 266.499 404.388 266.5 404.39z"/>
			<path style="stroke:none; fill:#000" d="M 266 403.39C 266 403.39 266.458 401.835 266 400.89C 265.638 400.144 264.61 399.646 264.19 399.467C 263.972 401.147 264.616 403.005 266 404.39L 266.328 404.704L 266.853 404.242L 266 403.39z"/>
			<path style="stroke:#666; stroke-width:1; fill:none" d="M 269.5 400.89L 272.5 397.89"/>
			<path style="stroke:#600; stroke-width:1; stroke-linecap:round; fill:none" d="M 275.5 409.39L 277.5 407.39"/>
			<path style="stroke:none; fill:#630" d="M 277.147 393.243C 277.118 393.215 277.083 393.189 277.054 393.161L 272.353 397.743L 273.353 398.743L 277.843 394.138C 277.633 393.802 277.397 393.494 277.147 393.243z"/>
			<g>
				<path style="stroke:none; fill:#000" d="M 269 400.39L 266.147 403.536L 266.853 404.243L 270 401.39L 269 400.39z"/>
				<path style="stroke:none; fill:#000" d="M 284.353 386.036C 284.158 385.841 283.842 385.841 283.647 386.036L 272 397.39L 273 398.39L 284.353 386.743C 284.549 386.548 284.549 386.232 284.353 386.036z"/>
			</g>
			<path style="stroke:#600; stroke-width:1; stroke-linecap:round; fill:none" d="M 281.75 388.64L 284 386.39"/>
			<path style="stroke:#600; stroke-width:1.5; stroke-linecap:round; fill:none" d="M 283.25 387.14L 284 386.39"/>
			<path style="stroke:#333; stroke-width:0.5; stroke-linecap:round; fill:none" d="M 273.5 398.89C 273.724 398.442 274.171 398.666 273.947 399.113C 273.5 400.008 272.829 400.232 272.605 400.679C 272.158 401.573 273.053 402.021 273.5 401.126"/>
			<path style="stroke:#333; stroke-width:0.5; stroke-linecap:round; fill:none" d="M 271.5 396.89C 271.947 396.666 271.724 396.219 271.276 396.442C 270.382 396.89 270.158 397.561 269.711 397.784C 268.816 398.232 268.369 397.337 269.264 396.89"/>
		</g>
	</g>
</svg>
