<svg xmlns="http://www.w3.org/2000/svg" width="24" height="24">
	<g transform="translate(-264,-386)" id="KDDI_D_294">
		<g>
			<path style="stroke:none; fill:none" d="M 288 409.89L 264 409.89L 264 385.89L 288 385.89L 288 409.89z"/>
		</g>
		<g>
			<path style="stroke:none; fill:#066" d="M 285 405.941C 285 406.941 283 409.829 279.5 409.829L 279.5 403.39L 285 403.39C 285 404.542 285 405.271 285 405.941z"/>
			<path style="stroke:none; fill:#9cc" d="M 285 401.329C 285 402.156 285 402.82 285 403.39L 279.5 403.39L 279.5 396.89C 281.5 396.89 285 398.829 285 401.329z"/>
			<path style="stroke:none; fill:#099" d="M 285 404.941C 285 405.941 283 408.829 279.5 408.829L 279.5 403.39L 285 403.39C 285 404.006 285 404.514 285 404.941z"/>
			<path style="stroke:none; fill:#6cc" d="M 285 401.778C 285 402.406 285 402.925 285 403.39L 279.5 403.39L 279.5 397.89C 283 397.89 285 400.778 285 401.778z"/>
			<path style="stroke:none; fill:#0cc" d="M 280 407.89C 279.825 407.89 279.665 407.858 279.5 407.838L 279.5 398.942C 279.665 398.922 279.825 398.89 280 398.89C 282.485 398.89 285 400.904 285 403.39C 285 405.875 282.485 407.89 280 407.89z"/>
			<path style="stroke:none; fill:#066" d="M 285 402.981C 283.692 403.73 281.992 404.39 280 404.39L 280 403.39C 282.04 403.39 283.767 402.616 285 401.825C 285 402.246 285 402.638 285 402.981z"/>
			<path style="stroke:#000; stroke-width:1; stroke-linecap:round; fill:none" d="M 279.5 397.39L 279.5 409.376"/>
			<path style="stroke:none; fill:#fff" d="M 281.882 399.39C 281.697 399.596 282.049 400.21 282.667 400.762C 283.284 401.315 283.933 401.596 284.118 401.39C 284.302 401.184 283.951 400.569 283.333 400.017C 282.716 399.465 282.066 399.183 281.882 399.39z"/>
			<path style="stroke:none; fill:#066" d="M 267 405.941C 267 406.941 269 409.829 272.5 409.829L 272.5 403.39L 267 403.39C 267 404.542 267 405.271 267 405.941z"/>
			<path style="stroke:none; fill:#9cc" d="M 267 401.329C 267 402.156 267 402.82 267 403.39L 272.5 403.39L 272.5 396.89C 270.5 396.89 267 398.829 267 401.329z"/>
			<path style="stroke:none; fill:#099" d="M 267 404.941C 267 405.941 269 408.829 272.5 408.829L 272.5 403.39L 267 403.39C 267 404.006 267 404.514 267 404.941z"/>
			<path style="stroke:none; fill:#6cc" d="M 267 401.778C 267 402.406 267 402.925 267 403.39L 272.5 403.39L 272.5 397.89C 269 397.89 267 400.778 267 401.778z"/>
			<path style="stroke:none; fill:#0cc" d="M 272 407.89C 272.175 407.89 272.335 407.858 272.5 407.838L 272.5 398.942C 272.335 398.922 272.175 398.89 272 398.89C 269.515 398.89 267 400.904 267 403.39C 267 405.875 269.515 407.89 272 407.89z"/>
			<path style="stroke:#666; stroke-width:1; fill:none" d="M 264.5 395.89C 264.5 395.39 266 387.39 276 387.39C 286 387.39 287.5 394.89 287.5 395.39"/>
			<path style="stroke:none; fill:#066" d="M 267 402.981C 268.308 403.73 270.008 404.39 272 404.39L 272 403.39C 269.96 403.39 268.233 402.616 267 401.825C 267 402.246 267 402.638 267 402.981z"/>
			<path style="stroke:#000; stroke-width:1; fill:none" d="M 272 403.39C 267.5 403.39 264.5 399.89 264.5 399.89C 264.5 399.89 264.5 395.39 264.5 394.89C 264.5 394.39 266 386.39 276 386.39C 286 386.39 287.5 393.89 287.5 394.39C 287.5 394.89 287.5 399.89 287.5 399.89C 287.5 399.89 284.5 403.39 280 403.39"/>
			<path style="stroke:#333; stroke-width:1; stroke-linecap:round; fill:none" d="M 287.01 400.39C 286.037 401.31 283.677 403.192 280.5 403.376"/>
			<path style="stroke:#333; stroke-width:1; stroke-linecap:round; fill:none" d="M 271.5 403.375C 268.332 403.192 265.977 401.321 264.999 400.399"/>
			<path style="stroke:#000; stroke-width:1; stroke-linecap:round; fill:none" d="M 272.5 397.39L 272.5 409.376"/>
			<path style="stroke:none; fill:#fff" d="M 270.118 399.39C 270.303 399.596 269.951 400.21 269.333 400.762C 268.716 401.315 268.067 401.596 267.882 401.39C 267.698 401.184 268.049 400.569 268.667 400.017C 269.284 399.465 269.934 399.183 270.118 399.39z"/>
			<path style="stroke:none; fill:#999" d="M 281 403.39C 281 403.666 280.776 403.89 280.5 403.89C 280.224 403.89 280 403.666 280 403.39C 280 403.113 280.224 402.89 280.5 402.89C 280.776 402.89 281 403.113 281 403.39z"/>
			<path style="stroke:none; fill:#999" d="M 272 403.39C 272 403.666 271.776 403.89 271.5 403.89C 271.224 403.89 271 403.666 271 403.39C 271 403.113 271.224 402.89 271.5 402.89C 271.776 402.89 272 403.113 272 403.39z"/>
		</g>
	</g>
</svg>
