<svg xmlns="http://www.w3.org/2000/svg" width="24" height="24">
	<g transform="translate(-264,-386)" id="KDDI_D_295">
		<g>
			<path style="stroke:none; fill:none" d="M 288 409.89L 264 409.89L 264 385.89L 288 385.89L 288 409.89z"/>
		</g>
		<g>
			<path style="stroke:none; fill:#c00" d="M 272 403.39C 272 403.39 272 388.89 272 387.89C 272 386.89 273.095 385.89 274 385.89C 274.5 385.89 275.065 386.829 276 387.89C 276.594 388.564 278.25 390.376 279.5 391.89C 279.95 392.435 280 393.39 280 394.39C 280 395.39 280 395.39 280 403.89"/>
			<path style="stroke:none; fill:#f33" d="M 273.5 403.39C 273.5 403.39 273.5 388.89 273.5 387.89C 273.5 386.89 273.5 385.89 274 385.89C 274.5 385.89 275.065 386.829 276 387.89C 276.594 388.564 278.5 391.89 278.5 394.39C 278.5 394.89 278.5 403.89 278.5 403.89"/>
			<path style="stroke:#f66; stroke-width:2; stroke-linecap:round; fill:none" d="M 276 404.39C 276 401.89 276 392.835 276 391.89C 276 389.39 274.5 388.39 274.5 388.39"/>
			<path style="stroke:#fcc; stroke-width:2; stroke-linecap:round; fill:none" d="M 276 390.89L 276 392.89"/>
			<path style="stroke:none; fill:#630" d="M 282 409.89L 270 409.89L 270 402.89L 282 402.89L 282 409.89z"/>
			<path style="stroke:none; fill:#960" d="M 280 409.89L 272 409.89L 272 402.89L 280 402.89L 280 409.89z"/>
			<path style="stroke:none; fill:#c90" d="M 278 409.89L 274 409.89L 274 402.89L 278 402.89L 278 409.89z"/>
			<path style="stroke:none; fill:#fc9" d="M 276.5 409.89L 275.5 409.89L 275.5 402.89L 276.5 402.89L 276.5 409.89z"/>
		</g>
	</g>
</svg>
