<svg xmlns="http://www.w3.org/2000/svg" height="24" width="24">
    <g transform="matrix(1,0,0,-1,-264,408)" id="KDDI_D_">        <path d="M272.8 384l-.1 3.3 7.1.4V384z" fill="#fc9"/>
        <path d="M279.7 400.3s-2.8.6-3.6.6c-1.4 0-5-1.1-5.5-1.4-.6-.3-1.5-1.9-2.1-4.4-.2-.9-.1-5.7 2.1-7.1 1.5-.9 2.8-2.7 5.2-2.9 2.4-.3 2.6 1 3.7 1.8 1.1.9 2.8 2.4 2.9 3.6.2 1.2.7 4.3.7 5.8s-3 3.5-3.4 4z" fill="#fff"/>
        <path d="M275 394.5c0-.9-1.1-1.7-2.4-1.7-1.3 0-2.3.8-2.3 1.7 0 .9 1 1.7 2.3 1.7 1.3 0 2.4-.8 2.4-1.7zM277 394.5c0-.9 1.1-1.7 2.4-1.7 1.3 0 2.4.8 2.4 1.7 0 .9-1.1 1.7-2.4 1.7-1.3 0-2.4-.8-2.4-1.7z" fill="#fc9"/>
        <path d="M275.8 385l.9-.3.2-.7h2.9l-.6 2.1z" fill="#f90"/>
        <path d="M277.6 389.2s-.9.1-1.7.1c-.7 0-1.6-.1-1.6-.1s.7-1 1.6-1c1 0 1.7 1 1.7 1z" fill="#c00"/>
        <path d="M275.6 388.5s.5-.3.7-.2c.3.1.7.4.6.5-.1.1-1.3 0-1.3-.3z" fill="#900"/>
        <path d="M276.2 391.5l-.4-.5" fill="none" stroke="#c96" stroke-width=".922" stroke-linecap="round"/>
        <path d="M279.5 394.2c-.9 0-1.6.4-1.9 1 .1-1 .9-1.8 1.9-1.8 1 0 1.8.8 1.9 1.9-.4-.7-1.1-1.1-1.9-1.1zM272.5 394.2c.9 0 1.6.4 1.9 1-.1-1-.9-1.8-1.9-1.8-1 0-1.8.8-1.9 1.9.4-.7 1.1-1.1 1.9-1.1z"/>
        <path d="M272.8 384v2.5" fill="none" stroke="#c60"/>
        <path d="M279.2 386.3s1 .8 2 1.7c0 0 .9 1.1 1.4 2.6.6 1.5.6 3.9.6 6.1" fill="none" stroke="#930" stroke-linecap="round"/>
        <path d="M279.8 386.7V384" fill="none" stroke="#c60"/>
        <path d="M283.2 396.7c-.5.9-1.9 2.9-3 3.4-.9.5-2.5.6-5.5.6-1.2 0-4.1-.6-5.4-2.8-.5-.8-.7-3-.6-4.8 0-1.2.4-2.6 1.1-4.1 1.1-2.1 4.1-3.7 6-3.7 2 0 3.9 1.4 3.9 1.4" fill="none" stroke="#c60" stroke-linecap="round"/>
        <path d="M266.1 396.4c-.9 3.5 2.3 7.6 4.7 9.6 3 2.4 8 1.7 8.8-.1 1 1.4 2.4.6 3.7-1.2 1.8-2.5 3.6-6.4 2.5-9.1-.8-2-2-2.4-2-2.4s-.1 1.7-1.2 4.2c-1.1 2.5-3.7 3.2-6.6 3.2-2.8 0-5.2-.7-6.4-3-1.3-2.4-1.4-4.2-1.4-4.2s-1.3-.5-2.1 3z" fill="#fff" stroke="#000" stroke-linejoin="round"/>
        <path d="M277.3 400.7c.9.4 1.8 1.3 2.2 2.8.4 1.5.1 2.5.1 2.5" fill="none" stroke="#000"/>
        <path d="M272.8 384l-.1 3.3 7.1.4V384z" fill="#fc9"/>
        <path d="M279.7 400.3s-2.8.6-3.6.6c-1.4 0-5-1.1-5.5-1.4-.6-.3-1.5-1.9-2.1-4.4-.2-.9-.1-5.7 2.1-7.1 1.5-.9 2.8-2.7 5.2-2.9 2.4-.3 2.6 1 3.7 1.8 1.1.9 2.8 2.4 2.9 3.6.2 1.2.7 4.3.7 5.8s-3 3.5-3.4 4z" fill="#fc9"/>
        <path d="M281.7 389.1c.4.5.7 1 .7 1.4.2 1.2.7 4.3.7 5.8s-3 3.5-3.4 4c0 0-2.8.6-3.6.6-1.4 0-5-1.1-5.5-1.4-.6-.3-1.5-1.9-2.1-4.4-.2-.7-.2-4.1 1.1-6z" fill="#fff"/>
        <path d="M275 394.5c0-.9-1.1-1.7-2.4-1.7-1.3 0-2.3.8-2.3 1.7 0 .9 1 1.7 2.3 1.7 1.3 0 2.4-.8 2.4-1.7zM277 394.5c0-.9 1.1-1.7 2.4-1.7 1.3 0 2.4.8 2.4 1.7 0 .9-1.1 1.7-2.4 1.7-1.3 0-2.4-.8-2.4-1.7z" fill="#fc9"/>
        <path d="M275.8 385l.9-.3.2-.7h2.9l-.6 2.1z" fill="#f90"/>
        <path d="M277.6 389.2s-.9.1-1.7.1c-.7 0-1.6-.1-1.6-.1s.7-1 1.6-1c1 0 1.7 1 1.7 1z" fill="#c00"/>
        <path d="M275.6 388.5s.5-.3.7-.2c.3.1.7.4.6.5-.1.1-1.3 0-1.3-.3z" fill="#900"/>
        <path d="M276.2 391.5l-.4-.5" fill="none" stroke="#c96" stroke-width=".922" stroke-linecap="round"/>
        <path d="M279.5 394.2c-.9 0-1.6.4-1.9 1 .1-1 .9-1.8 1.9-1.8 1 0 1.8.8 1.9 1.9-.4-.7-1.1-1.1-1.9-1.1zM272.5 394.2c.9 0 1.6.4 1.9 1-.1-1-.9-1.8-1.9-1.8-1 0-1.8.8-1.9 1.9.4-.7 1.1-1.1 1.9-1.1z"/>
        <path d="M272.8 384v2.5" fill="none" stroke="#c60"/>
        <path d="M279.2 386.3s1 .8 2 1.7c0 0 .9 1.1 1.4 2.6.6 1.5.6 3.9.6 6.1" fill="none" stroke="#930" stroke-linecap="round"/>
        <path d="M279.8 386.7V384" fill="none" stroke="#c60"/>
        <path d="M283.2 396.7c-.5.9-1.9 2.9-3 3.4-.9.5-2.5.6-5.5.6-1.2 0-4.1-.6-5.4-2.8-.5-.8-.7-3-.6-4.8 0-1.2.4-2.6 1.1-4.1 1.1-2.1 4.1-3.7 6-3.7 2 0 3.9 1.4 3.9 1.4" fill="none" stroke="#c60" stroke-linecap="round"/>
        <path d="M266.1 396.4c-.9 3.5 2.3 7.6 4.7 9.6 3 2.4 8 1.7 8.8-.1 1 1.4 2.4.6 3.7-1.2 1.8-2.5 3.6-6.4 2.5-9.1-.8-2-2-2.4-2-2.4s-.1 1.7-1.2 4.2c-1.1 2.5-3.7 3.2-6.6 3.2-2.8 0-5.2-.7-6.4-3-1.3-2.4-1.4-4.2-1.4-4.2s-1.3-.5-2.1 3z" fill="#fff" stroke="#000" stroke-linejoin="round"/>
        <path d="M277.3 400.7c.9.4 1.8 1.3 2.2 2.8.4 1.5.1 2.5.1 2.5" fill="none" stroke="#000"/>
        <path d="M272.8 384l-.1 3.3 7.1.4V384z" fill="#fc9"/>
        <path d="M279.7 400.3s-2.8.6-3.6.6c-1.4 0-5-1.1-5.5-1.4-.6-.3-1.5-1.9-2.1-4.4-.2-.9-.1-5.7 2.1-7.1 1.5-.9 2.8-2.7 5.2-2.9 2.4-.3 2.6 1 3.7 1.8 1.1.9 2.8 2.4 2.9 3.6.2 1.2.7 4.3.7 5.8s-3 3.5-3.4 4z" fill="#fc9"/>
        <path d="M282.9 394.3c.1.7.2 1.4.2 2 0 1.5-3 3.5-3.4 4 0 0-2.8.6-3.6.6-1.4 0-5-1.1-5.5-1.4-.6-.3-1.5-1.9-2.1-4.4-.1-.2-.1-.5-.1-.8z" fill="#fff"/>
        <path d="M275 394.5c0-.9-1.1-1.7-2.4-1.7-1.3 0-2.3.8-2.3 1.7 0 .9 1 1.7 2.3 1.7 1.3 0 2.4-.8 2.4-1.7zM277 394.5c0-.9 1.1-1.7 2.4-1.7 1.3 0 2.4.8 2.4 1.7 0 .9-1.1 1.7-2.4 1.7-1.3 0-2.4-.8-2.4-1.7z" fill="#fc9"/>
        <path d="M275.8 385l.9-.3.2-.7h2.9l-.6 2.1z" fill="#f90"/>
        <path d="M277.6 389.2s-.9.1-1.7.1c-.7 0-1.6-.1-1.6-.1s.7-1 1.6-1c1 0 1.7 1 1.7 1z" fill="#c00"/>
        <path d="M275.6 388.5s.5-.3.7-.2c.3.1.7.4.6.5-.1.1-1.3 0-1.3-.3z" fill="#900"/>
        <path d="M276.2 391.5l-.4-.5" fill="none" stroke="#c96" stroke-width=".922" stroke-linecap="round"/>
        <path d="M279.5 394.2c-.9 0-1.6.4-1.9 1 .1-1 .9-1.8 1.9-1.8 1 0 1.8.8 1.9 1.9-.4-.7-1.1-1.1-1.9-1.1zM272.5 394.2c.9 0 1.6.4 1.9 1-.1-1-.9-1.8-1.9-1.8-1 0-1.8.8-1.9 1.9.4-.7 1.1-1.1 1.9-1.1z"/>
        <path d="M272.8 384v2.5" fill="none" stroke="#c60"/>
        <path d="M279.2 386.3s1 .8 2 1.7c0 0 .9 1.1 1.4 2.6.6 1.5.6 3.9.6 6.1" fill="none" stroke="#930" stroke-linecap="round"/>
        <path d="M279.8 386.7V384" fill="none" stroke="#c60"/>
        <path d="M283.2 396.7c-.5.9-1.9 2.9-3 3.4-.9.5-2.5.6-5.5.6-1.2 0-4.1-.6-5.4-2.8-.5-.8-.7-3-.6-4.8 0-1.2.4-2.6 1.1-4.1 1.1-2.1 4.1-3.7 6-3.7 2 0 3.9 1.4 3.9 1.4" fill="none" stroke="#c60" stroke-linecap="round"/>
        <path d="M266.1 396.4c-.9 3.5 2.3 7.6 4.7 9.6 3 2.4 8 1.7 8.8-.1 1 1.4 2.4.6 3.7-1.2 1.8-2.5 3.6-6.4 2.5-9.1-.8-2-2-2.4-2-2.4s-.1 1.7-1.2 4.2c-1.1 2.5-3.7 3.2-6.6 3.2-2.8 0-5.2-.7-6.4-3-1.3-2.4-1.4-4.2-1.4-4.2s-1.3-.5-2.1 3z" fill="#fff" stroke="#000" stroke-linejoin="round"/>
        <path d="M277.3 400.7c.9.4 1.8 1.3 2.2 2.8.4 1.5.1 2.5.1 2.5" fill="none" stroke="#000"/>
        <path d="M272.8 384l-.1 3.3 7.1.4V384z" fill="#fc9"/>
        <path d="M279.7 400.3s-2.8.6-3.6.6c-1.4 0-5-1.1-5.5-1.4-.6-.3-1.5-1.9-2.1-4.4-.2-.9-.1-5.7 2.1-7.1 1.5-.9 2.8-2.7 5.2-2.9 2.4-.3 2.6 1 3.7 1.8 1.1.9 2.8 2.4 2.9 3.6.2 1.2.7 4.3.7 5.8s-3 3.5-3.4 4z" fill="#fc9"/>
        <path d="M275 394.5c0-.9-1.1-1.7-2.4-1.7-1.3 0-2.3.8-2.3 1.7 0 .9 1 1.7 2.3 1.7 1.3 0 2.4-.8 2.4-1.7zM277 394.5c0-.9 1.1-1.7 2.4-1.7 1.3 0 2.4.8 2.4 1.7 0 .9-1.1 1.7-2.4 1.7-1.3 0-2.4-.8-2.4-1.7z" fill="#fc9"/>
        <path d="M275.8 385l.9-.3.2-.7h2.9l-.6 2.1z" fill="#f90"/>
        <path d="M277.6 389.2s-.9.1-1.7.1c-.7 0-1.6-.1-1.6-.1s.7-1 1.6-1c1 0 1.7 1 1.7 1z" fill="#c00"/>
        <path d="M275.6 388.5s.5-.3.7-.2c.3.1.7.4.6.5-.1.1-1.3 0-1.3-.3z" fill="#900"/>
        <path d="M276.2 391.5l-.4-.5" fill="none" stroke="#c96" stroke-width=".922" stroke-linecap="round"/>
        <path d="M279.5 394.2c-.9 0-1.6.4-1.9 1 .1-1 .9-1.8 1.9-1.8 1 0 1.8.8 1.9 1.9-.4-.7-1.1-1.1-1.9-1.1zM272.5 394.2c.9 0 1.6.4 1.9 1-.1-1-.9-1.8-1.9-1.8-1 0-1.8.8-1.9 1.9.4-.7 1.1-1.1 1.9-1.1z"/>
        <path d="M272.8 384v2.5" fill="none" stroke="#c60"/>
        <path d="M279.2 386.3s1 .8 2 1.7c0 0 .9 1.1 1.4 2.6.6 1.5.6 3.9.6 6.1" fill="none" stroke="#930" stroke-linecap="round"/>
        <path d="M279.8 386.7V384" fill="none" stroke="#c60"/>
        <path d="M283.2 396.7c-.5.9-1.9 2.9-3 3.4-.9.5-2.5.6-5.5.6-1.2 0-4.1-.6-5.4-2.8-.5-.8-.7-3-.6-4.8 0-1.2.4-2.6 1.1-4.1 1.1-2.1 4.1-3.7 6-3.7 2 0 3.9 1.4 3.9 1.4" fill="none" stroke="#c60" stroke-linecap="round"/>
        <path d="M266.1 396.4c-.9 3.5 2.3 7.6 4.7 9.6 3 2.4 8 1.7 8.8-.1 1 1.4 2.4.6 3.7-1.2 1.8-2.5 3.6-6.4 2.5-9.1-.8-2-2-2.4-2-2.4s-.1 1.7-1.2 4.2c-1.1 2.5-3.7 3.2-6.6 3.2-2.8 0-5.2-.7-6.4-3-1.3-2.4-1.4-4.2-1.4-4.2s-1.3-.5-2.1 3z" fill="#fff" stroke="#000" stroke-linejoin="round"/>
        <path d="M277.3 400.7c.9.4 1.8 1.3 2.2 2.8.4 1.5.1 2.5.1 2.5" fill="none" stroke="#000"/>
        <path d="M280 397.6l-1.2-.1M271.8 397.6l1.2-.1" fill="none" stroke="#666" stroke-width=".798" stroke-linecap="round"/>
        <path d="M272.8 384l-.1 3.3 7.1.4V384z" fill="#fc9"/>
        <path d="M279.7 400.3s-2.8.6-3.6.6c-1.4 0-5-1.1-5.5-1.4-.6-.3-1.5-1.9-2.1-4.4-.2-.9-.1-5.7 2.1-7.1 1.5-.9 2.8-2.7 5.2-2.9 2.4-.3 2.6 1 3.7 1.8 1.1.9 2.8 2.4 2.9 3.6.2 1.2.7 4.3.7 5.8s-3 3.5-3.4 4z" fill="#fc9"/>
        <path d="M275.8 385l.9-.3.2-.7h2.9l-.6 2.1z" fill="#f90"/>
        <path d="M278 389.4s-1.1.1-2.1.1-2-.1-2-.1.8-1.6 2-1.6 2.1 1.6 2.1 1.6z" fill="#c00"/>
        <path d="M275.5 388.3s.6-.4.9-.3c.3.2.8.6.7.8-.1.1-1.6-.1-1.6-.5z" fill="#900"/>
        <path d="M276.2 391.5l-.4-.5" fill="none" stroke="#c96" stroke-width=".922" stroke-linecap="round"/>
        <path d="M280 397.6l-1.2-.1M271.8 397.6l1.2-.1" fill="none" stroke="#666" stroke-width=".798" stroke-linecap="round"/>
        <path d="M272.8 384v2.5" fill="none" stroke="#c60"/>
        <path d="M279.2 386.3s1 .8 2 1.7c0 0 .9 1.1 1.4 2.6.6 1.5.6 3.9.6 6.1" fill="none" stroke="#930" stroke-linecap="round"/>
        <path d="M279.8 386.7V384" fill="none" stroke="#c60"/>
        <path d="M283.2 396.7c-.5.9-1.9 2.9-3 3.4-.9.5-2.5.6-5.5.6-1.2 0-4.1-.6-5.4-2.8-.5-.8-.7-3-.6-4.8 0-1.2.4-2.6 1.1-4.1 1.1-2.1 4.1-3.7 6-3.7 2 0 3.9 1.4 3.9 1.4" fill="none" stroke="#c60" stroke-linecap="round"/>
        <path d="M266.1 396.4c-.9 3.5 2.3 7.6 4.7 9.6 3 2.4 8 1.7 8.8-.1 1 1.4 2.4.6 3.7-1.2 1.8-2.5 3.6-6.4 2.5-9.1-.8-2-2-2.4-2-2.4s-.1 1.7-1.2 4.2c-1.1 2.5-3.7 3.2-6.6 3.2-2.8 0-5.2-.7-6.4-3-1.3-2.4-1.4-4.2-1.4-4.2s-1.3-.5-2.1 3z" fill="#fff" stroke="#000" stroke-linejoin="round"/>
        <path d="M277.3 400.7c.9.4 1.8 1.3 2.2 2.8.4 1.5.1 2.5.1 2.5" fill="none" stroke="#000"/>
        <path d="M274.4 394.5c0-1.2-.8-2.1-1.9-2.1-1.1 0-2 .9-2 2.1 0 1.2.9 2.2 2 2.2s1.9-1 1.9-2.2z" fill="#666"/>
        <path d="M274.1 394.1c0-1.1-.7-2.1-1.6-2.1-.9 0-1.6 1-1.6 2.1s.7 2.1 1.6 2.1c.9 0 1.6-1 1.6-2.1z" fill="#fff"/>
        <path d="M273.9 394.1c0-.9-.7-1.6-1.4-1.6-.8 0-1.4.7-1.4 1.6 0 .9.6 1.6 1.4 1.6.7 0 1.4-.7 1.4-1.6z"/>
        <path d="M272.5 394.7c0-.2-.2-.4-.4-.4s-.4.2-.4.4.2.3.4.3.4-.1.4-.3z" fill="#fff"/>
        <path d="M281.4 394.5c0-1.2-.8-2.1-1.9-2.1-1.1 0-2 .9-2 2.1 0 1.2.9 2.2 2 2.2s1.9-1 1.9-2.2z" fill="#666"/>
        <path d="M281.1 394.1c0-1.1-.7-2.1-1.6-2.1-.9 0-1.6 1-1.6 2.1s.7 2.1 1.6 2.1c.9 0 1.6-1 1.6-2.1z" fill="#fff"/>
        <path d="M280.9 394.1c0-.9-.7-1.6-1.4-1.6-.8 0-1.4.7-1.4 1.6 0 .9.6 1.6 1.4 1.6.7 0 1.4-.7 1.4-1.6z"/>
        <path d="M279.5 394.7c0-.2-.2-.4-.4-.4s-.4.2-.4.4.2.3.4.3.4-.1.4-.3z" fill="#fff"/>
        <path d="M280.7 395.1s-.2-.2-1.3-.2-2.2 1.5-2.2 1.5 1.3-.5 2.3-.2c1.1.4 1.2-1.1 1.2-1.1z"/>
        <path d="M281.1 393.7c0-.9-.7-1.7-1.6-1.7-.9 0-1.6.8-1.6 1.7v1c0 1 .7 1.7 1.6 1.7.9 0 1.6-.7 1.6-1.7z"/>
        <path d="M279.8 394.9c0-.4-.4-.7-.8-.7-.5 0-.8.3-.8.7 0 .4.3.7.8.7.4 0 .8-.3.8-.7z" fill="#fff"/>
        <path d="M273.9 395.1s-.2-.2-1.3-.2-2.2 1.5-2.2 1.5 1.3-.5 2.3-.2c1.1.4 1.2-1.1 1.2-1.1z"/>
        <path d="M274.3 393.7c0-.9-.7-1.7-1.6-1.7-.9 0-1.6.8-1.6 1.7v1c0 1 .7 1.7 1.6 1.7.9 0 1.6-.7 1.6-1.7z"/>
        <path d="M273 394.9c0-.4-.4-.7-.8-.7-.5 0-.8.3-.8.7 0 .4.3.7.8.7.4 0 .8-.3.8-.7z" fill="#fff"/>
        <path d="M272.8 384l-.1 3.3 7.1.4V384z" fill="#fc9"/>
        <path d="M279.7 400.3s-2.8.6-3.6.6c-1.4 0-5-1.1-5.5-1.4-.6-.3-1.5-1.9-2.1-4.4-.2-.9-.1-5.7 2.1-7.1 1.5-.9 2.8-2.7 5.2-2.9 2.4-.3 2.6 1 3.7 1.8 1.1.9 2.8 2.4 2.9 3.6.2 1.2.7 4.3.7 5.8s-3 3.5-3.4 4z" fill="#fc9"/>
        <path d="M275.8 385l.9-.3.2-.7h2.9l-.6 2.1z" fill="#f90"/>
        <path d="M278 389.4s-1.1.1-2.1.1-2-.1-2-.1.8-1.6 2-1.6 2.1 1.6 2.1 1.6z" fill="#c00"/>
        <path d="M275.5 388.3s.6-.4.9-.3c.3.2.8.6.7.8-.1.1-1.6-.1-1.6-.5z" fill="#900"/>
        <path d="M276.2 391.5l-.4-.5" fill="none" stroke="#c96" stroke-width=".922" stroke-linecap="round"/>
        <path d="M280 397.6l-1.2-.1M271.8 397.6l1.2-.1" fill="none" stroke="#666" stroke-width=".798" stroke-linecap="round"/>
        <path d="M272.8 384v2.5" fill="none" stroke="#c60"/>
        <path d="M279.2 386.3s1 .8 2 1.7c0 0 .9 1.1 1.4 2.6.6 1.5.6 3.9.6 6.1" fill="none" stroke="#930" stroke-linecap="round"/>
        <path d="M279.8 386.7V384" fill="none" stroke="#c60"/>
        <path d="M283.2 396.7c-.5.9-1.9 2.9-3 3.4-.9.5-2.5.6-5.5.6-1.2 0-4.1-.6-5.4-2.8-.5-.8-.7-3-.6-4.8 0-1.2.4-2.6 1.1-4.1 1.1-2.1 4.1-3.7 6-3.7 2 0 3.9 1.4 3.9 1.4" fill="none" stroke="#c60" stroke-linecap="round"/>
        <path d="M266.1 396.4c-.9 3.5 2.3 7.6 4.7 9.6 3 2.4 8 1.7 8.8-.1 1 1.4 2.4.6 3.7-1.2 1.8-2.5 3.6-6.4 2.5-9.1-.8-2-2-2.4-2-2.4s-.1 1.7-1.2 4.2c-1.1 2.5-3.7 3.2-6.6 3.2-2.8 0-5.2-.7-6.4-3-1.3-2.4-1.4-4.2-1.4-4.2s-1.3-.5-2.1 3z" fill="#fff" stroke="#000" stroke-linejoin="round"/>
        <path d="M277.3 400.7c.9.4 1.8 1.3 2.2 2.8.4 1.5.1 2.5.1 2.5" fill="none" stroke="#000"/>
        <path d="M274.4 394.5c0-1.2-.8-2.1-1.9-2.1-1.1 0-2 .9-2 2.1 0 1.2.9 2.2 2 2.2s1.9-1 1.9-2.2z" fill="#666"/>
        <path d="M274.1 394.1c0-1.1-.7-2.1-1.6-2.1-.9 0-1.6 1-1.6 2.1s.7 2.1 1.6 2.1c.9 0 1.6-1 1.6-2.1z" fill="#fff"/>
        <path d="M273.9 394.1c0-.9-.7-1.6-1.4-1.6-.8 0-1.4.7-1.4 1.6 0 .9.6 1.6 1.4 1.6.7 0 1.4-.7 1.4-1.6z"/>
        <path d="M272.5 394.7c0-.2-.2-.4-.4-.4s-.4.2-.4.4.2.3.4.3.4-.1.4-.3z" fill="#fff"/>
        <path d="M281.4 394.5c0-1.2-.8-2.1-1.9-2.1-1.1 0-2 .9-2 2.1 0 1.2.9 2.2 2 2.2s1.9-1 1.9-2.2z" fill="#666"/>
        <path d="M281.1 394.1c0-1.1-.7-2.1-1.6-2.1-.9 0-1.6 1-1.6 2.1s.7 2.1 1.6 2.1c.9 0 1.6-1 1.6-2.1z" fill="#fff"/>
        <path d="M280.9 394.1c0-.9-.7-1.6-1.4-1.6-.8 0-1.4.7-1.4 1.6 0 .9.6 1.6 1.4 1.6.7 0 1.4-.7 1.4-1.6z"/>
        <path d="M279.5 394.7c0-.2-.2-.4-.4-.4s-.4.2-.4.4.2.3.4.3.4-.1.4-.3z" fill="#fff"/>
        <path d="M269.1 389.1c-.6.6-1.2 2.6-1.2 2.6s-.5-2-1.2-2.6c-.6-.7-2.7-1.3-2.7-1.3s2.1-.5 2.7-1.2c.7-.6 1.2-2.7 1.2-2.7s.6 2.1 1.2 2.7c.7.7 2.7 1.2 2.7 1.2s-2 .6-2.7 1.3z" fill="#ff0"/>
        <path d="M268.8 388.7c-.7.6-.9 1.8-.9 1.8s-.2-1.2-.8-1.8c-.7-.7-1.8-.9-1.8-.9s1.1-.1 1.8-.8c.6-.6.8-1.8.8-1.8s.2 1.2.9 1.8c.6.7 1.7.8 1.7.8h.1s-1.2.2-1.8.9z" fill="#fc0"/>
        <path d="M268.4 388.3c-.4.4-.5 1.2-.5 1.2s0-.8-.5-1.2c-.4-.4-1.1-.5-1.1-.5s.7 0 1.1-.4c.5-.4.5-1.2.5-1.2s.1.8.5 1.2c.4.4 1.1.4 1.1.4h.1s-.8.1-1.2.5z" fill="#f60"/>
        <path d="M269.1 405.2c-.6.7-1.2 2.7-1.2 2.7s-.5-2-1.2-2.7c-.6-.6-2.7-1.2-2.7-1.2s2.1-.5 2.7-1.2c.7-.6 1.2-2.7 1.2-2.7s.6 2.1 1.2 2.7c.7.7 2.7 1.2 2.7 1.2s-2 .6-2.7 1.2z" fill="#ff0"/>
        <path d="M268.8 404.9c-.7.6-.9 1.7-.9 1.7v.1s-.2-1.2-.8-1.8c-.7-.7-1.8-.9-1.8-.9s1.1-.2 1.8-.8c.6-.7.8-1.8.8-1.8s.2 1.1.9 1.8c.6.6 1.7.8 1.7.8h.1s-1.2.2-1.8.9z" fill="#fc0"/>
        <path d="M268.4 404.5c-.4.4-.5 1.2-.5 1.2s0-.8-.5-1.2c-.4-.4-1.1-.5-1.1-.5s.7 0 1.1-.4c.5-.4.5-1.2.5-1.2s.1.8.5 1.2c.4.4 1.1.4 1.1.4h.1s-.8.1-1.2.5z" fill="#f60"/>
        <path d="M285.4 389.1c-.7.6-1.2 2.6-1.2 2.6s-.6-2-1.2-2.6c-.7-.7-2.7-1.3-2.7-1.3s2-.5 2.7-1.2c.6-.6 1.2-2.7 1.2-2.7s.5 2.1 1.2 2.7c.6.7 2.7 1.2 2.7 1.2s-2.1.6-2.7 1.3z" fill="#ff0"/>
        <path d="M285 388.7c-.6.6-.8 1.8-.8 1.8s-.2-1.2-.9-1.8c-.6-.7-1.7-.9-1.7-.9h-.1s1.2-.1 1.8-.8c.7-.6.9-1.8.9-1.8s.2 1.2.8 1.8c.7.7 1.8.8 1.8.8s-1.1.2-1.8.9z" fill="#fc0"/>
        <path d="M284.6 388.3c-.4.4-.4 1.2-.4 1.2s-.1-.8-.5-1.2c-.4-.4-1.2-.5-1.2-.5s.8 0 1.2-.4c.4-.4.5-1.2.5-1.2s0 .8.4 1.2c.5.4 1.2.4 1.2.4s-.7.1-1.2.5z" fill="#f60"/>
        <path d="M285.4 405.2c-.7.7-1.2 2.7-1.2 2.7s-.6-2-1.2-2.7c-.7-.6-2.7-1.2-2.7-1.2s2-.5 2.7-1.2c.6-.6 1.2-2.7 1.2-2.7s.5 2.1 1.2 2.7c.6.7 2.7 1.2 2.7 1.2s-2.1.6-2.7 1.2z" fill="#ff0"/>
        <path d="M285 404.9c-.6.6-.8 1.7-.8 1.7v.1s-.2-1.2-.9-1.8c-.6-.7-1.7-.9-1.7-.9h-.1s1.2-.2 1.8-.8c.7-.7.9-1.8.9-1.8s.2 1.1.8 1.8c.7.6 1.8.8 1.8.8s-1.1.2-1.8.9z" fill="#fc0"/>
        <path d="M284.6 404.5c-.4.4-.4 1.2-.4 1.2s-.1-.8-.5-1.2c-.4-.4-1.2-.5-1.2-.5s.8 0 1.2-.4c.4-.4.5-1.2.5-1.2s0 .8.4 1.2c.5.4 1.2.4 1.2.4s-.7.1-1.2.5z" fill="#f60"/>
        <path d="M280.7 395.1s-.2-.2-1.3-.2-2.2 1.5-2.2 1.5 1.3-.5 2.3-.2c1.1.4 1.2-1.1 1.2-1.1z"/>
        <path d="M281.1 393.7c0-.9-.7-1.7-1.6-1.7-.9 0-1.6.8-1.6 1.7v1c0 1 .7 1.7 1.6 1.7.9 0 1.6-.7 1.6-1.7z"/>
        <path d="M279.8 394.9c0-.4-.4-.7-.8-.7-.5 0-.8.3-.8.7 0 .4.3.7.8.7.4 0 .8-.3.8-.7z" fill="#fff"/>
        <path d="M273.9 395.1s-.2-.2-1.3-.2-2.2 1.5-2.2 1.5 1.3-.5 2.3-.2c1.1.4 1.2-1.1 1.2-1.1z"/>
        <path d="M274.3 393.7c0-.9-.7-1.7-1.6-1.7-.9 0-1.6.8-1.6 1.7v1c0 1 .7 1.7 1.6 1.7.9 0 1.6-.7 1.6-1.7z"/>
        <path d="M273 394.9c0-.4-.4-.7-.8-.7-.5 0-.8.3-.8.7 0 .4.3.7.8.7.4 0 .8-.3.8-.7z" fill="#fff"/>
    </g>
</svg>
