<svg xmlns="http://www.w3.org/2000/svg" height="24" width="24">
    <g transform="matrix(1,0,0,-1,-264,408)" id="KDDI_D_">        <path d="M284.4 394.4h-3.7c.3.2 4.1 3.3 4.1 3.3.4.4.8.8.8 1.6v7.4c0 .7-.6 1.3-1.3 1.3h-16.4c-.8 0-1.4-.6-1.4-1.3v-21.4c0-.7.6-1.3 1.4-1.3h16.4c.7 0 1.3.6 1.3 1.3v7.8c0 .7-.6 1.3-1.2 1.3" fill="#ff4100"/>
        <path d="M284.9 390.4c0-.3-.2-.6-.5-.6h-10.8c-.3 0-.6.3-.6.6v2.3c0 .4.3.8.5 1 .4.3 4.4 3.5 4.7 3.7.2.2.2.4.2.6-.1.2-.3.3-.5.3h-4.3c-.3 0-.6.2-.6.5v2.8c0 .3.3.5.6.5h10.8c.3 0 .6-.2.6-.5v-2.3c0-.5-.3-.8-.6-1.1l-4.2-3.4c-.3-.2-.3-.5-.2-.7.1-.3.3-.4.5-.4h3.9c.3 0 .5-.2.5-.6z" fill="#fff"/>
    </g>
</svg>
