<svg xmlns="http://www.w3.org/2000/svg" width="24" height="24">
	<g transform="translate(-264,-386)" id="KDDI_D_300">
		<g>
			<path style="stroke:none; fill:none" d="M 288 409.89L 264 409.89L 264 385.89L 288 385.89L 288 409.89z"/>
		</g>
		<g>
			<path style="stroke:none; fill:#fff" d="M 276 397.89L 269 388.767C 268.206 389.376 267.499 390.096 266.884 390.895L 276 397.89z"/>
			<path style="stroke:none; fill:#96f" d="M 265.386 393.493L 276 397.89L 266.884 390.895C 266.279 391.682 265.775 392.553 265.386 393.493z"/>
			<path style="stroke:none; fill:#f6f" d="M 264.599 396.389L 276 397.89L 265.386 393.493C 265.01 394.401 264.733 395.368 264.599 396.389z"/>
			<path style="stroke:none; fill:#ccc" d="M 264.609 399.39L 276 397.89L 264.599 396.389C 264.464 397.41 264.481 398.415 264.609 399.39z"/>
			<path style="stroke:none; fill:#fff" d="M 276 397.89L 285.124 390.89C 284.514 390.096 283.795 389.389 282.996 388.775L 276 397.89z"/>
			<path style="stroke:none; fill:#999" d="M 280.398 387.275L 276 397.89L 282.996 388.775C 282.208 388.169 281.337 387.665 280.398 387.275z"/>
			<path style="stroke:none; fill:#ff9" d="M 271.603 387.274C 270.672 387.66 269.794 388.157 269 388.767L 276 397.89L 271.603 387.274z"/>
			<path style="stroke:none; fill:#ccc" d="M 271.603 387.274L 276 397.89L 274.501 386.499C 273.493 386.632 272.521 386.893 271.603 387.274z"/>
			<path style="stroke:none; fill:#ccc" d="M 277.501 386.488L 276 397.89L 280.398 387.275C 279.489 386.9 278.522 386.623 277.501 386.488z"/>
			<path style="stroke:none; fill:#ccc" d="M 274.501 386.499L 276 397.89L 277.501 386.488C 276.48 386.355 275.476 386.371 274.501 386.499z"/>
			<path style="stroke:none; fill:#fff" d="M 276 397.89L 283.001 407.014C 283.795 406.404 284.502 405.685 285.116 404.886L 276 397.89z"/>
			<path style="stroke:none; fill:#ccf" d="M 286.615 402.288L 276 397.89L 285.116 404.886C 285.722 404.099 286.226 403.228 286.615 402.288z"/>
			<path style="stroke:none; fill:#f6f" d="M 286.617 393.493C 286.23 392.562 285.733 391.684 285.124 390.89L 276 397.89L 286.617 393.493z"/>
			<path style="stroke:none; fill:#96f" d="M 286.617 393.493L 276 397.89L 287.391 396.392C 287.259 395.383 286.998 394.41 286.617 393.493z"/>
			<path style="stroke:none; fill:#9ff" d="M 287.402 399.391L 276 397.89L 286.615 402.288C 286.99 401.379 287.267 400.412 287.402 399.391z"/>
			<path style="stroke:none; fill:#96f" d="M 287.391 396.392L 276 397.89L 287.402 399.391C 287.536 398.37 287.519 397.366 287.391 396.392z"/>
			<path style="stroke:none; fill:#fff" d="M 276 397.89L 266.876 404.891C 267.486 405.686 268.206 406.392 269.004 407.006L 276 397.89z"/>
			<path style="stroke:none; fill:#ccc" d="M 271.603 408.505L 276 397.89L 269.004 407.006C 269.792 407.611 270.663 408.115 271.603 408.505z"/>
			<path style="stroke:none; fill:#ccf" d="M 280.397 408.507C 281.328 408.12 282.207 407.624 283.001 407.014L 276 397.89L 280.397 408.507z"/>
			<path style="stroke:none; fill:#9ff" d="M 280.397 408.507L 276 397.89L 277.5 409.281C 278.508 409.15 279.479 408.888 280.397 408.507z"/>
			<path style="stroke:none; fill:#96f" d="M 274.499 409.292L 276 397.89L 271.603 408.505C 272.511 408.881 273.478 409.157 274.499 409.292z"/>
			<path style="stroke:none; fill:#c9f" d="M 277.5 409.281L 276 397.89L 274.499 409.292C 275.521 409.427 276.525 409.409 277.5 409.281z"/>
			<path style="stroke:none; fill:#96f" d="M 265.384 402.287C 265.771 403.219 266.267 404.097 266.876 404.891L 276 397.89L 265.384 402.287z"/>
			<path style="stroke:none; fill:#9ff" d="M 265.384 402.287L 276 397.89L 264.609 399.39C 264.742 400.398 265.003 401.37 265.384 402.287z"/>
			<g>
				<path style="stroke:none; fill:#ccf" d="M 280 397.89C 280 400.099 278.209 401.89 276 401.89C 273.791 401.89 272 400.099 272 397.89C 272 395.681 273.791 393.89 276 393.89C 278.209 393.89 280 395.681 280 397.89z"/>
				<path style="stroke:none; fill:#009" d="M 276.81 397.89C 276.81 398.337 276.447 398.7 276 398.7C 275.553 398.7 275.19 398.337 275.19 397.89C 275.19 397.442 275.553 397.08 276 397.08C 276.447 397.08 276.81 397.442 276.81 397.89z"/>
				<path style="stroke:#36c; stroke-width:1; fill:none" d="M 280 397.89C 280 400.099 278.209 401.89 276 401.89C 273.791 401.89 272 400.099 272 397.89C 272 395.681 273.791 393.89 276 393.89C 278.209 393.89 280 395.681 280 397.89z"/>
				<path style="stroke:#006; stroke-width:1; fill:none" d="M 287.5 397.89C 287.5 404.241 282.351 409.39 276 409.39C 269.649 409.39 264.5 404.241 264.5 397.89C 264.5 391.539 269.649 386.39 276 386.39C 282.351 386.39 287.5 391.539 287.5 397.89z"/>
			</g>
		</g>
	</g>
</svg>
