<svg xmlns="http://www.w3.org/2000/svg" width="24" height="24">
	<g transform="translate(-264,-386)" id="KDDI_D_301">
		<g>
			<path style="stroke:none; fill:none" d="M 288 409.89L 264 409.89L 264 385.89L 288 385.89L 288 409.89z"/>
		</g>
		<g>
			<path style="stroke:none; fill:#f69" d="M 283.5 409.89L 283.5 397.39L 285 397.39L 287.5 394.89C 287.5 394.89 287.5 393.89 287.5 391.39C 287.5 389.39 283 386.39 280 386.39C 277 386.39 275 386.39 272 386.39C 269 386.39 264.5 389.39 264.5 391.39C 264.5 393.39 264.5 394.89 264.5 394.89L 267 397.39L 268.5 397.39L 268.5 409.89"/>
			<path style="stroke:none; fill:#fff" d="M 268 397.39L 264.5 391.89L 264.5 394.89L 267 397.39L 268 397.39z"/>
			<path style="stroke:none; fill:#fff" d="M 284 397.39L 287.5 391.89L 287.5 394.89L 285 397.39L 284 397.39z"/>
			<path style="stroke:none; fill:#ccc" d="M 280 386.39C 277 386.39 275 386.39 272 386.39C 271.581 386.39 271.131 386.453 270.67 386.56L 276 391.89L 281.335 386.555C 280.872 386.453 280.421 386.39 280 386.39z"/>
			<path style="stroke:#000; stroke-width:1; fill:#fff" d="M 273 393.89C 274.5 393.89 276 391.89 276 391.89L 270.67 386.56C 269.957 386.724 269.215 387.001 268.5 387.353C 268.5 387.703 268.5 388.053 268.5 388.39C 268.5 388.867 269.316 390.706 269.5 390.89C 271 392.39 272 393.89 273 393.89z"/>
			<path style="stroke:#000; stroke-width:1; fill:#fff" d="M 279 393.89C 277.5 393.89 276 391.89 276 391.89L 281.33 386.56C 282.043 386.724 282.785 387.001 283.5 387.353C 283.5 387.703 283.5 388.053 283.5 388.39C 283.5 388.867 282.684 390.706 282.5 390.89C 281 392.39 280 393.89 279 393.89z"/>
			<path style="stroke:none; fill:#fff" d="M 276.5 394.89C 276.5 395.166 276.276 395.39 276 395.39C 275.724 395.39 275.5 395.166 275.5 394.89C 275.5 394.613 275.724 394.39 276 394.39C 276.276 394.39 276.5 394.613 276.5 394.89z"/>
			<path style="stroke:none; fill:#fff" d="M 276.5 399.223C 276.5 399.5 276.276 399.723 276 399.723C 275.724 399.723 275.5 399.5 275.5 399.223C 275.5 398.947 275.724 398.723 276 398.723C 276.276 398.723 276.5 398.947 276.5 399.223z"/>
			<path style="stroke:none; fill:#fff" d="M 276.5 403.556C 276.5 403.833 276.276 404.056 276 404.056C 275.724 404.056 275.5 403.833 275.5 403.556C 275.5 403.28 275.724 403.056 276 403.056C 276.276 403.056 276.5 403.28 276.5 403.556z"/>
			<path style="stroke:none; fill:#fff" d="M 276.5 407.89C 276.5 408.166 276.276 408.39 276 408.39C 275.724 408.39 275.5 408.166 275.5 407.89C 275.5 407.613 275.724 407.39 276 407.39C 276.276 407.39 276.5 407.613 276.5 407.89z"/>
			<path style="stroke:#000; stroke-width:1; fill:none" d="M 283.5 409.89L 283.5 397.39L 285 397.39L 287.5 394.89C 287.5 394.89 287.5 393.89 287.5 391.39C 287.5 389.39 283 386.39 280 386.39C 277 386.39 275 386.39 272 386.39C 269 386.39 264.5 389.39 264.5 391.39C 264.5 393.39 264.5 394.89 264.5 394.89L 267 397.39L 268.5 397.39L 268.5 409.89"/>
		</g>
	</g>
</svg>
