<svg xmlns="http://www.w3.org/2000/svg" width="24" height="24">
	<g transform="translate(-264,-386)" id="KDDI_D_302">
		<g>
			<path style="stroke:none; fill:none" d="M 288 409.89L 264 409.89L 264 385.89L 288 385.89L 288 409.89z"/>
		</g>
		<g>
			<path style="stroke:none; fill:#669" d="M 271 405.89C 271 406.994 270.104 407.89 269 407.89C 267.896 407.89 267 406.994 267 405.89C 267 404.785 267.896 403.89 269 403.89C 270.104 403.89 271 404.785 271 405.89z"/>
			<path style="stroke:none; fill:#669" d="M 285 405.89C 285 406.994 284.104 407.89 283 407.89C 281.896 407.89 281 406.994 281 405.89C 281 404.785 281.896 403.89 283 403.89C 284.104 403.89 285 404.785 285 405.89z"/>
			<path style="stroke:none; fill:#63c" d="M 278 405.89C 278 406.994 277.104 407.89 276 407.89C 274.896 407.89 274 406.994 274 405.89C 274 404.785 274.896 403.89 276 403.89C 277.104 403.89 278 404.785 278 405.89z"/>
			<path style="stroke:none; fill:#63c" d="M 288 403.89L 283 398.89L 269.047 398.89L 264.047 403.89C 264.047 403.89 264.047 405.89 267.547 405.89C 271.047 405.89 276 405.89 276 405.89C 276 405.89 281 405.89 284.5 405.89C 288 405.89 288 403.89 288 403.89z"/>
			<path style="stroke:none; fill:#63c" d="M 283 393.89C 283 394.776 283 398.39 283 398.39L 269.047 398.39C 269.047 398.39 269.047 394.777 269.047 393.89C 269.047 391.89 273 387.89 276 387.89C 279 387.89 283 391.89 283 393.89z"/>
			<path style="stroke:none; fill:#339" d="M 267.547 405.89C 271.047 405.89 276 405.89 276 405.89C 276 405.89 281 405.89 284.5 405.89C 286.25 405.89 287.125 405.39 287.562 404.89L 264.484 404.89C 264.922 405.39 265.797 405.89 267.547 405.89z"/>
			<path style="stroke:none; fill:#309" d="M 274 405.89C 275.189 405.89 276 405.89 276 405.89C 276 405.89 276.811 405.89 278 405.89L 278 404.89L 274 404.89L 274 405.89z"/>
			<path style="stroke:none; fill:#c9f" d="M 270.547 393.89C 270.547 393.89 271.734 390.903 274.047 389.89C 274.047 389.89 272.547 391.278 272.547 393.89L 270.547 393.89z"/>
			<path style="stroke:none; fill:#309" d="M 280.662 390.176C 280.945 390.721 281.5 392.026 281.5 393.89L 283 393.89C 283 392.899 282.018 391.419 280.662 390.176z"/>
			<path style="stroke:none; fill:#63c" d="M 269.047 398.89L 264.047 403.89C 264.047 403.89 264.051 404.234 264.3 404.637L 270.047 398.89L 269.047 398.89z"/>
			<path style="stroke:none; fill:#309" d="M 283 398.89L 288 403.89C 288 403.89 287.996 404.234 287.747 404.637L 282 398.89L 283 398.89z"/>
			<path style="stroke:none; fill:#c9f" d="M 279 398.89L 284 404.89L 278.5 404.89L 277.5 398.89L 279 398.89z"/>
			<path style="stroke:none; fill:#669" d="M 283 393.89L 269.047 393.89L 269.047 398.89L 283 398.89L 283 393.89z"/>
			<path style="stroke:none; fill:#009" d="M 272.481 396.327C 272.481 396.879 272.168 397.327 271.781 397.327C 271.394 397.327 271.082 396.879 271.082 396.327C 271.082 395.775 271.394 395.327 271.781 395.327C 272.168 395.327 272.481 395.775 272.481 396.327z"/>
			<path style="stroke:none; fill:#009" d="M 276.899 396.327C 276.899 396.879 276.587 397.327 276.199 397.327C 275.812 397.327 275.5 396.879 275.5 396.327C 275.5 395.775 275.812 395.327 276.199 395.327C 276.587 395.327 276.899 395.775 276.899 396.327z"/>
			<path style="stroke:none; fill:#009" d="M 280.918 396.327C 280.918 396.879 280.606 397.327 280.218 397.327C 279.832 397.327 279.519 396.879 279.519 396.327C 279.519 395.775 279.832 395.327 280.218 395.327C 280.606 395.327 280.918 395.775 280.918 396.327z"/>
			<path style="stroke:none; fill:#339" d="M 270.547 393.89L 269.047 393.89L 269.047 398.89L 270.547 398.89L 270.547 393.89z"/>
			<path style="stroke:none; fill:#339" d="M 283 393.89L 281.5 393.89L 281.5 398.89L 283 398.89L 283 393.89z"/>
			<path style="stroke:none; fill:#ccf" d="M 274.547 393.89L 273 393.89L 273 398.89L 274.547 398.89L 274.547 393.89z"/>
			<path style="stroke:none; fill:#c9f" d="M 272.594 398.89L 269.594 404.89L 272.047 404.89L 274.047 398.89L 272.594 398.89z"/>
			<path style="stroke:none; fill:#fff" d="M 271.094 398.89L 266.594 404.89L 269.594 404.89L 272.812 398.89L 271.094 398.89z"/>
			<path style="stroke:none; fill:#c9f" d="M 270.75 398.89L 265.594 404.89L 267.547 404.89L 271.547 398.89L 270.75 398.89z"/>
		</g>
	</g>
</svg>
