<svg xmlns="http://www.w3.org/2000/svg" width="24" height="24">
	<g transform="translate(-264,-386)" id="KDDI_D_305">
		<g>
			<path style="stroke:none; fill:none" d="M 288 409.89L 264 409.89L 264 385.89L 288 385.89L 288 409.89z"/>
		</g>
		<g>
			<path style="stroke:none; fill:#ccf" d="M 288 394.89L 264 394.89L 264 385.89L 288 385.89L 288 394.89z"/>
			<path style="stroke:none; fill:#99f" d="M 288 402.39L 264 402.39L 264 394.89L 288 394.89L 288 402.39z"/>
			<path style="stroke:none; fill:#66f" d="M 288 409.89L 264 409.89L 264 402.39L 288 402.39L 288 409.89z"/>
			<path style="stroke:none; fill:#0ff" d="M 265.98 408.39C 265.98 408.655 265.766 408.87 265.5 408.87C 265.235 408.87 265.02 408.655 265.02 408.39C 265.02 408.125 265.235 407.91 265.5 407.91C 265.766 407.91 265.98 408.125 265.98 408.39z"/>
			<path style="stroke:none; fill:#0ff" d="M 270.98 408.39C 270.98 408.655 270.765 408.87 270.5 408.87C 270.234 408.87 270.02 408.655 270.02 408.39C 270.02 408.125 270.234 407.91 270.5 407.91C 270.765 407.91 270.98 408.125 270.98 408.39z"/>
			<path style="stroke:none; fill:#0ff" d="M 275.98 408.39C 275.98 408.655 275.765 408.87 275.5 408.87C 275.235 408.87 275.02 408.655 275.02 408.39C 275.02 408.125 275.235 407.91 275.5 407.91C 275.765 407.91 275.98 408.125 275.98 408.39z"/>
			<path style="stroke:none; fill:#0ff" d="M 280.98 408.39C 280.98 408.655 280.765 408.87 280.5 408.87C 280.234 408.87 280.02 408.655 280.02 408.39C 280.02 408.125 280.234 407.91 280.5 407.91C 280.765 407.91 280.98 408.125 280.98 408.39z"/>
			<path style="stroke:none; fill:#0ff" d="M 285.98 408.39C 285.98 408.655 285.765 408.87 285.5 408.87C 285.235 408.87 285.02 408.655 285.02 408.39C 285.02 408.125 285.235 407.91 285.5 407.91C 285.765 407.91 285.98 408.125 285.98 408.39z"/>
			<path style="stroke:none; fill:#0ff" d="M 268.98 404.39C 268.98 404.655 268.765 404.87 268.5 404.87C 268.234 404.87 268.02 404.655 268.02 404.39C 268.02 404.124 268.234 403.91 268.5 403.91C 268.765 403.91 268.98 404.124 268.98 404.39z"/>
			<path style="stroke:none; fill:#0ff" d="M 273.98 404.39C 273.98 404.655 273.765 404.87 273.5 404.87C 273.235 404.87 273.02 404.655 273.02 404.39C 273.02 404.124 273.235 403.91 273.5 403.91C 273.765 403.91 273.98 404.124 273.98 404.39z"/>
			<path style="stroke:none; fill:#0ff" d="M 278.98 404.39C 278.98 404.655 278.766 404.87 278.5 404.87C 278.235 404.87 278.02 404.655 278.02 404.39C 278.02 404.124 278.235 403.91 278.5 403.91C 278.766 403.91 278.98 404.124 278.98 404.39z"/>
			<path style="stroke:none; fill:#0ff" d="M 283.98 404.39C 283.98 404.655 283.765 404.87 283.5 404.87C 283.234 404.87 283.02 404.655 283.02 404.39C 283.02 404.124 283.234 403.91 283.5 403.91C 283.765 403.91 283.98 404.124 283.98 404.39z"/>
			<path style="stroke:none; fill:#0ff" d="M 265.98 399.39C 265.98 399.655 265.766 399.87 265.5 399.87C 265.235 399.87 265.02 399.655 265.02 399.39C 265.02 399.125 265.235 398.91 265.5 398.91C 265.766 398.91 265.98 399.125 265.98 399.39z"/>
			<path style="stroke:none; fill:#0ff" d="M 270.98 399.39C 270.98 399.655 270.765 399.87 270.5 399.87C 270.234 399.87 270.02 399.655 270.02 399.39C 270.02 399.125 270.234 398.91 270.5 398.91C 270.765 398.91 270.98 399.125 270.98 399.39z"/>
			<path style="stroke:none; fill:#0ff" d="M 275.98 399.39C 275.98 399.655 275.765 399.87 275.5 399.87C 275.235 399.87 275.02 399.655 275.02 399.39C 275.02 399.125 275.235 398.91 275.5 398.91C 275.765 398.91 275.98 399.125 275.98 399.39z"/>
			<path style="stroke:none; fill:#0ff" d="M 280.98 399.39C 280.98 399.655 280.765 399.87 280.5 399.87C 280.234 399.87 280.02 399.655 280.02 399.39C 280.02 399.125 280.234 398.91 280.5 398.91C 280.765 398.91 280.98 399.125 280.98 399.39z"/>
			<path style="stroke:none; fill:#0ff" d="M 285.98 399.39C 285.98 399.655 285.765 399.87 285.5 399.87C 285.235 399.87 285.02 399.655 285.02 399.39C 285.02 399.125 285.235 398.91 285.5 398.91C 285.765 398.91 285.98 399.125 285.98 399.39z"/>
			<path style="stroke:none; fill:#0ff" d="M 268.98 395.39C 268.98 395.655 268.765 395.87 268.5 395.87C 268.234 395.87 268.02 395.655 268.02 395.39C 268.02 395.124 268.234 394.91 268.5 394.91C 268.765 394.91 268.98 395.124 268.98 395.39z"/>
			<path style="stroke:none; fill:#0ff" d="M 273.98 395.39C 273.98 395.655 273.765 395.87 273.5 395.87C 273.235 395.87 273.02 395.655 273.02 395.39C 273.02 395.124 273.235 394.91 273.5 394.91C 273.765 394.91 273.98 395.124 273.98 395.39z"/>
			<path style="stroke:none; fill:#0ff" d="M 278.98 395.39C 278.98 395.655 278.766 395.87 278.5 395.87C 278.235 395.87 278.02 395.655 278.02 395.39C 278.02 395.124 278.235 394.91 278.5 394.91C 278.766 394.91 278.98 395.124 278.98 395.39z"/>
			<path style="stroke:none; fill:#0ff" d="M 283.98 395.39C 283.98 395.655 283.765 395.87 283.5 395.87C 283.234 395.87 283.02 395.655 283.02 395.39C 283.02 395.124 283.234 394.91 283.5 394.91C 283.765 394.91 283.98 395.124 283.98 395.39z"/>
			<path style="stroke:none; fill:#0ff" d="M 265.98 391.39C 265.98 391.655 265.766 391.87 265.5 391.87C 265.235 391.87 265.02 391.655 265.02 391.39C 265.02 391.125 265.235 390.91 265.5 390.91C 265.766 390.91 265.98 391.125 265.98 391.39z"/>
			<path style="stroke:none; fill:#0ff" d="M 270.98 391.39C 270.98 391.655 270.765 391.87 270.5 391.87C 270.234 391.87 270.02 391.655 270.02 391.39C 270.02 391.125 270.234 390.91 270.5 390.91C 270.765 390.91 270.98 391.125 270.98 391.39z"/>
			<path style="stroke:none; fill:#0ff" d="M 275.98 391.39C 275.98 391.655 275.765 391.87 275.5 391.87C 275.235 391.87 275.02 391.655 275.02 391.39C 275.02 391.125 275.235 390.91 275.5 390.91C 275.765 390.91 275.98 391.125 275.98 391.39z"/>
			<path style="stroke:none; fill:#0ff" d="M 280.98 391.39C 280.98 391.655 280.765 391.87 280.5 391.87C 280.234 391.87 280.02 391.655 280.02 391.39C 280.02 391.125 280.234 390.91 280.5 390.91C 280.765 390.91 280.98 391.125 280.98 391.39z"/>
			<path style="stroke:none; fill:#0ff" d="M 285.98 391.39C 285.98 391.655 285.765 391.87 285.5 391.87C 285.235 391.87 285.02 391.655 285.02 391.39C 285.02 391.125 285.235 390.91 285.5 390.91C 285.765 390.91 285.98 391.125 285.98 391.39z"/>
			<path style="stroke:none; fill:#0ff" d="M 268.98 387.39C 268.98 387.655 268.765 387.87 268.5 387.87C 268.234 387.87 268.02 387.655 268.02 387.39C 268.02 387.124 268.234 386.91 268.5 386.91C 268.765 386.91 268.98 387.124 268.98 387.39z"/>
			<path style="stroke:none; fill:#0ff" d="M 273.98 387.39C 273.98 387.655 273.765 387.87 273.5 387.87C 273.235 387.87 273.02 387.655 273.02 387.39C 273.02 387.124 273.235 386.91 273.5 386.91C 273.765 386.91 273.98 387.124 273.98 387.39z"/>
			<path style="stroke:none; fill:#0ff" d="M 278.98 387.39C 278.98 387.655 278.766 387.87 278.5 387.87C 278.235 387.87 278.02 387.655 278.02 387.39C 278.02 387.124 278.235 386.91 278.5 386.91C 278.766 386.91 278.98 387.124 278.98 387.39z"/>
			<path style="stroke:none; fill:#0ff" d="M 283.98 387.39C 283.98 387.655 283.765 387.87 283.5 387.87C 283.234 387.87 283.02 387.655 283.02 387.39C 283.02 387.124 283.234 386.91 283.5 386.91C 283.765 386.91 283.98 387.124 283.98 387.39z"/>
		</g>
	</g>
</svg>
