<svg xmlns="http://www.w3.org/2000/svg" width="24" height="24">
	<g transform="translate(-264,-386)" id="KDDI_D_306">
		<g>
			<path style="stroke:none; fill:none" d="M 288 409.89L 264 409.89L 264 385.89L 288 385.89L 288 409.89z"/>
		</g>
		<g>
			<path style="stroke:none; fill:#3cf" d="M 288 394.89L 264 394.89L 264 385.89L 288 385.89L 288 394.89z"/>
			<path style="stroke:none; fill:#3f0" d="M 288 398.89L 264 398.89L 264 396.89L 288 396.89L 288 398.89z"/>
			<path style="stroke:none; fill:#9f0" d="M 288 400.89L 264 400.89L 264 398.89L 288 398.89L 288 400.89z"/>
			<path style="stroke:none; fill:#9f0" d="M 288 404.89L 264 404.89L 264 402.89L 288 402.89L 288 404.89z"/>
			<path style="stroke:none; fill:#6f0" d="M 288 402.89L 264 402.89L 264 400.89L 288 400.89L 288 402.89z"/>
			<path style="stroke:none; fill:#9f0" d="M 288 409.89L 264 409.89L 264 406.89L 288 406.89L 288 409.89z"/>
			<path style="stroke:none; fill:#6f0" d="M 288 406.89L 264 406.89L 264 404.89L 288 404.89L 288 406.89z"/>
			<path style="stroke:none; fill:#0c0" d="M 283.5 409.89C 283.5 405.993 278.5 400.89 272 400.89C 270.25 400.89 267.593 400.89 265 400.89L 265 409.89L 283.5 409.89z"/>
			<path style="stroke:none; fill:#090" d="M 282.5 409.89C 282.5 405.993 277.5 400.89 271 400.89C 269.25 400.89 266.593 400.89 264 400.89L 264 409.89L 282.5 409.89z"/>
			<path style="stroke:none; fill:#3c0" d="M 288 396.89L 264 396.89L 264 394.89L 288 394.89L 288 396.89z"/>
			<path style="stroke:none; fill:#333" d="M 270.5 405.39C 270.5 405.797 269.604 406.126 268.5 406.126C 267.396 406.126 266.5 405.797 266.5 405.39C 266.5 404.983 267.396 404.653 268.5 404.653C 269.604 404.653 270.5 404.983 270.5 405.39z"/>
			<path style="stroke:#ccc; stroke-width:1; stroke-linecap:square; fill:none" d="M 268.5 405.39L 268.5 388.39"/>
			<path style="stroke:none; fill:#f00" d="M 268 392.39C 268 392.39 268 389.314 268 387.89C 271.5 387.89 272.105 388.942 273 389.39C 274 389.89 275.5 389.39 275.5 389.39C 275.5 389.39 274.177 391.605 273 392.39C 271.5 393.39 270.5 392.39 268 392.39z"/>
			<path style="stroke:none; fill:#900" d="M 270 388.04L 270 392.6C 270.774 392.748 271.389 392.896 272 392.796L 272 388.751C 271.551 388.477 270.955 388.203 270 388.04z"/>
			<path style="stroke:none; fill:#900" d="M 274 389.605L 274 391.457C 274.818 390.524 275.5 389.39 275.5 389.39C 275.5 389.39 274.776 389.624 274 389.605z"/>
		</g>
	</g>
</svg>
