<svg xmlns="http://www.w3.org/2000/svg" width="24" height="24">
	<g transform="translate(-264,-386)" id="KDDI_D_308">
		<g>
			<path style="stroke:none; fill:none" d="M 288 409.89L 264 409.89L 264 385.89L 288 385.89L 288 409.89z"/>
		</g>
		<g>
			<path style="stroke:#000; stroke-width:1; fill:#99c" d="M 287.5 406.39C 287.5 406.94 287.05 407.39 286.5 407.39L 265.562 407.39C 265.013 407.39 264.562 406.94 264.562 406.39L 264.562 391.39C 264.562 390.84 265.013 390.39 265.562 390.39L 286.5 390.39C 287.05 390.39 287.5 390.84 287.5 391.39L 287.5 406.39z"/>
			<path style="stroke:#669; stroke-width:1; fill:none" d="M 284.5 399.39L 284.5 400.39L 267.5 400.39L 267.5 399.39"/>
			<path style="stroke:none; fill:#ccc" d="M 284.5 399.39L 267.5 399.39L 267.5 394.39L 284.5 394.39L 284.5 399.39z"/>
			<path style="stroke:none; fill:#f00" d="M 285 404.89L 284 404.89L 284 403.89L 285 403.89L 285 404.89z"/>
			<path style="stroke:none; fill:#090" d="M 284 404.89L 283 404.89L 283 403.89L 284 403.89L 284 404.89z"/>
			<path style="stroke:none; fill:#fc0" d="M 283 404.89L 282 404.89L 282 403.89L 283 403.89L 283 404.89z"/>
			<path style="stroke:none; fill:#090" d="M 282 404.89L 281 404.89L 281 403.89L 282 403.89L 282 404.89z"/>
			<path style="stroke:none; fill:#fc0" d="M 281 404.89L 280 404.89L 280 403.89L 281 403.89L 281 404.89z"/>
			<path style="stroke:none; fill:#f00" d="M 280 404.89L 279 404.89L 279 403.89L 280 403.89L 280 404.89z"/>
			<path style="stroke:none; fill:#666" d="M 274 395.89L 273 395.89L 273 394.89L 274 394.89L 274 395.89z"/>
			<path style="stroke:none; fill:#999" d="M 273 395.89L 272 395.89L 272 394.89L 273 394.89L 273 395.89z"/>
			<path style="stroke:none; fill:#999" d="M 272 395.89L 271 395.89L 271 394.89L 272 394.89L 272 395.89z"/>
			<path style="stroke:none; fill:#666" d="M 271 395.89L 270 395.89L 270 394.89L 271 394.89L 271 395.89z"/>
			<path style="stroke:none; fill:#666" d="M 269 395.89L 268 395.89L 268 394.89L 269 394.89L 269 395.89z"/>
			<path style="stroke:none; fill:#666" d="M 281 395.89L 280 395.89L 280 394.89L 281 394.89L 281 395.89z"/>
			<path style="stroke:none; fill:#999" d="M 280 395.89L 279 395.89L 279 394.89L 280 394.89L 280 395.89z"/>
			<path style="stroke:none; fill:#999" d="M 279 395.89L 278 395.89L 278 394.89L 279 394.89L 279 395.89z"/>
			<path style="stroke:none; fill:#666" d="M 278 395.89L 277 395.89L 277 394.89L 278 394.89L 278 395.89z"/>
			<path style="stroke:none; fill:#666" d="M 276 395.89L 275 395.89L 275 394.89L 276 394.89L 276 395.89z"/>
			<path style="stroke:none; fill:#666" d="M 283 395.89L 282 395.89L 282 394.89L 283 394.89L 283 395.89z"/>
			<path style="stroke:none; fill:#666" d="M 275 396.89L 274 396.89L 274 395.89L 275 395.89L 275 396.89z"/>
			<path style="stroke:none; fill:#999" d="M 274 396.89L 273 396.89L 273 395.89L 274 395.89L 274 396.89z"/>
			<path style="stroke:none; fill:#999" d="M 273 396.89L 272 396.89L 272 395.89L 273 395.89L 273 396.89z"/>
			<path style="stroke:none; fill:#999" d="M 269 396.89L 268 396.89L 268 395.89L 269 395.89L 269 396.89z"/>
			<path style="stroke:none; fill:#666" d="M 272 396.89L 271 396.89L 271 395.89L 272 395.89L 272 396.89z"/>
			<path style="stroke:none; fill:#666" d="M 270 396.89L 269 396.89L 269 395.89L 270 395.89L 270 396.89z"/>
			<path style="stroke:none; fill:#666" d="M 282 396.89L 281 396.89L 281 395.89L 282 395.89L 282 396.89z"/>
			<path style="stroke:none; fill:#999" d="M 281 396.89L 280 396.89L 280 395.89L 281 395.89L 281 396.89z"/>
			<path style="stroke:none; fill:#999" d="M 280 396.89L 279 396.89L 279 395.89L 280 395.89L 280 396.89z"/>
			<path style="stroke:none; fill:#666" d="M 279 396.89L 278 396.89L 278 395.89L 279 395.89L 279 396.89z"/>
			<path style="stroke:none; fill:#666" d="M 277 396.89L 276 396.89L 276 395.89L 277 395.89L 277 396.89z"/>
			<path style="stroke:none; fill:#666" d="M 284 396.89L 283 396.89L 283 395.89L 284 395.89L 284 396.89z"/>
			<path style="stroke:none; fill:#666" d="M 275 397.89L 274 397.89L 274 396.89L 275 396.89L 275 397.89z"/>
			<path style="stroke:none; fill:#999" d="M 274 397.89L 273 397.89L 273 396.89L 274 396.89L 274 397.89z"/>
			<path style="stroke:none; fill:#999" d="M 273 397.89L 272 397.89L 272 396.89L 273 396.89L 273 397.89z"/>
			<path style="stroke:none; fill:#999" d="M 269 397.89L 268 397.89L 268 396.89L 269 396.89L 269 397.89z"/>
			<path style="stroke:none; fill:#999" d="M 284 397.89L 283 397.89L 283 396.89L 284 396.89L 284 397.89z"/>
			<path style="stroke:none; fill:#666" d="M 273 396.89L 272 396.89L 272 395.89L 273 395.89L 273 396.89z"/>
			<path style="stroke:none; fill:#666" d="M 270 397.89L 269 397.89L 269 396.89L 270 396.89L 270 397.89z"/>
			<path style="stroke:none; fill:#666" d="M 282 397.89L 281 397.89L 281 396.89L 282 396.89L 282 397.89z"/>
			<path style="stroke:none; fill:#999" d="M 280 397.89L 279 397.89L 279 396.89L 280 396.89L 280 397.89z"/>
			<path style="stroke:none; fill:#666" d="M 280 396.89L 279 396.89L 279 395.89L 280 395.89L 280 396.89z"/>
			<path style="stroke:none; fill:#666" d="M 278 397.89L 277 397.89L 277 396.89L 278 396.89L 278 397.89z"/>
			<path style="stroke:none; fill:#666" d="M 277 398.89L 276 398.89L 276 397.89L 277 397.89L 277 398.89z"/>
			<path style="stroke:none; fill:#999" d="M 276 398.89L 275 398.89L 275 397.89L 276 397.89L 276 398.89z"/>
			<path style="stroke:none; fill:#999" d="M 275 398.89L 274 398.89L 274 397.89L 275 397.89L 275 398.89z"/>
			<path style="stroke:none; fill:#999" d="M 271 398.89L 270 398.89L 270 397.89L 271 397.89L 271 398.89z"/>
			<path style="stroke:none; fill:#999" d="M 270 398.89L 269 398.89L 269 397.89L 270 397.89L 270 398.89z"/>
			<path style="stroke:none; fill:#666" d="M 274 398.89L 273 398.89L 273 397.89L 274 397.89L 274 398.89z"/>
			<path style="stroke:none; fill:#666" d="M 272 398.89L 271 398.89L 271 397.89L 272 397.89L 272 398.89z"/>
			<path style="stroke:none; fill:#666" d="M 284 398.89L 283 398.89L 283 397.89L 284 397.89L 284 398.89z"/>
			<path style="stroke:none; fill:#999" d="M 283 398.89L 282 398.89L 282 397.89L 283 397.89L 283 398.89z"/>
			<path style="stroke:none; fill:#999" d="M 282 398.89L 281 398.89L 281 397.89L 282 397.89L 282 398.89z"/>
			<path style="stroke:none; fill:#666" d="M 281 398.89L 280 398.89L 280 397.89L 281 397.89L 281 398.89z"/>
			<path style="stroke:none; fill:#666" d="M 279 398.89L 278 398.89L 278 397.89L 279 397.89L 279 398.89z"/>
			<path style="stroke:#333; stroke-width:1; fill:none" d="M 284.5 399.39L 267.5 399.39L 267.5 394.39L 284.5 394.39L 284.5 399.39z"/>
		</g>
	</g>
</svg>
