<svg xmlns="http://www.w3.org/2000/svg" width="24" height="24">
	<g transform="translate(-264,-386)" id="KDDI_D_309">
		<g>
			<path style="stroke:none; fill:none" d="M 288 409.89L 264 409.89L 264 385.89L 288 385.89L 288 409.89z"/>
		</g>
		<g>
			<path style="stroke:none; fill:#f90" d="M 264.5 399.89C 264.5 401.89 265 404.39 267.5 406.39C 270 408.39 272 409.39 277 409.39C 282 409.39 287.5 405.89 287.5 403.39C 287.5 400.89 286.5 400.89 286 400.39C 285.5 399.89 285 399.39 285 398.39C 285 397.39 285.469 396.761 286 396.39C 286.696 395.903 287.5 395.524 287.5 394.39C 287.5 392.39 286 388.39 279 388.39C 276 388.39 272.5 388.89 269 391.89C 265.5 394.89 264.5 397.89 264.5 399.89z"/>
			<path style="stroke:none; fill:#f00" d="M 275.5 389.39C 274.4 389.39 273.5 389.84 273.5 390.39C 273.5 390.94 273.837 391.39 274.25 391.39C 274.663 391.39 275 391.727 275 392.14C 275 392.552 275.788 392.89 276.75 392.89C 277.712 392.89 278.5 392.552 278.5 392.14C 278.5 391.727 278.95 391.39 279.5 391.39C 280.05 391.39 280.5 390.94 280.5 390.39C 280.5 389.84 279.6 389.39 278.5 389.39L 275.5 389.39z"/>
			<path style="stroke:none; fill:#ff0" d="M 272.5 391.39C 271.95 391.39 271.5 392.177 271.5 393.14C 271.5 394.102 272.288 394.89 273.25 394.89C 274.212 394.89 275 395.34 275 395.89C 275 396.44 275.45 396.89 276 396.89C 276.55 396.89 277 396.102 277 395.14C 277 394.177 276.212 393.39 275.25 393.39C 274.288 393.39 273.5 392.94 273.5 392.39C 273.5 391.84 273.05 391.39 272.5 391.39z"/>
			<path style="stroke:none; fill:#090" d="M 269.25 395.39C 268.288 395.39 267.5 395.727 267.5 396.14C 267.5 396.552 267.163 396.89 266.75 396.89C 266.337 396.89 266 397.34 266 397.89C 266 398.44 266.9 398.89 268 398.89L 271 398.89C 272.1 398.89 273 398.44 273 397.89C 273 397.34 272.55 396.89 272 396.89C 271.45 396.89 271 396.552 271 396.14C 271 395.727 270.212 395.39 269.25 395.39z"/>
			<path style="stroke:none; fill:#03c" d="M 270 400.89C 268.9 400.89 268 401.227 268 401.64C 268 402.052 268.337 402.39 268.75 402.39C 269.163 402.39 269.5 402.84 269.5 403.39C 269.5 403.94 270.4 404.39 271.5 404.39L 273 404.39C 274.1 404.39 275 403.94 275 403.39C 275 402.84 274.55 402.39 274 402.39C 273.45 402.39 273 402.052 273 401.64C 273 401.227 272.1 400.89 271 400.89L 270 400.89z"/>
			<path style="stroke:none; fill:#fff" d="M 278 402.89C 277.45 402.89 277 403.227 277 403.64C 277 404.052 276.55 404.39 276 404.39C 275.45 404.39 275 404.84 275 405.39C 275 405.94 275.9 406.39 277 406.39L 278.5 406.39C 279.6 406.39 280.5 405.94 280.5 405.39C 280.5 404.84 280.163 404.39 279.75 404.39C 279.337 404.39 279 404.052 279 403.64C 279 403.227 278.55 402.89 278 402.89z"/>
			<path style="stroke:#000; stroke-width:1; fill:none" d="M 264.5 399.89C 264.5 401.89 265 404.39 267.5 406.39C 270 408.39 272 409.39 277 409.39C 282 409.39 287.5 405.89 287.5 403.39C 287.5 400.89 286.5 400.89 286 400.39C 285.5 399.89 285 399.39 285 398.39C 285 397.39 285.469 396.761 286 396.39C 286.696 395.903 287.5 395.524 287.5 394.39C 287.5 392.39 286 388.39 279 388.39C 276 388.39 272.5 388.89 269 391.89C 265.5 394.89 264.5 397.89 264.5 399.89z"/>
			<path style="stroke:#000; stroke-width:1; fill:#fff" d="M 284.5 398.89C 284.5 400.546 284.5 401.39 281.5 401.39C 280.396 401.39 279.5 400.546 279.5 398.89C 279.5 397.233 280.396 396.39 281.5 396.39C 284.5 396.39 284.5 397.233 284.5 398.89z"/>
			<path style="stroke:#930; stroke-width:2; stroke-linejoin:round; stroke-linecap:round; fill:none" d="M 281 394.89L 283 394.89C 283.55 394.89 284 395.34 284 395.89L 284 401.89C 284 402.44 283.55 402.89 283 402.89L 281 402.89"/>
		</g>
	</g>
</svg>
