<svg xmlns="http://www.w3.org/2000/svg" width="24" height="24">
	<g transform="translate(-264,-386)" id="KDDI_D_310">
		<g>
			<path style="stroke:none; fill:none" d="M 288 409.89L 264 409.89L 264 385.89L 288 385.89L 288 409.89z"/>
		</g>
		<g>
			<path style="stroke:none; fill:#f00" d="M 281.223 387.974C 279.5 388.89 276.824 389.526 274.39 390.5L 275.185 391.854C 277.668 390.861 280.234 389.835 281.777 388.806C 284.233 387.168 286.125 386.531 286.595 387.182C 287.131 387.926 286 389.39 284.5 391.39C 282.543 393.999 276.5 398.39 273 400.39C 272.128 400.888 264.658 404.944 265.525 407.548C 266.094 409.254 268.78 410.473 272.637 409.371C 276.198 408.353 279.194 405.879 279.32 405.774L 276.5 404.89C 276.471 404.914 275.619 406.331 272.5 407.89C 269.5 409.39 266.902 408.515 266.474 407.232C 266.197 406.399 270.255 405.669 275 403.89C 279.265 402.29 284.116 398.745 286 396.39C 287.336 394.719 288.838 388.582 287.405 386.597C 286.3 385.066 283.569 386.726 281.223 387.974z"/>
			<path style="stroke:none; fill:#c00" d="M 279 396.39C 286.5 393.89 288 389.39 288 389.39C 288 389.39 288 393.39 283 398.39"/>
			<path style="stroke:none; fill:#c00" d="M 280 402.89C 268.5 404.39 266 406.39 266 406.39C 266 406.39 270.5 400.39 277.5 398.89"/>
			<path style="stroke:none; fill:#c00" d="M 267.388 406.44L 267.375 406.439C 266.94 406.625 265.684 407.02 265.608 407.711C 266.293 409.327 268.909 410.436 272.637 409.371C 276.198 408.353 279.194 405.879 279.32 405.774L 276.5 404.89C 276.471 404.914 275.619 406.331 272.5 407.89C 269.5 409.39 266.902 408.515 266.474 407.232C 266.387 406.969 266.73 406.717 267.388 406.44z"/>
			<path style="stroke:none; fill:#c00" d="M 287.069 386.329C 287.018 386.257 286.928 386.188 286.815 386.124C 285.501 385.552 283.224 386.91 281.223 387.974C 279.5 388.89 276.824 389.526 274.39 390.5L 275.185 391.854C 277.668 390.861 280.234 389.835 281.777 388.806C 284.233 387.168 286.125 386.531 286.595 387.182C 286.801 387.468 286.757 387.862 286.544 388.351C 287.116 387.456 287.384 386.765 287.069 386.329z"/>
			<path style="stroke:none; fill:#063" d="M 286.129 406.388C 283.635 408.883 277.16 411.314 274.665 408.82C 272.172 406.326 274.603 399.851 277.098 397.356C 279.591 394.862 283.636 394.862 286.129 397.356C 288.624 399.851 288.624 403.894 286.129 406.388z"/>
			<path style="stroke:none; fill:#096" d="M 285.765 397.027C 283.255 394.874 279.474 394.98 277.098 397.356C 274.721 399.733 272.411 405.718 274.356 408.435C 277.5 409.89 282.363 407.376 284.74 404.999C 287.117 402.622 287.918 399.536 285.765 397.027z"/>
			<path style="stroke:none; fill:#c60" d="M 277 392.39C 277 395.98 274.09 402.39 270.5 402.39C 266.91 402.39 264 395.98 264 392.39C 264 388.8 266.91 385.89 270.5 385.89C 274.09 385.89 277 388.8 277 392.39z"/>
			<path style="stroke:none; fill:#f90" d="M 276 391.39C 276 390.548 275.757 388.463 275.053 387.759C 273.889 386.596 272.275 385.89 270.5 385.89C 266.91 385.89 264 388.8 264 392.39C 264 393.84 264.481 395.749 265.284 397.511C 266.469 399.667 268.141 401.39 270 401.39C 273.59 401.39 276 394.98 276 391.39z"/>
			<path style="stroke:none; fill:#fc0" d="M 269.5 398.89C 273.09 398.89 275 393.98 275 390.39C 275 387.89 274.398 387.184 274 386.925C 272.993 386.271 271.793 385.89 270.5 385.89C 266.91 385.89 264 388.8 264 392.39C 264 393.716 264.417 395.421 265.099 397.051C 266 398.39 267.8 398.89 269.5 398.89z"/>
			<path style="stroke:none; fill:#ff0" d="M 270.341 392.241C 269.31 394.116 267.46 395.079 266.21 394.39C 264.96 393.702 264.784 391.625 265.816 389.75C 266.848 387.877 268.698 386.915 269.947 387.603C 271.197 388.29 271.374 390.368 270.341 392.241z"/>
			<path style="stroke:none; fill:#000" d="M 268.524 388.89C 268.635 389.188 268.705 389.507 268.705 389.844C 268.705 391.364 267.474 392.594 265.955 392.594C 265.618 392.594 265.298 392.525 265 392.414C 265.447 392.833 266.043 393.094 266.705 393.094C 268.085 393.094 269.205 391.975 269.205 390.594C 269.205 389.933 268.943 389.337 268.524 388.89z"/>
			<path style="stroke:none; fill:#000" d="M 272.476 388.89C 272.365 389.188 272.295 389.507 272.295 389.844C 272.295 391.364 273.526 392.594 275.045 392.594C 275.382 392.594 275.702 392.525 276 392.414C 275.553 392.833 274.957 393.094 274.295 393.094C 272.915 393.094 271.795 391.975 271.795 390.594C 271.795 389.933 272.057 389.337 272.476 388.89z"/>
			<path style="stroke:none; fill:#000" d="M 270.5 396.89C 271.629 396.89 272.602 397.627 273.113 398.703C 273.163 398.505 273.2 398.303 273.2 398.089C 273.2 396.599 271.991 395.39 270.5 395.39C 269.009 395.39 267.8 396.599 267.8 398.089C 267.8 398.303 267.836 398.505 267.887 398.703C 268.398 397.627 269.37 396.89 270.5 396.89z"/>
			<path style="stroke:none; fill:#3c9" d="M 285.374 396.723C 282.876 394.894 279.354 395.099 277.098 397.356C 274.84 399.614 272.652 405.119 274.102 407.995C 277 408.89 281.094 405.866 283.351 403.609C 285.607 401.353 287.202 399.22 285.374 396.723z"/>
			<path style="stroke:none; fill:#6fc" d="M 283.683 396.993C 281.567 396.235 279.236 396.608 277.674 398.17C 276.687 399.157 275.753 400.875 275.228 402.703C 274.675 404.633 278.18 402.345 280.8 401.296C 285.435 399.441 284.318 397.222 283.683 396.993z"/>
			<path style="stroke:none; fill:#000" d="M 277.438 405.952C 278.145 406.659 279.214 406.805 280.206 406.452C 280.114 406.607 280.01 406.757 279.876 406.891C 278.944 407.823 277.433 407.823 276.5 406.89C 275.568 405.957 275.568 404.446 276.5 403.514C 276.633 403.38 276.783 403.276 276.938 403.184C 276.585 404.177 276.731 405.246 277.438 405.952z"/>
			<path style="stroke:none; fill:#000" d="M 280.572 399.441C 281.218 400.087 281.314 401.069 280.87 401.823C 281.01 401.74 281.146 401.646 281.266 401.525C 282.033 400.758 282.034 399.513 281.266 398.747C 280.499 397.979 279.254 397.979 278.487 398.746C 278.367 398.866 278.272 399.003 278.189 399.143C 278.942 398.699 279.925 398.795 280.572 399.441z"/>
			<path style="stroke:none; fill:#000" d="M 284.045 402.915C 284.692 403.562 284.787 404.544 284.344 405.297C 284.484 405.214 284.619 405.12 284.74 404.999C 285.507 404.232 285.507 402.987 284.74 402.22C 283.973 401.452 282.728 401.452 281.961 402.22C 281.84 402.341 281.746 402.476 281.663 402.616C 282.416 402.173 283.399 402.268 284.045 402.915z"/>
		</g>
	</g>
</svg>
