<svg xmlns="http://www.w3.org/2000/svg" width="24" height="24">
	<g transform="translate(-264,-386)" id="KDDI_D_311">
		<g>
			<path style="stroke:none; fill:none" d="M 288 409.89L 264 409.89L 264 385.89L 288 385.89L 288 409.89z"/>
		</g>
		<g>
			<path style="stroke:none; fill:#fff" d="M 274.5 389.39L 274.5 392.14L 264.5 401.89L 264.5 409.39L 287.5 409.39L 287.5 401.89L 277.5 391.89L 277.5 389.39"/>
			<path style="stroke:#f99; stroke-width:1; fill:none" d="M 273.493 402.383L 276 399.876L 278.507 402.383"/>
			<path style="stroke:#f99; stroke-width:1; fill:none" d="M 276 395.89L 282.5 402.39"/>
			<path style="stroke:#f99; stroke-width:1; fill:none" d="M 276 392.39L 276 395.89L 269.5 402.39"/>
			<path style="stroke:#999; stroke-width:1; fill:none" d="M 265 402.39L 287 402.39"/>
			<path style="stroke:#f00; stroke-width:1; fill:none" d="M 268 409.39L 268 402.39L 276 394.39L 284 402.39L 284 409.39"/>
			<path style="stroke:#f00; stroke-width:1; fill:none" d="M 276 408.89L 276 400.89"/>
			<path style="stroke:#000; stroke-width:1; fill:none" d="M 276 389.39L 276 385.89"/>
			<path style="stroke:none; fill:#0c9" d="M 280.5 408.89L 271.5 408.89L 271.5 403.39L 280.5 403.39L 280.5 408.89z"/>
			<path style="stroke:#06c; stroke-width:1; stroke-linecap:square; fill:none" d="M 272 403.39L 280.146 403.348"/>
			<path style="stroke:#096; stroke-width:1; stroke-linecap:square; fill:none" d="M 272 404.39L 280 404.39"/>
			<path style="stroke:none; fill:#c00" d="M 276.5 385.89L 278.5 386.89L 276.5 387.89"/>
			<path style="stroke:#f00; stroke-width:1; fill:none" d="M 271.497 409.602L 271.497 402.143"/>
			<path style="stroke:#f00; stroke-width:1; fill:none" d="M 280.532 409.117L 280.532 401.9"/>
			<path style="stroke:#000; stroke-width:1; fill:none" d="M 274.5 389.39L 274.5 391.89L 264.5 401.89L 264.5 409.39L 287.5 409.39L 287.5 401.89L 277.5 391.89L 277.5 389.39"/>
			<path style="stroke:none; fill:#c00" d="M 267.5 401.89L 267.5 402.858L 268.5 402.858L 268.5 401.89L 267.5 401.89z"/>
			<path style="stroke:none; fill:#c00" d="M 271 401.89L 271 402.858L 272 402.858L 272 401.89L 271 401.89z"/>
			<path style="stroke:none; fill:#c00" d="M 275.5 401.89L 275.5 402.858L 276.5 402.858L 276.5 401.89L 275.5 401.89z"/>
			<path style="stroke:none; fill:#c00" d="M 280 401.9L 280 402.869L 281 402.869L 281 401.9L 280 401.9z"/>
			<path style="stroke:none; fill:#c00" d="M 283.5 401.9L 283.5 402.869L 284.5 402.869L 284.5 401.9L 283.5 401.9z"/>
		</g>
	</g>
</svg>
