<svg xmlns="http://www.w3.org/2000/svg" width="24" height="24">
	<g transform="translate(-264,-386)" id="KDDI_D_312">
		<g>
			<path style="stroke:none; fill:none" d="M 288 409.89L 264 409.89L 264 385.89L 288 385.89L 288 409.89z"/>
		</g>
		<g>
			<path style="stroke:none; fill:#f00" d="M 264 397.39C 264 403.39 267 409.89 267.5 409.89C 268 409.89 270.315 404.286 271.5 402.39C 274 398.39 275.5 397.89 275.5 397.89L 272.5 395.89C 272.5 395.89 264 391.39 264 397.39z"/>
			<path style="stroke:none; fill:#c00" d="M 272.5 397.458C 272.5 397.458 273.045 398.617 271 401.89C 270.051 403.407 268.385 407.282 267.5 408.772L 267.5 409.89C 268 409.89 270.315 404.286 271.5 402.39C 274 398.39 275.5 397.89 275.5 397.89L 272.5 397.458z"/>
			<path style="stroke:none; fill:#f00" d="M 288 397.39C 288 403.39 285 409.89 284.5 409.89C 284 409.89 281.685 404.286 280.5 402.39C 278 398.39 276.5 397.89 276.5 397.89L 279.5 395.89C 279.5 395.89 288 391.39 288 397.39z"/>
			<path style="stroke:none; fill:#c00" d="M 279.5 397.458C 279.5 397.458 278.955 398.617 281 401.89C 281.949 403.407 283.615 407.282 284.5 408.772L 284.5 409.89C 284 409.89 281.685 404.286 280.5 402.39C 278 398.39 276.5 397.89 276.5 397.89L 279.5 397.458z"/>
			<path style="stroke:none; fill:#f00" d="M 273.5 397.39C 273.5 397.39 269 400.39 266.5 400.39C 264.5 400.39 264 398.89 264 397.89C 264 396.89 264 391.39 264 388.39C 264 387.06 265 385.89 266.502 385.89C 268.363 385.89 270.608 388.276 272 389.39L 273.5 389.39L 273.5 397.39z"/>
			<path style="stroke:none; fill:#c00" d="M 273.5 396.918L 273.5 394.918L 272.5 394.918C 272.5 394.918 268.417 399.418 267 399.418L 266.906 399.89C 269.456 399.611 273.5 396.918 273.5 396.918z"/>
			<path style="stroke:none; fill:#f66" d="M 273.5 389.765L 273 389.39L 272 389.39C 270.792 388.423 268.941 386.502 267.256 386.01C 266.502 386.01 266.5 387.288 266.5 388.39L 266.5 399.39L 267.5 399.89L 269 399.39C 269 399.39 267.5 399.39 267.5 398.89C 267.5 398.39 267.5 388.89 267.5 388.89C 267.5 388.436 267.607 388.121 267.795 388.027C 268.053 387.899 268.488 387.631 269.5 388.39L 273.5 391.89L 273.5 390.39L 273.5 389.765z"/>
			<path style="stroke:none; fill:#900" d="M 264 397.89C 264 398.89 264.5 400.39 266.5 400.39C 269 400.39 273.5 397.39 273.5 397.39L 273.5 396.39C 273.5 396.39 269 399.39 266.5 399.39C 264.5 399.39 264 397.701 264 397.89z"/>
			<path style="stroke:none; fill:#f00" d="M 278.5 397.39C 278.5 397.39 283 400.39 285.5 400.39C 287.5 400.39 288 398.89 288 397.89C 288 396.89 288 391.39 288 388.39C 288 387.06 287 385.89 285.498 385.89C 283.637 385.89 281.392 388.276 280 389.39L 278.5 389.39L 278.5 397.39z"/>
			<path style="stroke:none; fill:#c00" d="M 278.5 396.918L 278.5 394.918L 279.5 394.918C 279.5 394.918 283.583 399.418 285 399.418L 285.094 399.89C 282.544 399.611 278.5 396.918 278.5 396.918z"/>
			<path style="stroke:none; fill:#f66" d="M 278.5 389.765L 279 389.39L 280 389.39C 281.208 388.423 283.059 386.502 284.744 386.01C 285.498 386.01 285.5 387.288 285.5 388.39L 285.5 399.39L 284.5 399.89L 283 399.39C 283 399.39 284.5 399.39 284.5 398.89C 284.5 398.39 284.5 388.89 284.5 388.89C 284.5 388.436 284.393 388.121 284.205 388.027C 283.947 387.899 283.512 387.631 282.5 388.39L 278.5 391.89L 278.5 390.39L 278.5 389.765z"/>
			<path style="stroke:none; fill:#900" d="M 288 397.89C 288 398.89 287.5 400.39 285.5 400.39C 283 400.39 278.5 397.39 278.5 397.39L 278.5 396.39C 278.5 396.39 283 399.39 285.5 399.39C 287.5 399.39 288 397.701 288 397.89z"/>
			<path style="stroke:none; fill:#f00" d="M 280 387.89L 280 395.89C 280 396.99 279.1 397.89 278 397.89L 274 397.89C 272.9 397.89 272 396.99 272 395.89L 272 387.89"/>
			<path style="stroke:#f66; stroke-width:3; fill:none" d="M 276 387.89L 276 395.89"/>
			<path style="stroke:none; fill:#c00" d="M 274 397.89L 278 397.89C 279.1 397.89 280 396.99 280 395.89L 280 392.89C 280 393.99 279.1 394.89 278 394.89L 274 394.89C 272.9 394.89 272 393.99 272 392.89L 272 395.89C 272 396.99 272.9 397.89 274 397.89z"/>
			<path style="stroke:#900; stroke-width:1; fill:none" d="M 280 387.89L 280 395.89C 280 396.99 279.1 397.89 278 397.89L 274 397.89C 272.9 397.89 272 396.99 272 395.89L 272 387.89"/>
		</g>
	</g>
</svg>
