<svg xmlns="http://www.w3.org/2000/svg" width="24" height="24">
	<g transform="translate(-264,-386)" id="KDDI_D_313">
		<g>
			<path style="stroke:none; fill:none" d="M 288 409.89L 264 409.89L 264 385.89L 288 385.89L 288 409.89z"/>
		</g>
		<g>
			<path style="stroke:none; fill:#ffcc66" d="M 287.5 397.89C 287.5 399.89 287.5 404.261 287.5 405.39C 287.5 407.599 282.351 409.39 276 409.39C 269.649 409.39 264.5 407.599 264.5 405.39C 264.5 404.195 264.5 400.89 264.5 397.89"/>
			<path style="stroke:none; fill:#ff9933" d="M 273 397.89L 264.5 397.89C 264.5 400.89 264.5 404.195 264.5 405.39C 264.5 407.237 268.107 408.786 273 409.246L 273 397.89z"/>
			<path style="stroke:none; fill:#cc6600" d="M 269 397.89L 264.5 397.89C 264.5 400.89 264.5 404.195 264.5 405.39C 264.5 406.68 266.272 407.822 269 408.553L 269 397.89z"/>
			<path style="stroke:none; fill:#ff9933" d="M 279 397.89L 287.5 397.89C 287.5 400.89 287.5 404.195 287.5 405.39C 287.5 407.237 283.893 408.786 279 409.246L 279 397.89z"/>
			<path style="stroke:none; fill:#ffffff" d="M 285 403.94C 283.083 404.837 279.912 405.513 276 405.513C 272.088 405.513 268.917 404.837 267 403.94L 267 404.921C 269.336 405.884 272.72 406.39 276 406.39C 279.28 406.39 282.664 405.884 285 404.921L 285 403.94z"/>
			<path style="stroke:none; fill:#ffffff" d="M 274.904 405.39C 274.904 405.866 274.518 406.253 274.042 406.253C 273.565 406.253 273.179 405.866 273.179 405.39C 273.179 404.913 273.565 404.527 274.042 404.527C 274.518 404.527 274.904 404.913 274.904 405.39z"/>
			<path style="stroke:none; fill:#ffffff" d="M 282.821 404.807C 282.821 405.283 282.435 405.67 281.958 405.67C 281.482 405.67 281.096 405.283 281.096 404.807C 281.096 404.331 281.482 403.944 281.958 403.944C 282.435 403.944 282.821 404.331 282.821 404.807z"/>
			<path style="stroke:none; fill:#ffffff" d="M 278.821 405.307C 278.821 405.783 278.435 406.17 277.958 406.17C 277.482 406.17 277.096 405.783 277.096 405.307C 277.096 404.83 277.482 404.444 277.958 404.444C 278.435 404.444 278.821 404.83 278.821 405.307z"/>
			<path style="stroke:none; fill:#ffffff" d="M 270.863 404.848C 270.863 405.325 270.477 405.711 270 405.711C 269.524 405.711 269.138 405.325 269.138 404.848C 269.138 404.372 269.524 403.985 270 403.985C 270.477 403.985 270.863 404.372 270.863 404.848z"/>
			<path style="stroke:none; fill:#cc6600" d="M 283 397.89L 287.5 397.89C 287.5 400.89 287.5 404.195 287.5 405.39C 287.5 406.68 285.728 407.822 283 408.553L 283 397.89z"/>
			<path style="stroke:none; fill:#ffffff" d="M 287.5 397.89C 287.5 400.099 282.351 401.89 276 401.89C 269.649 401.89 264.5 400.099 264.5 397.89C 264.5 395.681 269.649 393.89 276 393.89C 282.351 393.89 287.5 395.681 287.5 397.89z"/>
			<path style="stroke:#cccccc; stroke-width:1; fill:none" d="M 287.5 397.89C 287.5 400.099 282.351 401.89 276 401.89C 269.649 401.89 264.5 400.099 264.5 397.89C 264.5 395.681 269.649 393.89 276 393.89C 282.351 393.89 287.5 395.681 287.5 397.89z"/>
			<path style="stroke:none; fill:#ff0000" d="M 274.042 405.376C 273.54 405.376 273.14 405.766 273.099 406.258C 273.725 406.315 274.358 406.348 274.993 406.368C 274.994 406.356 275 406.346 275 406.335C 275 405.805 274.571 405.376 274.042 405.376z"/>
			<path style="stroke:none; fill:#ff0000" d="M 281.966 404.795C 281.848 404.82 281.718 404.842 281.596 404.866C 281.247 405.009 281 405.351 281 405.752C 281 405.832 281.027 405.903 281.046 405.978C 281.683 405.872 282.303 405.751 282.887 405.604C 282.814 405.15 282.44 404.799 281.966 404.795z"/>
			<path style="stroke:none; fill:#ff0000" d="M 278.077 405.317C 277.947 405.325 277.826 405.339 277.695 405.346C 277.296 405.463 277 405.816 277 406.252C 277 406.293 277.019 406.328 277.023 406.367C 277.658 406.347 278.291 406.313 278.916 406.256C 278.916 406.254 278.917 406.253 278.917 406.252C 278.917 405.764 278.548 405.378 278.077 405.317z"/>
			<path style="stroke:none; fill:#ff0000" d="M 270 404.835C 269.541 404.835 269.175 405.164 269.082 405.595C 269.665 405.743 270.285 405.866 270.922 405.973C 270.934 405.913 270.958 405.857 270.958 405.793C 270.958 405.264 270.529 404.835 270 404.835z"/>
			<path style="stroke:none; fill:#cccccc" d="M 267 403.939L 267 404.916C 267.606 405.164 268.275 405.385 269 405.572L 269 404.659C 268.231 404.445 267.567 404.201 267 403.939z"/>
			<path style="stroke:none; fill:#cccccc" d="M 285 403.939C 284.433 404.201 283.769 404.445 283 404.659L 283 405.572C 283.725 405.385 284.394 405.164 285 404.916L 285 403.939z"/>
			<path style="stroke:none; fill:#999999" d="M 269.138 401.027C 269.138 401.504 269.524 401.89 270 401.89C 270.477 401.89 270.863 401.504 270.863 401.027C 270.863 401.002 270.851 400.982 270.849 400.958C 270.284 400.857 269.754 400.74 269.259 400.611C 269.189 400.736 269.138 400.873 269.138 401.027z"/>
			<path style="stroke:none; fill:#999999" d="M 265 397.89C 265 397.822 265.02 397.754 265.034 397.685C 264.609 397.738 264.275 398.087 264.275 398.527C 264.275 399.004 264.661 399.39 265.137 399.39C 265.391 399.39 265.613 399.276 265.771 399.103C 265.272 398.707 265 398.293 265 397.89z"/>
			<path style="stroke:none; fill:#999999" d="M 273.137 401.527C 273.137 402.004 273.523 402.39 274 402.39C 274.476 402.39 274.862 402.004 274.862 401.527C 274.862 401.471 274.841 401.422 274.831 401.369C 274.263 401.349 273.72 401.311 273.19 401.264C 273.163 401.348 273.137 401.434 273.137 401.527z"/>
			<path style="stroke:none; fill:#999999" d="M 281.137 401.027C 281.137 401.504 281.524 401.89 282 401.89C 282.477 401.89 282.863 401.504 282.863 401.027C 282.863 400.873 282.811 400.736 282.741 400.611C 282.246 400.74 281.717 400.857 281.151 400.958C 281.149 400.982 281.137 401.002 281.137 401.027z"/>
			<path style="stroke:none; fill:#999999" d="M 277.138 401.527C 277.138 402.004 277.524 402.39 278 402.39C 278.477 402.39 278.863 402.004 278.863 401.527C 278.863 401.434 278.837 401.348 278.81 401.264C 278.28 401.311 277.737 401.349 277.169 401.369C 277.159 401.422 277.138 401.471 277.138 401.527z"/>
			<path style="stroke:none; fill:#999999" d="M 286.966 397.685C 286.98 397.754 287 397.822 287 397.89C 287 398.293 286.728 398.707 286.229 399.103C 286.387 399.276 286.609 399.39 286.862 399.39C 287.339 399.39 287.725 399.004 287.725 398.527C 287.725 398.087 287.391 397.738 286.966 397.685z"/>
			<path style="stroke:#000000; stroke-width:1; fill:none" d="M 276 393.89C 269.649 393.89 264.5 395.681 264.5 397.89C 264.5 400.89 264.5 404.195 264.5 405.39C 264.5 407.599 269.649 409.39 276 409.39C 282.351 409.39 287.5 407.599 287.5 405.39C 287.5 404.261 287.5 399.89 287.5 397.89C 287.5 395.681 282.351 393.89 276 393.89z"/>
			<path style="stroke:none; fill:#ff0000" d="M 270.5 385.89C 270.5 385.89 269.5 389.89 270.5 389.89C 271.5 389.89 270.5 385.89 270.5 385.89z"/>
			<path style="stroke:#00cc99; stroke-width:1; fill:none" d="M 270.5 396.89L 270.5 389.89"/>
			<path style="stroke:#ff6699; stroke-width:1; fill:none" d="M 276 398.89L 276 391.89"/>
			<path style="stroke:#0099ff; stroke-width:1; fill:none" d="M 281.5 396.89L 281.5 389.89"/>
			<path style="stroke:none; fill:#ff6600" d="M 270.927 389.188C 270.856 388.611 270.5 387.89 270.5 387.89C 270.5 387.89 270.144 388.611 270.073 389.188C 270.103 389.501 270.179 389.74 270.329 389.838C 270.383 389.859 270.426 389.89 270.5 389.89C 270.574 389.89 270.617 389.859 270.671 389.838C 270.821 389.74 270.897 389.501 270.927 389.188z"/>
			<path style="stroke:none; fill:#ff0000" d="M 276 387.89C 276 387.89 275 391.89 276 391.89C 277 391.89 276 387.89 276 387.89z"/>
			<path style="stroke:none; fill:#ff6600" d="M 276.427 391.188C 276.356 390.611 276 389.89 276 389.89C 276 389.89 275.644 390.611 275.573 391.188C 275.603 391.501 275.679 391.74 275.829 391.838C 275.883 391.859 275.926 391.89 276 391.89C 276.074 391.89 276.117 391.859 276.171 391.838C 276.321 391.74 276.397 391.501 276.427 391.188z"/>
			<path style="stroke:none; fill:#ff0000" d="M 281.5 385.89C 281.5 385.89 280.5 389.89 281.5 389.89C 282.5 389.89 281.5 385.89 281.5 385.89z"/>
			<path style="stroke:none; fill:#ff6600" d="M 281.927 389.188C 281.856 388.611 281.5 387.89 281.5 387.89C 281.5 387.89 281.144 388.611 281.073 389.188C 281.103 389.501 281.179 389.74 281.329 389.838C 281.383 389.859 281.426 389.89 281.5 389.89C 281.574 389.89 281.617 389.859 281.671 389.838C 281.821 389.74 281.897 389.501 281.927 389.188z"/>
			<path style="stroke:#cccccc; stroke-width:0.75; stroke-linecap:round; fill:none" d="M 277.5 396.39L 278.5 395.39L 279.5 396.39"/>
			<path style="stroke:#cccccc; stroke-width:0.75; stroke-linecap:round; fill:none" d="M 272.5 396.39L 273.5 395.39L 274.5 396.39"/>
			<path style="stroke:#cccccc; stroke-width:0.75; stroke-linecap:round; fill:none" d="M 275 400.39L 276 399.39L 277 400.39"/>
			<path style="stroke:#cccccc; stroke-width:0.75; stroke-linecap:round; fill:none" d="M 279.5 399.39L 280.5 398.39L 281.5 399.39"/>
			<path style="stroke:#cccccc; stroke-width:0.75; stroke-linecap:round; fill:none" d="M 283.5 398.39L 284.5 397.39L 285.5 398.39"/>
			<path style="stroke:#cccccc; stroke-width:0.75; stroke-linecap:round; fill:none" d="M 272.5 399.39L 271.5 398.39L 270.5 399.39"/>
			<path style="stroke:#cccccc; stroke-width:0.75; stroke-linecap:round; fill:none" d="M 268.5 398.39L 267.5 397.39L 266.5 398.39"/>
		</g>
	</g>
</svg>