<svg xmlns="http://www.w3.org/2000/svg" width="24" height="24">
	<g transform="translate(-264,-386)" id="KDDI_D_314">
		<g>
			<path style="stroke:none; fill:none" d="M 288 409.89L 264 409.89L 264 385.89L 288 385.89L 288 409.89z"/>
		</g>
		<g>
			<path style="stroke:none; fill:#009" d="M 284 393.89C 282.75 392.64 276 385.89 276 385.89C 276 385.89 269.25 392.64 268 393.89C 263.5 398.39 265.5 404.39 270 404.39C 272.5 404.39 275 402.39 275 402.39C 275 402.39 275.75 405.64 271.5 409.89L 272.5 409.89L 280 409.89L 281.5 409.89C 278.377 406.767 277.956 404.19 277.951 403.039C 278.905 403.623 280.452 404.39 282 404.39C 286.5 404.39 288.5 398.39 284 393.89z"/>
			<path style="stroke:none; fill:#03c" d="M 277 402.39C 277 401.89 277 401.39 277 401.39C 277 401.39 279.5 403.39 282 403.39C 285 403.39 287.5 398.89 283 394.39C 281.75 393.14 275.632 386.258 275.632 386.258C 275.632 386.258 269.25 392.64 268 393.89C 266.296 395.593 265.527 397.511 265.47 399.238C 265.477 399.157 265.485 399.067 265.49 398.992C 265.714 401.472 267.457 403.39 270 403.39C 272.5 403.39 275 401.39 275 401.39C 275 401.39 275 401.89 275 402.39C 275 402.89 275.5 405.89 271.5 409.89L 280 409.89C 277 406.39 277 402.89 277 402.39z"/>
			<path style="stroke:none; fill:#06c" d="M 282.5 396.39C 282.368 395.995 277.278 389.612 275.278 386.612C 275.278 386.612 269.25 392.64 268 393.89C 266.827 395.063 266.105 396.336 265.744 397.58C 266.059 399.993 267.273 402.39 270 402.39C 271.453 402.39 273.204 401.259 273.756 400.824L 275 399.842C 275 399.842 275 401.89 275 402.39C 275 402.89 275.5 407.39 272.5 409.89L 279 409.89C 277 407.39 277 403.216 277 402.39C 277 401.564 277 399.827 277 399.827C 277.72 400.33 278.696 400.89 279.5 400.89C 281.5 400.89 283.5 399.39 282.5 396.39z"/>
			<path style="stroke:none; fill:#09f" d="M 275.5 386.89C 275.353 387.037 274.784 387.106 273.5 388.39C 271.445 390.444 268.746 393.144 268 393.89C 266.931 394.959 266.5 396.608 266.5 397.249C 266.5 398.39 267.527 401.39 270 401.39C 271.453 401.39 273.5 399.89 273.5 398.39C 273.5 396.89 273.411 394.418 274 391.39C 274.347 389.609 274.5 388.89 275.5 386.89z"/>
			<path style="stroke:none; fill:#fff" d="M 274 388.89C 271.312 391.501 269 393.89 268.5 396.39C 268.108 398.351 268.562 399.39 270 399.39C 271.438 399.39 271 397.092 271 395.89C 271 394.39 272 391.89 274 388.89z"/>
			<path style="stroke:none; fill:#09f" d="M 276 405.39L 276 403.89C 276 403.89 275.5 408.39 273.5 409.89L 276 409.89C 276 408.39 276 405.39 276 405.39z"/>
		</g>
	</g>
</svg>
