<svg xmlns="http://www.w3.org/2000/svg" width="24" height="24">
	<g transform="translate(-264,-386)" id="KDDI_D_316">
		<g>
			<path style="stroke:none; fill:none" d="M 288 409.89L 264 409.89L 264 385.89L 288 385.89L 288 409.89z"/>
		</g>
		<g>
			<path style="stroke:#060; stroke-width:1; fill:none" d="M 272 398.39L 279.5 398.39"/>
			<path style="stroke:none; fill:#060" d="M 277 400.571L 277 394.085L 276 394.085L 276 409.861L 282.583 409.861C 280.884 408.163 277.872 404.333 277 400.571z"/>
			<path style="stroke:none; fill:#090" d="M 276.042 400.71C 276.03 400.755 276.012 398.345 276 398.39L 276 394.085L 275 394.085L 275 400.571C 274.128 404.333 271.116 408.163 269.417 409.861L 281.583 409.861C 279.905 408.184 276.954 404.427 276.042 400.71z"/>
			<path style="stroke:none; fill:#0c0" d="M 271.5 409.861L 279.5 409.861C 277.822 408.184 277 405.89 275.5 401.89C 274 405.89 273.178 408.184 271.5 409.861z"/>
			<path style="stroke:none; fill:#6f6" d="M 273 409.861L 278 409.861C 276.857 408.718 276.522 407.156 275.5 404.431C 274.478 407.156 274.143 408.718 273 409.861z"/>
			<path style="stroke:#090; stroke-width:1; fill:none" d="M 272 397.39L 279.5 397.39"/>
			<path style="stroke:none; fill:#060" d="M 279.182 387.197C 280.94 388.954 280.94 391.803 279.182 393.561C 277.424 395.318 274.575 395.318 272.818 393.561C 271.06 391.804 271.06 388.954 272.817 387.197C 274.575 385.44 277.425 385.44 279.182 387.197z"/>
			<path style="stroke:none; fill:#090" d="M 278.374 387.198C 279.908 388.732 279.908 391.219 278.374 392.754C 276.84 394.288 274.353 394.288 272.818 392.754C 271.283 391.218 271.283 388.731 272.817 387.197C 274.352 385.663 276.839 385.663 278.374 387.198z"/>
			<path style="stroke:none; fill:#0c0" d="M 277.06 387.197C 278.232 388.369 278.232 390.268 277.06 391.44C 275.889 392.611 273.989 392.611 272.818 391.44C 271.647 390.268 271.647 388.368 272.817 387.197C 273.989 386.025 275.889 386.025 277.06 387.197z"/>
			<path style="stroke:none; fill:#6c6" d="M 275.647 387.197C 276.428 387.978 276.428 389.245 275.647 390.025C 274.865 390.807 273.599 390.807 272.817 390.025C 272.037 389.245 272.037 387.978 272.817 387.197C 273.599 386.416 274.865 386.416 275.647 387.197z"/>
			<path style="stroke:none; fill:#fff" d="M 274.723 387.927C 275.075 388.279 275.075 388.849 274.723 389.2C 274.372 389.552 273.802 389.552 273.451 389.2C 273.099 388.849 273.098 388.278 273.45 387.927C 273.801 387.576 274.372 387.576 274.723 387.927z"/>
			<path style="stroke:none; fill:#060" d="M 271.734 394.791C 273.492 396.548 273.492 399.397 271.734 401.154C 269.976 402.912 267.127 402.912 265.371 401.155C 263.613 399.398 263.613 396.548 265.37 394.791C 267.127 393.033 269.977 393.033 271.734 394.791z"/>
			<path style="stroke:none; fill:#090" d="M 270.926 394.792C 272.46 396.326 272.46 398.813 270.926 400.347C 269.392 401.881 266.905 401.881 265.371 400.347C 263.835 398.812 263.835 396.325 265.37 394.791C 266.904 393.256 269.391 393.256 270.926 394.792z"/>
			<path style="stroke:none; fill:#0c0" d="M 269.613 394.791C 270.785 395.963 270.785 397.862 269.613 399.033C 268.441 400.205 266.542 400.205 265.371 399.034C 264.199 397.862 264.199 395.962 265.37 394.791C 266.542 393.619 268.441 393.619 269.613 394.791z"/>
			<path style="stroke:none; fill:#6c6" d="M 268.199 394.791C 268.98 395.572 268.98 396.838 268.199 397.619C 267.418 398.4 266.151 398.4 265.37 397.619C 264.589 396.838 264.589 395.572 265.37 394.791C 266.151 394.01 267.418 394.01 268.199 394.791z"/>
			<path style="stroke:none; fill:#fff" d="M 267.275 395.521C 267.627 395.873 267.627 396.443 267.275 396.794C 266.924 397.146 266.354 397.146 266.003 396.794C 265.651 396.442 265.65 395.872 266.002 395.521C 266.353 395.17 266.924 395.17 267.275 395.521z"/>
			<path style="stroke:none; fill:#060" d="M 286.609 394.791C 288.367 396.548 288.367 399.397 286.609 401.154C 284.851 402.912 282.002 402.912 280.246 401.155C 278.488 399.398 278.488 396.548 280.245 394.791C 282.002 393.033 284.852 393.033 286.609 394.791z"/>
			<path style="stroke:none; fill:#090" d="M 285.801 394.792C 287.335 396.326 287.335 398.813 285.801 400.347C 284.267 401.881 281.78 401.881 280.246 400.347C 278.71 398.812 278.71 396.325 280.245 394.791C 281.779 393.256 284.266 393.256 285.801 394.792z"/>
			<path style="stroke:none; fill:#0c0" d="M 284.488 394.791C 285.66 395.963 285.66 397.862 284.488 399.033C 283.316 400.205 281.417 400.205 280.246 399.034C 279.074 397.862 279.074 395.962 280.245 394.791C 281.417 393.619 283.316 393.619 284.488 394.791z"/>
			<path style="stroke:none; fill:#6c6" d="M 283.074 394.791C 283.855 395.572 283.855 396.838 283.074 397.619C 282.293 398.4 281.026 398.4 280.245 397.619C 279.464 396.838 279.464 395.572 280.245 394.791C 281.026 394.01 282.293 394.01 283.074 394.791z"/>
			<path style="stroke:none; fill:#fff" d="M 282.15 395.521C 282.502 395.873 282.502 396.443 282.15 396.794C 281.799 397.146 281.229 397.146 280.878 396.794C 280.526 396.442 280.525 395.872 280.877 395.521C 281.228 395.17 281.799 395.17 282.15 395.521z"/>
		</g>
	</g>
</svg>
