<svg xmlns="http://www.w3.org/2000/svg" height="32" width="32">
	<g transform="translate(-316,-438)" id="KDDI_D_32">
		<path d="M330.184 454.033c0 6.399-3.066 11.597-6.665 11.597-3.732 0-6.665-5.198-6.665-11.597 0-6.398 2.933-11.597 6.665-11.597 3.6 0 6.665 5.199 6.665 11.597zM347.38 454.033c0 6.399-3.066 11.597-6.665 11.597-3.733 0-6.665-5.198-6.665-11.597 0-6.398 2.932-11.597 6.665-11.597 3.599 0 6.665 5.199 6.665 11.597z" fill="#fff" stroke="#000" stroke-width="1.338332"/>
		<path d="M325.385 454.966c0 3.2-1.866 5.866-4.132 5.866-2.266 0-4.132-2.666-4.132-5.866 0-3.332 1.866-5.865 4.132-5.865 2.266 0 4.132 2.533 4.132 5.865z"/>
		<path d="M322.72 450.7c.4.8.666 1.867.666 2.933 0 2.666-1.6 4.8-3.6 4.8-.666 0-1.199-.134-1.732-.667.666 1.2 1.733 2 2.8 2 1.999 0 3.598-2.134 3.598-4.8 0-1.866-.666-3.332-1.733-4.265z" fill="#333"/>
		<path d="M322.053 452.434c0 .933-.667 1.6-1.6 1.6-.8 0-1.6-.667-1.6-1.6 0-.934.8-1.6 1.6-1.6.933 0 1.6.666 1.6 1.6z" fill="#fff"/>
		<path d="M342.581 454.966c0 3.2-1.866 5.866-4.132 5.866-2.266 0-4.133-2.666-4.133-5.866 0-3.332 1.867-5.865 4.133-5.865s4.132 2.533 4.132 5.865z"/>
		<path d="M339.915 450.7c.4.8.666 1.867.666 2.933 0 2.666-1.6 4.8-3.599 4.8-.666 0-1.2-.134-1.733-.667.667 1.2 1.733 2 2.8 2 2 0 3.599-2.134 3.599-4.8 0-1.866-.667-3.332-1.733-4.265z" fill="#333"/>
		<path d="M339.248 452.434c0 .933-.666 1.6-1.6 1.6-.799 0-1.599-.667-1.599-1.6 0-.934.8-1.6 1.6-1.6.933 0 1.6.666 1.6 1.6z" fill="#fff"/>
	</g>
</svg>
