<svg xmlns="http://www.w3.org/2000/svg" height="32" width="32">
	<g transform="translate(-316,-438)" id="KDDI_D_318">
    <path d="M323.12 447.235s-.934-8.131 8.53-8.131c6.932 0 10.664 4.399 10.664 10.797 0 7.065-3.199 8.664-4.132 12.663-.933 4-3.599 7.199-7.598 7.199-5.065-.134-5.998-4.4-7.731-7.332" fill="#fc9"/>
    <path d="M323.52 446.035s.932.667 1.732-.666c.666-1.333 1.2-2.8 3.866-4 1.866-.8 8.264-.533 8.264-.533s-2.133-2.666-7.331-1.732c-5.066 1.066-6.532 6.931-6.532 6.931z" fill="#ff9"/>
    <path d="M341.914 452.434s-2.532 2.932-3.065 3.999c-.934 2-2.8 5.332-3.333 7.198-.666 1.866-2.266 3.999-4.132 3.732-1.866-.133-3.6 1.067-2.933 1.733.533.667 5.066.4 6.665-1.333 1.6-1.6 2.133-3.2 2.4-4.532.4-1.333 1.466-3.733 2.399-5.332 1.066-1.6 1.6-4.266 2-5.465zM328.851 449.501s4.399.133 4.399 4.132c0 2.666-3.333 4.8-4.132 5.066-.8.266 1.2-1.867 1.333-4.932 0-2.933-1.6-4.266-1.6-4.266z" fill="#f96"/>
    <path d="M333.916 443.103s3.466 0 4.8 1.866c1.599 2.533 1.865 5.465.932 7.731-.933 2.266-3.199 4.532-4.399 5.466-1.2.933 0-1.2.8-2.4.667-1.333 2.533-1.333 2.133-6.398-.4-5.066-4.266-6.265-4.266-6.265z" fill="#ff9"/>
    <path d="M337.916 448.301c-.267-2.132-1.333-3.332-2.533-3.999a1.365 1.365 0 0 0-.8-.666c-1.6-.533-3.2-.933-5.065.133-1.867.933-2.933 4.132-2.933 4.132l.133.134s2.133 0 2.666-1.733c.4-1.2 2.133-1.733 3.6-1.466 1.466.266 2.399 1.466 2.932 2.666 1.066 2.266.4 4.398-.533 6.265-.933 1.866-1.866 7.598-1.866 7.598s2.266-5.599 2.932-6.532c.8-1.066 2.266-1.733 1.467-6.532z" fill="#f96"/>
    <path d="M323.252 462.298s.934-1.333 1.867-.8c.933.533 1.066 1.466 1.6 3.333.666 1.866-2 2.132-2 2.132" fill="#ff9"/>
    <path d="M322.853 462.431c1.732 2.933 2.666 7.198 7.731 7.332 3.999 0 6.665-3.2 7.598-7.199.933-3.999 4.132-5.598 4.132-12.663 0-6.398-3.732-10.797-10.664-10.797-7.464 0-8.53 8.13-8.53 8.13" fill="none" stroke="#000" stroke-linecap="round" stroke-width="1.333"/>
    <path d="M328.584 449.101s2 .4 3.066.933c.934.667 1.867 2.266 1.867 3.733-.267 3.199-4.8 5.731-4.8 5.731" fill="none" stroke="#633" stroke-linecap="round" stroke-width="1.333"/>
    <path d="M324.719 452.167s2.8.8 2.666 2.933c0 2.132-2.933 3.199-2.933 3.199M326.585 448.435s.8-5.066 5.332-5.066 6.265 2.933 6.265 6.932c0 3.999-1.866 4.799-2.8 6.931-.799 1.6-1.332 4.4-1.332 4.4" fill="none" stroke="#000" stroke-linecap="round" stroke-width="1.333"/>
</g>
</svg>
