<svg xmlns="http://www.w3.org/2000/svg" height="32" width="32">
	<g transform="translate(-316,-438)" id="KDDI_D_319">
		<path d="M325.385 470.43c0-.8.134-1.334-.666-2.134-2.8-2.799-4.666-8.131-4.532-9.997 0-1.333 8.397-5.599 12.263-5.466 3.866.134 11.73 5.332 11.197 8.398-.266 2-3.332 5.066-4.398 6.932-.534.933-.267 1.866-.267 2.266" fill="#fc9"/>
		<path d="M335.65 470.43s.666-3.733 1.866-4.8c1.2-1.2 3.199-2.932 3.465-4.399.134-1.466 1.467-4.132 1.467-4.132s1.6 3.6.666 5.332c-1.066 1.866-4.399 5.199-4.132 6.265.133.933-.133 1.733-.133 1.733zM326.452 459.232s0 3.732.533 4.532c.4.933.8 2.133 1.733 2.266 1.066.134 1.6-.8 3.066-.933.933-.133 3.199.267 3.865-.133 1.467-1.2 1.467-4.666.667-6.265-.933-2-2.933-3.466-4.932-3.2-2 .134-4.932 3.733-4.932 3.733z" fill="#f93"/>
		<path d="M328.851 460.298s-1.066 2.8-.8 3.466c.4.667 1.467 1.067 3.466.267.933-.4 2.933-.933 2.8-2.4-.267-1.6-4-2.932-5.466-1.333zM336.982 470.296s-.266-1.6 1.2-3.6c1.466-1.999 5.065-4.798 5.065-4.798s-3.465 5.065-3.999 6.265c-.533 1.2-.266 2.133-.266 2.133z" fill="#c63"/>
		<path d="M322.453 460.698s1.066 2.933 1.866 4c.666.932 3.332 2.665 3.332 3.732v2h-2.532s.4-1.067-.134-1.467c-.533-.4-4.532-7.332-4.532-8.665l-.133-1.2z" fill="#ffc"/>
		<path d="M338.982 470.43c0-.4-.267-1.334.266-2.267 1.067-1.866 4.133-4.932 4.4-6.932.533-3.066-7.332-8.264-11.198-8.398-3.865-.133-12.263 4.133-12.263 5.466-.134 1.866 1.732 7.198 4.532 9.997.8.8.666 1.333.666 2.133" fill="none" stroke="#000" stroke-width="1.333"/>
		<path d="M332.184 455.1l-4.266.266s-1.466-2.266-3.066-5.865c-1.733-3.732-3.599-9.598-1.333-10.264 2.266-.533 4.266 4.132 5.599 6.798 1.333 2.8 3.332 6.798 3.332 6.798s.933-3.465 2.533-6.931c1.6-3.6 4.132-7.332 5.865-6.798 1.733.666.133 5.998-.666 8.797-.8 2.666-2.4 7.598-2.4 7.598z" fill="#fc9"/>
		<path d="M324.186 439.37s-1.067 2 .533 5.332c1.066 2.533 4.132 9.331 4.132 9.331l-3.2-1.6s-2.665-7.73-2.932-9.33c-.666-3.333 1.467-3.733 1.467-3.733zM340.981 440.437s-1.066 0-1.866 1.2c-.533.8-2.8 4.798-3.466 6.664-.666 1.867-1.6 5.066-1.6 5.066l-1.599-.134s1.333-4.798 2.666-7.731 4.266-6.665 5.332-6.532c1.067.134.533 1.467.533 1.467z" fill="#ffc"/>
		<path d="M323.652 461.365c1.333 1.066 3.866 3.599 4.933 2.132 1.066-1.466-.267-3.865-2.533-5.731-2.133-1.867-5.066-2.133-5.865-.934-1.333 2 2.132 3.333 3.465 4.533z" fill="#fc9"/>
		<path d="M323.386 456.7s1.466 1.199 2.266 2.265c.8 1.067 1.466 1.867.933 2.8-.4.533-1.866.666-1.866.666s3.599 1.866 3.999.533c.4-1.466-.134-2.4-1.067-3.465-1.066-1.067-4.265-2.8-4.265-2.8zM324.985 439.77v1.6l1.6 2.799c1.066 2 3.732 7.865 3.866 8.531.266.667 2.133.933 2.133.533s-3.466-7.998-4.533-9.597c-1.066-2-3.066-3.866-3.066-3.866zM341.781 442.036l-1.6.134s-.266 1.866-1.2 4.398a106.007 106.007 0 0 1-2.932 7.465l2-.4 2.532-6.665z" fill="#f93"/>
		<path d="M328.451 456.566s-2-3.466-3.599-7.065c-1.733-3.732-3.599-9.464-1.333-10.264 2.533-.933 4.266 4.132 5.599 6.798 1.333 2.8 3.332 6.799 3.332 6.799s.933-3.466 2.533-6.932c1.6-3.6 3.732-7.598 5.865-6.798 2.4 1.2.267 5.998-.666 8.664-.934 2.533-2.4 7.732-2.4 7.732" fill="none" stroke="#000" stroke-linecap="round" stroke-linejoin="round" stroke-width="1.333"/>
		<path d="M336.45 460.165s-1.6 4.132-3.733 3.999c-2.266-.133-1.2-5.199 0-7.065 1.066-1.866 3.732-3.332 5.865-3.332 2.133-.134 5.999 4.398 4.932 8.13" fill="#fc9"/>
		<path d="M340.582 462.431s.933-2 .533-3.999c-.667-2.8-3.466-4.266-3.466-4.266s1.2-.266 2.666.534c1.2.666 2.666 2.266 2.8 4.399.266 2-.667 3.465-.667 3.465z" fill="#f93"/>
		<path d="M325.918 457.632c1.467 1.2 4.133 4 5.332 2.4 1.067-1.6-.266-4-2.799-6.132-2.266-1.866-5.332-2.533-6.265-1.066-1.333 1.999 2.266 3.599 3.732 4.798z" fill="#fc9"/>
		<path d="M326.185 452.567s4.532 3.2 5.199 5.065c.666 1.733.133 2.666-.4 2.8-1.2.266-3.2-1.333-3.2-1.333s1.6-.267 1.6-1.333c.134-1.333-3.199-5.2-3.199-5.2z" fill="#f93"/>
		<path d="M327.251 459.765s.8 2 .4 2.666c-.4.533-1.333.667-1.333.667s1.733 1.066 2.133.133c.8-1.733-1.2-3.466-1.2-3.466zM330.05 456.166s.667 2 .267 2.666c-.4.667-1.333.667-1.333.667s1.867 1.066 2.266.266c.667-1.866-1.2-3.599-1.2-3.599z" fill="#c63"/>
		<path d="M337.382 454.3s-2.4 1.733-3.199 2.666c-.8.933-1.2 4.799-.933 5.332.267.4 1.066 1.466 1.066 1.466s-2 .533-2.532-.4c-.8-1.733.133-5.332.533-6.265 1.466-2.666 5.065-2.8 5.065-2.8zM324.452 454.7c.667.933 3.6 3.732 3.6 3.732s-4.8-2-5.6-3.2c-.666-1.199-.666-2.932 1.6-3.198 0 0-.133 1.866.4 2.666zM322.053 458.299c.533 1.066 3.732 4.265 3.732 4.265s-4.399-2.532-5.199-3.599c-.8-1.2-.533-2.532 1.733-2.666 0 0-.666 1.067-.266 2z" fill="#ffc"/>
		<path d="M336.45 459.898s1.332-.8.799-1.333c-.533-.533-2.266-.266-2.4.534-.133.666.4 1.066.267 1.6 0 .666.267 1.599.267 1.599z" fill="#f93"/>
		<path d="M323.652 461.365c1.333 1.066 3.866 3.599 4.933 2.132 1.066-1.466-.267-3.865-2.533-5.731-2.133-1.867-5.199-2.533-5.865-.934-.934 2.133 2.132 3.333 3.465 4.533z" fill="none" stroke="#000" stroke-linecap="round" stroke-width="1.333"/>
		<path d="M338.982 457.366c.666-.267 1.6 1.866 1.333 2.799-.267.933-2 3.2-2.4 2.933-.533-.134.934-1.867.934-2.666 0-.8-.667-2.933.133-3.066z" fill="#ffc"/>
		<path d="M335.516 458.432l.8 1.866 1.866-1.2" fill="none" stroke="#933" stroke-linecap="round" stroke-width="1.333"/>
		<path d="M336.45 460.165s-.4 4.266-3.6 3.6c-2.133-.268-1.066-4.933-.267-7.066.534-1.6 4.133-3.066 5.999-2.932 2.133 0 5.998 4.398 4.932 8.13" fill="none" stroke="#000" stroke-linecap="round" stroke-width="1.333"/>
		<path d="M325.918 457.632c1.467 1.2 4.133 4 5.332 2.4 1.067-1.6-.266-4-2.799-6.132-2.266-1.866-5.332-2.533-6.265-1.066-1.333 1.999 2.266 3.599 3.732 4.798z" fill="none" stroke="#000" stroke-linecap="round" stroke-width="1.333"/>
	</g>
</svg>
