<svg xmlns="http://www.w3.org/2000/svg" height="32" width="32">
	<g transform="translate(-316,-438)" id="KDDI_D_320">
		<path d="M335.916 470.43v-3.333s2-1.467 2.933-2.4c.8-.8 1.866-5.065 2.799-6.532.8-1.466 5.332-2.132 5.332-3.999 0-1.999-3.2-2.799-5.332-2.132-3.2.8-5.066 4.532-5.066 4.532s-.8-2.8-.8-5.465c-.133-2.666.134-6.665-.133-9.065-.266-1.733-1.066-2.133-1.6-2.266-.666 0-1.466.533-1.732 1.866-.667 3.6-1.067 10.798-1.067 10.798s.134-7.599-.8-11.33c-.266-1.6-1.066-2-1.732-2-.667 0-1.6.4-1.866 1.866-.534 3.599-.267 12.13-.267 12.13s-.133-7.331-1.2-10.93c-.4-1.467-1.066-2-1.866-2-.8.133-1.333.533-1.6 2.133-.666 3.999 0 11.464 0 11.464s-.266-4.933-1.066-7.732c-.4-1.2-.8-1.866-1.466-1.733-.933 0-1.333.667-1.6 2-.4 2 .134 4.932.134 6.798 0 3.2.933 10.53 2.132 12.264 1.333 1.733 1.6 5.065 1.6 5.065" fill="#fc9"/>
		<path d="M336.45 456.3s-5.2 2.799-6.666 5.065c-.8 1.333-.8 4.265-.266 5.332M323.386 458.166h9.73" fill="none" stroke="#f93" stroke-width="1.333"/>
		<path d="M346.98 454.566c.133-1.6-1.733-2.266-1.733-2.266s.4 1.467 0 2c-.267.533-1.2.933-1.6 1.066-.933.134-2.799.933-3.199 1.333-1.733 1.6-2.4 4.133-3.599 6.132-1.466 2.533-5.199 4.266-5.199 4.266s1.6.666 1.6 1.333v2l2.666-.134v-3.2l3.066-2.799s1.6-4.798 2.932-6.265c1.333-1.466 4.933-2.532 5.066-3.466zM333.783 440.437s.8.666.667 3.999c0 .533-.4 4.932-.8 7.998-.133.533.666 1.2.666 1.732.134 1.733-.266 2.533-.266 3.733l1.866-1.733s-.4-2.133-.533-4.532c-.134-2.533.4-5.466.4-6.265.133-1.333-.134-3.066-.4-4-.4-.932-1.6-.932-1.6-.932zM328.185 439.504s1.2.533 1.466 4.265c0 1.2-.267 8.398-.267 8.398l1.866.267s-.266-6.266-.266-7.599c.133-1.332-.133-3.065-.533-3.998-.667-1.867-2.266-1.333-2.266-1.333zM323.252 440.703s.934.933 1.2 4.4c0 1.199.267 7.73.267 7.73l1.866.134s-.533-5.865-.533-7.065c.133-1.333-.134-3.066-.4-3.866-.8-1.733-2.4-1.333-2.4-1.333zM318.72 444.702s.933.667 1.2 3.333c.133.8.666 5.732.666 5.732l1.467.266s-.533-4.532-.4-5.465c0-.933-.133-2.266-.533-2.933-.8-1.333-2.4-.933-2.4-.933z" fill="#f93"/>
		<path d="M335.783 458.965c-.4-.4-3.066 1.467-3.6 2.133-.533.667-1.2 2.133-.4 2.266.934 0 1.734-.8 2.667-1.733.8-.933 2-1.866 1.333-2.666zM318.987 446.435c.266 0 .933 6.399.933 7.332.133 1.066.933 1.6 1.2 1.6.4 0 3.466-.934 4.532-1.067.933-.133 7.331-1.466 7.331.533 0 1.6-5.465 1.2-7.464 1.333-2 .267-3.066.4-3.866 1.333-.267.533.533 3.333.933 4.266.4.8 1.6 1.333 1.733 2.666.133 1.466-.533 2.399-.533 3.199 0 .8.533 2.8.533 2.8l-1.333-.134s-.667-3.2-1.067-4.132c-.4-.934-2.132-5.066-2.266-6.532 0-1.6-.533-7.465-.8-9.331-.266-1.733-.266-3.866.134-3.866zM342.848 453.9c-.134-.933-1.333-.667-2.133-.267-.8.534-1.2 1.2.133 1.067 1.333-.134 2.133-.134 2-.8zM323.652 442.303c0 .666-.266 1.2-.533 1.2-.266 0-.533-.534-.533-1.2 0-.667.267-1.2.533-1.2.267 0 .533.533.533 1.2zM328.718 440.97c0 .666-.267 1.2-.667 1.2-.266 0-.533-.534-.533-1.2 0-.667.267-1.2.533-1.2.4 0 .667.533.667 1.2zM334.05 441.636c0 .667-.267 1.2-.533 1.2-.4 0-.667-.533-.667-1.2 0-.666.267-1.2.667-1.2.266 0 .533.534.533 1.2z" fill="#ffc"/>
		<path d="M334.183 470.43s-.4-3.067.267-3.733c.533-.667 2.132-1.733 2.932-2.8.933-1.066 1.6-2.399 2-3.732.4-1.733 2.266-2.666 2.266-2.666s-2.133 6.665-2.533 7.065c-.266.4-2.932 2.266-3.066 2.533-.133.4-.133 3.199-.133 3.199zM335.25 443.902l-.934 7.998.534 1.6.133 2.933 1.2-.4z" fill="#c63"/>
		<path d="M321.653 470.43s-.267-3.333-1.6-5.066c-1.2-1.733-2.133-9.065-2.133-12.264 0-1.866-.533-4.799-.133-6.798.267-1.333.667-2 1.6-2 .666-.133 1.066.533 1.466 1.733.8 2.8 1.066 7.465 1.066 7.465s-.666-7.198 0-11.197c.267-1.6.8-2 1.6-2.133.8 0 1.733.533 2.133 2 .8 3.998.666 10.53.666 10.53s0-8.131.534-11.73c.266-1.467 1.2-1.866 1.866-1.866.666 0 1.466.4 1.733 2 .933 3.732.8 10.663.8 10.663s.133-6.398.8-9.997c.266-1.333 1.332-2 1.999-2 .533.133 1.333.533 1.6 2.266.266 2.4 0 6.399.133 9.065 0 2.666.533 5.198.533 5.198s2.133-3.466 5.332-4.265c2.133-.667 5.332.133 5.332 2.132 0 1.867-4.532 2.533-5.332 4-.933 1.466-2 5.731-2.8 6.531-.933.933-2.932 2.4-2.932 2.4v3.332" fill="none" stroke="#000" stroke-linejoin="round" stroke-width="1.333"/>
	</g>
</svg>
