<svg xmlns="http://www.w3.org/2000/svg" width="24" height="24">
	<g transform="translate(-288,-386)" id="KDDI_D_322">
		<g>
			<path style="stroke:none; fill:none" d="M 312 409.89L 288 409.89L 288 385.89L 312 385.89L 312 409.89z"/>
		</g>
		<g>
			<g>
				<path style="stroke:#000099; stroke-width:1; fill:#ffff00" d="M 301.966 386.569C 301.619 393.757 295.867 399.509 288.68 399.856C 289.614 405.268 294.32 409.39 300 409.39C 306.352 409.39 311.5 404.241 311.5 397.89C 311.5 392.21 307.379 387.504 301.966 386.569z"/>
				<path style="stroke:#000099; stroke-width:1; fill:#000099" d="M 301.966 386.569C 301.326 386.459 300.672 386.39 300 386.39C 293.649 386.39 288.5 391.539 288.5 397.89C 288.5 398.561 288.569 399.215 288.68 399.856C 295.867 399.509 301.619 393.757 301.966 386.569z"/>
			</g>
		</g>
	</g>
</svg>
