<svg xmlns="http://www.w3.org/2000/svg" width="24" height="24">
	<g transform="translate(-288,-386)" id="KDDI_D_325">
		<g>
			<g>
				<path style="stroke:none; fill:#0000cc" d="M 288 409.89L 312 385.89L 312 409.89L 288 409.89"/>
				<path style="stroke:none; fill:#99ccff" d="M 312 385.89L 288 385.89L 288 409.89L 312 385.89z"/>
				<path style="stroke:none; fill:#0066ff" d="M 310.5 408.39L 289.5 408.39L 289.5 387.39L 310.5 387.39L 310.5 408.39z"/>
				<path style="stroke:none; fill:#0000cc" d="M 300.963 389.911L 297.016 389.911C 294.81 389.911 293.016 391.684 293.016 393.89L 293.016 401.89C 293.016 404.095 294.81 405.869 297.016 405.869L 300.963 405.869C 303.169 405.869 304.963 404.095 304.963 401.89L 304.963 393.89C 304.963 391.684 303.169 389.911 300.963 389.911zM 302.025 401.89C 302.025 403.855 301.006 404.911 298.984 404.911C 297 404.911 295.953 403.855 295.953 401.89L 295.953 393.89C 295.953 391.918 297 390.855 298.984 390.855C 300.959 390.855 302.025 391.918 302.025 393.89L 302.025 401.89z"/>
				<path style="stroke:none; fill:#ffffff" d="M 301.978 389.911L 298.031 389.911C 295.826 389.911 294.031 391.684 294.031 393.89L 294.031 401.89C 294.031 404.095 295.826 405.869 298.031 405.869L 301.978 405.869C 304.185 405.869 305.978 404.095 305.978 401.89L 305.978 393.89C 305.978 391.684 304.185 389.911 301.978 389.911zM 303.041 401.89C 303.041 403.855 302.022 404.911 300 404.911C 298.016 404.911 296.969 403.855 296.969 401.89L 296.969 393.89C 296.969 391.918 298.016 390.855 300 390.855C 301.975 390.855 303.041 391.918 303.041 393.89L 303.041 401.89z"/>
			</g>
		</g>
	</g>
</svg>
