<svg xmlns="http://www.w3.org/2000/svg" width="24" height="24">
	<g transform="translate(-264,-386)" id="KDDI_D_328">
		<g>
			<path style="stroke:none; fill:none" d="M 288 409.89L 264 409.89L 264 385.89L 288 385.89L 288 409.89z"/>
		</g>
		<g>
			<g>
				<path style="stroke:none; fill:#f06" d="M 278.5 390.39C 275 390.39 274 394.39 274 394.39C 274 394.39 273 390.39 269.5 390.39C 267 390.39 264.5 392.39 264.5 396.39C 264.5 401.89 274 409.39 274 409.39C 274 409.39 283.5 401.89 283.5 396.39C 283.5 392.39 281 390.39 278.5 390.39z"/>
				<path style="stroke:none; fill:#f09" d="M 281.918 400.89L 266.082 400.89C 268.782 405.264 274 409.39 274 409.39C 274 409.39 279.218 405.264 281.918 400.89z"/>
				<path style="stroke:none; fill:#f39" d="M 269.194 404.89C 271.588 407.483 274 409.39 274 409.39C 274 409.39 276.412 407.483 278.806 404.89L 269.194 404.89z"/>
				<path style="stroke:none; fill:#c09" d="M 280.856 391.031C 281.81 392.39 282.5 394.409 282.5 396.39C 282.5 400.214 276.835 405.723 274 408.089C 273.727 408.333 273.453 408.53 273.178 408.708C 273.684 409.139 274 409.39 274 409.39C 274 409.39 283.5 401.89 283.5 396.39C 283.5 393.694 282.363 391.91 280.856 391.031z"/>
				<path style="stroke:none; fill:#c06" d="M 282.5 396.39C 282.5 397.749 281.777 399.321 280.728 400.89L 281.918 400.89C 282.859 399.365 283.5 397.811 283.5 396.39C 283.5 396.216 283.482 396.056 283.473 395.89L 282.478 395.89C 282.488 396.056 282.5 396.223 282.5 396.39z"/>
				<path style="stroke:none; fill:none" d="M 282.5 396.39C 282.5 394.409 281.81 392.39 280.856 391.031C 280.128 390.606 279.315 390.39 278.5 390.39C 275 390.39 274 394.39 274 394.39C 274 394.39 273 390.39 269.5 390.39C 267 390.39 264.5 392.39 264.5 396.39C 264.5 400.899 270.877 406.745 273.178 408.708C 273.453 408.53 273.727 408.333 274 408.089C 276.835 405.723 282.5 400.214 282.5 396.39z"/>
				<path style="stroke:none; fill:#f03" d="M 274 394.39C 274 394.39 273 390.39 269.5 390.39C 267.107 390.39 264.721 392.227 264.52 395.89L 283.48 395.89C 283.279 392.227 280.893 390.39 278.5 390.39C 275 390.39 274 394.39 274 394.39z"/>
				<path style="stroke:#300; stroke-width:1; fill:none" d="M 278.5 390.39C 275 390.39 274 394.39 274 394.39C 274 394.39 273 390.39 269.5 390.39C 267 390.39 264.5 392.39 264.5 396.39C 264.5 401.89 274 409.39 274 409.39C 274 409.39 283.5 401.89 283.5 396.39C 283.5 392.39 281 390.39 278.5 390.39z"/>
				<path style="stroke:none; fill:#fff" d="M 270.962 393.394C 270.55 393.087 270.054 392.89 269.5 392.89C 268.119 392.89 267 394.009 267 395.39C 267 395.944 267.197 396.44 267.504 396.852C 267.524 394.949 269.06 393.414 270.962 393.394z"/>
			</g>
			<g>
				<path style="stroke:none; fill:#f06" d="M 284.192 386.39C 281.877 386.39 281.216 389.036 281.216 389.036C 281.216 389.036 280.555 386.39 278.239 386.39C 276.585 386.39 274.931 387.712 274.931 390.358C 274.931 393.997 281.216 398.959 281.216 398.959C 281.216 398.959 287.5 393.997 287.5 390.358C 287.5 387.712 285.847 386.39 284.192 386.39z"/>
				<path style="stroke:none; fill:#f09" d="M 286.453 393.335L 275.978 393.335C 277.764 396.23 281.216 398.959 281.216 398.959C 281.216 398.959 284.667 396.23 286.453 393.335z"/>
				<path style="stroke:none; fill:#f39" d="M 278.037 395.981C 279.62 397.696 281.216 398.959 281.216 398.959C 281.216 398.959 282.811 397.696 284.394 395.981L 278.037 395.981z"/>
				<path style="stroke:none; fill:#c09" d="M 285.75 386.814C 286.382 387.712 286.838 389.048 286.838 390.358C 286.838 392.889 283.091 396.532 281.216 398.099C 281.034 398.26 280.853 398.39 280.672 398.507C 281.007 398.793 281.216 398.959 281.216 398.959C 281.216 398.959 287.5 393.997 287.5 390.358C 287.5 388.575 286.748 387.396 285.75 386.814z"/>
				<path style="stroke:none; fill:#c06" d="M 286.838 390.358C 286.838 391.258 286.36 392.298 285.666 393.335L 286.453 393.335C 287.077 392.327 287.5 391.299 287.5 390.358C 287.5 390.244 287.488 390.137 287.481 390.027L 286.824 390.027C 286.832 390.137 286.838 390.249 286.838 390.358z"/>
				<path style="stroke:none; fill:none" d="M 286.838 390.358C 286.838 389.048 286.382 387.712 285.75 386.814C 285.271 386.532 284.731 386.39 284.192 386.39C 281.877 386.39 281.216 389.036 281.216 389.036C 281.216 389.036 280.555 386.39 278.239 386.39C 276.585 386.39 274.931 387.712 274.931 390.358C 274.931 393.342 279.149 397.208 280.672 398.507C 280.853 398.39 281.034 398.26 281.216 398.099C 283.091 396.532 286.838 392.889 286.838 390.358z"/>
				<path style="stroke:none; fill:#f03" d="M 281.216 389.036C 281.216 389.036 280.555 386.39 278.239 386.39C 276.657 386.39 275.078 387.605 274.944 390.027L 287.487 390.027C 287.353 387.605 285.775 386.39 284.192 386.39C 281.877 386.39 281.216 389.036 281.216 389.036z"/>
				<path style="stroke:#300; stroke-width:1; fill:none" d="M 284.192 386.39C 281.877 386.39 281.216 389.036 281.216 389.036C 281.216 389.036 280.555 386.39 278.239 386.39C 276.585 386.39 274.931 387.712 274.931 390.358C 274.931 393.997 281.216 398.959 281.216 398.959C 281.216 398.959 287.5 393.997 287.5 390.358C 287.5 387.712 285.847 386.39 284.192 386.39z"/>
				<path style="stroke:none; fill:#fff" d="M 279.206 388.377C 278.934 388.174 278.606 388.043 278.239 388.043C 277.325 388.043 276.585 388.783 276.585 389.696C 276.585 390.064 276.715 390.392 276.918 390.664C 276.932 389.405 277.946 388.39 279.206 388.377z"/>
			</g>
		</g>
		<g>
			<g>
				<path style="stroke:none; fill:#f06" d="M 282.5 390.39C 279 390.39 278 394.39 278 394.39C 278 394.39 277 390.39 273.5 390.39C 271 390.39 268.5 392.39 268.5 396.39C 268.5 401.89 278 409.39 278 409.39C 278 409.39 287.5 401.89 287.5 396.39C 287.5 392.39 285 390.39 282.5 390.39z"/>
				<path style="stroke:none; fill:#f09" d="M 285.918 400.89L 270.082 400.89C 272.782 405.264 278 409.39 278 409.39C 278 409.39 283.218 405.264 285.918 400.89z"/>
				<path style="stroke:none; fill:#f39" d="M 273.194 404.89C 275.588 407.483 278 409.39 278 409.39C 278 409.39 280.412 407.483 282.806 404.89L 273.194 404.89z"/>
				<path style="stroke:none; fill:#c09" d="M 284.856 391.031C 285.81 392.39 286.5 394.409 286.5 396.39C 286.5 400.214 280.835 405.723 278 408.089C 277.727 408.333 277.453 408.53 277.178 408.708C 277.684 409.139 278 409.39 278 409.39C 278 409.39 287.5 401.89 287.5 396.39C 287.5 393.694 286.363 391.91 284.856 391.031z"/>
				<path style="stroke:none; fill:#c06" d="M 286.5 396.39C 286.5 397.749 285.777 399.321 284.728 400.89L 285.918 400.89C 286.859 399.365 287.5 397.811 287.5 396.39C 287.5 396.216 287.482 396.056 287.473 395.89L 286.478 395.89C 286.488 396.056 286.5 396.223 286.5 396.39z"/>
				<path style="stroke:none; fill:none" d="M 286.5 396.39C 286.5 394.409 285.81 392.39 284.856 391.031C 284.128 390.606 283.315 390.39 282.5 390.39C 279 390.39 278 394.39 278 394.39C 278 394.39 277 390.39 273.5 390.39C 271 390.39 268.5 392.39 268.5 396.39C 268.5 400.899 274.877 406.745 277.178 408.708C 277.453 408.53 277.727 408.333 278 408.089C 280.835 405.723 286.5 400.214 286.5 396.39z"/>
				<path style="stroke:none; fill:#f03" d="M 278 394.39C 278 394.39 277 390.39 273.5 390.39C 271.107 390.39 268.721 392.227 268.52 395.89L 287.48 395.89C 287.279 392.227 284.893 390.39 282.5 390.39C 279 390.39 278 394.39 278 394.39z"/>
				<path style="stroke:#300; stroke-width:1; fill:none" d="M 282.5 390.39C 279 390.39 278 394.39 278 394.39C 278 394.39 277 390.39 273.5 390.39C 271 390.39 268.5 392.39 268.5 396.39C 268.5 401.89 278 409.39 278 409.39C 278 409.39 287.5 401.89 287.5 396.39C 287.5 392.39 285 390.39 282.5 390.39z"/>
				<path style="stroke:none; fill:#fff" d="M 274.962 393.394C 274.55 393.087 274.054 392.89 273.5 392.89C 272.119 392.89 271 394.009 271 395.39C 271 395.944 271.197 396.44 271.504 396.852C 271.524 394.949 273.06 393.414 274.962 393.394z"/>
			</g>
			<g>
				<path style="stroke:none; fill:#f06" d="M 273.795 386.39C 271.479 386.39 270.818 389.036 270.818 389.036C 270.818 389.036 270.157 386.39 267.842 386.39C 266.188 386.39 264.533 387.712 264.533 390.358C 264.533 393.997 270.818 398.959 270.818 398.959C 270.818 398.959 277.103 393.997 277.103 390.358C 277.103 387.712 275.449 386.39 273.795 386.39z"/>
				<path style="stroke:none; fill:#f09" d="M 276.056 393.335L 265.58 393.335C 267.366 396.23 270.818 398.959 270.818 398.959C 270.818 398.959 274.27 396.23 276.056 393.335z"/>
				<path style="stroke:none; fill:#f39" d="M 267.64 395.981C 269.223 397.696 270.818 398.959 270.818 398.959C 270.818 398.959 272.414 397.696 273.996 395.981L 267.64 395.981z"/>
				<path style="stroke:none; fill:#c09" d="M 275.353 386.814C 275.984 387.712 276.44 389.048 276.44 390.358C 276.44 392.889 272.693 396.532 270.818 398.099C 270.637 398.26 270.456 398.39 270.274 398.507C 270.609 398.793 270.818 398.959 270.818 398.959C 270.818 398.959 277.103 393.997 277.103 390.358C 277.103 388.575 276.351 387.396 275.353 386.814z"/>
				<path style="stroke:none; fill:#c06" d="M 276.44 390.358C 276.44 391.258 275.963 392.298 275.269 393.335L 276.056 393.335C 276.68 392.327 277.103 391.299 277.103 390.358C 277.103 390.244 277.091 390.137 277.084 390.027L 276.427 390.027C 276.435 390.137 276.44 390.249 276.44 390.358z"/>
				<path style="stroke:none; fill:none" d="M 276.44 390.358C 276.44 389.048 275.984 387.712 275.353 386.814C 274.873 386.532 274.334 386.39 273.795 386.39C 271.479 386.39 270.818 389.036 270.818 389.036C 270.818 389.036 270.157 386.39 267.842 386.39C 266.188 386.39 264.533 387.712 264.533 390.358C 264.533 393.342 268.752 397.208 270.274 398.507C 270.456 398.39 270.637 398.26 270.818 398.099C 272.693 396.532 276.44 392.889 276.44 390.358z"/>
				<path style="stroke:none; fill:#f03" d="M 270.818 389.036C 270.818 389.036 270.157 386.39 267.842 386.39C 266.26 386.39 264.681 387.605 264.547 390.027L 277.09 390.027C 276.956 387.605 275.378 386.39 273.795 386.39C 271.479 386.39 270.818 389.036 270.818 389.036z"/>
				<path style="stroke:#300; stroke-width:1; fill:none" d="M 273.795 386.39C 271.479 386.39 270.818 389.036 270.818 389.036C 270.818 389.036 270.157 386.39 267.842 386.39C 266.188 386.39 264.533 387.712 264.533 390.358C 264.533 393.997 270.818 398.959 270.818 398.959C 270.818 398.959 277.103 393.997 277.103 390.358C 277.103 387.712 275.449 386.39 273.795 386.39z"/>
				<path style="stroke:none; fill:#fff" d="M 268.809 388.377C 268.536 388.174 268.209 388.043 267.842 388.043C 266.928 388.043 266.188 388.783 266.188 389.696C 266.188 390.064 266.317 390.392 266.521 390.664C 266.534 389.405 267.549 388.39 268.809 388.377z"/>
			</g>
		</g>
		<g>
			<g>
				<path style="stroke:none; fill:#f06" d="M 278.5 390.39C 275 390.39 274 394.39 274 394.39C 274 394.39 273 390.39 269.5 390.39C 267 390.39 264.5 392.39 264.5 396.39C 264.5 401.89 274 409.39 274 409.39C 274 409.39 283.5 401.89 283.5 396.39C 283.5 392.39 281 390.39 278.5 390.39z"/>
				<path style="stroke:none; fill:#f09" d="M 281.918 400.89L 266.082 400.89C 268.782 405.264 274 409.39 274 409.39C 274 409.39 279.218 405.264 281.918 400.89z"/>
				<path style="stroke:none; fill:#f39" d="M 269.194 404.89C 271.588 407.483 274 409.39 274 409.39C 274 409.39 276.412 407.483 278.806 404.89L 269.194 404.89z"/>
				<path style="stroke:none; fill:#c09" d="M 280.856 391.031C 281.81 392.39 282.5 394.409 282.5 396.39C 282.5 400.214 276.835 405.723 274 408.089C 273.727 408.333 273.453 408.53 273.178 408.708C 273.684 409.139 274 409.39 274 409.39C 274 409.39 283.5 401.89 283.5 396.39C 283.5 393.694 282.363 391.91 280.856 391.031z"/>
				<path style="stroke:none; fill:#c06" d="M 282.5 396.39C 282.5 397.749 281.777 399.321 280.728 400.89L 281.918 400.89C 282.859 399.365 283.5 397.811 283.5 396.39C 283.5 396.216 283.482 396.056 283.473 395.89L 282.478 395.89C 282.488 396.056 282.5 396.223 282.5 396.39z"/>
				<path style="stroke:none; fill:none" d="M 282.5 396.39C 282.5 394.409 281.81 392.39 280.856 391.031C 280.128 390.606 279.315 390.39 278.5 390.39C 275 390.39 274 394.39 274 394.39C 274 394.39 273 390.39 269.5 390.39C 267 390.39 264.5 392.39 264.5 396.39C 264.5 400.899 270.877 406.745 273.178 408.708C 273.453 408.53 273.727 408.333 274 408.089C 276.835 405.723 282.5 400.214 282.5 396.39z"/>
				<path style="stroke:none; fill:#f03" d="M 274 394.39C 274 394.39 273 390.39 269.5 390.39C 267.107 390.39 264.721 392.227 264.52 395.89L 283.48 395.89C 283.279 392.227 280.893 390.39 278.5 390.39C 275 390.39 274 394.39 274 394.39z"/>
				<path style="stroke:#300; stroke-width:1; fill:none" d="M 278.5 390.39C 275 390.39 274 394.39 274 394.39C 274 394.39 273 390.39 269.5 390.39C 267 390.39 264.5 392.39 264.5 396.39C 264.5 401.89 274 409.39 274 409.39C 274 409.39 283.5 401.89 283.5 396.39C 283.5 392.39 281 390.39 278.5 390.39z"/>
				<path style="stroke:none; fill:#fff" d="M 270.962 393.394C 270.55 393.087 270.054 392.89 269.5 392.89C 268.119 392.89 267 394.009 267 395.39C 267 395.944 267.197 396.44 267.504 396.852C 267.524 394.949 269.06 393.414 270.962 393.394z"/>
			</g>
			<g>
				<path style="stroke:none; fill:#f06" d="M 284.192 386.39C 281.877 386.39 281.216 389.036 281.216 389.036C 281.216 389.036 280.555 386.39 278.239 386.39C 276.585 386.39 274.931 387.712 274.931 390.358C 274.931 393.997 281.216 398.959 281.216 398.959C 281.216 398.959 287.5 393.997 287.5 390.358C 287.5 387.712 285.847 386.39 284.192 386.39z"/>
				<path style="stroke:none; fill:#f09" d="M 286.453 393.335L 275.978 393.335C 277.764 396.23 281.216 398.959 281.216 398.959C 281.216 398.959 284.667 396.23 286.453 393.335z"/>
				<path style="stroke:none; fill:#f39" d="M 278.037 395.981C 279.62 397.696 281.216 398.959 281.216 398.959C 281.216 398.959 282.811 397.696 284.394 395.981L 278.037 395.981z"/>
				<path style="stroke:none; fill:#c09" d="M 285.75 386.814C 286.382 387.712 286.838 389.048 286.838 390.358C 286.838 392.889 283.091 396.532 281.216 398.099C 281.034 398.26 280.853 398.39 280.672 398.507C 281.007 398.793 281.216 398.959 281.216 398.959C 281.216 398.959 287.5 393.997 287.5 390.358C 287.5 388.575 286.748 387.396 285.75 386.814z"/>
				<path style="stroke:none; fill:#c06" d="M 286.838 390.358C 286.838 391.258 286.36 392.298 285.666 393.335L 286.453 393.335C 287.077 392.327 287.5 391.299 287.5 390.358C 287.5 390.244 287.488 390.137 287.481 390.027L 286.824 390.027C 286.832 390.137 286.838 390.249 286.838 390.358z"/>
				<path style="stroke:none; fill:none" d="M 286.838 390.358C 286.838 389.048 286.382 387.712 285.75 386.814C 285.271 386.532 284.731 386.39 284.192 386.39C 281.877 386.39 281.216 389.036 281.216 389.036C 281.216 389.036 280.555 386.39 278.239 386.39C 276.585 386.39 274.931 387.712 274.931 390.358C 274.931 393.342 279.149 397.208 280.672 398.507C 280.853 398.39 281.034 398.26 281.216 398.099C 283.091 396.532 286.838 392.889 286.838 390.358z"/>
				<path style="stroke:none; fill:#f03" d="M 281.216 389.036C 281.216 389.036 280.555 386.39 278.239 386.39C 276.657 386.39 275.078 387.605 274.944 390.027L 287.487 390.027C 287.353 387.605 285.775 386.39 284.192 386.39C 281.877 386.39 281.216 389.036 281.216 389.036z"/>
				<path style="stroke:#300; stroke-width:1; fill:none" d="M 284.192 386.39C 281.877 386.39 281.216 389.036 281.216 389.036C 281.216 389.036 280.555 386.39 278.239 386.39C 276.585 386.39 274.931 387.712 274.931 390.358C 274.931 393.997 281.216 398.959 281.216 398.959C 281.216 398.959 287.5 393.997 287.5 390.358C 287.5 387.712 285.847 386.39 284.192 386.39z"/>
				<path style="stroke:none; fill:#fff" d="M 279.206 388.377C 278.934 388.174 278.606 388.043 278.239 388.043C 277.325 388.043 276.585 388.783 276.585 389.696C 276.585 390.064 276.715 390.392 276.918 390.664C 276.932 389.405 277.946 388.39 279.206 388.377z"/>
			</g>
		</g>
		<g>
			<g>
				<path style="stroke:none; fill:#f06" d="M 282.5 390.39C 279 390.39 278 394.39 278 394.39C 278 394.39 277 390.39 273.5 390.39C 271 390.39 268.5 392.39 268.5 396.39C 268.5 401.89 278 409.39 278 409.39C 278 409.39 287.5 401.89 287.5 396.39C 287.5 392.39 285 390.39 282.5 390.39z"/>
				<path style="stroke:none; fill:#f09" d="M 285.918 400.89L 270.082 400.89C 272.782 405.264 278 409.39 278 409.39C 278 409.39 283.218 405.264 285.918 400.89z"/>
				<path style="stroke:none; fill:#f39" d="M 273.194 404.89C 275.588 407.483 278 409.39 278 409.39C 278 409.39 280.412 407.483 282.806 404.89L 273.194 404.89z"/>
				<path style="stroke:none; fill:#c09" d="M 284.856 391.031C 285.81 392.39 286.5 394.409 286.5 396.39C 286.5 400.214 280.835 405.723 278 408.089C 277.727 408.333 277.453 408.53 277.178 408.708C 277.684 409.139 278 409.39 278 409.39C 278 409.39 287.5 401.89 287.5 396.39C 287.5 393.694 286.363 391.91 284.856 391.031z"/>
				<path style="stroke:none; fill:#c06" d="M 286.5 396.39C 286.5 397.749 285.777 399.321 284.728 400.89L 285.918 400.89C 286.859 399.365 287.5 397.811 287.5 396.39C 287.5 396.216 287.482 396.056 287.473 395.89L 286.478 395.89C 286.488 396.056 286.5 396.223 286.5 396.39z"/>
				<path style="stroke:none; fill:none" d="M 286.5 396.39C 286.5 394.409 285.81 392.39 284.856 391.031C 284.128 390.606 283.315 390.39 282.5 390.39C 279 390.39 278 394.39 278 394.39C 278 394.39 277 390.39 273.5 390.39C 271 390.39 268.5 392.39 268.5 396.39C 268.5 400.899 274.877 406.745 277.178 408.708C 277.453 408.53 277.727 408.333 278 408.089C 280.835 405.723 286.5 400.214 286.5 396.39z"/>
				<path style="stroke:none; fill:#f03" d="M 278 394.39C 278 394.39 277 390.39 273.5 390.39C 271.107 390.39 268.721 392.227 268.52 395.89L 287.48 395.89C 287.279 392.227 284.893 390.39 282.5 390.39C 279 390.39 278 394.39 278 394.39z"/>
				<path style="stroke:#300; stroke-width:1; fill:none" d="M 282.5 390.39C 279 390.39 278 394.39 278 394.39C 278 394.39 277 390.39 273.5 390.39C 271 390.39 268.5 392.39 268.5 396.39C 268.5 401.89 278 409.39 278 409.39C 278 409.39 287.5 401.89 287.5 396.39C 287.5 392.39 285 390.39 282.5 390.39z"/>
				<path style="stroke:none; fill:#fff" d="M 274.962 393.394C 274.55 393.087 274.054 392.89 273.5 392.89C 272.119 392.89 271 394.009 271 395.39C 271 395.944 271.197 396.44 271.504 396.852C 271.524 394.949 273.06 393.414 274.962 393.394z"/>
			</g>
			<g>
				<path style="stroke:none; fill:#f06" d="M 273.795 386.39C 271.479 386.39 270.818 389.036 270.818 389.036C 270.818 389.036 270.157 386.39 267.842 386.39C 266.188 386.39 264.533 387.712 264.533 390.358C 264.533 393.997 270.818 398.959 270.818 398.959C 270.818 398.959 277.103 393.997 277.103 390.358C 277.103 387.712 275.449 386.39 273.795 386.39z"/>
				<path style="stroke:none; fill:#f09" d="M 276.056 393.335L 265.58 393.335C 267.366 396.23 270.818 398.959 270.818 398.959C 270.818 398.959 274.27 396.23 276.056 393.335z"/>
				<path style="stroke:none; fill:#f39" d="M 267.64 395.981C 269.223 397.696 270.818 398.959 270.818 398.959C 270.818 398.959 272.414 397.696 273.996 395.981L 267.64 395.981z"/>
				<path style="stroke:none; fill:#c09" d="M 275.353 386.814C 275.984 387.712 276.44 389.048 276.44 390.358C 276.44 392.889 272.693 396.532 270.818 398.099C 270.637 398.26 270.456 398.39 270.274 398.507C 270.609 398.793 270.818 398.959 270.818 398.959C 270.818 398.959 277.103 393.997 277.103 390.358C 277.103 388.575 276.351 387.396 275.353 386.814z"/>
				<path style="stroke:none; fill:#c06" d="M 276.44 390.358C 276.44 391.258 275.963 392.298 275.269 393.335L 276.056 393.335C 276.68 392.327 277.103 391.299 277.103 390.358C 277.103 390.244 277.091 390.137 277.084 390.027L 276.427 390.027C 276.435 390.137 276.44 390.249 276.44 390.358z"/>
				<path style="stroke:none; fill:none" d="M 276.44 390.358C 276.44 389.048 275.984 387.712 275.353 386.814C 274.873 386.532 274.334 386.39 273.795 386.39C 271.479 386.39 270.818 389.036 270.818 389.036C 270.818 389.036 270.157 386.39 267.842 386.39C 266.188 386.39 264.533 387.712 264.533 390.358C 264.533 393.342 268.752 397.208 270.274 398.507C 270.456 398.39 270.637 398.26 270.818 398.099C 272.693 396.532 276.44 392.889 276.44 390.358z"/>
				<path style="stroke:none; fill:#f03" d="M 270.818 389.036C 270.818 389.036 270.157 386.39 267.842 386.39C 266.26 386.39 264.681 387.605 264.547 390.027L 277.09 390.027C 276.956 387.605 275.378 386.39 273.795 386.39C 271.479 386.39 270.818 389.036 270.818 389.036z"/>
				<path style="stroke:#300; stroke-width:1; fill:none" d="M 273.795 386.39C 271.479 386.39 270.818 389.036 270.818 389.036C 270.818 389.036 270.157 386.39 267.842 386.39C 266.188 386.39 264.533 387.712 264.533 390.358C 264.533 393.997 270.818 398.959 270.818 398.959C 270.818 398.959 277.103 393.997 277.103 390.358C 277.103 387.712 275.449 386.39 273.795 386.39z"/>
				<path style="stroke:none; fill:#fff" d="M 268.809 388.377C 268.536 388.174 268.209 388.043 267.842 388.043C 266.928 388.043 266.188 388.783 266.188 389.696C 266.188 390.064 266.317 390.392 266.521 390.664C 266.534 389.405 267.549 388.39 268.809 388.377z"/>
			</g>
		</g>
		<g>
			<g>
				<path style="stroke:none; fill:#f06" d="M 278.5 390.39C 275 390.39 274 394.39 274 394.39C 274 394.39 273 390.39 269.5 390.39C 267 390.39 264.5 392.39 264.5 396.39C 264.5 401.89 274 409.39 274 409.39C 274 409.39 283.5 401.89 283.5 396.39C 283.5 392.39 281 390.39 278.5 390.39z"/>
				<path style="stroke:none; fill:#f09" d="M 281.918 400.89L 266.082 400.89C 268.782 405.264 274 409.39 274 409.39C 274 409.39 279.218 405.264 281.918 400.89z"/>
				<path style="stroke:none; fill:#f39" d="M 269.194 404.89C 271.588 407.483 274 409.39 274 409.39C 274 409.39 276.412 407.483 278.806 404.89L 269.194 404.89z"/>
				<path style="stroke:none; fill:#c09" d="M 280.856 391.031C 281.81 392.39 282.5 394.409 282.5 396.39C 282.5 400.214 276.835 405.723 274 408.089C 273.727 408.333 273.453 408.53 273.178 408.708C 273.684 409.139 274 409.39 274 409.39C 274 409.39 283.5 401.89 283.5 396.39C 283.5 393.694 282.363 391.91 280.856 391.031z"/>
				<path style="stroke:none; fill:#c06" d="M 282.5 396.39C 282.5 397.749 281.777 399.321 280.728 400.89L 281.918 400.89C 282.859 399.365 283.5 397.811 283.5 396.39C 283.5 396.216 283.482 396.056 283.473 395.89L 282.478 395.89C 282.488 396.056 282.5 396.223 282.5 396.39z"/>
				<path style="stroke:none; fill:none" d="M 282.5 396.39C 282.5 394.409 281.81 392.39 280.856 391.031C 280.128 390.606 279.315 390.39 278.5 390.39C 275 390.39 274 394.39 274 394.39C 274 394.39 273 390.39 269.5 390.39C 267 390.39 264.5 392.39 264.5 396.39C 264.5 400.899 270.877 406.745 273.178 408.708C 273.453 408.53 273.727 408.333 274 408.089C 276.835 405.723 282.5 400.214 282.5 396.39z"/>
				<path style="stroke:none; fill:#f03" d="M 274 394.39C 274 394.39 273 390.39 269.5 390.39C 267.107 390.39 264.721 392.227 264.52 395.89L 283.48 395.89C 283.279 392.227 280.893 390.39 278.5 390.39C 275 390.39 274 394.39 274 394.39z"/>
				<path style="stroke:#300; stroke-width:1; fill:none" d="M 278.5 390.39C 275 390.39 274 394.39 274 394.39C 274 394.39 273 390.39 269.5 390.39C 267 390.39 264.5 392.39 264.5 396.39C 264.5 401.89 274 409.39 274 409.39C 274 409.39 283.5 401.89 283.5 396.39C 283.5 392.39 281 390.39 278.5 390.39z"/>
				<path style="stroke:none; fill:#fff" d="M 270.962 393.394C 270.55 393.087 270.054 392.89 269.5 392.89C 268.119 392.89 267 394.009 267 395.39C 267 395.944 267.197 396.44 267.504 396.852C 267.524 394.949 269.06 393.414 270.962 393.394z"/>
			</g>
			<g>
				<path style="stroke:none; fill:#f06" d="M 284.192 386.39C 281.877 386.39 281.216 389.036 281.216 389.036C 281.216 389.036 280.555 386.39 278.239 386.39C 276.585 386.39 274.931 387.712 274.931 390.358C 274.931 393.997 281.216 398.959 281.216 398.959C 281.216 398.959 287.5 393.997 287.5 390.358C 287.5 387.712 285.847 386.39 284.192 386.39z"/>
				<path style="stroke:none; fill:#f09" d="M 286.453 393.335L 275.978 393.335C 277.764 396.23 281.216 398.959 281.216 398.959C 281.216 398.959 284.667 396.23 286.453 393.335z"/>
				<path style="stroke:none; fill:#f39" d="M 278.037 395.981C 279.62 397.696 281.216 398.959 281.216 398.959C 281.216 398.959 282.811 397.696 284.394 395.981L 278.037 395.981z"/>
				<path style="stroke:none; fill:#c09" d="M 285.75 386.814C 286.382 387.712 286.838 389.048 286.838 390.358C 286.838 392.889 283.091 396.532 281.216 398.099C 281.034 398.26 280.853 398.39 280.672 398.507C 281.007 398.793 281.216 398.959 281.216 398.959C 281.216 398.959 287.5 393.997 287.5 390.358C 287.5 388.575 286.748 387.396 285.75 386.814z"/>
				<path style="stroke:none; fill:#c06" d="M 286.838 390.358C 286.838 391.258 286.36 392.298 285.666 393.335L 286.453 393.335C 287.077 392.327 287.5 391.299 287.5 390.358C 287.5 390.244 287.488 390.137 287.481 390.027L 286.824 390.027C 286.832 390.137 286.838 390.249 286.838 390.358z"/>
				<path style="stroke:none; fill:none" d="M 286.838 390.358C 286.838 389.048 286.382 387.712 285.75 386.814C 285.271 386.532 284.731 386.39 284.192 386.39C 281.877 386.39 281.216 389.036 281.216 389.036C 281.216 389.036 280.555 386.39 278.239 386.39C 276.585 386.39 274.931 387.712 274.931 390.358C 274.931 393.342 279.149 397.208 280.672 398.507C 280.853 398.39 281.034 398.26 281.216 398.099C 283.091 396.532 286.838 392.889 286.838 390.358z"/>
				<path style="stroke:none; fill:#f03" d="M 281.216 389.036C 281.216 389.036 280.555 386.39 278.239 386.39C 276.657 386.39 275.078 387.605 274.944 390.027L 287.487 390.027C 287.353 387.605 285.775 386.39 284.192 386.39C 281.877 386.39 281.216 389.036 281.216 389.036z"/>
				<path style="stroke:#300; stroke-width:1; fill:none" d="M 284.192 386.39C 281.877 386.39 281.216 389.036 281.216 389.036C 281.216 389.036 280.555 386.39 278.239 386.39C 276.585 386.39 274.931 387.712 274.931 390.358C 274.931 393.997 281.216 398.959 281.216 398.959C 281.216 398.959 287.5 393.997 287.5 390.358C 287.5 387.712 285.847 386.39 284.192 386.39z"/>
				<path style="stroke:none; fill:#fff" d="M 279.206 388.377C 278.934 388.174 278.606 388.043 278.239 388.043C 277.325 388.043 276.585 388.783 276.585 389.696C 276.585 390.064 276.715 390.392 276.918 390.664C 276.932 389.405 277.946 388.39 279.206 388.377z"/>
			</g>
		</g>
		<g>
			<g>
				<path style="stroke:none; fill:#f06" d="M 282.5 390.39C 279 390.39 278 394.39 278 394.39C 278 394.39 277 390.39 273.5 390.39C 271 390.39 268.5 392.39 268.5 396.39C 268.5 401.89 278 409.39 278 409.39C 278 409.39 287.5 401.89 287.5 396.39C 287.5 392.39 285 390.39 282.5 390.39z"/>
				<path style="stroke:none; fill:#f09" d="M 285.918 400.89L 270.082 400.89C 272.782 405.264 278 409.39 278 409.39C 278 409.39 283.218 405.264 285.918 400.89z"/>
				<path style="stroke:none; fill:#f39" d="M 273.194 404.89C 275.588 407.483 278 409.39 278 409.39C 278 409.39 280.412 407.483 282.806 404.89L 273.194 404.89z"/>
				<path style="stroke:none; fill:#c09" d="M 284.856 391.031C 285.81 392.39 286.5 394.409 286.5 396.39C 286.5 400.214 280.835 405.723 278 408.089C 277.727 408.333 277.453 408.53 277.178 408.708C 277.684 409.139 278 409.39 278 409.39C 278 409.39 287.5 401.89 287.5 396.39C 287.5 393.694 286.363 391.91 284.856 391.031z"/>
				<path style="stroke:none; fill:#c06" d="M 286.5 396.39C 286.5 397.749 285.777 399.321 284.728 400.89L 285.918 400.89C 286.859 399.365 287.5 397.811 287.5 396.39C 287.5 396.216 287.482 396.056 287.473 395.89L 286.478 395.89C 286.488 396.056 286.5 396.223 286.5 396.39z"/>
				<path style="stroke:none; fill:none" d="M 286.5 396.39C 286.5 394.409 285.81 392.39 284.856 391.031C 284.128 390.606 283.315 390.39 282.5 390.39C 279 390.39 278 394.39 278 394.39C 278 394.39 277 390.39 273.5 390.39C 271 390.39 268.5 392.39 268.5 396.39C 268.5 400.899 274.877 406.745 277.178 408.708C 277.453 408.53 277.727 408.333 278 408.089C 280.835 405.723 286.5 400.214 286.5 396.39z"/>
				<path style="stroke:none; fill:#f03" d="M 278 394.39C 278 394.39 277 390.39 273.5 390.39C 271.107 390.39 268.721 392.227 268.52 395.89L 287.48 395.89C 287.279 392.227 284.893 390.39 282.5 390.39C 279 390.39 278 394.39 278 394.39z"/>
				<path style="stroke:#300; stroke-width:1; fill:none" d="M 282.5 390.39C 279 390.39 278 394.39 278 394.39C 278 394.39 277 390.39 273.5 390.39C 271 390.39 268.5 392.39 268.5 396.39C 268.5 401.89 278 409.39 278 409.39C 278 409.39 287.5 401.89 287.5 396.39C 287.5 392.39 285 390.39 282.5 390.39z"/>
				<path style="stroke:none; fill:#fff" d="M 274.962 393.394C 274.55 393.087 274.054 392.89 273.5 392.89C 272.119 392.89 271 394.009 271 395.39C 271 395.944 271.197 396.44 271.504 396.852C 271.524 394.949 273.06 393.414 274.962 393.394z"/>
			</g>
		</g>
	</g>
</svg>
