<svg xmlns="http://www.w3.org/2000/svg" width="24" height="24">
	<g transform="translate(-264,-386)" id="KDDI_D_329">
		<g>
			<path style="stroke:none; fill:none" d="M 288 409.89L 264 409.89L 264 385.89L 288 385.89L 288 409.89z"/>
		</g>
		<g>
			<path style="stroke:none; fill:#fc6" d="M 286 407.89C 285.5 407.39 283.5 405.39 283.5 402.89C 283.5 400.39 288 399.89 288 399.89C 288 399.89 283.5 399.89 283.5 396.89C 283.5 393.39 288 392.39 288 392.39C 288 392.39 284 392.89 282.5 391.39C 281 389.89 281.5 385.89 281.5 385.89C 281.5 385.89 280 390.39 277 390.39C 274 390.39 274 386.39 274 385.89C 274 385.89 273.5 387.39 272 387.39C 270.5 387.39 268 385.89 268 385.89C 268 385.89 270.5 387.39 270.5 389.89C 270.5 392.39 265.5 395.89 264 395.89C 264 395.89 268.5 397.89 268.5 400.39C 268.5 402.89 264 405.39 264 405.39C 264 405.39 272.5 404.39 272.5 409.89C 272.5 409.89 274 405.39 277 405.39C 280 405.39 281.5 409.89 281.5 409.89C 281.5 409.89 281.029 407.37 282.5 406.39C 284 405.39 286 407.89 286 407.89z"/>
			<path style="stroke:none; fill:#f00" d="M 268 385.89C 268.023 385.903 270 387.711 270 389.89C 270 392.099 264 395.89 264 395.89C 265.169 396.41 268 398.609 268 400.39C 268 402.196 265.18 404.733 264 405.39C 264 405.39 268.736 405.366 270.906 407.297C 271.642 407.953 272.5 408.801 272.5 409.89C 272.5 409.89 274.398 405.89 277 405.89C 279.602 405.89 281.486 409.848 281.5 409.89C 281.5 409.89 281 404.89 277 404.89C 274.851 404.89 273.439 406.823 272.685 408.249C 272.449 407.605 272.102 407.023 271.569 406.549C 269.992 405.147 267.486 404.854 265.775 404.828C 267.167 403.811 269 402.143 269 400.39C 269 398.417 266.918 396.699 265.5 395.89C 267.76 394.898 271 392.129 271 389.89C 271 386.89 268 385.89 268 385.89z"/>
			<path style="stroke:none; fill:#f00" d="M 277 389.89C 274.744 389.89 274 387.092 274 385.89C 274 385.89 273 390.89 277 390.89C 278.849 390.89 280.142 389.456 280.952 388.146C 281.025 389.419 281.298 390.895 282.147 391.743C 282.927 392.525 284.249 392.825 285.446 392.925C 284.223 393.68 283 394.92 283 396.89C 283 398.593 284.24 399.522 285.596 399.986C 284.318 400.48 283 401.352 283 402.89C 283 406.39 286 407.89 286 407.89C 284.055 405.944 284 403.936 284 402.89C 284 400.899 287.96 399.894 288 399.89C 288 399.89 284 399.353 284 396.89C 284 393.837 287.959 392.399 288 392.39C 288 392.39 283.94 392.123 282.853 391.036C 281.768 389.95 281.37 386.998 281.5 385.952C 281.5 385.952 279.602 389.89 277 389.89z"/>
		</g>
	</g>
</svg>
