<svg xmlns="http://www.w3.org/2000/svg" width="24" height="24">
	<g transform="translate(-264,-386)" id="KDDI_D_330">
		<g>
			<path style="stroke:none; fill:none" d="M 288 409.89L 264 409.89L 264 385.89L 288 385.89L 288 409.89z"/>
		</g>
		<g>
			<path style="stroke:none; fill:#3cf" d="M 264 409.89C 264 409.89 265.849 407.06 268.344 404.845C 270.694 402.758 274.02 401.052 276.002 401.911C 276.705 402.216 278.5 403.89 277 405.39C 275 401.39 264 409.89 264 409.89z"/>
			<path style="stroke:none; fill:#06c" d="M 275.775 400.969C 273.21 400.493 269.765 402.946 268.092 404.619C 265.175 407.536 264.08 409.778 264 409.89C 264 409.89 265.929 407.208 268.424 404.993C 271.607 402.167 275.885 400.624 277.049 403.34C 277.865 405.245 275.925 406.84 274.925 406.84C 277.925 406.84 278.353 404.795 278.353 404.229C 278.353 402.264 277.196 401.233 275.775 400.969z"/>
			<path style="stroke:none; fill:#3cf" d="M 273.5 394.89C 273.5 394.89 275.349 392.06 277.844 389.845C 280.194 387.758 283.52 386.052 285.502 386.911C 286.205 387.216 288 388.89 286.5 390.39C 284.5 386.39 273.5 394.89 273.5 394.89z"/>
			<path style="stroke:none; fill:#06c" d="M 285.275 385.969C 282.71 385.493 279.265 387.946 277.592 389.619C 274.675 392.536 273.58 394.778 273.5 394.89C 273.5 394.89 275.429 392.208 277.924 389.993C 281.107 387.167 285.385 385.624 286.549 388.34C 287.365 390.245 285.425 391.84 284.425 391.84C 287.425 391.84 287.853 389.795 287.853 389.229C 287.853 387.264 286.696 386.233 285.275 385.969z"/>
		</g>
	</g>
</svg>
