<svg xmlns="http://www.w3.org/2000/svg" width="24" height="24">
	<g transform="translate(-264,-386)" id="KDDI_D_332">
		<g>
			<path style="stroke:none; fill:none" d="M 288 409.89L 264 409.89L 264 385.89L 288 385.89L 288 409.89z"/>
		</g>
		<g>
			<path style="stroke:none; fill:#03f" d="M 288 397.89C 288 404.517 282.627 409.89 276 409.89C 269.373 409.89 264 404.517 264 397.89C 264 391.262 269.373 385.89 276 385.89C 282.627 385.89 288 391.262 288 397.89z"/>
			<path style="stroke:none; fill:#06f" d="M 276 385.89C 269.373 385.89 264 391.262 264 397.89C 264 400.821 265.054 403.505 266.801 405.589C 268.885 407.336 271.568 408.39 274.5 408.39C 281.127 408.39 286.5 403.017 286.5 396.39C 286.5 393.458 285.446 390.775 283.699 388.691C 281.615 386.944 278.932 385.89 276 385.89z"/>
			<path style="stroke:none; fill:#030" d="M 277.906 404.39C 276.927 404.39 276.125 404.812 276.125 405.327C 276.125 405.843 275.647 406.265 275.062 406.265C 274.478 406.265 274 406.602 274 407.015C 274 407.427 274.506 407.765 275.125 407.765C 275.744 407.765 276.25 408.187 276.25 408.702C 276.25 409.218 276.995 409.64 277.906 409.64C 278.817 409.64 279.562 409.288 279.562 408.858C 279.562 408.429 279.956 408.077 280.438 408.077C 280.919 408.077 281.312 407.655 281.312 407.14C 281.312 406.624 280.947 406.202 280.5 406.202C 280.053 406.202 279.688 405.795 279.688 405.296C 279.688 404.797 278.886 404.39 277.906 404.39z"/>
			<path style="stroke:none; fill:#39f" d="M 276 385.89C 269.373 385.89 264 391.262 264 397.89C 264 400.437 264.799 402.795 266.152 404.737C 268.095 406.09 270.453 406.89 273 406.89C 279.627 406.89 285 401.517 285 394.89C 285 392.342 284.201 389.985 282.848 388.042C 280.905 386.689 278.547 385.89 276 385.89z"/>
			<path style="stroke:none; fill:#9cf" d="M 275.536 397.425C 273.192 399.769 269.71 400.085 267.757 398.132C 265.805 396.18 266.121 392.697 268.464 390.355C 270.807 388.012 274.29 387.695 276.242 389.648C 278.195 391.6 277.878 395.082 275.536 397.425z"/>
			<path style="stroke:none; fill:#060" d="M 273.125 404.376C 273.125 404.652 272.901 404.876 272.625 404.876C 272.349 404.876 272.125 404.652 272.125 404.376C 272.125 404.1 272.349 403.876 272.625 403.876C 272.901 403.876 273.125 404.1 273.125 404.376z"/>
			<g>
				<path style="stroke:none; fill:#030" d="M 285 391.89L 285 393.39C 285 394.49 285.45 395.39 286 395.39C 286.55 395.39 287 396.29 287 397.39C 287 398.421 287.397 399.266 287.899 399.369C 287.96 398.883 288 398.392 288 397.89C 288 394.106 286.244 390.735 283.507 388.536C 283.545 389.292 283.862 389.89 284.25 389.89C 284.663 389.89 285 390.79 285 391.89z"/>
				<path style="stroke:none; fill:#030" d="M 287.25 401.251C 286.7 401.251 286.25 401.62 286.25 402.07C 286.25 402.521 285.913 402.89 285.5 402.89C 285.087 402.89 284.75 403.79 284.75 404.89L 284.75 405.89C 284.75 405.949 284.763 406.006 284.768 406.064C 286.04 404.699 286.999 403.042 287.527 401.198C 287.438 401.223 287.348 401.251 287.25 401.251z"/>
			</g>
			<path style="stroke:none; fill:#060" d="M 283.56 388.584C 283.543 388.57 283.525 388.558 283.508 388.544C 283.548 389.296 283.864 389.89 284.25 389.89C 284.663 389.89 285 390.79 285 391.89L 285 393.39C 285 394.49 285.45 395.39 286 395.39C 286.169 395.39 286.326 395.483 286.466 395.632C 286.303 393.024 285.311 390.642 283.744 388.748C 283.681 388.695 283.624 388.635 283.56 388.584z"/>
			<path style="stroke:none; fill:#060" d="M 280.5 406.202C 280.053 406.202 279.688 405.795 279.688 405.296C 279.688 404.797 278.886 404.39 277.906 404.39C 276.927 404.39 276.125 404.812 276.125 405.327C 276.125 405.843 275.647 406.265 275.062 406.265C 274.478 406.265 274 406.602 274 407.015C 274 407.427 274.506 407.765 275.125 407.765C 275.554 407.765 275.916 407.974 276.106 408.27C 277.906 408.028 279.579 407.394 281.034 406.447C 280.891 406.299 280.706 406.202 280.5 406.202z"/>
			<path style="stroke:none; fill:#060" d="M 278 386.069L 278 386.39C 278 387.49 277.1 388.39 276 388.39L 275 388.39C 273.9 388.39 273 388.727 273 389.14C 273 389.552 272.1 389.89 271 389.89C 269.9 389.89 269 390.34 269 390.89C 269 391.44 268.212 391.89 267.25 391.89C 266.288 391.89 265.288 392.552 265.288 393.102C 265.288 394.064 267.5 393.626 267.5 394.89C 267.5 395.44 265.6 395.89 264.5 395.89L 264.18 395.89C 264.07 396.542 264 397.207 264 397.89C 264 400.928 265.138 403.694 267 405.809L 267 404.89C 267 403.79 266.663 403.189 266.25 403.189C 265.562 403.189 265.5 402.552 265.5 402.14C 265.5 401.727 266.475 401.827 267.438 401.827C 268.4 401.827 269.188 401.377 269.188 400.827C 269.188 400.277 269.638 399.827 270.188 399.827C 270.662 399.827 271.143 400.181 271.875 399.564C 272.51 399.029 273.177 397.14 274 396.39C 275.114 395.373 276.7 394.23 277.5 393.39C 278.302 392.549 277.5 391.89 278.25 391.89C 279.212 391.89 280 390.99 280 389.89L 280 386.587C 279.356 386.359 278.689 386.186 278 386.069z"/>
			<path style="stroke:none; fill:#060" d="M 278.5 394.89C 278.5 395.166 278.276 395.39 278 395.39C 277.724 395.39 277.5 395.166 277.5 394.89C 277.5 394.613 277.724 394.39 278 394.39C 278.276 394.39 278.5 394.613 278.5 394.89z"/>
			<path style="stroke:none; fill:#060" d="M 275 398.89C 275 399.166 274.776 399.39 274.5 399.39C 274.224 399.39 274 399.166 274 398.89C 274 398.613 274.224 398.39 274.5 398.39C 274.776 398.39 275 398.613 275 398.89z"/>
			<path style="stroke:none; fill:#060" d="M 277.5 395.89C 277.006 395.815 277.435 396.276 276.5 396.89C 275.188 397.751 274.688 398.064 275.062 398.126C 275.438 398.189 276.25 397.876 276.188 398.376C 276.125 398.876 276.688 399.376 276.875 398.501C 277.062 397.626 277.312 397.439 277.5 397.126C 277.688 396.814 278 395.966 277.5 395.89z"/>
			<path style="stroke:none; fill:#090" d="M 274.005 388.494C 273.408 388.624 273 388.863 273 389.14C 273 389.552 272.1 389.89 271 389.89C 269.9 389.89 269 390.34 269 390.89C 269 391.425 268.252 391.862 267.325 391.885C 266.949 392.552 266.7 393.247 266.582 393.947C 267.065 394.109 267.5 394.331 267.5 394.89C 267.5 395.146 267.082 395.378 266.531 395.555C 266.658 396.528 267.056 397.43 267.757 398.132C 268.88 399.255 270.51 399.604 272.137 399.272C 272.695 398.531 273.29 397.038 274 396.39C 275.114 395.373 276.699 394.231 277.5 393.39C 277.627 391.983 277.219 390.624 276.242 389.648C 275.624 389.029 274.845 388.665 274.005 388.494z"/>
			<path style="stroke:none; fill:#3c0" d="M 273.89 395.779C 272.202 397.466 269.988 397.988 268.944 396.944C 267.903 395.901 268.424 393.689 270.111 392.002C 271.798 390.315 274.012 389.793 275.054 390.834C 276.098 391.88 275.576 394.092 273.89 395.779z"/>
		</g>
	</g>
</svg>
