<svg xmlns="http://www.w3.org/2000/svg" height="32" width="32">
	<g transform="translate(-379,-398)" id="KDDI_D_333">
		<path d="M379.238 409.244s.134 4 .934 4.8l7.598 7.597v1.733s2.4.933 6.798.933c4.399 0 6.932-.933 6.932-.933v-1.733s6.665-6.798 7.464-7.598c.934-.8 1.067-4.799 1.067-4.799" fill="#c00"/>
		<path d="M409.897 408.978c0 2.532-6.931 4.665-15.329 4.665s-15.33-2.132-15.33-4.665 6.932-4.666 15.33-4.666 15.33 2.133 15.33 4.666z" fill="#fff"/>
		<path d="M394.701 407.378c-6.798 0-12.53 1.333-14.53 3.2 2.133 1.732 7.732 3.065 14.397 3.065 6.798 0 12.53-1.333 14.53-3.199-2.133-1.866-7.732-3.066-14.397-3.066z" fill="#fc6"/>
		<path d="M380.038 412.844s4.8 3.065 14.53 3.065 14.663-3.065 14.663-3.065" fill="none" stroke="#fc3" stroke-dasharray="1,2" stroke-width="1.333"/>
		<path d="M391.635 408.845s-5.065.666-5.065 1.6c0 .799 3.066 1.332 3.066 1.332M398.3 408.845s4.533.666 4.4 1.6c-.134.799-3.466 1.465-4.4.932" fill="none" stroke="#963" stroke-width=".9997499999999999"/>
		<path d="M390.969 408.445c-3.732-.267-5.332.8-5.865 1.466-.667.8.933 1.6 2.666 1.733" fill="none" stroke="#f93" stroke-width=".9997499999999999"/>
		<path d="M393.635 409.778s-4.399-.267-4.799.4c-.666.933.8 1.732 2.666 1.732M398.3 408.445s5.466.266 5.732 1.466c.267 1.066-.533 1.733-2.4 2.133-1.999.533-4.131 0-4.798-.533M396.434 409.511s4.132-.4 5.465 1.466" fill="none" stroke="#f93" stroke-width=".9997499999999999"/>
		<path d="M393.901 411.11c0 .8-.533 1.334-1.2 1.334-.666 0-1.332-.534-1.332-1.333 0-.667.666-1.2 1.333-1.2.666 0 1.2.533 1.2 1.2zM384.304 410.444c0 .4-.267.8-.667.8-.533 0-.8-.4-.8-.8 0-.533.267-.8.8-.8.4 0 .667.267.667.8zM406.698 410.178c0 .4-.4.8-.8.8s-.8-.4-.8-.8.4-.8.8-.8.8.4.8.8zM395.101 408.711c0 .4-.266.8-.8.8-.4 0-.8-.4-.8-.8s.4-.8.8-.8c.534 0 .8.4.8.8z" fill="#963"/>
		<path d="M396.034 412.044s-3.066-.667-2.266-1.6c.8-1.066 3.2-.533 4.133.133" fill="none" stroke="#f93" stroke-width=".9997499999999999"/>
		<path d="M379.238 409.244s.134 4 .934 4.8l7.598 7.597v1.733s2.4.933 6.798.933c4.399 0 6.932-.933 6.932-.933v-1.733s6.665-6.798 7.464-7.598c.934-.8 1.067-4.799 1.067-4.799" fill="none" stroke="#000" stroke-width="1.333"/>
		<path d="M409.897 408.978c0 2.532-6.931 4.665-15.329 4.665s-15.33-2.132-15.33-4.665 6.932-4.666 15.33-4.666 15.33 2.133 15.33 4.666zM410.564 393.648h-24.66M410.564 397.38h-24.66" fill="none" stroke="#000" stroke-width="1.333"/>
	</g>
</svg>
