<svg xmlns="http://www.w3.org/2000/svg" width="24" height="24">
	<g transform="translate(-288,-386)" id="KDDI_D_334">
		<g>
			<path style="stroke:none; fill:none" d="M 312 409.89L 288 409.89L 288 385.89L 312 385.89L 312 409.89z"/>
		</g>
		<g>
			<path style="stroke:none; fill:#ffcc00" d="M 288.008 408.89L 291 405.89L 294 408.89L 297 405.89L 300 408.89L 303 405.89L 306 408.89L 309 405.89L 312.007 408.89L 312.007 386.89L 309 389.89L 306 386.89L 303 389.89L 300 386.89L 296.999 389.891L 294.016 386.907L 291.023 389.9L 288.008 386.892L 288.008 408.89z"/>
			<g>
				<path style="stroke:none; fill:#ff0000" d="M 291.353 390.233C 291.353 390.233 293.45 388.137 294 387.587C 294.55 388.137 296.647 390.233 296.647 390.233C 296.842 390.429 297.158 390.429 297.353 390.233C 297.353 390.233 299.45 388.137 300 387.587C 300.55 388.137 302.647 390.233 302.647 390.233C 302.842 390.429 303.158 390.429 303.353 390.233C 303.353 390.233 305.45 388.137 306 387.587C 306.55 388.137 308.647 390.233 308.647 390.233C 308.842 390.429 309.158 390.429 309.353 390.233L 312 387.587L 312 386.38C 311.872 386.38 311.744 386.429 311.647 386.526C 311.647 386.526 309.55 388.623 309 389.173C 308.45 388.623 306.353 386.526 306.353 386.526C 306.158 386.331 305.842 386.331 305.647 386.526C 305.647 386.526 303.55 388.623 303 389.173C 302.45 388.623 300.353 386.526 300.353 386.526C 300.158 386.331 299.842 386.331 299.647 386.526C 299.647 386.526 297.55 388.623 297 389.173C 296.45 388.623 294.353 386.526 294.353 386.526C 294.158 386.331 293.842 386.331 293.647 386.526C 293.647 386.526 291.55 388.623 291 389.173C 290.45 388.623 288.353 386.526 288.353 386.526C 288.256 386.429 288.128 386.38 288 386.38L 288 387.587L 290.647 390.233C 290.842 390.429 291.158 390.429 291.353 390.233z"/>
				<path style="stroke:none; fill:#ff0000" d="M 309.353 405.526C 309.158 405.331 308.842 405.331 308.647 405.526C 308.647 405.526 306.55 407.623 306 408.173C 305.45 407.623 303.353 405.526 303.353 405.526C 303.158 405.331 302.842 405.331 302.647 405.526C 302.647 405.526 300.55 407.623 300 408.173C 299.45 407.623 297.353 405.526 297.353 405.526C 297.158 405.331 296.842 405.331 296.647 405.526C 296.647 405.526 294.55 407.623 294 408.173C 293.45 407.623 291.353 405.526 291.353 405.526C 291.158 405.331 290.842 405.331 290.647 405.526L 288 408.173L 288 409.38C 288.128 409.38 288.256 409.331 288.353 409.233C 288.353 409.233 290.45 407.137 291 406.587C 291.55 407.137 293.647 409.233 293.647 409.233C 293.842 409.429 294.158 409.429 294.353 409.233C 294.353 409.233 296.45 407.137 297 406.587C 297.55 407.137 299.647 409.233 299.647 409.233C 299.842 409.429 300.158 409.429 300.353 409.233C 300.353 409.233 302.45 407.137 303 406.587C 303.55 407.137 305.647 409.233 305.647 409.233C 305.842 409.429 306.158 409.429 306.353 409.233C 306.353 409.233 308.45 407.137 309 406.587C 309.55 407.137 311.647 409.233 311.647 409.233C 311.744 409.331 311.872 409.38 312 409.38L 312 408.173L 309.353 405.526z"/>
			</g>
			<path style="stroke:#0033cc; stroke-width:2; fill:none" d="M 300.906 393.251L 298 393.251L 298 402.501L 300.906 402.501"/>
			<path style="stroke:#0033cc; stroke-width:2; fill:none" d="M 289 402.876L 289 391.782L 295 391.782L 295 403.157"/>
			<path style="stroke:#0033cc; stroke-width:1; fill:none" d="M 305.281 403.022L 307 394.282L 308.719 403.022"/>
			<path style="stroke:#0033cc; stroke-width:1.8; stroke-linejoin:bevel; fill:none" d="M 311.062 392.751L 308.938 403.86L 305.062 403.86L 302.906 392.751"/>
			<path style="stroke:#0033cc; stroke-width:1.3; fill:none" d="M 289.208 392.626L 294.875 403.21"/>
			<path style="stroke:#0033cc; stroke-width:1.3; fill:none" d="M 298 397.407L 300.906 397.407"/>
			<path style="stroke:none; fill:#ffcc00" d="M 312.007 392.876L 288.008 392.876L 288.008 390.741L 312.007 390.741L 312.007 392.876z"/>
			<path style="stroke:none; fill:#ffcc00" d="M 312.007 405.077L 288.008 405.077L 288.008 402.928L 312.007 402.928L 312.007 405.077z"/>
		</g>
	</g>
</svg>
