<svg xmlns="http://www.w3.org/2000/svg" height="24" width="24">
    <g transform="matrix(1,0,0,-1,-264,408)" id="KDDI_D_">        <path d="M287.8 393.2v4.9c0 4.2-3.5 7.7-8 7.7h-7.4c-4.4 0-8-3.5-8-7.7v-4.9" fill="#0c6"/>
        <path d="M279.8 405.8H278c4.4 0 8-3.5 8-7.7v-4.9h1.8v4.9c0 4.2-3.5 7.7-8 7.7z" fill="#396"/>
        <path d="M274 405.8h-1.6c-4.4 0-8-3.5-8-7.7v-4.9h1.6v4.9c0 4.2 3.6 7.7 8 7.7z" fill="#6f9"/>
        <path d="M283.3 397.1V384h-14.6v13.1" fill="#0c6"/>
        <path d="M270.8 397.1V384h-2.1v13.1" fill="#6f9"/>
        <path d="M283.3 397.1V384H281v13.1" fill="#396"/>
        <path d="M268.7 387.7V384h14.6v3.7z" fill="#fc6"/>
        <path d="M268.7 387.7V384h2.1v3.7z" fill="#ff9"/>
        <path d="M281 384h2.3v3.7H281z" fill="#f90"/>
        <path d="M264.4 395.1v-1.9h23.4v1.9z" fill="#fc6"/>
        <path d="M264.4 395.1v-1.9h1.6v1.9z" fill="#ff9"/>
        <path d="M286 393.2h1.8v1.9H286z" fill="#f90"/>
        <path d="M268.7 391.4h14.6v3.7h-14.6z" fill="#fc6"/>
        <path d="M270.8 395.1h-2.1v-3.7h2.1z" fill="#ff9"/>
        <path d="M281 391.4h2.3v3.7H281z" fill="#f90"/>
        <path d="M264.5 398.7h23.3c-.1 1.3-.6 2.6-1.3 3.6h-20.7c-.8-1-1.2-2.3-1.3-3.6z" fill="#fc6"/>
        <path d="M264.5 398.7h23.3c-.1 1.3-.6 2.6-1.3 3.6h-20.7c-.8-1-1.2-2.3-1.3-3.6z" fill="#fc6"/>
        <path d="M266 398.7c.1 1.3.6 2.6 1.3 3.6h-1.5c-.2-.2-.4-.5-.5-.7 0-.1-.1-.1-.1-.2-.1-.2-.2-.5-.3-.7v-.1c-.2-.6-.4-1.3-.4-1.9z" fill="#ff9"/>
        <path d="M287 401.4v.2c-.2.2-.3.5-.5.7h-1.8c.7-1 1.2-2.3 1.3-3.6h1.8c0 .6-.2 1.3-.4 1.9v.1c-.1.2-.2.5-.4.7z" fill="#f90"/>
        <path d="M287.8 393.2v4.9c0 4.2-3.5 7.7-8 7.7h-7.4c-4.4 0-8-3.5-8-7.7v-4.9" fill="none" stroke="#000"/>
        <path d="M276.1 400.7l-2.8-3.4s-2.4 2.5-2.8 4.3c-.2 1.3.1 3.3 1 4.3 1 1 2.2 1.5 4.5 1.5s4.5-.2 5.3-2c.9-1.7.6-3.5.3-4.5-.8-2.4-3.3-3.6-3.3-3.6z" fill="#0c6"/>
        <path d="M281.6 401.1c.1.3.2.7.2 1.2h-11.4c0-.1.1-.3.1-.5.2-1 1.1-2.3 1.9-3.1h1.7l2 2.2 1.5-2.2h2.3c.6.6 1.3 1.4 1.7 2.4z" fill="#fc6"/>
        <path d="M279.9 404.3c0-1.9-3.6-3.4-3.6-3.4s-3.7 1.5-3.7 3.4c0 1.8 1.6 3 3.7 3 2 0 3.6-1.2 3.6-3z" fill="#0c6"/>
        <path d="M277.9 406c.6 0 1.1-.1 1.6-.3-.6 1-1.8 1.6-3.2 1.6-2.1 0-3.7-1.2-3.7-3 0-1.1 1.2-2 2.2-2.6-.3.3-.5.8-.5 1.2 0 1.9 1.6 3.1 3.6 3.1z" fill="#396"/>
        <path d="M268.7 397.1V384M283.3 397.1V384" fill="none" stroke="#000"/>
        <path d="M276.1 400.7l-2.8-3.4s-2.4 2.5-2.8 4.3c-.2 1.3.1 3.3 1 4.3 1 1 2.2 1.5 4.5 1.5s4.5-.2 5.3-2c.9-1.7.6-3.5.3-4.5-.8-2.4-3-3.7-3-3.7z" fill="none" stroke="#000" stroke-linejoin="round"/>
        <path d="M274.5 398.9V384" fill="none" stroke="#000"/>
        <path d="M279.9 404.3c0-1.9-3.6-3.4-3.6-3.4s-3.7 1.5-3.7 3.4c0 1.8 1.6 3 3.7 3 2 0 3.6-1.2 3.6-3z" fill="none" stroke="#000" stroke-linejoin="round"/>
        <path d="M276.8 395.5c0-.5-.3-.8-.8-.8-.4 0-.7.3-.7.8 0 .4.3.7.7.7.5 0 .8-.3.8-.7zM276.8 391c0-.4-.3-.8-.8-.8-.4 0-.7.4-.7.8 0 .5.3.8.7.8.5 0 .8-.3.8-.8zM276.8 386.6c0-.4-.3-.8-.8-.8-.4 0-.7.4-.7.8s.3.8.7.8c.5 0 .8-.4.8-.8z" fill="#666" stroke="#000" stroke-width=".5"/>
    </g>
</svg>
