<svg xmlns="http://www.w3.org/2000/svg" width="24" height="24">
	<g transform="translate(-264,-386)" id="KDDI_D_336">
		<g>
			<path style="stroke:none; fill:none" d="M 288 409.89L 264 409.89L 264 385.89L 288 385.89L 288 409.89z"/>
		</g>
		<g>
			<path style="stroke:none; fill:#630" d="M 281.5 393.39C 282 393.89 283 395.39 285.5 395.39C 287 395.39 287.5 396.39 287.5 396.89C 287.5 397.39 287.5 401.89 287.5 402.89C 287.5 403.89 287 404.39 286.5 404.39C 286 404.39 282.5 404.39 282.5 404.39L 282.5 402.39C 282.5 402.39 280 404.39 279 404.39C 278 404.39 267 404.39 266 404.39C 265 404.39 264.5 403.89 264.5 403.39C 264.5 402.89 264.5 402.39 264.5 400.39C 264.5 398.39 265.919 397.39 267.5 397.39C 270 397.39 272.5 394.39 274 393.39C 275.5 392.39 276 391.39 277.5 391.39C 281 391.39 281.5 393.39 281.5 393.39z"/>
			<path style="stroke:none; fill:#963" d="M 276.647 397.036C 276.227 397.456 275.793 397.89 272.5 397.89C 272.5 397.89 270.5 397.89 270.5 396.39C 269.312 397.376 268.5 397.39 268.5 397.39L 266 397.89L 265 399.39C 265 399.39 267.04 399.39 268.5 399.39C 269.958 399.39 270.5 397.89 270.5 397.89C 270.5 397.89 271 399.39 272.5 399.39C 275.941 399.39 276.682 398.915 277.353 398.243L 281.603 393.993L 280.897 392.786L 276.647 397.036z"/>
			<g>
				<path style="stroke:none; fill:#333" d="M 264.5 403.39C 264.5 403.89 265 404.39 266 404.39C 267 404.39 278 404.39 279 404.39C 280 404.39 282.5 402.39 282.5 402.39L 264.5 402.39C 264.5 402.863 264.5 403.129 264.5 403.39z"/>
				<path style="stroke:none; fill:#333" d="M 282.5 402.39L 282.5 404.39C 282.5 404.39 286 404.39 286.5 404.39C 287 404.39 287.5 403.89 287.5 402.89C 287.5 402.77 287.5 402.597 287.5 402.39L 282.5 402.39z"/>
			</g>
			<path style="stroke:none; fill:#963" d="M 285.5 395.39C 284.401 395.39 283.604 395.095 283 394.728L 283 394.89C 283 394.89 286.236 397.161 287.5 401.437C 287.5 399.727 287.5 397.253 287.5 396.89C 287.5 396.39 287 395.39 285.5 395.39z"/>
			<path style="stroke:#000; stroke-width:1; fill:none" d="M 281.5 393.39C 282 393.89 283 395.39 285.5 395.39C 287 395.39 287.5 396.39 287.5 396.89C 287.5 397.39 287.5 401.89 287.5 402.89C 287.5 403.89 287 404.39 286.5 404.39C 286 404.39 282.5 404.39 282.5 404.39L 282.5 402.39C 282.5 402.39 280 404.39 279 404.39C 278 404.39 267 404.39 266 404.39C 265 404.39 264.5 403.89 264.5 403.39C 264.5 402.89 264.5 402.39 264.5 400.39C 264.5 398.39 265.919 397.39 267.5 397.39C 270 397.39 272.5 394.39 274 393.39C 275.5 392.39 276 391.39 277.5 391.39C 281 391.39 281.5 393.39 281.5 393.39z"/>
			<path style="stroke:#300; stroke-width:1; stroke-linecap:round; fill:none" d="M 271.798 395.39C 273.209 394.879 274.489 395.48 275 396.89"/>
			<path style="stroke:#300; stroke-width:1; stroke-linecap:round; fill:none" d="M 273.798 393.89C 275.209 393.379 276.489 393.98 277 395.39"/>
		</g>
	</g>
</svg>
