<svg xmlns="http://www.w3.org/2000/svg" width="24" height="24">
	<g transform="translate(-264,-386)" id="KDDI_D_337">
		<g>
			<path style="stroke:none; fill:none" d="M 288 409.89L 264 409.89L 264 385.89L 288 385.89L 288 409.89z"/>
		</g>
		<g>
			<path style="stroke:none; fill:#996" d="M 283.5 401.39L 283.5 405.89L 268.5 405.89L 268.5 401.39L 283.5 401.39z"/>
			<path style="stroke:none; fill:#ffc" d="M 286.5 404.89L 286.5 409.39L 265.5 409.39L 265.5 404.89L 286.5 404.89z"/>
			<path style="stroke:none; fill:#ffc" d="M 286.5 402.39L 265.5 402.39L 265.5 386.39L 286.5 386.39L 286.5 402.39z"/>
			<path style="stroke:#333; stroke-width:1; fill:none" d="M 286.5 402.39L 265.5 402.39L 265.5 386.39L 286.5 386.39L 286.5 402.39z"/>
			<path style="stroke:none; fill:#336" d="M 284 398.89L 268 398.89L 268 388.89L 284 388.89L 284 398.89z"/>
			<path style="stroke:#666; stroke-width:1; fill:none" d="M 279 406.39L 284.5 406.39"/>
			<path style="stroke:none; fill:#999" d="M 276.976 387.89C 276.976 388.152 276.763 388.365 276.5 388.365C 276.237 388.365 276.024 388.152 276.024 387.89C 276.024 387.627 276.237 387.415 276.5 387.415C 276.763 387.415 276.976 387.627 276.976 387.89z"/>
			<path style="stroke:none; fill:#0c0" d="M 283.976 400.39C 283.976 400.652 283.763 400.865 283.5 400.865C 283.238 400.865 283.024 400.652 283.024 400.39C 283.024 400.127 283.238 399.915 283.5 399.915C 283.763 399.915 283.976 400.127 283.976 400.39z"/>
			<path style="stroke:none; fill:#f90" d="M 281.976 400.39C 281.976 400.652 281.763 400.865 281.5 400.865C 281.237 400.865 281.024 400.652 281.024 400.39C 281.024 400.127 281.237 399.915 281.5 399.915C 281.763 399.915 281.976 400.127 281.976 400.39z"/>
			<path style="stroke:none; fill:#999" d="M 270.976 400.39C 270.976 400.652 270.763 400.865 270.5 400.865C 270.238 400.865 270.025 400.652 270.025 400.39C 270.025 400.127 270.238 399.915 270.5 399.915C 270.763 399.915 270.976 400.127 270.976 400.39z"/>
			<path style="stroke:none; fill:#999" d="M 268.976 400.39C 268.976 400.652 268.763 400.865 268.5 400.865C 268.238 400.865 268.024 400.652 268.024 400.39C 268.024 400.127 268.238 399.915 268.5 399.915C 268.763 399.915 268.976 400.127 268.976 400.39z"/>
			<path style="stroke:none; fill:#999" d="M 277.975 406.39C 277.975 406.652 277.762 406.864 277.5 406.864C 277.237 406.864 277.024 406.652 277.024 406.39C 277.024 406.127 277.237 405.915 277.5 405.915C 277.762 405.915 277.975 406.127 277.975 406.39z"/>
			<path style="stroke:none; fill:#999" d="M 275.976 406.39C 275.976 406.652 275.763 406.864 275.5 406.864C 275.238 406.864 275.025 406.652 275.025 406.39C 275.025 406.127 275.238 405.915 275.5 405.915C 275.763 405.915 275.976 406.127 275.976 406.39z"/>
			<path style="stroke:#333; stroke-width:1; stroke-linecap:square; fill:none" d="M 268.5 402.89L 268.5 404.39"/>
			<path style="stroke:#333; stroke-width:1; stroke-linecap:square; fill:none" d="M 283.5 402.89L 283.5 404.39"/>
			<path style="stroke:#cc9; stroke-dasharray:1,2; stroke-width:1; fill:none" d="M 266.5 408.39L 285.5 408.39"/>
			<path style="stroke:#333; stroke-width:1; fill:none" d="M 286.5 404.89L 286.5 409.39L 265.5 409.39L 265.5 404.89"/>
		</g>
	</g>
</svg>
