<svg xmlns="http://www.w3.org/2000/svg" width="24" height="24">
	<g transform="translate(-264,-386)" id="KDDI_D_338">
		<g>
			<path style="stroke:none; fill:none" d="M 288 409.89L 264 409.89L 264 385.89L 288 385.89L 288 409.89z"/>
		</g>
		<g>
			<path style="stroke:#333; stroke-width:1; stroke-linecap:round; fill:none" d="M 266.5 396.39L 280.5 391.89"/>
			<path style="stroke:none; fill:#3c6" d="M 287.5 405.39C 287.5 406.49 286.6 407.39 285.5 407.39L 266.5 407.39C 265.4 407.39 264.5 406.49 264.5 405.39L 264.5 398.39C 264.5 397.29 265.4 396.39 266.5 396.39L 285.5 396.39C 286.6 396.39 287.5 397.29 287.5 398.39L 287.5 405.39z"/>
			<path style="stroke:none; fill:#060" d="M 269.5 407.89L 270.5 409.89L 271.5 407.89L 269.5 407.89z"/>
			<path style="stroke:none; fill:#060" d="M 280.5 407.89L 281.5 409.89L 282.5 407.89L 280.5 407.89z"/>
			<path style="stroke:#060; stroke-width:1; fill:none" d="M 287.5 405.39C 287.5 406.49 286.6 407.39 285.5 407.39L 266.5 407.39C 265.4 407.39 264.5 406.49 264.5 405.39L 264.5 398.39C 264.5 397.29 265.4 396.39 266.5 396.39L 285.5 396.39C 286.6 396.39 287.5 397.29 287.5 398.39L 287.5 405.39z"/>
			<path style="stroke:none; fill:#c00" d="M 280.36 388.405C 281.75 388.405 282.796 388.747 283.47 389.42C 284.143 390.094 284.485 391.14 284.485 392.53C 284.485 392.53 285.507 390.397 284 388.89C 282.493 387.383 280.36 388.405 280.36 388.405z"/>
			<path style="stroke:none; fill:#c00" d="M 282.688 386.09C 284.311 386.09 285.584 386.538 286.471 387.421C 287.361 388.308 287.812 389.585 287.812 391.215C 287.812 391.215 288.583 388.473 287 386.89C 285.417 385.306 282.688 386.09 282.688 386.09z"/>
			<path style="stroke:none; fill:#fff" d="M 285 402.89L 276 402.89L 276 398.89L 285 398.89L 285 402.89z"/>
			<path style="stroke:none; fill:#9f9" d="M 285 402.89L 276 402.89L 276 400.89L 285 400.89L 285 402.89z"/>
			<path style="stroke:none; fill:#ccc" d="M 283 400.89L 282 398.89L 281 400.89L 283 400.89z"/>
			<path style="stroke:none; fill:#f30" d="M 276.976 404.39C 276.976 404.652 276.763 404.865 276.5 404.865C 276.237 404.865 276.024 404.652 276.024 404.39C 276.024 404.127 276.237 403.915 276.5 403.915C 276.763 403.915 276.976 404.127 276.976 404.39z"/>
			<path style="stroke:none; fill:#093" d="M 265.976 397.39C 265.976 397.652 265.763 397.865 265.5 397.865C 265.237 397.865 265.024 397.652 265.024 397.39C 265.024 397.127 265.237 396.915 265.5 396.915C 265.763 396.915 265.976 397.127 265.976 397.39z"/>
			<path style="stroke:none; fill:#093" d="M 267.976 397.39C 267.976 397.652 267.763 397.865 267.5 397.865C 267.237 397.865 267.024 397.652 267.024 397.39C 267.024 397.127 267.237 396.915 267.5 396.915C 267.763 396.915 267.976 397.127 267.976 397.39z"/>
			<path style="stroke:none; fill:#093" d="M 269.976 397.39C 269.976 397.652 269.763 397.865 269.5 397.865C 269.237 397.865 269.024 397.652 269.024 397.39C 269.024 397.127 269.237 396.915 269.5 396.915C 269.763 396.915 269.976 397.127 269.976 397.39z"/>
			<path style="stroke:none; fill:#093" d="M 271.976 397.39C 271.976 397.652 271.763 397.865 271.5 397.865C 271.237 397.865 271.024 397.652 271.024 397.39C 271.024 397.127 271.237 396.915 271.5 396.915C 271.763 396.915 271.976 397.127 271.976 397.39z"/>
			<path style="stroke:none; fill:#093" d="M 273.976 397.39C 273.976 397.652 273.763 397.865 273.5 397.865C 273.237 397.865 273.024 397.652 273.024 397.39C 273.024 397.127 273.237 396.915 273.5 396.915C 273.763 396.915 273.976 397.127 273.976 397.39z"/>
			<path style="stroke:none; fill:#060" d="M 266.976 398.39C 266.976 398.652 266.763 398.865 266.5 398.865C 266.237 398.865 266.024 398.652 266.024 398.39C 266.024 398.127 266.237 397.915 266.5 397.915C 266.763 397.915 266.976 398.127 266.976 398.39z"/>
			<path style="stroke:none; fill:#060" d="M 268.976 398.39C 268.976 398.652 268.763 398.865 268.5 398.865C 268.237 398.865 268.024 398.652 268.024 398.39C 268.024 398.127 268.237 397.915 268.5 397.915C 268.763 397.915 268.976 398.127 268.976 398.39z"/>
			<path style="stroke:none; fill:#060" d="M 270.976 398.39C 270.976 398.652 270.763 398.865 270.5 398.865C 270.237 398.865 270.024 398.652 270.024 398.39C 270.024 398.127 270.237 397.915 270.5 397.915C 270.763 397.915 270.976 398.127 270.976 398.39z"/>
			<path style="stroke:none; fill:#060" d="M 272.976 398.39C 272.976 398.652 272.763 398.865 272.5 398.865C 272.237 398.865 272.024 398.652 272.024 398.39C 272.024 398.127 272.237 397.915 272.5 397.915C 272.763 397.915 272.976 398.127 272.976 398.39z"/>
			<path style="stroke:none; fill:#093" d="M 265.976 399.39C 265.976 399.652 265.763 399.865 265.5 399.865C 265.237 399.865 265.024 399.652 265.024 399.39C 265.024 399.127 265.237 398.915 265.5 398.915C 265.763 398.915 265.976 399.127 265.976 399.39z"/>
			<path style="stroke:none; fill:#093" d="M 267.976 399.39C 267.976 399.652 267.763 399.865 267.5 399.865C 267.237 399.865 267.024 399.652 267.024 399.39C 267.024 399.127 267.237 398.915 267.5 398.915C 267.763 398.915 267.976 399.127 267.976 399.39z"/>
			<path style="stroke:none; fill:#093" d="M 269.976 399.39C 269.976 399.652 269.763 399.865 269.5 399.865C 269.237 399.865 269.024 399.652 269.024 399.39C 269.024 399.127 269.237 398.915 269.5 398.915C 269.763 398.915 269.976 399.127 269.976 399.39z"/>
			<path style="stroke:none; fill:#093" d="M 271.976 399.39C 271.976 399.652 271.763 399.865 271.5 399.865C 271.237 399.865 271.024 399.652 271.024 399.39C 271.024 399.127 271.237 398.915 271.5 398.915C 271.763 398.915 271.976 399.127 271.976 399.39z"/>
			<path style="stroke:none; fill:#093" d="M 273.976 399.39C 273.976 399.652 273.763 399.865 273.5 399.865C 273.237 399.865 273.024 399.652 273.024 399.39C 273.024 399.127 273.237 398.915 273.5 398.915C 273.763 398.915 273.976 399.127 273.976 399.39z"/>
			<path style="stroke:none; fill:#060" d="M 266.976 400.39C 266.976 400.652 266.763 400.865 266.5 400.865C 266.237 400.865 266.024 400.652 266.024 400.39C 266.024 400.127 266.237 399.915 266.5 399.915C 266.763 399.915 266.976 400.127 266.976 400.39z"/>
			<path style="stroke:none; fill:#060" d="M 268.976 400.39C 268.976 400.652 268.763 400.865 268.5 400.865C 268.237 400.865 268.024 400.652 268.024 400.39C 268.024 400.127 268.237 399.915 268.5 399.915C 268.763 399.915 268.976 400.127 268.976 400.39z"/>
			<path style="stroke:none; fill:#060" d="M 270.976 400.39C 270.976 400.652 270.763 400.865 270.5 400.865C 270.237 400.865 270.024 400.652 270.024 400.39C 270.024 400.127 270.237 399.915 270.5 399.915C 270.763 399.915 270.976 400.127 270.976 400.39z"/>
			<path style="stroke:none; fill:#060" d="M 272.976 400.39C 272.976 400.652 272.763 400.865 272.5 400.865C 272.237 400.865 272.024 400.652 272.024 400.39C 272.024 400.127 272.237 399.915 272.5 399.915C 272.763 399.915 272.976 400.127 272.976 400.39z"/>
			<path style="stroke:none; fill:#093" d="M 265.976 401.39C 265.976 401.652 265.763 401.865 265.5 401.865C 265.237 401.865 265.024 401.652 265.024 401.39C 265.024 401.127 265.237 400.915 265.5 400.915C 265.763 400.915 265.976 401.127 265.976 401.39z"/>
			<path style="stroke:none; fill:#093" d="M 267.976 401.39C 267.976 401.652 267.763 401.865 267.5 401.865C 267.237 401.865 267.024 401.652 267.024 401.39C 267.024 401.127 267.237 400.915 267.5 400.915C 267.763 400.915 267.976 401.127 267.976 401.39z"/>
			<path style="stroke:none; fill:#093" d="M 269.976 401.39C 269.976 401.652 269.763 401.865 269.5 401.865C 269.237 401.865 269.024 401.652 269.024 401.39C 269.024 401.127 269.237 400.915 269.5 400.915C 269.763 400.915 269.976 401.127 269.976 401.39z"/>
			<path style="stroke:none; fill:#093" d="M 271.976 401.39C 271.976 401.652 271.763 401.865 271.5 401.865C 271.237 401.865 271.024 401.652 271.024 401.39C 271.024 401.127 271.237 400.915 271.5 400.915C 271.763 400.915 271.976 401.127 271.976 401.39z"/>
			<path style="stroke:none; fill:#093" d="M 273.976 401.39C 273.976 401.652 273.763 401.865 273.5 401.865C 273.237 401.865 273.024 401.652 273.024 401.39C 273.024 401.127 273.237 400.915 273.5 400.915C 273.763 400.915 273.976 401.127 273.976 401.39z"/>
			<path style="stroke:none; fill:#060" d="M 266.976 402.39C 266.976 402.652 266.763 402.865 266.5 402.865C 266.237 402.865 266.024 402.652 266.024 402.39C 266.024 402.127 266.237 401.915 266.5 401.915C 266.763 401.915 266.976 402.127 266.976 402.39z"/>
			<path style="stroke:none; fill:#060" d="M 268.976 402.39C 268.976 402.652 268.763 402.865 268.5 402.865C 268.237 402.865 268.024 402.652 268.024 402.39C 268.024 402.127 268.237 401.915 268.5 401.915C 268.763 401.915 268.976 402.127 268.976 402.39z"/>
			<path style="stroke:none; fill:#060" d="M 270.976 402.39C 270.976 402.652 270.763 402.865 270.5 402.865C 270.237 402.865 270.024 402.652 270.024 402.39C 270.024 402.127 270.237 401.915 270.5 401.915C 270.763 401.915 270.976 402.127 270.976 402.39z"/>
			<path style="stroke:none; fill:#060" d="M 272.976 402.39C 272.976 402.652 272.763 402.865 272.5 402.865C 272.237 402.865 272.024 402.652 272.024 402.39C 272.024 402.127 272.237 401.915 272.5 401.915C 272.763 401.915 272.976 402.127 272.976 402.39z"/>
			<path style="stroke:none; fill:#093" d="M 265.976 403.39C 265.976 403.652 265.763 403.865 265.5 403.865C 265.237 403.865 265.024 403.652 265.024 403.39C 265.024 403.127 265.237 402.915 265.5 402.915C 265.763 402.915 265.976 403.127 265.976 403.39z"/>
			<path style="stroke:none; fill:#093" d="M 267.976 403.39C 267.976 403.652 267.763 403.865 267.5 403.865C 267.237 403.865 267.024 403.652 267.024 403.39C 267.024 403.127 267.237 402.915 267.5 402.915C 267.763 402.915 267.976 403.127 267.976 403.39z"/>
			<path style="stroke:none; fill:#093" d="M 269.976 403.39C 269.976 403.652 269.763 403.865 269.5 403.865C 269.237 403.865 269.024 403.652 269.024 403.39C 269.024 403.127 269.237 402.915 269.5 402.915C 269.763 402.915 269.976 403.127 269.976 403.39z"/>
			<path style="stroke:none; fill:#093" d="M 271.976 403.39C 271.976 403.652 271.763 403.865 271.5 403.865C 271.237 403.865 271.024 403.652 271.024 403.39C 271.024 403.127 271.237 402.915 271.5 402.915C 271.763 402.915 271.976 403.127 271.976 403.39z"/>
			<path style="stroke:none; fill:#093" d="M 273.976 403.39C 273.976 403.652 273.763 403.865 273.5 403.865C 273.237 403.865 273.024 403.652 273.024 403.39C 273.024 403.127 273.237 402.915 273.5 402.915C 273.763 402.915 273.976 403.127 273.976 403.39z"/>
			<path style="stroke:none; fill:#060" d="M 266.976 404.39C 266.976 404.652 266.763 404.865 266.5 404.865C 266.237 404.865 266.024 404.652 266.024 404.39C 266.024 404.127 266.237 403.915 266.5 403.915C 266.763 403.915 266.976 404.127 266.976 404.39z"/>
			<path style="stroke:none; fill:#060" d="M 268.976 404.39C 268.976 404.652 268.763 404.865 268.5 404.865C 268.237 404.865 268.024 404.652 268.024 404.39C 268.024 404.127 268.237 403.915 268.5 403.915C 268.763 403.915 268.976 404.127 268.976 404.39z"/>
			<path style="stroke:none; fill:#060" d="M 270.976 404.39C 270.976 404.652 270.763 404.865 270.5 404.865C 270.237 404.865 270.024 404.652 270.024 404.39C 270.024 404.127 270.237 403.915 270.5 403.915C 270.763 403.915 270.976 404.127 270.976 404.39z"/>
			<path style="stroke:none; fill:#060" d="M 272.976 404.39C 272.976 404.652 272.763 404.865 272.5 404.865C 272.237 404.865 272.024 404.652 272.024 404.39C 272.024 404.127 272.237 403.915 272.5 403.915C 272.763 403.915 272.976 404.127 272.976 404.39z"/>
			<path style="stroke:none; fill:#093" d="M 265.976 405.39C 265.976 405.652 265.763 405.865 265.5 405.865C 265.237 405.865 265.024 405.652 265.024 405.39C 265.024 405.127 265.237 404.915 265.5 404.915C 265.763 404.915 265.976 405.127 265.976 405.39z"/>
			<path style="stroke:none; fill:#093" d="M 267.976 405.39C 267.976 405.652 267.763 405.865 267.5 405.865C 267.237 405.865 267.024 405.652 267.024 405.39C 267.024 405.127 267.237 404.915 267.5 404.915C 267.763 404.915 267.976 405.127 267.976 405.39z"/>
			<path style="stroke:none; fill:#093" d="M 269.976 405.39C 269.976 405.652 269.763 405.865 269.5 405.865C 269.237 405.865 269.024 405.652 269.024 405.39C 269.024 405.127 269.237 404.915 269.5 404.915C 269.763 404.915 269.976 405.127 269.976 405.39z"/>
			<path style="stroke:none; fill:#093" d="M 271.976 405.39C 271.976 405.652 271.763 405.865 271.5 405.865C 271.237 405.865 271.024 405.652 271.024 405.39C 271.024 405.127 271.237 404.915 271.5 404.915C 271.763 404.915 271.976 405.127 271.976 405.39z"/>
			<path style="stroke:none; fill:#093" d="M 273.976 405.39C 273.976 405.652 273.763 405.865 273.5 405.865C 273.237 405.865 273.024 405.652 273.024 405.39C 273.024 405.127 273.237 404.915 273.5 404.915C 273.763 404.915 273.976 405.127 273.976 405.39z"/>
			<path style="stroke:none; fill:#060" d="M 266.976 406.39C 266.976 406.652 266.763 406.865 266.5 406.865C 266.237 406.865 266.024 406.652 266.024 406.39C 266.024 406.127 266.237 405.915 266.5 405.915C 266.763 405.915 266.976 406.127 266.976 406.39z"/>
			<path style="stroke:none; fill:#060" d="M 268.976 406.39C 268.976 406.652 268.763 406.865 268.5 406.865C 268.237 406.865 268.024 406.652 268.024 406.39C 268.024 406.127 268.237 405.915 268.5 405.915C 268.763 405.915 268.976 406.127 268.976 406.39z"/>
			<path style="stroke:none; fill:#060" d="M 270.976 406.39C 270.976 406.652 270.763 406.865 270.5 406.865C 270.237 406.865 270.024 406.652 270.024 406.39C 270.024 406.127 270.237 405.915 270.5 405.915C 270.763 405.915 270.976 406.127 270.976 406.39z"/>
			<path style="stroke:none; fill:#060" d="M 272.976 406.39C 272.976 406.652 272.763 406.865 272.5 406.865C 272.237 406.865 272.024 406.652 272.024 406.39C 272.024 406.127 272.237 405.915 272.5 405.915C 272.763 405.915 272.976 406.127 272.976 406.39z"/>
			<path style="stroke:none; fill:#f30" d="M 284.976 404.39C 284.976 404.652 284.763 404.865 284.5 404.865C 284.237 404.865 284.024 404.652 284.024 404.39C 284.024 404.127 284.237 403.915 284.5 403.915C 284.763 403.915 284.976 404.127 284.976 404.39z"/>
			<path style="stroke:none; fill:#f30" d="M 280.976 404.39C 280.976 404.652 280.763 404.865 280.5 404.865C 280.237 404.865 280.024 404.652 280.024 404.39C 280.024 404.127 280.237 403.915 280.5 403.915C 280.763 403.915 280.976 404.127 280.976 404.39z"/>
		</g>
	</g>
</svg>
