<svg xmlns="http://www.w3.org/2000/svg" width="24" height="24">
	<g transform="translate(-264,-386)" id="KDDI_D_339">
		<g>
			<path style="stroke:none; fill:none" d="M 288 409.89L 264 409.89L 264 385.89L 288 385.89L 288 409.89z"/>
		</g>
		<g>
			<path style="stroke:none; fill:#030" d="M 276 388.89C 276 388.89 282 385.89 288 385.89C 288 385.89 287.5 390.89 284.5 392.89"/>
			<path style="stroke:none; fill:#060" d="M 277 388.39C 277 388.39 283.398 386.89 286 387.39C 286 387.39 286.688 389.966 285 392.39C 285 392.39 283.5 394.39 279.5 393.89C 275.5 393.39 277 388.39 277 388.39z"/>
			<path style="stroke:none; fill:#393" d="M 286 387.39L 276.5 390.89L 277.5 393.39L 286 387.39z"/>
			<path style="stroke:none; fill:#030" d="M 276 406.89C 276 406.89 282 409.89 288 409.89C 288 409.89 287.5 404.89 284.5 402.89"/>
			<path style="stroke:none; fill:#060" d="M 277 407.39C 277 407.39 283.398 408.89 286 408.39C 286 408.39 286.688 405.814 285 403.39C 285 403.39 283.5 401.39 279.5 401.89C 275.5 402.39 277 407.39 277 407.39z"/>
			<path style="stroke:none; fill:#393" d="M 286 408.39L 276.5 404.89L 277.5 402.39L 286 408.39z"/>
			<path style="stroke:none; fill:#030" d="M 267 393.89C 264 392.39 264 385.89 264 385.89C 264 385.89 269 387.89 271 390.89"/>
			<g>
				<path style="stroke:none; fill:#060" d="M 265.938 388.001C 265.625 390.751 266.5 393.376 266.5 393.376L 268.171 391.827C 268.036 391.649 267.895 391.429 267.75 391.126C 267.062 389.689 265.938 388.001 265.938 388.001z"/>
				<path style="stroke:none; fill:#393" d="M 265.938 388.001C 265.938 388.001 267.062 389.689 267.75 391.126C 267.895 391.429 268.036 391.649 268.171 391.827L 269.062 391.001C 267.625 388.564 265.938 388.001 265.938 388.001z"/>
			</g>
			<path style="stroke:none; fill:#030" d="M 267 401.89C 264 403.39 264 409.89 264 409.89C 264 409.89 269 407.89 271 404.89"/>
			<g>
				<path style="stroke:none; fill:#060" d="M 265.938 407.778C 265.625 405.028 267.917 402.043 267.917 402.043L 268.171 403.953C 268.036 404.131 267.895 404.351 267.75 404.653C 267.062 406.091 265.938 407.778 265.938 407.778z"/>
				<path style="stroke:none; fill:#393" d="M 265.938 407.778C 265.938 407.778 267.062 406.091 267.75 404.653C 267.895 404.351 268.036 404.131 268.171 403.953L 269.062 404.778C 267.625 407.216 265.938 407.778 265.938 407.778z"/>
			</g>
			<path style="stroke:none; fill:#f36" d="M 264 397.89C 264 395.39 266.5 394.39 266.5 394.39C 266.5 394.39 265.5 392.39 267 390.89C 268.5 389.39 270.5 390.39 270.5 390.39C 270.5 390.39 271.5 387.89 275 387.89C 278.5 387.89 279.5 389.89 279.5 389.89L 281.5 389.89C 284 389.89 286 392.89 286 394.39L 286 395.89C 286 398.39 283.5 399.89 283.5 399.89C 283.5 399.89 286 400.89 286 402.39C 286 403.89 284.5 405.89 282.5 405.89L 280.5 405.89C 279.4 405.89 279 407.89 277 407.89C 275 407.89 274 405.89 274 405.89C 274 405.89 273 407.89 271 407.89C 269 407.89 267.5 405.89 267.5 403.89L 267.5 402.39C 267 401.39 264 400.39 264 397.89z"/>
			<path style="stroke:none; fill:#f69" d="M 274.625 392.626C 274.625 392.626 275.938 393.966 275.5 395.39L 272.562 395.876C 272.562 395.876 272.562 393.189 274.625 392.626z"/>
			<path style="stroke:none; fill:#f03" d="M 275.25 395.501C 275.25 395.501 276.188 394.939 277.5 395.564C 276.875 396.814 275.125 398.939 275.125 398.939L 274.438 397.439L 275.25 395.501z"/>
			<path style="stroke:none; fill:#f69" d="M 277.5 396.189C 277.5 396.189 279.208 397.043 281.667 397.085C 281.438 398.064 281.961 399.631 281.961 399.631L 278.312 400.626L 277.875 398.89L 277.5 396.189z"/>
			<path style="stroke:none; fill:#f03" d="M 277.312 395.876L 275.562 398.439L 276.875 400.564L 277.875 400.564C 277.875 400.564 280.177 402.338 280.25 400.501C 280.312 398.939 278 399.439 277.875 398.89C 277.649 397.898 277.312 395.876 277.312 395.876z"/>
			<path style="stroke:none; fill:#c00" d="M 275.5 395.39C 275.5 395.39 274.812 397.876 275.625 398.251C 276.438 398.626 278.125 399.189 277.875 400.564C 277.625 401.939 276.5 403.814 275.562 404.001C 275.562 404.001 276.812 400.939 275 400.314C 273.188 399.689 272.375 399.439 272.375 397.501C 272.375 395.564 272.875 395.89 272.875 395.89L 275.5 395.39z"/>
			<path style="stroke:none; fill:#f69" d="M 274.188 404.626L 276.312 403.564L 277.562 404.689C 277.562 404.689 276.5 408.112 275.25 407.001C 274 405.89 274.188 404.626 274.188 404.626z"/>
			<path style="stroke:none; fill:#f69" d="M 283.062 402.626C 283.062 402.626 284.812 402.126 285.625 402.376C 285.625 402.376 284.625 400.626 283.438 400.126C 282.25 399.626 282.312 400.626 282.312 400.626L 283.062 402.626z"/>
			<path style="stroke:none; fill:#f03" d="M 282.562 399.939C 282.562 399.939 284.062 402.501 283.75 405.126C 283.75 405.126 281.375 405.689 280.688 405.564C 280 405.439 280.875 403.939 280.875 403.939L 282.562 399.939z"/>
			<path style="stroke:none; fill:#c00" d="M 275.75 403.939C 275.75 403.939 279.125 405.876 280.812 405.251C 282.5 404.626 283.688 401.939 282.562 399.689C 282.277 399.118 280.812 399.751 278 400.39C 276.75 402.689 277 402.564 275.75 403.939z"/>
			<path style="stroke:none; fill:#f69" d="M 270.812 399.876L 272.375 397.501C 272.375 397.501 272.688 399.376 273.25 399.626C 273.812 399.876 274.5 399.876 274.5 399.876C 274.5 399.876 276.125 401.189 276 401.939C 275.875 402.689 274.625 404.564 273.375 404.126C 272.125 403.689 270.625 402.376 270.812 399.876z"/>
			<path style="stroke:none; fill:#f03" d="M 270.562 399.876C 270.562 399.876 272.688 400.876 272.875 401.626C 273.062 402.376 273 403.89 273 403.89C 273 403.89 271.375 403.251 270.938 401.814C 270.5 400.376 270.562 399.876 270.562 399.876z"/>
			<path style="stroke:none; fill:#f69" d="M 268.5 401.751C 268.5 401.751 267.75 403.376 267.812 404.564C 267.875 405.751 268.938 407.564 270.75 407.501C 272.562 407.439 273.875 405.126 273.875 405.126L 268.5 401.751z"/>
			<path style="stroke:none; fill:#c00" d="M 268.5 401.751C 268.5 401.751 268.642 404.235 271 405.39C 272.688 406.216 273.938 404.751 273.938 404.751C 273.938 404.751 270.562 403.251 270.5 400.189L 268.5 401.751z"/>
			<path style="stroke:none; fill:#f03" d="M 272.562 394.001L 272.438 396.126L 270.938 397.189C 270.938 397.189 268 398.064 267.812 401.876L 265.375 399.876L 270.125 394.501L 272.562 394.001z"/>
			<path style="stroke:none; fill:#f69" d="M 272.188 394.064C 272.188 394.064 269.344 395.594 268.125 396.814C 266.906 398.033 266.5 400.876 266.5 400.876L 264.5 399.189L 264.5 397.251L 268.688 394.314L 272.188 394.064z"/>
			<path style="stroke:none; fill:#c00" d="M 266.5 396.439C 265.438 397.626 265.125 399.876 265.125 399.876C 265.125 399.876 263.375 397.689 265.25 395.751C 266.146 394.825 267.688 394.189 267.688 394.189L 268.938 394.689C 268.938 394.689 267.562 395.251 266.5 396.439z"/>
			<path style="stroke:none; fill:#f69" d="M 281.625 396.939C 281.625 396.939 281.625 399.689 283 399.939C 283 399.939 285.188 398.626 285.25 397.314L 283.75 396.189L 281.625 396.939z"/>
			<path style="stroke:none; fill:#f69" d="M 281.75 393.564C 281.75 393.564 283.562 392.564 283.312 390.876C 283.312 390.876 281.458 389.689 279.417 390.251C 279.417 390.251 279.562 392.314 279.062 392.751C 278.562 393.189 277.5 394.251 277.625 395.189C 277.625 395.189 278.688 393.939 279.562 394.064C 280.438 394.189 281.75 393.564 281.75 393.564z"/>
			<path style="stroke:none; fill:#f03" d="M 281.5 394.39L 281.5 394.89C 281.5 394.89 281.458 396.377 281.667 397.085C 281.875 397.793 285.417 397.293 285.417 397.293L 285.5 394.39L 283 394.39C 283 394.39 282.542 393.209 281.375 393.043C 280.208 392.876 279.167 394.293 279.167 394.293C 279.167 394.293 279.792 393.585 281.5 394.39z"/>
			<path style="stroke:none; fill:#f69" d="M 275.438 388.314C 275.438 388.314 276.979 388.23 277.521 388.939C 278.062 389.647 277 392.89 277 392.89L 275.5 392.376L 275.438 388.314z"/>
			<path style="stroke:none; fill:#f03" d="M 277 392.89C 277 392.89 277.583 393.168 277.75 394.626C 277.75 393.918 278.083 393.751 278.083 393.751C 278.083 393.751 279.876 393.413 279.417 390.251C 278.75 392.293 277 392.89 277 392.89z"/>
			<path style="stroke:none; fill:#f03" d="M 274.25 392.439C 274.25 392.439 272.188 389.689 272.875 388.689C 273.625 388.293 274.438 388.126 275.438 388.314C 276.333 388.814 275.5 392.376 275.5 392.376L 274.25 392.439z"/>
			<path style="stroke:none; fill:#f69" d="M 270.917 391.085C 270.5 390.835 269.5 391.584 269.083 392.418C 268.667 393.251 268.833 394.501 270.583 394.418C 272.333 394.335 272.917 393.251 272.5 392.751C 272.083 392.251 270.917 391.085 270.917 391.085z"/>
			<path style="stroke:none; fill:#900" d="M 274 400.265C 274.325 400.265 275.625 401.131 275.625 401.89C 275.625 403.39 273 403.89 273 403.89C 275 404.89 276.375 403.39 276.375 401.89C 276.375 400.644 274.665 399.515 274 399.515L 274 400.265z"/>
			<path style="stroke:none; fill:#900" d="M 279.5 401.89C 281.234 401.89 282.304 399.641 282.348 399.529L 281.652 399.25C 281 400.89 279.5 401.89 279.5 401.89z"/>
			<path style="stroke:none; fill:#600" d="M 281.5 394.89C 281.5 394.89 280.943 398.554 281.961 399.631C 282.358 400.052 282.876 400.265 283.5 400.265L 283.5 399.515C 283.085 399.515 282.76 399.384 282.507 399.117C 281.712 398.274 281.5 394.89 281.5 394.89z"/>
			<path style="stroke:none; fill:#600" d="M 272 392.89C 272.025 393.508 272 394.015 270 394.015L 266.5 394.015L 266.5 394.765L 270 394.765C 272.5 394.834 273.498 393.833 273 392.89C 272.893 392.686 271 390.39 271 390.39L 270.887 391.402C 271.158 391.839 271.98 392.4 272 392.89z"/>
			<path style="stroke:none; fill:#600" d="M 279 390.39L 279 391.89C 279 392.332 278.285 392.98 277.875 393.39C 276.375 394.89 277.875 398.89 277.875 398.89C 277.875 398.89 277.243 395.321 278.438 394.564C 279.5 393.89 279.75 392.863 279.75 391.89L 279.75 390.39L 279 390.39z"/>
			<path style="stroke:none; fill:#900" d="M 283 394.39C 283 394.528 285.25 394.64 285.25 394.64C 285.388 394.64 285.5 394.528 285.5 394.39C 285.5 394.252 285.263 393.689 285.125 393.689C 285.125 393.689 283 394.252 283 394.39z"/>
			<path style="stroke:none; fill:#600" d="M 272.5 403.39C 271.231 402.121 270.95 400.271 270.89 399.391C 270.869 399.08 272.188 397.939 272.188 397.939C 272.188 397.36 272.086 396.844 272.434 396.621C 273.777 395.762 275.5 395.39 275.5 395.39L 273.5 395.515C 271.892 395.515 270.125 397.281 270.125 398.89C 270.125 398.89 269.567 401.458 272 403.89C 275.068 406.957 278 401.97 278 400.39C 277.125 402.157 274.75 405.64 272.5 403.39z"/>
			<path style="stroke:none; fill:#900" d="M 273.4 392.715C 272.565 393.407 272.125 394.462 272.125 395.89C 272.125 398.868 272.558 399.65 272.935 399.998C 273.282 400.319 273.663 400.289 273.891 400.271L 274 400.265C 274.492 400.265 274.98 399.706 275.728 398.786C 275.728 398.786 276.272 397.983 277 396.89C 278.478 394.672 279.5 393.89 281.5 394.39C 281.5 394.39 279.5 392.39 277 395.89C 276.192 397.02 275.145 398.313 275.145 398.313C 274.843 398.686 274.213 399.461 273.983 399.516C 273.974 399.516 273.832 399.524 273.832 399.524C 273.632 399.539 273.539 399.537 273.443 399.447C 273.231 399.251 272.875 398.528 272.875 395.89C 272.875 394.702 273.208 393.832 273.867 393.302C 275.04 392.358 276.981 392.886 277 392.89C 277 392.89 275 391.39 273.4 392.715z"/>
			<path style="stroke:none; fill:#900" d="M 272.125 396.39C 272.125 397.734 270.702 399.157 270.235 399.625L 267.917 402.043L 268 402.89L 270.765 400.155C 271.287 399.633 272.875 398.045 272.875 396.39L 272.125 396.39z"/>
			<path style="stroke:none; fill:#600" d="M 286 395.89L 286 394.39C 286 392.89 284 389.89 281.5 389.89L 279.5 389.89C 279.5 389.89 278.5 387.89 275 387.89C 271.5 387.89 270.5 390.39 270.5 390.39C 270.5 390.39 268.5 389.39 267 390.89C 265.5 392.39 266.5 394.39 266.5 394.39C 266.5 394.39 264 395.39 264 397.89C 264 400.39 267 401.39 267.5 402.39L 267.5 403.89C 267.5 405.89 269 407.89 271 407.89C 273 407.89 274 405.89 274 405.89C 274 405.89 275 407.89 277 407.89C 279 407.89 279.4 405.89 280.5 405.89L 282.5 405.89C 284.5 405.89 286 403.89 286 402.39C 286 400.89 283.5 399.89 283.5 399.89C 283.5 399.89 286 398.39 286 395.89zM 282.5 399.89C 282.5 399.89 285.25 401.39 285.25 402.39C 285.25 403.471 284.069 405.14 282.5 405.14L 280.5 405.14C 279.707 405.14 279.2 405.679 278.752 406.155C 278.254 406.683 277.824 407.14 277 407.14C 275.5 407.14 274.677 405.567 274.668 405.551L 273.998 404.248L 273.33 405.551C 273.322 405.567 272.5 407.14 271 407.14C 269.379 407.14 268.25 405.427 268.25 403.89L 268.5 401.89C 268.5 401.89 267.413 401.179 266.82 400.734C 265.85 400.006 264.75 399.181 264.75 397.89C 264.75 395.942 266.699 395.119 266.782 395.085L 267.52 394.775L 267.172 394.057C 267.142 393.994 266.441 392.509 267.53 391.42C 268.62 390.331 270.106 391.032 270.168 391.063L 270.887 391.402L 271.194 390.674C 271.229 390.591 272.085 388.64 275 388.64C 277.941 388.64 278.799 390.17 278.834 390.235L 279.052 390.64L 281.5 390.64C 283.587 390.64 285.25 393.333 285.25 394.39L 285.25 395.89C 285.25 398.39 282.5 399.89 282.5 399.89z"/>
		</g>
	</g>
</svg>
