<svg xmlns="http://www.w3.org/2000/svg" height="24" width="24">
    <g transform="matrix(1,0,0,-1,-264,408)" id="KDDI_D_">        <path d="M285 391l-9 9-9-9v-7h18z" fill="#ffc"/>
        <path d="M276.3 407.9v-8.7M271.9 404h8.8" fill="none" stroke="#c30" stroke-width="1.5"/>
        <path d="M276 408v-8.7M271.6 404.3h8.8" fill="none" stroke="#f93" stroke-width="1.5"/>
        <path d="M276 400l-9-9v-2l9 9 9-9v2z" fill="#fc6"/>
        <path d="M276 400l-9-9v-2l9 9z" fill="#f93"/>
        <path d="M278.6 384v2c0 1.1-.9 2-2 2h-1c-1.1 0-2-.9-2-2v-2z" fill="#c60"/>
        <path d="M276.6 387.3h1c.2 0 .4 0 .6-.1-.4.5-1 .8-1.6.8h-1c-1.1 0-2-.9-2-2v-2h1v1.3c0 1.1.9 2 2 2z" fill="#930"/>
        <path d="M278.9 392.3c0-1.6-1.3-2.8-2.9-2.8-1.5 0-2.8 1.2-2.8 2.8 0 1.6 1.3 2.8 2.8 2.8 1.6 0 2.9-1.2 2.9-2.8z" fill="#06f"/>
        <path d="M276.5 394.6c.7 0 1.3-.2 1.8-.6-.6.7-1.4 1.1-2.3 1.1-1.5 0-2.8-1.2-2.8-2.8 0-.9.4-1.7 1.1-2.2-.4.5-.6 1.1-.6 1.7 0 1.6 1.3 2.8 2.8 2.8z" fill="#039"/>
        <path d="M279.6 392.7h-3.2v3.2h-.8v-3.2h-3.1v-.8h3.1v-3.2h.8v3.2h3.2z" fill="#ffc"/>
        <path d="M267 391v-7M285 391v-7" fill="none" stroke="#f60"/>
        <path d="M286.5 389.5L276 400l-10.5-10.5" fill="none" stroke="#600" stroke-width="1.5"/>
    </g>
</svg>
