<svg xmlns="http://www.w3.org/2000/svg" height="24" width="24">
    <g transform="matrix(1,0,0,-1,-264,408)" id="KDDI_D_">        <path d="M288 404h-24v4h24z" fill="#39f"/>
        <path d="M288 384h-24v20.3h24z" fill="#c60"/>
        <path d="M286 384v16.3c0 1.2-.9 2-2 2h-16c-1.1 0-2-.8-2-2V384z"/>
        <path d="M279.1 387.9l3.4-3.9h-2.3l-1.8 3.9z" fill="#999"/>
        <path d="M278.7 387.9l2-3.9h-.5l-1.8 3.9z" fill="#333"/>
        <path d="M279.3 386.1h1.4v2h-1.4z" fill="#333"/>
        <path d="M272.9 387.9l-3.4-3.9h2.3l1.8 3.9z" fill="#999"/>
        <path d="M273.3 387.9l-2-3.9h.5l1.8 3.9z" fill="#333"/>
        <path d="M272.7 386.1h-1.4v2h1.4z" fill="#333"/>
        <path d="M282.4 387.7v10.9c0 1.1-.9 2-2 2h-8.9c-1.1 0-2-.9-2-2v-10.9z" fill="#f30"/>
        <path d="M281.2 398.6v-10.9h1.2v10.9c0 1.1-1.2 1.1-1.2 0z" fill="#c00"/>
        <path d="M280.4 400.6h-8.9c-1.1 0-2-.9-2-2v-10.9h1.4v10.9c0 1.2 1.1 1.4 1.2 1.4h8.3c1.1 0 1.1.6 0 .6z" fill="#f60"/>
        <path d="M272.1 392h-2.6v-2.3h2.6c.6 0 1 .5 1 1.1v.2c0 .5-.4 1-1 1z" fill="#fff"/>
        <path d="M273.2 390.9c0-.7-.5-1.2-1.2-1.2-.6 0-1.1.5-1.1 1.2 0 .6.5 1.1 1.1 1.1.7 0 1.2-.5 1.2-1.1z" fill="#ff9"/>
        <path d="M272.8 390.9c0-.5-.3-.8-.8-.8-.4 0-.8.3-.8.8 0 .4.4.8.8.8.5 0 .8-.4.8-.8z" fill="#fc0"/>
        <path d="M279.9 392h2.6v-2.3h-2.6c-.6 0-1 .5-1 1.1v.2c0 .5.4 1 1 1z" fill="#fff"/>
        <path d="M278.8 390.9c0-.7.5-1.2 1.2-1.2.6 0 1.1.5 1.1 1.2 0 .6-.5 1.1-1.1 1.1-.7 0-1.2-.5-1.2-1.1z" fill="#ff9"/>
        <path d="M279.2 390.9c0-.5.3-.8.8-.8.4 0 .8.3.8.8 0 .4-.4.8-.8.8-.5 0-.8-.4-.8-.8z" fill="#fc0"/>
        <path d="M269.5 389.8v-2.1h12.9v2.1z" fill="#c00"/>
        <path d="M269.5 389.8v-2.1h1.3v2.1z" fill="red"/>
        <path d="M281.2 389.8v-2.1h1.2v2.1z" fill="#900"/>
        <path d="M269.5 393.3h4.6c.5 0 1 .5 1 1v1.9c0 .5-.5 1-1 1h-4.6zM282.4 397.2h-4.5c-.5 0-1-.5-1-1v-1.9c0-.5.5-1 1-1h4.5z" fill="#fff"/>
        <path d="M281.2 393.3h1.2v3.9h-1.2z" fill="#999"/>
    </g>
</svg>
