<svg xmlns="http://www.w3.org/2000/svg" width="24" height="24">
	<g transform="translate(-264,-386)" id="KDDI_D_342">
		<g>
			<path style="stroke:none; fill:none" d="M 288 409.89L 264 409.89L 264 385.89L 288 385.89L 288 409.89z"/>
		</g>
		<g>
			<path style="stroke:none; fill:#6cf" d="M 288 409.89L 264 409.89L 264 385.89L 288 385.89L 288 409.89z"/>
			<path style="stroke:none; fill:#f93" d="M 276 396.922L 264 394.986L 264 400.794L 276 398.858L 276 396.922z"/>
			<path style="stroke:none; fill:#f93" d="M 276 404.489L 273 385.89L 279 385.89L 276 404.489z"/>
			<path style="stroke:none; fill:#fc6" d="M 279 385.89L 273 385.89L 276 395.39L 279 385.89z"/>
			<path style="stroke:none; fill:#ff9" d="M 278.029 385.89L 273.97 385.89L 276 392.39L 278.029 385.89z"/>
			<path style="stroke:none; fill:#fc6" d="M 264 400.701L 272.901 397.89L 264 395.079L 264 400.701z"/>
			<path style="stroke:none; fill:#ff9" d="M 264 399.733L 269.9 397.89L 264 396.047L 264 399.733z"/>
			<path style="stroke:none; fill:#f93" d="M 268.183 385.89L 264 385.89L 264 390.072L 279.056 400.945L 268.183 385.89z"/>
			<path style="stroke:none; fill:#fc6" d="M 264 385.89L 264 390.017L 272.622 394.511L 268.114 385.89L 264 385.89z"/>
			<path style="stroke:none; fill:#ff9" d="M 264 385.89L 264 388.948L 270.5 392.39L 267.059 385.89L 264 385.89z"/>
			<path style="stroke:none; fill:#f93" d="M 276 396.922L 288 394.986L 288 400.794L 276 398.858L 276 396.922z"/>
			<path style="stroke:none; fill:#fc6" d="M 288 400.701L 279.099 397.89L 288 395.079L 288 400.701z"/>
			<path style="stroke:none; fill:#ff9" d="M 288 399.733L 282.1 397.89L 288 396.047L 288 399.733z"/>
			<path style="stroke:none; fill:#f93" d="M 283.817 385.89L 288 385.89L 288 390.072L 272.944 400.945L 283.817 385.89z"/>
			<path style="stroke:none; fill:#fc6" d="M 288 385.89L 288 390.017L 279.378 394.511L 283.886 385.89L 288 385.89z"/>
			<path style="stroke:none; fill:#ff9" d="M 288 385.89L 288 388.948L 281.5 392.39L 284.941 385.89L 288 385.89z"/>
			<path style="stroke:none; fill:#339" d="M 273.5 397.89C 273 397.89 273 398.39 273 398.89C 273 399.39 272 405.89 268 408.89C 268 408.89 270.806 407.278 272.5 403.89C 273.5 401.89 274 400.39 274 398.89C 274 398.39 274 397.89 273.5 397.89z"/>
			<path style="stroke:none; fill:#339" d="M 278.5 397.89C 279 397.89 279 398.39 279 398.89C 279 399.39 280 405.89 284 408.89C 284 408.89 281.194 407.278 279.5 403.89C 278.5 401.89 278 400.39 278 398.89C 278 398.39 278 397.89 278.5 397.89z"/>
			<path style="stroke:none; fill:#66c" d="M 281.5 395.857L 276 394.373L 270.5 395.857C 270.5 400.39 265.5 406.89 264 406.89L 264 409.89L 288 409.89L 288 406.89C 286.5 406.89 281.5 400.39 281.5 395.857z"/>
			<path style="stroke:none; fill:#339" d="M 288 406.89C 286 406.89 281.749 403.125 281.5 395.857L 276 393.39L 270.5 395.857C 270.249 403.182 266 406.89 264 406.89C 264 406.89 264 409.39 264 409.89L 288 409.89L 288 406.89z"/>
			<path style="stroke:none; fill:#006" d="M 288 408.39C 285 408.39 281.5 402.65 281.5 395.857L 276 393.39L 270.5 395.857C 270.5 402.651 266.5 408.39 264 408.39L 264 409.89L 288 409.89L 288 408.39z"/>
			<path style="stroke:none; fill:#fff" d="M 276 392.89L 270.5 392.89C 270.5 393.996 270.5 395.39 270.5 395.857C 270.721 396.48 270.955 397.39 271.673 397.39C 272.803 397.39 272.803 395.39 273.934 395.39C 275.055 395.39 274.879 397.39 276 397.39C 277.121 397.39 276.945 395.39 278.066 395.39C 279.197 395.39 279.197 397.39 280.327 397.39C 281.045 397.39 281.279 396.48 281.5 395.857C 281.5 395.39 281.5 393.996 281.5 392.89L 276 392.89z"/>
			<g>
				<path style="stroke:none; fill:#ccc" d="M 280.327 394.89C 281.045 394.89 281.279 393.98 281.5 393.357C 281.5 393.198 281.5 393.041 281.5 392.89L 278.066 392.89C 279.197 392.89 279.197 394.89 280.327 394.89z"/>
				<path style="stroke:none; fill:#ccc" d="M 273.934 392.89C 275.055 392.89 274.879 394.89 276 394.89C 277.121 394.89 276.945 392.89 278.066 392.89L 276 392.89L 273.934 392.89z"/>
				<path style="stroke:none; fill:#ccc" d="M 270.5 393.357C 270.721 393.98 270.955 394.89 271.673 394.89C 272.803 394.89 272.803 392.89 273.934 392.89L 270.5 392.89C 270.5 393.041 270.5 393.198 270.5 393.357z"/>
			</g>
			<path style="stroke:none; fill:#339" d="M 272.367 409.89C 273.962 408.932 276 407.413 276 405.89C 276 407.413 278.038 408.932 279.633 409.89L 279.967 409.89C 277.114 407.582 276 403.89 276 403.89C 276 403.89 274.886 407.582 272.033 409.89L 272.367 409.89z"/>
			<path style="stroke:none; fill:#339" d="M 273.5 397.89C 273 397.89 273 398.39 273 398.89C 273 399.89 272 405.89 268 408.89C 268 408.89 270.806 407.278 272.5 403.89C 273.5 401.89 274 400.39 274 398.89C 274 398.39 274 397.89 273.5 397.89z"/>
			<path style="stroke:none; fill:#339" d="M 278.5 397.89C 279 397.89 279 398.39 279 398.89C 279 399.89 280 405.89 284 408.89C 284 408.89 281.194 407.278 279.5 403.89C 278.5 401.89 278 400.39 278 398.89C 278 398.39 278 397.89 278.5 397.89z"/>
			<path style="stroke:none; fill:#66c" d="M 273.5 397.89C 273 397.89 273 398.39 273 398.89C 273 399.235 272.88 400.179 272.559 401.39C 271.95 403.68 274 400.39 274 398.89C 274 398.39 274 397.89 273.5 397.89z"/>
			<path style="stroke:none; fill:#66c" d="M 278.5 397.89C 279 397.89 279 398.39 279 398.89C 279 399.235 279.12 400.179 279.441 401.389C 280.05 403.679 278 400.39 278 398.89C 278 398.39 278 397.89 278.5 397.89z"/>
		</g>
		<g>
			<path style="stroke:none; fill:#6cf" d="M 288 409.89L 264 409.89L 264 385.89L 288 385.89L 288 409.89z"/>
			<path style="stroke:none; fill:#339" d="M 273.5 397.89C 273 397.89 273 398.39 273 398.89C 273 399.39 272 405.89 268 408.89C 268 408.89 270.806 407.278 272.5 403.89C 273.5 401.89 274 400.39 274 398.89C 274 398.39 274 397.89 273.5 397.89z"/>
			<path style="stroke:none; fill:#339" d="M 278.5 397.89C 279 397.89 279 398.39 279 398.89C 279 399.39 280 405.89 284 408.89C 284 408.89 281.194 407.278 279.5 403.89C 278.5 401.89 278 400.39 278 398.89C 278 398.39 278 397.89 278.5 397.89z"/>
			<path style="stroke:none; fill:#66c" d="M 281.5 395.857L 276 394.373L 270.5 395.857C 270.5 400.39 265.5 406.89 264 406.89L 264 409.89L 288 409.89L 288 406.89C 286.5 406.89 281.5 400.39 281.5 395.857z"/>
			<path style="stroke:none; fill:#339" d="M 288 406.89C 286 406.89 281.749 403.125 281.5 395.857L 276 393.39L 270.5 395.857C 270.249 403.182 266 406.89 264 406.89C 264 406.89 264 409.39 264 409.89L 288 409.89L 288 406.89z"/>
			<path style="stroke:none; fill:#006" d="M 288 408.39C 285 408.39 281.5 402.65 281.5 395.857L 276 393.39L 270.5 395.857C 270.5 402.651 266.5 408.39 264 408.39L 264 409.89L 288 409.89L 288 408.39z"/>
			<path style="stroke:none; fill:#fff" d="M 276 392.89L 270.5 392.89C 270.5 393.996 270.5 395.39 270.5 395.857C 270.721 396.48 270.955 397.39 271.673 397.39C 272.803 397.39 272.803 395.39 273.934 395.39C 275.055 395.39 274.879 397.39 276 397.39C 277.121 397.39 276.945 395.39 278.066 395.39C 279.197 395.39 279.197 397.39 280.327 397.39C 281.045 397.39 281.279 396.48 281.5 395.857C 281.5 395.39 281.5 393.996 281.5 392.89L 276 392.89z"/>
			<g>
				<path style="stroke:none; fill:#ccc" d="M 280.327 394.89C 281.045 394.89 281.279 393.98 281.5 393.357C 281.5 393.198 281.5 393.041 281.5 392.89L 278.066 392.89C 279.197 392.89 279.197 394.89 280.327 394.89z"/>
				<path style="stroke:none; fill:#ccc" d="M 273.934 392.89C 275.055 392.89 274.879 394.89 276 394.89C 277.121 394.89 276.945 392.89 278.066 392.89L 276 392.89L 273.934 392.89z"/>
				<path style="stroke:none; fill:#ccc" d="M 270.5 393.357C 270.721 393.98 270.955 394.89 271.673 394.89C 272.803 394.89 272.803 392.89 273.934 392.89L 270.5 392.89C 270.5 393.041 270.5 393.198 270.5 393.357z"/>
			</g>
			<path style="stroke:none; fill:#339" d="M 272.367 409.89C 273.962 408.932 276 407.413 276 405.89C 276 407.413 278.038 408.932 279.633 409.89L 279.967 409.89C 277.114 407.582 276 403.89 276 403.89C 276 403.89 274.886 407.582 272.033 409.89L 272.367 409.89z"/>
			<path style="stroke:none; fill:#339" d="M 273.5 397.89C 273 397.89 273 398.39 273 398.89C 273 399.89 272 405.89 268 408.89C 268 408.89 270.806 407.278 272.5 403.89C 273.5 401.89 274 400.39 274 398.89C 274 398.39 274 397.89 273.5 397.89z"/>
			<path style="stroke:none; fill:#339" d="M 278.5 397.89C 279 397.89 279 398.39 279 398.89C 279 399.89 280 405.89 284 408.89C 284 408.89 281.194 407.278 279.5 403.89C 278.5 401.89 278 400.39 278 398.89C 278 398.39 278 397.89 278.5 397.89z"/>
			<path style="stroke:none; fill:#66c" d="M 273.5 397.89C 273 397.89 273 398.39 273 398.89C 273 399.235 272.88 400.179 272.559 401.39C 271.95 403.68 274 400.39 274 398.89C 274 398.39 274 397.89 273.5 397.89z"/>
			<path style="stroke:none; fill:#66c" d="M 278.5 397.89C 279 397.89 279 398.39 279 398.89C 279 399.235 279.12 400.179 279.441 401.389C 280.05 403.679 278 400.39 278 398.89C 278 398.39 278 397.89 278.5 397.89z"/>
		</g>
		<g>
			<path style="stroke:none; fill:#6cf" d="M 288 409.89L 264 409.89L 264 385.89L 288 385.89L 288 409.89z"/>
			<path style="stroke:none; fill:#f93" d="M 279.646 385.89L 273.161 401.188L 286.47 385.89L 279.646 385.89z"/>
			<path style="stroke:none; fill:#f93" d="M 288 390.452L 270.5 397.89L 288 396.502L 288 390.452z"/>
			<path style="stroke:none; fill:#f93" d="M 288 403.451L 280.002 395.688L 278.405 396.893L 284.082 407.786L 288 408.358L 288 403.451z"/>
			<path style="stroke:none; fill:#fc6" d="M 279.999 385.89L 278 393.484L 286.878 385.89L 279.999 385.89z"/>
			<path style="stroke:none; fill:#fc6" d="M 288 390.327L 279.34 395.735L 288 396.295L 288 390.327z"/>
			<path style="stroke:none; fill:#fc6" d="M 288 403.73L 280.935 398.614L 284.136 407.793L 288 408.358L 288 403.73z"/>
			<path style="stroke:none; fill:#ff9" d="M 280.954 385.89L 279.597 390.943L 285.359 385.89L 280.954 385.89z"/>
			<path style="stroke:none; fill:#ff9" d="M 288 391.6L 282.255 395.024L 288 395.366L 288 391.6z"/>
			<path style="stroke:none; fill:#ff9" d="M 288 404.88L 282.728 401.019L 285.194 407.948L 288 408.358L 288 404.88z"/>
			<path style="stroke:none; fill:#f93" d="M 272.354 385.89L 278.839 401.188L 265.53 385.89L 272.354 385.89z"/>
			<path style="stroke:none; fill:#f93" d="M 264 390.452L 281.5 397.89L 264 396.502L 264 390.452z"/>
			<path style="stroke:none; fill:#f93" d="M 264 403.451L 271.998 395.688L 273.595 396.893L 267.918 407.786L 264 408.358L 264 403.451z"/>
			<path style="stroke:none; fill:#fc6" d="M 272.001 385.89L 274 393.484L 265.122 385.89L 272.001 385.89z"/>
			<path style="stroke:none; fill:#fc6" d="M 264 390.327L 272.66 395.735L 264 396.295L 264 390.327z"/>
			<path style="stroke:none; fill:#fc6" d="M 264 403.73L 271.065 398.614L 267.864 407.793L 264 408.358L 264 403.73z"/>
			<path style="stroke:none; fill:#ff9" d="M 271.046 385.89L 272.403 390.943L 266.641 385.89L 271.046 385.89z"/>
			<path style="stroke:none; fill:#ff9" d="M 264 391.6L 269.745 395.024L 264 395.366L 264 391.6z"/>
			<path style="stroke:none; fill:#ff9" d="M 264 404.88L 269.272 401.019L 266.806 407.948L 264 408.358L 264 404.88z"/>
			<path style="stroke:none; fill:#339" d="M 273.5 397.89C 273 397.89 273 398.39 273 398.89C 273 399.39 272 405.89 268 408.89C 268 408.89 270.806 407.278 272.5 403.89C 273.5 401.89 274 400.39 274 398.89C 274 398.39 274 397.89 273.5 397.89z"/>
			<path style="stroke:none; fill:#339" d="M 278.5 397.89C 279 397.89 279 398.39 279 398.89C 279 399.39 280 405.89 284 408.89C 284 408.89 281.194 407.278 279.5 403.89C 278.5 401.89 278 400.39 278 398.89C 278 398.39 278 397.89 278.5 397.89z"/>
			<path style="stroke:none; fill:#66c" d="M 281.5 395.857L 276 394.373L 270.5 395.857C 270.5 400.39 265.5 406.89 264 406.89L 264 409.89L 288 409.89L 288 406.89C 286.5 406.89 281.5 400.39 281.5 395.857z"/>
			<path style="stroke:none; fill:#339" d="M 288 406.89C 286 406.89 281.749 403.125 281.5 395.857L 276 393.39L 270.5 395.857C 270.249 403.182 266 406.89 264 406.89C 264 406.89 264 409.39 264 409.89L 288 409.89L 288 406.89z"/>
			<path style="stroke:none; fill:#006" d="M 288 408.39C 285 408.39 281.5 402.65 281.5 395.857L 276 393.39L 270.5 395.857C 270.5 402.651 266.5 408.39 264 408.39L 264 409.89L 288 409.89L 288 408.39z"/>
			<path style="stroke:none; fill:#fff" d="M 276 392.89L 270.5 392.89C 270.5 393.996 270.5 395.39 270.5 395.857C 270.721 396.48 270.955 397.39 271.673 397.39C 272.803 397.39 272.803 395.39 273.934 395.39C 275.055 395.39 274.879 397.39 276 397.39C 277.121 397.39 276.945 395.39 278.066 395.39C 279.197 395.39 279.197 397.39 280.327 397.39C 281.045 397.39 281.279 396.48 281.5 395.857C 281.5 395.39 281.5 393.996 281.5 392.89L 276 392.89z"/>
			<g>
				<path style="stroke:none; fill:#ccc" d="M 280.327 394.89C 281.045 394.89 281.279 393.98 281.5 393.357C 281.5 393.198 281.5 393.041 281.5 392.89L 278.066 392.89C 279.197 392.89 279.197 394.89 280.327 394.89z"/>
				<path style="stroke:none; fill:#ccc" d="M 273.934 392.89C 275.055 392.89 274.879 394.89 276 394.89C 277.121 394.89 276.945 392.89 278.066 392.89L 276 392.89L 273.934 392.89z"/>
				<path style="stroke:none; fill:#ccc" d="M 270.5 393.357C 270.721 393.98 270.955 394.89 271.673 394.89C 272.803 394.89 272.803 392.89 273.934 392.89L 270.5 392.89C 270.5 393.041 270.5 393.198 270.5 393.357z"/>
			</g>
			<path style="stroke:none; fill:#339" d="M 272.367 409.89C 273.962 408.932 276 407.413 276 405.89C 276 407.413 278.038 408.932 279.633 409.89L 279.967 409.89C 277.114 407.582 276 403.89 276 403.89C 276 403.89 274.886 407.582 272.033 409.89L 272.367 409.89z"/>
			<path style="stroke:none; fill:#339" d="M 273.5 397.89C 273 397.89 273 398.39 273 398.89C 273 399.89 272 405.89 268 408.89C 268 408.89 270.806 407.278 272.5 403.89C 273.5 401.89 274 400.39 274 398.89C 274 398.39 274 397.89 273.5 397.89z"/>
			<path style="stroke:none; fill:#339" d="M 278.5 397.89C 279 397.89 279 398.39 279 398.89C 279 399.89 280 405.89 284 408.89C 284 408.89 281.194 407.278 279.5 403.89C 278.5 401.89 278 400.39 278 398.89C 278 398.39 278 397.89 278.5 397.89z"/>
			<path style="stroke:none; fill:#66c" d="M 273.5 397.89C 273 397.89 273 398.39 273 398.89C 273 399.235 272.88 400.179 272.559 401.39C 271.95 403.68 274 400.39 274 398.89C 274 398.39 274 397.89 273.5 397.89z"/>
			<path style="stroke:none; fill:#66c" d="M 278.5 397.89C 279 397.89 279 398.39 279 398.89C 279 399.235 279.12 400.179 279.441 401.389C 280.05 403.679 278 400.39 278 398.89C 278 398.39 278 397.89 278.5 397.89z"/>
		</g>
		<g>
			<path style="stroke:none; fill:#6cf" d="M 288 409.89L 264 409.89L 264 385.89L 288 385.89L 288 409.89z"/>
			<path style="stroke:none; fill:#339" d="M 273.5 397.89C 273 397.89 273 398.39 273 398.89C 273 399.39 272 405.89 268 408.89C 268 408.89 270.806 407.278 272.5 403.89C 273.5 401.89 274 400.39 274 398.89C 274 398.39 274 397.89 273.5 397.89z"/>
			<path style="stroke:none; fill:#339" d="M 278.5 397.89C 279 397.89 279 398.39 279 398.89C 279 399.39 280 405.89 284 408.89C 284 408.89 281.194 407.278 279.5 403.89C 278.5 401.89 278 400.39 278 398.89C 278 398.39 278 397.89 278.5 397.89z"/>
			<path style="stroke:none; fill:#66c" d="M 281.5 395.857L 276 394.373L 270.5 395.857C 270.5 400.39 265.5 406.89 264 406.89L 264 409.89L 288 409.89L 288 406.89C 286.5 406.89 281.5 400.39 281.5 395.857z"/>
			<path style="stroke:none; fill:#339" d="M 288 406.89C 286 406.89 281.749 403.125 281.5 395.857L 276 393.39L 270.5 395.857C 270.249 403.182 266 406.89 264 406.89C 264 406.89 264 409.39 264 409.89L 288 409.89L 288 406.89z"/>
			<path style="stroke:none; fill:#006" d="M 288 408.39C 285 408.39 281.5 402.65 281.5 395.857L 276 393.39L 270.5 395.857C 270.5 402.651 266.5 408.39 264 408.39L 264 409.89L 288 409.89L 288 408.39z"/>
			<path style="stroke:none; fill:#fff" d="M 276 392.89L 270.5 392.89C 270.5 393.996 270.5 395.39 270.5 395.857C 270.721 396.48 270.955 397.39 271.673 397.39C 272.803 397.39 272.803 395.39 273.934 395.39C 275.055 395.39 274.879 397.39 276 397.39C 277.121 397.39 276.945 395.39 278.066 395.39C 279.197 395.39 279.197 397.39 280.327 397.39C 281.045 397.39 281.279 396.48 281.5 395.857C 281.5 395.39 281.5 393.996 281.5 392.89L 276 392.89z"/>
			<g>
				<path style="stroke:none; fill:#ccc" d="M 280.327 394.89C 281.045 394.89 281.279 393.98 281.5 393.357C 281.5 393.198 281.5 393.041 281.5 392.89L 278.066 392.89C 279.197 392.89 279.197 394.89 280.327 394.89z"/>
				<path style="stroke:none; fill:#ccc" d="M 273.934 392.89C 275.055 392.89 274.879 394.89 276 394.89C 277.121 394.89 276.945 392.89 278.066 392.89L 276 392.89L 273.934 392.89z"/>
				<path style="stroke:none; fill:#ccc" d="M 270.5 393.357C 270.721 393.98 270.955 394.89 271.673 394.89C 272.803 394.89 272.803 392.89 273.934 392.89L 270.5 392.89C 270.5 393.041 270.5 393.198 270.5 393.357z"/>
			</g>
			<path style="stroke:none; fill:#339" d="M 272.367 409.89C 273.962 408.932 276 407.413 276 405.89C 276 407.413 278.038 408.932 279.633 409.89L 279.967 409.89C 277.114 407.582 276 403.89 276 403.89C 276 403.89 274.886 407.582 272.033 409.89L 272.367 409.89z"/>
			<path style="stroke:none; fill:#339" d="M 273.5 397.89C 273 397.89 273 398.39 273 398.89C 273 399.89 272 405.89 268 408.89C 268 408.89 270.806 407.278 272.5 403.89C 273.5 401.89 274 400.39 274 398.89C 274 398.39 274 397.89 273.5 397.89z"/>
			<path style="stroke:none; fill:#339" d="M 278.5 397.89C 279 397.89 279 398.39 279 398.89C 279 399.89 280 405.89 284 408.89C 284 408.89 281.194 407.278 279.5 403.89C 278.5 401.89 278 400.39 278 398.89C 278 398.39 278 397.89 278.5 397.89z"/>
			<path style="stroke:none; fill:#66c" d="M 273.5 397.89C 273 397.89 273 398.39 273 398.89C 273 399.235 272.88 400.179 272.559 401.39C 271.95 403.68 274 400.39 274 398.89C 274 398.39 274 397.89 273.5 397.89z"/>
			<path style="stroke:none; fill:#66c" d="M 278.5 397.89C 279 397.89 279 398.39 279 398.89C 279 399.235 279.12 400.179 279.441 401.389C 280.05 403.679 278 400.39 278 398.89C 278 398.39 278 397.89 278.5 397.89z"/>
		</g>
	</g>
</svg>
