<svg xmlns="http://www.w3.org/2000/svg" width="24" height="24">
	<g transform="translate(-264,-386)" id="KDDI_D_343">
		<g>
			<path style="stroke:none; fill:none" d="M 288 409.89L 264 409.89L 264 385.89L 288 385.89L 288 409.89z"/>
		</g>
		<g>
			<path style="stroke:none; fill:#f06" d="M 279 385.89C 279 385.89 279.5 387.89 281 387.89C 282.5 387.89 288 388.89 288 396.39C 288 403.89 281.5 402.89 281.5 402.89C 281.5 402.89 284 401.89 284 397.89C 284 394.278 282.438 394.376 281.062 394.376C 279.821 394.376 279 393.888 279 392.89"/>
			<path style="stroke:#f06; stroke-width:2; fill:none" d="M 278 385.89L 278 402.845"/>
			<g>
				<path style="stroke:none; fill:#900" d="M 281.062 394.376C 282.365 394.376 283.834 394.294 283.985 397.357C 283.99 397.229 284 397.107 284 396.973C 284 393.362 282.438 393.46 281.062 393.46C 279.821 393.46 279 392.972 279 391.973L 279 392.89C 279 393.888 279.821 394.376 281.062 394.376z"/>
				<path style="stroke:none; fill:#900" d="M 288 396.39C 288 396.214 287.982 396.059 287.977 395.891C 287.795 401.001 284.462 401.901 282.648 402.003C 282.059 402.661 281.5 402.89 281.5 402.89C 281.5 402.89 288 403.89 288 396.39z"/>
			</g>
			<path style="stroke:none; fill:#f06" d="M 278.627 401.175C 279.857 403.616 277.996 407.037 274.469 408.814C 270.942 410.591 267.087 410.051 265.855 407.61C 264.626 405.169 266.487 401.748 270.014 399.972C 273.541 398.195 277.397 398.734 278.627 401.175z"/>
			<path style="stroke:none; fill:#f39" d="M 273.64 400.839C 274.234 402.02 273.336 403.671 271.631 404.528C 269.926 405.388 268.065 405.127 267.469 403.949C 266.875 402.769 267.774 401.117 269.479 400.257C 271.182 399.399 273.047 399.66 273.64 400.839z"/>
			<path style="stroke:none; fill:#f9f" d="M 272.192 401.032C 272.549 401.741 272.01 402.732 270.987 403.246C 269.964 403.762 268.847 403.605 268.489 402.899C 268.133 402.19 268.673 401.199 269.696 400.683C 270.717 400.168 271.836 400.325 272.192 401.032z"/>
			<path style="stroke:none; fill:#fcf" d="M 271.193 401.18C 271.407 401.606 271.084 402.2 270.47 402.508C 269.856 402.818 269.186 402.724 268.972 402.3C 268.758 401.875 269.082 401.28 269.695 400.971C 270.308 400.662 270.98 400.756 271.193 401.18z"/>
			<path style="stroke:none; fill:#900" d="M 274.469 407.855C 270.942 409.632 267.087 409.092 265.855 406.652C 265.669 406.282 265.562 405.888 265.513 405.482C 265.425 406.228 265.525 406.955 265.855 407.61C 267.087 410.051 270.942 410.591 274.469 408.814C 277.461 407.307 279.246 404.618 278.97 402.346C 278.73 404.378 277.048 406.556 274.469 407.855z"/>
		</g>
	</g>
</svg>
