<svg xmlns="http://www.w3.org/2000/svg" height="24" width="24">
    <g transform="matrix(1,0,0,-1,-264,408)" id="KDDI_D_">        <path d="M284 391.7c0-4.1-3.6-7.5-8-7.5s-8 3.4-8 7.5 3.6 8.7 8 8.7 8-4.6 8-8.7z" fill="#fcc"/>
        <path d="M276.4 400.3c3-1.4 5.1-4.8 5.1-7.9 0-4.2-3.6-7.5-8-7.5h-.9c1-.4 2.2-.7 3.4-.7 4.4 0 8 3.4 8 7.5 0 4-3.3 8.3-7.6 8.6z" fill="#f99"/>
        <path d="M284 391.7c0 1.9-.8 3.9-2 5.5.8-1.9 1.1-4.1.7-6.1-.6-3.5-3-6.1-6-6.9 4.1.4 7.3 3.6 7.3 7.5z" fill="#f66"/>
        <path d="M269.4 390c-.4 0-.8-.1-1.1-.2.5-2 1.9-3.6 3.8-4.6.2.4.3 1 .3 1.5 0 1.8-1.3 3.3-3 3.3z" fill="#f99"/>
        <path d="M270.2 395.1c-.5-1-.6-1.9-.2-2.1.4-.3 1.2.3 1.7 1.3.5.9.6 1.9.2 2.1-.4.2-1.2-.4-1.7-1.3z" fill="#fff"/>
        <path d="M273 385.1c-3 1.1-5 3.8-5 6.9 0 1 .2 1.9.5 2.7" fill="none" stroke="#c60" stroke-linecap="round"/>
        <path d="M283.6 394.5c.2-.8.4-1.6.4-2.5 0-4.1-3.6-7.5-8-7.5-1.1 0-2.1.2-3 .6" fill="none" stroke="#930" stroke-linecap="round"/>
        <path d="M273.5 392c0-.9-.5-1.6-1.2-1.6s-1.2.7-1.2 1.6c0 .9.5 1.6 1.2 1.6s1.2-.7 1.2-1.6z"/>
        <path d="M270.3 393.2s.7-.2 1-.3c.5-.1 1.2.1 1.2.1s-.5-1.2-1.4-1c-.7.1-.8 1.2-.8 1.2zM281.5 392c0-.9-.5-1.6-1.2-1.6s-1.2.7-1.2 1.6c0 .9.5 1.6 1.2 1.6s1.2-.7 1.2-1.6z"/>
        <path d="M278.3 393.2s.7-.2 1-.3c.5-.1 1.2.1 1.2.1s-.5-1.2-1.4-1c-.7.1-.8 1.2-.8 1.2z"/>
        <path d="M274.7 388.9v-.2c0-.8.6-1.3 1.3-1.3.8 0 1.4.5 1.4 1.3v.2z" fill="#c00"/>
        <path d="M276 402.6c2.8 0 3.2-2.1 3.2-2.1s2.1.6 3.1.1c2.1-1.3 2.2-3.3 2.2-3.3s3.5-.8 3.5-4c0-2.4-1.1-2.9-2.5-3-.8 0-2.2 1.2-2.4 1.7-.8 1.9-.9 2.6-.8 4.4-2.4.2-3 2.5-3 2.5s-1.5-2.1-3.7-2.7c-2.2-.7-6-.4-6-.4s0-1.7-.2-2.5c-.1-.7-.6-3.4-3.2-2.8-1.9.4-2.2 1.9-2.1 3.6.1 2 3.5 3.1 3.5 3.1s.2 1.8 1.9 2.9c1.4.8 3.3.7 3.3.7s.5 1.8 3.2 1.8z" fill="#c90"/>
        <path d="M275.2 396.6c-2.2-.7-6-.3-6-.3s0-1.8-.2-2.6c-.2-.7-.7-3.4-3.3-2.8-.4.1-.7.3-1 .5.3-.4.8-.7 1.5-.9 2.6-.6 3.1 2.1 3.2 2.8.2.8.2 2.5.2 2.5s3.8-.3 6 .4c1.9.5 3.2 2.2 3.6 2.6-.3.3-.8.9-.8.9s-1.1-2.4-3.2-3.1zM284.5 397.3s-.1 2-2.2 3.3c-.6.3-1.4.2-2 .1.5.1 1.6 0 2.6-1 .7-.8.9-2.4.9-2.4s3.4-.9 3.3-3.8c0-1.2-1.2-2.3-2-2.4-.5 0-1.2.1-1.8.6.5-.6 1.6-1.4 2.2-1.4 1.4.1 2.5.6 2.5 3 0 3.2-3.5 4-3.5 4z" fill="#c60"/>
        <path d="M269.5 400.1c-1.7-1.1-1.9-2.9-1.9-2.9s1-.5 1.4-.1c.4.4 0 .4 0 1.4 0 .8.4 1 .6 1.6h-.1zM275.3 400c.1.5-.4.8-.6 1.3-.2.2 0 .6.1 1.1-1.7-.4-2-1.6-2-1.6s.5-.6.9-.9c.7-.4 1.3-.4 1.6.1zM264.1 394.1c0-.6 0-1.3.1-1.8 1-.2 1.6 0 1.7.4.2.6-.1 1-.6 1.4-.3.3-.4.9-.4 1.6-.4-.4-.8-1-.8-1.6z" fill="#fc3"/>
        <path d="M276 407.9c-4 0-7.3-1-7.3-2.3 0-1.3 3.3-2.3 7.3-2.3 4.1 0 7.4 1 7.4 2.3 0 1.3-3.3 2.3-7.4 2.3m0-3.9c-3 0-5.5.8-5.5 1.8s2.5 1.7 5.5 1.7c3.1 0 5.5-.7 5.5-1.7s-2.4-1.8-5.5-1.8z" fill="#69c"/>
        <path d="M270.5 405.8c0 .5.7 1 1.8 1.3l-.7.3c-1.8-.4-2.9-1-2.9-1.8v-.2h2c-.1.1-.2.3-.2.4z" fill="#9cf"/>
    </g>
</svg>
