<svg xmlns="http://www.w3.org/2000/svg" height="24" width="24">
    <g transform="matrix(1,0,0,-1,-264,408)" id="KDDI_D_">        <path d="M272.7 403.6c0 1.7-1.9 3.9-4.1 3.9-2.3 0-4.3-1.2-4.2-4.4.1-1.5 1.9-3.9 1.9-3.9M279.3 403.6c0 1.7 1.9 3.9 4.1 3.9 2.3 0 4.4-1.2 4.2-4.4-.1-1.5-1.8-3.9-1.8-3.9" fill="#fc0"/>
        <path d="M270.8 403.4c0 1-1.1 2.1-2.2 2.1-1.2 0-2.3-.6-2.2-2.3.1-.8 1-2.1 1-2.1M281.2 403.4c0 1 1.1 2.1 2.2 2.1 1.2 0 2.3-.6 2.2-2.3-.1-.8-1-2.1-1-2.1" fill="#f60"/>
        <path d="M287.6 394.2c0-5.4-5.1-9.8-11.5-9.8-6.3 0-11.5 4.4-11.5 9.8s5.2 9.8 11.5 9.8c6.4 0 11.5-4.4 11.5-9.8z" fill="#fc0"/>
        <path d="M287.6 394.2c0 5.2-4.8 9.5-10.9 9.8 5.1-1.7 7-5.5 7-10 0-4.1-2.4-7.7-6-9.5 5.6.7 9.9 4.8 9.9 9.7z" fill="#c93"/>
        <path d="M287.6 394.2c0 2.9-1.5 5.5-3.8 7.2 1.3-1.8 2.1-4.1 2.1-6.5 0-4.3-2.3-7.9-5.8-9.9 4.4 1.4 7.5 5 7.5 9.2z" fill="#960"/>
        <path d="M276 393.4c-2.6 0-4.7-2.1-4.7-4.7v-3.4c1.5-.6 3.1-.9 4.8-.9 1.7 0 3.2.3 4.7.8v3.5c0 2.6-2.1 4.7-4.8 4.7z" fill="#fff"/>
        <path d="M271.4 399.8c.4-.7-.2-1.4-1.1-2.1-1-.8-2-1-2.4-.5-.3.5-.2 1.6.9 2.5.9.7 2.2 1 2.6.1z" fill="#ff6"/>
        <path d="M272.7 403.6c0 1.7-1.9 3.9-4.1 3.9-2.3 0-4.3-1.2-4.2-4.4.1-1.5 1.9-3.9 1.9-3.9M279.3 403.6c0 1.7 1.9 3.9 4.1 3.9 2.3 0 4.4-1.2 4.2-4.4-.1-1.5-1.8-3.9-1.8-3.9" fill="none" stroke="#000"/>
        <path d="M287.6 394.2c0-5.4-5.1-9.8-11.5-9.8-6.3 0-11.5 4.4-11.5 9.8s5.2 9.8 11.5 9.8c6.4 0 11.5-4.4 11.5-9.8z" fill="none" stroke="#000"/>
        <path d="M276.1 403.7v-8.5M273.1 402.8s1.9.5 2.9.5 3.1-.3 3.1-.3M273.4 399.9h5.3M273.4 396.6h5.3" fill="none" stroke="#000" stroke-width="1.5" stroke-linecap="round"/>
        <path d="M271.5 394c0-.6-.4-1-1-1s-1 .4-1 1 .4 1 1 1 1-.4 1-1zM280.5 394c0-.6.4-1 1-1s1 .4 1 1-.4 1-1 1-1-.4-1-1z"/>
        <path d="M266.1 398.5s1.2-1.3 1.7-1.4M264.9 393.9s1.6-.5 2.7-.4M265.9 390.3s1.9-.6 3-.6M285.9 398.5s-1.1-1.3-1.7-1.4M287.1 393.9s-1.6-.5-2.7-.4M286.1 390.3s-1.9-.6-3-.6" fill="none" stroke="#000" stroke-width="1.5" stroke-linecap="round"/>
        <path d="M278.8 389c0-1.2-1.6-2.1-2.7-2.1-1.2 0-2.8.9-2.8 2.1 0 1.1.3 2 2.8 2 2.4 0 2.7-.9 2.7-2z"/>
        <path d="M276.7 390.2c1 0 1.6-.1 2-.3-.3.6-.9 1.1-2.6 1.1-2.5 0-2.8-.9-2.8-2 0-.6.4-1 .8-1.4-.1.2-.1.4-.1.6 0 1.1.3 2 2.7 2z" fill="#333"/>
        <path d="M276.1 384.3v3.4" fill="none" stroke="#000" stroke-width="1.5"/>
        <path d="M273 384.6s2.6.8 3.1 2c.4-1.2 2.9-2 2.9-2z"/>
    </g>
</svg>
