<svg xmlns="http://www.w3.org/2000/svg" height="24" width="24">
    <g transform="matrix(1,0,0,-1,-264,408)" id="KDDI_D_">        <path d="M273.3 401.8c0-2.3-2-4.1-4.5-4.1-2.4 0-4.4 1.8-4.4 4.1 0 2.2 2 4 4.4 4 2.5 0 4.5-1.8 4.5-4z" fill="#c90"/>
        <path d="M269.9 405.1c.8 0 1.5-.2 2.1-.5-.8.7-1.9 1.2-3.2 1.2-2.4 0-4.4-1.8-4.4-4 0-1.6 1-2.9 2.3-3.6-.7.8-1.2 1.7-1.2 2.8 0 2.3 2 4.1 4.4 4.1z" fill="#fc3"/>
        <path d="M273.3 401.8c0-2.3-2-4.1-4.5-4.1-2.4 0-4.4 1.8-4.4 4.1 0 2.2 2 4 4.4 4 2.5 0 4.5-1.8 4.5-4z" fill="none" stroke="#930"/>
        <path d="M278.8 401.8c0-2.3 1.9-4.1 4.4-4.1 2.4 0 4.4 1.8 4.4 4.1 0 2.2-2 4-4.4 4-2.5 0-4.4-1.8-4.4-4z" fill="#c90"/>
        <path d="M284.3 405.1c.7 0 1.4-.2 2.1-.5-.8.7-2 1.2-3.2 1.2-2.5 0-4.4-1.8-4.4-4 0-1.6.9-2.9 2.3-3.6-.8.8-1.3 1.7-1.3 2.8 0 2.3 2 4.1 4.5 4.1z" fill="#fc3"/>
        <path d="M278.8 401.8c0-2.3 1.9-4.1 4.4-4.1 2.4 0 4.4 1.8 4.4 4.1 0 2.2-2 4-4.4 4-2.5 0-4.4-1.8-4.4-4z" fill="none" stroke="#930"/>
        <path d="M287.6 393.3c0-4.9-5.1-9-11.5-9-6.3 0-11.5 4.1-11.5 9 0 5 5.2 9 11.5 9 6.4 0 11.5-4 11.5-9z" fill="#c90"/>
        <path d="M287.5 393.3c0 4.8-4.2 8.2-9.2 8.7 4.4-1.7 6-4.6 6-8.7 0-3.8-2.4-7.1-6.6-8.9 5.6.7 9.8 4.4 9.8 8.9z" fill="#960"/>
        <path d="M287.6 393.3c0 2.7-1.5 5.1-3.8 6.7 1.3-1.7 2.1-3.8 2.1-6 0-3.9-2.3-7.3-5.8-9.1 4.4 1.3 7.5 4.6 7.5 8.4z" fill="#630"/>
        <path d="M276 390.8c-2.7 0-4.6-2-4.9-3.3-.3-1.3-.6-2.5-.6-2.5 1.5-.4 3.8-.7 5.6-.7 1.7 0 4.1.3 5.5.7 0 0-.2 1.1-.6 2.5-.4 1.5-2.3 3.3-5 3.3z" fill="#fff"/>
        <path d="M272 399c.4-.7-.3-1.4-1.4-2.2-1.1-.8-2.3-1.1-2.7-.6-.4.4-.2 1.5 1.1 2.5 1.1.8 2.6 1.1 3 .3z" fill="#fc3"/>
        <path d="M271.5 393.2c0-.5-.4-.9-1-.9s-1 .4-1 .9.4.9 1 .9 1-.4 1-.9zM280.5 393.2c0-.5.4-.9 1-.9s1 .4 1 .9-.4.9-1 .9-1-.4-1-.9z"/>
        <path d="M276.1 389.7v-2.4c0-.8-1.4-2.5-3.8-2.5M276.1 389.7v-2.4c0-.8 1.4-2.5 3.7-2.5" fill="none" stroke="#333" stroke-linejoin="round"/>
        <path d="M284.9 399.3c1.7-1.6 2.7-3.7 2.7-6 0-4.9-4.1-9-11.5-9s-11.5 4.1-11.5 9c0 5 4.7 9 11.5 9 3.7 0 6.8-1.2 8.8-3" fill="none" stroke="#930"/>
        <path d="M278.7 389.8c0-1.1-1.7-1.9-2.7-1.9-1 0-2.8.8-2.8 1.9 0 1 .4 1.8 2.8 1.8 2.3 0 2.7-.8 2.7-1.8z"/>
        <path d="M276.7 390.9c.8 0 1.5-.1 1.9-.3-.3.6-1 1-2.6 1-2.4 0-2.8-.8-2.8-1.8 0-.5.4-.9.9-1.2-.1.1-.2.3-.2.5 0 1 .4 1.8 2.8 1.8z" fill="#333"/>
    </g>
</svg>
