<svg xmlns="http://www.w3.org/2000/svg" height="24" width="24">
    <g transform="matrix(1,0,0,-1,-264,408)" id="KDDI_D_">        <path d="M274.6 400.7c0-3.1-2.3-5.5-5.1-5.5s-5.1 2.4-5.1 5.5 2.3 5.6 5.1 5.6 5.1-2.5 5.1-5.6z" fill="#fff"/>
        <path d="M272.8 400.7c0-2-1.5-3.6-3.3-3.6-1.8 0-3.3 1.6-3.3 3.6s1.5 3.6 3.3 3.6c1.8 0 3.3-1.6 3.3-3.6z" fill="#f96"/>
        <path d="M266.9 400.3c0 2 1.5 3.6 3.3 3.6.4 0 .9-.1 1.3-.3-.6.4-1.3.7-2 .7-1.8 0-3.3-1.6-3.3-3.6 0-1.5.9-2.8 2-3.3-.8.6-1.3 1.7-1.3 2.9z" fill="#f63"/>
        <path d="M277.4 400.7c0-3.1 2.2-5.5 5.1-5.5 2.8 0 5 2.4 5 5.5s-2.2 5.6-5 5.6c-2.9 0-5.1-2.5-5.1-5.6z" fill="#fff"/>
        <path d="M279.2 400.7c0-2 1.5-3.6 3.3-3.6 1.8 0 3.3 1.6 3.3 3.6s-1.5 3.6-3.3 3.6c-1.8 0-3.3-1.6-3.3-3.6z" fill="#f96"/>
        <path d="M279.7 400.3c0 2 1.5 3.6 3.4 3.6.5 0 1-.2 1.5-.4-.6.5-1.3.8-2.1.8-1.8 0-3.3-1.6-3.3-3.6 0-1.4.7-2.6 1.7-3.2-.7.7-1.2 1.7-1.2 2.8z" fill="#f63"/>
        <path d="M283.4 392.9c0-4.4-4.6-7.5-7.4-7.5-2.9 0-7.4 3.1-7.4 7.5 0 4.5 3.3 7.3 7.4 7.3 4.1 0 7.4-2.8 7.4-7.3z" fill="#fff"/>
        <path d="M279.8 399.3c1.3-1.4 2.1-3.3 2.1-5.7 0-4.5-3.9-7.6-6.7-8.1.3 0 .5-.1.8-.1 2.8 0 7.4 3.1 7.4 7.5 0 3-1.5 5.2-3.6 6.4z" fill="#ccc"/>
        <path d="M276 388.5v-3.1" fill="none" stroke="#999"/>
        <path d="M287.5 400.7c0 3.1-2.2 5.6-5 5.6-2.9 0-5.1-2.5-5.1-5.6v-.6c-.5 0-.9.1-1.4.1-.5 0-1-.1-1.4-.1v.6c0 3.1-2.3 5.6-5.1 5.6s-5.1-2.5-5.1-5.6c0-2.8 2-5.1 4.5-5.5-.2-.7-.3-1.5-.3-2.3 0-4.4 4.5-7.5 7.4-7.5 2.8 0 7.4 3.1 7.4 7.5 0 .8-.1 1.6-.3 2.3 2.5.3 4.4 2.7 4.4 5.5z" fill="none" stroke="#333"/>
        <path d="M273.3 393c0-.6-.5-1-1-1-.6 0-1 .4-1 1s.4 1 1 1c.5 0 1-.4 1-1zM278.8 393c0-.6.4-1 1-1 .5 0 1 .4 1 1s-.5 1-1 1c-.6 0-1-.4-1-1z"/>
        <path d="M277.3 388.8c0-.6-.6-1.1-1.3-1.1-.7 0-1.3.5-1.3 1.1 0 .6.6 1.1 1.3 1.1.7 0 1.3-.5 1.3-1.1z" fill="#c00"/>
        <path d="M271.4 389.8l-5-2.9M273.1 388.2l-5-2.9M280.6 389.8l5-2.9M278.9 388.2l5-2.9" fill="none" stroke="#666"/>
    </g>
</svg>
