<svg xmlns="http://www.w3.org/2000/svg" height="24" width="24">
    <g transform="matrix(1,0,0,-1,-264,408)" id="KDDI_D_">        <path d="M287.4 396c0-6.4-5.1-11.5-11.4-11.5-6.3 0-11.5 5.1-11.5 11.5 0 6.3 5.2 11.4 11.5 11.4s11.4-5.1 11.4-11.4z" fill="#fc9"/>
        <path d="M264.7 397.3c.5 2.1 1.6 4.6 3.2 6.8 2 2.6 7.8 3.2 7.8 3.2s-3.1-.5-5.8-3.4c-1.8-2-3.7-5.8-3.8-7.8-.5-4.6.5-7.1.5-7.1s-2.9 4-1.9 8.3z" fill="#ff9"/>
        <path d="M277.1 407.2s4.3-2.2 5.5-5.6c1.6-4.3 1.1-8.7-2.2-13.5-1.9-2.8-6-3.5-6-3.5 4.5-.6 13.3 1.4 13.3 10.5 0 9-7.3 12.1-10.6 12.1z" fill="#f96"/>
        <path d="M281.8 405.7s3.2-3.5 3.6-7.2c.3-3.6 0-7-1.8-9.4-2.5-3.4-5.2-4.2-5.2-4.2 4 0 8.9 3.9 9 10.3.1 8.7-5.6 10.5-5.6 10.5z" fill="#c60"/>
        <path d="M271.5 392.6c0-1.6-.9-3-2-3-1.2 0-2.1 1.4-2.1 3 0 1.7.9 3 2.1 3 1.1 0 2-1.3 2-3zM284.7 392.6c0-1.6-.9-3-2.1-3-1.1 0-2 1.4-2 3 0 1.7.9 3 2 3 1.2 0 2.1-1.3 2.1-3z" fill="#f99"/>
        <path d="M273.5 389.6l2.5 2 2.6-2" fill="none" stroke="#000"/>
        <path d="M281.2 400l-2.7 1.5M270.9 400l2.7 1.5" fill="none" stroke="#333"/>
        <path d="M272.7 398.9v-3.5M279.4 398.9v-3.5" fill="none" stroke="#000" stroke-width="1.7"/>
        <path d="M287.5 396c0-8.3-5.1-11.5-11.4-11.5-6.4 0-11.5 3.3-11.5 11.5 0 6.3 5.1 11.4 11.5 11.4 6.3 0 11.4-5.1 11.4-11.4z" fill="none" stroke="#000"/>
        <path d="M267.2 384.5c2.2 0 2.6 1.6 2.6 2.6 0 .9-.6 2.1-1.3 3.2-.9 1.2-1.3 3.1-1.3 3.1s-.4-1.9-1.3-3.1c-.7-1.1-1.3-2.3-1.3-3.2 0-1 .4-2.6 2.6-2.6z" fill="#9cf"/>
        <path d="M268.5 390.3c-.9 1.2-.2-1.1-.2-2 0-1.1-.3-2.7-2.1-2.7-.8 0-1.2.3-1.6.7.2-.9.9-1.8 2.6-1.8 2.2 0 2.6 1.6 2.6 2.6 0 .9-.6 2.1-1.3 3.2z" fill="#69f"/>
        <path d="M268.5 390.3c-.6.8-1 2-1.2 2.6 0-.8.5-2.4.8-3 .5-1.1.6-1.7.6-2.6 0-1.1-.4-2.2-2.3-2.2-.6 0-1.1.1-1.4.3.4-.5 1-.9 2.2-.9 2.2 0 2.6 1.6 2.6 2.6 0 .9-.6 2.1-1.3 3.2z" fill="#36c"/>
        <path d="M267.6 387.5c-.3-.9-1.1-1.4-1.7-1.2-.6.2-.9 1.2-.6 2.1.3 1 1.1 1.5 1.7 1.3.7-.3.9-1.2.6-2.2z" fill="#cff"/>
        <path d="M266.5 388.4c-.1-.3-.3-.4-.5-.4-.2.1-.2.4-.2.7.1.3.4.4.6.3.2 0 .2-.3.1-.6z" fill="#fff"/>
        <path d="M269.8 387.1c0 .4-.1.8-.2 1.1-.1-.7-.1-1.7-.7-2.5-.6-.9-1.8-1.1-2.5-1.2h.8c2.2 0 2.6 1.6 2.6 2.6z" fill="#039"/>
        <path d="M264.9 385.7c.3-.7 1-1.2 2.3-1.2 2.2 0 2.6 1.6 2.6 2.6 0 .9-.6 2.1-1.3 3.2-.9 1.2-1.3 3.1-1.3 3.1" fill="none" stroke="#039" stroke-linecap="round" stroke-linejoin="round"/>
        <path d="M267.2 393.4s-.4-1.9-1.3-3.1c-.7-1.1-1.3-2.3-1.3-3.2 0-.4 0-1 .3-1.4" fill="none" stroke="#69f" stroke-linecap="round" stroke-linejoin="round"/>
    </g>
</svg>
