<svg xmlns="http://www.w3.org/2000/svg" height="24" width="24">
    <g transform="matrix(1,0,0,-1,-264,408)" id="KDDI_D_">        <path d="M281.9 387.8s3.2-.5 4.5.9c2.1 2.1 1.6 4.8 1.6 4.8s-1.7-2.4-2.9-2.6c-2-.2-3.8.9-4.1 2-.2 1 .4 2 1 2.8 1.4 1.3 2.3 3.1 2.3 5.1 0 4-3.4 7.2-7.5 7.2s-7.4-3.2-7.4-7.2c0-1.8.8-3.5 2-4.8h-.1s2.1-1.7 1.8-2.8c-.4-1.3-2.8-1.9-4.3-1.9s-4.8 2-4.8 2 .5-4 3.2-5.2c2.3-1.1 5.1.1 5.1.1s.1-.9-1-2.1c-1-1-4.6-1.3-4.6-1.3s5.1-1.5 7.2-.4c2.2 1.2 3.4 3.8 3.4 3.8s1-2.8 3.4-3.9c2.3-1 6.6.3 6.6.3s-2.5.3-4 1.4c-.7.6-1.4 1.8-1.4 1.8z" fill="#f99"/>
        <path d="M272.4 398.9c-.3.6-.4 1.3-.4 2 0 1.5.9 3.2 1.8 3.7 1 .5 0 2-1.4.8-1.1-1-1.9-2.6-1.9-4.3 0-.7.2-1.9.6-2.6.8-1.2 1.7-.6 1.3.4z" fill="#fcc"/>
        <path d="M272.3 388.2s.1-.9-1-2.1c-.3-.2-.6-.4-1-.6.5 0 1.3 0 1.7.3 1.4 1.1 1.7 3.6 1.7 3.6l-1.2-.2z" fill="#f99"/>
        <path d="M273.3 388.1c-.2-.6-.4-1-1-1.8-.2-.3-.3-1.1.6-.3 1.4 1.3 1.5 3.1 1.5 3.7-.1.5-.8.6-.8-.1 0-.5-.2-.9-.3-1.5z" fill="#fcc"/>
        <path d="M272.5 389.2s-2.8-1.3-5.1-.2c-1.6.7-3.4 4.3-3.4 4.3s.5-4 3.2-5.2c2.3-1.1 5.1.1 5.1.1z" fill="#f66"/>
        <path d="M281.1 388.4l.8-.6s3.2-.5 4.5.9c2.1 2.1 1.6 4.8 1.6 4.8s-.3-.4-.7-.9c-.1-.4-.5-2.3-1.4-3.2-1.3-1.4-4.8-1-4.8-1z" fill="#f33"/>
        <path d="M280.9 396s-3.4-1.1-3.4-2.3c0-1.3 3.6-1.7 3.6-1.7l-.8 1.8z" fill="#f66"/>
        <path d="M281.6 405.5c.9-1.2 1.4-2.6 1.4-4.2 0-2-.9-3.8-2.3-5.1-.6-.8-1.2-1.8-.9-2.8.1-.8 1.1-1.6 2.4-1.9-.6.4-1.1.9-1.2 1.4-.2 1 .4 2 1 2.8 1.4 1.3 2.3 3.1 2.3 5.1 0 2-.9 3.8-2.2 5.1-.8.8-1.2.5-.5-.4zM280.8 385.3c-2.3 1.2-3.4 4.5-3.4 4.5s-1.6-3.7-4.1-4.8c-1.4-.6-3-.6-4.4-.7 1.7-.3 3.8-.5 5 .1 1.3.7 2.7 2.2 3.4 3.8 0 0 1-2.8 3.4-3.9 2.3-1 6.6.3 6.6.3s-4.7-.3-6.5.7z" fill="#f33"/>
        <path d="M273.3 401.5c0-.5-.4-.9-.9-.9s-.9.4-.9.9.4.9.9.9.9-.4.9-.9zM280.5 401.5c0-.5-.4-.9-.9-.9s-.9.4-.9.9.4.9.9.9.9-.4.9-.9z"/>
        <path d="M278 397.9c0-1.1-.9-1.9-1.9-1.9-1 0-1.9.8-1.9 1.9 0 1 .9 1.9 1.9 1.9 1 0 1.9-.9 1.9-1.9z" fill="#f66" stroke="#000" stroke-width="1.2"/>
    </g>
</svg>
