<svg xmlns="http://www.w3.org/2000/svg" height="24" width="24">
    <g transform="matrix(1,0,0,-1,-264,408)" id="KDDI_D_">        <path d="M265.4 387.3c0-.6.1-1.2.3-1.8.5-.2 1.1-.2 1.7-.2 3.8 0 6.8 3 6.8 6.7 0 .7-.1 1.2-.2 1.8-.6.2-1.2.3-1.8.3-3.7 0-6.8-3.1-6.8-6.8z" fill="red"/>
        <path d="M266.9 388.1c0-.4 0-.9.1-1.3.4-.1.8-.1 1.3 0 2.9.3 5.4 2.8 5.8 5.7 0 .5 0 .9-.1 1.3-.4.1-.9.1-1.3.1-2.9-.3-5.5-2.9-5.8-5.8z" fill="#f60"/>
        <path d="M268.4 389.3c0-.4 0-.7.1-1h.9c2.1.2 3.9 2 4.1 4.1v.9c-.3.1-.6.1-1 0-2-.2-3.8-2-4.1-4z" fill="#fc0"/>
        <path d="M276.6 399.6h-7l-5-5h7" fill="#ccc"/>
        <path d="M268.1 398.1h7l1.5 1.5h-7zM266.1 396.1l-1.5-1.5h7l1.5 1.5z" fill="#999"/>
        <path d="M269.6 399.6l-4.8-4.8" fill="none" stroke="#333" stroke-width="1.5" stroke-linecap="round"/>
        <path d="M279.6 396.6v-7l-5-5v7" fill="#ccc"/>
        <path d="M278.1 388.1v7l1.5 1.5v-7zM276.1 386.1l-1.5-1.5v7l1.5 1.5z" fill="#999"/>
        <path d="M279.6 389.6l-4.8-4.8" fill="none" stroke="#333" stroke-width="1.5" stroke-linecap="round"/>
        <path d="M270.6 391.6l1-1c7.7 0 14 6.2 14 14 0 .3-.1.6-.1.9-.3 0-.6.1-.9.1-7.8 0-14-6.3-14-14z" fill="#36f"/>
        <path d="M271.1 391l.4-.4c1 3.1 3.6 7 6.6 9.6 3.8 3.4 7.4 5.2 7.4 5.3h-.7c-7.6-.9-13.5-7-13.7-14.5z" fill="#39f"/>
        <path d="M273.5 396c1.1 1.7 2.5 3.4 4.1 4.7 1.1 1.1 2.3 2 3.4 2.7 1 .8.4 1.2-.6.7-3.4-1.6-6.1-4.3-7.6-7.6-.5-1.2 0-1.6.7-.5z" fill="#6cf"/>
        <path d="M270.6 392.1v-.5l1-1c7.7 0 14 6.2 14 14 0 .2-.1.4-.1.6-3.1-6.5-7.9-11.3-14.9-13.1z" fill="#33f"/>
        <path d="M270.6 391.6l1-1c7.7 0 14 6.2 14 14 0 .1-.1.3-.1.5-.7-7.3-7.1-13.1-14.9-13.5z" fill="#039"/>
        <path d="M277.6 400.8c.7.6 1.4 1.2 2.1 1.7l-.7.8c-.9-.4-1.6-1-2.3-1.6z" fill="#cff"/>
        <path d="M277.6 397.6l-6.7-6.7" fill="none" stroke="#000" stroke-width="1.5" stroke-linecap="round"/>
    </g>
</svg>
