<svg xmlns="http://www.w3.org/2000/svg" width="24" height="24">
	<g transform="translate(-264,-386)" id="KDDI_D_354">
		<g>
			<path style="stroke:none; fill:none" d="M 288 409.89L 264 409.89L 264 385.89L 288 385.89L 288 409.89z"/>
		</g>
		<g>
			<g>
				<path style="stroke:none; fill:#960" d="M 266.5 396.89C 265 396.89 264 393.39 264 393.39L 264 408.39L 266.5 408.39L 266.5 396.89z"/>
				<path style="stroke:none; fill:#960" d="M 285.5 396.89L 285.5 408.39L 288 408.39L 288 393.39C 288 393.39 287 396.89 285.5 396.89z"/>
			</g>
			<path style="stroke:none; fill:#960" d="M 268.5 400.39L 283.5 400.39L 283.5 389.39L 283.5 389.39C 283.5 389.39 282.5 396.89 280 396.89C 277.5 396.89 276 387.39 276 387.39L 276 387.39L 276 387.39C 276 387.39 274.5 396.89 272 396.89C 269.5 396.89 268.5 389.39 268.5 389.39L 268.5 389.39L 268.5 400.39z"/>
			<path style="stroke:none; fill:#960" d="M 285.5 396.89C 284 396.89 284 391.39 284 391.39L 283 391.39C 283 391.39 282.5 398.89 280 398.89C 277.5 398.89 276.5 389.39 276.5 389.39L 276 389.39L 275.5 389.39C 275.5 389.39 274.5 398.89 272 398.89C 269.5 398.89 269 391.39 269 391.39L 268 391.39C 268 391.39 268 396.89 266.5 396.89C 265 396.89 264 393.39 264 393.39L 264 409.89L 267.5 409.89C 267.5 409.89 266.5 407.89 276 407.89C 285.5 407.89 284.5 409.89 284.5 409.89L 288 409.89L 288 393.39C 288 393.39 287 396.89 285.5 396.89z"/>
			<path style="stroke:none; fill:#c93" d="M 285 409.89L 285 396.647C 284 395.585 284 391.39 284 391.39L 283 391.39C 283 391.39 282.5 398.89 280 398.89C 277.5 398.89 276.5 389.39 276.5 389.39L 276 389.39L 275.5 389.39C 275.5 389.39 274.5 398.89 272 398.89C 269.5 398.89 269 391.39 269 391.39L 268 391.39C 268 391.39 268 396.89 266.5 396.89C 266.326 396.89 266.16 396.838 266 396.755L 266 409.89L 267.5 409.89C 267.5 409.89 266.5 407.89 276 407.89C 285.5 407.89 284.5 409.89 284.5 409.89L 285 409.89z"/>
			<path style="stroke:none; fill:#c93" d="M 276 385.89L 277 387.718L 278.829 388.718L 277 389.718L 276 391.547L 275 389.718L 273.171 388.718L 275 387.718L 276 385.89z"/>
			<path style="stroke:none; fill:#c93" d="M 268.5 387.89L 269.5 389.718L 271.329 390.718L 269.5 391.718L 268.5 393.547L 267.5 391.718L 265.671 390.718L 267.5 389.718L 268.5 387.89z"/>
			<path style="stroke:none; fill:#c93" d="M 283.5 387.89L 284.5 389.718L 286.329 390.718L 284.5 391.718L 283.5 393.547L 282.5 391.718L 280.671 390.718L 282.5 389.718L 283.5 387.89z"/>
			<path style="stroke:none; fill:#fc6" d="M 268 395.89L 268 405.89L 276 405.89L 276 392.89C 276 392.89 274.5 398.89 272 398.89C 269.5 398.89 268 395.89 268 395.89z"/>
			<path style="stroke:none; fill:#ff9" d="M 269 397.318L 269 405.89L 275 405.89L 275 395.746C 274.311 397.293 273.29 398.89 272 398.89C 270.71 398.89 269.689 398.091 269 397.318z"/>
			<path style="stroke:none; fill:#c93" d="M 286 403.89L 284 403.89L 284 399.39L 286 399.39L 286 403.89z"/>
			<path style="stroke:none; fill:#ffc" d="M 272 398.89C 271.645 398.89 271.313 398.825 271 398.721L 271 405.89L 273 405.89L 273 398.553C 272.687 398.761 272.355 398.89 272 398.89z"/>
			<path style="stroke:none; fill:#630" d="M 276 405.39C 265 405.39 265 407.89 265 409.89L 267.5 409.89C 267.5 409.89 266.5 407.89 276 407.89C 285.5 407.89 284.5 409.89 284.5 409.89L 287 409.89C 287 407.39 287 405.39 276 405.39z"/>
			<path style="stroke:none; fill:#900" d="M 264 409.89L 266 409.89C 266 408.33 266 406.39 276 406.39C 286 406.39 286 407.934 286 409.89L 288 409.89C 288 406.011 286.332 404.39 276 404.39C 264.918 404.39 264 406.991 264 409.89z"/>
			<path style="stroke:none; fill:#c33" d="M 275 404.398C 272.459 404.438 270.507 404.628 269 404.933L 269 406.949C 270.325 406.642 272.236 406.438 275 406.398L 275 404.398z"/>
			<path style="stroke:none; fill:#f66" d="M 271 406.623C 271.594 406.556 272.255 406.502 273 406.463L 273 404.469C 272.272 404.509 271.615 404.567 271 404.636L 271 406.623z"/>
			<path style="stroke:none; fill:#fc6" d="M 268.5 389.87L 268.8 390.418L 269.349 390.718L 268.8 391.019L 268.5 391.567L 268.2 391.019L 267.651 390.718L 268.2 390.418L 268.5 389.87z"/>
			<path style="stroke:none; fill:#fc6" d="M 283.52 389.87L 283.82 390.418L 284.369 390.718L 283.82 391.019L 283.52 391.567L 283.22 391.019L 282.671 390.718L 283.22 390.418L 283.52 389.87z"/>
			<path style="stroke:none; fill:#fc6" d="M 276.031 387.87L 276.331 388.418L 276.88 388.718L 276.331 389.019L 276.031 389.567L 275.731 389.019L 275.183 388.718L 275.731 388.418L 276.031 387.87z"/>
		</g>
	</g>
</svg>
