<svg xmlns="http://www.w3.org/2000/svg" height="24" width="24">
    <g transform="matrix(1,0,0,-1,-264,408)" id="KDDI_D_">        <path d="M270.6 386.9h3.8v3.3h-3.8z" fill="#fc9"/>
        <path d="M270.6 386.9h2.5v3.3h-2.5z" fill="#f96"/>
        <path d="M274.3 396.1c.6-.8 1.5-1.5 1.6-1.8.1-.4-.3-1.6-.3-1.6s1.2-2.2-1.7-3.3c-2.9-1-5.6.6-6.5 2.9-1.1 3.3.4 5.3 1.7 5.8 1.3.5 2.1.9 3.3.4 1.2-.5 1.8-2.2 1.9-2.4z" fill="#fc9"/>
        <path d="M268.2 392.9c-.9 2.4-.3 4.1.5 5-1.2-.7-2.3-2.6-1.3-5.6.9-2.3 3.6-3.9 6.5-2.9.7.3 1.2.6 1.5 1-.2-.1-.5-.3-.8-.4-2.9-1-5.6.6-6.4 2.9z" fill="#f96"/>
        <path d="M273.8 395.8c-.1.2-.2.4-.4.4 0 0 .1 0 .1-.1.1-.4-.1-.8-.5-.9-.2-.1-.4-.1-.5 0 .1-.3.5-.5.8-.3.4.1.6.5.5.9z"/>
        <path d="M272.1 400.5c-.3.1-.6.1-.9.1h-.1c-1.3.3-3.6-.4-4.5-.9-2.8-1.7-2.8-4.6-2.1-6.6.7-2.1 2.9-4.6 3.2-5.5.4-1-.8-1.4-.8-1.4s1.1-1.1 2.3-.9c.4-.2.9-.2 1.4-.1 1.4.6 2.1 1.5 1.9 2.6-.1.9-.7 2.1-1.6 2.9-.8.8-1.5 2.3-1.2 3.6.3 1.4 1.7 2.1 2.5 2.5.7.4 1.5 1.6 1.4 2.2-.1.6-.7 1.3-1.5 1.5z" fill="#c60"/>
        <path d="M272.1 388.4c.2-1.1-.5-2-1.9-2.6-.5-.1-1-.1-1.4.1-.6-.1-1.2.1-1.6.4-.2-.1-.3-.1-.3-.1s1.1-1.1 2.3-.9c.4-.2.9-.2 1.4-.1 1.4.6 2.1 1.5 1.9 2.6-.1.7-.5 1.5-1 2.3.3-.6.6-1.2.6-1.7zM273.1 399.9c.1-.1.1-.2.1-.3.1-.6-.7-1.8-1.4-2.2-.8-.4-2.2-1.1-2.5-2.5-.2-1.1.2-2.3.9-3.2-.4.8-.7 1.7-.5 2.6.3 1.4 1.7 2.1 2.5 2.5.7.4 1.5 1.6 1.4 2.2 0 .3-.2.6-.5.9z" fill="#930"/>
        <path d="M269.5 385.5c-.8.2-1.4.9-1.4.9s1.2.4.8 1.3c-.3 1-2.5 3.5-3.2 5.5-.8 2.1-.7 4.9 2.1 6.6.5.3 1.4.7 2.3.9-1.3-.1-2.8-.6-3.5-1-2.8-1.7-2.8-4.6-2.1-6.6.7-2.1 2.9-4.6 3.2-5.5.4-1-.8-1.4-.8-1.4s1.1-1.1 2.3-.9c.4-.2.9-.2 1.4-.1 0 .1.1.1.2.1-.2 0-1 .1-1.3.2z" fill="#f90"/>
        <path d="M283.1 386.9h-5v4.7h5z" fill="#fc9"/>
        <path d="M283.1 386.9h-1.5v4.7h1.5z" fill="#c96"/>
        <path d="M277.8 396.3c-.7-.8-1.6-1.8-1.7-2.2-.2-.3.3-1 .3-1s-.8-1.4-.1-2.7c.3-.6 1-.9 1.9-1.4 2.8-1.4 5.3.3 6.4 2.6 1.5 3.2.2 5.4-1.1 6-1.2.6-2.4 1.5-3.7 1.1-1.3-.4-1.8-2.1-2-2.4z" fill="#fc9"/>
        <path d="M283.7 397.5c.8-1 1.3-2.8.1-5.3-1.1-2.2-3.6-3.9-6.4-2.5-.3.2-.5 0-.1-.2.3-.2.6-.3.9-.5 2.8-1.4 5-.3 6.4 2.6 1.5 3.1.3 5.2-.9 5.9z" fill="#c96"/>
        <path d="M278.5 395.5c-.3.1-.4.4-.4.7 0-.1-.1-.1-.1-.1-.2-.4 0-.9.4-1 .3-.2.8-.1 1 .3 0 .1.1.2 0 .3-.2-.3-.6-.4-.9-.2zM287.4 396.9c-.5 1.3-1.5 2.3-2.7 2.8-1.2.6-2.7 1.1-4.3.8-1.1-.3-1.4-1.3-1.4-1.7 0-.4.1-1 1.1-1.6 1.4-.9 1.5-.4 1.5-.4s-.5.5-.5.9c.6-.3 1.2-.7 1.5-1 .6-.7-.4-1.9-.5-2.6 0 .1 2-.1 1.1-1.5-.7-.9-.8-1.4-.9-2.1-.1-.7.8-1.6.8-1.6s2.7 1.8 3.4 3c1.2 2 1.4 3.8.9 5z"/>
        <path d="M279.5 398.3c0 .5.3 1.5 1.4 1.7 1.6.3 3.1-.2 4.3-.7.4-.3.9-.6 1.3-.9-.6.6-1.2 1-1.8 1.3-1.2.6-2.7 1.1-4.3.8-1.1-.3-1.4-1.3-1.4-1.7 0-.4.1-.9.8-1.4-.3.3-.3.7-.3.9z" fill="#333"/>
        <path d="M276 392.2c-.1.3-.2.5-.4.4-.1 0-.6-.4-.5-.6 0-.2.4-.3.6-.3.2 0 .3.2.3.5z" fill="red"/>
        <path d="M276 392.2c0 .3.2.5.3.4.2 0 .6-.4.6-.6 0-.2-.4-.3-.6-.3-.3 0-.4.2-.3.5z" fill="#c33"/>
        <path d="M275.9 406.2s-.8 1.8-2.2 1.8c-1.6 0-2.4-.9-2.4-2.7 0-1.5 1.2-2.7 1.8-3.3l.1-.1c.4-.5.8-.9 2.6-2.4l.1-.1.2.1c1.8 1.5 2.1 1.9 2.6 2.4l.1.1c.6.6 1.8 1.8 1.8 3.3 0 1.8-.8 2.7-2.4 2.7-1.3 0-2.3-1.8-2.3-1.8z" fill="#f39"/>
        <path d="M274.9 402.4c-.7.3-1.4.9-1.7 1.1-.4.4-1.2 1.2-1.2 2.3 0 .7.4 1.3 1.4 1.3.5 0 1-.4 1.2-.6 0 0-.9-.1-.9-1.1 0-.6 0-1.3 1.2-3z" fill="#f69"/>
        <path d="M272.2 405.8c0-1 .7-1.8 1.2-2.2.1-.1.5-.4 1-.7-.8 1.3-.8 1.9-.8 2.4v.1c0 .7.3 1 .6 1.2-.2.2-.5.4-.8.4-1.1 0-1.2-.9-1.2-1.2z" fill="#f9c"/>
        <path d="M272.6 405.8c0-.7.4-1.2.7-1.6-.1.4-.1.8-.1 1.1v.1c0 .5.2.9.4 1.2h-.2c-.2 0-.8 0-.8-.8z" fill="#fff"/>
        <path d="M273.2 401.9c.4-.5.8-.9 2.6-2.4l.1-.1.2.1c1.8 1.5 2.1 1.9 2.6 2.4l.1.1c.6.6 1.8 1.8 1.8 3.3 0 1.8-.8 2.7-2.4 2.7-1.3 0-2.3-1.8-2.3-1.8s-.5 1.1-1.4 1.6c.6-.6 1.3-1.6 1.4-2.4.1.5.6 1.3.9 1.6.3.3.7.6 1.1.6 1.3 0 1.7-1 1.4-2.3-.2-1.1-.6-1.8-1.1-2.3l-.3-.4c-.4-.4-.7-.7-2-1.8-.8.3-2.1 1.1-2.9 1.8-.6.5-1.7 1.7-1.7 2.7 0-1.5 1.2-2.7 1.8-3.3z" fill="#c36"/>
        <path d="M278.7 401.9l.1.1c.6.6 1.8 1.8 1.8 3.3 0 1.7-.7 2.6-2.2 2.7 1.2-.2 2-1 1.8-2.7 0-1-1-2.2-1.6-2.8l-.2-.1c-.4-.5-.8-.9-2.5-2.3v-.7l.2.1c1.8 1.5 2.1 1.9 2.6 2.4z" fill="#906"/>
        <path d="M278.7 401.9l.1.1c.6.6 1.8 1.8 1.8 3.3v.3c-.1-1.6-1.6-3.1-2.1-3.7l-.2-.1c-.4-.5-.7-.7-2.4-2.1v-.3l.2.1c1.8 1.5 2.1 1.9 2.6 2.4z" fill="#603"/>
    </g>
</svg>
