<svg xmlns="http://www.w3.org/2000/svg" width="24" height="24">
	<g transform="translate(-264,-386)" id="KDDI_D_356">
		<g>
			<path style="stroke:none; fill:none" d="M 288 409.89L 264 409.89L 264 385.89L 288 385.89L 288 409.89z"/>
		</g>
		<g>
			<path style="stroke:none; fill:#900" d="M 280.73 386.837C 280.341 386.448 279.573 386.131 279.023 386.132L 276.793 386.14C 276.244 386.141 275.475 386.461 275.086 386.85L 264.959 396.979C 264.57 397.367 264.253 398.136 264.256 398.686L 264.264 400.885C 264.266 401.435 264.586 402.203 264.975 402.592L 267.803 405.421C 268.191 405.809 268.96 406.131 269.51 406.135L 271.724 406.15C 272.273 406.154 273.042 405.839 273.431 405.45L 283.559 395.322C 283.948 394.933 284.266 394.165 284.266 393.615L 284.266 391.372C 284.266 390.822 283.948 390.054 283.559 389.665L 280.73 386.837z"/>
			<path style="stroke:none; fill:#600" d="M 283.15 394.101C 283.07 394.307 282.961 394.506 282.852 394.615L 272.724 404.743C 272.623 404.844 272.442 404.947 272.252 405.025L 272.252 406.07C 272.694 405.955 273.157 405.724 273.431 405.45L 283.559 395.322C 283.842 395.039 284.084 394.555 284.197 394.101L 283.15 394.101z"/>
			<g>
				<path style="stroke:none; fill:#c00" d="M 265.59 401.762L 279.9 387.452C 279.66 387.284 279.266 387.132 279.025 387.132L 276.797 387.14C 276.511 387.141 275.996 387.355 275.793 387.557L 272.252 391.101L 272.752 391.601L 269.752 394.601L 269.202 394.15L 265.666 397.686C 265.465 397.886 265.254 398.398 265.256 398.681C 265.256 398.682 265.264 400.881 265.264 400.881C 265.265 401.123 265.42 401.521 265.59 401.762z"/>
				<path style="stroke:none; fill:#c00" d="M 279.025 387.132L 279.025 387.132L 279.026 387.132L 279.025 387.132z"/>
			</g>
			<path style="stroke:none; fill:#f66" d="M 265.59 401.762L 266.297 402.469L 280.607 388.159L 279.9 387.452L 265.59 401.762z"/>
			<path style="stroke:none; fill:#c00" d="M 283.266 393.194L 283.266 391.372C 283.266 391.088 283.053 390.573 282.852 390.372L 281.33 388.851L 266.989 403.192L 268.51 404.713C 268.713 404.916 269.23 405.133 269.517 405.135L 271.312 405.148L 283.266 393.194z"/>
			<path style="stroke:none; fill:#f33" d="M 266.297 402.469L 267.004 403.176L 281.315 388.866L 280.607 388.159L 266.297 402.469z"/>
			<path style="stroke:#600; stroke-width:1; fill:none" d="M 270.535 392.398L 277.848 399.71"/>
			<path style="stroke:#600; stroke-width:1; fill:none" d="M 271.55 390.413L 279.995 398.858"/>
			<path style="stroke:#600; stroke-width:1; fill:none" d="M 268.502 393.462L 276.946 401.906"/>
			<g>
				<path style="stroke:none; fill:#960" d="M 271.511 390.36L 268.862 387.745C 268.862 387.745 268.057 387.1 266.634 388.524C 265.21 389.947 265.816 390.82 265.816 390.82L 268.465 393.435C 268.465 393.435 269.112 393.821 270.535 392.398C 271.958 390.974 271.511 390.36 271.511 390.36z"/>
				<path style="stroke:none; fill:#960" d="M 287.782 406.608L 280.011 398.859C 280.011 398.859 279.303 398.255 277.848 399.71C 276.393 401.165 276.95 401.92 276.95 401.92L 284.722 409.668C 284.722 409.668 285.532 410.375 286.987 408.92C 288.442 407.465 287.782 406.608 287.782 406.608z"/>
			</g>
			<path style="stroke:none; fill:#c90" d="M 265.824 390.828C 265.864 390.785 265.89 390.746 265.934 390.702C 267.357 389.279 268.162 389.923 268.162 389.923L 270.589 392.338C 271.936 390.96 271.511 390.36 271.511 390.36L 268.862 387.745C 268.862 387.745 268.057 387.1 266.634 388.524C 265.21 389.947 265.816 390.82 265.816 390.82L 265.824 390.828z"/>
			<path style="stroke:none; fill:#c90" d="M 280.014 398.862C 278.624 400.283 279.16 401.023 279.16 401.023L 287.028 408.873C 288.42 407.448 287.782 406.608 287.782 406.608L 280.014 398.862z"/>
		</g>
	</g>
</svg>
