<svg xmlns="http://www.w3.org/2000/svg" width="24" height="24">
	<g transform="translate(-264,-386)" id="KDDI_D_357">
		<g>
			<path style="stroke:none; fill:none" d="M 288 409.89L 264 409.89L 264 385.89L 288 385.89L 288 409.89z"/>
		</g>
		<g>
			<path style="stroke:none; fill:#006" d="M 288 409.89L 264 409.89L 264 385.89L 288 385.89L 288 409.89z"/>
		</g>
		<g>
			<path style="stroke:none; fill:#006" d="M 288 409.89L 264 409.89L 264 385.89L 288 385.89L 288 409.89z"/>
			<path style="stroke:none; fill:#ff0" d="M 276.713 407.89C 276.713 408.283 276.395 408.603 276 408.603C 275.605 408.603 275.287 408.283 275.287 407.89C 275.287 407.496 275.605 407.177 276 407.177C 276.395 407.177 276.713 407.496 276.713 407.89z"/>
		</g>
		<g>
			<path style="stroke:none; fill:#006" d="M 288 409.89L 264 409.89L 264 385.89L 288 385.89L 288 409.89z"/>
			<path style="stroke:none; fill:#ff0" d="M 276.713 403.89C 276.713 404.283 276.395 404.603 276 404.603C 275.605 404.603 275.287 404.283 275.287 403.89C 275.287 403.496 275.605 403.177 276 403.177C 276.395 403.177 276.713 403.496 276.713 403.89z"/>
			<path style="stroke:none; fill:#ff0" d="M 276 394.677C 275.605 394.677 275.287 394.996 275.287 395.39C 275.287 395.652 275.605 400.89 276 400.89C 276.395 400.89 276.713 395.652 276.713 395.39C 276.713 394.996 276.395 394.677 276 394.677z"/>
			<path style="stroke:none; fill:#ff0" d="M 276.713 407.89C 276.713 408.283 276.395 408.603 276 408.603C 275.605 408.603 275.287 408.283 275.287 407.89C 275.287 407.496 275.605 407.177 276 407.177C 276.395 407.177 276.713 407.496 276.713 407.89z"/>
			<path style="stroke:none; fill:#f60" d="M 276 398.89L 275.511 398.39C 275.639 399.677 275.81 400.89 276 400.89C 276.19 400.89 276.361 399.677 276.489 398.39L 276 398.89z"/>
		</g>
		<g>
			<path style="stroke:none; fill:#006" d="M 288 409.89L 264 409.89L 264 385.89L 288 385.89L 288 409.89z"/>
			<path style="stroke:none; fill:#ff0" d="M 276.713 397.89C 276.713 398.283 276.395 398.603 276 398.603C 275.605 398.603 275.287 398.283 275.287 397.89C 275.287 397.496 275.605 397.177 276 397.177C 276.395 397.177 276.713 397.496 276.713 397.89z"/>
			<path style="stroke:none; fill:#f3f" d="M 274.713 395.89C 274.713 396.283 274.395 396.603 274 396.603C 273.605 396.603 273.287 396.283 273.287 395.89C 273.287 395.496 273.605 395.177 274 395.177C 274.395 395.177 274.713 395.496 274.713 395.89z"/>
			<path style="stroke:none; fill:#f3f" d="M 278.713 395.89C 278.713 396.283 278.395 396.603 278 396.603C 277.605 396.603 277.287 396.283 277.287 395.89C 277.287 395.496 277.605 395.177 278 395.177C 278.395 395.177 278.713 395.496 278.713 395.89z"/>
			<path style="stroke:none; fill:#f3f" d="M 274.713 399.89C 274.713 400.283 274.395 400.603 274 400.603C 273.605 400.603 273.287 400.283 273.287 399.89C 273.287 399.496 273.605 399.177 274 399.177C 274.395 399.177 274.713 399.496 274.713 399.89z"/>
			<path style="stroke:none; fill:#f3f" d="M 278.713 399.89C 278.713 400.283 278.395 400.603 278 400.603C 277.605 400.603 277.287 400.283 277.287 399.89C 277.287 399.496 277.605 399.177 278 399.177C 278.395 399.177 278.713 399.496 278.713 399.89z"/>
			<path style="stroke:none; fill:#f00" d="M 276.713 401.865C 276.713 402.258 276.395 402.577 276 402.577C 275.605 402.577 275.287 402.258 275.287 401.865C 275.287 401.47 275.605 401.152 276 401.152C 276.395 401.152 276.713 401.47 276.713 401.865z"/>
			<path style="stroke:none; fill:#f00" d="M 276.713 393.89C 276.713 394.283 276.395 394.603 276 394.603C 275.605 394.603 275.287 394.283 275.287 393.89C 275.287 393.496 275.605 393.177 276 393.177C 276.395 393.177 276.713 393.496 276.713 393.89z"/>
			<path style="stroke:none; fill:#f00" d="M 272.737 397.89C 272.737 398.283 272.418 398.603 272.024 398.603C 271.63 398.603 271.31 398.283 271.31 397.89C 271.31 397.496 271.63 397.177 272.024 397.177C 272.418 397.177 272.737 397.496 272.737 397.89z"/>
			<path style="stroke:none; fill:#f00" d="M 280.713 397.89C 280.713 398.283 280.395 398.603 280 398.603C 279.605 398.603 279.287 398.283 279.287 397.89C 279.287 397.496 279.605 397.177 280 397.177C 280.395 397.177 280.713 397.496 280.713 397.89z"/>
			<path style="stroke:none; fill:#ff0" d="M 282.713 397.89C 282.713 398.283 282.395 398.603 282 398.603C 281.605 398.603 281.287 398.283 281.287 397.89C 281.287 397.496 281.605 397.177 282 397.177C 282.395 397.177 282.713 397.496 282.713 397.89z"/>
			<path style="stroke:none; fill:#ff0" d="M 280.713 393.89C 280.713 394.283 280.395 394.603 280 394.603C 279.605 394.603 279.287 394.283 279.287 393.89C 279.287 393.496 279.605 393.177 280 393.177C 280.395 393.177 280.713 393.496 280.713 393.89z"/>
			<path style="stroke:none; fill:#ff0" d="M 276.713 391.89C 276.713 392.283 276.395 392.603 276 392.603C 275.605 392.603 275.287 392.283 275.287 391.89C 275.287 391.496 275.605 391.177 276 391.177C 276.395 391.177 276.713 391.496 276.713 391.89z"/>
			<path style="stroke:none; fill:#ff0" d="M 272.713 393.89C 272.713 394.283 272.395 394.603 272 394.603C 271.605 394.603 271.287 394.283 271.287 393.89C 271.287 393.496 271.605 393.177 272 393.177C 272.395 393.177 272.713 393.496 272.713 393.89z"/>
			<path style="stroke:none; fill:#ff0" d="M 270.737 397.89C 270.737 398.283 270.418 398.603 270.024 398.603C 269.63 398.603 269.31 398.283 269.31 397.89C 269.31 397.496 269.63 397.177 270.024 397.177C 270.418 397.177 270.737 397.496 270.737 397.89z"/>
			<path style="stroke:none; fill:#ff0" d="M 272.713 401.89C 272.713 402.283 272.395 402.603 272 402.603C 271.605 402.603 271.287 402.283 271.287 401.89C 271.287 401.496 271.605 401.177 272 401.177C 272.395 401.177 272.713 401.496 272.713 401.89z"/>
			<path style="stroke:none; fill:#ff0" d="M 276.713 403.865C 276.713 404.258 276.395 404.577 276 404.577C 275.605 404.577 275.287 404.258 275.287 403.865C 275.287 403.47 275.605 403.152 276 403.152C 276.395 403.152 276.713 403.47 276.713 403.865z"/>
			<path style="stroke:none; fill:#ff0" d="M 280.713 401.89C 280.713 402.283 280.395 402.603 280 402.603C 279.605 402.603 279.287 402.283 279.287 401.89C 279.287 401.496 279.605 401.177 280 401.177C 280.395 401.177 280.713 401.496 280.713 401.89z"/>
			<path style="stroke:none; fill:#3c3" d="M 282.713 403.89C 282.713 404.283 282.395 404.603 282 404.603C 281.605 404.603 281.287 404.283 281.287 403.89C 281.287 403.496 281.605 403.177 282 403.177C 282.395 403.177 282.713 403.496 282.713 403.89z"/>
			<path style="stroke:none; fill:#3c3" d="M 282.713 391.865C 282.713 392.258 282.395 392.577 282 392.577C 281.605 392.577 281.287 392.258 281.287 391.865C 281.287 391.47 281.605 391.152 282 391.152C 282.395 391.152 282.713 391.47 282.713 391.865z"/>
			<path style="stroke:none; fill:#3c3" d="M 270.713 391.89C 270.713 392.283 270.395 392.603 270 392.603C 269.605 392.603 269.287 392.283 269.287 391.89C 269.287 391.496 269.605 391.177 270 391.177C 270.395 391.177 270.713 391.496 270.713 391.89z"/>
			<path style="stroke:none; fill:#3c3" d="M 270.713 403.89C 270.713 404.283 270.395 404.603 270 404.603C 269.605 404.603 269.287 404.283 269.287 403.89C 269.287 403.496 269.605 403.177 270 403.177C 270.395 403.177 270.713 403.496 270.713 403.89z"/>
		</g>
		<g>
			<path style="stroke:none; fill:#006" d="M 288 409.89L 264 409.89L 264 385.89L 288 385.89L 288 409.89z"/>
			<path style="stroke:none; fill:#ff0" d="M 276.713 397.89C 276.713 398.283 276.395 398.603 276 398.603C 275.605 398.603 275.287 398.283 275.287 397.89C 275.287 397.496 275.605 397.177 276 397.177C 276.395 397.177 276.713 397.496 276.713 397.89z"/>
			<path style="stroke:none; fill:#f3f" d="M 274.713 395.89C 274.713 396.283 274.395 396.603 274 396.603C 273.605 396.603 273.287 396.283 273.287 395.89C 273.287 395.496 273.605 395.177 274 395.177C 274.395 395.177 274.713 395.496 274.713 395.89z"/>
			<path style="stroke:none; fill:#f3f" d="M 278.713 395.89C 278.713 396.283 278.395 396.603 278 396.603C 277.605 396.603 277.287 396.283 277.287 395.89C 277.287 395.496 277.605 395.177 278 395.177C 278.395 395.177 278.713 395.496 278.713 395.89z"/>
			<path style="stroke:none; fill:#f3f" d="M 274.713 399.89C 274.713 400.283 274.395 400.603 274 400.603C 273.605 400.603 273.287 400.283 273.287 399.89C 273.287 399.496 273.605 399.177 274 399.177C 274.395 399.177 274.713 399.496 274.713 399.89z"/>
			<path style="stroke:none; fill:#f3f" d="M 278.713 399.89C 278.713 400.283 278.395 400.603 278 400.603C 277.605 400.603 277.287 400.283 277.287 399.89C 277.287 399.496 277.605 399.177 278 399.177C 278.395 399.177 278.713 399.496 278.713 399.89z"/>
			<path style="stroke:none; fill:#f00" d="M 276.713 401.865C 276.713 402.258 276.395 402.577 276 402.577C 275.605 402.577 275.287 402.258 275.287 401.865C 275.287 401.47 275.605 401.152 276 401.152C 276.395 401.152 276.713 401.47 276.713 401.865z"/>
			<path style="stroke:none; fill:#f00" d="M 276.713 393.89C 276.713 394.283 276.395 394.603 276 394.603C 275.605 394.603 275.287 394.283 275.287 393.89C 275.287 393.496 275.605 393.177 276 393.177C 276.395 393.177 276.713 393.496 276.713 393.89z"/>
			<path style="stroke:none; fill:#f00" d="M 272.737 397.89C 272.737 398.283 272.418 398.603 272.024 398.603C 271.63 398.603 271.31 398.283 271.31 397.89C 271.31 397.496 271.63 397.177 272.024 397.177C 272.418 397.177 272.737 397.496 272.737 397.89z"/>
			<path style="stroke:none; fill:#f00" d="M 280.713 397.89C 280.713 398.283 280.395 398.603 280 398.603C 279.605 398.603 279.287 398.283 279.287 397.89C 279.287 397.496 279.605 397.177 280 397.177C 280.395 397.177 280.713 397.496 280.713 397.89z"/>
			<path style="stroke:none; fill:#ff0" d="M 282.713 397.89C 282.713 398.283 282.395 398.603 282 398.603C 281.605 398.603 281.287 398.283 281.287 397.89C 281.287 397.496 281.605 397.177 282 397.177C 282.395 397.177 282.713 397.496 282.713 397.89z"/>
			<path style="stroke:none; fill:#ff0" d="M 280.713 393.89C 280.713 394.283 280.395 394.603 280 394.603C 279.605 394.603 279.287 394.283 279.287 393.89C 279.287 393.496 279.605 393.177 280 393.177C 280.395 393.177 280.713 393.496 280.713 393.89z"/>
			<path style="stroke:none; fill:#ff0" d="M 276.713 391.89C 276.713 392.283 276.395 392.603 276 392.603C 275.605 392.603 275.287 392.283 275.287 391.89C 275.287 391.496 275.605 391.177 276 391.177C 276.395 391.177 276.713 391.496 276.713 391.89z"/>
			<path style="stroke:none; fill:#ff0" d="M 276.713 387.89C 276.713 388.283 276.395 388.603 276 388.603C 275.605 388.603 275.287 388.283 275.287 387.89C 275.287 387.496 275.605 387.177 276 387.177C 276.395 387.177 276.713 387.496 276.713 387.89z"/>
			<path style="stroke:none; fill:#f3f" d="M 272.213 387.89C 272.213 388.283 271.895 388.603 271.5 388.603C 271.105 388.603 270.787 388.283 270.787 387.89C 270.787 387.496 271.105 387.177 271.5 387.177C 271.895 387.177 272.213 387.496 272.213 387.89z"/>
			<path style="stroke:none; fill:#ff0" d="M 268.713 389.89C 268.713 390.283 268.395 390.603 268 390.603C 267.605 390.603 267.287 390.283 267.287 389.89C 267.287 389.496 267.605 389.177 268 389.177C 268.395 389.177 268.713 389.496 268.713 389.89z"/>
			<path style="stroke:none; fill:#f3f" d="M 266.713 393.39C 266.713 393.783 266.395 394.103 266 394.103C 265.605 394.103 265.287 393.783 265.287 393.39C 265.287 392.996 265.605 392.677 266 392.677C 266.395 392.677 266.713 392.996 266.713 393.39z"/>
			<path style="stroke:none; fill:#ff0" d="M 266.737 397.89C 266.737 398.283 266.418 398.603 266.024 398.603C 265.63 398.603 265.31 398.283 265.31 397.89C 265.31 397.496 265.63 397.177 266.024 397.177C 266.418 397.177 266.737 397.496 266.737 397.89z"/>
			<path style="stroke:none; fill:#f3f" d="M 266.713 402.39C 266.713 402.783 266.395 403.103 266 403.103C 265.605 403.103 265.287 402.783 265.287 402.39C 265.287 401.996 265.605 401.677 266 401.677C 266.395 401.677 266.713 401.996 266.713 402.39z"/>
			<path style="stroke:none; fill:#ff0" d="M 268.713 405.89C 268.713 406.283 268.395 406.603 268 406.603C 267.605 406.603 267.287 406.283 267.287 405.89C 267.287 405.496 267.605 405.177 268 405.177C 268.395 405.177 268.713 405.496 268.713 405.89z"/>
			<path style="stroke:none; fill:#f3f" d="M 272.213 407.89C 272.213 408.283 271.895 408.603 271.5 408.603C 271.105 408.603 270.787 408.283 270.787 407.89C 270.787 407.496 271.105 407.177 271.5 407.177C 271.895 407.177 272.213 407.496 272.213 407.89z"/>
			<path style="stroke:none; fill:#ff0" d="M 276.713 407.89C 276.713 408.283 276.395 408.603 276 408.603C 275.605 408.603 275.287 408.283 275.287 407.89C 275.287 407.496 275.605 407.177 276 407.177C 276.395 407.177 276.713 407.496 276.713 407.89z"/>
			<path style="stroke:none; fill:#f3f" d="M 281.213 407.89C 281.213 408.283 280.895 408.603 280.5 408.603C 280.105 408.603 279.787 408.283 279.787 407.89C 279.787 407.496 280.105 407.177 280.5 407.177C 280.895 407.177 281.213 407.496 281.213 407.89z"/>
			<path style="stroke:none; fill:#ff0" d="M 284.713 405.89C 284.713 406.283 284.395 406.603 284 406.603C 283.605 406.603 283.287 406.283 283.287 405.89C 283.287 405.496 283.605 405.177 284 405.177C 284.395 405.177 284.713 405.496 284.713 405.89z"/>
			<path style="stroke:none; fill:#f3f" d="M 286.713 402.39C 286.713 402.783 286.395 403.103 286 403.103C 285.605 403.103 285.287 402.783 285.287 402.39C 285.287 401.996 285.605 401.677 286 401.677C 286.395 401.677 286.713 401.996 286.713 402.39z"/>
			<path style="stroke:none; fill:#ff0" d="M 286.713 397.89C 286.713 398.283 286.395 398.603 286 398.603C 285.605 398.603 285.287 398.283 285.287 397.89C 285.287 397.496 285.605 397.177 286 397.177C 286.395 397.177 286.713 397.496 286.713 397.89z"/>
			<path style="stroke:none; fill:#f3f" d="M 286.713 393.39C 286.713 393.783 286.395 394.103 286 394.103C 285.605 394.103 285.287 393.783 285.287 393.39C 285.287 392.996 285.605 392.677 286 392.677C 286.395 392.677 286.713 392.996 286.713 393.39z"/>
			<path style="stroke:none; fill:#ff0" d="M 284.713 389.89C 284.713 390.283 284.395 390.603 284 390.603C 283.605 390.603 283.287 390.283 283.287 389.89C 283.287 389.496 283.605 389.177 284 389.177C 284.395 389.177 284.713 389.496 284.713 389.89z"/>
			<path style="stroke:none; fill:#f3f" d="M 281.213 387.89C 281.213 388.283 280.895 388.603 280.5 388.603C 280.105 388.603 279.787 388.283 279.787 387.89C 279.787 387.496 280.105 387.177 280.5 387.177C 280.895 387.177 281.213 387.496 281.213 387.89z"/>
			<path style="stroke:none; fill:#ff0" d="M 272.713 393.89C 272.713 394.283 272.395 394.603 272 394.603C 271.605 394.603 271.287 394.283 271.287 393.89C 271.287 393.496 271.605 393.177 272 393.177C 272.395 393.177 272.713 393.496 272.713 393.89z"/>
			<path style="stroke:none; fill:#ff0" d="M 270.737 397.89C 270.737 398.283 270.418 398.603 270.024 398.603C 269.63 398.603 269.31 398.283 269.31 397.89C 269.31 397.496 269.63 397.177 270.024 397.177C 270.418 397.177 270.737 397.496 270.737 397.89z"/>
			<path style="stroke:none; fill:#ff0" d="M 272.713 401.89C 272.713 402.283 272.395 402.603 272 402.603C 271.605 402.603 271.287 402.283 271.287 401.89C 271.287 401.496 271.605 401.177 272 401.177C 272.395 401.177 272.713 401.496 272.713 401.89z"/>
			<path style="stroke:none; fill:#ff0" d="M 276.713 403.865C 276.713 404.258 276.395 404.577 276 404.577C 275.605 404.577 275.287 404.258 275.287 403.865C 275.287 403.47 275.605 403.152 276 403.152C 276.395 403.152 276.713 403.47 276.713 403.865z"/>
			<path style="stroke:none; fill:#ff0" d="M 280.713 401.89C 280.713 402.283 280.395 402.603 280 402.603C 279.605 402.603 279.287 402.283 279.287 401.89C 279.287 401.496 279.605 401.177 280 401.177C 280.395 401.177 280.713 401.496 280.713 401.89z"/>
			<path style="stroke:none; fill:#3c3" d="M 282.713 403.89C 282.713 404.283 282.395 404.603 282 404.603C 281.605 404.603 281.287 404.283 281.287 403.89C 281.287 403.496 281.605 403.177 282 403.177C 282.395 403.177 282.713 403.496 282.713 403.89z"/>
			<path style="stroke:none; fill:#3c3" d="M 282.713 391.865C 282.713 392.258 282.395 392.577 282 392.577C 281.605 392.577 281.287 392.258 281.287 391.865C 281.287 391.47 281.605 391.152 282 391.152C 282.395 391.152 282.713 391.47 282.713 391.865z"/>
			<path style="stroke:none; fill:#3c3" d="M 270.713 391.89C 270.713 392.283 270.395 392.603 270 392.603C 269.605 392.603 269.287 392.283 269.287 391.89C 269.287 391.496 269.605 391.177 270 391.177C 270.395 391.177 270.713 391.496 270.713 391.89z"/>
			<path style="stroke:none; fill:#3c3" d="M 270.713 403.89C 270.713 404.283 270.395 404.603 270 404.603C 269.605 404.603 269.287 404.283 269.287 403.89C 269.287 403.496 269.605 403.177 270 403.177C 270.395 403.177 270.713 403.496 270.713 403.89z"/>
		</g>
		<g>
			<path style="stroke:none; fill:#006" d="M 288 409.89L 264 409.89L 264 385.89L 288 385.89L 288 409.89z"/>
			<path style="stroke:none; fill:#ff0" d="M 270.713 397.89C 270.713 398.283 270.395 398.603 270 398.603C 269.605 398.603 269.287 398.283 269.287 397.89C 269.287 397.496 269.605 397.177 270 397.177C 270.395 397.177 270.713 397.496 270.713 397.89z"/>
			<path style="stroke:none; fill:#ff0" d="M 265.426 397.89C 265.426 398.283 265.107 398.603 264.713 398.603C 264.318 398.603 264 398.283 264 397.89C 264 397.496 264.318 397.177 264.713 397.177C 265.107 397.177 265.426 397.496 265.426 397.89z"/>
			<path style="stroke:none; fill:#ff0" d="M 288 397.89C 288 398.283 287.682 398.603 287.287 398.603C 286.893 398.603 286.574 398.283 286.574 397.89C 286.574 397.496 286.893 397.177 287.287 397.177C 287.682 397.177 288 397.496 288 397.89z"/>
			<path style="stroke:none; fill:#ff0" d="M 276.713 386.603C 276.713 386.996 276.395 387.316 276 387.316C 275.605 387.316 275.287 386.996 275.287 386.603C 275.287 386.209 275.605 385.89 276 385.89C 276.395 385.89 276.713 386.209 276.713 386.603z"/>
			<path style="stroke:none; fill:#ff0" d="M 276.713 409.177C 276.713 409.57 276.395 409.89 276 409.89C 275.605 409.89 275.287 409.57 275.287 409.177C 275.287 408.783 275.605 408.464 276 408.464C 276.395 408.464 276.713 408.783 276.713 409.177z"/>
			<path style="stroke:none; fill:#ff0" d="M 282.713 409.177C 282.713 409.57 282.395 409.89 282 409.89C 281.605 409.89 281.287 409.57 281.287 409.177C 281.287 408.783 281.605 408.464 282 408.464C 282.395 408.464 282.713 408.783 282.713 409.177z"/>
			<path style="stroke:none; fill:#ff0" d="M 286.213 407.39C 286.213 407.783 285.895 408.103 285.5 408.103C 285.105 408.103 284.787 407.783 284.787 407.39C 284.787 406.996 285.105 406.677 285.5 406.677C 285.895 406.677 286.213 406.996 286.213 407.39z"/>
			<path style="stroke:none; fill:#ff0" d="M 288 403.89C 288 404.283 287.682 404.603 287.287 404.603C 286.893 404.603 286.574 404.283 286.574 403.89C 286.574 403.496 286.893 403.177 287.287 403.177C 287.682 403.177 288 403.496 288 403.89z"/>
			<path style="stroke:none; fill:#ff0" d="M 288 391.89C 288 392.283 287.682 392.603 287.287 392.603C 286.893 392.603 286.574 392.283 286.574 391.89C 286.574 391.496 286.893 391.177 287.287 391.177C 287.682 391.177 288 391.496 288 391.89z"/>
			<path style="stroke:none; fill:#ff0" d="M 286.213 388.39C 286.213 388.783 285.895 389.103 285.5 389.103C 285.105 389.103 284.787 388.783 284.787 388.39C 284.787 387.996 285.105 387.677 285.5 387.677C 285.895 387.677 286.213 387.996 286.213 388.39z"/>
			<path style="stroke:none; fill:#ff0" d="M 282.713 386.603C 282.713 386.996 282.395 387.315 282 387.315C 281.605 387.315 281.287 386.996 281.287 386.603C 281.287 386.208 281.605 385.89 282 385.89C 282.395 385.89 282.713 386.208 282.713 386.603z"/>
			<path style="stroke:none; fill:#ff0" d="M 270.713 386.603C 270.713 386.996 270.395 387.316 270 387.316C 269.605 387.316 269.287 386.996 269.287 386.603C 269.287 386.209 269.605 385.89 270 385.89C 270.395 385.89 270.713 386.209 270.713 386.603z"/>
			<path style="stroke:none; fill:#ff0" d="M 267.213 388.39C 267.213 388.783 266.895 389.103 266.5 389.103C 266.105 389.103 265.787 388.783 265.787 388.39C 265.787 387.996 266.105 387.677 266.5 387.677C 266.895 387.677 267.213 387.996 267.213 388.39z"/>
			<path style="stroke:none; fill:#ff0" d="M 265.426 391.89C 265.426 392.283 265.107 392.603 264.713 392.603C 264.318 392.603 264 392.283 264 391.89C 264 391.496 264.318 391.177 264.713 391.177C 265.107 391.177 265.426 391.496 265.426 391.89z"/>
			<path style="stroke:none; fill:#ff0" d="M 265.426 403.89C 265.426 404.283 265.107 404.603 264.713 404.603C 264.318 404.603 264 404.283 264 403.89C 264 403.496 264.318 403.177 264.713 403.177C 265.107 403.177 265.426 403.496 265.426 403.89z"/>
			<path style="stroke:none; fill:#ff0" d="M 267.213 407.39C 267.213 407.783 266.895 408.103 266.5 408.103C 266.105 408.103 265.787 407.783 265.787 407.39C 265.787 406.996 266.105 406.677 266.5 406.677C 266.895 406.677 267.213 406.996 267.213 407.39z"/>
			<path style="stroke:none; fill:#ff0" d="M 270.713 409.177C 270.713 409.57 270.395 409.89 270 409.89C 269.605 409.89 269.287 409.57 269.287 409.177C 269.287 408.783 269.605 408.464 270 408.464C 270.395 408.464 270.713 408.783 270.713 409.177z"/>
			<path style="stroke:none; fill:#ff0" d="M 282.713 397.89C 282.713 398.283 282.395 398.603 282 398.603C 281.605 398.603 281.287 398.283 281.287 397.89C 281.287 397.496 281.605 397.177 282 397.177C 282.395 397.177 282.713 397.496 282.713 397.89z"/>
			<path style="stroke:none; fill:#ff0" d="M 280.713 393.89C 280.713 394.283 280.395 394.603 280 394.603C 279.605 394.603 279.287 394.283 279.287 393.89C 279.287 393.496 279.605 393.177 280 393.177C 280.395 393.177 280.713 393.496 280.713 393.89z"/>
			<path style="stroke:none; fill:#ff0" d="M 276.713 391.89C 276.713 392.283 276.395 392.603 276 392.603C 275.605 392.603 275.287 392.283 275.287 391.89C 275.287 391.496 275.605 391.177 276 391.177C 276.395 391.177 276.713 391.496 276.713 391.89z"/>
			<path style="stroke:none; fill:#ff0" d="M 272.713 393.89C 272.713 394.283 272.395 394.603 272 394.603C 271.605 394.603 271.287 394.283 271.287 393.89C 271.287 393.496 271.605 393.177 272 393.177C 272.395 393.177 272.713 393.496 272.713 393.89z"/>
			<path style="stroke:none; fill:#ff0" d="M 272.713 401.89C 272.713 402.283 272.395 402.603 272 402.603C 271.605 402.603 271.287 402.283 271.287 401.89C 271.287 401.496 271.605 401.177 272 401.177C 272.395 401.177 272.713 401.496 272.713 401.89z"/>
			<path style="stroke:none; fill:#ff0" d="M 276.713 403.865C 276.713 404.258 276.395 404.577 276 404.577C 275.605 404.577 275.287 404.258 275.287 403.865C 275.287 403.47 275.605 403.152 276 403.152C 276.395 403.152 276.713 403.47 276.713 403.865z"/>
			<path style="stroke:none; fill:#ff0" d="M 280.713 401.89C 280.713 402.283 280.395 402.603 280 402.603C 279.605 402.603 279.287 402.283 279.287 401.89C 279.287 401.496 279.605 401.177 280 401.177C 280.395 401.177 280.713 401.496 280.713 401.89z"/>
		</g>
	</g>
</svg>
