<svg xmlns="http://www.w3.org/2000/svg" width="24" height="24">
	<g transform="translate(-264,-386)" id="KDDI_D_358">
		<g>
			<path style="stroke:none; fill:none" d="M 288 409.89L 264 409.89L 264 385.89L 288 385.89L 288 409.89z"/>
		</g>
		<g>
			<path style="stroke:none; fill:#c60" d="M 266.5 406.89C 264.75 405.14 264.5 401.89 264.5 400.39C 264.5 398.89 265 394.39 267 391.89C 269 389.39 273 386.39 278.5 386.39C 284 386.39 287.5 386.39 287.5 386.39C 287.5 386.39 287.5 395.89 283.5 401.39C 283 398.39 279.5 398.89 278.5 400.39C 277.52 401.86 277.5 405.39 280 405.39C 280 405.39 277.5 407.39 273 407.39C 269 407.39 266.5 406.89 266.5 406.89z"/>
			<path style="stroke:none; fill:#c93" d="M 271 407.39L 272 407.39C 273 398.39 280.5 388.89 284 386.89L 282.5 387.39C 278.5 389.89 271.5 398.39 271 407.39z"/>
			<path style="stroke:none; fill:#960" d="M 266.5 405.39C 266 404.39 265.5 401.89 265.5 400.39C 265.5 398.89 266 394.39 268 391.89C 270 389.39 274 386.39 279.5 386.39C 279.175 386.39 278.841 386.39 278.5 386.39C 273 386.39 269 389.39 267 391.89C 265 394.39 264.5 398.89 264.5 400.39C 264.5 401.89 264.75 405.14 266.5 406.89L 266.5 405.39z"/>
			<path style="stroke:none; fill:#960" d="M 282 387.89C 282 387.89 270 395.39 269 406.89L 266.5 406.89C 266.5 406.89 268 398.129 270.5 395.39C 273 392.65 279.125 388.153 282 387.89z"/>
			<path style="stroke:#630; stroke-width:1; fill:none" d="M 266.5 406.89C 264.75 405.14 264.5 401.89 264.5 400.39C 264.5 398.89 265 394.39 267 391.89C 269 389.39 273 386.39 278.5 386.39C 284 386.39 287.5 386.39 287.5 386.39C 287.5 386.39 287.5 395.89 283.5 401.39C 283 398.39 279.5 398.89 278.5 400.39C 277.52 401.86 277.5 405.39 280 405.39C 280 405.39 277.5 407.39 273 407.39C 269 407.39 266.5 406.89 266.5 406.89z"/>
			<g>
				<path style="stroke:none; fill:#600" d="M 269.932 396.89L 269.331 397.89C 269.331 397.89 278 397.945 278 397.39C 278 396.835 269.932 396.89 269.932 396.89z"/>
				<path style="stroke:none; fill:#600" d="M 267.21 403.89C 267.21 403.89 275 403.862 275 403.39C 275 402.918 267.414 402.89 267.414 402.89L 267.21 403.89z"/>
				<path style="stroke:none; fill:#600" d="M 268.365 399.89L 267.984 400.89C 267.984 400.89 276 400.903 276 400.39C 276 399.876 268.365 399.89 268.365 399.89z"/>
				<path style="stroke:none; fill:#600" d="M 275.735 390.89L 274.428 391.89C 274.428 391.89 282.5 391.82 282.5 391.39C 282.5 390.96 275.735 390.89 275.735 390.89z"/>
				<path style="stroke:none; fill:#600" d="M 271.43 394.89C 271.43 394.89 280.5 394.82 280.5 394.39C 280.5 393.96 272.302 393.89 272.302 393.89L 271.43 394.89z"/>
			</g>
			<path style="stroke:none; fill:#930" d="M 285.189 387.078C 284.097 387.039 275.5 385.89 270 391.89C 265.7 396.581 266 401.89 266.5 406.39C 266.5 406.39 267 405.118 267.21 403.89L 267.414 402.89C 267.553 402.281 267.734 401.611 267.984 400.89L 268.365 399.89C 268.63 399.242 268.952 398.571 269.331 397.89L 269.932 396.89C 270.254 396.389 270.603 395.887 271 395.39C 271.143 395.212 271.287 395.06 271.43 394.89L 272.302 393.89C 273.013 393.129 273.725 392.47 274.428 391.89L 275.735 390.89C 280.022 387.9 284.518 387.057 285.189 387.078z"/>
			<path style="stroke:none; fill:#930" d="M 285.189 387.078C 284.097 387.039 275.5 385.89 270 391.89C 265.7 396.581 266 401.89 266.5 406.39C 266.5 406.39 267 405.118 267.21 403.89L 267.414 402.89C 267.553 402.281 267.734 401.611 267.984 400.89L 268.365 399.89C 268.63 399.242 268.952 398.571 269.331 397.89L 269.932 396.89C 270.254 396.389 270.603 395.887 271 395.39C 271.143 395.212 271.287 395.06 271.43 394.89L 272.302 393.89C 273.013 393.129 273.725 392.47 274.428 391.89L 275.735 390.89C 280.022 387.9 284.518 387.057 285.189 387.078z"/>
			<path style="stroke:none; fill:#600" d="M 271.131 394.552C 265.553 400.637 265.98 409.514 266.001 409.89L 266.999 409.89C 266.995 409.802 266.602 401.017 271.869 395.228C 279 387.39 285.25 387.14 285.25 387.14C 280.65 387.14 276.239 388.98 271.131 394.552z"/>
		</g>
	</g>
</svg>
