<svg xmlns="http://www.w3.org/2000/svg" height="24" width="24">
    <g transform="matrix(1,0,0,-1,-264,408)" id="KDDI_D_">        <path d="M264.6 392.9h-.5v-2c0-3.9 5.3-7 12-7s12 3.1 12 7v2h-.6c-1.5 2.9-6.1 5-11.4 5-5.3 0-9.9-2.1-11.5-5z" fill="#666"/>
        <path d="M266.3 386.9c1.1-1 2.6-1.7 4.5-2.3v6.7h-4.5z" fill="#999"/>
        <path d="M286.3 387.2v4.4H280v-7.3c2.6.5 4.8 1.5 6.3 2.9z" fill="#333"/>
        <path d="M287.6 393.1c0-3.5-5.2-6.4-11.5-6.4-6.4 0-11.5 2.9-11.5 6.4 0 3.6 5.1 6.5 11.5 6.5 6.3 0 11.5-2.9 11.5-6.5z" fill="#fff"/>
        <path d="M284.1 393.3c0-2.5-3.6-4.5-8-4.5-4.5 0-8.1 2-8.1 4.5s3.6 4.5 8.1 4.5c4.4 0 8-2 8-4.5z" fill="#39f"/>
        <path d="M277.4 397.5c1.8-.5 2.9-1.7 3.9-2.1.6-.2 1.3-1.3 1.1-1.9-.1-.6-1.1-.5-1.3-1.8-.1-.9-1.5-.4-2.5-1.1-.9-.6-1.9.2-3.2.2-.8 0-1.7-1.1-2.9-.5-.6.3-1.2-.3-3.2 1.1 1.3-1.4 3.8-2.4 6.8-2.4 4.2 0 7.6 1.9 7.6 4.3 0 2.1-2.8 3.8-6.3 4.2z" fill="#6ff"/>
        <path d="M276.8 396.8c3.1 0 5.8-1 7.1-2.4-.9 1.9-4 3.4-7.8 3.4-4.5 0-8.1-2-8.1-4.5 0-.8.4-1.5.9-2.1-.1.3-.2.7-.2 1.1 0 2.5 3.6 4.5 8.1 4.5z" fill="#66c"/>
        <path d="M287.6 393.1c0-3.5-5.2-6.4-11.5-6.4-6.4 0-11.5 2.9-11.5 6.4 0 3.6 5.1 6.5 11.5 6.5 6.3 0 11.5-2.9 11.5-6.5z" fill="none" stroke="#999"/>
        <path d="M264.7 402.6c0-1.7-.1-3.8-.1-3.8" fill="none" stroke="#30f" stroke-width="1.5" stroke-linecap="round"/>
        <path d="M270.4 407.4c-3.6 0-5.7-3-5.7-4.8" fill="none" stroke="#36f" stroke-width="1.5" stroke-linecap="round"/>
        <path d="M275.9 393.3v9.1c0 1.6-1.9 5-5.5 5M281.5 407.4c3.6 0 5.7-3 5.7-4.8 0-1.7.1-3.8.1-3.8" fill="none" stroke="#30f" stroke-width="1.5" stroke-linecap="round"/>
        <path d="M275.9 393.3v9.1" fill="none" stroke="#30c" stroke-width="1.5" stroke-linecap="round"/>
        <path d="M275.9 402.4c0 1.6 2 5 5.6 5" fill="none" stroke="#36f" stroke-width="1.5" stroke-linecap="round"/>
    </g>
</svg>
