<svg xmlns="http://www.w3.org/2000/svg" width="24" height="24">
	<g transform="translate(-264,-386)" id="KDDI_D_361">
		<g>
			<path style="stroke:none; fill:none" d="M 288 409.89L 264 409.89L 264 385.89L 288 385.89L 288 409.89z"/>
		</g>
		<g>
			<path style="stroke:none; fill:#6cf" d="M 288 400.89L 264 400.89L 264 385.89L 288 385.89L 288 400.89z"/>
			<path style="stroke:none; fill:#060" d="M 287.994 385.914L 276.069 385.914C 275.52 385.914 275.069 386.364 275.069 386.914C 275.069 387.464 274.704 387.914 274.257 387.914C 273.81 387.914 273.444 388.252 273.444 388.664C 273.444 389.077 272.994 389.414 272.444 389.414L 270.444 389.414C 269.895 389.414 269.444 389.864 269.444 390.414C 269.444 390.964 268.994 391.414 268.444 391.414L 266.944 391.414C 266.395 391.414 265.944 391.864 265.944 392.414C 265.944 392.964 265.522 393.414 265.007 393.414C 264.491 393.414 264 393.864 264 394.414L 264 400.89L 287.994 400.89L 287.994 385.914z"/>
			<path style="stroke:#390; stroke-width:1; stroke-linecap:round; fill:none" d="M 269.5 392.39C 269.5 392.89 269.5 394.39 269.5 394.89C 269.5 395.39 269 395.39 268.5 395.89"/>
			<path style="stroke:#390; stroke-width:1; stroke-linecap:round; fill:none" d="M 275 391.39L 275 392.39"/>
			<path style="stroke:#3c0; stroke-width:1; stroke-linecap:round; fill:none" d="M 272 393.39L 272 394.39"/>
			<path style="stroke:#390; stroke-width:1; stroke-linecap:round; fill:none" d="M 278.5 388.39C 279.5 389.39 279 388.89 279.5 389.39"/>
			<path style="stroke:#390; stroke-width:1; stroke-linecap:round; fill:none" d="M 284 387.89C 285 388.39 286.5 389.89 286.5 390.89C 286.5 391.89 286.5 392.89 286.5 392.89"/>
			<path style="stroke:none; fill:#3c0" d="M 275 400.89L 264 400.89L 264 409.89L 275 409.89L 275 400.89z"/>
			<path style="stroke:none; fill:#666" d="M 288 408.89L 269 408.89L 269 409.89L 288 409.89L 288 408.89z"/>
			<path style="stroke:none; fill:#999" d="M 274 408.89L 281.5 408.89L 281.5 409.89L 274 409.89L 274 408.89z"/>
			<path style="stroke:none; fill:#333" d="M 287 408.89L 288 408.89L 288 409.89L 287 409.89L 287 408.89z"/>
			<path style="stroke:none; fill:#333" d="M 280.5 408.89L 281.5 408.89L 281.5 409.89L 280.5 409.89L 280.5 408.89z"/>
			<path style="stroke:none; fill:#c60" d="M 286 398.89L 271 398.89L 271 399.89L 286 399.89L 286 398.89z"/>
			<path style="stroke:none; fill:#930" d="M 286 397.89L 272 397.89L 272 398.89L 286 398.89L 286 397.89z"/>
			<path style="stroke:none; fill:#930" d="M 286 399.89L 270 399.89L 270 400.89L 286 400.89L 286 399.89z"/>
			<path style="stroke:none; fill:#c60" d="M 286 400.89L 271 400.89L 271 401.89L 286 401.89L 286 400.89z"/>
			<path style="stroke:none; fill:#930" d="M 286 401.89L 271 401.89L 271 402.89L 286 402.89L 286 401.89z"/>
			<path style="stroke:none; fill:#c60" d="M 286 402.89L 271 402.89L 271 403.89L 286 403.89L 286 402.89z"/>
			<path style="stroke:none; fill:#930" d="M 286 403.89L 271 403.89L 271 404.89L 286 404.89L 286 403.89z"/>
			<path style="stroke:none; fill:#c60" d="M 286 404.89L 271 404.89L 271 405.89L 286 405.89L 286 404.89z"/>
			<path style="stroke:none; fill:#930" d="M 286 405.89L 271 405.89L 271 406.89L 286 406.89L 286 405.89z"/>
			<path style="stroke:none; fill:#c60" d="M 286 406.89L 271 406.89L 271 407.89L 286 407.89L 286 406.89z"/>
			<path style="stroke:none; fill:#930" d="M 286 407.89L 271 407.89L 271 408.89L 286 408.89L 286 407.89z"/>
			<path style="stroke:none; fill:#c60" d="M 286 399.89L 288 399.89L 288 400.89L 286 400.89L 286 399.89z"/>
			<path style="stroke:none; fill:#930" d="M 286 398.89L 288 398.89L 288 399.89L 286 399.89L 286 398.89z"/>
			<path style="stroke:none; fill:#930" d="M 286 400.89L 288 400.89L 288 401.89L 286 401.89L 286 400.89z"/>
			<path style="stroke:none; fill:#c60" d="M 286 396.89L 273 396.89L 273 397.89L 286 397.89L 286 396.89z"/>
			<path style="stroke:none; fill:#930" d="M 286 395.89L 274 395.89L 274 396.89L 286 396.89L 286 395.89z"/>
			<path style="stroke:none; fill:#c60" d="M 286 394.89L 275 394.89L 275 395.89L 286 395.89L 286 394.89z"/>
			<path style="stroke:none; fill:#930" d="M 286 393.89L 276 393.89L 276 394.89L 286 394.89L 286 393.89z"/>
			<path style="stroke:none; fill:#c60" d="M 280.5 392.89L 277 392.89L 277 393.89L 280.5 393.89L 280.5 392.89z"/>
			<path style="stroke:none; fill:#930" d="M 280.5 391.89L 278 391.89L 278 392.89L 280.5 392.89L 280.5 391.89z"/>
			<path style="stroke:none; fill:#c60" d="M 286 401.89L 288 401.89L 288 402.89L 286 402.89L 286 401.89z"/>
			<path style="stroke:none; fill:#930" d="M 286 402.89L 288 402.89L 288 403.89L 286 403.89L 286 402.89z"/>
			<path style="stroke:none; fill:#c60" d="M 286 403.89L 288 403.89L 288 404.89L 286 404.89L 286 403.89z"/>
			<path style="stroke:none; fill:#930" d="M 286 404.89L 288 404.89L 288 405.89L 286 405.89L 286 404.89z"/>
			<path style="stroke:none; fill:#c60" d="M 286 405.89L 288 405.89L 288 406.89L 286 406.89L 286 405.89z"/>
			<path style="stroke:none; fill:#930" d="M 286 406.89L 288 406.89L 288 407.89L 286 407.89L 286 406.89z"/>
			<path style="stroke:none; fill:#c60" d="M 286 407.89L 288 407.89L 288 408.89L 286 408.89L 286 407.89z"/>
			<path style="stroke:none; fill:#600" d="M 277.5 392.89L 279 392.89L 279 391.89L 277.5 391.89L 277.5 392.89z"/>
			<path style="stroke:none; fill:#c93" d="M 277 392.39C 277 392.666 277.224 392.89 277.5 392.89C 277.776 392.89 278 392.666 278 392.39C 278 392.113 277.776 391.89 277.5 391.89C 277.224 391.89 277 392.113 277 392.39z"/>
			<path style="stroke:none; fill:#600" d="M 276.5 393.89L 278 393.89L 278 392.89L 276.5 392.89L 276.5 393.89z"/>
			<path style="stroke:none; fill:#c93" d="M 276 393.39C 276 393.666 276.224 393.89 276.5 393.89C 276.776 393.89 277 393.666 277 393.39C 277 393.113 276.776 392.89 276.5 392.89C 276.224 392.89 276 393.113 276 393.39z"/>
			<path style="stroke:none; fill:#600" d="M 275.5 394.89L 277 394.89L 277 393.89L 275.5 393.89L 275.5 394.89z"/>
			<path style="stroke:none; fill:#c93" d="M 275 394.39C 275 394.666 275.224 394.89 275.5 394.89C 275.776 394.89 276 394.666 276 394.39C 276 394.113 275.776 393.89 275.5 393.89C 275.224 393.89 275 394.113 275 394.39z"/>
			<path style="stroke:none; fill:#600" d="M 274.5 395.89L 276 395.89L 276 394.89L 274.5 394.89L 274.5 395.89z"/>
			<path style="stroke:none; fill:#c93" d="M 274 395.39C 274 395.666 274.224 395.89 274.5 395.89C 274.776 395.89 275 395.666 275 395.39C 275 395.113 274.776 394.89 274.5 394.89C 274.224 394.89 274 395.113 274 395.39z"/>
			<path style="stroke:none; fill:#600" d="M 273.5 396.89L 275 396.89L 275 395.89L 273.5 395.89L 273.5 396.89z"/>
			<path style="stroke:none; fill:#c93" d="M 273 396.39C 273 396.666 273.224 396.89 273.5 396.89C 273.776 396.89 274 396.666 274 396.39C 274 396.113 273.776 395.89 273.5 395.89C 273.224 395.89 273 396.113 273 396.39z"/>
			<path style="stroke:none; fill:#600" d="M 272.5 397.89L 274 397.89L 274 396.89L 272.5 396.89L 272.5 397.89z"/>
			<path style="stroke:none; fill:#c93" d="M 272 397.39C 272 397.666 272.224 397.89 272.5 397.89C 272.776 397.89 273 397.666 273 397.39C 273 397.113 272.776 396.89 272.5 396.89C 272.224 396.89 272 397.113 272 397.39z"/>
			<path style="stroke:none; fill:#600" d="M 271.5 398.89L 273 398.89L 273 397.89L 271.5 397.89L 271.5 398.89z"/>
			<path style="stroke:none; fill:#c93" d="M 271 398.39C 271 398.666 271.224 398.89 271.5 398.89C 271.776 398.89 272 398.666 272 398.39C 272 398.113 271.776 397.89 271.5 397.89C 271.224 397.89 271 398.113 271 398.39z"/>
			<path style="stroke:none; fill:#600" d="M 270.5 399.89L 272 399.89L 272 398.89L 270.5 398.89L 270.5 399.89z"/>
			<path style="stroke:none; fill:#600" d="M 269.5 400.89L 271 400.89L 271 399.89L 269.5 399.89L 269.5 400.89z"/>
			<path style="stroke:none; fill:#c93" d="M 270 399.39C 270 399.666 270.224 399.89 270.5 399.89C 270.776 399.89 271 399.666 271 399.39C 271 399.113 270.776 398.89 270.5 398.89C 270.224 398.89 270 399.113 270 399.39z"/>
			<path style="stroke:none; fill:#cc9" d="M 281.5 408.89L 281.5 401.407C 281.5 399.483 280.425 397.907 278.5 397.907C 276.575 397.907 275.5 399.483 275.5 401.407L 275.5 408.89L 281.5 408.89z"/>
			<path style="stroke:none; fill:#c93" d="M 269 400.39C 269 400.666 269.224 400.89 269.5 400.89C 269.776 400.89 270 400.666 270 400.39C 270 400.113 269.776 399.89 269.5 399.89C 269.224 399.89 269 400.113 269 400.39z"/>
			<path style="stroke:none; fill:#06f" d="M 279.5 401.89L 277.5 401.89L 277.5 399.89L 279.5 399.89L 279.5 401.89z"/>
			<g>
				<path style="stroke:none; fill:#930" d="M 288 391.89L 278.5 391.89L 278.5 390.89L 288 390.89L 288 391.89z"/>
				<path style="stroke:none; fill:#c93" d="M 279 391.39C 279 391.666 278.776 391.89 278.5 391.89C 278.224 391.89 278 391.666 278 391.39C 278 391.113 278.224 390.89 278.5 390.89C 278.776 390.89 279 391.113 279 391.39z"/>
				<path style="stroke:none; fill:#c60" d="M 288 392.89L 279.5 392.89L 279.5 391.89L 288 391.89L 288 392.89z"/>
				<path style="stroke:none; fill:#c93" d="M 280 392.39C 280 392.666 279.776 392.89 279.5 392.89C 279.224 392.89 279 392.666 279 392.39C 279 392.113 279.224 391.89 279.5 391.89C 279.776 391.89 280 392.113 280 392.39z"/>
				<path style="stroke:none; fill:#930" d="M 288 393.89L 280.5 393.89L 280.5 392.89L 288 392.89L 288 393.89z"/>
				<path style="stroke:none; fill:#c93" d="M 281 393.39C 281 393.666 280.776 393.89 280.5 393.89C 280.224 393.89 280 393.666 280 393.39C 280 393.113 280.224 392.89 280.5 392.89C 280.776 392.89 281 393.113 281 393.39z"/>
				<path style="stroke:none; fill:#c60" d="M 288 394.89L 281.5 394.89L 281.5 393.89L 288 393.89L 288 394.89z"/>
				<path style="stroke:none; fill:#c93" d="M 282 394.39C 282 394.666 281.776 394.89 281.5 394.89C 281.224 394.89 281 394.666 281 394.39C 281 394.113 281.224 393.89 281.5 393.89C 281.776 393.89 282 394.113 282 394.39z"/>
				<path style="stroke:none; fill:#930" d="M 288 395.89L 282.5 395.89L 282.5 394.89L 288 394.89L 288 395.89z"/>
				<path style="stroke:none; fill:#c93" d="M 283 395.39C 283 395.666 282.776 395.89 282.5 395.89C 282.224 395.89 282 395.666 282 395.39C 282 395.113 282.224 394.89 282.5 394.89C 282.776 394.89 283 395.113 283 395.39z"/>
				<path style="stroke:none; fill:#c60" d="M 288 396.89L 283.5 396.89L 283.5 395.89L 288 395.89L 288 396.89z"/>
				<path style="stroke:none; fill:#c93" d="M 284 396.39C 284 396.666 283.776 396.89 283.5 396.89C 283.224 396.89 283 396.666 283 396.39C 283 396.113 283.224 395.89 283.5 395.89C 283.776 395.89 284 396.113 284 396.39z"/>
				<path style="stroke:none; fill:#930" d="M 288 397.89L 284.5 397.89L 284.5 396.89L 288 396.89L 288 397.89z"/>
				<path style="stroke:none; fill:#c93" d="M 285 397.39C 285 397.666 284.776 397.89 284.5 397.89C 284.224 397.89 284 397.666 284 397.39C 284 397.113 284.224 396.89 284.5 396.89C 284.776 396.89 285 397.113 285 397.39z"/>
				<path style="stroke:none; fill:#c60" d="M 288 398.89L 285.5 398.89L 285.5 397.89L 288 397.89L 288 398.89z"/>
				<path style="stroke:none; fill:#c93" d="M 286 398.39C 286 398.666 285.776 398.89 285.5 398.89C 285.224 398.89 285 398.666 285 398.39C 285 398.113 285.224 397.89 285.5 397.89C 285.776 397.89 286 398.113 286 398.39z"/>
				<path style="stroke:none; fill:#930" d="M 288 399.89L 286.5 399.89L 286.5 398.89L 288 398.89L 288 399.89z"/>
				<path style="stroke:none; fill:#c93" d="M 287 399.39C 287 399.666 286.776 399.89 286.5 399.89C 286.224 399.89 286 399.666 286 399.39C 286 399.113 286.224 398.89 286.5 398.89C 286.776 398.89 287 399.113 287 399.39z"/>
				<path style="stroke:none; fill:#c60" d="M 288 400.89L 287.5 400.89L 287.5 399.89L 288 399.89L 288 400.89z"/>
				<path style="stroke:none; fill:#c93" d="M 288 400.39C 288 400.666 287.776 400.89 287.5 400.89C 287.224 400.89 287 400.666 287 400.39C 287 400.113 287.224 399.89 287.5 399.89C 287.776 399.89 288 400.113 288 400.39z"/>
			</g>
			<path style="stroke:#390; stroke-width:1; stroke-linecap:round; fill:none" d="M 265.917 397.39L 265.917 398.39"/>
		</g>
	</g>
</svg>
