<svg xmlns="http://www.w3.org/2000/svg" width="24" height="24">
	<g transform="translate(-264,-386)" id="KDDI_D_362">
		<g>
			<path style="stroke:none; fill:none" d="M 288 409.89L 264 409.89L 264 385.89L 288 385.89L 288 409.89z"/>
		</g>
		<g>
			<path style="stroke:none; fill:#960" d="M 286 403.23C 286 404.33 285.1 405.23 284 405.23L 272 405.23C 270.9 405.23 270 404.33 270 403.23L 267.5 389.39L 270 386.89C 270.5 386.39 270.9 385.89 272 385.89L 284 385.89C 285.1 385.89 286 386.79 286 387.89L 286 403.23z"/>
			<path style="stroke:none; fill:#630" d="M 286 403.89L 286 387.89C 286 387.34 285.775 386.84 285.413 386.477L 274.5 397.39L 280.5 409.335L 281.5 409.39C 281.5 409.39 285.086 405.803 285.5 405.39C 286 404.89 286 404.39 286 403.89z"/>
			<path style="stroke:none; fill:#ccc" d="M 282 387.89L 269 387.89L 267.5 389.39L 270 403.23C 270 404.33 270.9 405.23 272 405.23L 284 405.23L 284 389.89C 284 388.79 283.1 387.89 282 387.89z"/>
			<path style="stroke:none; fill:#999" d="M 284 405.89L 284 389.89C 284 389.34 283.775 388.84 283.413 388.477L 272.5 399.39L 280 409.314L 281.5 409.39C 281.5 409.39 283.405 407.484 283.5 407.39C 284 406.89 284 406.39 284 405.89z"/>
			<path style="stroke:none; fill:#fff" d="M 282 407.89C 282 409.235 281.328 409.89 280 409.89L 269 409.89C 267.729 409.89 267 409.23 267 407.89L 267 390.89C 267 389.564 267.719 388.89 269 388.89L 280 388.89C 281.344 388.89 282 389.564 282 390.89L 282 407.89z"/>
			<path style="stroke:#900; stroke-width:1; fill:none" d="M 278.5 400.39L 270.5 400.39L 270.5 396.39L 278.5 396.39L 278.5 400.39z"/>
			<path style="stroke:#900; stroke-width:1; fill:none" d="M 274.5 393.89L 274.5 404.89"/>
			<path style="stroke:none; fill:#333" d="M 280.5 408.939L 269 408.939C 268.243 408.939 268 408.647 268 407.89L 268 390.389C 268 388.889 269 387.89 269 387.89L 267.504 389.412C 267.175 389.746 267 390.238 267 390.89L 267 407.89C 267 409.23 267.729 409.89 269 409.89L 280 409.89C 280.671 409.89 281.174 409.721 281.508 409.382C 281.551 409.338 283.5 407.39 283.5 407.39C 283.5 407.39 282 408.939 280.5 408.939z"/>
		</g>
	</g>
</svg>
