<svg xmlns="http://www.w3.org/2000/svg" width="24" height="24">
	<g transform="translate(-264,-386)" id="KDDI_D_363">
		<g>
			<path style="stroke:none; fill:none" d="M 288 409.89L 264 409.89L 264 385.89L 288 385.89L 288 409.89z"/>
		</g>
		<g>
			<path style="stroke:none; fill:#f93" d="M 266.34 385.927C 266.34 385.927 266.418 386.992 266.185 387.602C 265.953 388.211 266.03 389.2 266.728 389.2C 267.425 389.2 267.735 388.363 267.503 387.83C 267.038 388.44 266.65 388.059 266.883 387.449C 267.115 386.84 266.34 385.927 266.34 385.927z"/>
			<path style="stroke:none; fill:#ff0" d="M 275.53 385.901C 275.53 385.901 275.627 387.4 275.338 388.257C 275.05 389.114 275.146 390.506 276.012 390.506C 276.877 390.506 277 389.97 277.031 388.845C 276.454 389.701 276.148 389.171 276.438 388.314C 276.726 387.457 275.53 385.901 275.53 385.901z"/>
			<path style="stroke:none; fill:#f93" d="M 272.5 409.89C 269 409.89 267.5 408.39 266.5 407.39C 265.5 406.39 264 403.89 264 401.89C 264 399.89 266 399.39 266 397.89C 266 396.39 264 396.39 264 392.89C 265.062 393.689 265.773 394.001 267.188 394.001C 267.939 394.001 268.375 392.939 268 391.501C 271.5 394.814 272.542 387.71 272.542 387.71C 272.542 387.71 273 393.39 274 393.39C 275 393.39 276 390.376 276 390.376C 276 390.376 276.5 391.39 277.5 391.39C 279.5 391.39 281.5 390.39 281.5 387.89C 281.5 387.89 281.879 391.183 284 391.89C 285.5 392.39 286.333 392.085 287.167 390.501C 287.917 393.668 285.5 393.39 286.5 395.39C 287.132 396.655 288 399.39 288 400.89C 288 401.958 288 403.39 288 404.89C 288 405.753 288 407.89 287 408.89C 285.741 410.149 282.5 409.89 280.5 409.89C 278.5 409.89 272.5 409.89 272.5 409.89z"/>
			<path style="stroke:none; fill:#f30" d="M 287 408.89C 288.006 407.896 288 405.753 288 404.89C 288 404.339 288 400.143 288 399.626C 287.125 401.689 286.118 401.233 285.625 400.626C 284.969 399.818 287.938 398.439 287.938 394.939C 285.938 396.189 287.167 394.543 286.667 392.835C 286.167 393.668 285.685 393.911 285 393.814C 283.25 393.564 276 402.564 276 402.564L 271.062 405.689L 271.964 409.86C 272.145 409.869 272.308 409.89 272.5 409.89C 272.5 409.89 272.841 409.89 273.378 409.89C 273.865 409.48 274.339 408.694 274.5 407.189C 274.875 403.689 275.562 404.689 275.562 404.689C 275.562 404.689 278.938 407.189 277 407.439C 278.438 410.22 280.25 409.876 281.147 409.912C 283.125 409.912 285.875 410.001 287 408.89z"/>
			<path style="stroke:none; fill:#f30" d="M 268.5 405.126C 268.312 403.939 267.208 402.501 265.833 402.501C 264.931 402.501 264.574 399.931 264.375 399.376C 264.255 399.668 264 401.504 264 401.89C 264 403.89 265.5 406.39 266.5 407.39C 267.468 408.358 268.922 409.782 272.188 409.873L 272.188 409.001C 271.25 409.564 268.688 406.314 268.5 405.126z"/>
			<path style="stroke:none; fill:#ff0" d="M 268.471 389.464C 268.471 389.464 267.355 390.373 267.571 391.265C 267.75 392.001 268.771 391.565 268.471 390.964C 268.171 390.364 268.171 390.065 268.471 389.464z"/>
			<path style="stroke:none; fill:#f30" d="M 273.25 391.876C 272.625 392.918 272.476 391.759 272.375 391.46C 272.236 391.048 272.261 389.643 272.25 389.501C 271.708 390.96 270.958 393.293 272.333 393.335C 273.011 393.355 273.292 392.918 273.25 391.876z"/>
			<path style="stroke:none; fill:#f30" d="M 277.292 390.376C 276.542 392.543 276.479 394.918 278.292 395.418C 280.104 395.918 281.5 393.403 280.938 392.89C 280.938 392.89 278.708 394.043 277.958 392.668C 277.208 391.293 277.292 390.376 277.292 390.376z"/>
			<path style="stroke:none; fill:#f30" d="M 280.583 392.599C 280.583 392.599 280.542 391.46 281 389.085C 281.292 391.169 281.667 392.044 282.667 392.627C 284.396 393.634 281.146 394.3 280.583 392.599z"/>
			<path style="stroke:none; fill:#c00" d="M 267.792 406.46C 268.125 407.251 268.062 409.126 269.312 409.314C 269.312 409.314 270.167 409.043 269.688 407.689C 268.803 405.188 267.583 405.418 266.25 403.335C 266.542 405.668 267.458 405.668 267.792 406.46z"/>
			<path style="stroke:none; fill:#ff0" d="M 266.031 391.939C 266.031 391.939 266.625 394.314 268.375 394.314C 268.716 394.314 270.656 393.626 271.25 391.96C 271.998 393.243 271.659 394.598 271.522 395.567C 271.424 396.258 271.562 396.81 272 396.89C 272.438 396.97 272.798 396.549 272.842 395.779C 272.886 395.01 272.927 393.99 273.667 393.168C 274.75 396.876 274.875 392.626 276.562 391.439C 276.708 392.585 277 395.39 278.5 395.39C 279.559 395.39 280.25 393.96 280.25 392.46C 281.542 393.46 282.706 393.39 283 393.39C 284 393.39 285 392.251 285.167 390.835C 285.667 391.835 285.938 392.876 285.438 393.689C 284.479 395.246 285.167 396.918 286.833 395.751C 286.833 397.126 286 398.088 286 398.89C 286 400.06 286.395 404.15 287.562 402.001C 288.025 402.876 288 403.814 288 404.89C 288 406.57 286.918 408.249 285.688 409.126C 284.722 409.815 283.66 409.89 283 409.89C 281.419 409.89 278.688 409.112 278.125 406.939C 281.125 407.439 276 403.251 276 403.251C 276 403.251 275.445 404.84 275.208 405.876C 274.737 407.942 273.938 409.89 272 409.89C 270.373 409.89 269.125 408.939 267.625 404.876C 269.125 406.05 268.5 403.314 267.5 401.085C 266.656 399.204 265.625 398.282 265.625 394.657C 265.625 393.157 266.031 391.939 266.031 391.939z"/>
			<path style="stroke:none; fill:#ff9" d="M 281.544 406.589C 281.732 405.927 280.307 405.651 279.745 405.389C 279.182 405.127 278.169 403.701 278.245 402.989C 278.245 402.989 277.908 404.168 278.395 405.322C 278.882 406.477 280.982 408.576 281.544 406.589z"/>
			<path style="stroke:none; fill:#00f" d="M 279 398.89C 279 400.885 279.985 401.897 282.402 402.38C 284.809 402.861 285 403.762 285 404.89C 285 406.619 284.229 407.39 282.5 407.39C 280.771 407.39 280 406.619 280 404.89L 279 404.89C 279 407.179 280.21 408.39 282.5 408.39C 284.79 408.39 286 407.179 286 404.89C 286 402.894 285.015 401.883 282.598 401.4C 280.191 400.918 280 400.017 280 398.89C 280 397.686 280.782 396.39 282.5 396.39C 284.229 396.39 285 397.161 285 398.89L 286 398.89C 286 396.6 284.79 395.39 282.5 395.39C 280.202 395.39 279 397.15 279 398.89z"/>
			<path style="stroke:none; fill:#00f" d="M 275.793 395.39C 275.086 397.624 273.031 404.139 272.468 406.15C 271.833 404.165 269.542 397.668 268.737 395.39L 267.672 395.39L 272.135 408.39L 272.879 408.39L 276.847 395.39L 275.793 395.39z"/>
			<path style="stroke:none; fill:#c00" d="M 274.812 409.814C 274.156 409.689 274.31 408.969 274.656 408.345C 274.969 407.782 275.438 407.189 275.438 407.189C 275.438 407.189 275.219 408.22 275.469 408.657C 275.719 409.095 275.488 409.942 274.812 409.814z"/>
			<path style="stroke:none; fill:#f93" d="M 277.042 402.918C 278.25 403.46 278.312 402.23 277.917 399.501C 278.271 399.897 279 401.251 279.167 402.085C 279.309 402.799 279.062 404.126 278.562 404.501C 278.062 404.876 277.125 404.001 277.042 402.918z"/>
			<path style="stroke:none; fill:#ff9" d="M 274.443 406.668C 274.235 406.042 274.207 405.565 274.207 405.565C 274.207 405.565 273.415 408.555 274.613 407.988C 275.184 407.718 274.636 407.254 274.443 406.668z"/>
			<path style="stroke:none; fill:#ff9" d="M 266.88 395.668C 266.672 395.042 266.645 394.565 266.645 394.565C 266.645 394.565 265.853 397.555 267.05 396.988C 267.622 396.718 267.074 396.254 266.88 395.668z"/>
			<path style="stroke:none; fill:#c00" d="M 279.25 391.501C 278.957 391.11 279.6 390.878 279.688 390.439C 279.781 389.97 279.792 389.376 279.542 388.918C 279.542 388.918 280.542 389.897 280.375 390.689C 280.212 391.462 279.531 391.876 279.25 391.501z"/>
			<path style="stroke:none; fill:#ff0" d="M 281.188 386.064C 281.188 386.064 281.25 386.939 281.062 387.439C 280.875 387.939 280.938 388.751 281.5 388.751C 282.062 388.751 282.312 388.064 282.125 387.626C 281.75 388.126 281.438 387.814 281.625 387.314C 281.812 386.814 281.188 386.064 281.188 386.064z"/>
			<path style="stroke:none; fill:#f30" d="M 276.012 390.506C 276.877 390.506 277 389.97 277.031 388.845C 276.521 389.98 275.604 389.835 275.771 388.98C 275.871 388.47 275.583 388.019 275.476 387.613C 275.445 387.843 275.402 388.067 275.338 388.257C 275.05 389.114 275.146 390.506 276.012 390.506z"/>
			<path style="stroke:none; fill:#f30" d="M 266.728 389.2C 267.328 389.2 267.639 388.58 267.566 388.067C 267.566 388.067 266.984 389.017 266.5 388.126C 266.357 387.863 266.606 387.232 266.325 386.914C 266.302 387.157 266.261 387.403 266.185 387.602C 265.953 388.211 266.03 389.2 266.728 389.2z"/>
			<path style="stroke:none; fill:#f93" d="M 286.673 385.927C 286.673 385.927 286.751 386.992 286.519 387.602C 286.287 388.211 286.364 389.2 287.061 389.2C 287.758 389.2 288.069 388.363 287.836 387.83C 287.372 388.44 286.984 388.059 287.216 387.449C 287.449 386.84 286.673 385.927 286.673 385.927z"/>
			<path style="stroke:none; fill:#f30" d="M 287.061 389.2C 287.662 389.2 287.973 388.58 287.9 388.067C 287.9 388.067 287.318 389.017 286.833 388.126C 286.69 387.863 286.94 387.232 286.659 386.914C 286.635 387.157 286.595 387.403 286.519 387.602C 286.287 388.211 286.364 389.2 287.061 389.2z"/>
			<path style="stroke:none; fill:#ff9" d="M 275.479 406.272C 274.09 406.426 274.229 405.022 274.812 404.022C 275.396 403.022 275.728 401.688 275.646 400.605C 276.396 402.022 276.979 406.106 275.479 406.272z"/>
		</g>
	</g>
</svg>
