<svg xmlns="http://www.w3.org/2000/svg" width="24" height="24">
	<g transform="translate(-264,-386)" id="KDDI_D_364">
		<g>
			<path style="stroke:none; fill:none" d="M 288 409.89L 264 409.89L 264 385.89L 288 385.89L 288 409.89z"/>
		</g>
		<g>
			<path style="stroke:#900; stroke-width:1; fill:none" d="M 267.5 393.39C 267.5 394.39 269 396.39 269.5 396.89C 270 397.39 270.5 398.39 269.5 399.39C 268.5 400.39 265 403.39 265 406.39"/>
			<path style="stroke:none; fill:#c93" d="M 283.468 387.177L 283.147 387.536C 282.766 387.917 282.293 388.39 282 388.39L 282 389.39C 282.707 389.39 283.29 388.807 283.853 388.243L 284.228 387.828C 284.604 387.388 285.031 386.89 285.5 386.89C 286.543 386.89 287 387.079 287 388.89C 287 392.406 282.332 393.613 280.902 393.9L 281.098 394.88C 282.717 394.556 288 393.167 288 388.89C 288 387.332 287.697 385.89 285.5 385.89C 284.571 385.89 283.933 386.634 283.468 387.177z"/>
			<path style="stroke:none; fill:#c93" d="M 264 388.89C 264 393.167 269.283 394.556 270.902 394.88L 271.098 393.9C 269.668 393.613 265 392.406 265 388.89C 265 387.079 265.457 386.89 266.5 386.89C 266.969 386.89 267.396 387.388 267.772 387.828L 268.147 388.243C 268.71 388.807 269.293 389.39 270 389.39L 270 388.39C 269.707 388.39 269.234 387.917 268.853 387.536L 268.532 387.177C 268.067 386.634 267.429 385.89 266.5 385.89C 264.303 385.89 264 387.332 264 388.89z"/>
			<path style="stroke:none; fill:#960" d="M 285.507 391.89C 284.013 393.164 281.809 393.718 280.902 393.9L 281.098 394.88C 282.254 394.649 285.267 393.868 286.903 391.89L 285.507 391.89z"/>
			<path style="stroke:none; fill:#960" d="M 270.902 394.88L 271.098 393.9C 270.191 393.718 267.987 393.164 266.493 391.89L 265.097 391.89C 266.733 393.868 269.746 394.649 270.902 394.88z"/>
			<path style="stroke:none; fill:#c93" d="M 269.938 385.939C 269.938 385.939 269.938 390.39 269.938 391.39C 269.938 394.89 272.938 398.89 275.938 398.89C 278.938 398.89 281.938 394.89 281.938 391.39C 281.938 390.39 281.938 385.939 281.938 385.939"/>
			<path style="stroke:none; fill:#c93" d="M 279 405.39L 273 405.39L 273 402.89L 279 402.89L 279 405.39z"/>
			<path style="stroke:#960; stroke-width:2; fill:none" d="M 275.938 398.89L 275.938 405.89"/>
			<path style="stroke:none; fill:#000" d="M 280.5 409.39L 271.5 409.39L 271.5 404.89L 280.5 404.89L 280.5 409.39z"/>
			<path style="stroke:none; fill:#000" d="M 282 409.89L 270 409.89L 270 407.89L 282 407.89L 282 409.89z"/>
			<path style="stroke:none; fill:#c93" d="M 279 407.89L 273 407.89L 273 406.39L 279 406.39L 279 407.89z"/>
			<path style="stroke:none; fill:#fc6" d="M 277 407.89L 275 407.89L 275 406.39L 277 406.39L 277 407.89z"/>
			<path style="stroke:none; fill:#fc6" d="M 278.5 392.89C 278.5 396.39 275.417 396.89 274 396.89C 272.583 396.89 271.5 396.39 271.5 396.39L 270 393.39L 270 385.89L 278.5 385.89C 278.5 385.89 278.5 390.445 278.5 392.89z"/>
			<path style="stroke:none; fill:#ff9" d="M 274 393.39C 274 395.418 274.5 396.89 274.5 396.89C 274.5 396.89 272 395.89 272 392.89C 272 389.89 272 385.89 272 385.89L 274 385.89C 274 385.89 274 391.362 274 393.39z"/>
			<path style="stroke:#960; stroke-width:1; fill:none" d="M 269.938 385.939C 269.938 385.939 269.938 390.39 269.938 391.39C 269.938 394.89 272.938 398.89 275.938 398.89C 278.938 398.89 281.938 394.89 281.938 391.39C 281.938 390.39 281.938 385.939 281.938 385.939"/>
			<path style="stroke:#900; stroke-width:1; stroke-linecap:round; fill:none" d="M 269 392.39C 269 392.39 269 392.89 269 393.89"/>
			<path style="stroke:#f00; stroke-width:1; fill:none" d="M 269 393.89C 269 393.89 269 393.89 269 394.89C 269 396.89 271 397.89 271 399.89C 271 401.89 269 402.39 269 406.39"/>
		</g>
	</g>
</svg>
