<svg xmlns="http://www.w3.org/2000/svg" height="24" width="24">
    <g transform="matrix(1,0,0,-1,-264,408)" id="KDDI_D_">        <path d="M271.5 398.3s-1.5.9-1.8 1.7c-.3.9-.4 2.3-2 2.3s-1.7-.9-2.2-1.4c-.4-.5-1.5-.4-1.5-2.4 0-1.9 1.2-1.7 1.8-2.3.6-.6 1.2-1.8 2.5-2.7 1.2-.9 2.9-1.3 4.1-1.3 1.1 0-.9 6.1-.9 6.1z" fill="#960"/>
        <path d="M271.5 398.3s-1.5.9-1.8 1.7l-.3.9c-.2.7-.5.3-.5-.1 0-.3 0-.5.1-.8.3-.8 1.9-1.7 1.9-1.7s1.8-5.6.9-6c.2-.1.4-.1.6-.1 1.1 0-.9 6.1-.9 6.1z" fill="#930"/>
        <path d="M265.9 400.5c.4.5.5 1.3 1.6 1.3.5 0 1 .5.2.5-1.6 0-1.7-.9-2.2-1.4-.4-.5-1.5-.4-1.5-2.4 0-.8.2-1.3.6-1.5-.2.2-.3.6-.3 1.1 0 2 1.2 1.9 1.6 2.4z" fill="#c90"/>
        <path d="M276.7 389.6h4.2c1.6 0 3-1.7 3.1-3.7h4.1c0 3.6-2.5 6.4-5.6 6.4H275c-3 0-5.5-2.8-5.6-6.4h4.1c.2 2 1.5 3.7 3.2 3.7z" fill="#960"/>
        <path d="M272.6 385.9h.9c.2 2 1.5 3.7 3.2 3.7h-1c-1.6 0-3-1.7-3.1-3.7z" fill="#960"/>
        <path d="M282.5 392.3h-.9c3.1 0 5.5-2.8 5.6-6.4h.9c0 3.6-2.5 6.4-5.6 6.4zM281.4 390h-5.2c-1.9 0-3.6-1.9-3.8-4.1h1.1c.2 2 1.5 3.7 3.2 3.7h4.2c1.6 0 3-1.7 3.1-3.7h1.2c-.2 2.2-1.8 4.1-3.8 4.1z" fill="#930"/>
        <path d="M282 389.6h-1.1c1.6 0 3-1.7 3.1-3.7h1.2c-.2 2-1.5 3.7-3.2 3.7zM276.1 392.3H275c-3 0-5.5-2.8-5.6-6.4h1.1c.1 3.6 2.6 6.4 5.6 6.4z" fill="#c90"/>
        <path d="M272.6 391.1h12.5c1.7 0 2.5 1.5 2.7 2.2.1.8.2 1.6.2 2.4 0 5.8-4.1 10.4-9.2 10.4-5 0-9.1-4.6-9.1-10.4 0-.8.1-1.6.2-2.4.2-.7 1-2.2 2.7-2.2z" fill="#3c0"/>
        <path d="M281.2 405.8c-.8.2-1.4-.4-.4-1.1 2.5-1.8 4.2-5.2 4.2-9 0-.8-.1-1.6-.3-2.4-.1-.7 2.9-.7 3.1 0 .1.8.2 1.6.2 2.4 0 4.8-2.9 8.9-6.8 10.1z" fill="#093"/>
        <path d="M272.5 396c.5-.1.1 1.7.4 2.2.3.4 1.2-.2 1.3.3.7 2.6 2.3 3.9 4.3 5.3 1.3.8-.5 1.6-1.5 1.3-2.4-1-4.2-2.6-5.2-5.4-.5-1.2-.4-3.5.7-3.7z" fill="#3f0"/>
        <path d="M269.9 393.4v-.1c.2-.7 1-2.3 2.7-2.3h12.5c1.7 0 2.5 1.6 2.7 2.3v.1z" fill="#030"/>
        <path d="M279.1 394.6v3.2l3.1 2.6.5-.7-2.8-2.3v-1.9zM272.7 394.5v3.3l3 2.6.5-.7-2.7-2.3v-2.1z" fill="#3f0"/>
        <path d="M267.4 400.1c0-.4-.4-.8-.8-.8s-.7.4-.7.8.3.7.7.7c.4 0 .8-.3.8-.7z" fill="#fff" stroke="#000" stroke-width=".6"/>
        <path d="M264.9 397.4c-.2 0-.5-.1-.7 0 .2-.2.3-.4.4-.5h.4c.5.2.8.5.8.7-.1.2-.5-.1-.9-.2z"/>
        <path d="M285.7 393.9v3.7c.2.2 1.1.9 1.8 1.6-.1.3-.3.6-.4 1-.6-.5-1.3-1.2-1.9-1.7l-2.6 2.4v4.3c-.4.2-.7.3-1 .5v-4.8l-2.7-2.4-2.7 2.4v4.8c-.3-.1-.6-.3-1-.4v-4.4l-2.6-2.4-2 1.8c-.1-.4-.3-.7-.4-1l1.9-1.7v-3.7h-2.3c.1-.2.1-.4.1-.6 0-.1.1-.2.1-.4H287.6c.1.2.1.3.2.4v.6h-2.1m-7.3 0h-5.3v3.7l2.6 2.4 2.7-2.4v-3.7m6.3 0h-5.3v3.7l2.7 2.4 2.6-2.4z" fill="#060"/>
        <path d="M275.2 404.1v-3c.3.3.7.6 1 .9v2.7c-.3-.2-.7-.4-1-.6zM273.1 397.6l.3.3c.1.4.1.6.2.8.1.5.4 1 .8 1.5l-1.8-1.7-.9.8c-.1-.3-.2-.7-.2-1.2l.6-.5v-1.5c.1-.1.2-.1.4-.1s.4.4.6.8z" fill="#390"/>
        <path d="M281.6 404c.3-.3.7-.6 1-1v2.2c-.3.2-.6.3-.9.4h-.1zM285.7 393.9v3.7c.2.2 1.1.9 1.8 1.6-.1.3-.3.6-.4 1-.6-.5-1.3-1.2-1.9-1.7l-.7.7c.3-1.1.5-2.3.5-3.5 0-.6-.1-1.2-.1-1.8-.1-.2-.1-.4-.2-.6 0-.1 0-.3-.1-.4h3c.1.1.1.3.2.4v.6z" fill="#030"/>
    </g>
</svg>
