<svg xmlns="http://www.w3.org/2000/svg" width="24" height="24">
	<g transform="translate(-264,-386)" id="KDDI_D_366">
		<g>
			<path style="stroke:none; fill:none" d="M 288 409.89L 264 409.89L 264 385.89L 288 385.89L 288 409.89z"/>
		</g>
		<g>
			<path style="stroke:none; fill:#fc0" d="M 287.458 391.376C 287.458 391.376 285.188 391.376 284.667 391.376C 283.583 391.376 283.202 390.404 282.875 389.793C 282.542 389.168 281.917 388.251 279.667 388.251C 278.75 388.251 278.017 388.043 277.583 387.501C 276.917 386.668 276.25 386.392 275.031 386.392C 274.239 386.392 264.542 386.392 264.542 386.392L 264.542 404.39C 264.542 404.39 274.239 404.39 275.031 404.39C 276.25 404.39 276.917 404.666 277.583 405.499C 278.017 406.041 278.75 406.249 279.667 406.249C 281.917 406.249 282.542 407.166 282.875 407.791C 283.202 408.402 283.583 409.374 284.667 409.374C 285.188 409.374 287.458 409.374 287.458 409.374L 287.458 391.376z"/>
			<path style="stroke:#fff; stroke-width:1; stroke-linecap:round; fill:none" d="M 273.5 392.915L 273.5 398.415"/>
			<path style="stroke:#f00; stroke-width:0.75; stroke-linecap:round; fill:none" d="M 271.293 394.915L 274.5 394.915"/>
			<path style="stroke:none; fill:#fff" d="M 269 393.915C 269 393.915 269 396.415 269 396.915C 269 397.415 270 398.415 270.5 398.415C 271 398.415 272 397.415 272 396.915C 272 396.415 272 393.915 272 393.915L 269 393.915z"/>
			<path style="stroke:#fff; stroke-width:1; stroke-linecap:round; fill:none" d="M 267.5 392.915L 267.5 398.415"/>
			<path style="stroke:#f00; stroke-width:0.75; stroke-linecap:round; fill:none" d="M 267 396.915L 268 395.915"/>
			<path style="stroke:#f00; stroke-width:0.75; stroke-linecap:round; fill:none" d="M 266.793 394.915L 270 394.915"/>
			<path style="stroke:none; fill:#f00" d="M 282.875 403.791C 282.542 403.166 281.917 402.249 279.667 402.249C 278.75 402.249 278.017 402.041 277.583 401.499C 276.917 400.666 276.25 400.39 275.031 400.39C 274.239 400.39 264.542 400.39 264.542 400.39L 264.542 404.39C 264.542 404.39 274.239 404.39 275.031 404.39C 276.25 404.39 276.917 404.666 277.583 405.499C 278.017 406.041 278.75 406.249 279.667 406.249C 281.917 406.249 282.542 407.166 282.875 407.791C 283.202 408.402 283.583 409.374 284.667 409.374C 285.188 409.374 287.458 409.374 287.458 409.374L 287.458 405.374C 287.458 405.374 285.188 405.374 284.667 405.374C 283.583 405.374 283.202 404.402 282.875 403.791z"/>
			<path style="stroke:none; fill:#f00" d="M 282.875 389.793C 282.542 389.168 281.917 388.251 279.667 388.251C 278.75 388.251 278.017 388.043 277.583 387.501C 276.917 386.668 276.25 386.392 275.031 386.392C 274.239 386.392 264.542 386.392 264.542 386.392L 264.542 390.89C 264.542 390.89 274.239 390.89 275.031 390.89C 276.25 390.89 276.917 391.166 277.583 391.999C 278.017 392.541 278.75 392.749 279.667 392.749C 281.917 392.749 282.542 393.666 282.875 394.291C 283.202 394.902 283.583 395.874 284.667 395.874C 285.188 395.874 287.458 395.874 287.458 395.874L 287.458 391.376C 287.458 391.376 285.188 391.376 284.667 391.376C 283.583 391.376 283.202 390.404 282.875 389.793z"/>
			<path style="stroke:none; fill:#c90" d="M 277.583 392.031C 276.918 391.199 276.251 390.923 275.036 390.922L 275.036 400.422C 276.251 400.423 276.918 400.699 277.583 401.531C 277.698 401.674 277.835 401.791 277.989 401.89L 277.989 392.39C 277.835 392.291 277.698 392.174 277.583 392.031z"/>
			<path style="stroke:none; fill:#c90" d="M 282.875 394.283C 282.623 393.811 282.202 393.173 281.042 392.89L 281.042 402.39C 282.202 402.673 282.623 403.311 282.875 403.783C 283.123 404.248 283.405 404.918 284 405.214L 284 395.714C 283.405 395.418 283.123 394.748 282.875 394.283z"/>
			<path style="stroke:none; fill:#900" d="M 277.583 401.531C 276.918 400.699 276.251 400.423 275.036 400.422L 275.036 404.39C 276.251 404.391 276.918 404.667 277.583 405.499C 277.698 405.642 277.835 405.759 277.989 405.858L 277.989 401.89C 277.835 401.791 277.698 401.674 277.583 401.531z"/>
			<path style="stroke:none; fill:#900" d="M 282.875 403.783C 282.623 403.311 282.202 402.673 281.042 402.39L 281.042 406.397C 282.202 406.681 282.623 407.318 282.875 407.791C 283.123 408.255 283.405 408.925 284 409.222L 284 405.214C 283.405 404.918 283.123 404.248 282.875 403.783z"/>
			<path style="stroke:none; fill:#900" d="M 277.583 392.031C 277.698 392.174 277.835 392.291 277.989 392.39L 277.989 387.859C 277.835 387.761 277.698 387.644 277.583 387.501C 276.918 386.669 276.251 386.393 275.036 386.392L 275.036 390.922C 276.251 390.923 276.918 391.199 277.583 392.031z"/>
			<path style="stroke:none; fill:#900" d="M 282.875 394.283C 283.123 394.748 283.405 395.418 284 395.714L 284 391.224C 283.405 390.927 283.123 390.257 282.875 389.793C 282.623 389.32 282.202 388.683 281.042 388.399L 281.042 392.89C 282.202 393.173 282.623 393.811 282.875 394.283z"/>
			<path style="stroke:#000; stroke-width:1; fill:none" d="M 287.458 391.376C 287.458 391.376 285.188 391.376 284.667 391.376C 283.583 391.376 283.202 390.404 282.875 389.793C 282.542 389.168 281.917 388.251 279.667 388.251C 278.75 388.251 278.017 388.043 277.583 387.501C 276.917 386.668 276.25 386.392 275.031 386.392C 274.239 386.392 264.542 386.392 264.542 386.392L 264.542 404.39C 264.542 404.39 274.239 404.39 275.031 404.39C 276.25 404.39 276.917 404.666 277.583 405.499C 278.017 406.041 278.75 406.249 279.667 406.249C 281.917 406.249 282.542 407.166 282.875 407.791C 283.202 408.402 283.583 409.374 284.667 409.374C 285.188 409.374 287.458 409.374 287.458 409.374L 287.458 391.376z"/>
			<path style="stroke:none; fill:#f00" d="M 269 393.415L 272 393.415L 272.5 392.415C 272.5 392.415 271.5 391.915 270.5 391.915C 269.5 391.915 268.5 392.415 268.5 392.415L 269 393.415z"/>
			<path style="stroke:none; fill:#c90" d="M 268.913 393.241L 269 393.415L 272 393.415L 272.087 393.241C 271.703 393.096 271.103 392.915 270.5 392.915C 269.897 392.915 269.297 393.096 268.913 393.241z"/>
			<path style="stroke:#f00; stroke-width:0.75; stroke-linecap:round; fill:none" d="M 274 396.915L 273 395.915"/>
			<path style="stroke:none; fill:#f00" d="M 269 395.915L 270.5 395.915L 270.5 393.915L 269 393.915C 269 393.915 269 395.025 269 395.915z"/>
			<path style="stroke:none; fill:#f60" d="M 270.5 398.415C 271 398.415 272 397.415 272 396.915C 272 396.748 272 396.358 272 395.915L 270.5 395.915L 270.5 398.415z"/>
			<path style="stroke:none; fill:#c90" d="M 269 395.915C 269 396.358 269 396.748 269 396.915C 269 397.415 270 398.415 270.5 398.415L 270.5 395.915L 269 395.915z"/>
			<path style="stroke:none; fill:#06c" d="M 270.951 395.94C 270.951 396.202 270.738 396.415 270.476 396.415C 270.213 396.415 270 396.202 270 395.94C 270 395.677 270.213 395.464 270.476 395.464C 270.738 395.464 270.951 395.677 270.951 395.94z"/>
			<path style="stroke:none; fill:#06c" d="M 267.976 398.415C 267.976 398.677 267.763 398.89 267.5 398.89C 267.237 398.89 267.024 398.677 267.024 398.415C 267.024 398.152 267.237 397.94 267.5 397.94C 267.763 397.94 267.976 398.152 267.976 398.415z"/>
			<path style="stroke:none; fill:#06c" d="M 273.976 398.415C 273.976 398.677 273.763 398.89 273.5 398.89C 273.237 398.89 273.024 398.677 273.024 398.415C 273.024 398.152 273.237 397.94 273.5 397.94C 273.763 397.94 273.976 398.152 273.976 398.415z"/>
			<path style="stroke:none; fill:#f60" d="M 267.976 392.915C 267.976 393.177 267.763 393.39 267.5 393.39C 267.237 393.39 267.024 393.177 267.024 392.915C 267.024 392.652 267.237 392.44 267.5 392.44C 267.763 392.44 267.976 392.652 267.976 392.915z"/>
			<path style="stroke:none; fill:#f00" d="M 273.976 392.915C 273.976 393.177 273.763 393.39 273.5 393.39C 273.237 393.39 273.024 393.177 273.024 392.915C 273.024 392.652 273.237 392.44 273.5 392.44C 273.763 392.44 273.976 392.652 273.976 392.915z"/>
		</g>
	</g>
</svg>
