<svg xmlns="http://www.w3.org/2000/svg" width="24" height="24">
	<g transform="translate(-264,-386)" id="KDDI_D_367">
		<g>
			<path style="stroke:none; fill:none" d="M 288 409.89L 264 409.89L 264 385.89L 288 385.89L 288 409.89z"/>
		</g>
		<g>
			<path style="stroke:none; fill:#06c" d="M 287.458 391.376C 287.458 391.376 285.188 391.376 284.667 391.376C 283.583 391.376 283.202 390.404 282.875 389.793C 282.542 389.168 281.917 388.251 279.667 388.251C 278.75 388.251 278.017 388.043 277.583 387.501C 276.917 386.668 276.25 386.392 275.031 386.392C 274.239 386.392 264.542 386.392 264.542 386.392L 264.542 404.39C 264.542 404.39 274.239 404.39 275.031 404.39C 276.25 404.39 276.917 404.666 277.583 405.499C 278.017 406.041 278.75 406.249 279.667 406.249C 281.917 406.249 282.542 407.166 282.875 407.791C 283.202 408.402 283.583 409.374 284.667 409.374C 285.188 409.374 287.458 409.374 287.458 409.374L 287.458 391.376z"/>
			<path style="stroke:none; fill:#f00" d="M 282.875 401.791C 282.542 401.166 281.917 400.249 279.667 400.249C 278.75 400.249 278.017 400.041 277.583 399.499C 276.917 398.666 276.25 398.39 275.031 398.39C 274.239 398.39 264.542 398.39 264.542 398.39L 264.542 404.39C 264.542 404.39 274.239 404.39 275.031 404.39C 276.25 404.39 276.917 404.666 277.583 405.499C 278.017 406.041 278.75 406.249 279.667 406.249C 281.917 406.249 282.542 407.166 282.875 407.791C 283.202 408.402 283.583 409.374 284.667 409.374C 285.188 409.374 287.458 409.374 287.458 409.374L 287.458 403.374C 287.458 403.374 285.188 403.374 284.667 403.374C 283.583 403.374 283.202 402.402 282.875 401.791z"/>
			<path style="stroke:none; fill:#fff" d="M 282.875 389.793C 282.542 389.168 281.917 388.251 279.667 388.251C 278.75 388.251 278.017 388.043 277.583 387.501C 276.917 386.668 276.25 386.392 275.031 386.392C 274.239 386.392 264.542 386.392 264.542 386.392L 264.542 392.89C 264.542 392.89 274.239 392.89 275.031 392.89C 276.25 392.89 276.917 393.166 277.583 393.999C 278.017 394.541 278.75 394.749 279.667 394.749C 281.917 394.749 282.542 395.666 282.875 396.291C 283.202 396.902 283.583 397.874 284.667 397.874C 285.188 397.874 287.458 397.874 287.458 397.874L 287.458 391.376C 287.458 391.376 285.188 391.376 284.667 391.376C 283.583 391.376 283.202 390.404 282.875 389.793z"/>
			<path style="stroke:none; fill:#039" d="M 277.583 392.031C 276.918 391.199 276.251 390.923 275.036 390.922L 275.036 400.422C 276.251 400.423 276.918 400.699 277.583 401.531C 277.698 401.674 277.835 401.791 277.989 401.89L 277.989 392.39C 277.835 392.291 277.698 392.174 277.583 392.031z"/>
			<path style="stroke:none; fill:#039" d="M 282.875 394.283C 282.623 393.811 282.202 393.173 281.042 392.89L 281.042 402.39C 282.202 402.673 282.623 403.311 282.875 403.783C 283.123 404.248 283.405 404.918 284 405.214L 284 395.714C 283.405 395.418 283.123 394.748 282.875 394.283z"/>
			<path style="stroke:none; fill:#900" d="M 277.583 399.499C 276.918 398.666 276.251 398.39 275.036 398.39L 275.036 404.39C 276.251 404.391 276.918 404.667 277.583 405.499C 277.698 405.642 277.835 405.759 277.989 405.858L 277.989 399.857C 277.835 399.758 277.698 399.641 277.583 399.499z"/>
			<path style="stroke:none; fill:#900" d="M 282.875 401.783C 282.623 401.311 282.202 400.673 281.042 400.39L 281.042 406.397C 282.202 406.681 282.623 407.318 282.875 407.791C 283.123 408.255 283.405 408.925 284 409.222L 284 403.214C 283.405 402.918 283.123 402.248 282.875 401.783z"/>
			<path style="stroke:none; fill:#ccc" d="M 277.583 393.999C 277.698 394.141 277.835 394.258 277.989 394.357L 277.989 387.859C 277.835 387.761 277.698 387.644 277.583 387.501C 276.918 386.669 276.251 386.393 275.036 386.392L 275.036 392.89C 276.251 392.89 276.918 393.166 277.583 393.999z"/>
			<path style="stroke:none; fill:#ccc" d="M 282.875 396.283C 283.123 396.748 283.405 397.418 284 397.714L 284 391.224C 283.405 390.927 283.123 390.257 282.875 389.793C 282.623 389.32 282.202 388.683 281.042 388.399L 281.042 394.89C 282.202 395.173 282.623 395.811 282.875 396.283z"/>
			<path style="stroke:#000; stroke-width:1; fill:none" d="M 287.458 391.376C 287.458 391.376 285.188 391.376 284.667 391.376C 283.583 391.376 283.202 390.404 282.875 389.793C 282.542 389.168 281.917 388.251 279.667 388.251C 278.75 388.251 278.017 388.043 277.583 387.501C 276.917 386.668 276.25 386.392 275.031 386.392C 274.239 386.392 264.542 386.392 264.542 386.392L 264.542 404.39C 264.542 404.39 274.239 404.39 275.031 404.39C 276.25 404.39 276.917 404.666 277.583 405.499C 278.017 406.041 278.75 406.249 279.667 406.249C 281.917 406.249 282.542 407.166 282.875 407.791C 283.202 408.402 283.583 409.374 284.667 409.374C 285.188 409.374 287.458 409.374 287.458 409.374L 287.458 391.376z"/>
		</g>
	</g>
</svg>
