<svg xmlns="http://www.w3.org/2000/svg" height="24" width="24">
    <g transform="matrix(1,0,0,-1,-264,408)" id="KDDI_D_">        <path d="M272.3 387.5l.7 3.8 5.4.2.9-4z" fill="#fc9"/>
        <path d="M272.9 388.9l-.5-1.4" fill="none" stroke="#f90"/>
        <path d="M279.1 388.9l.5-1.4" fill="none" stroke="#c60"/>
        <path d="M280.9 404.3s-1.3.5-1.8 0-2.3-2-2.8-2.2c-.4-.3-5.6-2-6.1-4.1-.2-.8-.2-4.9 1.6-6.1 1.2-.7 2.3-2.3 4.3-2.5 1.9-.2 2.1.9 3 1.6.8.7 2.5 2.1 2.6 3.1.1 1 .1 4.8.1 6.1 0 1.3-.5 3.6-.9 4.1z" fill="#fc9"/>
        <path d="M276.7 389.4l.5-1.1.1-.8h2.1l-.5 2.4z" fill="#f90"/>
        <path d="M274.2 389.9s1.2-.3 2.1-.2c1.3.1 3 1.2 3 1.2" fill="none" stroke="#c60"/>
        <path d="M279.5 403.2s-1.1-1.1-2.7-2.3c-.6-.5-3-1.4-4.7-1.5-1.8-.2-.8.2-.8.2l3.7 1.8 4.1 2.5z" fill="#c96"/>
        <path d="M273.2 389l1.2.6s-2.1 1.8-2.6 2.1c-.3.2-1 1.1-1.3 1.8-.5.9-.2 3.9-.3 4.4-.1.8.7 1.5 1.9 2.3.9.7 1.9.7 2.8 1 1.4.4 2.8 2.9 4.6 2.7.3-1.1 2.2-2.9 2.4-3.2.8-1 0-1 .1-2.1.1-1-.1-5.1-.8-5.7-.7-.6-2.4-1.9-2.4-2.2-.1-.3.4-1.6.9-1.7.5-.1 3.8 1.4 4 2 .3.6.7 4.2.7 5.3 0 1.1.1 4.8-.2 5.7-.9 3.1-2.7 3.5-4.1 3.5-.4.2-1.2 1.3-1.6 1.4-.4.2-3.2.4-4.3.1-1.1-.4-2.6-1.5-4.6-3-1.9-1.5-3.2-4.8-3.2-6.6.1-1.2 1.2-4.2 2.3-5.4 1.1-1.2 2.5-2.3 3.3-2.6 1.1-.5 1.2-.4 1.2-.4z" fill="#c60"/>
        <path d="M275.8 407.2s-4.3-1.1-5.4-2.5c-1.1-1.5-2.2-2.4-2.6-3.1-.3-.6-1.5-4.1-1.4-4.8.2-.8 1.5-3.7 1.9-4.4.4-.7 2.5-2.5 2.1-1.2-.4 1.2-2.2 3.8-2.1 5.8.1 2 1.3 4.3 2.3 5 1 .6 5.3 3.1 5.8 3.7.5.7.6 1.4-.6 1.5" fill="#f90"/>
        <path d="M278.6 406.7s.8-.8.7-1.4c-.1-.5-.4-1.2-.4-1.2l.7-.4.9 2.1z" fill="#930"/>
        <path d="M271.1 404.3l1.1-.8-1.5-1.2-1.3.4z" fill="#fc6"/>
        <path d="M283.7 401.2c-.2-.7.4-3.9.3-5.3-.1-1.3-.6-3.1-.9-3.8-.6-1.3-2.1-2.6-2.1-2.6s2.2.9 3.1 2.3c.4.7.8 3.6.9 4.1.1.6-1 6.5-1 6.5s-.2-.5-.3-1.2z" fill="#930"/>
        <path d="M276.4 395.3l-.3-.5" fill="none" stroke="#c96" stroke-width=".922" stroke-linecap="round"/>
        <path d="M278.1 393.5s-.9.1-1.9.1c-.9 0-1.8-.1-1.8-.1s.7-1.5 1.8-1.5 1.9 1.5 1.9 1.5z" fill="#c00"/>
        <path d="M275.8 392.4s.6-.3.9-.2c.3.2.7.6.6.7-.1.2-1.5 0-1.5-.5z" fill="#900"/>
        <path d="M279.5 400.7l-1-.1" fill="none" stroke="#666" stroke-width=".798" stroke-linecap="round"/>
        <path d="M280.1 398.4s-.1-.2-1-.2-1.7 1.2-1.7 1.2 1-.4 1.8-.1c.9.2.9-.9.9-.9z"/>
        <path d="M280.5 397.3c0-.8-.6-1.4-1.3-1.4-.7 0-1.3.6-1.3 1.4v.8c0 .7.6 1.3 1.3 1.3.7 0 1.3-.6 1.3-1.3z"/>
        <path d="M279.4 398.2c0-.3-.3-.6-.6-.6-.4 0-.7.3-.7.6s.3.6.7.6c.3 0 .6-.3.6-.6z" fill="#fff"/>
        <path d="M274.7 398.4s-.1-.2-1-.2-1.8 1.2-1.8 1.2 1.1-.4 1.9-.1c.8.2.9-.9.9-.9z"/>
        <path d="M275 397.3c0-.8-.6-1.4-1.3-1.4-.7 0-1.3.6-1.3 1.4v.8c0 .7.6 1.3 1.3 1.3.7 0 1.3-.6 1.3-1.3z"/>
        <path d="M274 398.2c0-.3-.3-.6-.7-.6-.3 0-.6.3-.6.6s.3.6.6.6c.4 0 .7-.3.7-.6z" fill="#fff"/>
        <path d="M282 400.2c-.8.6-1.5 1.4-2 2.2-.4.7-.4 1.3-.7 1.9-.7-.4-2.6-2.7-4.3-3.4-1.7-.7-2.7-.5-3.7-1.3-1-.7-1.1-1.8-1.2-3.3 0-.9 0-2 .7-3.2.5-.8 1.4-1.7 2-2.2 1.3-.9 1.9-1.2 1.9-1.2" fill="none" stroke="#930" stroke-linecap="round"/>
        <path d="M274.7 389.7s-1-.9-1.6-.9h-.2" fill="none" stroke="#630" stroke-linecap="round"/>
        <path d="M278.8 390.4s.8.7 1.6 1.5c0 0 1 .9 1.4 2.2.5 1.3.2 4.2.2 6.1M279.7 388.8c-1.1.1-.9 1.6-.9 1.6" fill="none" stroke="#930" stroke-linecap="round"/>
        <path d="M284.7 393.5c-.3-1.3-.8-2.1-2.1-3.1-1.3-1.1-2.9-1.6-2.9-1.6M279.8 405.5s2.1.6 3.5-1.1c.9-1 1.5-4 1.6-5.3.2-1.7.2-4.3-.2-5.6M275.5 407.4h1.1c3 0 3.2-1.9 3.2-1.9" fill="none" stroke="#300" stroke-linecap="round"/>
        <path d="M267.1 394.2c-.4 1.1-.7 2.1-.7 3 0 2.3 1.4 4.7 2.5 6 1.3 1.6 3 3.8 6.6 4.2M272.9 388.8c-.5.1-1.2.4-2.2 1-1.6.9-2.9 2.7-3.6 4.4" fill="none" stroke="#630" stroke-linecap="round"/>
        <path d="M288 384h-24v2.9h24z" fill="#ffc"/>
        <path d="M288 387h-24v.9h24z" fill="#999"/>
        <path d="M281.7 403.8c0-.5-.5-.9-1.1-.9 0 0-3.9.3-4.8.3-.9 0-4.2-.4-4.2-.4-.5-.1-1 .3-1 .9l-.2 2.2c-.1.6.3 1.1.9 1.1 0 0 2.8.4 4.7.4 1.9 0 4.9-.2 4.9-.2.6-.1 1-.6.9-1.1z" fill="#fff"/>
        <path d="M280.9 407.2v-.1l-.1-2.2c-.1-.6-.5-1-1.1-1 0 0-3.9.3-4.9.3-.9 0-4.1-.4-4.1-.4h-.2l.1-.1c0-.6.5-1 1-.9 0 0 3.3.4 4.2.4.9 0 4.8-.3 4.8-.3.6 0 1.1.4 1.1.9l.1 2.3c.1.5-.3 1-.9 1.1z" fill="#ccc"/>
        <path d="M281.7 403.8c0-.5-.5-.9-1.1-.9 0 0-3.9.3-4.8.3-.9 0-4.2-.4-4.2-.4-.5-.1-1 .3-1 .9l-.2 2.2c-.1.6.3 1.1.9 1.1 0 0 2.8.4 4.7.4 1.9 0 4.9-.2 4.9-.2.6-.1 1-.6.9-1.1zM266.9 408v-3.1c0-1.7-2-2.4-2-3.8 0-1.5 1.1-1.8 1.1-4.1 0-2.2-1.1-1.4-1.1-5.4M287.5 408v-3.1c0-1.7-1.9-2.4-1.9-3.8 0-1.5 1.8-1.8 1.8-4.1 0-2.2-1.1-1.4-1.1-5.4" fill="none" stroke="#999"/>
    </g>
</svg>
