<svg xmlns="http://www.w3.org/2000/svg" width="24" height="24">
	<g transform="translate(-264,-386)" id="KDDI_D_370">
		<g>
			<path style="stroke:none; fill:none" d="M 288 409.89L 264 409.89L 264 385.89L 288 385.89L 288 409.89z"/>
		</g>
		<g>
			<path style="stroke:none; fill:#fff" d="M 275 397.39L 268.5 403.89C 268.5 403.89 264.542 399.376 264.542 395.918C 264.542 394.46 264.528 393.918 264.528 393.918L 270 388.39L 275 397.39z"/>
			<path style="stroke:none; fill:#fff" d="M 282.028 388.39L 287.5 393.918C 287.5 393.918 287.486 394.46 287.486 395.918C 287.486 399.376 283.528 403.89 283.528 403.89L 277.028 397.39L 282.028 388.39z"/>
			<path style="stroke:none; fill:#ccc" d="M 281.917 389.001L 281.775 388.845L 277.028 397.39L 283.5 403.862L 283.5 403.585C 282 401.502 281.028 397.668 281.028 395.89C 281.028 394.112 281.917 389.001 281.917 389.001z"/>
			<path style="stroke:none; fill:#ccc" d="M 270.111 389.001L 270.252 388.845L 275 397.39L 268.528 403.862L 268.528 403.585C 270.028 401.502 271 397.668 271 395.89C 271 394.112 270.111 389.001 270.111 389.001z"/>
			<path style="stroke:#000; stroke-width:1; stroke-linecap:round; fill:none" d="M 269.476 386.89L 281.833 409.251"/>
			<path style="stroke:none; fill:#c00" d="M 271 395.89C 271 397.271 270.329 398.39 269.5 398.39C 268.671 398.39 268 397.271 268 395.89C 268 394.509 268.671 393.39 269.5 393.39C 270.329 393.39 271 394.509 271 395.89z"/>
			<path style="stroke:#000; stroke-width:1; fill:none" d="M 270 388.39L 264.528 393.918C 264.528 393.918 264.542 394.46 264.542 395.918C 264.542 399.376 268.5 403.89 268.5 403.89L 275 397.39"/>
			<path style="stroke:#666; stroke-dasharray:1.5,1.8; stroke-width:1; fill:none" d="M 275.516 397.818L 281.833 409.251"/>
			<path style="stroke:none; fill:#c60" d="M 270.137 386.71C 270.137 387.154 269.778 387.513 269.334 387.513C 268.89 387.513 268.53 387.154 268.53 386.71C 268.53 386.266 268.89 385.906 269.334 385.906C 269.778 385.906 270.137 386.266 270.137 386.71z"/>
			<path style="stroke:#000; stroke-width:1; stroke-linecap:round; fill:none" d="M 282.552 386.89L 270.194 409.251"/>
			<path style="stroke:none; fill:#c00" d="M 281.028 395.89C 281.028 397.271 281.699 398.39 282.528 398.39C 283.356 398.39 284.028 397.271 284.028 395.89C 284.028 394.509 283.356 393.39 282.528 393.39C 281.699 393.39 281.028 394.509 281.028 395.89z"/>
			<path style="stroke:#000; stroke-width:1; fill:none" d="M 282.028 388.39L 287.5 393.918C 287.5 393.918 287.486 394.46 287.486 395.918C 287.486 399.376 283.528 403.89 283.528 403.89L 277.028 397.39"/>
			<path style="stroke:#666; stroke-dasharray:1.5,1.8; stroke-width:1; fill:none" d="M 276.512 397.818L 270.194 409.251"/>
			<path style="stroke:none; fill:#c60" d="M 283.428 386.71C 283.428 387.154 283.07 387.513 282.625 387.513C 282.181 387.513 281.822 387.154 281.822 386.71C 281.822 386.266 282.181 385.906 282.625 385.906C 283.07 385.906 283.428 386.266 283.428 386.71z"/>
		</g>
	</g>
</svg>
