<svg xmlns="http://www.w3.org/2000/svg" height="24" width="24">
    <g transform="matrix(1,0,0,-1,-264,408)" id="KDDI_D_">        <path d="M283.3 392.4c0-3.5-2.9-6.4-6.5-6.4-3.5 0-6.4 2.9-6.4 6.4v8.7c0 3.5 2.9 6.4 6.4 6.4 3.6 0 6.5-2.9 6.5-6.4z" fill="#c60"/>
        <path d="M281.9 393.3c0-3.3-2.5-5.9-5.7-5.9s-5.8 2.6-5.8 5.9v8c0 3.2 2.6 5.9 5.8 5.9 3.2 0 5.7-2.7 5.7-5.9z" fill="#f90"/>
        <path d="M280.9 395.4c0-2.7-2.3-4.9-5.1-4.9-2.7 0-5 2.2-5 4.9v6.6c0 2.7 2.3 4.9 5 4.9 2.8 0 5.1-2.2 5.1-4.9z" fill="#fc0"/>
        <path d="M272.1 401.1c0 2 1.2 3.7 3 4.5.6.3 1 .4.9.9-.2.5-1.4.4-1.9.2-2.1-.9-3.4-3.2-3.4-4.5v-6.7c0-1.8 1.4-2.3 1.4-1.1z" fill="#ff9"/>
        <path d="M283.3 392.4c0-3.5-2.9-6.4-6.5-6.4-3.5 0-6.4 2.9-6.4 6.4v8.7c0 3.5 2.9 6.4 6.4 6.4 3.6 0 6.5-2.9 6.5-6.4z" fill="none" stroke="#000"/>
        <path d="M274.4 402.7c0-.5-.4-.9-.9-.9s-.9.4-.9.9.4.9.9.9.9-.4.9-.9zM277.9 402.7c0-.5-.4-.9-.9-.9s-1 .4-1 .9.5.9 1 .9.9-.4.9-.9zM271.1 404l-3.7 1.3 2.7-3.1-3.1-1.7h3.6z"/>
        <path d="M270.4 391.4l4.4 4.5-4.5 1.2 1.2 2.4c-.3-.1-.6-.1-.8-.2-4.9-1.2-6.9-5.2-5.9-9.2 1-3.8 4.3-6.3 8.7-5.5l2.6 4.9z" fill="#fff"/>
        <path d="M271.6 385.7c-1.2-.3-2.3-.4-3.3-.3 1.4-.8 3.2-1.1 5.2-.8l1.3 2.4c-1-.6-2.1-1.1-3.2-1.3z" fill="#ffc"/>
        <path d="M270.4 391.4l4.4 4.5-4.5 1.2 1.2 2.4c-.3-.1-.6-.1-.8-.2-4.9-1.2-6.9-5.2-5.9-9.2 1-3.8 4.3-6.3 8.7-5.5l2.6 4.9z" fill="none" stroke="#000"/>
        <path d="M280.6 399.2l-2.3-1.4 3.2-3.4-6.2-1.6 3.9-4.7-4.9-2.9.9-.3c4.8-1.5 10.8.2 12.1 4.2 1.2 3.8-2.3 8.4-6.7 10.1z" fill="#fff"/>
        <path d="M284.4 396.8c1.1-1.7 1.6-3.7 1-5.4-1-3.1-4.8-4.8-8.7-4.8l-2.4-1.4.9-.3c4.8-1.5 10.8.2 12.1 4.2.8 2.6-.5 5.5-2.9 7.7z" fill="#ffc"/>
        <path d="M280.6 399.2l-2.3-1.4 3.2-3.4-6.2-1.6 3.9-4.7-4.9-2.9.9-.3c4.8-1.5 10.8.2 12.1 4.2 1.2 3.8-2.3 8.4-6.7 10.1z" fill="none" stroke="#000"/>
    </g>
</svg>
