<svg xmlns="http://www.w3.org/2000/svg" height="24" width="24">
    <g transform="matrix(1,0,0,-1,-264,408)" id="KDDI_D_">        <path d="M286.1 393.8l-10.3-6-9.8 6v4h20.1z" fill="none" stroke="#000" stroke-linejoin="round"/>
        <path d="M266.8 396.7v-3.5c0-4.8 3.9-8.7 8.7-8.7h1.1c4.8 0 8.7 3.9 8.7 8.7v3.5" fill="#fc9"/>
        <path d="M285.3 396.7h-2.5v-3.4c0-4.8-3.9-8.7-8.7-8.7.4-.1.9-.1 1.4-.1h1.1c4.8 0 8.7 3.9 8.7 8.7v3.5z" fill="#f96"/>
        <path d="M285.3 396.7h-2.5v-.2h1.2V393c0-4.1-3-7.6-6.9-8.5 4.6.3 8.2 4.1 8.2 8.7v3.5z" fill="#c63"/>
        <path d="M274.1 384.6h.5-.5zM275.5 384.5c-.4 0-.8 0-1.2.1-.5-.1-1-.2-1.6-.2.5-.1.9-.1 1.4-.1h1.1c.7 0 1.3.1 1.9.2h-.5z" fill="#f96"/>
        <path d="M266.8 396.7v-3.5c0-4.8 3.9-8.7 8.7-8.7h1.1c4.8 0 8.7 3.9 8.7 8.7v3.5" fill="none" stroke="#000"/>
        <path d="M272.6 389.6s1-1.7 3.4-1.7c2.5 0 3.3 1.8 3.3 1.8" fill="none" stroke="#930" stroke-width="1.2" stroke-linecap="round"/>
        <path d="M286.8 396.8c0-1.1-.8-2-1.9-2h-17.7c-1.1 0-1.9.9-1.9 2v2.5c0 1.1.8 2 1.9 2h17.7c1.1 0 1.9-.9 1.9-2z"/>
        <path d="M287.4 396.8c0-1-.8-1.8-1.8-1.8h-19.1c-1 0-1.8.8-1.8 1.8 0 .9.8 1.7 1.8 1.7h19.1c1 0 1.8-.8 1.8-1.7z"/>
        <path d="M276 408c-2.1 0-12-4.3-12-6.8 0-.2 1.2-2.1 1.6-2.3.4-.3 4-1.1 10.4-1.1s9.7.7 10.2 1c.5.4 1.8 2.2 1.8 2.4 0 2.3-9.9 6.8-12 6.8z" fill="#33c"/>
        <path d="M271.1 403.7c-.5.1-.6.9 0 1.2 2.5 1.3 5.4 2.4 6.8 2.7-.8.2-1.5.4-1.9.4-2.1 0-12-4.3-12-6.8 0-.2 1.2-2.1 1.6-2.3.2-.1 1.3-.4 3.1-.7-.4.1-.7.2-.7.3-.4.2-1.6 2.1-1.6 2.3 0 .3 1.8.6 2.8.6 1.7 0 3.1.6 3.1 1.3 0 .4-.5.7-1.2 1z" fill="#33f"/>
        <path d="M264.5 400.4c.3-.6.9-1.4 1.1-1.5.4-.3 4-1.1 10.4-1.1s9.7.7 10.2 1c.3.2.9 1 1.3 1.6-1.1-.3-4.9-.3-11.6-.3-6 0-9.9 0-11.4.3z" fill="#339"/>
        <path d="M283.1 405.3c.5-.9.6-2.5.6-3.4-.1-.9-1-2.9-1.5-3.4-.1-.2-.3-.3-.7-.5 2.8.2 4.4.6 4.7.8.5.4 1.8 2.2 1.8 2.4 0 1.1-2.3 2.7-4.9 4.1z" fill="#039"/>
        <path d="M283.2 400.1c-.2-.6-1.7-1.7-2.2-2.1 3.2.2 4.9.6 5.2.8.3.2.9 1 1.3 1.6-.6-.2-2-.3-4.3-.3z" fill="#009"/>
        <path d="M273.6 393.8c0-.8-.7-1.5-1.5-1.5s-1.4.7-1.4 1.5.6 1.5 1.4 1.5c.8 0 1.5-.7 1.5-1.5zM278.4 393.8c0-.8.7-1.5 1.5-1.5s1.4.7 1.4 1.5-.6 1.5-1.4 1.5c-.8 0-1.5-.7-1.5-1.5z"/>
        <path d="M278 400.7c0-1.2-.9-2.2-2-2.2s-2 1-2 2.2c0 1.1.9 2.1 2 2.1s2-1 2-2.1z" fill="#f90"/>
        <path d="M276.7 402.1c.3 0 .7-.1 1-.3-.4.6-1 1-1.7 1-1.1 0-2-1-2-2.1 0-.8.4-1.5 1-1.9-.2.4-.3.8-.3 1.2 0 1.2.9 2.1 2 2.1z" fill="#ff0"/>
        <path d="M277.6 400.7c0-1-.7-1.7-1.6-1.7-.9 0-1.6.7-1.6 1.7 0 .9.7 1.7 1.6 1.7.9 0 1.6-.8 1.6-1.7z" fill="#fc0"/>
        <path d="M275.8 401.4c0-.5-.3-.8-.7-.8-.4 0-.8.3-.8.8 0 .4.4.8.8.8s.7-.4.7-.8z" fill="#ff9"/>
        <path d="M264.5 387.5s-.3 4.5.5 5.8c.9 1.3 2.6 2.8 3.7 3.4 1.2.6 2.3.8 2.6.1.2-.6-2.9-5-2.9-6.4v-4.6" fill="#fc9"/>
        <path d="M266 392.5c.7 1.4 2.5 2.7 3.6 3.3.5.3 1.1.6 1.6.7.1.1.1.3.1.3-.3.7-1.4.5-2.6-.1-1.1-.6-2.8-2.1-3.7-3.4-.8-1.3-.5-5.8-.5-5.8l1-.5c-.1 1.1 0 4.3.5 5.5z" fill="#ffc"/>
        <path d="M267.2 389.9c-.1-.6-.1-2.4-.1-3.5l1.3-.6v4.6c0 .2.6 2.1.6 2.1s-1.5-1.1-1.8-2.6z" fill="#c96"/>
        <path d="M271.3 396.8c.3-1-2.9-4.6-2.9-6.4v-4.6" fill="none" stroke="#c60" stroke-linecap="round"/>
        <path d="M264.5 387.5s-.3 4.5.5 5.8c.9 1.3 2.6 2.8 3.7 3.4 1.2.6 2.3.8 2.6.1" fill="none" stroke="#f90" stroke-linecap="round"/>
        <path d="M263.9 384v5l4.1-2.2 1.3-.1V384z" fill="#33c"/>
        <path d="M267 387.3V384h2.3v2.7l-1.3.1z" fill="#009"/>
    </g>
</svg>
