<svg xmlns="http://www.w3.org/2000/svg" height="24" width="24">
    <g transform="matrix(1,0,0,-1,-264,408)" id="KDDI_D_">        <path d="M283.1 396.8v10.7H269v-10.7h-4.5v-12.4h23.1v12.4z" fill="#fc9"/>
        <path d="M287.6 396.8h-4.5v10.7H269v-1.4h12.6v-10.8h4.5v-10.9h1.5z" fill="#f93"/>
        <path d="M270.3 395.3V406h11.3l1.5 1.5H269v-10.7h-4.5v-12.4h1.3v10.9z" fill="#ffc"/>
        <path d="M270.4 390.6h-3.3v3.2h3.3z" fill="#06f"/>
        <path d="M270.4 392.8v1h-3.3v-3.2h1v2.2z" fill="#00c"/>
        <path d="M270.4 386.2h-3.3v3.2h3.3z" fill="#06f"/>
        <path d="M270.4 388.4v1h-3.3v-3.2h1v2.2z" fill="#00c"/>
        <path d="M275.2 390.6H272v3.2h3.2z" fill="#06f"/>
        <path d="M275.2 392.8v1H272v-3.2h1v2.2z" fill="#00c"/>
        <path d="M280.1 390.6h-3.3v3.2h3.3z" fill="#06f"/>
        <path d="M280.1 392.8v1h-3.3v-3.2h1v2.2z" fill="#00c"/>
        <path d="M284.9 390.6h-3.3v3.2h3.3z" fill="#06f"/>
        <path d="M284.9 392.8v1h-3.3v-3.2h1v2.2z" fill="#00c"/>
        <path d="M284.9 386.2h-3.3v3.2h3.3z" fill="#06f"/>
        <path d="M284.9 388.4v1h-3.3v-3.2h1v2.2z" fill="#00c"/>
        <path d="M287.6 384.4v12.4h-4.5v10.7" fill="none" stroke="#333" stroke-linecap="square"/>
        <path d="M264.5 384.4h23.1" fill="none" stroke="#000" stroke-linecap="square"/>
        <path d="M283.1 407.5H269v-10.7h-4.5v-12.4" fill="none" stroke="#666" stroke-linecap="square"/>
        <path d="M271.7 403.8h8.6M271.7 400.5h8.6M276 400.4V396" fill="none" stroke="#c00" stroke-width="2"/>
        <path d="M278.2 384h-4.4v5.4h4.4z" fill="#06f"/>
        <path d="M278.2 388.3v1.1h-4.4V384h1v4.3z" fill="#00c"/>
    </g>
</svg>
