<svg xmlns="http://www.w3.org/2000/svg" height="24" width="24">
    <g transform="matrix(1,0,0,-1,-264,408)" id="KDDI_D_">        <path d="M283.2 397.4v3c0 3.9-3.2 7.1-7.2 7.1-3.9 0-7.1-3.2-7.1-7.1v-3h-4.3v-12.9h22.9v12.9z" fill="#fc0"/>
        <path d="M287.5 397.4h-4.3v3c0 2.1-1 4.1-2.6 5.4-1.2 1-2.2.6-.9-.7 1.3-1.3 2-3.1 2-5.1v-4.2h4.4v-11.3h1.4z" fill="#f90"/>
        <path d="M287.5 397.4h-4.3l-1.5-1.6h4.4zM270.5 395.9v3.8c0 2.6 1.3 4.9 3.4 6.2 1.1.6.5 1.4-.3 1.2-2.7-1-4.7-3.7-4.7-6.7v-3h-4.3v-12.9h1.5v11.4z" fill="#ff9"/>
        <path d="M268.4 391.6h-2.2v3.3h2.2z" fill="#36f"/>
        <path d="M267.2 393.9h1.2v1h-2.2v-3.3h1z" fill="#00c"/>
        <path d="M272.7 391.6h-2.1v3.3h2.1z" fill="#36f"/>
        <path d="M271.5 393.9h1.2v1h-2.1v-3.3h.9z" fill="#00c"/>
        <path d="M277.1 391.6H275v3.3h2.1z" fill="#36f"/>
        <path d="M275.9 393.9h1.2v1H275v-3.3h.9z" fill="#00c"/>
        <path d="M281.5 391.6h-2.1v3.3h2.1z" fill="#36f"/>
        <path d="M280.3 393.9h1.2v1h-2.1v-3.3h.9z" fill="#00c"/>
        <path d="M285.9 391.6h-2.2v3.3h2.2z" fill="#36f"/>
        <path d="M284.7 393.9h1.2v1h-2.2v-3.3h1z" fill="#00c"/>
        <path d="M268.4 386.1h-2.2v3.3h2.2z" fill="#36f"/>
        <path d="M267.2 388.4h1.2v1h-2.2v-3.3h1z" fill="#00c"/>
        <path d="M285.9 386.1h-2.2v3.3h2.2z" fill="#36f"/>
        <path d="M284.7 388.4h1.2v1h-2.2v-3.3h1z" fill="#00c"/>
        <path d="M264.6 384.5h22.9" fill="none" stroke="#000"/>
        <path d="M279.3 406.7c-1 .5-2.1.8-3.3.8-3.9 0-7.1-3.2-7.1-7.1v-3h-4.3v-12.9" fill="none" stroke="#666" stroke-linecap="square"/>
        <path d="M287.5 384.5v12.9h-4.3v3c0 2.7-1.6 5.1-3.9 6.3" fill="none" stroke="#333" stroke-linecap="square"/>
        <path d="M278.1 384h-4.3v6.6h4.3z" fill="#36f"/>
        <path d="M274.9 389.5h3.2v1.1h-4.3V384h1.1z" fill="#00c"/>
        <path d="M279.9 400.2c0-2.1-1.8-3.9-3.9-3.9-2.1 0-3.9 1.8-3.9 3.9 0 2.2 1.8 3.9 3.9 3.9 2.1 0 3.9-1.7 3.9-3.9z" fill="#fff" stroke="#666"/>
        <path d="M276.2 403.8v-3.7l1.4-1.7" fill="none" stroke="#666" stroke-linecap="round"/>
        <path d="M276 403.9v-3.7l1.4-1.6" fill="none" stroke="#000" stroke-linecap="round"/>
    </g>
</svg>
