<svg xmlns="http://www.w3.org/2000/svg" height="24" width="24">
    <g transform="matrix(1,0,0,-1,-264,408)" id="KDDI_D_">        <path d="M277.7 398.8v3.6c0 2.8-2.3 5-5 5h-3.2c-2.7 0-5-2.2-5-5v-17.9h23v14.3z" fill="#9cf"/>
        <path d="M277.7 398.8v3.6c0 1.4-.5 2.6-1.4 3.5-.9.9-1.3.3-.5-1.4.2-.7.4-1.4.4-2.1v-5.2h9.8v-12.7h1.5v14.3z" fill="#36f"/>
        <path d="M271.4 407c-.1.6-1.9.4-1.9.4-2.7 0-5-2.2-5-5v-17.9h1.6v17.3c0 2.4 1.8 4.4 4.2 4.4 0 0 1.3.2 1.1.8z" fill="#cff"/>
        <path d="M285.9 397.2v-12.7h1.6v14.3z" fill="#36f"/>
        <path d="M277.7 398.8l-1.6-1.6h9.8l1.6 1.6z" fill="#cff"/>
        <path d="M287.4 393.9h-10.3v2h10.3z" fill="#33c"/>
        <path d="M287.4 393.9h-1.5v2h1.5z" fill="#009"/>
        <path d="M287.4 390.7H265v2h22.4z" fill="#33c"/>
        <path d="M287.4 390.7h-1.5v2h1.5z" fill="#009"/>
        <path d="M266.1 390.7h-1.5v2h1.5z" fill="#36f"/>
        <path d="M270.7 389.5h-5.8v-2h5.8zM281.5 389.5v-2h5.8v2z" fill="#33c"/>
        <path d="M285.9 389.5v-2h1.4v2z" fill="#009"/>
        <path d="M264.7 389.5v-2h1.4v2z" fill="#36f"/>
        <path d="M264.5 384.5h23" fill="none" stroke="#000" stroke-linecap="square"/>
        <path d="M272.7 407.4h-3.2c-2.7 0-5-2.2-5-5v-17.9" fill="none" stroke="#666" stroke-linecap="square"/>
        <path d="M277.7 398.8v3.6c0 2.8-2.3 5-5 5" fill="none" stroke="#333"/>
        <path d="M287.5 398.8h-9.8" fill="none" stroke="#666" stroke-linecap="square"/>
        <path d="M287.5 384.5v14.3" fill="none" stroke="#333" stroke-linecap="square"/>
        <path d="M278.2 384h-4.4v5.4h4.4z" fill="#36f"/>
        <path d="M274.9 388.4h3.3v1h-4.4V384h1.1z" fill="#00c"/>
        <path d="M269.3 395h-1v8.6h1zM274.8 395h-1v8.6h1z"/>
        <path d="M274.3 398.3h-5.4v1.1h5.4z"/>
        <path d="M268.3 395h-1v8.6h1zM273.8 395h-1v8.6h1z" fill="#03c"/>
        <path d="M273.3 399.3H268v1.1h5.3z" fill="#03c"/>
    </g>
</svg>
