<svg xmlns="http://www.w3.org/2000/svg" width="24" height="24">
	<g transform="translate(-264,-386)" id="KDDI_D_380">
		<g>
			<path style="stroke:none; fill:none" d="M 288 409.89L 264 409.89L 264 385.89L 288 385.89L 288 409.89z"/>
		</g>
		<g>
			<g>
				<path style="stroke:#f00; stroke-width:2; fill:#03f" d="M 287 397.89C 287 403.965 282.075 408.89 276 408.89C 269.925 408.89 265 403.965 265 397.89C 265 391.815 269.925 386.89 276 386.89C 282.075 386.89 287 391.815 287 397.89z"/>
				<path style="stroke:none; fill:#fff" d="M 283.492 394.397C 283.492 396.89 281.48 397.903 279 397.903C 276.518 397.903 274.507 396.89 274.507 394.397C 274.507 391.89 276.518 390.96 279 390.96C 281.48 390.96 283.492 391.89 283.492 394.397z"/>
				<path style="stroke:none; fill:#03f" d="M 281.229 394.39C 281.229 395.771 280.381 396.89 279 396.89C 277.619 396.89 276.75 395.771 276.75 394.39C 276.75 393.009 277.619 391.96 279 391.96C 280.381 391.96 281.229 393.009 281.229 394.39z"/>
				<path style="stroke:none; fill:#fff" d="M 283.5 401.383C 283.5 403.39 281.488 404.89 279.007 404.89C 276.525 404.89 274.514 403.89 274.514 401.383C 274.514 398.89 276.525 397.793 279.007 397.793C 281.488 397.793 283.5 398.89 283.5 401.383z"/>
				<path style="stroke:none; fill:#03f" d="M 281.174 401.487C 281.174 402.868 280.381 403.89 279 403.89C 277.619 403.89 276.792 402.771 276.792 401.39C 276.792 400.009 277.619 398.89 279 398.89C 280.381 398.89 281.174 400.107 281.174 401.487z"/>
				<path style="stroke:#fff; stroke-width:2.5; fill:none" d="M 271.031 391.001L 271.031 404.876"/>
				<path style="stroke:#fff; stroke-width:1; fill:none" d="M 270.75 393.897L 269.125 393.897C 269.938 393.897 270.562 393.001 270.562 391.168"/>
				<path style="stroke:#f00; stroke-width:1.5; fill:none" d="M 268.5 405.39L 283.5 390.39"/>
			</g>
		</g>
	</g>
</svg>
