<svg xmlns="http://www.w3.org/2000/svg" width="24" height="24">
	<g transform="translate(-288,-386)" id="KDDI_D_382">
		<g>
			<g>
				<path style="stroke:none; fill:#0000ff" d="M 311.999 409.889L 288 409.89L 288 385.89L 312 385.889L 311.999 409.889z"/>
				<path style="stroke:#ffffff; stroke-width:0.5; fill:#ffffff" d="M 288.832 390.419C 291.832 390.417 292.581 389.667 292.583 386.668C 292.581 389.667 293.331 390.417 296.333 390.42C 293.331 390.417 292.581 391.168 292.583 394.168C 292.581 391.168 291.832 390.417 288.832 390.419z"/>
				<path style="stroke:#3399ff; stroke-dasharray:0.009,1.26; stroke-width:0.9; stroke-linecap:round; fill:none" d="M 294.585 392.421L 295.582 393.418"/>
				<path style="stroke:#3399ff; stroke-dasharray:0.009,1.26; stroke-width:0.9; stroke-linecap:round; fill:none" d="M 289.582 387.418L 290.582 388.419"/>
				<path style="stroke:#3399ff; stroke-dasharray:0.009,1.26; stroke-width:0.9; stroke-linecap:round; fill:none" d="M 294.583 388.42L 295.583 387.417"/>
				<path style="stroke:#3399ff; stroke-dasharray:0.009,1.26; stroke-width:0.9; stroke-linecap:round; fill:none" d="M 289.583 393.417L 290.583 392.419"/>
				<path style="stroke:#ffffff; stroke-width:1; fill:none" d="M 292.583 393.918"/>
				<path style="stroke:#ffffff; stroke-width:1; fill:none" d="M 292.581 390.918"/>
				<path style="stroke:none; fill:#3399ff" d="M 293.331 390.417C 293.331 390.831 292.997 391.168 292.581 391.168C 292.169 391.168 291.833 390.832 291.832 390.417C 291.833 390.004 292.169 389.668 292.581 389.667C 292.996 389.669 293.333 390.004 293.331 390.417z"/>
				<path style="stroke:none; fill:#ffcc66" d="M 310.746 407.204C 311.137 407.595 311.137 408.228 310.745 408.619C 310.354 409.01 309.722 409.01 309.331 408.619C 308.94 408.228 308.94 407.596 309.33 407.204C 309.723 406.815 310.355 406.814 310.746 407.204z"/>
				<path style="stroke:none; fill:#ffcc66" d="M 305.573 401.312L 308.77 406.065C 308.93 406.226 308.931 406.486 308.77 406.647C 308.608 406.808 308.348 406.808 308.188 406.648L 303.436 403.447"/>
				<path style="stroke:none; fill:#ffcc66" d="M 305.573 403.447C 304.983 404.038 304.028 404.037 303.436 403.447C 302.848 402.858 302.849 401.902 303.436 401.312C 304.028 400.722 304.983 400.722 305.573 401.312C 306.163 401.901 306.163 402.858 305.573 403.447z"/>
				<path style="stroke:#3366cc; stroke-width:1.6154; fill:none" d="M 303.688 388.155L 309.122 393.589L 311.185 391.525"/>
				<path style="stroke:#3366cc; stroke-width:1.6154; fill:none" d="M 299.697 399.33C 300.779 400.413 300.891 402.072 299.947 403.016C 299 403.963 297.341 403.852 296.258 402.769L 294.964 401.475C 293.88 400.392 293.769 398.733 294.714 397.787C 295.659 396.839 297.318 396.953 298.402 398.036L 299.697 399.33z"/>
				<path style="stroke:#3366cc; stroke-width:1.6154; fill:none" d="M 292.504 402.615C 291.505 402.092 290.472 402.026 289.728 402.773C 288.781 403.716 288.894 405.378 289.977 406.461L 291.272 407.754C 292.353 408.838 294.016 408.95 294.961 408.005C 295.702 407.261 295.641 406.235 295.124 405.241"/>
				<path style="stroke:#3366cc; stroke-width:1.6154; fill:none" d="M 305.189 393.838C 306.272 394.92 306.382 396.581 305.439 397.524C 304.493 398.471 302.835 398.358 301.752 397.275L 300.456 395.982C 299.375 394.899 299.261 393.238 300.206 392.291C 301.151 391.347 302.811 391.46 303.894 392.542L 305.189 393.838z"/>
				<path style="stroke:none; fill:#ffcc66" d="M 303.455 404.407"/>
				<path style="stroke:none; fill:#ffcc66" d="M 306.107 401.403"/>
				<path style="stroke:#66ffff; stroke-width:1.6154; fill:none" d="M 303.718 387.672L 309.15 393.106L 311.214 391.042"/>
				<path style="stroke:#66ffff; stroke-width:1.6154; fill:none" d="M 299.726 398.846C 300.809 399.93 300.921 401.589 299.977 402.533C 299.03 403.48 297.37 403.368 296.286 402.286L 294.992 400.992C 293.91 399.908 293.798 398.247 294.743 397.304C 295.688 396.356 297.349 396.47 298.432 397.553L 299.726 398.846z"/>
				<path style="stroke:#66ffff; stroke-width:1.6154; fill:none" d="M 292.534 402.132C 291.533 401.61 290.5 401.546 289.757 402.288C 288.81 403.233 288.921 404.895 290.005 405.978L 291.302 407.271C 292.382 408.355 294.044 408.467 294.989 407.522C 295.731 406.778 295.67 405.754 295.152 404.758"/>
				<path style="stroke:#66ffff; stroke-width:1.6154; fill:none" d="M 305.219 393.355C 306.302 394.437 306.411 396.096 305.468 397.042C 304.523 397.988 302.864 397.876 301.781 396.793L 300.485 395.5C 299.403 394.417 299.29 392.755 300.234 391.81C 301.181 390.864 302.842 390.977 303.923 392.06L 305.219 393.355z"/>
			</g>
		</g>
	</g>
</svg>
