<svg xmlns="http://www.w3.org/2000/svg" height="32" width="32">
	<g transform="translate(-316,-438)" id="KDDI_D_390">
		<path d="M339.382 470.43c0-2 1.066-4 2.266-5.2 1.333-1.066.933-8.13.533-10.53-.266-1.333-.666-2.266-1.6-2.8-.933-.666-2.132-.133-2.132-.133s-.267-1.333-2.133-1.6c-2-.4-2.4.4-2.4.4s-.533-1.066-2.266-1.466c-1.066-.133-2 0-2.532.133v-6.531c0-2.533-1.333-3.6-2.933-3.6-1.466 0-2.666 1.733-2.666 3.466v11.064c0 1.467-2.533 6.132-2.533 8.398 0 1.866 1.467 2.666 1.867 3.6.666 1.466 3.599 3.598 3.599 4.798" fill="#fc9"/>
		<path d="M336.183 470.43s.133-2 .8-3.333c.8-1.333 3.199-3.2 3.332-6.665.266-3.6.266-5.332-.667-5.999-.4-.4-.933 0-1.733.4-.266-1.066-.8-2.666-2.666-2.666-1.2 0-1.6 2.266-1.6 2.266s-1.599-3.066-3.198-3.066c-1.467 0-.667 2.133-1.2 2.8-.666-1.333-1.866-1.467-1.866-1.467v-10.797c0-1.466-1.733-2.533-1.733-2.533s3.2.134 3.2 2.266v7.998s1.865-.8 2.798-.533c.8.4 1.867 1.6 1.867 1.6s1.466-.4 2.399-.267c.933 0 2.133 1.333 2.133 1.333s1.866-.4 2.8.4c.799.8 1.199 4.132 1.465 5.465.134 1.333-.533 4.932-.666 5.599-.267.666-2 3.732-2 4.266 0 .533-.533 2.932-.533 2.932zM325.918 468.963l-3.065-3.333s2.799 1.067 3.865 2.133c1.067.933 1.467 2.666 1.467 2.666h-1.733z" fill="#f96"/>
		<path d="M324.452 439.903c.533 0 1.2 0 1.2 1.733V453.1c0 2.533-1.2 3.066-1.333 3.866-.267.8-1.466 3.332-1.866 4.265-.267 1.067-1.733 1.2-1.333-.133.533-1.6 1.2-3.466 1.6-4.132.4-.667.932-2 .932-3.066v-12.13c0-.667.267-1.867.8-1.867z" fill="#ff9"/>
		<path d="M324.319 456.966c-.267.8-1.466 3.332-1.866 4.265-.267 1.067-1.733 1.2-1.333-.133.533-1.6 1.2-3.466 1.6-4.132.4-.667.932-2 .932-3.066 0-.933.8 2.266.667 3.066z" fill="#ff9"/>
		<path d="M337.649 470.296s-.133-2.4 1.333-4c1.733-1.732 2.133-5.864 2.133-7.33 0-1.6.4-3.067.933-2 .533.933.4 1.466.4 2.666s-.134 3.199-.4 4.399c-.4 1.2-2 3.066-2.266 3.999-.134 1.066-.134 2.4-.134 2.4z" fill="#c60"/>
		<path d="M333.65 454.7v1.2" fill="none" stroke="#f93" stroke-linecap="round" stroke-width="1.333"/>
		<path d="M333.65 451.767v2.933" fill="none" stroke="#c60" stroke-linecap="round" stroke-width="1.333"/>
		<path d="M333.65 450.434v2.4M338.049 451.767v4" fill="none" stroke="#930" stroke-linecap="round" stroke-width="1.333"/>
		<path d="M329.384 449.501s.4-.666 2.266-.4c1.733.4 2.267 1.466 2.267 1.466s1.066-.666 2.399-.4c1.866.267 2.133 1.6 2.133 1.6s1.2-.533 2.132.133c.934.534 1.467 1.467 1.733 2.8.667 2.666.267 7.998-.666 9.864-.667 1.466-2 3.866-2 5.865" fill="none" stroke="#000" stroke-width="1.333"/>
		<path d="M329.118 452.7v3.066" fill="none" stroke="#c60" stroke-linecap="round" stroke-width="1.333"/>
		<path d="M323.652 454.033v3.6" fill="none" stroke="#933" stroke-linecap="round" stroke-width="1.333"/>
		<path d="M326.452 470.43c0-1.2-2.8-3.467-3.466-4.267-.667-.8-2-2.799-2-4.798 0-2 2.533-6.265 2.533-7.732V442.57c0-1.733 1.2-3.465 2.666-3.465s2.933 1.066 2.933 3.599v9.997" fill="none" stroke="#000" stroke-width="1.333"/>
	</g>
</svg>
