<svg xmlns="http://www.w3.org/2000/svg" height="32" width="32">
	<g transform="translate(-316,-438)" id="KDDI_D_391">
		<path d="M340.048 438.437c0 2 1.067 4.132 2.266 5.199 1.333 1.066.933 8.131.534 10.53-.267 1.333-.667 2.267-1.6 2.8-.933.666-2.133.266-2.133.266s-.266 1.2-2.133 1.467c-2 .4-2.399-.4-2.399-.4s-.533 1.066-2.266 1.466c-1.066.133-2 0-2.533-.133v6.531c0 2.533-1.333 3.733-2.932 3.733-1.467 0-2.666-1.733-2.666-3.6v-11.063c0-1.333-2.533-5.999-2.533-8.398 0-1.866 1.466-2.533 1.866-3.6.667-1.332 3.6-3.465 3.6-4.798" fill="#fc9"/>
		<path d="M336.85 438.437s.132 2 .799 3.333c.8 1.333 3.2 3.199 3.332 6.798.267 3.466.267 5.332-.666 5.998-.4.267-.933-.133-1.733-.533-.267 1.067-.8 2.666-2.666 2.666-1.2 0-1.6-2.266-1.6-2.266s-1.6 3.066-3.199 3.066c-1.466 0-.666-2.133-1.2-2.8-.666 1.334-1.866 1.467-1.866 1.467v12.797s1.333-.533 1.467-1.733c.133-1.067.133-7.598.133-7.598s1.733.4 2.666.133c.8-.4 1.866-1.6 1.866-1.6s1.466.4 2.4.4c.933-.133 2.132-1.466 2.132-1.466s1.866.4 2.8-.4c.8-.8 1.2-4.132 1.466-5.465.133-1.333-.533-4.932-.667-5.599-.266-.666-2-3.732-2-4.265 0-.534-.532-2.933-.532-2.933z" fill="#f96"/>
		<path d="M326.585 439.903l-3.066 3.333s2.8-1.066 3.866-2c1.066-1.066 1.466-2.799 1.466-2.799h-1.733zM327.785 469.23c.533-.534-1.467-.267-1.467-2v-3.333-7.998c0-2.666-1.2-3.199-1.333-3.999-.266-.666-1.466-3.332-1.866-4.265-.266-1.067-1.733-1.2-1.333.266.533 1.467 1.2 3.333 1.6 4 .4.666.933 1.999.933 3.065v12.13c0 .667 1.866 3.733 3.466 2.133z" fill="#ff9"/>
		<path d="M338.315 438.704s0 2.266 1.333 3.865c1.333 1.467 2.133 5.866 2.133 7.332 0 1.6.4 3.066.933 2 .534-.934.4-1.334.4-2.667 0-1.2-.133-3.199-.4-4.398-.4-1.2-2-2.933-2.266-4-.133-.933-.133-2.399-.133-2.399z" fill="#c60"/>
		<path d="M334.316 454.167v-1.2" fill="none" stroke="#f93" stroke-linecap="round" stroke-width="1.333"/>
		<path d="M334.316 457.232v-3.066" fill="none" stroke="#c60" stroke-linecap="round" stroke-width="1.333"/>
		<path d="M334.316 458.565v-2.532M338.715 457.1v-4" fill="none" stroke="#930" stroke-linecap="round" stroke-width="1.333"/>
		<path d="M330.05 459.365s.4.667 2.267.4c1.733-.4 2.266-1.466 2.266-1.466s1.066.666 2.4.4c1.866-.267 2.132-1.467 2.132-1.467s1.2.4 2.133-.266c.933-.533 1.466-1.467 1.733-2.8.666-2.666.266-7.998-.667-9.864-.666-1.466-2-3.865-2-5.865" fill="none" stroke="#000" stroke-width="1.333"/>
		<path d="M329.784 456.166v-2.933" fill="none" stroke="#c60" stroke-linecap="round" stroke-width="1.333"/>
		<path d="M324.319 454.833v-3.6" fill="none" stroke="#933" stroke-linecap="round" stroke-width="1.333"/>
		<path d="M327.118 438.437c0 1.333-2.8 3.466-3.466 4.266-.666.8-2 2.799-2 4.799 0 1.999 2.534 6.398 2.534 7.73v11.065c0 1.866 1.2 3.599 2.666 3.599s2.932-1.2 2.932-3.733v-9.997" fill="none" stroke="#000" stroke-width="1.333"/>
	</g>
</svg>
