<svg xmlns="http://www.w3.org/2000/svg" width="24" height="24">
	<g transform="translate(-264,-386)" id="KDDI_D_392">
		<g>
			<path style="stroke:none; fill:none" d="M 288 409.89L 264 409.89L 264 385.89L 288 385.89L 288 409.89z"/>
		</g>
		<g>
			<path style="stroke:none; fill:#909" d="M 287 405.89C 285.875 404.626 282.392 401.89 281 401.89L 271 401.89C 269.608 401.89 266.125 404.626 265 405.89C 264.661 406.211 264 406.306 264 406.89C 264 407.661 265.5 409.89 268.5 409.89L 283.5 409.89C 286.5 409.89 288 407.661 288 406.89C 288 406.306 287.339 406.211 287 405.89z"/>
			<path style="stroke:none; fill:#606" d="M 283.5 408.89L 268.5 408.89C 266.06 408.89 264.63 407.425 264.175 406.46C 264.072 406.569 264 406.703 264 406.89C 264 407.661 265.5 409.89 268.5 409.89L 283.5 409.89C 286.5 409.89 288 407.661 288 406.89C 288 406.703 287.928 406.569 287.825 406.46C 287.37 407.425 285.94 408.89 283.5 408.89z"/>
			<path style="stroke:none; fill:#606" d="M 276 405.39C 278.562 405.39 280.829 404.175 282.293 402.302C 281.784 402.048 281.332 401.89 281 401.89L 271 401.89C 270.668 401.89 270.216 402.048 269.707 402.302C 271.171 404.175 273.438 405.39 276 405.39z"/>
			<path style="stroke:none; fill:#6cf" d="M 284 396.39C 284 400.808 280.418 404.39 276 404.39C 271.582 404.39 268 400.808 268 396.39C 268 391.971 271.582 388.39 276 388.39C 280.418 388.39 284 391.971 284 396.39z"/>
			<path style="stroke:none; fill:#9cf" d="M 275.5 393.89C 275.5 395.271 274.381 396.39 273 396.39C 271.619 396.39 270.5 395.271 270.5 393.89C 270.5 392.509 271.619 391.39 273 391.39C 274.381 391.39 275.5 392.509 275.5 393.89z"/>
			<path style="stroke:none; fill:#cff" d="M 274 393.39C 274 394.218 273.329 394.89 272.5 394.89C 271.671 394.89 271 394.218 271 393.39C 271 392.561 271.671 391.89 272.5 391.89C 273.329 391.89 274 392.561 274 393.39z"/>
			<path style="stroke:none; fill:#fff" d="M 272.476 392.89C 272.476 393.152 272.263 393.365 272 393.365C 271.737 393.365 271.524 393.152 271.524 392.89C 271.524 392.627 271.737 392.415 272 392.415C 272.263 392.415 272.476 392.627 272.476 392.89z"/>
			<path style="stroke:none; fill:#9cf" d="M 281.133 390.257C 282.297 391.646 283 393.435 283 395.39C 283 399.808 279.418 403.39 275 403.39C 273.045 403.39 271.256 402.687 269.867 401.523C 271.335 403.275 273.536 404.39 276 404.39C 280.418 404.39 284 400.808 284 396.39C 284 393.926 282.885 391.724 281.133 390.257z"/>
			<path style="stroke:#39f; stroke-width:1; fill:none" d="M 284 396.39C 284 400.808 280.418 404.39 276 404.39C 271.582 404.39 268 400.808 268 396.39C 268 391.971 271.582 388.39 276 388.39C 280.418 388.39 284 391.971 284 396.39z"/>
			<path style="stroke:#66c; stroke-width:1; fill:none" d="M 281.502 390.582C 283.04 392.04 284 394.103 284 396.39C 284 400.808 280.418 404.39 276 404.39C 273.871 404.39 271.935 403.558 270.502 402.201"/>
			<path style="stroke:#c3f; stroke-dasharray:0.375,1.5375; stroke-width:0.75; stroke-linecap:round; fill:none" d="M 265.5 406.89C 265.5 406.89 266.812 407.39 268.5 407.39C 270.188 407.39 282.188 407.39 283.5 407.39C 284.812 407.39 286.5 406.89 286.5 406.89"/>
		</g>
	</g>
</svg>
