<svg xmlns="http://www.w3.org/2000/svg" width="24" height="24">
	<g transform="translate(-264,-386)" id="KDDI_D_393">
		<g>
			<path style="stroke:none; fill:none" d="M 288 409.89L 264 409.89L 264 385.89L 288 385.89L 288 409.89z"/>
		</g>
		<g>
			<path style="stroke:none; fill:#f00" d="M 276 397.326C 274.595 395.118 271.55 393.39 270 393.39C 268.076 393.39 266 394.728 266 396.89C 266 399.251 268.853 400.876 271.776 402.337C 274.545 403.721 275.517 406.521 275.526 406.549L 276 407.952L 276.474 406.549C 276.483 406.521 277.455 403.721 280.224 402.337C 283.147 400.876 286 399.251 286 396.89C 286 394.728 283.924 393.39 282 393.39C 280.45 393.39 277.405 395.118 276 397.326zM 276.464 398.575C 277.38 396.285 280.695 394.39 282 394.39C 283.21 394.39 285 395.184 285 396.89C 285 398.681 282.304 400.179 279.776 401.442C 277.728 402.466 276.575 404.117 276 405.191C 275.425 404.117 274.272 402.466 272.224 401.442C 269.696 400.179 267 398.681 267 396.89C 267 395.184 268.79 394.39 270 394.39C 271.305 394.39 274.62 396.285 275.536 398.575L 276 399.736L 276.464 398.575z"/>
			<path style="stroke:none; fill:#006" d="M 281 409.89L 271 409.89L 271 387.89L 281 387.89L 281 409.89z"/>
			<path style="stroke:none; fill:#66f" d="M 279 397.89L 273 397.89L 273 389.89L 279 389.89L 279 397.89z"/>
			<path style="stroke:#006; stroke-width:1; fill:none" d="M 273.5 388.39L 273.5 385.89"/>
			<path style="stroke:#666; stroke-width:1; fill:none" d="M 278.5 388.89L 278.5 387.89"/>
			<path style="stroke:#666; stroke-width:1; fill:none" d="M 273.5 388.89L 273.5 387.89"/>
			<path style="stroke:#666; stroke-width:1; fill:none" d="M 278.5 409.89L 278.5 408.89"/>
			<path style="stroke:#666; stroke-width:1; fill:none" d="M 273.5 409.89L 273.5 408.89"/>
			<g>
				<path style="stroke:none; fill:#f66" d="M 281 400.812C 280.596 401.028 280.184 401.238 279.776 401.442C 277.728 402.466 276.575 404.117 276 405.191C 275.425 404.117 274.272 402.466 272.224 401.442C 271.816 401.238 271.404 401.028 271 400.812L 271 401.942C 271.257 402.075 271.516 402.207 271.776 402.337C 274.545 403.721 275.517 406.521 275.526 406.549L 276 407.952L 276.474 406.549C 276.483 406.521 277.455 403.721 280.224 402.337C 280.484 402.207 280.743 402.075 281 401.942L 281 400.812z"/>
				<path style="stroke:none; fill:#f66" d="M 271 394.623C 272.546 395.18 274.803 396.742 275.536 398.575L 276 399.736L 276.464 398.575C 277.197 396.742 279.454 395.18 281 394.623L 281 393.575C 279.373 394.061 277.146 395.525 276 397.326C 274.854 395.525 272.627 394.061 271 393.575L 271 394.623z"/>
			</g>
		</g>
	</g>
</svg>
