<svg xmlns="http://www.w3.org/2000/svg" width="24" height="24">
	<g transform="translate(-264,-386)" id="KDDI_D_394">
		<g>
			<path style="stroke:none; fill:none" d="M 288 409.89L 264 409.89L 264 385.89L 288 385.89L 288 409.89z"/>
		</g>
		<g>
			<path style="stroke:none; fill:#006" d="M 281 409.89L 271 409.89L 271 387.89L 281 387.89L 281 409.89z"/>
			<path style="stroke:none; fill:#66f" d="M 279 397.89L 273 397.89L 273 389.89L 279 389.89L 279 397.89z"/>
			<path style="stroke:#006; stroke-width:1; fill:none" d="M 273.5 388.39L 273.5 385.89"/>
			<path style="stroke:#666; stroke-width:1; fill:none" d="M 278.5 388.89L 278.5 387.89"/>
			<path style="stroke:#666; stroke-width:1; fill:none" d="M 273.5 388.89L 273.5 387.89"/>
			<path style="stroke:#666; stroke-width:1; fill:none" d="M 278.5 409.89L 278.5 408.89"/>
			<path style="stroke:#666; stroke-width:1; fill:none" d="M 273.5 409.89L 273.5 408.89"/>
			<path style="stroke:none; fill:#f00" d="M 264 397.89L 264 403.39C 264 405.166 264.974 405.89 266.75 405.89C 268.526 405.89 269.5 405.166 269.5 403.39L 269.5 397.89C 269.5 396.114 268.526 395.39 266.75 395.39C 264.974 395.39 264 396.114 264 397.89zM 265.5 403.39L 265.5 397.89C 265.5 396.67 265.53 396.39 266.75 396.39C 267.97 396.39 268 396.67 268 397.89L 268 403.39C 268 404.609 267.97 404.89 266.75 404.89C 265.53 404.89 265.5 404.609 265.5 403.39z"/>
			<path style="stroke:none; fill:#f66" d="M 273 395.39L 273 405.89L 274.5 405.89C 274.5 405.89 274.5 397.292 274.5 396.39C 275.29 396.39 278.5 396.39 278.5 396.39L 278.5 395.39L 273 395.39z"/>
			<path style="stroke:none; fill:#f66" d="M 274 399.39L 274 400.39L 278.5 400.39L 278.5 399.39L 274 399.39z"/>
			<path style="stroke:none; fill:#f00" d="M 282.5 395.39L 282.5 405.89L 284 405.89C 284 405.89 284 397.292 284 396.39C 284.79 396.39 288 396.39 288 396.39L 288 395.39L 282.5 395.39z"/>
			<path style="stroke:none; fill:#f00" d="M 283 399.39L 283 400.39L 288 400.39L 288 399.39L 283 399.39z"/>
		</g>
	</g>
</svg>
