<svg xmlns="http://www.w3.org/2000/svg" width="24" height="24">
	<g transform="translate(-264,-386)" id="KDDI_D_395">
		<g>
			<path style="stroke:none; fill:none" d="M 288 409.89L 264 409.89L 264 385.89L 288 385.89L 288 409.89z"/>
		</g>
		<g>
			<path style="stroke:none; fill:#fff" d="M 285.5 407.39L 265.5 407.39L 265.5 388.39L 285.5 388.39L 285.5 407.39z"/>
			<path style="stroke:none; fill:#ccc" d="M 273 398.39L 272 398.39L 274.917 407.335L 282 407.335L 273 398.39z"/>
			<path style="stroke:#333; stroke-width:1; fill:none" d="M 285.5 407.39L 265.5 407.39L 265.5 388.39L 285.5 388.39L 285.5 407.39z"/>
			<path style="stroke:#f63; stroke-width:1; fill:none" d="M 264.5 407.89L 264.5 387.89"/>
			<path style="stroke:#33f; stroke-width:1; stroke-linecap:round; fill:none" d="M 268 386.39L 268 390.39"/>
			<path style="stroke:#33f; stroke-width:1; stroke-linecap:round; fill:none" d="M 271 386.39L 271 390.39"/>
			<path style="stroke:#33f; stroke-width:1; stroke-linecap:round; fill:none" d="M 274 386.39L 274 390.39"/>
			<path style="stroke:#33f; stroke-width:1; stroke-linecap:round; fill:none" d="M 277 386.39L 277 390.39"/>
			<path style="stroke:#33f; stroke-width:1; stroke-linecap:round; fill:none" d="M 280 386.39L 280 390.39"/>
			<path style="stroke:#666; stroke-width:1; fill:none" d="M 283 394.39L 280 394.39"/>
			<path style="stroke:#666; stroke-width:1; fill:none" d="M 271 394.39L 268 394.39"/>
			<path style="stroke:#666; stroke-width:1; fill:none" d="M 283 404.39L 280 404.39"/>
			<path style="stroke:#666; stroke-width:1; fill:none" d="M 277 404.39L 274 404.39"/>
			<path style="stroke:#666; stroke-width:1; fill:none" d="M 271 404.39L 268 404.39"/>
			<path style="stroke:#666; stroke-width:1; fill:none" d="M 283 399.39L 280 399.39"/>
			<path style="stroke:#666; stroke-width:1; fill:none" d="M 271 399.39L 268 399.39"/>
			<path style="stroke:#c30; stroke-width:1; fill:none" d="M 264.5 387.89L 264.5 388.89"/>
			<path style="stroke:#009; stroke-width:1; stroke-linecap:round; fill:none" d="M 268 388.39L 268 390.39"/>
			<path style="stroke:#00c; stroke-width:1; fill:none" d="M 268 387.39L 268 389.39"/>
			<path style="stroke:#009; stroke-width:1; stroke-linecap:round; fill:none" d="M 271 388.39L 271 390.39"/>
			<path style="stroke:#00c; stroke-width:1; fill:none" d="M 271 387.39L 271 389.39"/>
			<path style="stroke:#009; stroke-width:1; stroke-linecap:round; fill:none" d="M 274 388.39L 274 390.39"/>
			<path style="stroke:#00c; stroke-width:1; fill:none" d="M 274 387.39L 274 389.39"/>
			<path style="stroke:#009; stroke-width:1; stroke-linecap:round; fill:none" d="M 277 388.39L 277 390.39"/>
			<path style="stroke:#00c; stroke-width:1; fill:none" d="M 277 387.39L 277 389.39"/>
			<path style="stroke:none; fill:#0c0" d="M 272.5 397.89L 283.259 408.649C 284.259 409.649 285.759 409.649 286.759 408.649C 287.759 407.649 287.759 406.149 286.759 405.149C 285.759 404.149 276 394.39 276 394.39"/>
			<path style="stroke:#009; stroke-width:1; stroke-linecap:round; fill:none" d="M 280 388.39L 280 390.39"/>
			<path style="stroke:#00c; stroke-width:1; fill:none" d="M 280 387.39L 280 389.39"/>
			<path style="stroke:#33f; stroke-width:1; stroke-linecap:round; fill:none" d="M 283 386.39L 283 390.39"/>
			<path style="stroke:#009; stroke-width:1; stroke-linecap:round; fill:none" d="M 283 388.39L 283 390.39"/>
			<path style="stroke:#00c; stroke-width:1; fill:none" d="M 283 387.39L 283 389.39"/>
			<path style="stroke:#9f0; stroke-width:1; fill:none" d="M 286.759 408.649L 274.5 396.39"/>
			<path style="stroke:none; fill:#c93" d="M 286.759 408.649C 287.537 407.871 288.072 407.163 287.639 406.251C 286.727 405.818 285.648 405.983 284.871 406.76C 284.093 407.538 283.928 408.617 284.361 409.529C 285.273 409.962 285.981 409.426 286.759 408.649z"/>
			<path style="stroke:#060; stroke-width:1; fill:none" d="M 272.5 397.89L 283.259 408.649C 284.259 409.649 285.759 409.649 286.759 408.649C 287.759 407.649 287.759 406.149 286.759 405.149C 285.759 404.149 276 394.39 276 394.39"/>
			<path style="stroke:none; fill:#960" d="M 272 393.89L 272 398.39L 273.5 398.39L 273.5 397.39L 274.5 397.39L 274.5 396.39L 275.5 396.39L 275.5 395.39L 276.5 395.39L 276.5 393.89L 272 393.89z"/>
			<path style="stroke:none; fill:#c93" d="M 273.5 398.39L 273.5 397.39L 274.5 397.39L 274.5 396.39L 275.167 396.39L 272 393.89L 273.5 398.39z"/>
			<path style="stroke:none; fill:#c93" d="M 272 393.89L 276.5 395.39L 276.5 393.89L 272 393.89z"/>
			<path style="stroke:none; fill:#333" d="M 273 394.89L 272 394.89L 272 393.89L 273 393.89L 273 394.89z"/>
		</g>
	</g>
</svg>
