<svg xmlns="http://www.w3.org/2000/svg" width="24" height="24">
	<g transform="translate(-264,-386)" id="KDDI_D_396">
		<g>
			<path style="stroke:none; fill:none" d="M 288 409.89L 264 409.89L 264 385.89L 288 385.89L 288 409.89z"/>
		</g>
		<g>
			<path style="stroke:none; fill:#9cf" d="M 264 385.891L 288 385.891L 288 409.89L 264 409.89L 264 385.891z"/>
			<path style="stroke:none; fill:#69f" d="M 288 386.89L 277 386.89L 265.5 386.89C 265.5 386.89 265.5 387.89 265.5 388.89C 265.5 391.019 268.5 399.89 268.5 399.89L 269.5 399.89L 271.772 397.162L 275.5 400.89C 273.345 403.853 271.5 409.89 271.5 409.89L 283 409.89C 283 405.39 279.236 400.153 279.236 400.153L 282.228 397.162L 283.5 399.89L 284.5 399.89C 285.246 398.771 287.103 394.593 288 391.504L 288 386.89z"/>
			<path style="stroke:#000; stroke-width:1; fill:#f36" d="M 281.5 388.89L 281.5 395.89L 277.5 399.89L 274.5 399.89L 270.5 395.89L 270.5 388.89"/>
			<path style="stroke:#000; stroke-width:1; fill:#9cf" d="M 264.5 385.891C 264.5 385.891 264.5 386.89 264.5 387.89C 264.5 390.39 267.5 397.39 268.5 398.89L 276 389.89L 276 385.891"/>
			<path style="stroke:#000; stroke-width:1; fill:#9cf" d="M 287.5 385.891C 287.5 385.891 287.5 386.89 287.5 387.89C 287.5 390.39 284.5 397.39 283.5 398.89L 276 389.89L 276 385.891"/>
			<path style="stroke:#000; stroke-width:1; fill:#f69" d="M 270.5 409.89C 270.5 405.39 274.5 399.89 274.5 399.89L 277.5 399.89C 277.5 399.89 281.5 405.39 281.5 409.89"/>
			<path style="stroke:none; fill:#000" d="M 279.97 385.891C 278.57 387.291 276.335 389.525 276 389.859C 275.705 389.564 273.657 387.518 272.03 385.891L 270.97 385.891L 275.735 390.655C 275.881 390.801 276.119 390.801 276.265 390.655L 281.03 385.891L 279.97 385.891z"/>
			<path style="stroke:none; fill:#f69" d="M 278.5 395.89L 276 398.39L 273.5 395.89L 276 392.89L 278.5 395.89z"/>
			<path style="stroke:none; fill:#f9c" d="M 276.788 395.719L 276 396.507L 275.212 395.719L 276 394.773L 276.788 395.719z"/>
			<path style="stroke:none; fill:#f9c" d="M 277 409.89L 275 409.89L 275 400.39L 277 400.39L 277 409.89z"/>
			<path style="stroke:none; fill:#f36" d="M 277 403.89L 275 403.89L 275 400.39L 277 400.39L 277 403.89z"/>
			<path style="stroke:none; fill:#fc9" d="M 279.97 385.891L 272.03 385.891C 273.657 387.518 275.705 389.564 276 389.859C 276.335 389.525 278.57 387.291 279.97 385.891z"/>
			<path style="stroke:none; fill:#c96" d="M 276 389.859C 276.335 389.525 278.57 387.291 279.97 385.891L 279 385.891L 275.515 389.375C 275.882 389.742 275.908 389.767 276 389.859z"/>
			<path style="stroke:none; fill:#963" d="M 276.484 389.375L 273 385.891L 272.03 385.891C 273.657 387.518 275.705 389.564 276 389.859C 276.099 389.76 276.125 389.735 276.484 389.375z"/>
		</g>
	</g>
</svg>
