<svg xmlns="http://www.w3.org/2000/svg" width="24" height="24">
	<g transform="translate(-264,-386)" id="KDDI_D_397">
		<g>
			<path style="stroke:none; fill:none" d="M 288 409.89L 264 409.89L 264 385.89L 288 385.89L 288 409.89z"/>
		</g>
		<g>
			<path style="stroke:none; fill:#600" d="M 275 397.39C 275 397.39 279.955 397.435 281 396.39C 282.044 395.346 282.911 395.39 285 395.39C 287.089 395.39 288 392.979 288 390.89C 288 388.801 285.611 385.89 283 385.89C 279.866 385.89 275 386.234 275 389.89L 275 397.39z"/>
			<path style="stroke:none; fill:#900" d="M 275 389.89L 275 397.39C 277.5 397.39 279.25 397.14 280.5 395.89C 281.544 394.846 282.411 394.39 284.5 394.39C 286.589 394.39 287 391.979 287 389.89C 287 388.39 284.719 385.89 283 385.89C 279.866 385.89 275 386.234 275 389.89z"/>
			<path style="stroke:none; fill:#c00" d="M 276 389.89C 276 389.89 276 394.814 276 396.354C 277.942 396.271 279.03 395.946 279.793 395.183C 280.956 394.02 282.05 393.39 284.5 393.39C 285.495 393.39 286.5 391.712 286.5 389.39C 286.5 387.39 285.5 386.89 284 386.89C 277.726 386.89 276 388.602 276 389.89z"/>
			<path style="stroke:none; fill:#f03" d="M 278.036 396.101C 278.959 394.331 279.5 391.89 283 389.89C 283 388.642 280.286 387.46 279.101 387.396C 277.303 387.861 276.438 388.582 276.136 389.279C 276.003 389.758 276 390.192 276 390.39C 276 390.39 276 394.26 276 395.765C 276 395.765 276.211 396.04 276.477 396.324C 277.081 396.282 277.595 396.209 278.036 396.101z"/>
			<path style="stroke:none; fill:#f36" d="M 282.219 389.97C 277.219 389.97 276 391.89 276 391.89L 276 396.354C 276.43 396.336 276.811 396.303 277.163 396.259C 278.107 393.421 282.219 389.97 282.219 389.97z"/>
			<path style="stroke:none; fill:#f69" d="M 275.5 394.89C 275.5 394.89 278.646 391.008 282 389.89C 283.5 389.39 285 389.89 285 389.89C 285 389.89 282.651 389.329 280.312 391.095C 278.781 392.251 277 394.39 275.5 396.39"/>
			<path style="stroke:none; fill:#600" d="M 276 397.39C 275.5 397.39 275.5 396.361 275.5 399.89C 275.5 402.39 277.5 402.89 278.611 404.7C 279.833 406.691 281 409.89 284 409.89C 286.611 409.89 288.012 407.89 288.012 404.39C 288.012 401.257 286.444 399.479 284.355 398.434C 282.267 397.39 279.134 397.39 276 397.39z"/>
			<path style="stroke:none; fill:#600" d="M 276 397.39C 276 397.39 271.066 397.39 269.5 397.39C 267.934 397.39 264 400.256 264 403.39C 264 408.39 265 409.923 270.5 409.923C 275.2 409.923 276 404.7 276 404.179C 276 403.656 276 397.39 276 397.39z"/>
			<path style="stroke:none; fill:#900" d="M 275 403.146C 275 402.757 275 399.191 275 397.39C 273.709 397.39 270.763 397.39 269.5 397.39C 267.934 397.39 264 400.256 264 403.39C 264 404.965 264.1 406.195 264.408 407.142C 265.288 408.415 266.95 408.89 270 408.89C 274.7 408.89 275 403.667 275 403.146z"/>
			<path style="stroke:none; fill:#c00" d="M 265 403.39C 265 405.757 265.227 407.347 266.049 408.364C 266.997 408.729 268.269 408.89 270 408.89C 274.7 408.89 275 403.667 275 403.146C 275 402.757 275 399.191 275 397.39C 273.967 397.39 272.07 397.39 270.5 397.39C 268.934 397.39 265 400.256 265 403.39z"/>
			<path style="stroke:none; fill:#f03" d="M 267.35 399.049C 266.438 400.075 265.75 401.332 265.75 402.64C 265.75 405.007 265.977 406.597 266.799 407.614C 267.747 407.979 269.019 408.14 270.75 408.14C 272.117 408.14 273.146 407.692 273.93 407.052C 275.201 405.493 275 403.461 275 403.146C 275 402.757 275 399.191 275 397.39C 273.967 397.39 272.07 397.39 270.5 397.39C 269.758 397.39 268.485 398.038 267.35 399.049z"/>
			<path style="stroke:none; fill:#f36" d="M 275 397.39L 272.5 397.39L 269.5 403.89L 275 400.89L 275 397.39z"/>
			<path style="stroke:none; fill:#f69" d="M 266.5 407.39L 274.5 397.39L 275.5 397.89L 266.5 407.39z"/>
			<path style="stroke:none; fill:#900" d="M 284 408.463C 286.405 408.463 287.768 406.75 287.971 403.747C 287.766 401.019 286.104 398.929 284.167 397.96C 282.078 396.916 279.134 396.39 276 396.39C 275.5 396.39 275.5 396.361 275.5 399.89C 275.5 402.39 277.5 402.89 278.611 404.7C 278.919 405.201 279.223 405.778 279.554 406.362C 280.832 407.531 282.383 408.463 284 408.463z"/>
			<path style="stroke:none; fill:#c00" d="M 275.988 398.888L 275.988 398.89C 275.988 400.067 276.546 400.592 277.39 401.387C 277.904 401.871 278.486 402.419 278.952 403.177L 279.592 404.296C 280.756 406.4 281.716 407.89 283.488 407.89C 285.487 407.89 286.5 406.376 286.5 403.39C 286.5 400.996 285.514 399.387 283.397 398.328C 281.628 397.444 277.875 396.814 276.007 397.126C 275.999 397.813 275.988 398.888 275.988 398.888z"/>
			<path style="stroke:none; fill:#f03" d="M 276 399.39C 276 400.567 277.058 401.592 277.902 402.387C 278.415 402.871 279.592 404.296 279.592 404.296C 280.756 406.4 281.716 407.89 283.488 407.89C 285.487 407.89 286.5 406.376 286.5 403.39C 286.5 402.567 286.375 401.843 286.135 401.196C 286.135 401.195 286.134 401.194 286.133 401.193C 285.88 400.818 285.572 400.478 285.206 400.169C 285.176 400.145 284.79 399.846 284.612 399.73C 284.392 399.588 284.159 399.454 283.908 399.328C 282.14 398.444 276.477 396.324 276.519 398.393C 276.526 397.839 276 399.39 276 399.39z"/>
			<path style="stroke:none; fill:#600" d="M 276 397.39C 276 397.39 276 391.956 276 390.39C 276 387.778 275.222 385.89 270 385.89C 265.822 385.89 264 387.256 264 390.39C 264 394.045 266.322 397.39 270.5 397.39C 274.678 397.39 276 397.39 276 397.39z"/>
			<path style="stroke:none; fill:#900" d="M 270 385.89C 268.049 385.89 266.631 386.202 265.653 386.838C 265.225 387.506 265 388.341 265 389.39C 265 393.045 267.322 396.39 271.5 396.39C 273.751 396.39 275.167 396.39 276 396.39C 276 394.746 276 391.536 276 390.39C 276 387.778 275.222 385.89 270 385.89z"/>
			<path style="stroke:none; fill:#c00" d="M 265 390.39C 265 393.279 266.721 396.39 270.5 396.39C 270.5 396.39 273.661 396.39 275 396.39C 275 394.921 275 390.39 275 390.39C 275 388.669 275 386.89 270 386.89C 265.836 386.89 265 388.229 265 390.39z"/>
			<path style="stroke:none; fill:#f03" d="M 275 390.39C 275 389.429 274.998 388.45 274.127 387.773C 273.401 387.533 272.402 387.39 271 387.39C 266.836 387.39 266 388.729 266 390.89C 266 392.86 266.802 394.931 268.509 396.05C 269.096 396.266 269.756 396.39 270.5 396.39C 270.5 396.39 273.661 396.39 275 396.39C 275 394.921 275 390.39 275 390.39z"/>
			<path style="stroke:none; fill:#f36" d="M 270.5 396.39C 271.308 396.39 272.918 396.39 274 396.39L 270.5 392.89L 270.5 396.39z"/>
			<path style="stroke:none; fill:#f36" d="M 276.519 398.393C 276.397 398.39 276 398.39 276 398.39C 276 398.479 276.017 399.566 276.029 399.654L 276.029 399.654L 283 403.39L 278.039 397.526C 277.136 397.484 276.505 397.701 276.519 398.393z"/>
			<path style="stroke:none; fill:#f69" d="M 286 405.89C 286 405.89 280.966 401.27 276.674 397.913C 276.579 398.04 276.515 398.192 276.519 398.393C 276.522 398.145 276.418 398.324 276.303 398.591C 279.987 401.021 283.081 403.457 286 405.89z"/>
			<g>
				<path style="stroke:none; fill:#fc0" d="M 266.75 391.64C 267.3 391.64 268.068 391.959 268.457 392.347L 273.75 397.64C 275 398.89 275.75 398.64 276.25 398.14C 276.75 397.64 277 396.89 275.75 395.64L 270.457 390.347C 270.068 389.959 269.75 389.14 269.75 388.64C 269.75 388.14 269.25 387.64 267.75 387.64C 266.25 387.64 265.75 388.639 265.75 389.64C 265.75 391.14 266.2 391.64 266.75 391.64L 266.75 391.64z"/>
				<path style="stroke:none; fill:#f90" d="M 274.703 396.687L 269.41 391.394C 269.022 391.005 268.253 390.687 267.703 390.687C 267.153 390.687 266.703 390.187 266.703 388.687C 266.703 388.378 266.758 388.072 266.869 387.793C 266.051 388.108 265.75 388.871 265.75 389.64C 265.75 391.14 266.2 391.64 266.75 391.64C 267.3 391.64 268.068 391.959 268.457 392.347L 273.75 397.64C 275 398.89 275.75 398.64 276.25 398.14C 276.415 397.975 276.546 397.778 276.612 397.549C 276.148 397.681 275.54 397.524 274.703 396.687z"/>
				<path style="stroke:#600; stroke-width:1; fill:none" d="M 266.75 391.64C 267.3 391.64 268.068 391.959 268.457 392.347L 273.75 397.64C 275 398.89 275.75 398.64 276.25 398.14C 276.75 397.64 277 396.89 275.75 395.64L 270.457 390.347C 270.068 389.959 269.75 389.14 269.75 388.64C 269.75 388.14 269.25 387.64 267.75 387.64C 266.25 387.64 265.75 388.639 265.75 389.64C 265.75 391.14 266.2 391.64 266.75 391.64L 266.75 391.64z"/>
			</g>
		</g>
	</g>
</svg>
