<svg xmlns="http://www.w3.org/2000/svg" width="24" height="24">
	<g transform="translate(-264,-386)" id="KDDI_D_398">
		<g>
			<path style="stroke:none; fill:none" d="M 288 409.89L 264 409.89L 264 385.89L 288 385.89L 288 409.89z"/>
		</g>
		<g>
			<path style="stroke:none; fill:#0cf" d="M 268.5 405.39L 264 405.39C 264 405.39 264 406.891 264 407.89C 264 408.89 265 409.89 266 409.89C 267 409.89 268.5 409.89 268.5 409.89L 268.5 405.39z"/>
			<path style="stroke:none; fill:#3ff" d="M 266.5 408.39L 268.5 408.39L 268.5 405.39L 266.5 405.39L 266.5 408.39z"/>
			<path style="stroke:none; fill:#09f" d="M 268.5 406.39L 268 405.89L 265.546 409.817C 265.695 409.859 265.847 409.89 266 409.89C 267 409.89 268.5 409.89 268.5 409.89L 268.5 406.39z"/>
			<path style="stroke:#f09; stroke-width:1; fill:none" d="M 264 402.39C 265 402.39 267 402.39 267 403.89C 267 405.39 268.5 406.89 270 406.89C 271.5 406.89 271.5 409.23 271.5 409.89"/>
			<path style="stroke:none; fill:#c09" d="M 267.5 404.39C 267.5 404.194 267.5 403.848 267.5 403.398C 267.489 403.398 267.475 403.39 267.464 403.39C 266.994 403.39 266.549 403.804 266.485 404.386C 266.418 405 266.643 405.878 267.344 406.579C 268.027 407.263 268.906 407.485 269.494 407.411C 270.082 407.338 270.5 406.89 270.5 406.39C 270.022 406.39 269.672 406.39 269.5 406.39C 268.125 406.39 267.5 406.064 267.5 404.39z"/>
			<path style="stroke:none; fill:#3ff" d="M 275.5 398.39L 267.5 390.39C 267.5 390.39 267.5 401.058 267.5 403.89C 267.5 405.564 268.625 406.39 270 406.39C 272.715 406.39 283.5 406.39 283.5 406.39L 275.5 398.39z"/>
			<path style="stroke:none; fill:#09f" d="M 273.5 400.39L 268.182 405.708C 268.639 406.16 269.283 406.39 270 406.39C 271.144 406.39 273.826 406.39 275.5 406.39L 273.5 400.39z"/>
			<path style="stroke:none; fill:#0cf" d="M 268.5 405.963L 268.5 396.89L 267.5 396.89C 267.5 398.895 267.5 402.504 267.5 403.89C 267.5 404.877 267.897 405.561 268.5 405.963z"/>
			<path style="stroke:none; fill:#3ff" d="M 281 388.89L 268 388.89C 266.9 388.89 266 389.79 266 390.89C 266 392.39 267.5 393.39 267.5 393.39C 267.5 393.39 266 394.39 266 395.89C 266 397.89 268.586 397.911 269.024 398.348C 269.161 398.485 272.018 398.907 273.5 400.39C 275.126 402.016 275.391 404.715 275.542 404.866C 275.979 405.303 276 407.89 278 407.89C 279.5 407.89 280.5 406.39 280.5 406.39C 280.5 406.39 281.5 407.89 283 407.89C 284.1 407.89 285 406.99 285 405.89L 285 392.876C 285 391.885 282.1 388.89 281 388.89z"/>
			<path style="stroke:none; fill:#060" d="M 281.075 398.389C 279.59 396.903 279.59 394.924 279.59 394.924C 279.59 394.924 281.57 394.924 283.055 396.408C 284.54 397.894 284.5 399.89 284.5 399.89C 284.5 399.89 282.56 399.873 281.075 398.389z"/>
			<path style="stroke:none; fill:#060" d="M 272.035 392.375C 273.521 390.889 275.5 390.89 275.5 390.89C 275.5 390.89 275.5 392.87 274.016 394.355C 272.53 395.839 270.534 395.799 270.534 395.799C 270.534 395.799 270.551 393.859 272.035 392.375z"/>
			<path style="stroke:none; fill:#090" d="M 283.8 397.13C 282.12 397.13 281 396.01 281 396.01C 281 396.01 282.12 394.891 283.8 394.89C 285.479 394.89 288 396.042 288 396.042C 288 396.042 285.479 397.13 283.8 397.13z"/>
			<path style="stroke:none; fill:#060" d="M 275.125 397.63C 273.445 397.63 272.325 396.51 272.325 396.51C 272.325 396.51 273.445 395.391 275.125 395.39C 276.805 395.39 277.913 396.542 277.913 396.542C 277.913 396.542 276.805 397.63 275.125 397.63z"/>
			<path style="stroke:none; fill:#060" d="M 274.213 401.63C 272.532 401.63 271.413 400.51 271.413 400.51C 271.413 400.51 272.533 399.391 274.212 399.39C 275.892 399.39 277 400.542 277 400.542C 277 400.542 275.892 401.63 274.213 401.63z"/>
			<path style="stroke:none; fill:#060" d="M 280.74 401.389C 280.74 403.07 279.62 404.19 279.62 404.19C 279.62 404.19 278.501 403.069 278.5 401.39C 278.5 399.71 279.652 398.602 279.652 398.602C 279.652 398.602 280.74 399.71 280.74 401.389z"/>
			<path style="stroke:none; fill:#060" d="M 284.24 404.089C 284.24 405.77 283.12 406.89 283.12 406.89C 283.12 406.89 282.001 405.77 282 404.09C 282 402.41 283.152 401.302 283.152 401.302C 283.152 401.302 284.24 402.41 284.24 404.089z"/>
			<path style="stroke:none; fill:#060" d="M 286 394.589C 286 396.27 284.88 397.39 284.88 397.39C 284.88 397.39 283.761 396.27 283.76 394.59C 283.76 392.91 284.912 391.802 284.912 391.802C 284.912 391.802 286 392.91 286 394.589z"/>
			<path style="stroke:none; fill:#060" d="M 286.09 388.797C 284.902 389.986 283.318 389.985 283.318 389.985C 283.318 389.985 283.319 388.402 284.505 387.213C 285.694 386.026 287.292 386.057 287.292 386.057C 287.292 386.057 287.278 387.61 286.09 388.797z"/>
			<path style="stroke:none; fill:#060" d="M 281.213 390.39C 279.532 390.391 278.413 389.27 278.413 389.27C 278.413 389.27 279.533 388.151 281.212 388.15C 282.893 388.15 284 389.302 284 389.302C 284 389.302 282.892 390.391 281.213 390.39z"/>
			<path style="stroke:none; fill:#060" d="M 273.24 387.092C 274.428 388.279 274.428 389.863 274.428 389.863C 274.428 389.863 272.845 389.862 271.656 388.676C 270.468 387.488 270.5 385.89 270.5 385.89C 270.5 385.89 272.052 385.904 273.24 387.092z"/>
			<path style="stroke:none; fill:#090" d="M 285.088 391.177C 285.088 392.858 283.968 393.977 283.968 393.977C 283.968 393.977 282.849 392.857 282.848 391.177C 282.848 389.498 284 388.39 284 388.39C 284 388.39 285.088 389.498 285.088 391.177z"/>
			<path style="stroke:none; fill:#090" d="M 274.3 390.13C 272.62 390.13 271.5 389.01 271.5 389.01C 271.5 389.01 272.62 387.891 274.3 387.89C 275.979 387.89 277.087 389.042 277.087 389.042C 277.087 389.042 275.979 390.13 274.3 390.13z"/>
			<path style="stroke:none; fill:#090" d="M 285.213 402.63C 283.532 402.63 282.413 401.51 282.413 401.51C 282.413 401.51 283.533 400.391 285.212 400.39C 286.892 400.39 288 401.542 288 401.542C 288 401.542 286.892 402.63 285.213 402.63z"/>
			<path style="stroke:none; fill:#090" d="M 275.26 398.69C 275.26 397.009 276.38 395.89 276.38 395.89C 276.38 395.89 277.499 397.01 277.5 398.69C 277.5 400.369 276.348 401.477 276.348 401.477C 276.348 401.477 275.26 400.369 275.26 398.69z"/>
			<path style="stroke:none; fill:#090" d="M 269.76 394.19C 269.76 392.509 270.88 391.39 270.88 391.39C 270.88 391.39 271.999 392.51 272 394.19C 272 395.869 270.848 396.977 270.848 396.977C 270.848 396.977 269.76 395.869 269.76 394.19z"/>
			<path style="stroke:none; fill:#090" d="M 278.26 399.688C 277.072 398.499 277.072 396.915 277.072 396.915C 277.072 396.915 278.655 396.916 279.844 398.104C 281.032 399.291 281 400.89 281 400.89C 281 400.89 279.448 400.875 278.26 399.688z"/>
			<path style="stroke:none; fill:#090" d="M 279.298 405.129C 278.109 406.318 276.525 406.317 276.525 406.317C 276.525 406.317 276.526 404.734 277.714 403.546C 278.901 402.358 280.5 402.39 280.5 402.39C 280.5 402.39 280.485 403.942 279.298 405.129z"/>
			<path style="stroke:none; fill:#090" d="M 274.035 392.875C 275.521 391.389 277.5 391.39 277.5 391.39C 277.5 391.39 277.5 393.37 276.016 394.855C 274.53 396.339 272.534 396.299 272.534 396.299C 272.534 396.299 272.551 394.359 274.035 392.875z"/>
			<path style="stroke:none; fill:#090" d="M 279.535 390.875C 281.021 389.389 283 389.39 283 389.39C 283 389.39 283 391.37 281.516 392.855C 280.03 394.339 278.034 394.299 278.034 394.299C 278.034 394.299 278.051 392.359 279.535 390.875z"/>
			<path style="stroke:none; fill:#060" d="M 282.801 394.13C 281.12 394.131 280 393.01 280 393.01C 280 393.01 281.12 391.892 282.799 391.89C 284.48 391.891 285.587 393.042 285.587 393.042C 285.587 393.042 284.479 394.131 282.801 394.13z"/>
			<path style="stroke:#f99; stroke-width:2; stroke-linecap:round; fill:none" d="M 283.68 391.514L 286.403 394.236"/>
			<path style="stroke:#f99; stroke-width:2; stroke-linecap:round; fill:none" d="M 283.68 394.236L 286.404 391.515"/>
			<path style="stroke:#f06; stroke-width:2; stroke-linecap:round; fill:none" d="M 285.042 390.95L 285.042 394.801"/>
			<path style="stroke:#f06; stroke-width:2; stroke-linecap:round; fill:none" d="M 283.117 392.876L 286.966 392.876"/>
			<path style="stroke:none; fill:#f6c" d="M 286.032 392.876C 286.032 393.422 285.588 393.866 285.042 393.866C 284.495 393.866 284.052 393.422 284.052 392.876C 284.052 392.329 284.495 391.885 285.042 391.885C 285.588 391.885 286.032 392.329 286.032 392.876z"/>
			<g>
				<path style="stroke:#f60; stroke-width:2; stroke-linecap:round; fill:none" d="M 281.639 400.055L 284.36 402.778"/>
				<path style="stroke:#f60; stroke-width:2; stroke-linecap:round; fill:none" d="M 281.639 402.778L 284.361 400.056"/>
				<path style="stroke:#f00; stroke-width:2; stroke-linecap:round; fill:none" d="M 283 399.493L 283 403.342"/>
				<path style="stroke:#f00; stroke-width:2; stroke-linecap:round; fill:none" d="M 281.074 401.418L 284.925 401.418"/>
				<path style="stroke:none; fill:#f60" d="M 283.99 401.418C 283.99 401.964 283.546 402.407 283 402.407C 282.453 402.407 282.009 401.964 282.009 401.418C 282.009 400.871 282.453 400.427 283 400.427C 283.546 400.427 283.99 400.871 283.99 401.418z"/>
			</g>
			<g>
				<path style="stroke:#f60; stroke-width:2; stroke-linecap:round; fill:none" d="M 274.181 402.028L 276.903 404.751"/>
				<path style="stroke:#f60; stroke-width:2; stroke-linecap:round; fill:none" d="M 274.181 404.751L 276.904 402.028"/>
				<path style="stroke:#f00; stroke-width:2; stroke-linecap:round; fill:none" d="M 275.542 401.465L 275.542 405.315"/>
				<path style="stroke:#f00; stroke-width:2; stroke-linecap:round; fill:none" d="M 273.617 403.39L 277.467 403.39"/>
				<path style="stroke:none; fill:#f60" d="M 276.532 403.39C 276.532 403.937 276.088 404.379 275.542 404.379C 274.995 404.379 274.552 403.937 274.552 403.39C 274.552 402.843 274.995 402.4 275.542 402.4C 276.088 402.4 276.532 402.843 276.532 403.39z"/>
			</g>
			<g>
				<path style="stroke:#f99; stroke-width:2; stroke-linecap:round; fill:none" d="M 276.639 394.555L 279.36 397.278"/>
				<path style="stroke:#f99; stroke-width:2; stroke-linecap:round; fill:none" d="M 276.639 397.278L 279.361 394.556"/>
				<path style="stroke:#f06; stroke-width:2; stroke-linecap:round; fill:none" d="M 278 393.992L 278 397.842"/>
				<path style="stroke:#f06; stroke-width:2; stroke-linecap:round; fill:none" d="M 276.074 395.918L 279.925 395.918"/>
				<path style="stroke:none; fill:#f6c" d="M 278.99 395.918C 278.99 396.464 278.546 396.907 278 396.907C 277.453 396.907 277.009 396.464 277.009 395.918C 277.009 395.37 277.453 394.927 278 394.927C 278.546 394.927 278.99 395.37 278.99 395.918z"/>
			</g>
			<g>
				<path style="stroke:#f99; stroke-width:2; stroke-linecap:round; fill:none" d="M 269.639 396.514L 272.36 399.236"/>
				<path style="stroke:#f99; stroke-width:2; stroke-linecap:round; fill:none" d="M 269.639 399.236L 272.362 396.515"/>
				<path style="stroke:#f06; stroke-width:2; stroke-linecap:round; fill:none" d="M 271 395.95L 271 399.801"/>
				<path style="stroke:#f06; stroke-width:2; stroke-linecap:round; fill:none" d="M 269.075 397.876L 272.925 397.876"/>
				<path style="stroke:none; fill:#f6c" d="M 271.989 397.876C 271.989 398.422 271.546 398.866 271 398.866C 270.453 398.866 270.009 398.422 270.009 397.876C 270.009 397.329 270.453 396.885 271 396.885C 271.546 396.885 271.989 397.329 271.989 397.876z"/>
			</g>
			<g>
				<path style="stroke:#ff6; stroke-width:2; stroke-linecap:round; fill:none" d="M 276.681 387.515L 279.403 390.237"/>
				<path style="stroke:#ff6; stroke-width:2; stroke-linecap:round; fill:none" d="M 276.681 390.237L 279.404 387.515"/>
				<path style="stroke:#f60; stroke-width:2; stroke-linecap:round; fill:none" d="M 278.042 386.951L 278.042 390.801"/>
				<path style="stroke:#f60; stroke-width:2; stroke-linecap:round; fill:none" d="M 276.117 388.876L 279.967 388.876"/>
				<path style="stroke:none; fill:#ff6" d="M 279.032 388.876C 279.032 389.423 278.588 389.866 278.042 389.866C 277.495 389.866 277.052 389.423 277.052 388.876C 277.052 388.329 277.495 387.886 278.042 387.886C 278.588 387.886 279.032 388.329 279.032 388.876z"/>
			</g>
			<g>
				<path style="stroke:#ff6; stroke-width:2; stroke-linecap:round; fill:none" d="M 269.639 389.515L 272.36 392.236"/>
				<path style="stroke:#ff6; stroke-width:2; stroke-linecap:round; fill:none" d="M 269.639 392.236L 272.362 389.515"/>
				<path style="stroke:#f60; stroke-width:2; stroke-linecap:round; fill:none" d="M 271 388.951L 271 392.801"/>
				<path style="stroke:#f60; stroke-width:2; stroke-linecap:round; fill:none" d="M 269.075 390.876L 272.925 390.876"/>
				<path style="stroke:none; fill:#ff6" d="M 271.989 390.876C 271.989 391.422 271.546 391.865 271 391.865C 270.453 391.865 270.009 391.422 270.009 390.876C 270.009 390.329 270.453 389.885 271 389.885C 271.546 389.885 271.989 390.329 271.989 390.876z"/>
			</g>
		</g>
	</g>
</svg>
