<svg xmlns="http://www.w3.org/2000/svg" width="24" height="24">
	<g transform="translate(-264,-386)" id="KDDI_D_399">
		<g>
			<path style="stroke:none; fill:none" d="M 288 409.89L 264 409.89L 264 385.89L 288 385.89L 288 409.89z"/>
		</g>
		<g>
			<path style="stroke:none; fill:#6c3" d="M 280 409.89L 280 406.89C 280.526 406.89 281.363 406.89 282 406.89C 285.5 406.89 287.5 404.89 287.5 401.39C 287.5 397.89 287.5 398.39 287.5 397.39C 287.5 396.39 287 395.39 285.5 395.39C 284 395.39 283.5 396.39 283.5 397.39C 283.5 398.39 283.5 398.39 283.5 399.89C 283.5 401.89 283 403.39 281.5 403.39C 280.5 403.39 280 402.39 280 399.89L 280 391.89C 280 390.89 279.5 387.89 276 387.89C 272.5 387.89 272 390.89 272 391.89C 272 392.197 272 394.018 272 396.39C 272 398.89 271.5 399.89 270.5 399.89C 269 399.89 268.5 398.39 268.5 396.39C 268.5 394.89 268.5 394.89 268.5 393.89C 268.5 392.89 268 391.89 266.5 391.89C 265 391.89 264.5 392.89 264.5 393.89C 264.5 394.89 264.5 394.39 264.5 397.89C 264.5 401.39 266.5 403.39 270 403.39C 270.637 403.39 271.474 403.39 272 403.39C 272 406.919 272 409.89 272 409.89"/>
			<path style="stroke:none; fill:#390" d="M 272 391.89C 272 392.197 272 394.018 272 396.39C 272 396.868 271.976 397.275 271.94 397.647L 272 397.89C 272 400.39 271 401.39 270 401.39C 268.5 401.39 266.5 401.39 266.5 396.39C 266.5 394.89 266.5 394.89 266.5 393.89C 266.5 393.159 266.228 392.434 265.5 392.093C 264.772 392.434 264.5 393.159 264.5 393.89C 264.5 394.89 264.5 394.39 264.5 397.89C 264.5 401.39 266.5 403.39 270 403.39C 270.637 403.39 271.474 403.39 272 403.39C 272 406.919 272 409.89 272 409.89L 275 409.89L 275 387.99C 272.407 388.504 272 390.995 272 391.89z"/>
			<path style="stroke:none; fill:#390" d="M 280 391.79C 280 392.097 280 393.918 280 396.29C 280 396.768 280.024 400.775 280.06 401.147L 280 401.39C 280 403.89 281 404.89 282 404.89C 283.5 404.89 285.5 404.89 285.5 399.89C 285.5 398.39 285.5 398.39 285.5 397.39C 285.5 396.659 285.772 395.934 286.5 395.593C 287.228 395.934 287.5 396.659 287.5 397.39C 287.5 398.39 287.5 397.89 287.5 401.39C 287.5 404.89 285.5 406.89 282 406.89C 281.363 406.89 280.526 406.89 280 406.89C 280 408.39 280 409.89 280 409.89L 277 409.89L 277 387.89C 279.593 388.404 280 390.895 280 391.79z"/>
			<path style="stroke:#000; stroke-width:2; stroke-linecap:round; fill:none" d="M 275.917 397.89L 275.917 399.39"/>
			<path style="stroke:#000; stroke-width:1; stroke-linecap:round; fill:none" d="M 274.5 393.39L 274.5 394.39"/>
			<path style="stroke:#000; stroke-width:1; stroke-linecap:round; fill:none" d="M 277.5 393.39L 277.5 394.39"/>
			<path style="stroke:#030; stroke-width:1; fill:none" d="M 274.5 385.89L 274.5 388.39"/>
			<path style="stroke:#030; stroke-width:1; fill:none" d="M 277.5 385.89L 277.5 388.39"/>
			<path style="stroke:#030; stroke-width:1; fill:none" d="M 271 387.89L 272.5 389.39"/>
			<path style="stroke:#030; stroke-width:1; fill:none" d="M 281 387.89L 279.5 389.39"/>
			<path style="stroke:#060; stroke-width:1; fill:none" d="M 280 409.89L 280 406.89C 280.526 406.89 281.363 406.89 282 406.89C 285.5 406.89 287.5 404.89 287.5 401.39C 287.5 397.89 287.5 398.39 287.5 397.39C 287.5 396.39 287 395.39 285.5 395.39C 284 395.39 283.5 396.39 283.5 397.39C 283.5 398.39 283.5 398.39 283.5 399.89C 283.5 401.89 283 403.39 281.5 403.39C 280.5 403.39 280 402.39 280 399.89L 280 391.89C 280 390.89 279.5 387.89 276 387.89C 272.5 387.89 272 390.89 272 391.89C 272 392.197 272 394.018 272 396.39C 272 398.89 271.5 399.89 270.5 399.89C 269 399.89 268.5 398.39 268.5 396.39C 268.5 394.89 268.5 394.89 268.5 393.89C 268.5 392.89 268 391.89 266.5 391.89C 265 391.89 264.5 392.89 264.5 393.89C 264.5 394.89 264.5 394.39 264.5 397.89C 264.5 401.39 266.5 403.39 270 403.39C 270.637 403.39 271.474 403.39 272 403.39C 272 406.919 272 409.89 272 409.89"/>
			<path style="stroke:#030; stroke-width:1; fill:none" d="M 267.326 402.889C 268.081 403.219 268.977 403.39 270 403.39C 270.637 403.39 271.5 403.39 271.5 403.39"/>
			<path style="stroke:#030; stroke-width:1; fill:none" d="M 270.5 399.89C 269 399.89 268.5 398.39 268.5 396.39C 268.5 394.89 268.5 394.89 268.5 393.89"/>
			<path style="stroke:#030; stroke-width:1; fill:none" d="M 281.5 403.39C 280.5 403.39 280 402.39 280 399.89L 280 391.89C 280 390.994 279.599 388.494 277 387.982"/>
			<path style="stroke:#030; stroke-width:1; fill:none" d="M 280 409.89L 280 406.89C 280.526 406.89 281.363 406.89 282 406.89C 285.5 406.89 287.5 404.89 287.5 401.39C 287.5 397.89 287.5 398.39 287.5 397.39"/>
		</g>
	</g>
</svg>
