<svg xmlns="http://www.w3.org/2000/svg" width="24" height="24">
	<g transform="translate(-264,-386)" id="KDDI_D_400">
		<g>
			<path style="stroke:none; fill:none" d="M 288 409.89L 264 409.89L 264 385.89L 288 385.89L 288 409.89z"/>
		</g>
		<g>
			<path style="stroke:none; fill:#333" d="M 275 404.39C 275 402.457 272.538 400.89 269.5 400.89C 266.462 400.89 264 402.457 264 404.39C 264 404.887 264.165 405.359 264.46 405.788C 264.505 405.88 264.558 405.972 264.625 406.064C 265.668 407.491 266 409.89 266 409.89L 269.5 409.89L 273 409.89C 273 409.89 273.332 407.491 274.375 406.064C 274.442 405.972 274.495 405.88 274.54 405.788C 274.835 405.359 275 404.887 275 404.39z"/>
			<path style="stroke:none; fill:#666" d="M 269.5 400.89C 266.462 400.89 264 402.457 264 404.39C 264 404.887 264.165 405.359 264.46 405.788C 264.505 405.88 264.558 405.972 264.625 406.064C 265.237 406.901 265.6 408.064 265.798 408.89L 269.031 408.89L 272.183 408.89C 272.183 408.89 272.707 406.585 273.75 405.157C 273.817 405.066 274.026 404.88 274.072 404.788C 274.366 404.359 274.531 403.887 274.531 403.39C 274.531 403.223 274.507 403.06 274.471 402.9C 273.591 401.713 271.699 400.89 269.5 400.89z"/>
			<path style="stroke:none; fill:#999" d="M 265 404.39L 265 404.39C 265 404.668 265.096 404.948 265.284 405.223L 265.303 405.251L 265.432 405.473C 266.214 406.543 266.616 407.979 266.817 408.89C 267.777 408.89 271.223 408.89 272.183 408.89C 272.384 407.979 272.786 406.544 273.567 405.474C 273.568 405.473 273.716 405.223 273.716 405.223C 273.904 404.948 274 404.668 274 404.39C 274 403.207 272.152 401.89 269.5 401.89C 266.848 401.89 265 403.207 265 404.39z"/>
			<path style="stroke:none; fill:#ccc" d="M 269.5 406.89C 271.222 406.89 272.74 406.28 273.639 405.353C 273.677 405.288 273.716 405.223 273.716 405.223C 273.904 404.948 274 404.668 274 404.39C 274 403.207 272.152 401.89 269.5 401.89C 266.848 401.89 265 403.207 265 404.39C 265 404.668 265.096 404.948 265.284 405.223L 265.303 405.251L 265.363 405.355C 266.263 406.281 267.779 406.89 269.5 406.89z"/>
			<path style="stroke:none; fill:#333" d="M 273 403.39C 273 404.218 271.433 404.89 269.5 404.89C 267.567 404.89 266 404.218 266 403.39C 266 402.561 267.567 401.89 269.5 401.89C 271.433 401.89 273 402.561 273 403.39z"/>
			<path style="stroke:none; fill:#333" d="M 286.5 398.39C 285.5 396.39 284 393.89 284 393.39C 284 392.407 283.965 391.448 285 390.754C 285.625 390.335 286 389.598 286 388.89C 286 387.233 283.985 385.89 281.5 385.89C 279.015 385.89 277 387.233 277 388.89C 277 389.598 277.375 390.251 278 390.754C 278.654 391.28 279 391.647 279 393.39C 279 393.89 277.5 396.39 276.5 398.39C 275.5 400.39 275 401.39 275 403.39C 275 404.983 276.269 408.661 279.058 409.89C 280 409.87 282.917 409.918 283.941 409.89C 286.731 408.662 288 404.983 288 403.39C 288 401.39 287.5 400.39 286.5 398.39z"/>
			<path style="stroke:none; fill:#666" d="M 282.941 408.89C 285.731 407.662 287 404.483 287 402.89C 287 400.89 286.5 399.89 285.5 397.89C 284.5 395.89 283 393.39 283 392.89C 283 392.39 283.146 391.299 284 390.689C 284.875 390.064 285.219 389.407 285.219 388.407C 285.219 387.59 284.656 386.876 283.711 386.292C 283.055 386.043 282.308 385.89 281.5 385.89C 279.015 385.89 277 387.233 277 388.89C 277 389.598 277.312 390.169 278 390.754C 279.146 391.73 279 392.89 279 393.39C 279 393.89 277.5 396.39 276.5 398.39C 275.5 400.39 275 401.39 275 403.39C 275 404.836 275.72 407.476 278 408.89C 278.5 408.973 281.875 408.876 282.941 408.89z"/>
			<path style="stroke:none; fill:#999" d="M 283 392.89C 283 392.691 283.039 392.46 283.093 392.218C 282.588 392.329 282.054 392.39 281.5 392.39C 280.936 392.39 280.392 392.327 279.88 392.213C 279.95 392.57 280 392.951 280 393.39C 280 393.909 279.705 394.511 278.542 396.663L 277.395 398.837C 276.408 400.81 276 401.626 276 403.39C 276 404.414 276.544 406.62 278.5 407.89C 279.219 407.89 281.708 407.89 282.724 407.89C 285.002 406.78 286 404.112 286 402.89C 286 401.126 285.592 400.31 284.605 398.337C 284.605 398.337 283 394.89 283 392.89z"/>
			<path style="stroke:none; fill:#ccc" d="M 281.5 393.39C 281.5 393.39 281.196 393.357 280.994 393.335C 280.995 393.339 281 393.39 281 393.39C 281 394.184 280.647 394.872 279.421 397.138C 279.426 397.129 278.279 399.304 278.279 399.304C 277.325 401.213 277 401.862 277 403.39C 277 404.064 277.917 406.418 280.5 406.418C 282.873 406.418 282.5 402.89 282.5 401.39C 282.5 400.75 282.5 394.083 282.5 393.39C 282.277 393.414 281.5 393.39 281.5 393.39z"/>
			<path style="stroke:none; fill:#ccc" d="M 281.516 389.623C 281.51 389.623 281.505 389.623 281.5 389.623C 281.495 389.623 281.49 389.623 281.484 389.623C 279.853 389.623 278.04 388.812 278 388.141C 278 389.141 278.077 389.702 279.016 390.641C 279.513 391.138 280.505 391.387 281.5 391.39C 282.495 391.387 283.487 391.138 283.984 390.641C 284.923 389.702 285 389.141 285 388.141C 284.96 388.812 283.147 389.623 281.516 389.623z"/>
			<path style="stroke:none; fill:#333" d="M 284.484 388.131C 284.484 388.817 283.142 389.372 281.484 389.372C 279.828 389.372 278.484 388.817 278.484 388.131C 278.484 387.445 279.828 386.89 281.484 386.89C 283.142 386.89 284.484 387.445 284.484 388.131z"/>
			<path style="stroke:none; fill:#fff" d="M 279.5 402.39C 279.5 403.218 279.052 403.89 278.5 403.89C 277.948 403.89 277.5 403.218 277.5 402.39C 277.5 401.561 277.948 400.89 278.5 400.89C 279.052 400.89 279.5 401.561 279.5 402.39z"/>
		</g>
		<g>
			<path style="stroke:none; fill:#333" d="M 288 395.906C 285.916 395.23 283.314 394.567 282.975 394.229C 281.743 392.997 281.728 392.493 281.818 391.658C 281.905 390.861 281.708 390.134 281.207 389.633C 280.036 388.462 277.662 388.937 275.904 390.694C 274.147 392.451 273.671 394.825 274.843 395.997C 275.344 396.498 276.13 396.754 276.869 396.608C 278.091 396.368 278.745 397.07 279.439 397.765C 279.793 398.118 280.5 400.947 281.207 403.068C 281.915 405.19 282.268 406.251 283.682 407.665C 284.408 408.39 286.117 409.351 288 409.651L 288 395.906z"/>
			<path style="stroke:none; fill:#333" d="M 275 400.89C 275 398.957 272.538 397.39 269.5 397.39C 266.462 397.39 264 398.957 264 400.89C 264 401.387 264.165 401.859 264.46 402.288C 264.505 402.38 264.558 402.472 264.625 402.564C 265.668 403.991 266 406.39 266 406.39L 269.5 406.39L 273 406.39C 273 406.39 273.332 403.991 274.375 402.564C 274.442 402.472 274.495 402.38 274.54 402.288C 274.835 401.859 275 401.387 275 400.89z"/>
			<path style="stroke:none; fill:#666" d="M 269.5 397.39C 266.462 397.39 264 398.957 264 400.89C 264 401.387 264.165 401.859 264.46 402.288C 264.505 402.38 264.558 402.472 264.625 402.564C 265.237 403.401 265.6 404.564 265.798 405.39L 269.031 405.39L 272.183 405.39C 272.183 405.39 272.707 403.085 273.75 401.657C 273.817 401.566 274.026 401.38 274.072 401.288C 274.366 400.859 274.531 400.387 274.531 399.89C 274.531 399.723 274.507 399.56 274.471 399.4C 273.591 398.213 271.699 397.39 269.5 397.39z"/>
			<path style="stroke:none; fill:#999" d="M 265 400.89L 265 400.89C 265 401.168 265.096 401.448 265.284 401.723L 265.303 401.751L 265.432 401.973C 266.214 403.043 266.616 404.479 266.817 405.39C 267.777 405.39 271.223 405.39 272.183 405.39C 272.384 404.479 272.786 403.044 273.567 401.974C 273.568 401.973 273.716 401.723 273.716 401.723C 273.904 401.448 274 401.168 274 400.89C 274 399.707 272.152 398.39 269.5 398.39C 266.848 398.39 265 399.707 265 400.89z"/>
			<path style="stroke:none; fill:#ccc" d="M 269.5 403.39C 271.222 403.39 272.74 402.78 273.639 401.853C 273.677 401.788 273.716 401.723 273.716 401.723C 273.904 401.448 274 401.168 274 400.89C 274 399.707 272.152 398.39 269.5 398.39C 266.848 398.39 265 399.707 265 400.89C 265 401.168 265.096 401.448 265.284 401.723L 265.303 401.751L 265.363 401.855C 266.263 402.781 267.779 403.39 269.5 403.39z"/>
			<path style="stroke:none; fill:#333" d="M 273 399.89C 273 400.718 271.433 401.39 269.5 401.39C 267.567 401.39 266 400.718 266 399.89C 266 399.061 267.567 398.39 269.5 398.39C 271.433 398.39 273 399.061 273 399.89z"/>
			<path style="stroke:none; fill:#666" d="M 288 395.906C 285.916 395.23 283.314 394.567 282.975 394.229C 282.622 393.876 281.699 393.159 281.818 391.658C 281.891 390.759 281.708 390.134 281.207 389.633C 280.036 388.462 277.662 388.937 275.904 390.694C 275.332 391.265 274.913 391.902 274.625 392.541C 274.37 393.623 274.476 394.525 275.054 395.104C 275.761 395.811 276.469 396.032 277.53 395.855C 278.566 395.683 279.44 396.351 279.793 396.704C 280.147 397.058 280.854 399.886 281.561 402.007C 282.268 404.129 282.622 405.19 284.036 406.604C 284.747 407.315 286.264 408.114 288 408.33L 288 395.906z"/>
			<path style="stroke:none; fill:#333" d="M 275.378 394.389C 275.864 394.874 277.206 394.317 278.377 393.145C 279.548 391.974 280.106 390.631 279.622 390.147C 279.136 389.662 277.793 390.219 276.622 391.39C 275.451 392.562 274.894 393.904 275.378 394.389z"/>
			<path style="stroke:none; fill:#999" d="M 288 396.958C 287.987 396.954 287.976 396.95 287.963 396.946L 285.613 396.219C 283.27 395.521 282.635 395.304 282.268 394.936C 281.957 394.626 281.724 394.322 281.521 394.02C 280.516 392.642 280.762 392.585 280.188 392.767C 279.21 393.076 278.173 395.184 278.646 395.105C 279.069 395.034 280 395.89 280 395.89C 281.414 397.304 282.51 401.692 282.51 401.692C 283.207 403.783 283.496 404.65 284.743 405.897C 285.293 406.447 286.545 407.121 288 407.328L 288 396.958z"/>
			<path style="stroke:none; fill:#ccc" d="M 288 398.013C 287.889 397.976 287.788 397.942 287.668 397.901C 287.668 397.901 285.319 397.175 285.329 397.178C 282.859 396.442 280.961 394.88 280.958 394.876C 280.832 395.035 280 395.89 280 395.89C 280 395.89 285.705 401.909 286.158 402.361C 286.606 402.81 287.264 403.559 288 404.15L 288 398.013z"/>
			<path style="stroke:none; fill:#ccc" d="M 278.533 393.345C 278.537 393.341 278.54 393.337 278.543 393.334C 278.547 393.33 278.551 393.327 278.555 393.323C 279.708 392.17 280.417 390.314 279.97 389.811C 280.677 390.518 281.02 390.969 281.02 392.296C 281.02 393 280.495 393.878 279.793 394.583C 279.088 395.285 278.21 395.81 277.506 395.81C 276.179 395.81 275.728 395.467 275.021 394.76C 275.524 395.207 277.379 394.498 278.533 393.345z"/>
			<path style="stroke:none; fill:#333" d="M 281.818 391.987C 281.81 391.871 281.807 391.759 281.818 391.658C 281.835 391.456 281.833 391.271 281.823 391.095C 281.819 391.037 281.812 390.981 281.804 390.924C 281.794 390.838 281.778 390.758 281.761 390.679C 281.736 390.577 281.712 390.475 281.676 390.379C 281.675 390.375 281.673 390.371 281.671 390.368C 281.624 390.243 281.566 390.124 281.498 390.011C 281.5 391.39 281.5 392.89 280 394.39C 280 394.39 280 394.39 280.001 394.391C 280.022 394.41 280.958 394.876 280.958 394.876C 280.958 394.876 281.688 394.355 281.994 392.912C 281.892 392.65 281.827 392.342 281.818 391.987z"/>
		</g>
		<g>
			<path style="stroke:none; fill:#333" d="M 275 400.89C 275 398.957 272.538 397.39 269.5 397.39C 266.462 397.39 264 398.957 264 400.89C 264 401.387 264.165 401.859 264.46 402.288C 264.505 402.38 264.558 402.472 264.625 402.564C 265.668 403.991 266 406.39 266 406.39L 269.5 406.39L 273 406.39C 273 406.39 273.332 403.991 274.375 402.564C 274.442 402.472 274.495 402.38 274.54 402.288C 274.835 401.859 275 401.387 275 400.89z"/>
			<path style="stroke:none; fill:#666" d="M 269.5 397.39C 266.462 397.39 264 398.957 264 400.89C 264 401.387 264.165 401.859 264.46 402.288C 264.505 402.38 264.558 402.472 264.625 402.564C 265.237 403.401 265.6 404.564 265.798 405.39L 269.031 405.39L 272.183 405.39C 272.183 405.39 272.707 403.085 273.75 401.657C 273.817 401.566 274.026 401.38 274.072 401.288C 274.366 400.859 274.531 400.387 274.531 399.89C 274.531 399.723 274.507 399.56 274.471 399.4C 273.591 398.213 271.699 397.39 269.5 397.39z"/>
			<path style="stroke:none; fill:#999" d="M 265 400.89L 265 400.89C 265 401.168 265.096 401.448 265.284 401.723L 265.303 401.751L 265.432 401.973C 266.214 403.043 266.616 404.479 266.817 405.39C 267.777 405.39 271.223 405.39 272.183 405.39C 272.384 404.479 272.786 403.044 273.567 401.974C 273.568 401.973 273.716 401.723 273.716 401.723C 273.904 401.448 274 401.168 274 400.89C 274 399.707 272.152 398.39 269.5 398.39C 266.848 398.39 265 399.707 265 400.89z"/>
			<path style="stroke:none; fill:#ccc" d="M 269.5 403.39C 271.222 403.39 272.74 402.78 273.639 401.853C 273.677 401.788 273.716 401.723 273.716 401.723C 273.904 401.448 274 401.168 274 400.89C 274 399.707 272.152 398.39 269.5 398.39C 266.848 398.39 265 399.707 265 400.89C 265 401.168 265.096 401.448 265.284 401.723L 265.303 401.751L 265.363 401.855C 266.263 402.781 267.779 403.39 269.5 403.39z"/>
			<path style="stroke:none; fill:#06f" d="M 273 399.89C 273 400.718 271.433 401.39 269.5 401.39C 267.567 401.39 266 400.718 266 399.89C 266 399.061 267.567 398.39 269.5 398.39C 271.433 398.39 273 399.061 273 399.89z"/>
			<path style="stroke:none; fill:#333" d="M 288 385.959C 286.745 386.139 285.797 386.609 284.267 387.374C 282.267 388.374 279.767 389.874 279.267 389.874C 277.524 389.874 277.157 389.528 276.631 388.874C 276.128 388.249 275.475 387.874 274.767 387.874C 273.11 387.874 271.767 389.889 271.767 392.374C 271.767 394.859 273.11 396.874 274.767 396.874C 275.475 396.874 276.211 396.499 276.631 395.874C 277.325 394.839 278.284 394.874 279.267 394.874C 279.767 394.874 282.267 396.374 284.267 397.374C 285.797 398.139 286.745 398.609 288 398.789L 288 385.959z"/>
			<path style="stroke:none; fill:#666" d="M 288 385.959C 286.745 386.139 285.797 386.609 284.267 387.374C 282.267 388.374 279.767 389.874 279.267 389.874C 278.767 389.874 277.607 390.02 276.631 388.874C 276.045 388.187 275.475 387.874 274.767 387.874C 273.11 387.874 271.767 389.889 271.767 392.374C 271.767 393.182 271.92 393.929 272.168 394.585C 272.753 395.53 273.467 396.093 274.284 396.093C 275.284 396.093 275.94 395.749 276.565 394.874C 277.176 394.02 278.267 393.874 278.767 393.874C 279.267 393.874 281.767 395.374 283.767 396.374C 285.493 397.237 286.477 397.726 288 397.844L 288 385.959z"/>
			<path style="stroke:none; fill:#999" d="M 288 386.971C 286.977 387.141 286.151 387.55 284.714 388.269L 282.54 389.415C 280.388 390.579 279.786 390.874 279.267 390.874C 278.828 390.874 278.447 390.824 278.09 390.754C 278.204 391.266 278.267 391.81 278.267 392.374C 278.267 392.928 278.206 393.463 278.095 393.967C 278.337 393.913 278.567 393.874 278.767 393.874C 280.767 393.874 284.214 395.48 284.214 395.48C 285.875 396.311 286.722 396.727 288 396.839L 288 386.971z"/>
			<path style="stroke:none; fill:#ccc" d="M 288 387.989C 287.195 388.151 286.477 388.504 285.181 389.153C 285.181 389.153 283.006 390.3 283.015 390.295C 280.749 391.521 280.06 391.874 279.267 391.874C 279.267 391.874 279.216 391.869 279.211 391.868C 279.233 392.07 279.267 392.374 279.267 392.374C 279.267 392.374 279.29 393.151 279.267 393.374C 279.96 393.374 286.626 393.375 287.267 393.374C 287.476 393.374 287.727 393.381 288 393.387L 288 387.989z"/>
			<path style="stroke:none; fill:#ccc" d="M 275.5 392.39C 275.5 392.384 275.5 392.379 275.5 392.374C 275.5 392.369 275.5 392.364 275.5 392.358C 275.5 390.728 274.689 388.915 274.018 388.874C 275.018 388.874 275.579 388.951 276.518 389.89C 277.015 390.387 277.264 391.379 277.267 392.374C 277.264 393.369 277.015 394.361 276.518 394.858C 275.579 395.797 275.018 395.874 274.018 395.874C 274.689 395.833 275.5 394.021 275.5 392.39z"/>
			<path style="stroke:none; fill:#333" d="M 274.008 395.358C 274.693 395.358 275.249 394.016 275.249 392.358C 275.249 390.702 274.693 389.358 274.008 389.358C 273.322 389.358 272.767 390.702 272.767 392.358C 272.767 394.016 273.322 395.358 274.008 395.358z"/>
			<path style="stroke:none; fill:#fff" d="M 288 388.392C 287.299 388.476 286.767 388.882 286.767 389.374C 286.767 389.865 287.299 390.272 288 390.356L 288 388.392z"/>
			<path style="stroke:none; fill:#39f" d="M 273.5 393.89C 271 393.89 268 394.39 268 398.89C 269.812 398.89 271 398.89 271 398.89C 271 398.89 270.5 395.069 273.5 395.069"/>
		</g>
		<g>
			<path style="stroke:none; fill:#333" d="M 288 395.906C 285.916 395.23 283.314 394.567 282.975 394.229C 281.743 392.997 281.728 392.493 281.818 391.658C 281.905 390.861 281.708 390.134 281.207 389.633C 280.036 388.462 277.662 388.937 275.904 390.694C 274.147 392.451 273.671 394.825 274.843 395.997C 275.344 396.498 276.13 396.754 276.869 396.608C 278.091 396.368 278.745 397.07 279.439 397.765C 279.793 398.118 280.5 400.947 281.207 403.068C 281.915 405.19 282.268 406.251 283.682 407.665C 284.408 408.39 286.117 409.351 288 409.651L 288 395.906z"/>
			<path style="stroke:none; fill:#333" d="M 275 400.89C 275 398.957 272.538 397.39 269.5 397.39C 266.462 397.39 264 398.957 264 400.89C 264 401.387 264.165 401.859 264.46 402.288C 264.505 402.38 264.558 402.472 264.625 402.564C 265.668 403.991 266 406.39 266 406.39L 269.5 406.39L 273 406.39C 273 406.39 273.332 403.991 274.375 402.564C 274.442 402.472 274.495 402.38 274.54 402.288C 274.835 401.859 275 401.387 275 400.89z"/>
			<path style="stroke:none; fill:#666" d="M 269.5 397.39C 266.462 397.39 264 398.957 264 400.89C 264 401.387 264.165 401.859 264.46 402.288C 264.505 402.38 264.558 402.472 264.625 402.564C 265.237 403.401 265.6 404.564 265.798 405.39L 269.031 405.39L 272.183 405.39C 272.183 405.39 272.707 403.085 273.75 401.657C 273.817 401.566 274.026 401.38 274.072 401.288C 274.366 400.859 274.531 400.387 274.531 399.89C 274.531 399.723 274.507 399.56 274.471 399.4C 273.591 398.213 271.699 397.39 269.5 397.39z"/>
			<path style="stroke:none; fill:#999" d="M 265 400.89L 265 400.89C 265 401.168 265.096 401.448 265.284 401.723L 265.303 401.751L 265.432 401.973C 266.214 403.043 266.616 404.479 266.817 405.39C 267.777 405.39 271.223 405.39 272.183 405.39C 272.384 404.479 272.786 403.044 273.567 401.974C 273.568 401.973 273.716 401.723 273.716 401.723C 273.904 401.448 274 401.168 274 400.89C 274 399.707 272.152 398.39 269.5 398.39C 266.848 398.39 265 399.707 265 400.89z"/>
			<path style="stroke:none; fill:#ccc" d="M 269.5 403.39C 271.222 403.39 272.74 402.78 273.639 401.853C 273.677 401.788 273.716 401.723 273.716 401.723C 273.904 401.448 274 401.168 274 400.89C 274 399.707 272.152 398.39 269.5 398.39C 266.848 398.39 265 399.707 265 400.89C 265 401.168 265.096 401.448 265.284 401.723L 265.303 401.751L 265.363 401.855C 266.263 402.781 267.779 403.39 269.5 403.39z"/>
			<path style="stroke:none; fill:#06f" d="M 273 399.89C 273 400.718 271.433 401.39 269.5 401.39C 267.567 401.39 266 400.718 266 399.89C 266 399.061 267.567 398.39 269.5 398.39C 271.433 398.39 273 399.061 273 399.89z"/>
			<path style="stroke:none; fill:#666" d="M 288 395.906C 285.916 395.23 283.314 394.567 282.975 394.229C 282.622 393.876 281.699 393.159 281.818 391.658C 281.891 390.759 281.708 390.134 281.207 389.633C 280.036 388.462 277.662 388.937 275.904 390.694C 275.332 391.265 274.913 391.902 274.625 392.541C 274.37 393.623 274.476 394.525 275.054 395.104C 275.761 395.811 276.469 396.032 277.53 395.855C 278.566 395.683 279.44 396.351 279.793 396.704C 280.147 397.058 280.854 399.886 281.561 402.007C 282.268 404.129 282.622 405.19 284.036 406.604C 284.747 407.315 286.264 408.114 288 408.33L 288 395.906z"/>
			<path style="stroke:none; fill:#333" d="M 275.378 394.389C 275.864 394.874 277.206 394.317 278.377 393.145C 279.548 391.974 280.106 390.631 279.622 390.147C 279.136 389.662 277.793 390.219 276.622 391.39C 275.451 392.562 274.894 393.904 275.378 394.389z"/>
			<path style="stroke:none; fill:#999" d="M 288 396.958C 287.987 396.954 287.976 396.95 287.963 396.946L 285.613 396.219C 283.27 395.521 282.635 395.304 282.268 394.936C 281.957 394.626 281.724 394.322 281.521 394.02C 280.516 392.642 280.762 392.585 280.188 392.767C 279.21 393.076 278.173 395.184 278.646 395.105C 279.069 395.034 280 395.89 280 395.89C 281.414 397.304 282.51 401.692 282.51 401.692C 283.207 403.783 283.496 404.65 284.743 405.897C 285.293 406.447 286.545 407.121 288 407.328L 288 396.958z"/>
			<path style="stroke:none; fill:#ccc" d="M 288 398.013C 287.889 397.976 287.788 397.942 287.668 397.901C 287.668 397.901 285.319 397.175 285.329 397.178C 282.859 396.442 280.961 394.88 280.958 394.876C 280.832 395.035 280 395.89 280 395.89C 280 395.89 285.705 401.909 286.158 402.361C 286.606 402.81 287.264 403.559 288 404.15L 288 398.013z"/>
			<path style="stroke:none; fill:#ccc" d="M 278.533 393.345C 278.537 393.341 278.54 393.337 278.543 393.334C 278.547 393.33 278.551 393.327 278.555 393.323C 279.708 392.17 280.417 390.314 279.97 389.811C 280.677 390.518 281.02 390.969 281.02 392.296C 281.02 393 280.495 393.878 279.793 394.583C 279.088 395.285 278.21 395.81 277.506 395.81C 276.179 395.81 275.728 395.467 275.021 394.76C 275.524 395.207 277.379 394.498 278.533 393.345z"/>
			<path style="stroke:none; fill:#333" d="M 281.818 391.987C 281.81 391.871 281.807 391.759 281.818 391.658C 281.835 391.456 281.833 391.271 281.823 391.095C 281.819 391.037 281.812 390.981 281.804 390.924C 281.794 390.838 281.778 390.758 281.761 390.679C 281.736 390.577 281.712 390.475 281.676 390.379C 281.675 390.375 281.673 390.371 281.671 390.368C 281.624 390.243 281.566 390.124 281.498 390.011C 281.5 391.39 281.5 392.89 280 394.39C 280 394.39 280 394.39 280.001 394.391C 280.022 394.41 280.958 394.876 280.958 394.876C 280.958 394.876 281.688 394.355 281.994 392.912C 281.892 392.65 281.827 392.342 281.818 391.987z"/>
		</g>
		<g>
			<path style="stroke:none; fill:#333" d="M 275 400.89C 275 398.957 272.538 397.39 269.5 397.39C 266.462 397.39 264 398.957 264 400.89C 264 401.387 264.165 401.859 264.46 402.288C 264.505 402.38 264.558 402.472 264.625 402.564C 265.668 403.991 266 406.39 266 406.39L 269.5 406.39L 273 406.39C 273 406.39 273.332 403.991 274.375 402.564C 274.442 402.472 274.495 402.38 274.54 402.288C 274.835 401.859 275 401.387 275 400.89z"/>
			<path style="stroke:none; fill:#666" d="M 269.5 397.39C 266.462 397.39 264 398.957 264 400.89C 264 401.387 264.165 401.859 264.46 402.288C 264.505 402.38 264.558 402.472 264.625 402.564C 265.237 403.401 265.6 404.564 265.798 405.39L 269.031 405.39L 272.183 405.39C 272.183 405.39 272.707 403.085 273.75 401.657C 273.817 401.566 274.026 401.38 274.072 401.288C 274.366 400.859 274.531 400.387 274.531 399.89C 274.531 399.723 274.507 399.56 274.471 399.4C 273.591 398.213 271.699 397.39 269.5 397.39z"/>
			<path style="stroke:none; fill:#999" d="M 265 400.89L 265 400.89C 265 401.168 265.096 401.448 265.284 401.723L 265.303 401.751L 265.432 401.973C 266.214 403.043 266.616 404.479 266.817 405.39C 267.777 405.39 271.223 405.39 272.183 405.39C 272.384 404.479 272.786 403.044 273.567 401.974C 273.568 401.973 273.716 401.723 273.716 401.723C 273.904 401.448 274 401.168 274 400.89C 274 399.707 272.152 398.39 269.5 398.39C 266.848 398.39 265 399.707 265 400.89z"/>
			<path style="stroke:none; fill:#ccc" d="M 269.5 403.39C 271.222 403.39 272.74 402.78 273.639 401.853C 273.677 401.788 273.716 401.723 273.716 401.723C 273.904 401.448 274 401.168 274 400.89C 274 399.707 272.152 398.39 269.5 398.39C 266.848 398.39 265 399.707 265 400.89C 265 401.168 265.096 401.448 265.284 401.723L 265.303 401.751L 265.363 401.855C 266.263 402.781 267.779 403.39 269.5 403.39z"/>
			<path style="stroke:none; fill:#06f" d="M 273 399.89C 273 400.718 271.433 401.39 269.5 401.39C 267.567 401.39 266 400.718 266 399.89C 266 399.061 267.567 398.39 269.5 398.39C 271.433 398.39 273 399.061 273 399.89z"/>
			<path style="stroke:none; fill:#333" d="M 288 385.959C 286.745 386.139 285.797 386.609 284.267 387.374C 282.267 388.374 279.767 389.874 279.267 389.874C 277.524 389.874 277.157 389.528 276.631 388.874C 276.128 388.249 275.475 387.874 274.767 387.874C 273.11 387.874 271.767 389.889 271.767 392.374C 271.767 394.859 273.11 396.874 274.767 396.874C 275.475 396.874 276.211 396.499 276.631 395.874C 277.325 394.839 278.284 394.874 279.267 394.874C 279.767 394.874 282.267 396.374 284.267 397.374C 285.797 398.139 286.745 398.609 288 398.789L 288 385.959z"/>
			<path style="stroke:none; fill:#666" d="M 288 385.959C 286.745 386.139 285.797 386.609 284.267 387.374C 282.267 388.374 279.767 389.874 279.267 389.874C 278.767 389.874 277.607 390.02 276.631 388.874C 276.045 388.187 275.475 387.874 274.767 387.874C 273.11 387.874 271.767 389.889 271.767 392.374C 271.767 393.182 271.92 393.929 272.168 394.585C 272.753 395.53 273.467 396.093 274.284 396.093C 275.284 396.093 275.94 395.749 276.565 394.874C 277.176 394.02 278.267 393.874 278.767 393.874C 279.267 393.874 281.767 395.374 283.767 396.374C 285.493 397.237 286.477 397.726 288 397.844L 288 385.959z"/>
			<path style="stroke:none; fill:#999" d="M 288 386.971C 286.977 387.141 286.151 387.55 284.714 388.269L 282.54 389.415C 280.388 390.579 279.786 390.874 279.267 390.874C 278.828 390.874 278.447 390.824 278.09 390.754C 278.204 391.266 278.267 391.81 278.267 392.374C 278.267 392.928 278.206 393.463 278.095 393.967C 278.337 393.913 278.567 393.874 278.767 393.874C 280.767 393.874 284.214 395.48 284.214 395.48C 285.875 396.311 286.722 396.727 288 396.839L 288 386.971z"/>
			<path style="stroke:none; fill:#ccc" d="M 288 387.989C 287.195 388.151 286.477 388.504 285.181 389.153C 285.181 389.153 283.006 390.3 283.015 390.295C 280.749 391.521 280.06 391.874 279.267 391.874C 279.267 391.874 279.216 391.869 279.211 391.868C 279.233 392.07 279.267 392.374 279.267 392.374C 279.267 392.374 279.29 393.151 279.267 393.374C 279.96 393.374 286.626 393.375 287.267 393.374C 287.476 393.374 287.727 393.381 288 393.387L 288 387.989z"/>
			<path style="stroke:none; fill:#ccc" d="M 275.5 392.39C 275.5 392.384 275.5 392.379 275.5 392.374C 275.5 392.369 275.5 392.364 275.5 392.358C 275.5 390.728 274.689 388.915 274.018 388.874C 275.018 388.874 275.579 388.951 276.518 389.89C 277.015 390.387 277.264 391.379 277.267 392.374C 277.264 393.369 277.015 394.361 276.518 394.858C 275.579 395.797 275.018 395.874 274.018 395.874C 274.689 395.833 275.5 394.021 275.5 392.39z"/>
			<path style="stroke:none; fill:#333" d="M 274.008 395.358C 274.693 395.358 275.249 394.016 275.249 392.358C 275.249 390.702 274.693 389.358 274.008 389.358C 273.322 389.358 272.767 390.702 272.767 392.358C 272.767 394.016 273.322 395.358 274.008 395.358z"/>
			<path style="stroke:none; fill:#fff" d="M 288 388.392C 287.299 388.476 286.767 388.882 286.767 389.374C 286.767 389.865 287.299 390.272 288 390.356L 288 388.392z"/>
			<path style="stroke:none; fill:#39f" d="M 273.5 393.89C 271 393.89 268 394.39 268 398.89C 269.812 398.89 271 398.89 271 398.89C 271 398.89 270.5 395.069 273.5 395.069"/>
		</g>
		<g>
			<path style="stroke:none; fill:#333" d="M 288 395.906C 285.916 395.23 283.314 394.567 282.975 394.229C 281.743 392.997 281.728 392.493 281.818 391.658C 281.905 390.861 281.708 390.134 281.207 389.633C 280.036 388.462 277.662 388.937 275.904 390.694C 274.147 392.451 273.671 394.825 274.843 395.997C 275.344 396.498 276.13 396.754 276.869 396.608C 278.091 396.368 278.745 397.07 279.439 397.765C 279.793 398.118 280.5 400.947 281.207 403.068C 281.915 405.19 282.268 406.251 283.682 407.665C 284.408 408.39 286.117 409.351 288 409.651L 288 395.906z"/>
			<path style="stroke:none; fill:#333" d="M 275 400.89C 275 398.957 272.538 397.39 269.5 397.39C 266.462 397.39 264 398.957 264 400.89C 264 401.387 264.165 401.859 264.46 402.288C 264.505 402.38 264.558 402.472 264.625 402.564C 265.668 403.991 266 406.39 266 406.39L 269.5 406.39L 273 406.39C 273 406.39 273.332 403.991 274.375 402.564C 274.442 402.472 274.495 402.38 274.54 402.288C 274.835 401.859 275 401.387 275 400.89z"/>
			<path style="stroke:none; fill:#666" d="M 269.5 397.39C 266.462 397.39 264 398.957 264 400.89C 264 401.387 264.165 401.859 264.46 402.288C 264.505 402.38 264.558 402.472 264.625 402.564C 265.237 403.401 265.6 404.564 265.798 405.39L 269.031 405.39L 272.183 405.39C 272.183 405.39 272.707 403.085 273.75 401.657C 273.817 401.566 274.026 401.38 274.072 401.288C 274.366 400.859 274.531 400.387 274.531 399.89C 274.531 399.723 274.507 399.56 274.471 399.4C 273.591 398.213 271.699 397.39 269.5 397.39z"/>
			<path style="stroke:none; fill:#999" d="M 265 400.89L 265 400.89C 265 401.168 265.096 401.448 265.284 401.723L 265.303 401.751L 265.432 401.973C 266.214 403.043 266.616 404.479 266.817 405.39C 267.777 405.39 271.223 405.39 272.183 405.39C 272.384 404.479 272.786 403.044 273.567 401.974C 273.568 401.973 273.716 401.723 273.716 401.723C 273.904 401.448 274 401.168 274 400.89C 274 399.707 272.152 398.39 269.5 398.39C 266.848 398.39 265 399.707 265 400.89z"/>
			<path style="stroke:none; fill:#ccc" d="M 269.5 403.39C 271.222 403.39 272.74 402.78 273.639 401.853C 273.677 401.788 273.716 401.723 273.716 401.723C 273.904 401.448 274 401.168 274 400.89C 274 399.707 272.152 398.39 269.5 398.39C 266.848 398.39 265 399.707 265 400.89C 265 401.168 265.096 401.448 265.284 401.723L 265.303 401.751L 265.363 401.855C 266.263 402.781 267.779 403.39 269.5 403.39z"/>
			<path style="stroke:none; fill:#06f" d="M 273 399.89C 273 400.718 271.433 401.39 269.5 401.39C 267.567 401.39 266 400.718 266 399.89C 266 399.061 267.567 398.39 269.5 398.39C 271.433 398.39 273 399.061 273 399.89z"/>
			<path style="stroke:none; fill:#666" d="M 288 395.906C 285.916 395.23 283.314 394.567 282.975 394.229C 282.622 393.876 281.699 393.159 281.818 391.658C 281.891 390.759 281.708 390.134 281.207 389.633C 280.036 388.462 277.662 388.937 275.904 390.694C 275.332 391.265 274.913 391.902 274.625 392.541C 274.37 393.623 274.476 394.525 275.054 395.104C 275.761 395.811 276.469 396.032 277.53 395.855C 278.566 395.683 279.44 396.351 279.793 396.704C 280.147 397.058 280.854 399.886 281.561 402.007C 282.268 404.129 282.622 405.19 284.036 406.604C 284.747 407.315 286.264 408.114 288 408.33L 288 395.906z"/>
			<path style="stroke:none; fill:#333" d="M 275.378 394.389C 275.864 394.874 277.206 394.317 278.377 393.145C 279.548 391.974 280.106 390.631 279.622 390.147C 279.136 389.662 277.793 390.219 276.622 391.39C 275.451 392.562 274.894 393.904 275.378 394.389z"/>
			<path style="stroke:none; fill:#999" d="M 288 396.958C 287.987 396.954 287.976 396.95 287.963 396.946L 285.613 396.219C 283.27 395.521 282.635 395.304 282.268 394.936C 281.957 394.626 281.724 394.322 281.521 394.02C 280.516 392.642 280.762 392.585 280.188 392.767C 279.21 393.076 278.173 395.184 278.646 395.105C 279.069 395.034 280 395.89 280 395.89C 281.414 397.304 282.51 401.692 282.51 401.692C 283.207 403.783 283.496 404.65 284.743 405.897C 285.293 406.447 286.545 407.121 288 407.328L 288 396.958z"/>
			<path style="stroke:none; fill:#ccc" d="M 288 398.013C 287.889 397.976 287.788 397.942 287.668 397.901C 287.668 397.901 285.319 397.175 285.329 397.178C 282.859 396.442 280.961 394.88 280.958 394.876C 280.832 395.035 280 395.89 280 395.89C 280 395.89 285.705 401.909 286.158 402.361C 286.606 402.81 287.264 403.559 288 404.15L 288 398.013z"/>
			<path style="stroke:none; fill:#ccc" d="M 278.533 393.345C 278.537 393.341 278.54 393.337 278.543 393.334C 278.547 393.33 278.551 393.327 278.555 393.323C 279.708 392.17 280.417 390.314 279.97 389.811C 280.677 390.518 281.02 390.969 281.02 392.296C 281.02 393 280.495 393.878 279.793 394.583C 279.088 395.285 278.21 395.81 277.506 395.81C 276.179 395.81 275.728 395.467 275.021 394.76C 275.524 395.207 277.379 394.498 278.533 393.345z"/>
			<path style="stroke:none; fill:#333" d="M 281.818 391.987C 281.81 391.871 281.807 391.759 281.818 391.658C 281.835 391.456 281.833 391.271 281.823 391.095C 281.819 391.037 281.812 390.981 281.804 390.924C 281.794 390.838 281.778 390.758 281.761 390.679C 281.736 390.577 281.712 390.475 281.676 390.379C 281.675 390.375 281.673 390.371 281.671 390.368C 281.624 390.243 281.566 390.124 281.498 390.011C 281.5 391.39 281.5 392.89 280 394.39C 280 394.39 280 394.39 280.001 394.391C 280.022 394.41 280.958 394.876 280.958 394.876C 280.958 394.876 281.688 394.355 281.994 392.912C 281.892 392.65 281.827 392.342 281.818 391.987z"/>
		</g>
	</g>
</svg>
