<svg xmlns="http://www.w3.org/2000/svg" width="24" height="24">
	<g transform="translate(-264,-386)" id="KDDI_D_403">
		<g>
			<path style="stroke:none; fill:none" d="M 288 409.89L 264 409.89L 264 385.89L 288 385.89L 288 409.89z"/>
		</g>
		<g>
			<path style="stroke:none; fill:#900" d="M 285.596 398.293L 275.596 388.294C 273.058 385.755 268.942 385.755 266.403 388.294C 263.865 390.832 263.865 394.948 266.403 397.486L 276.403 407.486L 276.404 407.485C 278.943 410.024 283.058 410.024 285.596 407.485C 288.135 404.947 288.135 400.831 285.596 398.293z"/>
			<path style="stroke:none; fill:#c00" d="M 284.5 399.389L 274.5 389.39C 272.147 387.037 268.442 386.869 265.89 388.878C 265.516 389.353 265.243 389.877 265.021 390.416C 264.883 392.077 265.075 394.159 267.403 396.486L 277.403 406.486C 279.528 408.611 281.446 408.955 283.029 408.895C 283.607 408.681 284.116 408.381 284.5 407.997C 286.507 405.446 286.853 401.741 284.5 399.389z"/>
			<path style="stroke:none; fill:#f00" d="M 267.403 396.486L 277.403 406.486C 277.824 406.907 278.232 407.236 278.636 407.528C 280.588 408.182 282.56 407.829 283.5 406.89C 284.882 405.508 285.341 401.871 282.988 399.519L 272.988 389.52C 271.79 388.322 270.243 387.698 268.676 387.631C 267.684 387.822 266.724 388.222 265.89 388.878C 265.5 389.374 265.217 389.892 265.021 390.414C 264.883 392.076 265.074 394.158 267.403 396.486z"/>
			<path style="stroke:none; fill:#f66" d="M 265.043 389.433C 264.652 389.823 264.652 390.456 265.043 390.847L 278.25 404.054C 278.641 404.444 279.273 404.444 279.664 404.054C 280.055 403.663 280.055 403.03 279.664 402.64L 266.457 389.433C 266.066 389.042 265.434 389.042 265.043 389.433z"/>
			<path style="stroke:none; fill:#c00" d="M 267 387.89L 279 399.89L 279.53 399.359L 267.53 387.359L 267 387.89z"/>
			<path style="stroke:none; fill:#900" d="M 283.942 396.641L 283.942 396.641C 281.404 394.103 277.289 394.103 274.75 396.641C 272.212 399.179 272.212 403.295 274.75 405.833L 274.75 405.834L 275.903 406.987L 275.904 406.986C 278.443 409.525 282.558 409.525 285.096 406.986C 287.635 404.448 287.635 400.332 285.096 397.794L 283.942 396.641z"/>
			<path style="stroke:none; fill:#fcc" d="M 266.457 389.433C 266.066 389.042 265.434 389.042 265.043 389.433C 264.652 389.823 264.652 390.456 265.043 390.847L 267.139 392.942C 267.37 392.297 267.703 391.681 268.145 391.121L 266.457 389.433z"/>
			<path style="stroke:none; fill:#960" d="M 284.442 397.14L 284.442 397.14C 281.904 394.602 277.789 394.602 275.25 397.14C 272.712 399.678 272.712 403.794 275.25 406.332L 275.25 406.333L 276.403 407.486L 276.404 407.485C 278.943 410.024 283.058 410.024 285.596 407.485C 288.135 404.947 288.135 400.831 285.596 398.293L 284.442 397.14z"/>
			<path style="stroke:none; fill:#c90" d="M 284.5 399.389L 280.372 395.261C 278.538 395.113 276.653 395.737 275.25 397.14C 273.792 398.598 273.176 400.575 273.393 402.477L 277.403 406.486C 279.528 408.611 281.446 408.955 283.029 408.895C 283.607 408.681 284.116 408.381 284.5 407.997C 286.507 405.446 286.853 401.741 284.5 399.389z"/>
			<path style="stroke:none; fill:#fc0" d="M 278.796 395.328C 277.498 395.539 276.251 396.139 275.25 397.14C 273.792 398.598 273.176 400.575 273.393 402.477L 277.403 406.486C 277.824 406.907 278.232 407.236 278.636 407.528C 280.588 408.182 282.56 407.829 283.5 406.89C 284.882 405.508 285.341 401.871 282.988 399.519L 278.796 395.328z"/>
			<path style="stroke:none; fill:#ffc" d="M 274.742 397.717C 274.3 398.277 273.967 398.894 273.735 399.539L 278.25 404.054C 278.641 404.444 279.273 404.444 279.664 404.054C 280.055 403.663 280.055 403.03 279.664 402.64L 274.742 397.717z"/>
			<path style="stroke:#600; stroke-width:1; fill:none" d="M 285.596 398.293L 275.596 388.294C 273.058 385.755 268.942 385.755 266.403 388.294C 263.865 390.832 263.865 394.948 266.403 397.486L 276.403 407.486L 276.404 407.485C 278.943 410.024 283.058 410.024 285.596 407.485C 288.135 404.947 288.135 400.831 285.596 398.293z"/>
			<path style="stroke:#630; stroke-width:1; fill:none" d="M 273.403 404.486L 276.403 407.486L 276.404 407.485C 278.943 410.024 283.058 410.024 285.596 407.485C 288.135 404.947 288.135 400.831 285.596 398.293L 282.596 395.294"/>
		</g>
	</g>
</svg>
