<svg xmlns="http://www.w3.org/2000/svg" width="24" height="24">
	<g transform="translate(-264,-386)" id="KDDI_D_404">
		<g>
			<path style="stroke:none; fill:none" d="M 288 409.89L 264 409.89L 264 385.89L 288 385.89L 288 409.89z"/>
		</g>
		<g>
			<path style="stroke:none; fill:#900" d="M 272.5 385.89C 268.5 385.89 264 388.39 264 393.89C 264 399.39 269.75 404.39 272.5 404.39C 275.25 404.39 281 399.39 281 393.89C 281 388.39 276.5 385.89 272.5 385.89z"/>
			<path style="stroke:none; fill:#c00" d="M 280 393.39C 280 390.084 278.37 387.87 276.205 386.623C 275.021 386.13 273.736 385.89 272.5 385.89C 268.5 385.89 264 388.39 264 393.89C 264 398.024 267.248 401.874 270.029 403.532C 270.568 403.756 271.073 403.89 271.5 403.89C 274.25 403.89 280 398.89 280 393.39z"/>
			<path style="stroke:none; fill:#f00" d="M 275.5 386.89C 274.597 386.523 273.028 386.021 271.904 385.913C 269.872 386.038 267.781 386.801 266.258 388.269C 265.47 389.492 265 391.284 265 393.89C 265 397.421 269.5 402.39 271.5 402.39C 273.5 402.39 279 398.373 279 393.39C 279 390.119 276.992 387.765 275.5 386.89z"/>
			<path style="stroke:none; fill:#c00" d="M 272 404.39C 272 404.39 271 405.89 269.5 406.39C 269.5 406.39 270 408.39 272.5 408.39C 272.5 408.39 273 406.653 273 404.39"/>
			<path style="stroke:none; fill:#f00" d="M 271.986 404.409C 271.916 404.513 270.944 405.908 269.5 406.39C 269.5 406.39 269.694 407.143 270.418 407.725C 270.733 407.819 271.079 407.89 271.5 407.89C 271.5 407.89 271.919 406.41 271.986 404.409z"/>
			<path style="stroke:#c93; stroke-width:1; fill:none" d="M 272.5 404.89C 272.5 405.89 273 409.39 276 409.39C 279 409.39 279.5 407.89 280.5 406.39C 281.5 404.89 282 403.39 286 403.39L 287 403.39"/>
			<path style="stroke:none; fill:#c66" d="M 272.5 391.89C 272.5 393.271 271.381 394.39 270 394.39C 268.619 394.39 267.5 393.271 267.5 391.89C 267.5 390.509 268.619 389.39 270 389.39C 271.381 389.39 272.5 390.509 272.5 391.89z"/>
			<path style="stroke:none; fill:#f66" d="M 271.5 391.542C 271.5 392.456 270.76 393.196 269.846 393.196C 268.933 393.196 268.193 392.456 268.193 391.542C 268.193 390.629 268.933 389.89 269.846 389.89C 270.76 389.89 271.5 390.629 271.5 391.542z"/>
			<path style="stroke:none; fill:#f99" d="M 270.5 391.39C 270.5 391.942 270.052 392.39 269.5 392.39C 268.948 392.39 268.5 391.942 268.5 391.39C 268.5 390.838 268.948 390.39 269.5 390.39C 270.052 390.39 270.5 390.838 270.5 391.39z"/>
			<path style="stroke:#999; stroke-width:1; fill:none" d="M 287.5 400.89L 287.5 405.89"/>
			<path style="stroke:#960; stroke-width:1; fill:none" d="M 272.5 404.89C 272.5 405.287 272.579 406.08 272.863 406.89"/>
		</g>
	</g>
</svg>
