<svg xmlns="http://www.w3.org/2000/svg" width="24" height="24">
	<g transform="translate(-264,-386)" id="KDDI_D_405">
		<g>
			<path style="stroke:none; fill:none" d="M 288 409.89L 264 409.89L 264 385.89L 288 385.89L 288 409.89z"/>
		</g>
		<g>
			<path style="stroke:#666; stroke-width:1; stroke-linecap:round; fill:none" d="M 264.5 409.39L 266.5 407.39"/>
			<path style="stroke:none; fill:#c06" d="M 275.915 400.805L 265 408.89L 279.128 404.018L 275.915 400.805z"/>
			<path style="stroke:none; fill:#f39" d="M 269.872 394.761L 265 408.89L 275.915 400.805L 269.872 394.761z"/>
			<path style="stroke:none; fill:#f6c" d="M 271.468 396.39L 265 408.922L 274.298 399.22L 271.468 396.39z"/>
			<path style="stroke:none; fill:#0c0" d="M 270.976 398.89C 270.976 399.152 270.763 399.365 270.5 399.365C 270.237 399.365 270.024 399.152 270.024 398.89C 270.024 398.627 270.237 398.415 270.5 398.415C 270.763 398.415 270.976 398.627 270.976 398.89z"/>
			<path style="stroke:none; fill:#0c0" d="M 268.976 404.39C 268.976 404.652 268.763 404.865 268.5 404.865C 268.237 404.865 268.024 404.652 268.024 404.39C 268.024 404.127 268.237 403.915 268.5 403.915C 268.763 403.915 268.976 404.127 268.976 404.39z"/>
			<path style="stroke:none; fill:#0cf" d="M 273.976 399.89C 273.976 400.152 273.763 400.365 273.5 400.365C 273.237 400.365 273.024 400.152 273.024 399.89C 273.024 399.627 273.237 399.415 273.5 399.415C 273.763 399.415 273.976 399.627 273.976 399.89z"/>
			<path style="stroke:none; fill:#0cf" d="M 273.976 403.39C 273.976 403.652 273.763 403.865 273.5 403.865C 273.237 403.865 273.024 403.652 273.024 403.39C 273.024 403.127 273.237 402.915 273.5 402.915C 273.763 402.915 273.976 403.127 273.976 403.39z"/>
		</g>
		<g>
			<path style="stroke:#f30; stroke-width:1; fill:none" d="M 272.057 389.56C 272.338 390.01 272.5 390.61 272.5 391.39C 272.5 395.431 271.465 399.925 270.5 400.89"/>
			<path style="stroke:#c0f; stroke-width:1; fill:none" d="M 272.5 404.39C 274.5 402.39 275.25 401.64 277 399.89C 278.895 397.995 280 397.89 282 397.89C 283.5 397.89 285 399.574 285 400.89"/>
			<path style="stroke:none; fill:#c06" d="M 275.915 400.805L 265 408.89L 279.128 404.018L 275.915 400.805z"/>
			<path style="stroke:none; fill:#f39" d="M 269.872 394.761L 265 408.89L 275.915 400.805L 269.872 394.761z"/>
			<path style="stroke:none; fill:#f6c" d="M 271.468 396.39L 265 408.922L 274.298 399.22L 271.468 396.39z"/>
			<path style="stroke:none; fill:#0c0" d="M 270.976 398.89C 270.976 399.152 270.763 399.365 270.5 399.365C 270.237 399.365 270.024 399.152 270.024 398.89C 270.024 398.627 270.237 398.415 270.5 398.415C 270.763 398.415 270.976 398.627 270.976 398.89z"/>
			<path style="stroke:none; fill:#0c0" d="M 268.976 404.39C 268.976 404.652 268.763 404.865 268.5 404.865C 268.237 404.865 268.024 404.652 268.024 404.39C 268.024 404.127 268.237 403.915 268.5 403.915C 268.763 403.915 268.976 404.127 268.976 404.39z"/>
			<path style="stroke:none; fill:#0cf" d="M 273.976 399.89C 273.976 400.152 273.763 400.365 273.5 400.365C 273.237 400.365 273.024 400.152 273.024 399.89C 273.024 399.627 273.237 399.415 273.5 399.415C 273.763 399.415 273.976 399.627 273.976 399.89z"/>
			<path style="stroke:none; fill:#f90" d="M 277.976 392.39C 277.976 392.652 277.763 392.865 277.5 392.865C 277.237 392.865 277.024 392.652 277.024 392.39C 277.024 392.127 277.237 391.915 277.5 391.915C 277.763 391.915 277.976 392.127 277.976 392.39z"/>
			<path style="stroke:none; fill:#f90" d="M 281.976 392.39C 281.976 392.652 281.763 392.865 281.5 392.865C 281.237 392.865 281.024 392.652 281.024 392.39C 281.024 392.127 281.237 391.915 281.5 391.915C 281.763 391.915 281.976 392.127 281.976 392.39z"/>
			<path style="stroke:none; fill:#f90" d="M 280 394.415C 280 394.677 279.787 394.89 279.524 394.89C 279.262 394.89 279.049 394.677 279.049 394.415C 279.049 394.152 279.262 393.94 279.524 393.94C 279.787 393.94 280 394.152 280 394.415z"/>
			<path style="stroke:none; fill:#f90" d="M 277.951 396.415C 277.951 396.677 277.738 396.89 277.476 396.89C 277.213 396.89 277 396.677 277 396.415C 277 396.152 277.213 395.94 277.476 395.94C 277.738 395.94 277.951 396.152 277.951 396.415z"/>
			<path style="stroke:none; fill:#f90" d="M 281.951 396.415C 281.951 396.677 281.738 396.89 281.476 396.89C 281.213 396.89 281 396.677 281 396.415C 281 396.152 281.213 395.94 281.476 395.94C 281.738 395.94 281.951 396.152 281.951 396.415z"/>
			<path style="stroke:none; fill:#0cf" d="M 273.976 403.39C 273.976 403.652 273.763 403.865 273.5 403.865C 273.237 403.865 273.024 403.652 273.024 403.39C 273.024 403.127 273.237 402.915 273.5 402.915C 273.763 402.915 273.976 403.127 273.976 403.39z"/>
		</g>
		<g>
			<path style="stroke:#f30; stroke-width:1; fill:none" d="M 266.5 391.39C 266.5 389.74 267.851 388.39 269.5 388.39L 269.5 388.39C 271.15 388.39 272.5 389.14 272.5 391.39C 272.5 395.431 271.465 399.925 270.5 400.89"/>
			<path style="stroke:#c0f; stroke-width:1; fill:none" d="M 275 401.89C 277 399.89 277.75 399.14 279.5 397.39C 281.395 395.495 282.5 395.39 284.5 395.39C 286 395.39 287.5 397.074 287.5 398.39"/>
			<path style="stroke:none; fill:#c06" d="M 275.915 400.805L 265 408.89L 279.128 404.018L 275.915 400.805z"/>
			<path style="stroke:#03f; stroke-width:1; fill:none" d="M 274 399.89C 276 397.89 278.75 395.14 280.5 393.39"/>
			<path style="stroke:none; fill:#f39" d="M 269.872 394.761L 265 408.89L 275.915 400.805L 269.872 394.761z"/>
			<path style="stroke:none; fill:#f6c" d="M 271.468 396.39L 265 408.922L 274.298 399.22L 271.468 396.39z"/>
			<path style="stroke:none; fill:#0c0" d="M 270.976 398.89C 270.976 399.152 270.763 399.365 270.5 399.365C 270.237 399.365 270.024 399.152 270.024 398.89C 270.024 398.627 270.237 398.415 270.5 398.415C 270.763 398.415 270.976 398.627 270.976 398.89z"/>
			<path style="stroke:none; fill:#0c0" d="M 268.976 404.39C 268.976 404.652 268.763 404.865 268.5 404.865C 268.237 404.865 268.024 404.652 268.024 404.39C 268.024 404.127 268.237 403.915 268.5 403.915C 268.763 403.915 268.976 404.127 268.976 404.39z"/>
			<path style="stroke:none; fill:#0cf" d="M 273.976 399.89C 273.976 400.152 273.763 400.365 273.5 400.365C 273.237 400.365 273.024 400.152 273.024 399.89C 273.024 399.627 273.237 399.415 273.5 399.415C 273.763 399.415 273.976 399.627 273.976 399.89z"/>
			<path style="stroke:none; fill:#0cf" d="M 273.976 403.39C 273.976 403.652 273.763 403.865 273.5 403.865C 273.237 403.865 273.024 403.652 273.024 403.39C 273.024 403.127 273.237 402.915 273.5 402.915C 273.763 402.915 273.976 403.127 273.976 403.39z"/>
			<path style="stroke:none; fill:#f90" d="M 275.976 386.39C 275.976 386.652 275.763 386.865 275.5 386.865C 275.237 386.865 275.024 386.652 275.024 386.39C 275.024 386.127 275.237 385.915 275.5 385.915C 275.763 385.915 275.976 386.127 275.976 386.39z"/>
			<path style="stroke:none; fill:#f90" d="M 281.976 388.39C 281.976 388.652 281.763 388.865 281.5 388.865C 281.237 388.865 281.024 388.652 281.024 388.39C 281.024 388.127 281.237 387.915 281.5 387.915C 281.763 387.915 281.976 388.127 281.976 388.39z"/>
			<path style="stroke:none; fill:#f90" d="M 285.951 392.39C 285.951 392.652 285.738 392.865 285.476 392.865C 285.213 392.865 285 392.652 285 392.39C 285 392.127 285.213 391.915 285.476 391.915C 285.738 391.915 285.951 392.127 285.951 392.39z"/>
			<path style="stroke:none; fill:#f90" d="M 287.976 401.39C 287.976 401.652 287.763 401.865 287.5 401.865C 287.237 401.865 287.024 401.652 287.024 401.39C 287.024 401.127 287.237 400.915 287.5 400.915C 287.763 400.915 287.976 401.127 287.976 401.39z"/>
		</g>
		<g>
			<path style="stroke:#c00; stroke-width:1; fill:none" d="M 283 407.389C 284.65 407.389 286 406.039 286 404.39L 286 404.39C 286 402.739 285.25 401.39 283 401.39C 278.958 401.39 274.465 402.425 273.5 403.39"/>
			<path style="stroke:none; fill:#c06" d="M 275.915 400.805L 265 408.89L 279.128 404.018L 275.915 400.805z"/>
			<path style="stroke:#090; stroke-width:1; fill:none" d="M 271 398.89C 273 396.89 273.75 396.14 275.5 394.39C 277.395 392.495 277.5 391.39 277.5 389.39C 277.5 387.89 275.816 386.39 274.5 386.39"/>
			<path style="stroke:#c0f; stroke-width:1; fill:none" d="M 282.5 395.531C 283.098 395.405 283.733 395.39 284.5 395.39C 286 395.39 287.5 397.074 287.5 398.39C 287.5 399.39 287.5 400.415 287.5 400.415"/>
			<path style="stroke:#03f; stroke-width:1; fill:none" d="M 277.25 396.64C 279.25 394.64 282 391.89 283.75 390.14"/>
			<path style="stroke:none; fill:#f39" d="M 269.872 394.761L 265 408.89L 275.915 400.805L 269.872 394.761z"/>
			<path style="stroke:none; fill:#f6c" d="M 271.468 396.39L 265 408.922L 274.298 399.22L 271.468 396.39z"/>
			<path style="stroke:none; fill:#0c0" d="M 270.976 398.89C 270.976 399.152 270.763 399.365 270.5 399.365C 270.237 399.365 270.024 399.152 270.024 398.89C 270.024 398.627 270.237 398.415 270.5 398.415C 270.763 398.415 270.976 398.627 270.976 398.89z"/>
			<path style="stroke:none; fill:#0c0" d="M 268.976 404.39C 268.976 404.652 268.763 404.865 268.5 404.865C 268.237 404.865 268.024 404.652 268.024 404.39C 268.024 404.127 268.237 403.915 268.5 403.915C 268.763 403.915 268.976 404.127 268.976 404.39z"/>
			<path style="stroke:none; fill:#0cf" d="M 273.976 399.89C 273.976 400.152 273.763 400.365 273.5 400.365C 273.237 400.365 273.024 400.152 273.024 399.89C 273.024 399.627 273.237 399.415 273.5 399.415C 273.763 399.415 273.976 399.627 273.976 399.89z"/>
			<path style="stroke:none; fill:#0cf" d="M 273.976 403.39C 273.976 403.652 273.763 403.865 273.5 403.865C 273.237 403.865 273.024 403.652 273.024 403.39C 273.024 403.127 273.237 402.915 273.5 402.915C 273.763 402.915 273.976 403.127 273.976 403.39z"/>
			<path style="stroke:none; fill:#c00" d="M 266.976 395.415C 266.976 395.677 266.763 395.89 266.5 395.89C 266.237 395.89 266.024 395.677 266.024 395.415C 266.024 395.152 266.237 394.94 266.5 394.94C 266.763 394.94 266.976 395.152 266.976 395.415z"/>
			<path style="stroke:none; fill:#f30" d="M 281.976 388.39C 281.976 388.652 281.763 388.865 281.5 388.865C 281.237 388.865 281.024 388.652 281.024 388.39C 281.024 388.127 281.237 387.915 281.5 387.915C 281.763 387.915 281.976 388.127 281.976 388.39z"/>
			<path style="stroke:none; fill:#c00" d="M 287.951 394.39C 287.951 394.652 287.738 394.865 287.476 394.865C 287.213 394.865 287 394.652 287 394.39C 287 394.127 287.213 393.915 287.476 393.915C 287.738 393.915 287.951 394.127 287.951 394.39z"/>
			<path style="stroke:none; fill:#090" d="M 287.976 401.39C 287.976 401.652 287.763 401.865 287.5 401.865C 287.237 401.865 287.024 401.652 287.024 401.39C 287.024 401.127 287.237 400.915 287.5 400.915C 287.763 400.915 287.976 401.127 287.976 401.39z"/>
			<path style="stroke:none; fill:#090" d="M 277.976 399.39C 277.976 399.652 277.763 399.865 277.5 399.865C 277.237 399.865 277.024 399.652 277.024 399.39C 277.024 399.127 277.237 398.915 277.5 398.915C 277.763 398.915 277.976 399.127 277.976 399.39z"/>
			<path style="stroke:none; fill:#03f" d="M 281.976 399.39C 281.976 399.652 281.763 399.865 281.5 399.865C 281.237 399.865 281.024 399.652 281.024 399.39C 281.024 399.127 281.237 398.915 281.5 398.915C 281.763 398.915 281.976 399.127 281.976 399.39z"/>
			<path style="stroke:none; fill:#f30" d="M 279.976 407.39C 279.976 407.652 279.763 407.865 279.5 407.865C 279.237 407.865 279.024 407.652 279.024 407.39C 279.024 407.127 279.237 406.915 279.5 406.915C 279.763 406.915 279.976 407.127 279.976 407.39z"/>
			<path style="stroke:#f30; stroke-width:1; fill:none" d="M 272.5 391.39C 272.5 389.14 271.15 388.39 269.5 388.39L 269.5 388.39C 267.851 388.39 266.5 389.74 266.5 391.39L 266.5 392.689"/>
		</g>
		<g>
			<path style="stroke:none; fill:#c06" d="M 275.915 400.805L 265 408.89L 279.128 404.018L 275.915 400.805z"/>
			<path style="stroke:#03f; stroke-width:1; fill:none" d="M 281 392.89C 283 390.89 285.75 388.14 287.5 386.39"/>
			<path style="stroke:none; fill:#f39" d="M 269.872 394.761L 265 408.89L 275.915 400.805L 269.872 394.761z"/>
			<path style="stroke:none; fill:#f6c" d="M 271.468 396.39L 265 408.922L 274.298 399.22L 271.468 396.39z"/>
			<path style="stroke:none; fill:#0c0" d="M 270.976 398.89C 270.976 399.152 270.763 399.365 270.5 399.365C 270.237 399.365 270.024 399.152 270.024 398.89C 270.024 398.627 270.237 398.415 270.5 398.415C 270.763 398.415 270.976 398.627 270.976 398.89z"/>
			<path style="stroke:none; fill:#0c0" d="M 268.976 404.39C 268.976 404.652 268.763 404.865 268.5 404.865C 268.237 404.865 268.024 404.652 268.024 404.39C 268.024 404.127 268.237 403.915 268.5 403.915C 268.763 403.915 268.976 404.127 268.976 404.39z"/>
			<path style="stroke:none; fill:#0cf" d="M 273.976 399.89C 273.976 400.152 273.763 400.365 273.5 400.365C 273.237 400.365 273.024 400.152 273.024 399.89C 273.024 399.627 273.237 399.415 273.5 399.415C 273.763 399.415 273.976 399.627 273.976 399.89z"/>
			<path style="stroke:none; fill:#0cf" d="M 273.976 403.39C 273.976 403.652 273.763 403.865 273.5 403.865C 273.237 403.865 273.024 403.652 273.024 403.39C 273.024 403.127 273.237 402.915 273.5 402.915C 273.763 402.915 273.976 403.127 273.976 403.39z"/>
			<path style="stroke:none; fill:#f30" d="M 281.976 389.39C 281.976 389.652 281.763 389.865 281.5 389.865C 281.237 389.865 281.024 389.652 281.024 389.39C 281.024 389.127 281.237 388.915 281.5 388.915C 281.763 388.915 281.976 389.127 281.976 389.39z"/>
			<path style="stroke:none; fill:#f30" d="M 279.976 394.39C 279.976 394.652 279.763 394.865 279.5 394.865C 279.237 394.865 279.024 394.652 279.024 394.39C 279.024 394.127 279.237 393.915 279.5 393.915C 279.763 393.915 279.976 394.127 279.976 394.39z"/>
			<path style="stroke:none; fill:#f30" d="M 273.976 394.39C 273.976 394.652 273.763 394.865 273.5 394.865C 273.237 394.865 273.024 394.652 273.024 394.39C 273.024 394.127 273.237 393.915 273.5 393.915C 273.763 393.915 273.976 394.127 273.976 394.39z"/>
			<path style="stroke:none; fill:#090" d="M 288 407.39C 288 407.652 287.787 407.865 287.524 407.865C 287.262 407.865 287.049 407.652 287.049 407.39C 287.049 407.127 287.262 406.915 287.524 406.915C 287.787 406.915 288 407.127 288 407.39z"/>
			<path style="stroke:none; fill:#090" d="M 277.976 397.39C 277.976 397.652 277.763 397.865 277.5 397.865C 277.237 397.865 277.024 397.652 277.024 397.39C 277.024 397.127 277.237 396.915 277.5 396.915C 277.763 396.915 277.976 397.127 277.976 397.39z"/>
			<path style="stroke:none; fill:#090" d="M 287.976 392.39C 287.976 392.652 287.763 392.865 287.5 392.865C 287.237 392.865 287.024 392.652 287.024 392.39C 287.024 392.127 287.237 391.915 287.5 391.915C 287.763 391.915 287.976 392.127 287.976 392.39z"/>
			<path style="stroke:none; fill:#c00" d="M 264.976 399.39C 264.976 399.652 264.763 399.865 264.5 399.865C 264.237 399.865 264.024 399.652 264.024 399.39C 264.024 399.127 264.237 398.915 264.5 398.915C 264.763 398.915 264.976 399.127 264.976 399.39z"/>
			<path style="stroke:none; fill:#c0f" d="M 270.976 392.39C 270.976 392.652 270.763 392.865 270.5 392.865C 270.237 392.865 270.024 392.652 270.024 392.39C 270.024 392.127 270.237 391.915 270.5 391.915C 270.763 391.915 270.976 392.127 270.976 392.39z"/>
			<path style="stroke:none; fill:#c0f" d="M 275.976 397.39C 275.976 397.652 275.763 397.865 275.5 397.865C 275.237 397.865 275.024 397.652 275.024 397.39C 275.024 397.127 275.237 396.915 275.5 396.915C 275.763 396.915 275.976 397.127 275.976 397.39z"/>
			<path style="stroke:#090; stroke-width:1; fill:none" d="M 271.95 389.39C 271.95 387.74 273.3 386.39 274.95 386.39L 274.95 386.39C 276.601 386.39 277.95 387.74 277.95 389.39L 277.95 391.39"/>
			<path style="stroke:#c00; stroke-width:1; fill:none" d="M 285.387 402.323C 285.824 402.861 286 403.59 286 404.39L 286 404.39C 286 406.039 284.65 407.389 283 407.389C 281.625 407.389 280.062 407.389 280.062 407.389"/>
		</g>
		<g>
			<path style="stroke:none; fill:#c06" d="M 275.915 400.805L 265 408.89L 279.128 404.018L 275.915 400.805z"/>
			<path style="stroke:none; fill:#f39" d="M 269.872 394.761L 265 408.89L 275.915 400.805L 269.872 394.761z"/>
			<path style="stroke:none; fill:#f6c" d="M 271.468 396.39L 265 408.922L 274.298 399.22L 271.468 396.39z"/>
			<path style="stroke:none; fill:#0c0" d="M 270.976 398.89C 270.976 399.152 270.763 399.365 270.5 399.365C 270.237 399.365 270.024 399.152 270.024 398.89C 270.024 398.627 270.237 398.415 270.5 398.415C 270.763 398.415 270.976 398.627 270.976 398.89z"/>
			<path style="stroke:none; fill:#0c0" d="M 268.976 404.39C 268.976 404.652 268.763 404.865 268.5 404.865C 268.237 404.865 268.024 404.652 268.024 404.39C 268.024 404.127 268.237 403.915 268.5 403.915C 268.763 403.915 268.976 404.127 268.976 404.39z"/>
			<path style="stroke:none; fill:#0cf" d="M 273.976 399.89C 273.976 400.152 273.763 400.365 273.5 400.365C 273.237 400.365 273.024 400.152 273.024 399.89C 273.024 399.627 273.237 399.415 273.5 399.415C 273.763 399.415 273.976 399.627 273.976 399.89z"/>
			<path style="stroke:none; fill:#0cf" d="M 273.976 403.39C 273.976 403.652 273.763 403.865 273.5 403.865C 273.237 403.865 273.024 403.652 273.024 403.39C 273.024 403.127 273.237 402.915 273.5 402.915C 273.763 402.915 273.976 403.127 273.976 403.39z"/>
			<path style="stroke:none; fill:#090" d="M 279.976 388.39C 279.976 388.652 279.763 388.865 279.5 388.865C 279.237 388.865 279.024 388.652 279.024 388.39C 279.024 388.127 279.237 387.915 279.5 387.915C 279.763 387.915 279.976 388.127 279.976 388.39z"/>
			<path style="stroke:none; fill:#c0f" d="M 283.951 403.39C 283.951 403.652 283.738 403.865 283.476 403.865C 283.213 403.865 283 403.652 283 403.39C 283 403.127 283.213 402.915 283.476 402.915C 283.738 402.915 283.951 403.127 283.951 403.39z"/>
			<path style="stroke:none; fill:#c00" d="M 275.976 409.39C 275.976 409.652 275.763 409.865 275.5 409.865C 275.237 409.865 275.024 409.652 275.024 409.39C 275.024 409.127 275.237 408.915 275.5 408.915C 275.763 408.915 275.976 409.127 275.976 409.39z"/>
			<path style="stroke:none; fill:#090" d="M 288 407.39C 288 407.652 287.787 407.865 287.524 407.865C 287.262 407.865 287.049 407.652 287.049 407.39C 287.049 407.127 287.262 406.915 287.524 406.915C 287.787 406.915 288 407.127 288 407.39z"/>
			<path style="stroke:none; fill:#f30" d="M 287.976 401.39C 287.976 401.652 287.763 401.865 287.5 401.865C 287.237 401.865 287.024 401.652 287.024 401.39C 287.024 401.127 287.237 400.915 287.5 400.915C 287.763 400.915 287.976 401.127 287.976 401.39z"/>
			<path style="stroke:none; fill:#03f" d="M 287.976 392.39C 287.976 392.652 287.763 392.865 287.5 392.865C 287.237 392.865 287.024 392.652 287.024 392.39C 287.024 392.127 287.237 391.915 287.5 391.915C 287.763 391.915 287.976 392.127 287.976 392.39z"/>
			<path style="stroke:none; fill:#03f" d="M 287.976 386.89C 287.976 387.152 287.763 387.365 287.5 387.365C 287.237 387.365 287.024 387.152 287.024 386.89C 287.024 386.627 287.237 386.415 287.5 386.415C 287.763 386.415 287.976 386.627 287.976 386.89z"/>
			<path style="stroke:none; fill:#c0f" d="M 264.976 399.39C 264.976 399.652 264.763 399.865 264.5 399.865C 264.237 399.865 264.024 399.652 264.024 399.39C 264.024 399.127 264.237 398.915 264.5 398.915C 264.763 398.915 264.976 399.127 264.976 399.39z"/>
			<path style="stroke:none; fill:#f30" d="M 266.976 396.39C 266.976 396.652 266.763 396.865 266.5 396.865C 266.237 396.865 266.024 396.652 266.024 396.39C 266.024 396.127 266.237 395.915 266.5 395.915C 266.763 395.915 266.976 396.127 266.976 396.39z"/>
			<path style="stroke:none; fill:#c00" d="M 270.976 390.39C 270.976 390.652 270.763 390.865 270.5 390.865C 270.237 390.865 270.024 390.652 270.024 390.39C 270.024 390.127 270.237 389.915 270.5 389.915C 270.763 389.915 270.976 390.127 270.976 390.39z"/>
			<path style="stroke:none; fill:#090" d="M 287.976 407.39C 287.976 407.652 287.763 407.865 287.5 407.865C 287.237 407.865 287.024 407.652 287.024 407.39C 287.024 407.127 287.237 406.915 287.5 406.915C 287.763 406.915 287.976 407.127 287.976 407.39z"/>
		</g>
	</g>
</svg>
