<svg xmlns="http://www.w3.org/2000/svg" width="24" height="24">
	<g transform="translate(-264,-386)" id="KDDI_D_407">
		<g>
			<path style="stroke:none; fill:none" d="M 288 409.89L 264 409.89L 264 385.89L 288 385.89L 288 409.89z"/>
		</g>
		<g>
			<path style="stroke:none; fill:#fc9" d="M 283.5 400.39C 283.5 400.39 287 404.39 287 406.89C 287 407.89 286 409.39 282.5 409.39C 279 409.39 274.25 405.64 271.5 402.89C 268.75 400.14 267 396.39 266.5 391.89C 265.948 386.921 268.5 386.39 269.5 386.39C 270.5 386.39 272.5 387.89 275.5 392.39C 275.5 392.39 280.5 388.89 284 392.39C 287 395.39 284.25 399.64 283.5 400.39z"/>
			<path style="stroke:#ffc; stroke-width:0.75; fill:none" d="M 281 407.89C 278.907 406.578 275.455 403.845 274 402.39C 271.25 399.64 267.5 395.418 267.5 390.89C 267.5 387.39 270.5 387.89 272 387.89"/>
			<path style="stroke:none; fill:#ffc" d="M 276.25 394.64C 276.25 394.64 279.5 391.89 284 392.39C 279.5 392.89 276.5 395.89 276.5 395.89"/>
			<path style="stroke:none; fill:#c96" d="M 283.5 400.39C 284.004 399.886 285.401 397.805 285.363 395.584C 284.644 396.581 281.049 401.253 278.5 398.703C 278.191 398.395 277.799 398.189 277.5 397.89C 275.908 396.298 275.584 393.497 275.518 392.378C 275.514 392.38 275.5 392.39 275.5 392.39C 274.679 391.158 273.779 389.983 274.053 390.346L 274 390.39C 274 390.39 273.284 396.63 276 399.89C 278.5 402.89 280.5 403.89 282 404.89C 283.5 405.89 280.5 407.826 277.5 406.89C 276.514 406.582 275.975 406.261 275.023 405.968C 274.06 405.234 279.34 409.39 282.5 409.39C 286 409.39 287 407.89 287 406.89C 287 404.39 283.5 400.39 283.5 400.39z"/>
			<path style="stroke:#f33; stroke-width:1; fill:none" d="M 275.5 392.39C 275.5 392.39 276 395.89 278 397.89C 279.654 399.544 283.54 400.393 283.5 400.39"/>
			<path style="stroke:#c00; stroke-width:1; fill:none" d="M 274.5 390.89C 274.5 390.89 274.344 395.532 277.344 398.532C 279.594 400.782 284.5 401.39 284.5 401.39"/>
			<path style="stroke:#000; stroke-width:1; fill:none" d="M 283.5 400.39C 283.5 400.39 287 404.39 287 406.89C 287 407.89 286 409.39 282.5 409.39C 279 409.39 274.25 405.64 271.5 402.89C 268.75 400.14 267 396.39 266.5 391.89C 265.948 386.921 268.5 386.39 269.5 386.39C 270.5 386.39 272.5 387.89 275.5 392.39C 275.5 392.39 280.5 388.89 284 392.39C 287 395.39 284.25 399.64 283.5 400.39z"/>
			<path style="stroke:#c00; stroke-width:1; fill:none" d="M 288 400.39L 283.688 400.39C 282.656 400.39 282 400.466 282 400.89C 282 400.89 282 401.547 282 402.89C 282 405.39 283.5 407.39 285 407.89"/>
			<path style="stroke:none; fill:#f33" d="M 282.476 400.89C 282.476 401.152 282.263 401.365 282 401.365C 281.737 401.365 281.524 401.152 281.524 400.89C 281.524 400.627 281.737 400.415 282 400.415C 282.263 400.415 282.476 400.627 282.476 400.89z"/>
		</g>
	</g>
</svg>
