<svg xmlns="http://www.w3.org/2000/svg" width="24" height="24">
	<g transform="translate(-264,-386)" id="KDDI_D_408">
		<g>
			<path style="stroke:none; fill:none" d="M 288 409.89L 264 409.89L 264 385.89L 288 385.89L 288 409.89z"/>
		</g>
		<g>
			<g>
				<path style="stroke:none; fill:#f36" d="M 273.5 386.39L 280.5 386.39C 280.5 386.39 280.5 397.278 280.5 397.89C 280.5 398.501 281.5 399.341 281.5 401.39C 281.5 403.439 280.812 404.528 280.5 404.89L 280.5 408.39L 278 408.39L 278 403.89C 278 403.89 276.149 405.24 275.75 405.64C 275.351 406.039 275 408.39 273 408.39C 271.5 408.39 265.5 408.39 265.5 408.39C 265.5 408.39 265.5 406.39 265.5 405.89C 265.5 405.39 266 403.89 267.5 403.89C 269 403.89 269 403.89 270 402.89C 271 401.89 273.5 399.39 273.5 396.89C 273.5 394.89 273.5 386.39 273.5 386.39z"/>
				<path style="stroke:none; fill:#f03" d="M 273 408.39C 275 408.39 275.351 406.039 275.75 405.64C 276.149 405.24 278 403.89 278 403.89L 278 408.39L 280.5 408.39L 280.5 404.89C 280.812 404.528 281.5 403.439 281.5 401.39C 281.5 399.341 280.5 398.501 280.5 397.89C 280.5 397.278 280.5 386.39 280.5 386.39L 277 386.39C 277 389.787 277 395.801 277 396.39C 277 400.39 275.493 401.397 273 403.89C 270.507 406.383 269.938 406.89 269 406.89C 268.162 406.89 267.478 406.989 267.341 408.39C 269.235 408.39 272.039 408.39 273 408.39z"/>
				<path style="stroke:none; fill:#c00" d="M 281.459 402.201C 281.272 400.644 280.5 399.927 280.5 399.39C 280.5 399.264 280.5 398.7 280.5 397.89C 280.5 397.421 280.5 389.396 280.5 386.39L 277 386.39C 277 390.305 277 398.376 277 398.89C 277 399.695 277 400.255 277 400.39C 277 401.126 275.493 402.897 273 405.39C 270.507 407.883 269.938 408.39 269 408.39C 270.601 408.39 272.295 408.39 273 408.39C 275 408.39 275.351 406.039 275.75 405.64C 276.149 405.24 278 403.89 278 403.89L 278 405.39L 278 408.39L 280.5 408.39L 280.5 406.39L 280.5 404.89C 280.768 404.58 281.309 403.729 281.459 402.201z"/>
				<path style="stroke:none; fill:#900" d="M 274 396.39C 274 398.89 271.5 401.39 270.5 402.39C 269.5 403.39 269.5 403.39 268 403.39C 267.944 403.39 267.899 403.405 267.847 403.409C 267.62 404.002 267.831 404.89 268.5 404.89C 270 404.89 270 404.89 270.5 404.39C 270.778 404.112 272.632 401.811 273 401.39C 273.957 400.295 274 400.195 274 398.39C 274 397.968 274 397.249 274 396.39z"/>
				<path style="stroke:none; fill:#f03" d="M 280 398.39C 280 398.39 280 400.39 280 401.89C 280 403.39 281.5 402.89 281.5 401.89C 281.5 400.89 280 398.39 280 398.39z"/>
				<path style="stroke:none; fill:#f69" d="M 273.5 396.89C 273.5 399.39 271 401.89 270 402.89C 269 403.89 269 403.89 267.5 403.89C 267.444 403.89 267.399 403.905 267.347 403.909C 267.12 404.502 267.331 405.39 268 405.39C 270 405.39 269.523 405.413 270.5 404.39C 271.229 403.626 271.938 402.71 273 401.39C 273.419 400.869 273.5 399.601 273.5 398.89C 273.5 398.468 273.5 397.749 273.5 396.89z"/>
				<path style="stroke:none; fill:#900" d="M 281.023 400.338C 281.023 399.89 281 399.39 281 398.89C 280.724 398.372 280 398.39 280 398.39C 280 398.39 280 398.777 280 399.327C 280.103 399.788 280.379 400.202 281.023 400.338z"/>
				<path style="stroke:none; fill:#900" d="M 278 403.39C 278.5 402.89 279.5 402.89 279.5 404.89L 278 404.89L 278 403.39z"/>
				<path style="stroke:#300; stroke-width:1; fill:none" d="M 273.5 386.39L 280.5 386.39C 280.5 386.39 280.5 397.278 280.5 397.89C 280.5 398.501 281.5 399.341 281.5 401.39C 281.5 403.439 280.812 404.528 280.5 404.89L 280.5 408.39L 278 408.39L 278 403.89C 278 403.89 276.149 405.24 275.75 405.64C 275.351 406.039 275 408.39 273 408.39C 271.5 408.39 265.5 408.39 265.5 408.39C 265.5 408.39 265.5 406.39 265.5 405.89C 265.5 405.39 266 403.89 267.5 403.89C 269 403.89 269 403.89 270 402.89C 271 401.89 273.5 399.39 273.5 396.89C 273.5 394.89 273.5 386.39 273.5 386.39z"/>
				<path style="stroke:none; fill:#300" d="M 280.5 404.376L 278 404.376L 278 408.39L 280.5 408.39L 280.5 404.376z"/>
			</g>
			<g>
				<path style="stroke:none; fill:#f36" d="M 279.5 387.39L 286.5 387.39C 286.5 387.39 286.5 398.278 286.5 398.89C 286.5 399.501 287.5 400.341 287.5 402.39C 287.5 404.439 286.812 405.528 286.5 405.89L 286.5 409.39L 284 409.39L 284 404.89C 284 404.89 282.149 406.24 281.75 406.64C 281.351 407.039 281 409.39 279 409.39C 277.5 409.39 271.5 409.39 271.5 409.39C 271.5 409.39 271.5 407.39 271.5 406.89C 271.5 406.39 272 404.89 273.5 404.89C 275 404.89 275 404.89 276 403.89C 277 402.89 279.5 400.39 279.5 397.89C 279.5 395.89 279.5 387.39 279.5 387.39z"/>
				<path style="stroke:none; fill:#f03" d="M 279 409.39C 281 409.39 281.351 407.039 281.75 406.64C 282.149 406.24 284 404.89 284 404.89L 284 409.39L 286.5 409.39L 286.5 405.89C 286.812 405.528 287.5 404.439 287.5 402.39C 287.5 400.341 286.5 399.501 286.5 398.89C 286.5 398.278 286.5 387.39 286.5 387.39L 283 387.39C 283 390.787 283 396.801 283 397.39C 283 401.39 281.493 402.397 279 404.89C 276.507 407.383 275.938 407.89 275 407.89C 274.162 407.89 273.478 407.989 273.341 409.39C 275.235 409.39 278.039 409.39 279 409.39z"/>
				<path style="stroke:none; fill:#c00" d="M 287.459 403.201C 287.272 401.644 286.5 400.927 286.5 400.39C 286.5 400.264 286.5 399.7 286.5 398.89C 286.5 398.421 286.5 390.396 286.5 387.39L 283 387.39C 283 391.305 283 399.376 283 399.89C 283 400.695 283 401.255 283 401.39C 283 402.126 281.493 403.897 279 406.39C 276.507 408.883 275.938 409.39 275 409.39C 276.601 409.39 278.295 409.39 279 409.39C 281 409.39 281.351 407.039 281.75 406.64C 282.149 406.24 284 404.89 284 404.89L 284 406.39L 284 409.39L 286.5 409.39L 286.5 407.39L 286.5 405.89C 286.768 405.58 287.309 404.729 287.459 403.201z"/>
				<path style="stroke:none; fill:#900" d="M 280 397.39C 280 399.89 277.5 402.39 276.5 403.39C 275.5 404.39 275.5 404.39 274 404.39C 273.944 404.39 273.899 404.405 273.847 404.409C 273.62 405.002 273.831 405.89 274.5 405.89C 276 405.89 276 405.89 276.5 405.39C 276.778 405.112 278.632 402.811 279 402.39C 279.957 401.295 280 401.195 280 399.39C 280 398.968 280 398.249 280 397.39z"/>
				<path style="stroke:none; fill:#f03" d="M 286 399.39C 286 399.39 286 401.39 286 402.89C 286 404.39 287.5 403.89 287.5 402.89C 287.5 401.89 286 399.39 286 399.39z"/>
				<path style="stroke:none; fill:#f69" d="M 279.5 397.89C 279.5 400.39 277 402.89 276 403.89C 275 404.89 275 404.89 273.5 404.89C 273.444 404.89 273.399 404.905 273.347 404.909C 273.12 405.502 273.331 406.39 274 406.39C 276 406.39 275.523 406.413 276.5 405.39C 277.229 404.626 277.938 403.71 279 402.39C 279.419 401.869 279.5 400.601 279.5 399.89C 279.5 399.468 279.5 398.749 279.5 397.89z"/>
				<path style="stroke:none; fill:#900" d="M 287.023 401.338C 287.023 400.89 287 400.39 287 399.89C 286.724 399.372 286 399.39 286 399.39C 286 399.39 286 399.777 286 400.327C 286.103 400.788 286.379 401.202 287.023 401.338z"/>
				<path style="stroke:none; fill:#900" d="M 284 404.39C 284.5 403.89 285.5 403.89 285.5 405.89L 284 405.89L 284 404.39z"/>
				<path style="stroke:#300; stroke-width:1; fill:none" d="M 279.5 387.39L 286.5 387.39C 286.5 387.39 286.5 398.278 286.5 398.89C 286.5 399.501 287.5 400.341 287.5 402.39C 287.5 404.439 286.812 405.528 286.5 405.89L 286.5 409.39L 284 409.39L 284 404.89C 284 404.89 282.149 406.24 281.75 406.64C 281.351 407.039 281 409.39 279 409.39C 277.5 409.39 271.5 409.39 271.5 409.39C 271.5 409.39 271.5 407.39 271.5 406.89C 271.5 406.39 272 404.89 273.5 404.89C 275 404.89 275 404.89 276 403.89C 277 402.89 279.5 400.39 279.5 397.89C 279.5 395.89 279.5 387.39 279.5 387.39z"/>
				<path style="stroke:none; fill:#300" d="M 286.5 405.376L 284 405.376L 284 409.39L 286.5 409.39L 286.5 405.376z"/>
			</g>
		</g>
	</g>
</svg>
