<svg xmlns="http://www.w3.org/2000/svg" width="24" height="24">
	<g transform="translate(-264,-386)" id="KDDI_D_409">
		<g>
			<path style="stroke:none; fill:none" d="M 288 409.89L 264 409.89L 264 385.89L 288 385.89L 288 409.89z"/>
		</g>
		<g>
			<path style="stroke:none; fill:#900" d="M 288 394.89C 288 398.39 286 400.89 286 400.89L 281 400.89C 284.667 398.945 285 394.89 285 394.89L 288 394.89z"/>
			<path style="stroke:#999; stroke-width:3; fill:none" d="M 286.5 388.025L 286.5 394.89"/>
			<path style="stroke:#ccc; stroke-width:1.5; fill:none" d="M 285.75 388.008L 285.75 394.89"/>
			<path style="stroke:none; fill:#c63" d="M 264 407.597L 268.5 403.097C 270.877 400.719 270.719 397.706 270.66 396.572L 270.647 396.243L 270.649 395.977C 270.658 395.278 270.668 394.557 270 393.89C 269.598 393.488 269.017 393.345 268.364 393.489C 267.809 393.611 267.251 393.931 266.793 394.39L 264 397.183L 264 407.597z"/>
			<path style="stroke:none; fill:#f96" d="M 264 406.183C 265.987 404.196 267.793 402.39 267.793 402.39C 269.448 400.735 269.687 398.737 269.687 397.44C 269.687 397.12 269.672 396.843 269.661 396.624L 269.647 396.243C 269.647 396.243 269.65 395.814 269.65 395.745C 269.65 395.212 269.606 394.91 269.293 394.597C 268.949 394.253 268.111 394.486 267.5 395.097C 267.5 395.097 265.986 396.61 264 398.597L 264 406.183z"/>
			<path style="stroke:none; fill:#fc9" d="M 264 404.89C 264.304 404.586 264.543 404.347 264.647 404.243C 265.147 403.743 265.647 403.243 266.647 402.243C 269.147 399.743 268.647 396.542 268.647 395.743C 268.647 395.268 268.668 394.859 268.568 394.482C 268.22 394.56 267.829 394.768 267.5 395.097C 267.5 395.097 265.986 396.61 264 398.597L 264 404.89z"/>
			<path style="stroke:none; fill:#903" d="M 270 393.89C 269.241 393.131 267.832 393.35 266.793 394.39L 263.84 397.342L 263.89 397.602C 264.039 398.378 264.396 398.927 264.923 399.191C 265.222 399.34 265.538 399.503 265.878 399.617L 265.88 399.618C 266.88 400.118 267.88 400.618 269.38 399.118C 272.176 396.322 270.333 394.224 270 393.89z"/>
			<path style="stroke:none; fill:#f39" d="M 266.793 394.39L 263.84 397.342L 263.89 397.602C 264.039 398.378 264.396 398.927 264.923 399.191C 265.957 399.708 267.191 400.405 269 398.597C 270.29 397.307 270.707 396.297 270.718 395.526C 270.729 394.755 270.333 394.224 270 393.89C 269.241 393.131 267.832 393.35 266.793 394.39z"/>
			<path style="stroke:none; fill:#fc9" d="M 269.193 394.085C 268.767 394.085 268.266 394.331 267.853 394.743C 267.853 394.743 265.042 397.555 264.446 398.15C 264.519 398.399 264.632 398.677 264.87 398.796C 265.915 399.32 266.545 399.637 267.793 398.39C 268.959 397.224 270.065 395.6 270.071 395.158C 270.076 394.825 269.945 394.543 269.646 394.243C 269.542 394.138 269.389 394.085 269.193 394.085z"/>
			<path style="stroke:none; fill:#f99" d="M 268.147 398.243C 269.312 397.077 269.949 396.138 270.147 395.743C 270.647 394.743 269.602 394.218 269.581 394.203C 268.6 395.184 266.419 397.365 264.949 398.835C 265.945 399.334 266.932 399.458 268.147 398.243z"/>
			<g>
				<path style="stroke:none; fill:#c63" d="M 264 409.89L 270.707 409.89L 275.353 405.243C 277.731 402.866 277.573 399.853 277.513 398.718L 277.5 398.39L 277.502 398.123C 277.511 397.425 277.521 396.704 276.853 396.036C 276.452 395.634 275.871 395.492 275.218 395.636C 274.663 395.758 274.104 396.078 273.647 396.536L 264 406.182L 264 409.89z"/>
				<path style="stroke:none; fill:#f96" d="M 269.293 409.89C 271.777 407.405 274.647 404.536 274.647 404.536C 276.301 402.881 276.54 400.884 276.54 399.587C 276.54 399.267 276.526 398.99 276.515 398.771L 276.5 398.39C 276.5 398.39 276.504 397.961 276.504 397.892C 276.504 397.358 276.46 397.056 276.147 396.743C 275.802 396.399 274.964 396.632 274.353 397.243C 274.353 397.243 267.777 403.819 264 407.597L 264 409.89L 269.293 409.89z"/>
				<path style="stroke:none; fill:#fc9" d="M 268 409.89C 268.984 408.906 271.118 406.772 271.5 406.39C 272 405.89 272.5 405.39 273.5 404.39C 276 401.89 275.5 398.689 275.5 397.89C 275.5 397.414 275.522 397.006 275.421 396.628C 275.073 396.707 274.683 396.914 274.353 397.243C 274.353 397.243 267.777 403.819 264 407.597L 264 409.89L 268 409.89z"/>
				<path style="stroke:none; fill:#903" d="M 276.853 396.036C 276.095 395.277 274.685 395.497 273.647 396.536L 270.694 399.488L 270.744 399.749C 270.892 400.524 271.249 401.073 271.776 401.337C 272.075 401.486 272.391 401.649 272.732 401.764C 272.732 401.764 272.733 401.765 272.733 401.765C 273.733 402.265 274.733 402.765 276.233 401.265C 279.029 398.468 277.187 396.37 276.853 396.036z"/>
				<path style="stroke:none; fill:#f39" d="M 273.647 396.536L 270.694 399.488L 270.744 399.749C 270.892 400.524 271.249 401.073 271.776 401.337C 272.811 401.854 274.045 402.552 275.853 400.743C 277.143 399.454 277.56 398.444 277.571 397.673C 277.582 396.902 277.187 396.37 276.853 396.036C 276.095 395.277 274.685 395.497 273.647 396.536z"/>
				<path style="stroke:none; fill:#fc9" d="M 276.047 396.232C 275.62 396.232 275.119 396.478 274.707 396.89C 274.707 396.89 271.896 399.701 271.299 400.297C 271.372 400.546 271.485 400.823 271.724 400.942C 272.768 401.467 273.399 401.783 274.647 400.536C 275.812 399.37 276.918 397.746 276.925 397.305C 276.93 396.971 276.798 396.689 276.5 396.389C 276.395 396.285 276.242 396.232 276.047 396.232z"/>
				<path style="stroke:none; fill:#f99" d="M 275 400.39C 276.166 399.224 276.803 398.285 277 397.89C 277.5 396.89 276.455 396.364 276.435 396.35C 275.454 397.331 273.272 399.512 271.803 400.982C 272.799 401.481 273.785 401.604 275 400.39z"/>
			</g>
			<path style="stroke:none; fill:#c63" d="M 279.515 409.89C 280.961 407.746 280.844 405.407 280.793 404.438L 280.78 404.109L 280.783 403.843C 280.792 403.145 280.801 402.423 280.134 401.756C 279.732 401.354 279.151 401.212 278.498 401.356C 277.943 401.478 277.385 401.797 276.927 402.256L 269.293 409.89L 279.515 409.89z"/>
			<path style="stroke:none; fill:#f96" d="M 278.248 409.89C 279.6 408.314 279.821 406.51 279.821 405.306C 279.821 404.986 279.806 404.71 279.795 404.49L 279.78 404.109C 279.78 404.109 279.784 403.68 279.784 403.611C 279.784 403.078 279.74 402.776 279.427 402.463C 279.082 402.119 278.245 402.352 277.634 402.963C 277.634 402.963 274.087 406.509 270.707 409.89L 278.248 409.89z"/>
			<path style="stroke:none; fill:#fc9" d="M 276.98 409.89C 279.244 407.425 278.78 404.385 278.78 403.609C 278.78 403.134 278.802 402.726 278.702 402.348C 278.353 402.426 277.963 402.634 277.634 402.963C 277.634 402.963 274.087 406.509 270.707 409.89L 276.98 409.89z"/>
			<path style="stroke:none; fill:#903" d="M 280.134 401.756C 279.375 400.997 277.966 401.216 276.927 402.256L 273.974 405.208L 274.024 405.468C 274.172 406.244 274.529 406.793 275.057 407.057C 275.355 407.206 275.671 407.369 276.012 407.483C 276.013 407.483 276.013 407.484 276.014 407.484C 277.014 407.984 278.014 408.484 279.514 406.984C 282.31 404.188 280.467 402.09 280.134 401.756z"/>
			<path style="stroke:none; fill:#f39" d="M 276.927 402.256L 273.974 405.208L 274.024 405.468C 274.172 406.244 274.529 406.793 275.057 407.057C 276.091 407.574 277.325 408.272 279.134 406.463C 280.423 405.173 280.84 404.164 280.852 403.393C 280.863 402.622 280.467 402.09 280.134 401.756C 279.375 400.997 277.966 401.216 276.927 402.256z"/>
			<path style="stroke:none; fill:#fc9" d="M 279.327 401.951C 278.9 401.951 278.399 402.197 277.987 402.609C 277.987 402.609 275.176 405.421 274.58 406.017C 274.652 406.265 274.766 406.543 275.004 406.662C 276.048 407.187 276.679 407.503 277.927 406.256C 279.093 405.09 280.199 403.466 280.205 403.025C 280.21 402.691 280.079 402.409 279.78 402.109C 279.675 402.004 279.522 401.951 279.327 401.951z"/>
			<path style="stroke:none; fill:#f99" d="M 278.28 406.109C 279.446 404.943 280.083 404.004 280.28 403.609C 280.78 402.609 279.735 402.084 279.715 402.069C 278.734 403.05 276.553 405.232 275.083 406.701C 276.079 407.2 277.065 407.324 278.28 406.109z"/>
			<path style="stroke:#096; stroke-width:3; fill:none" d="M 286.5 385.907L 286.5 392.772"/>
			<path style="stroke:#3c9; stroke-width:1.5; fill:none" d="M 285.75 385.89L 285.75 392.772"/>
			<path style="stroke:none; fill:#c03" d="M 285 394.89C 285 394.89 284.667 398.945 281 400.89L 284.5 400.89C 284.5 400.89 286.5 398.39 286.5 394.89L 285 394.89z"/>
			<path style="stroke:none; fill:#f36" d="M 281 400.89L 283 400.89C 283 400.89 285 398.39 285 394.89C 285 394.89 284.667 398.945 281 400.89z"/>
		</g>
	</g>
</svg>
