<svg xmlns="http://www.w3.org/2000/svg" height="24" width="24">
    <g transform="matrix(1,0,0,-1,-264,408)" id="KDDI_D_">        <path d="M285 399.2c0-3.6-4-6.6-9-6.6s-9 3-9 6.6c0 3.6 4 6.6 9 6.6s9-3 9-6.6z" fill="#c60"/>
        <path d="M269.4 396.8c0-1.3-1.1-2.4-2.4-2.4-1.4 0-2.5 1.1-2.5 2.4 0 1.4 1.1 2.5 2.5 2.5 1.3 0 2.4-1.1 2.4-2.5z" fill="#ff9"/>
        <path d="M267 394.4c-1.4 0-2.5 1.1-2.5 2.4 0 1.4 1.1 2.5 2.5 2.5 1.3 0 2.4-1.1 2.4-2.5" fill="none" stroke="#fc3"/>
        <path d="M269.4 396.8c0-1.3-1.1-2.4-2.4-2.4" fill="none" stroke="#f90" stroke-linecap="round"/>
        <path d="M270.5 402.6c0-1.3-1.1-2.4-2.4-2.4-1.4 0-2.4 1.1-2.4 2.4 0 1.3 1 2.4 2.4 2.4 1.3 0 2.4-1.1 2.4-2.4z" fill="#ff9"/>
        <path d="M268.1 400.2c-1.4 0-2.4 1.1-2.4 2.4 0 1.3 1 2.4 2.4 2.4 1.3 0 2.4-1.1 2.4-2.4" fill="none" stroke="#fc3"/>
        <path d="M270.5 402.6c0-1.3-1.1-2.4-2.4-2.4" fill="none" stroke="#f90" stroke-linecap="round"/>
        <path d="M275.5 405.1c0-1.3-1.1-2.4-2.4-2.4-1.4 0-2.5 1.1-2.5 2.4 0 1.4 1.1 2.5 2.5 2.5 1.3 0 2.4-1.1 2.4-2.5z" fill="#ff9"/>
        <path d="M273.1 402.7c-1.4 0-2.5 1.1-2.5 2.4 0 1.4 1.1 2.5 2.5 2.5 1.3 0 2.4-1.1 2.4-2.5" fill="none" stroke="#fc3"/>
        <path d="M275.5 405.1c0-1.3-1.1-2.4-2.4-2.4" fill="none" stroke="#f90" stroke-linecap="round"/>
        <path d="M281.4 405.1c0-1.3-1.1-2.4-2.5-2.4-1.3 0-2.4 1.1-2.4 2.4 0 1.4 1.1 2.5 2.4 2.5 1.4 0 2.5-1.1 2.5-2.5z" fill="#ff9"/>
        <path d="M278.9 402.7c-1.3 0-2.4 1.1-2.4 2.4 0 1.4 1.1 2.5 2.4 2.5 1.4 0 2.5-1.1 2.5-2.5" fill="none" stroke="#fc3"/>
        <path d="M281.4 405.1c0-1.3-1.1-2.4-2.5-2.4" fill="none" stroke="#f90" stroke-linecap="round"/>
        <path d="M286.3 402.6c0-1.3-1-2.4-2.4-2.4-1.3 0-2.4 1.1-2.4 2.4 0 1.3 1.1 2.4 2.4 2.4 1.4 0 2.4-1.1 2.4-2.4z" fill="#ff9"/>
        <path d="M283.9 400.2c-1.3 0-2.4 1.1-2.4 2.4 0 1.3 1.1 2.4 2.4 2.4 1.4 0 2.4-1.1 2.4-2.4" fill="none" stroke="#fc3"/>
        <path d="M286.3 402.6c0-1.3-1-2.4-2.4-2.4" fill="none" stroke="#f90" stroke-linecap="round"/>
        <path d="M287.5 396.8c0-1.3-1.1-2.4-2.5-2.4-1.3 0-2.4 1.1-2.4 2.4 0 1.4 1.1 2.5 2.4 2.5 1.4 0 2.5-1.1 2.5-2.5z" fill="#ff9"/>
        <path d="M285 394.4c-1.3 0-2.4 1.1-2.4 2.4 0 1.4 1.1 2.5 2.4 2.5 1.4 0 2.5-1.1 2.5-2.5" fill="none" stroke="#fc3"/>
        <path d="M287.5 396.8c0-1.3-1.1-2.4-2.5-2.4" fill="none" stroke="#f90" stroke-linecap="round"/>
        <path d="M279.4 400.4c-1 .4-2.5.6-3.3.6-1.3 0-5.1-1.2-5.6-1.5-.5-.3-1.1-1.2-1.1-3.5 0-.8-.5-4.3 1.7-6.3 1.2-1.1 3.4-2.3 4.9-2.3 1.5-.1 2.6.6 3.6 1.3 1 .7 2.2 2.1 2.4 3.2.2 1 .4 3.7.3 5 0 2.2-1.9 3.1-2.9 3.5z" fill="#fc9"/>
        <path d="M282.3 396.9c0 1.5-1 2.4-1.9 3 .5-.6.8-1.3.9-2.3 0-1.4-.2-4.2-.3-5.3-.2-1.1-1.4-2.6-2.4-3.4-.9-.7-2-1.4-3.4-1.4.3-.1.5-.1.8-.1 1.5-.1 2.6.6 3.6 1.3 1 .7 2.2 2.1 2.4 3.2.2 1 .4 3.7.3 5z" fill="#f96"/>
        <path d="M277.7 390.8s-1 .2-1.9.2c-.8 0-1.7-.2-1.7-.2s.6-1.3 1.7-1.3 1.9 1.3 1.9 1.3z" fill="#c00"/>
        <path d="M275.4 389.9s.6-.3.9-.2c.3.1.7.5.6.6-.1.1-1.5 0-1.5-.4z" fill="#900"/>
        <path d="M276.1 392.8l-.4-.5" fill="none" stroke="#c96" stroke-width=".922" stroke-linecap="round"/>
        <path d="M279.7 398.1l-1.2-.1M271.9 398.1l1.2-.1" fill="none" stroke="#666" stroke-width=".798" stroke-linecap="round"/>
        <path d="M278.9 388.1s1 .8 1.9 1.6c0 0 .8.9 1.3 2.2.6 1.3.4 4.4.3 6.4" fill="none" stroke="#930" stroke-linecap="round"/>
        <path d="M269.6 398.3c-.2-.8-.4-2.5-.4-4.1 0-1 .2-2.3.9-3.6 1-1.9 3.9-3.3 5.7-3.3 1.8 0 3.6 1.2 3.6 1.2" fill="none" stroke="#c60" stroke-linecap="round"/>
        <path d="M282.5 398.1s0 1.2-.4 1.8c-.5 1-1.9 2-3.5 2.5-1.7.5-3.7.6-5.2.2-1-.4-2.9-1.4-3.5-2.3-.4-.8-.5-2-.5-2 1.5 1.7 3.2 2.2 4.2 2.4 1.8.4 4.5.1 5.4-.3 1.2-.5 2.9-1.5 3.5-2.3" fill="#fff"/>
        <path d="M279.1 402.2c.3-.6.7-1.4.9-2.3 1-.5 2.1-1.2 2.5-1.8 0 0 0 1.2-.4 1.8-.5.9-1.6 1.8-3 2.3z" fill="#ccc"/>
        <path d="M269.4 398.3c1.5 1.7 3.2 2.2 4.2 2.4 1.8.4 4.5.1 5.4-.3 1.2-.5 2.9-1.5 3.5-2.3" fill="none" stroke="#999" stroke-width=".75" stroke-linecap="round" stroke-linejoin="round"/>
        <path d="M282.5 398.1s0 1.2-.4 1.8c-.5 1-1.9 2-3.5 2.5-1.7.5-3.7.6-5.2.2-1-.4-2.9-1.4-3.5-2.3-.4-.8-.5-2-.5-2" fill="none" stroke="#c96" stroke-width=".75" stroke-linecap="round" stroke-linejoin="round"/>
        <path d="M273.9 395c0-.8-.6-1.4-1.3-1.4-.7 0-1.3.6-1.3 1.4 0 .8.6 1.4 1.3 1.4.7 0 1.3-.6 1.3-1.4z"/>
        <path d="M272.6 395.5c0-.2-.1-.3-.3-.3-.3 0-.4.1-.4.3 0 .2.1.3.4.3.2 0 .3-.1.3-.3zM280.7 395c0-1-.7-1.8-1.5-1.8s-1.5.8-1.5 1.8.7 1.8 1.5 1.8 1.5-.8 1.5-1.8z" fill="#fff"/>
        <path d="M280.5 395c0-.8-.6-1.4-1.3-1.4-.8 0-1.3.6-1.3 1.4 0 .8.5 1.4 1.3 1.4.7 0 1.3-.6 1.3-1.4z"/>
        <path d="M279.2 395.5c0-.2-.2-.3-.4-.3s-.3.1-.3.3c0 .2.1.3.3.3.2 0 .4-.1.4-.3z" fill="#fff"/>
        <path d="M280.3 395.9s-.1-.2-1.2-.2c-1 0-2 1.3-2 1.3s1.2-.4 2.1-.1c1.1.3 1.1-1 1.1-1z"/>
        <path d="M280.7 394.7c0-.9-.7-1.5-1.5-1.5-.9 0-1.5.6-1.5 1.5v.8c0 .9.6 1.5 1.5 1.5.8 0 1.5-.6 1.5-1.5z"/>
        <path d="M279.5 395.7c0-.4-.4-.6-.8-.6s-.7.2-.7.6c0 .3.3.6.7.6.4 0 .8-.3.8-.6z" fill="#fff"/>
        <path d="M273.9 395.9s-.1-.2-1.2-.2c-1 0-2 1.3-2 1.3s1.2-.4 2.2-.1c1 .3 1-1 1-1z"/>
        <path d="M274.3 394.7c0-.9-.7-1.5-1.5-1.5-.9 0-1.5.6-1.5 1.5v.8c0 .9.6 1.5 1.5 1.5.8 0 1.5-.6 1.5-1.5z"/>
        <path d="M273.1 395.7c0-.4-.4-.6-.8-.6s-.7.2-.7.6c0 .3.3.6.7.6.4 0 .8-.3.8-.6z" fill="#fff"/>
        <path d="M274.5 390.7s.4-.7 1.5-.7 1.4.7 1.4.7" fill="none" stroke="#c00" stroke-width=".75" stroke-linecap="round"/>
        <path d="M264.5 384c0 2.8 2.1 3.3 3.1 3.8 1 .4 2.8 1.4 2.8 1.4s2.3-2.8 5.4-2.8c3.1 0 5.5 2.8 5.5 2.8s2.6-1.3 3.9-1.9c1.2-.6 2.4-.8 2.4-3.3" fill="#fff"/>
        <path d="M287.6 384c0 2.5-1.2 2.7-2.4 3.3-1.3.6-3.9 1.9-3.9 1.9s-2.4-2.8-5.5-2.8c-.9 0-1.8.2-2.5.6-.5-.7-1.2-1.5-1.2-1.9V384z" fill="#cff"/>
        <path d="M285.2 387.3c-1.3.6-3.9 1.9-3.9 1.9s-.6-.7-1.6-1.4c1.6-.8 3.8-2 4.4-2.6.2-.3.3-.8.4-1.2h3.1c0 2.5-1.2 2.7-2.4 3.3z" fill="#9cf"/>
        <path d="M264.5 384c0 2.8 2.1 3.1 3.1 3.5 1 .4 2.8 1.4 2.8 1.4s2.3-2.5 5.4-2.5c3.1 0 5.5 2.5 5.5 2.5l3.9-1.8c1.2-.7 2.4-.6 2.4-3.1" fill="none" stroke="#39f"/>
    </g>
</svg>
