<svg xmlns="http://www.w3.org/2000/svg" width="24" height="24">
	<g transform="translate(-264,-386)" id="KDDI_D_412">
		<g>
			<path style="stroke:none; fill:none" d="M 288 409.89L 264 409.89L 264 385.89L 288 385.89L 288 409.89z"/>
		</g>
		<g>
			<path style="stroke:none; fill:#f6c" d="M 279 386.39L 275.965 389.424L 273 386.459L 264.5 387.39C 264.5 387.39 264.5 395.89 264.5 396.89C 264.5 397.89 265 398.39 266.5 398.39C 268.5 398.39 270.5 395.89 271 395.39L 271 409.39L 275.5 409.39L 276.5 409.39L 281 409.39L 281 395.39C 281.5 395.89 283.5 398.39 285.5 398.39C 287 398.39 287.5 397.89 287.5 396.89C 287.5 395.89 287.5 387.39 287.5 387.39L 279 386.39z"/>
			<path style="stroke:none; fill:#93c" d="M 267.976 389.415C 267.976 389.677 267.763 389.89 267.5 389.89C 267.237 389.89 267.024 389.677 267.024 389.415C 267.024 389.152 267.237 388.94 267.5 388.94C 267.763 388.94 267.976 389.152 267.976 389.415z"/>
			<path style="stroke:none; fill:#93c" d="M 270.976 388.365C 270.976 388.628 270.763 388.84 270.5 388.84C 270.237 388.84 270.024 388.628 270.024 388.365C 270.024 388.102 270.237 387.89 270.5 387.89C 270.763 387.89 270.976 388.102 270.976 388.365z"/>
			<path style="stroke:none; fill:#93c" d="M 267.976 391.415C 267.976 391.677 267.763 391.89 267.5 391.89C 267.237 391.89 267.024 391.677 267.024 391.415C 267.024 391.152 267.237 390.94 267.5 390.94C 267.763 390.94 267.976 391.152 267.976 391.415z"/>
			<path style="stroke:none; fill:#999" d="M 270.976 391.89C 270.976 392.152 270.763 392.365 270.5 392.365C 270.237 392.365 270.024 392.152 270.024 391.89C 270.024 391.627 270.237 391.415 270.5 391.415C 270.763 391.415 270.976 391.627 270.976 391.89z"/>
			<path style="stroke:none; fill:#99c" d="M 273.976 400.39C 273.976 400.652 273.763 400.865 273.5 400.865C 273.237 400.865 273.024 400.652 273.024 400.39C 273.024 400.127 273.237 399.915 273.5 399.915C 273.763 399.915 273.976 400.127 273.976 400.39z"/>
			<path style="stroke:none; fill:#99c" d="M 272.976 401.39C 272.976 401.652 272.763 401.865 272.5 401.865C 272.237 401.865 272.024 401.652 272.024 401.39C 272.024 401.127 272.237 400.915 272.5 400.915C 272.763 400.915 272.976 401.127 272.976 401.39z"/>
			<path style="stroke:none; fill:#93c" d="M 268.976 390.415C 268.976 390.677 268.763 390.89 268.5 390.89C 268.237 390.89 268.024 390.677 268.024 390.415C 268.024 390.152 268.237 389.94 268.5 389.94C 268.763 389.94 268.976 390.152 268.976 390.415z"/>
			<path style="stroke:none; fill:#93c" d="M 266.976 390.415C 266.976 390.677 266.763 390.89 266.5 390.89C 266.237 390.89 266.024 390.677 266.024 390.415C 266.024 390.152 266.237 389.94 266.5 389.94C 266.763 389.94 266.976 390.152 266.976 390.415z"/>
			<path style="stroke:none; fill:#390" d="M 281.976 388.365C 281.976 388.628 281.763 388.84 281.5 388.84C 281.237 388.84 281.024 388.628 281.024 388.365C 281.024 388.102 281.237 387.89 281.5 387.89C 281.763 387.89 281.976 388.102 281.976 388.365z"/>
			<path style="stroke:none; fill:#390" d="M 281.976 390.365C 281.976 390.628 281.763 390.84 281.5 390.84C 281.237 390.84 281.024 390.628 281.024 390.365C 281.024 390.102 281.237 389.89 281.5 389.89C 281.763 389.89 281.976 390.102 281.976 390.365z"/>
			<path style="stroke:none; fill:#390" d="M 282.976 389.365C 282.976 389.628 282.763 389.84 282.5 389.84C 282.237 389.84 282.024 389.628 282.024 389.365C 282.024 389.102 282.237 388.89 282.5 388.89C 282.763 388.89 282.976 389.102 282.976 389.365z"/>
			<path style="stroke:none; fill:#390" d="M 280.976 389.365C 280.976 389.628 280.763 389.84 280.5 389.84C 280.237 389.84 280.024 389.628 280.024 389.365C 280.024 389.102 280.237 388.89 280.5 388.89C 280.763 388.89 280.976 389.102 280.976 389.365z"/>
			<path style="stroke:none; fill:#390" d="M 285.976 390.39C 285.976 390.652 285.763 390.865 285.5 390.865C 285.237 390.865 285.024 390.652 285.024 390.39C 285.024 390.127 285.237 389.915 285.5 389.915C 285.763 389.915 285.976 390.127 285.976 390.39z"/>
			<path style="stroke:none; fill:#390" d="M 285.976 392.39C 285.976 392.652 285.763 392.865 285.5 392.865C 285.237 392.865 285.024 392.652 285.024 392.39C 285.024 392.127 285.237 391.915 285.5 391.915C 285.763 391.915 285.976 392.127 285.976 392.39z"/>
			<path style="stroke:none; fill:#390" d="M 286.976 391.39C 286.976 391.652 286.763 391.865 286.5 391.865C 286.237 391.865 286.024 391.652 286.024 391.39C 286.024 391.127 286.237 390.915 286.5 390.915C 286.763 390.915 286.976 391.127 286.976 391.39z"/>
			<path style="stroke:none; fill:#390" d="M 284.976 391.39C 284.976 391.652 284.763 391.865 284.5 391.865C 284.237 391.865 284.024 391.652 284.024 391.39C 284.024 391.127 284.237 390.915 284.5 390.915C 284.763 390.915 284.976 391.127 284.976 391.39z"/>
			<path style="stroke:none; fill:#99c" d="M 286.976 394.39C 286.976 394.652 286.763 394.865 286.5 394.865C 286.237 394.865 286.024 394.652 286.024 394.39C 286.024 394.127 286.237 393.915 286.5 393.915C 286.763 393.915 286.976 394.127 286.976 394.39z"/>
			<path style="stroke:none; fill:#99c" d="M 286.976 396.39C 286.976 396.652 286.763 396.865 286.5 396.865C 286.237 396.865 286.024 396.652 286.024 396.39C 286.024 396.127 286.237 395.915 286.5 395.915C 286.763 395.915 286.976 396.127 286.976 396.39z"/>
			<path style="stroke:none; fill:#ff0" d="M 287.976 395.39C 287.976 395.652 287.763 395.865 287.5 395.865C 287.237 395.865 287.024 395.652 287.024 395.39C 287.024 395.127 287.237 394.915 287.5 394.915C 287.763 394.915 287.976 395.127 287.976 395.39z"/>
			<path style="stroke:none; fill:#99c" d="M 285.976 395.39C 285.976 395.652 285.763 395.865 285.5 395.865C 285.237 395.865 285.024 395.652 285.024 395.39C 285.024 395.127 285.237 394.915 285.5 394.915C 285.763 394.915 285.976 395.127 285.976 395.39z"/>
			<path style="stroke:none; fill:#909" d="M 283.976 392.39C 283.976 392.652 283.763 392.865 283.5 392.865C 283.237 392.865 283.024 392.652 283.024 392.39C 283.024 392.127 283.237 391.915 283.5 391.915C 283.763 391.915 283.976 392.127 283.976 392.39z"/>
			<path style="stroke:none; fill:#909" d="M 283.976 394.39C 283.976 394.652 283.763 394.865 283.5 394.865C 283.237 394.865 283.024 394.652 283.024 394.39C 283.024 394.127 283.237 393.915 283.5 393.915C 283.763 393.915 283.976 394.127 283.976 394.39z"/>
			<path style="stroke:none; fill:#909" d="M 284.976 393.39C 284.976 393.652 284.763 393.865 284.5 393.865C 284.237 393.865 284.024 393.652 284.024 393.39C 284.024 393.127 284.237 392.915 284.5 392.915C 284.763 392.915 284.976 393.127 284.976 393.39z"/>
			<path style="stroke:none; fill:#909" d="M 282.976 393.39C 282.976 393.652 282.763 393.865 282.5 393.865C 282.237 393.865 282.024 393.652 282.024 393.39C 282.024 393.127 282.237 392.915 282.5 392.915C 282.763 392.915 282.976 393.127 282.976 393.39z"/>
			<path style="stroke:none; fill:#390" d="M 278.976 400.39C 278.976 400.652 278.763 400.865 278.5 400.865C 278.237 400.865 278.024 400.652 278.024 400.39C 278.024 400.127 278.237 399.915 278.5 399.915C 278.763 399.915 278.976 400.127 278.976 400.39z"/>
			<path style="stroke:none; fill:#390" d="M 278.976 402.39C 278.976 402.652 278.763 402.865 278.5 402.865C 278.237 402.865 278.024 402.652 278.024 402.39C 278.024 402.127 278.237 401.915 278.5 401.915C 278.763 401.915 278.976 402.127 278.976 402.39z"/>
			<path style="stroke:none; fill:#390" d="M 279.976 401.39C 279.976 401.652 279.763 401.865 279.5 401.865C 279.237 401.865 279.024 401.652 279.024 401.39C 279.024 401.127 279.237 400.915 279.5 400.915C 279.763 400.915 279.976 401.127 279.976 401.39z"/>
			<path style="stroke:none; fill:#390" d="M 277.976 401.39C 277.976 401.652 277.763 401.865 277.5 401.865C 277.237 401.865 277.024 401.652 277.024 401.39C 277.024 401.127 277.237 400.915 277.5 400.915C 277.763 400.915 277.976 401.127 277.976 401.39z"/>
			<path style="stroke:none; fill:#390" d="M 274.976 405.39C 274.976 405.652 274.763 405.865 274.5 405.865C 274.237 405.865 274.024 405.652 274.024 405.39C 274.024 405.127 274.237 404.915 274.5 404.915C 274.763 404.915 274.976 405.127 274.976 405.39z"/>
			<path style="stroke:none; fill:#390" d="M 274.976 407.39C 274.976 407.652 274.763 407.865 274.5 407.865C 274.237 407.865 274.024 407.652 274.024 407.39C 274.024 407.127 274.237 406.915 274.5 406.915C 274.763 406.915 274.976 407.127 274.976 407.39z"/>
			<path style="stroke:none; fill:#390" d="M 275.976 406.39C 275.976 406.652 275.763 406.865 275.5 406.865C 275.237 406.865 275.024 406.652 275.024 406.39C 275.024 406.127 275.237 405.915 275.5 405.915C 275.763 405.915 275.976 406.127 275.976 406.39z"/>
			<path style="stroke:none; fill:#390" d="M 273.976 406.39C 273.976 406.652 273.763 406.865 273.5 406.865C 273.237 406.865 273.024 406.652 273.024 406.39C 273.024 406.127 273.237 405.915 273.5 405.915C 273.763 405.915 273.976 406.127 273.976 406.39z"/>
			<path style="stroke:#f9c; stroke-width:1; fill:none" d="M 280 386.39L 272.5 393.89"/>
			<path style="stroke:#f9c; stroke-width:1; fill:none" d="M 276 390.89L 272 386.89"/>
			<path style="stroke:#93c; stroke-width:1; stroke-linecap:round; fill:none" d="M 266.5 392.403L 268.5 392.403"/>
			<path style="stroke:#390; stroke-width:1; stroke-linecap:round; fill:none" d="M 269.5 394.89L 269.5 396.89"/>
			<path style="stroke:#93c; stroke-width:1; stroke-linecap:round; fill:none" d="M 267.5 392.89L 267.5 394.89"/>
			<path style="stroke:#390; stroke-width:1; stroke-linecap:round; fill:none" d="M 277.5 403.39L 279.5 403.39"/>
			<path style="stroke:#390; stroke-width:1; stroke-linecap:round; fill:none" d="M 278.542 403.89L 278.542 405.39"/>
			<path style="stroke:#390; stroke-width:1; stroke-linecap:round; fill:none" d="M 273.5 408.39L 275.5 408.39"/>
			<path style="stroke:#909; stroke-width:1; stroke-linecap:round; fill:none" d="M 282.5 395.39L 284.5 395.39"/>
			<path style="stroke:#909; stroke-width:1; stroke-linecap:round; fill:none" d="M 283.5 397.39L 285.5 397.39"/>
			<path style="stroke:#909; stroke-width:1; stroke-linecap:round; fill:none" d="M 283.5 395.39L 283.5 396.89"/>
			<path style="stroke:#909; stroke-width:1; stroke-linecap:round; fill:none" d="M 271.215 405.105L 275.215 400.105"/>
			<path style="stroke:#909; stroke-width:1; fill:none" d="M 276 389.39L 271 394.39"/>
			<path style="stroke:#909; stroke-width:1; stroke-linecap:round; fill:none" d="M 277 408.987L 281 403.89"/>
			<path style="stroke:none; fill:#900" d="M 281 397.89L 271 397.89L 271 393.39L 281 393.39L 281 397.89z"/>
			<path style="stroke:#390; stroke-width:1; stroke-linecap:round; fill:none" d="M 267.5 394.89L 270.5 394.89L 270.5 393.89"/>
			<path style="stroke:#000; stroke-width:1; fill:none" d="M 271 391.39L 271 395.89"/>
			<path style="stroke:#000; stroke-width:1; fill:none" d="M 281 391.39L 281 395.89"/>
			<path style="stroke:#000; stroke-width:1; fill:none" d="M 279 386.39L 275.965 389.424L 273 386.459L 264.5 387.39C 264.5 387.39 264.5 395.89 264.5 396.89C 264.5 397.89 265 398.39 266.5 398.39C 268.5 398.39 270.5 395.89 271 395.39L 271 409.39L 275.5 409.39L 276.5 409.39L 281 409.39L 281 395.39C 281.5 395.89 283.5 398.39 285.5 398.39C 287 398.39 287.5 397.89 287.5 396.89C 287.5 395.89 287.5 387.39 287.5 387.39L 279 386.39z"/>
		</g>
	</g>
</svg>
