<svg xmlns="http://www.w3.org/2000/svg" width="24" height="24">
	<g transform="translate(-264,-386)" id="KDDI_D_413">
		<g>
			<path style="stroke:none; fill:none" d="M 288 409.89L 264 409.89L 264 385.89L 288 385.89L 288 409.89z"/>
		</g>
		<g>
			<path style="stroke:none; fill:#f66" d="M 276.5 409.39L 275.5 409.39C 275.5 409.39 273 406.89 271.5 405.39C 270 403.89 267.5 403.39 267.5 403.39L 267.5 401.39L 284.5 401.39L 284.5 403.39C 284.5 403.39 281.75 404.14 280.5 405.39C 279.25 406.64 276.5 409.39 276.5 409.39z"/>
			<path style="stroke:none; fill:#f00" d="M 273 405.39C 273.983 406.373 275.643 408.033 276.5 408.89C 277.406 407.983 279.663 406.227 280.5 405.39C 281.75 404.14 284.5 403.39 284.5 403.39L 284.5 401.39L 269.5 401.39L 269.5 402.89C 269.5 402.89 271.5 403.89 273 405.39z"/>
			<path style="stroke:none; fill:#c00" d="M 283 401.39L 283 403.39C 283 403.39 280.25 404.14 279 405.39C 278.236 406.153 276.914 407.476 276 408.39C 276.021 408.855 276 409.39 276 409.39L 276.5 409.39C 276.5 409.39 279.25 406.64 280.5 405.39C 281.75 404.14 284.5 403.39 284.5 403.39L 284.5 401.39L 283 401.39z"/>
			<path style="stroke:none; fill:#c00" d="M 282.375 389.39C 283.375 389.39 285.875 394.14 285.875 395.39C 285.875 395.89 284.875 397.39 281.375 397.39C 277.875 397.39 276.875 395.89 276.875 394.89C 276.875 393.89 281.875 389.39 282.375 389.39z"/>
			<path style="stroke:none; fill:#f66" d="M 269.5 389.39C 268.5 389.39 266 394.14 266 395.39C 266 395.89 267 397.39 270.5 397.39C 274 397.39 275 395.89 275 394.89C 275 393.89 270 389.39 269.5 389.39z"/>
			<path style="stroke:#600; stroke-width:1; fill:none" d="M 266 395.39L 264 395.39"/>
			<path style="stroke:#600; stroke-width:1; fill:none" d="M 277.5 395.39L 274.5 395.39"/>
			<path style="stroke:#600; stroke-width:1; fill:none" d="M 269.5 389.39L 269.5 385.939"/>
			<path style="stroke:#600; stroke-width:1; fill:none" d="M 286 395.39L 288 395.39"/>
			<path style="stroke:none; fill:#c00" d="M 270.559 390.1C 269.41 391.03 267.5 394.797 267.5 395.89C 267.5 396.17 267.814 396.762 268.703 397.231C 269.213 397.329 269.805 397.39 270.5 397.39C 274 397.39 275 395.89 275 394.89C 275 394.138 272.174 391.408 270.559 390.1z"/>
			<path style="stroke:#600; stroke-width:1; fill:none" d="M 282.5 389.39L 282.5 385.939"/>
			<path style="stroke:none; fill:#f00" d="M 270.242 390.41C 269.09 391.672 267.5 394.892 267.5 395.89C 267.5 396.054 267.628 396.327 267.897 396.618C 268.235 396.654 268.596 396.68 269 396.68C 272.5 396.68 273.5 395.18 273.5 394.18C 273.5 393.591 271.769 391.792 270.242 390.41z"/>
			<path style="stroke:none; fill:#f66" d="M 276.875 394.89C 276.875 395.473 277.22 396.224 278.196 396.75C 278.679 396.838 279.234 396.89 279.875 396.89C 283.375 396.89 284.375 395.39 284.375 394.89C 284.375 393.958 282.986 391.084 281.865 389.679C 280.471 390.678 276.875 394.041 276.875 394.89z"/>
			<path style="stroke:none; fill:#f00" d="M 278.875 394.89C 278.673 395.092 277.92 395.415 277.061 395.647C 277.22 395.972 277.494 396.299 277.915 396.581C 279.241 396.698 280.746 396.827 280.882 396.84C 283.566 396.585 284.375 395.338 284.375 394.89C 284.375 394.151 283.295 391.37 282.375 389.89C 280.763 391.297 279.375 394.39 278.875 394.89z"/>
			<path style="stroke:#600; stroke-width:1; fill:none" d="M 269.5 389.39C 268.5 389.39 266 394.14 266 395.39C 266 395.89 267 397.39 270.5 397.39C 274 397.39 275 395.89 275 394.89C 275 393.89 270 389.39 269.5 389.39z"/>
			<path style="stroke:#600; stroke-width:1; fill:none" d="M 282.375 389.39C 283.375 389.39 285.875 394.14 285.875 395.39C 285.875 395.89 284.875 397.39 281.375 397.39C 277.875 397.39 276.875 395.89 276.875 394.89C 276.875 393.89 281.875 389.39 282.375 389.39z"/>
			<path style="stroke:#600; stroke-width:1; fill:none" d="M 276.5 409.39L 275.5 409.39C 275.5 409.39 273 406.89 271.5 405.39C 270 403.89 267.5 403.39 267.5 403.39L 267.5 401.39L 284.5 401.39L 284.5 403.39C 284.5 403.39 281.75 404.14 280.5 405.39C 279.25 406.64 276.5 409.39 276.5 409.39z"/>
		</g>
	</g>
</svg>
