<svg xmlns="http://www.w3.org/2000/svg" width="24" height="24">
	<g transform="translate(-264,-386)" id="KDDI_D_414">
		<g>
			<path style="stroke:none; fill:none" d="M 288 409.89L 264 409.89L 264 385.89L 288 385.89L 288 409.89z"/>
		</g>
		<g>
			<path style="stroke:none; fill:#900" d="M 276 388.552C 275.275 387.604 273.614 385.952 270.819 385.952C 266.697 385.952 264.065 389.018 264.065 393.952C 264.065 398.04 266.905 401.004 268.393 402.595L 268.677 402.902C 269.926 404.257 270.963 405.298 275.668 409.587L 276 409.89L 276.336 409.587C 281.039 405.299 282.078 404.257 283.326 402.902L 283.611 402.595C 285.099 401.004 287.95 398.04 287.95 393.952C 287.95 389.018 285.306 385.952 281.185 385.952C 278.389 385.952 276.728 387.604 276 388.552z"/>
			<path style="stroke:none; fill:#930" d="M 282.269 403.168C 282.272 403.165 282.653 402.754 282.653 402.754C 284.076 401.233 287.615 397.715 287.921 393.091C 287.628 388.664 285.06 385.952 281.185 385.952C 278.389 385.952 276.728 387.604 276 388.552C 275.275 387.604 273.614 385.952 270.819 385.952C 266.697 385.952 264.065 389.018 264.065 393.952C 264.065 398.04 266.905 401.004 268.393 402.595L 268.677 402.902C 269.926 404.257 270.963 405.298 275.668 409.587L 276 409.89L 276 409.108C 280.369 405.123 281.075 404.464 282.269 403.168z"/>
			<path style="stroke:none; fill:#c30" d="M 282.595 401.569C 282.598 401.565 282.979 401.155 282.979 401.155C 284.466 399.567 286.776 396.838 286.956 393.952C 287.242 389.282 284.913 386.367 281.724 385.978C 281.546 385.965 281.369 385.952 281.185 385.952C 278.389 385.952 276.728 387.604 276 388.552C 275.275 387.604 273.614 385.952 270.819 385.952C 266.697 385.952 264.065 389.018 264.065 393.952C 264.065 398.04 266.905 401.004 268.393 402.595L 268.677 402.902C 269.926 404.257 270.963 405.298 275.668 409.587L 276 409.89L 276 407.93C 280.369 403.943 281.402 402.866 282.595 401.569z"/>
			<path style="stroke:none; fill:#f30" d="M 280.874 386.263C 279.911 386.263 279.13 386.429 278.477 386.676C 277.181 387.571 276.308 389.109 276 390.928C 275.64 388.801 274.512 387.051 272.832 386.273C 272.239 386.079 271.574 385.952 270.819 385.952C 266.697 385.952 264.065 389.018 264.065 393.952C 264.065 396.778 266.678 399.459 268.213 400.894C 270.479 403.012 276 406.39 276 406.39C 276 406.39 279.736 403.333 281.5 401.569C 283.264 399.806 286 396.567 286 393.39C 286 389.351 283.689 386.263 280.874 386.263z"/>
			<path style="stroke:none; fill:#f63" d="M 273.93 402.096C 271.947 401.197 270.219 399.746 269.469 399.061C 268.415 398.1 266.249 395.79 266.249 392.817C 266.249 390.965 267.177 389.087 269.809 389.087C 271.225 389.087 272.502 390.189 273 390.835C 273 390.835 270.77 390.986 270.77 393.831C 270.77 395.653 270.678 397.356 273.93 402.096z"/>
			<path style="stroke:none; fill:#f96" d="M 266.743 392.817C 266.743 395.504 268.66 397.654 269.803 398.695C 270.252 399.103 271.228 399.93 272.43 400.697C 270.344 397.282 270.275 395.652 270.275 394.129C 270.275 394.079 270.275 393.831 270.275 393.831C 270.275 391.921 271.213 390.99 272.08 390.592C 271.502 390.081 270.668 389.582 269.809 389.582C 267.042 389.582 266.743 391.843 266.743 392.817z"/>
			<path style="stroke:none; fill:#fff" d="M 267.735 392.817C 267.735 394.59 268.744 396.117 269.678 397.157C 269.35 396.007 269.283 395.038 269.283 394.02C 269.283 394.005 269.283 393.831 269.283 393.831C 269.283 392.418 269.738 391.4 270.365 390.684C 270.178 390.618 269.988 390.574 269.809 390.574C 269.295 390.574 267.735 390.574 267.735 392.817z"/>
		</g>
	</g>
</svg>
