<svg xmlns="http://www.w3.org/2000/svg" width="24" height="24">
	<g transform="translate(-264,-386)" id="KDDI_D_420">
		<g>
			<path style="stroke:none; fill:none" d="M 288 409.89L 264 409.89L 264 385.89L 288 385.89L 288 409.89z"/>
		</g>
		<g>
			<path style="stroke:none; fill:#f3f" d="M 288 396.39L 284.466 395.747C 283.385 395.55 282.4 394.495 282.279 393.402L 282.278 393.395L 281.5 386.39L 280.722 393.395L 280.721 393.402C 280.6 394.495 279.615 395.55 278.534 395.747L 275 396.39L 278.534 397.032C 279.615 397.23 280.6 398.285 280.721 399.378L 280.722 399.385L 281.5 406.39L 282.278 399.385L 282.279 399.378C 282.4 398.285 283.385 397.23 284.466 397.032L 288 396.39z"/>
			<path style="stroke:none; fill:#f60" d="M 270.425 392.39L 268.835 392.101C 268.348 392.012 267.905 391.537 267.851 391.045L 267.851 391.042L 267.5 387.89L 267.15 391.042L 267.149 391.045C 267.095 391.537 266.652 392.012 266.165 392.101L 264.575 392.39L 266.165 392.679C 266.652 392.768 267.095 393.242 267.149 393.734L 267.15 393.737L 267.5 396.89L 267.851 393.737L 267.851 393.734C 267.905 393.242 268.348 392.768 268.835 392.679L 270.425 392.39z"/>
			<path style="stroke:none; fill:#0ff" d="M 276.7 401.39L 273.873 400.876C 273.008 400.718 272.22 399.874 272.123 399L 272.123 398.994L 271.5 393.39L 270.877 398.994L 270.876 399C 270.779 399.874 269.992 400.718 269.127 400.876L 266.3 401.39L 269.127 401.904C 269.992 402.062 270.779 402.906 270.876 403.78L 270.877 403.786L 271.5 409.39L 272.123 403.786L 272.123 403.78C 272.22 402.906 273.008 402.062 273.873 401.904L 276.7 401.39z"/>
		</g>
		<g>
			<path style="stroke:none; fill:#0ff" d="M 274.5 401.39L 272.835 401.101C 272.348 401.012 271.905 400.537 271.851 400.045L 271.851 400.042L 271.5 396.89L 271.15 400.042L 271.149 400.045C 271.095 400.537 270.652 401.012 270.165 401.101L 268.5 401.39L 270.165 401.679C 270.652 401.768 271.095 402.242 271.149 402.734L 271.15 402.737L 271.5 405.89L 271.851 402.737L 271.851 402.734C 271.905 402.242 272.348 401.768 272.835 401.679L 274.5 401.39z"/>
			<path style="stroke:none; fill:#f3f" d="M 286 396.39L 283.446 395.968C 282.736 395.838 282.091 395.147 282.011 394.43L 281.5 389.841L 280.989 394.425L 280.989 394.43C 280.909 395.147 280.264 395.838 279.554 395.968L 277 396.39L 279.554 396.811C 280.264 396.941 280.909 397.633 280.989 398.35L 280.989 398.354L 281.5 402.89L 282.011 398.354L 282.011 398.35C 282.091 397.633 282.736 396.941 283.446 396.811L 286 396.39z"/>
			<path style="stroke:none; fill:#f60" d="M 269.446 391.968C 268.736 391.838 268.091 391.147 268.011 390.43L 268.011 390.425L 267.5 385.89L 266.989 390.425L 266.989 390.43C 266.909 391.147 266.264 391.838 265.554 391.968L 264 392.225L 264 392.555L 265.554 392.811C 266.264 392.941 266.909 393.633 266.989 394.35L 266.989 394.354L 267.5 398.89L 268.011 394.354L 268.011 394.35C 268.091 393.633 268.736 392.941 269.446 392.811L 272 392.39L 269.446 391.968z"/>
		</g>
		<g>
			<path style="stroke:none; fill:#f60" d="M 270.425 392.39L 268.835 392.101C 268.348 392.012 267.905 391.537 267.851 391.045L 267.851 391.042L 267.5 387.89L 267.15 391.042L 267.149 391.045C 267.095 391.537 266.652 392.012 266.165 392.101L 264.575 392.39L 266.165 392.679C 266.652 392.768 267.095 393.242 267.149 393.734L 267.15 393.737L 267.5 396.89L 267.851 393.737L 267.851 393.734C 267.905 393.242 268.348 392.768 268.835 392.679L 270.425 392.39z"/>
			<path style="stroke:none; fill:#f3f" d="M 284.35 396.39L 282.76 396.101C 282.273 396.012 281.83 395.537 281.775 395.045L 281.775 395.042L 281.425 391.89L 281.075 395.042L 281.074 395.045C 281.02 395.537 280.577 396.012 280.09 396.101L 278.5 396.39L 280.09 396.679C 280.577 396.768 281.02 397.242 281.074 397.734L 281.075 397.737L 281.425 400.89L 281.775 397.737L 281.775 397.734C 281.83 397.242 282.273 396.768 282.76 396.679L 284.35 396.39z"/>
		</g>
		<g>
			<path style="stroke:none; fill:#0ff" d="M 274.5 401.39L 272.91 401.101C 272.423 401.012 271.98 400.537 271.926 400.045L 271.926 400.042L 271.575 396.89L 271.225 400.042L 271.225 400.045C 271.17 400.537 270.727 401.012 270.24 401.101L 268.65 401.39L 270.24 401.679C 270.727 401.768 271.17 402.242 271.225 402.734L 271.225 402.737L 271.575 405.89L 271.926 402.737L 271.926 402.734C 271.98 402.242 272.423 401.768 272.91 401.679L 274.5 401.39z"/>
		</g>
		<g>
			<path style="stroke:none; fill:#f60" d="M 270.425 392.39L 268.835 392.101C 268.348 392.012 267.905 391.537 267.851 391.045L 267.851 391.042L 267.5 387.89L 267.15 391.042L 267.149 391.045C 267.095 391.537 266.652 392.012 266.165 392.101L 264.575 392.39L 266.165 392.679C 266.652 392.768 267.095 393.242 267.149 393.734L 267.15 393.737L 267.5 396.89L 267.851 393.737L 267.851 393.734C 267.905 393.242 268.348 392.768 268.835 392.679L 270.425 392.39z"/>
			<path style="stroke:none; fill:#0ff" d="M 276.7 401.39L 273.873 400.876C 273.008 400.718 272.22 399.874 272.123 399L 272.123 398.994L 271.5 393.39L 270.877 398.994L 270.876 399C 270.779 399.874 269.992 400.718 269.127 400.876L 266.3 401.39L 269.127 401.904C 269.992 402.062 270.779 402.906 270.876 403.78L 270.877 403.786L 271.5 409.39L 272.123 403.786L 272.123 403.78C 272.22 402.906 273.008 402.062 273.873 401.904L 276.7 401.39z"/>
			<path style="stroke:none; fill:#f3f" d="M 284.35 396.39L 282.76 396.101C 282.273 396.012 281.83 395.537 281.775 395.045L 281.775 395.042L 281.425 391.89L 281.075 395.042L 281.074 395.045C 281.02 395.537 280.577 396.012 280.09 396.101L 278.5 396.39L 280.09 396.679C 280.577 396.768 281.02 397.242 281.074 397.734L 281.075 397.737L 281.425 400.89L 281.775 397.737L 281.775 397.734C 281.83 397.242 282.273 396.768 282.76 396.679L 284.35 396.39z"/>
		</g>
		<g>
			<path style="stroke:none; fill:#f3f" d="M 286 396.39L 283.446 395.968C 282.736 395.838 282.091 395.147 282.011 394.43L 281.5 389.841L 280.989 394.425L 280.989 394.43C 280.909 395.147 280.264 395.838 279.554 395.968L 277 396.39L 279.554 396.811C 280.264 396.941 280.909 397.633 280.989 398.35L 280.989 398.354L 281.5 402.89L 282.011 398.354L 282.011 398.35C 282.091 397.633 282.736 396.941 283.446 396.811L 286 396.39z"/>
			<path style="stroke:none; fill:#0ff" d="M 274.5 401.39L 272.91 401.101C 272.423 401.012 271.98 400.537 271.926 400.045L 271.926 400.042L 271.575 396.89L 271.225 400.042L 271.225 400.045C 271.17 400.537 270.727 401.012 270.24 401.101L 268.65 401.39L 270.24 401.679C 270.727 401.768 271.17 402.242 271.225 402.734L 271.225 402.737L 271.575 405.89L 271.926 402.737L 271.926 402.734C 271.98 402.242 272.423 401.768 272.91 401.679L 274.5 401.39z"/>
			<path style="stroke:none; fill:#f60" d="M 269.446 391.968C 268.736 391.838 268.091 391.147 268.011 390.43L 268.011 390.425L 267.5 385.89L 266.989 390.425L 266.989 390.43C 266.909 391.147 266.264 391.838 265.554 391.968L 264 392.225L 264 392.555L 265.554 392.811C 266.264 392.941 266.909 393.633 266.989 394.35L 266.989 394.354L 267.5 398.89L 268.011 394.354L 268.011 394.35C 268.091 393.633 268.736 392.941 269.446 392.811L 272 392.39L 269.446 391.968z"/>
		</g>
	</g>
</svg>
