<svg xmlns="http://www.w3.org/2000/svg" height="24" width="24">
    <g transform="matrix(1,0,0,-1,-264,408)" id="KDDI_D_">        <path d="M271.5 407.4c.2-.1.2-.4.1-.5l-3.4-5.3c-.1-.1-.3-.2-.5-.1l-.9.6c-.1.1-.2.3 0 .5l3.3 5.2c.2.2.4.3.5.2z"/>
        <path d="M272.6 388.4l-1 1c-.6.6-.7 1.8-.5 2.9.3 1.1 1 3.6 1.3 4.4.3.9.2 1.3-.2 1.7-.4.3-4.8 3.1-4.8 3.1l3.9 6.3s7.8-5.1 8.8-5.9c1-.8 3-3.1 3-3.1z" fill="#f36"/>
        <path d="M272.2 391.5c0 .4 0 .8.1 1.2.2 1.1 1 3.5 1.3 4.4.1.5.3 1 .4 1.5.2.5 0 1.2-.9 1.7-1.6 1.1-4.6 3-4.6 3l-.5-.9s2.9-1.8 4.2-2.7c.3-.2.8-.9.7-1.3-.1-.6-.3-1.2-.5-1.7-.3-.8-1-3.3-1.3-4.4-.1-.5-.1-.9-.1-1.3 0-.7.6-.7.8-.6.2.1.4.4.4 1.1z" fill="#f69"/>
        <path d="M280.1 401.9c-1 .8-8.8 5.9-8.8 5.9l-.8-1.4c2.2-1.4 6.8-4.5 7.6-5.1 1-.8 2.3-3.7.6-5.4l-6.8-6.8.7-.7 10.5 10.4s-2 2.3-3 3.1z" fill="#c36"/>
        <path d="M280.1 401.9c-1 .8-8.8 5.9-8.8 5.9l-.3-.6c1.7-1.2 7.3-4.8 8.2-5.5 1-.9 2.6-3.5 1.1-5l-8-8 .3-.3 10.5 10.4s-2 2.3-3 3.1z" fill="#936"/>
        <path d="M274.4 405.9l-4-6.4-1.2.7 4.1 6.4zM277 396.6c-.2-.6-1.2-.5-1.2-.5l-3.7.2.3 1.3s3.6-.2 4-.3c.4 0 .7-.2.6-.7z" fill="#fff"/>
        <path d="M274.4 396.2l-2.3.1.2 1.3 2.2-.1z" fill="#ccc"/>
        <path d="M274.5 396l-1.5.1.2 1.6 1.4-.1z" fill="#999"/>
        <path d="M275.3 393.4c-.2-.6-1-.6-1-.6l-3.2.2.3 1.3s3.1-.2 3.4-.2c.3-.1.6-.2.5-.7z" fill="#fff"/>
        <path d="M273.1 392.9l-2 .1.2 1.3 1.9-.1z" fill="#ccc"/>
        <path d="M273.1 392.8h-1.2l.2 1.6 1.1-.1zM270.4 399.5l.8 1.3-1.1.7-.9-1.3z" fill="#999"/>
        <path d="M264.8 387.7s.3-2.6 2.3-3c1.4-.2 2.7.3 4 1.6l16.2 16.2" fill="none" stroke="#33f" stroke-width="1.5" stroke-linecap="round"/>
    </g>
</svg>
