<svg xmlns="http://www.w3.org/2000/svg" width="24" height="24">
	<g transform="translate(-288,-386)" id="KDDI_D_422">
		<g>
			<path style="stroke:none; fill:none" d="M 312 409.89L 288 409.89L 288 385.89L 312 385.89L 312 409.89z"/>
		</g>
		<g>
			<path style="stroke:#990000; stroke-width:2; fill:none" d="M 311 398.39C 311 404.189 306.299 408.89 300.5 408.89C 294.701 408.89 290 404.189 290 398.39C 290 392.591 294.701 387.89 300.5 387.89C 306.299 387.89 311 392.591 311 398.39z"/>
			<path style="stroke:#ff0000; stroke-width:2; fill:none" d="M 310 397.39C 310 403.189 305.299 407.89 299.5 407.89C 293.701 407.89 289 403.189 289 397.39C 289 391.591 293.701 386.89 299.5 386.89C 305.299 386.89 310 391.591 310 397.39z"/>
		</g>
	</g>
</svg>
