<svg xmlns="http://www.w3.org/2000/svg" width="24" height="24">
	<g transform="translate(-264,-386)" id="KDDI_D_423">
		<g>
			<path style="stroke:none; fill:none" d="M 288 409.89L 264 409.89L 264 385.89L 288 385.89L 288 409.89z"/>
		</g>
		<g>
			<path style="stroke:none; fill:#600" d="M 288 405.108C 288 405.108 288 405.592 288 406.171C 288 408.225 282.627 409.89 276 409.89C 269.373 409.89 264 408.225 264 406.171C 264 406.056 264 405.108 264 405.108C 264 405.108 269.743 402.452 276 402.452C 282.291 402.452 288 405.108 288 405.108z"/>
			<path style="stroke:none; fill:#c63" d="M 288 405.108C 288 407.162 282.627 408.827 276 408.827C 269.373 408.827 264 407.162 264 405.108C 264 403.055 269.373 401.39 276 401.39C 282.627 401.39 288 403.055 288 405.108z"/>
			<path style="stroke:none; fill:#930" d="M 284.5 405.89C 284.5 407.546 280.694 408.89 276 408.89C 271.306 408.89 267.5 407.546 267.5 405.89C 267.5 404.233 271.306 402.89 276 402.89C 280.694 402.89 284.5 404.233 284.5 405.89z"/>
			<path style="stroke:none; fill:#fff" d="M 276 386.39C 270.201 386.39 265.5 388.181 265.5 390.39L 265.5 399.89C 265.5 402.099 270.201 404.89 276 404.89C 281.799 404.89 286.5 402.099 286.5 399.89L 286.5 390.39C 286.5 388.181 281.799 386.39 276 386.39z"/>
			<path style="stroke:none; fill:#ccc" d="M 277 394.371L 277 405.355C 279.517 405.191 281.774 404.428 283.457 403.448C 283.72 403.152 283.916 402.947 284 402.898L 284 392.977C 282.277 393.75 279.8 394.27 277 394.371z"/>
			<path style="stroke:none; fill:#999" d="M 271.5 403.89L 271.5 405.39C 271.5 406.494 273.515 407.39 276 407.39C 278.485 407.39 280.5 406.494 280.5 405.39L 280.5 403.89"/>
			<path style="stroke:none; fill:#333" d="M 271.5 403.89L 271.5 405.39C 271.5 405.862 271.884 406.29 272.5 406.632L 272.5 403.89L 271.5 403.89z"/>
			<path style="stroke:none; fill:#333" d="M 279.5 406.632C 280.116 406.29 280.5 405.862 280.5 405.39L 280.5 403.89L 279.5 403.89L 279.5 406.632z"/>
			<path style="stroke:none; fill:#ccc" d="M 268 402.898C 268.585 403.243 269.257 403.562 270 403.839L 270 393.67C 269.257 393.472 268.585 393.239 268 392.977L 268 402.898z"/>
			<path style="stroke:none; fill:#999" d="M 284 392.977L 284 402.898C 285.557 401.979 286.5 400.877 286.5 399.89L 286.5 390.39C 286.5 391.377 285.557 392.279 284 392.977z"/>
			<path style="stroke:none; fill:#999" d="M 265.5 390.39L 265.5 399.89C 265.5 400.877 266.443 401.979 268 402.898L 268 392.977C 266.443 392.279 265.5 391.377 265.5 390.39z"/>
			<path style="stroke:none; fill:#999" d="M 266 389.171L 266 391.608C 266.708 392.452 268.133 393.173 270 393.67L 270 387.11C 268.133 387.607 266.708 388.327 266 389.171z"/>
			<path style="stroke:none; fill:#999" d="M 286 391.608L 286 389.171C 285.292 388.327 283.867 387.607 282 387.11L 282 393.67C 283.867 393.173 285.292 392.452 286 391.608z"/>
			<path style="stroke:none; fill:#ccc" d="M 270 387.11L 270 393.67C 270.622 393.835 271.29 393.976 272 394.088L 272 386.692C 271.29 386.803 270.622 386.944 270 387.11z"/>
			<path style="stroke:none; fill:#ccc" d="M 280 386.692L 280 394.088C 280.71 393.976 281.378 393.835 282 393.67L 282 387.11C 281.378 386.944 280.71 386.803 280 386.692z"/>
			<path style="stroke:none; fill:#ccc" d="M 277 386.409C 276.67 386.397 276.337 386.39 276 386.39C 275.663 386.39 275.33 386.397 275 386.409L 275 390.371L 277 390.371L 277 386.409z"/>
			<path style="stroke:none; fill:#9c6" d="M 276 403.39C 275.448 403.39 275 402.942 275 402.39L 275 401.89L 275 397.89C 275 397.338 274.552 396.89 274 396.89C 273.448 396.89 273 397.338 273 397.89C 273 397.89 273 402.341 273 402.89C 273 403.439 272.5 403.362 272.5 402.89C 272.5 402.418 272.5 401.39 272.5 401.39C 272.5 401.113 272.276 400.89 272 400.89C 271.724 400.89 271.5 401.113 271.5 401.39C 271.5 401.39 271.5 401.882 271.5 402.39C 271.5 402.897 271 402.89 271 402.39C 271 401.89 271 399.39 271 399.39C 271 398.838 270.552 398.39 270 398.39L 270 404.074C 271.233 404.66 272.716 405.109 274.353 405.293C 274.425 405.3 274.497 405.308 274.569 405.315C 275.037 405.36 275.513 405.39 276 405.39C 276.34 405.39 276.669 405.362 277 405.338L 277 402.39C 277 402.942 276.552 403.39 276 403.39z"/>
			<path style="stroke:none; fill:#360" d="M 267.5 395.89C 267.224 395.89 267 396.113 267 396.39L 267 397.467C 267 397.191 266.776 396.967 266.5 396.967C 266.224 396.967 266 397.191 266 397.467L 266 401.254C 266.248 401.618 266.589 401.986 267 402.346L 267 401.764C 267.246 402.124 267.591 402.48 268 402.822L 268 400.39L 268 396.39C 268 396.113 267.776 395.89 267.5 395.89z"/>
			<path style="stroke:none; fill:#693" d="M 269 399.39L 269 400.39C 269 400.666 268.776 400.89 268.5 400.89C 268.224 400.89 268 400.666 268 400.39L 268 402.822C 268.544 403.278 269.219 403.703 270 404.074L 270 398.39C 269.448 398.39 269 398.838 269 399.39z"/>
			<path style="stroke:none; fill:#693" d="M 277.647 405.293C 280.319 404.993 282.596 403.998 284 402.825L 284 399.39C 284 399.666 283.776 399.89 283.5 399.89C 283.224 399.89 283 399.666 283 399.39L 283 398.39C 283 397.838 282.552 397.39 282 397.39C 281.448 397.39 281 397.838 281 398.39C 281 398.39 281 400.403 281 401.39C 281 401.89 280.5 401.89 280.5 401.39C 280.5 400.89 280.5 400.89 280.5 400.89C 280.5 400.613 280.276 400.39 280 400.39C 279.724 400.39 279.5 400.613 279.5 400.89C 279.5 400.89 279.5 401.882 279.5 402.39C 279.5 402.897 279 402.89 279 402.39C 279 401.89 279 397.89 279 397.89C 279 397.338 278.552 396.89 278 396.89C 277.448 396.89 277 397.338 277 397.89L 277 401.89L 277 402.39L 277 405.338C 277.142 405.327 277.289 405.329 277.429 405.316C 277.501 405.309 277.574 405.3 277.647 405.293z"/>
			<path style="stroke:none; fill:#360" d="M 284 402.825C 284.409 402.483 284.753 402.129 285 401.77L 285 402.346C 285.411 401.986 285.752 401.618 286 401.254L 286 397.467C 286 397.191 285.776 396.967 285.5 396.967C 285.224 396.967 285 397.191 285 397.467L 285 395.39C 285 395.113 284.776 394.89 284.5 394.89C 284.224 394.89 284 395.113 284 395.39L 284 399.39L 284 402.825z"/>
			<path style="stroke:none; fill:#693" d="M 276 394.39C 279.69 394.39 282.929 393.663 284.801 392.567C 284.389 390.785 280.608 389.39 276 389.39C 271.392 389.39 267.611 390.785 267.199 392.567C 269.071 393.663 272.31 394.39 276 394.39z"/>
			<path style="stroke:none; fill:#fff" d="M 281.152 390.049C 280.344 389.819 279.437 389.639 278.456 389.527C 278.261 390.111 277.386 392.422 275.5 393.39C 275.5 393.39 278.741 392.499 281.152 390.049z"/>
			<path style="stroke:none; fill:#9c6" d="M 280 392.89C 281.322 392.008 281.951 391.128 282.243 390.417C 281.65 390.182 280.975 389.981 280.233 389.82C 279.892 390.312 279.199 391.145 278 391.89C 276.167 393.028 271.438 393.89 271.438 393.89L 275.92 394.388C 275.928 394.388 275.936 394.388 275.944 394.388C 276.016 394.374 278.546 393.859 280 392.89z"/>
			<path style="stroke:#666; stroke-width:1; fill:none" d="M 286.5 390.39C 286.5 392.599 281.799 394.39 276 394.39C 270.201 394.39 265.5 392.599 265.5 390.39C 265.5 388.181 270.201 386.39 276 386.39C 281.799 386.39 286.5 388.181 286.5 390.39z"/>
			<path style="stroke:#333; stroke-width:1; fill:none" d="M 276 386.39C 270.201 386.39 265.5 388.181 265.5 390.39L 265.5 399.89C 265.5 402.099 270.201 405.39 276 405.39C 281.799 405.39 286.5 402.099 286.5 399.89L 286.5 390.39C 286.5 388.181 281.799 386.39 276 386.39z"/>
		</g>
	</g>
</svg>
