<svg xmlns="http://www.w3.org/2000/svg" width="24" height="24">
	<g transform="translate(-264,-386)" id="KDDI_D_424">
		<g>
			<path style="stroke:none; fill:none" d="M 288 409.89L 264 409.89L 264 385.89L 288 385.89L 288 409.89z"/>
		</g>
		<g>
			<path style="stroke:none; fill:#930" d="M 272.5 386.39L 283.5 386.39C 286.449 386.39 287.5 388.198 287.5 389.89C 287.5 391.207 286.559 392.32 285.872 393.133C 285.872 393.133 285.586 393.492 285.5 393.601C 285.5 394.01 285.5 406.39 285.5 406.39L 282.5 409.39L 266.5 409.39C 266.5 409.39 266.5 396.649 266.5 396.15C 266.407 396.052 266.274 395.912 266.274 395.912C 265.611 395.248 264.5 394.137 264.5 392.39C 264.5 391.493 264.794 390.565 265.51 389.889L 267.5 387.89C 268.5 386.89 269.964 386.426 271 386.426C 272.036 386.426 272.5 386.39 272.5 386.39z"/>
			<path style="stroke:none; fill:#600" d="M 285.5 393.39C 285.586 393.281 285.872 393.133 285.872 393.133C 286.559 392.32 287.5 391.207 287.5 389.89C 287.5 389.726 287.481 389.562 287.46 389.398L 280.5 396.39L 280.5 398.39C 280.5 398.39 285.5 393.421 285.5 393.39z"/>
			<path style="stroke:none; fill:#f96" d="M 280.5 396.39L 287.426 389.163C 287.153 387.718 286.027 386.39 283.5 386.39L 272.5 386.39C 272.5 386.39 272.036 386.426 271 386.426C 269.964 386.426 268.5 386.89 267.5 387.89L 265.51 389.889C 264.794 390.565 264.5 391.493 264.5 392.39C 264.5 394.137 265.611 395.248 266.274 395.912C 266.274 395.912 266.407 396.052 266.5 396.15C 266.5 396.182 266.5 396.265 266.5 396.39L 280.5 396.39z"/>
			<path style="stroke:none; fill:#c66" d="M 285.5 386.89C 284.911 386.5 284.84 386.39 284 386.39C 284 386.39 275 386.39 271.5 386.39C 271.118 386.39 271.315 386.403 271 386.426L 266.536 390.89L 272.5 394.39L 281.875 390.515L 285.5 386.89z"/>
			<path style="stroke:none; fill:#930" d="M 286.942 387.947L 280.5 394.39L 280.5 396.89L 287.46 389.898C 287.469 389.966 287.325 388.535 286.942 387.947z"/>
			<path style="stroke:none; fill:#fff" d="M 267.5 408.39C 267.5 408.39 267.5 396.89 267.5 395.89C 267.5 395.39 265.5 394.39 265.5 392.39C 265.5 390.89 266.5 389.89 268.5 389.89C 270.5 389.89 277.5 389.89 279.5 389.89C 281.5 389.89 282.5 390.89 282.5 392.39C 282.5 393.89 280.5 395.39 280.5 395.89C 280.5 396.39 280.5 408.39 280.5 408.39L 267.5 408.39z"/>
			<path style="stroke:#fc9; stroke-width:1; fill:none" d="M 267.5 408.39C 267.5 408.39 267.5 396.89 267.5 395.89C 267.5 395.39 265.5 394.39 265.5 392.39C 265.5 390.89 266.5 389.89 268.5 389.89C 270.5 389.89 277.5 389.89 279.5 389.89C 281.5 389.89 282.5 390.89 282.5 392.39C 282.5 393.89 280.5 395.39 280.5 395.89C 280.5 396.39 280.5 408.39 280.5 408.39L 267.5 408.39z"/>
			<path style="stroke:none; fill:#600" d="M 282.5 409.39L 285.5 406.39C 285.5 406.39 285.5 405.763 285.5 404.791L 280.758 409.39L 282.5 409.39z"/>
			<path style="stroke:#333; stroke-width:1; fill:none" d="M 272.5 386.39L 283.5 386.39C 286.449 386.39 287.5 388.198 287.5 389.89C 287.5 391.207 286.559 392.32 285.872 393.133C 285.872 393.133 285.586 393.492 285.5 393.601C 285.5 394.01 285.5 406.39 285.5 406.39L 282.5 409.39L 266.5 409.39C 266.5 409.39 266.5 396.649 266.5 396.15C 266.407 396.052 266.274 395.912 266.274 395.912C 265.611 395.248 264.5 394.137 264.5 392.39C 264.5 391.493 264.794 390.565 265.51 389.889L 267.5 387.89C 268.5 386.89 269.964 386.426 271 386.426C 272.036 386.426 272.5 386.39 272.5 386.39z"/>
			<path style="stroke:none; fill:#ffc" d="M 269.976 406.39C 269.976 406.652 269.763 406.865 269.5 406.865C 269.237 406.865 269.024 406.652 269.024 406.39C 269.024 406.127 269.237 405.915 269.5 405.915C 269.763 405.915 269.976 406.127 269.976 406.39z"/>
			<path style="stroke:none; fill:#ffc" d="M 271.976 406.39C 271.976 406.652 271.763 406.865 271.5 406.865C 271.237 406.865 271.024 406.652 271.024 406.39C 271.024 406.127 271.237 405.915 271.5 405.915C 271.763 405.915 271.976 406.127 271.976 406.39z"/>
			<path style="stroke:none; fill:#ffc" d="M 273.976 406.39C 273.976 406.652 273.763 406.865 273.5 406.865C 273.237 406.865 273.024 406.652 273.024 406.39C 273.024 406.127 273.237 405.915 273.5 405.915C 273.763 405.915 273.976 406.127 273.976 406.39z"/>
			<path style="stroke:none; fill:#ffc" d="M 275.976 406.39C 275.976 406.652 275.763 406.865 275.5 406.865C 275.237 406.865 275.024 406.652 275.024 406.39C 275.024 406.127 275.237 405.915 275.5 405.915C 275.763 405.915 275.976 406.127 275.976 406.39z"/>
			<path style="stroke:none; fill:#ffc" d="M 277.976 406.39C 277.976 406.652 277.763 406.865 277.5 406.865C 277.237 406.865 277.024 406.652 277.024 406.39C 277.024 406.127 277.237 405.915 277.5 405.915C 277.763 405.915 277.976 406.127 277.976 406.39z"/>
			<path style="stroke:none; fill:#ffc" d="M 279.976 406.39C 279.976 406.652 279.763 406.865 279.5 406.865C 279.237 406.865 279.024 406.652 279.024 406.39C 279.024 406.127 279.237 405.915 279.5 405.915C 279.763 405.915 279.976 406.127 279.976 406.39z"/>
			<path style="stroke:none; fill:#ffc" d="M 268.976 405.39C 268.976 405.652 268.763 405.865 268.5 405.865C 268.237 405.865 268.024 405.652 268.024 405.39C 268.024 405.127 268.237 404.915 268.5 404.915C 268.763 404.915 268.976 405.127 268.976 405.39z"/>
			<path style="stroke:none; fill:#ffc" d="M 270.976 405.39C 270.976 405.652 270.763 405.865 270.5 405.865C 270.237 405.865 270.024 405.652 270.024 405.39C 270.024 405.127 270.237 404.915 270.5 404.915C 270.763 404.915 270.976 405.127 270.976 405.39z"/>
			<path style="stroke:none; fill:#ffc" d="M 272.976 405.39C 272.976 405.652 272.763 405.865 272.5 405.865C 272.237 405.865 272.024 405.652 272.024 405.39C 272.024 405.127 272.237 404.915 272.5 404.915C 272.763 404.915 272.976 405.127 272.976 405.39z"/>
			<path style="stroke:none; fill:#ffc" d="M 274.976 405.39C 274.976 405.652 274.763 405.865 274.5 405.865C 274.237 405.865 274.024 405.652 274.024 405.39C 274.024 405.127 274.237 404.915 274.5 404.915C 274.763 404.915 274.976 405.127 274.976 405.39z"/>
			<path style="stroke:none; fill:#ffc" d="M 276.976 405.39C 276.976 405.652 276.763 405.865 276.5 405.865C 276.237 405.865 276.024 405.652 276.024 405.39C 276.024 405.127 276.237 404.915 276.5 404.915C 276.763 404.915 276.976 405.127 276.976 405.39z"/>
			<path style="stroke:none; fill:#ffc" d="M 278.976 405.39C 278.976 405.652 278.763 405.865 278.5 405.865C 278.237 405.865 278.024 405.652 278.024 405.39C 278.024 405.127 278.237 404.915 278.5 404.915C 278.763 404.915 278.976 405.127 278.976 405.39z"/>
			<path style="stroke:none; fill:#ffc" d="M 268.976 407.39C 268.976 407.652 268.763 407.865 268.5 407.865C 268.237 407.865 268.024 407.652 268.024 407.39C 268.024 407.127 268.237 406.915 268.5 406.915C 268.763 406.915 268.976 407.127 268.976 407.39z"/>
			<path style="stroke:none; fill:#ffc" d="M 270.976 407.39C 270.976 407.652 270.763 407.865 270.5 407.865C 270.237 407.865 270.024 407.652 270.024 407.39C 270.024 407.127 270.237 406.915 270.5 406.915C 270.763 406.915 270.976 407.127 270.976 407.39z"/>
			<path style="stroke:none; fill:#ffc" d="M 272.976 407.39C 272.976 407.652 272.763 407.865 272.5 407.865C 272.237 407.865 272.024 407.652 272.024 407.39C 272.024 407.127 272.237 406.915 272.5 406.915C 272.763 406.915 272.976 407.127 272.976 407.39z"/>
			<path style="stroke:none; fill:#ffc" d="M 274.976 407.39C 274.976 407.652 274.763 407.865 274.5 407.865C 274.237 407.865 274.024 407.652 274.024 407.39C 274.024 407.127 274.237 406.915 274.5 406.915C 274.763 406.915 274.976 407.127 274.976 407.39z"/>
			<path style="stroke:none; fill:#ffc" d="M 276.976 407.39C 276.976 407.652 276.763 407.865 276.5 407.865C 276.237 407.865 276.024 407.652 276.024 407.39C 276.024 407.127 276.237 406.915 276.5 406.915C 276.763 406.915 276.976 407.127 276.976 407.39z"/>
			<path style="stroke:none; fill:#ffc" d="M 278.976 407.39C 278.976 407.652 278.763 407.865 278.5 407.865C 278.237 407.865 278.024 407.652 278.024 407.39C 278.024 407.127 278.237 406.915 278.5 406.915C 278.763 406.915 278.976 407.127 278.976 407.39z"/>
			<path style="stroke:none; fill:#ffc" d="M 269.976 402.39C 269.976 402.652 269.763 402.865 269.5 402.865C 269.237 402.865 269.024 402.652 269.024 402.39C 269.024 402.127 269.237 401.915 269.5 401.915C 269.763 401.915 269.976 402.127 269.976 402.39z"/>
			<path style="stroke:none; fill:#ffc" d="M 271.976 402.39C 271.976 402.652 271.763 402.865 271.5 402.865C 271.237 402.865 271.024 402.652 271.024 402.39C 271.024 402.127 271.237 401.915 271.5 401.915C 271.763 401.915 271.976 402.127 271.976 402.39z"/>
			<path style="stroke:none; fill:#ffc" d="M 273.976 402.39C 273.976 402.652 273.763 402.865 273.5 402.865C 273.237 402.865 273.024 402.652 273.024 402.39C 273.024 402.127 273.237 401.915 273.5 401.915C 273.763 401.915 273.976 402.127 273.976 402.39z"/>
			<path style="stroke:none; fill:#ffc" d="M 275.976 402.39C 275.976 402.652 275.763 402.865 275.5 402.865C 275.237 402.865 275.024 402.652 275.024 402.39C 275.024 402.127 275.237 401.915 275.5 401.915C 275.763 401.915 275.976 402.127 275.976 402.39z"/>
			<path style="stroke:none; fill:#ffc" d="M 277.976 402.39C 277.976 402.652 277.763 402.865 277.5 402.865C 277.237 402.865 277.024 402.652 277.024 402.39C 277.024 402.127 277.237 401.915 277.5 401.915C 277.763 401.915 277.976 402.127 277.976 402.39z"/>
			<path style="stroke:none; fill:#ffc" d="M 279.976 402.39C 279.976 402.652 279.763 402.865 279.5 402.865C 279.237 402.865 279.024 402.652 279.024 402.39C 279.024 402.127 279.237 401.915 279.5 401.915C 279.763 401.915 279.976 402.127 279.976 402.39z"/>
			<path style="stroke:none; fill:#ffc" d="M 268.976 401.39C 268.976 401.652 268.763 401.865 268.5 401.865C 268.237 401.865 268.024 401.652 268.024 401.39C 268.024 401.127 268.237 400.915 268.5 400.915C 268.763 400.915 268.976 401.127 268.976 401.39z"/>
			<path style="stroke:none; fill:#ffc" d="M 270.976 401.39C 270.976 401.652 270.763 401.865 270.5 401.865C 270.237 401.865 270.024 401.652 270.024 401.39C 270.024 401.127 270.237 400.915 270.5 400.915C 270.763 400.915 270.976 401.127 270.976 401.39z"/>
			<path style="stroke:none; fill:#ffc" d="M 272.976 401.39C 272.976 401.652 272.763 401.865 272.5 401.865C 272.237 401.865 272.024 401.652 272.024 401.39C 272.024 401.127 272.237 400.915 272.5 400.915C 272.763 400.915 272.976 401.127 272.976 401.39z"/>
			<path style="stroke:none; fill:#ffc" d="M 274.976 401.39C 274.976 401.652 274.763 401.865 274.5 401.865C 274.237 401.865 274.024 401.652 274.024 401.39C 274.024 401.127 274.237 400.915 274.5 400.915C 274.763 400.915 274.976 401.127 274.976 401.39z"/>
			<path style="stroke:none; fill:#ffc" d="M 276.976 401.39C 276.976 401.652 276.763 401.865 276.5 401.865C 276.237 401.865 276.024 401.652 276.024 401.39C 276.024 401.127 276.237 400.915 276.5 400.915C 276.763 400.915 276.976 401.127 276.976 401.39z"/>
			<path style="stroke:none; fill:#ffc" d="M 278.976 401.39C 278.976 401.652 278.763 401.865 278.5 401.865C 278.237 401.865 278.024 401.652 278.024 401.39C 278.024 401.127 278.237 400.915 278.5 400.915C 278.763 400.915 278.976 401.127 278.976 401.39z"/>
			<path style="stroke:none; fill:#ffc" d="M 268.976 403.39C 268.976 403.652 268.763 403.865 268.5 403.865C 268.237 403.865 268.024 403.652 268.024 403.39C 268.024 403.127 268.237 402.915 268.5 402.915C 268.763 402.915 268.976 403.127 268.976 403.39z"/>
			<path style="stroke:none; fill:#ffc" d="M 270.976 403.39C 270.976 403.652 270.763 403.865 270.5 403.865C 270.237 403.865 270.024 403.652 270.024 403.39C 270.024 403.127 270.237 402.915 270.5 402.915C 270.763 402.915 270.976 403.127 270.976 403.39z"/>
			<path style="stroke:none; fill:#ffc" d="M 272.976 403.39C 272.976 403.652 272.763 403.865 272.5 403.865C 272.237 403.865 272.024 403.652 272.024 403.39C 272.024 403.127 272.237 402.915 272.5 402.915C 272.763 402.915 272.976 403.127 272.976 403.39z"/>
			<path style="stroke:none; fill:#ffc" d="M 274.976 403.39C 274.976 403.652 274.763 403.865 274.5 403.865C 274.237 403.865 274.024 403.652 274.024 403.39C 274.024 403.127 274.237 402.915 274.5 402.915C 274.763 402.915 274.976 403.127 274.976 403.39z"/>
			<path style="stroke:none; fill:#ffc" d="M 276.976 403.39C 276.976 403.652 276.763 403.865 276.5 403.865C 276.237 403.865 276.024 403.652 276.024 403.39C 276.024 403.127 276.237 402.915 276.5 402.915C 276.763 402.915 276.976 403.127 276.976 403.39z"/>
			<path style="stroke:none; fill:#ffc" d="M 278.976 403.39C 278.976 403.652 278.763 403.865 278.5 403.865C 278.237 403.865 278.024 403.652 278.024 403.39C 278.024 403.127 278.237 402.915 278.5 402.915C 278.763 402.915 278.976 403.127 278.976 403.39z"/>
			<path style="stroke:none; fill:#ffc" d="M 269.976 398.39C 269.976 398.652 269.763 398.865 269.5 398.865C 269.237 398.865 269.024 398.652 269.024 398.39C 269.024 398.127 269.237 397.915 269.5 397.915C 269.763 397.915 269.976 398.127 269.976 398.39z"/>
			<path style="stroke:none; fill:#ffc" d="M 271.976 398.39C 271.976 398.652 271.763 398.865 271.5 398.865C 271.237 398.865 271.024 398.652 271.024 398.39C 271.024 398.127 271.237 397.915 271.5 397.915C 271.763 397.915 271.976 398.127 271.976 398.39z"/>
			<path style="stroke:none; fill:#ffc" d="M 273.976 398.39C 273.976 398.652 273.763 398.865 273.5 398.865C 273.237 398.865 273.024 398.652 273.024 398.39C 273.024 398.127 273.237 397.915 273.5 397.915C 273.763 397.915 273.976 398.127 273.976 398.39z"/>
			<path style="stroke:none; fill:#ffc" d="M 275.976 398.39C 275.976 398.652 275.763 398.865 275.5 398.865C 275.237 398.865 275.024 398.652 275.024 398.39C 275.024 398.127 275.237 397.915 275.5 397.915C 275.763 397.915 275.976 398.127 275.976 398.39z"/>
			<path style="stroke:none; fill:#ffc" d="M 277.976 398.39C 277.976 398.652 277.763 398.865 277.5 398.865C 277.237 398.865 277.024 398.652 277.024 398.39C 277.024 398.127 277.237 397.915 277.5 397.915C 277.763 397.915 277.976 398.127 277.976 398.39z"/>
			<path style="stroke:none; fill:#ffc" d="M 279.976 398.39C 279.976 398.652 279.763 398.865 279.5 398.865C 279.237 398.865 279.024 398.652 279.024 398.39C 279.024 398.127 279.237 397.915 279.5 397.915C 279.763 397.915 279.976 398.127 279.976 398.39z"/>
			<path style="stroke:none; fill:#ffc" d="M 268.976 397.39C 268.976 397.652 268.763 397.865 268.5 397.865C 268.237 397.865 268.024 397.652 268.024 397.39C 268.024 397.127 268.237 396.915 268.5 396.915C 268.763 396.915 268.976 397.127 268.976 397.39z"/>
			<path style="stroke:none; fill:#ffc" d="M 270.976 397.39C 270.976 397.652 270.763 397.865 270.5 397.865C 270.237 397.865 270.024 397.652 270.024 397.39C 270.024 397.127 270.237 396.915 270.5 396.915C 270.763 396.915 270.976 397.127 270.976 397.39z"/>
			<path style="stroke:none; fill:#ffc" d="M 272.976 397.39C 272.976 397.652 272.763 397.865 272.5 397.865C 272.237 397.865 272.024 397.652 272.024 397.39C 272.024 397.127 272.237 396.915 272.5 396.915C 272.763 396.915 272.976 397.127 272.976 397.39z"/>
			<path style="stroke:none; fill:#ffc" d="M 274.976 397.39C 274.976 397.652 274.763 397.865 274.5 397.865C 274.237 397.865 274.024 397.652 274.024 397.39C 274.024 397.127 274.237 396.915 274.5 396.915C 274.763 396.915 274.976 397.127 274.976 397.39z"/>
			<path style="stroke:none; fill:#ffc" d="M 276.976 397.39C 276.976 397.652 276.763 397.865 276.5 397.865C 276.237 397.865 276.024 397.652 276.024 397.39C 276.024 397.127 276.237 396.915 276.5 396.915C 276.763 396.915 276.976 397.127 276.976 397.39z"/>
			<path style="stroke:none; fill:#ffc" d="M 278.976 397.39C 278.976 397.652 278.763 397.865 278.5 397.865C 278.237 397.865 278.024 397.652 278.024 397.39C 278.024 397.127 278.237 396.915 278.5 396.915C 278.763 396.915 278.976 397.127 278.976 397.39z"/>
			<path style="stroke:none; fill:#ffc" d="M 268.976 399.39C 268.976 399.652 268.763 399.865 268.5 399.865C 268.237 399.865 268.024 399.652 268.024 399.39C 268.024 399.127 268.237 398.915 268.5 398.915C 268.763 398.915 268.976 399.127 268.976 399.39z"/>
			<path style="stroke:none; fill:#ffc" d="M 270.976 399.39C 270.976 399.652 270.763 399.865 270.5 399.865C 270.237 399.865 270.024 399.652 270.024 399.39C 270.024 399.127 270.237 398.915 270.5 398.915C 270.763 398.915 270.976 399.127 270.976 399.39z"/>
			<path style="stroke:none; fill:#ffc" d="M 272.976 399.39C 272.976 399.652 272.763 399.865 272.5 399.865C 272.237 399.865 272.024 399.652 272.024 399.39C 272.024 399.127 272.237 398.915 272.5 398.915C 272.763 398.915 272.976 399.127 272.976 399.39z"/>
			<path style="stroke:none; fill:#ffc" d="M 274.976 399.39C 274.976 399.652 274.763 399.865 274.5 399.865C 274.237 399.865 274.024 399.652 274.024 399.39C 274.024 399.127 274.237 398.915 274.5 398.915C 274.763 398.915 274.976 399.127 274.976 399.39z"/>
			<path style="stroke:none; fill:#ffc" d="M 276.976 399.39C 276.976 399.652 276.763 399.865 276.5 399.865C 276.237 399.865 276.024 399.652 276.024 399.39C 276.024 399.127 276.237 398.915 276.5 398.915C 276.763 398.915 276.976 399.127 276.976 399.39z"/>
			<path style="stroke:none; fill:#ffc" d="M 278.976 399.39C 278.976 399.652 278.763 399.865 278.5 399.865C 278.237 399.865 278.024 399.652 278.024 399.39C 278.024 399.127 278.237 398.915 278.5 398.915C 278.763 398.915 278.976 399.127 278.976 399.39z"/>
			<path style="stroke:none; fill:#ffc" d="M 269.976 394.39C 269.976 394.652 269.763 394.865 269.5 394.865C 269.237 394.865 269.024 394.652 269.024 394.39C 269.024 394.127 269.237 393.915 269.5 393.915C 269.763 393.915 269.976 394.127 269.976 394.39z"/>
			<path style="stroke:none; fill:#ffc" d="M 271.976 394.39C 271.976 394.652 271.763 394.865 271.5 394.865C 271.237 394.865 271.024 394.652 271.024 394.39C 271.024 394.127 271.237 393.915 271.5 393.915C 271.763 393.915 271.976 394.127 271.976 394.39z"/>
			<path style="stroke:none; fill:#ffc" d="M 273.976 394.39C 273.976 394.652 273.763 394.865 273.5 394.865C 273.237 394.865 273.024 394.652 273.024 394.39C 273.024 394.127 273.237 393.915 273.5 393.915C 273.763 393.915 273.976 394.127 273.976 394.39z"/>
			<path style="stroke:none; fill:#ffc" d="M 275.976 394.39C 275.976 394.652 275.763 394.865 275.5 394.865C 275.237 394.865 275.024 394.652 275.024 394.39C 275.024 394.127 275.237 393.915 275.5 393.915C 275.763 393.915 275.976 394.127 275.976 394.39z"/>
			<path style="stroke:none; fill:#ffc" d="M 277.976 394.39C 277.976 394.652 277.763 394.865 277.5 394.865C 277.237 394.865 277.024 394.652 277.024 394.39C 277.024 394.127 277.237 393.915 277.5 393.915C 277.763 393.915 277.976 394.127 277.976 394.39z"/>
			<path style="stroke:none; fill:#ffc" d="M 279.976 394.39C 279.976 394.652 279.763 394.865 279.5 394.865C 279.237 394.865 279.024 394.652 279.024 394.39C 279.024 394.127 279.237 393.915 279.5 393.915C 279.763 393.915 279.976 394.127 279.976 394.39z"/>
			<path style="stroke:none; fill:#ffc" d="M 268.976 393.39C 268.976 393.652 268.763 393.865 268.5 393.865C 268.237 393.865 268.024 393.652 268.024 393.39C 268.024 393.127 268.237 392.915 268.5 392.915C 268.763 392.915 268.976 393.127 268.976 393.39z"/>
			<path style="stroke:none; fill:#ffc" d="M 270.976 393.39C 270.976 393.652 270.763 393.865 270.5 393.865C 270.237 393.865 270.024 393.652 270.024 393.39C 270.024 393.127 270.237 392.915 270.5 392.915C 270.763 392.915 270.976 393.127 270.976 393.39z"/>
			<path style="stroke:none; fill:#ffc" d="M 272.976 393.39C 272.976 393.652 272.763 393.865 272.5 393.865C 272.237 393.865 272.024 393.652 272.024 393.39C 272.024 393.127 272.237 392.915 272.5 392.915C 272.763 392.915 272.976 393.127 272.976 393.39z"/>
			<path style="stroke:none; fill:#ffc" d="M 274.976 393.39C 274.976 393.652 274.763 393.865 274.5 393.865C 274.237 393.865 274.024 393.652 274.024 393.39C 274.024 393.127 274.237 392.915 274.5 392.915C 274.763 392.915 274.976 393.127 274.976 393.39z"/>
			<path style="stroke:none; fill:#ffc" d="M 276.976 393.39C 276.976 393.652 276.763 393.865 276.5 393.865C 276.237 393.865 276.024 393.652 276.024 393.39C 276.024 393.127 276.237 392.915 276.5 392.915C 276.763 392.915 276.976 393.127 276.976 393.39z"/>
			<path style="stroke:none; fill:#ffc" d="M 278.976 393.39C 278.976 393.652 278.763 393.865 278.5 393.865C 278.237 393.865 278.024 393.652 278.024 393.39C 278.024 393.127 278.237 392.915 278.5 392.915C 278.763 392.915 278.976 393.127 278.976 393.39z"/>
			<path style="stroke:none; fill:#ffc" d="M 268.976 395.39C 268.976 395.652 268.763 395.865 268.5 395.865C 268.237 395.865 268.024 395.652 268.024 395.39C 268.024 395.127 268.237 394.915 268.5 394.915C 268.763 394.915 268.976 395.127 268.976 395.39z"/>
			<path style="stroke:none; fill:#ffc" d="M 270.976 395.39C 270.976 395.652 270.763 395.865 270.5 395.865C 270.237 395.865 270.024 395.652 270.024 395.39C 270.024 395.127 270.237 394.915 270.5 394.915C 270.763 394.915 270.976 395.127 270.976 395.39z"/>
			<path style="stroke:none; fill:#ffc" d="M 272.976 395.39C 272.976 395.652 272.763 395.865 272.5 395.865C 272.237 395.865 272.024 395.652 272.024 395.39C 272.024 395.127 272.237 394.915 272.5 394.915C 272.763 394.915 272.976 395.127 272.976 395.39z"/>
			<path style="stroke:none; fill:#ffc" d="M 274.976 395.39C 274.976 395.652 274.763 395.865 274.5 395.865C 274.237 395.865 274.024 395.652 274.024 395.39C 274.024 395.127 274.237 394.915 274.5 394.915C 274.763 394.915 274.976 395.127 274.976 395.39z"/>
			<path style="stroke:none; fill:#ffc" d="M 276.976 395.39C 276.976 395.652 276.763 395.865 276.5 395.865C 276.237 395.865 276.024 395.652 276.024 395.39C 276.024 395.127 276.237 394.915 276.5 394.915C 276.763 394.915 276.976 395.127 276.976 395.39z"/>
			<path style="stroke:none; fill:#ffc" d="M 278.976 395.39C 278.976 395.652 278.763 395.865 278.5 395.865C 278.237 395.865 278.024 395.652 278.024 395.39C 278.024 395.127 278.237 394.915 278.5 394.915C 278.763 394.915 278.976 395.127 278.976 395.39z"/>
			<path style="stroke:none; fill:#ffc" d="M 269.976 392.39C 269.976 392.652 269.763 392.865 269.5 392.865C 269.237 392.865 269.024 392.652 269.024 392.39C 269.024 392.127 269.237 391.915 269.5 391.915C 269.763 391.915 269.976 392.127 269.976 392.39z"/>
			<path style="stroke:none; fill:#ffc" d="M 271.976 392.39C 271.976 392.652 271.763 392.865 271.5 392.865C 271.237 392.865 271.024 392.652 271.024 392.39C 271.024 392.127 271.237 391.915 271.5 391.915C 271.763 391.915 271.976 392.127 271.976 392.39z"/>
			<path style="stroke:none; fill:#ffc" d="M 273.976 392.39C 273.976 392.652 273.763 392.865 273.5 392.865C 273.237 392.865 273.024 392.652 273.024 392.39C 273.024 392.127 273.237 391.915 273.5 391.915C 273.763 391.915 273.976 392.127 273.976 392.39z"/>
			<path style="stroke:none; fill:#ffc" d="M 275.976 392.39C 275.976 392.652 275.763 392.865 275.5 392.865C 275.237 392.865 275.024 392.652 275.024 392.39C 275.024 392.127 275.237 391.915 275.5 391.915C 275.763 391.915 275.976 392.127 275.976 392.39z"/>
			<path style="stroke:none; fill:#ffc" d="M 277.976 392.39C 277.976 392.652 277.763 392.865 277.5 392.865C 277.237 392.865 277.024 392.652 277.024 392.39C 277.024 392.127 277.237 391.915 277.5 391.915C 277.763 391.915 277.976 392.127 277.976 392.39z"/>
			<path style="stroke:none; fill:#ffc" d="M 279.976 392.39C 279.976 392.652 279.763 392.865 279.5 392.865C 279.237 392.865 279.024 392.652 279.024 392.39C 279.024 392.127 279.237 391.915 279.5 391.915C 279.763 391.915 279.976 392.127 279.976 392.39z"/>
			<path style="stroke:none; fill:#ffc" d="M 281.976 392.39C 281.976 392.652 281.763 392.865 281.5 392.865C 281.237 392.865 281.024 392.652 281.024 392.39C 281.024 392.127 281.237 391.915 281.5 391.915C 281.763 391.915 281.976 392.127 281.976 392.39z"/>
			<path style="stroke:none; fill:#ffc" d="M 267.476 392.39C 267.476 392.652 267.263 392.865 267 392.865C 266.737 392.865 266.524 392.652 266.524 392.39C 266.524 392.127 266.737 391.915 267 391.915C 267.263 391.915 267.476 392.127 267.476 392.39z"/>
			<path style="stroke:none; fill:#ffc" d="M 269.976 396.39C 269.976 396.652 269.763 396.865 269.5 396.865C 269.237 396.865 269.024 396.652 269.024 396.39C 269.024 396.127 269.237 395.915 269.5 395.915C 269.763 395.915 269.976 396.127 269.976 396.39z"/>
			<path style="stroke:none; fill:#ffc" d="M 271.976 396.39C 271.976 396.652 271.763 396.865 271.5 396.865C 271.237 396.865 271.024 396.652 271.024 396.39C 271.024 396.127 271.237 395.915 271.5 395.915C 271.763 395.915 271.976 396.127 271.976 396.39z"/>
			<path style="stroke:none; fill:#ffc" d="M 273.976 396.39C 273.976 396.652 273.763 396.865 273.5 396.865C 273.237 396.865 273.024 396.652 273.024 396.39C 273.024 396.127 273.237 395.915 273.5 395.915C 273.763 395.915 273.976 396.127 273.976 396.39z"/>
			<path style="stroke:none; fill:#ffc" d="M 275.976 396.39C 275.976 396.652 275.763 396.865 275.5 396.865C 275.237 396.865 275.024 396.652 275.024 396.39C 275.024 396.127 275.237 395.915 275.5 395.915C 275.763 395.915 275.976 396.127 275.976 396.39z"/>
			<path style="stroke:none; fill:#ffc" d="M 277.976 396.39C 277.976 396.652 277.763 396.865 277.5 396.865C 277.237 396.865 277.024 396.652 277.024 396.39C 277.024 396.127 277.237 395.915 277.5 395.915C 277.763 395.915 277.976 396.127 277.976 396.39z"/>
			<path style="stroke:none; fill:#ffc" d="M 279.976 396.39C 279.976 396.652 279.763 396.865 279.5 396.865C 279.237 396.865 279.024 396.652 279.024 396.39C 279.024 396.127 279.237 395.915 279.5 395.915C 279.763 395.915 279.976 396.127 279.976 396.39z"/>
			<path style="stroke:none; fill:#ffc" d="M 269.976 400.39C 269.976 400.652 269.763 400.865 269.5 400.865C 269.237 400.865 269.024 400.652 269.024 400.39C 269.024 400.127 269.237 399.915 269.5 399.915C 269.763 399.915 269.976 400.127 269.976 400.39z"/>
			<path style="stroke:none; fill:#ffc" d="M 271.976 400.39C 271.976 400.652 271.763 400.865 271.5 400.865C 271.237 400.865 271.024 400.652 271.024 400.39C 271.024 400.127 271.237 399.915 271.5 399.915C 271.763 399.915 271.976 400.127 271.976 400.39z"/>
			<path style="stroke:none; fill:#ffc" d="M 273.976 400.39C 273.976 400.652 273.763 400.865 273.5 400.865C 273.237 400.865 273.024 400.652 273.024 400.39C 273.024 400.127 273.237 399.915 273.5 399.915C 273.763 399.915 273.976 400.127 273.976 400.39z"/>
			<path style="stroke:none; fill:#ffc" d="M 275.976 400.39C 275.976 400.652 275.763 400.865 275.5 400.865C 275.237 400.865 275.024 400.652 275.024 400.39C 275.024 400.127 275.237 399.915 275.5 399.915C 275.763 399.915 275.976 400.127 275.976 400.39z"/>
			<path style="stroke:none; fill:#ffc" d="M 277.976 400.39C 277.976 400.652 277.763 400.865 277.5 400.865C 277.237 400.865 277.024 400.652 277.024 400.39C 277.024 400.127 277.237 399.915 277.5 399.915C 277.763 399.915 277.976 400.127 277.976 400.39z"/>
			<path style="stroke:none; fill:#ffc" d="M 279.976 400.39C 279.976 400.652 279.763 400.865 279.5 400.865C 279.237 400.865 279.024 400.652 279.024 400.39C 279.024 400.127 279.237 399.915 279.5 399.915C 279.763 399.915 279.976 400.127 279.976 400.39z"/>
			<path style="stroke:none; fill:#ffc" d="M 269.976 404.39C 269.976 404.652 269.763 404.865 269.5 404.865C 269.237 404.865 269.024 404.652 269.024 404.39C 269.024 404.127 269.237 403.915 269.5 403.915C 269.763 403.915 269.976 404.127 269.976 404.39z"/>
			<path style="stroke:none; fill:#ffc" d="M 271.976 404.39C 271.976 404.652 271.763 404.865 271.5 404.865C 271.237 404.865 271.024 404.652 271.024 404.39C 271.024 404.127 271.237 403.915 271.5 403.915C 271.763 403.915 271.976 404.127 271.976 404.39z"/>
			<path style="stroke:none; fill:#ffc" d="M 273.976 404.39C 273.976 404.652 273.763 404.865 273.5 404.865C 273.237 404.865 273.024 404.652 273.024 404.39C 273.024 404.127 273.237 403.915 273.5 403.915C 273.763 403.915 273.976 404.127 273.976 404.39z"/>
			<path style="stroke:none; fill:#ffc" d="M 275.976 404.39C 275.976 404.652 275.763 404.865 275.5 404.865C 275.237 404.865 275.024 404.652 275.024 404.39C 275.024 404.127 275.237 403.915 275.5 403.915C 275.763 403.915 275.976 404.127 275.976 404.39z"/>
			<path style="stroke:none; fill:#ffc" d="M 277.976 404.39C 277.976 404.652 277.763 404.865 277.5 404.865C 277.237 404.865 277.024 404.652 277.024 404.39C 277.024 404.127 277.237 403.915 277.5 403.915C 277.763 403.915 277.976 404.127 277.976 404.39z"/>
			<path style="stroke:none; fill:#ffc" d="M 279.976 404.39C 279.976 404.652 279.763 404.865 279.5 404.865C 279.237 404.865 279.024 404.652 279.024 404.39C 279.024 404.127 279.237 403.915 279.5 403.915C 279.763 403.915 279.976 404.127 279.976 404.39z"/>
			<path style="stroke:none; fill:#ffc" d="M 268.976 391.39C 268.976 391.652 268.763 391.865 268.5 391.865C 268.237 391.865 268.024 391.652 268.024 391.39C 268.024 391.127 268.237 390.915 268.5 390.915C 268.763 390.915 268.976 391.127 268.976 391.39z"/>
			<path style="stroke:none; fill:#ffc" d="M 270.976 391.39C 270.976 391.652 270.763 391.865 270.5 391.865C 270.237 391.865 270.024 391.652 270.024 391.39C 270.024 391.127 270.237 390.915 270.5 390.915C 270.763 390.915 270.976 391.127 270.976 391.39z"/>
			<path style="stroke:none; fill:#ffc" d="M 272.976 391.39C 272.976 391.652 272.763 391.865 272.5 391.865C 272.237 391.865 272.024 391.652 272.024 391.39C 272.024 391.127 272.237 390.915 272.5 390.915C 272.763 390.915 272.976 391.127 272.976 391.39z"/>
			<path style="stroke:none; fill:#ffc" d="M 274.976 391.39C 274.976 391.652 274.763 391.865 274.5 391.865C 274.237 391.865 274.024 391.652 274.024 391.39C 274.024 391.127 274.237 390.915 274.5 390.915C 274.763 390.915 274.976 391.127 274.976 391.39z"/>
			<path style="stroke:none; fill:#ffc" d="M 276.976 391.39C 276.976 391.652 276.763 391.865 276.5 391.865C 276.237 391.865 276.024 391.652 276.024 391.39C 276.024 391.127 276.237 390.915 276.5 390.915C 276.763 390.915 276.976 391.127 276.976 391.39z"/>
			<path style="stroke:none; fill:#ffc" d="M 278.976 391.39C 278.976 391.652 278.763 391.865 278.5 391.865C 278.237 391.865 278.024 391.652 278.024 391.39C 278.024 391.127 278.237 390.915 278.5 390.915C 278.763 390.915 278.976 391.127 278.976 391.39z"/>
		</g>
	</g>
</svg>
