<svg xmlns="http://www.w3.org/2000/svg" width="24" height="24">
	<g transform="translate(-264,-386)" id="KDDI_D_425">
		<g>
			<path style="stroke:none; fill:none" d="M 288 409.89L 264 409.89L 264 385.89L 288 385.89L 288 409.89z"/>
		</g>
		<g>
			<path style="stroke:none; fill:#cc9" d="M 270 393.89C 270 390.89 271 390.89 273 390.89C 273 388.39 274 388.39 276.5 388.39C 276.5 387.39 278 387.39 279 387.39C 280 387.39 281 387.39 282 387.89C 282 387.89 282.5 387.39 284.5 387.39C 284.5 387.39 285 386.39 287.5 386.39C 287.5 386.39 287.5 388.39 287.5 388.89C 287.5 389.39 287 390.39 286.5 390.39C 286.5 390.89 286.5 392.39 286.5 392.89C 286.5 393.39 286 394.39 285 394.39C 285 395.39 285 397.89 285 398.39C 285 398.89 284.5 399.39 283 399.39C 283 399.39 283 401.39 283 401.89C 283 402.39 283.5 403.89 280 403.89"/>
			<path style="stroke:none; fill:#fc6" d="M 270 393.89L 269 393.89L 269 400.89C 269 400.89 266.5 403.39 265.5 404.39C 264 405.89 264.5 407.39 265.5 408.39C 266.5 409.39 268 409.89 269.5 408.39C 270 407.89 272.75 405.14 272.75 405.14L 280 405.14L 280 403.89L 270 393.89z"/>
			<path style="stroke:none; fill:#c93" d="M 280.5 404.39L 277.25 401.14L 272.25 401.14L 265.267 408.123C 265.342 408.214 265.416 408.306 265.5 408.39C 266.5 409.39 268 409.89 269.5 408.39C 270 407.89 273 404.89 273 404.89L 280 404.89L 280.5 404.39z"/>
			<path style="stroke:none; fill:#ffc" d="M 284.5 387.39C 282.5 387.39 282 387.89 282 387.89C 281 387.39 280 387.39 279 387.39C 278 387.39 276.5 387.39 276.5 388.39C 274 388.39 273 388.39 273 390.89C 271.376 390.89 270.412 390.89 270.106 392.496C 270.846 393.236 275.656 398.046 277.5 399.89C 279.764 402.153 282 399.39 278.5 396.39C 282.606 398.854 283.5 395.89 280 393.89C 279 393.39 278 391.89 278 390.89C 284 393.445 284.167 390.835 282.5 389.39C 286.581 391.43 287.5 386.39 287.5 386.39C 285 386.39 284.5 387.39 284.5 387.39z"/>
			<path style="stroke:none; fill:#fff" d="M 277.954 391.388L 278.079 391.399C 278.033 391.221 278 391.048 278 390.89C 278.169 390.962 278.317 391.015 278.477 391.079C 279.255 389.753 281.441 389.887 281.463 389.888L 281.538 388.891C 281.426 388.883 278.972 388.766 277.797 390.38C 276.643 390.356 274.767 390.906 274.144 392.976C 273.494 393.133 272.63 393.598 272.227 394.617C 272.489 394.879 272.764 395.154 273.046 395.436C 273.268 394.103 274.414 393.904 274.559 393.886L 274.912 393.842L 274.989 393.492C 275.472 391.195 277.853 391.379 277.954 391.388z"/>
			<path style="stroke:#996; stroke-width:1; fill:none" d="M 273 390.89C 273 391.89 275 393.89 277 395.39C 279 396.89 282.5 399.39 283.5 399.39"/>
			<path style="stroke:#996; stroke-width:1; fill:none" d="M 276.5 388.39C 276.5 389.39 277 389.89 278 390.89C 279 391.89 282 394.39 285 394.39"/>
			<path style="stroke:#996; stroke-width:1; fill:none" d="M 281 387.89C 281 388.89 282.5 390.39 286.5 390.39"/>
			<path style="stroke:#666; stroke-width:1; fill:none" d="M 270 393.89C 270 390.89 271 390.89 273 390.89C 273 388.39 274 388.39 276.5 388.39C 276.5 386.39 280 387.39 281 387.89C 281 387.89 282.5 387.39 284.5 387.39C 284.5 387.39 285 386.39 287.5 386.39C 287.5 386.39 287.5 388.39 287.5 388.89C 287.5 389.39 287 390.39 286.5 390.39C 286.5 392.89 286 394.39 285 394.39C 285 397.39 285 399.39 283 399.39C 283 401.751 283.5 403.89 280 403.89"/>
			<path style="stroke:#960; stroke-width:1; fill:none" d="M 269 397.39L 276.5 404.89"/>
			<path style="stroke:#960; stroke-width:1; fill:none" d="M 269.5 393.39L 269 393.89L 269 400.89C 269 400.89 266.5 403.39 265.5 404.39C 264 405.89 264.5 407.39 265.5 408.39C 266.5 409.39 268 409.89 269.5 408.39C 270.369 407.521 270.619 407.271 273 404.89L 280 404.89L 280.5 404.39L 269.5 393.39z"/>
		</g>
	</g>
</svg>
