<svg xmlns="http://www.w3.org/2000/svg" width="24" height="24">
	<g transform="translate(-264,-386)" id="KDDI_D_426">
		<g>
			<path style="stroke:none; fill:none" d="M 288 409.89L 264 409.89L 264 385.89L 288 385.89L 288 409.89z"/>
		</g>
		<g>
			<path style="stroke:none; fill:#000" d="M 286 400.39L 266 400.39L 266 394.89L 268 393.89L 284 393.89L 286 394.89L 286 400.39z"/>
			<path style="stroke:#fc0; stroke-width:1; fill:none" d="M 268.5 397.604L 268.5 386.89"/>
			<path style="stroke:#fc0; stroke-width:1; fill:none" d="M 272.5 397.604L 272.5 385.89"/>
			<path style="stroke:#ff3; stroke-width:1; fill:none" d="M 268.5 387.89L 268.5 386.89"/>
			<path style="stroke:#ff3; stroke-width:1; fill:none" d="M 272.5 387.89L 272.5 386.89"/>
			<path style="stroke:#fc0; stroke-width:1; fill:none" d="M 276.5 397.604L 276.5 386.89"/>
			<path style="stroke:#ff3; stroke-width:1; fill:none" d="M 276.5 388.89L 276.5 387.89"/>
			<path style="stroke:#fc0; stroke-width:1; fill:none" d="M 274.5 397.604L 274.5 386.89"/>
			<path style="stroke:#ff3; stroke-width:1; fill:none" d="M 274.5 389.89L 274.5 387.89"/>
			<path style="stroke:#fc0; stroke-width:1; fill:none" d="M 278.5 397.604L 278.5 385.89"/>
			<path style="stroke:#ff3; stroke-width:1; fill:none" d="M 278.5 388.89L 278.5 385.89"/>
			<path style="stroke:#fc0; stroke-width:1; fill:none" d="M 280.5 397.604L 280.5 386.89"/>
			<path style="stroke:#ff3; stroke-width:1; fill:none" d="M 280.5 389.39L 280.5 386.89"/>
			<path style="stroke:#fc0; stroke-width:1; fill:none" d="M 270.5 397.604L 270.5 385.89"/>
			<path style="stroke:#ff3; stroke-width:1; fill:none" d="M 270.5 387.89L 270.5 385.89"/>
			<path style="stroke:#c90; stroke-width:1; fill:none" d="M 269.5 397.604L 269.5 385.89"/>
			<path style="stroke:#c90; stroke-width:1; fill:none" d="M 271.5 397.604L 271.5 385.89"/>
			<path style="stroke:#c90; stroke-width:1; fill:none" d="M 273.5 397.604L 273.5 386.89"/>
			<path style="stroke:#c90; stroke-width:1; fill:none" d="M 275.5 397.604L 275.5 387.89"/>
			<path style="stroke:#c90; stroke-width:1; fill:none" d="M 277.5 397.604L 277.5 386.89"/>
			<path style="stroke:#c90; stroke-width:1; fill:none" d="M 279.5 397.604L 279.5 385.89"/>
			<path style="stroke:#c90; stroke-width:1; fill:none" d="M 281.5 397.604L 281.5 386.89"/>
			<path style="stroke:#ff3; stroke-width:1; fill:none" d="M 269.5 386.89L 269.5 385.89"/>
			<path style="stroke:#fc0; stroke-width:1; fill:none" d="M 282.5 397.604L 282.5 386.89"/>
			<path style="stroke:#ff3; stroke-width:1; fill:none" d="M 282.5 387.89L 282.5 386.89"/>
			<path style="stroke:#c90; stroke-width:1; fill:none" d="M 283.5 397.604L 283.5 385.89"/>
			<path style="stroke:#ff3; stroke-width:1; fill:none" d="M 283.5 386.89L 283.5 385.89"/>
			<path style="stroke:none; fill:#c00" d="M 283 396.89L 269 396.89L 266 394.89L 266 406.39L 269 409.89L 283 409.89L 286 406.89L 286 394.89L 283 396.89z"/>
			<path style="stroke:none; fill:#900" d="M 266 394.89L 266 406.39L 269 409.89L 269 396.89L 266 394.89z"/>
			<path style="stroke:none; fill:#900" d="M 286 394.89L 283 396.89L 283 409.89L 286 406.89L 286 394.89z"/>
			<path style="stroke:none; fill:#f99" d="M 272 398.89L 272 407.89L 274 407.89L 274 398.89L 272 398.89z"/>
			<path style="stroke:none; fill:#f99" d="M 274 398.89L 274 399.89L 276.5 399.89C 276.806 399.917 278 400.723 278 401.89C 278 403.125 277.221 403.89 276.5 403.89L 274 403.89L 274 404.89L 277.5 404.89C 278.702 404.89 280 403.743 280 401.89C 280 400.187 278.334 398.89 277.5 398.89L 274 398.89z"/>
		</g>
	</g>
</svg>
