<svg xmlns="http://www.w3.org/2000/svg" width="24" height="24">
	<g transform="translate(-264,-386)" id="KDDI_D_427">
		<g>
			<path style="stroke:none; fill:none" d="M 288 409.89L 264 409.89L 264 385.89L 288 385.89L 288 409.89z"/>
		</g>
		<g>
			<path style="stroke:none; fill:#960" d="M 281.947 403.837C 281.654 404.13 281.654 404.605 281.947 404.898L 286.697 409.648C 286.99 409.941 287.465 409.941 287.758 409.648C 288.051 409.355 288.051 408.88 287.758 408.587L 283.008 403.837C 282.715 403.544 282.24 403.544 281.947 403.837z"/>
			<path style="stroke:none; fill:#630" d="M 282.646 404.024C 282.456 403.834 282.191 403.78 281.947 403.837C 281.654 404.13 281.654 404.605 281.947 404.898L 286.697 409.648C 286.888 409.838 287.152 409.891 287.396 409.835C 287.689 409.541 287.689 409.067 287.396 408.774L 282.646 404.024z"/>
			<path style="stroke:#fc6; stroke-width:0.75; stroke-linecap:round; fill:none" d="M 282.478 404.367L 287.228 409.117"/>
			<path style="stroke:none; fill:#936" d="M 276.847 398.737C 275.092 400.491 275.092 403.347 276.847 405.101C 278.601 406.856 281.457 406.856 283.211 405.101C 284.966 403.346 284.965 400.491 283.211 398.736C 281.456 396.983 278.602 396.983 276.847 398.737z"/>
			<path style="stroke:none; fill:#630" d="M 266.396 390.299L 264 385.89L 268 387.89"/>
			<path style="stroke:none; fill:#c69" d="M 283.185 398.762C 284.747 400.324 284.748 402.857 283.185 404.419C 281.624 405.981 279.091 405.981 277.528 404.419C 275.967 402.857 275.967 400.324 277.528 398.762C 279.091 397.2 281.623 397.2 283.185 398.762z"/>
			<path style="stroke:none; fill:#f99" d="M 282.529 399.419C 283.309 400.2 283.309 401.466 282.529 402.248C 281.748 403.028 280.481 403.028 279.701 402.248C 278.919 401.466 278.918 400.2 279.7 399.419C 280.481 398.638 281.748 398.638 282.529 399.419z"/>
			<path style="stroke:none; fill:#fcf" d="M 282.529 399.419C 282.919 399.81 282.919 400.442 282.529 400.833C 282.138 401.224 281.505 401.224 281.115 400.834C 280.724 400.443 280.724 399.81 281.115 399.419C 281.505 399.028 282.138 399.028 282.529 399.419z"/>
			<path style="stroke:none; fill:#360" d="M 270.857 393.248C 269.103 395.002 269.103 397.858 270.857 399.611C 272.612 401.366 275.467 401.366 277.222 399.611C 278.977 397.857 278.976 395.002 277.222 393.247C 275.467 391.493 272.612 391.493 270.857 393.248z"/>
			<path style="stroke:none; fill:#696" d="M 277.196 393.273C 278.758 394.835 278.759 397.368 277.196 398.93C 275.635 400.492 273.102 400.491 271.539 398.929C 269.978 397.367 269.978 394.835 271.539 393.273C 273.102 391.711 275.634 391.711 277.196 393.273z"/>
			<path style="stroke:none; fill:#9c6" d="M 276.54 393.93C 277.32 394.711 277.32 395.977 276.54 396.758C 275.758 397.539 274.492 397.539 273.711 396.758C 272.93 395.977 272.929 394.711 273.71 393.93C 274.492 393.149 275.758 393.149 276.54 393.93z"/>
			<path style="stroke:none; fill:#cf9" d="M 276.54 393.93C 276.93 394.32 276.93 394.953 276.54 395.344C 276.149 395.734 275.516 395.735 275.125 395.344C 274.735 394.954 274.735 394.32 275.125 393.93C 275.516 393.539 276.149 393.539 276.54 393.93z"/>
			<path style="stroke:none; fill:#660" d="M 265.321 387.211C 263.567 388.965 263.566 391.82 265.321 393.574C 267.076 395.329 269.931 395.329 271.685 393.574C 273.44 391.819 273.44 388.965 271.685 387.21C 269.931 385.456 267.076 385.456 265.321 387.211z"/>
			<path style="stroke:none; fill:#cc6" d="M 271.66 387.235C 273.222 388.797 273.223 391.331 271.66 392.893C 270.099 394.455 267.565 394.454 266.003 392.892C 264.441 391.33 264.441 388.797 266.003 387.235C 267.565 385.673 270.098 385.673 271.66 387.235z"/>
			<path style="stroke:none; fill:#ff9" d="M 271.003 387.893C 271.784 388.673 271.784 389.94 271.003 390.721C 270.222 391.502 268.956 391.502 268.175 390.721C 267.394 389.94 267.393 388.673 268.174 387.893C 268.956 387.111 270.222 387.111 271.003 387.893z"/>
			<path style="stroke:none; fill:#fff" d="M 271.003 387.893C 271.394 388.283 271.394 388.916 271.003 389.307C 270.613 389.697 269.98 389.698 269.589 389.307C 269.199 388.917 269.199 388.283 269.589 387.893C 269.98 387.502 270.613 387.502 271.003 387.893z"/>
		</g>
	</g>
</svg>
