<svg xmlns="http://www.w3.org/2000/svg" width="24" height="24">
	<g transform="translate(-264,-386)" id="KDDI_D_428">
		<g>
			<path style="stroke:none; fill:none" d="M 288 409.89L 264 409.89L 264 385.89L 288 385.89L 288 409.89z"/>
		</g>
		<g>
			<path style="stroke:none; fill:#630" d="M 264 397.89C 264 404.506 269.383 409.89 276 409.89C 282.617 409.89 288 404.506 288 397.89C 288 391.273 282.617 385.89 276 385.89C 269.383 385.89 264 391.273 264 397.89z"/>
			<path style="stroke:none; fill:#c60" d="M 287.5 396.39C 287.5 395.315 287.345 394.277 287.078 393.285C 285.268 388.947 280.985 385.89 276 385.89C 269.383 385.89 264 391.273 264 397.89C 264 398.965 264.155 400.003 264.422 400.995C 266.232 405.332 270.515 408.39 275.5 408.39C 282.117 408.39 287.5 403.006 287.5 396.39z"/>
			<path style="stroke:none; fill:#f90" d="M 270 390.89C 270.5 391.39 271 392.89 271.5 392.89C 271.5 392.89 270.5 392.89 270.5 395.89C 270.5 395.89 271 393.39 272.5 393.39C 274 393.39 273.75 392.39 275 392.39C 276 392.39 276.417 392.71 277 393.39C 277 391.89 276 391.39 275 391.39C 274 391.39 273.167 392.39 272.5 392.39C 271.833 392.39 270 390.89 270 390.89z"/>
			<path style="stroke:none; fill:#630" d="M 267.5 396.39C 267.5 396.39 268.292 391.862 269 390.89C 269.708 389.918 271.5 389.39 273.5 389.39C 273.5 389.39 271.5 390.89 270 392.39C 268.939 393.451 267.5 396.39 267.5 396.39z"/>
			<path style="stroke:none; fill:#f90" d="M 267.5 397.89C 267.5 397.89 268.25 394.223 268.5 393.39C 268.751 392.552 268.958 392.084 269.542 391.418C 270.125 390.751 270.486 390.423 271.5 389.89C 272.583 389.32 275 388.89 275 388.89C 275 388.89 272.292 388.89 271.208 388.89C 270.125 388.89 269.312 389.356 268.417 390.251C 267.521 391.147 267.5 393.89 267.5 394.89C 267.5 395.89 267.5 397.89 267.5 397.89z"/>
			<path style="stroke:none; fill:#630" d="M 277.5 393.89C 277.5 393.39 277 390.89 277.5 390.39C 278 389.89 280.5 390.39 281 390.39C 281 390.39 279.5 390.39 278.5 391.39C 277.5 392.39 277.5 393.89 277.5 393.89z"/>
			<path style="stroke:none; fill:#f90" d="M 276 387.89L 278 387.89C 278 387.89 278 387.39 277 387.39C 276 387.39 276 387.89 276 387.89z"/>
			<path style="stroke:none; fill:#f90" d="M 278 396.39L 280 396.39C 280 396.39 280 395.89 279 395.89C 278 395.89 278 396.39 278 396.39z"/>
			<path style="stroke:none; fill:#f90" d="M 283.5 399.89L 285.5 399.89C 285.5 399.89 285.5 399.39 284.5 399.39C 283.5 399.39 283.5 399.89 283.5 399.89z"/>
			<path style="stroke:none; fill:#f90" d="M 281.5 402.89L 283.5 402.89C 283.5 402.89 283.5 402.39 282.5 402.39C 281.5 402.39 281.5 402.89 281.5 402.89z"/>
			<path style="stroke:none; fill:#f90" d="M 268.5 398.39L 270.5 398.39C 270.5 398.39 270.5 397.89 269.5 397.89C 268.5 397.89 268.5 398.39 268.5 398.39z"/>
			<path style="stroke:none; fill:#630" d="M 279.5 388.89L 281.5 388.89C 281.5 388.89 281.5 388.39 280.5 388.39C 279.5 388.39 279.5 388.89 279.5 388.89z"/>
			<path style="stroke:none; fill:#630" d="M 283.5 398.89L 285.5 398.89C 285.5 398.89 285.5 398.39 284.5 398.39C 283.5 398.39 283.5 398.89 283.5 398.89z"/>
			<path style="stroke:none; fill:#630" d="M 268 403.39L 270 403.39C 270 403.39 270 402.89 269 402.89C 268 402.89 268 403.39 268 403.39z"/>
			<path style="stroke:none; fill:#630" d="M 276.5 390.39L 276.5 388.39C 276.5 388.39 276 388.39 276 389.39C 276 390.39 276.5 390.39 276.5 390.39z"/>
			<path style="stroke:none; fill:#630" d="M 274.5 395.39L 274.5 393.39C 274.5 393.39 274 393.39 274 394.39C 274 395.39 274.5 395.39 274.5 395.39z"/>
			<path style="stroke:none; fill:#630" d="M 276 397.89L 276 395.89C 276 395.89 276.5 395.89 276.5 396.89C 276.5 397.89 276 397.89 276 397.89z"/>
			<path style="stroke:none; fill:#000" d="M 282 396.89L 270 396.89L 270 408.266C 271.768 409.292 273.814 409.89 276 409.89C 278.186 409.89 280.232 409.292 282 408.266L 282 396.89z"/>
			<path style="stroke:none; fill:#f90" d="M 275.5 395.39L 275.5 393.39C 275.5 393.39 275 393.39 275 394.39C 275 395.39 275.5 395.39 275.5 395.39z"/>
			<path style="stroke:none; fill:#f90" d="M 266 395.89L 266 398.89C 266 398.89 265 398.89 265 397.39C 265 395.89 266 395.89 266 395.89z"/>
			<path style="stroke:none; fill:#f90" d="M 282.5 392.39L 283.5 392.39C 283.5 392.39 283.5 391.89 283 391.89C 282.5 391.89 282.5 392.39 282.5 392.39z"/>
			<path style="stroke:none; fill:#630" d="M 281.5 392.39L 282.5 392.39C 282.5 392.39 282.5 392.89 282 392.89C 281.5 392.89 281.5 392.39 281.5 392.39z"/>
			<path style="stroke:none; fill:#f90" d="M 285 394.39C 284.562 394.89 283.5 395.39 283 395.39C 283 395.39 284.5 395.39 285 395.39C 285.5 395.39 285.5 394.39 285.5 393.39C 285.5 393.39 285.438 393.89 285 394.39z"/>
			<path style="stroke:none; fill:#f90" d="M 266 400.89C 266.438 401.39 267.5 401.89 268 401.89C 268 401.89 266.5 401.89 266 401.89C 265.5 401.89 265.5 400.89 265.5 399.89C 265.5 399.89 265.562 400.39 266 400.89z"/>
			<path style="stroke:none; fill:#f90" d="M 282 391.39C 282 391.39 279.75 390.653 279 391.39C 278.25 392.126 278.5 393.39 278.5 393.89C 278.5 393.89 280 391.89 282 391.39z"/>
			<path style="stroke:none; fill:#333" d="M 278 403.89L 280 403.89C 280 403.89 280 403.39 279 403.39C 278 403.39 278 403.89 278 403.89z"/>
			<path style="stroke:none; fill:#333" d="M 279 398.89L 281 398.89C 281 398.89 281 398.39 280 398.39C 279 398.39 279 398.89 279 398.89z"/>
			<path style="stroke:none; fill:#333" d="M 278.5 408.39L 280.5 408.39C 280.5 408.39 280.5 407.89 279.5 407.89C 278.5 407.89 278.5 408.39 278.5 408.39z"/>
			<path style="stroke:none; fill:#333" d="M 273 398.39C 273 398.39 271.5 397.89 271 399.89C 271 399.89 270.5 398.39 271 397.89C 271.5 397.39 273 398.39 273 398.39z"/>
			<path style="stroke:none; fill:#666" d="M 274 402.39C 274 400.89 274.5 399.89 276 399.89C 276 399.89 275.5 400.39 275 400.89C 274.5 401.39 274 402.39 274 402.39z"/>
			<path style="stroke:none; fill:#666" d="M 273 397.89C 271.5 397.89 270.5 398.39 270.5 399.89C 270.5 399.89 271 399.39 271.5 398.89C 272 398.39 273 397.89 273 397.89z"/>
			<path style="stroke:none; fill:#333" d="M 274 404.39C 272.5 404.39 271.5 404.89 271.5 406.39C 271.5 406.39 272 405.89 272.5 405.39C 273 404.89 274 404.39 274 404.39z"/>
			<path style="stroke:none; fill:#666" d="M 273 402.39C 271.5 402.39 270.5 402.89 270.5 404.39C 270.5 404.39 271 403.89 271.5 403.39C 272 402.89 273 402.39 273 402.39z"/>
			<path style="stroke:none; fill:#666" d="M 277 401.39C 277 401.39 278.5 401.89 279 399.89C 279 399.89 279.5 401.39 279 401.89C 278.5 402.39 277 401.39 277 401.39z"/>
			<path style="stroke:none; fill:#333" d="M 274 400.39C 274 400.39 272.5 399.89 272 401.89C 272 401.89 271.5 400.39 272 399.89C 272.5 399.39 274 400.39 274 400.39z"/>
			<path style="stroke:none; fill:#333" d="M 275 402.39C 275 402.39 275.5 403.89 276.5 403.89C 277.5 403.89 278 402.39 278 402.39C 278 402.39 277.208 402.89 276.5 402.89C 275.792 402.89 275 402.39 275 402.39z"/>
			<path style="stroke:none; fill:#666" d="M 275 397.89C 275 397.89 275.5 399.39 276.5 399.39C 277.5 399.39 278 397.89 278 397.89C 278 397.89 277.208 398.39 276.5 398.39C 275.792 398.39 275 397.89 275 397.89z"/>
			<path style="stroke:none; fill:#333" d="M 276 404.89C 276 404.89 274.5 405.39 274.5 406.39C 274.5 407.39 276 407.89 276 407.89C 276 407.89 275.5 407.098 275.5 406.39C 275.5 405.682 276 404.89 276 404.89z"/>
			<path style="stroke:none; fill:#666" d="M 276.5 405.89C 276.5 405.89 278 406.39 278 407.39C 278 408.39 276.5 408.89 276.5 408.89C 276.5 408.89 277 408.098 277 407.39C 277 406.682 276.5 405.89 276.5 405.89z"/>
			<path style="stroke:none; fill:#333" d="M 279 403.209C 279 403.209 282.535 403.208 280.977 399.39C 280.977 399.39 280.413 402.501 279 403.209z"/>
			<path style="stroke:none; fill:#666" d="M 277 404.742C 277 404.742 278.84 407.76 281.29 404.444C 281.29 404.444 278.34 405.581 277 404.742z"/>
			<path style="stroke:none; fill:#666" d="M 270.532 408.531C 270.604 408.569 270.677 408.605 270.75 408.64C 270.942 408.448 271.215 408.174 271.5 407.89C 272 407.39 273 406.89 273 406.89C 271.63 406.89 270.686 407.317 270.532 408.531z"/>
		</g>
	</g>
</svg>
