<svg xmlns="http://www.w3.org/2000/svg" width="24" height="24">
	<g transform="translate(-264,-386)" id="KDDI_D_429">
		<g>
			<path style="stroke:none; fill:none" d="M 288 409.89L 264 409.89L 264 385.89L 288 385.89L 288 409.89z"/>
		</g>
		<g>
			<path style="stroke:none; fill:#999" d="M 286.469 396.89C 286.48 396.723 286.5 396.059 286.5 395.89C 286.5 391.195 281.799 387.39 276 387.39C 270.201 387.39 265.5 391.195 265.5 395.89C 265.5 396.059 265.519 396.723 265.531 396.89"/>
			<path style="stroke:none; fill:#f60" d="M 264.5 396.89L 287.5 396.89L 287.5 397.89L 279 406.39L 273 406.39L 264.5 397.89L 264.5 396.89z"/>
			<path style="stroke:none; fill:#f90" d="M 286 396.89L 264.5 396.89L 264.5 397.89L 273 406.415L 276.5 406.39L 286 396.89z"/>
			<path style="stroke:none; fill:#fc6" d="M 272.5 396.89L 265 396.89L 274.5 406.39L 276.5 406.39L 272.5 396.89z"/>
			<path style="stroke:none; fill:#ccc" d="M 274.766 387.453C 269.549 387.949 265.5 391.534 265.5 395.89C 265.5 396.059 265.519 396.723 265.531 396.89L 284 396.89C 284.012 396.723 284.031 396.059 284.031 395.89C 284.031 391.534 279.981 387.949 274.766 387.453z"/>
			<path style="stroke:none; fill:#fff" d="M 277 391.89C 277 389.143 275.506 388.076 273.435 387.66C 268.878 388.588 265.5 391.914 265.5 395.89C 265.5 396.059 265.519 396.723 265.531 396.89L 269 396.89C 272.469 396.89 277 394.89 277 391.89z"/>
			<path style="stroke:none; fill:#ff9" d="M 266 396.89L 275.5 406.39L 276.5 406.39L 267 396.89L 266 396.89z"/>
			<path style="stroke:none; fill:#f90" d="M 272.5 408.89L 272.5 406.39L 279.5 406.39L 279.5 408.89"/>
			<path style="stroke:none; fill:#f60" d="M 277 406.39L 279.5 406.39L 279.5 408.89L 277 408.89L 277 406.39z"/>
			<path style="stroke:none; fill:#f60" d="M 272.5 406.39L 274 406.39L 274 408.89L 272.5 408.89L 272.5 406.39z"/>
			<path style="stroke:none; fill:#999" d="M 276 395.89L 278 395.89C 278 395.89 278 395.39 277 395.39C 276 395.39 276 395.89 276 395.89z"/>
			<path style="stroke:none; fill:#ccc" d="M 269.5 395.89L 271.5 395.89C 271.5 395.89 271.5 395.39 270.5 395.39C 269.5 395.39 269.5 395.89 269.5 395.89z"/>
			<path style="stroke:none; fill:#ccc" d="M 271.5 392.39L 273.5 392.39C 273.5 392.39 273.5 391.89 272.5 391.89C 271.5 391.89 271.5 392.39 271.5 392.39z"/>
			<path style="stroke:none; fill:#fff" d="M 276.5 392.89L 278.5 392.89C 278.5 392.89 278.5 392.39 277.5 392.39C 276.5 392.39 276.5 392.89 276.5 392.89z"/>
			<path style="stroke:none; fill:#999" d="M 276.5 391.39L 278.5 391.39C 278.5 391.39 278.5 390.89 277.5 390.89C 276.5 390.89 276.5 391.39 276.5 391.39z"/>
			<path style="stroke:none; fill:#999" d="M 272.5 393.89L 273.5 393.89C 273.5 393.89 273.5 393.39 273 393.39C 272.5 393.39 272.5 393.89 272.5 393.89z"/>
			<path style="stroke:none; fill:#fff" d="M 280.5 394.39L 281.5 394.39C 281.5 394.39 281.5 393.89 281 393.89C 280.5 393.89 280.5 394.39 280.5 394.39z"/>
			<path style="stroke:none; fill:#999" d="M 269.5 393.39L 270.5 393.39C 270.5 393.39 270.5 392.89 270 392.89C 269.5 392.89 269.5 393.39 269.5 393.39z"/>
			<path style="stroke:none; fill:#999" d="M 272.5 395.89L 273.5 395.89C 273.5 395.89 273.5 395.39 273 395.39C 272.5 395.39 272.5 395.89 272.5 395.89z"/>
			<path style="stroke:none; fill:#ccc" d="M 266 395.89L 267 395.89C 267 395.89 267 395.39 266.5 395.39C 266 395.39 266 395.89 266 395.89z"/>
			<path style="stroke:none; fill:#ccc" d="M 270.5 391.39L 271.5 391.39C 271.5 391.39 271.5 390.89 271 390.89C 270.5 390.89 270.5 391.39 270.5 391.39z"/>
			<path style="stroke:none; fill:#ccc" d="M 273 390.39L 274 390.39C 274 390.39 274 389.89 273.5 389.89C 273 389.89 273 390.39 273 390.39z"/>
			<path style="stroke:none; fill:#ccc" d="M 275 389.39L 276 389.39C 276 389.39 276 388.89 275.5 388.89C 275 388.89 275 389.39 275 389.39z"/>
			<path style="stroke:#333; stroke-width:1; fill:none" d="M 264.5 396.39L 287.5 396.39L 287.5 397.89L 279 406.39L 273 406.39L 264.5 397.89L 264.5 396.39z"/>
			<path style="stroke:#333; stroke-width:1; fill:none" d="M 286.469 396.89C 286.48 396.723 286.5 396.059 286.5 395.89C 286.5 391.195 281.799 387.39 276 387.39C 270.201 387.39 265.5 391.195 265.5 395.89C 265.5 396.059 265.519 396.723 265.531 396.89"/>
			<path style="stroke:#333; stroke-width:1; fill:none" d="M 272.5 408.89L 272.5 406.39L 279.5 406.39L 279.5 408.89"/>
		</g>
	</g>
</svg>
