<svg xmlns="http://www.w3.org/2000/svg" width="24" height="24">
	<g transform="translate(-264,-386)" id="KDDI_D_430">
		<g>
			<path style="stroke:none; fill:none" d="M 288 409.89L 264 409.89L 264 385.89L 288 385.89L 288 409.89z"/>
		</g>
		<g>
			<path style="stroke:#c30; stroke-width:1; fill:none" d="M 275 404.39C 277 404.39 281 403.89 281 401.39C 281 398.89 279 397.89 276.5 397.89"/>
			<path style="stroke:none; fill:#fff" d="M 287.334 403.89C 287.334 407.035 282.223 409.585 275.917 409.585C 269.611 409.585 264.5 407.035 264.5 403.89C 264.5 400.745 269.611 398.195 275.917 398.195C 282.223 398.195 287.334 400.745 287.334 403.89z"/>
			<path style="stroke:none; fill:#ccc" d="M 265.5 403.195C 265.5 405.416 269.778 407.89 275.917 407.89C 282.056 407.89 286.334 405.416 286.334 403.195C 286.334 400.974 282.056 398.5 275.917 398.5C 269.778 398.5 265.5 400.974 265.5 403.195z"/>
			<path style="stroke:#333; stroke-width:1; fill:none" d="M 287.334 403.89C 287.334 407.035 282.223 409.585 275.917 409.585C 269.611 409.585 264.5 407.035 264.5 403.89C 264.5 400.745 269.611 398.195 275.917 398.195C 282.223 398.195 287.334 400.745 287.334 403.89z"/>
			<path style="stroke:none; fill:#c30" d="M 283.5 401.39C 283.5 403.251 282 405.381 278 405.381C 277.835 405.387 276.168 405.39 276 405.39C 275.83 405.39 274.163 405.384 274 405.384C 269.5 405.384 268.5 403.263 268.5 401.39C 268.5 399.457 270.5 396.39 276 396.39C 281.5 396.39 283.5 399.457 283.5 401.39z"/>
			<path style="stroke:#f96; stroke-width:1; fill:none" d="M 273 403.39C 275 403.39 275.5 401.89 275.5 400.89C 275.5 399.89 274.5 398.89 273 398.89"/>
			<path style="stroke:#f30; stroke-width:1; fill:none" d="M 277.024 397.39C 278.024 397.39 282 398.39 282 400.89C 282 403.39 280 404.89 275 404.89C 272.5 404.89 269.5 403.89 269.5 401.39C 269.5 399.39 271.5 398.39 271.5 398.39"/>
			<path style="stroke:#f60; stroke-width:1; fill:none" d="M 278 398.39C 277 398.39 276.5 398.39 275.5 398.39C 273.5 398.39 273 397.39 273 396.39"/>
			<path style="stroke:#f30; stroke-width:1; fill:none" d="M 272 402.89C 274 402.89 274.5 401.89 274.5 400.89C 274.5 399.89 273 399.39 271.5 399.39L 271.5 396.89"/>
			<path style="stroke:#f60; stroke-width:1; fill:none" d="M 279.5 399.39C 278.565 399.39 273.735 399.393 273 399.393C 271 399.393 271 400.89 271 400.89"/>
			<path style="stroke:#f96; stroke-width:1; fill:none" d="M 276 398.39C 277 398.39 280 398.39 280 400.89C 280 403.39 277 404.39 273 404.39"/>
			<path style="stroke:#f60; stroke-width:1; fill:none" d="M 270.5 397.39C 270.5 400.89 270.5 403.39 274 403.39C 278.5 403.39 279 400.89 279 400.89"/>
			<path style="stroke:#c30; stroke-width:1; fill:none" d="M 283.5 401.39C 283.5 403.251 282 405.381 278 405.381C 277.835 405.387 274.163 405.384 274 405.384C 269.5 405.384 268.5 403.263 268.5 401.39C 268.5 399.457 270.5 396.39 276 396.39C 281.5 396.39 283.5 399.457 283.5 401.39z"/>
			<path style="stroke:#f60; stroke-width:1; fill:none" d="M 268.5 401.39C 268.5 399.457 270.5 396.39 276 396.39"/>
			<path style="stroke:#f96; stroke-width:1; fill:none" d="M 269.5 397.89C 269.5 400.39 270 400.89 273 400.89L 274 400.89"/>
			<path style="stroke:none; fill:#666" d="M 286 387.89C 286 387.89 277 387.89 276.5 387.89C 275.5 387.89 274.5 389.89 273.5 389.89C 272.5 389.89 268 389.89 268 389.89L 268 386.89C 268 386.89 274.5 386.89 275 386.89C 275.5 386.89 276 385.89 277.5 385.89C 279 385.89 285.5 385.89 286 385.89C 286.5 385.89 287 386.39 287 386.89C 287 387.39 286.5 387.89 286 387.89z"/>
			<path style="stroke:none; fill:#999" d="M 268 386.89L 268 388.89L 275 388.89C 275.5 388.39 276 387.89 276.5 387.89C 277 387.89 286 387.89 286 387.89C 286.5 387.89 287 387.39 287 386.89L 275 386.89C 274.5 386.89 268 386.89 268 386.89z"/>
			<path style="stroke:none; fill:#996" d="M 273.976 398.365C 273.976 398.628 273.763 398.84 273.5 398.84C 273.237 398.84 273.024 398.628 273.024 398.365C 273.024 398.102 273.237 397.89 273.5 397.89C 273.763 397.89 273.976 398.102 273.976 398.365z"/>
			<path style="stroke:none; fill:#996" d="M 277.976 397.39C 277.976 397.652 277.763 397.865 277.5 397.865C 277.237 397.865 277.024 397.652 277.024 397.39C 277.024 397.127 277.237 396.915 277.5 396.915C 277.763 396.915 277.976 397.127 277.976 397.39z"/>
			<path style="stroke:none; fill:#996" d="M 281.976 399.89C 281.976 400.152 281.763 400.365 281.5 400.365C 281.237 400.365 281.024 400.152 281.024 399.89C 281.024 399.627 281.237 399.415 281.5 399.415C 281.763 399.415 281.976 399.627 281.976 399.89z"/>
			<path style="stroke:none; fill:#996" d="M 280.476 402.89C 280.476 403.152 280.263 403.365 280 403.365C 279.737 403.365 279.524 403.152 279.524 402.89C 279.524 402.627 279.737 402.415 280 402.415C 280.263 402.415 280.476 402.627 280.476 402.89z"/>
			<path style="stroke:none; fill:#996" d="M 273.976 404.39C 273.976 404.652 273.763 404.865 273.5 404.865C 273.237 404.865 273.024 404.652 273.024 404.39C 273.024 404.127 273.237 403.915 273.5 403.915C 273.763 403.915 273.976 404.127 273.976 404.39z"/>
			<path style="stroke:none; fill:#996" d="M 271.476 403.39C 271.476 403.652 271.263 403.865 271 403.865C 270.737 403.865 270.524 403.652 270.524 403.39C 270.524 403.127 270.737 402.915 271 402.915C 271.263 402.915 271.476 403.127 271.476 403.39z"/>
			<path style="stroke:none; fill:#fc9" d="M 270.476 402.39C 270.476 402.652 270.263 402.865 270 402.865C 269.737 402.865 269.524 402.652 269.524 402.39C 269.524 402.127 269.737 401.915 270 401.915C 270.263 401.915 270.476 402.127 270.476 402.39z"/>
			<path style="stroke:none; fill:#fc9" d="M 275.976 399.39C 275.976 399.652 275.763 399.865 275.5 399.865C 275.237 399.865 275.024 399.652 275.024 399.39C 275.024 399.127 275.237 398.915 275.5 398.915C 275.763 398.915 275.976 399.127 275.976 399.39z"/>
			<path style="stroke:none; fill:#fc9" d="M 280.476 401.89C 280.476 402.152 280.263 402.365 280 402.365C 279.737 402.365 279.524 402.152 279.524 401.89C 279.524 401.627 279.737 401.415 280 401.415C 280.263 401.415 280.476 401.627 280.476 401.89z"/>
			<path style="stroke:#c30; stroke-width:1; fill:none" d="M 269 387.39L 271 387.39C 272 387.39 272.5 387.89 272.5 388.89C 272.5 389.39 272.5 398.105 272.5 398.89"/>
			<path style="stroke:#f30; stroke-width:1; fill:none" d="M 271.5 398.39C 271.5 398.39 271.5 389.39 271.5 388.89C 271.5 387.89 271 387.39 270 387.39L 268 387.39"/>
			<path style="stroke:#f60; stroke-width:1; fill:none" d="M 270.5 397.89C 270.5 397.89 270.5 389.39 270.5 388.89C 270.5 387.89 270 387.39 269 387.39L 268 387.39"/>
			<path style="stroke:#f96; stroke-width:1; fill:none" d="M 269.5 398.39C 269.5 398.39 269.5 389.39 269.5 388.89C 269.5 387.89 269 387.39 268 387.39"/>
		</g>
	</g>
</svg>
