<svg xmlns="http://www.w3.org/2000/svg" width="24" height="24">
	<g transform="translate(-264,-386)" id="KDDI_D_431">
		<g>
			<path style="stroke:none; fill:none" d="M 288 409.89L 264 409.89L 264 385.89L 288 385.89L 288 409.89z"/>
		</g>
		<g>
			<path style="stroke:none; fill:#fff" d="M 287.5 404.89C 287.5 407.375 282.352 409.39 276 409.39C 269.649 409.39 264.5 407.375 264.5 404.89C 264.5 402.404 269.649 400.39 276 400.39C 282.352 400.39 287.5 402.404 287.5 404.89z"/>
			<path style="stroke:none; fill:#ccc" d="M 265.5 404.39C 265.5 405.817 269.59 407.89 276 407.89C 282.41 407.89 286.5 405.817 286.5 404.39C 286.5 402.963 282.41 400.39 276 400.39C 269.59 400.39 265.5 402.963 265.5 404.39z"/>
			<path style="stroke:#333; stroke-width:1; fill:none" d="M 287.5 404.89C 287.5 407.375 282.352 409.39 276 409.39C 269.649 409.39 264.5 407.375 264.5 404.89C 264.5 402.404 269.649 400.39 276 400.39C 282.352 400.39 287.5 402.404 287.5 404.89z"/>
			<path style="stroke:none; fill:#666" d="M 268 403.89C 268 405.217 270.691 406.39 276 406.39C 281.309 406.39 284 405.217 284 403.89C 284 399.834 280.636 396.89 276 396.89C 271.364 396.89 268 399.834 268 403.89z"/>
			<path style="stroke:none; fill:#fff" d="M 276 397.89C 280.116 397.89 283.992 400.865 284 404.39C 283.843 404.724 280.939 405.39 276 405.39C 271.062 405.39 269.159 404.21 269.001 403.876C 269.009 400.351 271.884 397.89 276 397.89z"/>
			<path style="stroke:none; fill:#630" d="M 273.891 397.113C 270.312 397.876 268 400.536 268 403.89C 268 405.217 270.562 406.39 276 406.39C 278 406.39 278 404.89 278 404.39C 278 403.89 278 402.39 278 402.39C 278 400.333 276.672 397.863 274.135 397.123L 274.014 397.088L 273.891 397.113z"/>
			<path style="stroke:none; fill:#960" d="M 273.965 398.141C 276.175 398.86 277 401.053 277 402.39C 277 402.39 277 403.11 277 403.853C 277 404.39 276.492 405.252 275.302 405.39C 271 405.89 269 405.39 268 404.39C 268.006 401.536 270.912 398.847 273.965 398.141z"/>
			<path style="stroke:none; fill:#c93" d="M 276.964 401.889C 276.819 400.823 276.216 399.468 274.975 398.645C 274.972 398.644 274.969 398.642 274.965 398.641C 271.946 399.339 269.077 401.975 269.006 404.793C 269.642 404.886 270.57 404.89 272 404.89C 272 404.89 271.698 404.89 273 404.89C 274.302 404.89 276.964 403.751 276.964 401.889z"/>
			<path style="stroke:none; fill:#ccc" d="M 282.976 401.39C 282.976 401.652 282.763 401.865 282.5 401.865C 282.237 401.865 282.024 401.652 282.024 401.39C 282.024 401.127 282.237 400.915 282.5 400.915C 282.763 400.915 282.976 401.127 282.976 401.39z"/>
			<path style="stroke:none; fill:#ccc" d="M 280.976 401.39C 280.976 401.652 280.763 401.865 280.5 401.865C 280.237 401.865 280.024 401.652 280.024 401.39C 280.024 401.127 280.237 400.915 280.5 400.915C 280.763 400.915 280.976 401.127 280.976 401.39z"/>
			<path style="stroke:none; fill:#ccc" d="M 278.976 401.39C 278.976 401.652 278.763 401.865 278.5 401.865C 278.237 401.865 278.024 401.652 278.024 401.39C 278.024 401.127 278.237 400.915 278.5 400.915C 278.763 400.915 278.976 401.127 278.976 401.39z"/>
			<path style="stroke:none; fill:#ccc" d="M 281.976 402.39C 281.976 402.652 281.763 402.865 281.5 402.865C 281.237 402.865 281.024 402.652 281.024 402.39C 281.024 402.127 281.237 401.915 281.5 401.915C 281.763 401.915 281.976 402.127 281.976 402.39z"/>
			<path style="stroke:none; fill:#ccc" d="M 282.976 403.39C 282.976 403.652 282.763 403.865 282.5 403.865C 282.237 403.865 282.024 403.652 282.024 403.39C 282.024 403.127 282.237 402.915 282.5 402.915C 282.763 402.915 282.976 403.127 282.976 403.39z"/>
			<path style="stroke:none; fill:#ccc" d="M 279.976 402.39C 279.976 402.652 279.763 402.865 279.5 402.865C 279.237 402.865 279.024 402.652 279.024 402.39C 279.024 402.127 279.237 401.915 279.5 401.915C 279.763 401.915 279.976 402.127 279.976 402.39z"/>
			<path style="stroke:none; fill:#ccc" d="M 281.976 404.39C 281.976 404.652 281.763 404.865 281.5 404.865C 281.237 404.865 281.024 404.652 281.024 404.39C 281.024 404.127 281.237 403.915 281.5 403.915C 281.763 403.915 281.976 404.127 281.976 404.39z"/>
			<path style="stroke:none; fill:#ccc" d="M 279.976 404.39C 279.976 404.652 279.763 404.865 279.5 404.865C 279.237 404.865 279.024 404.652 279.024 404.39C 279.024 404.127 279.237 403.915 279.5 403.915C 279.763 403.915 279.976 404.127 279.976 404.39z"/>
			<path style="stroke:none; fill:#ccc" d="M 281.976 400.39C 281.976 400.652 281.763 400.865 281.5 400.865C 281.237 400.865 281.024 400.652 281.024 400.39C 281.024 400.127 281.237 399.915 281.5 399.915C 281.763 399.915 281.976 400.127 281.976 400.39z"/>
			<path style="stroke:none; fill:#ccc" d="M 279.976 400.39C 279.976 400.652 279.763 400.865 279.5 400.865C 279.237 400.865 279.024 400.652 279.024 400.39C 279.024 400.127 279.237 399.915 279.5 399.915C 279.763 399.915 279.976 400.127 279.976 400.39z"/>
			<path style="stroke:none; fill:#ccc" d="M 277.976 398.39C 277.976 398.652 277.763 398.865 277.5 398.865C 277.237 398.865 277.024 398.652 277.024 398.39C 277.024 398.127 277.237 397.915 277.5 397.915C 277.763 397.915 277.976 398.127 277.976 398.39z"/>
			<path style="stroke:none; fill:#ccc" d="M 280.976 399.39C 280.976 399.652 280.763 399.865 280.5 399.865C 280.237 399.865 280.024 399.652 280.024 399.39C 280.024 399.127 280.237 398.915 280.5 398.915C 280.763 398.915 280.976 399.127 280.976 399.39z"/>
			<path style="stroke:none; fill:#ccc" d="M 278.976 399.39C 278.976 399.652 278.763 399.865 278.5 399.865C 278.237 399.865 278.024 399.652 278.024 399.39C 278.024 399.127 278.237 398.915 278.5 398.915C 278.763 398.915 278.976 399.127 278.976 399.39z"/>
			<path style="stroke:none; fill:#ccc" d="M 280.976 403.39C 280.976 403.652 280.763 403.865 280.5 403.865C 280.237 403.865 280.024 403.652 280.024 403.39C 280.024 403.127 280.237 402.915 280.5 402.915C 280.763 402.915 280.976 403.127 280.976 403.39z"/>
			<path style="stroke:none; fill:#ccc" d="M 278.976 403.39C 278.976 403.652 278.763 403.865 278.5 403.865C 278.237 403.865 278.024 403.652 278.024 403.39C 278.024 403.127 278.237 402.915 278.5 402.915C 278.763 402.915 278.976 403.127 278.976 403.39z"/>
			<path style="stroke:none; fill:#933" d="M 273.976 399.39C 273.976 399.652 273.763 399.865 273.5 399.865C 273.237 399.865 273.024 399.652 273.024 399.39C 273.024 399.127 273.237 398.915 273.5 398.915C 273.763 398.915 273.976 399.127 273.976 399.39z"/>
			<path style="stroke:none; fill:#933" d="M 270.976 400.39C 270.976 400.652 270.763 400.865 270.5 400.865C 270.237 400.865 270.024 400.652 270.024 400.39C 270.024 400.127 270.237 399.915 270.5 399.915C 270.763 399.915 270.976 400.127 270.976 400.39z"/>
			<path style="stroke:none; fill:#c93" d="M 269.506 404.845C 270.01 404.88 270.661 404.888 271.5 404.889C 271.5 404.886 273.915 400.89 273 400.89C 272.2 400.89 269.535 404.651 269.506 404.845z"/>
			<path style="stroke:none; fill:#c00" d="M 285 403.89C 285 404.415 284.574 404.39 284.049 404.39C 283.523 404.39 283.098 404.415 283.098 403.89C 283.098 403.364 283.523 402.94 284.049 402.94C 284.574 402.94 285 403.364 285 403.89z"/>
			<path style="stroke:none; fill:#933" d="M 271.976 404.39C 271.976 404.652 271.763 404.865 271.5 404.865C 271.237 404.865 271.024 404.652 271.024 404.39C 271.024 404.127 271.237 403.915 271.5 403.915C 271.763 403.915 271.976 404.127 271.976 404.39z"/>
			<path style="stroke:none; fill:#c66" d="M 284.5 404.39C 284.5 404.915 284.074 404.89 283.549 404.89C 283.023 404.89 282.598 404.915 282.598 404.39C 282.598 403.864 283.023 403.44 283.549 403.44C 284.074 403.44 284.5 403.864 284.5 404.39z"/>
			<path style="stroke:none; fill:#c00" d="M 283.951 404.89C 283.951 405.415 283.525 405.39 283 405.39C 282.475 405.39 282.049 405.415 282.049 404.89C 282.049 404.364 282.475 403.94 283 403.94C 283.525 403.94 283.951 404.364 283.951 404.89z"/>
			<path style="stroke:#630; stroke-width:0.75; stroke-linecap:round; fill:none" d="M 272 401.39C 272 401.39 273 399.89 275.5 399.89"/>
			<path style="stroke:#630; stroke-width:0.75; stroke-linecap:round; fill:none" d="M 273 402.89C 273 402.89 274 401.89 276 401.89"/>
		</g>
	</g>
</svg>
