<svg xmlns="http://www.w3.org/2000/svg" width="24" height="24">
	<g transform="translate(-264,-386)" id="KDDI_D_432">
		<g>
			<path style="stroke:none; fill:none" d="M 288 409.89L 264 409.89L 264 385.89L 288 385.89L 288 409.89z"/>
		</g>
		<g>
			<path style="stroke:none; fill:#330" d="M 275.075 398.883C 274.569 398.375 273.748 398.375 273.242 398.883L 265.032 407.088C 264.528 407.598 264.526 408.417 265.032 408.922C 265.539 409.429 266.359 409.429 266.865 408.922L 275.073 400.715C 275.579 400.208 275.579 399.389 275.075 398.883z"/>
			<path style="stroke:none; fill:#663" d="M 274.563 400.043C 274.891 399.714 275.172 399.304 275.075 398.883C 274.569 398.375 273.748 398.375 273.242 398.883L 265.032 407.088C 264.704 407.418 264.613 407.876 264.711 408.298C 265.132 408.928 265.848 408.757 266.354 408.251L 274.563 400.043z"/>
			<path style="stroke:#cc9; stroke-width:1; stroke-linecap:round; fill:none" d="M 271.525 402.382L 265.826 408.082"/>
			<path style="stroke:none; fill:#fff" d="M 274.5 386.39L 287.5 386.39L 287.5 399.39L 274.5 386.39z"/>
			<path style="stroke:none; fill:#ccc" d="M 279.5 388.39L 276.5 388.39L 276.5 386.39L 279.5 386.39L 279.5 388.39z"/>
			<path style="stroke:none; fill:#ccc" d="M 287.5 388.39L 286 388.39L 286 386.39L 287.5 386.39L 287.5 388.39z"/>
			<path style="stroke:none; fill:#999" d="M 287.5 399.39L 287.5 387.89L 276 387.89L 287.5 399.39z"/>
			<path style="stroke:#333; stroke-width:1; fill:none" d="M 274.5 386.39L 287.5 386.39L 287.5 399.39L 274.5 386.39z"/>
			<path style="stroke:none; fill:#666" d="M 286.976 389.39C 286.976 389.652 286.763 389.865 286.5 389.865C 286.237 389.865 286.024 389.652 286.024 389.39C 286.024 389.127 286.237 388.915 286.5 388.915C 286.763 388.915 286.976 389.127 286.976 389.39z"/>
			<path style="stroke:none; fill:#666" d="M 285.976 395.365C 285.976 395.628 285.763 395.84 285.5 395.84C 285.237 395.84 285.024 395.628 285.024 395.365C 285.024 395.102 285.237 394.89 285.5 394.89C 285.763 394.89 285.976 395.102 285.976 395.365z"/>
			<path style="stroke:none; fill:#666" d="M 285.976 392.365C 285.976 392.628 285.763 392.84 285.5 392.84C 285.237 392.84 285.024 392.628 285.024 392.365C 285.024 392.102 285.237 391.89 285.5 391.89C 285.763 391.89 285.976 392.102 285.976 392.365z"/>
			<path style="stroke:none; fill:#666" d="M 284 390.39C 284 390.652 283.787 390.865 283.524 390.865C 283.262 390.865 283.049 390.652 283.049 390.39C 283.049 390.127 283.262 389.915 283.524 389.915C 283.787 389.915 284 390.127 284 390.39z"/>
			<path style="stroke:none; fill:#666" d="M 281.976 388.414C 281.976 388.677 281.763 388.889 281.5 388.889C 281.237 388.889 281.024 388.677 281.024 388.414C 281.024 388.151 281.237 387.939 281.5 387.939C 281.763 387.939 281.976 388.151 281.976 388.414z"/>
			<path style="stroke:none; fill:#666" d="M 281 390.39C 281 390.652 280.787 390.865 280.524 390.865C 280.262 390.865 280.049 390.652 280.049 390.39C 280.049 390.127 280.262 389.915 280.524 389.915C 280.787 389.915 281 390.127 281 390.39z"/>
			<path style="stroke:none; fill:#666" d="M 279.976 387.39C 279.976 387.652 279.763 387.865 279.5 387.865C 279.237 387.865 279.024 387.652 279.024 387.39C 279.024 387.127 279.237 386.915 279.5 386.915C 279.763 386.915 279.976 387.127 279.976 387.39z"/>
			<path style="stroke:none; fill:#666" d="M 284.951 387.39C 284.951 387.652 284.738 387.865 284.476 387.865C 284.213 387.865 284 387.652 284 387.39C 284 387.127 284.213 386.915 284.476 386.915C 284.738 386.915 284.951 387.127 284.951 387.39z"/>
			<path style="stroke:#666; stroke-width:1; fill:none" d="M 275.5 386.39L 287.5 386.39L 287.5 398.39L 275.5 386.39z"/>
			<path style="stroke:none; fill:#c96" d="M 280.682 392.708C 282.83 394.856 283.147 398.021 281.389 399.779C 279.632 401.536 276.466 401.219 274.317 399.071C 272.17 396.923 271.853 393.758 273.61 392.001C 275.368 390.243 278.534 390.56 280.682 392.708z"/>
			<path style="stroke:none; fill:#fc9" d="M 280.5 397.89C 281.579 396.811 281.869 395.202 281.441 393.624C 281.22 393.305 280.97 392.996 280.682 392.708C 278.534 390.56 275.368 390.243 273.61 392.001C 272.532 393.079 272.242 394.688 272.67 396.267C 272.892 396.586 273.141 396.894 273.429 397.182C 275.577 399.33 278.743 399.647 280.5 397.89z"/>
			<path style="stroke:none; fill:#fff" d="M 274.295 396.525C 274.221 396.202 274.165 395.88 274.165 395.573C 274.165 394.712 274.453 393.938 275 393.39C 275.697 392.693 276.573 392.546 277.185 392.546C 278.257 392.546 279.353 393.003 280.274 393.776C 280.125 393.595 279.975 393.415 279.975 393.415C 278.989 392.429 277.724 391.864 276.502 391.864C 275.89 391.864 275.015 392.011 274.317 392.708C 273.77 393.255 273.482 394.03 273.482 394.891C 273.482 395.198 273.538 395.52 273.613 395.843C 273.773 396.037 274.136 396.475 274.136 396.475C 274.256 396.595 274.392 396.689 274.52 396.796C 274.436 396.695 274.353 396.595 274.295 396.525z"/>
			<path style="stroke:#630; stroke-width:1; fill:none" d="M 280.682 392.708C 282.83 394.856 283.147 398.021 281.389 399.779C 279.632 401.536 276.466 401.219 274.317 399.071C 272.17 396.923 271.853 393.758 273.61 392.001C 275.368 390.243 278.534 390.56 280.682 392.708z"/>
			<path style="stroke:none; fill:#c96" d="M 264.5 398.39L 275.5 409.39L 279.5 405.39L 268.5 394.39L 264.5 398.39z"/>
			<path style="stroke:none; fill:#fc9" d="M 266.5 396.39L 277.5 407.39L 279.5 405.39L 268.5 394.39L 266.5 396.39z"/>
			<path style="stroke:none; fill:#ffc" d="M 266.5 396.39L 277.5 407.39L 278.207 406.683L 267.207 395.683L 266.5 396.39z"/>
			<path style="stroke:none; fill:#630" d="M 275.976 404.415C 275.976 404.677 275.763 404.89 275.5 404.89C 275.237 404.89 275.024 404.677 275.024 404.415C 275.024 404.152 275.237 403.94 275.5 403.94C 275.763 403.94 275.976 404.152 275.976 404.415z"/>
			<path style="stroke:none; fill:#630" d="M 272.976 401.39C 272.976 401.652 272.763 401.865 272.5 401.865C 272.237 401.865 272.024 401.652 272.024 401.39C 272.024 401.127 272.237 400.915 272.5 400.915C 272.763 400.915 272.976 401.127 272.976 401.39z"/>
			<path style="stroke:none; fill:#630" d="M 270 398.39C 270 398.652 269.787 398.865 269.524 398.865C 269.262 398.865 269.049 398.652 269.049 398.39C 269.049 398.127 269.262 397.915 269.524 397.915C 269.787 397.915 270 398.127 270 398.39z"/>
			<path style="stroke:#630; stroke-width:1; fill:none" d="M 264.5 398.39L 275.5 409.39L 279.5 405.39L 268.5 394.39L 264.5 398.39z"/>
			<path style="stroke:#333; stroke-width:1; fill:none" d="M 279.152 405.737L 279.5 405.39L 268.5 394.39L 268.153 394.737"/>
		</g>
	</g>
</svg>
