<svg xmlns="http://www.w3.org/2000/svg" width="24" height="24">
	<g transform="translate(-264,-386)" id="KDDI_D_433">
		<g>
			<path style="stroke:none; fill:none" d="M 288 409.89L 264 409.89L 264 385.89L 288 385.89L 288 409.89z"/>
		</g>
		<g>
			<g>
				<path style="stroke:none; fill:#fff" d="M 264.5 396.39L 264.5 400.39C 264.5 401.49 265.4 402.39 266.5 402.39L 271 402.39C 272.1 402.39 273.637 401.754 274.414 400.976L 281.086 394.304C 281.863 393.526 282.5 391.99 282.5 390.89L 282.5 387.39"/>
				<path style="stroke:none; fill:#ccc" d="M 282.49 387.395L 272 392.64L 272 398.39L 272.5 398.39C 272.5 398.39 273.541 396.917 277 393.89C 279.852 391.395 281.682 390.174 282.5 389.676L 282.5 387.403C 282.497 387.4 282.494 387.398 282.49 387.395z"/>
				<path style="stroke:#ccc; stroke-width:1; fill:none" d="M 265.5 401.89L 265.5 397.89L 271.5 397.89L 271.5 401.89"/>
				<path style="stroke:#333; stroke-width:1; fill:none" d="M 264.5 396.39L 264.5 400.39C 264.5 401.49 265.4 402.39 266.5 402.39L 271 402.39C 272.1 402.39 273.637 401.754 274.414 400.976L 281.086 394.304C 281.863 393.526 282.5 391.99 282.5 390.89L 282.5 387.89"/>
				<path style="stroke:none; fill:#960" d="M 264 397.39L 272.5 397.39C 272.5 397.39 273.541 395.917 277 392.89C 281 389.39 283 388.39 283 388.39C 283 388.39 283.001 388.177 283 387.875C 282.995 387.143 282.77 385.89 281 385.89C 278.5 385.89 277 385.89 276.5 385.89C 276 385.89 272.941 386.809 269.5 389.39C 267.5 390.89 264 394.39 264 395.39C 264 396.39 264 397.39 264 397.39z"/>
				<path style="stroke:none; fill:#960" d="M 276.5 390.89C 279.287 388.451 281.609 387.229 282.747 386.71C 282.473 386.257 281.957 385.89 281 385.89C 278.5 385.89 277 385.89 276.5 385.89C 276 385.89 272.941 386.809 269.5 389.39C 267.5 390.89 264 394.39 264 395.39L 272 395.39C 272 395.39 273.041 393.917 276.5 390.89z"/>
				<path style="stroke:none; fill:#fc0" d="M 276.5 390.89C 279.287 388.451 281.609 387.229 282.747 386.71C 282.473 386.257 281.957 385.89 281 385.89C 279.599 385.89 278.523 385.89 277.75 385.89C 277.25 385.89 274.191 386.809 270.75 389.39C 268.75 390.89 265.25 394.39 265.25 395.39L 272 395.39C 272 395.39 273.041 393.917 276.5 390.89z"/>
				<path style="stroke:none; fill:#ff3" d="M 265.25 395.39L 266.254 395.39C 266.801 394.157 268.946 391.65 271.25 389.626C 272.625 388.418 274.583 387.043 274.583 387.043C 274.583 387.043 274.562 387.046 274.551 387.048C 273.436 387.596 272.126 388.358 270.75 389.39C 268.75 390.89 265.25 394.39 265.25 395.39z"/>
				<path style="stroke:none; fill:#333" d="M 274.5 390.89C 275.419 390.89 275.926 391.27 276 391.338C 276.178 391.178 276.307 391.059 276.5 390.89C 277.009 390.444 277.526 390.029 278 389.661C 277.925 389.369 277.611 388.89 276.5 388.89C 274.938 388.89 270.192 388.89 270.192 388.89C 269.964 389.049 269.733 389.215 269.5 389.39C 268.979 389.78 268.357 390.308 267.721 390.89C 267.721 390.89 273.5 390.89 274.5 390.89z"/>
				<path style="stroke:none; fill:#000" d="M 276.5 390.89C 276.318 391.049 276.169 391.187 276 391.338L 276 399.39L 278 396.89L 278 389.661C 277.517 390.035 277.02 390.435 276.5 390.89z"/>
				<path style="stroke:none; fill:#ff3" d="M 272 396.39L 265.25 396.39L 265.25 395.39L 272 395.39L 272 396.39z"/>
			</g>
			<g>
				<path style="stroke:none; fill:#fff" d="M 269.5 403.39L 269.5 407.39C 269.5 408.49 270.4 409.39 271.5 409.39L 276 409.39C 277.1 409.39 278.637 408.754 279.414 407.976L 286.086 401.304C 286.863 400.526 287.5 398.99 287.5 397.89L 287.5 394.39"/>
				<path style="stroke:none; fill:#ccc" d="M 287.491 394.395L 277 399.64L 277 405.39L 277.5 405.39C 277.5 405.39 278.541 403.917 282 400.89C 284.852 398.395 286.682 397.174 287.5 396.676L 287.5 394.403C 287.497 394.4 287.494 394.398 287.491 394.395z"/>
				<path style="stroke:#ccc; stroke-width:1; fill:none" d="M 270.5 408.89L 270.5 404.89L 276.5 404.89L 276.5 408.89"/>
				<path style="stroke:#333; stroke-width:1; fill:none" d="M 269.5 403.39L 269.5 407.39C 269.5 408.49 270.4 409.39 271.5 409.39L 276 409.39C 277.1 409.39 278.637 408.754 279.414 407.976L 286.086 401.304C 286.863 400.526 287.5 398.99 287.5 397.89L 287.5 394.89"/>
				<path style="stroke:none; fill:#900" d="M 269 404.39L 277.5 404.39C 277.5 404.39 278.541 402.917 282 399.89C 286 396.39 288 395.39 288 395.39C 288 395.39 288.015 395.192 288.016 394.908C 288.019 394.181 287.797 392.89 286 392.89C 283.5 392.89 282 392.89 281.5 392.89C 281 392.89 277.941 393.809 274.5 396.39C 272.5 397.89 269 401.39 269 402.39C 269 403.39 269 404.39 269 404.39z"/>
				<path style="stroke:none; fill:#c33" d="M 281.5 397.89C 284.287 395.451 286.609 394.229 287.747 393.71C 287.473 393.257 286.957 392.89 286 392.89C 283.5 392.89 282 392.89 281.5 392.89C 281 392.89 277.941 393.809 274.5 396.39C 272.5 397.89 269 401.39 269 402.39L 277 402.39C 277 402.39 278.041 400.917 281.5 397.89z"/>
				<path style="stroke:none; fill:#f66" d="M 271.458 400.855L 278.354 400.855C 278.639 400.56 278.958 400.236 279.354 399.855L 272.327 399.855C 272.007 400.202 271.71 400.541 271.458 400.855z"/>
				<path style="stroke:none; fill:#f66" d="M 287.34 393.903L 279.872 393.903C 279.301 394.173 278.669 394.507 278 394.903L 285.533 394.903C 286.248 394.467 286.862 394.137 287.34 393.903z"/>
				<path style="stroke:none; fill:#f66" d="M 274.417 397.89L 281.5 397.89C 281.914 397.527 282.314 397.2 282.705 396.89L 275.565 396.89C 275.2 397.19 274.812 397.527 274.417 397.89z"/>
				<path style="stroke:none; fill:#f99" d="M 270.25 402.39L 271.254 402.39C 271.801 401.157 273.946 398.65 276.25 396.626C 277.625 395.418 279.583 394.043 279.583 394.043C 279.583 394.043 279.562 394.046 279.551 394.048C 278.436 394.596 277.126 395.358 275.75 396.39C 273.75 397.89 270.25 401.39 270.25 402.39z"/>
			</g>
		</g>
	</g>
</svg>
