<svg xmlns="http://www.w3.org/2000/svg" width="24" height="24">
	<g transform="translate(-264,-386)" id="KDDI_D_434">
		<g>
			<path style="stroke:none; fill:none" d="M 288 409.89L 264 409.89L 264 385.89L 288 385.89L 288 409.89z"/>
		</g>
		<g>
			<path style="stroke:none; fill:#660" d="M 277 392.39L 275 392.39L 275 385.89L 277 385.89L 277 392.39z"/>
			<path style="stroke:none; fill:#990" d="M 276 389.89L 276 385.89L 275 385.89L 275 389.89L 276 389.89z"/>
			<path style="stroke:none; fill:#c00" d="M 281.5 387.89C 280 387.89 277.5 388.39 276 391.89C 275 388.39 272 387.89 270.5 387.89C 269 387.89 264 388.39 264 396.89C 264 405.39 270.25 409.89 272.5 409.89C 274.75 409.89 276 407.89 276 407.89C 276 407.89 277.75 409.89 280 409.89C 282.25 409.89 288 405.39 288 396.89C 288 388.39 283 387.89 281.5 387.89z"/>
			<path style="stroke:none; fill:#f00" d="M 264.021 396.341C 264.241 404.543 270.291 408.89 272.5 408.89C 274.75 408.89 276 406.89 276 406.89C 276 406.89 277.75 408.89 280 408.89C 282.25 408.89 287 404.39 287 395.89C 287 389.39 283 388.89 281.5 388.89C 280 388.89 277.5 389.89 276 393.39C 275 389.89 272 387.89 270.5 387.89C 269.034 387.89 264.239 388.388 264.021 396.341z"/>
			<path style="stroke:none; fill:#390" d="M 277 385.89C 277 385.89 280.5 385.89 281.5 385.89C 282.5 385.89 286 386.39 288 391.39C 288 391.39 282.5 392.39 278 386.89L 277 386.89"/>
			<path style="stroke:none; fill:#360" d="M 288 391.39C 288 391.39 283 386.89 278 386.89C 282.5 392.39 288 391.39 288 391.39z"/>
			<path style="stroke:none; fill:#f30" d="M 284.5 400.89C 284.5 400.89 284.784 402.807 283 403.39C 281.216 403.972 280.478 401.005 280.478 401.005C 280.478 401.005 280.5 403.89 279 404.39C 277.5 404.89 276.002 401.754 276.002 401.754C 276.002 401.754 274.5 404.89 273 404.39C 271.5 403.89 271.523 401.003 271.523 401.003C 271.523 401.003 270.716 403.39 269.5 403.39C 268.284 403.39 267.5 400.89 267.5 400.89L 266.096 403.698C 268.121 407.111 271.09 408.89 272.5 408.89C 274.75 408.89 276 406.89 276 406.89C 276 406.89 277.75 408.89 280 408.89C 281.484 408.89 284.049 406.92 285.628 403.147L 284.5 400.89z"/>
			<path style="stroke:none; fill:#f33" d="M 274 394.89C 274 397.375 271.985 399.39 269.5 399.39C 267.015 399.39 265 397.375 265 394.89C 265 392.404 267.015 390.39 269.5 390.39C 271.985 390.39 274 392.404 274 394.89z"/>
			<path style="stroke:none; fill:#f66" d="M 266 394.89C 266 396.819 267.57 398.39 269.5 398.39C 271.43 398.39 273 396.819 273 394.89C 273 392.96 271.43 391.39 269.5 391.39C 267.57 391.39 266 392.96 266 394.89z"/>
			<path style="stroke:none; fill:#f99" d="M 267 394.89C 267 396.268 268.122 397.39 269.5 397.39C 270.878 397.39 272 396.268 272 394.89C 272 393.511 270.878 392.39 269.5 392.39C 268.122 392.39 267 393.511 267 394.89z"/>
			<path style="stroke:none; fill:#fcc" d="M 268 394.89C 268 395.717 268.673 396.39 269.5 396.39C 270.327 396.39 271 395.717 271 394.89C 271 394.063 270.327 393.39 269.5 393.39C 268.673 393.39 268 394.063 268 394.89z"/>
			<path style="stroke:none; fill:#f60" d="M 284.5 403.39C 283 407.39 281 403.89 281 403.89C 281 403.89 280.5 406.89 279 406.89C 277 406.89 276 404.39 276 404.39C 276 404.39 275 406.89 273 406.89C 271.5 406.89 271 403.89 271 403.89C 271 403.89 269 407.39 267.5 403.39C 267.5 403.39 267.302 404.033 267.289 405.406C 269.157 407.698 271.349 408.89 272.5 408.89C 274.75 408.89 276 406.89 276 406.89C 276 406.89 277.75 408.89 280 408.89C 281.219 408.89 283.168 407.558 284.702 404.996C 284.658 403.908 284.5 403.39 284.5 403.39z"/>
			<g>
				<path style="stroke:none; fill:#c90" d="M 271.406 408.643C 271.825 408.804 272.199 408.89 272.5 408.89C 274.75 408.89 276 406.89 276 406.89C 276 406.89 274.464 408.109 271.406 408.643z"/>
				<path style="stroke:none; fill:#c90" d="M 280 408.89C 280.263 408.89 280.564 408.816 280.882 408.693C 277.629 408.19 276 406.89 276 406.89C 276 406.89 277.75 408.89 280 408.89z"/>
			</g>
		</g>
	</g>
</svg>
