<svg xmlns="http://www.w3.org/2000/svg" width="24" height="24">
	<g transform="translate(-264,-386)" id="KDDI_D_435">
		<g>
			<path style="stroke:none; fill:none" d="M 288 409.89L 264 409.89L 264 385.89L 288 385.89L 288 409.89z"/>
		</g>
		<g>
			<path style="stroke:none; fill:#c60" d="M 288 400.39C 288 405.636 282.627 409.89 276 409.89C 269.373 409.89 264 405.636 264 400.39C 264 395.143 269.373 390.89 276 390.89C 282.627 390.89 288 395.143 288 400.39z"/>
			<path style="stroke:none; fill:#f60" d="M 284.946 394.074C 282.749 392.125 279.56 390.89 276 390.89C 269.586 390.89 264.362 394.877 264.032 399.89C 264.362 404.902 269.586 408.89 276 408.89C 282.627 408.89 287 404.636 287 399.39C 287 397.421 286.243 395.591 284.946 394.074z"/>
			<path style="stroke:none; fill:#f90" d="M 275 396.89C 275 398.823 273.209 400.39 271 400.39C 268.791 400.39 267 398.823 267 396.89C 267 394.957 268.791 393.39 271 393.39C 273.209 393.39 275 394.957 275 396.89z"/>
			<path style="stroke:none; fill:#fc6" d="M 274 396.89C 274 398.271 272.657 399.39 271 399.39C 269.343 399.39 268 398.271 268 396.89C 268 395.509 269.343 394.39 271 394.39C 272.657 394.39 274 395.509 274 396.89z"/>
			<path style="stroke:none; fill:#ff9" d="M 272.5 396.89C 272.5 397.442 271.829 397.89 271 397.89C 270.171 397.89 269.5 397.442 269.5 396.89C 269.5 396.338 270.171 395.89 271 395.89C 271.829 395.89 272.5 396.338 272.5 396.89z"/>
			<path style="stroke:none; fill:#c60" d="M 280.976 407.39C 280.976 407.652 280.763 407.865 280.5 407.865C 280.237 407.865 280.024 407.652 280.024 407.39C 280.024 407.127 280.237 406.915 280.5 406.915C 280.763 406.915 280.976 407.127 280.976 407.39z"/>
			<path style="stroke:none; fill:#c60" d="M 276.976 407.39C 276.976 407.652 276.763 407.865 276.5 407.865C 276.237 407.865 276.024 407.652 276.024 407.39C 276.024 407.127 276.237 406.915 276.5 406.915C 276.763 406.915 276.976 407.127 276.976 407.39z"/>
			<path style="stroke:none; fill:#c60" d="M 272.976 407.39C 272.976 407.652 272.763 407.865 272.5 407.865C 272.237 407.865 272.024 407.652 272.024 407.39C 272.024 407.127 272.237 406.915 272.5 406.915C 272.763 406.915 272.976 407.127 272.976 407.39z"/>
			<path style="stroke:none; fill:#c60" d="M 278.976 405.39C 278.976 405.652 278.763 405.865 278.5 405.865C 278.237 405.865 278.024 405.652 278.024 405.39C 278.024 405.127 278.237 404.915 278.5 404.915C 278.763 404.915 278.976 405.127 278.976 405.39z"/>
			<path style="stroke:none; fill:#c60" d="M 282.976 405.39C 282.976 405.652 282.763 405.865 282.5 405.865C 282.237 405.865 282.024 405.652 282.024 405.39C 282.024 405.127 282.237 404.915 282.5 404.915C 282.763 404.915 282.976 405.127 282.976 405.39z"/>
			<path style="stroke:none; fill:#c60" d="M 270.976 405.39C 270.976 405.652 270.763 405.865 270.5 405.865C 270.237 405.865 270.024 405.652 270.024 405.39C 270.024 405.127 270.237 404.915 270.5 404.915C 270.763 404.915 270.976 405.127 270.976 405.39z"/>
			<path style="stroke:none; fill:#c60" d="M 270.976 401.39C 270.976 401.652 270.763 401.865 270.5 401.865C 270.237 401.865 270.024 401.652 270.024 401.39C 270.024 401.127 270.237 400.915 270.5 400.915C 270.763 400.915 270.976 401.127 270.976 401.39z"/>
			<path style="stroke:none; fill:#c60" d="M 274.976 405.39C 274.976 405.652 274.763 405.865 274.5 405.865C 274.237 405.865 274.024 405.652 274.024 405.39C 274.024 405.127 274.237 404.915 274.5 404.915C 274.763 404.915 274.976 405.127 274.976 405.39z"/>
			<path style="stroke:none; fill:#c60" d="M 284.976 403.39C 284.976 403.652 284.763 403.865 284.5 403.865C 284.237 403.865 284.024 403.652 284.024 403.39C 284.024 403.127 284.237 402.915 284.5 402.915C 284.763 402.915 284.976 403.127 284.976 403.39z"/>
			<path style="stroke:none; fill:#c60" d="M 280.976 403.39C 280.976 403.652 280.763 403.865 280.5 403.865C 280.237 403.865 280.024 403.652 280.024 403.39C 280.024 403.127 280.237 402.915 280.5 402.915C 280.763 402.915 280.976 403.127 280.976 403.39z"/>
			<path style="stroke:none; fill:#c60" d="M 276.976 403.39C 276.976 403.652 276.763 403.865 276.5 403.865C 276.237 403.865 276.024 403.652 276.024 403.39C 276.024 403.127 276.237 402.915 276.5 402.915C 276.763 402.915 276.976 403.127 276.976 403.39z"/>
			<path style="stroke:none; fill:#c60" d="M 282.976 401.365C 282.976 401.628 282.763 401.84 282.5 401.84C 282.237 401.84 282.024 401.628 282.024 401.365C 282.024 401.102 282.237 400.89 282.5 400.89C 282.763 400.89 282.976 401.102 282.976 401.365z"/>
			<path style="stroke:none; fill:#c60" d="M 286.976 401.365C 286.976 401.628 286.763 401.84 286.5 401.84C 286.237 401.84 286.024 401.628 286.024 401.365C 286.024 401.102 286.237 400.89 286.5 400.89C 286.763 400.89 286.976 401.102 286.976 401.365z"/>
			<path style="stroke:none; fill:#c60" d="M 274.976 401.365C 274.976 401.628 274.763 401.84 274.5 401.84C 274.237 401.84 274.024 401.628 274.024 401.365C 274.024 401.102 274.237 400.89 274.5 400.89C 274.763 400.89 274.976 401.102 274.976 401.365z"/>
			<path style="stroke:none; fill:#c60" d="M 272.976 403.39C 272.976 403.652 272.763 403.865 272.5 403.865C 272.237 403.865 272.024 403.652 272.024 403.39C 272.024 403.127 272.237 402.915 272.5 402.915C 272.763 402.915 272.976 403.127 272.976 403.39z"/>
			<path style="stroke:none; fill:#c60" d="M 278.976 401.365C 278.976 401.628 278.763 401.84 278.5 401.84C 278.237 401.84 278.024 401.628 278.024 401.365C 278.024 401.102 278.237 400.89 278.5 400.89C 278.763 400.89 278.976 401.102 278.976 401.365z"/>
			<path style="stroke:none; fill:#c60" d="M 284.976 399.39C 284.976 399.652 284.763 399.865 284.5 399.865C 284.237 399.865 284.024 399.652 284.024 399.39C 284.024 399.127 284.237 398.915 284.5 398.915C 284.763 398.915 284.976 399.127 284.976 399.39z"/>
			<path style="stroke:none; fill:#c60" d="M 280.976 399.39C 280.976 399.652 280.763 399.865 280.5 399.865C 280.237 399.865 280.024 399.652 280.024 399.39C 280.024 399.127 280.237 398.915 280.5 398.915C 280.763 398.915 280.976 399.127 280.976 399.39z"/>
			<path style="stroke:none; fill:#c60" d="M 276.976 399.39C 276.976 399.652 276.763 399.865 276.5 399.865C 276.237 399.865 276.024 399.652 276.024 399.39C 276.024 399.127 276.237 398.915 276.5 398.915C 276.763 398.915 276.976 399.127 276.976 399.39z"/>
			<path style="stroke:none; fill:#c60" d="M 286.976 397.39C 286.976 397.652 286.763 397.865 286.5 397.865C 286.237 397.865 286.024 397.652 286.024 397.39C 286.024 397.127 286.237 396.915 286.5 396.915C 286.763 396.915 286.976 397.127 286.976 397.39z"/>
			<path style="stroke:none; fill:#c60" d="M 282.976 397.39C 282.976 397.652 282.763 397.865 282.5 397.865C 282.237 397.865 282.024 397.652 282.024 397.39C 282.024 397.127 282.237 396.915 282.5 396.915C 282.763 396.915 282.976 397.127 282.976 397.39z"/>
			<path style="stroke:none; fill:#c60" d="M 278.976 397.39C 278.976 397.652 278.763 397.865 278.5 397.865C 278.237 397.865 278.024 397.652 278.024 397.39C 278.024 397.127 278.237 396.915 278.5 396.915C 278.763 396.915 278.976 397.127 278.976 397.39z"/>
			<path style="stroke:none; fill:#c60" d="M 281 395.39C 281 395.652 280.787 395.865 280.524 395.865C 280.262 395.865 280.049 395.652 280.049 395.39C 280.049 395.127 280.262 394.915 280.524 394.915C 280.787 394.915 281 395.127 281 395.39z"/>
			<path style="stroke:none; fill:#c60" d="M 282.976 393.39C 282.976 393.652 282.763 393.865 282.5 393.865C 282.237 393.865 282.024 393.652 282.024 393.39C 282.024 393.127 282.237 392.915 282.5 392.915C 282.763 392.915 282.976 393.127 282.976 393.39z"/>
			<path style="stroke:none; fill:#c60" d="M 284.976 395.39C 284.976 395.652 284.763 395.865 284.5 395.865C 284.237 395.865 284.024 395.652 284.024 395.39C 284.024 395.127 284.237 394.915 284.5 394.915C 284.763 394.915 284.976 395.127 284.976 395.39z"/>
			<path style="stroke:none; fill:#c60" d="M 276 393.39C 277.699 393.39 279.356 392.329 279.843 391.397C 278.635 391.073 277.346 390.89 276 390.89C 274.654 390.89 273.365 391.073 272.157 391.397C 272.644 392.329 274.3 393.39 276 393.39z"/>
			<path style="stroke:none; fill:#390" d="M 278.5 391.39C 278.5 392.218 277.381 392.89 276 392.89C 274.619 392.89 273.5 392.218 273.5 391.39C 273.5 390.561 274.619 389.89 276 389.89C 277.381 389.89 278.5 390.561 278.5 391.39z"/>
			<path style="stroke:none; fill:#360" d="M 272 391.39L 275 390.89L 276 389.89L 277 390.89L 280 391.39L 277 391.89L 276 392.89L 275 391.89L 272 391.39z"/>
		</g>
	</g>
</svg>
