<svg xmlns="http://www.w3.org/2000/svg" width="24" height="24">
	<g transform="translate(-264,-386)" id="KDDI_D_436">
		<g>
			<path style="stroke:none; fill:none" d="M 288 409.89L 264 409.89L 264 385.89L 288 385.89L 288 409.89z"/>
		</g>
		<g>
			<path style="stroke:none; fill:#900" d="M 288 399.39C 288 405.189 282.627 409.89 276 409.89C 269.373 409.89 264 405.189 264 399.39C 264 393.59 268.623 389.64 275.25 389.64C 281.877 389.64 288 393.59 288 399.39z"/>
			<path style="stroke:none; fill:#c00" d="M 285.738 393.787C 285.726 393.774 285.712 393.757 285.7 393.743C 283.323 391.178 279.385 389.64 275.25 389.64C 268.831 389.64 264.305 393.352 264.027 398.855C 264.027 400.613 264.338 402.087 264.881 403.329C 265.178 403.969 265.543 404.578 265.971 405.148C 266.013 405.2 266.049 405.259 266.092 405.311C 266.109 405.332 266.128 405.351 266.145 405.372C 268.333 407.92 271.987 408.89 276 408.89C 282.627 408.89 287 404.189 287 398.39C 287 396.673 286.542 395.125 285.738 393.787z"/>
			<path style="stroke:none; fill:#f00" d="M 274.267 406.89C 279.936 406.89 284.5 403.324 284.5 398.926C 284.5 395.334 283.079 392.397 281.228 390.772C 279.405 390.042 277.354 389.64 275.25 389.64C 268.831 389.64 264.305 393.352 264.027 398.855C 264.027 400.477 264.301 401.847 264.769 403.027C 266.478 405.361 270.752 406.89 274.267 406.89z"/>
			<path style="stroke:none; fill:#f30" d="M 265.5 397.89C 265.5 400.095 267.519 401.89 270 401.89C 272.481 401.89 274.5 400.095 274.5 397.89C 274.5 395.684 272.481 393.89 270 393.89C 267.519 393.89 265.5 395.684 265.5 397.89z"/>
			<path style="stroke:none; fill:#f60" d="M 273.5 397.89C 273.5 399.546 271.933 400.89 270 400.89C 268.067 400.89 266.5 399.546 266.5 397.89C 266.5 396.233 268.067 394.89 270 394.89C 271.933 394.89 273.5 396.233 273.5 397.89z"/>
			<path style="stroke:none; fill:#fc6" d="M 267.5 397.89C 267.5 398.993 268.622 399.89 270 399.89C 271.378 399.89 272.5 398.993 272.5 397.89C 272.5 396.787 271.378 395.89 270 395.89C 268.622 395.89 267.5 396.787 267.5 397.89z"/>
			<path style="stroke:none; fill:#c00" d="M 278 394.39L 282.5 394.39L 279.5 391.39L 279.863 390.301C 279.14 390.088 278.387 389.941 277.622 389.829L 276.5 390.39L 270 392.39L 274 393.39L 273.5 395.89L 278 394.39z"/>
			<path style="stroke:none; fill:#ff9" d="M 268.5 397.89C 268.5 398.422 269.201 398.89 270 398.89C 270.799 398.89 271.5 398.422 271.5 397.89C 271.5 397.417 270.884 396.89 270 396.89C 269.116 396.89 268.5 397.417 268.5 397.89z"/>
			<path style="stroke:none; fill:#390" d="M 270.5 388.39L 272.5 390.39L 270 392.39L 273.5 392.39L 273.5 395.89L 277.5 393.39L 282.5 394.39L 279 390.39L 280.5 388.39L 276 389.39L 270.5 388.39z"/>
			<path style="stroke:none; fill:#360" d="M 274 390.89L 270 392.39L 274.5 392.39L 273.5 395.89L 276.5 392.39L 282.5 394.39L 277.5 390.89L 280.5 388.39L 276.02 390.41L 270.5 388.39L 274 390.89z"/>
		</g>
	</g>
</svg>
