<svg xmlns="http://www.w3.org/2000/svg" width="24" height="24">
	<g transform="translate(-264,-386)" id="KDDI_D_437">
		<g>
			<path style="stroke:none; fill:none" d="M 288 409.89L 264 409.89L 264 385.89L 288 385.89L 288 409.89z"/>
		</g>
		<g>
			<path style="stroke:none; fill:#306" d="M 280 389.89C 280 389.89 278 391.89 275.5 393.89C 273.494 395.495 271.215 396.431 269.315 397.003C 268.684 397.119 268.086 397.327 267.533 397.611C 267.333 397.699 267.149 397.79 267 397.89C 267.004 397.898 267.006 397.905 267.01 397.912C 265.202 399.067 264 401.086 264 403.39C 264 406.98 266.91 409.89 270.5 409.89C 270.751 409.89 270.999 409.872 271.242 409.844C 275.893 409.387 279.575 404.79 281 402.89C 282.082 401.447 286 393.39 286 393.39L 280 389.89z"/>
			<path style="stroke:none; fill:#609" d="M 270.742 408.844C 275.393 408.387 279.075 403.79 280.5 401.89C 281.413 400.673 284.336 394.763 285.23 392.941L 280 389.89C 280 389.89 278 391.89 275.5 393.89C 273.494 395.495 271.215 396.431 269.315 397.003C 268.684 397.119 268.086 397.327 267.533 397.611C 267.333 397.699 267.149 397.79 267 397.89C 267.004 397.898 267.006 397.905 267.01 397.912C 265.202 399.067 264 401.086 264 403.39C 264 404.231 264.165 405.032 264.456 405.771C 265.598 407.639 267.65 408.89 270 408.89C 270.251 408.89 270.499 408.872 270.742 408.844z"/>
			<path style="stroke:none; fill:#93c" d="M 268.5 398.89L 271.724 399.837C 277.739 396.829 279 393.39 279 393.39C 278.956 393.439 276 397.39 268.5 398.89z"/>
			<path style="stroke:none; fill:#93c" d="M 271.603 397.961C 270.307 397.838 268.776 398.392 267.505 399.442L 267.505 399.442C 265.344 401.228 264.631 403.813 265.881 405.325C 267.132 406.837 269.804 406.623 271.965 404.837C 274.126 403.05 274.84 400.466 273.59 398.953C 273.118 398.382 272.431 398.04 271.603 397.961z"/>
			<path style="stroke:none; fill:#c6f" d="M 272.369 399.046C 273.248 400.11 272.582 402.113 270.878 403.521C 269.176 404.929 267.082 405.207 266.203 404.144C 265.323 403.079 265.99 401.075 267.692 399.668C 269.394 398.26 271.489 397.981 272.369 399.046z"/>
			<path style="stroke:none; fill:#f9f" d="M 267.995 400.033C 267.062 400.806 266.545 401.745 266.481 402.422C 266.455 402.705 266.506 402.942 266.638 403.102C 267.089 403.647 268.583 403.441 269.907 402.346C 271.208 401.269 271.706 399.813 271.263 399.279C 271.135 399.123 270.922 399.031 270.629 399.003C 270.028 398.945 269.02 399.187 267.995 400.033z"/>
			<path style="stroke:none; fill:#fcf" d="M 268.181 400.259C 267.513 400.81 267.684 401.322 267.684 401.322C 267.684 401.322 268.085 401.635 268.817 401.029C 269.536 400.437 269.318 399.969 269.318 399.969C 269.318 399.969 268.924 399.644 268.181 400.259z"/>
			<path style="stroke:#306; stroke-width:1; stroke-linecap:round; fill:none" d="M 287.5 386.39C 287.5 386.39 286.5 387.89 285.5 388.89"/>
			<path style="stroke:none; fill:#609" d="M 286.5 388.89C 285.368 388.041 284.5 387.543 283.375 387.501C 282.877 387.483 281.619 387.983 280.5 388.543C 279.373 389.107 278 389.89 278 389.89L 281 390.39L 281 392.89L 284 392.89L 284 395.39L 285.5 395.39L 286.5 396.89C 286.5 396.89 287 394.89 287.5 393.39C 287.853 392.329 288 390.015 286.5 388.89z"/>
			<path style="stroke:none; fill:#93c" d="M 281.5 389.543C 282.619 388.983 283.877 388.483 284.375 388.501C 285.388 388.538 286.201 388.963 287.177 389.662C 287 389.375 286.789 389.106 286.5 388.89C 285.368 388.041 284.5 387.543 283.375 387.501C 282.877 387.483 281.619 387.983 280.5 388.543C 279.373 389.107 278 389.89 278 389.89L 280.154 390.249C 280.576 390.02 281.056 389.765 281.5 389.543z"/>
			<path style="stroke:#306; stroke-width:1; fill:none" d="M 286.5 388.89C 285.368 388.041 284.5 387.543 283.375 387.501C 282.877 387.483 281.619 387.983 280.5 388.543C 279.373 389.107 278 389.89 278 389.89L 281 390.39L 281 392.89L 284 392.89L 284 395.39L 285.5 395.39L 286.5 396.89C 286.5 396.89 287 394.89 287.5 393.39C 287.853 392.329 288 390.015 286.5 388.89z"/>
		</g>
	</g>
</svg>
