<svg xmlns="http://www.w3.org/2000/svg" width="24" height="24">
	<g transform="translate(-264,-386)" id="KDDI_D_438">
		<g>
			<path style="stroke:none; fill:none" d="M 288 409.89L 264 409.89L 264 385.89L 288 385.89L 288 409.89z"/>
		</g>
		<g>
			<path style="stroke:none; fill:#c96" d="M 287.5 402.39L 283.5 402.39L 283.5 394.39L 287.5 394.39L 287.5 402.39z"/>
			<path style="stroke:none; fill:#630" d="M 282 389.89L 282 391.89L 287 391.89L 287 389.89L 282 389.89z"/>
			<path style="stroke:none; fill:#630" d="M 282 392.89L 282 394.89L 287 394.89L 287 392.89L 282 392.89z"/>
			<path style="stroke:none; fill:#c96" d="M 282 388.89L 282 390.89L 287 390.89L 287 388.89L 282 388.89z"/>
			<path style="stroke:none; fill:#c96" d="M 282 391.89L 282 393.89L 287 393.89L 287 391.89L 282 391.89z"/>
			<path style="stroke:none; fill:#960" d="M 282.5 396.89L 276.5 396.89L 276.5 407.39L 282.5 407.39L 282.5 396.89z"/>
			<g>
				<path style="stroke:none; fill:#f96" d="M 281.5 406.39C 282.5 406.39 285 406.39 285.5 406.39C 286 406.39 286.5 405.89 286.5 405.39C 286.5 404.39 286.5 401.39 286.5 400.39C 286.5 399.39 285.5 393.39 282 393.39"/>
				<path style="stroke:none; fill:#ffc" d="M 281.5 406.39C 281.726 406.39 282.033 406.39 282.371 406.39L 286.5 402.261C 286.5 401.877 286.5 401.522 286.5 401.2L 281.508 406.192L 281.5 406.39z"/>
				<path style="stroke:none; fill:#ffc" d="M 281.691 401.604L 281.657 402.452L 281.78 402.575L 286.105 398.251C 286.03 397.99 285.943 397.723 285.843 397.452L 281.691 401.604z"/>
				<path style="stroke:none; fill:#ffc" d="M 284.149 394.741L 281.875 397.015L 281.831 398.119L 284.663 395.287C 284.504 395.09 284.334 394.905 284.149 394.741z"/>
				<path style="stroke:#630; stroke-width:1; fill:none" d="M 281.5 406.39C 282.5 406.39 285 406.39 285.5 406.39C 286 406.39 286.5 405.89 286.5 405.39C 286.5 404.39 286.5 401.39 286.5 400.39C 286.5 399.39 285.5 393.39 282 393.39"/>
			</g>
			<path style="stroke:#960; stroke-width:1; fill:#fc6" d="M 278.5 388.39L 281 388.39C 282.381 388.39 283.5 389.509 283.5 390.89C 283.5 392.271 282.381 393.39 281 393.39L 278.5 393.39"/>
			<path style="stroke:#960; stroke-width:1; fill:#fc6" d="M 277.5 388.39L 278.5 388.39C 279.881 388.39 281 389.509 281 390.89C 281 392.271 279.881 393.39 278.5 393.39L 277.5 393.39L 277.5 388.39"/>
			<path style="stroke:#999; stroke-width:1; fill:#fff" d="M 276.5 388.39L 266.5 388.39C 265.4 388.39 264.5 389.29 264.5 390.39L 264.5 405.39C 264.5 406.49 265.4 407.39 266.5 407.39L 276.5 407.39L 276.5 388.39z"/>
			<path style="stroke:#06c; stroke-width:1; fill:none" d="M 287.5 405.39C 287.5 406.49 286.6 407.39 285.5 407.39L 266.5 407.39C 265.4 407.39 264.5 406.49 264.5 405.39L 264.5 390.39C 264.5 389.29 265.4 388.39 266.5 388.39L 285.5 388.39C 286.6 388.39 287.5 389.29 287.5 390.39L 287.5 405.39z"/>
			<g>
				<path style="stroke:none; fill:#c00" d="M 278 404.89C 277.448 404.89 277 405.338 277 405.89C 277 406.442 277.448 406.89 278 406.89L 282 406.89C 282.552 406.89 283 406.442 283 405.89C 283 405.338 282.552 404.89 282 404.89L 278 404.89z"/>
				<path style="stroke:none; fill:#f30" d="M 282 404.89L 278 404.89C 277.634 404.89 277.328 405.096 277.153 405.39C 277.328 405.683 277.634 405.89 278 405.89L 282 405.89C 282.366 405.89 282.672 405.683 282.847 405.39C 282.672 405.096 282.366 404.89 282 404.89z"/>
			</g>
			<g>
				<path style="stroke:none; fill:#c00" d="M 278 402.89C 277.448 402.89 277 403.338 277 403.89C 277 404.442 277.448 404.89 278 404.89L 282 404.89C 282.552 404.89 283 404.442 283 403.89C 283 403.338 282.552 402.89 282 402.89L 278 402.89z"/>
				<path style="stroke:none; fill:#f30" d="M 282 402.89L 278 402.89C 277.634 402.89 277.328 403.096 277.153 403.39C 277.328 403.683 277.634 403.89 278 403.89L 282 403.89C 282.366 403.89 282.672 403.683 282.847 403.39C 282.672 403.096 282.366 402.89 282 402.89z"/>
			</g>
			<path style="stroke:#c90; stroke-width:1; fill:#ff9" d="M 282.5 397.39L 277.5 397.39L 277.5 394.39L 282.5 394.39L 282.5 397.39z"/>
			<g>
				<path style="stroke:none; fill:#390" d="M 282.122 397.803C 281.56 397.241 280.74 397.094 280.039 397.354C 279.324 397.064 278.475 397.208 277.897 397.786C 277.318 398.364 277.175 399.214 277.464 399.929C 277.204 400.629 277.352 401.449 277.913 402.011C 278.487 402.585 279.328 402.73 280.038 402.449C 280.735 402.7 281.546 402.552 282.104 401.994C 282.662 401.436 282.81 400.626 282.56 399.928C 282.84 399.218 282.695 398.377 282.122 397.803z"/>
				<path style="stroke:none; fill:#060" d="M 282.976 399.915C 282.976 399.119 282.5 398.436 281.821 398.124C 281.521 397.414 280.817 396.915 280 396.915C 279.183 396.915 278.479 397.414 278.179 398.124C 277.5 398.436 277.024 399.119 277.024 399.915C 277.024 400.726 277.517 401.422 278.217 401.726C 278.533 402.397 279.211 402.865 280 402.865C 280.789 402.865 281.467 402.397 281.783 401.726C 282.483 401.422 282.976 400.726 282.976 399.915z"/>
				<path style="stroke:none; fill:#390" d="M 280.476 398.89C 280.476 399.152 280.263 399.365 280 399.365C 279.737 399.365 279.524 399.152 279.524 398.89C 279.524 398.627 279.737 398.415 280 398.415C 280.263 398.415 280.476 398.627 280.476 398.89z"/>
				<path style="stroke:none; fill:#390" d="M 280.476 400.89C 280.476 401.152 280.263 401.365 280 401.365C 279.737 401.365 279.524 401.152 279.524 400.89C 279.524 400.627 279.737 400.415 280 400.415C 280.263 400.415 280.476 400.627 280.476 400.89z"/>
				<path style="stroke:none; fill:#390" d="M 279.476 399.915C 279.476 400.177 279.263 400.39 279 400.39C 278.737 400.39 278.524 400.177 278.524 399.915C 278.524 399.652 278.737 399.44 279 399.44C 279.263 399.44 279.476 399.652 279.476 399.915z"/>
				<path style="stroke:none; fill:#390" d="M 281.476 399.915C 281.476 400.177 281.263 400.39 281 400.39C 280.737 400.39 280.524 400.177 280.524 399.915C 280.524 399.652 280.737 399.44 281 399.44C 281.263 399.44 281.476 399.652 281.476 399.915z"/>
			</g>
			<path style="stroke:none; fill:#ccc" d="M 272.976 405.39C 272.976 405.652 272.763 405.865 272.5 405.865C 272.237 405.865 272.024 405.652 272.024 405.39C 272.024 405.127 272.237 404.915 272.5 404.915C 272.763 404.915 272.976 405.127 272.976 405.39z"/>
			<path style="stroke:none; fill:#ccc" d="M 274.976 405.39C 274.976 405.652 274.763 405.865 274.5 405.865C 274.237 405.865 274.024 405.652 274.024 405.39C 274.024 405.127 274.237 404.915 274.5 404.915C 274.763 404.915 274.976 405.127 274.976 405.39z"/>
			<path style="stroke:none; fill:#ccc" d="M 273.976 404.39C 273.976 404.652 273.763 404.865 273.5 404.865C 273.237 404.865 273.024 404.652 273.024 404.39C 273.024 404.127 273.237 403.915 273.5 403.915C 273.763 403.915 273.976 404.127 273.976 404.39z"/>
			<path style="stroke:none; fill:#ccc" d="M 273.976 406.39C 273.976 406.652 273.763 406.865 273.5 406.865C 273.237 406.865 273.024 406.652 273.024 406.39C 273.024 406.127 273.237 405.915 273.5 405.915C 273.763 405.915 273.976 406.127 273.976 406.39z"/>
			<path style="stroke:none; fill:#ccc" d="M 268.976 405.39C 268.976 405.652 268.763 405.865 268.5 405.865C 268.237 405.865 268.024 405.652 268.024 405.39C 268.024 405.127 268.237 404.915 268.5 404.915C 268.763 404.915 268.976 405.127 268.976 405.39z"/>
			<path style="stroke:none; fill:#ccc" d="M 270.976 405.39C 270.976 405.652 270.763 405.865 270.5 405.865C 270.237 405.865 270.024 405.652 270.024 405.39C 270.024 405.127 270.237 404.915 270.5 404.915C 270.763 404.915 270.976 405.127 270.976 405.39z"/>
			<path style="stroke:none; fill:#ccc" d="M 269.976 404.39C 269.976 404.652 269.763 404.865 269.5 404.865C 269.237 404.865 269.024 404.652 269.024 404.39C 269.024 404.127 269.237 403.915 269.5 403.915C 269.763 403.915 269.976 404.127 269.976 404.39z"/>
			<path style="stroke:none; fill:#ccc" d="M 269.976 406.39C 269.976 406.652 269.763 406.865 269.5 406.865C 269.237 406.865 269.024 406.652 269.024 406.39C 269.024 406.127 269.237 405.915 269.5 405.915C 269.763 405.915 269.976 406.127 269.976 406.39z"/>
			<path style="stroke:none; fill:#ccc" d="M 267.976 406.39C 267.976 406.652 267.763 406.865 267.5 406.865C 267.237 406.865 267.024 406.652 267.024 406.39C 267.024 406.127 267.237 405.915 267.5 405.915C 267.763 405.915 267.976 406.127 267.976 406.39z"/>
			<path style="stroke:none; fill:#ccc" d="M 271.976 406.39C 271.976 406.652 271.763 406.865 271.5 406.865C 271.237 406.865 271.024 406.652 271.024 406.39C 271.024 406.127 271.237 405.915 271.5 405.915C 271.763 405.915 271.976 406.127 271.976 406.39z"/>
			<path style="stroke:none; fill:#ccc" d="M 267.976 404.39C 267.976 404.652 267.763 404.865 267.5 404.865C 267.237 404.865 267.024 404.652 267.024 404.39C 267.024 404.127 267.237 403.915 267.5 403.915C 267.763 403.915 267.976 404.127 267.976 404.39z"/>
			<path style="stroke:none; fill:#ccc" d="M 271.976 404.39C 271.976 404.652 271.763 404.865 271.5 404.865C 271.237 404.865 271.024 404.652 271.024 404.39C 271.024 404.127 271.237 403.915 271.5 403.915C 271.763 403.915 271.976 404.127 271.976 404.39z"/>
			<path style="stroke:none; fill:#ccc" d="M 272.976 390.39C 272.976 390.652 272.763 390.865 272.5 390.865C 272.237 390.865 272.024 390.652 272.024 390.39C 272.024 390.127 272.237 389.915 272.5 389.915C 272.763 389.915 272.976 390.127 272.976 390.39z"/>
			<path style="stroke:none; fill:#ccc" d="M 273.976 389.39C 273.976 389.652 273.763 389.865 273.5 389.865C 273.237 389.865 273.024 389.652 273.024 389.39C 273.024 389.127 273.237 388.915 273.5 388.915C 273.763 388.915 273.976 389.127 273.976 389.39z"/>
			<path style="stroke:none; fill:#ccc" d="M 273.976 391.39C 273.976 391.652 273.763 391.865 273.5 391.865C 273.237 391.865 273.024 391.652 273.024 391.39C 273.024 391.127 273.237 390.915 273.5 390.915C 273.763 390.915 273.976 391.127 273.976 391.39z"/>
			<path style="stroke:none; fill:#ccc" d="M 268.976 390.39C 268.976 390.652 268.763 390.865 268.5 390.865C 268.237 390.865 268.024 390.652 268.024 390.39C 268.024 390.127 268.237 389.915 268.5 389.915C 268.763 389.915 268.976 390.127 268.976 390.39z"/>
			<path style="stroke:none; fill:#ccc" d="M 266.976 390.39C 266.976 390.652 266.763 390.865 266.5 390.865C 266.237 390.865 266.024 390.652 266.024 390.39C 266.024 390.127 266.237 389.915 266.5 389.915C 266.763 389.915 266.976 390.127 266.976 390.39z"/>
			<path style="stroke:none; fill:#ccc" d="M 270.976 390.39C 270.976 390.652 270.763 390.865 270.5 390.865C 270.237 390.865 270.024 390.652 270.024 390.39C 270.024 390.127 270.237 389.915 270.5 389.915C 270.763 389.915 270.976 390.127 270.976 390.39z"/>
			<path style="stroke:none; fill:#ccc" d="M 269.976 389.39C 269.976 389.652 269.763 389.865 269.5 389.865C 269.237 389.865 269.024 389.652 269.024 389.39C 269.024 389.127 269.237 388.915 269.5 388.915C 269.763 388.915 269.976 389.127 269.976 389.39z"/>
			<path style="stroke:none; fill:#ccc" d="M 269.976 391.39C 269.976 391.652 269.763 391.865 269.5 391.865C 269.237 391.865 269.024 391.652 269.024 391.39C 269.024 391.127 269.237 390.915 269.5 390.915C 269.763 390.915 269.976 391.127 269.976 391.39z"/>
			<path style="stroke:none; fill:#ccc" d="M 267.976 391.39C 267.976 391.652 267.763 391.865 267.5 391.865C 267.237 391.865 267.024 391.652 267.024 391.39C 267.024 391.127 267.237 390.915 267.5 390.915C 267.763 390.915 267.976 391.127 267.976 391.39z"/>
			<path style="stroke:none; fill:#ccc" d="M 265.976 391.39C 265.976 391.652 265.763 391.865 265.5 391.865C 265.237 391.865 265.024 391.652 265.024 391.39C 265.024 391.127 265.237 390.915 265.5 390.915C 265.763 390.915 265.976 391.127 265.976 391.39z"/>
			<path style="stroke:none; fill:#ccc" d="M 271.976 391.39C 271.976 391.652 271.763 391.865 271.5 391.865C 271.237 391.865 271.024 391.652 271.024 391.39C 271.024 391.127 271.237 390.915 271.5 390.915C 271.763 390.915 271.976 391.127 271.976 391.39z"/>
			<path style="stroke:none; fill:#ccc" d="M 267.976 389.39C 267.976 389.652 267.763 389.865 267.5 389.865C 267.237 389.865 267.024 389.652 267.024 389.39C 267.024 389.127 267.237 388.915 267.5 388.915C 267.763 388.915 267.976 389.127 267.976 389.39z"/>
			<path style="stroke:none; fill:#ccc" d="M 271.976 389.39C 271.976 389.652 271.763 389.865 271.5 389.865C 271.237 389.865 271.024 389.652 271.024 389.39C 271.024 389.127 271.237 388.915 271.5 388.915C 271.763 388.915 271.976 389.127 271.976 389.39z"/>
			<path style="stroke:none; fill:#ccc" d="M 266.976 405.39C 266.976 405.652 266.763 405.865 266.5 405.865C 266.237 405.865 266.024 405.652 266.024 405.39C 266.024 405.127 266.237 404.915 266.5 404.915C 266.763 404.915 266.976 405.127 266.976 405.39z"/>
			<path style="stroke:none; fill:#ccc" d="M 265.976 404.39C 265.976 404.652 265.763 404.865 265.5 404.865C 265.237 404.865 265.024 404.652 265.024 404.39C 265.024 404.127 265.237 403.915 265.5 403.915C 265.763 403.915 265.976 404.127 265.976 404.39z"/>
			<path style="stroke:none; fill:#ccc" d="M 266.976 403.39C 266.976 403.652 266.763 403.865 266.5 403.865C 266.237 403.865 266.024 403.652 266.024 403.39C 266.024 403.127 266.237 402.915 266.5 402.915C 266.763 402.915 266.976 403.127 266.976 403.39z"/>
			<path style="stroke:none; fill:#ccc" d="M 266.976 392.365C 266.976 392.628 266.763 392.84 266.5 392.84C 266.237 392.84 266.024 392.628 266.024 392.365C 266.024 392.102 266.237 391.89 266.5 391.89C 266.763 391.89 266.976 392.102 266.976 392.365z"/>
			<path style="stroke:none; fill:#ccc" d="M 267.976 399.415C 267.976 399.677 267.763 399.89 267.5 399.89C 267.237 399.89 267.024 399.677 267.024 399.415C 267.024 399.152 267.237 398.94 267.5 398.94C 267.763 398.94 267.976 399.152 267.976 399.415z"/>
			<path style="stroke:none; fill:#ccc" d="M 266.976 400.415C 266.976 400.677 266.763 400.89 266.5 400.89C 266.237 400.89 266.024 400.677 266.024 400.415C 266.024 400.152 266.237 399.94 266.5 399.94C 266.763 399.94 266.976 400.152 266.976 400.415z"/>
			<path style="stroke:none; fill:#ccc" d="M 265.976 401.415C 265.976 401.677 265.763 401.89 265.5 401.89C 265.237 401.89 265.024 401.677 265.024 401.415C 265.024 401.152 265.237 400.94 265.5 400.94C 265.763 400.94 265.976 401.152 265.976 401.415z"/>
			<path style="stroke:none; fill:#ccc" d="M 267.976 397.415C 267.976 397.677 267.763 397.89 267.5 397.89C 267.237 397.89 267.024 397.677 267.024 397.415C 267.024 397.152 267.237 396.94 267.5 396.94C 267.763 396.94 267.976 397.152 267.976 397.415z"/>
			<path style="stroke:none; fill:#ccc" d="M 274.976 399.415C 274.976 399.677 274.763 399.89 274.5 399.89C 274.237 399.89 274.024 399.677 274.024 399.415C 274.024 399.152 274.237 398.94 274.5 398.94C 274.763 398.94 274.976 399.152 274.976 399.415z"/>
			<path style="stroke:none; fill:#ccc" d="M 274.976 397.415C 274.976 397.677 274.763 397.89 274.5 397.89C 274.237 397.89 274.024 397.677 274.024 397.415C 274.024 397.152 274.237 396.94 274.5 396.94C 274.763 396.94 274.976 397.152 274.976 397.415z"/>
			<path style="stroke:none; fill:#ccc" d="M 267.976 395.415C 267.976 395.677 267.763 395.89 267.5 395.89C 267.237 395.89 267.024 395.677 267.024 395.415C 267.024 395.152 267.237 394.94 267.5 394.94C 267.763 394.94 267.976 395.152 267.976 395.415z"/>
			<path style="stroke:none; fill:#ccc" d="M 266.976 398.415C 266.976 398.677 266.763 398.89 266.5 398.89C 266.237 398.89 266.024 398.677 266.024 398.415C 266.024 398.152 266.237 397.94 266.5 397.94C 266.763 397.94 266.976 398.152 266.976 398.415z"/>
			<path style="stroke:none; fill:#ccc" d="M 268.976 398.415C 268.976 398.677 268.763 398.89 268.5 398.89C 268.237 398.89 268.024 398.677 268.024 398.415C 268.024 398.152 268.237 397.94 268.5 397.94C 268.763 397.94 268.976 398.152 268.976 398.415z"/>
			<path style="stroke:none; fill:#ccc" d="M 273.976 398.415C 273.976 398.677 273.763 398.89 273.5 398.89C 273.237 398.89 273.024 398.677 273.024 398.415C 273.024 398.152 273.237 397.94 273.5 397.94C 273.763 397.94 273.976 398.152 273.976 398.415z"/>
			<path style="stroke:none; fill:#ccc" d="M 275.976 398.415C 275.976 398.677 275.763 398.89 275.5 398.89C 275.237 398.89 275.024 398.677 275.024 398.415C 275.024 398.152 275.237 397.94 275.5 397.94C 275.763 397.94 275.976 398.152 275.976 398.415z"/>
			<path style="stroke:none; fill:#ccc" d="M 276.976 399.39C 276.976 399.652 276.763 399.865 276.5 399.865C 276.237 399.865 276.024 399.652 276.024 399.39C 276.024 399.127 276.237 398.915 276.5 398.915C 276.763 398.915 276.976 399.127 276.976 399.39z"/>
			<path style="stroke:none; fill:#ccc" d="M 276.976 397.39C 276.976 397.652 276.763 397.865 276.5 397.865C 276.237 397.865 276.024 397.652 276.024 397.39C 276.024 397.127 276.237 396.915 276.5 396.915C 276.763 396.915 276.976 397.127 276.976 397.39z"/>
			<path style="stroke:none; fill:#ccc" d="M 276.976 395.39C 276.976 395.652 276.763 395.865 276.5 395.865C 276.237 395.865 276.024 395.652 276.024 395.39C 276.024 395.127 276.237 394.915 276.5 394.915C 276.763 394.915 276.976 395.127 276.976 395.39z"/>
			<path style="stroke:none; fill:#ccc" d="M 276.976 393.39C 276.976 393.652 276.763 393.865 276.5 393.865C 276.237 393.865 276.024 393.652 276.024 393.39C 276.024 393.127 276.237 392.915 276.5 392.915C 276.763 392.915 276.976 393.127 276.976 393.39z"/>
			<path style="stroke:none; fill:#ccc" d="M 276.976 391.39C 276.976 391.652 276.763 391.865 276.5 391.865C 276.237 391.865 276.024 391.652 276.024 391.39C 276.024 391.127 276.237 390.915 276.5 390.915C 276.763 390.915 276.976 391.127 276.976 391.39z"/>
			<path style="stroke:none; fill:#ccc" d="M 276.976 403.39C 276.976 403.652 276.763 403.865 276.5 403.865C 276.237 403.865 276.024 403.652 276.024 403.39C 276.024 403.127 276.237 402.915 276.5 402.915C 276.763 402.915 276.976 403.127 276.976 403.39z"/>
			<path style="stroke:none; fill:#ccc" d="M 276.976 401.39C 276.976 401.652 276.763 401.865 276.5 401.865C 276.237 401.865 276.024 401.652 276.024 401.39C 276.024 401.127 276.237 400.915 276.5 400.915C 276.763 400.915 276.976 401.127 276.976 401.39z"/>
			<path style="stroke:none; fill:#ccc" d="M 276.976 405.39C 276.976 405.652 276.763 405.865 276.5 405.865C 276.237 405.865 276.024 405.652 276.024 405.39C 276.024 405.127 276.237 404.915 276.5 404.915C 276.763 404.915 276.976 405.127 276.976 405.39z"/>
			<path style="stroke:none; fill:#ccc" d="M 266.976 396.415C 266.976 396.677 266.763 396.89 266.5 396.89C 266.237 396.89 266.024 396.677 266.024 396.415C 266.024 396.152 266.237 395.94 266.5 395.94C 266.763 395.94 266.976 396.152 266.976 396.415z"/>
			<path style="stroke:none; fill:#ccc" d="M 265.976 397.415C 265.976 397.677 265.763 397.89 265.5 397.89C 265.237 397.89 265.024 397.677 265.024 397.415C 265.024 397.152 265.237 396.94 265.5 396.94C 265.763 396.94 265.976 397.152 265.976 397.415z"/>
			<path style="stroke:none; fill:#ccc" d="M 265.976 399.415C 265.976 399.677 265.763 399.89 265.5 399.89C 265.237 399.89 265.024 399.677 265.024 399.415C 265.024 399.152 265.237 398.94 265.5 398.94C 265.763 398.94 265.976 399.152 265.976 399.415z"/>
			<path style="stroke:none; fill:#ccc" d="M 266.976 394.39C 266.976 394.652 266.763 394.865 266.5 394.865C 266.237 394.865 266.024 394.652 266.024 394.39C 266.024 394.127 266.237 393.915 266.5 393.915C 266.763 393.915 266.976 394.127 266.976 394.39z"/>
			<path style="stroke:none; fill:#ccc" d="M 265.976 395.415C 265.976 395.677 265.763 395.89 265.5 395.89C 265.237 395.89 265.024 395.677 265.024 395.415C 265.024 395.152 265.237 394.94 265.5 394.94C 265.763 394.94 265.976 395.152 265.976 395.415z"/>
			<path style="stroke:none; fill:#ccc" d="M 265.976 393.39C 265.976 393.652 265.763 393.865 265.5 393.865C 265.237 393.865 265.024 393.652 265.024 393.39C 265.024 393.127 265.237 392.915 265.5 392.915C 265.763 392.915 265.976 393.127 265.976 393.39z"/>
			<path style="stroke:none; fill:#fcc" d="M 269 398.39C 269 399.493 269.897 400.39 271 400.39C 272.103 400.39 273 399.493 273 398.39C 273 397.287 272.103 396.39 271 396.39C 269.897 396.39 269 397.287 269 398.39z"/>
			<path style="stroke:none; fill:#900" d="M 272 398.39C 272 398.942 271.552 399.39 271 399.39C 270.448 399.39 270 398.942 270 398.39C 270 397.838 270.448 397.39 271 397.39C 271.552 397.39 272 397.838 272 398.39z"/>
			<path style="stroke:#630; stroke-width:1; fill:none" d="M 276.5 388.89L 276.5 390.915"/>
			<path style="stroke:#c30; stroke-width:2; fill:none" d="M 275 388.89L 275 390.915"/>
		</g>
	</g>
</svg>
