<svg xmlns="http://www.w3.org/2000/svg" width="24" height="24">
	<g transform="translate(-264,-386)" id="KDDI_D_439">
		<g>
			<path style="stroke:none; fill:none" d="M 288 409.89L 264 409.89L 264 385.89L 288 385.89L 288 409.89z"/>
		</g>
		<g>
			<path style="stroke:none; fill:#f93" d="M 288 409.89L 264 409.89L 264 385.89L 288 385.89L 288 409.89z"/>
			<g>
				<path style="stroke:none; fill:#000" d="M 264 400.89C 264 401.44 264.45 401.89 265 401.89L 266 401.89C 266.55 401.89 267 401.44 267 400.89L 267 399.39C 267 398.84 266.55 398.39 266 398.39L 265 398.39C 264.45 398.39 264 398.84 264 399.39L 264 400.89z"/>
				<path style="stroke:none; fill:#000" d="M 287 399.39L 287.001 403.89C 287.001 403.89 286 409.89 276 409.89C 266 409.89 265 403.89 265 403.89L 265 399.39C 265 399.39 269.373 397.89 276 397.89C 282.627 397.89 287 399.39 287 399.39z"/>
				<path style="stroke:none; fill:#333" d="M 264 399.39C 264 399.94 264.45 400.39 265 400.39L 266 400.39C 266.55 400.39 267 399.94 267 399.39L 267 398.89C 267 398.34 266.55 397.89 266 397.89L 265 397.89C 264.45 397.89 264 398.34 264 398.89L 264 399.39z"/>
				<path style="stroke:none; fill:#000" d="M 285 400.89C 285 401.44 285.45 401.89 286 401.89L 287 401.89C 287.55 401.89 288 401.44 288 400.89L 288 399.39C 288 398.84 287.55 398.39 287 398.39L 286 398.39C 285.45 398.39 285 398.84 285 399.39L 285 400.89z"/>
				<path style="stroke:none; fill:#333" d="M 285 399.39C 285 399.94 285.45 400.39 286 400.39L 287 400.39C 287.55 400.39 288 399.94 288 399.39L 288 398.89C 288 398.34 287.55 397.89 287 397.89L 286 397.89C 285.45 397.89 285 398.34 285 398.89L 285 399.39z"/>
				<path style="stroke:none; fill:#333" d="M 287 399.39C 287 402.703 282.074 405.39 276 405.39C 269.925 405.39 265 402.703 265 399.39C 265 396.076 269.925 393.39 276 393.39C 282.074 393.39 287 396.076 287 399.39z"/>
				<path style="stroke:none; fill:#963" d="M 286 399.39C 286 402.151 281.522 404.39 276 404.39C 270.477 404.39 266 402.151 266 399.39C 266 396.628 270.477 394.39 276 394.39C 281.522 394.39 286 396.628 286 399.39z"/>
				<g>
					<path style="stroke:none; fill:#060" d="M 275 392.89C 275 392.89 282.933 394.037 283.664 400.319L 283.846 401.89L 279.543 400.48C 279.543 400.48 274.854 398.479 275 392.89z"/>
					<path style="stroke:none; fill:#390" d="M 275.002 392.972C 274.906 398.496 279.543 400.48 279.543 400.48L 281.888 401.481L 281.706 399.91C 281.21 395.647 277.402 393.752 275.002 392.972z"/>
					<path style="stroke:none; fill:#030" d="M 275.002 392.972C 274.906 398.496 279.931 401.071 279.931 401.071L 281.012 400.786C 276.914 398.398 275.002 392.972 275.002 392.972z"/>
				</g>
				<g>
					<path style="stroke:none; fill:#c33" d="M 276 396.89C 276 396.89 275.002 392.89 274 392.89C 273 392.89 271.5 392.89 270 393.39C 268.5 393.89 267 395.39 267 396.39L 267 397.89L 276 396.89z"/>
					<path style="stroke:none; fill:#900" d="M 274.194 397.09L 276 396.89C 276 396.89 275.002 392.89 274 392.89L 273.77 393.898L 274.194 397.09z"/>
					<path style="stroke:none; fill:#f96" d="M 275.167 396.983C 274.693 395.774 273.96 394.113 273.77 393.898C 272.844 393.9 271.57 393.921 270.316 394.338C 269.002 394.776 268 396.019 268 396.39C 268 396.39 268 397.188 268 397.778L 275.167 396.983z"/>
				</g>
				<g>
					<path style="stroke:none; fill:#c33" d="M 277.5 399.39C 277.5 399.39 276 395.39 274 395.39C 273 395.39 270.5 395.39 269 395.89C 268.816 395.951 266 396.89 266 399.39C 266 399.726 266.069 400.055 266.196 400.373L 277.5 399.39z"/>
					<path style="stroke:none; fill:#900" d="M 275.751 399.542L 277.5 399.39C 277.5 399.39 276 395.39 274 395.39L 274 396.39L 275.751 399.542z"/>
					<path style="stroke:none; fill:#f96" d="M 276.534 399.474C 276.527 399.446 276.52 399.419 276.5 399.39C 275.909 398.291 274.615 396.39 274 396.39C 273.087 396.39 270.662 396.39 269.316 396.838L 269.315 396.838C 269.083 396.916 267.11 397.642 267.027 399.296C 267.027 399.693 267.009 400.158 267.003 400.302L 276.534 399.474z"/>
					<path style="stroke:none; fill:#c33" d="M 275.037 399.604C 274.385 398.566 274 396.89 270.283 397.426L 270.282 397.426C 270.05 397.503 268.077 398.229 267.994 399.884C 267.994 399.993 267.992 400.106 267.99 400.217L 275.037 399.604z"/>
				</g>
				<path style="stroke:none; fill:#060" d="M 275.5 391.89C 275.5 391.89 283.5 391.39 285.5 397.39L 286 398.89L 281.5 398.39C 281.5 398.39 276.5 397.39 275.5 391.89z"/>
				<path style="stroke:none; fill:#390" d="M 275.519 391.97C 276.555 397.396 281.5 398.39 281.5 398.39L 284 398.89L 283.5 397.39C 282.143 393.318 278.027 392.242 275.519 391.97z"/>
				<path style="stroke:none; fill:#030" d="M 275.519 391.97C 276.555 397.396 282 398.89 282 398.89L 283 398.39C 278.5 396.89 275.519 391.97 275.519 391.97z"/>
				<path style="stroke:none; fill:#9c6" d="M 286 399.39C 286 399.129 285.948 398.874 285.871 398.624C 285.196 398.504 284.236 398.39 283 398.39C 281 398.39 279 398.89 279 400.89C 279 401.897 279 403.157 279 404.16C 283.057 403.523 286 401.629 286 399.39z"/>
				<path style="stroke:none; fill:#963" d="M 269.916 403.352C 271.227 403.856 272.791 404.199 274.5 404.327L 274.5 402.89C 273.132 402.89 271.213 402.71 269.916 403.352z"/>
				<g>
					<path style="stroke:none; fill:#ccc" d="M 266.061 398.845C 266.023 399.025 266 399.206 266 399.39C 266 401.629 268.943 403.523 273 404.16L 273 400.89C 270.718 398.608 267.409 398.735 266.061 398.845z"/>
					<path style="stroke:none; fill:#963" d="M 266.185 400.336C 266.88 402.15 269.53 403.615 273 404.16L 273 402.39C 270.786 400.176 267.603 400.231 266.185 400.336z"/>
					<path style="stroke:none; fill:#ccc" d="M 267.237 401.798C 268.468 402.915 270.526 403.772 273 404.16L 273 403.89C 271.232 402.122 268.85 401.802 267.237 401.798z"/>
				</g>
				<path style="stroke:none; fill:#cfc" d="M 285.88 400.125C 285.205 400.005 284.241 399.89 283 399.89C 281 399.89 279 400.39 279 402.39C 279 402.933 279 403.549 279 404.16C 282.603 403.594 285.315 402.035 285.88 400.125z"/>
				<path style="stroke:none; fill:#9c6" d="M 285.049 401.507C 284.479 401.441 283.803 401.39 283 401.39C 281 401.39 279 401.89 279 403.89C 279 403.977 279 404.069 279 404.16C 281.684 403.739 283.87 402.765 285.049 401.507z"/>
				<g>
					<path style="stroke:none; fill:#963" d="M 277 401.64C 277 402.883 275.657 403.89 274 403.89C 272.344 403.89 271 402.883 271 401.64C 271 400.398 272.344 399.39 274 399.39C 275.657 399.39 277 400.398 277 401.64z"/>
					<path style="stroke:none; fill:#fc9" d="M 274 400.39C 272.696 400.39 271.5 400.89 271.5 402.39C 271.914 403.262 272.696 403.89 274 403.89C 275.305 403.89 276.087 403.262 276.5 402.39C 276.5 400.89 275.305 400.39 274 400.39z"/>
					<path style="stroke:#300; stroke-width:1; fill:none" d="M 277 401.64C 277 402.883 275.657 403.89 274 403.89C 272.344 403.89 271 402.883 271 401.64C 271 400.398 272.344 399.39 274 399.39C 275.657 399.39 277 400.398 277 401.64z"/>
					<path style="stroke:none; fill:#963" d="M 281.5 401.64C 281.5 402.883 280.157 403.89 278.5 403.89C 276.844 403.89 275.5 402.883 275.5 401.64C 275.5 400.398 276.844 399.39 278.5 399.39C 280.157 399.39 281.5 400.398 281.5 401.64z"/>
					<path style="stroke:none; fill:#fc9" d="M 278.5 400.39C 277.196 400.39 276 400.89 276 402.39C 276.414 403.262 277.196 403.89 278.5 403.89C 279.805 403.89 280.587 403.262 281 402.39C 281 400.89 279.805 400.39 278.5 400.39z"/>
					<path style="stroke:#300; stroke-width:1; fill:none" d="M 281.5 401.64C 281.5 402.883 280.157 403.89 278.5 403.89C 276.844 403.89 275.5 402.883 275.5 401.64C 275.5 400.398 276.844 399.39 278.5 399.39C 280.157 399.39 281.5 400.398 281.5 401.64z"/>
				</g>
			</g>
			<path style="stroke:none; fill:#ccc" d="M 265.5 388.89C 264.5 389.39 264 391.39 265.5 392.39C 265 393.39 266.5 394.89 268 393.89C 268 394.89 270 394.89 270 393.89C 271 393.89 271.5 392.89 271.5 392.39C 271.5 391.89 270.75 391.362 270 391.39C 270.5 390.39 270 389.39 269 389.39C 269 388.89 268.5 387.89 267.5 387.89C 267 387.89 266 387.89 265.5 388.89z"/>
			<path style="stroke:none; fill:#fff" d="M 270 391.39C 270.5 390.39 270 389.39 269 389.39C 269 388.89 268.5 387.89 267.5 387.89C 267 387.89 266 387.89 265.5 388.89C 265.5 389.89 265.5 390.89 266.438 391.39C 266.5 392.89 269.5 394.39 271.5 392.39C 271.5 391.89 270.75 391.362 270 391.39z"/>
			<path style="stroke:none; fill:#ccc" d="M 271.968 385.89C 271.689 386.349 271.5 386.867 271.5 387.39C 271.5 388.89 272 389.39 272.5 389.39C 272.5 389.89 273 390.39 274 390.39C 275 390.39 275.5 389.89 275.5 389.39C 276 389.39 276.5 388.89 276.5 387.39C 276.5 386.867 276.311 386.349 276.032 385.89L 271.968 385.89z"/>
			<path style="stroke:none; fill:#fff" d="M 271.98 385.89C 271.749 386.272 271.58 386.694 271.531 387.13C 271.609 387.977 272.045 388.39 272.5 388.39L 272.5 388.89C 272.5 389.132 272.851 389.39 273.5 389.39C 274.149 389.39 274.5 389.132 274.5 388.89L 274.5 388.39C 275 388.39 275.5 387.921 275.5 386.89C 275.5 386.547 275.395 386.207 275.239 385.89L 271.98 385.89z"/>
			<path style="stroke:none; fill:#ccc" d="M 278.5 392.89C 278.5 392.89 279.5 392.89 279.5 394.89C 279.5 396.89 278.5 396.89 278.5 396.89C 278.5 396.89 278.5 397.89 277 397.89C 275.5 397.89 275.5 396.89 275.5 396.89C 275.5 396.89 274.5 396.89 274.5 394.89C 274.5 392.89 275.5 392.89 275.5 392.89C 275.5 392.89 275.5 391.39 277 391.39C 278.5 391.39 278.5 392.89 278.5 392.89z"/>
			<path style="stroke:none; fill:#ccc" d="M 281.5 391.89C 281.5 392.39 282 392.89 282.5 392.89C 282.5 393.39 282.5 394.39 284 394.39C 285.5 394.39 286 393.39 286 392.89C 286.5 392.89 287 392.39 287 391.89C 287.5 391.89 288 391.39 288 390.39C 288 389.39 287.5 388.89 287 388.89C 287 388.39 286.5 387.39 285 387.39C 283.5 387.39 283.5 388.39 283.5 388.89C 283 388.89 282.5 389.39 282.5 389.89C 282.5 390.39 282.5 390.89 282.5 390.89C 282.5 390.89 281.5 390.89 281.5 391.89z"/>
			<path style="stroke:none; fill:#fff" d="M 286 391.39C 286.5 391.39 287 390.89 287 389.89C 287 388.89 286.5 388.39 286 388.39C 286 388.137 286 387.39 285 387.39C 283.5 387.39 283.5 388.39 283.5 388.89C 283 388.89 282.5 389.39 282.5 389.89C 282.5 390.39 282.5 390.89 282.5 390.89C 282.5 390.89 281.5 390.89 281.5 391.89C 281.5 392.39 282 392.89 282.5 392.89C 282.5 392.89 282.812 393.39 283.5 393.39C 284.5 393.39 285 392.89 285 392.39C 285.5 392.39 286 391.89 286 391.39z"/>
			<path style="stroke:none; fill:#ccc" d="M 283 397.39C 282 397.39 281.5 397.89 281.5 398.39C 281 398.39 280.5 398.89 280.5 399.89C 280.5 400.89 281 401.39 281.5 401.39C 281.5 401.39 281.5 402.39 283 402.39C 284.5 402.39 284.5 401.39 284.5 401.39C 284.5 401.39 286 401.39 286 399.89C 286 398.39 285 398.39 284.5 398.39C 284.5 397.89 284 397.39 283 397.39z"/>
			<path style="stroke:none; fill:#fff" d="M 283.5 400.39C 283.5 400.39 285 400.39 285 398.89C 285 398.39 284.5 398.39 284.5 398.39C 284.5 397.89 284 397.39 283 397.39C 282 397.39 281.5 397.89 281.5 398.39C 281 398.39 280.5 398.89 280.5 399.89C 280.5 400.89 281 401.39 281.5 401.39C 283 401.39 283.5 400.39 283.5 400.39z"/>
			<path style="stroke:none; fill:#fff" d="M 275.5 393.428C 275.5 393.428 274.5 393.428 274.5 394.813C 274.5 396.197 275.5 396.197 275.5 396.197C 275.5 396.197 275.5 396.89 277 396.89C 278.5 396.89 278.5 396.197 278.5 396.197C 278.5 396.197 279.5 396.197 279.5 394.813C 279.5 393.428 278.5 393.428 278.5 393.428C 278.5 393.428 278.5 392.39 277 392.39C 275.5 392.39 275.5 393.428 275.5 393.428z"/>
		</g>
		<g>
			<path style="stroke:none; fill:#f93" d="M 288 409.89L 264 409.89L 264 385.89L 288 385.89L 288 409.89z"/>
			<path style="stroke:none; fill:#ccc" d="M 282.625 385.89C 282.5 386.39 282.5 386.89 282.5 386.89C 281 386.39 281.5 387.89 281.5 387.89C 281 387.89 280.5 387.89 280.5 388.89C 280.5 389.89 281 389.89 281.5 389.89C 281.5 390.39 281.5 391.39 283 391.39C 284.5 391.39 285 390.89 285 390.39C 285.5 390.39 286 389.89 286 388.89C 286.5 388.89 287 388.89 287 387.89C 287 387.354 286.995 386.538 286.841 385.89L 282.625 385.89z"/>
			<g>
				<path style="stroke:none; fill:#000" d="M 264 400.89C 264 401.44 264.45 401.89 265 401.89L 266 401.89C 266.55 401.89 267 401.44 267 400.89L 267 399.39C 267 398.84 266.55 398.39 266 398.39L 265 398.39C 264.45 398.39 264 398.84 264 399.39L 264 400.89z"/>
				<path style="stroke:none; fill:#000" d="M 287 399.39L 287.001 403.89C 287.001 403.89 286 409.89 276 409.89C 266 409.89 265 403.89 265 403.89L 265 399.39C 265 399.39 269.373 397.89 276 397.89C 282.627 397.89 287 399.39 287 399.39z"/>
				<path style="stroke:none; fill:#333" d="M 264 399.39C 264 399.94 264.45 400.39 265 400.39L 266 400.39C 266.55 400.39 267 399.94 267 399.39L 267 398.89C 267 398.34 266.55 397.89 266 397.89L 265 397.89C 264.45 397.89 264 398.34 264 398.89L 264 399.39z"/>
				<path style="stroke:none; fill:#000" d="M 285 400.89C 285 401.44 285.45 401.89 286 401.89L 287 401.89C 287.55 401.89 288 401.44 288 400.89L 288 399.39C 288 398.84 287.55 398.39 287 398.39L 286 398.39C 285.45 398.39 285 398.84 285 399.39L 285 400.89z"/>
				<path style="stroke:none; fill:#333" d="M 285 399.39C 285 399.94 285.45 400.39 286 400.39L 287 400.39C 287.55 400.39 288 399.94 288 399.39L 288 398.89C 288 398.34 287.55 397.89 287 397.89L 286 397.89C 285.45 397.89 285 398.34 285 398.89L 285 399.39z"/>
				<path style="stroke:none; fill:#333" d="M 287 399.39C 287 402.703 282.074 405.39 276 405.39C 269.925 405.39 265 402.703 265 399.39C 265 396.076 269.925 393.39 276 393.39C 282.074 393.39 287 396.076 287 399.39z"/>
				<path style="stroke:none; fill:#963" d="M 286 399.39C 286 402.151 281.522 404.39 276 404.39C 270.477 404.39 266 402.151 266 399.39C 266 396.628 270.477 394.39 276 394.39C 281.522 394.39 286 396.628 286 399.39z"/>
				<g>
					<path style="stroke:none; fill:#060" d="M 275 392.89C 275 392.89 282.933 394.037 283.664 400.319L 283.846 401.89L 279.543 400.48C 279.543 400.48 274.854 398.479 275 392.89z"/>
					<path style="stroke:none; fill:#390" d="M 275.002 392.972C 274.906 398.496 279.543 400.48 279.543 400.48L 281.888 401.481L 281.706 399.91C 281.21 395.647 277.402 393.752 275.002 392.972z"/>
					<path style="stroke:none; fill:#030" d="M 275.002 392.972C 274.906 398.496 279.931 401.071 279.931 401.071L 281.012 400.786C 276.914 398.398 275.002 392.972 275.002 392.972z"/>
				</g>
				<g>
					<path style="stroke:none; fill:#c33" d="M 276 396.89C 276 396.89 275.002 392.89 274 392.89C 273 392.89 271.5 392.89 270 393.39C 268.5 393.89 267 395.39 267 396.39L 267 397.89L 276 396.89z"/>
					<path style="stroke:none; fill:#900" d="M 274.194 397.09L 276 396.89C 276 396.89 275.002 392.89 274 392.89L 273.77 393.898L 274.194 397.09z"/>
					<path style="stroke:none; fill:#f96" d="M 275.167 396.983C 274.693 395.774 273.96 394.113 273.77 393.898C 272.844 393.9 271.57 393.921 270.316 394.338C 269.002 394.776 268 396.019 268 396.39C 268 396.39 268 397.188 268 397.778L 275.167 396.983z"/>
				</g>
				<g>
					<path style="stroke:none; fill:#c33" d="M 277.5 399.39C 277.5 399.39 276 395.39 274 395.39C 273 395.39 270.5 395.39 269 395.89C 268.816 395.951 266 396.89 266 399.39C 266 399.726 266.069 400.055 266.196 400.373L 277.5 399.39z"/>
					<path style="stroke:none; fill:#900" d="M 275.751 399.542L 277.5 399.39C 277.5 399.39 276 395.39 274 395.39L 274 396.39L 275.751 399.542z"/>
					<path style="stroke:none; fill:#f96" d="M 276.534 399.474C 276.527 399.446 276.52 399.419 276.5 399.39C 275.909 398.291 274.615 396.39 274 396.39C 273.087 396.39 270.662 396.39 269.316 396.838L 269.315 396.838C 269.083 396.916 267.11 397.642 267.027 399.296C 267.027 399.693 267.009 400.158 267.003 400.302L 276.534 399.474z"/>
					<path style="stroke:none; fill:#c33" d="M 275.037 399.604C 274.385 398.566 274 396.89 270.283 397.426L 270.282 397.426C 270.05 397.503 268.077 398.229 267.994 399.884C 267.994 399.993 267.992 400.106 267.99 400.217L 275.037 399.604z"/>
				</g>
				<path style="stroke:none; fill:#060" d="M 275.5 391.89C 275.5 391.89 283.5 391.39 285.5 397.39L 286 398.89L 281.5 398.39C 281.5 398.39 276.5 397.39 275.5 391.89z"/>
				<path style="stroke:none; fill:#390" d="M 275.519 391.97C 276.555 397.396 281.5 398.39 281.5 398.39L 284 398.89L 283.5 397.39C 282.143 393.318 278.027 392.242 275.519 391.97z"/>
				<path style="stroke:none; fill:#030" d="M 275.519 391.97C 276.555 397.396 282 398.89 282 398.89L 283 398.39C 278.5 396.89 275.519 391.97 275.519 391.97z"/>
				<path style="stroke:none; fill:#9c6" d="M 286 399.39C 286 399.129 285.948 398.874 285.871 398.624C 285.196 398.504 284.236 398.39 283 398.39C 281 398.39 279 398.89 279 400.89C 279 401.897 279 403.157 279 404.16C 283.057 403.523 286 401.629 286 399.39z"/>
				<path style="stroke:none; fill:#963" d="M 269.916 403.352C 271.227 403.856 272.791 404.199 274.5 404.327L 274.5 402.89C 273.132 402.89 271.213 402.71 269.916 403.352z"/>
				<g>
					<path style="stroke:none; fill:#ccc" d="M 266.061 398.845C 266.023 399.025 266 399.206 266 399.39C 266 401.629 268.943 403.523 273 404.16L 273 400.89C 270.718 398.608 267.409 398.735 266.061 398.845z"/>
					<path style="stroke:none; fill:#963" d="M 266.185 400.336C 266.88 402.15 269.53 403.615 273 404.16L 273 402.39C 270.786 400.176 267.603 400.231 266.185 400.336z"/>
					<path style="stroke:none; fill:#ccc" d="M 267.237 401.798C 268.468 402.915 270.526 403.772 273 404.16L 273 403.89C 271.232 402.122 268.85 401.802 267.237 401.798z"/>
				</g>
				<path style="stroke:none; fill:#cfc" d="M 285.88 400.125C 285.205 400.005 284.241 399.89 283 399.89C 281 399.89 279 400.39 279 402.39C 279 402.933 279 403.549 279 404.16C 282.603 403.594 285.315 402.035 285.88 400.125z"/>
				<path style="stroke:none; fill:#9c6" d="M 285.049 401.507C 284.479 401.441 283.803 401.39 283 401.39C 281 401.39 279 401.89 279 403.89C 279 403.977 279 404.069 279 404.16C 281.684 403.739 283.87 402.765 285.049 401.507z"/>
				<g>
					<path style="stroke:none; fill:#963" d="M 277 401.64C 277 402.883 275.657 403.89 274 403.89C 272.344 403.89 271 402.883 271 401.64C 271 400.398 272.344 399.39 274 399.39C 275.657 399.39 277 400.398 277 401.64z"/>
					<path style="stroke:none; fill:#fc9" d="M 274 400.39C 272.696 400.39 271.5 400.89 271.5 402.39C 271.914 403.262 272.696 403.89 274 403.89C 275.305 403.89 276.087 403.262 276.5 402.39C 276.5 400.89 275.305 400.39 274 400.39z"/>
					<path style="stroke:#300; stroke-width:1; fill:none" d="M 277 401.64C 277 402.883 275.657 403.89 274 403.89C 272.344 403.89 271 402.883 271 401.64C 271 400.398 272.344 399.39 274 399.39C 275.657 399.39 277 400.398 277 401.64z"/>
					<path style="stroke:none; fill:#963" d="M 281.5 401.64C 281.5 402.883 280.157 403.89 278.5 403.89C 276.844 403.89 275.5 402.883 275.5 401.64C 275.5 400.398 276.844 399.39 278.5 399.39C 280.157 399.39 281.5 400.398 281.5 401.64z"/>
					<path style="stroke:none; fill:#fc9" d="M 278.5 400.39C 277.196 400.39 276 400.89 276 402.39C 276.414 403.262 277.196 403.89 278.5 403.89C 279.805 403.89 280.587 403.262 281 402.39C 281 400.89 279.805 400.39 278.5 400.39z"/>
					<path style="stroke:#300; stroke-width:1; fill:none" d="M 281.5 401.64C 281.5 402.883 280.157 403.89 278.5 403.89C 276.844 403.89 275.5 402.883 275.5 401.64C 275.5 400.398 276.844 399.39 278.5 399.39C 280.157 399.39 281.5 400.398 281.5 401.64z"/>
				</g>
			</g>
			<path style="stroke:none; fill:#ccc" d="M 274 386.89C 274 386.622 273.849 386.214 273.485 385.89L 270.759 385.89C 270.509 386.23 270.5 386.657 270.5 386.89C 270 386.89 269.5 387.39 269.5 388.39C 269.5 389.39 270 389.89 270.5 389.89C 270.5 390.39 270.5 391.39 272 391.39C 273.5 391.39 274 390.39 274 389.89C 274.5 389.89 275 389.39 275 388.39C 275 387.39 274.5 386.89 274 386.89z"/>
			<path style="stroke:none; fill:#fff" d="M 282.625 385.89C 282.5 386.39 282.5 386.89 282.5 386.89C 281 386.39 281.5 387.89 281.5 387.89C 281 387.89 280.5 387.89 280.5 388.89C 280.5 389.89 281 389.89 281.5 389.89C 281.5 390.39 282 390.39 282.5 390.39C 284 390.39 284 389.89 284 389.39C 284.5 389.39 285 388.89 285 387.89C 285.5 387.89 286 387.89 286 386.89C 286 386.611 285.997 386.257 285.975 385.89L 282.625 385.89z"/>
			<path style="stroke:none; fill:#fff" d="M 274 386.89C 274 386.622 273.849 386.214 273.485 385.89L 270.759 385.89C 270.509 386.23 270.5 386.657 270.5 386.89C 270.5 387.89 271 388.89 271.5 388.89C 271.5 389.39 271.5 390.39 273 390.39C 273.37 390.39 274 389.89 274 389.89C 274.5 389.89 275 389.39 275 388.39C 275 387.39 274.5 386.89 274 386.89z"/>
			<path style="stroke:none; fill:#ccc" d="M 267.5 390.39C 267.5 389.89 267 389.39 265.5 389.39C 264.912 389.39 264.404 389.395 264 389.515L 264 393.264C 264.404 393.385 264.912 393.39 265.5 393.39C 267 393.39 267.5 392.89 267.5 392.39C 268 392.39 268.5 392.39 268.5 391.39C 268.5 390.39 268 390.39 267.5 390.39z"/>
			<path style="stroke:none; fill:#fff" d="M 267.5 390.39C 267.5 389.89 267 389.39 265.5 389.39C 264.909 389.39 264.403 389.4 264 389.526L 264 392.253C 264.403 392.379 264.909 392.39 265.5 392.39C 267 392.39 267.5 391.89 267.5 391.39C 267.895 391.39 268.285 391.381 268.434 390.89C 268.285 390.398 267.895 390.39 267.5 390.39z"/>
			<path style="stroke:none; fill:#ccc" d="M 276 393.89C 275 393.89 274.5 394.39 274.5 394.89C 274 394.89 273.5 395.39 273.5 396.39C 273.5 397.39 274 397.89 274.5 397.89C 274.5 397.89 274.5 398.89 276 398.89C 277.5 398.89 277.5 397.89 277.5 397.89C 277.5 397.89 279 397.89 279 396.39C 279 394.89 278 394.89 277.5 394.89C 277.5 394.39 277 393.89 276 393.89z"/>
			<path style="stroke:none; fill:#fff" d="M 276.5 396.89C 276.5 396.89 278 396.89 278 395.39C 278 394.89 277.5 394.89 277.5 394.89C 277.5 394.39 277 393.89 276 393.89C 275 393.89 274.5 394.39 274.5 394.89C 274 394.89 273.5 395.39 273.5 396.39C 273.5 397.39 274 397.89 274.5 397.89C 276 397.89 276.5 396.89 276.5 396.89z"/>
		</g>
		<g>
			<path style="stroke:none; fill:#f93" d="M 288 409.89L 264 409.89L 264 385.89L 288 385.89L 288 409.89z"/>
			<path style="stroke:none; fill:#ccc" d="M 283.5 387.89C 283.5 387.89 282.5 387.89 282.5 388.89C 282.5 389.89 283.5 389.89 283.5 389.89C 283.5 389.89 283.5 390.89 285 390.89C 286 390.89 286 389.89 286 389.89C 286 389.89 287 389.89 287 388.89C 287 387.89 286 387.89 286 387.89C 286 387.89 286 386.89 285 386.89C 283.5 386.89 283.5 387.89 283.5 387.89z"/>
			<g>
				<path style="stroke:none; fill:#000" d="M 264 400.89C 264 401.44 264.45 401.89 265 401.89L 266 401.89C 266.55 401.89 267 401.44 267 400.89L 267 399.39C 267 398.84 266.55 398.39 266 398.39L 265 398.39C 264.45 398.39 264 398.84 264 399.39L 264 400.89z"/>
				<path style="stroke:none; fill:#000" d="M 287 399.39L 287.001 403.89C 287.001 403.89 286 409.89 276 409.89C 266 409.89 265 403.89 265 403.89L 265 399.39C 265 399.39 269.373 397.89 276 397.89C 282.627 397.89 287 399.39 287 399.39z"/>
				<path style="stroke:none; fill:#333" d="M 264 399.39C 264 399.94 264.45 400.39 265 400.39L 266 400.39C 266.55 400.39 267 399.94 267 399.39L 267 398.89C 267 398.34 266.55 397.89 266 397.89L 265 397.89C 264.45 397.89 264 398.34 264 398.89L 264 399.39z"/>
				<path style="stroke:none; fill:#000" d="M 285 400.89C 285 401.44 285.45 401.89 286 401.89L 287 401.89C 287.55 401.89 288 401.44 288 400.89L 288 399.39C 288 398.84 287.55 398.39 287 398.39L 286 398.39C 285.45 398.39 285 398.84 285 399.39L 285 400.89z"/>
				<path style="stroke:none; fill:#333" d="M 285 399.39C 285 399.94 285.45 400.39 286 400.39L 287 400.39C 287.55 400.39 288 399.94 288 399.39L 288 398.89C 288 398.34 287.55 397.89 287 397.89L 286 397.89C 285.45 397.89 285 398.34 285 398.89L 285 399.39z"/>
				<path style="stroke:none; fill:#333" d="M 287 399.39C 287 402.703 282.074 405.39 276 405.39C 269.925 405.39 265 402.703 265 399.39C 265 396.076 269.925 393.39 276 393.39C 282.074 393.39 287 396.076 287 399.39z"/>
				<path style="stroke:none; fill:#963" d="M 286 399.39C 286 402.151 281.522 404.39 276 404.39C 270.477 404.39 266 402.151 266 399.39C 266 396.628 270.477 394.39 276 394.39C 281.522 394.39 286 396.628 286 399.39z"/>
				<g>
					<path style="stroke:none; fill:#060" d="M 275 392.89C 275 392.89 282.933 394.037 283.664 400.319L 283.846 401.89L 279.543 400.48C 279.543 400.48 274.854 398.479 275 392.89z"/>
					<path style="stroke:none; fill:#390" d="M 275.002 392.972C 274.906 398.496 279.543 400.48 279.543 400.48L 281.888 401.481L 281.706 399.91C 281.21 395.647 277.402 393.752 275.002 392.972z"/>
					<path style="stroke:none; fill:#030" d="M 275.002 392.972C 274.906 398.496 279.931 401.071 279.931 401.071L 281.012 400.786C 276.914 398.398 275.002 392.972 275.002 392.972z"/>
				</g>
				<g>
					<path style="stroke:none; fill:#c33" d="M 276 396.89C 276 396.89 275.002 392.89 274 392.89C 273 392.89 271.5 392.89 270 393.39C 268.5 393.89 267 395.39 267 396.39L 267 397.89L 276 396.89z"/>
					<path style="stroke:none; fill:#900" d="M 274.194 397.09L 276 396.89C 276 396.89 275.002 392.89 274 392.89L 273.77 393.898L 274.194 397.09z"/>
					<path style="stroke:none; fill:#f96" d="M 275.167 396.983C 274.693 395.774 273.96 394.113 273.77 393.898C 272.844 393.9 271.57 393.921 270.316 394.338C 269.002 394.776 268 396.019 268 396.39C 268 396.39 268 397.188 268 397.778L 275.167 396.983z"/>
				</g>
				<g>
					<path style="stroke:none; fill:#c33" d="M 277.5 399.39C 277.5 399.39 276 395.39 274 395.39C 273 395.39 270.5 395.39 269 395.89C 268.816 395.951 266 396.89 266 399.39C 266 399.726 266.069 400.055 266.196 400.373L 277.5 399.39z"/>
					<path style="stroke:none; fill:#900" d="M 275.751 399.542L 277.5 399.39C 277.5 399.39 276 395.39 274 395.39L 274 396.39L 275.751 399.542z"/>
					<path style="stroke:none; fill:#f96" d="M 276.534 399.474C 276.527 399.446 276.52 399.419 276.5 399.39C 275.909 398.291 274.615 396.39 274 396.39C 273.087 396.39 270.662 396.39 269.316 396.838L 269.315 396.838C 269.083 396.916 267.11 397.642 267.027 399.296C 267.027 399.693 267.009 400.158 267.003 400.302L 276.534 399.474z"/>
					<path style="stroke:none; fill:#c33" d="M 275.037 399.604C 274.385 398.566 274 396.89 270.283 397.426L 270.282 397.426C 270.05 397.503 268.077 398.229 267.994 399.884C 267.994 399.993 267.992 400.106 267.99 400.217L 275.037 399.604z"/>
				</g>
				<path style="stroke:none; fill:#060" d="M 275.5 391.89C 275.5 391.89 283.5 391.39 285.5 397.39L 286 398.89L 281.5 398.39C 281.5 398.39 276.5 397.39 275.5 391.89z"/>
				<path style="stroke:none; fill:#390" d="M 275.519 391.97C 276.555 397.396 281.5 398.39 281.5 398.39L 284 398.89L 283.5 397.39C 282.143 393.318 278.027 392.242 275.519 391.97z"/>
				<path style="stroke:none; fill:#030" d="M 275.519 391.97C 276.555 397.396 282 398.89 282 398.89L 283 398.39C 278.5 396.89 275.519 391.97 275.519 391.97z"/>
				<path style="stroke:none; fill:#9c6" d="M 286 399.39C 286 399.129 285.948 398.874 285.871 398.624C 285.196 398.504 284.236 398.39 283 398.39C 281 398.39 279 398.89 279 400.89C 279 401.897 279 403.157 279 404.16C 283.057 403.523 286 401.629 286 399.39z"/>
				<path style="stroke:none; fill:#963" d="M 269.916 403.352C 271.227 403.856 272.791 404.199 274.5 404.327L 274.5 402.89C 273.132 402.89 271.213 402.71 269.916 403.352z"/>
				<g>
					<path style="stroke:none; fill:#ccc" d="M 266.061 398.845C 266.023 399.025 266 399.206 266 399.39C 266 401.629 268.943 403.523 273 404.16L 273 400.89C 270.718 398.608 267.409 398.735 266.061 398.845z"/>
					<path style="stroke:none; fill:#963" d="M 266.185 400.336C 266.88 402.15 269.53 403.615 273 404.16L 273 402.39C 270.786 400.176 267.603 400.231 266.185 400.336z"/>
					<path style="stroke:none; fill:#ccc" d="M 267.237 401.798C 268.468 402.915 270.526 403.772 273 404.16L 273 403.89C 271.232 402.122 268.85 401.802 267.237 401.798z"/>
				</g>
				<path style="stroke:none; fill:#cfc" d="M 285.88 400.125C 285.205 400.005 284.241 399.89 283 399.89C 281 399.89 279 400.39 279 402.39C 279 402.933 279 403.549 279 404.16C 282.603 403.594 285.315 402.035 285.88 400.125z"/>
				<path style="stroke:none; fill:#9c6" d="M 285.049 401.507C 284.479 401.441 283.803 401.39 283 401.39C 281 401.39 279 401.89 279 403.89C 279 403.977 279 404.069 279 404.16C 281.684 403.739 283.87 402.765 285.049 401.507z"/>
				<g>
					<path style="stroke:none; fill:#963" d="M 277 401.64C 277 402.883 275.657 403.89 274 403.89C 272.344 403.89 271 402.883 271 401.64C 271 400.398 272.344 399.39 274 399.39C 275.657 399.39 277 400.398 277 401.64z"/>
					<path style="stroke:none; fill:#fc9" d="M 274 400.39C 272.696 400.39 271.5 400.89 271.5 402.39C 271.914 403.262 272.696 403.89 274 403.89C 275.305 403.89 276.087 403.262 276.5 402.39C 276.5 400.89 275.305 400.39 274 400.39z"/>
					<path style="stroke:#300; stroke-width:1; fill:none" d="M 277 401.64C 277 402.883 275.657 403.89 274 403.89C 272.344 403.89 271 402.883 271 401.64C 271 400.398 272.344 399.39 274 399.39C 275.657 399.39 277 400.398 277 401.64z"/>
					<path style="stroke:none; fill:#963" d="M 281.5 401.64C 281.5 402.883 280.157 403.89 278.5 403.89C 276.844 403.89 275.5 402.883 275.5 401.64C 275.5 400.398 276.844 399.39 278.5 399.39C 280.157 399.39 281.5 400.398 281.5 401.64z"/>
					<path style="stroke:none; fill:#fc9" d="M 278.5 400.39C 277.196 400.39 276 400.89 276 402.39C 276.414 403.262 277.196 403.89 278.5 403.89C 279.805 403.89 280.587 403.262 281 402.39C 281 400.89 279.805 400.39 278.5 400.39z"/>
					<path style="stroke:#300; stroke-width:1; fill:none" d="M 281.5 401.64C 281.5 402.883 280.157 403.89 278.5 403.89C 276.844 403.89 275.5 402.883 275.5 401.64C 275.5 400.398 276.844 399.39 278.5 399.39C 280.157 399.39 281.5 400.398 281.5 401.64z"/>
				</g>
			</g>
			<path style="stroke:none; fill:#ccc" d="M 270.5 386.89C 270.5 386.622 270.349 386.214 269.985 385.89L 266.79 385.89C 266.294 386.214 266 386.622 266 386.89C 265.5 386.89 265 387.39 265 388.39C 265 389.39 265.5 389.89 266 389.89C 266 390.39 266.5 391.39 268.5 391.39C 270.5 391.39 270.5 390.39 270.5 389.89C 271 389.89 271.5 389.39 271.5 388.39C 271.5 387.39 271.083 386.89 270.5 386.89z"/>
			<path style="stroke:none; fill:#fff" d="M 270.5 386.89C 270.5 386.622 270.349 386.214 269.985 385.89L 266.598 385.89C 266.46 386.082 266.331 386.269 266.284 386.324C 266.116 386.573 266 386.921 266 387.39C 266 388.39 266.5 388.89 267 388.89C 267 389.39 267.5 390.39 269.5 390.39C 271 390.39 271.5 389.39 271.5 388.39C 271.5 387.39 271.083 386.89 270.5 386.89z"/>
			<path style="stroke:none; fill:#fff" d="M 283.5 389.89C 284.5 389.89 285 388.89 285 388.89C 285 388.89 286 388.89 286 387.89C 286 387.813 285.984 387.753 285.974 387.687C 285.947 387.557 285.892 387.387 285.774 387.234C 285.755 387.213 285.738 387.191 285.718 387.172C 285.699 387.152 285.677 387.134 285.655 387.115C 285.503 386.998 285.333 386.942 285.203 386.916C 285.137 386.905 285.077 386.89 285 386.89C 283.5 386.89 283.5 387.89 283.5 387.89C 283.5 387.89 282.5 387.89 282.5 388.89C 282.5 389.579 283 389.89 283.5 389.89z"/>
		</g>
	</g>
</svg>
