<svg xmlns="http://www.w3.org/2000/svg" height="24" width="24">
    <g transform="matrix(1,0,0,-1,-264,408)" id="KDDI_D_">        <path d="M287.4 396c0-6.4-5.1-11.5-11.4-11.5-6.3 0-11.5 5.1-11.5 11.5 0 6.3 5.2 11.4 11.5 11.4s11.4-5.1 11.4-11.4z" fill="#fc9"/>
        <path d="M264.7 397.3c.5 2.1 1.6 4.6 3.2 6.8 2 2.6 7.8 3.2 7.8 3.2s-3.1-.5-5.8-3.4c-1.8-2-3.7-5.8-3.8-7.8-.5-4.6.5-7.1.5-7.1s-2.9 4-1.9 8.3z" fill="#ff9"/>
        <path d="M277.1 407.2s4.3-2.2 5.5-5.6c1.6-4.3 1.1-8.7-2.2-13.5-1.9-2.8-6-3.5-6-3.5 4.5-.6 13.3 1.4 13.3 10.5 0 9-7.3 12.1-10.6 12.1z" fill="#f96"/>
        <path d="M281.8 405.7s3.2-3.5 3.6-7.2c.3-3.6 0-7-1.8-9.4-2.5-3.4-5.2-4.2-5.2-4.2 4 0 8.9 3.9 9 10.3.1 8.7-5.6 10.5-5.6 10.5z" fill="#c60"/>
        <path d="M271.5 392.6c0-1.6-.9-3-2-3-1.2 0-2.1 1.4-2.1 3 0 1.7.9 3 2.1 3 1.1 0 2-1.3 2-3zM284.7 392.6c0-1.6-.9-3-2.1-3-1.1 0-2 1.4-2 3 0 1.7.9 3 2 3 1.2 0 2.1-1.3 2.1-3z" fill="#f99"/>
        <path d="M279.9 388.4s-.6 3.6-3.9 3.6-3.9-3.6-3.9-3.6z" fill="#f60"/>
        <path d="M277.9 389.8c0 .6-.4 1.4-.8 2.1 2.4-.7 2.8-3.5 2.8-3.5h-2v1.4z" fill="#c30"/>
        <path d="M279.9 388.4s-.1 3.6-3.9 3.6c-3.7 0-3.9-3.6-3.9-3.6z" fill="none" stroke="#000"/>
        <path d="M282.6 404.8c-1.9 1.3-4.2 2-6.6 2v-3.7h1.1c0 .4.4.8.9.8h.2v.9c0 .3.2.5.4.5.3 0 .5-.2.5-.5v-4h1.3v3c0 .3.2.5.5.5s.5-.2.5-.5v-1.7h.2c.6 0 1-.4 1-1z" fill="#39f"/>
        <path d="M274.9 402.6v-4.5h2.2v3.8z" fill="#9cf"/>
        <path d="M265.5 396.2s.8.1.8 1.1v1.7c0 .2.2.4.4.4.3 0 .5-.2.5-.4v-2h1.1v2.6c0 .6.5 1 1 1h.1v.8c0 .6.5 1 1 1H270.7v2.1c0 .2.2.4.4.4.3 0 .5-.2.5-.4v-2.9h2.3v2.9c0 .2.2.4.5.4s.5-.2.5-.4v-4h2.2v3.3c0 .5.4.9.9.9 0 0 .1 0 .2-.1v1c0 .2.2.4.4.4.3 0 .5-.2.5-.4v-4.1h1.3v3.1c0 .2.2.4.5.4s.5-.2.5-.4v-1.8s.1.1.2.1c.6 0 1-.5 1-1v-1.2c.1.1.1.1.2.1.4 0 .7-.3.7-.7v-.7h1.3v.7c0 .3.2.5.4.5.3 0 .5-.2.5-.5v-2.7c0-1.2.8-1.2.8-1.2h.9c0 6.3-5.1 11.4-11.4 11.4-6.3 0-11.4-5.1-11.5-11.4z" fill="#33f"/>
        <path d="M271.6 404.2c0 .2-.2.5-.5.5-.2 0-.4-.3-.4-.5v-1.5c0 .2.2.5.4.5.3 0 .5-.3.5-.5zM274.9 404.2c0 .2-.2.5-.5.5s-.5-.3-.5-.5v-1.5c0 .2.2.5.5.5s.5-.3.5-.5zM267.2 398.7c0 .2-.2.5-.5.5-.2 0-.4-.3-.4-.5v-1.5c0 .2.2.5.4.5.3 0 .5-.3.5-.5zM271.6 401.2h2.3v1.5h-2.3zM270.4 403.6c-.5 0-1-.5-1-1v-.9h-.1c-.5 0-1-.4-1-1v-1.5c0 .6.5 1 1 1h.1v.9c0 .5.5 1 1 1h.1c.1 0 .1-.1.2-.1v1.5c-.1 0-.1.1-.2.1zM267.2 396.6h1.1v1.5h-1.1zM265.5 397.3h-.9c0-.5-.1-1-.1-1.5h1s.8.1.8 1.1v1.5c0-1-.8-1.1-.8-1.1z" fill="#39f"/>
        <path d="M285.7 400.9c0 .2-.2.4-.5.4-.2 0-.4-.2-.4-.4v-.8h-1.3v.7c0 .4-.3.7-.7.7h-.2v1.1c0 .5-.4 1-1 1-.1 0-.2 0-.2-.1V402c0 .1.1.1.2.1.6 0 1-.5 1-1V400h.2c.4 0 .7-.3.7-.7v-.7h1.3v.8c0 .2.2.4.4.4.3 0 .5-.2.5-.4v1.5z" fill="#36f"/>
        <path d="M286.5 397.3s-.8 0-.8 1.2V397c0-1.2.8-1.2.8-1.2h.9c0 .5 0 1-.1 1.5zM274.9 400.1h2.2v1.5h-2.2zM279.1 401.1h1.3v1.5h-1.3z" fill="#39f"/>
        <path d="M271.6 404.8c0 .2-.2.4-.5.4-.2 0-.4-.2-.4-.4v-1.5c0 .2.2.4.4.4.3 0 .5-.2.5-.4zM274.9 404.8c0 .2-.2.4-.5.4s-.5-.2-.5-.4v-1.5c0 .2.2.4.5.4s.5-.2.5-.4zM267.2 399.3c0 .2-.2.4-.5.4-.2 0-.4-.2-.4-.4v-1.5c0 .2.2.4.4.4.3 0 .5-.2.5-.4z" fill="#36f"/>
        <path d="M271.6 402.2h2.3v1.5h-2.3zM270.4 404.5c-.5 0-1-.5-1-1v-.8h-.1c-.5 0-1-.5-1-1v-1.5c0 .5.5 1 1 1h.1v.8c0 .5.5 1 1 1h.1c.1 0 .1 0 .2-.1v1.5c-.1.1-.1.1-.2.1zM267.2 397.6h1.1v1.5h-1.1zM265.5 398.2h-.9c0-.5-.1-1-.1-1.5h1s.8.2.8 1.1v1.5c0-.9-.8-1.1-.8-1.1zM286.5 398.2s-.8 0-.8 1.2v-1.5c0-1.2.8-1.2.8-1.2h.9c0 .5 0 1-.1 1.5zM274.9 401.1h2.2v1.5h-2.2zM279.1 402.1h1.3v1.5h-1.3z" fill="#36f"/>
        <path d="M287.5 396c0-8.3-5.1-11.5-11.4-11.5-6.4 0-11.5 3.3-11.5 11.5 0 6.3 5.1 11.4 11.5 11.4 6.3 0 11.4-5.1 11.4-11.4z" fill="none" stroke="#000"/>
        <path d="M274.9 398.1c0-1.8-1.5-3.3-3.2-3.3-1.8 0-3.3 1.5-3.3 3.3 0 1.8 1.5 3.2 3.3 3.2 1.7 0 3.2-1.4 3.2-3.2z" fill="#fff"/>
        <path d="M272.8 398.1c0-.6-.5-1.2-1.1-1.2-.7 0-1.2.6-1.2 1.2s.5 1.1 1.2 1.1c.6 0 1.1-.5 1.1-1.1z"/>
        <path d="M277.1 398.1c0-1.8 1.5-3.3 3.2-3.3 1.8 0 3.3 1.5 3.3 3.3 0 1.8-1.5 3.2-3.3 3.2-1.7 0-3.2-1.4-3.2-3.2z" fill="#fff"/>
        <path d="M279.2 398.1c0-.6.5-1.2 1.1-1.2.7 0 1.2.6 1.2 1.2s-.5 1.1-1.2 1.1c-.6 0-1.1-.5-1.1-1.1z"/>
    </g>
</svg>
