<svg xmlns="http://www.w3.org/2000/svg" height="24" width="24">
    <g transform="matrix(1,0,0,-1,-264,408)" id="KDDI_D_">        <path d="M287.4 396c0-6.4-5.1-11.5-11.4-11.5-6.3 0-11.5 5.1-11.5 11.5 0 6.3 5.2 11.4 11.5 11.4s11.4-5.1 11.4-11.4z" fill="#fc9"/>
        <path d="M264.7 397.3c.5 2.1 1.6 4.6 3.2 6.8 2 2.6 7.8 3.2 7.8 3.2s-3.1-.5-5.8-3.4c-1.8-2-3.7-5.8-3.8-7.8-.5-4.6.5-7.1.5-7.1s-2.9 4-1.9 8.3z" fill="#ff9"/>
        <path d="M277.1 407.2s4.3-2.2 5.5-5.6c1.6-4.3 1.1-8.7-2.2-13.5-1.9-2.8-6-3.5-6-3.5 4.5-.6 13.3 1.4 13.3 10.5 0 9-7.3 12.1-10.6 12.1z" fill="#f96"/>
        <path d="M281.8 405.7s3.2-3.5 3.6-7.2c.3-3.6 0-7-1.8-9.4-2.5-3.4-5.2-4.2-5.2-4.2 4 0 8.9 3.9 9 10.3.1 8.7-5.6 10.5-5.6 10.5z" fill="#c60"/>
        <path d="M271.5 392.6c0-1.6-.9-3-2-3-1.2 0-2.1 1.4-2.1 3 0 1.7.9 3 2.1 3 1.1 0 2-1.3 2-3zM284.7 392.6c0-1.6-.9-3-2.1-3-1.1 0-2 1.4-2 3 0 1.7.9 3 2 3 1.2 0 2.1-1.3 2.1-3zM282 396h-4.2v2.5h4.2zM270 396h4.3v2.5H270z" fill="#f99"/>
        <path d="M281.7 400.4l-2.6 1.8" fill="none" stroke="#333"/>
        <path d="M278.6 397.5h2.5" fill="none" stroke="#000" stroke-width="1.7"/>
        <path d="M270.3 400.4l2.6 1.8" fill="none" stroke="#333"/>
        <path d="M273.4 397.5h-2.5" fill="none" stroke="#000" stroke-width="1.7"/>
        <path d="M271.4 393.8l-6.8 2.6M271.7 389.8l-4.3-2.1M280.6 393.8l6.9 2.6M280.3 389.8l4.5-2.2" fill="none" stroke="#333"/>
        <path d="M281.2 388.7c0-.7-.5-1.2-1.2-1.2h-8c-.7 0-1.2.5-1.2 1.2v4.9c0 .7.5 1.2 1.2 1.2h8c.7 0 1.2-.5 1.2-1.2z" fill="#fff" stroke="#ccc" stroke-width=".5"/>
        <path d="M280.2 394.8c.1-.2.1-.3.1-.5v-4.9c0-.7-.5-1.2-1.1-1.2H270.9c.2-.4.6-.7 1.1-.7h8c.7 0 1.2.5 1.2 1.2v4.9c0 .6-.4 1.1-1 1.2z" fill="#ccc"/>
        <path d="M287.5 396c0-8.3-5.1-11.5-11.4-11.5-6.4 0-11.5 3.3-11.5 11.5 0 6.3 5.1 11.4 11.5 11.4 6.3 0 11.4-5.1 11.4-11.4z" fill="none" stroke="#000"/>
    </g>
</svg>
