<svg xmlns="http://www.w3.org/2000/svg" height="24" width="24">
    <g transform="matrix(1,0,0,-1,-264,408)" id="KDDI_D_">        <path d="M287.4 396c0-6.4-5.1-11.5-11.4-11.5-6.3 0-11.5 5.1-11.5 11.5 0 6.3 5.2 11.4 11.5 11.4s11.4-5.1 11.4-11.4z" fill="#fc9"/>
        <path d="M277.1 407.2s4.3-2.2 5.5-5.6c1.6-4.3 1.1-8.7-2.2-13.5-1.9-2.8-6-3.5-6-3.5 4.5-.6 13.3 1.4 13.3 10.5 0 9-7.3 12.1-10.6 12.1z" fill="#f96"/>
        <path d="M271.5 392.6c0-1.6-.9-3-2-3-1.2 0-2.1 1.4-2.1 3 0 1.7.9 3 2.1 3 1.1 0 2-1.3 2-3zM284.7 392.6c0-1.6-.9-3-2.1-3-1.1 0-2 1.4-2 3 0 1.7.9 3 2 3 1.2 0 2.1-1.3 2.1-3z" fill="#f99"/>
        <path d="M264.5 396c0-2 .5-3.8 1.3-5.4h20.3c.9 1.6 1.3 3.4 1.3 5.4 0 2.9-1 5.5-2.8 7.5h-17.2c-1.8-2-2.9-4.6-2.9-7.5z" fill="#f99"/>
        <path d="M264.7 397.3c.5 2.1 1.6 4.6 3.2 6.8 2 2.6 7.8 3.2 7.8 3.2s-3.1-.5-5.8-3.4c-1.8-2-3.7-5.8-3.8-7.8-.5-4.6.5-7.1.5-7.1s-2.9 4-1.9 8.3z" fill="#ff9"/>
        <path d="M281.8 405.7s3.2-3.5 3.6-7.2c.3-3.6 0-7-1.8-9.4-2.5-3.4-5.2-4.2-5.2-4.2 4 0 8.9 3.9 9 10.3.1 8.7-5.6 10.5-5.6 10.5z" fill="#c60"/>
        <path d="M264.5 396c0-1.1.2-2.2.5-3.2h22c.3 1 .4 2.1.4 3.2 0 1.9-.5 3.8-1.3 5.4h-20.2c-.9-1.6-1.4-3.5-1.4-5.4z" fill="#f66"/>
        <path d="M264.5 396c0-.6.1-1.1.1-1.6h22.7c.1.5.1 1 .1 1.6 0 1.3-.2 2.6-.6 3.8h-21.6c-.4-1.2-.7-2.5-.7-3.8z" fill="#f36"/>
        <path d="M264.5 396v-.1h22.9v.1c0 .8 0 1.5-.2 2.3h-22.4c-.2-.8-.3-1.5-.3-2.3z" fill="red"/>
        <path d="M281.2 401.5h-2.7M270.9 401.5h2.7" fill="none" stroke="#333"/>
        <path d="M270 397.7h3.5M278.6 397.7h3.5" fill="none" stroke="#000" stroke-width="1.7"/>
        <path d="M287.5 396c0-8.3-5.1-11.5-11.4-11.5-6.4 0-11.5 3.3-11.5 11.5 0 6.3 5.1 11.4 11.5 11.4 6.3 0 11.4-5.1 11.4-11.4z" fill="none" stroke="#000"/>
        <path d="M279.9 388s-.6 3.2-4 3.2c-3.3 0-3.9-3.2-3.9-3.2z" fill="#f60"/>
        <path d="M277.8 389.3c0 .4-.4 1.1-.7 1.7 2.3-.6 2.8-3 2.8-3h-2.1v1.3z" fill="#c30"/>
        <path d="M279.9 388s-.2 3.2-4 3.2c-3.7 0-3.9-3.2-3.9-3.2z" fill="none" stroke="#000"/>
    </g>
</svg>
