<svg xmlns="http://www.w3.org/2000/svg" height="24" width="24">
    <g transform="matrix(1,0,0,-1,-264,408)" id="KDDI_D_">        <path d="M287.4 396c0-6.4-5.1-11.5-11.4-11.5-6.3 0-11.5 5.1-11.5 11.5 0 6.3 5.2 11.4 11.5 11.4s11.4-5.1 11.4-11.4z" fill="#fc9"/>
        <path d="M264.7 397.3c.5 2.1 1.6 4.6 3.2 6.8 2 2.6 7.8 3.2 7.8 3.2s-3.1-.5-5.8-3.4c-1.8-2-3.7-5.8-3.8-7.8-.5-4.6.5-7.1.5-7.1s-2.9 4-1.9 8.3z" fill="#ff9"/>
        <path d="M277.1 407.2s4.3-2.2 5.5-5.6c1.6-4.3 1.1-8.7-2.2-13.5-1.9-2.8-6-3.5-6-3.5 4.5-.6 13.3 1.4 13.3 10.5 0 9-7.3 12.1-10.6 12.1z" fill="#f96"/>
        <path d="M281.8 405.7s3.2-3.5 3.6-7.2c.3-3.6 0-7-1.8-9.4-2.5-3.4-5.2-4.2-5.2-4.2 4 0 8.9 3.9 9 10.3.1 8.7-5.6 10.5-5.6 10.5z" fill="#c60"/>
        <path d="M271.5 392.6c0-1.6-.9-3-2-3-1.2 0-2.1 1.4-2.1 3 0 1.7.9 3 2.1 3 1.1 0 2-1.3 2-3zM284.7 392.6c0-1.6-.9-3-2.1-3-1.1 0-2 1.4-2 3 0 1.7.9 3 2 3 1.2 0 2.1-1.3 2.1-3z" fill="#f99"/>
        <path d="M287.5 396c0-8.3-5.1-11.5-11.4-11.5-6.4 0-11.5 3.3-11.5 11.5 0 6.3 5.1 11.4 11.5 11.4 6.3 0 11.4-5.1 11.4-11.4z" fill="none" stroke="#000"/>
        <path d="M275.4 398.6c0-2-1.7-3.7-3.7-3.7-2.1 0-3.8 1.7-3.8 3.7 0 2.1 1.7 3.7 3.8 3.7 2 0 3.7-1.6 3.7-3.7z" fill="#fff"/>
        <path d="M272.9 398.6c0-.7-.6-1.2-1.2-1.2-.7 0-1.3.5-1.3 1.2s.6 1.3 1.3 1.3c.6 0 1.2-.6 1.2-1.3z"/>
        <path d="M276.6 398.6c0-2 1.7-3.7 3.8-3.7 2 0 3.7 1.7 3.7 3.7 0 2.1-1.7 3.7-3.7 3.7-2.1 0-3.8-1.6-3.8-3.7z" fill="#fff"/>
        <path d="M279.1 398.6c0-.7.6-1.2 1.2-1.2.7 0 1.3.5 1.3 1.2s-.6 1.3-1.3 1.3c-.6 0-1.2-.6-1.2-1.3z"/>
        <path d="M278.3 389.6c0-1.2-1-2.2-2.3-2.2-1.2 0-2.2 1-2.2 2.2v2.6c0 1.3 1 2.3 2.2 2.3 1.3 0 2.3-1 2.3-2.3z" fill="#f60"/>
        <path d="M276.6 394.4c.3-.5.6-1.1.6-1.8v-3.3c0-.7-.3-1.4-.6-1.9 1 .3 1.7 1.2 1.7 2.2v2.6c0 1.1-.7 2-1.7 2.2z" fill="#c30"/>
        <path d="M278.3 389.6c0-1.2-1-2.2-2.3-2.2-1.2 0-2.2 1-2.2 2.2v2.6c0 1.3 1 2.3 2.2 2.3 1.3 0 2.3-1 2.3-2.3z" fill="none" stroke="#000"/>
    </g>
</svg>
