<svg xmlns="http://www.w3.org/2000/svg" height="24" width="24">
    <g transform="matrix(1,0,0,-1,-264,408)" id="KDDI_D_">        <path d="M287.4 396c0-6.4-5.1-11.5-11.4-11.5-6.3 0-11.5 5.1-11.5 11.5 0 6.3 5.2 11.4 11.5 11.4s11.4-5.1 11.4-11.4z" fill="#fc9"/>
        <path d="M264.7 397.3c.5 2.1 1.6 4.6 3.2 6.8 2 2.6 7.8 3.2 7.8 3.2s-3.1-.5-5.8-3.4c-1.8-2-3.7-5.8-3.8-7.8-.5-4.6.5-7.1.5-7.1s-2.9 4-1.9 8.3z" fill="#ff9"/>
        <path d="M277.1 407.2s4.3-2.2 5.5-5.6c1.6-4.3 1.1-8.7-2.2-13.5-1.9-2.8-6-3.5-6-3.5 4.5-.6 13.3 1.4 13.3 10.5 0 9-7.3 12.1-10.6 12.1z" fill="#f96"/>
        <path d="M281.8 405.7s3.2-3.5 3.6-7.2c.3-3.6 0-7-1.8-9.4-2.5-3.4-5.2-4.2-5.2-4.2 4 0 8.9 3.9 9 10.3.1 8.7-5.6 10.5-5.6 10.5z" fill="#c60"/>
        <path d="M271.5 392.6c0-1.6-.9-3-2-3-1.2 0-2.1 1.4-2.1 3 0 1.7.9 3 2.1 3 1.1 0 2-1.3 2-3zM284.7 392.6c0-1.6-.9-3-2.1-3-1.1 0-2 1.4-2 3 0 1.7.9 3 2 3 1.2 0 2.1-1.3 2.1-3z" fill="#f99"/>
        <path d="M281.2 401l-2.7.5M270.9 401l2.7.5" fill="none" stroke="#333"/>
        <path d="M287.5 396c0-8.3-5.1-11.5-11.4-11.5-6.4 0-11.5 3.3-11.5 11.5 0 6.3 5.1 11.4 11.5 11.4 6.3 0 11.4-5.1 11.4-11.4z" fill="none" stroke="#000"/>
        <path d="M280 389.6c0-.5-.4-1-1-1h-6c-.6 0-1 .5-1 1v2.4c0 .5.4 1 1 1h6c.6 0 1-.5 1-1z" fill="#f60"/>
        <path d="M279 393h-1.8c.5 0 1-.5 1-1v-2.4c0-.5-.5-1-1-1h1.8c.6 0 1 .5 1 1v2.4c0 .5-.4 1-1 1z" fill="#c30"/>
        <path d="M280 389.6c0-.5-.4-1-1-1h-6c-.6 0-1 .5-1 1v2.4c0 .5.4 1 1 1h6c.6 0 1-.5 1-1z" fill="none" stroke="#000"/>
        <path d="M281.2 401.1s1.6 2 1.8 2.6c.1.7.8 2.1 1.7 2.7.9.5 2.2.5 2.7-.2s.1-2.5-1.2-3.4c-1.4-.8-5-1.7-5-1.7z" fill="#3cf"/>
        <path d="M285.7 406c.4.3-.2.9-1 .4-.9-.6-1.6-2-1.7-2.7-.2-.6-1.8-2.6-1.8-2.6s2.3 1.6 2.7 2.2c.7 1.1.9 2.2 1.8 2.7z" fill="#6ff"/>
        <path d="M284.4 405.7c.2-.1.2-.5 0-.9s-.6-.6-.7-.5c-.2 0-.2.4 0 .8s.5.6.7.6z" fill="#fff"/>
        <path d="M281.2 401.1s1.2 1.6 1.8 2.6c.4.9.8 2.1 1.7 2.7.9.5 2.2.5 2.7-.2.6-.9.1-2.5-1.2-3.4-1.4-.8-5-1.7-5-1.7z" fill="none" stroke="#06f" stroke-width=".75" stroke-linejoin="round"/>
        <path d="M270.8 401.1s-1.6 2-1.8 2.6c-.1.7-.8 2.1-1.7 2.7-.9.5-2.2.5-2.7-.2s-.1-2.5 1.2-3.4c1.4-.8 5-1.7 5-1.7z" fill="#3cf"/>
        <path d="M265.5 405.2c.5.7 1.7.7 2.6.2.1-.1.2-.1.2-.2-.3.5-.6.9-1 1.2-.9.5-2.2.5-2.7-.2s-.2-2.3 1-3.2c-.4.8-.4 1.7-.1 2.2z" fill="#6ff"/>
        <path d="M265.8 406.4c.2-.1.1-.4-.1-.6-.2-.2-.5-.2-.6 0-.1.2-.1.5.1.6.2.2.5.2.6 0z" fill="#fff"/>
        <path d="M270.8 401.1s-1.2 1.6-1.8 2.6c-.4.9-.8 2.1-1.7 2.7-.9.5-2.2.5-2.7-.2-.6-.9-.1-2.5 1.2-3.4 1.4-.8 5-1.7 5-1.7z" fill="none" stroke="#06f" stroke-width=".75" stroke-linejoin="round"/>
        <path d="M281.5 396.8s1.8.9 2.1 1.4c.3.4 1.3 1.3 2.1 1.4.9.1 1.8-.3 2-.9.1-.7-.7-2-2-2.2-1.3-.2-4.2.3-4.2.3z" fill="#3cf"/>
        <path d="M286.3 399c.5.1.2.7-.6.6-.8-.1-1.8-1-2.1-1.4-.3-.5-2.1-1.4-2.1-1.4s2.1.4 2.7.8c.8.6 1.3 1.3 2.1 1.4z" fill="#6ff"/>
        <path d="M285.3 399.1c.1-.1-.1-.3-.3-.6-.3-.2-.6-.3-.7-.2-.1.1 0 .4.3.6.3.3.6.4.7.2z" fill="#fff"/>
        <path d="M281.5 396.8s1.4.8 2.1 1.4c.6.5 1.3 1.3 2.1 1.4.9.1 1.8-.3 2-.9.1-.9-.7-2-2-2.2-1.3-.2-4.2.3-4.2.3z" fill="none" stroke="#06f" stroke-width=".75" stroke-linejoin="round"/>
        <path d="M270.5 396.8s-1.8.9-2.1 1.4c-.3.4-1.3 1.3-2.1 1.4-.9.1-1.8-.3-2-.9-.1-.7.7-2 2-2.2 1.3-.2 4.2.3 4.2.3z" fill="#3cf"/>
        <path d="M264.9 397.8c.1.7 1.1 1.1 1.9 1 .9-.1 1.9-1 2.2-1.5.1-.1.5-.4.8-.6.4 0 .7.1.7.1s-1.8.9-2.1 1.4c-.3.4-1.3 1.3-2.1 1.4-.9.1-1.8-.3-2-.9 0-.5.2-1 .7-1.5-.1.2-.1.5-.1.6z" fill="#6ff"/>
        <path d="M265.8 399.3c.1-.1-.1-.3-.4-.5-.3-.1-.6-.2-.6 0-.1.1.1.3.4.5.2.1.5.2.6 0z" fill="#fff"/>
        <path d="M270.5 396.8s-1.4.8-2.1 1.4c-.6.5-1.3 1.3-2.1 1.4-.9.1-1.8-.3-2-.9-.1-.9.7-2 2-2.2 1.3-.2 4.2.3 4.2.3z" fill="none" stroke="#06f" stroke-width=".75" stroke-linejoin="round"/>
        <path d="M272.7 398.9V397M279.4 398.9V397" fill="none" stroke="#000" stroke-width="1.7"/>
    </g>
</svg>
