<svg xmlns="http://www.w3.org/2000/svg" width="24" height="24">
	<g transform="translate(-288,-386)" id="KDDI_D_453">
		<g>
			<path style="stroke:none; fill:none" d="M 312 409.89L 288 409.89L 288 385.89L 312 385.89L 312 409.89z"/>
		</g>
		<g>
			<path style="stroke:#999999; stroke-width:1; stroke-linecap:square; fill:none" d="M 288.5 394.39L 311.5 394.39"/>
			<path style="stroke:#999999; stroke-width:1; stroke-linecap:square; fill:none" d="M 288.5 402.39L 311.5 402.39"/>
			<path style="stroke:#999999; stroke-width:1; stroke-linecap:square; fill:none" d="M 288.5 398.39L 311.5 398.39"/>
			<path style="stroke:#000000; stroke-width:1; stroke-linejoin:round; stroke-linecap:round; fill:none" d="M 294.875 406.439C 294.875 409.836 300.496 410.647 300.496 405.84C 300.496 405.84 300.496 394.278 300.496 390.653C 300.496 385.59 304.5 386.008 304.5 388.508C 304.5 391.633 299.09 393.792 296.905 395.67C 294.314 397.897 293.561 400.682 295.842 403.146C 297.668 405.117 300.771 405.445 303.062 403.875C 304.899 402.622 305.2 400.076 303.741 398.499C 302.573 397.236 300.678 396.999 299.207 398.001C 298.033 398.804 297.838 400.554 298.773 401.564"/>
			<path style="stroke:#000000; stroke-width:1; stroke-linejoin:round; stroke-linecap:round; fill:none" d="M 295.169 406.546C 295.169 409.958 301.059 410.492 301.059 405.671C 301.059 405.671 301.059 394.109 301.059 390.484C 301.059 385.421 305.062 385.839 305.062 388.339C 305.062 391.464 299.652 393.623 297.468 395.501C 294.876 397.728 294.124 400.513 296.405 402.977C 298.23 404.948 301.333 405.276 303.625 403.706C 305.462 402.453 305.763 399.907 304.304 398.33C 303.136 397.067 301.24 396.83 299.77 397.832"/>
			<path style="stroke:none; fill:#000000" d="M 296.312 406.314C 296.312 406.9 295.837 407.376 295.25 407.376C 294.663 407.376 294.188 406.9 294.188 406.314C 294.188 405.727 294.663 405.251 295.25 405.251C 295.837 405.251 296.312 405.727 296.312 406.314z"/>
		</g>
	</g>
</svg>
