<svg xmlns="http://www.w3.org/2000/svg" height="32" width="32">
	<g transform="translate(-379,-393)" id="KDDI_D_454">
		<path d="M409.764 408.845c0 8.397-6.798 15.329-15.33 15.329-8.397 0-15.196-6.932-15.196-15.33 0-8.397 6.799-15.196 15.197-15.196 8.53 0 15.33 6.799 15.33 15.197z" fill="#fc9"/>
		<path d="M379.372 407.112c.666-2.8 2.133-6.132 4.399-9.065 2.532-3.599 10.397-4.265 10.397-4.265s-4.132.533-7.731 4.532c-2.533 2.666-4.932 7.731-5.199 10.397-.533 5.999.667 9.331.667 9.331s-3.866-5.198-2.533-10.93z" fill="#ff9"/>
		<path d="M396.034 393.915s5.732 2.8 7.332 7.331c2 5.866 1.466 11.73-3.066 18.13-2.533 3.732-7.865 4.665-7.865 4.665 5.865.666 17.596-2 17.596-13.997s-9.731-16.13-13.997-16.13z" fill="#f96"/>
		<path d="M402.3 395.914s4.265 4.666 4.665 9.465c.4 4.932.133 9.33-2.266 12.663-3.333 4.4-6.932 5.599-6.932 5.599 5.199-.134 11.864-5.199 11.997-13.73.134-11.597-7.465-13.997-7.465-13.997z" fill="#c60"/>
		<path d="M388.57 413.243c0 2.266-1.2 4-2.8 4-1.466 0-2.8-1.734-2.8-4 0-2.132 1.334-3.999 2.8-3.999 1.6 0 2.8 1.867 2.8 4zM406.165 413.243c0 2.266-1.2 4-2.8 4-1.599 0-2.799-1.734-2.799-4 0-2.132 1.2-3.999 2.8-3.999 1.6 0 2.8 1.867 2.8 4z" fill="#f99"/>
		<path d="M386.037 412.71s2.8 3.6 8.531 3.6c5.732 0 8.798-3.6 8.798-3.6" fill="none" stroke="#000" stroke-width="1.333"/>
		<path d="M409.897 408.845c0 11.063-6.798 15.329-15.329 15.329-8.398 0-15.196-4.399-15.196-15.33 0-8.397 6.798-15.196 15.196-15.196 8.531 0 15.33 6.799 15.33 15.197z" fill="none" stroke="#000" stroke-width="1.333"/>
		<path d="M391.769 402.046s-.534-1.466-2.533-1.466c-2 0-2.8 1.333-2.8 1.333M397.367 402.046s.4-1.466 2.533-1.466c2 0 2.8 1.333 2.8 1.333" fill="none" stroke="#333" stroke-width="1.333"/>
		<path d="M387.37 406.978s.133-1.733 1.866-1.733 1.733 1.733 1.733 1.733zM398.167 406.978s0-1.733 1.733-1.733 1.866 1.733 1.866 1.733z" fill="#f96"/>
		<path d="M386.837 408.178s.266-3.066 2.399-3.066 2.266 3.066 2.266 3.066M402.3 408.178s-.267-3.066-2.4-3.066-2.266 3.066-2.266 3.066" fill="none" stroke="#000" stroke-width="1.333"/>
	</g>
</svg>
