<svg xmlns="http://www.w3.org/2000/svg" height="24" width="24">
    <g transform="matrix(1,0,0,-1,-264,408)" id="KDDI_D_">        <path d="M270.9 408v-9.5c0-1.6-1.8-4.2-3.1-5.5-1.2-1.3-2.2-2.8-2.2-4.4 0-1.4 1.4-2.7 3.6-3.1 0 .1 0 .3.1.6.1.6 1.1 1.2 2.3 1 1.2-.1 1.9-.8 1.9-1.4 0-.4-.1-.6-.2-.8 1-.2 1.9-.5 2.7-.5.8 0 1.7.3 2.7.5-.1.2-.2.4-.2.8 0 .6.7 1.3 1.9 1.4 1.2.2 2.2-.4 2.3-1 .1-.3.1-.5.1-.6 2.2.4 3.6 1.7 3.6 3.1 0 1.6-1 3.1-2.2 4.4-1.3 1.3-3.1 3.9-3.1 5.5v9.5" fill="#fc9"/>
        <path d="M270.9 408v-9.5c0-1.6-1.8-4.2-3.1-5.5-1.2-1.3-2.2-2.8-2.2-4.4 0-1.4 1.4-2.7 3.6-3.1 0 .1 0 .3.1.6 0 .3.4.6.8.8-.5.6-1.1 1.3-1.2 1.9-.3 1.6.6 2.9 1.9 4.2 1.2 1.3 3 3.9 3 5.5v9.5z" fill="#ff9"/>
        <path d="M278.5 385.7v.1c-1.5-.5-2.6-.9-4.8-.7h-.3c0-.1 0-.2-.1-.2.5-.2 1.7-.5 2.7-.5.8 0 1.7.3 2.7.5-.1.2-.2.4-.2.8zM284.2 393c-1.3 1.3-3.1 3.9-3.1 5.5v9.5h-2.3v-9.2c0-1.6 1.3-4 2.4-5.5.8-1.1 1.7-2.8 1.3-4-.3-.9-.6-1.6-1.2-2.2.8-.1 1.3-.6 1.4-1 .1-.3.1-.5.1-.6 2.2.4 3.6 1.7 3.6 3.1 0 1.6-1 3.1-2.2 4.4z" fill="#f96"/>
        <path d="M278.6 385.2c-1.2-.3-2.3-.6-3.3-.7.2-.1.5-.1.7-.1.8 0 1.7.3 2.7.5-.1.1-.1.2-.1.3zM284.2 393c-1.3 1.3-3.1 3.9-3.1 5.5v9.5h-1.3v-9.5c0-1.6 1.8-4.2 3-5.5 1.3-1.3 2.3-2.8 2.3-4.4 0-1.1-.9-2.1-2.3-2.8v-.3c2.2.4 3.6 1.7 3.6 3.1 0 1.6-1 3.1-2.2 4.4z" fill="#c63"/>
        <path d="M273.4 394.7c-.4 0-1.7-2.4-1.7-3.9 0-1.6 1.7-3.3 1.7-3.3s-.5 1.7-.5 3 .9 4.2.5 4.2z" fill="#ffc"/>
        <path d="M278.6 394.7c.4 0 1.7-2.4 1.7-3.9 0-1.6-1.7-3.3-1.7-3.3s.5 1.7.5 3-.9 4.2-.5 4.2z" fill="#f96"/>
        <path d="M269.2 385.9c-1.3.7-2 1.7-2 2.7 0 1.6 1 3.1 2.2 4.4 1.3 1.3 3.1 3.9 3.1 5.5v9.5h-1.6v-9.5c0-1.6-1.8-4.2-3.1-5.5-1.2-1.3-2.2-2.8-2.2-4.4 0-1.4 1.4-2.7 3.6-3.1v.4z" fill="#fff"/>
        <path d="M270.9 408v-9.5c0-1.6-1.8-4.2-3.1-5.5-1.2-1.3-2.2-2.8-2.2-4.4 0-1.4 1.4-2.7 3.6-3.1 0 .1 0 .3.1.6.1.6 1.1 1.2 2.3 1 1.2-.1 1.9-.8 1.9-1.4 0-.4-.1-.6-.2-.8 1-.2 1.9-.5 2.7-.5.8 0 1.7.3 2.7.5-.1.2-.2.4-.2.8 0 .6.7 1.3 1.9 1.4 1.2.2 2.2-.4 2.3-1 .1-.3.1-.5.1-.6 2.2.4 3.6 1.7 3.6 3.1 0 1.6-1 3.1-2.2 4.4-1.3 1.3-3.1 3.9-3.1 5.5v9.5" fill="none" stroke="#000" stroke-linejoin="round"/>
    </g>
</svg>
