<svg xmlns="http://www.w3.org/2000/svg" height="24" width="24">
    <g transform="matrix(1,0,0,-1,-264,408)" id="KDDI_D_">        <path d="M276 398c-1.8 0-3.4-.1-4.7-.3-1.9-.4-3-.8-3-.8s.9-3.1 2.1-4.1c1.3-1.2 3.4-1.3 5.6-1.3 2.3 0 4.3.1 5.6 1.3 1.2 1 2.2 4.1 2.2 4.1s-1.2.4-3.1.8c-1.3.2-2.9.3-4.7.3z" fill="#ccc"/>
        <path d="M274.5 398.3h2.2v-3.6h-2.2zM277.6 398.3h2.2v-3.6h-2.2zM280.8 398.3h1.5v-3.6h-1.5zM271.2 398.3h2.2v-3.6h-2.2zM268 398.3h2.8v-3.6H268zM269.1 391.8h1.7v1.8h-1.7zM273.4 390.6h-2.3v3.1h2.3zM276 390.7h-2.3v3h2.3zM278.5 390.7h-2.3v3h2.3zM280.2 390.7h-1.7v3h1.7z" fill="#fff"/>
        <path d="M271 390.3l-2.1.4-.4 3.7h2.5zM273.5 390.3H271v4.1h2.5zM276 390.3h-2.5v4.1h2.5zM278.5 390.3H276v4.1h2.5zM281 390.3h-2.5v4.1h2.5zM283.1 390.8l-2.1-.5v4.1h2.5zM267.8 394.4h3.2v4.3h-3.2z" fill="none" stroke="#666" stroke-width=".75"/>
        <path d="M271.1 394.4h3.2v4.3h-3.2zM274.4 394.4h3.2v4.3h-3.2zM277.7 394.4h3.2v4.3h-3.2zM280.9 394.4h3.3v4.3h-3.3z" fill="none" stroke="#666" stroke-width=".75"/>
        <path d="M283.7 396.9s-.9-3.1-2.1-4.1c-1.3-1.2-3.3-1.3-5.6-1.3-2.2 0-4.3.1-5.6 1.3-1.2 1-2.1 4.1-2.1 4.1l.2.1c-.1 0-.3-.1-.4-.1-1.3-.3-2.5.7-3.2 1.3.8-1.1 2.7-4 3.2-5.9.7-2.5 2.9-5.8 7.9-5.8s7.3 3.3 7.9 5.8c.7 2.5 3.6 6.2 3.6 6.2s-1.8-2-3.8-1.6z" fill="#f06"/>
        <path d="M269.6 393.2c.3-.2.7-.5 1.1-.6-.1 0-.2.1-.3.2-1.2 1-2.1 4.1-2.1 4.1l.2.1c-.1 0-.3-.1-.4-.1h-.5c.3-.9 1.1-2.9 2-3.7zM284.6 397c-.9-1.2-1.8-2.9-2.2-4.1-.6-2.5-2.8-5.6-7.6-5.6-1.9 0-1.4-.7 1-.7 5 0 7.3 3.2 7.9 5.7.7 2.5 3.6 6.3 3.6 6.3s-1.2-1.3-2.7-1.6z" fill="#c06"/>
        <path d="M285.3 397.3c-.9-1.4-2.2-3.4-2.6-5-.6-2.4-2.8-5.5-7.4-5.7h.5c5 0 7.3 3.2 7.9 5.7.7 2.5 3.6 6.3 3.6 6.3s-.8-.9-2-1.3z" fill="#906"/>
        <path d="M287.5 398.5s-2.9 2.3-4.3 3.7c-1.4 1.4-2.7 3-4.1 3-1.4 0-2.3-1.4-3.1-1.4-.8 0-1.7 1.4-3.1 1.4-1.4 0-2.6-1.6-4.1-3-1.4-1.4-4.3-3.7-4.3-3.7s1.8-2 3.8-1.6c.8.2 1.1.4 3 .8 1.3.2 2.9.3 4.7.3 1.8 0 3.4-.1 4.7-.3 1.9-.4 2.5-.7 3.1-.8 1.9-.4 3.7 1.6 3.7 1.6z" fill="#f06"/>
        <path d="M274.2 404.6s.8-2 1.3-2.2c.5-.1.5 1.3.5 1.3zM287.5 398.5c-.1 0-.1.1-.1.1s-.1 0-.1.1h-.1c-.1.1-.4.3-.6.5-1 .8-2.5 2.1-3.4 3-.3.2-.6.5-.8.8.3-1.5.8-2.2.6-3.4-.1-1-2.2-1.3-3.1-1.1-1.3.2-3 .3-4.8.3-1.8 0-3.4-.1-4.7-.3-1.9-.4-2.2-.9-3-1.1-.4-.1-.9-.1-1.4 0 .6-.4 1.4-.7 2.3-.5.8.2 1.1.4 3 .8 1.3.2 2.9.3 4.7.3 1.8 0 3.4-.1 4.7-.3.2-.1.4-.1.6-.2h.4c0-.1.1-.1.1-.1.1 0 .2 0 .3-.1h.1c.2 0 .3 0 .3-.1h.1c.4-.1.7-.2.9-.2h.1c0-.1.1-.1.2-.1 1.9-.4 3.7 1.6 3.7 1.6z" fill="#c06"/>
        <path d="M285.3 398.4c-.5-.7-1.3-1.1-1.9-1.4.1 0 .2-.1.4-.1 1.9-.4 3.7 1.6 3.7 1.6s-.9.7-2 1.6c0-.8-.1-1.5-.2-1.7z" fill="#906"/>
        <path d="M273.4 401.8c0-1.2-.9-2.1-2.1-2.1-1.1 0-2 .9-2 2.1 0 1.1.9 2 2 2 1.2 0 2.1-.9 2.1-2z" fill="#f69"/>
        <path d="M272.1 401.8c0-.6-.4-1-1-1-.5 0-1 .4-1 1s.5 1 1 1c.6 0 1-.4 1-1z" fill="#f9c"/>
        <path d="M271.1 390.5c.1.6 1.5.3 2.7 0 1.2-.4 2.2-.3 2.2-1.2 0-.8-.6-1.2-2.3-.8-1.7.3-2.8 1.3-2.6 2z" fill="#f69"/>
        <path d="M272.2 390.1c.1.3.6.1 1.1 0 .5-.2 1-.1 1-.5s-.3-.5-1-.4c-.7.2-1.2.6-1.1.9z" fill="#f9c"/>
        <path d="M276 403.8c.8 0 1.7 1.4 3.1 1.4 1.4 0 2.7-1.6 4.1-3 1.4-1.4 4.3-3.7 4.3-3.7s-2.9-3.7-3.6-6.2c-.6-2.5-2.9-5.8-7.9-5.8s-7.2 3.3-7.9 5.8c-.7 2.5-3.6 6.2-3.6 6.2s2.9 2.3 4.3 3.7c1.5 1.4 2.7 3 4.1 3 1.4 0 2.3-1.4 3.1-1.4z" fill="none" stroke="#000" stroke-linejoin="round"/>
    </g>
</svg>
