<svg xmlns="http://www.w3.org/2000/svg" height="24" width="24">
    <g transform="matrix(1,0,0,-1,-264,408)" id="KDDI_D_">        <path d="M272.2 394.2s.8 1.4 1.5.7l3.3-3.3c.9-.9 1.9-5.9 1.9-7.6h-8.1s-4.2 4.3-5.4 5.4c-1.1 1.1-.9 3.9-.4 4.9.4.8 1.1 1.4 1.9 2 1 .7 2.8 0 3.4-.6l4.2-4.2" fill="#fc9"/>
        <path d="M272.3 384s-4.6 4.5-5.7 5.6c-1.1 1.1-.9 3.9-.4 4.9.4.8 1.1 1.4 1.9 2 .1 0 .2.1.3.1-.5.1-1.1.1-1.5-.2-.8-.6-1.5-1.2-1.9-2-.5-1-.7-3.8.4-4.9 1.2-1.1 5.4-5.5 5.4-5.5z" fill="#ff9"/>
        <path d="M265.2 394.1l4.1-4.2M266.7 395.5l4.1-4.1M268.4 396.6l3.8-3.7" fill="none" stroke="#ff9" stroke-width=".75" stroke-linecap="round"/>
        <path d="M277.1 391.7l-3.3 3.3c-.4.4-.8.1-1.1-.2.8-.8 2.3-2.4 3.1-3.1.8-.9 1.8-5.8 1.8-7.7h1.4c0 1.9-1 6.8-1.9 7.7z" fill="#f93"/>
        <path d="M274.9 402.7c-.9-.9-1-4.1.8-6.2 1.7-2.1 2.4-1.5 3-3.3.6-1.9 1.6-2.4 2.6-2.4 1.1 0 3-2.5 4.5-2.4 1.5.1 2.2 1.3 2.2 1.3v12.5z" fill="#fc9"/>
        <path d="M274.4 401.6c.7-.4 1.7-.9 2.2-.9.7 0 4.9-.4 6.2-1.8 1.4-1.3 2.8-4.7 2.9-6.1 0-1.2 1-2.9 2.3-2.6v12l-13.1.5c-.2-.3-.4-.6-.5-1.1z" fill="#f96"/>
        <path d="M275.4 408s-1.6-1.7-1.6-2.9c-.1-1.3.6-3.2 2.2-3.3 1.6 0 6.9-.6 8.3-2.6 1.3-2 2.5-4.9 2.3-6.3-.2-1.4-.6-3.6-.6-3.6l2 .4V408z" fill="#c60"/>
        <path d="M286 389.3l2 .4v10.6l-3-2.5c1-1.8 1.7-3.8 1.6-4.9-.2-1.4-.6-3.6-.6-3.6z" fill="#960"/>
        <path d="M285.4 408h-6.5l-4.4-5.4c.4-.4.9-.7 1.5-.8.6 0 1.7-.1 2.9-.3z" fill="#f93"/>
        <path d="M275.5 401.9c.2 0 .3-.1.5-.1.3 0 .8 0 1.4-.1l5.7 6.3H281z" fill="#fc0"/>
        <path d="M264.8 392.7l3.8-3.8M265.5 394.7l4.5-4.5M266.9 396.2l4.5-4.5" fill="none" stroke="#c63" stroke-width=".75" stroke-linecap="round"/>
        <path d="M278.8 398.1l.2-2.7 1.9 1.6" fill="none" stroke="#333" stroke-linejoin="round"/>
        <path d="M282.4 390.5l1.2 1.2" fill="none" stroke="#c30" stroke-linecap="round"/>
        <path d="M270.8 384.1s-4.2 4.3-5.4 5.4c-.7.7-1 2.4-.7 3.3-.3.6-.2 1.1 0 1.5.1.2.4.6.7.7-.1.7.5 1.3 1.5 1.2.7 1.4 2.8.2 3.4-.4l4.2-4.2" fill="none" stroke="#c63"/>
        <path d="M272.2 394.3s1.2 1 1.9.3l2.9-2.9c.9-.9 1.9-6 1.9-7.7" fill="none" stroke="#c63"/>
        <path d="M274.9 402.7c-.9-.9-1-4.1.8-6.2 1.7-2.1 2.4-1.5 3-3.3.6-1.9.8-2.4 2.6-2.4 1.1 0 3-2.5 4.5-2.4 1.5.1 2.2 1.3 2.2 1.3" fill="none" stroke="#c63" stroke-width=".75"/>
        <path d="M273.6 404.3s-2-1.4-1.8-3.8c.1-2.5 1.8-3.7 2.5-3.7-.1 1.5.5 5.5.5 5.5z" fill="#c60"/>
        <path d="M273.1 400.6c-.1 1.3.4 2.3 1 2.9l-.5.8s-2-1.4-1.8-3.8c.1-2.5 1.8-3.7 2.5-3.7v.8c-.6.6-1.1 1.6-1.2 3z" fill="#f93"/>
        <path d="M273.6 404.3s-2-1.4-1.8-3.8c.1-2.5 1.8-3.7 2.5-3.7" fill="none" stroke="#c60" stroke-linecap="round" stroke-linejoin="round"/>
        <path d="M274.3 396.8c-.1 1.5.5 5.5.5 5.5" fill="none" stroke="#930" stroke-linecap="round" stroke-linejoin="round"/>
        <path d="M275.4 408s-1.6-1.7-1.6-2.9c-.1-1.3.6-3.2 2.2-3.3 1.6 0 6.9-.6 8.3-2.6 1.3-2 2.5-4.9 2.3-6.3-.2-1.4-.6-3.6-.6-3.6l2 .4" fill="none" stroke="#930" stroke-linejoin="round"/>
    </g>
</svg>
