<svg xmlns="http://www.w3.org/2000/svg" height="24" width="24">
    <g transform="matrix(1,0,0,-1,-264,408)" id="KDDI_D_">        <path d="M274.4 400.3c.4-1.8.3-4.3 0-6.2 0-.3-.6-1.1-.6-1.1s.5-.9.6-1.2c.3-.9.1-4.3 0-4.7-.1-.4-.3-1.3-1-1.3h-1.2c-.9 0-6.9 5.6-6.9 5.6s-.8 1.3-.8 2.4v8.6c0 2.2.9 2.5 1.5 1.9.6-.5 4-4.5 4-4.5s1.2-.6 1.2 1.2v3.3c0 .8.9 1.6 1.7 1.6.7 0 1.5-.9 1.5-1.6v-4z" fill="#fc9"/>
        <path d="M272.2 400.9v3.4c0 .6.6 1.2 1.3 1.5-.2.1-.4.1-.6.1-.8 0-1.7-.8-1.7-1.6V401c0-.6-.2-.9-.3-1.1l.2-.2s1.1-.6 1.1 1.2z" fill="#ffc"/>
        <path d="M274.5 390.8v-.2c0 .5 0 .9-.1 1.2-.1.3-.6 1.2-.6 1.2s.6.8.6 1.1c.3 1.9.4 4.4 0 6.2v4c0 .7-.8 1.6-1.5 1.6-.2 0-.3 0-.5-.1.6-.2 1.1-.9 1.1-1.5v-4c.3-1.8.3-3.9 0-5.8-.2-.8-1.1-1.1-1.1-1.1s1-1.3 1.1-1.6c.2-.6.1-2.3.1-3.5 0-.4-.8-1-1.6-.8-.7.3-6.6 5.1-6.6 5.1s-.9 1.7-.9 1.4c0-1 .8-2.3.8-2.3s6-5.6 6.9-5.6h.9c-.2-.1 1.2.6 1.3 1 .1.2.2 1.7.2 3 0 .2 0 .4-.1.7z" fill="#f93"/>
        <path d="M273.3 387c-.4 0-.6-.2-1.4.1-.7.2-6.7 4.9-6.7 4.9s6-6.1 6.9-6.1h1.2c.7 0 .9.8 1 1.1.1.3.2 1.9.2 3-.1-.9-.1-1.7-.2-1.9-.1-.4-.3-1.1-1-1.1z" fill="#c63"/>
        <path d="M265.9 402.8c0-.6-.2-1.2-.6-1.2-.3 0-.5.6-.5 1.2 0 .7.2 1.2.5 1.2.4 0 .6-.5.6-1.2zM265.8 399.9c0-.6-.3-1.1-.6-1.1s-.6.5-.6 1.1c0 .7.3 1.2.6 1.2s.6-.5.6-1.2zM265.8 396.8c0-.7-.3-1.2-.6-1.2-.4 0-.6.5-.6 1.2 0 .6.2 1.1.6 1.1.3 0 .6-.5.6-1.1zM265.9 393.6c0-.7-.3-1.2-.6-1.2s-.6.5-.6 1.2c0 .6.3 1.2.6 1.2s.6-.6.6-1.2z" fill="#ffc"/>
        <path d="M264.5 395.2l4-4.1M264.5 398.3l4-4M264.5 401.4l4-4M265.6 404l3.7-4.3" fill="none" stroke="#ffc" stroke-linecap="round" stroke-linejoin="round"/>
        <path d="M264.6 395.7l4.4-4.4M264.6 398.8l4.4-4.4M264.6 401.9l4.4-4.4" fill="none" stroke="#c63" stroke-linecap="round" stroke-linejoin="round"/>
        <path d="M273.8 392.6s-2.1.4-2.6 1.7c-.2.5-.3 3.1-.3 3.1" fill="none" stroke="#f93" stroke-linecap="round"/>
        <path d="M270 399.8s1.2-.6 1.2 1.2v3.3c0 .8.9 1.6 1.7 1.6.7 0 1.5-.9 1.5-1.6" fill="none" stroke="#930" stroke-linejoin="round"/>
        <path d="M266 404.3c.6-.5 4-4.5 4-4.5" fill="none" stroke="#600" stroke-linecap="round" stroke-linejoin="round"/>
        <path d="M272.2 385.9c-.9.2-6.9 5.5-6.9 5.5s-.8 1.3-.8 2.4v8.6c0 2.4 1.2 2.2 1.5 1.9" fill="none" stroke="#930" stroke-linecap="round" stroke-linejoin="round"/>
        <path d="M274.4 404.3v-4c.4-1.8.3-4.3 0-6.2 0-.3-.2-1.1-.2-1.1s.1-.9.2-1.2c.3-.9.1-4.3 0-4.7-.1-.4-.3-1.4-2.2-1.2" fill="none" stroke="#600" stroke-linecap="round" stroke-linejoin="round"/>
        <path d="M277.6 400.3c-.3-1.8-.3-4.3 0-6.2 0-.3.6-1.1.6-1.1s-.5-.9-.6-1.2c-.3-.9-.1-4.3 0-4.7.1-.4.3-1.3 1-1.3h1.2c1 0 6.9 5.6 6.9 5.6s.8 1.3.8 2.4v8.6c0 2.2-.9 2.5-1.5 1.9-.6-.5-4-4.5-4-4.5s-1.2-.6-1.2 1.2v3.3c0 .8-.9 1.6-1.7 1.6-.7 0-1.5-.9-1.5-1.6v-4z" fill="#fc9"/>
        <path d="M279.8 400.9v3.4c0 .6-.6 1.2-1.3 1.5.2.1.4.1.6.1.8 0 1.7-.8 1.7-1.6V401c0-.6.2-.9.3-1.1l-.2-.2s-1.1-.6-1.1 1.2z" fill="#ffc"/>
        <path d="M277.5 390.8v-.2c0 .5 0 .9.1 1.2.1.3.6 1.2.6 1.2s-.6.8-.6 1.1c-.3 1.9-.3 4.4 0 6.2v4c0 .7.8 1.6 1.5 1.6.2 0 .3 0 .5-.1-.6-.2-1.1-.9-1.1-1.5v-4c-.3-1.8-.3-3.9 0-5.8.2-.8 1.1-1.1 1.1-1.1s-1-1.3-1.1-1.6c-.2-.6-.1-2.3-.1-3.5 0-.4.9-1 1.6-.8.8.3 6.6 5.1 6.6 5.1s.9 1.7.9 1.4c0-1-.8-2.3-.8-2.3s-5.9-5.6-6.9-5.6h-.9c.2-.1-1.2.6-1.3 1-.1.2-.2 1.7-.2 3 0 .2 0 .4.1.7z" fill="#f93"/>
        <path d="M278.7 387c.4 0 .6-.2 1.4.1.7.2 6.7 4.9 6.7 4.9s-6-6.1-6.9-6.1h-1.2c-.7 0-.9.8-1 1.1-.1.3-.2 1.9-.2 3 .1-.9.1-1.7.2-1.9.1-.4.3-1.1 1-1.1z" fill="#c63"/>
        <path d="M286.1 402.8c0-.6.2-1.2.6-1.2.3 0 .6.6.6 1.2 0 .7-.3 1.2-.6 1.2-.4 0-.6-.5-.6-1.2zM286.2 399.9c0-.6.3-1.1.6-1.1s.6.5.6 1.1c0 .7-.3 1.2-.6 1.2s-.6-.5-.6-1.2zM286.3 396.8c0-.7.2-1.2.5-1.2.4 0 .6.5.6 1.2 0 .6-.2 1.1-.6 1.1-.3 0-.5-.5-.5-1.1zM286.1 393.6c0-.7.3-1.2.6-1.2s.6.5.6 1.2c0 .6-.3 1.2-.6 1.2s-.6-.6-.6-1.2z" fill="#ffc"/>
        <path d="M287.5 395.2l-4-4.1M287.5 398.3l-4-4M287.5 401.4l-4-4M286.4 404l-3.7-4.3" fill="none" stroke="#ffc" stroke-linecap="round" stroke-linejoin="round"/>
        <path d="M287.4 395.7l-4.4-4.4M287.4 398.8l-4.4-4.4M287.4 401.9l-4.4-4.4" fill="none" stroke="#c63" stroke-linecap="round" stroke-linejoin="round"/>
        <path d="M278.3 392.6s2 .4 2.5 1.7c.2.5.3 3.1.3 3.1" fill="none" stroke="#f93" stroke-linecap="round"/>
        <path d="M282 399.8s-1.2-.6-1.2 1.2v3.3c0 .8-.9 1.6-1.7 1.6-.7 0-1.5-.9-1.5-1.6" fill="none" stroke="#930" stroke-linejoin="round"/>
        <path d="M286 404.3c-.6-.5-4-4.5-4-4.5" fill="none" stroke="#600" stroke-linecap="round" stroke-linejoin="round"/>
        <path d="M279.8 385.9c.9.2 6.9 5.5 6.9 5.5s.8 1.3.8 2.4v8.6c0 2.4-1.2 2.2-1.5 1.9" fill="none" stroke="#930" stroke-linecap="round" stroke-linejoin="round"/>
        <path d="M277.6 404.3v-4c-.3-1.8-.3-4.3 0-6.2 0-.3.2-1.1.2-1.1s-.1-.9-.2-1.2c-.3-.9-.1-4.3 0-4.7.1-.4.3-1.4 2.2-1.2" fill="none" stroke="#600" stroke-linecap="round" stroke-linejoin="round"/>
    </g>
</svg>
