<svg xmlns="http://www.w3.org/2000/svg" height="24" width="24">
    <g transform="matrix(1,0,0,-1,-264,408)" id="KDDI_D_">        <path d="M270.6 383.9c0 .9-3.2 3.4-4.1 4.9-.9 1.5-.9 3.7.3 3.8 1.3.1 2.6-1.3 3.7-2.6 1.3-1.6 4.2-1.3 4.8-.6.7.8 1 2.1 1 3 0 .9-.7 3.6-3.4 3.6-3.2-.1-4.1-2.7-5.4-2.7-1.7 0-2.2.7-2.2 1.7 0 1.5 2.4 3.7 4.6 4.4 2.9.9 6.1 0 6.9-1.1.3 1 .4 2.6-.4 3.6-.7 1-3.1 3.4-1.8 4.9 1.1 1.2 2.7.5 3.1.2.2.1.5.5 1.4.5 1.6-.1 4-3 4.8-4.6 1.3-2.3 2.6-6.6 2.6-9.7 0-3.2-2.5-7.7-2.5-9.2" fill="#fc9"/>
        <path d="M271.7 398.9c1.3.4 2.7.5 3.9.3-1.4.6-3.6.9-5.7.2-2.2-.7-4.6-2.9-4.6-4.4 0-1 .4-1.7 2.2-1.7-.4.3-.5.7-.5 1.2 0 1.5 2.5 3.7 4.7 4.4z" fill="#ff9"/>
        <path d="M277.1 388.9c.7.8 1 2.1 1 3 0 .9-1.1 3-3.4 3 1.1-.7 1.6-1.8 1.6-2.5 0-.9-.3-2.2-1-3-.3-.4-1.2-.6-2.2-.6 1.4-.8 3.4-.5 4 .1z" fill="#fc9"/>
        <path d="M268.4 392c-.5.4-1 .6-1.6.6-1.2-.1-1.2-2.3-.3-3.8.9-1.5 3.3-2.8 3.3-3.6 0 0-1.3 2.4-2 3.6-.9 1.5-.4 2.9.6 3.2zM276.9 402.9c-.8 1.4-1.9 2.6-1.2 3.4.7.7 0 1.7-1.1.5-1.3-1.5 1.1-3.9 1.8-4.9.6-.8.4-2.5 1.5-4.5.4 1.2-.5 4.7-1 5.5z" fill="#ff9"/>
        <path d="M283.9 402.9c-.8 1.6-3.2 4.5-4.8 4.6-.1 0-1.3-.5-1.4-.5 1.4-.2 1.6-2 2-2.9 1.3-2.5 2.5-7.7 2.3-12.1-.2-3.4-2.4-6.4-2.4-8h4.4c0 1.5 2.5 6 2.5 9.2 0 3.1-1.3 7.4-2.6 9.7z" fill="#f93"/>
        <path d="M283.9 402.9c-.8 1.6-3.2 4.5-4.8 4.6l-.6-.2c1.4-.7 3.3-3 4-4.4 1.3-2.3 2.5-7.2 2.3-10.4-.3-3.2-2.6-7-2.6-8.5h1.8c0 1.5 2.5 6 2.5 9.2 0 3.1-1.3 7.4-2.6 9.7z" fill="#c60"/>
        <path d="M276.4 407s2.1-2.7 2.9-4.2c1.4-2.8 1.1-5.9 1.6-5.8.5.1.6-.2.5 1.3 0 1.5-.6 4.3-1.4 5.5-.7 1.3-1.6 2.7-2.2 3-.6.4-1.1.6-1.4.2zM272.5 383.9l-3.2 2.3.8-1.4c.3-.4.5-.7.5-.9z" fill="#f93"/>
        <path d="M276.5 392.9s1.4-1.7.3-3.5c-.6-1.1-2.2-2-3.4-1.7-1.1.4-1.9 1.8-1.9 1.8s1.9-1.1 2.8-.4c1 .6 1.7 1.6 1.8 2.2.1.5.4 1.6.4 1.6" fill="#ff9"/>
        <path d="M277.7 407s2.1-2.2 3.1-4.5c1-2.6 1-5.2 1-5.2M276.9 399l.8-1.2" fill="none" stroke="#930" stroke-linecap="round"/>
        <path d="M270.6 383.9c0 .9-3.3 3.4-4.2 4.9-1 1.5-1.2 3.5.4 3.8 2.3.3 2.5-1.7 3.7-2.6 1.7-1.2 3.9-1.1 4.7-.4.9.7 1.1 1.9 1.1 2.8 0 .9-.9 3.4-3.4 3.4-3.4 0-4-2.4-5.4-2.5-1.7-.3-2 .7-2 1.7 0 1.5 2.5 3.9 4.7 4.6 3.4 1.1 6-.3 6.9-1.2-.2 1-.5 2.3-.9 3.5-.4 1.2-2.9 3.4-1.6 4.9 1.1 1.2 2.7.5 3.1.2.2.1.5.5 1.4.5 1.6-.1 4-3 4.8-4.6 1.3-2.3 2.5-6.6 2.5-9.7 0-3.2-2.4-7.7-2.4-9.2" fill="none" stroke="#000" stroke-linejoin="round"/>
    </g>
</svg>
