<svg xmlns="http://www.w3.org/2000/svg" height="24" width="24">
    <g transform="matrix(1,0,0,-1,-264,408)" id="KDDI_D_">        <path d="M264.1 403.8c.6 0 3-.3 3.6.3 2.1 2.1 6.2 3.3 7.6 3.3.4-.1 3.1.5 4.5-1 1.8-2.1 2.4-9 2.4-10.7-.2-2.9-7-5.4-9.2-5.1-1.6.3-3.8 2.5-5.3 3.3-.6.3-3.3.3-3.6.3" fill="#fc9"/>
        <path d="M278.4 405.3s-2.3 1.3-7-.7c-.9-.4-3.1-2.6-4.6-2.6-.7 0-2.7.2-2.7.2v1.8s2.7-.4 3 0c.4.3 5.7 3.1 6.6 3.2 1 0 4.3.1 4.3.1z" fill="#ffc"/>
        <path d="M277.6 405s-2.1-.1-2.7-.5c-.6-.3-1.2-.9-1.3-1.9-.1-1.3.4-1.8.5-3.4.1-1.1-.1-3.5.1-4.1.7-1.7 2.7-1.7 3.7-.9 1.2 1.1 2 3.3 1.9 5.5-.1 2.1-2.2 5.3-2.2 5.3z" fill="#f93"/>
        <path d="M279.3 399.4c-.2 3.4-3.5 4.1-4 4-1-.3-.2-2.4-.1-4.2.1-1.2-.2-3.3.8-3.6 1.1-.3 3.4.5 3.3 3.8z" fill="#c63"/>
        <path d="M279.3 399.3c-.2 2.8-2.8 3.5-3.2 3.4-.7-.3-.1-2.1 0-3.6.1-1.1-.1-2.8.6-3.1.9-.3 2.7.4 2.6 3.3z" fill="#930"/>
        <path d="M264.1 394.2c.3 0 3.2.3 3.6-.3 1.2-1.6 3.7-3 5.3-3.3 4.8-.9 8.7 4.6 8.8 7.5.1 2 .7 6.7-1.5 8.7-.9.9-3.8.6-5 .6-1.4 0-5.5-1.2-7.6-3.3-.6-.6-3-.3-3.6-.3" fill="none" stroke="#000"/>
        <path d="M274.4 393.2l4.6.1s.9-2.1 1.2-4.4c.2-1.9-.1-3.6-.4-4-.9-1-3.3-.7-3.5.5-.3 1.1 0 1.7-.9 2.7-.9 1-3.8 3.1-3.8 3.1z" fill="#fc9"/>
        <path d="M280.2 388.9c-.3 2.3-1.2 4.4-1.2 4.4l-1.9-.2s1.9-2.5 2.1-4.8c.1-2.6-1.8-2.4-2.1-1.8-.2.6-.2 2.9-.7 3.6-1.1 1.5-3.1 2.5-4 3.3-.7.7-1.2 2.4-2.6 2.9-1.5.5-2.5.4-3.4.4-1.1 0-2.3.2-2.3.2v-1.4s2.7 0 3.6-.4c.4-.2 4.3-2.6 6.6-4.5 1.1-1 1.8-1.6 1.9-2.7.2-1.1.3-2.7.6-2.9h.3c0-.2 0-.5-.1-.5.7-.1 2.3-.1 2.8.4.3.4.6 2.1.4 4z" fill="#f93"/>
        <path d="M279.6 391.4h-.7s.9-2.6.9-3.2c0-3.3-2.3-3.5-2.3-3.5s1.3-.3 2 .1c.7.3 1.1 1.9 1.1 2.8 0 .9-1 3.8-1 3.8" fill="#c63"/>
        <path d="M279 393.3s1.2-2.3 1.5-4.5c.3-2-.4-3.5-.7-3.9-.9-1-3.3-.7-3.5.5-.3 1.1 0 1.7-.9 2.7-.9 1-2.8 2.7-3.6 2.9" fill="none" stroke="#000" stroke-linecap="round"/>
        <path d="M281.8 391.5c-1.8-.1-5.5-.1-5.2 1.8.2 1.9 2.3 2.4 5.4 2.4 2.7.1 5.2-.8 5.3-2.4 0-2.4-3.8-1.8-5.5-1.8z" fill="#fc9"/>
        <path d="M285.1 392.7c1.7-.5-.4-1.1-.4-1.1l-7.8.3s-.3 1.7.1 2.2c.8.9 1.7 1 1.7 1s-.4-1.5.3-2c1.3-.9 5.5-.3 6.1-.4z" fill="#f93"/>
        <path d="M280.8 394.2c.7.1.4 0 1.2 0 2.2.1 4.3-.4 5.2-1.5 0 .2.1.4.1.6-.1 1.6-2.7 1.8-4.6 1.9-1 .1-1.2.2-1.9 0-1.6-.4-1.4-1.3 0-1z" fill="#ffc"/>
        <path d="M279.5 391.9s-1.4.6-1.7 1.4c-.3.5.1 1.5.1 1.5s-1.5-.6-1.3-1.5c.2-1.8 2.9-1.4 2.9-1.4z" fill="#c63"/>
        <path d="M281.8 391.5c-1.8-.1-5.5-.1-5.2 1.8.2 1.9 2.3 1.9 5.3 2 2.7.1 5.3-.2 5.4-1.8 0-2.3-3.8-2-5.5-2z" fill="none" stroke="#000" stroke-linecap="round"/>
        <path d="M282.1 395.6c-1.8 0-5.5-.5-5.4 1.5.1 1.9 2.5 2.7 5.6 2.8 2.8.1 5.5-1.2 5.3-2.8-.2-2.3-3.7-1.4-5.5-1.5z" fill="#fc9"/>
        <path d="M285.4 396.6c1.7-.6-.6-1-.6-1l-7.6.1s-.4 1.7-.1 2.2c.7 1 1.7 1.2 1.7 1.2s-.3-1.6.5-2c1.3-.9 5.6-.3 6.1-.5z" fill="#f93"/>
        <path d="M281.1 398.3c.7.2.5.1 1.3.1 2.2.1 4.4-.7 5.1-1.9 0 .2.1.4.1.6.2 1.6-2.6 2.2-4.6 2.3-.9 0-1.2.2-1.9 0-1.8-.4-1.6-1.4 0-1.1z" fill="#ffc"/>
        <path d="M279.8 395.9s-1.4.5-1.8 1.3c-.4.5 0 1.5 0 1.5s-1.5-.7-1.3-1.6c.5-1.8 3.1-1.2 3.1-1.2z" fill="#c63"/>
        <path d="M282.1 395.6c-1.8 0-5.5-.3-5.4 1.7.1 1.9 2.4 2.1 5.5 2.2 2.8.1 5.6-.6 5.5-2.1-.2-2.4-3.8-1.7-5.6-1.8z" fill="none" stroke="#000" stroke-linecap="round"/>
        <path d="M282 399.7c-1.8 0-5.4-.4-5.3 1.4.1 1.8 2.4 2.7 5.4 2.7 2.8.1 5.3-1.1 5.2-2.6-.2-2.3-3.6-1.4-5.3-1.5z" fill="#fc9"/>
        <path d="M285.1 400.7c1.7-.6-.5-1-.5-1l-7.4.1s-.4 1.6-.1 2.1c.7.9 1.6 1.1 1.6 1.1s-.3-1.4.5-1.9c1.3-.8 5.4-.2 5.9-.4z" fill="#f93"/>
        <path d="M280.9 402.3c.7.2.5.1 1.3.1 2.2.1 4.3-.7 5-1.8 0 .2.1.4.1.6.1 1.5-2.6 2.1-4.5 2.2-.9 0-1.1.1-1.9 0-1.7-.4-1.5-1.4 0-1.1z" fill="#ffc"/>
        <path d="M279.7 400s-1.3.5-1.8 1.2c-.3.5 0 1.4 0 1.4s-1.4-.6-1.2-1.5c.4-1.7 3-1.1 3-1.1z" fill="#c63"/>
        <path d="M282 399.6c-1.7 0-5.4-.1-5.3 1.7.1 1.8 2.3 2.1 5.3 2.1 2.8.1 5.5-.5 5.3-2-.2-2.3-3.5-1.8-5.3-1.8z" fill="none" stroke="#000" stroke-linecap="round"/>
        <path d="M281.2 403.9c-1.5 0-4.7-.4-4.7 1.4.1 1.7 2.2 2.4 4.9 2.4 2.4 0 4.7-1.2 4.6-2.6-.2-2.1-3.2-1.2-4.8-1.2z" fill="#fc9"/>
        <path d="M284.1 404.7c1.4-.7-.5-.9-.5-.9l-6.6.3s-.4 1.4-.1 1.9c.6.8 1.4 1 1.4 1s-.2-1.4.4-1.8c1.2-.8 4.9-.3 5.4-.5z" fill="#f93"/>
        <path d="M280.3 406.3c.6.1.4 0 1.1 0 2 0 3.9-.7 4.5-1.7.1.1.1.3.1.5.1 1.4-2.3 2-4 2.1-.8.1-1 .2-1.7.1-1.5-.4-1.3-1.2 0-1z" fill="#ffc"/>
        <path d="M279.2 404.1s-1.2.5-1.6 1.2c-.3.5 0 1.4 0 1.4s-1.2-.6-1.1-1.4c.4-1.7 2.7-1.2 2.7-1.2z" fill="#c63"/>
        <path d="M281.2 403.6c-1.6 0-4.7.1-4.7 1.8.1 1.7 2.1 1.9 4.8 1.9 2.5 0 4.9-.6 4.7-2-.1-2.1-3.2-1.8-4.8-1.7z" fill="none" stroke="#000" stroke-linecap="round"/>
    </g>
</svg>
