<svg xmlns="http://www.w3.org/2000/svg" height="24" width="24">
    <g transform="matrix(1,0,0,-1,-264,408)" id="KDDI_D_">        <path d="M279.6 384v2.5s1.3 2.3 1.8 3.1c.5.7.9 4.8.7 6.1-.2 1.3 2.2 3.7 1.3 4.8-.9 1.2-3 .3-4-1.1-1.4-1.9-.6-4-.6-4s-1 2.1-1.5 4c-.5 2-1.1 4.9-1.8 6.6-.4 1.2-1 1.4-1.4 1.4-.5-.1-1-.7-.9-1.7.2-2.8 1.3-8 1.3-8s-.9 5.7-2 8.4c-.5 1-1.1 1.3-1.6 1.2-.4-.1-1.1-.5-1.1-1.6.1-2.8 1.4-9 1.4-9s-1 5.4-1.7 7.9c-.3 1.1-1 1.5-1.6 1.4-.5-.2-.9-.5-.9-1.7-.2-3 .9-8.7.9-8.7s-.3 3.8-1 5.8c-.4.9-.8 1.4-1.2 1.3-.7-.1-.9-.6-1.1-1.7-.2-1.4.5-3.6.6-5 .2-2.4 1.8-7.9 2.9-9.1 1.2-1.1 1.1-2.9 1.1-2.9" fill="#fc9"/>
        <path d="M278.6 395.8s-3.3-3-4.1-4.8c-.4-1.1 0-3.3.6-4.1M269.5 392.6l7 1.1" fill="none" stroke="#f93"/>
        <path d="M283.6 400.3c-.6 1-2 .6-2 .6s.9-.7.9-1.2c.1-.5-.2-1.1-.5-1.4-.4-.5-1.1-1.8-1.2-2.3-.3-1.7-.4-3.6-1-5.3-.7-1.9-3.4-4.2-3.4-4.2s1.3-.4 1.3-1-.1-1.4-.1-1.4h2v2.4l1.9 3.5s.6 4.4.8 5.9c.1 1.6 1.7 3.8 1.3 4.4zM273.9 406.8s.8-.4 1.3-2.7c.1-.5.6-3.7.9-6 0-.4.7-.9.8-1.2.3-1.3.2-2 .2-2.8l1.2 1.5s-.5 1.7-1.1 3.4c-.5 1.8-.8 4.1-.9 4.6-.1 1-.6 2.2-1 2.8-.5.6-1.4.4-1.4.4zM270.6 406.9s.9-.2 1.6-3c.2-.8.8-5.7 1.1-6 .3-.2 1.1-.1 1.1-.1s-1 4.6-1.1 5.5c-.1 1-.5 2.3-.8 2.9-.8 1.3-1.9.7-1.9.7zM267.8 405.5s.7-.5 1.2-3.1c.2-.9.8-5.3 1.1-5.5.4-.3 1.1-.1 1.1-.1s-1.2 4.2-1.3 5.2c-.1.9 0 2.2-.3 2.8-.7 1.2-1.8.7-1.8.7zM265.2 402.3s.8-.4 1.1-2.4c.1-.7.8-4.3.8-4.3h1s-.8 3.3-.9 4c0 .7-.3 1.8-.6 2.3-.6 1-1.4.4-1.4.4z" fill="#f93"/>
        <path d="M278.5 393.5c-.4.3-2-1.4-2.3-2-.3-.5-.6-1.8 0-1.7.7 0 1.2.7 1.7 1.5.4.8 1.2 1.7.6 2.2zM265.5 401c.3 0 1.1-4.7 1.2-5.4.2-.8.6-1.3.9-1.3.2.1 2.3 1.1 3 1.4.7.2 5.2 2 5.4.5.2-1.2-3.8-1.5-5.2-1.9-1.4-.5-2.2-.7-2.6-1.5-.2-.3.8-2.4 1.2-3 .4-.5 1.3-.8 1.6-1.8.3-1-.2-1.3-.3-1.9 0-.6.5-2 .5-2h-1.1s-.2 1.7-.6 2.4c-.4.6-2.2 3.4-2.5 4.5-.2 1.2-1 5.8-1.3 7.1-.3 1.3-.5 2.9-.2 2.9zM280.9 398.8c-.4.5-1-.2-1.3-.8-.2-.6-.2-1.2.6-.5.7.7 1.1 1 .7 1.3zM268.2 404.4c.1-.5 0-.9-.3-.9-.2 0-.4.3-.5.8 0 .5.1.9.3.9.3.1.5-.3.5-.8zM271.2 405.9c.1-.5-.1-.9-.3-.9-.2-.1-.5.3-.6.8-.1.5.1.9.3.9.2.1.5-.3.6-.8zM274.4 406c.1-.5 0-.9-.2-.9-.2-.1-.5.2-.6.7-.2.4-.1.9.2.9.2.1.5-.2.6-.7z" fill="#ffc"/>
        <path d="M278.3 384s0 2.9.3 3.5c.4.6 1.3 1.6 1.7 2.5.5 1 .8 2.4.9 3.4.2 1.6.7 2.8.7 2.8s0-6.1-.2-6.5c-.2-.3-1.9-2.9-2-3.2-.1-.3-.1-2.4-.1-2.4zM275.7 404.6l.8-5.9.7-1.3.5-2.1.8.4z" fill="#c63"/>
        <path d="M269.2 384s.1 1.8-1.1 2.9c-1.1 1.2-2.7 6.7-2.9 9.1-.1 1.4-.8 3.6-.6 5 .2 1.1.4 1.6 1.1 1.7.4.1.9-.3 1.2-1.3.4-1.9 1-5.5 1-5.5s-1.1 5.4-.9 8.4c0 1.2.4 1.5.9 1.7.6.1 1.3-.3 1.7-1.4.9-2.8 1.4-7.6 1.4-7.6s-.9 5.9-1.2 8.7c-.1 1.1.7 1.5 1.1 1.6.5.1 1.1-.2 1.6-1.2 1.1-2.7 1.9-7.9 1.9-7.9s-.8 4.7-1.4 7.3c-.2 1 .6 1.8 1.1 1.9.4 0 1-.2 1.4-1.4.7-1.7 1.3-4.6 1.8-6.6.5-1.9 1.1-3.5 1.1-3.5s-.4 1.6 1 3.5c1 1.4 3.1 2.3 4 1.1.9-1.1-1.5-3.5-1.3-4.8.2-1.3-.2-5.4-.7-6.1-.5-.8-1.8-3.1-1.8-3.1V384" fill="none" stroke="#000" stroke-linejoin="round"/>
        <path d="M279.3 407.5s4.7.3 6.6-2.4c2.1-2.8 1.5-6.5 1.5-7.5" fill="none" stroke="#666"/>
    </g>
</svg>
