<svg xmlns="http://www.w3.org/2000/svg" height="24" width="24">
    <g transform="matrix(1,0,0,-1,-264,408)" id="KDDI_D_">        <path d="M276 403.9c9.2 0 11.6-3.9 11.6-9.6 0-3.6-4.8-7.1-7.9-7.8-2.3-.5-5.1-.4-7.3 0-3.5.8-7.9 4.2-7.9 7.8 0 5.2 2.3 9.6 11.5 9.6z" fill="#fc6"/>
        <path d="M274.6 386.2s5.8 1.4 8 5.4c1.4 2.4 1.7 6.2 2.9 6.4 1.1.3 2.8-3.1 1.3-6-1.4-2.6-5.7-5.7-12.2-5.8z" fill="#c93"/>
        <path d="M268.5 399.4c.9 1 3.9 2.5 4.6.9.5-1.1-3-5.8-4.9-5.4-1.9.3-1.2 2.8.3 4.5z" fill="#ff9"/>
        <path d="M276 403.9c8.6 0 11.6-3.9 11.6-9.6 0-4.1-4.8-7.1-7.9-7.8-2.3-.5-5.1-.4-7.3 0-3.5.8-7.9 3.8-7.9 7.8 0 5.2 2.9 9.6 11.5 9.6z" fill="none" stroke="#c33" stroke-width=".996"/>
        <path d="M266.9 400.7c0 3.5 1 6.8 1 6.8l4.4-5.2" fill="#f63"/>
        <path d="M266.9 400.7c0 3.5 1 6.8 1 6.8l4.7-5.8" fill="none" stroke="#c33" stroke-width="1.047" stroke-linejoin="round"/>
        <path d="M274.4 403.5v-2.8" fill="none" stroke="#c33" stroke-width=".996"/>
        <path d="M285.2 400.7c0 3.5-1 6.8-1 6.8l-4.4-5.2" fill="#f63"/>
        <path d="M285.2 400.7c0 3.5-1 6.8-1 6.8l-4.7-5.8" fill="none" stroke="#c33" stroke-width="1.047" stroke-linejoin="round"/>
        <path d="M277.7 403.5v-2.8" fill="none" stroke="#c33" stroke-width=".996"/>
        <path d="M271.5 396.3c0-.6-.5-1.1-1.2-1.1-.6 0-1.1.5-1.1 1.1 0 .6.5 1.1 1.1 1.1.7 0 1.2-.5 1.2-1.1zM280.6 396.3c0-.6.5-1.1 1.2-1.1.6 0 1.1.5 1.1 1.1 0 .6-.5 1.1-1.1 1.1-.7 0-1.2-.5-1.2-1.1z"/>
        <path d="M269.1 392.9l-4.8 3M269.1 391.4l-4.5-2.5M283 392.9l4.8 3M283.1 391.4l4.5-2.5" fill="none" stroke="#333" stroke-width=".996"/>
        <path d="M280.4 392.9l-2.3-2.8-2 2.6-2.1-2.6-2.3 2.8" fill="none" stroke="#000" stroke-width=".996" stroke-linejoin="round"/>
        <path d="M264.3 384.3s14.4 8.6 16.2 9.5c1.6.8 5 2.1 6.4.8.2-.2.3-.9.2-1.2.2-.2.4-.7.4-1-.1-2-3.1-3.2-4.4-3.6-1.4-.5-7.6-4.5-7.6-4.5" fill="#fc6"/>
        <path d="M283.1 388.8c-1.4-.5-7.6-4.5-7.6-4.5h-2.2c2.3 1.5 6.9 4.4 8.2 4.9 1.4.5 2.9 0 1.6-.4z" fill="#c93"/>
        <path d="M285.9 392.8c-1.4 1.3-4.8-.1-6.4-.8-1.3-.6-8.8-5.1-13.1-7.7h-2.1s14.4 8.6 16.2 9.5c1.6.8 5 2.1 6.4.8.2-.2.3-.9.2-1.2.2-.2.4-.7.4-1 0-.7-1.4.1-1.6.4z" fill="#ff9"/>
        <path d="M286.8 393.2l-.5-.1" fill="#fc6" stroke="#c33" stroke-width=".766" stroke-linecap="round" stroke-linejoin="round"/>
        <path d="M264.3 384.3s14.4 8.6 16.2 9.5c1.6.8 5 2.1 6.4.8.2-.2.3-.9.2-1.2.2-.2.4-.7.4-1-.1-2-3.1-3.2-4.4-3.6-1.4-.5-7.6-4.5-7.6-4.5" fill="none" stroke="#c33" stroke-width="1.017" stroke-linejoin="round"/>
        <path d="M287.7 384.3s-14.4 8.6-16.2 9.5c-1.6.8-5 2.1-6.4.8-.2-.2-.3-.9-.2-1.2-.2-.2-.4-.7-.4-1 .1-2 3.1-3.2 4.4-3.6 1.4-.5 7.6-4.5 7.6-4.5" fill="#fc6"/>
        <path d="M268.9 388.8c1.4-.5 7.6-4.5 7.6-4.5h2.2c-2.3 1.5-6.9 4.4-8.2 4.9-1.4.5-2.9 0-1.6-.4z" fill="#c93"/>
        <path d="M266.1 392.8c1.4 1.3 4.8-.1 6.4-.8 1.3-.6 8.8-5.1 13.1-7.7h2.1s-14.4 8.6-16.2 9.5c-1.6.8-5 2.1-6.4.8-.2-.2-.3-.9-.2-1.2-.2-.2-.4-.7-.4-1 0-.7 1.4.1 1.6.4z" fill="#ff9"/>
        <path d="M265.2 393.2l.5-.1" fill="#fc6" stroke="#c33" stroke-width=".766" stroke-linecap="round" stroke-linejoin="round"/>
        <path d="M287.7 384.3s-14.4 8.6-16.2 9.5c-1.6.8-5 2.1-6.4.8-.2-.2-.3-.9-.2-1.2-.2-.2-.4-.7-.4-1 .1-2 3.1-3.2 4.4-3.6 1.4-.5 7.6-4.5 7.6-4.5" fill="none" stroke="#c33" stroke-width="1.017" stroke-linejoin="round"/>
    </g>
</svg>
