<svg xmlns="http://www.w3.org/2000/svg" height="24" width="24">
    <g transform="matrix(1,0,0,-1,-264,408)" id="KDDI_D_">        <path d="M272.4 400.1h7.1l1.9 4c.7.6 2.6-.1 3.4-.8.7-.7 2.6-1.8 2.6-6.8 0-4.9-.6-6.2-1.6-7.5-1-1.3-2.5-1.6-2.5-2.5V384h-14.6v2.5c0 .9-1.5 1.2-2.5 2.5s-1.6 2.6-1.6 7.5c0 5 1.9 6.1 2.7 6.8.7.7 2.6 1.4 3.3.8z" fill="#fc6"/>
        <path d="M283 391.4c0-2-3.1-3.5-6.9-3.5-3.9 0-7 1.5-7 3.5 0 1.9 3.1 3.4 7 3.4 3.8 0 6.9-1.5 6.9-3.4z" fill="#c93"/>
        <path d="M284.8 403.3c-.7.6-2.4 1.3-3.2.9.7-.2 1.4-.5 1.7-.9.8-.7 2.7-1.8 2.7-6.8 0-4.9-.6-6.2-1.6-7.5-1-1.3-2.5-1.6-2.5-2.5V384h1.4v2.5c0 .9 1.5 1.2 2.5 2.5s1.6 2.6 1.6 7.5c0 5-1.9 6.1-2.6 6.8z" fill="#c93"/>
        <path d="M267.6 389c-1 1.3-1.6 2.6-1.6 7.5 0 5 1.9 6.1 2.7 6.8.3.4 1 .7 1.7.9-.8.4-2.5-.3-3.1-.9-.8-.7-2.7-1.8-2.7-6.8 0-4.9.6-6.2 1.6-7.5 1-1.3 2.5-1.6 2.5-2.5V384h1.4v2.5c0 .9-1.5 1.2-2.5 2.5z" fill="#ff9"/>
        <path d="M276 402.9c6.4 0 8-3.1 8-7.5 0-2.9-3.2-5.6-5.4-6.1-1.6-.4-3.6-.4-5.1 0-2.4.6-5.4 3.2-5.4 6.1 0 4 1.5 7.5 7.9 7.5z" fill="#fc6"/>
        <path d="M275.1 389s4.8 1.4 6.4 4.5c.9 1.9.3 4.6 1.1 4.8.8.2 1.9-2.5.9-4.7-1-2.1-4-4.5-8.4-4.6z" fill="#c93"/>
        <path d="M270.8 399.3c.7.8 2.7 1.9 3.2.7.4-.8-2-4.5-3.4-4.2-1.3.3-.8 2.2.2 3.5z" fill="#ff9"/>
        <path d="M276 402.9c6 0 8-3.1 8-7.5 0-3.2-3.2-5.6-5.4-6.1-1.6-.4-3.6-.4-5.1 0-2.4.6-5.4 2.9-5.4 6.1 0 4 1.9 7.5 7.9 7.5z" fill="none" stroke="#c33" stroke-width=".996"/>
        <path d="M269.7 400.3c.7 2.9 2 5.5 2 5.5l2-4.2" fill="#f63"/>
        <path d="M269.7 400.3c.7 2.9 2 5.5 2 5.5l2-4.3" fill="none" stroke="#c33" stroke-width="1.047" stroke-linejoin="round"/>
        <path d="M282.4 400.3c-.7 2.9-2 5.5-2 5.5l-2-4.2" fill="#f63"/>
        <path d="M282.4 400.3c-.7 2.9-2 5.5-2 5.5l-2-4.3" fill="none" stroke="#c33" stroke-width="1.047" stroke-linejoin="round"/>
        <path d="M274.9 402.5v-2.1M277.2 402.5v-2.1" fill="none" stroke="#c33" stroke-width=".996"/>
        <path d="M272.9 396.9c0-.5-.4-.8-.8-.8s-.8.3-.8.8.4.9.8.9.8-.4.8-.9zM279.2 396.9c0-.5.4-.8.8-.8s.8.3.8.8-.4.9-.8.9-.8-.4-.8-.9z"/>
        <path d="M271.3 394.3l-3.4 2.3M271.2 393.1l-3.1-1.9M280.8 394.3l3.4 2.3M280.9 393.1l3.1-1.9" fill="none" stroke="#333" stroke-width=".996"/>
        <path d="M279 393.1s-.4-.8-1.5-.7c-1.1.1-1.4 1.9-1.4 1.9s-.4-1.8-1.5-1.9c-1.1-.1-1.5.7-1.5.7" fill="none" stroke="#000" stroke-width=".996" stroke-linecap="round" stroke-linejoin="round"/>
        <path d="M268.8 404.1c.7.3 1.4.3 1.8 0 0 0 .7-.4.4-1.3-.3-.9-1-1.8-1.7-2.7" fill="#fc6"/>
        <path d="M268.7 384v2.5c0 .9-1.5 1.2-2.5 2.5s-1.6 2.6-1.6 7.5c0 5 1.9 6.1 2.7 6.8.7.7 2.6 1.4 3.3.8 0 0 .7-.4.4-1.3-.3-.9-1-1.8-1.7-2.7" fill="none" stroke="#c33" stroke-width=".996"/>
        <path d="M283.3 404.1c-.7.3-1.4.3-1.8 0 0 0-.7-.4-.4-1.3.3-.9 1-1.8 1.7-2.7" fill="#fc6"/>
        <path d="M283.4 384v2.5c0 .9 1.5 1.2 2.5 2.5s1.6 2.6 1.6 7.5c0 5-1.9 6.1-2.7 6.8-.7.7-2.6 1.4-3.3.8 0 0-.7-.4-.4-1.3.3-.9 1-1.8 1.7-2.7" fill="none" stroke="#c33" stroke-width=".996"/>
    </g>
</svg>
