<svg xmlns="http://www.w3.org/2000/svg" height="24" width="24">
    <g transform="matrix(1,0,0,-1,-264,408)" id="KDDI_D_">        <path d="M264.6 389.4c.3-1.7 3.8-4.4 4.9-4.7 1.1-.3 5.3-.3 5.9 0 .7.3 1.1 1.9-.6 2.5-1.8.5-2.8.4-4 1.3-1.1 1-2.7 3.4-4 3.8-1.4.4-2.6-1.1-2.2-2.9z" fill="#fc6"/>
        <path d="M287.5 389.4c-.4-1.7-3.9-4.4-5-4.7-1.1-.3-5.2-.3-5.9 0-.7.3-1.1 1.9.7 2.5 1.8.5 2.7.4 3.9 1.3 1.2 1 2.7 3.4 4.1 3.8 1.3.4 2.6-1.1 2.2-2.9z" fill="#fc6"/>
        <path d="M264.9 391.2c-.8-1.8 1.3-4.7 2-4.3.8.6-.8 1.7-.8 2.9s1.1 1.3.7 1.8c-.5.4-1.4.4-1.9-.4" fill="#ff9"/>
        <path d="M285.1 391.2s.8-.5.8-1.3c-.1-1.2-1.6-2.8-2.1-3.1-.6-.4-3.3-1.8-3.3-1.8s3.1-.4 5.1 1.5c1.9 1.8 2 2.6 1.9 3.6-.1 1-1 2.6-1.6 2.3-.7-.3-.8-1.2-.8-1.2z" fill="#c93"/>
        <path d="M264.6 389.4c.3-1.7 2.3-3.8 4.9-4.7 1.1-.4 5.3-.3 5.9 0 .7.3 1.1 1.9-.6 2.5-1.8.5-3 .9-4.6 1.8-1.4.7-3 2.3-3.4 3.3-1.4.4-2.6-1.1-2.2-2.9z" fill="none" stroke="#c33" stroke-width="1.018"/>
        <path d="M287.5 389.4c-.4-1.7-2.4-3.8-5-4.7-1.1-.4-5.2-.3-5.9 0-.7.3-1.1 1.9.7 2.5 1.8.5 2.9.9 4.6 1.8 1.3.7 2.9 2.3 3.4 3.3 1.3.4 2.6-1.1 2.2-2.9z" fill="none" stroke="#c33" stroke-width="1.018"/>
        <path d="M285.6 395.2c0-4-4.3-7.3-9.6-7.3s-9.6 3.3-9.6 7.3 4.3 7.3 9.6 7.3 9.6-3.3 9.6-7.3z" fill="#fc6"/>
        <path d="M281.6 400.9s4.1-1.8 3.9-6.2c-.3-4.9-4.3-5.7-4.3-5.7s2.2 2 2.4 5.4c.3 3.3-2 6.5-2 6.5z" fill="#c93"/>
        <path d="M271.6 400.6c-1.1-.1-2.5-.7-3.3-1.8-1.5-1.8-1.2-4.3-.7-4.5.4-.3 1.4 2.2 2.1 3 1.7 2 4.3 2.2 4.4 2.7 0 .6-1.3.8-2.5.6z" fill="#ff9"/>
        <path d="M285.7 395c0-5.1-4.3-7.5-9.7-7.5-5.5 0-9.6 2.6-9.6 7.5s4.1 7.5 9.6 7.5c5.4 0 9.7-2.8 9.7-7.5z" fill="none" stroke="#c33" stroke-width="1.018"/>
        <path d="M268.8 395.3l2 3.1 2.3-2.9M279 395.3l2 3.1 2.3-2.9" fill="#f63" stroke="#c33" stroke-width="1.018" stroke-linejoin="round"/>
        <path d="M273.2 392.2c0-.5-.6-.9-1.3-.9-.7 0-1.3.4-1.3.9s.6.9 1.3.9c.7 0 1.3-.4 1.3-.9zM281.5 392.2c0-.5-.6-.9-1.3-.9-.7 0-1.3.4-1.3.9s.6.9 1.3.9c.7 0 1.3-.4 1.3-.9z"/>
        <path d="M270.9 389.9l-3.6 1.3M270.9 388.4l-2.9-.2M281.2 389.9l3.6 1.3M281.2 388.4l2.9-.2" fill="none" stroke="#333" stroke-width="1.018"/>
        <path d="M274.7 402.2v-2.5M277.4 402.2v-2.5" fill="none" stroke="#c33" stroke-width=".996"/>
        <path d="M275.4 388.4h1.3" fill="none" stroke="#000" stroke-width="1.3" stroke-linecap="round" stroke-linejoin="round"/>
    </g>
</svg>
