<svg xmlns="http://www.w3.org/2000/svg" height="24" width="24">
    <g transform="matrix(1,0,0,-1,-264,408)" id="KDDI_D_">        <path d="M281.7 391.3H276v5.6h5.7z"/>
        <path d="M269.1 406s-1 1.9-2.4 1.9c-1.7 0-2.6-.9-2.6-2.8 0-1.6 1.3-2.9 1.9-3.5l.1-.1c.5-.6 1-1 2.8-2.6l.2-.1.1.1c1.9 1.6 2.3 2 2.8 2.6l.1.1c.6.6 2 1.9 2 3.5 0 1.9-1 2.8-2.6 2.8-1.4 0-2.4-1.9-2.4-1.9z" fill="#f39"/>
        <path d="M268 402c-.8.4-1.5.9-1.8 1.2-.4.3-1.3 1.2-1.3 2.4 0 .7.4 1.4 1.5 1.4.5 0 1-.4 1.2-.7 0 0-.9 0-.9-1.1 0-.7 0-1.4 1.3-3.2z" fill="#f69"/>
        <path d="M265.1 405.6c0-1.1.8-1.9 1.3-2.3.1-.1.5-.5 1-.8-.8 1.4-.9 2-.9 2.6v.1c0 .7.4 1.1.8 1.2-.3.2-.6.4-.9.4-1.2 0-1.3-.8-1.3-1.2z" fill="#f9c"/>
        <path d="M265.5 405.6c0-.7.4-1.3.8-1.7-.1.5-.2.8-.2 1.2v.1c0 .5.2.9.5 1.2h-.2c-.3 0-.9 0-.9-.8z" fill="#fff"/>
        <path d="M266.1 401.5c.5-.6 1-1 2.8-2.6l.2-.1.1.1c1.9 1.6 2.3 2 2.8 2.6l.1.1c.6.6 2 1.9 2 3.5 0 1.9-1 2.8-2.6 2.8-1.4 0-2.4-1.9-2.4-1.9s-.6 1.2-1.5 1.7c.6-.6 1.3-1.7 1.5-2.5.1.5.6 1.3.9 1.7.3.3.7.6 1.2.6 1.4 0 1.7-1.1 1.5-2.4-.2-1.2-.7-2-1.2-2.5 0 0-.3-.4-.4-.4-.4-.4-.7-.7-2-1.9-.9.3-2.2 1.1-3.2 1.9-.6.6-1.8 1.8-1.8 2.9 0-1.6 1.3-2.9 1.9-3.5z" fill="#c36"/>
        <path d="M272 401.5l.1.1c.6.6 2 1.9 2 3.5 0 1.8-.9 2.7-2.4 2.8 1.3-.1 2.1-1 2-2.8-.1-1.1-1.2-2.4-1.8-3l-.2-.1c-.4-.5-.9-.9-2.6-2.5v-.7l.1.1c1.9 1.6 2.3 2 2.8 2.6z" fill="#906"/>
        <path d="M272 401.5l.1.1c.6.6 2 1.9 2 3.5 0 .1-.1.2-.1.3-.1-1.8-1.7-3.3-2.2-3.9l-.2-.1c-.5-.5-.8-.8-2.5-2.3v-.3l.1.1c1.9 1.6 2.3 2 2.8 2.6z" fill="#603"/>
        <path d="M278.7 400.7c-.6 1.8-3.1 1.9-4.5 1.8-1.5-.1-2.9-1-3.8-2.2-.8-1.3-1.6-2.6-3.9-4.9-2.3-2.2-2.1-4.1-2-4.7.1-.7.9-.9 1.3-.8 1 .4 2.3 2.3 4.3 2.1 1.3-.1 2.1-.5 3-1 .9-.5 1.2-1.2 2.2-1.2.9 0 1 2.5 1.5 3.4.5.8 1.5 1.3 2.5 3 .9 1.6-.6 4.5-.6 4.5m-2.8-7c-.9-1.1-2-2.3-3.7-1.4-1.2.7-2.2 2.7-.2 5.3.6.7 1.4.5 2 .7 1 .4 1.6.2 2.3-.5 1.1-1.1.5-2.8-.4-4.1z" fill="#c60"/>
        <path d="M272 397.6c.6.7 1.4.5 2 .7.3.1 1.9-.3 2.2-.3 0 0 .2.6-.7 1-.9.3-1.5.4-2.3.1-1-.4-1.8-.8-2.5-2.1-.9-1.5-.5-2.7-.7-3.5-.3-.8-.8-1.5-.8-1.5v-.1c.3.1.6.1.9.1.3 0 .5-.1.7-.1l.9.8c-.9.8-1.4 2.6.3 4.9z" fill="#930"/>
        <path d="M267.5 394.7c2.7 1.8 3.2 4.1 4 5.3.8 1.3 2 1.8 3.5 1.9.9 0 2.2 0 3.3-.5-1 1.1-2.9 1.2-4.1 1.1-1.5-.1-2.9-1-3.8-2.2-.8-1.3-1.6-2.6-3.9-4.9-2.3-2.2-2.1-4.1-2-4.7.1-.5.5-.8.8-.8l.4.8c-.1.7-.9 2.1 1.8 4z" fill="#f96"/>
        <path d="M276.7 393.1c.9 1.3 1.5 3.5.3 4.6-.2.2-.9.4-1.1.5 1-1.1.9-3.3 0-4.5-.8-1.1-2-2.2-3.6-1.4.2-.3.4-.5.7-.6 1.7-.9 2.8.2 3.7 1.4z" fill="#930"/>
        <path d="M265.8 389.9c-.4-.1-1.2.1-1.3.8-.1.6-.2 3.1 2 4.7 2.6 1.9 3.1 3.4 3.6 4.8.7 1.7 2.6 2.2 4.1 2.3 1.4.1 3.1-.7 4.1-2 0 0 1.9-2.7 1-4.3-1-1.7-1.8-2.9-2.5-3.4-.8-.6-1.5-3-1.5-3-1 0-1.3.7-2.2 1.2" fill="none" stroke="#000"/>
        <path d="M264.5 384v3.6c0 .8.8 3.7 4.4 4.3 2.9.5 4.6-.6 5.3-1.5.6-.8 1.3-2.3 1.3-3.5V384" fill="#f99"/>
        <path d="M274.2 390.4c-.6.8-2.1 1.8-4.5 1.6 1.6-.2 2.7-1 3.2-1.6.6-.8 1.3-2.3 1.3-3.5V384h1.3v2.9c0 1.2-.7 2.7-1.3 3.5z" fill="#f36"/>
        <path d="M270.3 391.1c1.4.3 2.6.1 3.4-.2-.8.7-2.4 1.4-4.8 1-3.6-.6-4.4-3.5-4.4-4.3V384h1.4v2.8c0 .8.8 3.7 4.4 4.3z" fill="#fcc"/>
        <path d="M264.5 384v3.6c0 .8.8 3.7 4.4 4.3 2.9.5 4.6-.6 5.3-1.5.6-.8 1.3-2.3 1.3-3.5V384" fill="none" stroke="#000"/>
        <path d="M273.1 392.2l-2 1.3-1.3-2h.1c-.1 0-.1 0-.1-.1 0-.3.5-.6 1.2-.8.7-.1 1.3 0 1.4.3z" fill="#fc9"/>
        <path d="M270.8 393c.2-.5.6-1 1-1.2.3-.2.6-.3.9-.3l.4.7-2 1.3z" fill="#f96"/>
        <path d="M271.4 390.6c.5 0 .9.1 1 .3l.7 1.3-.4.2h-.2z" fill="#c63"/>
        <path d="M271.9 397.6c.5.8 1.5.7 2.2.9.9.3 1.1.2 1.9-.3 1.7-.9.9-3.4 0-4.6-.8-1.2-2.6-2.3-3.9-1.5-1.2.7-2.3 2.9-.2 5.5z" fill="#fc9"/>
        <path d="M269.5 392c0-.3.4-1 1.5-1.4 1.2-.3 2.3.6 2.3.6" fill="none" stroke="#000"/>
        <path d="M272.6 394.2l1.8-.9s-.5-.7-1.2-.3c-.8.4-.6 1.2-.6 1.2z" fill="red"/>
        <path d="M273.4 396.9s1.2-.5 1.2-.6c0-.2-.2-1.1-.3-1.5" fill="none" stroke="#f63" stroke-linecap="round"/>
        <path d="M271.4 388.4c0-.3-.3-.6-.7-.6-.3 0-.6.3-.6.6 0 .4.3.7.6.7.4 0 .7-.3.7-.7zM271.4 385.7c0-.4-.3-.7-.7-.7-.3 0-.6.3-.6.7 0 .4.3.7.6.7.4 0 .7-.3.7-.7z" fill="#600"/>
        <path d="M277.1 404.4c0 1.3 1.1 2 3.1 2.4 1.6.4 4.7.5 6.1-1.6.9-1.3 1.1-4.3.6-6.1-.3-.9-1.4-2.7-1.4-2.7l-1.3-.4s-.2 2.4-.2 3.7c0 1.2-.5.8-1 1.4-.5.6-.6 2-1.2 2.3-.7.4-2-.1-3.1-.2-1.1-.2-1.6.1-1.6 1.2z"/>
        <path d="M277.8 402.1v-3.7c0-.9.7-.6.8-1.4.1-.7 0-2.1 0-2.1l1.2-.1v-2.7h4.5v5.3s.7.7.7 1.1c0 .4 0 2.8-.5 3-.5.2-1.4-.6-1.5-.1-.1.6-1.5 2.6-2.5 2.6s-2.5-.5-2.7-1.9z" fill="#fc9"/>
        <path d="M284 395.7l-1.1-.5v-2.9l1.1-.1z" fill="#f90"/>
        <path d="M278.6 397.3h.6" fill="none" stroke="#c30" stroke-linecap="round"/>
        <path d="M278.3 401.1h1" fill="none" stroke="#000" stroke-linecap="round"/>
        <path d="M284.4 393.4v4s.5.7.6 1.1c.1.4.4 1.8-.1 2.7-.3.4-1.3.5-1.7-.1 0 .6-1.1 2.6-2.1 2.6s-3.1.4-3.3-1c0 0-.2-3-.2-3.9 0-.9.6-.7.7-1.4.1-.8 0-1.6.3-2 .3-.4 1.2-.5 1.2-.5v-1.5" fill="none" stroke="#000" stroke-linejoin="round"/>
        <path d="M280.7 406.2c1.4.4 4.1.4 5.7-1.1l-.1.1c-1.4 2.1-4.5 2-6.1 1.6-2-.4-3.1-1.1-3.1-2.4 0-.7.1-1 .5-1.2v.6c0 1.3 1.1 2 3.1 2.4z" fill="#333"/>
        <path d="M287.6 384v5.9c0 1.7-1.3 3.4-3 3.4h-.8c-.5 0-1.1-1-1.8-1-.6 0-1.3 1-1.9 1h-1.5c-.9 0-2.8-.7-2.8-2.8V384" fill="#69f"/>
        <path d="M284.6 393.3h-1.7c1.8 0 3.1-1.7 3.1-3.4V384h1.6v5.9c0 1.7-1.3 3.4-3 3.4z" fill="#36f"/>
        <path d="M280.1 393c.9 0-.6.3-1.5.3s-2.8-.7-2.8-2.8V384h1.5v6.2c0 2.1 1.9 2.8 2.8 2.8z" fill="#9cf"/>
        <path d="M284.2 393.2s-1.1-3.4-1.1-4.5V384M279.1 393.2s1.1-3.4 1.1-4.5V384" fill="none" stroke="#039"/>
        <path d="M287.6 384v5.9c0 1.7-1.3 3.4-3 3.4h-.9c-.4-.2-1.1-.7-1.7-.7-.7 0-1.2.5-1.8.7h-1.6c-.9 0-2.8-.7-2.8-2.8V384" fill="none" stroke="#000"/>
        <path d="M282.3 390.1c0-.4-.3-.7-.7-.7-.3 0-.6.3-.6.7 0 .4.3.7.6.7.4 0 .7-.3.7-.7zM282.3 386.8c0-.4-.3-.7-.7-.7-.3 0-.6.3-.6.7 0 .3.3.6.6.6.4 0 .7-.3.7-.6z"/>
    </g>
</svg>
