<svg xmlns="http://www.w3.org/2000/svg" height="24" width="24">
    <g transform="matrix(1,0,0,-1,-264,408)" id="KDDI_D_">        <path d="M275.9 401.8c-2.8 0-6.2-.7-8.1-3.8-2-3-1.4-3.7-1.4-3.7s-.8 0-1.2-1.9c-.3-1.3.1-2.5.1-2.5s-1-.7-1-2.5 1-3.1 2.4-3.1H284c1.6 0 3.6 1 3.6 3.5 0 3.1-.9 4.2-.9 4.2s-.5 2.1-1 3.3c-.4 1.1-2.3 2.2-2.3 2.2s.1 1.1-1.1 2.2c-1.1 1-2.6 1-2.6 1s-1.1 1.1-3.8 1.1z" fill="#c60"/>
        <path d="M286.4 392s-.5 2.1-1 3.3c-.4 1.1-2.3 2.2-2.3 2.2s.1 1.1-1.1 2.2c-1.1 1-2 1-.9 0 1.2-1.1 1.1-2.2 1.1-2.2s1.8-1.1 2.3-2.2c.5-1.2.9-3.3.9-3.3s.9-1.1.9-4.2c0-2.5-1.9-3.5-3.5-3.5h.9c1.6 0 3.6 1 3.6 3.5 0 3.1-.9 4.2-.9 4.2z" fill="#f93"/>
        <path d="M267.8 388.5s-.4 1.3-.1 2.5c.4 1.9 1.2 1.9 1.2 1.9s-.6.7 1.4 3.8c1.9 3 5.3 3.7 8.1 3.7 2.7 0 3.8-1 3.8-1s.2 0 .5-.1c-.1.1-.2.3-.4.4-1.1 1-2.6 1-2.6 1s-1.1 1.1-3.8 1.1c-2.8 0-6.2-.7-8.1-3.8-2-3-1.4-3.7-1.4-3.7s-.8 0-1.2-1.9c-.3-1.3.1-2.5.1-2.5s-1-.7-1-2.5 1-3.1 2.4-3.1h.4c-.2.5-.3 1.1-.3 1.7 0 1.8 1 2.5 1 2.5z" fill="#f90"/>
        <path d="M275.9 401.8c-2.8 0-6.2-.7-8.1-3.8-2-3-1.4-3.7-1.4-3.7s-.8 0-1.2-1.9c-.3-1.3.1-2.5.1-2.5s-1-.7-1-2.5 1-3.1 2.4-3.1H284c1.6 0 3.6 1 3.6 3.5 0 3.1-.9 4.2-.9 4.2s-.5 2.1-1 3.3c-.4 1.1-2.3 2.2-2.3 2.2s.1 1.1-1.1 2.2c-1.1 1-2.6 1-2.6 1s-1.1 1.1-3.8 1.1z" fill="none" stroke="#c60" stroke-linejoin="round"/>
        <path d="M279.6 398.3s-3-2.5-4.6-2.9c-1.6-.5-6.1-1.1-6.1-1.1s-.5-5.1.6-6.5c1.1-1.5 3.4-3.4 6.5-3.4s6.3 2.4 6.6 3.8c.3 1.4.2 6.2.2 6.2s-1.3.9-1.9 1.5c-.5.7-1.3 2.4-1.3 2.4z" fill="#fc9"/>
        <path d="M276.1 389.6l-.4-.4" fill="none" stroke="#c96" stroke-width=".922" stroke-linecap="round"/>
        <path d="M279.9 394.7l-1.2-.1M271.7 394.7l1.3-.1" fill="none" stroke="#666" stroke-width=".798" stroke-linecap="round"/>
        <path d="M274.3 392s-.9-.2-1.7-.2c-.8 0-1.7.2-1.7.2s-.2-.2-.2-.3c0-.4.8-.8 1.9-.8 1.1 0 1.9.4 1.9.8 0 .1-.2.3-.2.3z" fill="#666"/>
        <path d="M274.5 391.7s-1.1-.3-1.9-.3c-.8 0-1.9.3-1.9.3v-.4c0-.4.8-.9 1.9-.9 1.1 0 1.9.5 1.9.9v.4z"/>
        <path d="M281.3 392.1c0-1-.8-1.8-1.9-1.8-1.1 0-1.9.8-1.9 1.8s.8 1.8 1.9 1.8c1.1 0 1.9-.8 1.9-1.8z" fill="#666"/>
        <path d="M280.6 392.6s-.1-.2-1.3-.2c-1.1 0-2.2 1.2-2.2 1.2s1.4-.3 2.4-.1c1 .3 1.1-.9 1.1-.9z"/>
        <path d="M281 391.4c0-.8-.7-1.4-1.6-1.4-.9 0-1.6.6-1.6 1.4v.9c0 .7.7 1.4 1.6 1.4.9 0 1.6-.7 1.6-1.4z"/>
        <path d="M279.7 392.4c0-.3-.4-.6-.8-.6s-.8.3-.8.6.4.6.8.6.8-.3.8-.6z" fill="#fff"/>
        <path d="M277.5 387.3s-.8-.2-1.4-.2c-.8 0-1.3.6-1.3.6" fill="none" stroke="#c00" stroke-linecap="round"/>
        <path d="M279.6 398.3s-3-2.5-4.6-2.9c-1.6-.5-6.1-1.1-6.1-1.1s-.1-5.1.6-6.5c.8-1.6 3.4-3.4 6.5-3.4s5.9 2 6.5 3.8c.6 1.7.3 6.2.3 6.2s-1.3.9-1.9 1.5c-.5.7-1.3 2.4-1.3 2.4z" fill="none" stroke="#930"/>
        <path d="M272.4 399c0-1-.8-1.8-1.7-1.8-1 0-1.8.8-1.8 1.8l-.4 6.8c0 1.2 1 2.2 2.1 2.2 1.2 0 2.1-1 2.1-2.2z" fill="#006"/>
        <path d="M271.8 398.9c0-.9-.5-1.6-1.1-1.6-.7 0-1.1.7-1.1 1.6l-.3 5.7c0 1 .6 1.9 1.3 1.9.8 0 1.4-.9 1.4-1.9z"/>
        <path d="M279.6 399c0-1 .8-1.8 1.7-1.8 1 0 1.8.8 1.8 1.8l.4 6.8c0 1.2-1 2.2-2.1 2.2-1.2 0-2.1-1-2.1-2.2z" fill="#006"/>
        <path d="M280.2 398.9c0-.9.5-1.6 1.1-1.6.7 0 1.1.7 1.1 1.6l.3 5.7c0 1-.6 1.9-1.3 1.9-.8 0-1.4-.9-1.4-1.9z"/>
    </g>
</svg>
