<svg xmlns="http://www.w3.org/2000/svg" width="24" height="24">
	<g transform="translate(-264,-386)" id="KDDI_D_469">
		<g>
			<path style="stroke:none; fill:none" d="M 288 409.89L 264 409.89L 264 385.89L 288 385.89L 288 409.89z"/>
		</g>
		<g>
			<path style="stroke:#c90; stroke-width:1; fill:none" d="M 273.5 400.89C 272.75 401.64 270.75 405.64 272.5 407.39C 274 408.89 275.5 407.89 276.5 406.89C 277.5 405.89 279.75 403.64 281.5 401.89C 283.5 399.89 283.5 397.89 282.5 396.89C 280.5 394.89 277.75 396.64 275.5 398.89"/>
			<path style="stroke:none; fill:#c90" d="M 275.5 396.39C 278.5 393.39 279 392.89 279 391.39C 279 390.39 279 385.89 279 385.89L 288 394.89C 288 394.89 284 394.89 283.5 394.89C 281 394.89 280.5 395.39 277.5 398.39"/>
			<path style="stroke:none; fill:#960" d="M 280 391.39C 280 392.89 279.5 393.39 276.5 396.39L 278 397.89C 280.564 395.335 281.147 394.89 283.5 394.89C 283.633 394.89 284.015 394.89 284.5 394.89C 285.844 394.89 288 394.89 288 394.89L 280 386.89C 280 388.275 280 390.689 280 391.39z"/>
			<path style="stroke:none; fill:#fc6" d="M 277 395.89L 276 396.89L 277 397.89L 278 396.89C 280.564 394.335 281.147 393.89 283.5 393.89C 283.633 393.89 284.015 393.89 284.5 393.89C 285.256 393.89 286.258 393.89 287 393.89L 280 386.89C 280 387.869 280 389.351 280 390.39C 280 390.821 280 391.184 280 391.39C 280 392.802 279.555 393.329 277 395.89z"/>
			<path style="stroke:none; fill:#c90" d="M 283.774 390.664L 276.774 397.664L 277 397.89L 278 396.89C 280.564 394.335 281.147 393.89 283.5 393.89C 283.633 393.89 284.015 393.89 284.5 393.89C 285.256 393.89 286.258 393.89 287 393.89L 283.774 390.664z"/>
			<path style="stroke:none; fill:#fff" d="M 281 387.89L 281 390.39C 281 391.602 280.445 392.445 279.5 393.39L 276.5 396.39L 276.765 396.655L 279.765 393.655C 280.738 392.683 281.5 391.93 281.5 390.39L 281.5 388.39L 281 387.89z"/>
			<path style="stroke:none; fill:#960" d="M 277 397.89C 276 398.89 272 402.89 270.5 404.39C 269 405.89 268.5 407.39 268.5 408.39C 268.5 409.39 268.5 409.39 268.5 409.39C 268.5 409.665 268.163 409.89 267.75 409.89C 267.337 409.89 266.682 409.571 266.293 409.183L 264.707 407.597C 264.318 407.208 264 406.552 264 406.14C 264 405.727 264.45 405.39 265 405.39C 265 405.39 265 405.39 265.5 405.39C 266 405.39 267.25 405.64 269.5 403.39C 270.75 402.14 276 396.89 276 396.89L 277 397.89z"/>
			<path style="stroke:none; fill:#c90" d="M 271 401.39C 270.352 402.038 269.806 402.584 269.5 402.89C 267.526 404.864 266.322 405.413 265.719 405.396C 265.846 405.653 266.018 405.907 266.207 406.097L 267.793 407.683C 267.987 407.877 268.249 408.054 268.513 408.182C 268.576 407.189 269.598 405.792 271 404.39C 271.374 404.016 271.902 403.488 272.5 402.89C 274.306 401.084 276.749 398.641 277.5 397.89L 276 396.39C 276 396.39 273.004 399.385 271 401.39z"/>
			<path style="stroke:none; fill:#fc6" d="M 270.999 402.598L 269.499 404.098C 268.124 405.473 267.083 405.984 266.27 406.162C 266.388 406.279 267.797 407.688 267.797 407.688C 268.01 406.832 268.526 405.656 269.792 404.391C 269.792 404.391 275.328 398.855 275.939 398.244C 275.805 398.11 275.779 398.085 275.646 397.951C 275.035 398.562 270.999 402.598 270.999 402.598z"/>
			<path style="stroke:none; fill:#fc6" d="M 275.293 395.097L 281.293 401.097L 282 400.39L 276 394.39L 275.293 395.097z"/>
			<path style="stroke:none; fill:#960" d="M 274 396.39L 280 402.39L 280.707 401.683L 274.707 395.683L 274 396.39z"/>
			<path style="stroke:#c90; stroke-width:1; fill:none" d="M 274 394.39L 281 401.39"/>
			<path style="stroke:#960; stroke-width:1; stroke-linecap:round; fill:none" d="M 273.5 394.89L 274.5 393.89"/>
			<path style="stroke:none; fill:#fc6" d="M 273.293 397.097L 279.293 403.097L 280 402.39L 274 396.39L 273.293 397.097z"/>
			<path style="stroke:none; fill:#960" d="M 272 398.39L 278 404.39L 278.707 403.683L 272.707 397.683L 272 398.39z"/>
			<path style="stroke:#c90; stroke-width:1; fill:none" d="M 272 396.39L 279 403.39"/>
			<path style="stroke:#960; stroke-width:1; stroke-linecap:round; fill:none" d="M 271.5 396.89L 272.5 395.89"/>
			<path style="stroke:none; fill:#fc6" d="M 271.293 399.097L 277.293 405.097L 278 404.39L 272 398.39L 271.293 399.097z"/>
			<path style="stroke:none; fill:#960" d="M 270 400.39L 276 406.39L 276.707 405.683L 270.707 399.683L 270 400.39z"/>
			<path style="stroke:#c90; stroke-width:1; fill:none" d="M 270 398.39L 277 405.39"/>
			<path style="stroke:#960; stroke-width:1; stroke-linecap:round; fill:none" d="M 269.5 398.89L 270.5 397.89"/>
			<path style="stroke:#960; stroke-width:1; fill:none" d="M 276 406.39L 282 400.39"/>
		</g>
	</g>
</svg>
