<svg xmlns="http://www.w3.org/2000/svg" height="24" width="24">
    <g transform="matrix(1,0,0,-1,-264,408)" id="KDDI_D_">        <path d="M288 384h-24v24h24z" fill="#390"/>
        <path d="M270 390.7c0-1.2-1-2.2-2.2-2.2-1.3 0-2.3 1-2.3 2.2 0 1.3 1 2.3 2.3 2.3 1.2 0 2.2-1 2.2-2.3z" fill="#09f"/>
        <path d="M268.7 392.8c.2-.3.3-.7.3-1 0-1.3-1-2.3-2.3-2.3-.3 0-.7.1-1 .3.4-.8 1.2-1.3 2.1-1.3 1.2 0 2.2 1 2.2 2.2 0 .9-.5 1.7-1.3 2.1z" fill="#06f"/>
        <path d="M283.5 401.3c0-1.3-1-2.3-2.2-2.3-1.3 0-2.3 1-2.3 2.3 0 1.2 1 2.2 2.3 2.2 1.2 0 2.2-1 2.2-2.2z" fill="#fff"/>
        <path d="M282.2 403.3c.2-.3.3-.7.3-1 0-1.3-1-2.3-2.3-2.3-.3 0-.7.1-1 .3.4-.8 1.2-1.3 2.1-1.3 1.2 0 2.2 1 2.2 2.3 0 .8-.5 1.6-1.3 2z" fill="#cc9"/>
        <path d="M268.7 386.7c0-1.3-1-2.3-2.2-2.3-1.3 0-2.3 1-2.3 2.3 0 1.2 1 2.2 2.3 2.2 1.2 0 2.2-1 2.2-2.2z" fill="#f33"/>
        <path d="M267.4 388.7c.2-.3.3-.6.3-1 0-1.2-1-2.3-2.3-2.3-.3 0-.7.1-1 .3.4-.8 1.2-1.3 2.1-1.3 1.2 0 2.2 1 2.2 2.3 0 .9-.5 1.6-1.3 2z" fill="red"/>
        <path d="M273 388.3c0-1.3-1-2.3-2.3-2.3-1.2 0-2.2 1-2.2 2.3 0 1.2 1 2.2 2.2 2.2 1.3 0 2.3-1 2.3-2.2z" fill="#93c"/>
        <path d="M271.7 390.3c.2-.3.3-.7.3-1 0-1.3-1-2.3-2.3-2.3-.3 0-.7.1-1 .3.4-.8 1.2-1.3 2-1.3 1.3 0 2.3 1 2.3 2.3 0 .8-.5 1.6-1.3 2z" fill="#639"/>
        <path d="M270.5 395.3c0-1.3-1-2.3-2.2-2.3-1.3 0-2.3 1-2.3 2.3 0 1.2 1 2.2 2.3 2.2 1.2 0 2.2-1 2.2-2.2z" fill="#c6f"/>
        <path d="M269.2 397.3c.2-.3.3-.7.3-1 0-1.3-1-2.3-2.3-2.3-.3 0-.7.1-1 .3.4-.8 1.2-1.3 2.1-1.3 1.2 0 2.2 1 2.2 2.3 0 .8-.5 1.6-1.3 2z" fill="#93c"/>
        <path d="M274.5 395.7c0-1.2-1-2.2-2.2-2.2-1.3 0-2.3 1-2.3 2.2 0 1.3 1 2.3 2.3 2.3 1.2 0 2.2-1 2.2-2.3z" fill="#f90"/>
        <path d="M273.2 397.8c.2-.3.3-.7.3-1 0-1.3-1-2.3-2.3-2.3-.3 0-.7.1-1 .3.4-.8 1.2-1.3 2.1-1.3 1.2 0 2.2 1 2.2 2.2 0 .9-.5 1.7-1.3 2.1z" fill="#f60"/>
        <path d="M273.7 392.4c0-1.2-1.1-2.2-2.3-2.2-1.2 0-2.3 1-2.3 2.2 0 1.3 1.1 2.3 2.3 2.3 1.2 0 2.3-1 2.3-2.3z" fill="#fff"/>
        <path d="M272.4 394.4c.1-.3.2-.6.2-1 0-1.2-1-2.2-2.2-2.2-.4 0-.7.1-1 .2.3-.7 1.1-1.2 2-1.2 1.2 0 2.3 1 2.3 2.2 0 .9-.6 1.7-1.3 2z" fill="#f90"/>
        <path d="M277.2 389.2c0-1.3-1-2.3-2.3-2.3-1.2 0-2.2 1-2.2 2.3 0 1.2 1 2.2 2.2 2.2 1.3 0 2.3-1 2.3-2.2z" fill="#3f0"/>
        <path d="M275.9 391.2c.2-.3.2-.7.2-1 0-1.3-1-2.3-2.2-2.3-.4 0-.7.1-1 .3.4-.8 1.1-1.3 2-1.3 1.3 0 2.3 1 2.3 2.3 0 .8-.5 1.6-1.3 2z" fill="#0c0"/>
        <path d="M278 392.7c0-1.2-1-2.2-2.3-2.2-1.2 0-2.2 1-2.2 2.2 0 1.3 1 2.3 2.2 2.3 1.3 0 2.3-1 2.3-2.3z" fill="#666"/>
        <path d="M276.7 394.8c.2-.3.3-.7.3-1 0-1.3-1-2.3-2.3-2.3-.3 0-.7.1-1 .3.4-.8 1.2-1.3 2-1.3 1.3 0 2.3 1 2.3 2.2 0 .9-.5 1.7-1.3 2.1z"/>
        <path d="M278.7 396.4c0-1.2-1-2.2-2.3-2.2-1.2 0-2.2 1-2.2 2.2 0 1.3 1 2.3 2.2 2.3 1.3 0 2.3-1 2.3-2.3z" fill="#ff0"/>
        <path d="M277.4 398.4c.2-.3.2-.6.2-.9 0-1.3-1-2.3-2.2-2.3-.4 0-.7.1-1 .2.4-.7 1.1-1.2 2-1.2 1.3 0 2.3 1 2.3 2.2 0 .9-.5 1.7-1.3 2z" fill="#fc0"/>
        <path d="M288 407.9h-1.1l-3.8-3.8c-.3-.3-.3-.8 0-1 .2-.3.7-.3 1 0l3.9 3.8z" fill="#300"/>
        <path d="M288 407.8v.1h-1.1l-3.8-3.8c-.3-.3-.3-.8 0-1 .2-.3.6-.3.9-.2-.2.3-.2.7.1 1z" fill="#930"/>
    </g>
</svg>
