<svg xmlns="http://www.w3.org/2000/svg" height="24" width="24">
    <g transform="matrix(1,0,0,-1,-264,408)" id="KDDI_D_">        <path d="M288 396.4c-.9 0-2.1.2-2.8.8-.8.6-3.9 5.8-4.8 6.6-.9.7-3.1 3.7-5.6 3.7h-4.5c-.9 0-3.6-.8-4.5-1.7-1-.9-1.4-2-1.4-3s.5-1.6 1.1-1.7c.6-.2 2.6 1.8 2.6 1.8s-.2-1.9.3-2c.5-.1 1.9 1.2 2.4 1.9.4.6 2.4.4 3.2.3.8-.1 3.2-1.8 3.4-3.1.3-1.3.4-3.7.4-4.6v-3.7l.2.1v-5.9h10v8.1z" fill="#fc9"/>
        <path d="M288 392.5h-6.4c-.7 0-1.5.3-1.8.9-.4.7-.8 2-1 3.2-.1 1.1-.2 3.1-.4 3.9-.2.8-1.4 2.3-2.4 3.1-1 .7-3 .7-4.7.4-1.1-.2-1.8-1.7-2.2-2.8.6.4 1.4 1.1 1.7 1.6.4.6 2.4.4 3.2.3.8-.1 3.2-1.8 3.4-3.1.3-1.3.4-3.7.4-4.6v-2.9-.8l.2.1v-4.6c1.3.5 1.7 2.1 1.9 3.4h8.1z" fill="#f90"/>
        <path d="M264.8 401.8l2.1 1.8" fill="none" stroke="#f90" stroke-width=".75" stroke-linecap="round"/>
        <path d="M285.2 395.3c-.8.6-4 5.5-4.8 6.7-.6.9-3.1 4.5-5.6 4.5h-4.5c-.9 0-3.6-.8-4.5-1.7-1-.9-1.4-2-1.4-3 0-.3.8 1.5 1.4 2.1 1 .9 3.6 1.6 4.5 1.6h4.5c2.5 0 4.9-4.3 5.6-5.2.8-1.1 4-6.1 4.8-6.7.7-.6 1.9-.6 2.8-.6v1.5c-.9 0-2.1.2-2.8.8z" fill="#ff9"/>
        <path d="M264.6 403.1l2 1.7" fill="none" stroke="#f90" stroke-width=".75" stroke-linecap="round"/>
        <path d="M288 396.4c-.9 0-2.1.2-2.8.8-.8.6-4 5.7-4.8 6.6-1.1 1.3-3.3 3.7-5.8 3.7h-4.3c-.9 0-3.6-.8-4.5-1.7-1-.9-1.4-2-1.4-3s.5-1.6 1.1-1.7c.6-.2 2.6 1.8 2.6 1.8s-.2-1.9.3-2c.5-.1 1.9 1.2 2.4 1.9.4.6 2.4.4 3.2.3.8-.1 3.2-1.8 3.4-3.1.3-1.3.4-3.7.4-4.6v-3.7" fill="none" stroke="#930" stroke-linejoin="round"/>
        <path d="M270.5 387.4h2.5c2.8 0 5 2.3 5 5v.4c0 2.7-2.2 5-5 5h-2.5" fill="#fc9"/>
        <path d="M278 392.8c0 2.7-2.2 5-5 5h-2.5v-1.6h2.5c2.6 0 4.6-1.9 4.9-4.4.1.2.1.4.1.6z" fill="#ff9"/>
        <path d="M270.5 387.4h2.5c2.8 0 5 2.3 5 5v.4c0 2.7-2.2 5-5 5h-2.5" fill="none" stroke="#930"/>
        <path d="M270.5 398.3h-.3c-2.9 0-5.3-2.4-5.3-5.4v-.3c0-3 2.4-5.3 5.3-5.3h.3z" fill="#6cf"/>
        <path d="M265.3 395c-.2-.6-.4-1.3-.4-2.1v-.3c0-3 2.4-5.3 5.3-5.3h.3v7.7z" fill="#39c"/>
        <path d="M265 393.8c0-.3-.1-.6-.1-.9v-.3c0-3 2.4-5.3 5.3-5.3h.3v6.5z" fill="#069"/>
        <path d="M269.8 390h-1v6.3h1z" fill="#fff"/>
        <path d="M271.8 394.8v-2h2.4M275.8 393.4v-2.6" fill="none" stroke="#c63" stroke-linecap="round" stroke-linejoin="round"/>
        <path d="M288 391.7h-24V384h24z" fill="#06f"/>
        <path d="M264 389.6c.1.1.3.1.4.1.4 0 .6-.2.9-.4.3-.3.7-.7 1.5-.7s1.2.4 1.6.7c.2.2.4.4.8.4s.6-.2.9-.4c.3-.3.7-.7 1.5-.7s1.2.4 1.6.7c.3.2.4.4.8.4.5 0 .6-.2.9-.4.3-.3.8-.7 1.5-.7.8 0 1.3.4 1.6.7.3.2.4.4.8.4.5 0 .6-.2.9-.4.3-.3.8-.7 1.6-.7.7 0 1.2.4 1.5.7.3.2.4.4.9.4.4 0 .5-.2.8-.4.4-.3.8-.7 1.6-.7s1.2.4 1.5.7c.1.1.3.2.4.3v1.1c-.5-.1-.8-.3-1.1-.6-.2-.2-.4-.4-.8-.4-.5 0-.6.2-.9.4-.3.3-.8.7-1.5.7-.8 0-1.2-.4-1.6-.7-.3-.2-.4-.4-.8-.4-.5 0-.6.2-.9.4-.3.3-.8.7-1.6.7-.7 0-1.2-.4-1.5-.7-.3-.2-.4-.4-.9-.4-.4 0-.5.2-.8.4-.4.3-.8.7-1.6.7-.7 0-1.2-.4-1.5-.7-.3-.2-.5-.4-.9-.4s-.6.2-.8.4c-.4.3-.8.7-1.6.7s-1.2-.4-1.5-.7c-.3-.3-.5-.4-.9-.4s-.6.1-.8.4c-.4.3-.8.7-1.6.7-.1 0-.3 0-.4-.1zM264 387.3l.4.1c.4 0 .6-.1.9-.4.3-.3.7-.7 1.5-.7s1.2.4 1.6.7c.2.3.4.4.8.4s.6-.1.9-.4c.3-.3.7-.6 1.5-.6s1.2.3 1.6.6c.3.3.4.4.8.4.5 0 .6-.1.9-.4.3-.3.8-.6 1.5-.6.8 0 1.3.3 1.6.6.3.3.4.4.8.4.5 0 .6-.1.9-.4.3-.3.8-.6 1.6-.6.7 0 1.2.3 1.5.6.3.3.4.4.9.4.4 0 .5-.1.8-.4.4-.3.8-.6 1.6-.6s1.2.3 1.5.6c.1.2.3.3.4.3v1.2c-.5-.1-.8-.4-1.1-.6-.2-.3-.4-.5-.8-.5-.5 0-.6.2-.9.5-.3.2-.8.6-1.5.6-.8 0-1.2-.4-1.6-.6-.3-.3-.4-.5-.8-.5-.5 0-.6.2-.9.5-.3.2-.8.6-1.6.6-.7 0-1.2-.4-1.5-.6-.3-.3-.4-.5-.9-.5-.4 0-.5.2-.8.5-.4.2-.8.6-1.6.6-.7 0-1.2-.4-1.5-.6-.3-.3-.5-.5-.9-.5s-.6.2-.8.5c-.4.2-.8.6-1.6.6s-1.2-.4-1.5-.7c-.3-.2-.5-.4-.9-.4s-.6.2-.8.4c-.4.3-.8.7-1.6.7l-.4-.1zM264 385.1l.4.1c.4 0 .6-.2.9-.5.3-.3.7-.6 1.5-.6s1.2.3 1.6.6c.2.3.4.5.8.5s.6-.2.9-.4c.3-.3.7-.7 1.5-.7s1.2.4 1.6.7c.3.2.4.4.8.4.5 0 .6-.2.9-.4.3-.3.8-.7 1.5-.7.8 0 1.3.4 1.6.7.3.2.4.4.8.4.5 0 .6-.2.9-.4.3-.3.8-.7 1.6-.7.7 0 1.2.4 1.5.7.3.2.4.4.9.4.4 0 .5-.2.8-.4.4-.3.8-.7 1.6-.7s1.2.4 1.5.7c.1.1.3.2.4.3v1.1c-.5-.1-.8-.4-1.1-.6-.2-.3-.4-.4-.8-.4-.5 0-.6.1-.9.4-.3.3-.8.7-1.5.7-.8 0-1.2-.4-1.6-.7-.3-.3-.4-.4-.8-.4-.5 0-.6.1-.9.4-.3.3-.8.7-1.6.7-.7 0-1.2-.4-1.5-.7-.3-.3-.4-.4-.9-.4-.4 0-.5.1-.8.4-.4.3-.8.7-1.6.7-.7 0-1.2-.4-1.5-.7-.3-.3-.5-.4-.9-.4s-.6.1-.8.4c-.4.3-.8.7-1.6.7s-1.2-.4-1.5-.7c-.3-.3-.5-.5-.9-.5s-.6.2-.8.5c-.4.3-.8.7-1.6.7l-.4-.2z" fill="#3cf"/>
        <path d="M264 387.4c.4.1.7.3.9.5.3.3.5.5.9.5s.6-.2.9-.5c.3-.3.7-.7 1.5-.7s1.2.4 1.5.7c.3.3.5.5.9.5s.6-.2.9-.5c.3-.3.7-.6 1.5-.6s1.2.3 1.5.6c.3.3.5.5.9.5s.6-.2.9-.5c.3-.3.7-.6 1.5-.6s1.2.3 1.5.6c.3.3.5.5.9.5s.6-.2.9-.5c.3-.3.7-.6 1.5-.6s1.2.3 1.5.6c.3.3.5.5.9.5s.6-.2.9-.5c.3-.3.8-.6 1.5-.6.3 0 .4 0 .6.1v1.1c-.2-.1-.3-.1-.6-.1-.4 0-.6.1-.8.4-.4.3-.8.6-1.6.6s-1.2-.3-1.5-.6c-.3-.3-.5-.4-.9-.4s-.6.1-.9.4c-.3.3-.7.6-1.5.6s-1.2-.3-1.5-.6c-.3-.3-.5-.4-.9-.4s-.6.1-.9.4c-.3.3-.7.6-1.5.6s-1.2-.3-1.5-.6c-.3-.3-.5-.4-.9-.4s-.6.1-.9.4c-.3.3-.7.6-1.5.6s-1.2-.3-1.5-.6c-.3-.3-.5-.5-.9-.5s-.6.2-.9.5c-.3.3-.7.6-1.5.6s-1.2-.3-1.5-.6c-.1-.1-.2-.2-.3-.2zM264 389.7c.4.1.7.3.9.5.3.3.5.4.9.4s.6-.1.9-.4c.3-.3.7-.7 1.5-.7s1.2.4 1.5.7c.3.3.5.4.9.4s.6-.1.9-.4c.3-.3.7-.7 1.5-.7s1.2.4 1.5.7c.3.3.5.4.9.4s.6-.1.9-.4c.3-.3.7-.7 1.5-.7s1.2.4 1.5.7c.3.3.5.4.9.4s.6-.1.9-.4c.3-.3.7-.7 1.5-.7s1.2.4 1.5.7c.3.3.5.4.9.4s.6-.1.9-.4c.3-.3.8-.7 1.5-.7.3 0 .4.1.6.1v1.2c-.2-.1-.3-.2-.6-.2-.4 0-.6.2-.8.4-.4.3-.8.7-1.6.7s-1.2-.4-1.5-.7c-.3-.2-.5-.4-.9-.4s-.6.2-.9.4c-.3.3-.7.7-1.5.7s-1.2-.4-1.5-.7c-.3-.2-.5-.4-.9-.4s-.6.2-.9.4c-.3.3-.7.7-1.5.7s-1.2-.4-1.5-.7c-.3-.2-.5-.4-.9-.4s-.6.2-.9.4c-.3.3-.7.7-1.5.7s-1.2-.4-1.5-.7c-.3-.2-.5-.4-.9-.4s-.6.2-.9.4c-.3.3-.7.7-1.5.7s-1.2-.4-1.5-.6l-.3-.3z" fill="#00c"/>
        <path d="M264 385.1c.4.1.7.4.9.6.3.2.5.4.9.4s.6-.2.9-.4c.3-.3.7-.7 1.5-.7s1.2.4 1.5.7c.3.2.5.4.9.4s.6-.2.9-.4c.3-.3.7-.7 1.5-.7s1.2.4 1.5.7c.3.2.5.4.9.4s.6-.2.9-.4c.3-.3.7-.7 1.5-.7s1.2.4 1.5.7c.3.2.5.4.9.4s.6-.2.9-.4c.3-.3.7-.7 1.5-.7s1.2.4 1.5.7c.3.2.5.4.9.4s.6-.2.9-.4c.3-.3.8-.7 1.5-.7.3 0 .4 0 .6.1v1.2c-.2-.1-.3-.2-.6-.2-.4 0-.6.2-.8.4-.4.3-.8.7-1.6.7s-1.2-.4-1.5-.7c-.3-.2-.5-.4-.9-.4s-.6.2-.9.4c-.3.3-.7.7-1.5.7s-1.2-.4-1.5-.7c-.3-.2-.5-.4-.9-.4s-.6.2-.9.4c-.3.3-.7.7-1.5.7s-1.2-.4-1.5-.7c-.3-.2-.5-.4-.9-.4s-.6.2-.9.4c-.3.3-.7.7-1.5.7s-1.2-.4-1.5-.7c-.3-.3-.5-.4-.9-.4s-.6.1-.9.4c-.3.3-.7.7-1.5.7s-1.2-.4-1.5-.7c-.1-.1-.2-.2-.3-.2z" fill="#00c"/>
    </g>
</svg>
