<svg xmlns="http://www.w3.org/2000/svg" height="24" width="24">
    <g transform="matrix(1,0,0,-1,-264,408)" id="KDDI_D_">        <path d="M273.8 402h-1.1v4.9h1.1z" fill="#666"/>
        <path d="M277.4 405.1v.9h-3.8v-2.7h.6v1.8zM281.9 405.1v.9h-3.8v-2.7h.6v1.8zM286.4 405.1v.9h-3.8v-2.7h.6v1.8zM288 406h-1.1v-2.7h.6v1.8h.5z" fill="#333"/>
        <path d="M278.2 402H277v4.9h1.2zM282.6 402h-1.2v4.9h1.2zM286.9 402h-1.1v4.9h1.1z" fill="#666"/>
        <path d="M288 405.8h-15.3v1.1H288zM288 402.4h-15.3v1.1H288z" fill="#999"/>
        <path d="M273.3 387h-2.1v14.3h2.1z" fill="#900"/>
        <path d="M271.8 387H264v15.4h7.8z" fill="red"/>
        <path d="M264 402.4V387h1.2v15.4z" fill="#f63"/>
        <path d="M288 387h-15.3v15.4H288z" fill="red"/>
        <path d="M288 401.3v1.1h-15.3V387h1.1v14.3z" fill="#f63"/>
        <path d="M264 396h4.2v5.3H264z" fill="#3cf"/>
        <path d="M265.2 396h3v5.3h-3zM271.8 401.3h-2.4V397h2.4z" fill="#69c"/>
        <path d="M264 391.3h1.1v2.3H264z" fill="#3cf"/>
        <path d="M276 396.9c-.5-.6-.8-1.3-.8-2.1 0-2.8 1.8-3.7 3.4-3.7 2.3 0 3.6 1.3 3.6 3.4 0 0 0 1.1-.1 1.8.7-.1 1.4-.3 1.9-.5l.7-.3c.7-.4 1.5-.8 3.3-.9v1.5c-1.4.1-2 .4-2.6.7l-.8.4c-1.3.5-2.7.7-4.3.7h-.2c-1.2 0-3 0-4.1-1m.7-2.1c0 .4.1.8.4 1 .6.6 2.1.6 3 .6h.5c.1-.5.1-1.9.1-1.9 0-1.3-.7-1.9-2.1-1.9-.8 0-1.9.4-1.9 2.2z" fill="#c00"/>
        <path d="M276 397.5c-.5-.6-.8-1.3-.8-2.1 0-2.8 1.8-3.7 3.4-3.7 2.3 0 3.6 1.3 3.6 3.4 0 0 0 1.1-.1 1.8.7-.1 1.4-.3 1.9-.5l.7-.3c.7-.4 1.5-.8 3.3-.9v1.5c-1.4.1-2 .4-2.6.7l-.8.4c-1.3.5-2.7.7-4.3.7h-.2c-1.2 0-3 0-4.1-1m.7-2.1c0 .4.1.8.4 1 .6.6 2.1.6 3 .6h.5c.1-.5.1-1.9.1-1.9 0-1.3-.7-1.9-2.1-1.9-.8 0-1.9.4-1.9 2.2z" fill="#996"/>
        <path d="M275.5 398.1c-.6-.5-.8-1.2-.8-2.1 0-2.7 1.7-3.7 3.4-3.7 2.2 0 3.6 1.3 3.6 3.5 0 0-.1 1.1-.1 1.7.7-.1 1.3-.2 1.9-.4l.6-.4c.8-.4 1.8-.9 3.9-.9v1.5c-1.8 0-2.4.4-3.2.8l-.8.4c-1.2.4-2.7.7-4.3.7h-.1c-1.2 0-3.1 0-4.1-1.1m.7-2.1c0 .5.1.8.3 1 .7.7 2.1.7 3.1.7h.1c.2 0 .3-.1.4-.1 0-.4.1-1.8.1-1.8 0-1.3-.7-2-2.1-2-.9 0-1.9.4-1.9 2.2z" fill="#cc9"/>
        <path d="M278.1 393.8c-.5 0-1 .1-1.3.5.3-.7 1-.9 1.6-.9 1.4 0 2.1.6 2.1 1.9 0 0-.1 1.4-.1 1.9h-.3c0-.6.1-1.4.1-1.4 0-1.3-.7-2-2.1-2zM275.8 397.7c1.1 1 2.9 1 4.1 1h.2c1.5 0 1.2.5-.4.5h-.1c-1.2 0-3.1 0-4.1-1.1-.6-.5-.8-1.2-.8-2.1 0-1.2.3-2 .8-2.6-.3.6-.5 1.3-.5 2.2 0 .8.3 1.5.8 2.1z" fill="#fff"/>
        <path d="M270.8 394.2c0-.3-.3-.5-.5-.5h-1.6c-.3 0-.5.2-.5.5s.2.5.5.5h1.6c.2 0 .5-.2.5-.5zM276 391.5h-1.1v1.1h1.1zM276 389.4h-1.1v1h1.1zM286.9 391.6h-4v.9h4zM286.9 393.8h-4v.9h4z" fill="#900"/>
        <path d="M271.8 387H264v1.2h7.8zM288 387h-15.5v1.2H288z" fill="#600"/>
        <path d="M264.8 398.8l2.5 2M264.8 396.7l2.3 1.8" fill="none" stroke="#3cf"/>
        <path d="M272 388.6c0-1.5-1.3-2.8-3-2.8s-3 1.3-3 2.8c0 1.6 1.3 2.8 3 2.8s3-1.2 3-2.8z"/>
        <path d="M270.6 388.6c0-.8-.7-1.5-1.6-1.5-.9 0-1.6.7-1.6 1.5 0 .9.7 1.6 1.6 1.6.9 0 1.6-.7 1.6-1.6z" fill="#666"/>
        <path d="M269.5 389.6c.4 0 .7-.1 1-.3-.3.5-.8.9-1.5.9-.9 0-1.6-.7-1.6-1.6 0-.5.2-.9.6-1.2-.1.2-.1.4-.1.6 0 .9.7 1.6 1.6 1.6z" fill="#99c"/>
        <path d="M268.8 389.5c.1-.2-.1-.5-.3-.6-.3-.2-.5-.1-.6.1-.1.2 0 .4.2.6.3.2.5.1.7-.1z" fill="#ccc"/>
        <path d="M285.4 388.6c0-1.5-1.3-2.8-3-2.8s-3 1.3-3 2.8c0 1.6 1.3 2.8 3 2.8s3-1.2 3-2.8z"/>
        <path d="M284 388.6c0-.8-.7-1.5-1.6-1.5-.9 0-1.7.7-1.7 1.5 0 .9.8 1.6 1.7 1.6.9 0 1.6-.7 1.6-1.6z" fill="#666"/>
        <path d="M282.9 389.6c.4 0 .7-.1 1-.3-.3.5-.8.9-1.5.9-.9 0-1.7-.7-1.7-1.6 0-.5.3-.9.7-1.2-.1.2-.1.4-.1.6 0 .9.7 1.6 1.6 1.6z" fill="#99c"/>
        <path d="M282.1 389.5c.2-.2 0-.5-.2-.6-.3-.2-.5-.1-.6.1-.2.2 0 .4.2.6.3.2.5.1.6-.1z" fill="#ccc"/>
    </g>
</svg>
