<svg xmlns="http://www.w3.org/2000/svg" height="24" width="24">
    <g transform="matrix(1,0,0,-1,-264,408)" id="KDDI_D_">        <path d="M274.8 400.9c0-.6-.4-1-1-1h-2.2c-.6 0-1 .4-1 1v3.7c0 .6.4 1 1 1h2.2c.6 0 1-.4 1-1z" fill="#fc0"/>
        <path d="M270.6 404.6v-3.7c0-.6.4-1 1-1h2.2c.6 0 1 .4 1 1V404.8h-4.2v-.2z" fill="#f60"/>
        <path d="M273.8 405.6h-1v-5.7h1c.6 0 1 .4 1 1v3.7c0 .6-.4 1-1 1z" fill="#f60"/>
        <path d="M272.8 404.8v-4.9h1c.6 0 1 .4 1 1V404.8z" fill="red"/>
        <path d="M271.5 404.8h-.9V400.9c0-.5.4-.9.9-1z" fill="#f93"/>
        <path d="M264.6 387.7v8.6l4.4 4.4h18.5v-13z" fill="#fff"/>
        <path d="M286 400.7v-11.6h-21.4v-1.4h22.9v13z" fill="#cc9"/>
        <path d="M270 395.2v5.5h-1l-4.4-4.4v-1.1z" fill="#3cf"/>
        <path d="M270.3 400.4l-1.3.3-4.4-4.4.3-1.5z" fill="#9ff"/>
        <path d="M264.6 395.2h5.4v5.5" fill="none" stroke="#699"/>
        <path d="M287.4 392.7h-22.9v1h22.9z" fill="red"/>
        <path d="M287.4 393.7h-22.9v1.1h22.9z" fill="#f69"/>
        <path d="M281.5 398h-2.3v2.2h-2V398h-2.3v-2h2.3v-2.3h2v2.3h2.3z" fill="red"/>
        <path d="M264.6 396.3l4.3 4.3" fill="none" stroke="#699" stroke-linecap="round"/>
        <path d="M264.6 387.7v8.6" fill="none" stroke="#666" stroke-linecap="round"/>
        <path d="M287.5 400.7v-13h-22.9" fill="none" stroke="#333" stroke-linecap="round"/>
        <path d="M268.9 400.6l.1.1h18.5" fill="none" stroke="#666" stroke-linecap="round"/>
        <path d="M272.5 388.6c0-1.5-1.3-2.8-3-2.8-1.6 0-3 1.3-3 2.8 0 1.6 1.4 2.8 3 2.8 1.7 0 3-1.2 3-2.8z"/>
        <path d="M271.2 388.6c0-.8-.7-1.5-1.7-1.5-.9 0-1.6.7-1.6 1.5 0 .9.7 1.6 1.6 1.6 1 0 1.7-.7 1.7-1.6z" fill="#666"/>
        <path d="M270.1 389.6c.3 0 .7-.1.9-.3-.2.5-.8.9-1.5.9-.9 0-1.6-.7-1.6-1.6 0-.5.3-.9.7-1.2-.1.2-.2.4-.2.6 0 .9.8 1.6 1.7 1.6z" fill="#99c"/>
        <path d="M269.3 389.5c.1-.2 0-.5-.3-.6-.2-.2-.5-.1-.6.1-.1.2 0 .4.3.6.2.2.5.1.6-.1z" fill="#ccc"/>
        <path d="M285.4 388.6c0-1.5-1.4-2.8-3-2.8-1.7 0-3 1.3-3 2.8 0 1.6 1.3 2.8 3 2.8 1.6 0 3-1.2 3-2.8z"/>
        <path d="M284 388.6c0-.8-.7-1.5-1.6-1.5-1 0-1.7.7-1.7 1.5 0 .9.7 1.6 1.7 1.6.9 0 1.6-.7 1.6-1.6z" fill="#666"/>
        <path d="M282.9 389.6c.3 0 .7-.1.9-.3-.2.5-.8.9-1.4.9-1 0-1.7-.7-1.7-1.6 0-.5.3-.9.7-1.2-.1.2-.2.4-.2.6 0 .9.8 1.6 1.7 1.6z" fill="#99c"/>
        <path d="M282.1 389.5c.1-.2 0-.5-.3-.6-.2-.2-.5-.1-.6.1-.1.2 0 .4.3.6.2.2.5.1.6-.1z" fill="#ccc"/>
    </g>
</svg>
