<svg xmlns="http://www.w3.org/2000/svg" height="24" width="24">
    <g transform="matrix(1,0,0,-1,-264,408)" id="KDDI_D_">        <path d="M279.7 400.8c0-.6-.5-1-1-1h-2.3c-.5 0-1 .4-1 1v3.7c0 .6.5 1 1 1h2.3c.5 0 1-.4 1-1z" fill="#fc0"/>
        <path d="M275.4 404.5v-3.7c0-.6.5-1 1-1h2.3c.5 0 1 .4 1 1V404.6h-4.2l-.1-.1z" fill="#f60"/>
        <path d="M278.7 405.5h-1.1v-5.7h1.1c.5 0 1 .4 1 1v3.7c0 .6-.5 1-1 1z" fill="#f60"/>
        <path d="M277.6 404.6v-4.8h1.1c.5 0 1 .4 1 1V404.6z" fill="red"/>
        <path d="M276.4 404.6h-.9l-.1-.1v-3.7c0-.6.4-1 1-1z" fill="#f93"/>
        <path d="M274.1 400.1l-5.3-4.6h8.3v4.5z" fill="#9cf"/>
        <path d="M273.1 399.3l3.7-3.2-.1-.5-1.2-.1-3.2 2.9z" fill="#fff"/>
        <path d="M273.3 400.1l-.4-.7h4.3l-.1.6z" fill="#069"/>
        <path d="M277.1 400v-4.7l8.6-.1-4.6 4.8z" fill="#9cf"/>
        <path d="M278.1 400.4l6-5.1-2.2.1-4.7 4.1z" fill="#fff"/>
        <path d="M277.1 400v-4.7h1.5v4.1h3.4v.6z" fill="#069"/>
        <path d="M274.3 400.4l-6.2-5.3M281 400.4l4.9-5.1" fill="none" stroke="#39c"/>
        <path d="M288 390.5c0-1.5-1.4-2.7-3-2.7h-18c-1.6 0-2.9 1.2-2.9 2.7v1.6c0 1.5 1.7 3.6 3.4 3.6h18.3c1.7 0 2.2-1.2 2.2-2.7z" fill="#999"/>
        <path d="M264.1 391.6v-1.1c0-1.5 1.3-2.7 2.9-2.7h18c1.6 0 3 1.2 3 2.7v1.1z"/>
        <path d="M285.3 388.7h-18.6c-1 0-2 .4-2.5 1.1.3-1.2 1.5-2 2.8-2h18c1.3 0 2.5.8 2.8 2-.5-.7-1.5-1.1-2.5-1.1z" fill="#333"/>
        <path d="M287.4 393.6c0-.8-.5-1.5-1.2-1.5h-19.1c-.6 0-1.7.7-1.7 1.5 0 .7 1.1 1.4 1.7 1.4h19.1c.7 0 1.2-.7 1.2-1.4z" fill="#fff"/>
        <path d="M277.1 400.2v-5.4" fill="none" stroke="#fff" stroke-width="1.3"/>
        <path d="M266.1 390h-2v.8h2z"/>
        <path d="M288 391.3h-1.1v.8h1.1z" fill="red"/>
        <path d="M288 390.4h-1.1v.8h1.1z" fill="#f60"/>
        <path d="M273 400h9.2l-1.1.9h-7zM265.8 390.1h-1.7v.9h1.7z" fill="#999"/>
        <path d="M266.4 391.6h-2.3v1h2.3z" fill="red"/>
        <path d="M266.6 391.6h-1.2v1h1.2z" fill="#f60"/>
        <path d="M267.1 394.6c-.1.1-.1.1-.2.1.2-.3-.1-1-.7-1.5-.5-.4-1.1-.5-1.4-.4.3-.4 1-.3 1.6.2.7.5 1 1.2.7 1.6z" fill="#666"/>
        <path d="M266.2 393.2c.6.5.9 1.2.7 1.5-.4.2-.9 0-1.4-.3-.7-.5-1-1.2-.7-1.6.3-.1.9 0 1.4.4z" fill="#ccc"/>
        <path d="M266.7 394.4c.2-.3 0-.8-.5-1.2-.4-.3-.9-.4-1.1-.2-.2.3 0 .8.4 1.2.5.3 1 .4 1.2.2z" fill="#fff"/>
        <path d="M276 392.4h-1.7v1.8h1.7z" fill="#999"/>
        <path d="M276 393.3h-1.7v.9h1.7z" fill="#ccc"/>
        <path d="M275.2 393.3h-.9v.9h.9z" fill="#666"/>
        <path d="M278.7 392.4H277v1.8h1.7z" fill="#999"/>
        <path d="M278.7 393.3H277v.9h1.7z" fill="#ccc"/>
        <path d="M277.8 393.3h-.8v.9h.8z" fill="#666"/>
        <path d="M281.4 392.4h-1.8v1.8h1.8z" fill="#999"/>
        <path d="M281.4 393.3h-1.8v.9h1.8z" fill="#ccc"/>
        <path d="M280.5 393.3h-.9v.9h.9z" fill="#666"/>
        <path d="M272.5 389.1c0-1.5-1.3-2.8-3-2.8-1.6 0-3 1.3-3 2.8 0 1.6 1.4 2.8 3 2.8 1.7 0 3-1.2 3-2.8z"/>
        <path d="M271.2 389.1c0-.8-.7-1.5-1.7-1.5-.9 0-1.6.7-1.6 1.5 0 .9.7 1.6 1.6 1.6 1 0 1.7-.7 1.7-1.6z" fill="#666"/>
        <path d="M270.1 390.1c.3 0 .7-.1.9-.3-.2.5-.8.9-1.5.9-.9 0-1.6-.7-1.6-1.6 0-.5.3-.9.7-1.2-.1.2-.2.4-.2.6 0 .9.8 1.6 1.7 1.6z" fill="#99c"/>
        <path d="M269.3 390c.1-.2 0-.5-.3-.6-.2-.2-.5-.1-.6.1-.1.2 0 .4.3.6.2.2.5.1.6-.1z" fill="#ccc"/>
        <path d="M285.4 389.1c0-1.5-1.4-2.8-3-2.8-1.7 0-3 1.3-3 2.8 0 1.6 1.3 2.8 3 2.8 1.6 0 3-1.2 3-2.8z"/>
        <path d="M284 389.1c0-.8-.7-1.5-1.6-1.5-1 0-1.7.7-1.7 1.5 0 .9.7 1.6 1.7 1.6.9 0 1.6-.7 1.6-1.6z" fill="#666"/>
        <path d="M282.9 390.1c.3 0 .7-.1.9-.3-.2.5-.8.9-1.4.9-1 0-1.7-.7-1.7-1.6 0-.5.3-.9.7-1.2-.1.2-.2.4-.2.6 0 .9.8 1.6 1.7 1.6z" fill="#99c"/>
        <path d="M282.1 390c.1-.2 0-.5-.3-.6-.2-.2-.5-.1-.6.1-.1.2 0 .4.3.6.2.2.5.1.6-.1z" fill="#ccc"/>
    </g>
</svg>
