<svg xmlns="http://www.w3.org/2000/svg" height="24" width="24">
    <g transform="matrix(1,0,0,-1,-264,408)" id="KDDI_D_">        <path d="M288 384h-24v24h24z" fill="#cff"/>
        <path d="M286 398h2v-14h-2z" fill="#060"/>
        <path d="M286 398h.8v-14h-.8z" fill="#030"/>
        <path d="M281.8 398h2v-14h-2z" fill="#060"/>
        <path d="M281.7 398h.8v-14h-.8z" fill="#030"/>
        <path d="M277.5 398h2v-14h-2z" fill="#060"/>
        <path d="M277.5 398h.8v-14h-.8z" fill="#030"/>
        <path d="M288 408h-1.9L264 385.6V384H276.1l11.9 12.1z" fill="#060"/>
        <path d="M288 408h-.4L264 384.2v-.2h8l16 16.2z" fill="#030"/>
        <path d="M288 406.7L265.6 384h8.1l14.3 14.5z" fill="#fc0"/>
        <path d="M288 407.3L265 384h7.7l15.3 15.5z" fill="#999"/>
        <path d="M288 401.6L270.6 384h.9l16.5 16.7zM288 406.3L265.9 384h.9l21.2 21.4z" fill="#666"/>
        <path d="M274.9 391.9V387l13.1 13.2v4.9zM268.4 387h6.5v4.9h-6.5z"/>
        <path d="M267.6 393l13.1 13.2h7.3L274.9 393z" fill="#03f"/>
        <path d="M274.9 393v-4.9l13.1 13.2v4.9z" fill="#009"/>
        <path d="M267.7 388.1h7.2v4.9h-7.2z" fill="#06f"/>
        <path d="M270.2 390.5c0-.4-.3-.7-.7-.7-.5 0-.8.3-.8.7 0 .4.3.8.8.8.4 0 .7-.4.7-.8zM273.8 390.5c0-.4-.4-.7-.8-.7s-.7.3-.7.7c0 .4.3.8.7.8.4 0 .8-.4.8-.8z" fill="#fc0"/>
        <path d="M273.1 398.5l-.6-.9h7V392l.8 1.1v5.4zM279.7 405l-.6-.8h6.9v-5.6l.8 1v5.4z"/>
        <path d="M277.5 398c0-.6-.3-1-.8-1h-.4c-.4 0-.8.4-.8 1v2.4c0 .5.4 1 .8 1h.4c.5 0 .8-.5.8-1z" fill="#fc9"/>
        <path d="M276.7 401.4h-.1c-.3-.5-.5-1.1-.5-1.8 0-.9.4-1.8 1-2.4.3.2.4.4.4.8v2.4c0 .5-.3 1-.8 1z" fill="#f96"/>
        <path d="M276.7 401.4h-.4c-.4 0-.8-.5-.8-1v-.1h2v.1c0 .5-.3 1-.8 1z"/>
        <path d="M278.4 396.6v.6c0 .5-.3 1-.8 1h-2.2c-.4 0-.8-.5-.8-1v-.6z" fill="#f60"/>
        <path d="M277.9 397.2v-.6h.5v.6c0 .5-.3 1-.8 1h-.5c.5 0 .8-.5.8-1z" fill="#c33"/>
        <path d="M274.3 398c0-.6-.4-1-.8-1h-.4c-.5 0-.8.4-.8 1v2.4c0 .5.3 1 .8 1h.4c.4 0 .8-.5.8-1z" fill="#fc9"/>
        <path d="M273.5 401.4h-.1c-.3-.5-.5-1.1-.5-1.8 0-.9.4-1.8 1-2.4.2.2.4.4.4.8v2.4c0 .5-.4 1-.8 1z" fill="#f96"/>
        <path d="M273.5 401.4h-.4c-.5 0-.8-.5-.8-1v-.1h2v.1c0 .5-.4 1-.8 1z"/>
        <path d="M275.2 396.6v.6c0 .5-.4 1-.8 1h-2.2c-.5 0-.8-.5-.8-1v-.6z" fill="#f60"/>
        <path d="M274.7 397.2v-.6h.5v.6c0 .5-.4 1-.8 1h-.5c.4 0 .8-.5.8-1z" fill="#c33"/>
        <path d="M284.1 404.5c0-.5-.4-1-.8-1h-.4c-.5 0-.9.5-.9 1v2.4c0 .6.4 1 .9 1h.4c.4 0 .8-.4.8-1z" fill="#fc9"/>
        <path d="M283.3 407.9h-.1c-.4-.5-.6-1.1-.6-1.7 0-1 .4-1.8 1.1-2.5.2.2.4.5.4.8v2.4c0 .6-.4 1-.8 1z" fill="#f96"/>
        <path d="M283.3 407.9h-.4c-.5 0-.9-.4-.9-1v-.1h2.1v.1c0 .6-.4 1-.8 1z"/>
        <path d="M285 403.2v.5c0 .6-.4 1-.8 1h-2.3c-.4 0-.8-.4-.8-1v-.5z" fill="#f60"/>
        <path d="M284.5 403.7v-.5h.5v.5c0 .6-.4 1-.8 1h-.5c.4 0 .8-.4.8-1z" fill="#c33"/>
        <path d="M280.8 404.5c0-.5-.4-1-.8-1h-.4c-.4 0-.8.5-.8 1v2.4c0 .6.4 1 .8 1h.4c.4 0 .8-.4.8-1z" fill="#fc9"/>
        <path d="M280 407.9h-.1c-.3-.5-.5-1.1-.5-1.7 0-1 .4-1.8 1-2.5.3.2.4.5.4.8v2.4c0 .6-.4 1-.8 1z" fill="#f96"/>
        <path d="M280 407.9h-.4c-.4 0-.8-.4-.8-1v-.1h2v.1c0 .6-.4 1-.8 1z"/>
        <path d="M281.7 403.2v.5c0 .6-.4 1-.8 1h-2.2c-.4 0-.8-.4-.8-1v-.5z" fill="#f60"/>
        <path d="M281.2 403.7v-.5h.5v.5c0 .6-.4 1-.8 1h-.5c.4 0 .8-.4.8-1z" fill="#c33"/>
    </g>
</svg>
