<svg xmlns="http://www.w3.org/2000/svg" width="24" height="24">
	<g transform="translate(-264,-386)" id="KDDI_D_476">
		<g>
			<path style="stroke:none; fill:none" d="M 288 409.89L 264 409.89L 264 385.89L 288 385.89L 288 409.89z"/>
		</g>
		<g>
			<path style="stroke:none; fill:#339900" d="M 282.5 394.89C 282.5 394.89 283.459 390.376 281 390.376C 278.542 390.376 278.5 394.89 278.5 394.89L 278.5 405.39L 282.5 405.39L 282.5 394.89z"/>
			<path style="stroke:none; fill:#999900" d="M 280.5 390.376C 278.5 390.376 278.5 394.39 278.5 394.39C 278.5 394.39 278.625 396.89 280.5 396.89C 282.375 396.89 282.5 394.39 282.5 394.39C 282.5 394.39 282.5 390.376 280.5 390.376z"/>
			<path style="stroke:none; fill:#ffcc00" d="M 280.226 396.866C 281.838 396.63 281.5 393.903 281.5 393.903L 281.5 390.89C 281.5 390.89 281 390.377 280.535 390.38C 280.523 390.38 280.513 390.376 280.5 390.376C 278.5 390.376 278.5 394.39 278.5 394.39C 278.5 394.39 278.615 396.634 280.226 396.866z"/>
			<path style="stroke:none; fill:#66cc66" d="M 280 397.89L 278.5 397.39L 278.5 405.39L 280 405.39L 280 397.89z"/>
			<path style="stroke:#006600; stroke-width:1; fill:none" d="M 278.562 397.39L 282.5 397.39"/>
			<path style="stroke:#006600; stroke-width:1; fill:none" d="M 278.562 400.966L 282.5 400.966"/>
			<path style="stroke:#006600; stroke-width:1; fill:none" d="M 282.5 394.89C 282.5 394.89 282.5 390.376 280.5 390.376C 278.5 390.376 278.5 394.89 278.5 394.89L 278.5 405.39L 282.5 405.39L 282.5 394.89z"/>
			<path style="stroke:#003300; stroke-width:1; stroke-linecap:square; fill:none" d="M 278.5 405.39L 282.5 405.39L 282.5 394.89C 282.5 394.89 282.5 394.216 282.385 393.39"/>
			<path style="stroke:none; fill:#339900" d="M 278.5 390.89C 278.5 390.89 279.459 386.376 277 386.376C 274.542 386.376 274.5 390.89 274.5 390.89L 274.5 405.39L 278.5 405.39L 278.5 390.89z"/>
			<path style="stroke:none; fill:#999900" d="M 276.5 386.376C 274.5 386.376 274.5 390.39 274.5 390.39C 274.5 390.39 274.625 392.89 276.5 392.89C 278.375 392.89 278.5 390.39 278.5 390.39C 278.5 390.39 278.5 386.376 276.5 386.376z"/>
			<path style="stroke:none; fill:#ffcc00" d="M 276.226 392.866C 277.838 392.63 277.5 389.903 277.5 389.903L 277.5 386.89C 277.5 386.89 277 386.377 276.535 386.38C 276.523 386.38 276.513 386.376 276.5 386.376C 274.5 386.376 274.5 390.39 274.5 390.39C 274.5 390.39 274.615 392.634 276.226 392.866z"/>
			<path style="stroke:none; fill:#66cc66" d="M 276 393.89L 274.5 393.39L 274.5 405.39L 276 405.39L 276 393.89z"/>
			<path style="stroke:#006600; stroke-width:1; fill:none" d="M 274.562 395.376L 278.5 395.376"/>
			<path style="stroke:#006600; stroke-width:1; fill:none" d="M 274.562 399.39L 278.5 399.39"/>
			<path style="stroke:#006600; stroke-width:1; fill:none" d="M 278.5 390.89C 278.5 390.89 278.5 386.376 276.5 386.376C 274.5 386.376 274.5 390.89 274.5 390.89L 274.5 405.39L 278.5 405.39L 278.5 390.89z"/>
			<path style="stroke:#003300; stroke-width:1; stroke-linecap:square; fill:none" d="M 274.5 405.39L 278.5 405.39L 278.5 390.89C 278.5 390.89 278.5 390.216 278.385 389.39"/>
			<path style="stroke:none; fill:#339900" d="M 274.5 394.89C 274.5 394.89 275.459 390.376 273 390.376C 270.542 390.376 270.5 394.89 270.5 394.89L 270.5 405.39L 274.5 405.39L 274.5 394.89z"/>
			<path style="stroke:none; fill:#999900" d="M 272.5 390.376C 270.5 390.376 270.5 394.39 270.5 394.39C 270.5 394.39 270.625 396.89 272.5 396.89C 274.375 396.89 274.5 394.39 274.5 394.39C 274.5 394.39 274.5 390.376 272.5 390.376z"/>
			<path style="stroke:none; fill:#ffcc00" d="M 272.226 396.866C 273.838 396.63 273.5 393.903 273.5 393.903L 273.5 390.89C 273.5 390.89 273 390.377 272.535 390.38C 272.523 390.38 272.513 390.376 272.5 390.376C 270.5 390.376 270.5 394.39 270.5 394.39C 270.5 394.39 270.615 396.634 272.226 396.866z"/>
			<path style="stroke:none; fill:#66cc66" d="M 272 397.89L 270.5 397.39L 270.5 405.39L 272 405.39L 272 397.89z"/>
			<path style="stroke:#006600; stroke-width:1; fill:none" d="M 270.562 397.39L 274.5 397.39"/>
			<path style="stroke:#006600; stroke-width:1; fill:none" d="M 270.562 400.966L 274.5 400.966"/>
			<path style="stroke:#006600; stroke-width:1; fill:none" d="M 274.5 394.89C 274.5 394.89 274.5 390.376 272.5 390.376C 270.5 390.376 270.5 394.89 270.5 394.89L 270.5 405.39L 274.5 405.39L 274.5 394.89z"/>
			<path style="stroke:#003300; stroke-width:1; stroke-linecap:square; fill:none" d="M 270.5 405.39L 274.5 405.39L 274.5 394.89C 274.5 394.89 274.5 394.216 274.385 393.39"/>
			<path style="stroke:#333300; stroke-width:0.75; fill:none" d="M 267.5 402.39C 267.5 402.39 270 402.39 270 404.89"/>
			<path style="stroke:#333300; stroke-width:0.75; fill:none" d="M 272 402.39C 272 402.39 274.5 402.39 274.5 404.89L 274.5 401.89"/>
			<path style="stroke:none; fill:#003300" d="M 273.476 403.915C 273.295 403.915 272.976 403.89 272.976 403.89C 272.976 403.89 272.951 403.544 272.951 403.39C 272.951 403.127 272.738 402.915 272.476 402.915C 272.213 402.915 272 403.127 272 403.39C 272 403.52 271.976 403.89 271.976 403.89C 271.976 403.89 271.565 403.915 271.476 403.915C 271.213 403.915 271 404.127 271 404.39C 271 404.652 271.213 404.865 271.476 404.865C 271.657 404.865 273.295 404.865 273.476 404.865C 273.738 404.865 273.951 404.652 273.951 404.39C 273.951 404.127 273.738 403.915 273.476 403.915z"/>
			<path style="stroke:none; fill:#003300" d="M 269.476 401.94C 269.295 401.94 268.976 401.915 268.976 401.915C 268.976 401.915 268.951 401.568 268.951 401.415C 268.951 401.152 268.738 400.94 268.476 400.94C 268.213 400.94 268 401.152 268 401.415C 268 401.545 267.976 401.915 267.976 401.915C 267.976 401.915 267.565 401.94 267.476 401.94C 267.213 401.94 267 402.152 267 402.415C 267 402.677 267.213 402.89 267.476 402.89C 267.657 402.89 269.295 402.89 269.476 402.89C 269.738 402.89 269.951 402.677 269.951 402.415C 269.951 402.152 269.738 401.94 269.476 401.94z"/>
			<path style="stroke:#333300; stroke-width:0.75; fill:none" d="M 285.5 402.39C 285.5 402.39 283 402.39 283 404.89"/>
			<path style="stroke:#333300; stroke-width:0.75; fill:none" d="M 281 402.39C 281 402.39 278.5 402.39 278.5 404.89L 278.5 401.89"/>
			<path style="stroke:none; fill:#003300" d="M 283.524 401.94C 283.705 401.94 284.024 401.915 284.024 401.915C 284.024 401.915 284.049 401.568 284.049 401.415C 284.049 401.152 284.262 400.94 284.524 400.94C 284.787 400.94 285 401.152 285 401.415C 285 401.545 285.024 401.915 285.024 401.915C 285.024 401.915 285.435 401.94 285.524 401.94C 285.787 401.94 286 402.152 286 402.415C 286 402.677 285.787 402.89 285.524 402.89C 285.343 402.89 283.705 402.89 283.524 402.89C 283.262 402.89 283.049 402.677 283.049 402.415C 283.049 402.152 283.262 401.94 283.524 401.94z"/>
			<path style="stroke:none; fill:#003300" d="M 281.524 403.89C 281.344 403.89 281.024 403.865 281.024 403.865C 281.024 403.865 281 403.519 281 403.365C 281 403.102 280.787 402.89 280.524 402.89C 280.262 402.89 280.049 403.102 280.049 403.365C 280.049 403.495 280.024 403.865 280.024 403.865C 280.024 403.865 279.614 403.89 279.524 403.89C 279.262 403.89 279.049 404.102 279.049 404.365C 279.049 404.628 279.262 404.84 279.524 404.84C 279.706 404.84 281.344 404.84 281.524 404.84C 281.787 404.84 282 404.628 282 404.365C 282 404.102 281.787 403.89 281.524 403.89z"/>
			<path style="stroke:none; fill:#003300" d="M 277.524 403.89C 277.344 403.89 277.024 403.865 277.024 403.865C 277.024 403.865 277 403.519 277 403.365C 277 403.102 276.787 402.89 276.524 402.89C 276.262 402.89 276.049 403.102 276.049 403.365C 276.049 403.495 276.024 403.865 276.024 403.865C 276.024 403.865 275.614 403.89 275.524 403.89C 275.262 403.89 275.049 404.102 275.049 404.365C 275.049 404.628 275.262 404.84 275.524 404.84C 275.706 404.84 277.344 404.84 277.524 404.84C 277.787 404.84 278 404.628 278 404.365C 278 404.102 277.787 403.89 277.524 403.89z"/>
			<path style="stroke:none; fill:#996600" d="M 283 408.89L 270 408.89L 270 405.39L 283 405.39L 283 408.89z"/>
			<path style="stroke:#663300; stroke-width:1; fill:none" d="M 270.5 404.89L 270.5 408.39"/>
			<path style="stroke:#663300; stroke-width:1; fill:none" d="M 282.458 405.39L 282.458 408.89"/>
			<path style="stroke:#663300; stroke-width:1; fill:none" d="M 279.438 404.89L 279.438 408.39"/>
			<path style="stroke:#663300; stroke-width:1; fill:none" d="M 273.375 404.89L 273.375 408.39"/>
			<path style="stroke:#663300; stroke-width:1; fill:none" d="M 276.5 404.89L 276.5 408.39"/>
			<path style="stroke:none; fill:#996600" d="M 269.5 407.89L 284 407.89L 284 409.89L 269.5 409.89L 269.5 407.89z"/>
			<path style="stroke:#996600; stroke-width:1; fill:none" d="M 270 405.39L 284 405.39"/>
			<path style="stroke:#cc9966; stroke-width:1; fill:none" d="M 269.5 409.89L 269.5 408.39L 283 408.39"/>
			<path style="stroke:#cc9966; stroke-width:1; fill:none" d="M 269 405.39L 283 405.39"/>
			<path style="stroke:none; fill:#ff3366" d="M 272.531 401.883C 272.52 401.883 272.511 401.889 272.5 401.89C 272.501 401.879 272.506 401.87 272.506 401.858C 272.506 401.596 272.293 401.383 272.031 401.383C 271.768 401.383 271.555 401.596 271.555 401.858C 271.555 401.87 271.56 401.879 271.561 401.89C 271.551 401.889 271.542 401.883 271.531 401.883C 271.268 401.883 271.055 402.096 271.055 402.358C 271.055 402.621 271.268 402.834 271.531 402.834C 271.542 402.834 271.551 402.828 271.561 402.827C 271.56 402.838 271.555 402.847 271.555 402.858C 271.555 403.121 271.768 403.334 272.031 403.334C 272.293 403.334 272.506 403.121 272.506 402.858C 272.506 402.847 272.501 402.838 272.5 402.827C 272.511 402.828 272.52 402.834 272.531 402.834C 272.793 402.834 273.006 402.621 273.006 402.358C 273.006 402.096 272.793 401.883 272.531 401.883zM 272 402.39C 272.001 402.379 272.006 402.37 272.006 402.358C 272.006 402.347 272.001 402.338 272 402.327C 272.011 402.328 272.02 402.334 272.031 402.334C 272.042 402.334 272.051 402.328 272.061 402.327C 272.06 402.338 272.055 402.347 272.055 402.358C 272.055 402.37 272.06 402.379 272.061 402.39C 272.051 402.389 272.042 402.383 272.031 402.383C 272.02 402.383 272.011 402.389 272 402.39z"/>
			<path style="stroke:none; fill:#ff3366" d="M 269.531 399.883C 269.52 399.883 269.511 399.889 269.5 399.89C 269.501 399.879 269.506 399.87 269.506 399.858C 269.506 399.596 269.293 399.383 269.031 399.383C 268.768 399.383 268.555 399.596 268.555 399.858C 268.555 399.87 268.56 399.879 268.561 399.89C 268.551 399.889 268.542 399.883 268.531 399.883C 268.268 399.883 268.055 400.096 268.055 400.358C 268.055 400.621 268.268 400.834 268.531 400.834C 268.542 400.834 268.551 400.828 268.561 400.827C 268.56 400.838 268.555 400.847 268.555 400.858C 268.555 401.121 268.768 401.334 269.031 401.334C 269.293 401.334 269.506 401.121 269.506 400.858C 269.506 400.847 269.501 400.838 269.5 400.827C 269.511 400.828 269.52 400.834 269.531 400.834C 269.793 400.834 270.006 400.621 270.006 400.358C 270.006 400.096 269.793 399.883 269.531 399.883zM 269 400.39C 269.001 400.379 269.006 400.37 269.006 400.358C 269.006 400.347 269.001 400.338 269 400.327C 269.011 400.328 269.02 400.334 269.031 400.334C 269.042 400.334 269.051 400.328 269.061 400.327C 269.06 400.338 269.055 400.347 269.055 400.358C 269.055 400.37 269.06 400.379 269.061 400.39C 269.051 400.389 269.042 400.383 269.031 400.383C 269.02 400.383 269.011 400.389 269 400.39z"/>
			<path style="stroke:none; fill:#ff3366" d="M 284.531 399.883C 284.52 399.883 284.511 399.889 284.5 399.89C 284.501 399.879 284.506 399.87 284.506 399.858C 284.506 399.596 284.293 399.383 284.031 399.383C 283.768 399.383 283.555 399.596 283.555 399.858C 283.555 399.87 283.56 399.879 283.561 399.89C 283.551 399.889 283.542 399.883 283.531 399.883C 283.268 399.883 283.055 400.096 283.055 400.358C 283.055 400.621 283.268 400.834 283.531 400.834C 283.542 400.834 283.551 400.828 283.561 400.827C 283.56 400.838 283.555 400.847 283.555 400.858C 283.555 401.121 283.768 401.334 284.031 401.334C 284.293 401.334 284.506 401.121 284.506 400.858C 284.506 400.847 284.501 400.838 284.5 400.827C 284.511 400.828 284.52 400.834 284.531 400.834C 284.793 400.834 285.006 400.621 285.006 400.358C 285.006 400.096 284.793 399.883 284.531 399.883zM 284 400.39C 284.001 400.379 284.006 400.37 284.006 400.358C 284.006 400.347 284.001 400.338 284 400.327C 284.011 400.328 284.02 400.334 284.031 400.334C 284.042 400.334 284.051 400.328 284.061 400.327C 284.06 400.338 284.055 400.347 284.055 400.358C 284.055 400.37 284.06 400.379 284.061 400.39C 284.051 400.389 284.042 400.383 284.031 400.383C 284.02 400.383 284.011 400.389 284 400.39z"/>
			<path style="stroke:none; fill:#ff3366" d="M 281.531 401.883C 281.52 401.883 281.511 401.889 281.5 401.89C 281.501 401.879 281.506 401.87 281.506 401.858C 281.506 401.596 281.293 401.383 281.031 401.383C 280.768 401.383 280.555 401.596 280.555 401.858C 280.555 401.87 280.56 401.879 280.561 401.89C 280.551 401.889 280.542 401.883 280.531 401.883C 280.268 401.883 280.055 402.096 280.055 402.358C 280.055 402.621 280.268 402.834 280.531 402.834C 280.542 402.834 280.551 402.828 280.561 402.827C 280.56 402.838 280.555 402.847 280.555 402.858C 280.555 403.121 280.768 403.334 281.031 403.334C 281.293 403.334 281.506 403.121 281.506 402.858C 281.506 402.847 281.501 402.838 281.5 402.827C 281.511 402.828 281.52 402.834 281.531 402.834C 281.793 402.834 282.006 402.621 282.006 402.358C 282.006 402.096 281.793 401.883 281.531 401.883zM 281 402.39C 281.001 402.379 281.006 402.37 281.006 402.358C 281.006 402.347 281.001 402.338 281 402.327C 281.011 402.328 281.02 402.334 281.031 402.334C 281.042 402.334 281.051 402.328 281.061 402.327C 281.06 402.338 281.055 402.347 281.055 402.358C 281.055 402.37 281.06 402.379 281.061 402.39C 281.051 402.389 281.042 402.383 281.031 402.383C 281.02 402.383 281.011 402.389 281 402.39z"/>
			<path style="stroke:none; fill:#ff3366" d="M 279.031 400.883C 279.02 400.883 279.011 400.889 279 400.89C 279.001 400.879 279.006 400.87 279.006 400.858C 279.006 400.596 278.793 400.383 278.531 400.383C 278.268 400.383 278.055 400.596 278.055 400.858C 278.055 400.87 278.06 400.879 278.061 400.89C 278.051 400.889 278.042 400.883 278.031 400.883C 277.768 400.883 277.555 401.096 277.555 401.358C 277.555 401.621 277.768 401.834 278.031 401.834C 278.042 401.834 278.051 401.828 278.061 401.827C 278.06 401.838 278.055 401.847 278.055 401.858C 278.055 402.121 278.268 402.334 278.531 402.334C 278.793 402.334 279.006 402.121 279.006 401.858C 279.006 401.847 279.001 401.838 279 401.827C 279.011 401.828 279.02 401.834 279.031 401.834C 279.293 401.834 279.506 401.621 279.506 401.358C 279.506 401.096 279.293 400.883 279.031 400.883zM 278.5 401.39C 278.501 401.379 278.506 401.37 278.506 401.358C 278.506 401.347 278.501 401.338 278.5 401.327C 278.511 401.328 278.52 401.334 278.531 401.334C 278.542 401.334 278.551 401.328 278.561 401.327C 278.56 401.338 278.555 401.347 278.555 401.358C 278.555 401.37 278.56 401.379 278.561 401.39C 278.551 401.389 278.542 401.383 278.531 401.383C 278.52 401.383 278.511 401.389 278.5 401.39z"/>
			<path style="stroke:none; fill:#ff3366" d="M 275.031 400.883C 275.02 400.883 275.011 400.889 275 400.89C 275.001 400.879 275.006 400.87 275.006 400.858C 275.006 400.596 274.793 400.383 274.531 400.383C 274.268 400.383 274.055 400.596 274.055 400.858C 274.055 400.87 274.06 400.879 274.061 400.89C 274.051 400.889 274.042 400.883 274.031 400.883C 273.768 400.883 273.555 401.096 273.555 401.358C 273.555 401.621 273.768 401.834 274.031 401.834C 274.042 401.834 274.051 401.828 274.061 401.827C 274.06 401.838 274.055 401.847 274.055 401.858C 274.055 402.121 274.268 402.334 274.531 402.334C 274.793 402.334 275.006 402.121 275.006 401.858C 275.006 401.847 275.001 401.838 275 401.827C 275.011 401.828 275.02 401.834 275.031 401.834C 275.293 401.834 275.506 401.621 275.506 401.358C 275.506 401.096 275.293 400.883 275.031 400.883zM 274.5 401.39C 274.501 401.379 274.506 401.37 274.506 401.358C 274.506 401.347 274.501 401.338 274.5 401.327C 274.511 401.328 274.52 401.334 274.531 401.334C 274.542 401.334 274.551 401.328 274.561 401.327C 274.56 401.338 274.555 401.347 274.555 401.358C 274.555 401.37 274.56 401.379 274.561 401.39C 274.551 401.389 274.542 401.383 274.531 401.383C 274.52 401.383 274.511 401.389 274.5 401.39z"/>
		</g>
	</g>
</svg>
