<svg xmlns="http://www.w3.org/2000/svg" height="24" width="24">
    <g transform="matrix(1,0,0,-1,-264,408)" id="KDDI_D_">        <path d="M265 384h-1v1.2h1z"/>
        <path d="M266 384h-1v1.2h1z" fill="#f60"/>
        <path d="M267 384h-1v1.2h1z"/>
        <path d="M268 384h-1v1.2h1z" fill="#f60"/>
        <path d="M269 384h-1v1.2h1z"/>
        <path d="M270 384h-1v1.2h1z" fill="#f60"/>
        <path d="M271 384h-1v1.2h1z"/>
        <path d="M272 384h-1v1.2h1z" fill="#f60"/>
        <path d="M273 384h-1v1.2h1z"/>
        <path d="M274 384h-1v1.2h1z" fill="#f60"/>
        <path d="M275 384h-1v1.2h1z"/>
        <path d="M276 384h-1v1.2h1z" fill="#f60"/>
        <path d="M277 384h-1v1.2h1z"/>
        <path d="M278 384h-1v1.2h1z" fill="#f60"/>
        <path d="M279 384h-1v1.2h1z"/>
        <path d="M280 384h-1v1.2h1z" fill="#f60"/>
        <path d="M281 384h-1v1.2h1z"/>
        <path d="M282 384h-1v1.2h1z" fill="#f60"/>
        <path d="M283 384h-1v1.2h1z"/>
        <path d="M284 384h-1v1.2h1z" fill="#f60"/>
        <path d="M285 384h-1v1.2h1z"/>
        <path d="M286 384h-1v1.2h1z" fill="#f60"/>
        <path d="M287 384h-1v1.2h1z"/>
        <path d="M288 384h-1v1.2h1z" fill="#f60"/>
        <path d="M272.4 400.7c0-.3-.2-.5-.5-.5s-.6.2-.6.5v1c0 .3.3.6.6.6s.5-.3.5-.6zM268.7 400.7c0-.3-.3-.5-.6-.5s-.5.2-.5.5v1c0 .3.2.6.5.6s.6-.3.6-.6z" fill="#f96"/>
        <path d="M268.4 399.8c0-.6.4-1 1-1h1.2c.6 0 1 .4 1 1v2.9h-3.2z" fill="#fc9"/>
        <path d="M271.1 397.5h-2.2v2h2.2z" fill="#fc9"/>
        <path d="M271.1 397.5h-.9v2h.9z" fill="#f96"/>
        <path d="M269.5 400.8c0-.8.2-1.5.5-2h.6c.6 0 1 .4 1 1v2.9h-1.7c-.2-.6-.4-1.2-.4-1.9z" fill="#f96"/>
        <path d="M270.4 404.5h-.8c-.6 0-1.4-.8-1.4-1.8v-.1h3.6v.1c0 1-.8 1.8-1.4 1.8z"/>
        <path d="M270.5 404.2c0-.3-.2-.5-.5-.5s-.6.2-.6.5v3.3c0 .3.3.5.6.5s.5-.2.5-.5z"/>
        <path d="M272.1 392.3h-4.3V387h4.3z" fill="#00f"/>
        <path d="M272 385.2h-4v1h4z" fill="#009"/>
        <path d="M265.5 389c0 .6.5 1 1 1h2.4c.6 0 1-.4 1-1v-2.4c0-.5-.4-1-1-1h-2.4c-.5 0-1 .5-1 1z" fill="#00f"/>
        <path d="M268.9 390h-2.4c-.5 0-1-.4-1-1v-1.4c.6-.4 1.4-.6 2.3-.6.8 0 1.5.2 2.1.6v1.4c0 .6-.4 1-1 1z" fill="#03f"/>
        <path d="M265.5 389c0 .6.5 1 1 1h2.4c.6 0 1-.4 1-1v-2.4c0-.5-.4-1-1-1h-2.4c-.5 0-1 .5-1 1z" fill="none" stroke="#009"/>
        <path d="M270 389c0 .6.4 1 1 1h2.3c.6 0 1-.4 1-1v-2.4c0-.5-.4-1-1-1H271c-.6 0-1 .5-1 1z" fill="#00f"/>
        <path d="M273.3 390H271c-.6 0-1-.4-1-1v-1.4c.6-.4 1.3-.6 2.2-.6.8 0 1.5.2 2.1.6v1.4c0 .6-.4 1-1 1z" fill="#03f"/>
        <path d="M270 389c0 .6.4 1 1 1h2.3c.6 0 1-.4 1-1v-2.4c0-.5-.4-1-1-1H271c-.6 0-1 .5-1 1z" fill="none" stroke="#009"/>
        <path d="M273.2 392.5c-.6 1.4-2 2.2-2 2.2l.1-2.7s0-1.2.7-2 1.7-1.7 2.7-1.4c.9.3.6 3.1.6 4.7 0 1.7-1.8 4.9-2.8 4.9h-.8l-1.8-2.3-1.5 2.3h-1.1c-1 0-2.8-3.2-2.8-4.9 0-1.6-.3-4.4.7-4.7 1-.3 1.9.6 2.6 1.4.7.8.7 2 .7 2l.1 2.7s-1.3-.8-2-2.2" fill="#3c0"/>
        <path d="M272.5 397.3c1 0 2.8-3.2 2.8-4.9 0-.5.1-1 .1-1.6 0 .8-.1 1.8-.1 2.5 0 1.7-1.8 4.9-2.8 4.9h-.8l-.7-.9h1.5zM267.3 397.3H269l-.6.9h-1.1c-1 0-2.8-3.2-2.8-4.9 0-.7-.1-1.7 0-2.5v1.6c0 1.7 1.8 4.9 2.8 4.9z" fill="#3f0"/>
        <path d="M265.4 393c0 1.7 1.9 4.9 2.9 4.9h.3l-.2.3h-1.1c-1 0-2.8-3.2-2.8-4.9 0-1.6-.3-4.4.7-4.7.2-.1.4-.1.5-.1-.5.9-.3 3.1-.3 4.5z" fill="#3f0"/>
        <path d="M271 391.9h-2.1v2h2.1z" fill="#fc9"/>
        <path d="M271 391.9h-2.1v.7h2.1z" fill="#f96"/>
        <path d="M273.2 392.5c-.6 1.4-2 1.8-2 1.8l.1-2.3s0-1.2.7-2 1.7-1.7 2.7-1.4c.9.3.6 3.1.6 4.7 0 1.7-1.8 4.9-2.8 4.9h-.8l-1.8-2.3-1.5 2.3h-1.1c-1 0-2.8-3.2-2.8-4.9 0-1.6-.3-4.4.7-4.7 1-.3 1.9.6 2.6 1.4.7.8.7 2 .7 2l.1 2.3s-1.3-.4-2-1.8" fill="none" stroke="#090" stroke-linejoin="round"/>
        <path d="M268.5 398.3l1.4-2.9 1.6 2.9" fill="#9cf" stroke="#06c" stroke-linecap="round"/>
        <path d="M284.9 394.8h-5.8v-6.4h5.8z" fill="#f69"/>
        <path d="M283.9 385.2h-3.8v1.3h3.8z" fill="#f39"/>
        <path d="M286.3 389c0 .6-1 1-2.1 1h-4.9c-1.1 0-2-.4-2-1v-2.4c0-.5.9-1 2-1h4.9c1.1 0 2.1.5 2.1 1z" fill="#f6c"/>
        <path d="M279.3 390h4.9c1.1 0 2.1-.4 2.1-1v-1.4c-1.3-.4-2.8-.6-4.6-.6-1.7 0-3.2.2-4.4.6v1.4c0 .6.9 1 2 1z" fill="#f9c"/>
        <path d="M286.3 389c0 .6-1 1-2.1 1h-4.9c-1.1 0-2-.4-2-1v-2.4c0-.5.9-1 2-1h4.9c1.1 0 2.1.5 2.1 1z" fill="none" stroke="#f39"/>
        <path d="M281.8 397.8c3.5 0 3.9 1 4.3 1.7.5.9.9 3.5 0 4.8-.8 1.2-3 1.6-4.3 1.6-1.4 0-3.5-.4-4.3-1.6-.9-1.3-.6-3.9-.1-4.8.4-.7.9-1.7 4.4-1.7z"/>
        <path d="M278 403.9c.8 1.2 3 1.6 4.3 1.6 1 0 2.5-.2 3.5-.8-1 .9-2.8 1.2-4 1.2-1.4 0-3.5-.4-4.3-1.6-.9-1.3-.6-3.9-.1-4.8.2-.3.4-.8 1-1.1-.2.2-.3.5-.4.7-.5.9-.9 3.4 0 4.8z" fill="#333"/>
        <path d="M282.6 396.9h-1.7v2.1h1.7z" fill="#fc9"/>
        <path d="M282.6 396.9h-.6v2.1h.6z" fill="#f96"/>
        <path d="M283.7 400.6c0-1.4-.9-2.5-1.9-2.5-1.1 0-2 1.1-2 2.5s.9 2.5 2 2.5c1 0 1.9-1.1 1.9-2.5z" fill="#fc9"/>
        <path d="M282 403.1c-.5-.6-.8-1.6-.8-2.7 0-.9.2-1.7.6-2.3 1.1 0 1.9 1.1 1.9 2.5 0 1.3-.7 2.3-1.7 2.5z" fill="#f96"/>
        <path d="M283 404.8c.3.8.9 2.7.6 2.8-.2.1-.7-.5-1.3-1.2-.1.8-.3 1.6-.5 1.6s-.4-.8-.6-1.6c-.5.7-1.1 1.3-1.3 1.2-.3-.2.4-2 .8-2.8-.1 0-.2-.1-.2-.2 0-.3.6-.6 1.3-.6.7 0 1.3.3 1.3.6 0 .1-.1.2-.1.2z" fill="#fc0"/>
        <path d="M285.1 392l-1.9 2v-2.5l1.7-1.7c.6-.4 1.7-1.5 2.4-1 .6.5-.2 2.5-.2 2.5s-.6 2.2-.7 3.5c-.1 1.4-.9 2.4-1.6 2.7-.6.3-1.9.2-1.9.2l-1.1-1.9-1.2 1.9s-1.3.1-1.9-.2c-.7-.3-1.5-1.3-1.6-2.7-.1-1.3-.7-3.5-.7-3.5s-.8-2-.1-2.5c.6-.5 1.8.6 2.3 1 .9.9 1.8 1.7 1.8 1.7v2.5l-2-2" fill="#f69"/>
        <path d="M283.7 397.1s1.2.1 1.9-.2c-.3.3-.5.5-.8.6-.6.3-1.9.2-1.9.2l-1.2-2.3.8-.2zM277.2 390.8s.6 2.1.6 3.5c.1 1.3 1 2.3 1.6 2.6.5.2 1.1.2 1.5.2l-.3.6s-1.3.1-1.9-.2c-.7-.3-1.5-1.3-1.6-2.7-.1-1.3-.7-3.5-.7-3.5s-.8-2-.1-2.5c.1-.1.3-.1.5-.1-.1.8.4 2.1.4 2.1z" fill="#f9c"/>
        <path d="M281.8 395.8l.5-2.7" fill="none" stroke="#f06" stroke-linejoin="round"/>
        <path d="M282.8 391.7h-2.2v2h2.2z" fill="#fc9"/>
        <path d="M282.8 391.7h-2.2v.7h2.2z" fill="#f96"/>
        <path d="M285.1 392c-.7 2-1.9 2-1.9 2v-2.5l1.7-1.7c.6-.4 1.7-1.5 2.4-1 .6.5-.2 2.5-.2 2.5s-.6 2.2-.7 3.5c-.1 1.4-.9 2.4-1.6 2.7-.6.3-1.9.2-1.9.2l-1.1-1.9-1.2 1.9s-1.3.1-1.9-.2c-.7-.3-1.5-1.3-1.6-2.7-.1-1.3-.7-3.5-.7-3.5s-.8-2-.1-2.5c.6-.5 1.8.6 2.3 1 .9.9 1.8 1.7 1.8 1.7v2.5s-1.5-.7-2-2" fill="none" stroke="#f06" stroke-linejoin="round"/>
    </g>
</svg>
