<svg xmlns="http://www.w3.org/2000/svg" width="24" height="24">
	<g transform="translate(-264,-386)" id="KDDI_D_478">
		<g>
			<path style="stroke:none; fill:none" d="M 288 409.89L 264 409.89L 264 385.89L 288 385.89L 288 409.89z"/>
		</g>
		<g>
			<path style="stroke:#c93; stroke-width:1; fill:none" d="M 286.5 408.89L 286.5 409.89"/>
			<path style="stroke:none; fill:#000" d="M 284 396.39C 284 397.39 284 401.862 284 402.39C 284 404.046 280.418 405.39 276 405.39C 271.582 405.39 268 404.046 268 402.39C 268 402.022 268 397.39 268 396.39"/>
			<path style="stroke:#666; stroke-width:1; fill:none" d="M 270 398.89L 270 404.39"/>
			<path style="stroke:#960; stroke-width:1; fill:none" d="M 286.5 395.89L 286.5 408.89"/>
			<path style="stroke:#960; stroke-width:1; fill:none" d="M 285.5 405.89L 285.5 408.89"/>
			<path style="stroke:#c93; stroke-width:1; fill:none" d="M 287.5 405.89L 287.5 408.89"/>
			<path style="stroke:#630; stroke-width:1; fill:none" d="M 286.5 404.862L 286.5 405.862"/>
			<path style="stroke:#300; stroke-width:1; fill:none" d="M 286.5 403.89L 286.5 404.89"/>
			<path style="stroke:#000; stroke-width:1; fill:none" d="M 284 396.39C 284 397.39 284 401.862 284 402.39C 284 404.046 280.418 405.39 276 405.39C 271.582 405.39 268 404.046 268 402.39C 268 402.022 268 397.39 268 396.39"/>
			<path style="stroke:none; fill:#633" d="M 278 402.89C 278 403.995 277.104 404.89 276 404.89C 274.896 404.89 274 403.995 274 402.89C 274 401.785 274.896 400.89 276 400.89C 277.104 400.89 278 401.785 278 402.89z"/>
			<path style="stroke:none; fill:#f90" d="M 277 402.89C 277 403.995 276.552 404.89 276 404.89C 275.448 404.89 275 403.995 275 402.89C 275 401.785 275.448 400.89 276 400.89C 276.552 400.89 277 401.785 277 402.89z"/>
			<path style="stroke:none; fill:#000" d="M 283.5 393.189C 281.5 391.89 277 389.39 276 389.39C 275 389.39 270.5 391.89 268.5 393.189C 266.799 394.293 265 395.89 265 395.89C 265 395.89 274.5 401.39 276 401.39C 277.5 401.39 287 395.89 287 395.89C 287 395.89 285.201 394.293 283.5 393.189z"/>
			<path style="stroke:#666; stroke-width:1; fill:none" d="M 265.495 395.173C 267.464 396.3 274.707 400.39 276 400.39C 277.292 400.39 284.522 396.307 286.5 395.177"/>
			<path style="stroke:#000; stroke-width:1; fill:none" d="M 283.5 393.189C 281.5 391.89 277 389.39 276 389.39C 275 389.39 270.5 391.89 268.5 393.189C 266.799 394.293 265 395.89 265 395.89C 265 395.89 274.5 401.39 276 401.39C 277.5 401.39 287 395.89 287 395.89C 287 395.89 285.201 394.293 283.5 393.189z"/>
		</g>
	</g>
</svg>
