<svg xmlns="http://www.w3.org/2000/svg" width="24" height="24">
	<g transform="translate(-264,-386)" id="KDDI_D_479">
		<g>
			<path style="stroke:none; fill:none" d="M 288 409.89L 264 409.89L 264 385.89L 288 385.89L 288 409.89z"/>
		</g>
		<g>
			<path style="stroke:none; fill:#c00" d="M 275.5 388.39C 276.25 387.64 277.5 386.39 279 386.39C 280.5 386.39 282 386.89 282 388.39C 282 389.89 282 391.89 282 391.89L 276 391.89L 275.5 388.39z"/>
			<path style="stroke:none; fill:#900" d="M 278 389.39L 276 391.89L 282 391.89C 282 391.89 282 391.89 282 390.39C 282 386.89 281.5 385.89 278 389.39z"/>
			<path style="stroke:#300; stroke-width:1; fill:none" d="M 275.5 388.39C 276.25 387.64 277.5 386.39 279 386.39C 280.5 386.39 282 386.89 282 388.39C 282 389.89 282 391.89 282 391.89L 276 391.89L 275.5 388.39z"/>
			<path style="stroke:none; fill:#f33" d="M 276 389.39C 279 389.39 280 389.39 281.5 389.39C 284 389.39 287.5 390.89 287.5 398.89C 287.5 406.89 283.5 408.39 281 408.39C 278.5 408.39 276.5 408.39 276.5 408.39L 276.5 405.39C 276.5 405.39 279.5 405.39 281 405.39C 282.5 405.39 285 405.39 285 399.39C 285 393.39 283.812 392.39 279.5 392.39L 276 389.39z"/>
			<path style="stroke:none; fill:#c00" d="M 287.436 400.39C 287.436 396.39 286 392.39 282 392.39C 280.84 392.39 279.5 392.39 279.5 392.39C 283.812 392.39 285 393.39 285 399.39C 285 405.39 282.5 405.39 281 405.39C 279.5 405.39 276.5 405.39 276.5 405.39L 276.5 406.89L 276.5 408.39C 276.5 408.39 278.5 408.39 281 408.39C 283.333 408.39 286.961 407.067 287.436 400.39z"/>
			<path style="stroke:none; fill:#900" d="M 285.767 405.906L 285 399.39C 285 405.39 282.5 405.39 281 405.39C 279.5 405.39 276.5 405.39 276.5 405.39L 276.5 406.89L 276.5 408.39C 276.5 408.39 278.5 408.39 281 408.39C 282.445 408.39 284.385 407.879 285.767 405.906z"/>
			<path style="stroke:#300; stroke-width:1; fill:none" d="M 276.5 390.39C 276.5 390.39 279.154 389.39 280 389.39C 280.724 389.39 280.809 389.39 281.5 389.39C 284 389.39 287.5 390.89 287.5 398.89C 287.5 406.89 283.5 408.39 281 408.39C 278.5 408.39 276.5 408.39 276.5 408.39L 276.5 405.39C 276.5 405.39 279.5 405.39 281 405.39C 282.5 405.39 285 405.39 285 399.39C 285 393.39 283.812 392.39 279.5 392.39L 276.5 390.39z"/>
			<path style="stroke:none; fill:#c00" d="M 264.5 401.89L 272.25 409.64L 273.5 409.64L 281 407.89C 281 407.89 281 395.39 281 394.39C 281 393.39 280 391.89 279 390.89C 278.25 390.14 276.25 388.14 275.5 387.39C 274.5 386.39 273 386.39 271.5 386.39C 270.5 386.39 270 386.39 269 386.39C 266.5 386.39 264.5 388.39 264.5 390.39C 264.5 390.89 264.5 401.89 264.5 401.89z"/>
			<path style="stroke:none; fill:#f00" d="M 273.5 409.64L 281 407.89C 281 407.89 281 402.151 281 398.14L 269.25 386.39C 269.165 386.39 269.093 386.39 269 386.39C 266.5 386.39 264.5 388.39 264.5 390.39C 264.5 390.89 264.5 401.89 264.5 401.89L 272.25 409.64L 273.5 409.64z"/>
			<path style="stroke:none; fill:#f33" d="M 273.5 409.64L 281 407.89C 281 407.89 281 403.634 281 399.89L 267.705 386.595C 265.848 387.135 264.5 388.753 264.5 390.39C 264.5 390.89 264.5 401.89 264.5 401.89L 272.25 409.64L 273.5 409.64z"/>
			<path style="stroke:none; fill:#f00" d="M 264.5 390.39C 264.5 390.89 264.5 401.89 264.5 401.89L 272.25 409.64L 273 409.64L 273 395.89L 265.308 388.197C 264.801 388.853 264.5 389.62 264.5 390.39z"/>
			<path style="stroke:none; fill:#c00" d="M 264.5 390.39C 264.5 390.89 264.5 401.89 264.5 401.89L 272.25 409.64L 273 409.64L 273 404.89L 265.037 388.618C 264.705 389.172 264.5 389.777 264.5 390.39z"/>
			<path style="stroke:none; fill:#900" d="M 264.5 401.89L 272.25 409.64L 273 409.64L 273 409.39L 264.5 392.02C 264.5 395.204 264.5 401.89 264.5 401.89z"/>
			<path style="stroke:none; fill:#f99" d="M 266.058 387.451L 274.497 395.89L 275.027 395.359L 266.688 387.02C 266.463 387.148 266.254 387.292 266.058 387.451z"/>
			<path style="stroke:#300; stroke-width:1; fill:none" d="M 264.5 401.89L 272.25 409.64L 273.5 409.64L 281 407.89C 281 407.89 281 395.39 281 394.39C 281 393.39 280 391.89 279 390.89C 278.25 390.14 276.25 388.14 275.5 387.39C 274.5 386.39 273 386.39 271.5 386.39C 270.5 386.39 270 386.39 269 386.39C 266.5 386.39 264.5 388.39 264.5 390.39C 264.5 390.89 264.5 401.89 264.5 401.89z"/>
			<g>
				<path style="stroke:none; fill:#900" d="M 273 395.89C 273 397.172 273 406.859 273 409.64L 273.5 409.64L 281 407.89C 281 407.89 281 399.454 281 395.89C 281 394.39 280.5 391.89 277.5 391.89C 274.5 391.89 273 394.39 273 395.89z"/>
				<path style="stroke:none; fill:#c00" d="M 274.5 395.89L 274.5 407.866L 281 406.39L 281 397.89C 281 395.39 280.812 393.39 277.5 393.39C 275.363 393.39 274.5 395.154 274.5 395.89z"/>
				<path style="stroke:none; fill:#f00" d="M 275.5 396.89L 275.5 407.626L 279.587 406.72L 279.587 395.89L 275.5 396.89z"/>
				<path style="stroke:#600; stroke-width:1; fill:none" d="M 273.312 397.501L 280.812 395.89"/>
				<path style="stroke:#600; stroke-width:1; fill:none" d="M 273.312 399.612L 280.812 398.001"/>
				<path style="stroke:#300; stroke-width:1; fill:none" d="M 273 395.89C 273 397.172 273 406.859 273 409.64L 273.5 409.64L 281 407.89C 281 407.89 281 399.454 281 395.89C 281 394.39 280.5 391.89 277.5 391.89C 274.5 391.89 273 394.39 273 395.89z"/>
			</g>
		</g>
	</g>
</svg>
