<svg xmlns="http://www.w3.org/2000/svg" width="24" height="24">
	<g transform="translate(-264,-386)" id="KDDI_D_480">
		<g>
			<path style="stroke:none; fill:none" d="M 288 409.89L 264 409.89L 264 385.89L 288 385.89L 288 409.89z"/>
		</g>
		<g>
			<path style="stroke:#666; stroke-width:1; fill:none" d="M 269.5 388.89L 266 392.39L 269.5 395.89"/>
			<path style="stroke:none; fill:#06f" d="M 286 391.39C 287 391.39 287 391.39 287 390.39C 288 390.39 288 389.39 288 388.89C 288 388.39 288 388.39 288 388.39L 283.5 388.39L 269.5 388.39L 269.5 396.39L 283.5 396.39L 288 396.39C 288 396.39 288 396.39 288 395.89C 288 395.39 288 394.39 287 394.39C 287 393.39 287 393.39 286 393.39C 286 392.89 286 392.39 285 392.39C 286 392.39 286 391.89 286 391.39z"/>
			<path style="stroke:none; fill:#3ff" d="M 275 392.39C 275 391.558 275 390.031 275 388.39L 269.5 388.39L 269.5 396.39L 272.902 396.39C 274.44 395.473 275 393.512 275 392.39z"/>
			<path style="stroke:none; fill:#3ff" d="M 275.976 390.39C 275.976 390.652 275.763 390.865 275.5 390.865C 275.371 390.865 275.024 390.89 275.024 390.89C 275.024 390.89 275.024 390.523 275.024 390.39C 275.024 390.258 275.024 389.89 275.024 389.89C 275.024 389.89 275.369 389.915 275.5 389.915C 275.763 389.915 275.976 390.127 275.976 390.39z"/>
			<path style="stroke:none; fill:#fff" d="M 275.976 392.39C 275.976 392.652 275.763 392.865 275.5 392.865C 275.371 392.865 275.024 392.89 275.024 392.89C 275.024 392.89 275.024 392.523 275.024 392.39C 275.024 392.258 275.024 391.89 275.024 391.89C 275.024 391.89 275.369 391.915 275.5 391.915C 275.763 391.915 275.976 392.127 275.976 392.39z"/>
			<path style="stroke:none; fill:#3ff" d="M 275.976 394.39C 275.976 394.652 275.763 394.865 275.5 394.865C 275.371 394.865 275.024 394.89 275.024 394.89C 275.024 394.89 275.024 394.523 275.024 394.39C 275.024 394.258 275.024 393.89 275.024 393.89C 275.024 393.89 275.369 393.915 275.5 393.915C 275.763 393.915 275.976 394.127 275.976 394.39z"/>
			<path style="stroke:none; fill:#3ff" d="M 276.976 393.39C 276.976 393.652 276.763 393.865 276.5 393.865C 276.371 393.865 276.024 393.89 276.024 393.89C 276.024 393.89 276.024 393.523 276.024 393.39C 276.024 393.258 276.024 392.89 276.024 392.89C 276.024 392.89 276.369 392.915 276.5 392.915C 276.763 392.915 276.976 393.127 276.976 393.39z"/>
			<path style="stroke:none; fill:#3ff" d="M 276.976 395.39C 276.976 395.652 276.763 395.865 276.5 395.865C 276.371 395.865 276.024 395.89 276.024 395.89C 276.024 395.89 276.024 395.523 276.024 395.39C 276.024 395.258 276.024 394.89 276.024 394.89C 276.024 394.89 276.369 394.915 276.5 394.915C 276.763 394.915 276.976 395.127 276.976 395.39z"/>
			<path style="stroke:none; fill:#3ff" d="M 276.976 391.39C 276.976 391.652 276.763 391.865 276.5 391.865C 276.371 391.865 276.024 391.89 276.024 391.89C 276.024 391.89 276.024 391.523 276.024 391.39C 276.024 391.258 276.024 390.89 276.024 390.89C 276.024 390.89 276.369 390.915 276.5 390.915C 276.763 390.915 276.976 391.127 276.976 391.39z"/>
			<path style="stroke:none; fill:#3ff" d="M 276.976 389.39C 276.976 389.652 276.763 389.865 276.5 389.865C 276.371 389.865 276.024 389.89 276.024 389.89C 276.024 389.89 276.024 389.523 276.024 389.39C 276.024 389.258 276.024 388.89 276.024 388.89C 276.024 388.89 276.369 388.915 276.5 388.915C 276.763 388.915 276.976 389.127 276.976 389.39z"/>
			<path style="stroke:none; fill:#3ff" d="M 277.951 390.39C 277.951 390.652 277.738 390.865 277.476 390.865C 277.347 390.865 277 390.89 277 390.89C 277 390.89 277 390.523 277 390.39C 277 390.258 277 389.89 277 389.89C 277 389.89 277.344 389.915 277.476 389.915C 277.738 389.915 277.951 390.127 277.951 390.39z"/>
			<path style="stroke:none; fill:#fff" d="M 277.951 392.39C 277.951 392.652 277.738 392.865 277.476 392.865C 277.347 392.865 277 392.89 277 392.89C 277 392.89 277 392.523 277 392.39C 277 392.258 277 391.89 277 391.89C 277 391.89 277.344 391.915 277.476 391.915C 277.738 391.915 277.951 392.127 277.951 392.39z"/>
			<path style="stroke:none; fill:#3ff" d="M 277.951 394.39C 277.951 394.652 277.738 394.865 277.476 394.865C 277.347 394.865 277 394.89 277 394.89C 277 394.89 277 394.523 277 394.39C 277 394.258 277 393.89 277 393.89C 277 393.89 277.344 393.915 277.476 393.915C 277.738 393.915 277.951 394.127 277.951 394.39z"/>
			<path style="stroke:none; fill:#3ff" d="M 278.951 393.39C 278.951 393.652 278.738 393.865 278.476 393.865C 278.347 393.865 278 393.89 278 393.89C 278 393.89 278 393.523 278 393.39C 278 393.258 278 392.89 278 392.89C 278 392.89 278.344 392.915 278.476 392.915C 278.738 392.915 278.951 393.127 278.951 393.39z"/>
			<path style="stroke:none; fill:#3ff" d="M 278.951 395.39C 278.951 395.652 278.738 395.865 278.476 395.865C 278.347 395.865 278 395.89 278 395.89C 278 395.89 278 395.523 278 395.39C 278 395.258 278 394.89 278 394.89C 278 394.89 278.344 394.915 278.476 394.915C 278.738 394.915 278.951 395.127 278.951 395.39z"/>
			<path style="stroke:none; fill:#3ff" d="M 278.951 391.39C 278.951 391.652 278.738 391.865 278.476 391.865C 278.347 391.865 278 391.89 278 391.89C 278 391.89 278 391.523 278 391.39C 278 391.258 278 390.89 278 390.89C 278 390.89 278.344 390.915 278.476 390.915C 278.738 390.915 278.951 391.127 278.951 391.39z"/>
			<path style="stroke:none; fill:#3ff" d="M 278.951 389.39C 278.951 389.652 278.738 389.865 278.476 389.865C 278.347 389.865 278 389.89 278 389.89C 278 389.89 278 389.523 278 389.39C 278 389.258 278 388.89 278 388.89C 278 388.89 278.344 388.915 278.476 388.915C 278.738 388.915 278.951 389.127 278.951 389.39z"/>
			<path style="stroke:none; fill:#3ff" d="M 279.951 390.39C 279.951 390.652 279.738 390.865 279.476 390.865C 279.347 390.865 279 390.89 279 390.89C 279 390.89 279 390.523 279 390.39C 279 390.258 279 389.89 279 389.89C 279 389.89 279.344 389.915 279.476 389.915C 279.738 389.915 279.951 390.127 279.951 390.39z"/>
			<path style="stroke:none; fill:#fff" d="M 279.951 392.39C 279.951 392.652 279.738 392.865 279.476 392.865C 279.347 392.865 279 392.89 279 392.89C 279 392.89 279 392.523 279 392.39C 279 392.258 279 391.89 279 391.89C 279 391.89 279.344 391.915 279.476 391.915C 279.738 391.915 279.951 392.127 279.951 392.39z"/>
			<path style="stroke:none; fill:#3ff" d="M 279.951 394.39C 279.951 394.652 279.738 394.865 279.476 394.865C 279.347 394.865 279 394.89 279 394.89C 279 394.89 279 394.523 279 394.39C 279 394.258 279 393.89 279 393.89C 279 393.89 279.344 393.915 279.476 393.915C 279.738 393.915 279.951 394.127 279.951 394.39z"/>
			<path style="stroke:none; fill:#3ff" d="M 280.951 393.39C 280.951 393.652 280.738 393.865 280.476 393.865C 280.347 393.865 280 393.89 280 393.89C 280 393.89 280 393.523 280 393.39C 280 393.258 280 392.89 280 392.89C 280 392.89 280.344 392.915 280.476 392.915C 280.738 392.915 280.951 393.127 280.951 393.39z"/>
			<path style="stroke:none; fill:#3ff" d="M 280.951 395.39C 280.951 395.652 280.738 395.865 280.476 395.865C 280.347 395.865 280 395.89 280 395.89C 280 395.89 280 395.523 280 395.39C 280 395.258 280 394.89 280 394.89C 280 394.89 280.344 394.915 280.476 394.915C 280.738 394.915 280.951 395.127 280.951 395.39z"/>
			<path style="stroke:none; fill:#3ff" d="M 280.951 391.39C 280.951 391.652 280.738 391.865 280.476 391.865C 280.347 391.865 280 391.89 280 391.89C 280 391.89 280 391.523 280 391.39C 280 391.258 280 390.89 280 390.89C 280 390.89 280.344 390.915 280.476 390.915C 280.738 390.915 280.951 391.127 280.951 391.39z"/>
			<path style="stroke:none; fill:#3ff" d="M 280.951 389.39C 280.951 389.652 280.738 389.865 280.476 389.865C 280.347 389.865 280 389.89 280 389.89C 280 389.89 280 389.523 280 389.39C 280 389.258 280 388.89 280 388.89C 280 388.89 280.344 388.915 280.476 388.915C 280.738 388.915 280.951 389.127 280.951 389.39z"/>
			<path style="stroke:none; fill:#3ff" d="M 281.951 390.39C 281.951 390.652 281.738 390.865 281.476 390.865C 281.347 390.865 281 390.89 281 390.89C 281 390.89 281 390.523 281 390.39C 281 390.258 281 389.89 281 389.89C 281 389.89 281.344 389.915 281.476 389.915C 281.738 389.915 281.951 390.127 281.951 390.39z"/>
			<path style="stroke:none; fill:#fff" d="M 281.951 392.39C 281.951 392.652 281.738 392.865 281.476 392.865C 281.347 392.865 281 392.89 281 392.89C 281 392.89 281 392.523 281 392.39C 281 392.258 281 391.89 281 391.89C 281 391.89 281.344 391.915 281.476 391.915C 281.738 391.915 281.951 392.127 281.951 392.39z"/>
			<path style="stroke:none; fill:#3ff" d="M 281.951 394.39C 281.951 394.652 281.738 394.865 281.476 394.865C 281.347 394.865 281 394.89 281 394.89C 281 394.89 281 394.523 281 394.39C 281 394.258 281 393.89 281 393.89C 281 393.89 281.344 393.915 281.476 393.915C 281.738 393.915 281.951 394.127 281.951 394.39z"/>
			<path style="stroke:none; fill:#3ff" d="M 282.951 393.39C 282.951 393.652 282.738 393.865 282.476 393.865C 282.347 393.865 282 393.89 282 393.89C 282 393.89 282 393.523 282 393.39C 282 393.258 282 392.89 282 392.89C 282 392.89 282.344 392.915 282.476 392.915C 282.738 392.915 282.951 393.127 282.951 393.39z"/>
			<path style="stroke:none; fill:#3ff" d="M 282.951 395.39C 282.951 395.652 282.738 395.865 282.476 395.865C 282.347 395.865 282 395.89 282 395.89C 282 395.89 282 395.523 282 395.39C 282 395.258 282 394.89 282 394.89C 282 394.89 282.344 394.915 282.476 394.915C 282.738 394.915 282.951 395.127 282.951 395.39z"/>
			<path style="stroke:none; fill:#3ff" d="M 284.976 395.39C 284.976 395.652 284.763 395.865 284.5 395.865C 284.371 395.865 284.024 395.89 284.024 395.89C 284.024 395.89 284.024 395.523 284.024 395.39C 284.024 395.258 284.024 394.89 284.024 394.89C 284.024 394.89 284.369 394.915 284.5 394.915C 284.763 394.915 284.976 395.127 284.976 395.39z"/>
			<path style="stroke:none; fill:#3ff" d="M 283.976 394.39C 283.976 394.652 283.763 394.865 283.5 394.865C 283.371 394.865 283.024 394.89 283.024 394.89C 283.024 394.89 283.024 394.523 283.024 394.39C 283.024 394.258 283.024 393.89 283.024 393.89C 283.024 393.89 283.369 393.915 283.5 393.915C 283.763 393.915 283.976 394.127 283.976 394.39z"/>
			<path style="stroke:none; fill:#3ff" d="M 282.951 391.39C 282.951 391.652 282.738 391.865 282.476 391.865C 282.347 391.865 282 391.89 282 391.89C 282 391.89 282 391.523 282 391.39C 282 391.258 282 390.89 282 390.89C 282 390.89 282.344 390.915 282.476 390.915C 282.738 390.915 282.951 391.127 282.951 391.39z"/>
			<path style="stroke:none; fill:#3ff" d="M 283.976 390.39C 283.976 390.652 283.763 390.865 283.5 390.865C 283.371 390.865 283.024 390.89 283.024 390.89C 283.024 390.89 283.024 390.523 283.024 390.39C 283.024 390.258 283.024 389.89 283.024 389.89C 283.024 389.89 283.369 389.915 283.5 389.915C 283.763 389.915 283.976 390.127 283.976 390.39z"/>
			<path style="stroke:none; fill:#fff" d="M 283.976 392.39C 283.976 392.652 283.763 392.865 283.5 392.865C 283.371 392.865 283.024 392.89 283.024 392.89C 283.024 392.89 283.024 392.523 283.024 392.39C 283.024 392.258 283.024 391.89 283.024 391.89C 283.024 391.89 283.369 391.915 283.5 391.915C 283.763 391.915 283.976 392.127 283.976 392.39z"/>
			<path style="stroke:none; fill:#3ff" d="M 282.951 389.39C 282.951 389.652 282.738 389.865 282.476 389.865C 282.347 389.865 282 389.89 282 389.89C 282 389.89 282 389.523 282 389.39C 282 389.258 282 388.89 282 388.89C 282 388.89 282.344 388.915 282.476 388.915C 282.738 388.915 282.951 389.127 282.951 389.39z"/>
			<path style="stroke:none; fill:#3ff" d="M 284.976 389.39C 284.976 389.652 284.763 389.865 284.5 389.865C 284.371 389.865 284.024 389.89 284.024 389.89C 284.024 389.89 284.024 389.523 284.024 389.39C 284.024 389.258 284.024 388.89 284.024 388.89C 284.024 388.89 284.369 388.915 284.5 388.915C 284.763 388.915 284.976 389.127 284.976 389.39z"/>
			<path style="stroke:none; fill:#3ff" d="M 284.976 393.39C 284.976 393.652 284.763 393.865 284.5 393.865C 284.371 393.865 284.024 393.89 284.024 393.89C 284.024 393.89 284.024 393.523 284.024 393.39C 284.024 393.258 284.024 392.89 284.024 392.89C 284.024 392.89 284.369 392.915 284.5 392.915C 284.763 392.915 284.976 393.127 284.976 393.39z"/>
			<path style="stroke:none; fill:#3ff" d="M 287 395.39C 287 395.652 286.787 395.865 286.524 395.865C 286.396 395.865 286.049 395.89 286.049 395.89C 286.049 395.89 286.049 395.523 286.049 395.39C 286.049 395.258 286.049 394.89 286.049 394.89C 286.049 394.89 286.393 394.915 286.524 394.915C 286.787 394.915 287 395.127 287 395.39z"/>
			<path style="stroke:none; fill:#3ff" d="M 286 394.39C 286 394.652 285.787 394.865 285.524 394.865C 285.396 394.865 285.049 394.89 285.049 394.89C 285.049 394.89 285.049 394.523 285.049 394.39C 285.049 394.258 285.049 393.89 285.049 393.89C 285.049 393.89 285.393 393.915 285.524 393.915C 285.787 393.915 286 394.127 286 394.39z"/>
			<path style="stroke:none; fill:#3ff" d="M 284.976 391.39C 284.976 391.652 284.763 391.865 284.5 391.865C 284.371 391.865 284.024 391.89 284.024 391.89C 284.024 391.89 284.024 391.523 284.024 391.39C 284.024 391.258 284.024 390.89 284.024 390.89C 284.024 390.89 284.369 390.915 284.5 390.915C 284.763 390.915 284.976 391.127 284.976 391.39z"/>
			<path style="stroke:none; fill:#3ff" d="M 286 390.39C 286 390.652 285.787 390.865 285.524 390.865C 285.396 390.865 285.049 390.89 285.049 390.89C 285.049 390.89 285.049 390.523 285.049 390.39C 285.049 390.258 285.049 389.89 285.049 389.89C 285.049 389.89 285.393 389.915 285.524 389.915C 285.787 389.915 286 390.127 286 390.39z"/>
			<path style="stroke:none; fill:#3ff" d="M 287 389.39C 287 389.652 286.787 389.865 286.524 389.865C 286.396 389.865 286.049 389.89 286.049 389.89C 286.049 389.89 286.049 389.523 286.049 389.39C 286.049 389.258 286.049 388.89 286.049 388.89C 286.049 388.89 286.393 388.915 286.524 388.915C 286.787 388.915 287 389.127 287 389.39z"/>
			<path style="stroke:#666; stroke-width:1; fill:none" d="M 274.5 390.39C 274.5 392.192 274.5 391.476 274.5 392.89C 274.5 393.89 273.5 396.39 271.5 396.39"/>
			<path style="stroke:#009; stroke-width:1; fill:none" d="M 288 396.39L 269.5 396.39L 269.5 388.39L 288 388.39"/>
			<path style="stroke:none; fill:#fff" d="M 274.024 391.39C 274.024 392.771 273.129 393.89 272.024 393.89C 270.92 393.89 270.024 392.771 270.024 391.39C 270.024 390.009 270.92 388.89 272.024 388.89C 273.129 388.89 274.024 390.009 274.024 391.39z"/>
			<path style="stroke:none; fill:#000" d="M 273.024 391.39C 273.024 392.218 272.577 392.89 272.024 392.89C 271.472 392.89 271.024 392.218 271.024 391.39C 271.024 390.561 271.472 389.89 272.024 389.89C 272.577 389.89 273.024 390.561 273.024 391.39z"/>
			<path style="stroke:none; fill:#fff" d="M 272 391.39C 272 391.652 271.787 391.865 271.524 391.865C 271.262 391.865 271.049 391.652 271.049 391.39C 271.049 391.127 271.262 390.915 271.524 390.915C 271.787 390.915 272 391.127 272 391.39z"/>
			<path style="stroke:#666; stroke-width:1; fill:none" d="M 269.5 399.89L 266 403.39L 269.5 406.89"/>
			<path style="stroke:none; fill:#900" d="M 286 402.39C 287 402.39 287 402.39 287 401.39C 288 401.39 288 400.39 288 399.89C 288 399.39 288 399.39 288 399.39L 283.5 399.39L 269.5 399.39L 269.5 407.39L 283.5 407.39L 288 407.39C 288 407.39 288 407.39 288 406.89C 288 406.39 288 405.39 287 405.39C 287 404.39 287 404.39 286 404.39C 286 403.89 286 403.39 285 403.39C 286 403.39 286 402.89 286 402.39z"/>
			<path style="stroke:none; fill:#f9f" d="M 275 403.39C 275 402.558 275 401.031 275 399.39L 269.5 399.39L 269.5 407.39L 272.902 407.39C 274.44 406.473 275 404.512 275 403.39z"/>
			<path style="stroke:none; fill:#f9f" d="M 275.976 401.39C 275.976 401.652 275.763 401.865 275.5 401.865C 275.371 401.865 275.024 401.89 275.024 401.89C 275.024 401.89 275.024 401.523 275.024 401.39C 275.024 401.258 275.024 400.89 275.024 400.89C 275.024 400.89 275.369 400.915 275.5 400.915C 275.763 400.915 275.976 401.127 275.976 401.39z"/>
			<path style="stroke:none; fill:#fff" d="M 275.976 403.39C 275.976 403.652 275.763 403.865 275.5 403.865C 275.371 403.865 275.024 403.89 275.024 403.89C 275.024 403.89 275.024 403.523 275.024 403.39C 275.024 403.258 275.024 402.89 275.024 402.89C 275.024 402.89 275.369 402.915 275.5 402.915C 275.763 402.915 275.976 403.127 275.976 403.39z"/>
			<path style="stroke:none; fill:#f9f" d="M 275.976 405.39C 275.976 405.652 275.763 405.865 275.5 405.865C 275.371 405.865 275.024 405.89 275.024 405.89C 275.024 405.89 275.024 405.523 275.024 405.39C 275.024 405.258 275.024 404.89 275.024 404.89C 275.024 404.89 275.369 404.915 275.5 404.915C 275.763 404.915 275.976 405.127 275.976 405.39z"/>
			<path style="stroke:none; fill:#f9f" d="M 276.976 404.39C 276.976 404.652 276.763 404.865 276.5 404.865C 276.371 404.865 276.024 404.89 276.024 404.89C 276.024 404.89 276.024 404.523 276.024 404.39C 276.024 404.258 276.024 403.89 276.024 403.89C 276.024 403.89 276.369 403.915 276.5 403.915C 276.763 403.915 276.976 404.127 276.976 404.39z"/>
			<path style="stroke:none; fill:#f9f" d="M 276.976 406.39C 276.976 406.652 276.763 406.865 276.5 406.865C 276.371 406.865 276.024 406.89 276.024 406.89C 276.024 406.89 276.024 406.523 276.024 406.39C 276.024 406.258 276.024 405.89 276.024 405.89C 276.024 405.89 276.369 405.915 276.5 405.915C 276.763 405.915 276.976 406.127 276.976 406.39z"/>
			<path style="stroke:none; fill:#f9f" d="M 276.976 402.39C 276.976 402.652 276.763 402.865 276.5 402.865C 276.371 402.865 276.024 402.89 276.024 402.89C 276.024 402.89 276.024 402.523 276.024 402.39C 276.024 402.258 276.024 401.89 276.024 401.89C 276.024 401.89 276.369 401.915 276.5 401.915C 276.763 401.915 276.976 402.127 276.976 402.39z"/>
			<path style="stroke:none; fill:#f9f" d="M 276.976 400.39C 276.976 400.652 276.763 400.865 276.5 400.865C 276.371 400.865 276.024 400.89 276.024 400.89C 276.024 400.89 276.024 400.523 276.024 400.39C 276.024 400.258 276.024 399.89 276.024 399.89C 276.024 399.89 276.369 399.915 276.5 399.915C 276.763 399.915 276.976 400.127 276.976 400.39z"/>
			<path style="stroke:none; fill:#f9f" d="M 277.951 401.39C 277.951 401.652 277.738 401.865 277.476 401.865C 277.347 401.865 277 401.89 277 401.89C 277 401.89 277 401.523 277 401.39C 277 401.258 277 400.89 277 400.89C 277 400.89 277.344 400.915 277.476 400.915C 277.738 400.915 277.951 401.127 277.951 401.39z"/>
			<path style="stroke:none; fill:#fff" d="M 277.951 403.39C 277.951 403.652 277.738 403.865 277.476 403.865C 277.347 403.865 277 403.89 277 403.89C 277 403.89 277 403.523 277 403.39C 277 403.258 277 402.89 277 402.89C 277 402.89 277.344 402.915 277.476 402.915C 277.738 402.915 277.951 403.127 277.951 403.39z"/>
			<path style="stroke:none; fill:#f9f" d="M 277.951 405.39C 277.951 405.652 277.738 405.865 277.476 405.865C 277.347 405.865 277 405.89 277 405.89C 277 405.89 277 405.523 277 405.39C 277 405.258 277 404.89 277 404.89C 277 404.89 277.344 404.915 277.476 404.915C 277.738 404.915 277.951 405.127 277.951 405.39z"/>
			<path style="stroke:none; fill:#f9f" d="M 278.951 404.39C 278.951 404.652 278.738 404.865 278.476 404.865C 278.347 404.865 278 404.89 278 404.89C 278 404.89 278 404.523 278 404.39C 278 404.258 278 403.89 278 403.89C 278 403.89 278.344 403.915 278.476 403.915C 278.738 403.915 278.951 404.127 278.951 404.39z"/>
			<path style="stroke:none; fill:#f9f" d="M 278.951 406.39C 278.951 406.652 278.738 406.865 278.476 406.865C 278.347 406.865 278 406.89 278 406.89C 278 406.89 278 406.523 278 406.39C 278 406.258 278 405.89 278 405.89C 278 405.89 278.344 405.915 278.476 405.915C 278.738 405.915 278.951 406.127 278.951 406.39z"/>
			<path style="stroke:none; fill:#f9f" d="M 278.951 402.39C 278.951 402.652 278.738 402.865 278.476 402.865C 278.347 402.865 278 402.89 278 402.89C 278 402.89 278 402.523 278 402.39C 278 402.258 278 401.89 278 401.89C 278 401.89 278.344 401.915 278.476 401.915C 278.738 401.915 278.951 402.127 278.951 402.39z"/>
			<path style="stroke:none; fill:#f9f" d="M 278.951 400.39C 278.951 400.652 278.738 400.865 278.476 400.865C 278.347 400.865 278 400.89 278 400.89C 278 400.89 278 400.523 278 400.39C 278 400.258 278 399.89 278 399.89C 278 399.89 278.344 399.915 278.476 399.915C 278.738 399.915 278.951 400.127 278.951 400.39z"/>
			<path style="stroke:none; fill:#f9f" d="M 279.951 401.39C 279.951 401.652 279.738 401.865 279.476 401.865C 279.347 401.865 279 401.89 279 401.89C 279 401.89 279 401.523 279 401.39C 279 401.258 279 400.89 279 400.89C 279 400.89 279.344 400.915 279.476 400.915C 279.738 400.915 279.951 401.127 279.951 401.39z"/>
			<path style="stroke:none; fill:#fff" d="M 279.951 403.39C 279.951 403.652 279.738 403.865 279.476 403.865C 279.347 403.865 279 403.89 279 403.89C 279 403.89 279 403.523 279 403.39C 279 403.258 279 402.89 279 402.89C 279 402.89 279.344 402.915 279.476 402.915C 279.738 402.915 279.951 403.127 279.951 403.39z"/>
			<path style="stroke:none; fill:#f9f" d="M 279.951 405.39C 279.951 405.652 279.738 405.865 279.476 405.865C 279.347 405.865 279 405.89 279 405.89C 279 405.89 279 405.523 279 405.39C 279 405.258 279 404.89 279 404.89C 279 404.89 279.344 404.915 279.476 404.915C 279.738 404.915 279.951 405.127 279.951 405.39z"/>
			<path style="stroke:none; fill:#f9f" d="M 280.951 404.39C 280.951 404.652 280.738 404.865 280.476 404.865C 280.347 404.865 280 404.89 280 404.89C 280 404.89 280 404.523 280 404.39C 280 404.258 280 403.89 280 403.89C 280 403.89 280.344 403.915 280.476 403.915C 280.738 403.915 280.951 404.127 280.951 404.39z"/>
			<path style="stroke:none; fill:#f9f" d="M 280.951 406.39C 280.951 406.652 280.738 406.865 280.476 406.865C 280.347 406.865 280 406.89 280 406.89C 280 406.89 280 406.523 280 406.39C 280 406.258 280 405.89 280 405.89C 280 405.89 280.344 405.915 280.476 405.915C 280.738 405.915 280.951 406.127 280.951 406.39z"/>
			<path style="stroke:none; fill:#f9f" d="M 280.951 402.39C 280.951 402.652 280.738 402.865 280.476 402.865C 280.347 402.865 280 402.89 280 402.89C 280 402.89 280 402.523 280 402.39C 280 402.258 280 401.89 280 401.89C 280 401.89 280.344 401.915 280.476 401.915C 280.738 401.915 280.951 402.127 280.951 402.39z"/>
			<path style="stroke:none; fill:#f9f" d="M 280.951 400.39C 280.951 400.652 280.738 400.865 280.476 400.865C 280.347 400.865 280 400.89 280 400.89C 280 400.89 280 400.523 280 400.39C 280 400.258 280 399.89 280 399.89C 280 399.89 280.344 399.915 280.476 399.915C 280.738 399.915 280.951 400.127 280.951 400.39z"/>
			<path style="stroke:none; fill:#f9f" d="M 281.951 401.39C 281.951 401.652 281.738 401.865 281.476 401.865C 281.347 401.865 281 401.89 281 401.89C 281 401.89 281 401.523 281 401.39C 281 401.258 281 400.89 281 400.89C 281 400.89 281.344 400.915 281.476 400.915C 281.738 400.915 281.951 401.127 281.951 401.39z"/>
			<path style="stroke:none; fill:#fff" d="M 281.951 403.39C 281.951 403.652 281.738 403.865 281.476 403.865C 281.347 403.865 281 403.89 281 403.89C 281 403.89 281 403.523 281 403.39C 281 403.258 281 402.89 281 402.89C 281 402.89 281.344 402.915 281.476 402.915C 281.738 402.915 281.951 403.127 281.951 403.39z"/>
			<path style="stroke:none; fill:#f9f" d="M 281.951 405.39C 281.951 405.652 281.738 405.865 281.476 405.865C 281.347 405.865 281 405.89 281 405.89C 281 405.89 281 405.523 281 405.39C 281 405.258 281 404.89 281 404.89C 281 404.89 281.344 404.915 281.476 404.915C 281.738 404.915 281.951 405.127 281.951 405.39z"/>
			<path style="stroke:none; fill:#f9f" d="M 282.951 404.39C 282.951 404.652 282.738 404.865 282.476 404.865C 282.347 404.865 282 404.89 282 404.89C 282 404.89 282 404.523 282 404.39C 282 404.258 282 403.89 282 403.89C 282 403.89 282.344 403.915 282.476 403.915C 282.738 403.915 282.951 404.127 282.951 404.39z"/>
			<path style="stroke:none; fill:#f9f" d="M 282.951 406.39C 282.951 406.652 282.738 406.865 282.476 406.865C 282.347 406.865 282 406.89 282 406.89C 282 406.89 282 406.523 282 406.39C 282 406.258 282 405.89 282 405.89C 282 405.89 282.344 405.915 282.476 405.915C 282.738 405.915 282.951 406.127 282.951 406.39z"/>
			<path style="stroke:none; fill:#f9f" d="M 284.976 406.39C 284.976 406.652 284.763 406.865 284.5 406.865C 284.371 406.865 284.024 406.89 284.024 406.89C 284.024 406.89 284.024 406.523 284.024 406.39C 284.024 406.258 284.024 405.89 284.024 405.89C 284.024 405.89 284.369 405.915 284.5 405.915C 284.763 405.915 284.976 406.127 284.976 406.39z"/>
			<path style="stroke:none; fill:#f9f" d="M 283.976 405.39C 283.976 405.652 283.763 405.865 283.5 405.865C 283.371 405.865 283.024 405.89 283.024 405.89C 283.024 405.89 283.024 405.523 283.024 405.39C 283.024 405.258 283.024 404.89 283.024 404.89C 283.024 404.89 283.369 404.915 283.5 404.915C 283.763 404.915 283.976 405.127 283.976 405.39z"/>
			<path style="stroke:none; fill:#f9f" d="M 282.951 402.39C 282.951 402.652 282.738 402.865 282.476 402.865C 282.347 402.865 282 402.89 282 402.89C 282 402.89 282 402.523 282 402.39C 282 402.258 282 401.89 282 401.89C 282 401.89 282.344 401.915 282.476 401.915C 282.738 401.915 282.951 402.127 282.951 402.39z"/>
			<path style="stroke:none; fill:#f9f" d="M 283.976 401.39C 283.976 401.652 283.763 401.865 283.5 401.865C 283.371 401.865 283.024 401.89 283.024 401.89C 283.024 401.89 283.024 401.523 283.024 401.39C 283.024 401.258 283.024 400.89 283.024 400.89C 283.024 400.89 283.369 400.915 283.5 400.915C 283.763 400.915 283.976 401.127 283.976 401.39z"/>
			<path style="stroke:none; fill:#fff" d="M 283.976 403.39C 283.976 403.652 283.763 403.865 283.5 403.865C 283.371 403.865 283.024 403.89 283.024 403.89C 283.024 403.89 283.024 403.523 283.024 403.39C 283.024 403.258 283.024 402.89 283.024 402.89C 283.024 402.89 283.369 402.915 283.5 402.915C 283.763 402.915 283.976 403.127 283.976 403.39z"/>
			<path style="stroke:none; fill:#f9f" d="M 282.951 400.39C 282.951 400.652 282.738 400.865 282.476 400.865C 282.347 400.865 282 400.89 282 400.89C 282 400.89 282 400.523 282 400.39C 282 400.258 282 399.89 282 399.89C 282 399.89 282.344 399.915 282.476 399.915C 282.738 399.915 282.951 400.127 282.951 400.39z"/>
			<path style="stroke:none; fill:#f9f" d="M 284.976 400.39C 284.976 400.652 284.763 400.865 284.5 400.865C 284.371 400.865 284.024 400.89 284.024 400.89C 284.024 400.89 284.024 400.523 284.024 400.39C 284.024 400.258 284.024 399.89 284.024 399.89C 284.024 399.89 284.369 399.915 284.5 399.915C 284.763 399.915 284.976 400.127 284.976 400.39z"/>
			<path style="stroke:none; fill:#f9f" d="M 284.976 404.39C 284.976 404.652 284.763 404.865 284.5 404.865C 284.371 404.865 284.024 404.89 284.024 404.89C 284.024 404.89 284.024 404.523 284.024 404.39C 284.024 404.258 284.024 403.89 284.024 403.89C 284.024 403.89 284.369 403.915 284.5 403.915C 284.763 403.915 284.976 404.127 284.976 404.39z"/>
			<path style="stroke:none; fill:#f9f" d="M 287 406.39C 287 406.652 286.787 406.865 286.524 406.865C 286.396 406.865 286.049 406.89 286.049 406.89C 286.049 406.89 286.049 406.523 286.049 406.39C 286.049 406.258 286.049 405.89 286.049 405.89C 286.049 405.89 286.393 405.915 286.524 405.915C 286.787 405.915 287 406.127 287 406.39z"/>
			<path style="stroke:none; fill:#f9f" d="M 286 405.39C 286 405.652 285.787 405.865 285.524 405.865C 285.396 405.865 285.049 405.89 285.049 405.89C 285.049 405.89 285.049 405.523 285.049 405.39C 285.049 405.258 285.049 404.89 285.049 404.89C 285.049 404.89 285.393 404.915 285.524 404.915C 285.787 404.915 286 405.127 286 405.39z"/>
			<path style="stroke:none; fill:#f9f" d="M 284.976 402.39C 284.976 402.652 284.763 402.865 284.5 402.865C 284.371 402.865 284.024 402.89 284.024 402.89C 284.024 402.89 284.024 402.523 284.024 402.39C 284.024 402.258 284.024 401.89 284.024 401.89C 284.024 401.89 284.369 401.915 284.5 401.915C 284.763 401.915 284.976 402.127 284.976 402.39z"/>
			<path style="stroke:none; fill:#f9f" d="M 286 401.39C 286 401.652 285.787 401.865 285.524 401.865C 285.396 401.865 285.049 401.89 285.049 401.89C 285.049 401.89 285.049 401.523 285.049 401.39C 285.049 401.258 285.049 400.89 285.049 400.89C 285.049 400.89 285.393 400.915 285.524 400.915C 285.787 400.915 286 401.127 286 401.39z"/>
			<path style="stroke:none; fill:#f9f" d="M 287 400.39C 287 400.652 286.787 400.865 286.524 400.865C 286.396 400.865 286.049 400.89 286.049 400.89C 286.049 400.89 286.049 400.523 286.049 400.39C 286.049 400.258 286.049 399.89 286.049 399.89C 286.049 399.89 286.393 399.915 286.524 399.915C 286.787 399.915 287 400.127 287 400.39z"/>
			<path style="stroke:#666; stroke-width:1; fill:none" d="M 274.5 401.39C 274.5 403.192 274.5 402.476 274.5 403.89C 274.5 404.89 273.5 407.39 271.5 407.39"/>
			<path style="stroke:#600; stroke-width:1; fill:none" d="M 288 407.39L 269.5 407.39L 269.5 399.39L 288 399.39"/>
			<path style="stroke:none; fill:#fff" d="M 274.024 402.39C 274.024 403.771 273.129 404.89 272.024 404.89C 270.92 404.89 270.024 403.771 270.024 402.39C 270.024 401.009 270.92 399.89 272.024 399.89C 273.129 399.89 274.024 401.009 274.024 402.39z"/>
			<path style="stroke:none; fill:#000" d="M 273.024 402.39C 273.024 403.218 272.577 403.89 272.024 403.89C 271.472 403.89 271.024 403.218 271.024 402.39C 271.024 401.561 271.472 400.89 272.024 400.89C 272.577 400.89 273.024 401.561 273.024 402.39z"/>
			<path style="stroke:none; fill:#fff" d="M 272 402.39C 272 402.652 271.787 402.865 271.524 402.865C 271.262 402.865 271.049 402.652 271.049 402.39C 271.049 402.127 271.262 401.915 271.524 401.915C 271.787 401.915 272 402.127 272 402.39z"/>
			<path style="stroke:none; fill:#c6c" d="M 266.5 387.39C 266.5 387.942 266.052 388.39 265.5 388.39C 264.948 388.39 264.5 387.942 264.5 387.39C 264.5 386.838 264.948 386.39 265.5 386.39C 266.052 386.39 266.5 386.838 266.5 387.39z"/>
			<path style="stroke:#963; stroke-width:1; fill:none" d="M 266.5 387.39C 266.5 387.942 266.052 388.39 265.5 388.39C 264.948 388.39 264.5 387.942 264.5 387.39C 264.5 386.838 264.948 386.39 265.5 386.39C 266.052 386.39 266.5 386.838 266.5 387.39z"/>
			<path style="stroke:#930; stroke-width:1; fill:none" d="M 265.5 388.89L 265.5 409.89"/>
		</g>
	</g>
</svg>
