<svg xmlns="http://www.w3.org/2000/svg" width="24" height="24">
	<g transform="translate(-264,-386)" id="KDDI_D_481">
		<g>
			<path style="stroke:none; fill:none" d="M 288 409.89L 264 409.89L 264 385.89L 288 385.89L 288 409.89z"/>
		</g>
		<g>
			<path style="stroke:none; fill:#f99" d="M 274 388.89L 266 407.89L 276 392.89L 274 388.89z"/>
			<path style="stroke:none; fill:#300" d="M 264 409.89L 267 407.89L 266 406.89L 264 409.89z"/>
			<path style="stroke:#300; stroke-width:1; stroke-linecap:round; fill:none" d="M 279.5 394.39C 281.25 392.64 282.25 391.64 283.5 390.39C 284.75 389.14 284.75 387.64 284 386.89C 283.25 386.14 281.5 386.39 281 386.89C 280.5 387.39 280.5 388.39 280.5 388.39"/>
			<path style="stroke:none; fill:#f33" d="M 279.521 394.426L 279.5 394.39L 276 392.89L 266 407.89L 279.25 394.64L 279.521 394.426z"/>
			<path style="stroke:none; fill:#f99" d="M 279.521 394.426L 279.25 394.64L 266 407.89L 281.5 397.89L 279.521 394.426z"/>
			<path style="stroke:none; fill:#f33" d="M 281.5 397.89L 266 407.89L 285 399.89L 281.5 397.89z"/>
			<path style="stroke:#c00; stroke-width:1; fill:none" d="M 266 407.89L 274 388.89L 276 392.89L 279.5 394.39L 281.5 397.89L 285 399.89L 266 407.89z"/>
		</g>
	</g>
</svg>
