<svg xmlns="http://www.w3.org/2000/svg" height="24" width="24">
    <g transform="matrix(1,0,0,-1,-264,408)" id="KDDI_D_">        <path d="M264.5 384v13.3c0 1.6 2.5 8.8 11.5 8.8s11.6-7.3 11.6-8.7V384" fill="#fff"/>
        <path d="M264.5 384v13.3c0 1.6 2.5 8.8 11.5 8.8s11.6-7.3 11.6-8.7V384" fill="none" stroke="#09f"/>
        <path d="M269.6 384h-3.2v9.1h3.2z" fill="#6cf"/>
        <path d="M269.6 384h-.9v9.1h.9zM273.9 384h-3.4v5.6h3.4z" fill="#09f"/>
        <path d="M271.4 384h-.9v5.6h.9zM282.6 384h-4.3v6.3h4.3z" fill="#6cf"/>
        <path d="M283.4 384h-1v6.3h1z" fill="#09f"/>
        <path d="M285.4 384h-1v10.2h1z" fill="#6cf"/>
        <path d="M276 404.9c-2.6-.1-4.7-1-6.6-2.7-1.4-1.3-3.3-4.7-3.1-7.7.1-2.9 1.1-4.1 3.3-5.3 2.2-1.1 4.3-1.3 6.4-1.3 2.1 0 6.1.4 7.6 1.9 1.1 1.1 2.2 3.6 2.2 5.6 0 2.3-1.7 5.3-3 6.8-1.4 1.5-4.2 2.7-6.8 2.7z" fill="#c60"/>
        <path d="M271 401.4c2 1.7 4.4 2.9 7.1 3 .4 0 .8-.1 1.3-.1-1.1.4-2.3.6-3.4.6-2.6-.1-4.7-1-6.6-2.7-1.4-1.3-3.3-4.7-3.1-7.7.4 1.5 2.4 4.8 4.7 6.9z" fill="#f90"/>
        <path d="M283.1 392.5c-.7-2.7-3.4-4.6-5.1-4.1-1.7.4-1.7 3.4-.9 6.1.7 2.7 2.6 4.5 4.3 4.2 2-.4 2.5-3.4 1.7-6.2z" fill="#960"/>
        <path d="M279.2 401.2s-2.6-2.2-4.1-2.6c-1.5-.4-5-.9-5-.9s-.4-4.7.5-6c1-1.3 2.6-3 5.4-3 2.7 0 5.2 2.1 5.7 3.3.7 1.6.4 5.8.4 5.8s-1.2.8-1.7 1.3c-.5.6-1.2 2.1-1.2 2.1z" fill="#fc9"/>
        <path d="M276.1 393.4l-.3-.4" fill="none" stroke="#c96" stroke-width=".922" stroke-linecap="round"/>
        <path d="M279.5 398.1h-1.1" fill="none" stroke="#666" stroke-width=".798" stroke-linecap="round"/>
        <path d="M274.7 395.6c0-.9-.8-1.6-1.8-1.6s-1.7.7-1.7 1.6c0 1 .7 1.7 1.7 1.7s1.8-.7 1.8-1.7zM280.8 395.6c0-.9-.8-1.6-1.7-1.6-1 0-1.8.7-1.8 1.6 0 1 .8 1.7 1.8 1.7.9 0 1.7-.7 1.7-1.7z" fill="#666"/>
        <path d="M280.1 396.1s-.1-.2-1.1-.2-2 1.1-2 1.1 1.2-.3 2.1-.1c1 .3 1-.8 1-.8z"/>
        <path d="M280.5 395c0-.7-.6-1.2-1.5-1.2-.8 0-1.4.5-1.4 1.2v.8c0 .7.6 1.3 1.4 1.3.9 0 1.5-.6 1.5-1.3z"/>
        <path d="M279.5 395.9c0-.3-.3-.5-.7-.5-.4 0-.7.2-.7.5s.3.6.7.6c.4 0 .7-.3.7-.6z" fill="#fff"/>
        <path d="M274 396.1s-.1-.2-1.1-.2c-1.1 0-2 1.1-2 1.1s1.2-.3 2.1-.1c.9.3 1-.8 1-.8z"/>
        <path d="M274.4 395c0-.7-.7-1.2-1.5-1.2s-1.5.5-1.5 1.2v.8c0 .7.7 1.3 1.5 1.3s1.5-.6 1.5-1.3z"/>
        <path d="M273.4 395.9c0-.3-.3-.5-.7-.5-.4 0-.8.2-.8.5s.4.6.8.6.7-.3.7-.6z" fill="#fff"/>
        <path d="M275.1 391.7h1.9s-.2-.9-.9-.9-1 .9-1 .9z" fill="#c00"/>
        <path d="M282.3 384l-3.7 2.5v3.1h-4.3v-3.2l-3.8-2.4z" fill="#fc9"/>
        <path d="M274.3 388.9v-2.5l-3.8-2" fill="none" stroke="#f90" stroke-linecap="round"/>
        <path d="M282.3 384.4l-3.7 2.1v2.7" fill="none" stroke="#c60" stroke-linecap="round"/>
        <path d="M274.2 389c.5-.2 1.1-.3 1.8-.3.9 0 1.8.2 2.6.6" fill="none" stroke="#f93" stroke-linecap="round"/>
        <path d="M274.1 389c.6-.1 1.2-.3 1.9-.3 2.7 0 5.2 2.1 5.7 3.3.7 1.6.4 5.8.4 5.8h-.1" fill="none" stroke="#f93" stroke-linecap="round"/>
        <path d="M282.1 397.8s-1.2.8-1.7 1.3c-.5.6-1.2 2.1-1.2 2.1s-2.7-1.9-4.1-2.6c-1.8-.8-5.1-1.3-5.1-1.3s-.3-4.3.4-5.6" fill="none" stroke="#930" stroke-linecap="round" stroke-linejoin="round"/>
        <path d="M270.4 391.7c.6-1.1 1.9-2.2 3.8-2.7" fill="none" stroke="#930" stroke-linecap="round"/>
        <path d="M279.6 403.4s-.1-1.5-.5-2.4" fill="none" stroke="#930" stroke-linecap="round" stroke-linejoin="round"/>
        <path d="M275 406.2h-.4c-.1.5-.6.9-1.3.9-.2 0-.3 0-.5-.1-.2.3-.6.6-1 .6s-.8-.3-1-.6c-1.1 0-1.9-.8-1.9-1.8v-.4c-.2-.2-.4-.6-.4-.9 0-.9.7-1.5 1.6-1.5.3 0 .6.1.8.2.3-.3.6-.5 1-.5.3 0 .6.1.8.2.2-.1.5-.2.8-.2.8 0 1.4.6 1.5 1.3.8 0 1.5.6 1.5 1.4 0 .8-.7 1.4-1.5 1.4z" fill="#f69"/>
        <path d="M275.8 406c.1-.1.1-.3.1-.4 0-.8-.7-1.4-1.5-1.4-.1-.7-.7-1.3-1.5-1.3-.3 0-.6.1-.8.3-.3-.2-.5-.3-.8-.3-.4 0-.8.2-1 .5-.2-.1-.5-.2-.8-.2-.4 0-.7.1-.9.3.1-.6.8-1.1 1.5-1.1.3 0 .6.1.8.2.3-.3.6-.5 1-.5.3 0 .6.1.8.2.2-.1.5-.2.8-.2.8 0 1.4.6 1.5 1.3.8 0 1.5.6 1.5 1.4 0 .5-.3.9-.7 1.2z" fill="#c06"/>
        <path d="M269.6 403.8c0 .1-.1.2-.1.4 0 1 .9 1.8 2 1.8.2.3.5.5 1 .5.4 0 .8-.2 1-.5.1 0 .3.1.5.1.7 0 1.2-.4 1.3-1h.4c.3 0 .6 0 .8-.2-.1.7-.7 1.3-1.5 1.3h-.4c-.1.5-.6.9-1.3.9-.2 0-.3 0-.5-.1-.2.3-.6.6-1 .6s-.8-.3-1-.6c-1.1 0-1.9-.8-1.9-1.8v-.4c-.2-.2-.4-.6-.4-.9 0-.6.3-1 .7-1.3v.2c0 .4.1.7.4 1z" fill="#f99"/>
        <path d="M271 403.8c-.6 0-1.1.4-1.1 1 0 .3.1.6.4.8-.6-.1-1-.5-1-1 0-.6.5-1.1 1.1-1.1.3 0 .5.1.7.3h-.1zM273.2 405.2c.4-.5.2-1.1-.3-1.4-.2-.2-.6-.3-.8-.2.3-.3.9-.4 1.4-.2.5.4.6 1 .3 1.5-.2.2-.4.3-.7.4l.1-.1zM271 405.1c-.2.6.2 1.1.8 1.3.3 0 .6-.1.9-.2-.2.4-.8.7-1.3.6-.6-.1-1-.7-.8-1.2 0-.3.2-.5.4-.6v.1zM273.3 405.8c.6.1 1.1-.2 1.2-.7 0-.2-.1-.5-.3-.6.5.1.8.5.8.9-.1.5-.6.8-1.2.7-.3-.1-.5-.2-.6-.3h.1z" fill="#c06"/>
        <path d="M271.5 405.7c.5.1 1.1-.2 1.1-.7.1-.3 0-.5-.2-.7.5.2.8.5.7 1-.1.4-.6.7-1.1.6-.3 0-.5-.1-.7-.3.1 0 .1.1.2.1zM272.1 404.2c-.5-.1-1.1.1-1.2.5-.1.3-.1.5.1.7-.5-.2-.7-.6-.6-1 .2-.5.8-.7 1.3-.5.3.1.4.2.6.4-.1 0-.1 0-.2-.1z" fill="#f99"/>
        <path d="M279 406.6h-.4c-.1.6-.6 1-1.3 1-.2 0-.3-.1-.5-.1-.2.3-.6.5-1 .5s-.8-.2-1-.5c-1.1 0-1.9-.8-1.9-1.8v-.4c-.2-.3-.4-.6-.4-1 0-.8.7-1.5 1.6-1.5.3 0 .6.1.8.2.3-.2.6-.4 1-.4.3 0 .6.1.8.2.2-.2.5-.3.8-.3.8 0 1.4.6 1.5 1.3.8 0 1.5.7 1.5 1.4 0 .8-.7 1.4-1.5 1.4z" fill="#f69"/>
        <path d="M279.8 406.4c.1-.1.1-.2.1-.3 0-.8-.7-1.4-1.5-1.4-.1-.8-.7-1.3-1.5-1.3-.3 0-.6.1-.8.2-.3-.1-.5-.2-.8-.2-.4 0-.8.2-1 .4-.2-.1-.5-.1-.8-.1-.4 0-.7.1-.9.2.1-.6.8-1.1 1.5-1.1.3 0 .6.1.8.2.3-.2.6-.4 1-.4.3 0 .6.1.8.2.2-.2.5-.3.8-.3.8 0 1.4.6 1.5 1.3.8 0 1.5.7 1.5 1.4 0 .5-.3 1-.7 1.2z" fill="#c06"/>
        <path d="M273.6 404.2c0 .2-.1.3-.1.4 0 1 .9 1.8 2 1.8.2.3.5.5 1 .5.4 0 .8-.2 1-.5.1.1.3.1.5.1.7 0 1.2-.4 1.3-1 .1.1.3.1.4.1.3 0 .6-.1.8-.2-.1.7-.7 1.2-1.5 1.2h-.4c-.1.6-.6 1-1.3 1-.2 0-.3-.1-.5-.1-.2.3-.6.5-1 .5s-.8-.2-1-.5c-1.1 0-1.9-.8-1.9-1.8v-.4c-.2-.3-.4-.6-.4-1 0-.5.3-.9.7-1.2v.1c0 .4.1.8.4 1z" fill="#f99"/>
        <path d="M275 404.2c-.6 0-1.1.5-1.1 1 0 .3.1.6.4.8-.6-.1-1-.5-1-1 0-.6.5-1 1.1-1 .3 0 .5.1.7.2h-.1zM277.2 405.6c.4-.4.2-1.1-.3-1.4-.2-.2-.6-.2-.8-.1.3-.4.9-.5 1.4-.2.5.3.6.9.3 1.4-.2.2-.4.4-.7.4.1 0 .1 0 .1-.1zM275 405.6c-.2.5.2 1.1.8 1.2.3.1.6 0 .9-.2-.2.5-.8.8-1.3.7-.6-.2-1-.7-.8-1.3 0-.2.2-.4.4-.6v.2zM277.3 406.3c.6 0 1.1-.3 1.2-.7 0-.3-.1-.5-.3-.7.5.1.8.5.8 1-.1.4-.6.7-1.2.6-.3 0-.5-.1-.6-.3 0 0 .1 0 .1.1z" fill="#c06"/>
        <path d="M275.5 406.1c.5.1 1.1-.2 1.1-.7.1-.2 0-.5-.2-.6.5.1.8.5.7.9-.1.5-.6.8-1.1.7-.3-.1-.5-.2-.7-.3h.2zM276.1 404.7c-.5-.2-1.1 0-1.2.5-.1.2-.1.5.1.7-.5-.2-.7-.7-.6-1.1.2-.4.8-.6 1.3-.5.3.1.4.3.6.5-.1-.1-.1-.1-.2-.1z" fill="#f99"/>
        <path d="M282.4 406.2h-.3c-.2.5-.7.9-1.3.9-.2 0-.4 0-.6-.1-.2.3-.6.6-1 .6s-.8-.3-1-.6c-1 0-1.9-.8-1.9-1.8 0-.1 0-.2.1-.4-.3-.2-.5-.6-.5-.9 0-.9.8-1.5 1.7-1.5.3 0 .5.1.8.2.2-.3.6-.5 1-.5.3 0 .5.1.7.2.3-.1.6-.2.9-.2.7 0 1.4.6 1.4 1.3.9 0 1.5.6 1.5 1.4 0 .8-.6 1.4-1.5 1.4z" fill="#f69"/>
        <path d="M283.3 406v-.4c0-.8-.7-1.4-1.5-1.4 0-.7-.7-1.3-1.5-1.3-.3 0-.6.1-.8.3-.2-.2-.5-.3-.7-.3-.5 0-.8.2-1.1.5-.2-.1-.5-.2-.8-.2-.3 0-.6.1-.9.3.2-.6.8-1.1 1.6-1.1.3 0 .5.1.8.2.2-.3.6-.5 1-.5.3 0 .5.1.7.2.3-.1.6-.2.9-.2.7 0 1.4.6 1.4 1.3.9 0 1.5.6 1.5 1.4 0 .5-.2.9-.6 1.2z" fill="#c06"/>
        <path d="M277 403.8v.4c0 1 .8 1.8 1.9 1.8.2.3.6.5 1 .5s.8-.2 1-.5c.2 0 .4.1.6.1.6 0 1.1-.4 1.3-1h.3c.3 0 .6 0 .8-.2 0 .7-.7 1.3-1.5 1.3h-.3c-.2.5-.7.9-1.3.9-.2 0-.4 0-.6-.1-.2.3-.6.6-1 .6s-.8-.3-1-.6c-1 0-1.9-.8-1.9-1.8 0-.1 0-.2.1-.4-.3-.2-.5-.6-.5-.9 0-.6.3-1 .7-1.3v.2c0 .4.2.7.4 1z" fill="#f99"/>
        <path d="M278.4 403.8c-.6 0-1.1.4-1.1 1 0 .3.2.6.4.8-.5-.1-.9-.5-.9-1 0-.6.4-1.1 1-1.1.3 0 .6.1.8.3h-.2zM280.7 405.2c.3-.5.2-1.1-.3-1.4-.3-.2-.6-.3-.9-.2.3-.3.9-.4 1.4-.2.5.4.6 1 .3 1.5-.2.2-.4.3-.6.4 0-.1 0-.1.1-.1zM278.4 405.1c-.1.6.2 1.1.8 1.3.3 0 .6-.1.9-.2-.2.4-.7.7-1.3.6-.5-.1-.9-.7-.8-1.2.1-.3.2-.5.5-.6-.1 0-.1.1-.1.1zM280.8 405.8c.5.1 1-.2 1.1-.7.1-.2 0-.5-.2-.6.4.1.8.5.7.9-.1.5-.6.8-1.2.7l-.6-.3h.2z" fill="#c06"/>
        <path d="M278.9 405.7c.6.1 1.1-.2 1.2-.7 0-.3-.1-.5-.3-.7.5.2.8.5.8 1-.1.4-.6.7-1.2.6-.2 0-.5-.1-.6-.3l.1.1zM279.6 404.2c-.6-.1-1.1.1-1.3.5-.1.3 0 .5.1.7-.4-.2-.7-.6-.5-1 .2-.5.7-.7 1.2-.5.3.1.5.2.6.4 0 0-.1 0-.1-.1z" fill="#f99"/>
    </g>
</svg>
