<svg xmlns="http://www.w3.org/2000/svg" width="24" height="24">
	<g transform="translate(-264,-386)" id="KDDI_D_483">
		<g>
			<path style="stroke:none; fill:none" d="M 288 409.89L 264 409.89L 264 385.89L 288 385.89L 288 409.89z"/>
		</g>
		<g>
			<path style="stroke:none; fill:#39c" d="M 274.583 404.89L 277.583 404.89C 277.583 405.89 278.083 409.39 280.083 409.39L 272.083 409.39C 274.083 409.39 274.583 405.89 274.583 404.89L 277.583 404.89"/>
			<path style="stroke:none; fill:#6cf" d="M 276.5 406.39C 275.75 406.39 274.583 406.39 274.583 406.39C 274.583 406.491 274.475 406.624 274.315 406.77C 273.991 408.035 273.328 409.39 272.083 409.39L 277.5 409.39C 277.5 409.39 276.5 407.89 276.5 406.39z"/>
			<path style="stroke:#06c; stroke-width:1; fill:none" d="M 274.583 404.89L 277.583 404.89C 277.583 405.89 278.083 409.39 280.083 409.39L 272.083 409.39C 274.083 409.39 274.583 405.89 274.583 404.89L 277.583 404.89"/>
			<path style="stroke:#06c; stroke-width:1; fill:none" d="M 270 409.39L 282 409.39"/>
			<path style="stroke:none; fill:#666" d="M 281.5 392.89C 280 389.89 277.5 385.89 276 385.89C 274.5 385.89 272 389.89 270.5 392.89C 269 395.89 268.5 399.39 268.5 400.39L 283.5 400.39C 283.5 399.39 283 395.89 281.5 392.89z"/>
			<path style="stroke:none; fill:#fff" d="M 271.395 394.33C 270.305 396.508 269.78 398.961 269.59 400.382C 271.318 400.382 280.682 400.382 282.41 400.382C 282.22 398.961 281.695 396.508 280.605 394.33C 278.579 390.277 276.637 387.996 276 387.89C 275.363 387.996 273.421 390.277 271.395 394.33z"/>
			<path style="stroke:#666; stroke-width:1; stroke-linecap:round; fill:none" d="M 287.5 386.39C 287.5 386.39 284.5 389.39 283.5 390.39C 282.5 391.39 281 392.89 280.5 395.39"/>
			<path style="stroke:none; fill:#39c" d="M 276 400.39L 265.5 400.39C 265.5 400.89 268.5 404.89 273.5 404.89C 273.528 404.89 275.972 404.89 276 404.89C 276.141 404.89 278.28 404.889 278.417 404.887C 283.417 404.89 286.5 400.89 286.5 400.39L 276 400.39z"/>
			<path style="stroke:none; fill:#6cf" d="M 275.479 404.889C 275.947 404.888 276.359 404.888 276.417 404.887C 281.417 404.89 284 400.89 284 400.39L 278 400.39L 274 400.39L 268 400.39C 268 400.889 270.492 404.878 275.479 404.889z"/>
			<path style="stroke:none; fill:#39c" d="M 276.455 404.742C 280.537 404.055 282.5 400.836 282.5 400.39L 280.5 400.39L 278.5 400.39L 276.5 400.39L 274.5 400.39L 272.5 400.39L 270 400.39C 270 400.836 272.393 404.049 276.455 404.742z"/>
			<path style="stroke:none; fill:#cff" d="M 276 404.874C 276 402.376 276 400.39 276 400.39L 273.5 400.39L 269.5 400.39C 269.5 400.879 271.192 404.709 276 404.874z"/>
			<path style="stroke:#39c; stroke-width:1; fill:none" d="M 264.083 400.39L 288 400.39"/>
			<path style="stroke:#06c; stroke-width:1; fill:none" d="M 264.083 400.39L 266.5 400.39"/>
			<path style="stroke:none; fill:#6cf" d="M 275.46 404.508C 278.935 403.52 281 400.798 281 400.39L 271 400.39C 271 400.797 272.008 403.517 275.46 404.508z"/>
			<path style="stroke:#06c; stroke-width:1; fill:none" d="M 285.5 400.39L 288 400.39"/>
			<path style="stroke:#06c; stroke-width:1; fill:none" d="M 276 400.39L 265.5 400.39C 265.5 400.89 268.5 404.89 273.5 404.89C 273.528 404.89 275.972 404.89 276 404.89C 276.141 404.89 278.28 404.889 278.417 404.887C 283.417 404.89 286.5 400.89 286.5 400.39L 276 400.39z"/>
			<path style="stroke:none; fill:#ccc" d="M 277 398.89L 278 398.89L 277.5 398.39L 277 398.89z"/>
			<path style="stroke:none; fill:#ccc" d="M 277 396.39L 278 396.39L 277.5 395.89L 277 396.39z"/>
			<path style="stroke:none; fill:#ccc" d="M 274 398.89L 275 398.89L 274.5 398.39L 274 398.89z"/>
			<path style="stroke:none; fill:#ccc" d="M 271.5 398.89L 272.5 398.89L 272 398.39L 271.5 398.89z"/>
			<path style="stroke:none; fill:#ccc" d="M 273 397.39L 274 397.39L 273.5 396.89L 273 397.39z"/>
			<path style="stroke:none; fill:#ccc" d="M 273 399.89L 274 399.89L 273.5 399.39L 273 399.89z"/>
			<path style="stroke:none; fill:#ccc" d="M 275 399.89L 276 399.89L 275.5 399.39L 275 399.89z"/>
			<path style="stroke:none; fill:#ccc" d="M 278 399.89L 279 399.89L 278.5 399.39L 278 399.89z"/>
			<path style="stroke:none; fill:#ccc" d="M 279 397.89L 280 397.89L 279.5 397.39L 279 397.89z"/>
			<path style="stroke:none; fill:#ccc" d="M 270 399.89L 271 399.89L 270.5 399.39L 270 399.89z"/>
			<path style="stroke:none; fill:#ccc" d="M 280 398.89L 281 398.89L 280.5 398.39L 280 398.89z"/>
			<path style="stroke:none; fill:#ccc" d="M 281 399.89L 282 399.89L 281.5 399.39L 281 399.89z"/>
			<path style="stroke:#39c; stroke-width:1; fill:none" d="M 272.083 409.39L 278 409.39"/>
			<path style="stroke:#6cf; stroke-width:1; fill:none" d="M 274 409.39L 275 409.39"/>
			<path style="stroke:none; fill:#c00" d="M 281.5 392.89C 280 389.89 277.5 385.89 276 385.89C 274.5 385.89 272 389.89 270.5 392.89C 269.451 394.988 268.892 397.329 268.65 398.89C 268.944 398.89 269.239 398.89 269.5 398.89C 270.5 398.89 271.5 397.89 272.5 396.89C 273.5 395.89 273.5 395.89 274.5 395.89C 275.5 395.89 275.5 396.89 276 397.39C 276.5 397.89 277 397.89 277 397.39C 277 396.89 277 394.89 277 393.89C 277 392.89 278 392.89 278 393.89C 278 394.39 278.5 395.39 280 395.89C 281.5 396.39 281.5 396.89 281.5 397.89C 281.5 398.624 282.576 398.817 283.347 398.869C 283.103 397.309 282.545 394.979 281.5 392.89z"/>
			<path style="stroke:none; fill:#f99" d="M 280.35 392.89C 279.213 390.617 277.505 387.288 276.091 385.904C 276.061 385.901 276.029 385.89 276 385.89C 274.5 385.89 272 389.89 270.5 392.89C 269.451 394.988 268.892 397.329 268.65 398.89C 268.944 398.89 269.239 398.89 269.5 398.89C 270.5 398.89 271.5 397.89 272.5 396.89C 273.5 395.89 273.5 395.89 274.5 395.89C 275.5 395.89 275.5 396.89 276 397.39C 276.5 397.89 277 397.89 277 397.39C 277 396.89 277 394.89 277 393.89C 277 392.89 278 392.89 278 393.89C 278 394.39 278.5 395.39 280 395.89C 281.5 396.39 281.5 396.89 281.5 397.89C 281.5 398.264 281.781 398.497 282.157 398.643C 281.897 397.088 281.347 394.884 280.35 392.89z"/>
			<path style="stroke:none; fill:#f06" d="M 276.091 385.904C 276.07 385.902 276.048 385.898 276.027 385.894C 274.665 387.072 273.062 390.45 271.843 392.89C 270.812 394.95 270.257 397.239 270.009 398.799C 270.839 398.542 271.669 397.72 272.5 396.89C 273.5 395.89 273.5 395.89 274.5 395.89C 275.5 395.89 275.5 396.89 276 397.39C 276.5 397.89 277 397.89 277 397.39C 277 396.89 277 394.89 277 393.89C 277 392.89 278 392.89 278 393.89C 278 394.39 278.5 395.39 280 395.89C 281.5 396.39 281.5 396.89 281.5 397.89C 281.5 398.264 281.781 398.497 282.157 398.643C 281.897 397.088 281.347 394.884 280.35 392.89C 279.213 390.617 277.505 387.288 276.091 385.904z"/>
		</g>
	</g>
</svg>
