<svg xmlns="http://www.w3.org/2000/svg" width="24" height="24">
	<g transform="translate(-264,-386)" id="KDDI_D_484">
		<g>
			<path style="stroke:none; fill:none" d="M 288 409.89L 264 409.89L 264 385.89L 288 385.89L 288 409.89z"/>
		</g>
		<g>
			<path style="stroke:none; fill:#006" d="M 288 409.89L 264 409.89L 264 385.89L 288 385.89L 288 409.89z"/>
			<path style="stroke:#fff; stroke-width:1; fill:none" d="M 276.5 385.89L 276.5 398.915"/>
			<path style="stroke:none; fill:#f60" d="M 277.451 399.39C 277.451 399.915 277.025 400.34 276.5 400.34C 275.975 400.34 275.549 399.915 275.549 399.39C 275.549 398.864 275.975 398.44 276.5 398.44C 277.025 398.44 277.451 398.864 277.451 399.39z"/>
			<path style="stroke:#f66; stroke-width:1; fill:none" d="M 276.5 386.865L 276.5 387.89"/>
			<path style="stroke:#f66; stroke-width:1; fill:none" d="M 276.5 391.39L 276.5 392.415"/>
			<path style="stroke:#f66; stroke-width:1; fill:none" d="M 276.5 395.89L 276.5 396.915"/>
			<path style="stroke:none; fill:#ff0" d="M 270.5 399.39L 274.5 398.915L 274.5 399.865L 270.5 399.39z"/>
			<path style="stroke:none; fill:#960" d="M 274.976 399.39C 274.976 399.652 274.763 399.865 274.5 399.865C 274.237 399.865 274.024 399.652 274.024 399.39C 274.024 399.127 274.237 398.915 274.5 398.915C 274.763 398.915 274.976 399.127 274.976 399.39z"/>
			<path style="stroke:none; fill:#ff0" d="M 271.976 399.39C 271.976 399.915 271.55 400.34 271.024 400.34C 270.499 400.34 270.073 399.915 270.073 399.39C 270.073 398.864 270.499 398.44 271.024 398.44C 271.55 398.44 271.976 398.864 271.976 399.39z"/>
			<path style="stroke:none; fill:#960" d="M 276.525 404.89L 276.05 400.89L 277 400.89L 276.525 404.89z"/>
			<path style="stroke:none; fill:#ff0" d="M 276.525 400.414C 276.788 400.414 277 400.627 277 400.89C 277 401.152 276.788 401.365 276.525 401.365C 276.262 401.365 276.05 401.152 276.05 400.89C 276.05 400.627 276.262 400.414 276.525 400.414z"/>
			<path style="stroke:none; fill:#ff0" d="M 276.525 403.439C 277.05 403.439 277.475 403.864 277.475 404.39C 277.475 404.915 277.05 405.341 276.525 405.341C 276 405.341 275.575 404.915 275.575 404.39C 275.575 403.864 276 403.439 276.525 403.439z"/>
			<path style="stroke:none; fill:#ff0" d="M 272.663 403.225L 275.156 400.061L 275.828 400.733L 272.663 403.225z"/>
			<path style="stroke:none; fill:#960" d="M 275.828 400.061C 276.014 400.246 276.014 400.547 275.828 400.733C 275.643 400.919 275.341 400.919 275.155 400.733C 274.97 400.547 274.971 400.247 275.156 400.061C 275.342 399.875 275.643 399.875 275.828 400.061z"/>
			<path style="stroke:none; fill:#ff0" d="M 273.673 402.218C 274.044 402.589 274.044 403.191 273.673 403.562C 273.302 403.934 272.698 403.934 272.327 403.563C 271.956 403.191 271.958 402.59 272.329 402.218C 272.7 401.847 273.302 401.846 273.673 402.218z"/>
			<path style="stroke:none; fill:#ff0" d="M 272.662 395.553L 275.155 398.717L 275.827 398.046L 272.662 395.553z"/>
			<path style="stroke:none; fill:#960" d="M 275.827 398.717C 276.013 398.532 276.013 398.231 275.827 398.046C 275.642 397.859 275.34 397.859 275.154 398.045C 274.969 398.231 274.97 398.531 275.155 398.717C 275.341 398.903 275.642 398.903 275.827 398.717z"/>
			<path style="stroke:none; fill:#ff0" d="M 273.673 396.563C 274.044 396.192 274.044 395.59 273.673 395.219C 273.302 394.847 272.698 394.847 272.327 395.218C 271.956 395.59 271.958 396.191 272.329 396.563C 272.7 396.934 273.302 396.935 273.673 396.563z"/>
			<path style="stroke:none; fill:#ff0" d="M 266.164 397.054C 266.535 396.683 266.535 396.081 266.164 395.71C 265.793 395.338 265.189 395.338 264.818 395.709C 264.447 396.081 264.449 396.682 264.82 397.054C 265.191 397.425 265.793 397.426 266.164 397.054z"/>
			<path style="stroke:none; fill:#f60" d="M 268.173 397.054C 268.544 396.683 268.544 396.081 268.173 395.71C 267.802 395.338 267.198 395.338 266.827 395.709C 266.456 396.081 266.458 396.682 266.829 397.054C 267.2 397.425 267.802 397.426 268.173 397.054z"/>
			<path style="stroke:none; fill:#ff0" d="M 268.682 406.554C 269.053 406.183 269.053 405.581 268.682 405.21C 268.311 404.838 267.707 404.838 267.336 405.209C 266.965 405.581 266.967 406.182 267.338 406.554C 267.71 406.925 268.311 406.926 268.682 406.554z"/>
			<path style="stroke:none; fill:#f60" d="M 270.173 405.062C 270.544 404.691 270.544 404.089 270.173 403.718C 269.802 403.346 269.198 403.346 268.827 403.717C 268.456 404.089 268.458 404.69 268.829 405.062C 269.2 405.433 269.802 405.434 270.173 405.062z"/>
			<path style="stroke:none; fill:#ff0" d="M 274.182 409.054C 274.553 408.683 274.553 408.081 274.182 407.71C 273.811 407.338 273.207 407.338 272.836 407.709C 272.465 408.081 272.467 408.682 272.838 409.054C 273.21 409.425 273.811 409.426 274.182 409.054z"/>
			<path style="stroke:none; fill:#ff0" d="M 280.182 409.07C 280.553 408.699 280.553 408.098 280.182 407.727C 279.811 407.355 279.207 407.355 278.836 407.726C 278.465 408.098 278.467 408.698 278.838 409.07C 279.21 409.442 279.811 409.442 280.182 409.07z"/>
			<path style="stroke:none; fill:#f60" d="M 274.182 407.062C 274.553 406.691 274.553 406.089 274.182 405.718C 273.811 405.346 273.207 405.346 272.836 405.717C 272.465 406.089 272.467 406.69 272.838 407.062C 273.21 407.433 273.811 407.434 274.182 407.062z"/>
			<path style="stroke:none; fill:#f60" d="M 280.182 407.062C 280.553 406.691 280.553 406.089 280.182 405.718C 279.811 405.346 279.207 405.346 278.836 405.717C 278.465 406.089 278.467 406.69 278.838 407.062C 279.21 407.433 279.811 407.434 280.182 407.062z"/>
			<path style="stroke:none; fill:#ff0" d="M 287.173 402.07C 287.544 401.699 287.544 401.098 287.173 400.727C 286.802 400.355 286.198 400.355 285.827 400.726C 285.456 401.098 285.458 401.698 285.829 402.07C 286.2 402.442 286.802 402.442 287.173 402.07z"/>
			<path style="stroke:none; fill:#f60" d="M 285.173 402.07C 285.544 401.699 285.544 401.098 285.173 400.727C 284.802 400.355 284.198 400.355 283.827 400.726C 283.456 401.098 283.458 401.698 283.829 402.07C 284.2 402.442 284.802 402.442 285.173 402.07z"/>
			<path style="stroke:none; fill:#ff0" d="M 287.673 397.054C 288.044 396.683 288.044 396.081 287.673 395.71C 287.302 395.338 286.698 395.338 286.327 395.709C 285.956 396.081 285.958 396.682 286.329 397.054C 286.7 397.425 287.302 397.426 287.673 397.054z"/>
			<path style="stroke:none; fill:#f60" d="M 285.673 397.054C 286.044 396.683 286.044 396.081 285.673 395.71C 285.302 395.338 284.698 395.338 284.327 395.709C 283.956 396.081 283.958 396.682 284.329 397.054C 284.7 397.425 285.302 397.426 285.673 397.054z"/>
			<path style="stroke:none; fill:#ff0" d="M 282.5 399.39L 278.5 398.915L 278.5 399.865L 282.5 399.39z"/>
			<path style="stroke:none; fill:#960" d="M 278.024 399.39C 278.024 399.652 278.237 399.865 278.5 399.865C 278.763 399.865 278.976 399.652 278.976 399.39C 278.976 399.127 278.763 398.915 278.5 398.915C 278.237 398.915 278.024 399.127 278.024 399.39z"/>
			<path style="stroke:none; fill:#ff0" d="M 281.049 399.39C 281.049 399.915 281.475 400.34 282 400.34C 282.525 400.34 282.951 399.915 282.951 399.39C 282.951 398.864 282.525 398.44 282 398.44C 281.475 398.44 281.049 398.864 281.049 399.39z"/>
			<path style="stroke:none; fill:#ff0" d="M 280.337 403.225L 277.844 400.061L 277.172 400.733L 280.337 403.225z"/>
			<path style="stroke:none; fill:#960" d="M 277.172 400.061C 276.986 400.246 276.986 400.547 277.172 400.733C 277.357 400.919 277.659 400.919 277.845 400.733C 278.03 400.547 278.029 400.247 277.844 400.061C 277.658 399.875 277.357 399.875 277.172 400.061z"/>
			<path style="stroke:none; fill:#ff0" d="M 279.327 402.218C 278.956 402.589 278.956 403.191 279.327 403.562C 279.698 403.934 280.302 403.934 280.673 403.563C 281.044 403.191 281.042 402.59 280.671 402.218C 280.3 401.847 279.698 401.846 279.327 402.218z"/>
			<path style="stroke:none; fill:#ff0" d="M 280.338 395.553L 277.845 398.717L 277.173 398.046L 280.338 395.553z"/>
			<path style="stroke:none; fill:#960" d="M 277.173 398.717C 276.987 398.532 276.987 398.231 277.173 398.046C 277.358 397.859 277.66 397.859 277.846 398.045C 278.031 398.231 278.03 398.531 277.845 398.717C 277.659 398.903 277.358 398.903 277.173 398.717z"/>
			<path style="stroke:none; fill:#ff0" d="M 279.327 396.563C 278.956 396.192 278.956 395.59 279.327 395.219C 279.698 394.847 280.302 394.847 280.673 395.218C 281.044 395.59 281.042 396.191 280.671 396.563C 280.3 396.934 279.698 396.935 279.327 396.563z"/>
			<path style="stroke:none; fill:#ff0" d="M 267.1 400.83C 267.1 400.83 266.832 399.59 266.5 399.59C 266.168 399.59 265.9 400.83 265.9 400.83C 265.9 400.83 264.7 401.082 264.7 401.393C 264.7 401.703 265.9 401.955 265.9 401.955C 265.9 401.955 266.168 403.19 266.5 403.19C 266.832 403.19 267.1 401.955 267.1 401.955C 267.1 401.955 268.3 401.703 268.3 401.393C 268.3 401.082 267.1 400.83 267.1 400.83z"/>
			<path style="stroke:none; fill:#ff0" d="M 284.065 404.817C 284.065 404.817 283.809 402.39 283.491 402.39C 283.175 402.39 282.918 404.817 282.918 404.817C 282.918 404.817 281.699 405.072 281.699 405.39C 281.699 405.707 282.918 405.963 282.918 405.963C 282.918 405.963 283.175 408.39 283.491 408.39C 283.809 408.39 284.065 405.963 284.065 405.963C 284.065 405.963 285.3 405.707 285.3 405.39C 285.3 405.072 284.065 404.817 284.065 404.817z"/>
			<path style="stroke:#f00; stroke-width:1; fill:none" d="M 276.5 394.966L 276.5 395.991"/>
			<path style="stroke:#f00; stroke-width:1; fill:none" d="M 276.5 390.39L 276.5 391.415"/>
			<path style="stroke:#f00; stroke-width:1; fill:none" d="M 276.5 385.89L 276.5 386.915"/>
		</g>
		<g>
			<path style="stroke:none; fill:#006" d="M 288 409.89L 264 409.89L 264 385.89L 288 385.89L 288 409.89z"/>
			<path style="stroke:none; fill:#f60" d="M 270.451 398.39C 270.451 398.915 270.025 399.34 269.5 399.34C 268.975 399.34 268.549 398.915 268.549 398.39C 268.549 397.864 268.975 397.44 269.5 397.44C 270.025 397.44 270.451 397.864 270.451 398.39z"/>
			<path style="stroke:none; fill:#3cf" d="M 268.451 396.415C 268.451 396.94 268.025 397.365 267.5 397.365C 266.975 397.365 266.549 396.94 266.549 396.415C 266.549 395.889 266.975 395.464 267.5 395.464C 268.025 395.464 268.451 395.889 268.451 396.415z"/>
			<path style="stroke:none; fill:#3cf" d="M 266.451 395.365C 266.451 395.89 266.025 396.315 265.5 396.315C 264.975 396.315 264.549 395.89 264.549 395.365C 264.549 394.839 264.975 394.415 265.5 394.415C 266.025 394.415 266.451 394.839 266.451 395.365z"/>
			<path style="stroke:none; fill:#f60" d="M 271.476 402.39C 271.476 402.915 271.05 403.34 270.524 403.34C 269.999 403.34 269.573 402.915 269.573 402.39C 269.573 401.864 269.999 401.44 270.524 401.44C 271.05 401.44 271.476 401.864 271.476 402.39z"/>
			<path style="stroke:none; fill:#3cf" d="M 269.451 403.39C 269.451 403.915 269.025 404.34 268.5 404.34C 267.975 404.34 267.549 403.915 267.549 403.39C 267.549 402.864 267.975 402.44 268.5 402.44C 269.025 402.44 269.451 402.864 269.451 403.39z"/>
			<path style="stroke:none; fill:#3cf" d="M 267.451 405.39C 267.451 405.915 267.025 406.34 266.5 406.34C 265.975 406.34 265.549 405.915 265.549 405.39C 265.549 404.864 265.975 404.44 266.5 404.44C 267.025 404.44 267.451 404.864 267.451 405.39z"/>
			<path style="stroke:none; fill:#f60" d="M 276.5 402.439C 277.025 402.439 277.449 402.864 277.449 403.39C 277.449 403.915 277.025 404.341 276.5 404.341C 275.975 404.341 275.551 403.915 275.551 403.39C 275.551 402.864 275.975 402.439 276.5 402.439z"/>
			<path style="stroke:none; fill:#f60" d="M 274.173 403.718C 274.543 404.089 274.543 404.691 274.173 405.062C 273.802 405.434 273.198 405.434 272.827 405.063C 272.456 404.691 272.458 404.09 272.829 403.718C 273.2 403.347 273.802 403.346 274.173 403.718z"/>
			<path style="stroke:none; fill:#3cf" d="M 273.173 405.718C 273.543 406.089 273.543 406.691 273.173 407.062C 272.802 407.434 272.198 407.434 271.827 407.063C 271.456 406.691 271.458 406.09 271.829 405.718C 272.2 405.347 272.802 405.346 273.173 405.718z"/>
			<path style="stroke:none; fill:#3cf" d="M 271.673 408.217C 272.043 408.588 272.043 409.19 271.673 409.561C 271.302 409.933 270.698 409.933 270.327 409.562C 269.956 409.19 269.958 408.589 270.329 408.217C 270.7 407.846 271.302 407.845 271.673 408.217z"/>
			<path style="stroke:none; fill:#f60" d="M 272.173 394.063C 272.544 393.692 272.544 393.09 272.173 392.719C 271.802 392.347 271.198 392.347 270.827 392.718C 270.456 393.09 270.458 393.691 270.829 394.063C 271.2 394.434 271.802 394.435 272.173 394.063z"/>
			<path style="stroke:none; fill:#f60" d="M 281.549 398.39C 281.549 398.915 281.975 399.34 282.498 399.34C 283.025 399.34 283.451 398.915 283.451 398.39C 283.451 397.864 283.025 397.44 282.498 397.44C 281.975 397.44 281.549 397.864 281.549 398.39z"/>
			<path style="stroke:none; fill:#f60" d="M 281.549 402.39C 281.549 402.915 281.975 403.34 282.498 403.34C 283.025 403.34 283.451 402.915 283.451 402.39C 283.451 401.864 283.025 401.44 282.498 401.44C 281.975 401.44 281.549 401.864 281.549 402.39z"/>
			<path style="stroke:none; fill:#3cf" d="M 283.549 403.39C 283.549 403.915 283.975 404.34 284.498 404.34C 285.025 404.34 285.451 403.915 285.451 403.39C 285.451 402.864 285.025 402.44 284.498 402.44C 283.975 402.44 283.549 402.864 283.549 403.39z"/>
			<path style="stroke:none; fill:#3cf" d="M 285.549 405.39C 285.549 405.915 285.975 406.34 286.498 406.34C 287.025 406.34 287.451 405.915 287.451 405.39C 287.451 404.864 287.025 404.44 286.498 404.44C 285.975 404.44 285.549 404.864 285.549 405.39z"/>
			<path style="stroke:none; fill:#f60" d="M 278.827 403.718C 278.456 404.089 278.456 404.691 278.827 405.062C 279.198 405.434 279.802 405.434 280.173 405.063C 280.544 404.691 280.542 404.09 280.171 403.718C 279.8 403.347 279.198 403.346 278.827 403.718z"/>
			<path style="stroke:none; fill:#3cf" d="M 279.827 405.718C 279.456 406.089 279.456 406.691 279.827 407.062C 280.198 407.434 280.802 407.434 281.173 407.063C 281.544 406.691 281.542 406.09 281.171 405.718C 280.8 405.347 280.198 405.346 279.827 405.718z"/>
			<path style="stroke:none; fill:#3cf" d="M 281.327 408.217C 280.956 408.588 280.956 409.19 281.327 409.561C 281.698 409.933 282.302 409.933 282.673 409.562C 283.044 409.19 283.042 408.589 282.671 408.217C 282.3 407.846 281.698 407.845 281.327 408.217z"/>
			<path style="stroke:none; fill:#f60" d="M 280.827 394.063C 280.456 393.692 280.456 393.09 280.827 392.719C 281.198 392.347 281.802 392.347 282.173 392.718C 282.544 393.09 282.542 393.691 282.171 394.063C 281.8 394.434 281.198 394.435 280.827 394.063z"/>
			<path style="stroke:none; fill:#3cf" d="M 282.827 392.063C 282.456 391.692 282.456 391.09 282.827 390.719C 283.198 390.347 283.802 390.347 284.173 390.718C 284.544 391.09 284.542 391.691 284.171 392.063C 283.8 392.434 283.198 392.435 282.827 392.063z"/>
			<path style="stroke:#fff; stroke-width:1; fill:none" d="M 276.5 385.89L 276.5 398.915"/>
			<path style="stroke:none; fill:#f60" d="M 277.451 399.39C 277.451 399.915 277.025 400.34 276.5 400.34C 275.975 400.34 275.549 399.915 275.549 399.39C 275.549 398.864 275.975 398.44 276.5 398.44C 277.025 398.44 277.451 398.864 277.451 399.39z"/>
			<path style="stroke:#f66; stroke-width:1; fill:none" d="M 276.5 386.865L 276.5 387.89"/>
			<path style="stroke:#f66; stroke-width:1; fill:none" d="M 276.5 391.39L 276.5 392.415"/>
			<path style="stroke:#f66; stroke-width:1; fill:none" d="M 276.5 395.89L 276.5 396.915"/>
			<path style="stroke:none; fill:#ff0" d="M 275.476 399.39C 275.476 399.652 275.263 399.865 275 399.865C 274.737 399.865 274.524 399.652 274.524 399.39C 274.524 399.127 274.737 398.915 275 398.915C 275.263 398.915 275.476 399.127 275.476 399.39z"/>
			<path style="stroke:none; fill:#960" d="M 276.525 402.439L 276.05 400.89L 277 400.89L 276.525 402.439z"/>
			<path style="stroke:none; fill:#ff0" d="M 276.525 400.39C 276.788 400.39 277 400.603 277 400.865C 277 401.128 276.788 401.341 276.525 401.341C 276.262 401.341 276.05 401.128 276.05 400.865C 276.05 400.603 276.262 400.39 276.525 400.39z"/>
			<path style="stroke:none; fill:#ff0" d="M 273.999 401.889L 275.156 400.061L 275.828 400.733L 273.999 401.889z"/>
			<path style="stroke:none; fill:#960" d="M 275.828 400.061C 276.014 400.246 276.014 400.547 275.828 400.733C 275.643 400.919 275.341 400.919 275.155 400.733C 274.97 400.547 274.971 400.247 275.156 400.061C 275.342 399.875 275.643 399.875 275.828 400.061z"/>
			<path style="stroke:none; fill:#ff0" d="M 274 396.89L 275.155 398.717L 275.827 398.046L 274 396.89z"/>
			<path style="stroke:none; fill:#960" d="M 275.827 398.717C 276.013 398.532 276.013 398.231 275.827 398.046C 275.642 397.859 275.34 397.859 275.154 398.045C 274.969 398.231 274.97 398.531 275.155 398.717C 275.341 398.903 275.642 398.903 275.827 398.717z"/>
			<path style="stroke:none; fill:#ff0" d="M 277.524 399.39C 277.524 399.652 277.737 399.865 278 399.865C 278.263 399.865 278.476 399.652 278.476 399.39C 278.476 399.127 278.263 398.915 278 398.915C 277.737 398.915 277.524 399.127 277.524 399.39z"/>
			<path style="stroke:none; fill:#ff0" d="M 279.001 401.889L 277.844 400.061L 277.172 400.733L 279.001 401.889z"/>
			<path style="stroke:none; fill:#960" d="M 277.172 400.061C 276.986 400.246 276.986 400.547 277.172 400.733C 277.357 400.919 277.659 400.919 277.845 400.733C 278.03 400.547 278.029 400.247 277.844 400.061C 277.658 399.875 277.357 399.875 277.172 400.061z"/>
			<path style="stroke:none; fill:#ff0" d="M 279 396.89L 277.845 398.717L 277.173 398.046L 279 396.89z"/>
			<path style="stroke:none; fill:#960" d="M 277.173 398.717C 276.987 398.532 276.987 398.231 277.173 398.046C 277.358 397.859 277.66 397.859 277.846 398.045C 278.031 398.231 278.03 398.531 277.845 398.717C 277.659 398.903 277.358 398.903 277.173 398.717z"/>
			<path style="stroke:none; fill:#ff0" d="M 286.101 396.83C 286.101 396.83 285.832 395.589 285.5 395.589C 285.169 395.589 284.9 396.83 284.9 396.83C 284.9 396.83 283.7 397.082 283.7 397.393C 283.7 397.703 284.9 397.955 284.9 397.955C 284.9 397.955 285.169 399.19 285.5 399.19C 285.832 399.19 286.101 397.955 286.101 397.955C 286.101 397.955 287.3 397.703 287.3 397.393C 287.3 397.082 286.101 396.83 286.101 396.83z"/>
			<path style="stroke:none; fill:#ff0" d="M 270.065 390.816C 270.065 390.816 269.81 388.39 269.492 388.39C 269.175 388.39 268.919 390.816 268.919 390.816C 268.919 390.816 267.7 391.072 267.7 391.39C 267.7 391.706 268.919 391.963 268.919 391.963C 268.919 391.963 269.175 394.39 269.492 394.39C 269.81 394.39 270.065 391.963 270.065 391.963C 270.065 391.963 271.301 391.706 271.301 391.39C 271.301 391.072 270.065 390.816 270.065 390.816z"/>
			<path style="stroke:none; fill:#ff0" d="M 277.008 406.573C 277.008 406.573 276.778 404.39 276.493 404.39C 276.207 404.39 275.976 406.573 275.976 406.573C 275.976 406.573 274.88 406.804 274.88 407.09C 274.88 407.375 275.976 407.606 275.976 407.606C 275.976 407.606 276.207 409.79 276.493 409.79C 276.778 409.79 277.008 407.606 277.008 407.606C 277.008 407.606 278.12 407.375 278.12 407.09C 278.12 406.804 277.008 406.573 277.008 406.573z"/>
			<path style="stroke:#f00; stroke-width:1; fill:none" d="M 276.5 394.966L 276.5 395.991"/>
			<path style="stroke:#f00; stroke-width:1; fill:none" d="M 276.5 390.39L 276.5 391.415"/>
			<path style="stroke:#f00; stroke-width:1; fill:none" d="M 276.5 385.89L 276.5 386.915"/>
		</g>
		<g>
			<path style="stroke:none; fill:#006" d="M 288 409.89L 264 409.89L 264 385.89L 288 385.89L 288 409.89z"/>
			<path style="stroke:#fff; stroke-width:1; fill:none" d="M 276.5 385.89L 276.5 398.915"/>
			<path style="stroke:none; fill:#f60" d="M 277.451 399.39C 277.451 399.915 277.025 400.34 276.5 400.34C 275.975 400.34 275.549 399.915 275.549 399.39C 275.549 398.864 275.975 398.44 276.5 398.44C 277.025 398.44 277.451 398.864 277.451 399.39z"/>
			<path style="stroke:#f66; stroke-width:1; fill:none" d="M 276.5 386.865L 276.5 387.89"/>
			<path style="stroke:#f66; stroke-width:1; fill:none" d="M 276.5 391.39L 276.5 392.415"/>
			<path style="stroke:#f66; stroke-width:1; fill:none" d="M 276.5 395.89L 276.5 396.915"/>
			<path style="stroke:none; fill:#ff0" d="M 270.5 399.39L 274.5 398.915L 274.5 399.865L 270.5 399.39z"/>
			<path style="stroke:none; fill:#960" d="M 274.976 399.39C 274.976 399.652 274.763 399.865 274.5 399.865C 274.237 399.865 274.024 399.652 274.024 399.39C 274.024 399.127 274.237 398.915 274.5 398.915C 274.763 398.915 274.976 399.127 274.976 399.39z"/>
			<path style="stroke:none; fill:#ff0" d="M 271.976 399.39C 271.976 399.915 271.55 400.34 271.024 400.34C 270.499 400.34 270.073 399.915 270.073 399.39C 270.073 398.864 270.499 398.44 271.024 398.44C 271.55 398.44 271.976 398.864 271.976 399.39z"/>
			<path style="stroke:none; fill:#960" d="M 276.525 404.89L 276.05 400.89L 277 400.89L 276.525 404.89z"/>
			<path style="stroke:none; fill:#ff0" d="M 276.525 400.414C 276.788 400.414 277 400.627 277 400.89C 277 401.152 276.788 401.365 276.525 401.365C 276.262 401.365 276.05 401.152 276.05 400.89C 276.05 400.627 276.262 400.414 276.525 400.414z"/>
			<path style="stroke:none; fill:#ff0" d="M 276.525 403.439C 277.05 403.439 277.475 403.864 277.475 404.39C 277.475 404.915 277.05 405.341 276.525 405.341C 276 405.341 275.575 404.915 275.575 404.39C 275.575 403.864 276 403.439 276.525 403.439z"/>
			<path style="stroke:none; fill:#ff0" d="M 272.663 403.225L 275.156 400.061L 275.828 400.733L 272.663 403.225z"/>
			<path style="stroke:none; fill:#960" d="M 275.828 400.061C 276.014 400.246 276.014 400.547 275.828 400.733C 275.643 400.919 275.341 400.919 275.155 400.733C 274.97 400.547 274.971 400.247 275.156 400.061C 275.342 399.875 275.643 399.875 275.828 400.061z"/>
			<path style="stroke:none; fill:#ff0" d="M 273.673 402.218C 274.044 402.589 274.044 403.191 273.673 403.562C 273.302 403.934 272.698 403.934 272.327 403.563C 271.956 403.191 271.958 402.59 272.329 402.218C 272.7 401.847 273.302 401.846 273.673 402.218z"/>
			<path style="stroke:none; fill:#ff0" d="M 272.662 395.553L 275.155 398.717L 275.827 398.046L 272.662 395.553z"/>
			<path style="stroke:none; fill:#960" d="M 275.827 398.717C 276.013 398.532 276.013 398.231 275.827 398.046C 275.642 397.859 275.34 397.859 275.154 398.045C 274.969 398.231 274.97 398.531 275.155 398.717C 275.341 398.903 275.642 398.903 275.827 398.717z"/>
			<path style="stroke:none; fill:#ff0" d="M 273.673 396.563C 274.044 396.192 274.044 395.59 273.673 395.219C 273.302 394.847 272.698 394.847 272.327 395.218C 271.956 395.59 271.958 396.191 272.329 396.563C 272.7 396.934 273.302 396.935 273.673 396.563z"/>
			<path style="stroke:none; fill:#ff0" d="M 266.164 397.054C 266.535 396.683 266.535 396.081 266.164 395.71C 265.793 395.338 265.189 395.338 264.818 395.709C 264.447 396.081 264.449 396.682 264.82 397.054C 265.191 397.425 265.793 397.426 266.164 397.054z"/>
			<path style="stroke:none; fill:#f60" d="M 268.173 397.054C 268.544 396.683 268.544 396.081 268.173 395.71C 267.802 395.338 267.198 395.338 266.827 395.709C 266.456 396.081 266.458 396.682 266.829 397.054C 267.2 397.425 267.802 397.426 268.173 397.054z"/>
			<path style="stroke:none; fill:#ff0" d="M 268.673 406.563C 269.044 406.192 269.044 405.59 268.673 405.219C 268.302 404.847 267.699 404.847 267.328 405.218C 266.957 405.59 266.958 406.191 267.33 406.563C 267.701 406.934 268.302 406.935 268.673 406.563z"/>
			<path style="stroke:none; fill:#f60" d="M 270.5 404.734C 270.871 404.363 270.871 403.761 270.5 403.39C 270.129 403.018 269.525 403.018 269.154 403.389C 268.783 403.761 268.785 404.362 269.156 404.734C 269.527 405.105 270.129 405.106 270.5 404.734z"/>
			<path style="stroke:none; fill:#ff0" d="M 274.182 409.054C 274.553 408.683 274.553 408.081 274.182 407.71C 273.811 407.338 273.207 407.338 272.836 407.709C 272.465 408.081 272.467 408.682 272.838 409.054C 273.21 409.425 273.811 409.426 274.182 409.054z"/>
			<path style="stroke:none; fill:#ff0" d="M 280.182 409.07C 280.553 408.699 280.553 408.098 280.182 407.727C 279.811 407.355 279.207 407.355 278.836 407.726C 278.465 408.098 278.467 408.698 278.838 409.07C 279.21 409.442 279.811 409.442 280.182 409.07z"/>
			<path style="stroke:none; fill:#f60" d="M 274.182 407.062C 274.553 406.691 274.553 406.089 274.182 405.718C 273.811 405.346 273.207 405.346 272.836 405.717C 272.465 406.089 272.467 406.69 272.838 407.062C 273.21 407.433 273.811 407.434 274.182 407.062z"/>
			<path style="stroke:none; fill:#f60" d="M 280.182 407.062C 280.553 406.691 280.553 406.089 280.182 405.718C 279.811 405.346 279.207 405.346 278.836 405.717C 278.465 406.089 278.467 406.69 278.838 407.062C 279.21 407.433 279.811 407.434 280.182 407.062z"/>
			<path style="stroke:none; fill:#ff0" d="M 287.173 402.07C 287.544 401.699 287.544 401.098 287.173 400.727C 286.802 400.355 286.198 400.355 285.827 400.726C 285.456 401.098 285.458 401.698 285.829 402.07C 286.2 402.442 286.802 402.442 287.173 402.07z"/>
			<path style="stroke:none; fill:#f60" d="M 285.173 402.07C 285.544 401.699 285.544 401.098 285.173 400.727C 284.802 400.355 284.198 400.355 283.827 400.726C 283.456 401.098 283.458 401.698 283.829 402.07C 284.2 402.442 284.802 402.442 285.173 402.07z"/>
			<path style="stroke:none; fill:#ff0" d="M 287.673 397.054C 288.044 396.683 288.044 396.081 287.673 395.71C 287.302 395.338 286.698 395.338 286.327 395.709C 285.956 396.081 285.958 396.682 286.329 397.054C 286.7 397.425 287.302 397.426 287.673 397.054z"/>
			<path style="stroke:none; fill:#f60" d="M 285.673 397.054C 286.044 396.683 286.044 396.081 285.673 395.71C 285.302 395.338 284.698 395.338 284.327 395.709C 283.956 396.081 283.958 396.682 284.329 397.054C 284.7 397.425 285.302 397.426 285.673 397.054z"/>
			<path style="stroke:none; fill:#ff0" d="M 282.5 399.39L 278.5 398.915L 278.5 399.865L 282.5 399.39z"/>
			<path style="stroke:none; fill:#960" d="M 278.024 399.39C 278.024 399.652 278.237 399.865 278.5 399.865C 278.763 399.865 278.976 399.652 278.976 399.39C 278.976 399.127 278.763 398.915 278.5 398.915C 278.237 398.915 278.024 399.127 278.024 399.39z"/>
			<path style="stroke:none; fill:#ff0" d="M 281.049 399.39C 281.049 399.915 281.475 400.34 282 400.34C 282.525 400.34 282.951 399.915 282.951 399.39C 282.951 398.864 282.525 398.44 282 398.44C 281.475 398.44 281.049 398.864 281.049 399.39z"/>
			<path style="stroke:none; fill:#ff0" d="M 280.337 403.225L 277.844 400.061L 277.172 400.733L 280.337 403.225z"/>
			<path style="stroke:none; fill:#960" d="M 277.172 400.061C 276.986 400.246 276.986 400.547 277.172 400.733C 277.357 400.919 277.659 400.919 277.845 400.733C 278.03 400.547 278.029 400.247 277.844 400.061C 277.658 399.875 277.357 399.875 277.172 400.061z"/>
			<path style="stroke:none; fill:#ff0" d="M 279.327 402.218C 278.956 402.589 278.956 403.191 279.327 403.562C 279.698 403.934 280.302 403.934 280.673 403.563C 281.044 403.191 281.042 402.59 280.671 402.218C 280.3 401.847 279.698 401.846 279.327 402.218z"/>
			<path style="stroke:none; fill:#ff0" d="M 280.338 395.553L 277.845 398.717L 277.173 398.046L 280.338 395.553z"/>
			<path style="stroke:none; fill:#960" d="M 277.173 398.717C 276.987 398.532 276.987 398.231 277.173 398.046C 277.358 397.859 277.66 397.859 277.846 398.045C 278.031 398.231 278.03 398.531 277.845 398.717C 277.659 398.903 277.358 398.903 277.173 398.717z"/>
			<path style="stroke:none; fill:#ff0" d="M 279.327 396.563C 278.956 396.192 278.956 395.59 279.327 395.219C 279.698 394.847 280.302 394.847 280.673 395.218C 281.044 395.59 281.042 396.191 280.671 396.563C 280.3 396.934 279.698 396.935 279.327 396.563z"/>
			<path style="stroke:none; fill:#ff0" d="M 267 400.924C 267 400.924 266.776 399.89 266.5 399.89C 266.224 399.89 266 400.924 266 400.924C 266 400.924 265 401.133 265 401.392C 265 401.651 266 401.861 266 401.861C 266 401.861 266.224 402.89 266.5 402.89C 266.776 402.89 267 401.861 267 401.861C 267 401.861 268 401.651 268 401.392C 268 401.133 267 400.924 267 400.924z"/>
			<path style="stroke:none; fill:#ff0" d="M 283.971 404.912C 283.971 404.912 283.757 402.89 283.493 402.89C 283.229 402.89 283.015 404.912 283.015 404.912C 283.015 404.912 282 405.126 282 405.39C 282 405.654 283.015 405.867 283.015 405.867C 283.015 405.867 283.229 407.89 283.493 407.89C 283.757 407.89 283.971 405.867 283.971 405.867C 283.971 405.867 285 405.654 285 405.39C 285 405.126 283.971 404.912 283.971 404.912z"/>
			<path style="stroke:#f00; stroke-width:1; fill:none" d="M 276.5 394.966L 276.5 395.991"/>
			<path style="stroke:#f00; stroke-width:1; fill:none" d="M 276.5 390.39L 276.5 391.415"/>
			<path style="stroke:#f00; stroke-width:1; fill:none" d="M 276.5 385.89L 276.5 386.915"/>
		</g>
		<g>
			<path style="stroke:none; fill:#006" d="M 288 409.89L 264 409.89L 264 385.89L 288 385.89L 288 409.89z"/>
			<path style="stroke:#fff; stroke-width:1; fill:none" d="M 276.5 385.89L 276.5 397.915"/>
			<path style="stroke:none; fill:#f60" d="M 277.446 398.39C 277.446 398.915 277.021 399.34 276.495 399.34C 275.97 399.34 275.544 398.915 275.544 398.39C 275.544 397.864 275.97 397.44 276.495 397.44C 277.021 397.44 277.446 397.864 277.446 398.39z"/>
			<path style="stroke:#f66; stroke-width:1; fill:none" d="M 276.5 386.865L 276.5 387.89"/>
			<path style="stroke:#f66; stroke-width:1; fill:none" d="M 276.5 391.39L 276.5 392.415"/>
			<path style="stroke:#f66; stroke-width:1; fill:none" d="M 276.5 395.89L 276.5 396.915"/>
			<path style="stroke:none; fill:#960" d="M 275.476 399.39C 275.476 399.652 275.263 399.865 275 399.865C 274.737 399.865 274.524 399.652 274.524 399.39C 274.524 399.127 274.737 398.915 275 398.915C 275.263 398.915 275.476 399.127 275.476 399.39z"/>
			<path style="stroke:none; fill:#960" d="M 276.495 405.914L 276.02 401.914L 276.97 401.914L 276.495 405.914z"/>
			<path style="stroke:none; fill:#ff0" d="M 276.495 401.414C 276.758 401.414 276.97 401.627 276.97 401.89C 276.97 402.152 276.758 402.365 276.495 402.365C 276.232 402.365 276.02 402.152 276.02 401.89C 276.02 401.627 276.232 401.414 276.495 401.414z"/>
			<path style="stroke:none; fill:#ff0" d="M 276.495 399.446C 277.021 399.446 277.445 399.872 277.445 400.398C 277.445 400.923 277.021 401.349 276.495 401.349C 275.97 401.349 275.545 400.923 275.545 400.398C 275.545 399.872 275.97 399.446 276.495 399.446z"/>
			<path style="stroke:none; fill:#ff0" d="M 276.495 404.987C 277.021 404.987 277.445 405.413 277.445 405.939C 277.445 406.464 277.021 406.89 276.495 406.89C 275.97 406.89 275.545 406.464 275.545 405.939C 275.545 405.413 275.97 404.987 276.495 404.987z"/>
			<path style="stroke:none; fill:#ff0" d="M 270.671 405.218L 273.165 402.054L 273.836 402.726L 270.671 405.218z"/>
			<path style="stroke:none; fill:#f60" d="M 273.836 402.054C 274.022 402.239 274.022 402.54 273.836 402.726C 273.651 402.912 273.349 402.912 273.164 402.726C 272.978 402.54 272.979 402.24 273.165 402.054C 273.35 401.868 273.651 401.868 273.836 402.054z"/>
			<path style="stroke:none; fill:#ff0" d="M 271.681 404.211C 272.052 404.582 272.052 405.184 271.681 405.555C 271.31 405.927 270.707 405.927 270.335 405.556C 269.964 405.184 269.966 404.583 270.337 404.211C 270.708 403.84 271.31 403.839 271.681 404.211z"/>
			<path style="stroke:none; fill:#ff0" d="M 282.336 405.218L 279.843 402.054L 279.171 402.726L 282.336 405.218z"/>
			<path style="stroke:none; fill:#f60" d="M 279.171 402.054C 278.986 402.239 278.986 402.54 279.171 402.726C 279.357 402.912 279.659 402.912 279.844 402.726C 280.03 402.54 280.029 402.24 279.843 402.054C 279.658 401.868 279.357 401.868 279.171 402.054z"/>
			<path style="stroke:none; fill:#ff0" d="M 281.327 404.211C 280.956 404.582 280.956 405.184 281.327 405.555C 281.698 405.927 282.301 405.927 282.672 405.556C 283.043 405.184 283.042 404.583 282.67 404.211C 282.299 403.84 281.698 403.839 281.327 404.211z"/>
			<path style="stroke:none; fill:#960" d="M 275.336 398.726C 275.522 398.541 275.522 398.24 275.336 398.054C 275.151 397.868 274.849 397.868 274.664 398.054C 274.478 398.24 274.479 398.54 274.665 398.726C 274.85 398.912 275.151 398.912 275.336 398.726z"/>
			<path style="stroke:none; fill:#960" d="M 277.524 399.39C 277.524 399.652 277.737 399.865 278 399.865C 278.263 399.865 278.476 399.652 278.476 399.39C 278.476 399.127 278.263 398.915 278 398.915C 277.737 398.915 277.524 399.127 277.524 399.39z"/>
			<path style="stroke:none; fill:#960" d="M 275.476 400.39C 275.476 400.652 275.263 400.865 275 400.865C 274.737 400.865 274.524 400.652 274.524 400.39C 274.524 400.127 274.737 399.915 275 399.915C 275.263 399.915 275.476 400.127 275.476 400.39z"/>
			<path style="stroke:none; fill:#960" d="M 277.524 400.39C 277.524 400.652 277.737 400.865 278 400.865C 278.263 400.865 278.476 400.652 278.476 400.39C 278.476 400.127 278.263 399.915 278 399.915C 277.737 399.915 277.524 400.127 277.524 400.39z"/>
			<path style="stroke:none; fill:#ff0" d="M 283.476 399.39L 280.5 398.915L 280.5 399.865L 283.476 399.39z"/>
			<path style="stroke:none; fill:#f60" d="M 280.024 399.39C 280.024 399.652 280.237 399.865 280.5 399.865C 280.763 399.865 280.976 399.652 280.976 399.39C 280.976 399.127 280.763 398.915 280.5 398.915C 280.237 398.915 280.024 399.127 280.024 399.39z"/>
			<path style="stroke:none; fill:#ff0" d="M 282.049 399.39C 282.049 399.915 282.475 400.34 283 400.34C 283.525 400.34 283.951 399.915 283.951 399.39C 283.951 398.864 283.525 398.44 283 398.44C 282.475 398.44 282.049 398.864 282.049 399.39z"/>
			<path style="stroke:none; fill:#ff0" d="M 269.524 399.39L 272.5 398.915L 272.5 399.865L 269.524 399.39z"/>
			<path style="stroke:none; fill:#f60" d="M 272.976 399.39C 272.976 399.652 272.763 399.865 272.5 399.865C 272.237 399.865 272.024 399.652 272.024 399.39C 272.024 399.127 272.237 398.915 272.5 398.915C 272.763 398.915 272.976 399.127 272.976 399.39z"/>
			<path style="stroke:none; fill:#ff0" d="M 270.951 399.39C 270.951 399.915 270.525 400.34 270 400.34C 269.475 400.34 269.049 399.915 269.049 399.39C 269.049 398.864 269.475 398.44 270 398.44C 270.525 398.44 270.951 398.864 270.951 399.39z"/>
			<path style="stroke:none; fill:#960" d="M 277.664 398.726C 277.478 398.541 277.478 398.24 277.664 398.054C 277.849 397.868 278.151 397.868 278.336 398.054C 278.522 398.24 278.521 398.54 278.335 398.726C 278.15 398.912 277.849 398.912 277.664 398.726z"/>
			<path style="stroke:#f00; stroke-width:1; fill:none" d="M 276.5 394.966L 276.5 395.991"/>
			<path style="stroke:#f00; stroke-width:1; fill:none" d="M 276.5 390.39L 276.5 391.415"/>
			<path style="stroke:#f00; stroke-width:1; fill:none" d="M 276.5 385.89L 276.5 386.915"/>
		</g>
		<g>
			<path style="stroke:none; fill:#006" d="M 288 409.89L 264 409.89L 264 385.89L 288 385.89L 288 409.89z"/>
			<path style="stroke:#fff; stroke-width:1; fill:none" d="M 276.5 385.89L 276.5 397.915"/>
			<path style="stroke:none; fill:#f60" d="M 277.464 398.39C 277.464 398.915 277.038 399.34 276.513 399.34C 275.987 399.34 275.561 398.915 275.561 398.39C 275.561 397.864 275.987 397.44 276.513 397.44C 277.038 397.44 277.464 397.864 277.464 398.39z"/>
			<path style="stroke:none; fill:#ff0" d="M 277.464 400.39C 277.464 400.915 277.038 401.34 276.513 401.34C 275.987 401.34 275.561 400.915 275.561 400.39C 275.561 399.864 275.987 399.44 276.513 399.44C 277.038 399.44 277.464 399.864 277.464 400.39z"/>
			<path style="stroke:#f66; stroke-width:1; fill:none" d="M 276.5 386.865L 276.5 387.89"/>
			<path style="stroke:#f66; stroke-width:1; fill:none" d="M 276.5 391.39L 276.5 392.415"/>
			<path style="stroke:#f66; stroke-width:1; fill:none" d="M 276.5 395.89L 276.5 396.915"/>
			<path style="stroke:none; fill:#960" d="M 275.476 399.398C 275.476 399.66 275.263 399.873 275 399.873C 274.737 399.873 274.524 399.66 274.524 399.398C 274.524 399.135 274.737 398.923 275 398.923C 275.263 398.923 275.476 399.135 275.476 399.398z"/>
			<path style="stroke:none; fill:#ff0" d="M 276.513 401.414C 276.775 401.414 276.987 401.627 276.987 401.89C 276.987 402.152 276.775 402.365 276.513 402.365C 276.25 402.365 276.037 402.152 276.037 401.89C 276.037 401.627 276.25 401.414 276.513 401.414z"/>
			<path style="stroke:none; fill:#960" d="M 276.513 402.43C 276.775 402.43 276.987 402.643 276.987 402.905C 276.987 403.168 276.775 403.381 276.513 403.381C 276.25 403.381 276.037 403.168 276.037 402.905C 276.037 402.643 276.25 402.43 276.513 402.43z"/>
			<path style="stroke:none; fill:#960" d="M 275.336 400.069C 275.522 400.255 275.522 400.556 275.336 400.741C 275.151 400.927 274.849 400.927 274.664 400.742C 274.478 400.556 274.479 400.255 274.665 400.069C 274.85 399.884 275.151 399.883 275.336 400.069z"/>
			<path style="stroke:none; fill:#960" d="M 275.336 398.726C 275.522 398.541 275.522 398.24 275.336 398.054C 275.151 397.868 274.849 397.868 274.664 398.054C 274.478 398.24 274.479 398.54 274.665 398.726C 274.85 398.912 275.151 398.912 275.336 398.726z"/>
			<path style="stroke:none; fill:#960" d="M 277.524 399.39C 277.524 399.652 277.737 399.865 278 399.865C 278.263 399.865 278.476 399.652 278.476 399.39C 278.476 399.127 278.263 398.915 278 398.915C 277.737 398.915 277.524 399.127 277.524 399.39z"/>
			<path style="stroke:none; fill:#960" d="M 277.664 400.054C 277.478 400.239 277.478 400.54 277.664 400.726C 277.849 400.912 278.151 400.912 278.336 400.726C 278.522 400.54 278.521 400.24 278.335 400.054C 278.15 399.868 277.849 399.868 277.664 400.054z"/>
			<path style="stroke:none; fill:#960" d="M 277.664 398.726C 277.478 398.541 277.478 398.24 277.664 398.054C 277.849 397.868 278.151 397.868 278.336 398.054C 278.522 398.24 278.521 398.54 278.335 398.726C 278.15 398.912 277.849 398.912 277.664 398.726z"/>
			<path style="stroke:#f00; stroke-width:1; fill:none" d="M 276.5 394.966L 276.5 395.991"/>
			<path style="stroke:#f00; stroke-width:1; fill:none" d="M 276.5 390.39L 276.5 391.415"/>
			<path style="stroke:#f00; stroke-width:1; fill:none" d="M 276.5 385.89L 276.5 386.915"/>
		</g>
		<g>
			<path style="stroke:none; fill:#006" d="M 288 409.89L 264 409.89L 264 385.89L 288 385.89L 288 409.89z"/>
			<path style="stroke:#fff; stroke-width:1; fill:none" d="M 276.5 385.89L 276.5 397.915"/>
			<path style="stroke:#f66; stroke-width:1; fill:none" d="M 276.5 386.865L 276.5 387.89"/>
			<path style="stroke:#f66; stroke-width:1; fill:none" d="M 276.5 391.39L 276.5 392.415"/>
			<path style="stroke:#f66; stroke-width:1; fill:none" d="M 276.5 395.89L 276.5 396.915"/>
			<path style="stroke:none; fill:#960" d="M 275.976 407.89C 275.976 408.152 275.763 408.365 275.5 408.365C 275.237 408.365 275.024 408.152 275.024 407.89C 275.024 407.627 275.237 407.415 275.5 407.415C 275.763 407.415 275.976 407.627 275.976 407.89z"/>
			<path style="stroke:none; fill:#ff0" d="M 276.513 407.899C 276.775 407.899 276.987 408.111 276.987 408.374C 276.987 408.637 276.775 408.85 276.513 408.85C 276.25 408.85 276.037 408.637 276.037 408.374C 276.037 408.111 276.25 407.899 276.513 407.899z"/>
			<path style="stroke:none; fill:#f60" d="M 276.513 404.914C 276.775 404.914 276.987 405.127 276.987 405.39C 276.987 405.652 276.775 405.865 276.513 405.865C 276.25 405.865 276.037 405.652 276.037 405.39C 276.037 405.127 276.25 404.914 276.513 404.914z"/>
			<path style="stroke:none; fill:#ff0" d="M 276.513 405.941C 277.038 405.941 277.463 406.366 277.463 406.892C 277.463 407.417 277.038 407.843 276.513 407.843C 275.987 407.843 275.562 407.417 275.562 406.892C 275.562 406.366 275.987 405.941 276.513 405.941z"/>
			<path style="stroke:none; fill:#960" d="M 276.513 408.914C 276.775 408.914 276.987 409.127 276.987 409.39C 276.987 409.652 276.775 409.865 276.513 409.865C 276.25 409.865 276.037 409.652 276.037 409.39C 276.037 409.127 276.25 408.914 276.513 408.914z"/>
			<path style="stroke:none; fill:#960" d="M 275.828 408.554C 276.014 408.739 276.014 409.04 275.828 409.226C 275.643 409.412 275.341 409.412 275.155 409.226C 274.97 409.04 274.971 408.74 275.156 408.554C 275.342 408.368 275.643 408.368 275.828 408.554z"/>
			<path style="stroke:none; fill:#960" d="M 275.836 406.226C 276.022 406.041 276.022 405.74 275.836 405.554C 275.651 405.368 275.349 405.368 275.164 405.554C 274.978 405.74 274.979 406.04 275.165 406.226C 275.35 406.412 275.651 406.412 275.836 406.226z"/>
			<path style="stroke:none; fill:#960" d="M 277.024 407.89C 277.024 408.152 277.237 408.365 277.5 408.365C 277.763 408.365 277.976 408.152 277.976 407.89C 277.976 407.627 277.763 407.415 277.5 407.415C 277.237 407.415 277.024 407.627 277.024 407.89z"/>
			<path style="stroke:none; fill:#960" d="M 277.172 408.554C 276.986 408.739 276.986 409.04 277.172 409.226C 277.357 409.412 277.659 409.412 277.845 409.226C 278.03 409.04 278.029 408.74 277.844 408.554C 277.658 408.368 277.357 408.368 277.172 408.554z"/>
			<path style="stroke:none; fill:#960" d="M 277.164 406.226C 276.978 406.041 276.978 405.74 277.164 405.554C 277.349 405.368 277.651 405.368 277.836 405.554C 278.022 405.74 278.021 406.04 277.835 406.226C 277.65 406.412 277.349 406.412 277.164 406.226z"/>
			<path style="stroke:#f00; stroke-width:1; fill:none" d="M 276.5 394.966L 276.5 395.991"/>
			<path style="stroke:#f00; stroke-width:1; fill:none" d="M 276.5 390.39L 276.5 391.415"/>
			<path style="stroke:#f00; stroke-width:1; fill:none" d="M 276.5 385.89L 276.5 386.915"/>
			<path style="stroke:none; fill:#f60" d="M 277.451 398.39C 277.451 398.915 277.025 399.34 276.5 399.34C 275.975 399.34 275.549 398.915 275.549 398.39C 275.549 397.864 275.975 397.44 276.5 397.44C 277.025 397.44 277.451 397.864 277.451 398.39z"/>
		</g>
	</g>
</svg>
