<svg xmlns="http://www.w3.org/2000/svg" width="24" height="24">
	<g transform="translate(-264,-386)" id="KDDI_D_485">
		<g>
			<path style="stroke:none; fill:none" d="M 288 409.89L 264 409.89L 264 385.89L 288 385.89L 288 409.89z"/>
		</g>
		<g>
			<path style="stroke:none; fill:#00c" d="M 272.271 392.89C 272.271 393.166 272.5 393.39 272.5 393.39C 272.5 393.39 273.271 393.166 273.271 392.89C 273.271 392.89 272.776 388.89 272.5 388.89C 272.224 388.89 272.271 392.89 272.271 392.89z"/>
			<path style="stroke:none; fill:#66f" d="M 271.771 392.89C 271.771 393.166 272.5 393.39 272.5 393.39C 272.5 393.39 272.5 393.166 272.5 392.89C 272.5 392.89 272.5 389.39 272.5 388.89C 272.224 388.89 271.771 392.89 271.771 392.89z"/>
			<path style="stroke:none; fill:#00c" d="M 275.271 391.89C 275.271 392.166 275.5 392.39 275.5 392.39C 275.5 392.39 276.271 392.166 276.271 391.89C 276.271 391.89 275.776 387.89 275.5 387.89C 275.224 387.89 275.271 391.89 275.271 391.89z"/>
			<path style="stroke:none; fill:#66f" d="M 274.771 391.89C 274.771 392.166 275.5 392.39 275.5 392.39C 275.5 392.39 275.5 392.166 275.5 391.89C 275.5 391.89 275.5 388.39 275.5 387.89C 275.224 387.89 274.771 391.89 274.771 391.89z"/>
			<path style="stroke:none; fill:#00c" d="M 284 392.161C 283.724 392.161 283.5 392.39 283.5 392.39C 283.5 392.39 283.724 393.161 284 393.161C 284 393.161 288 392.666 288 392.39C 288 392.114 284 392.161 284 392.161z"/>
			<path style="stroke:none; fill:#66f" d="M 284 391.66C 283.724 391.66 283.5 392.39 283.5 392.39C 283.5 392.39 283.724 392.39 284 392.39C 284 392.39 287.5 392.39 288 392.39C 288 392.113 284 391.66 284 391.66z"/>
			<path style="stroke:none; fill:#00c" d="M 283 395.161C 282.724 395.161 282.5 395.39 282.5 395.39C 282.5 395.39 282.724 396.161 283 396.161C 283 396.161 287 395.666 287 395.39C 287 395.114 283 395.161 283 395.161z"/>
			<path style="stroke:none; fill:#66f" d="M 283 394.66C 282.724 394.66 282.5 395.39 282.5 395.39C 282.5 395.39 282.724 395.39 283 395.39C 283 395.39 286.5 395.39 287 395.39C 287 395.113 283 394.66 283 394.66z"/>
			<path style="stroke:none; fill:#00c" d="M 281 399.161C 280.724 399.161 280.5 399.39 280.5 399.39C 280.5 399.39 280.724 400.161 281 400.161C 281 400.161 285 399.666 285 399.39C 285 399.114 281 399.161 281 399.161z"/>
			<path style="stroke:none; fill:#66f" d="M 281 398.66C 280.724 398.66 280.5 399.39 280.5 399.39C 280.5 399.39 280.724 399.39 281 399.39C 281 399.39 284.5 399.39 285 399.39C 285 399.113 281 398.66 281 398.66z"/>
			<path style="stroke:none; fill:#00c" d="M 279.271 390.89C 279.271 391.166 279.5 391.39 279.5 391.39C 279.5 391.39 280.271 391.166 280.271 390.89C 280.271 390.89 279.776 386.89 279.5 386.89C 279.224 386.89 279.271 390.89 279.271 390.89z"/>
			<path style="stroke:none; fill:#66f" d="M 278.771 390.89C 278.771 391.166 279.5 391.39 279.5 391.39C 279.5 391.39 279.5 391.166 279.5 390.89C 279.5 390.89 279.5 387.39 279.5 386.89C 279.224 386.89 278.771 390.89 278.771 390.89z"/>
			<path style="stroke:none; fill:#00c" d="M 269 396.39C 269 396.666 269.224 396.89 269.5 396.89C 269.776 396.89 270 396.666 270 396.39C 270 396.39 269.776 390.89 269.5 390.89C 269.224 390.89 269 396.39 269 396.39z"/>
			<path style="stroke:none; fill:#66f" d="M 281.5 389.89C 281.5 390.166 281.723 390.39 282 390.39C 282.275 390.39 282.5 390.166 282.5 389.89C 282.5 389.89 282.275 385.89 282 385.89C 281.723 385.89 281.5 389.89 281.5 389.89z"/>
			<path style="stroke:none; fill:#00c" d="M 279 401.89C 278.724 401.89 278.5 402.113 278.5 402.39C 278.5 402.666 278.724 402.89 279 402.89C 279 402.89 284 402.666 284 402.39C 284 402.113 279 401.89 279 401.89z"/>
			<path style="stroke:none; fill:#33f" d="M 264.5 409.39C 264.5 409.39 264.5 408.39 267 405.89C 269.821 403.069 269.5 400.889 269.5 399.89C 269.5 398.89 269.5 398.89 269.5 397.39C 269.5 394.89 271 393.89 272 392.89C 273 391.89 276 391.89 276.5 391.89C 276.5 391.89 276.5 390.89 280 390.89C 280 390.89 279.5 389.39 282.5 389.39C 282.5 389.39 282.5 387.89 284 387.89C 284 387.89 284 387.39 285.5 387.39C 285.5 387.39 285.5 386.39 287.5 386.39C 287.5 386.39 287.5 388.39 286.5 388.39C 286.5 389.89 286 389.89 286 389.89C 286 389.89 286 391.39 284.5 391.39C 284.5 393.89 283 393.89 283 393.89C 283 397.39 282 397.39 282 397.39C 282 397.39 281.816 399.257 281.5 399.89C 280.5 401.89 278 403.39 276 403.39C 275.5 403.39 275.5 403.39 274.5 403.39C 273 403.39 269.75 405.14 268 406.89C 265.5 409.39 264.5 409.39 264.5 409.39z"/>
			<path style="stroke:none; fill:#66f" d="M 285.5 387.39C 284 387.39 284 387.89 284 387.89C 282.5 387.89 282.5 389.39 282.5 389.39C 279.5 389.39 280 390.89 280 390.89C 276.5 390.89 276.5 391.89 276.5 391.89C 276.409 391.89 276.234 391.89 276.006 391.896L 281.947 397.837C 281.98 397.576 282 397.39 282 397.39C 282 397.39 283 397.39 283 393.89C 283 393.89 284.5 393.89 284.5 391.39C 286 391.39 286 389.89 286 389.89C 286 389.89 286.5 389.89 286.5 388.39C 287.5 388.39 287.5 386.39 287.5 386.39C 285.5 386.39 285.5 387.39 285.5 387.39z"/>
			<path style="stroke:none; fill:#66f" d="M 279.5 397.39C 279 396.89 277.5 395.39 276.5 394.39C 275.5 393.39 275 393.39 274.5 393.39C 274.236 393.39 272.863 393.39 271.476 393.39C 270.705 394.112 269.859 394.957 269.591 396.419C 270.296 397.328 271 398.242 271 398.89C 271 399.657 270.216 400.684 269.449 401.506C 269.292 402.634 268.752 404.138 267 405.89C 264.5 408.39 264.5 409.39 264.5 409.39C 264.5 409.39 265.5 409.39 268 406.89C 269.75 405.14 273 403.39 274.5 403.39C 275.5 403.39 275.5 403.39 276 403.39C 277.473 403.39 279.215 402.572 280.431 401.343C 280.28 399.108 279.892 397.781 279.5 397.39z"/>
			<path style="stroke:none; fill:#99f" d="M 279 401.89C 279 397.39 278 396.89 276 394.89C 274.5 393.39 271.5 394.89 271 395.89C 270.5 396.89 272 396.89 272 398.89C 272 400.89 269.75 403.14 267.5 405.39L 267.481 405.381C 267.332 405.548 267.172 405.718 267 405.89C 264.5 408.39 264.5 409.39 264.5 409.39C 264.5 409.39 265.5 409.39 268 406.89C 269.75 405.14 273 403.39 274.5 403.39C 275.5 403.39 275.5 403.39 276 403.39C 276.959 403.39 278.031 403.038 279 402.458L 279 401.89z"/>
			<path style="stroke:#00c; stroke-width:1; fill:none" d="M 276 391.89L 282 397.89"/>
			<path style="stroke:none; fill:#99f" d="M 281.5 393.39C 281.5 392.434 281.485 391.472 280.173 390.079C 279.865 390.473 280 390.89 280 390.89C 278.662 390.89 277.837 391.036 277.327 391.217C 278.236 392.126 279.957 393.846 280.5 394.39C 281.25 395.14 281.5 394.39 281.5 393.39z"/>
			<path style="stroke:none; fill:#99f" d="M 280.181 390.07C 280.809 390.699 281.691 391.581 282 391.89C 282.5 392.39 283 391.89 283 390.89C 283 390.182 282.993 389.473 282.638 388.765C 282.507 389.093 282.5 389.39 282.5 389.39C 281.093 389.39 280.46 389.72 280.181 390.07z"/>
			<path style="stroke:none; fill:#99f" d="M 284.184 387.643C 284 387.767 284 387.89 284 387.89C 283.275 387.89 282.905 388.24 282.712 388.602L 284 389.89C 284 389.89 284.827 388.624 284.184 387.643z"/>
			<path style="stroke:#33f; stroke-width:1; fill:none" d="M 280.5 390.39L 283.5 393.39"/>
			<path style="stroke:#33f; stroke-width:1; fill:none" d="M 283 388.89L 285 390.89"/>
			<path style="stroke:none; fill:#fcf" d="M 280 400.89C 280 399.89 278 399.39 277.5 399.39C 277 399.39 276.5 399.39 276 399.39C 275 399.39 273.5 399.89 273.5 401.39C 273.5 402.46 273.234 403.028 272.361 403.988C 273.198 403.62 273.962 403.39 274.5 403.39C 275.5 403.39 275.5 403.39 276 403.39C 277.308 403.39 278.823 402.741 280 401.737C 280 401.528 280 401.26 280 400.89z"/>
			<path style="stroke:#f9c; stroke-width:1; fill:none" d="M 280 401.737C 280 401.528 280 401.26 280 400.89C 280 399.89 278 399.39 277.5 399.39C 277 399.39 276.5 399.39 276 399.39C 275 399.39 273.5 399.89 273.5 401.39C 273.5 402.46 273.234 403.028 272.361 403.988"/>
			<path style="stroke:#00c; stroke-width:1; fill:none" d="M 264.5 409.39C 264.5 409.39 264.5 408.39 267 405.89C 269.821 403.069 269.5 400.889 269.5 399.89C 269.5 398.89 269.5 398.89 269.5 397.39C 269.5 394.89 271 393.89 272 392.89C 273 391.89 276 391.89 276.5 391.89C 276.5 391.89 276.5 390.89 280 390.89C 280 390.89 279.5 389.39 282.5 389.39C 282.5 389.39 282.5 387.89 284 387.89C 284 387.89 284 387.39 285.5 387.39C 285.5 387.39 285.5 386.39 287.5 386.39C 287.5 386.39 287.5 388.39 286.5 388.39C 286.5 389.89 286 389.89 286 389.89C 286 389.89 286 391.39 284.5 391.39C 284.5 393.89 283 393.89 283 393.89C 283 397.39 282 397.39 282 397.39C 282 397.39 281.816 399.257 281.5 399.89C 280.5 401.89 278 403.39 276 403.39C 275.5 403.39 275.5 403.39 274.5 403.39C 273 403.39 269.75 405.14 268 406.89C 265.5 409.39 264.5 409.39 264.5 409.39z"/>
		</g>
	</g>
</svg>
