<svg xmlns="http://www.w3.org/2000/svg" width="24" height="24">
	<g transform="translate(-264,-386)" id="KDDI_D_486">
		<g>
			<path style="stroke:none; fill:none" d="M 288 409.89L 264 409.89L 264 385.89L 288 385.89L 288 409.89z"/>
		</g>
		<g>
			<path style="stroke:none; fill:#333" d="M 279.5 399.89L 273 399.89L 273 402.89C 273 406.143 271.462 408.028 270.501 408.888C 270.114 409.234 269.152 409.801 269.023 409.876L 278.031 409.876C 278.79 409.215 280 407.764 280 404.89L 280 399.89L 279.5 399.89z"/>
			<path style="stroke:#333; stroke-width:1; fill:none" d="M 276.5 388.39L 276.5 385.89"/>
			<path style="stroke:#333; stroke-width:1; fill:none" d="M 276.5 398.39L 276.5 400.39"/>
			<path style="stroke:none; fill:#39f" d="M 271.985 398.39L 281.015 398.39C 282.533 397.563 283.5 396.228 283.5 394.39C 283.5 391.076 280.366 388.39 276.5 388.39C 272.634 388.39 269.5 391.076 269.5 394.39C 269.5 396.228 270.467 397.563 271.985 398.39z"/>
			<path style="stroke:none; fill:#6cf" d="M 281 394.39C 281 391.442 278.519 388.996 275.25 388.49C 271.981 388.996 269.5 391.442 269.5 394.39C 269.5 396.228 270.467 397.563 271.985 398.39L 278.515 398.39C 280.033 397.563 281 396.228 281 394.39z"/>
			<path style="stroke:#39f; stroke-width:1; fill:none" d="M 271.985 398.39L 281.015 398.39C 282.533 397.563 283.5 396.228 283.5 394.39C 283.5 391.076 280.366 388.39 276.5 388.39C 272.634 388.39 269.5 391.076 269.5 394.39C 269.5 396.228 270.467 397.563 271.985 398.39z"/>
			<path style="stroke:none; fill:#f69" d="M 282 396.39C 281.521 395.897 281.382 395.164 282 394.39C 282 394.189 282 393.89 282 393.89C 282 393.89 281.054 394.702 280.831 394.939C 280.583 394.614 280.083 394.39 279.5 394.39C 278.753 394.39 278 394.89 278 394.89C 278 394.89 278 395.335 278 395.39C 278 395.942 278.671 396.39 279.5 396.39C 280.067 396.39 280.557 396.177 280.81 395.866C 281.059 396.194 282 396.89 282 396.89C 282 396.89 282.044 396.484 282 396.39z"/>
			<path style="stroke:none; fill:#f36" d="M 282 393.89C 281.467 393.89 281.08 394.173 280.831 394.439C 280.583 394.114 280.083 393.89 279.5 393.89C 278.671 393.89 278 394.338 278 394.89C 278 395.442 278.671 395.89 279.5 395.89C 280.067 395.89 280.557 395.677 280.81 395.366C 281.059 395.694 281.451 396.115 282 396.39C 281.5 395.39 281.312 394.751 282 393.89z"/>
			<path style="stroke:none; fill:#f69" d="M 279.5 391.89C 279.021 391.397 278.882 390.664 279.5 389.89C 279.5 389.689 279.5 389.39 279.5 389.39C 279.5 389.39 278.554 390.202 278.331 390.439C 278.083 390.114 277.583 389.89 277 389.89C 276.253 389.89 275.5 390.39 275.5 390.39C 275.5 390.39 275.5 390.835 275.5 390.89C 275.5 391.442 276.171 391.89 277 391.89C 277.567 391.89 278.057 391.677 278.31 391.366C 278.559 391.694 279.5 392.39 279.5 392.39C 279.5 392.39 279.544 391.984 279.5 391.89z"/>
			<path style="stroke:none; fill:#f36" d="M 279.5 389.39C 278.967 389.39 278.58 389.673 278.331 389.939C 278.083 389.614 277.583 389.39 277 389.39C 276.171 389.39 275.5 389.838 275.5 390.39C 275.5 390.942 276.171 391.39 277 391.39C 277.567 391.39 278.057 391.177 278.31 390.866C 278.559 391.194 278.951 391.615 279.5 391.89C 279 390.89 278.812 390.251 279.5 389.39z"/>
			<path style="stroke:none; fill:#f69" d="M 271.5 393.89C 271.5 393.689 271.5 393.39 271.5 393.39C 271.5 393.39 270.554 394.202 270.331 394.439C 270.163 394.218 269.873 394.051 269.525 393.962C 269.514 394.104 269.5 394.245 269.5 394.39C 269.5 394.885 269.576 395.341 269.708 395.764C 269.96 395.671 270.172 395.535 270.31 395.366C 270.559 395.694 271.5 396.39 271.5 396.39C 271.5 396.39 271.544 395.984 271.5 395.89C 271.021 395.397 270.882 394.664 271.5 393.89z"/>
			<path style="stroke:none; fill:#f36" d="M 270.331 393.939C 270.173 393.733 269.907 393.575 269.589 393.481C 269.536 393.778 269.5 394.08 269.5 394.39C 269.5 394.709 269.539 395.008 269.595 395.296C 269.897 395.207 270.153 395.06 270.31 394.866C 270.559 395.194 270.951 395.615 271.5 395.89C 271 394.89 270.812 394.251 271.5 393.39C 270.967 393.39 270.58 393.673 270.331 393.939z"/>
			<path style="stroke:#33c; stroke-width:1; fill:none" d="M 280.5 398.39L 281.015 398.39C 282.533 397.563 283.5 396.228 283.5 394.39C 283.5 391.076 280.366 388.39 276.5 388.39C 272.634 388.39 269.5 391.076 269.5 394.39C 269.5 396.228 270.467 397.563 271.985 398.39L 272.5 398.39"/>
			<path style="stroke:none; fill:#9cf" d="M 276 392.14C 276 393.382 274.993 394.39 273.75 394.39C 272.507 394.39 271.5 393.382 271.5 392.14C 271.5 390.897 272.507 389.89 273.75 389.89C 274.993 389.89 276 390.897 276 392.14z"/>
			<path style="stroke:none; fill:#cff" d="M 271.5 392.14C 271.5 392.568 271.626 392.964 271.834 393.306C 272.175 393.513 272.571 393.64 273 393.64C 274.243 393.64 275.25 392.632 275.25 391.39C 275.25 390.961 275.124 390.565 274.916 390.224C 274.575 390.016 274.179 389.89 273.75 389.89C 272.507 389.89 271.5 390.897 271.5 392.14z"/>
			<path style="stroke:none; fill:#fff" d="M 274.56 391.536C 274.756 391.732 274.598 392.206 274.207 392.597C 273.816 392.987 273.342 393.146 273.147 392.95C 272.951 392.755 273.109 392.28 273.5 391.89C 273.891 391.499 274.365 391.341 274.56 391.536z"/>
			<path style="stroke:none; fill:#9cf" d="M 276.271 409.876C 276.373 409.807 277.202 409.244 277.573 408.891C 278.206 408.288 279 407.092 279 404.89C 279 404.89 279 401.68 279 400.89C 278.236 400.89 274.764 400.89 274 400.89C 274 401.53 274 402.89 274 402.89C 274 406.838 271.951 409.01 270.879 409.876L 270.022 409.876C 270.014 409.881 270 409.89 270 409.89L 276.292 409.89L 276.271 409.876z"/>
			<path style="stroke:none; fill:#ccc" d="M 278 400.89C 276.665 400.89 274.572 400.89 274 400.89C 274 401.53 274 402.89 274 402.89C 274 406.838 271.951 409.01 270.879 409.876L 270.022 409.876C 270.014 409.881 270 409.89 270 409.89L 274.5 409.89C 274.5 409.89 278 408.39 278 404.39C 278 403.644 278 401.786 278 400.89z"/>
			<path style="stroke:#666; stroke-dasharray:0.75,1.5; stroke-width:0.75; stroke-linejoin:round; stroke-linecap:round; fill:none" d="M 276.5 402.39C 276.5 405.89 275.5 407.89 274 409.39"/>
		</g>
	</g>
</svg>
