<svg xmlns="http://www.w3.org/2000/svg" height="24" width="24">
    <g transform="matrix(1,0,0,-1,-264,408)" id="KDDI_D_">        <path d="M279.3 404.8c2 .3 3.8-.2 4.9-1.3 2.2-.7 3.8-4.1 3.8-9 0-9.5-5.4-10.5-12-10.5s-12 1-12 10.5c0 4.8 1 7.6 3.6 8.8 1.1 1.4 3.2 1.8 4.8 1.4 1.3.5 2.3.7 3.6.7 1.2 0 2.3-.2 3.3-.6z" fill="#f30"/>
        <path d="M264.8 394c0 4.7 1.1 7.6 3.6 8.8 1.1 1.4 3.3 1.8 4.8 1.4 1.3.5 2.4.7 3.6.7 1.2 0 2.3-.2 3.4-.6 1.4.2 2.6 0 3.6-.5-1.1.9-2.7 1.2-4.5 1-1 .4-2.1.6-3.3.6-1.3 0-2.3-.2-3.6-.7-1.6.4-3.7 0-4.8-1.4-2.6-1.2-3.6-4-3.6-8.8 0-5.2 1.6-7.9 4.2-9.2-2.1 1.5-3.4 4.1-3.4 8.7z" fill="#f60"/>
        <path d="M275.3 402.6s-6.1.4-8.5-3.1c-2.3-3.5-1.6-10.7-.1-12.4 2.4-2.6 5.8-2.7 9.3-3.1-4.2 1.2-7.1 2.1-8.2 3.7-1.9 2.7-1.4 9 .1 11 2.4 3.3 7.4 3.9 7.4 3.9z" fill="#930"/>
        <path d="M275.5 402.6s-6-.1-7.7-3.1c-2.1-3.6-2-9.3-.2-12.3 1.1-2 5.3-2.8 8.5-3.2-3.9 1.2-6.5 2.1-7.5 3.7-1.8 2.7-1.3 9 0 11 2.2 3.3 6.9 3.9 6.9 3.9z" fill="#f60"/>
        <path d="M275.7 402.6s-3.2-.1-4.4-3.6c-1-3-1.1-9.1-.1-11.6 1-2.6 3.2-3 4.8-3.4-1.9 1.2-3.2 2.1-3.7 3.7-.9 2.7-.7 9 0 11 1.1 3.3 3.4 3.9 3.4 3.9z" fill="#930"/>
        <path d="M275.8 402.6s-2.8-.8-3.5-3.1c-1-3.5-1-9.3-.1-12.3.5-1.5 2.4-2.8 3.9-3.2-1.8 1.2-2.5 2.1-3 3.7-.8 2.7-.5 9 .1 11 1 3.3 2.6 3.9 2.6 3.9z" fill="#f60"/>
        <path d="M276.3 402.6s3.5-.1 4.7-3.6c1-3 1.1-9.1.1-11.6-1-2.6-3.5-3-5.1-3.4 1.9 1.2 3.2 2.1 3.7 3.7.9 2.7.7 9 0 11-1.1 3.3-3.4 3.9-3.4 3.9z" fill="#f60"/>
        <path d="M276.2 402.6s2.8-.8 3.5-3.1c1-3.5 1-9.3.1-12.3-.5-1.5-2.4-2.8-3.9-3.2 1.8 1.2 3 2.1 3.5 3.7.8 2.7.5 9-.1 11-1 3.3-3.1 3.9-3.1 3.9z" fill="#930"/>
        <path d="M276.7 402.6s6.1.4 8.5-3.1c2.3-3.5 1.6-10.7.1-12.4-2.4-2.6-5.8-2.7-9.3-3.1 4.3 1.2 7.1 2.1 8.2 3.7 1.9 2.7 1.4 9-.1 11-2.3 3.3-7.4 3.9-7.4 3.9z" fill="#f60"/>
        <path d="M276.5 402.6s5.8-.1 7.5-3.1c2-3.6 1.9-9.3.2-12.3-1.2-2-5.1-2.8-8.3-3.2 3.9 1.2 6.5 2.1 7.5 3.7 1.8 2.7 1.3 9 0 11-2.2 3.3-6.9 3.9-6.9 3.9z" fill="#930"/>
        <path d="M268.1 403.8c-.2-.1-.4-.3-.5-.5-.3-.1-.5-.3-.7-.4.8.2 1.6.3 2.4.3 2.1.1 6.1-.9 6.1-.9s-3.3 1.9-7.3 1.5zM271.4 404.8c2.1-.9 4.1-2.3 4.1-2.3s-1 1.2-2.8 2.3c-.1 0-.2 0-.3-.1-.3.1-.6.1-1 .1z" fill="#c30"/>
        <path d="M279.3 404.8h-.2c-1.7-1.1-2.6-2.3-2.6-2.3s2 1.4 3.8 2.3h-1zM284.2 403.5c-.1.1-.2.2-.4.3-4 .4-7.2-1.5-7.2-1.5s4 1 6 .9c1 0 2-.2 2.8-.4-.4.3-.8.5-1.2.7z" fill="#930"/>
        <path d="M270.6 399.3l-3-3.6h5.9z" fill="#c30"/>
        <path d="M271.1 398.9l-2.8-3.2h5.5z"/>
        <path d="M280.4 399.2l3.4-3.5h-6.6z" fill="#c30"/>
        <path d="M280.9 398.9l2.9-3.2h-5.6zM277.1 393.8h-2.2v1.6h2.2z"/>
        <path d="M275.8 388.9l1.2-1.8 2 2.2 1.3-.9 2.6 4.7-3.1-2-.8 1.2-1.4-1.8-1.8 1.8-1.9-1.8-1.4 1.8-.8-1.2-3.1 2.3 2.6-5 1.3.9 2-2.2z" fill="#c30"/>
        <path d="M276 388.6l1.3-1.5 1.9 1.9 1.2-.8 2.1 4.1-2.6-1.8-.7 1-1.4-1.5-1.8 1.6-1.7-1.6-1.5 1.5-.7-1-2.6 1.8 2.1-4.1 1.2.8 2-1.9z"/>
        <path d="M277.6 401.8h-3.2v5.3h3.2z" fill="#090"/>
        <path d="M277.6 401.8h-1.2v5.3h1.2z" fill="#060"/>
    </g>
</svg>
