<svg xmlns="http://www.w3.org/2000/svg" width="24" height="24">
	<g transform="translate(-264,-386)" id="KDDI_D_488">
		<g>
			<path style="stroke:none; fill:none" d="M 288 409.89L 264 409.89L 264 385.89L 288 385.89L 288 409.89z"/>
		</g>
		<g>
			<path style="stroke:none; fill:#006" d="M 288 409.89L 264 409.89L 264 385.89L 288 385.89L 288 409.89z"/>
			<path style="stroke:none; fill:#669" d="M 275.5 398.89C 275.5 399.442 275.052 399.89 274.5 399.89C 273.948 399.89 273.5 399.442 273.5 398.89C 273.5 398.338 273.948 397.89 274.5 397.89C 275.052 397.89 275.5 398.338 275.5 398.89z"/>
			<path style="stroke:none; fill:#669" d="M 277 400.89C 277 401.442 276.552 401.89 276 401.89C 275.448 401.89 275 401.442 275 400.89C 275 400.338 275.448 399.89 276 399.89C 276.552 399.89 277 400.338 277 400.89z"/>
			<path style="stroke:none; fill:#669" d="M 274 396.89C 274 397.442 273.552 397.89 273 397.89C 272.448 397.89 272 397.442 272 396.89C 272 396.338 272.448 395.89 273 395.89C 273.552 395.89 274 396.338 274 396.89z"/>
			<path style="stroke:none; fill:#669" d="M 272.5 398.89C 272.5 399.442 272.052 399.89 271.5 399.89C 270.948 399.89 270.5 399.442 270.5 398.89C 270.5 398.338 270.948 397.89 271.5 397.89C 272.052 397.89 272.5 398.338 272.5 398.89z"/>
			<path style="stroke:none; fill:#669" d="M 271 400.89C 271 401.442 270.552 401.89 270 401.89C 269.448 401.89 269 401.442 269 400.89C 269 400.338 269.448 399.89 270 399.89C 270.552 399.89 271 400.338 271 400.89z"/>
			<path style="stroke:none; fill:#669" d="M 274 400.89C 274 401.442 273.552 401.89 273 401.89C 272.448 401.89 272 401.442 272 400.89C 272 400.338 272.448 399.89 273 399.89C 273.552 399.89 274 400.338 274 400.89z"/>
			<path style="stroke:none; fill:#ff0" d="M 264 394.39C 268.694 394.39 272.5 390.584 272.5 385.89L 264 385.89L 264 394.39z"/>
			<path style="stroke:#990; stroke-width:1; fill:none" d="M 264 394.39C 268.694 394.39 272.5 390.584 272.5 385.89"/>
			<path style="stroke:#c93; stroke-width:0.75; stroke-linecap:round; fill:none" d="M 274 393.39C 275 391.89 277 390.89 280 390.89"/>
			<path style="stroke:#c93; stroke-width:0.75; stroke-linecap:round; fill:none" d="M 276.5 395.39C 277 394.39 278 392.89 281 392.89"/>
			<path style="stroke:#c93; stroke-width:0.75; stroke-linecap:round; fill:none" d="M 281.5 392.39C 281.5 392.39 282.5 390.89 285.5 390.89"/>
			<path style="stroke:none; fill:#c90" d="M 278 409.89L 268 409.89L 268 403.89L 278 403.89L 278 409.89z"/>
			<path style="stroke:#960; stroke-width:1; fill:none" d="M 279 388.89C 279 388.89 283 393.89 283 401.89L 283 409.89"/>
			<path style="stroke:#960; stroke-width:1; fill:none" d="M 285 388.89C 285 388.89 287.5 392.39 287.5 402.89C 287.5 407.39 287.5 409.89 287.5 409.89"/>
			<path style="stroke:#c96; stroke-width:1; stroke-linecap:square; fill:none" d="M 268.5 409.39L 268.5 404.89"/>
			<path style="stroke:none; fill:#006" d="M 274 406.89C 274 407.442 273.552 407.89 273 407.89C 272.448 407.89 272 407.442 272 406.89C 272 406.338 272.448 405.89 273 405.89C 273.552 405.89 274 406.338 274 406.89z"/>
			<path style="stroke:none; fill:#fff" d="M 274 398.89C 274 399.442 273.552 399.89 273 399.89C 272.448 399.89 272 399.442 272 398.89C 272 398.338 272.448 397.89 273 397.89C 273.552 397.89 274 398.338 274 398.89z"/>
			<path style="stroke:none; fill:#fff" d="M 275.5 400.89C 275.5 401.442 275.052 401.89 274.5 401.89C 273.948 401.89 273.5 401.442 273.5 400.89C 273.5 400.338 273.948 399.89 274.5 399.89C 275.052 399.89 275.5 400.338 275.5 400.89z"/>
			<path style="stroke:none; fill:#fff" d="M 278.5 400.89C 278.5 401.442 278.052 401.89 277.5 401.89C 276.948 401.89 276.5 401.442 276.5 400.89C 276.5 400.338 276.948 399.89 277.5 399.89C 278.052 399.89 278.5 400.338 278.5 400.89z"/>
			<path style="stroke:none; fill:#fff" d="M 272.5 396.89C 272.5 397.442 272.052 397.89 271.5 397.89C 270.948 397.89 270.5 397.442 270.5 396.89C 270.5 396.338 270.948 395.89 271.5 395.89C 272.052 395.89 272.5 396.338 272.5 396.89z"/>
			<path style="stroke:none; fill:#fff" d="M 275.5 396.89C 275.5 397.442 275.052 397.89 274.5 397.89C 273.948 397.89 273.5 397.442 273.5 396.89C 273.5 396.338 273.948 395.89 274.5 395.89C 275.052 395.89 275.5 396.338 275.5 396.89z"/>
			<path style="stroke:none; fill:#fff" d="M 274 394.89C 274 395.442 273.552 395.89 273 395.89C 272.448 395.89 272 395.442 272 394.89C 272 394.338 272.448 393.89 273 393.89C 273.552 393.89 274 394.338 274 394.89z"/>
			<path style="stroke:none; fill:#fff" d="M 271 398.89C 271 399.442 270.552 399.89 270 399.89C 269.448 399.89 269 399.442 269 398.89C 269 398.338 269.448 397.89 270 397.89C 270.552 397.89 271 398.338 271 398.89z"/>
			<path style="stroke:none; fill:#fff" d="M 277 398.89C 277 399.442 276.552 399.89 276 399.89C 275.448 399.89 275 399.442 275 398.89C 275 398.338 275.448 397.89 276 397.89C 276.552 397.89 277 398.338 277 398.89z"/>
			<path style="stroke:none; fill:#fff" d="M 269.5 400.89C 269.5 401.442 269.052 401.89 268.5 401.89C 267.948 401.89 267.5 401.442 267.5 400.89C 267.5 400.338 267.948 399.89 268.5 399.89C 269.052 399.89 269.5 400.338 269.5 400.89z"/>
			<path style="stroke:none; fill:#fff" d="M 272.5 400.89C 272.5 401.442 272.052 401.89 271.5 401.89C 270.948 401.89 270.5 401.442 270.5 400.89C 270.5 400.338 270.948 399.89 271.5 399.89C 272.052 399.89 272.5 400.338 272.5 400.89z"/>
			<path style="stroke:none; fill:#c90" d="M 280 403.89L 266 403.89L 266 401.89L 280 401.89L 280 403.89z"/>
			<path style="stroke:#960; stroke-width:1; stroke-linecap:square; fill:none" d="M 279.5 402.39L 279.5 403.39"/>
			<path style="stroke:#c96; stroke-width:1; stroke-linecap:square; fill:none" d="M 266.5 402.39L 266.5 403.39"/>
			<path style="stroke:#960; stroke-width:1; stroke-linecap:square; fill:none" d="M 268.5 404.39L 277.5 404.39L 277.5 409.39"/>
			<path style="stroke:#c93; stroke-width:0.75; stroke-linecap:round; fill:none" d="M 274 389.89C 274 389.89 276 387.89 279 388.89"/>
			<path style="stroke:#c93; stroke-width:0.75; stroke-linecap:round; fill:none" d="M 280.5 387.39C 280.5 387.39 283.5 386.89 285 388.89"/>
		</g>
	</g>
</svg>
