<svg xmlns="http://www.w3.org/2000/svg" height="24" width="24">
    <g transform="matrix(1,0,0,-1,-264,408)" id="KDDI_D_">        <path d="M284.8 384v1.2c0 1.7-1.4 3-3 3H267c-1.7 0-3-1.3-3-3V384z" fill="red"/>
        <path d="M268.4 388.2H267c-1.7 0-3-1.3-3-3V384h1.4v1.2c0 1.7 1.4 3 3 3z" fill="#f63"/>
        <path d="M281.8 388.2H280c1.7 0 3-1.3 3-3V384h1.8v1.2c0 1.7-1.4 3-3 3z" fill="#c00"/>
        <path d="M267.2 396.7c0-.6-.5-1-1-1h-.4c-.5 0-1 .4-1 1v1.4c0 .5.5 1 1 1h.4c.5 0 1-.5 1-1zM282 396.7c0-.6-.4-1-1-1h-.3c-.6 0-1 .4-1 1v1.4c0 .5.4 1 1 1h.3c.6 0 1-.5 1-1z" fill="#f90"/>
        <path d="M280.6 392.7h-14.4v7.9h14.4z" fill="#fc6"/>
        <path d="M280.6 398.9h-14.4v1.7h14.4z" fill="#f90"/>
        <path d="M280.6 392.7h-4.1v7.9h4.1z" fill="#f90"/>
        <path d="M279 392.7h1.6v7.9h-3.3s1.6-1.8 1.7-3.3c.1-1.1 0-3.6 0-4.6z" fill="#c60"/>
        <path d="M266.6 394.5c-.8 0-2.1-.8-2.1-3.2 0-2.4 2.4-6.9 9.1-6.9 4.6 0 7.2 1.4 8.7 3.9 1.4 2.4 1.1 6.2-.4 6.2-1.8 0-2.1-1-2.1-1s-.7 1-1.7 1-2.1-1-2.1-1-1.2 1-2.2 1c-1.1 0-2-1-2-1s-.7 1-1.9 1c-1.1 0-1.7-1-1.7-1s-.6.9-1.6 1z" fill="#fff"/>
        <path d="M281.9 394.5c-.4 0-.8-.1-1.1-.2.8-1 .8-3.8-.4-5.7-1.5-2.5-4.1-3.9-8.6-3.9h-.9c.8-.2 1.7-.3 2.7-.3 4.6 0 7.2 1.4 8.7 3.9 1.4 2.4 1.1 6.2-.4 6.2z" fill="#cc9"/>
        <path d="M273.6 384.4c4.6 0 7.2 1.4 8.7 3.9 1 1.7 1.1 4.2.6 5.4" fill="none" stroke="#666" stroke-linecap="round" stroke-linejoin="round"/>
        <path d="M282.9 393.7c-.2.5-.6.8-1 .8-1.8 0-2.1-1-2.1-1s-.7 1-1.7 1-2.1-1-2.1-1-1.2 1-2.2 1c-1.1 0-2-1-2-1s-.7 1-1.9 1c-1.1 0-1.7-1-1.7-1s-.6.9-1.6 1c-.8 0-2.1-.8-2.1-3.2 0-2.4 2.4-6.9 9.1-6.9" fill="none" stroke="#999" stroke-linecap="round" stroke-linejoin="round"/>
        <path d="M270.1 391.3s1-1.4 1.7-1.4c.8 0 1.2 1.4 2.1 1.4.9 0 1.1-1.4 2.1-1.4s1.9 1.4 1.9 1.4" fill="none" stroke="#666" stroke-linecap="round"/>
        <path d="M271.7 396.1c0-.6-.5-1-1.2-1-.6 0-1.1.4-1.1 1v1.8c0 .6.5 1 1.1 1 .7 0 1.2-.4 1.2-1z"/>
        <path d="M270.9 397.4c0-.4-.3-.7-.7-.7-.4 0-.7.3-.7.7 0 .4.3.7.7.7.4 0 .7-.3.7-.7z" fill="#fff"/>
        <path d="M278.2 396.1c0-.6-.5-1-1.2-1-.6 0-1.1.4-1.1 1v1.8c0 .6.5 1 1.1 1 .7 0 1.2-.4 1.2-1z"/>
        <path d="M277.4 397.4c0-.4-.3-.7-.7-.7-.4 0-.7.3-.7.7 0 .4.3.7.7.7.4 0 .7-.3.7-.7z" fill="#fff"/>
        <path d="M274.5 396.8s-1.7-.6-1.8-1.6c-.1-1-.4-1.7.1-2 .6-.4 1.7 0 1.7 0" fill="#f90" stroke="#930"/>
        <path d="M266.2 400.6v2.5c0 .8 1.2 2.4 2.6 3.2 1.5.9 5 1.7 8.4 1.7 3.5 0 7.1-2 8.6-4.9 1.5-2.9.8-2.6-.5-1.7-1.4.9-2.1 2.2-3.1 2.2s-1.4-.8-1.4-1.9v-1.1" fill="red"/>
        <path d="M269.7 405.9c1.4.8 4.9 1.7 8.4 1.7 1.4 0 2.9-.4 4.2-1-1.5.9-3.3 1.4-5.1 1.4-3.4 0-6.9-.8-8.4-1.7-1.4-.8-2.6-2.4-2.6-3.2v-2.5h.8v2.1c0 .8 1.3 2.4 2.7 3.2z" fill="#f63"/>
        <path d="M280.8 405.4c-3.7.9-9.5.8-11.7-.9-.6-.4-1.1-2.5-1.4-3.9h13.1v1.1c0 1.1.4 1.9 1.4 1.9.8 0 .2 1.4-1.4 1.8z" fill="#c00"/>
        <path d="M281.3 400.9c0-.5-.5-.9-1-.9h-13.7c-.6 0-1 .4-1 .9v1.7c0 .5.4.9 1 .9h13.7c.5 0 1-.4 1-.9z" fill="#fff"/>
        <path d="M280.3 403.5h-2.1V400h2.1c.5 0 1 .4 1 .9v1.7c0 .5-.5.9-1 .9z" fill="#cc9"/>
        <path d="M266.6 400c-.6 0-1 .4-1 .9v1.7c0 .5.4.9 1 .9h13.7c.5 0 1-.4 1-.9" fill="none" stroke="#999"/>
        <path d="M281.3 402.6v-1.7c0-.5-.5-.9-1-.9h-13.7" fill="none" stroke="#666" stroke-linecap="round"/>
        <path d="M287.4 401c0-1.2-1-2.2-2.2-2.2-1.2 0-2.2 1-2.2 2.2 0 1.3 1 2.3 2.2 2.3 1.2 0 2.2-1 2.2-2.3z" fill="#fff"/>
        <path d="M285.6 403.2c.4-.4.7-1 .7-1.6 0-1.2-1-2.2-2.2-2.2h-.4c.4-.3.9-.6 1.5-.6 1.2 0 2.2 1 2.2 2.2 0 1.1-.8 2-1.8 2.2z" fill="#cc9"/>
        <path d="M287.4 401c0-1.2-1-2.2-2.2-2.2-1.2 0-2.2 1-2.2 2.2 0 1.3 1 2.3 2.2 2.3 1.2 0 2.2-1 2.2-2.3z" fill="none" stroke="#999"/>
    </g>
</svg>
