<svg xmlns="http://www.w3.org/2000/svg" width="24" height="24">
	<g transform="translate(-264,-386)" id="KDDI_D_490">
		<g>
			<path style="stroke:none; fill:none" d="M 288 409.89L 264 409.89L 264 385.89L 288 385.89L 288 409.89z"/>
		</g>
		<g>
			<path style="stroke:none; fill:#039" d="M 288 409.89L 264 409.89L 264 385.89L 288 385.89L 288 409.89z"/>
			<path style="stroke:none; fill:#663" d="M 269 389.924C 269 389.924 268.776 386.89 268.5 386.89C 268.224 386.89 268 389.924 268 389.924C 268 389.924 265 390.133 265 390.392C 265 390.651 268 390.861 268 390.861C 268 390.861 268.224 393.89 268.5 393.89C 268.776 393.89 269 390.861 269 390.861C 269 390.861 272 390.651 272 390.392C 272 390.133 269 389.924 269 389.924z"/>
			<path style="stroke:none; fill:#663" d="M 283 397.924C 283 397.924 282.776 396.89 282.5 396.89C 282.224 396.89 282 397.924 282 397.924C 282 397.924 281 398.133 281 398.392C 281 398.651 282 398.861 282 398.861C 282 398.861 282.224 399.89 282.5 399.89C 282.776 399.89 283 398.861 283 398.861C 283 398.861 284 398.651 284 398.392C 284 398.133 283 397.924 283 397.924z"/>
			<path style="stroke:none; fill:#ff0" d="M 269 389.924C 269 389.924 268.776 387.89 268.5 387.89C 268.224 387.89 268 389.924 268 389.924C 268 389.924 266 390.133 266 390.392C 266 390.651 268 390.861 268 390.861C 268 390.861 268.224 392.89 268.5 392.89C 268.776 392.89 269 390.861 269 390.861C 269 390.861 271 390.651 271 390.392C 271 390.133 269 389.924 269 389.924z"/>
			<path style="stroke:none; fill:#fff" d="M 268.976 390.39C 268.976 390.652 268.763 390.865 268.5 390.865C 268.237 390.865 268.024 390.652 268.024 390.39C 268.024 390.127 268.237 389.915 268.5 389.915C 268.763 389.915 268.976 390.127 268.976 390.39z"/>
			<path style="stroke:none; fill:#000" d="M 264 408.89L 264 409.89L 288 409.89L 288 408.89L 287 408.89L 287 403.89L 283 403.89L 283 408.89L 282 408.89L 282 403.89L 278 403.89L 278 399.89L 272 399.89L 272 408.89L 271 408.89L 271 403.89L 265 403.89L 265 408.89L 264 408.89z"/>
			<path style="stroke:none; fill:#ff0" d="M 276 403.89L 274 403.89L 274 401.89L 276 401.89L 276 403.89z"/>
			<path style="stroke:none; fill:#ff0" d="M 269 408.89L 267 408.89L 267 406.89L 269 406.89L 269 408.89z"/>
			<path style="stroke:none; fill:#ff0" d="M 280 408.89L 278 408.89L 278 406.89L 280 406.89L 280 408.89z"/>
			<path style="stroke:none; fill:#ff0" d="M 276 408.89L 274 408.89L 274 406.89L 276 406.89L 276 408.89z"/>
		</g>
		<g>
			<path style="stroke:none; fill:#039" d="M 288 409.89L 264 409.89L 264 385.89L 288 385.89L 288 409.89z"/>
			<path style="stroke:none; fill:#663" d="M 283 397.921C 283 397.921 282.776 394.887 282.5 394.887C 282.224 394.887 282 397.921 282 397.921C 282 397.921 279 398.131 279 398.39C 279 398.649 282 398.858 282 398.858C 282 398.858 282.224 401.887 282.5 401.887C 282.776 401.887 283 398.858 283 398.858C 283 398.858 286 398.649 286 398.39C 286 398.131 283 397.921 283 397.921z"/>
			<path style="stroke:none; fill:#ff0" d="M 283 397.921C 283 397.921 282.776 395.887 282.5 395.887C 282.224 395.887 282 397.921 282 397.921C 282 397.921 280 398.131 280 398.39C 280 398.649 282 398.858 282 398.858C 282 398.858 282.224 400.887 282.5 400.887C 282.776 400.887 283 398.858 283 398.858C 283 398.858 285 398.649 285 398.39C 285 398.131 283 397.921 283 397.921z"/>
			<path style="stroke:none; fill:#fff" d="M 282.976 398.387C 282.976 398.65 282.763 398.862 282.5 398.862C 282.237 398.862 282.024 398.65 282.024 398.387C 282.024 398.125 282.237 397.912 282.5 397.912C 282.763 397.912 282.976 398.125 282.976 398.387z"/>
			<path style="stroke:none; fill:#000" d="M 264 408.89L 264 409.89L 288 409.89L 288 408.89L 287 408.89L 287 403.89L 283 403.89L 283 408.89L 282 408.89L 282 403.89L 278 403.89L 278 399.89L 272 399.89L 272 408.89L 271 408.89L 271 403.89L 265 403.89L 265 408.89L 264 408.89z"/>
			<path style="stroke:none; fill:#ff0" d="M 276 403.89L 274 403.89L 274 401.89L 276 401.89L 276 403.89z"/>
			<path style="stroke:none; fill:#ff0" d="M 269 408.89L 267 408.89L 267 406.89L 269 406.89L 269 408.89z"/>
			<path style="stroke:none; fill:#ff0" d="M 280 408.89L 278 408.89L 278 406.89L 280 406.89L 280 408.89z"/>
			<path style="stroke:none; fill:#ff0" d="M 276 408.89L 274 408.89L 274 406.89L 276 406.89L 276 408.89z"/>
			<path style="stroke:none; fill:#663" d="M 269 389.924C 269 389.924 268.776 388.89 268.5 388.89C 268.224 388.89 268 389.924 268 389.924C 268 389.924 267 390.133 267 390.392C 267 390.651 268 390.861 268 390.861C 268 390.861 268.224 391.89 268.5 391.89C 268.776 391.89 269 390.861 269 390.861C 269 390.861 270 390.651 270 390.392C 270 390.133 269 389.924 269 389.924z"/>
			<path style="stroke:none; fill:#663" d="M 283.387 385.89C 283.039 386.959 282.471 388.709 282.471 388.709C 282.471 388.709 285.067 386.822 285.5 386.508C 285.809 386.733 287.218 387.755 288 388.324L 288 387.08C 287.865 386.665 287.728 386.242 287.613 385.89L 283.387 385.89z"/>
			<g>
				<path style="stroke:none; fill:#ff0" d="M 283.422 387.4L 285.5 385.89L 283.913 385.89L 283.422 387.4z"/>
				<path style="stroke:none; fill:#ff0" d="M 285.5 385.89L 287.578 387.4L 287.087 385.89L 285.5 385.89z"/>
			</g>
		</g>
		<g>
			<path style="stroke:none; fill:#039" d="M 288 409.89L 264 409.89L 264 385.89L 288 385.89L 288 409.89z"/>
			<path style="stroke:none; fill:#663" d="M 279 385.89L 274.788 390.102L 278.5 390.89L 283.4 389.95L 285.477 385.89L 279 385.89z"/>
			<path style="stroke:none; fill:#000" d="M 264 408.89L 264 409.89L 288 409.89L 288 408.89L 287 408.89L 287 403.89L 283 403.89L 283 408.89L 282 408.89L 282 403.89L 278 403.89L 278 399.89L 272 399.89L 272 408.89L 271 408.89L 271 403.89L 265 403.89L 265 408.89L 264 408.89z"/>
			<path style="stroke:none; fill:#ff0" d="M 276 403.89L 274 403.89L 274 401.89L 276 401.89L 276 403.89z"/>
			<path style="stroke:none; fill:#ff0" d="M 269 408.89L 267 408.89L 267 406.89L 269 406.89L 269 408.89z"/>
			<path style="stroke:none; fill:#ff0" d="M 280 408.89L 278 408.89L 278 406.89L 280 406.89L 280 408.89z"/>
			<path style="stroke:none; fill:#ff0" d="M 276 408.89L 274 408.89L 274 406.89L 276 406.89L 276 408.89z"/>
			<path style="stroke:none; fill:#663" d="M 278.023 387.853C 278.023 387.853 277.508 389.441 277.342 389.95C 276.807 389.95 273.599 389.95 273.599 389.95C 273.599 389.95 276.194 391.837 276.627 392.151C 276.462 392.661 275.471 395.713 275.471 395.713C 275.471 395.713 278.066 393.826 278.5 393.512C 278.933 393.826 281.529 395.713 281.529 395.713C 281.529 395.713 280.537 392.661 280.371 392.151C 280.805 391.837 283.4 389.95 283.4 389.95C 283.4 389.95 280.192 389.95 279.656 389.95C 279.491 389.441 278.5 386.39 278.5 386.39L 278.023 387.853z"/>
			<path style="stroke:none; fill:#ff0" d="M 278.5 388.007L 279.293 390.45L 281.861 390.45L 279.783 391.961L 280.578 394.403L 278.5 392.894L 276.422 394.403L 277.215 391.961L 275.137 390.45L 277.705 390.45L 278.5 388.007z"/>
			<path style="stroke:none; fill:#663" d="M 269 389.924C 269 389.924 268.776 386.89 268.5 386.89C 268.224 386.89 268 389.924 268 389.924C 268 389.924 265 390.133 265 390.392C 265 390.651 268 390.861 268 390.861C 268 390.861 268.224 393.89 268.5 393.89C 268.776 393.89 269 390.861 269 390.861C 269 390.861 272 390.651 272 390.392C 272 390.133 269 389.924 269 389.924z"/>
			<path style="stroke:none; fill:#663" d="M 283 397.924C 283 397.924 282.776 396.89 282.5 396.89C 282.224 396.89 282 397.924 282 397.924C 282 397.924 281 398.133 281 398.392C 281 398.651 282 398.861 282 398.861C 282 398.861 282.224 399.89 282.5 399.89C 282.776 399.89 283 398.861 283 398.861C 283 398.861 284 398.651 284 398.392C 284 398.133 283 397.924 283 397.924z"/>
			<path style="stroke:none; fill:#ff0" d="M 269 389.924C 269 389.924 268.776 387.89 268.5 387.89C 268.224 387.89 268 389.924 268 389.924C 268 389.924 266 390.133 266 390.392C 266 390.651 268 390.861 268 390.861C 268 390.861 268.224 392.89 268.5 392.89C 268.776 392.89 269 390.861 269 390.861C 269 390.861 271 390.651 271 390.392C 271 390.133 269 389.924 269 389.924z"/>
			<path style="stroke:none; fill:#fff" d="M 268.976 390.39C 268.976 390.652 268.763 390.865 268.5 390.865C 268.237 390.865 268.024 390.652 268.024 390.39C 268.024 390.127 268.237 389.915 268.5 389.915C 268.763 389.915 268.976 390.127 268.976 390.39z"/>
		</g>
		<g>
			<path style="stroke:none; fill:#039" d="M 288 409.89L 264 409.89L 264 385.89L 288 385.89L 288 409.89z"/>
			<path style="stroke:none; fill:#663" d="M 281.976 391.39C 281.976 391.652 281.763 391.865 281.5 391.865C 281.237 391.865 281.024 391.652 281.024 391.39C 281.024 391.127 281.237 390.915 281.5 390.915C 281.763 390.915 281.976 391.127 281.976 391.39z"/>
			<path style="stroke:none; fill:#663" d="M 282.976 390.39C 282.976 390.652 282.763 390.865 282.5 390.865C 282.237 390.865 282.024 390.652 282.024 390.39C 282.024 390.127 282.237 389.915 282.5 389.915C 282.763 389.915 282.976 390.127 282.976 390.39z"/>
			<path style="stroke:none; fill:#663" d="M 284.976 388.39C 284.976 388.652 284.763 388.865 284.5 388.865C 284.237 388.865 284.024 388.652 284.024 388.39C 284.024 388.127 284.237 387.915 284.5 387.915C 284.763 387.915 284.976 388.127 284.976 388.39z"/>
			<path style="stroke:none; fill:#663" d="M 272.5 394.772L 268.788 398.484L 272.5 399.272L 276.9 398.833L 281 391.89L 272.5 394.772z"/>
			<path style="stroke:none; fill:#663" d="M 272.023 396.235C 272.023 396.235 271.508 397.823 271.342 398.333C 270.807 398.333 267.599 398.333 267.599 398.333C 267.599 398.333 270.194 400.219 270.627 400.534C 270.462 401.043 269.471 404.095 269.471 404.095C 269.471 404.095 272.066 402.209 272.5 401.894C 272.933 402.209 275.529 404.095 275.529 404.095C 275.529 404.095 274.537 401.043 274.371 400.534C 274.805 400.219 276.9 398.833 276.9 398.833C 276.9 398.833 274.192 398.333 273.656 398.333C 273.491 397.823 272.5 394.772 272.5 394.772L 272.023 396.235z"/>
			<path style="stroke:none; fill:#ff0" d="M 272.5 396.39L 273.293 398.833L 275.861 398.833L 273.783 400.343L 274.578 402.786L 272.5 401.276L 270.422 402.786L 271.215 400.343L 269.137 398.833L 271.705 398.833L 272.5 396.39z"/>
			<path style="stroke:none; fill:#663" d="M 283 397.921C 283 397.921 282.776 394.887 282.5 394.887C 282.224 394.887 282 397.921 282 397.921C 282 397.921 279 398.131 279 398.39C 279 398.649 282 398.858 282 398.858C 282 398.858 282.224 401.887 282.5 401.887C 282.776 401.887 283 398.858 283 398.858C 283 398.858 286 398.649 286 398.39C 286 398.131 283 397.921 283 397.921z"/>
			<path style="stroke:none; fill:#ff0" d="M 283 397.921C 283 397.921 282.776 395.887 282.5 395.887C 282.224 395.887 282 397.921 282 397.921C 282 397.921 280 398.131 280 398.39C 280 398.649 282 398.858 282 398.858C 282 398.858 282.224 400.887 282.5 400.887C 282.776 400.887 283 398.858 283 398.858C 283 398.858 285 398.649 285 398.39C 285 398.131 283 397.921 283 397.921z"/>
			<path style="stroke:none; fill:#fff" d="M 282.976 398.387C 282.976 398.65 282.763 398.862 282.5 398.862C 282.237 398.862 282.024 398.65 282.024 398.387C 282.024 398.125 282.237 397.912 282.5 397.912C 282.763 397.912 282.976 398.125 282.976 398.387z"/>
			<path style="stroke:none; fill:#663" d="M 269 389.924C 269 389.924 268.776 388.89 268.5 388.89C 268.224 388.89 268 389.924 268 389.924C 268 389.924 267 390.133 267 390.392C 267 390.651 268 390.861 268 390.861C 268 390.861 268.224 391.89 268.5 391.89C 268.776 391.89 269 390.861 269 390.861C 269 390.861 270 390.651 270 390.392C 270 390.133 269 389.924 269 389.924z"/>
			<path style="stroke:none; fill:#000" d="M 264 408.89L 264 409.89L 288 409.89L 288 408.89L 287 408.89L 287 403.89L 283 403.89L 283 408.89L 282 408.89L 282 403.89L 278 403.89L 278 399.89L 272 399.89L 272 408.89L 271 408.89L 271 403.89L 265 403.89L 265 408.89L 264 408.89z"/>
			<path style="stroke:none; fill:#ff0" d="M 276 403.89L 274 403.89L 274 401.89L 276 401.89L 276 403.89z"/>
			<path style="stroke:none; fill:#ff0" d="M 269 408.89L 267 408.89L 267 406.89L 269 406.89L 269 408.89z"/>
			<path style="stroke:none; fill:#ff0" d="M 280 408.89L 278 408.89L 278 406.89L 280 406.89L 280 408.89z"/>
			<path style="stroke:none; fill:#ff0" d="M 276 408.89L 274 408.89L 274 406.89L 276 406.89L 276 408.89z"/>
		</g>
		<g>
			<path style="stroke:none; fill:#039" d="M 288 409.89L 264 409.89L 264 385.89L 288 385.89L 288 409.89z"/>
			<path style="stroke:none; fill:#663" d="M 278.976 395.39C 278.976 395.652 278.763 395.865 278.5 395.865C 278.237 395.865 278.024 395.652 278.024 395.39C 278.024 395.127 278.237 394.915 278.5 394.915C 278.763 394.915 278.976 395.127 278.976 395.39z"/>
			<path style="stroke:none; fill:#663" d="M 279.976 394.39C 279.976 394.652 279.763 394.865 279.5 394.865C 279.237 394.865 279.024 394.652 279.024 394.39C 279.024 394.127 279.237 393.915 279.5 393.915C 279.763 393.915 279.976 394.127 279.976 394.39z"/>
			<path style="stroke:none; fill:#663" d="M 281.976 392.39C 281.976 392.652 281.763 392.865 281.5 392.865C 281.237 392.865 281.024 392.652 281.024 392.39C 281.024 392.127 281.237 391.915 281.5 391.915C 281.763 391.915 281.976 392.127 281.976 392.39z"/>
			<path style="stroke:none; fill:#663" d="M 269.5 398.772L 265.788 402.484L 269.5 403.272L 273.9 402.833L 278 395.89L 269.5 398.772z"/>
			<path style="stroke:none; fill:#663" d="M 269.023 400.235C 269.023 400.235 268.508 401.823 268.342 402.333C 267.807 402.333 264.599 402.333 264.599 402.333C 264.599 402.333 267.194 404.219 267.627 404.534C 267.462 405.043 266.471 408.095 266.471 408.095C 266.471 408.095 269.066 406.209 269.5 405.894C 269.933 406.209 272.529 408.095 272.529 408.095C 272.529 408.095 271.537 405.043 271.371 404.534C 271.805 404.219 273.9 402.833 273.9 402.833C 273.9 402.833 271.192 402.333 270.656 402.333C 270.491 401.823 269.5 398.772 269.5 398.772L 269.023 400.235z"/>
			<path style="stroke:none; fill:#ff0" d="M 269.5 400.39L 270.293 402.833L 272.861 402.833L 270.783 404.343L 271.578 406.786L 269.5 405.276L 267.422 406.786L 268.215 404.343L 266.137 402.833L 268.705 402.833L 269.5 400.39z"/>
			<path style="stroke:none; fill:#000" d="M 264 408.89L 264 409.89L 288 409.89L 288 408.89L 287 408.89L 287 403.89L 283 403.89L 283 408.89L 282 408.89L 282 403.89L 278 403.89L 278 399.89L 272 399.89L 272 408.89L 271 408.89L 271 403.89L 265 403.89L 265 408.89L 264 408.89z"/>
			<path style="stroke:none; fill:#ff0" d="M 276 403.89L 274 403.89L 274 401.89L 276 401.89L 276 403.89z"/>
			<path style="stroke:none; fill:#ff0" d="M 269 408.89L 267 408.89L 267 406.89L 269 406.89L 269 408.89z"/>
			<path style="stroke:none; fill:#ff0" d="M 280 408.89L 278 408.89L 278 406.89L 280 406.89L 280 408.89z"/>
			<path style="stroke:none; fill:#ff0" d="M 276 408.89L 274 408.89L 274 406.89L 276 406.89L 276 408.89z"/>
			<path style="stroke:none; fill:#663" d="M 269 389.924C 269 389.924 268.776 386.89 268.5 386.89C 268.224 386.89 268 389.924 268 389.924C 268 389.924 265 390.133 265 390.392C 265 390.651 268 390.861 268 390.861C 268 390.861 268.224 393.89 268.5 393.89C 268.776 393.89 269 390.861 269 390.861C 269 390.861 272 390.651 272 390.392C 272 390.133 269 389.924 269 389.924z"/>
			<path style="stroke:none; fill:#663" d="M 283 397.924C 283 397.924 282.776 396.89 282.5 396.89C 282.224 396.89 282 397.924 282 397.924C 282 397.924 281 398.133 281 398.392C 281 398.651 282 398.861 282 398.861C 282 398.861 282.224 399.89 282.5 399.89C 282.776 399.89 283 398.861 283 398.861C 283 398.861 284 398.651 284 398.392C 284 398.133 283 397.924 283 397.924z"/>
			<path style="stroke:none; fill:#ff0" d="M 269 389.924C 269 389.924 268.776 387.89 268.5 387.89C 268.224 387.89 268 389.924 268 389.924C 268 389.924 266 390.133 266 390.392C 266 390.651 268 390.861 268 390.861C 268 390.861 268.224 392.89 268.5 392.89C 268.776 392.89 269 390.861 269 390.861C 269 390.861 271 390.651 271 390.392C 271 390.133 269 389.924 269 389.924z"/>
			<path style="stroke:none; fill:#fff" d="M 268.976 390.39C 268.976 390.652 268.763 390.865 268.5 390.865C 268.237 390.865 268.024 390.652 268.024 390.39C 268.024 390.127 268.237 389.915 268.5 389.915C 268.763 389.915 268.976 390.127 268.976 390.39z"/>
		</g>
		<g>
			<path style="stroke:none; fill:#039" d="M 288 409.89L 264 409.89L 264 385.89L 288 385.89L 288 409.89z"/>
			<path style="stroke:none; fill:#663" d="M 268.976 402.39C 268.976 402.652 268.763 402.865 268.5 402.865C 268.237 402.865 268.024 402.652 268.024 402.39C 268.024 402.127 268.237 401.915 268.5 401.915C 268.763 401.915 268.976 402.127 268.976 402.39z"/>
			<path style="stroke:none; fill:#663" d="M 269.976 401.39C 269.976 401.652 269.763 401.865 269.5 401.865C 269.237 401.865 269.024 401.652 269.024 401.39C 269.024 401.127 269.237 400.915 269.5 400.915C 269.763 400.915 269.976 401.127 269.976 401.39z"/>
			<path style="stroke:none; fill:#663" d="M 271.976 399.39C 271.976 399.652 271.763 399.865 271.499 399.865C 271.237 399.865 271.024 399.652 271.024 399.39C 271.024 399.127 271.237 398.915 271.499 398.915C 271.763 398.915 271.976 399.127 271.976 399.39z"/>
			<path style="stroke:none; fill:#663" d="M 264 404.246L 264 409.664L 268 402.89L 264 404.246z"/>
			<path style="stroke:none; fill:#663" d="M 283 397.921C 283 397.921 282.776 394.887 282.5 394.887C 282.224 394.887 282 397.921 282 397.921C 282 397.921 279 398.131 279 398.39C 279 398.649 282 398.858 282 398.858C 282 398.858 282.224 401.887 282.5 401.887C 282.776 401.887 283 398.858 283 398.858C 283 398.858 286 398.649 286 398.39C 286 398.131 283 397.921 283 397.921z"/>
			<path style="stroke:none; fill:#ff0" d="M 283 397.921C 283 397.921 282.776 395.887 282.5 395.887C 282.224 395.887 282 397.921 282 397.921C 282 397.921 280 398.131 280 398.39C 280 398.649 282 398.858 282 398.858C 282 398.858 282.224 400.887 282.5 400.887C 282.776 400.887 283 398.858 283 398.858C 283 398.858 285 398.649 285 398.39C 285 398.131 283 397.921 283 397.921z"/>
			<path style="stroke:none; fill:#fff" d="M 282.976 398.387C 282.976 398.65 282.763 398.862 282.5 398.862C 282.237 398.862 282.024 398.65 282.024 398.387C 282.024 398.125 282.237 397.912 282.5 397.912C 282.763 397.912 282.976 398.125 282.976 398.387z"/>
			<path style="stroke:none; fill:#000" d="M 264 408.89L 264 409.89L 288 409.89L 288 408.89L 287 408.89L 287 403.89L 283 403.89L 283 408.89L 282 408.89L 282 403.89L 278 403.89L 278 399.89L 272 399.89L 272 408.89L 271 408.89L 271 403.89L 265 403.89L 265 408.89L 264 408.89z"/>
			<path style="stroke:none; fill:#ff0" d="M 276 403.89L 274 403.89L 274 401.89L 276 401.89L 276 403.89z"/>
			<path style="stroke:none; fill:#ff0" d="M 269 408.89L 267 408.89L 267 406.89L 269 406.89L 269 408.89z"/>
			<path style="stroke:none; fill:#ff0" d="M 280 408.89L 278 408.89L 278 406.89L 280 406.89L 280 408.89z"/>
			<path style="stroke:none; fill:#ff0" d="M 276 408.89L 274 408.89L 274 406.89L 276 406.89L 276 408.89z"/>
			<path style="stroke:none; fill:#663" d="M 269 389.924C 269 389.924 268.776 388.89 268.5 388.89C 268.224 388.89 268 389.924 268 389.924C 268 389.924 267 390.133 267 390.392C 267 390.651 268 390.861 268 390.861C 268 390.861 268.224 391.89 268.5 391.89C 268.776 391.89 269 390.861 269 390.861C 269 390.861 270 390.651 270 390.392C 270 390.133 269 389.924 269 389.924z"/>
		</g>
	</g>
</svg>
