<svg xmlns="http://www.w3.org/2000/svg" width="24" height="24">
	<g transform="translate(-288,-386)" id="KDDI_D_491">
		<path style="stroke:none; fill:#00ccff" d="M 312 409.89L 288 409.89L 288 385.89L 312 385.89L 312 409.89z"/>
		<path style="stroke:#cc00ff; stroke-width:2; stroke-linejoin:round; stroke-linecap:square; fill:none" d="M 311 387.89C 299.467 387.89 290 397.357 290 408.89"/>
		<path style="stroke:#0000ff; stroke-width:2; stroke-linejoin:round; stroke-linecap:square; fill:none" d="M 311 389.89C 300.523 389.89 292 398.413 292 408.89"/>
		<path style="stroke:#00ccff; stroke-width:2; stroke-linejoin:round; stroke-linecap:square; fill:none" d="M 294 408.89C 294 399.568 301.609 391.89 311 391.89"/>
		<path style="stroke:#009900; stroke-width:2; stroke-linejoin:round; stroke-linecap:square; fill:none" d="M 296 408.89C 296 400.619 302.728 393.89 311 393.89"/>
		<path style="stroke:#ffcc00; stroke-width:2; stroke-linejoin:round; stroke-linecap:square; fill:none" d="M 298 408.89C 298 401.774 303.815 395.89 311 395.89"/>
		<path style="stroke:#ff6600; stroke-width:2; stroke-linejoin:round; stroke-linecap:square; fill:none" d="M 311 397.89C 304.935 397.89 300 402.824 300 408.89"/>
		<path style="stroke:#ff0000; stroke-width:2; stroke-linejoin:round; stroke-linecap:square; fill:none" d="M 302 408.89C 302 403.98 306.021 399.89 311 399.89"/>
	</g>
</svg>
