<svg xmlns="http://www.w3.org/2000/svg" height="24" width="24">
    <g transform="matrix(1,0,0,-1,-264,408)" id="KDDI_D_">        <path d="M275.4 396.5v1.7c0 2.8 2.3 5 5 5h2.1c2.8 0 5-2.2 5-5v-13.7h-23v12z" fill="#fc9"/>
        <path d="M275.4 396.5v1.7c0 1.4.6 2.6 1.4 3.5.9 1 1.4.3.6-1.4-.3-.6-.5-1.3-.5-2.1v-3.3H266v-10.4h-1.5v12z" fill="#ffc"/>
        <path d="M280.6 402.8c.2.6 1.9.4 1.9.4 2.8 0 5-2.2 5-5v-13.7h-1.6v13.2c0 2.4-1.7 4.3-4.1 4.3 0 0-1.4.2-1.2.8z" fill="#f99"/>
        <path d="M266.1 395v-10.5h-1.6v12z" fill="#ffc"/>
        <path d="M275.4 396.5l1.6-1.5h-10.9l-1.6 1.5z" fill="#ffc"/>
        <path d="M287.5 384.5h-23" fill="none" stroke="#000" stroke-linecap="square"/>
        <path d="M280.4 403.2h2.1c2.8 0 5-2.2 5-5v-13.7" fill="none" stroke="#333" stroke-linecap="square"/>
        <path d="M275.4 396.5v1.7c0 2.8 2.3 5 5 5" fill="none" stroke="#666"/>
        <path d="M264.5 396.5h10.9M264.5 384.5v12" fill="none" stroke="#666" stroke-linecap="square"/>
        <path d="M269.5 405.9s-.9 2-2.5 2c-1.7 0-2.7-1-2.7-3 0-1.6 1.4-3 2-3.7l.1-.1c.6-.5 1-.9 3-2.7l.1-.1.2.1c2 1.8 2.4 2.2 2.9 2.7l.2.1c.6.7 2 2.1 2 3.7 0 2-1 3-2.7 3-1.5 0-2.6-2-2.6-2z" fill="#f39"/>
        <path d="M268.4 401.7c-.8.4-1.5.9-1.9 1.2-.4.4-1.3 1.3-1.3 2.5 0 .8.4 1.6 1.5 1.6.6 0 1.1-.5 1.3-.8 0 0-.9 0-.9-1.2 0-.7-.1-1.4 1.3-3.3z" fill="#f69"/>
        <path d="M265.4 405.4c0-1 .8-1.9 1.3-2.3.2-.2.6-.5 1.1-.8-.9 1.3-.9 2-.9 2.6v.1c0 .8.4 1.2.7 1.3-.2.2-.6.5-.9.5-1.2 0-1.3-1-1.3-1.4z" fill="#f9c"/>
        <path d="M265.8 405.4c0-.7.4-1.3.8-1.7-.1.5-.1.8-.1 1.3 0 .6.1 1 .4 1.3-.1 0-.1.1-.2.1-.2 0-.9 0-.9-1z" fill="#fff"/>
        <path d="M266.4 401.1c.6-.5 1-.9 3-2.7l.1-.1.2.1c2 1.8 2.4 2.2 2.9 2.7l.2.1c.6.7 2 2.1 2 3.7 0 2-1 3-2.7 3-1.5 0-2.6-2-2.6-2s-.6 1.2-1.6 1.7c.7-.5 1.5-1.7 1.6-2.5.1.5.6 1.4 1 1.7.3.3.8.6 1.2.6 1.5 0 1.9-1.1 1.6-2.5-.2-1.2-.7-2-1.2-2.6l-.4-.4c-.4-.4-.8-.8-2.2-2-.9.3-2.3 1.2-3.3 2-.6.6-1.9 1.9-1.9 3 0-1.6 1.4-3 2-3.7z" fill="#c36"/>
        <path d="M272.6 401.1l.2.1c.6.7 2 2.1 2 3.7 0 1.9-.9 2.9-2.5 3 1.3-.2 2.2-1.1 2-3 0-1.1-1.2-2.5-1.8-3.1l-.2-.2c-.5-.5-.9-.9-2.8-2.5v-.8l.2.1c2 1.8 2.4 2.2 2.9 2.7z" fill="#906"/>
        <path d="M272.6 401.1l.2.1c.6.7 2 2.1 2 3.7 0 .1 0 .3-.1.4-.1-1.9-1.7-3.5-2.3-4.1l-.2-.2c-.5-.5-.8-.8-2.7-2.4v-.3l.2.1c2 1.8 2.4 2.2 2.9 2.7z" fill="#603"/>
        <path d="M283.6 384h-5.3v5.4h5.3z" fill="#36f"/>
        <path d="M278.8 388.4h4.8v1h-6.5V384h1.7z" fill="#00c"/>
        <path d="M278.5 394.9h1.6v6.1h-1.6zM282.8 394.9h1.6v6.1h-1.6z" fill="#c00"/>
        <path d="M279.3 397.1h3.6v1.7h-3.6z" fill="#c00"/>
        <path d="M268.3 390.6h-2.2v3.2h2.2z" fill="#36f"/>
        <path d="M268.3 392.7v1.1h-2.2v-3.2h.9v2.1z" fill="#00c"/>
        <path d="M271.6 390.6h-2.2v3.2h2.2z" fill="#36f"/>
        <path d="M271.6 392.7v1.1h-2.2v-3.2h.9v2.1z" fill="#00c"/>
        <path d="M274.9 390.6h-2.1v3.2h2.1z" fill="#36f"/>
        <path d="M274.9 392.7v1.1h-2.1v-3.2h.9v2.1z" fill="#00c"/>
        <path d="M268.3 386.2h-2.2v3.2h2.2z" fill="#36f"/>
        <path d="M268.3 388.4v1h-2.2v-3.2h.9v2.2z" fill="#00c"/>
        <path d="M271.6 386.2h-2.2v3.2h2.2z" fill="#36f"/>
        <path d="M271.6 388.4v1h-2.2v-3.2h.9v2.2z" fill="#00c"/>
        <path d="M274.9 386.2h-2.1v3.2h2.1z" fill="#36f"/>
        <path d="M274.9 388.4v1h-2.1v-3.2h.9v2.2z" fill="#00c"/>
        <path d="M278.3 390.6h-2.2v3.2h2.2z" fill="#36f"/>
        <path d="M278.3 392.7v1.1h-2.2v-3.2h.9v2.1z" fill="#00c"/>
        <path d="M281.6 390.6h-2.2v3.2h2.2z" fill="#36f"/>
        <path d="M281.6 392.7v1.1h-2.2v-3.2h1v2.1z" fill="#00c"/>
        <path d="M284.9 390.6h-2.1v3.2h2.1z" fill="#36f"/>
        <path d="M284.9 392.7v1.1h-2.1v-3.2h.9v2.1z" fill="#00c"/>
    </g>
</svg>
