<svg xmlns="http://www.w3.org/2000/svg" width="24" height="24">
	<g transform="translate(-264,-386)" id="KDDI_D_493">
		<g>
			<path style="stroke:none; fill:none" d="M 288 409.89L 264 409.89L 264 385.89L 288 385.89L 288 409.89z"/>
		</g>
		<g>
			<path style="stroke:none; fill:#66f" d="M 288 407.89L 264 407.89L 264 409.89L 288 409.89L 288 407.89z"/>
			<path style="stroke:none; fill:#33f" d="M 288 405.89L 264 405.89L 264 407.89L 288 407.89L 288 405.89z"/>
			<path style="stroke:none; fill:#00f" d="M 288 403.89L 264 403.89L 264 405.89L 288 405.89L 288 403.89z"/>
			<path style="stroke:none; fill:#00c" d="M 288 401.89L 264 401.89L 264 403.89L 288 403.89L 288 401.89z"/>
			<path style="stroke:none; fill:#009" d="M 288 399.89L 264 399.89L 264 401.89L 288 401.89L 288 399.89z"/>
			<path style="stroke:none; fill:#900" d="M 288 396.89L 264 396.89L 264 399.89L 288 399.89L 288 396.89z"/>
			<path style="stroke:none; fill:#603" d="M 288 393.89L 264 393.89L 264 396.89L 288 396.89L 288 393.89z"/>
			<path style="stroke:none; fill:#306" d="M 288 389.89L 264 389.89L 264 393.89L 288 393.89L 288 389.89z"/>
			<path style="stroke:none; fill:#006" d="M 288 385.89L 264 385.89L 264 389.89L 288 389.89L 288 385.89z"/>
		</g>
		<g>
			<path style="stroke:none; fill:#f33" d="M 288 396.89L 264 396.89L 264 399.89L 288 399.89L 288 396.89z"/>
			<path style="stroke:none; fill:#f00" d="M 288 393.89L 264 393.89L 264 396.89L 288 396.89L 288 393.89z"/>
			<path style="stroke:none; fill:#900" d="M 288 389.89L 264 389.89L 264 393.89L 288 393.89L 288 389.89z"/>
			<path style="stroke:none; fill:#603" d="M 288 385.89L 264 385.89L 264 389.89L 288 389.89L 288 385.89z"/>
			<path style="stroke:none; fill:#f9c" d="M 275.976 398.39C 275.976 398.652 275.763 398.865 275.5 398.865C 275.237 398.865 275.024 398.652 275.024 398.39C 275.024 398.127 275.237 397.915 275.5 397.915C 275.763 397.915 275.976 398.127 275.976 398.39z"/>
			<path style="stroke:none; fill:#f9c" d="M 276.976 397.39C 276.976 397.652 276.763 397.865 276.5 397.865C 276.237 397.865 276.024 397.652 276.024 397.39C 276.024 397.127 276.237 396.915 276.5 396.915C 276.763 396.915 276.976 397.127 276.976 397.39z"/>
			<path style="stroke:none; fill:#f9c" d="M 277.976 398.39C 277.976 398.652 277.763 398.865 277.5 398.865C 277.237 398.865 277.024 398.652 277.024 398.39C 277.024 398.127 277.237 397.915 277.5 397.915C 277.763 397.915 277.976 398.127 277.976 398.39z"/>
			<path style="stroke:none; fill:#f9c" d="M 273.976 398.39C 273.976 398.652 273.763 398.865 273.5 398.865C 273.237 398.865 273.024 398.652 273.024 398.39C 273.024 398.127 273.237 397.915 273.5 397.915C 273.763 397.915 273.976 398.127 273.976 398.39z"/>
			<path style="stroke:none; fill:#f9c" d="M 279.976 398.39C 279.976 398.652 279.763 398.865 279.5 398.865C 279.237 398.865 279.024 398.652 279.024 398.39C 279.024 398.127 279.237 397.915 279.5 397.915C 279.763 397.915 279.976 398.127 279.976 398.39z"/>
			<path style="stroke:none; fill:#f9c" d="M 280.976 399.39C 280.976 399.652 280.763 399.865 280.5 399.865C 280.237 399.865 280.024 399.652 280.024 399.39C 280.024 399.127 280.237 398.915 280.5 398.915C 280.763 398.915 280.976 399.127 280.976 399.39z"/>
			<path style="stroke:none; fill:#f9c" d="M 272.976 399.39C 272.976 399.652 272.763 399.865 272.5 399.865C 272.237 399.865 272.024 399.652 272.024 399.39C 272.024 399.127 272.237 398.915 272.5 398.915C 272.763 398.915 272.976 399.127 272.976 399.39z"/>
			<path style="stroke:none; fill:#f33" d="M 281.5 404.39C 281.5 407.151 279.261 409.39 276.5 409.39C 273.739 409.39 271.5 407.151 271.5 404.39C 271.5 401.629 273.739 399.39 276.5 399.39C 279.261 399.39 281.5 401.629 281.5 404.39z"/>
			<path style="stroke:#f9c; stroke-width:1; fill:none" d="M 281.5 404.39C 281.5 407.151 279.261 409.39 276.5 409.39C 273.739 409.39 271.5 407.151 271.5 404.39C 271.5 401.629 273.739 399.39 276.5 399.39C 279.261 399.39 281.5 401.629 281.5 404.39z"/>
			<path style="stroke:none; fill:#009" d="M 288 399.89L 264 399.89L 264 401.89L 288 401.89L 288 399.89z"/>
			<path style="stroke:none; fill:#66f" d="M 288 407.89L 264 407.89L 264 409.89L 288 409.89L 288 407.89z"/>
			<path style="stroke:none; fill:#33f" d="M 288 405.89L 264 405.89L 264 407.89L 288 407.89L 288 405.89z"/>
			<path style="stroke:none; fill:#00f" d="M 288 403.89L 264 403.89L 264 405.89L 288 405.89L 288 403.89z"/>
			<path style="stroke:none; fill:#00c" d="M 288 401.89L 264 401.89L 264 403.89L 288 403.89L 288 401.89z"/>
			<path style="stroke:none; fill:#966" d="M 279.464 399.89L 273.536 399.89C 274.364 400.512 275.383 400.89 276.5 400.89C 277.617 400.89 278.636 400.512 279.464 399.89z"/>
			<path style="stroke:none; fill:#c66" d="M 276.5 400.89C 278 400.89 278.5 399.89 278.5 399.89L 274.5 399.89C 274.5 399.89 275 400.89 276.5 400.89z"/>
		</g>
		<g>
			<path style="stroke:none; fill:#f63" d="M 288 398.89L 264 398.89L 264 399.89L 288 399.89L 288 398.89z"/>
			<path style="stroke:none; fill:#f33" d="M 288 395.39L 264 395.39L 264 398.89L 288 398.89L 288 395.39z"/>
			<path style="stroke:none; fill:#f00" d="M 288 391.39L 264 391.39L 264 395.39L 288 395.39L 288 391.39z"/>
			<path style="stroke:none; fill:#900" d="M 288 387.39L 264 387.39L 264 391.39L 288 391.39L 288 387.39z"/>
			<path style="stroke:none; fill:#603" d="M 288 385.89L 264 385.89L 264 387.39L 288 387.39L 288 385.89z"/>
			<path style="stroke:none; fill:#f33" d="M 281.5 402.39C 281.5 405.151 279.261 407.39 276.5 407.39C 273.739 407.39 271.5 405.151 271.5 402.39C 271.5 399.629 273.739 397.39 276.5 397.39C 279.261 397.39 281.5 399.629 281.5 402.39z"/>
			<path style="stroke:#f9c; stroke-width:1; fill:none" d="M 281.5 402.39C 281.5 405.151 279.261 407.39 276.5 407.39C 273.739 407.39 271.5 405.151 271.5 402.39C 271.5 399.629 273.739 397.39 276.5 397.39C 279.261 397.39 281.5 399.629 281.5 402.39z"/>
			<path style="stroke:none; fill:#009" d="M 288 399.89L 264 399.89L 264 401.89L 288 401.89L 288 399.89z"/>
			<path style="stroke:none; fill:#66f" d="M 288 407.89L 264 407.89L 264 409.89L 288 409.89L 288 407.89z"/>
			<path style="stroke:none; fill:#33f" d="M 288 405.89L 264 405.89L 264 407.89L 288 407.89L 288 405.89z"/>
			<path style="stroke:none; fill:#00f" d="M 288 403.89L 264 403.89L 264 405.89L 288 405.89L 288 403.89z"/>
			<path style="stroke:none; fill:#00c" d="M 288 401.89L 264 401.89L 264 403.89L 288 403.89L 288 401.89z"/>
			<path style="stroke:none; fill:#966" d="M 284 399.89L 269 399.89C 269 399.89 273 405.89 276.5 405.89C 280 405.89 284 399.89 284 399.89z"/>
			<path style="stroke:none; fill:#969" d="M 270.538 401.89C 272.023 403.635 274.353 405.89 276.5 405.89C 278.647 405.89 280.977 403.635 282.462 401.89L 270.538 401.89z"/>
			<path style="stroke:none; fill:#c66" d="M 281.5 399.89L 271.5 399.89C 271.5 399.89 273.5 405.89 276.5 405.89C 279.5 405.89 281.5 399.89 281.5 399.89z"/>
			<path style="stroke:none; fill:#c33" d="M 276.5 401.89C 279.417 401.89 280 399.89 280 399.89L 273 399.89C 273 399.89 273.583 401.89 276.5 401.89z"/>
			<path style="stroke:none; fill:#f9c" d="M 272.976 396.39C 272.976 396.652 272.763 396.865 272.5 396.865C 272.237 396.865 272.024 396.652 272.024 396.39C 272.024 396.127 272.237 395.915 272.5 395.915C 272.763 395.915 272.976 396.127 272.976 396.39z"/>
			<path style="stroke:none; fill:#f9c" d="M 276.976 395.39C 276.976 395.652 276.763 395.865 276.5 395.865C 276.237 395.865 276.024 395.652 276.024 395.39C 276.024 395.127 276.237 394.915 276.5 394.915C 276.763 394.915 276.976 395.127 276.976 395.39z"/>
			<path style="stroke:none; fill:#f9c" d="M 280.951 396.39C 280.951 396.652 280.738 396.865 280.476 396.865C 280.213 396.865 280 396.652 280 396.39C 280 396.127 280.213 395.915 280.476 395.915C 280.738 395.915 280.951 396.127 280.951 396.39z"/>
			<path style="stroke:none; fill:#f9c" d="M 270.976 397.39C 270.976 397.652 270.763 397.865 270.5 397.865C 270.237 397.865 270.024 397.652 270.024 397.39C 270.024 397.127 270.237 396.915 270.5 396.915C 270.763 396.915 270.976 397.127 270.976 397.39z"/>
			<path style="stroke:none; fill:#f9c" d="M 282.976 397.39C 282.976 397.652 282.763 397.865 282.5 397.865C 282.237 397.865 282.024 397.652 282.024 397.39C 282.024 397.127 282.237 396.915 282.5 396.915C 282.763 396.915 282.976 397.127 282.976 397.39z"/>
			<path style="stroke:none; fill:#f9c" d="M 284 399.39C 284 399.652 283.787 399.865 283.524 399.865C 283.262 399.865 283.049 399.652 283.049 399.39C 283.049 399.127 283.262 398.915 283.524 398.915C 283.787 398.915 284 399.127 284 399.39z"/>
			<path style="stroke:none; fill:#f9c" d="M 269.976 399.39C 269.976 399.652 269.763 399.865 269.5 399.865C 269.237 399.865 269.024 399.652 269.024 399.39C 269.024 399.127 269.237 398.915 269.5 398.915C 269.763 398.915 269.976 399.127 269.976 399.39z"/>
		</g>
		<g>
			<path style="stroke:none; fill:#f63" d="M 288 396.89L 264 396.89L 264 399.89L 288 399.89L 288 396.89z"/>
			<path style="stroke:none; fill:#f33" d="M 288 393.89L 264 393.89L 264 396.89L 288 396.89L 288 393.89z"/>
			<path style="stroke:none; fill:#f00" d="M 288 389.89L 264 389.89L 264 393.89L 288 393.89L 288 389.89z"/>
			<path style="stroke:none; fill:#900" d="M 288 385.89L 264 385.89L 264 389.89L 288 389.89L 288 385.89z"/>
			<path style="stroke:none; fill:#f33" d="M 281.5 401.39C 281.5 404.151 279.261 406.39 276.5 406.39C 273.739 406.39 271.5 404.151 271.5 401.39C 271.5 398.629 273.739 396.39 276.5 396.39C 279.261 396.39 281.5 398.629 281.5 401.39z"/>
			<path style="stroke:#f9c; stroke-width:1; fill:none" d="M 281.5 401.39C 281.5 404.151 279.261 406.39 276.5 406.39C 273.739 406.39 271.5 404.151 271.5 401.39C 271.5 398.629 273.739 396.39 276.5 396.39C 279.261 396.39 281.5 398.629 281.5 401.39z"/>
			<path style="stroke:none; fill:#009" d="M 288 399.89L 264 399.89L 264 401.89L 288 401.89L 288 399.89z"/>
			<path style="stroke:none; fill:#66f" d="M 288 407.89L 264 407.89L 264 409.89L 288 409.89L 288 407.89z"/>
			<path style="stroke:none; fill:#33f" d="M 288 405.89L 264 405.89L 264 407.89L 288 407.89L 288 405.89z"/>
			<path style="stroke:none; fill:#00f" d="M 288 403.89L 264 403.89L 264 405.89L 288 405.89L 288 403.89z"/>
			<path style="stroke:none; fill:#00c" d="M 288 401.89L 264 401.89L 264 403.89L 288 403.89L 288 401.89z"/>
			<path style="stroke:none; fill:#966" d="M 284 399.89L 269 399.89C 269 399.89 273 407.89 276.5 407.89C 280 407.89 284 399.89 284 399.89z"/>
			<path style="stroke:none; fill:#969" d="M 281.562 403.89L 271.438 403.89C 272.875 405.89 274.75 407.89 276.5 407.89C 278.25 407.89 280.125 405.89 281.562 403.89z"/>
			<path style="stroke:none; fill:#c66" d="M 280.719 399.89L 272.281 399.89C 272.281 399.89 272.719 406.89 276.5 406.89C 280.281 406.89 280.719 399.89 280.719 399.89z"/>
			<path style="stroke:none; fill:#c33" d="M 276.5 403.89C 280.917 403.89 280.719 399.89 280.719 399.89L 272.281 399.89C 272.281 399.89 272.083 403.89 276.5 403.89z"/>
			<g>
				<path style="stroke:none; fill:#f9c" d="M 276.5 390.89L 276.975 393.414L 276.025 393.414L 276.5 390.89z"/>
				<path style="stroke:none; fill:#f9c" d="M 276.5 393.89C 276.237 393.89 276.025 393.677 276.025 393.414C 276.025 393.151 276.237 392.939 276.5 392.939C 276.763 392.939 276.975 393.151 276.975 393.414C 276.975 393.677 276.763 393.89 276.5 393.89z"/>
			</g>
			<g>
				<path style="stroke:none; fill:#f9c" d="M 272.238 392.211L 273.911 394.159L 273.089 394.635L 272.238 392.211z"/>
				<path style="stroke:none; fill:#f9c" d="M 273.738 394.809C 273.511 394.941 273.22 394.862 273.089 394.635C 272.957 394.407 273.035 394.117 273.263 393.985C 273.49 393.854 273.78 393.932 273.911 394.159C 274.043 394.387 273.966 394.678 273.738 394.809z"/>
			</g>
			<g>
				<path style="stroke:none; fill:#f9c" d="M 268.325 395.158L 270.748 396.009L 270.274 396.832L 268.325 395.158z"/>
				<path style="stroke:none; fill:#f9c" d="M 270.924 396.658C 270.792 396.886 270.501 396.963 270.274 396.832C 270.046 396.701 269.969 396.41 270.1 396.183C 270.231 395.955 270.522 395.878 270.748 396.009C 270.977 396.14 271.055 396.431 270.924 396.658z"/>
			</g>
			<g>
				<path style="stroke:none; fill:#f9c" d="M 266.976 398.39L 269.5 397.915L 269.5 398.865L 266.976 398.39z"/>
				<path style="stroke:none; fill:#f9c" d="M 269.976 398.39C 269.976 398.652 269.763 398.865 269.5 398.865C 269.237 398.865 269.024 398.652 269.024 398.39C 269.024 398.127 269.237 397.915 269.5 397.915C 269.763 397.915 269.976 398.127 269.976 398.39z"/>
			</g>
			<g>
				<path style="stroke:none; fill:#f9c" d="M 280.783 392.211L 279.11 394.159L 279.932 394.635L 280.783 392.211z"/>
				<path style="stroke:none; fill:#f9c" d="M 279.283 394.809C 279.51 394.941 279.801 394.862 279.932 394.635C 280.064 394.407 279.986 394.117 279.758 393.985C 279.531 393.854 279.241 393.932 279.11 394.159C 278.978 394.387 279.055 394.678 279.283 394.809z"/>
			</g>
			<g>
				<path style="stroke:none; fill:#f9c" d="M 284.696 395.158L 282.273 396.009L 282.747 396.832L 284.696 395.158z"/>
				<path style="stroke:none; fill:#f9c" d="M 282.097 396.658C 282.229 396.886 282.52 396.963 282.747 396.832C 282.975 396.701 283.052 396.41 282.921 396.183C 282.79 395.955 282.5 395.878 282.273 396.009C 282.044 396.14 281.966 396.431 282.097 396.658z"/>
			</g>
			<g>
				<path style="stroke:none; fill:#f9c" d="M 286.024 398.39L 283.5 397.915L 283.5 398.865L 286.024 398.39z"/>
				<path style="stroke:none; fill:#f9c" d="M 283.024 398.39C 283.024 398.652 283.237 398.865 283.5 398.865C 283.763 398.865 283.976 398.652 283.976 398.39C 283.976 398.127 283.763 397.915 283.5 397.915C 283.237 397.915 283.024 398.127 283.024 398.39z"/>
			</g>
		</g>
		<g>
			<path style="stroke:none; fill:#f63" d="M 288 395.39L 264 395.39L 264 398.89L 288 398.89L 288 395.39z"/>
			<path style="stroke:none; fill:#f93" d="M 288 398.89L 264 398.89L 264 399.89L 288 399.89L 288 398.89z"/>
			<path style="stroke:none; fill:#f33" d="M 288 391.39L 264 391.39L 264 395.39L 288 395.39L 288 391.39z"/>
			<path style="stroke:none; fill:#f00" d="M 288 387.39L 264 387.39L 264 391.39L 288 391.39L 288 387.39z"/>
			<path style="stroke:none; fill:#900" d="M 288 385.89L 264 385.89L 264 387.39L 288 387.39L 288 385.89z"/>
			<path style="stroke:none; fill:#f33" d="M 281.5 399.39C 281.5 402.151 279.261 404.39 276.5 404.39C 273.739 404.39 271.5 402.151 271.5 399.39C 271.5 396.629 273.739 394.39 276.5 394.39C 279.261 394.39 281.5 396.629 281.5 399.39z"/>
			<path style="stroke:#f9c; stroke-width:1; fill:none" d="M 281.5 399.39C 281.5 402.151 279.261 404.39 276.5 404.39C 273.739 404.39 271.5 402.151 271.5 399.39C 271.5 396.629 273.739 394.39 276.5 394.39C 279.261 394.39 281.5 396.629 281.5 399.39z"/>
			<path style="stroke:none; fill:#009" d="M 288 399.89L 264 399.89L 264 401.89L 288 401.89L 288 399.89z"/>
			<path style="stroke:none; fill:#66f" d="M 288 407.89L 264 407.89L 264 409.89L 288 409.89L 288 407.89z"/>
			<path style="stroke:none; fill:#33f" d="M 288 405.89L 264 405.89L 264 407.89L 288 407.89L 288 405.89z"/>
			<path style="stroke:none; fill:#00f" d="M 288 403.89L 264 403.89L 264 405.89L 288 405.89L 288 403.89z"/>
			<path style="stroke:none; fill:#00c" d="M 288 401.89L 264 401.89L 264 403.89L 288 403.89L 288 401.89z"/>
			<path style="stroke:none; fill:#966" d="M 284 399.89L 269 399.89C 269 399.89 269.5 409.89 276.5 409.89C 283.5 409.89 284 399.89 284 399.89z"/>
			<path style="stroke:none; fill:#969" d="M 283.231 403.89L 269.769 403.89C 270.652 406.674 272.53 409.89 276.5 409.89C 280.47 409.89 282.348 406.674 283.231 403.89z"/>
			<path style="stroke:none; fill:#c66" d="M 280.719 399.89L 272.281 399.89C 272.281 399.89 272 407.89 276.5 407.89C 281 407.89 280.719 399.89 280.719 399.89z"/>
			<path style="stroke:none; fill:#c33" d="M 276.5 403.89C 280.917 403.89 280.719 399.89 280.719 399.89L 272.281 399.89C 272.281 399.89 272.083 403.89 276.5 403.89z"/>
			<g>
				<path style="stroke:none; fill:#f9c" d="M 276.5 389.865L 276.975 392.39L 276.025 392.39L 276.5 389.865z"/>
				<path style="stroke:none; fill:#f9c" d="M 276.5 392.865C 276.237 392.865 276.025 392.652 276.025 392.39C 276.025 392.127 276.237 391.914 276.5 391.914C 276.763 391.914 276.975 392.127 276.975 392.39C 276.975 392.652 276.763 392.865 276.5 392.865z"/>
			</g>
			<g>
				<path style="stroke:none; fill:#f9c" d="M 271.238 391.203L 272.911 393.151L 272.089 393.627L 271.238 391.203z"/>
				<path style="stroke:none; fill:#f9c" d="M 272.738 393.801C 272.511 393.933 272.22 393.855 272.089 393.627C 271.957 393.4 272.035 393.109 272.263 392.978C 272.49 392.846 272.78 392.924 272.911 393.151C 273.043 393.379 272.966 393.67 272.738 393.801z"/>
			</g>
			<g>
				<path style="stroke:none; fill:#f9c" d="M 267.314 394.135L 269.736 394.985L 269.263 395.809L 267.314 394.135z"/>
				<path style="stroke:none; fill:#f9c" d="M 269.912 395.635C 269.78 395.862 269.489 395.94 269.263 395.809C 269.034 395.677 268.957 395.387 269.088 395.159C 269.22 394.932 269.51 394.854 269.736 394.985C 269.965 395.117 270.043 395.407 269.912 395.635z"/>
			</g>
			<g>
				<path style="stroke:none; fill:#fcf" d="M 265.976 398.39L 268.5 397.915L 268.5 398.865L 265.976 398.39z"/>
				<path style="stroke:none; fill:#fcf" d="M 268.976 398.39C 268.976 398.652 268.763 398.865 268.5 398.865C 268.237 398.865 268.024 398.652 268.024 398.39C 268.024 398.127 268.237 397.915 268.5 397.915C 268.763 397.915 268.976 398.127 268.976 398.39z"/>
			</g>
			<g>
				<path style="stroke:none; fill:#f9c" d="M 281.762 391.203L 280.089 393.151L 280.911 393.627L 281.762 391.203z"/>
				<path style="stroke:none; fill:#f9c" d="M 280.262 393.801C 280.489 393.933 280.78 393.855 280.911 393.627C 281.043 393.4 280.965 393.109 280.737 392.978C 280.51 392.846 280.22 392.924 280.089 393.151C 279.957 393.379 280.034 393.67 280.262 393.801z"/>
			</g>
			<g>
				<path style="stroke:none; fill:#f9c" d="M 284.707 394.135L 282.285 394.985L 282.758 395.809L 284.707 394.135z"/>
				<path style="stroke:none; fill:#f9c" d="M 282.109 395.635C 282.241 395.862 282.532 395.94 282.758 395.809C 282.987 395.677 283.064 395.387 282.933 395.159C 282.801 394.932 282.511 394.854 282.285 394.985C 282.056 395.117 281.978 395.407 282.109 395.635z"/>
			</g>
			<g>
				<path style="stroke:none; fill:#fcf" d="M 287.024 398.39L 284.5 397.915L 284.5 398.865L 287.024 398.39z"/>
				<path style="stroke:none; fill:#fcf" d="M 284.024 398.39C 284.024 398.652 284.237 398.865 284.5 398.865C 284.763 398.865 284.976 398.652 284.976 398.39C 284.976 398.127 284.763 397.915 284.5 397.915C 284.237 397.915 284.024 398.127 284.024 398.39z"/>
			</g>
			<path style="stroke:none; fill:#fcf" d="M 271.976 399.39C 271.976 399.652 271.763 399.865 271.5 399.865C 271.237 399.865 271.024 399.652 271.024 399.39C 271.024 399.127 271.237 398.915 271.5 398.915C 271.763 398.915 271.976 399.127 271.976 399.39z"/>
			<path style="stroke:none; fill:#fcf" d="M 281.976 399.39C 281.976 399.652 281.763 399.865 281.5 399.865C 281.237 399.865 281.024 399.652 281.024 399.39C 281.024 399.127 281.237 398.915 281.5 398.915C 281.763 398.915 281.976 399.127 281.976 399.39z"/>
		</g>
		<g>
			<path style="stroke:none; fill:#f63" d="M 288 395.39L 264 395.39L 264 398.89L 288 398.89L 288 395.39z"/>
			<path style="stroke:none; fill:#f93" d="M 288 398.89L 264 398.89L 264 399.89L 288 399.89L 288 398.89z"/>
			<path style="stroke:none; fill:#f33" d="M 288 391.39L 264 391.39L 264 395.39L 288 395.39L 288 391.39z"/>
			<path style="stroke:none; fill:#f00" d="M 288 385.89L 264 385.89L 264 391.39L 288 391.39L 288 385.89z"/>
			<path style="stroke:none; fill:#f33" d="M 281.5 399.39C 281.5 402.151 279.261 404.39 276.5 404.39C 273.739 404.39 271.5 402.151 271.5 399.39C 271.5 396.629 273.739 394.39 276.5 394.39C 279.261 394.39 281.5 396.629 281.5 399.39z"/>
			<path style="stroke:#f9c; stroke-width:1; fill:none" d="M 281.5 399.39C 281.5 402.151 279.261 404.39 276.5 404.39C 273.739 404.39 271.5 402.151 271.5 399.39C 271.5 396.629 273.739 394.39 276.5 394.39C 279.261 394.39 281.5 396.629 281.5 399.39z"/>
			<path style="stroke:none; fill:#009" d="M 288 399.89L 264 399.89L 264 401.89L 288 401.89L 288 399.89z"/>
			<path style="stroke:none; fill:#66f" d="M 288 407.89L 264 407.89L 264 409.89L 288 409.89L 288 407.89z"/>
			<path style="stroke:none; fill:#33f" d="M 288 405.89L 264 405.89L 264 407.89L 288 407.89L 288 405.89z"/>
			<path style="stroke:none; fill:#00f" d="M 288 403.89L 264 403.89L 264 405.89L 288 405.89L 288 403.89z"/>
			<path style="stroke:none; fill:#00c" d="M 288 401.89L 264 401.89L 264 403.89L 288 403.89L 288 401.89z"/>
			<path style="stroke:none; fill:#966" d="M 284 399.89L 269 399.89C 269 399.89 269.5 409.89 276.5 409.89C 283.5 409.89 284 399.89 284 399.89z"/>
			<path style="stroke:none; fill:#969" d="M 283.231 403.89L 269.769 403.89C 270.652 406.674 272.53 409.89 276.5 409.89C 280.47 409.89 282.348 406.674 283.231 403.89z"/>
			<path style="stroke:none; fill:#c66" d="M 280.719 399.89L 272.281 399.89C 272.281 399.89 272 407.89 276.5 407.89C 281 407.89 280.719 399.89 280.719 399.89z"/>
			<path style="stroke:none; fill:#c33" d="M 276.5 403.89C 280.917 403.89 280.719 399.89 280.719 399.89L 272.281 399.89C 272.281 399.89 272.083 403.89 276.5 403.89z"/>
			<g>
				<path style="stroke:none; fill:#f9c" d="M 276.5 388.865L 276.975 391.39L 276.025 391.39L 276.5 388.865z"/>
				<path style="stroke:none; fill:#f9c" d="M 276.5 391.865C 276.237 391.865 276.025 391.652 276.025 391.39C 276.025 391.127 276.237 390.914 276.5 390.914C 276.763 390.914 276.975 391.127 276.975 391.39C 276.975 391.652 276.763 391.865 276.5 391.865z"/>
			</g>
			<g>
				<path style="stroke:none; fill:#f9c" d="M 272 389.583L 273.405 391.733L 272.527 392.097L 272 389.583z"/>
				<path style="stroke:none; fill:#f9c" d="M 273.441 391.912C 273.442 392.177 273.23 392.39 272.967 392.39C 272.704 392.391 272.49 392.178 272.489 391.915C 272.489 391.652 272.702 391.44 272.965 391.439C 273.227 391.439 273.44 391.651 273.441 391.912z"/>
			</g>
			<g>
				<path style="stroke:none; fill:#f9c" d="M 268.24 392.13L 270.361 393.579L 269.689 394.251L 268.24 392.13z"/>
				<path style="stroke:none; fill:#f9c" d="M 270.5 393.915C 270.501 394.177 270.288 394.39 270.025 394.39C 269.763 394.389 269.55 394.176 269.549 393.915C 269.549 393.651 269.763 393.439 270.025 393.44C 270.287 393.44 270.5 393.652 270.5 393.915z"/>
			</g>
			<g>
				<path style="stroke:none; fill:#f9c" d="M 266.191 395.424L 268.705 395.951L 268.342 396.829L 266.191 395.424z"/>
				<path style="stroke:none; fill:#f9c" d="M 269 396.39C 268.999 396.653 268.787 396.865 268.523 396.864C 268.262 396.865 268.049 396.652 268.048 396.39C 268.048 396.127 268.261 395.914 268.523 395.915C 268.787 395.915 269 396.127 269 396.39z"/>
			</g>
			<g>
				<path style="stroke:none; fill:#f9c" d="M 280.941 389.583L 279.536 391.733L 280.414 392.097L 280.941 389.583z"/>
				<path style="stroke:none; fill:#f9c" d="M 279.5 391.912C 279.499 392.177 279.711 392.39 279.974 392.39C 280.237 392.391 280.451 392.178 280.452 391.915C 280.452 391.652 280.239 391.44 279.976 391.439C 279.714 391.439 279.501 391.651 279.5 391.912z"/>
			</g>
			<g>
				<path style="stroke:none; fill:#f9c" d="M 284.701 392.13L 282.58 393.579L 283.252 394.251L 284.701 392.13z"/>
				<path style="stroke:none; fill:#f9c" d="M 282.441 393.915C 282.44 394.177 282.653 394.39 282.915 394.39C 283.178 394.389 283.391 394.176 283.392 393.915C 283.392 393.651 283.178 393.439 282.915 393.44C 282.654 393.44 282.441 393.652 282.441 393.915z"/>
			</g>
			<g>
				<path style="stroke:none; fill:#f9c" d="M 286.75 395.424L 284.236 395.951L 284.599 396.829L 286.75 395.424z"/>
				<path style="stroke:none; fill:#f9c" d="M 283.941 396.39C 283.942 396.653 284.154 396.865 284.418 396.864C 284.679 396.865 284.892 396.652 284.893 396.39C 284.893 396.127 284.68 395.914 284.418 395.915C 284.154 395.915 283.941 396.127 283.941 396.39z"/>
			</g>
			<g>
				<path style="stroke:none; fill:#fcf" d="M 265.976 399.39L 268.5 398.915L 268.5 399.865L 265.976 399.39z"/>
				<path style="stroke:none; fill:#fcf" d="M 268.976 399.39C 268.976 399.652 268.763 399.865 268.5 399.865C 268.237 399.865 268.024 399.652 268.024 399.39C 268.024 399.127 268.237 398.915 268.5 398.915C 268.763 398.915 268.976 399.127 268.976 399.39z"/>
			</g>
			<g>
				<path style="stroke:none; fill:#fcf" d="M 287.024 399.39L 284.5 398.915L 284.5 399.865L 287.024 399.39z"/>
				<path style="stroke:none; fill:#fcf" d="M 284.024 399.39C 284.024 399.652 284.237 399.865 284.5 399.865C 284.763 399.865 284.976 399.652 284.976 399.39C 284.976 399.127 284.763 398.915 284.5 398.915C 284.237 398.915 284.024 399.127 284.024 399.39z"/>
			</g>
			<path style="stroke:none; fill:#fcf" d="M 271.976 399.39C 271.976 399.652 271.763 399.865 271.5 399.865C 271.237 399.865 271.024 399.652 271.024 399.39C 271.024 399.127 271.237 398.915 271.5 398.915C 271.763 398.915 271.976 399.127 271.976 399.39z"/>
			<path style="stroke:none; fill:#fcf" d="M 281.976 399.39C 281.976 399.652 281.763 399.865 281.5 399.865C 281.237 399.865 281.024 399.652 281.024 399.39C 281.024 399.127 281.237 398.915 281.5 398.915C 281.763 398.915 281.976 399.127 281.976 399.39z"/>
		</g>
	</g>
</svg>
