<svg xmlns="http://www.w3.org/2000/svg" width="24" height="24">
	<g transform="translate(-264,-386)" id="KDDI_D_494">
		<g>
			<path style="stroke:none; fill:none" d="M 288 409.89L 264 409.89L 264 385.89L 288 385.89L 288 409.89z"/>
		</g>
		<g>
			<path style="stroke:none; fill:#336" d="M 268.5 406.39C 268.5 408.89 269.5 409.39 272 409.39C 274.602 409.39 278.481 407.909 282.5 403.89C 286.156 400.233 287.53 395.935 287.53 393.36C 287.53 391.39 287 390.39 284.5 390.39C 282.55 390.39 279.74 392.15 275 396.89C 270.133 401.757 268.5 404.492 268.5 406.39z"/>
			<path style="stroke:#000; stroke-width:1; fill:none" d="M 268.5 406.39C 268.5 408.89 269.5 409.39 272 409.39C 274.602 409.39 278.481 407.909 282.5 403.89C 286.156 400.233 287.53 395.935 287.53 393.36C 287.53 391.39 287 390.39 284.5 390.39C 282.55 390.39 279.74 392.15 275 396.89C 270.133 401.757 268.5 404.492 268.5 406.39z"/>
			<path style="stroke:none; fill:#336" d="M 264.911 395.988L 274.5 403.39C 274.5 403.39 276.853 403.537 279 401.39C 281.148 399.241 281 396.89 281 396.89L 274.098 386.801"/>
			<path style="stroke:#666; stroke-width:2; fill:none" d="M 269.5 393.39L 277.25 401.14"/>
			<path style="stroke:#999; stroke-width:1; fill:none" d="M 269.5 393.39L 277.25 401.14"/>
			<path style="stroke:#000; stroke-width:1; fill:none" d="M 264.911 395.988L 274.5 403.39C 274.5 403.39 276.853 403.537 279 401.39C 281.148 399.241 281 396.89 281 396.89L 274.098 386.801"/>
			<path style="stroke:none; fill:#000" d="M 274.5 403.39C 274.5 403.39 276.853 403.537 279 401.39C 281.148 399.241 281 396.89 281 396.89L 279.159 394.586L 279 394.89C 279 394.89 279.148 397.241 277 399.39C 274.853 401.537 272.5 401.39 272.5 401.39L 272.384 401.505L 274.5 403.39z"/>
			<path style="stroke:none; fill:#666" d="M 274 403.89C 274 403.89 272.75 404.528 272 404.89C 271.25 405.251 269.5 405.39 269.5 405.39C 269.5 405.39 270 408.89 271.5 408.89C 273.333 408.89 276 404.904 276 403.89C 275.5 403.89 274 403.89 274 403.89z"/>
			<path style="stroke:none; fill:#999" d="M 272.5 405.39C 272.035 405.613 270.961 405.802 270.5 405.89C 270.588 406.406 271.097 407.89 271.5 407.89C 273.25 407.89 275 404.706 275 404.39L 274.5 404.39C 274.041 404.619 272.5 405.39 272.5 405.39z"/>
			<path style="stroke:none; fill:#666" d="M 271.5 393.389C 269.037 395.852 266.082 397.16 264.911 395.988C 263.739 394.817 265.036 391.854 267.5 389.39C 269.963 386.926 272.927 385.628 274.098 386.801C 275.27 387.973 273.964 390.925 271.5 393.389z"/>
			<path style="stroke:none; fill:#999" d="M 269.184 388.206C 269.04 388.216 268.902 388.248 268.763 388.276C 268.335 388.615 267.91 388.979 267.5 389.39C 266.821 390.068 266.243 390.783 265.769 391.489C 265.763 391.543 265.746 391.593 265.742 391.646C 265.621 393.424 266.964 394.768 268.743 394.647C 270.521 394.525 272.061 392.983 272.184 391.205C 272.305 389.427 270.962 388.083 269.184 388.206z"/>
			<path style="stroke:none; fill:#336" d="M 267.5 389.39C 266.123 390.767 265.132 392.29 264.712 393.581C 264.784 393.782 264.892 393.96 265.04 394.109C 266.211 395.281 269.165 393.974 271.629 391.51C 273.008 390.131 274.002 388.608 274.424 387.32C 274.353 387.121 274.245 386.947 274.098 386.801C 272.927 385.628 269.963 386.926 267.5 389.39z"/>
			<path style="stroke:#000; stroke-width:1; fill:none" d="M 271.5 393.389C 269.037 395.852 266.082 397.16 264.911 395.988C 263.739 394.817 265.036 391.854 267.5 389.39C 269.963 386.926 272.927 385.628 274.098 386.801C 275.27 387.973 273.964 390.925 271.5 393.389z"/>
		</g>
	</g>
</svg>
