<svg xmlns="http://www.w3.org/2000/svg" height="24" width="24">
    <g transform="matrix(1,0,0,-1,-264,408)" id="KDDI_D_">        <path d="M268.1 403.9l9.2-9.3" fill="none" stroke="#036"/>
        <path d="M276.3 397.5l-1.8-1.9-6.8 6.8 1.8 1.9z" fill="#090"/>
        <path d="M269.1 405.5c0-1.4-1.2-2.6-2.6-2.6-1.4 0-2.5 1.2-2.5 2.6 0 1.4 1.1 2.5 2.5 2.5s2.6-1.1 2.6-2.5z" fill="red"/>
        <path d="M267.8 407.7c.2-.4.3-.8.3-1.3 0-1.4-1.1-2.5-2.5-2.5-.5 0-.9.1-1.3.3.5-.7 1.3-1.3 2.2-1.3 1.4 0 2.6 1.2 2.6 2.6 0 .9-.6 1.7-1.3 2.2z" fill="#c00"/>
        <path d="M266.3 406.4c0-.4-.3-.7-.7-.7-.5 0-.8.3-.8.7 0 .5.3.8.8.8.4 0 .7-.3.7-.8z" fill="#f66"/>
        <path d="M277.7 394.4v5.4h9.9v-5.4" fill="#fff"/>
        <path d="M277.7 394.4v5.4h1.3v-5.4" fill="#cc9"/>
        <path d="M282.6 396h-2.3v2.3h2.3z" fill="#009"/>
        <path d="M284.8 396h-2.3v2.3h2.3zM282.6 393.8h-2.3v2.2h2.3z" fill="#09f"/>
        <path d="M284.8 393.8h-2.3v2.2h2.3z" fill="#9cc"/>
        <path d="M287.6 384H264v10.4h23.6z" fill="#fff"/>
        <path d="M268.2 384H264v10.4h4.2z" fill="#cc9"/>
        <path d="M266.3 384H264v10.4h2.3z" fill="#999"/>
        <path d="M265.1 384H264v10.4h1.1z" fill="#666"/>
        <path d="M279.6 384v7.2h4.8V384" fill="#f99" stroke="red"/>
        <path d="M264 389.4h13v2.3h-13z" fill="#06f"/>
        <path d="M268.2 391.7H264v-2.3h4.2z" fill="#03f"/>
        <path d="M266.3 391.7H264v-2.3h2.3z" fill="#039"/>
        <path d="M265.1 391.7H264v-2.3h1.1z" fill="#009"/>
        <path d="M264 386.1h13v2.2h-13z" fill="#06f"/>
        <path d="M268.2 388.3H264v-2.2h4.2z" fill="#03f"/>
        <path d="M266.3 388.3H264v-2.2h2.3z" fill="#039"/>
        <path d="M265.1 388.3H264v-2.2h1.1z" fill="#009"/>
        <path d="M287.6 384v10.4H264" fill="none" stroke="#000"/>
        <path d="M282.7 389.3h-1.4v1.4h1.4zM282.7 387.1h-1.4v1.3h1.4zM282.7 384.8h-1.4v1.4h1.4z" fill="#fff"/>
        <path d="M277.7 394.4v5.4h9.9v-5.4" fill="none" stroke="#000"/>
    </g>
</svg>
