<svg xmlns="http://www.w3.org/2000/svg" height="24" width="24">
    <g transform="matrix(1,0,0,-1,-264,408)" id="KDDI_D_">        <path d="M271.9 407.4h-1.1" fill="none" stroke="#fc0"/>
        <path d="M273.2 405.3v2.1h-1.3" fill="none" stroke="#f60"/>
        <path d="M280.1 407.4h1.1" fill="none" stroke="#fc0"/>
        <path d="M278.8 405.3v2.1h1.3" fill="none" stroke="#f60"/>
        <path d="M283.1 390h-14.2v3.9h14.2z" fill="#ccc"/>
        <path d="M283.1 392.5h-14.2v1.4h14.2z" fill="#999"/>
        <path d="M268.9 393.9V390M283.1 393.9V390" fill="none" stroke="#006"/>
        <path d="M279.8 397.1h-7.6v3.9h7.6z" fill="#ccc"/>
        <path d="M279.8 399.6h-7.6v1.4h7.6z" fill="#999"/>
        <path d="M277.3 397.1h-2.6v3.9h2.6z" fill="#006"/>
        <path d="M272.2 401v-3.9M279.8 401v-3.9" fill="none" stroke="#006"/>
        <path d="M285.4 384h-18.8v3.9h18.8z" fill="#999"/>
        <path d="M270.5 384h-2.1v3.9h2.1zM274.9 384h-2.1v3.9h2.1zM279.3 384h-2.1v3.9h2.1zM283.7 384h-2.1v3.9h2.1z" fill="#666"/>
        <path d="M266.6 387.9V384M285.4 387.9V384" fill="none" stroke="#006"/>
        <path d="M282.9 401.4s-1.7 1.1-2.1 1.9c-.7 1-.5 2.5-.5 2.5h-8.5s.1-1.5-.5-2.5c-.5-.8-2.2-1.9-2.2-1.9z" fill="#09f"/>
        <path d="M280.8 403.3c-.7 1-.5 2.5-.5 2.5h-.7s-.2-1.5.5-2.5c.4-.8 2.1-1.9 2.1-1.9h.7s-1.7 1.1-2.1 1.9z" fill="#06f"/>
        <path d="M272.2 403.3c.7 1 .5 2.5.5 2.5h-.9s.1-1.5-.5-2.5c-.5-.8-2.2-1.9-2.2-1.9h.9s1.7 1.1 2.2 1.9z" fill="#3cf"/>
        <path d="M282.8 400.5h-13.7v.9h13.7z" fill="#339"/>
        <path d="M271.3 400.5h-2.2v.9h2.2zM280.8 400.5h2.1v.9h-2.1z" fill="#006"/>
        <path d="M287 393.9h-22.1v.9H287z" fill="#339"/>
        <path d="M268.3 393.9h-3.4v.9h3.4zM283.6 393.9h3.5v.9h-3.5z" fill="#006"/>
        <path d="M287.2 395.8c-.4.2-.8.3-1 .4-1.5.8-1.6 2-1.6 2h-17.2s-.2-1.2-1.6-2c-.2-.1-.6-.2-1-.4v-1h22.4z" fill="#09f"/>
        <path d="M269.4 398.2h-2s-.2-1.2-1.6-2c-.2-.1-.6-.2-1-.4v-.6c1.1.3 2.5.7 3.1 1 1.4.8 1.5 2 1.5 2z" fill="#3cf"/>
        <path d="M287.2 395.8c-.4.2-.8.3-1 .4-1.5.8-1.6 2-1.6 2h-1.2s.1-1.2 1.6-2c.4-.2 1.3-.5 2.2-.8z" fill="#06f"/>
        <path d="M288 386.2h-23.9v2.2H288z" fill="#339"/>
        <path d="M267.9 386.2h-3.8v2h3.8zM284.3 386.2h3.7v2h-3.7z" fill="#006"/>
        <path d="M288 389.7c-1.5.8-1.6 1.9-1.6 1.9h-20.6s-.1-1.1-1.7-2c-.1 0 0 0 0 0v-1.3H288z" fill="#09f"/>
        <path d="M288 389.7c-1.5.8-1.6 1.9-1.6 1.9h-1.5s.1-1.1 1.8-2c.3-.1.7-.3 1.3-.4z" fill="#06f"/>
        <path d="M268.2 391.6h-2.4s-.1-1.1-1.7-2c-.1 0 0 0 0 0v-.7c1 .2 1.9.5 2.3.7 1.7.9 1.8 2 1.8 2z" fill="#3cf"/>
        <path d="M282.3 390l-6.3 6.3-6.3-6.3" fill="#999"/>
        <path d="M280.7 390h1.6l-6.3 6.3-6.3-6.3h1.6l4.7 4.7z" fill="#666"/>
        <path d="M277.3 389.9h-2.6v3.1h2.6z" fill="#cc9"/>
        <path d="M277.3 392h-2.6v1h2.6z" fill="#006"/>
        <path d="M282.3 390l-6.3 6.3-6.3-6.3" fill="none" stroke="#000"/>
    </g>
</svg>
