<svg xmlns="http://www.w3.org/2000/svg" height="24" width="24">
    <g transform="matrix(1,0,0,-1,-264,408)" id="KDDI_D_">        <path d="M276 408l-3.5-10h7z" fill="#09f"/>
        <path d="M276 408l-3.5-10h.9z" fill="#3cf"/>
        <path d="M276 408l-1.2-10h4.7z" fill="#06f"/>
        <path d="M276 408l.6-10h2z" fill="#00f"/>
        <path d="M279.8 398h-7.6v-1.6h7.6z" fill="#06f"/>
        <path d="M279.8 398h-5.4v-1.6h5.4z" fill="#03c"/>
        <path d="M279.8 398h-2.2v-1.6h2.2z" fill="#009"/>
        <path d="M280.6 396.4h-9.2V384h9.2z" fill="#fff"/>
        <path d="M280.6 396.4h-4.2V384h4.2z" fill="#cc9"/>
        <path d="M280.6 396.4h-2.5V384h2.5z" fill="#999"/>
        <path d="M280.6 396.4h-1.2V384h1.2z" fill="#666"/>
        <path d="M272.6 396.4h-1.2V384h1.2z" fill="#999"/>
        <path d="M274.9 392.3c0-.3-.2-.5-.6-.5-.3 0-.5.2-.5.5v1.2c0 .3.2.6.5.6.4 0 .6-.3.6-.6zM277.1 392.3c0-.3.2-.5.6-.5.3 0 .6.2.6.5v1.2c0 .3-.3.6-.6.6-.4 0-.6-.3-.6-.6z"/>
        <path d="M277 388v1h-2.1v-1h-1.1v-4h4.3v4z" fill="#036"/>
        <path d="M276 387v1h1v1h-2.1v-1h-1.1v-4h1.1v3z"/>
        <path d="M271.7 395.7H264V384h7.7z" fill="#fff"/>
        <path d="M271.7 395.7h-3.5V384h3.5z" fill="#cc9"/>
        <path d="M271.7 395.7h-2.1V384h2.1z" fill="#999"/>
        <path d="M271.7 395.7h-1.1V384h1.1z" fill="#666"/>
        <path d="M265 395.7h-1V384h1z" fill="#999"/>
        <path d="M267.8 405.7l-3.4-10.1h6.9z" fill="#09f"/>
        <path d="M267.8 405.7l-3.4-10.1h.9z" fill="#3cf"/>
        <path d="M267.8 405.7l-1.2-10.1h4.7z" fill="#06f"/>
        <path d="M267.8 405.7l.6-10.1h2z" fill="#00f"/>
        <path d="M271.7 395.7H264v-1.6h7.7z" fill="#06f"/>
        <path d="M271.7 395.7h-5.4v-1.6h5.4z" fill="#03c"/>
        <path d="M271.7 395.7h-2.3v-1.6h2.3z" fill="#009"/>
        <path d="M268.9 389c0-.6-.4-1-1-1h-.2c-.6 0-1 .4-1 1v2c0 .6.4 1 1 1h.2c.6 0 1-.4 1-1z"/>
        <path d="M288 395.7h-7.7V384h7.7z" fill="#fff"/>
        <path d="M288 395.7h-3.6V384h3.6z" fill="#cc9"/>
        <path d="M288 395.7h-2.1V384h2.1z" fill="#999"/>
        <path d="M288 395.7h-1V384h1z" fill="#666"/>
        <path d="M281.3 395.7h-1V384h1z" fill="#999"/>
        <path d="M284.2 405.7l-3.5-10.1h6.9z" fill="#09f"/>
        <path d="M284.2 405.7l-3.5-10.1h.9z" fill="#3cf"/>
        <path d="M284.2 405.7l-1.3-10.1h4.7z" fill="#06f"/>
        <path d="M284.2 405.7l.6-10.1h2z" fill="#00f"/>
        <path d="M288 395.7h-7.7v-1.6h7.7z" fill="#06f"/>
        <path d="M288 395.7h-5.4v-1.6h5.4z" fill="#03c"/>
        <path d="M288 395.7h-2.3v-1.6h2.3z" fill="#009"/>
        <path d="M285.3 389c0-.6-.5-1-1-1h-.3c-.5 0-1 .4-1 1v2c0 .6.5 1 1 1h.3c.5 0 1-.4 1-1z"/>
    </g>
</svg>
