<svg xmlns="http://www.w3.org/2000/svg" height="24" width="24">
    <g transform="matrix(1,0,0,-1,-264,408)" id="KDDI_D_">        <path d="M272.2 389.4h-3.3v18.1h3.3z" fill="#fff"/>
        <path d="M272.2 389.4h-1.6v18.1h1.6z" fill="#cc9"/>
        <path d="M272.1 403.6H269v1.1h3.1z" fill="red"/>
        <path d="M272.1 403.6h-1.6v1.1h1.6z" fill="#c00"/>
        <path d="M272.1 401.3H269v1.1h3.1z" fill="red"/>
        <path d="M272.1 401.3h-1.6v1.1h1.6z" fill="#c00"/>
        <path d="M272.2 389.4h-3.3v18.1h3.3z" fill="none" stroke="#336"/>
        <path d="M283.1 389.4h-3.3v18.1h3.3z" fill="#fff"/>
        <path d="M283.1 389.4h-1.6v18.1h1.6z" fill="#cc9"/>
        <path d="M283 403.6h-3.1v1.1h3.1z" fill="red"/>
        <path d="M283 403.6h-1.5v1.1h1.5z" fill="#c00"/>
        <path d="M283 401.3h-3.1v1.1h3.1z" fill="red"/>
        <path d="M283 401.3h-1.5v1.1h1.5z" fill="#c00"/>
        <path d="M283.1 389.4h-3.3v18.1h3.3z" fill="none" stroke="#336"/>
        <path d="M276.6 390v11.9l10.8-10.8v-6.7h-22.9v17.8z" fill="#fc0"/>
        <path d="M286.1 392.4v-6.6H266l-1.5-1.4h22.9v6.7z" fill="#f90"/>
        <path d="M276.6 390l-12.1 12.2v-1.9l11.2-11.3zM276.6 401.9V400l9.5-9.6 1.3.7z" fill="#ff9"/>
        <path d="M276.6 390v11.9l10.8-10.8v-6.7h-22.9v17.8z" fill="none" stroke="#336"/>
        <path d="M269.1 391.5H266v3.2h3.1z" fill="#09f"/>
        <path d="M269.1 393.4v1.3H266v-3.2h1.1v1.9z" fill="#00c"/>
        <path d="M269.1 387.1H266v3.2h3.1z" fill="#09f"/>
        <path d="M269.1 389.1v1.2H266v-3.2h1.1v2z" fill="#00c"/>
        <path d="M273.5 387.1h-3.1v3.2h3.1z" fill="#09f"/>
        <path d="M273.5 389.1v1.2h-3.1v-3.2h1.1v2z" fill="#00c"/>
        <path d="M281.1 391.5H278v3.2h3.1z" fill="#09f"/>
        <path d="M281.1 393.4v1.3H278v-3.2h1.1v1.9z" fill="#00c"/>
        <path d="M281.1 387.1H278v3.2h3.1z" fill="#09f"/>
        <path d="M281.1 389.1v1.2H278v-3.2h1.1v2z" fill="#00c"/>
        <path d="M285.5 387.1h-3.1v3.2h3.1z" fill="#09f"/>
        <path d="M285.5 389.1v1.2h-3.1v-3.2h1.1v2z" fill="#00c"/>
    </g>
</svg>
