<svg xmlns="http://www.w3.org/2000/svg" width="24" height="24">
	<g transform="translate(-264,-386)" id="KDDI_D_499">
		<g>
			<path style="stroke:none; fill:none" d="M 288 409.89L 264 409.89L 264 385.89L 288 385.89L 288 409.89z"/>
		</g>
		<g>
			<path style="stroke:none; fill:#f00" d="M 287.458 391.376C 287.458 391.376 285.188 391.376 284.667 391.376C 283.583 391.376 283.202 390.404 282.875 389.793C 282.542 389.168 281.917 388.251 279.667 388.251C 278.75 388.251 278.017 388.043 277.583 387.501C 276.917 386.668 276.25 386.392 275.031 386.392C 274.239 386.392 264.542 386.392 264.542 386.392L 264.542 404.39C 264.542 404.39 274.239 404.39 275.031 404.39C 276.25 404.39 276.917 404.666 277.583 405.499C 278.017 406.041 278.75 406.249 279.667 406.249C 281.917 406.249 282.542 407.166 282.875 407.791C 283.202 408.402 283.583 409.374 284.667 409.374C 285.188 409.374 287.458 409.374 287.458 409.374L 287.458 391.376z"/>
			<path style="stroke:none; fill:#30c" d="M 264.542 386.392L 264.542 404.39C 264.542 404.39 269.928 404.39 273 404.39L 273 386.392C 269.928 386.392 264.542 386.392 264.542 386.392z"/>
			<path style="stroke:none; fill:#fff" d="M 277.583 387.501C 276.917 386.668 276.25 386.392 275.031 386.392C 274.83 386.392 274.049 386.392 273 386.392L 273 404.39C 274.049 404.39 274.83 404.39 275.031 404.39C 276.25 404.39 276.917 404.666 277.583 405.499C 278.017 406.041 278.75 406.249 279.667 406.249C 280.198 406.249 280.632 406.303 281 406.39L 281 388.392C 280.632 388.305 280.198 388.251 279.667 388.251C 278.75 388.251 278.017 388.043 277.583 387.501z"/>
			<path style="stroke:none; fill:#ccc" d="M 277.583 387.501C 276.919 386.671 276.254 386.395 275.046 386.393L 275.046 404.391C 276.254 404.393 276.919 404.67 277.583 405.499C 277.7 405.645 277.842 405.763 278 405.862L 278 387.864C 277.842 387.765 277.7 387.647 277.583 387.501z"/>
			<path style="stroke:none; fill:#900" d="M 282.875 389.793C 282.62 389.315 282.189 388.671 281 388.392L 281 406.39C 282.189 406.669 282.62 407.313 282.875 407.791C 283.117 408.245 283.392 408.895 283.958 409.201L 283.958 391.203C 283.392 390.897 283.117 390.247 282.875 389.793z"/>
			<path style="stroke:#000; stroke-width:1; fill:none" d="M 287.458 391.376C 287.458 391.376 285.188 391.376 284.667 391.376C 283.583 391.376 283.202 390.404 282.875 389.793C 282.542 389.168 281.917 388.251 279.667 388.251C 278.75 388.251 278.017 388.043 277.583 387.501C 276.917 386.668 276.25 386.392 275.031 386.392C 274.239 386.392 264.542 386.392 264.542 386.392L 264.542 404.39C 264.542 404.39 274.239 404.39 275.031 404.39C 276.25 404.39 276.917 404.666 277.583 405.499C 278.017 406.041 278.75 406.249 279.667 406.249C 281.917 406.249 282.542 407.166 282.875 407.791C 283.202 408.402 283.583 409.374 284.667 409.374C 285.188 409.374 287.458 409.374 287.458 409.374L 287.458 391.376z"/>
		</g>
	</g>
</svg>
