<svg xmlns="http://www.w3.org/2000/svg" height="32" width="32">
	<g transform="translate(-388,-522)" id="KDDI_D_500">
    <path d="M401.1 538.796l-1.2-.8c-.533 5.466-2.533 9.465-4.932 9.465-2.8 0-4.932-5.2-4.932-11.464 0-2.4.266-4.666.8-6.399-.4-.533-.8-1.066-1.067-1.6a43.766 43.766 0 0 0-.933 8.932c0 9.33 2.933 16.929 6.532 16.929 3.332 0 6.132-6.399 6.531-14.663l-.8-.4z" fill="#2e0e5e"/>
    <path d="M404.299 538.663l.533-2.266c-5.998-2.933-9.73-7.465-8.264-9.998 1.466-2.666 7.464-2 13.463 1.333 3.066 1.733 5.465 3.866 6.931 5.865.4 0 .8.134 1.2.267-2.133-2.666-5.598-5.465-9.864-7.865-8.131-4.665-16.13-5.732-17.996-2.533-1.732 3.066 3.466 9.331 11.598 13.997l2.399 1.2z" fill="#020013"/>
    <path d="M419.628 535.064c-1.6-2.666-7.864-2-14.796 1.333l-.533 2.266c4.399-2.133 8.531-2.4 9.73-.4 1.2 2.133-1.465 6.398-6.53 9.33-2 1.2-4.4 1.867-6.133 2.267-.4 1.2-.8 2.266-1.333 3.2 2.533-.8 5.466-2 8.398-3.733 7.998-4.666 13.064-11.064 11.197-14.263z" fill="#755e94"/>
	</g>
</svg>
