<svg xmlns="http://www.w3.org/2000/svg" width="24" height="24">
	<g transform="translate(-288,-386)" id="KDDI_D_506">
		<g>
			<path style="stroke:none; fill:none" d="M 312 409.89L 288 409.89L 288 385.89L 312 385.89L 312 409.89z"/>
		</g>
		<g>
			<path style="stroke:#ff0033; stroke-width:1; fill:#ffcc00" d="M 311.5 397.89C 311.5 404.241 306.352 409.39 300 409.39C 293.649 409.39 288.5 404.241 288.5 397.89C 288.5 391.539 293.649 386.39 300 386.39C 306.352 386.39 311.5 391.539 311.5 397.89z"/>
			<path style="stroke:#ff0000; stroke-width:1.6; stroke-linejoin:round; stroke-linecap:round; fill:none" d="M 292.562 392.376L 307.375 392.376"/>
			<path style="stroke:#ff0000; stroke-width:1.6; stroke-linejoin:round; stroke-linecap:round; fill:none" d="M 304.562 392.501L 304.562 405.89L 302 405.39"/>
			<path style="stroke:#ff0000; stroke-width:1.6; stroke-linejoin:round; stroke-linecap:round; fill:none" d="M 300.562 401.376L 295.5 401.376L 295.5 396.376L 300.562 396.376L 300.562 401.376z"/>
		</g>
	</g>
</svg>
