<svg xmlns="http://www.w3.org/2000/svg" width="24" height="24">
	<g transform="translate(-264,-386)" id="KDDI_D_508">
		<g>
			<path style="stroke:none; fill:none" d="M 288 409.89L 264 409.89L 264 385.89L 288 385.89L 288 409.89z"/>
		</g>
		<g>
			<path style="stroke:none; fill:#000" d="M 288 409.876L 288 401.692C 285.665 399.455 282.607 397.576 279.147 401.036C 275.529 404.653 277.28 407.303 279.786 409.876L 288 409.876z"/>
			<path style="stroke:none; fill:#c60" d="M 281.168 409.876L 288 409.876L 288 403.164C 287.796 402.927 287.616 402.724 287.5 402.608C 284.922 400.073 282.62 398.978 279.853 401.743C 278.624 402.973 278.069 404.013 278.069 405.034C 278.069 406.385 279.055 407.71 280.716 409.39C 280.824 409.498 280.986 409.674 281.168 409.876z"/>
			<path style="stroke:none; fill:#f90" d="M 282.562 409.876L 288 409.876L 288 404.615C 287.722 404.285 287.511 404.033 287.511 404.033C 284.838 401.405 283.264 401.185 281.279 403.169C 280.262 404.187 279.788 405.007 279.788 405.753C 279.788 406.653 280.471 407.712 282.146 409.405C 282.146 409.405 282.321 409.605 282.562 409.876z"/>
			<path style="stroke:none; fill:#fc0" d="M 281.279 403.169C 281.16 403.288 281.073 403.397 280.969 403.51L 287.334 409.876L 288 409.876L 288 409.128L 281.685 402.813C 281.55 402.929 281.418 403.031 281.279 403.169z"/>
			<path style="stroke:none; fill:#000" d="M 264.172 386.392L 266.654 393.676C 267.672 396.732 268.94 400.537 270.275 401.872C 272.837 404.433 279.17 404.56 280.906 402.824C 282.67 401.06 282.544 394.726 279.982 392.164C 278.647 390.83 274.843 389.563 271.787 388.545L 264.516 386.048L 264.172 386.392zM 271.787 388.545L 271.787 388.545L 271.781 388.543L 271.787 388.545z"/>
			<path style="stroke:none; fill:#333" d="M 270.982 401.165C 269.815 399.996 268.536 396.16 267.603 393.359C 267.603 393.359 264.973 388.052 264.353 386.243C 265.731 386.668 271.471 389.493 271.471 389.493C 274.272 390.426 278.106 391.704 279.275 392.871C 281.598 395.195 281.577 400.301 280.264 402.153C 278.412 403.467 273.306 403.488 270.982 401.165z"/>
			<path style="stroke:none; fill:#666" d="M 271.583 400.565C 270.415 399.396 268.951 395.745 267.883 393.079C 267.883 393.079 265.766 388.673 265.06 386.95C 266.369 387.444 271.19 389.773 271.19 389.773C 273.855 390.842 277.507 392.304 278.675 393.472C 282.396 397.193 280.985 400.168 279.9 401.79C 278.278 402.875 275.303 404.285 271.583 400.565z"/>
			<path style="stroke:none; fill:#999" d="M 272.654 399.493C 271.486 398.325 269.692 395.004 268.383 392.58C 268.383 392.58 265.919 388.519 265.06 386.95C 266.246 387.567 270.691 390.273 270.691 390.273C 273.115 391.582 276.435 393.376 277.603 394.544C 281.324 398.264 279.618 400.271 279 400.89C 278.381 401.508 276.374 403.213 272.654 399.493z"/>
			<path style="stroke:none; fill:#ccc" d="M 273.715 398.433C 272.547 397.264 270.426 394.271 268.877 392.085C 268.877 392.085 266.071 388.367 265.06 386.95C 266.124 387.689 270.196 390.767 270.196 390.767C 272.382 392.316 275.374 394.436 276.542 395.604C 279.556 398.618 278.657 399.516 278.143 400.032C 277.626 400.547 276.728 401.446 273.715 398.433z"/>
			<path style="stroke:none; fill:#000" d="M 274.2 394.074C 274.757 394.631 274.757 395.533 274.2 396.089C 273.644 396.646 272.741 396.646 272.185 396.089C 271.628 395.533 271.628 394.631 272.185 394.074C 272.741 393.518 273.644 393.518 274.2 394.074z"/>
			<path style="stroke:#000; stroke-width:0.75; stroke-linecap:round; fill:none" d="M 272.485 394.375L 264.5 386.39"/>
		</g>
	</g>
</svg>
