<svg xmlns="http://www.w3.org/2000/svg" width="24" height="24">
	<g transform="translate(-288,-386)" id="KDDI_D_509">
		<g>
			<path style="stroke:none; fill:none" d="M 312 409.89L 288 409.89L 288 385.89L 312 385.89L 312 409.89z"/>
		</g>
		<g>
			<path style="stroke:none; fill:#ffcc00" d="M 311 397.876C 311 403.951 306.075 408.876 300 408.876C 293.925 408.876 289 403.951 289 397.876C 289 391.801 293.925 386.876 300 386.876C 306.075 386.876 311 391.801 311 397.876z"/>
			<path style="stroke:none; fill:#ffff00" d="M 308.188 391.896C 312.117 395.826 312.117 402.196 308.188 406.126C 304.258 410.056 297.887 410.056 293.957 406.126C 290.027 402.196 290.027 395.825 293.957 391.896C 297.887 387.966 304.258 387.966 308.188 391.896z"/>
			<path style="stroke:none; fill:#ffffcc" d="M 308.333 393.477C 311.872 397.015 311.872 402.754 308.333 406.293C 304.794 409.831 299.056 409.831 295.517 406.293C 291.978 402.754 291.978 397.015 295.517 393.477C 299.056 389.938 304.794 389.938 308.333 393.477z"/>
			<path style="stroke:#000000; stroke-width:1; fill:none" d="M 311.416 397.876C 311.416 404.181 306.305 409.293 300 409.293C 293.695 409.293 288.583 404.181 288.583 397.876C 288.583 391.571 293.695 386.46 300 386.46C 306.305 386.46 311.416 391.571 311.416 397.876z"/>
			<path style="stroke:none; fill:#000000" d="M 305.812 397.876C 305.812 401.086 303.21 403.689 300 403.689C 296.79 403.689 294.188 401.086 294.188 397.876C 294.188 394.666 296.79 392.064 300 392.064C 303.21 392.064 305.812 394.666 305.812 397.876z"/>
		</g>
	</g>
</svg>
