<svg xmlns="http://www.w3.org/2000/svg" width="24" height="24">
	<g transform="translate(-264,-386)" id="KDDI_D_510">
		<g>
			<path style="stroke:none; fill:none" d="M 288 409.89L 264 409.89L 264 385.89L 288 385.89L 288 409.89z"/>
		</g>
		<g>
			<path style="stroke:none; fill:#c60" d="M 274.889 396.001L 265.5 405.39C 264.5 406.39 264.247 408.137 265.028 408.918C 265.809 409.699 267.5 409.39 268.5 408.39L 277.889 399.001C 278.67 398.22 278.526 396.981 277.745 396.2C 276.964 395.419 275.67 395.219 274.889 396.001z"/>
			<path style="stroke:#fc0; stroke-width:1; fill:none" d="M 265.028 408.918L 275.278 398.668"/>
			<path style="stroke:#006; stroke-width:1; fill:none" d="M 274.889 396.001L 265.5 405.39C 264.5 406.39 264.247 408.137 265.028 408.918C 265.809 409.699 267.5 409.39 268.5 408.39L 277.889 399.001C 278.67 398.22 278.526 396.981 277.745 396.2C 276.964 395.419 275.67 395.219 274.889 396.001z"/>
			<path style="stroke:none; fill:#369" d="M 285 388.89C 288.319 392.209 288.319 397.591 285 400.91C 281.681 404.23 276.299 404.23 272.979 400.91C 269.659 397.59 269.659 392.209 272.979 388.889C 276.299 385.57 281.681 385.57 285 388.89z"/>
			<path style="stroke:none; fill:#cff" d="M 272.979 388.889C 269.87 391.998 269.673 396.914 272.387 400.253C 275.726 402.966 280.881 403.008 283.99 399.9C 287.098 396.792 287.056 391.636 284.343 388.297C 281.004 385.584 276.088 385.781 272.979 388.889z"/>
			<path style="stroke:none; fill:#69c" d="M 284.555 388.585C 284.555 388.585 283.353 392.037 280 395.39C 276.647 398.742 272.675 400.465 272.675 400.465C 276.016 402.958 280.968 402.922 283.99 399.9C 287.012 396.878 287.048 391.926 284.555 388.585z"/>
			<path style="stroke:#fff; stroke-width:1; fill:none" d="M 285 394.89C 285 398.203 282.314 400.89 279 400.89C 275.686 400.89 273 398.203 273 394.89C 273 391.576 275.686 388.89 279 388.89C 282.314 388.89 285 391.576 285 394.89z"/>
			<path style="stroke:#9cf; stroke-width:1; fill:none" d="M 283.471 390.889C 284.422 391.951 285 393.353 285 394.89C 285 398.203 282.314 400.89 279 400.89C 277.463 400.89 276.06 400.312 274.999 399.361"/>
			<path style="stroke:none; fill:#69c" d="M 272.555 400.421C 273.853 401.476 275.821 402.085 277.397 402.26C 277.397 402.26 278.06 399.665 280.897 396.828C 283.734 393.991 286.35 393.328 286.35 393.328C 286.175 391.752 285.565 389.763 284.51 388.465C 281.172 385.752 269.842 397.082 272.555 400.421z"/>
			<path style="stroke:none; fill:#9cf" d="M 272.675 400.465C 272.675 400.465 276.647 398.742 280 395.39C 283.353 392.037 284.555 388.585 284.555 388.585C 285.332 389.627 285.241 389.403 284.343 388.297C 283.045 387.242 281.076 386.633 279.5 386.458C 279.5 386.458 278.837 389.053 276 391.89C 273.163 394.727 270.548 395.39 270.548 395.39C 270.723 396.966 271.332 398.955 272.387 400.253C 273.493 401.151 273.717 401.242 272.675 400.465z"/>
			<path style="stroke:#006; stroke-width:1; fill:none" d="M 285 388.89C 288.319 392.209 288.319 397.591 285 400.91C 281.681 404.23 276.299 404.23 272.979 400.91C 269.659 397.59 269.659 392.209 272.979 388.889C 276.299 385.57 281.681 385.57 285 388.89z"/>
		</g>
	</g>
</svg>
