<svg xmlns="http://www.w3.org/2000/svg" width="24" height="24">
	<g transform="translate(-264,-386)" id="KDDI_D_511">
		<g>
			<path style="stroke:none; fill:none" d="M 288 409.89L 264 409.89L 264 385.89L 288 385.89L 288 409.89z"/>
		</g>
		<g>
			<path style="stroke:none; fill:#fc0" d="M 265 402.39L 272 395.39L 272.5 395.39L 272.5 399.39L 287.5 399.39L 287.5 405.39L 272.5 405.39L 272.5 409.39L 272 409.389L 265 402.39z"/>
			<path style="stroke:#f00; stroke-width:1; fill:none" d="M 265 402.39L 272 395.39L 272.5 395.39L 272.5 399.39L 287.5 399.39L 287.5 405.39L 272.5 405.39L 272.5 409.39L 272 409.389L 265 402.39z"/>
			<path style="stroke:#f00; stroke-width:1; fill:none" d="M 267.5 386.39C 267 386.39 265.5 386.39 265.5 386.39L 265.5 390.39C 265.5 390.39 267 390.39 267.5 390.39C 268.5 390.39 269.5 389.89 269.5 388.39C 269.5 386.89 268.5 386.39 267.5 386.39z"/>
			<path style="stroke:#f00; stroke-width:1; fill:none" d="M 267.5 390.39C 267 390.39 265.5 390.39 265.5 390.39L 265.5 394.39C 265.5 394.39 267 394.39 267.5 394.39C 268.5 394.39 269.5 393.89 269.5 392.39C 269.5 390.89 268.5 390.39 267.5 390.39z"/>
			<path style="stroke:#30f; stroke-width:1; fill:none" d="M 271.5 394.89C 271.5 394.89 271.5 390.39 271.5 388.89C 271.5 387.39 272.5 386.39 273.5 386.39C 274.5 386.39 275.5 387.39 275.5 388.89C 275.5 391.39 275.5 394.89 275.5 394.89"/>
			<path style="stroke:#30f; stroke-width:1; fill:none" d="M 271.5 390.39L 275.5 390.39"/>
			<path style="stroke:#060; stroke-width:1; fill:none" d="M 281.5 391.89L 281.5 392.39C 281.5 393.49 280.6 394.39 279.5 394.39L 279.5 394.39C 278.4 394.39 277.5 393.49 277.5 392.39L 277.5 388.39C 277.5 387.29 278.4 386.39 279.5 386.39L 279.5 386.39C 280.6 386.39 281.5 387.29 281.5 388.39L 281.5 388.89"/>
			<path style="stroke:#c0f; stroke-width:1; stroke-linecap:square; fill:none" d="M 283.5 386.39L 283.5 394.39"/>
			<path style="stroke:#c0f; stroke-width:1; stroke-linecap:square; fill:none" d="M 283.5 390.39C 283.5 390.39 285 390.39 286 390.39C 287 390.39 287.5 389.39 287.5 388.39C 287.5 387.39 287.5 386.39 287.5 386.39"/>
			<path style="stroke:#c0f; stroke-width:1; stroke-linecap:square; fill:none" d="M 283.5 390.39C 283.5 390.39 285 390.39 286 390.39C 287 390.39 287.5 391.39 287.5 392.39C 287.5 393.39 287.5 394.39 287.5 394.39"/>
		</g>
	</g>
</svg>
