<svg xmlns="http://www.w3.org/2000/svg" width="24" height="24">
	<g transform="translate(-264,-386)" id="KDDI_D_513">
		<g>
			<path style="stroke:none; fill:none" d="M 288 409.89L 264 409.89L 264 385.89L 288 385.89L 288 409.89z"/>
		</g>
		<g>
			<path style="stroke:none; fill:#900" d="M 266 397.89L 266 399.89L 270.5 399.89L 270.5 403.39L 275 398.89L 275 397.89L 270.5 394.39L 270.5 397.89L 266 397.89z"/>
			<path style="stroke:none; fill:#333" d="M 286 409.89L 277 409.89L 277 387.89L 286 387.89L 286 409.89z"/>
			<path style="stroke:none; fill:#66f" d="M 284.5 396.89L 278.5 396.89L 278.5 388.89L 284.5 388.89L 284.5 396.89z"/>
			<path style="stroke:#333; stroke-width:1; fill:none" d="M 278.5 388.39L 278.5 385.89"/>
			<path style="stroke:#666; stroke-width:1; fill:none" d="M 283.5 388.89L 283.5 387.89"/>
			<path style="stroke:#666; stroke-width:1; fill:none" d="M 279.5 388.89L 279.5 387.89"/>
			<path style="stroke:#666; stroke-width:1; fill:none" d="M 283.5 409.89L 283.5 408.89"/>
			<path style="stroke:#666; stroke-width:1; fill:none" d="M 279.5 409.89L 279.5 408.89"/>
			<path style="stroke:none; fill:#66f" d="M 284.5 396.89L 278.5 396.89L 278.5 396.89L 284.5 396.89L 284.5 396.89z"/>
			<path style="stroke:#ccc; stroke-width:1; stroke-linecap:square; fill:none" d="M 279 397.39L 284 397.39"/>
			<path style="stroke:#fff; stroke-width:1; fill:none" d="M 280 397.39L 283 397.39"/>
			<path style="stroke:none; fill:#999" d="M 279.688 401.39C 279.688 401.652 279.31 401.865 278.844 401.865C 278.377 401.865 278 401.652 278 401.39C 278 401.127 278.377 400.915 278.844 400.915C 279.31 400.915 279.688 401.127 279.688 401.39z"/>
			<path style="stroke:none; fill:#999" d="M 282.344 401.39C 282.344 401.652 281.966 401.865 281.5 401.865C 281.034 401.865 280.656 401.652 280.656 401.39C 280.656 401.127 281.034 400.915 281.5 400.915C 281.966 400.915 282.344 401.127 282.344 401.39z"/>
			<path style="stroke:none; fill:#999" d="M 285 401.415C 285 401.677 284.623 401.89 284.156 401.89C 283.69 401.89 283.312 401.677 283.312 401.415C 283.312 401.152 283.69 400.94 284.156 400.94C 284.623 400.94 285 401.152 285 401.415z"/>
			<path style="stroke:none; fill:#999" d="M 279.688 399.39C 279.688 399.652 279.31 399.865 278.844 399.865C 278.377 399.865 278 399.652 278 399.39C 278 399.127 278.377 398.915 278.844 398.915C 279.31 398.915 279.688 399.127 279.688 399.39z"/>
			<path style="stroke:none; fill:#999" d="M 285 399.415C 285 399.677 284.623 399.89 284.156 399.89C 283.69 399.89 283.312 399.677 283.312 399.415C 283.312 399.152 283.69 398.94 284.156 398.94C 284.623 398.94 285 399.152 285 399.415z"/>
			<path style="stroke:none; fill:#999" d="M 279.688 403.39C 279.688 403.652 279.31 403.865 278.844 403.865C 278.377 403.865 278 403.652 278 403.39C 278 403.127 278.377 402.915 278.844 402.915C 279.31 402.915 279.688 403.127 279.688 403.39z"/>
			<path style="stroke:none; fill:#999" d="M 282.344 403.39C 282.344 403.652 281.966 403.865 281.5 403.865C 281.034 403.865 280.656 403.652 280.656 403.39C 280.656 403.127 281.034 402.915 281.5 402.915C 281.966 402.915 282.344 403.127 282.344 403.39z"/>
			<path style="stroke:none; fill:#999" d="M 285 403.415C 285 403.677 284.623 403.89 284.156 403.89C 283.69 403.89 283.312 403.677 283.312 403.415C 283.312 403.152 283.69 402.94 284.156 402.94C 284.623 402.94 285 403.152 285 403.415z"/>
			<path style="stroke:none; fill:#999" d="M 279.688 405.39C 279.688 405.652 279.31 405.865 278.844 405.865C 278.377 405.865 278 405.652 278 405.39C 278 405.127 278.377 404.915 278.844 404.915C 279.31 404.915 279.688 405.127 279.688 405.39z"/>
			<path style="stroke:none; fill:#999" d="M 282.344 405.39C 282.344 405.652 281.966 405.865 281.5 405.865C 281.034 405.865 280.656 405.652 280.656 405.39C 280.656 405.127 281.034 404.915 281.5 404.915C 281.966 404.915 282.344 405.127 282.344 405.39z"/>
			<path style="stroke:none; fill:#999" d="M 285 405.415C 285 405.677 284.623 405.89 284.156 405.89C 283.69 405.89 283.312 405.677 283.312 405.415C 283.312 405.152 283.69 404.94 284.156 404.94C 284.623 404.94 285 405.152 285 405.415z"/>
			<path style="stroke:none; fill:#999" d="M 279.688 407.365C 279.688 407.628 279.31 407.84 278.844 407.84C 278.377 407.84 278 407.628 278 407.365C 278 407.102 278.377 406.89 278.844 406.89C 279.31 406.89 279.688 407.102 279.688 407.365z"/>
			<path style="stroke:none; fill:#999" d="M 282.344 407.365C 282.344 407.628 281.966 407.84 281.5 407.84C 281.034 407.84 280.656 407.628 280.656 407.365C 280.656 407.102 281.034 406.89 281.5 406.89C 281.966 406.89 282.344 407.102 282.344 407.365z"/>
			<path style="stroke:none; fill:#999" d="M 285 407.39C 285 407.652 284.623 407.865 284.156 407.865C 283.69 407.865 283.312 407.652 283.312 407.39C 283.312 407.127 283.69 406.915 284.156 406.915C 284.623 406.915 285 407.127 285 407.39z"/>
			<path style="stroke:none; fill:#f00" d="M 266 396.89L 266 398.89L 270.5 398.89L 270.5 402.39L 275 397.89L 270.5 393.39L 270.5 396.89L 266 396.89z"/>
		</g>
	</g>
</svg>
