<svg xmlns="http://www.w3.org/2000/svg" width="24" height="24">
	<g transform="translate(-264,-386)" id="KDDI_D_514">
		<g>
			<path style="stroke:none; fill:none" d="M 288 409.89L 264 409.89L 264 385.89L 288 385.89L 288 409.89z"/>
		</g>
		<g>
			<path style="stroke:none; fill:#090" d="M 288 405.89L 264 405.89L 264 409.89L 288 409.89L 288 405.89z"/>
			<path style="stroke:none; fill:#f60" d="M 269 409.89L 277 409.89L 277 407.89L 269 407.89L 269 409.89z"/>
			<path style="stroke:none; fill:#3c0" d="M 266.5 393.39C 266 393.39 264 392.89 264 391.39C 264 389.89 265.5 389.39 266 389.39C 265 388.39 266.5 386.89 267.5 387.89C 267.5 386.89 268 385.89 269.5 385.89C 271 385.89 271.5 386.89 271.5 389.39"/>
			<path style="stroke:none; fill:#c90" d="M 282 407.89L 286 405.89L 286 393.89L 278.5 392.39"/>
			<path style="stroke:none; fill:#fc0" d="M 282 394.89L 274 386.89L 266 394.89L 266 407.89L 282 407.89L 282 394.89z"/>
			<path style="stroke:none; fill:#39f" d="M 269.5 404.39L 267.5 404.39L 267.5 398.89L 269.5 398.89L 269.5 404.39z"/>
			<path style="stroke:none; fill:#39f" d="M 280.5 404.39L 278.5 404.39L 278.5 398.89L 280.5 398.89L 280.5 404.39z"/>
			<path style="stroke:none; fill:#39f" d="M 272.5 396.89L 271 396.89L 271 395.39L 272.5 395.39L 272.5 396.89z"/>
			<path style="stroke:none; fill:#39f" d="M 277 396.89L 275.5 396.89L 275.5 395.39L 277 395.39L 277 396.89z"/>
			<path style="stroke:none; fill:#39f" d="M 277 392.89L 275.5 392.89L 275.5 391.39L 277 391.39L 277 392.89z"/>
			<path style="stroke:none; fill:#39f" d="M 272.5 392.89L 271 392.89L 271 391.39L 272.5 391.39L 272.5 392.89z"/>
			<path style="stroke:none; fill:#060" d="M 271 401.89L 271 407.89L 277 407.89L 277 401.89C 277 400.235 275.654 398.89 274 398.89C 272.346 398.89 271 400.235 271 401.89z"/>
			<path style="stroke:none; fill:#f30" d="M 279.5 385.89L 274 385.89L 263.985 395.875L 265.015 395.905C 265.015 395.905 273.499 387.421 274 386.92C 274.501 387.421 282.985 395.905 282.985 395.905L 284.015 395.875L 288 394.39L 279.5 385.89z"/>
			<path style="stroke:none; fill:#090" d="M 268 388.39L 270 388.39C 270 388.39 270 387.89 269 387.89C 268 387.89 268 388.39 268 388.39z"/>
			<path style="stroke:none; fill:#090" d="M 266.5 389.39L 268.5 389.39C 268.5 389.39 268.5 388.89 267.5 388.89C 266.5 388.89 266.5 389.39 266.5 389.39z"/>
			<path style="stroke:none; fill:#090" d="M 265.5 390.89L 267.5 390.89C 267.5 390.89 267.5 390.39 266.5 390.39C 265.5 390.39 265.5 390.89 265.5 390.89z"/>
			<path style="stroke:none; fill:#f00" d="M 279.5 385.89L 274 385.89L 284.015 395.875L 288 394.39L 279.5 385.89z"/>
			<path style="stroke:#960; stroke-width:1; stroke-linecap:square; fill:none" d="M 282.5 386.39L 282.5 392.89"/>
			<path style="stroke:#630; stroke-width:1; stroke-linecap:square; fill:none" d="M 283.5 386.39L 283.5 392.89"/>
			<path style="stroke:#900; stroke-width:1; fill:none" d="M 283.5 392.466L 283.5 393.466"/>
		</g>
	</g>
</svg>
