<svg xmlns="http://www.w3.org/2000/svg" width="24" height="24">
	<g transform="translate(-288,-386)" id="KDDI_D_516">
		<path style="stroke:#000000; stroke-width:1; fill:#ffffcc" d="M 297.5 393.376L 309.53 393.376L 309.53 409.376L 297.5 409.376L 297.5 393.376z"/>
		<path style="stroke:none; fill:#ff0000" d="M 305.016 402.86L 311.984 402.86L 311.984 400.892L 305.016 400.892L 305.016 402.86z"/>
		<path style="stroke:#000000; stroke-width:1; fill:#ccffff" d="M 293.511 389.871L 305.494 389.871L 305.494 405.871L 293.511 405.871L 293.511 389.871z"/>
		<path style="stroke:none; fill:#9900cc" d="M 301.016 398.86L 307.984 398.86L 307.984 396.892L 301.016 396.892L 301.016 398.86z"/>
		<path style="stroke:#000000; stroke-width:1; fill:#ffccff" d="M 289.518 386.384L 301.502 386.384L 301.502 402.384L 289.518 402.384L 289.518 386.384z"/>
		<path style="stroke:none; fill:#009900" d="M 298.026 394.871L 303.995 394.871L 303.995 392.902L 298.026 392.902L 298.026 394.871z"/>
	</g>
</svg>
