<svg xmlns="http://www.w3.org/2000/svg" width="24" height="24">
	<g transform="translate(-264,-386)" id="KDDI_D_518">
		<g>
			<path style="stroke:none; fill:none" d="M 288 409.89L 264 409.89L 264 385.89L 288 385.89L 288 409.89z"/>
		</g>
		<g>
			<path style="stroke:none; fill:#f30" d="M 273 401.89L 273 396.89L 277 396.89L 277.003 395.893L 270.5 389.39L 264.014 395.89L 264 396.89L 268 396.89L 268 401.39C 268 405.399 270.491 407.89 274.5 407.89L 278.5 407.89L 278.5 406.89C 274.838 406.89 273 403.684 273 401.89z"/>
			<path style="stroke:none; fill:#fc0" d="M 272 401.89C 272 401.89 272 397.517 272 395.89L 276 395.89L 270.5 390.39L 265 395.89L 269 395.89C 269 397.435 269 401.39 269 401.39C 269 405.89 273 407.89 275.5 407.89C 275.5 407.89 277.359 407.89 277.5 407.89C 275.5 407.39 272 405.39 272 401.89z"/>
			<path style="stroke:none; fill:#f30" d="M 279 393.89L 279 398.89L 275 398.89L 275 399.89L 281.5 406.39L 288 399.89L 288 398.89L 284 398.89L 284 394.39C 284 390.38 281.509 387.89 277.5 387.89L 273.5 387.89L 273.5 388.89C 277.162 388.89 279 392.095 279 393.89z"/>
			<path style="stroke:none; fill:#fc0" d="M 280 393.89C 280 393.89 280 398.263 280 399.89L 276 399.89L 281.5 405.39L 287 399.89L 283 399.89C 283 398.344 283 394.39 283 394.39C 283 389.89 279 387.89 276.5 387.89C 276.5 387.89 274.641 387.89 274.5 387.89C 276.5 388.39 280 390.39 280 393.89z"/>
		</g>
	</g>
</svg>
