<svg xmlns="http://www.w3.org/2000/svg" width="24" height="24">
	<g transform="translate(-264,-386)" id="KDDI_D_700">
		<g>
			<path style="stroke:none; fill:none" d="M 288 409.89L 264 409.89L 264 385.89L 288 385.89L 288 409.89z"/>
		</g>
		<g>
			<path style="stroke:none; fill:#f00" d="M 287.458 391.376C 287.458 391.376 285.188 391.376 284.667 391.376C 283.583 391.376 283.202 390.404 282.875 389.793C 282.542 389.168 281.917 388.251 279.667 388.251C 278.75 388.251 278.017 388.043 277.583 387.501C 276.917 386.668 276.25 386.392 275.031 386.392C 274.239 386.392 264.542 386.392 264.542 386.392L 264.542 404.39C 264.542 404.39 274.239 404.39 275.031 404.39C 276.25 404.39 276.917 404.666 277.583 405.499C 278.017 406.041 278.75 406.249 279.667 406.249C 281.917 406.249 282.542 407.166 282.875 407.791C 283.202 408.402 283.583 409.374 284.667 409.374C 285.188 409.374 287.458 409.374 287.458 409.374L 287.458 391.376z"/>
			<path style="stroke:none; fill:#fc0" d="M 282.875 401.306C 282.542 400.681 281.917 399.765 279.667 399.765C 278.75 399.765 278.017 399.556 277.583 399.015C 276.917 398.181 276.25 397.905 275.031 397.905C 274.239 397.905 264.542 397.905 264.542 397.905L 264.542 404.39C 264.542 404.39 274.239 404.39 275.031 404.39C 276.25 404.39 276.917 404.666 277.583 405.499C 278.017 406.041 278.75 406.249 279.667 406.249C 281.917 406.249 282.542 407.166 282.875 407.791C 283.202 408.402 283.583 409.374 284.667 409.374C 285.188 409.374 287.458 409.374 287.458 409.374L 287.458 402.89C 287.458 402.89 285.188 402.89 284.667 402.89C 283.583 402.89 283.202 401.918 282.875 401.306z"/>
			<path style="stroke:none; fill:#333" d="M 282.875 389.793C 282.542 389.168 281.917 388.251 279.667 388.251C 278.75 388.251 278.017 388.043 277.583 387.501C 276.917 386.668 276.25 386.392 275.031 386.392C 274.239 386.392 264.542 386.392 264.542 386.392L 264.542 392.39C 264.542 392.39 274.239 392.39 275.031 392.39C 276.25 392.39 276.917 392.666 277.583 393.499C 278.017 394.041 278.75 394.249 279.667 394.249C 281.917 394.249 282.542 395.166 282.875 395.791C 283.202 396.402 283.583 397.374 284.667 397.374C 285.188 397.374 287.458 397.374 287.458 397.374L 287.458 391.376C 287.458 391.376 285.188 391.376 284.667 391.376C 283.583 391.376 283.202 390.404 282.875 389.793z"/>
			<path style="stroke:none; fill:#900" d="M 277.583 393.531C 276.918 392.699 276.251 392.423 275.036 392.422L 275.036 397.938C 276.251 397.939 276.918 398.214 277.583 399.047C 277.698 399.19 277.835 399.307 277.989 399.405L 277.989 393.89C 277.835 393.791 277.698 393.674 277.583 393.531z"/>
			<path style="stroke:none; fill:#900" d="M 282.875 395.783C 282.623 395.311 282.202 394.673 281.042 394.39L 281.042 399.905C 282.202 400.189 282.623 400.827 282.875 401.299C 283.123 401.764 283.405 402.434 284 402.73L 284 397.214C 283.405 396.918 283.123 396.248 282.875 395.783z"/>
			<path style="stroke:none; fill:#c90" d="M 277.583 399.047C 276.918 398.214 276.251 397.939 275.036 397.938L 275.036 404.39C 276.251 404.391 276.918 404.667 277.583 405.499C 277.698 405.642 277.835 405.759 277.989 405.858L 277.989 399.405C 277.835 399.307 277.698 399.19 277.583 399.047z"/>
			<path style="stroke:none; fill:#c90" d="M 282.875 401.299C 282.623 400.827 282.202 400.189 281.042 399.905L 281.042 406.397C 282.202 406.681 282.623 407.318 282.875 407.791C 283.123 408.255 283.405 408.925 284 409.222L 284 402.73C 283.405 402.434 283.123 401.764 282.875 401.299z"/>
			<path style="stroke:none; fill:#000" d="M 277.583 393.531C 277.698 393.674 277.835 393.791 277.989 393.89L 277.989 387.859C 277.835 387.761 277.698 387.644 277.583 387.501C 276.918 386.669 276.251 386.393 275.036 386.392L 275.036 392.422C 276.251 392.423 276.918 392.699 277.583 393.531z"/>
			<path style="stroke:none; fill:#000" d="M 282.875 395.783C 283.123 396.248 283.405 396.918 284 397.214L 284 391.224C 283.405 390.927 283.123 390.257 282.875 389.793C 282.623 389.32 282.202 388.683 281.042 388.399L 281.042 394.39C 282.202 394.673 282.623 395.311 282.875 395.783z"/>
			<path style="stroke:#000; stroke-width:1; fill:none" d="M 287.458 391.376C 287.458 391.376 285.188 391.376 284.667 391.376C 283.583 391.376 283.202 390.404 282.875 389.793C 282.542 389.168 281.917 388.251 279.667 388.251C 278.75 388.251 278.017 388.043 277.583 387.501C 276.917 386.668 276.25 386.392 275.031 386.392C 274.239 386.392 264.542 386.392 264.542 386.392L 264.542 404.39C 264.542 404.39 274.239 404.39 275.031 404.39C 276.25 404.39 276.917 404.666 277.583 405.499C 278.017 406.041 278.75 406.249 279.667 406.249C 281.917 406.249 282.542 407.166 282.875 407.791C 283.202 408.402 283.583 409.374 284.667 409.374C 285.188 409.374 287.458 409.374 287.458 409.374L 287.458 391.376z"/>
		</g>
	</g>
</svg>
