<svg xmlns="http://www.w3.org/2000/svg" width="24" height="24">
	<g transform="translate(-264,-386)" id="KDDI_D_702">
		<g>
			<path style="stroke:none; fill:none" d="M 288 409.89L 264 409.89L 264 385.89L 288 385.89L 288 409.89z"/>
		</g>
		<g>
			<path style="stroke:none; fill:#00c" d="M 287.458 391.376C 287.458 391.376 285.188 391.376 284.667 391.376C 283.583 391.376 283.202 390.404 282.875 389.793C 282.542 389.168 281.917 388.251 279.667 388.251C 278.75 388.251 278.017 388.043 277.583 387.501C 276.917 386.668 276.25 386.392 275.031 386.392C 274.239 386.392 264.542 386.392 264.542 386.392L 264.542 404.39C 264.542 404.39 274.239 404.39 275.031 404.39C 276.25 404.39 276.917 404.666 277.583 405.499C 278.017 406.041 278.75 406.249 279.667 406.249C 281.917 406.249 282.542 407.166 282.875 407.791C 283.202 408.402 283.583 409.374 284.667 409.374C 285.188 409.374 287.458 409.374 287.458 409.374L 287.458 391.376z"/>
			<path style="stroke:none; fill:#fff" d="M 285.922 405.93C 285.922 405.929 285.886 405.833 285.886 405.833C 285.681 405.276 285.137 403.797 282.923 402.875C 282.199 402.572 281.041 399.521 280.586 396.713L 278.414 397.066C 278.526 397.759 279.584 403.866 282.077 404.905C 283.403 405.458 283.665 406.168 283.821 406.593L 283.911 406.822C 284.397 407.915 285.099 408.684 285.831 409.374C 286.61 409.374 287.458 409.374 287.458 409.374L 287.458 407.884C 286.818 407.289 286.27 406.713 285.922 405.93z"/>
			<path style="stroke:none; fill:#f00" d="M 285.426 406.007L 285.372 405.867C 285.18 405.346 284.732 404.128 282.81 403.327C 281.578 402.813 280.427 399.017 280.037 396.613L 279.296 396.733C 279.307 396.797 280.355 403.116 282.522 404.019C 284.141 404.694 284.497 405.661 284.668 406.126L 284.74 406.312C 285.291 407.551 286.153 408.331 287.065 409.155L 287.306 409.374C 287.372 409.374 287.408 409.374 287.427 409.374L 287.458 409.339L 287.458 408.499C 286.618 407.737 285.891 407.055 285.426 406.007z"/>
			<path style="stroke:none; fill:#fff" d="M 278.121 395.399L 279.962 396.603C 280.768 395.371 281.519 394.724 282.193 394.682C 283.335 394.611 285.714 394.442 287.458 393.06L 287.458 391.376C 287.458 391.376 286.763 391.376 286.053 391.376C 284.853 392.301 283.028 392.426 282.065 392.486C 280.632 392.575 279.344 393.528 278.121 395.399z"/>
			<path style="stroke:none; fill:#f00" d="M 281.901 393.085C 280.712 393.159 279.609 394.004 278.519 395.671L 279.147 396.081C 280.098 394.627 281.012 393.892 281.94 393.834C 283.164 393.757 285.926 393.566 287.458 391.72L 287.458 391.376C 287.458 391.376 287.163 391.376 286.767 391.376C 285.421 392.847 283.077 393.011 281.901 393.085z"/>
			<path style="stroke:none; fill:#fff" d="M 276.15 396.853L 277.628 394.862L 266.219 386.392C 265.219 386.392 264.546 386.392 264.542 386.392L 264.542 386.393L 264.542 388.235L 276.15 396.853z"/>
			<path style="stroke:none; fill:#f00" d="M 276.436 396.467L 277.033 395.664L 264.542 386.392L 264.542 387.637L 276.436 396.467z"/>
			<path style="stroke:none; fill:#fff" d="M 266.898 404.39L 277.573 395.798L 276.017 393.866L 264.542 403.102L 264.542 404.39C 264.542 404.39 265.529 404.39 266.898 404.39z"/>
			<path style="stroke:none; fill:#f00" d="M 266.132 404.39L 277.272 395.424L 276.645 394.645L 264.542 404.386L 264.542 404.39C 264.542 404.39 265.177 404.39 266.132 404.39z"/>
			<path style="stroke:none; fill:#fff" d="M 278 387.864L 278 405.862C 278.278 406.039 278.614 406.15 279 406.205L 279 388.207C 278.614 388.152 278.278 388.041 278 387.864z"/>
			<path style="stroke:none; fill:#006" d="M 282.875 389.783C 282.623 389.311 282.202 388.673 281.042 388.39L 281.042 406.388C 282.202 406.671 282.623 407.309 282.875 407.781C 283.123 408.246 283.405 408.916 284 409.213L 284 391.214C 283.405 390.918 283.123 390.248 282.875 389.783z"/>
			<path style="stroke:none; fill:#fff" d="M 282.875 396.791C 282.542 396.166 281.917 395.249 279.667 395.249C 278.75 395.249 278.017 395.041 277.583 394.499C 276.917 393.666 276.25 393.39 275.031 393.39C 274.239 393.39 264.542 393.39 264.542 393.39L 264.542 397.405C 264.542 397.405 274.239 397.405 275.031 397.405C 276.25 397.405 276.917 397.681 277.583 398.515C 278.017 399.056 278.75 399.265 279.667 399.265C 281.917 399.265 282.542 400.181 282.875 400.806C 283.202 401.418 283.583 402.39 284.667 402.39C 285.188 402.39 287.458 402.39 287.458 402.39L 287.458 398.374C 287.458 398.374 285.188 398.374 284.667 398.374C 283.583 398.374 283.202 397.402 282.875 396.791z"/>
			<path style="stroke:none; fill:#ccc" d="M 276 404.488L 276 386.49C 275.714 386.43 275.405 386.392 275.031 386.392C 275.023 386.392 275.009 386.392 275 386.392L 275 404.39C 275.009 404.39 275.023 404.39 275.031 404.39C 275.405 404.39 275.714 404.428 276 404.488z"/>
			<path style="stroke:none; fill:#ccc" d="M 282.875 396.783C 282.623 396.311 282.202 395.673 281.042 395.39L 281.042 399.405C 282.202 399.689 282.623 400.327 282.875 400.799C 283.123 401.264 283.405 401.934 284 402.23L 284 398.214C 283.405 397.918 283.123 397.248 282.875 396.783z"/>
			<path style="stroke:none; fill:#f00" d="M 282.834 397.791C 282.5 397.166 281.875 396.249 279.625 396.249C 278.708 396.249 277.976 396.041 277.542 395.499C 276.875 394.666 276.209 394.39 274.99 394.39C 274.198 394.39 264.5 394.39 264.5 394.39L 264.5 396.405C 264.5 396.405 274.198 396.405 274.99 396.405C 276.209 396.405 276.875 396.681 277.542 397.515C 277.976 398.056 278.708 398.265 279.625 398.265C 281.875 398.265 282.5 399.181 282.834 399.806C 283.16 400.418 283.542 401.39 284.625 401.39C 285.147 401.39 287.417 401.39 287.417 401.39L 287.417 399.374C 287.417 399.374 285.147 399.374 284.625 399.374C 283.542 399.374 283.16 398.402 282.834 397.791z"/>
			<path style="stroke:none; fill:#900" d="M 277.542 395.531C 276.876 394.699 276.206 394.39 274.99 394.39L 274.99 396.405C 276.206 396.406 276.876 396.714 277.542 397.547C 277.656 397.69 277.794 397.807 277.947 397.905L 277.947 395.89C 277.794 395.791 277.656 395.674 277.542 395.531z"/>
			<path style="stroke:none; fill:#900" d="M 282.834 397.783C 282.582 397.311 282.16 396.673 281 396.39L 281 398.405C 282.16 398.689 282.582 399.327 282.834 399.799C 283.082 400.264 283.363 400.934 283.959 401.23L 283.959 399.214C 283.363 398.918 283.082 398.248 282.834 397.783z"/>
			<path style="stroke:none; fill:#900" d="M 276 386.49L 276 404.488C 276.647 404.624 277.121 404.921 277.583 405.499C 277.7 405.645 277.842 405.763 278 405.862L 278 387.864C 277.842 387.765 277.7 387.647 277.583 387.501C 277.121 386.923 276.647 386.626 276 386.49z"/>
			<path style="stroke:#000; stroke-width:1; fill:none" d="M 287.458 391.376C 287.458 391.376 285.188 391.376 284.667 391.376C 283.583 391.376 283.202 390.404 282.875 389.793C 282.542 389.168 281.917 388.251 279.667 388.251C 278.75 388.251 278.017 388.043 277.583 387.501C 276.917 386.668 276.25 386.392 275.031 386.392C 274.239 386.392 264.542 386.392 264.542 386.392L 264.542 404.39C 264.542 404.39 274.239 404.39 275.031 404.39C 276.25 404.39 276.917 404.666 277.583 405.499C 278.017 406.041 278.75 406.249 279.667 406.249C 281.917 406.249 282.542 407.166 282.875 407.791C 283.202 408.402 283.583 409.374 284.667 409.374C 285.188 409.374 287.458 409.374 287.458 409.374L 287.458 391.376z"/>
			<path style="stroke:#900; stroke-width:2.5; fill:none" d="M 269.292 404.168"/>
			<path style="stroke:none; fill:#ccc" d="M 282.522 404.019C 281.951 403.781 281.459 403.161 281.042 402.383L 281.042 404.107C 281.356 404.462 281.698 404.747 282.077 404.905C 283.403 405.458 283.665 406.168 283.821 406.593L 283.911 406.822C 283.938 406.883 283.972 406.933 284 406.991L 284 405.002C 283.685 404.663 283.228 404.314 282.522 404.019z"/>
			<path style="stroke:none; fill:#ccc" d="M 281.042 398.819L 281.042 400.493C 281.544 401.889 282.165 403.058 282.81 403.327C 283.294 403.528 283.684 403.756 284 403.993L 284 403.456C 283.69 403.25 283.345 403.05 282.923 402.875C 282.38 402.648 281.593 400.875 281.042 398.819z"/>
			<path style="stroke:none; fill:#900" d="M 282.522 404.019C 283.228 404.314 283.685 404.663 284 405.002L 284 403.993C 283.684 403.756 283.294 403.528 282.81 403.327C 282.165 403.058 281.544 401.889 281.042 400.493L 281.042 402.383C 281.459 403.161 281.951 403.781 282.522 404.019z"/>
			<path style="stroke:none; fill:#ccc" d="M 281.94 393.834C 281.64 393.853 281.341 393.95 281.042 394.112L 281.042 395.285C 281.445 394.916 281.831 394.705 282.193 394.682C 282.642 394.654 283.283 394.608 284 394.483L 284 393.576C 283.185 393.747 282.435 393.803 281.94 393.834z"/>
			<path style="stroke:none; fill:#ccc" d="M 281.901 393.085C 282.43 393.052 283.196 392.993 284 392.814L 284 392.248C 283.263 392.408 282.553 392.456 282.065 392.486C 281.715 392.508 281.375 392.583 281.042 392.708L 281.042 393.28C 281.324 393.169 281.609 393.103 281.901 393.085z"/>
			<path style="stroke:none; fill:#900" d="M 281.042 393.28L 281.042 394.112C 281.341 393.95 281.64 393.853 281.94 393.834C 282.435 393.803 283.185 393.747 284 393.576L 284 392.814C 283.196 392.993 282.43 393.052 281.901 393.085C 281.609 393.103 281.324 393.169 281.042 393.28z"/>
		</g>
	</g>
</svg>
