<svg xmlns="http://www.w3.org/2000/svg" width="24" height="24">
	<g transform="translate(-264,-386)" id="KDDI_D_703">
		<g>
			<path style="stroke:none; fill:none" d="M 288 409.89L 264 409.89L 264 385.89L 288 385.89L 288 409.89z"/>
		</g>
		<g>
			<path style="stroke:none; fill:#f00" d="M 287.458 391.376C 287.458 391.376 285.188 391.376 284.667 391.376C 283.583 391.376 283.202 390.404 282.875 389.793C 282.542 389.168 281.917 388.251 279.667 388.251C 278.75 388.251 278.017 388.043 277.583 387.501C 276.917 386.668 276.25 386.392 275.031 386.392C 274.239 386.392 264.542 386.392 264.542 386.392L 264.542 404.39C 264.542 404.39 274.239 404.39 275.031 404.39C 276.25 404.39 276.917 404.666 277.583 405.499C 278.017 406.041 278.75 406.249 279.667 406.249C 281.917 406.249 282.542 407.166 282.875 407.791C 283.202 408.402 283.583 409.374 284.667 409.374C 285.188 409.374 287.458 409.374 287.458 409.374L 287.458 391.376z"/>
			<path style="stroke:none; fill:#900" d="M 277.583 387.501C 276.919 386.671 276.254 386.395 275.046 386.393L 275.046 404.391C 276.254 404.393 276.919 404.67 277.583 405.499C 277.7 405.645 277.842 405.763 278 405.862L 278 387.864C 277.842 387.765 277.7 387.647 277.583 387.501z"/>
			<path style="stroke:none; fill:#900" d="M 282.875 389.793C 282.62 389.315 282.189 388.671 281 388.392L 281 406.39C 282.189 406.669 282.62 407.313 282.875 407.791C 283.117 408.245 283.392 408.895 283.958 409.201L 283.958 391.203C 283.392 390.897 283.117 390.247 282.875 389.793z"/>
			<path style="stroke:#000; stroke-width:1; fill:none" d="M 287.458 391.376C 287.458 391.376 285.188 391.376 284.667 391.376C 283.583 391.376 283.202 390.404 282.875 389.793C 282.542 389.168 281.917 388.251 279.667 388.251C 278.75 388.251 278.017 388.043 277.583 387.501C 276.917 386.668 276.25 386.392 275.031 386.392C 274.239 386.392 264.542 386.392 264.542 386.392L 264.542 404.39C 264.542 404.39 274.239 404.39 275.031 404.39C 276.25 404.39 276.917 404.666 277.583 405.499C 278.017 406.041 278.75 406.249 279.667 406.249C 281.917 406.249 282.542 407.166 282.875 407.791C 283.202 408.402 283.583 409.374 284.667 409.374C 285.188 409.374 287.458 409.374 287.458 409.374L 287.458 391.376z"/>
			<path style="stroke:none; fill:#fc0" d="M 268.508 388.62L 269.002 389.921L 270.391 389.989L 269.307 390.86L 269.672 392.202L 268.508 391.441L 267.344 392.202L 267.709 390.86L 266.625 389.989L 268.014 389.921L 268.508 388.62z"/>
			<path style="stroke:none; fill:#fc0" d="M 272.471 388.999L 272.656 389.486L 273.177 389.513L 272.771 389.839L 272.907 390.342L 272.471 390.057L 272.034 390.342L 272.171 389.839L 271.765 389.513L 272.285 389.486L 272.471 388.999z"/>
			<path style="stroke:none; fill:#fc0" d="M 271.519 387.732L 271.705 388.219L 272.225 388.244L 271.819 388.571L 271.956 389.074L 271.519 388.789L 271.082 389.074L 271.219 388.571L 270.813 388.244L 271.335 388.219L 271.519 387.732z"/>
			<path style="stroke:none; fill:#fc0" d="M 271.488 392.034L 271.673 392.521L 272.194 392.546L 271.788 392.874L 271.924 393.377L 271.488 393.091L 271.051 393.377L 271.188 392.874L 270.782 392.546L 271.303 392.521L 271.488 392.034z"/>
			<path style="stroke:none; fill:#fc0" d="M 272.519 390.984L 272.705 391.471L 273.225 391.498L 272.819 391.824L 272.956 392.327L 272.519 392.042L 272.082 392.327L 272.219 391.824L 271.813 391.498L 272.335 391.471L 272.519 390.984z"/>
		</g>
	</g>
</svg>
