<svg xmlns="http://www.w3.org/2000/svg" width="24" height="24">
	<g transform="translate(-264,-386)" id="KDDI_D_704">
		<g>
			<path style="stroke:none; fill:none" d="M 288 409.89L 264 409.89L 264 385.89L 288 385.89L 288 409.89z"/>
		</g>
		<g>
			<path style="stroke:none; fill:#fff" d="M 287.458 391.376C 287.458 391.376 285.188 391.376 284.667 391.376C 283.583 391.376 283.202 390.404 282.875 389.793C 282.542 389.168 281.917 388.251 279.667 388.251C 278.75 388.251 278.017 388.043 277.583 387.501C 276.917 386.668 276.25 386.392 275.031 386.392C 274.239 386.392 264.542 386.392 264.542 386.392L 264.542 404.39C 264.542 404.39 274.239 404.39 275.031 404.39C 276.25 404.39 276.917 404.666 277.583 405.499C 278.017 406.041 278.75 406.249 279.667 406.249C 281.917 406.249 282.542 407.166 282.875 407.791C 283.202 408.402 283.583 409.374 284.667 409.374C 285.188 409.374 287.458 409.374 287.458 409.374L 287.458 391.376z"/>
			<path style="stroke:none; fill:#999" d="M 277.583 387.501C 276.919 386.671 276.254 386.395 275.046 386.393L 275.046 404.391C 276.254 404.393 276.919 404.67 277.583 405.499C 277.7 405.645 277.842 405.763 278 405.862L 278 387.864C 277.842 387.765 277.7 387.647 277.583 387.501z"/>
			<path style="stroke:none; fill:#999" d="M 282.875 389.793C 282.62 389.315 282.189 388.671 281 388.392L 281 406.39C 282.189 406.669 282.62 407.313 282.875 407.791C 283.117 408.245 283.392 408.895 283.958 409.201L 283.958 391.203C 283.392 390.897 283.117 390.247 282.875 389.793z"/>
			<path style="stroke:#000; stroke-width:1; fill:none" d="M 287.458 391.376C 287.458 391.376 285.188 391.376 284.667 391.376C 283.583 391.376 283.202 390.404 282.875 389.793C 282.542 389.168 281.917 388.251 279.667 388.251C 278.75 388.251 278.017 388.043 277.583 387.501C 276.917 386.668 276.25 386.392 275.031 386.392C 274.239 386.392 264.542 386.392 264.542 386.392L 264.542 404.39C 264.542 404.39 274.239 404.39 275.031 404.39C 276.25 404.39 276.917 404.666 277.583 405.499C 278.017 406.041 278.75 406.249 279.667 406.249C 281.917 406.249 282.542 407.166 282.875 407.791C 283.202 408.402 283.583 409.374 284.667 409.374C 285.188 409.374 287.458 409.374 287.458 409.374L 287.458 391.376z"/>
			<path style="stroke:#000; stroke-width:0.5; fill:none" d="M 272 388.89L 269.562 391.327"/>
			<path style="stroke:#000; stroke-width:0.5; fill:none" d="M 272.708 389.64L 270.271 392.077"/>
			<path style="stroke:#000; stroke-width:0.5; fill:none" d="M 273.5 390.39L 271.062 392.827"/>
			<g>
				<path style="stroke:#000; stroke-width:0.5; fill:none" d="M 269.562 399.39L 272 401.827"/>
				<path style="stroke:#000; stroke-dasharray:0.75,0.25; stroke-width:0.5; fill:none" d="M 270.312 398.682L 272.75 401.119"/>
				<path style="stroke:#000; stroke-width:0.5; fill:none" d="M 271.062 397.89L 273.5 400.327"/>
			</g>
			<path style="stroke:#000; stroke-dasharray:0.75,0.25; stroke-width:0.5; fill:none" d="M 282.062 391.952L 284.5 394.39"/>
			<path style="stroke:#000; stroke-width:0.5; fill:none" d="M 281.354 392.702L 283.792 395.14"/>
			<path style="stroke:#000; stroke-dasharray:0.75,0.25; stroke-width:0.5; fill:none" d="M 280.562 393.452L 283 395.89"/>
			<g>
				<path style="stroke:#000; stroke-dasharray:0.75,0.25; stroke-width:0.5; fill:none" d="M 284.5 402.452L 282.062 404.89"/>
				<path style="stroke:#000; stroke-dasharray:0.75,0.25; stroke-width:0.5; fill:none" d="M 283.75 401.744L 281.312 404.182"/>
				<path style="stroke:#000; stroke-dasharray:0.75,0.25; stroke-width:0.5; fill:none" d="M 283 400.952L 280.562 403.39"/>
			</g>
			<g>
				<path style="stroke:none; fill:#f00" d="M 275 396.739L 275 391.39C 273.821 392.046 273 393.437 273 395.062C 273 395.452 273.05 395.827 273.138 396.184C 273.578 396.597 274.218 396.739 275 396.739z"/>
				<path style="stroke:none; fill:#f00" d="M 279.975 397.8C 279.986 397.665 280 397.531 280 397.393C 280 395.768 279.179 394.377 278 393.721L 278 396.739C 278.773 396.739 279.543 397.14 279.975 397.8z"/>
				<path style="stroke:none; fill:#900" d="M 278 396.739L 278 393.721C 277.375 393.564 277.125 393.095 276.625 392.595C 276.272 392.241 275.688 391.39 275 391.39L 275 396.739C 276.5 396.739 276.5 396.739 278 396.739z"/>
				<path style="stroke:none; fill:#00c" d="M 275 398.733L 275 396.739C 274.218 396.739 273.578 396.597 273.138 396.184C 273.418 397.31 274.104 398.234 275 398.733z"/>
				<path style="stroke:none; fill:#00c" d="M 278 396.739L 278 401.064L 278 401.065C 279.079 400.463 279.85 399.246 279.975 397.8C 279.543 397.14 278.773 396.739 278 396.739z"/>
				<path style="stroke:none; fill:#006" d="M 275 396.739L 275 398.733C 275.656 399.032 275.742 399.301 276.281 399.72C 276.82 400.139 277.219 401.064 278 401.064L 278 396.739C 276.5 396.739 276.5 396.739 275 396.739z"/>
			</g>
		</g>
	</g>
</svg>
