<svg xmlns="http://www.w3.org/2000/svg" height="24" width="24">
    <g transform="matrix(1,0,0,-1,-264,408)" id="KDDI_D_">        <path d="M282.6 394.2s5.1-2.9 5.1-6-2.5-3.6-4.4-3.6h-5c-1.2 0 3.8 8.6 4.3 9.6z" fill="#fc0"/>
        <path d="M283.4 389s.9-1.4 1.7-1.7c1.4-.4 2.2-.5 2.2-.5s-1.4-2.2-2.7-2.2c-1.3-.1-5.5-.3-5.5-.3l.1 1.7z" fill="#f90"/>
        <path d="M282.1 393.7s5.4-2.4 5.4-5.5-2.3-3.7-4.2-3.7h-5" fill="none" stroke="#963"/>
        <path d="M279.7 384l.1 1.6s2.6 0 3.1.7c.4.6.4 4.3.4 4.3s2 .8 2.1 1.4c.1.6-2.5 1.4-2.5 2.4s.2 4.1.2 4.1l-2.4 3.8s-7.9.9-9.4-2.9c-1.5-3.7.8-12.3.8-12.3l.1-3.1z" fill="#fc9"/>
        <path d="M274.3 407.5c-1.9 0-5.5-.3-7.6-2.2-1.9-1.8-2.3-4.9-2.3-7.5 0-2.5 1.4-5.1 1.2-6.5-.3-1.5-1.2-3-1.2-4.2 0-1.3 1.4-2.7 2.9-2.7 1.6 0 3.1 1.1 3.1 1.1s.7-1 2.6-1c1.9 0 4.2.3 3.2 2.6-1.1 2.2-3 4.6-3 6.5-.1 1.8 1.3 4.6 2.5 5.2 1.1.6 4.1 2.4 4.1 2.4s.8-2.8 2.8-2.7c2 .1 4 1.8 4 3.3 0 4.3-4.6 3.5-4.6 3.5s-.8 2.2-7.7 2.2z" fill="#fc0"/>
        <path d="M265.8 386.7c0 1.3 1 2.8 1.2 4.2.3 1.4-1.2 4-1.2 6.6 0 2.6.5 5.7 2.3 7.4 2.1 2 5.7 2.3 7.6 2.3 1.5 0 2.8-.2 3.8-.3-1.2.3-2.8.6-5.2.6-1.9 0-5.5-.3-7.6-2.2-1.9-1.8-2.3-4.9-2.3-7.5 0-2.5 1.4-5.1 1.2-6.5-.3-1.5-1.2-3-1.2-4.2 0-1.3 1.4-2.7 2.9-2.7h.1c-.9.5-1.6 1.5-1.6 2.3z" fill="#ff6"/>
        <path d="M276.4 401.3s-2-1-2.8-.3c-.8.6-.2 2-.6 2.1-.9.1-.4-1.8-.1-2.3.4-.9 1.5-1.4 1.5-1.4z" fill="#ff6"/>
        <path d="M273.6 399.8c-1.1-.8-3-2.8-2.9-6 0-1.8 1.9-3.3 2.6-5.7.5-1.5 0-3.3-1.9-3.3-.1 0-.2 0-.3.1.4-.2 1-.4 1.7-.4 1.9 0 4.3.3 3.2 2.6-1.1 2.2-2.9 4.6-3 6.5-.1 1.8 1.3 4.6 2.5 5.2.7.4 2.1 1.2 3.1 1.8-.3.5-3.2.6-5-.8zM267.8 384.8s1.1.8 1.4 1.4c.3.6.6 1.6.6 1.6l1-2.5zM283.4 405.1s1-1.3.5-3c-.5-2.3-3.4-2.3-3.4-2.3s1.4-1.4 2.4-1.2c1.5.2 3.4 2 3.5 2.7.1.8.3 1.3-.2 2.2-.5.9-1.3 1.6-2.8 1.6z" fill="#f90"/>
        <path d="M277.6 406.9s2.3-.9 1.9-2.6c-.4-1.8-4.9-3.9-4.9-3.9s.8-1.4 1.4-1.2c.6.2 2.1 1.1 2.8 1.5.6.4 2.7 1.2 3 2.2.3.9.4 2.4-.5 3-1 .6-2.3 1-3.7 1z" fill="#f90"/>
        <path d="M273.2 393.6c-.1 1.8 1 3.9 2.5 5.2.9.9 4.1 2.4 4.1 2.4" fill="none" stroke="#930" stroke-linecap="round" stroke-linejoin="round"/>
        <path d="M286.6 401.8c0 4.3-4.6 3.5-4.6 3.5s-.8 2.2-7.7 2.2c-1.9 0-5.5-.3-7.6-2.2-1.9-1.8-2.3-4.9-2.3-7.5 0-2.5 1.4-5.1 1.2-6.5-.3-1.5-1.2-3-1.2-4.2 0-1.3 1.4-2.7 2.9-2.7 1.6 0 3.1 1.1 3.1 1.1s.7-1 2.6-1c1.9 0 4.2.3 3.2 2.6-1.1 2.2-3 4.6-3 6.5" fill="none" stroke="#963" stroke-linecap="round" stroke-linejoin="round"/>
        <path d="M282.9 386.3c.4.6.4 4.3.4 4.3s2 .8 2.1 1.4c.1.6-2.5 2-2.5 3s.2 3.5.2 3.5" fill="none" stroke="#963"/>
        <path d="M279.7 384l.2 1.8s-1-.1-1.2-.1c-.4 0-.6-.9-.7-1.7z" fill="#f96"/>
        <path d="M279.7 384l.1 1.6" fill="none" stroke="#930"/>
        <path d="M279.8 385.6s2.6 0 3.1.7" fill="none" stroke="#930" stroke-linecap="round"/>
        <path d="M282.6 398.5c2 .1 4 1.8 4 3.3" fill="none" stroke="#930" stroke-linecap="round" stroke-linejoin="round"/>
        <path d="M279.8 401.2s.8-2.8 2.8-2.7" fill="none" stroke="#963" stroke-linecap="round" stroke-linejoin="round"/>
        <path d="M279.9 401.2s1.5.6 2.1 1.4c.5.9 0 2.7 0 2.7" fill="none" stroke="#963"/>
        <path d="M282.8 390.1s-.6-.3-1.3-.3c-.6 0-1.1.4-1.1.4" fill="none" stroke="#c00" stroke-linecap="round"/>
        <path d="M271.1 396s-2.3-4.7-2-4.9c.4-.3 1.8 1.5 2 2.7.2 1.1 0 2.2 0 2.2zM274.9 400.2s-1.5-.3-2 .7c-.6 1 .3 2.2-.1 2.3-.9.1-.9-2-.6-2.5.4-.9 1.6-1.4 1.6-1.4z" fill="#f90"/>
        <path d="M279.4 394.4c0-.7-.5-1.2-1.3-1.2h-.1c-.7 0-1.3.5-1.3 1.2v1.7c0 .7.6 1.3 1.3 1.3h.1c.8 0 1.3-.6 1.3-1.3z" fill="#c93"/>
        <path d="M279.3 394.6c0-.6-.5-1.1-1-1.1h-.1c-.6 0-1 .5-1 1.1v1.5c0 .6.4 1.1 1 1.1h.1c.5 0 1-.5 1-1.1z" fill="#006"/>
        <path d="M278.2 397.1s.5-.1 1 0c.5 0 1 .3 1 .3l-1.1-1.2z" fill="#006"/>
        <path d="M279.3 395.6c0-.3-.2-.6-.4-.6-.3 0-.5.3-.5.6 0 .2.2.5.5.5.2 0 .4-.3.4-.5z" fill="#3cf"/>
        <path d="M283.4 395.1c0-.4-.3-.8-.7-.8-.4 0-.7.4-.7.8v1.1c0 .4.3.8.7.8.4 0 .7-.4.7-.8z" fill="#006"/>
        <path d="M282.7 397s.3-.1.6-.1c.4.1.7.3.7.3l-.7-.9z" fill="#006"/>
        <path d="M283.4 395.8c0-.2-.1-.3-.3-.3-.1 0-.3.1-.3.3 0 .2.2.4.3.4.2 0 .3-.2.3-.4z" fill="#3cf"/>
        <path d="M277.7 397.9h1.3" fill="none" stroke="#960" stroke-linecap="round"/>
        <path d="M283.6 393.9s-1.9 1.4-1.9 2.4" fill="none" stroke="#963" stroke-linecap="round"/>
    </g>
</svg>
