<svg xmlns="http://www.w3.org/2000/svg" height="24" width="24">
    <g transform="matrix(1,0,0,-1,-264,408)" id="KDDI_D_">        <path d="M268.5 392.6c0-.9-.8-1.6-1.7-1.6-.9 0-1.6.7-1.6 1.6v2c0 .9.7 1.6 1.6 1.6.9 0 1.7-.7 1.7-1.6zM283.5 392.6c0-.9.8-1.6 1.7-1.6.9 0 1.6.7 1.6 1.6v2c0 .9-.7 1.6-1.6 1.6-.9 0-1.7-.7-1.7-1.6z" fill="#f90" stroke="#960" stroke-linecap="round"/>
        <path d="M284.2 392.3c0-4.3-3.7-7.8-8.2-7.8-4.4 0-8.1 3.5-8.1 7.8v5.3h16.3z" fill="#fc6"/>
        <path d="M267.5 397.6v-1.4h12.7v-5.3c0-2.6-1.1-4.8-2.6-6.3 4 .7 7 3.9 7 7.7v5.3z" fill="#f90"/>
        <path d="M270.7 392.3v5.3h-3.2v-5.3c0-4.3 3.8-7.8 8.5-7.8.4 0 .7 0 1 .1-3.6.4-6.3 3.7-6.3 7.7z" fill="#ff9"/>
        <path d="M284.6 392.3c0-4.3-3.8-7.8-8.6-7.8-4.7 0-8.5 3.5-8.5 7.8v5.3h17.1z" fill="none" stroke="#960"/>
        <path d="M278.3 391.5s3.7.3 6-1.2c2.1-1.3 3.5-3.7 3.5-6.3 0 0-1 2-2.3 3.5-1.2 1.5-2.7 2.2-4.5 2.5-1.7.3-2.7.2-2.7.2zM273.7 391.5s-3.7.3-6-1.2a7.48 7.48 0 0 1-3.5-6.3s1.1 2 2.3 3.5c1.3 1.5 2.8 2.2 4.5 2.5 1.7.3 2.7.2 2.7.2z" fill="#333"/>
        <path d="M274.3 388.8h3.3" fill="none" stroke="#900" stroke-linecap="round"/>
        <path d="M276 391.5v1.6" fill="none" stroke="#c90" stroke-linecap="round"/>
        <path d="M279.8 394.4h2.6M272.2 394.4h-2.6" fill="none" stroke="#000" stroke-linecap="round"/>
        <path d="M277.2 407c0-.6-.6-1-1.2-1-.7 0-1.2.4-1.2 1 0 .5.5.9 1.2.9.6 0 1.2-.4 1.2-.9z"/>
        <path d="M285.7 399.2c0 4.4-3.5 7.9-9.7 7.9-6.2 0-9.7-3.5-9.7-7.9z" fill="#06f"/>
        <path d="M280.6 399.2c0 4.4-1.7 7.9-4.6 7.9-3 0-4.6-3.5-4.6-7.9z" fill="#fc0"/>
        <path d="M286.9 397.1h-21.8v2.2h21.8z" fill="#00c"/>
        <path d="M271.5 397.1h-6.4v2.2h6.4zM280.4 397.1h6.5v2.2h-6.5z" fill="#006"/>
    </g>
</svg>
