<svg xmlns="http://www.w3.org/2000/svg" height="24" width="24">
    <g transform="matrix(1,0,0,-1,-264,408)" id="KDDI_D_">        <path d="M269.2 395.3c0 .7-.7 1.3-1.4 1.3-.8 0-1.4-.6-1.4-1.3v-2.1c0-.7.6-1.3 1.4-1.3.7 0 1.4.6 1.4 1.3zM282.8 395.3c0 .7.7 1.3 1.4 1.3.8 0 1.4-.6 1.4-1.3v-2.1c0-.7-.6-1.3-1.4-1.3-.7 0-1.4.6-1.4 1.3z" fill="#960"/>
        <path d="M283.4 391.3c0-3.2-3.4-7.2-6.4-7.2h-2.1c-2.9 0-6.4 4.1-6.4 7.2v6.3c0 4 3.3 7.2 7.4 7.2 4.2 0 7.5-3.2 7.5-7.2z" fill="#960"/>
        <path d="M271.8 387c-.7 1.1-1.2 2.4-1.2 3.5v6.3c0 4 3.4 7.2 7.5 7.2.6 0 1.1-.1 1.7-.2-1.2.7-2.5 1-3.9 1-4.1 0-7.4-3.2-7.4-7.2v-6.3c0-1.8 1.1-3.9 2.7-5.4 1-1 1.3-.1.6 1.1z" fill="#c90"/>
        <path d="M278.1 404.5c2-1.3 3.3-3.5 3.3-6v-6.3c0-3.2-3.4-7.2-6.4-7.2 0 0-1-.9-.1-.9h2.1c3 0 6.4 4 6.4 7.2v6.3c0 3.3-2.2 6-5.3 6.9z" fill="#630"/>
        <path d="M274.6 387.1h2.5M276.3 395.1v-2.6" fill="none" stroke="#630" stroke-linecap="round"/>
        <path d="M278.6 397.5l3.4.2M273.4 397.5l-3.4.2" fill="none" stroke="#300" stroke-width="1.3" stroke-linecap="round"/>
        <path d="M278.1 394.8c0-.6.5-1.2 1.2-1.2s1.3.6 1.3 1.2v1.1c0 .6-.6 1.1-1.3 1.1-.7 0-1.2-.5-1.2-1.1z"/>
        <path d="M278.6 395.6c0-.2.3-.5.6-.5s.6.3.6.5c0 .3-.3.6-.6.6s-.6-.3-.6-.6z" fill="#fff"/>
        <path d="M273.9 394.8c0-.6-.5-1.2-1.2-1.2s-1.3.6-1.3 1.2v1.1c0 .6.6 1.1 1.3 1.1.7 0 1.2-.5 1.2-1.1z"/>
        <path d="M273.4 395.6c0-.2-.3-.5-.6-.5s-.6.3-.6.5c0 .3.3.6.6.6s.6-.3.6-.6z" fill="#fff"/>
        <path d="M274.5 389.8h2.8" fill="none" stroke="#930" stroke-linecap="round"/>
        <path d="M274.5 388.8h2.8" fill="none" stroke="#600" stroke-linecap="round"/>
        <path d="M276 390.6c1.3 0 2.2-.7 3.1-1.3.8-.7 2.1-2 4-2s2.9 2.5 2.9 2.5-2.2-.5-3.6-.5c-1.5 0-1.9.6-2.7 1.2-1.1.7-1.8 1.2-3.7 1.2-1.9 0-2.6-.5-3.7-1.2-.8-.6-1.2-1.2-2.7-1.2-1.4 0-3.6.5-3.6.5s1-2.5 2.9-2.5 3.2 1.3 4 2c.9.6 1.8 1.3 3.1 1.3z" fill="#300"/>
        <path d="M275.9 407.7c1.8 0 6 0 8.1-2.5 2.1-2.5 2.4-4.4 2.4-6.6 0-2.3-.6-4.2-.6-4.2s-5.7 4-8.3 6.7c-2.2 2.4-4.7 6.3-4.7 6.3s1.9.3 3.1.3z" fill="#f36"/>
        <path d="M283.8 396.3c.7 1.5-1.6 4-3.2 5-3.2 2-3.7 6.1-3.7 6.1s4.4.3 6.3-1.6c1.8-1.8 3-4.9 3.2-6.1.2-1.3-.6-5.3-.6-5.3-.4 1.3-.9 0-2 1.9z" fill="#c36"/>
        <path d="M281.9 401.7c-1 1.6-2.6 3.1-2.6 3.1s2.7 0 3.6-1c.9-.9 1.4-2.2 1.5-2.8.1-.6.3-1.6.3-1.6s-1.8.8-2.8 2.3z" fill="#f36"/>
        <path d="M272.8 407.4s1.9.3 3.1.3c1.8 0 6 0 8.1-2.5 2.1-2.5 2.4-4.4 2.4-6.6 0-2.3-.6-4.2-.6-4.2" fill="none" stroke="#933" stroke-linejoin="round"/>
        <path d="M285.8 394.4s-5.7 4-8.3 6.7c-2.2 2.4-4.7 6.3-4.7 6.3M278.3 405.8s1.7-2 3.4-3.6c2.1-1.9 4.6-3.8 4.6-3.8" fill="none" stroke="#300" stroke-linecap="round" stroke-linejoin="round"/>
        <path d="M276.1 407.7c-1.8 0-6 0-8.1-2.5-2.1-2.5-2.4-4.4-2.4-6.6 0-2.3.6-4.2.6-4.2s5.7 4 8.3 6.7c2.2 2.4 4.8 6.3 4.8 6.3s-2 .3-3.2.3z" fill="#f36"/>
        <path d="M271.4 401.3c2.3 3.2 3.4 6.3 3.4 6.3s-4.1.1-6-1.8c-1.8-1.8-3-4.9-3.2-6.1-.2-1.3.2-2.7.2-2.7s3.6 1.5 5.6 4.3z" fill="#f9c"/>
        <path d="M270.1 401.7c1 1.6 1.6 3.2 1.6 3.2s-1.7-.1-2.6-1.1c-.9-.9-1.4-2.2-1.5-2.8-.1-.6-.3-1.6-.3-1.6s1.8.8 2.8 2.3z" fill="#f69"/>
        <path d="M273.2 404.2s.2 1 1.4 1.6c1.2.7 2.3.3 2.3 1.1 0 .9-2.7.8-3.2.6-.6-.2-.4-1.6-.4-1.6z" fill="#f9c"/>
        <path d="M279.3 407.4s-2 .3-3.2.3c-1.8 0-6 0-8.1-2.5-2.1-2.5-2.4-4.4-2.4-6.6 0-2.3.6-4.2.6-4.2" fill="none" stroke="#f36" stroke-linejoin="round"/>
        <path d="M266.2 394.4s5.7 4 8.3 6.7c2.2 2.4 4.8 6.3 4.8 6.3M272.4 407.5s-.7-3.4-2.1-5.3c-1.6-2.3-4.6-3.8-4.6-3.8" fill="none" stroke="#300" stroke-linecap="round" stroke-linejoin="round"/>
    </g>
</svg>
