<svg xmlns="http://www.w3.org/2000/svg" height="24" width="24">
    <g transform="matrix(1,0,0,-1,-264,408)" id="KDDI_D_">        <path d="M268.3 403.5s-2.5-.2-3.1-2.1c-.4-1-.7-3.3-.7-4.4l3.6-.8M283.7 403.5s2.5-.2 3.1-2.1c.4-1 .7-3.3.7-4.4l-3.6-.8" fill="#cc9" stroke="#666" stroke-linecap="round"/>
        <path d="M276 384.5c3.6 0 5.2 1.6 6.3 2.8 1.1 1.2 2.2 4.7 2.2 4.7s1.1.2 2.1 1.3c.9 1 1.2 3.3.6 4.1-.6.9-2.3-.1-2.3-.1s0 1.1-.1 2.5c0 2.1-1 4.5-2.2 5.6-1.3 1.2-3.4 2-6.6 2-3.2 0-5.3-.8-6.6-2-1.2-1.1-2.1-3.5-2.2-5.6-.1-1.4-.1-2.5-.1-2.5s-1.7 1-2.3.1c-.6-.8-.3-3.1.6-4.1 1-1.1 2.1-1.3 2.1-1.3s1.1-3.5 2.2-4.7c1.1-1.2 2.7-2.8 6.3-2.8z" fill="#fc9"/>
        <path d="M265.6 397.7c-.3 0-.5-.1-.7-.2.4-.1.6-.2.6-.2s0 .1.1.4z" fill="#fc9"/>
        <path d="M287.2 397.4c-.6.9-2.3-.1-2.3-.1s0 1.1-.1 2.5c0 2.1-1 4.5-2.2 5.6-1.3 1.2-3.4 2-6.6 2h-1c2.6-.2 3.9-.9 5-2 1.3-1.1 1.9-3.2 2.3-5.6.2-1.4.4-3.4.1-5.5-.3-2.2-1.6-5.8-2.6-7-1.1-1.1-1.9-2.5-4.8-2.7.3-.1.6-.1 1-.1 3.6 0 5.2 1.6 6.3 2.8 1.1 1.2 2.2 4.7 2.2 4.7s1.1.2 2.1 1.3c.9 1 1.2 3.3.6 4.1z" fill="#f96"/>
        <path d="M264.8 397.4c.6.9 2.3-.1 2.3-.1s0 1.1.1 2.5c.1 2.1 1 4.5 2.2 5.6 1.3 1.2 3.4 2 6.6 2h1c-2.6-.2-4.4-.9-5.5-2-1.3-1.1-1.9-3.2-2.3-5.6-.2-1.4-.4-3.4-.1-5.5.3-2.2 1.6-5.8 2.6-7 1.1-1.1 2.4-2.5 5.3-2.7-.3-.1-.6-.1-1-.1-3.6 0-5.2 1.6-6.3 2.8-1.1 1.2-2.2 4.7-2.2 4.7s-1.1.2-2.1 1.3c-.9 1-1.2 3.3-.6 4.1z" fill="#ffc"/>
        <path d="M271.5 390.9s-.9-2.1-.3-4.1" fill="none" stroke="#f96" stroke-width="1.2" stroke-linecap="round"/>
        <path d="M280.5 390.9s.9-2.1.3-4.1" fill="none" stroke="#c63" stroke-width="1.2" stroke-linecap="round"/>
        <path d="M284.7 397.2s.2 1.2.1 2.6c0 2.1-1 4.5-2.2 5.6-1.2 1.1-3.2 1.9-6 2h-.4c2.6-.2 4-.9 5.1-2 1.2-1.1 1.9-3.2 2.3-5.6.2-1.4.3-3.4 0-5.5-.3-2.2-1.5-5.8-2.6-7-1-1.1-1.9-2.5-4.8-2.7.2-.1.3-.1.4-.1 3.2.2 4.6 1.7 5.7 2.8 1.1 1.2 1.9 4.8 1.9 4.8z" fill="#c63"/>
        <path d="M272.5 399.9s-1.5 0-2-.4-.9-.7-.9-.7M279.5 399.9s1.5 0 2-.4.9-.7.9-.7" fill="none" stroke="#666" stroke-width="1.2" stroke-linecap="round"/>
        <path d="M272.6 390.9s1.8-1.5 3.4-1.5c1.6 0 3.5 1.4 3.5 1.4" fill="none" stroke="#930" stroke-linecap="round"/>
        <path d="M273.8 404.3h4.2M273.8 402h4.2" fill="none" stroke="#c63" stroke-width="1.2" stroke-linecap="round"/>
        <path d="M267.4 398.1l-.3.2v-1s-1.7 1-2.3.1c-.6-.8-.3-3.1.6-4.1 1-1.1 2.1-1.3 2.1-1.3s.1-.3.3-.8h.1z" fill="#f96"/>
        <path d="M284 403.3c-.4.9-.9 1.6-1.4 2.1-1.3 1.2-3.4 2-6.6 2-3.2 0-5.3-.8-6.6-2-.5-.5-1-1.3-1.4-2.1" fill="none" stroke="#000"/>
        <path d="M267.1 397.3s-1.7 1-2.3.1c-.6-.8-.3-3.1.6-4.1 1-1.1 2.1-1.3 2.1-1.3s1-4 2.1-5.1c.2-.3.8-.6 1.1-.5 1.1-1 2.6-1.9 5.3-1.9 2.5 0 4 .8 5.1 1.7.6 0 1 .3 1.3.7 1.1 1.1 2.1 5.1 2.1 5.1s1.1.2 2.1 1.3c.9 1 1.2 3.3.6 4.1-.6.9-2.3-.1-2.3-.1" fill="none" stroke="#000" stroke-linecap="round"/>
        <path d="M284.9 397.3s0 1.1-.1 2.5c0 1.2-.3 2.4-.8 3.5M268 403.3c-.5-1.1-.8-2.4-.8-3.5-.1-1.4-.1-2.5-.1-2.5" fill="none" stroke="#333" stroke-linecap="round"/>
        <path d="M276.4 395.6v-2.2" fill="none" stroke="#f96" stroke-width="1.2" stroke-linecap="round"/>
        <path d="M281.8 396.7c0-.8-.6-1.5-1.2-1.5-.7 0-1.2.7-1.2 1.5s.5 1.5 1.2 1.5c.6 0 1.2-.7 1.2-1.5zM270.3 396.7c0-.8.5-1.5 1.1-1.5.7 0 1.2.7 1.2 1.5s-.5 1.5-1.2 1.5c-.6 0-1.1-.7-1.1-1.5zM277 387.5c0-.3-.4-.5-1-.5-.5 0-.9.2-.9.5 0 .2.4.4.9.4.6 0 1-.2 1-.4z" fill="#f96"/>
        <path d="M281.2 396.3c0-.9-.5-1.6-1.2-1.6s-1.3.7-1.3 1.6c0 .9.6 1.7 1.3 1.7.7 0 1.2-.8 1.2-1.7z"/>
        <path d="M280.8 396.7c0-.3-.2-.5-.5-.5-.2 0-.4.2-.4.5s.2.5.4.5c.3 0 .5-.2.5-.5z" fill="#fff"/>
        <path d="M273.3 396.3c0-.9-.6-1.6-1.3-1.6-.7 0-1.2.7-1.2 1.6 0 .9.5 1.7 1.2 1.7s1.3-.8 1.3-1.7z"/>
        <path d="M272.9 396.7c0-.3-.2-.5-.5-.5-.2 0-.4.2-.4.5s.2.5.4.5c.3 0 .5-.2.5-.5z" fill="#fff"/>
    </g>
</svg>
