<svg xmlns="http://www.w3.org/2000/svg" height="24" width="24">
    <g transform="matrix(1,0,0,-1,-264,408)" id="KDDI_D_">        <path d="M276 384.5c3.6 0 5.2 1.4 6.3 2.4 1.1 1 2.2 5.9 2.2 5.9s1.1.1 2.1 1c.9 1 1.2 2.9.6 3.6-.6.7-2.3-.2-2.3-.2s0-.8-.1.3c0 1.9-1 3.9-2.2 4.9-1.3 1-3.4 1.9-6.6 1.9-3.2 0-5.3-.9-6.6-1.9-1.2-1-2.1-3-2.2-4.9-.1-1.1-.1-.3-.1-.3s-1.7.9-2.3.2c-.6-.7-.3-2.6.6-3.6 1-.9 2.1-1 2.1-1s1.1-4.9 2.2-5.9 2.7-2.4 6.3-2.4z" fill="#fc9"/>
        <path d="M265.6 397.7c-.3-.1-.5-.1-.7-.3.4-.1.6-.2.6-.2s0 .2.1.5z" fill="#fc9"/>
        <path d="M287.2 397.4c-.6.7-2.3-.2-2.3-.2s0-.8-.1.3c0 1.9-1 3.9-2.2 4.9-1.3 1-3.4 1.9-6.6 1.9h-1c2.6-.2 3.9-1 5-1.9 1.3-1 1.9-2.8 2.3-4.9.2-1.1.4-2.8.1-4.7-.3-1.8-1.6-4.9-2.6-5.9-1.1-.9-1.9-2.1-4.8-2.3.3-.1.6-.1 1-.1 3.6 0 5.2 1.4 6.3 2.4 1.1 1 2.2 5.9 2.2 5.9s1.1.1 2.1 1c.9 1 1.2 2.9.6 3.6z" fill="#f96"/>
        <path d="M264.8 397.4c.6.7 2.3-.2 2.3-.2s0-.8.1.3c.1 1.9 1 3.9 2.2 4.9 1.3 1 3.4 1.9 6.6 1.9h1c-2.6-.2-4.4-1-5.5-1.9-1.3-1-1.9-2.8-2.3-4.9-.2-1.1-.4-2.8-.1-4.7.3-1.8 1.6-4.9 2.6-5.9 1.1-.9 2.4-2.1 5.3-2.3-.3-.1-.6-.1-1-.1-3.6 0-5.2 1.4-6.3 2.4-1.1 1-2.2 5.9-2.2 5.9s-1.1.1-2.1 1c-.9 1-1.2 2.9-.6 3.6z" fill="#ffc"/>
        <path d="M271.5 389.9s-.9-1.7-.3-3.5" fill="none" stroke="#f96" stroke-width="1.2" stroke-linecap="round"/>
        <path d="M280.5 389.9s.9-1.7.3-3.5" fill="none" stroke="#c63" stroke-width="1.2" stroke-linecap="round"/>
        <path d="M272.3 399s-1 0-1.4-.3l-.7-.7M279.7 399s1 0 1.4-.3l.7-.7" fill="none" stroke="#666" stroke-width="1.2" stroke-linecap="round"/>
        <path d="M273 389.9s1.6-1.1 3-1.1 3.2 1 3.2 1" fill="none" stroke="#900" stroke-linecap="round"/>
        <path d="M273.8 401.4h4.2M273.8 399.5h4.2" fill="none" stroke="#c63" stroke-width="1.2" stroke-linecap="round"/>
        <path d="M267.4 398l-.3.1v-.9s-1.7.9-2.3.2c-.6-.7-.3-2.6.6-3.6 1-.9 2.1-1 2.1-1s.1-2.2.3-2.6h.1z" fill="#f96"/>
        <path d="M284 400.6c-.4.7-.9 1.3-1.4 1.8-1.3 1-3.4 1.9-6.6 1.9-3.2 0-5.3-.9-6.6-1.9-.5-.5-1-1.1-1.4-1.9" fill="none" stroke="#000"/>
        <path d="M267.1 397.2s-1.7.9-2.3.2c-.6-.7-.3-3.1.6-4.1 1-.9 2.1-.5 2.1-.5s.6-4.2 2.1-5.7c1.4-1.5 3.7-2.6 6.4-2.6 2.5 0 5 1.2 6.4 2.6 1.5 1.4 2.1 5.7 2.1 5.7s1.1-.4 2.1.5c.9 1 1.2 3.4.6 4.1-.6.7-2.3-.2-2.3-.2" fill="none" stroke="#000" stroke-linecap="round"/>
        <path d="M284.9 397.2s-.4 2.5-.9 3.4M268 400.5c-.5-.9-.9-3.3-.9-3.3" fill="none" stroke="#333" stroke-linecap="round"/>
        <path d="M276.4 394v-1.9" fill="none" stroke="#f96" stroke-width="1.2" stroke-linecap="round"/>
        <path d="M281.8 395.4c0-.9-.6-1.6-1.2-1.6-.7 0-1.2.7-1.2 1.6 0 .9.5 1.6 1.2 1.6.6 0 1.2-.7 1.2-1.6zM270.3 395.4c0-.9.5-1.6 1.1-1.6.7 0 1.2.7 1.2 1.6 0 .9-.5 1.6-1.2 1.6-.6 0-1.1-.7-1.1-1.6zM277 387c0-.2-.4-.3-1-.3-.5 0-.9.1-.9.3 0 .2.4.4.9.4.6 0 1-.2 1-.4z" fill="#f96"/>
        <path d="M281.2 395c0-1-.5-1.8-1.2-1.8s-1.3.8-1.3 1.8.6 1.8 1.3 1.8c.7 0 1.2-.8 1.2-1.8z"/>
        <path d="M280.8 395.4c0-.3-.2-.5-.5-.5-.2 0-.4.2-.4.5s.2.6.4.6c.3 0 .5-.3.5-.6z" fill="#fff"/>
        <path d="M273.3 395c0-1-.6-1.8-1.3-1.8-.7 0-1.2.8-1.2 1.8s.5 1.8 1.2 1.8 1.3-.8 1.3-1.8z"/>
        <path d="M272.9 395.4c0-.3-.2-.5-.5-.5-.2 0-.4.2-.4.5s.2.6.4.6c.3 0 .5-.3.5-.6z" fill="#fff"/>
        <path d="M269.4 405c0-1.4-1.1-2.5-2.4-2.5-1.4 0-2.5 1.1-2.5 2.5 0 1.3 1.1 2.4 2.5 2.4 1.3 0 2.4-1.1 2.4-2.4z" fill="#999" stroke="#333" stroke-linecap="round"/>
        <path d="M276 402.9s-.3.7 1.5.8c1.8.1 4.8-.7 5.7-3.2.7-2.2.9-5.3.9-5.3s.3 2.6 1.3 2.9c1 .3 1.4.2 1.4.2s-.1 4.1-1.5 5.6c-1.5 1.5-3.3 3.6-9.3 3.6-6 0-7.8-2.1-9.2-3.6-1.5-1.5-1.6-5.6-1.6-5.6s.4.1 1.4-.2c1-.3 1.3-2.9 1.3-2.9s.2 3.1.9 5.3c.9 2.5 3.9 3.3 5.7 3.2 1.8-.1 1.5-.8 1.5-.8z" fill="#999"/>
        <path d="M273.1 407.5v-3.8M282.7 405.9l-.9-3.1M269.3 405.9l1-3.1M278.9 407.5v-3.8M276 407.6v-3.8" fill="none" stroke="#333" stroke-width="1.5"/>
        <path d="M276 403.2s-.3.7 1.5.8c1.8.1 5-1 5.8-3.5.8-2.2.8-5.3.8-5.3s.3 2.6 1.3 2.9c1 .3 1.4.2 1.4.2s-.6 4.1-2 5.6c-1.5 1.5-2.8 3.6-8.8 3.6-6 0-7.3-2.1-8.7-3.6-1.5-1.5-2.1-5.6-2.1-5.6s.4.1 1.4-.2c1-.3 1.3-2.9 1.3-2.9s0 3.1.7 5.3c.9 2.5 4.1 3.6 5.9 3.5 1.8-.1 1.5-.8 1.5-.8z" fill="none" stroke="#333" stroke-linecap="round" stroke-linejoin="round"/>
        <path d="M269 401.2l-2.2 2.1M268.3 399.3l-2.3 1.8M283 401.2l2.1 2M283.7 399.3l2.4 1.8" fill="#999" stroke="#333"/>
    </g>
</svg>
