<svg xmlns="http://www.w3.org/2000/svg" height="24" width="24">
    <g transform="matrix(1,0,0,-1,-264,408)" id="KDDI_D_">        <path d="M285.4 398.3c-1.3 3.9-5 6.6-9.4 6.6s-8.1-2.7-9.4-6.6c-1.2 0-2.1-1.1-2.1-2.4v-1.6c0-1.3.9-2.3 1.9-2.4 1-4.3 4.9-7.4 9.6-7.4 4.7 0 8.6 3.1 9.6 7.4 1 .1 1.9 1.1 1.9 2.4v1.6c0 1.3-.9 2.4-2.1 2.4z" fill="#fc9"/>
        <path d="M283.3 394.3c0-1.4 1-2.5 2.1-2.5 1.2 0 2.1 1.1 2.1 2.5v1.6c0 1.3-.9 2.4-2.1 2.4-1.1 0-2.1-1.1-2.1-2.4z" fill="#f96"/>
        <path d="M285.4 394c0-5.3-4.2-9.5-9.4-9.5s-9.4 4.2-9.4 9.5v1.4c0 5.3 4.2 9.5 9.4 9.5s9.4-4.2 9.4-9.5z" fill="#fc9"/>
        <path d="M268 394.2c0 5.2 4.2 9.5 9.4 9.5 2 0 3.9-.7 5.5-1.8-1.8 1.9-4.2 3-6.9 3-5.2 0-9.4-4.2-9.4-9.5V394c0-3.2 1.6-6 4-7.8-1.6 1.7-2.6 4-2.6 6.5z" fill="#ffc"/>
        <path d="M276 404.9h-1c4.7-.6 8.3-4.6 8.3-9.5V394c0-4.9-3.6-8.9-8.3-9.5h1c5.2 0 9.4 4.2 9.4 9.5v1.4c0 5.3-4.2 9.5-9.4 9.5z" fill="#f96"/>
        <path d="M276 404.9h-.3c5-.2 9-4.4 9-9.5V394c0-5.1-4-9.3-9-9.5h.3c5.2 0 9.4 4.2 9.4 9.5v1.4c0 5.3-4.2 9.5-9.4 9.5z" fill="#c63"/>
        <path d="M272.3 391.5c0-1.4-.9-2.5-2-2.5s-2 1.1-2 2.5.9 2.5 2 2.5 2-1.1 2-2.5zM279.7 391.5c0-1.4.9-2.5 2-2.5s2 1.1 2 2.5-.9 2.5-2 2.5-2-1.1-2-2.5z" fill="#f99"/>
        <path d="M274.2 390.6c0-.1-.1-.2-.1-.3 0-.9.9-1.7 2-1.7 1 0 1.9.8 1.9 1.7 0 .1-.1.2-.1.3z" fill="#c00"/>
        <path d="M285.4 398.3c-1.3 3.9-5 6.6-9.4 6.6s-8.1-2.7-9.4-6.6c-1.2 0-2.1-1.1-2.1-2.4v-1.6c0-1.3.9-2.3 1.9-2.4 1-4.3 4.9-7.4 9.6-7.4 4.7 0 8.6 3.1 9.6 7.4 1 .1 1.9 1.1 1.9 2.4v1.6c0 1.3-.9 2.4-2.1 2.4z" fill="none" stroke="#000"/>
        <path d="M274.1 395.9c0-1.1-.9-1.9-2-1.9s-1.9.8-1.9 1.9c0 1 .8 1.8 1.9 1.8 1.1 0 2-.8 2-1.8zM281.8 396c0-1.1-.8-1.9-1.9-1.9-1.1 0-2 .8-2 1.9 0 1 .9 1.8 2 1.8s1.9-.8 1.9-1.8z" fill="#f96"/>
        <path d="M273.7 394.7c0-.9-.8-1.7-1.6-1.7-.9 0-1.6.8-1.6 1.7v1c0 1 .7 1.7 1.6 1.7.8 0 1.6-.7 1.6-1.7z"/>
        <path d="M273.3 395.5c0-.4-.3-.8-.7-.8-.4 0-.7.4-.7.8s.3.7.7.7c.4 0 .7-.3.7-.7z" fill="#fff"/>
        <path d="M281.5 394.7c0-.9-.7-1.7-1.6-1.7-.8 0-1.6.8-1.6 1.7v1c0 1 .8 1.7 1.6 1.7.9 0 1.6-.7 1.6-1.7z"/>
        <path d="M281.2 395.5c0-.4-.3-.8-.7-.8-.4 0-.7.4-.7.8s.3.7.7.7c.4 0 .7-.3.7-.7z" fill="#fff"/>
        <path d="M276 407.6c-2.1 0-3.7-1.2-3.7-2.2 0-1.7 3.7-1.9 3.7-1.9s.2-1.1-.7-2c-1-.8-1.7-1.5-1.7-1.5s5.7 3 5.9 4.5c.3 1.6-.4 3.1-3.5 3.1z" fill="#fc3"/>
        <path d="M277.8 407.3c.4-.5.5-1.2.4-1.9-.1-.6-1.1-1.4-2.2-2.2 0-.3-.1-1.1-.7-1.7-1-.8-1.7-1.5-1.7-1.5s5.7 3 5.9 4.5c.2 1.2-.2 2.3-1.7 2.8z" fill="#c90"/>
        <path d="M274.7 404.4s-1.2 0-2.2.4c.4-.6 1.3-1 2.1-1.1.1.4.1.7.1.7z" fill="#fc3"/>
        <path d="M279.2 406.3c-.4.7-1.4 1.3-3.2 1.3-2.1 0-3.7-1.2-3.7-2.2 0-1.7 3.7-1.9 3.7-1.9s.2-1.1-.7-2c-1-.8-1.7-1.5-1.7-1.5" fill="none" stroke="#c90" stroke-linecap="round" stroke-linejoin="round"/>
        <path d="M273.6 400s5.7 3 5.9 4.5c.1.6.1 1.3-.3 1.8" fill="none" stroke="#960" stroke-linecap="round" stroke-linejoin="round"/>
        <path d="M275.2 405.7c0-.5-.4-.8-.9-.8s-.9.3-.9.8c0 .4.4.7.9.7s.9-.3.9-.7z" fill="#ff6"/>
        <path d="M276.5 388.7c.8.2 1.5.8 1.5 1.6 0 .1-.1.2-.1.3h-1.1z" fill="#900"/>
    </g>
</svg>
