<svg xmlns="http://www.w3.org/2000/svg" height="24" width="24">
    <g transform="matrix(1,0,0,-1,-264,408)" id="KDDI_D_">        <path d="M267.8 392.1c0-.9-.7-1.6-1.6-1.6-1 0-1.7.7-1.7 1.6v1.6c0 .9.7 1.6 1.7 1.6.9 0 1.6-.7 1.6-1.6z" fill="#fc9" stroke="#000"/>
        <path d="M284.2 392.1c0-.9.7-1.6 1.6-1.6 1 0 1.7.7 1.7 1.6v1.6c0 .9-.7 1.6-1.7 1.6-.9 0-1.6-.7-1.6-1.6z" fill="#f96" stroke="#000"/>
        <path d="M266.8 395.4v-3.1c0-4.3 3.9-7.9 8.7-7.9h1.1c4.8 0 8.7 3.6 8.7 7.9v3.1" fill="#fc9"/>
        <path d="M283.8 394h-17v1.4h17z" fill="#f96"/>
        <path d="M285.3 395.4h-2.5v-3c0-4.3-3.9-7.8-8.7-7.8.4-.1.9-.2 1.4-.2h1.1c4.8 0 8.7 3.6 8.7 7.9v3.1z" fill="#f96"/>
        <path d="M285.3 395.4h-2.5v-.1h1.2v-3.2c0-3.7-3-6.9-6.9-7.6 4.6.2 8.2 3.6 8.2 7.8v3.1z" fill="#c63"/>
        <path d="M274.1 384.6c.1-.1.2-.1.2-.1.1 0 .2.1.3.1h-.5zM275.5 384.4c-.4 0-.8.1-1.2.1-.5-.1-1-.1-1.6-.1.5-.1.9-.1 1.4-.1h1.1c.7 0 1.3 0 1.9.2-.2 0-.3-.1-.5-.1z" fill="#f96"/>
        <path d="M266.8 395.4v-3.1c0-4.3 3.9-7.9 8.7-7.9h1.1c4.8 0 8.7 3.6 8.7 7.9v3.1" fill="none" stroke="#000"/>
        <path d="M273.3 393.3c0-1.1-.6-2.1-1.3-2.1-.7 0-1.3 1-1.3 2.1s.6 2 1.3 2c.7 0 1.3-.9 1.3-2z"/>
        <path d="M272.7 393.4c0-.3-.2-.6-.5-.6-.2 0-.4.3-.4.6s.2.5.4.5c.3 0 .5-.2.5-.5z" fill="#fff"/>
        <path d="M281.2 393.3c0-1.1-.6-2.1-1.3-2.1-.7 0-1.3 1-1.3 2.1s.6 2 1.3 2c.7 0 1.3-.9 1.3-2z"/>
        <path d="M280.5 393.4c0-.3-.2-.6-.4-.6-.3 0-.5.3-.5.6s.2.5.5.5c.2 0 .4-.2.4-.5z" fill="#fff"/>
        <path d="M272.6 389.1s1-1.6 3.4-1.6c2.5 0 3.3 1.6 3.3 1.6" fill="none" stroke="#930" stroke-width="1.2" stroke-linecap="round"/>
        <path d="M287.5 395.4v2.2c0 5.5-4.5 10-10 10h-3c-5.5 0-10-4.5-10-10v-2.2z" fill="#fc0"/>
        <path d="M279.1 407.6h-2.5c-.2 0-.4 0-.6-.1 4.4-.3 7.9-4.6 7.9-9.9v-2.2h3.6v2.2c0 5.5-3.8 10-8.4 10z" fill="#f90"/>
        <path d="M272.9 407.6c-4.6 0-8.3-4.5-8.3-10v-2.2h3.6v2.2c0 5.3 3.4 9.6 7.8 9.9-.2.1-.4.1-.6.1z" fill="#ff6"/>
        <path d="M287.5 395.4v2.2c0 5.5-4.5 10-10 10h-3c-5.5 0-10-4.5-10-10v-2.2z" fill="none" stroke="#000"/>
        <path d="M280.3 402.5H277v3.3h-2v-3.3h-3.3v-2.1h3.3v-3.3h2v3.3h3.3z" fill="#360"/>
    </g>
</svg>
