<svg xmlns="http://www.w3.org/2000/svg" height="24" width="24">
    <g transform="matrix(1,0,0,-1,-264,408)" id="KDDI_D_">        <path d="M276 387.9c1.4 0 8.8-.3 10.7.2 1.4.4 1.1 1.7 1.1 2.2 0 1.4-.8 2.7-1.5 3 .2 2.2-1 3.6-1.5 4.5-.2 1.8-.9 3.3-2.3 4.6-1.9 1.8-3.9 2.4-6.5 2.5-2.6 0-4.6-.7-6.5-2.5-1.4-1.3-2.1-2.8-2.2-4.6-.6-.9-1.8-2.3-1.6-4.5-.7-.3-1.5-1.6-1.5-3 0-.5-.3-1.8 1.1-2.2 1.9-.5 9.3-.2 10.7-.2z" fill="#c60"/>
        <path d="M283.1 392.5c-.7-2.7-3.4-4.6-5.1-4.1-1.7.4-1.7 3.4-.9 6.1.7 2.7 2.6 4.5 4.3 4.2 2-.4 2.5-3.4 1.7-6.2z" fill="#930"/>
        <path d="M282.3 396.3c0 2.8-.8 5.4-2.2 7.7-1.2.6-2.5.8-4.1.9-2.6 0-4.6-.7-6.5-2.5-1.4-1.3-2.1-2.8-2.2-4.6-.6-.9-1.8-2.3-1.6-4.5-.7-.3-1.5-1.6-1.5-3 0-.5-.3-1.8 1.1-2.2 1.9-.5 9.3-.2 10.7-.2.5 0 6.3 5.2 6.3 8.4z" fill="#f90"/>
        <path d="M278.4 392.1c0-2.4-1.9-4.3-4.2-4.3-2.3 0-4.2 1.9-4.2 4.3s1.9 4.4 4.2 4.4c2.3 0 4.2-2 4.2-4.4z" fill="#c60"/>
        <path d="M279.2 401.2s-2.6-2.2-4.1-2.6c-1.5-.4-5-.9-5-.9s-.4-4.7.5-6c1-1.3 2.6-3 5.4-3 2.7 0 5.2 2.1 5.7 3.3.7 1.6.4 5.8.4 5.8s-1.2.8-1.7 1.3c-.5.6-1.2 2.1-1.2 2.1z" fill="#fc9"/>
        <path d="M276.1 393.4l-.3-.4" fill="none" stroke="#c96" stroke-width=".922" stroke-linecap="round"/>
        <path d="M279.5 398.1h-1.1" fill="none" stroke="#666" stroke-width=".798" stroke-linecap="round"/>
        <path d="M274.7 395.6c0-.9-.8-1.6-1.8-1.6s-1.7.7-1.7 1.6c0 1 .7 1.7 1.7 1.7s1.8-.7 1.8-1.7zM280.8 395.6c0-.9-.8-1.6-1.7-1.6-1 0-1.8.7-1.8 1.6 0 1 .8 1.7 1.8 1.7.9 0 1.7-.7 1.7-1.7z" fill="#666"/>
        <path d="M280.1 396.1s-.1-.2-1.1-.2-2 1.1-2 1.1 1.2-.3 2.1-.1c1 .3 1-.8 1-.8z"/>
        <path d="M280.5 395c0-.7-.6-1.2-1.5-1.2-.8 0-1.4.5-1.4 1.2v.8c0 .7.6 1.3 1.4 1.3.9 0 1.5-.6 1.5-1.3z"/>
        <path d="M279.5 395.9c0-.3-.3-.5-.7-.5-.4 0-.7.2-.7.5s.3.6.7.6c.4 0 .7-.3.7-.6z" fill="#fff"/>
        <path d="M274 396.1s-.1-.2-1.1-.2c-1.1 0-2 1.1-2 1.1s1.2-.3 2.1-.1c.9.3 1-.8 1-.8z"/>
        <path d="M274.4 395c0-.7-.7-1.2-1.5-1.2s-1.5.5-1.5 1.2v.8c0 .7.7 1.3 1.5 1.3s1.5-.6 1.5-1.3z"/>
        <path d="M273.4 395.9c0-.3-.3-.5-.7-.5-.4 0-.8.2-.8.5s.4.6.8.6.7-.3.7-.6z" fill="#fff"/>
        <path d="M275.1 391.7h1.9s-.2-.9-.9-.9-1 .9-1 .9z" fill="#c00"/>
        <path d="M282.3 384l-3.7 2.5v3.1h-4.3v-3.2l-3.8-2.4z" fill="#fc9"/>
        <path d="M274.3 388.9v-2.5l-3.8-2" fill="none" stroke="#f90" stroke-linecap="round"/>
        <path d="M274.2 389c.5-.2 1.1-.3 1.8-.3.9 0 1.8.2 2.6.6" fill="none" stroke="#f96" stroke-linecap="round"/>
        <path d="M277.9 389.1c1.9.6 3.4 2 3.8 2.9.7 1.6.4 5.8.4 5.8h-.1" fill="none" stroke="#f93" stroke-linecap="round"/>
        <path d="M270 397.3s-.3-4.3.4-5.6" fill="none" stroke="#f93" stroke-linecap="round" stroke-linejoin="round"/>
        <path d="M282.6 397.6s-1.7 1-2.2 1.5c-.5.6-1.2 2.1-1.2 2.1s-2.7-1.9-4.1-2.6c-1.8-.8-5.1-1.3-5.1-1.3" fill="none" stroke="#930" stroke-linecap="round" stroke-linejoin="round"/>
        <path d="M270.4 391.7c.6-1.1 1.9-2.2 3.8-2.7" fill="none" stroke="#f93" stroke-linecap="round"/>
        <path d="M279.6 403.4s-.1-1.5-.5-2.4M268.6 397.2l1.4.1" fill="none" stroke="#930" stroke-linecap="round" stroke-linejoin="round"/>
        <path d="M270.4 401.9s-1.1-.2-1.6-1.1c-.3-.7-.5-1.4 0-2 .3-.5 1-.6 1.3-.3.2.3-.8.7-.4 1.3.3.7 2 1.9.7 2.1z" fill="#ff6"/>
        <path d="M268 387.7s4.8.5 5.4.1c.6-.4 1-3.2 1.4-3.4.3-.3-5.6.5-5.6.5zM284 387.7s-4.8.5-5.4.1c-.6-.4-1-3.2-1.3-3.4-.4-.3 5.5.5 5.5.5z" fill="#f9c" stroke="#ccf"/>
        <path d="M287.5 384c0 1.8-.8 3.6-1.5 4.3-.7.7-2 .7-2.7.7-.8 0-1.5-2.6-2.5-3.3-1.1-.8-2.6-1.3-4.8-1.3-2.2 0-3.7.5-4.7 1.3-1.1.7-1.8 3.3-2.5 3.3-.8 0-2 0-2.8-.7-.7-.7-1.5-2.5-1.5-4.3" fill="#f9c"/>
        <path d="M280.8 385.7c-1-.7-2.3-1.1-4-1.3h.8c2.2 0 3.7.5 4.7 1.3 1 .6 1.6 2.8 2.3 3.2-.5.1-1 .1-1.3.1-.8 0-1.5-2.6-2.5-3.3zM266 388.3c-.7-.7-1.5-2.5-1.5-4.3h1.6c0 1.8.8 3.6 1.5 4.3.4.3.9.5 1.4.6-.1.1-.2.1-.2.1-.8 0-2 0-2.8-.7z" fill="#fcf"/>
        <path d="M287.5 384c0 1.8-.8 3.6-1.5 4.3-.7.7-2 .7-2.7.7-.8 0-1.5-2.6-2.5-3.3-1.1-.8-2.6-1.3-4.8-1.3-2.2 0-3.7.5-4.7 1.3-1.1.7-1.8 3.3-2.5 3.3-.8 0-2 0-2.8-.7-.7-.7-1.5-2.5-1.5-4.3" fill="none" stroke="#99c"/>
        <path d="M272.3 405.9l.6 1.7 1.8-1.9-2.4.2M279.8 405.9l-.7 1.7-1.8-1.9 2.5.2M274.9 405.7l1.1 2.3.9-2.1z" fill="#fc0"/>
        <path d="M280.3 403.3s-.2 1.9.4 2.5c.6.7 1.8 2.2 1.8 2.2l-3.7-1.9-1.1 1.7-1.7-1.8-1.7 1.8-1.1-1.7-3.7 1.9s1.3-1.5 1.8-2.2c.6-.6.5-2.5.5-2.5z" fill="#c90"/>
        <path d="M282.5 408l-1.5-.8c-.4-.4-.9-1-1.2-1.4-.6-.6-.4-2.5-.4-2.5h.9s-.2 1.9.4 2.5c.6.7 1.8 2.2 1.8 2.2z" fill="#960"/>
        <path d="M271.3 405.8c.6-.6.5-2.5.5-2.5h.9s.1 1.9-.4 2.5c-.3.4-.8.9-1.2 1.3l-1.6.9s1.3-1.5 1.8-2.2z" fill="#fc0"/>
        <path d="M277.7 407.8l-.8-.8s-.1-1.1-.1-1.8c-.1-.6-.1-1.9-.1-1.9h2s0 1.4.1 1.9c0 .4.2.7.3 1l-.3-.1z" fill="#960"/>
        <path d="M271.8 403.3h8.5s-.1.2-.1.5h-8.4v-.5z" fill="#630"/>
    </g>
</svg>
