<svg xmlns="http://www.w3.org/2000/svg" height="24" width="24">
    <g transform="matrix(1,0,0,-1,-264,408)" id="KDDI_D_">        <path d="M274 392.8s-.5-3.3.3-3.3c.7 0 2.9 2.8 2.9 2.8" fill="#06f"/>
        <path d="M276.5 392.4c-.3-.4-1.7-2.2-2.5-2.6 0-.2.1-.3.3-.3.7 0 2.9 2.8 2.9 2.8z" fill="#03c"/>
        <path d="M286.8 388.6c-.5 1.5-2.9 3.4-3.1 4.2-.2.7-2.8 5.4-6.7 7.7.1 1.8.2 6.5.2 6.9-.1.4-.6.5-1.8.1-1-.3-4-4.7-4.7-5.8-3.1-.4-5.3-2.5-5.9-4.7-.4-1.1 0-3.2 0-4.1 0-.8-1-3.3-.6-3.6.4-.2 1.6 2.1 2.2 2.1.6 0 2.1.4 2.1.4s4.5.7 5.5.6c1-.1 5.6-1.1 5.4-2.1 0-.3-1.5-1.6-2.2-2.8-1.1-1.7-1.6-3.5-1.2-3.5.8 0 4.5 4.2 5.9 4.2 1.4 0 5.8-4.5 6.1-4.2.3.3-.6 3.1-1.2 4.6z" fill="#09f"/>
        <path d="M281.9 388.2c1.1 0 3.7-2.5 5.1-3.6-.2 1.4-.7 3.5-2.3 5.5-.9 1.1-4.3 4.1-6.3 4.5-2 .4-3.6.3-4.4-.5-.5-.5.8-1.3 2.3-1.6 1.5-.4 3.1-1 3.6-1.6.5-.3.6-1.2.3-1.8-.4-.6-1.6-1.4-2.5-2.8-.5-.6-.7-1.2-.7-1.7 1.4 1.2 3.8 3.6 4.9 3.6z" fill="#06f"/>
        <path d="M267.4 392.2c-.4.6 1.6 2.9 4.9 3.1 3.2.3 5.1-.6 6-1.2.8-.6 1.9-2.1 1.8-2.7-.1-.6-2.2.8-3.3 1-1 .3-1.7.6-2.8.6-1.5 0-2.8-.4-3.8-.5-1-.1-2.4-.9-2.8-.3z" fill="#fff"/>
        <path d="M280.1 391.4c.1.6-1 2.1-1.8 2.7-.4.2-.8.5-1.5.7-1.2.1-2.2-.1-2.8-.7-.3-.3.2-.8 1.1-1.2.6-.2 1.1-.3 1.7-.5.5-.1 1-.4 1.6-.6l.6-.3c.6-.2 1-.4 1.1-.1z" fill="#cff"/>
        <path d="M269.3 395.1s-1-5.8-.3-6.1c.8-.3 4.8 6.8 4.8 6.8" fill="#09f"/>
        <path d="M277 400.5c.1 1.8.2 6.5.2 6.9-.1.1-.1.2-.3.3-.6-1.3-2.1-6.5-2-6.9.1-.5 1.9-1 3.5-2.4 1-.8 3-2.8 4.3-3.8-1.1 1.8-3.1 4.4-5.7 5.9zM269.1 389c1 .3 4.7 6.8 4.7 6.8l-.9-.2z" fill="#06f"/>
        <path d="M277.2 406.5c-.4-1.4-1.4-5.1-1.2-5.4.1-.2.6-.4 1-.5.1 1.4.2 4.4.2 5.9z" fill="#03c"/>
        <path d="M268 399.6c1 .8 3.7 1.2 4 .1.4-1-1.1-1.6-2.2-2.3-1.1-.8-2.8-2.4-3.5-1.8-.7.6 0 2.4 1.7 4z" fill="#3cf"/>
        <path d="M267.4 395.8c0-.5-.4-.8-.9-.8-.4 0-.8.3-.8.8 0 .4.4.8.8.8.5 0 .9-.4.9-.8z"/>
        <path d="M286.1 385.3c0 .5-.2 1-.7 1.7-.6.7-2.5 2.2-3.5 2.1-1-.2-1.6-.8-2.6-1.8-.7-.5-1.1-1.4-1.4-1.9 1.4 1.2 3.1 2.8 4 2.8.9 0 2.8-1.7 4.2-2.9z" fill="#03c"/>
        <path d="M272 401.7c.5.3 2.6 4.5 4 5.6.2.1.4.3.4.5-.2 0-.6-.1-1-.3-1-.3-4-4.7-4.7-5.8-.1 0 .8-.4 1.3 0z" fill="#3cf"/>
    </g>
</svg>
