<svg xmlns="http://www.w3.org/2000/svg" height="24" width="24">
    <g transform="matrix(1,0,0,-1,-264,408)" id="KDDI_D_">        <path d="M276 394.9h5.3v-9.6l-3.3-1v7.7l-2.1-2.2-1.5-3.5-2.5-.7h-1.3l2.2 5.2 3.2 3.1z" fill="#00c"/>
        <path d="M278 392v-7.7l.7.2v6.9zM276.7 393.9v1h-.7v-1l-3.2-3.1-2.2-5.2h.7l2.1 5.2z" fill="#03f"/>
        <path d="M275.2 389.8l-1.5-3.5-2.4-.7h.6l2.5.7 1.5 3.5 2.1 2.2h-.7zM280.6 394.9v-9.6l-2.6-.8v-.2l3.3 1v9.6z" fill="#009"/>
        <path d="M274.4 386.6l-2.4-.8h-.8c-1 0-1.7-.7-1.7-1.6v-.2h2.5l2.4.8z" fill="#333"/>
        <path d="M270.1 384h1.9l2.4.8v1l-1.8-.6h-.8c-.8 0-1.5-.5-1.7-1.2z"/>
        <path d="M282.4 384v.2c0 .7-1 1.4-2.2 1.4-1.3 0-2.3-.7-2.3-1.4 0-.1.1-.1.1-.2z" fill="#333"/>
        <path d="M280.7 385.5c-1-.1-1.7-.7-1.7-1.3v-.2h3.4v.2c0 .6-.7 1.2-1.7 1.3z"/>
        <path d="M269.1 406.8c0-.7-.6-1.3-1.3-1.3h-.1c-.7 0-1.3.6-1.3 1.3 0 .6.6 1.2 1.3 1.2h.1c.7 0 1.3-.6 1.3-1.2z" fill="#fc6"/>
        <path d="M268.4 407.8c-.6 0-1.1-.5-1.1-1.2 0-.5.3-.9.7-1.1.6.1 1.1.6 1.1 1.3 0 .4-.3.8-.7 1z" fill="#f90"/>
        <path d="M281.6 402.6h-5.8l-6.7 4.8-1.9-2 7.8-5.5 1-5h5.2v5.1h.8c.4 0 .9 0 .9-.6v-2.6c0-1-1-.8-1-.8v-2.2h.7c1.2 0 2.8.7 2.8 2.2v2.9c0 2.9-1.6 3.7-3.8 3.7z" fill="red"/>
        <path d="M267.7 405.4l-.3.3-.2-.3 7.8-5.5 1-5h.5l-1 5z" fill="#f66"/>
        <path d="M275.8 402.6l-6.7 4.8-.3-.3 6.3-4.5h.7zM283.6 402.3c-.6.2-1 .1-.4-.2.9-.5 1.4-1.5 1.4-3.2V396c0-.7-.3-1.3-.8-1.6-.6-.4-.3-.6.1-.4.8.4 1.5 1 1.5 2v2.9c0 1.9-.7 2.9-1.8 3.4zM281.2 396v4h-.8v-5.1h.8z" fill="#900"/>
        <path d="M282.5 396.1c.1-.1.2-.1.3-.1.3 0 .6.3.6.6v2.7c0 .4-.3.6-.6.6h-.2c.2-.1.3-.2.3-.5v-2.6c0-.4-.2-.6-.4-.7z" fill="#f66"/>
        <path d="M281.9 395.9s-.1.1-.2.1h-.2c-.7 0-1.2-.5-1.2-1.1 0-.6.5-1.1 1.2-1.1h.2c.1 0 .2.1.2.1z" fill="#fc6"/>
        <path d="M281.5 395.3c-.5 0-1-.3-1.2-.8.2-.4.7-.7 1.2-.7h.2c.1 0 .2.1.2.1v1.3s-.1.1-.2.1z" fill="#f90"/>
        <path d="M281.4 405.5c0-1.3-1.5-2.4-3.4-2.4-1.8 0-3.4 1.1-3.4 2.4 0 1.4 1.6 2.5 3.4 2.5 1.9 0 3.4-1.1 3.4-2.5z" fill="#666"/>
        <path d="M281.2 405.4c0-1.3-1.4-2.3-3.2-2.3-1.7 0-3.1 1-3.1 2.3 0 1.3 1.4 2.3 3.1 2.3 1.8 0 3.2-1 3.2-2.3z" fill="#333"/>
        <path d="M280.7 405.2c0-1.1-1.2-2-2.7-2-1.5 0-2.7.9-2.7 2s1.2 1.9 2.7 1.9c1.5 0 2.7-.8 2.7-1.9z"/>
        <path d="M278.8 401.5h-1.6v1.4h1.6z" fill="#fc6"/>
        <path d="M278.8 401.5h-1.2v1.4h1.2z" fill="#f90"/>
        <path d="M276.9 404.8v-1.5c0-.6.5-1.2 1.1-1.2.7 0 1.2.6 1.2 1.2v1.5z" fill="#fc6"/>
        <path d="M277.8 404.8c-.1-.2-.1-.6-.1-.9 0-.7.2-1.3.6-1.7.5.1.9.6.9 1.1v1.5z" fill="#f90"/>
    </g>
</svg>
