<svg xmlns="http://www.w3.org/2000/svg" height="24" width="24">
    <g transform="matrix(1,0,0,-1,-264,408)" id="KDDI_D_">        <path d="M276.9 404.3c0 2.5 1.8 3.5.8 3.5-1.7 0-4.8-2.9-7.5-5.7-2.7-2.8-6.1-7.7-6.1-7.7s4.3-4.6 5.9-5.6c1.5-1 6.3-4.8 7.6-4.8.7 0-.5 1.4-.6 2.5-.1 1.3.8 3.3 1.2 4.2.5 1.1 1.4 3.3 4.1 3.3 1.4 0 4.8-4.7 5.4-4.7.5 0-.5 4.6-.5 6 0 1.3 1.4 5.9.5 6-.9.2-3.4-3.3-5.2-3.3-1.8 0-2.8.9-3.7 2-1.1 1.4-1.9 1.8-1.9 4.3z" fill="#f90"/>
        <path d="M274.5 406.2c-1.3-1.1-2.9-2.6-4.3-4.1-1.5-1.6-3.3-3.8-4.5-5.5.6-.7.8-1.5 1.6-2.3 1-1.3 3.4-3.2 6-2.9 2.7.4 4.9 2.3 4.9 4.9-.1 2.6-1.8 3.4-2.6 5.7-.5 1.4-.4 3.2-1.1 4.2z" fill="#fc0"/>
        <path d="M279.4 393.8c-1.4-.5-2.6-6.4-4.1-6.5-.6 0-8 5.5-8.9 6.2-.6.5-1.6.9-2.2 1.1-.1-.1-.1-.2-.1-.2s4.3-4.6 5.9-5.6c1.5-1 6.3-4.8 7.6-4.8.7 0-.5 1.4-.6 2.5-.1 1.3.8 3.3 1.2 4.2.4 1.1 1.4 3.1 3.8 3.3-.6.2-1.7.1-2.6-.2z" fill="#f60"/>
        <path d="M287.7 401.3c-.9.2-3.4-3.3-5.2-3.3h-.3c-.2-.5-.4-1.4-.2-1.8.6-1.4 2.2-2.4 3.2-3.1.7-.6 1.7-1.5 2.5-1.9-.2 1.4-.5 3.3-.5 4.1 0 1.3 1.4 5.9.5 6z" fill="#fc0"/>
        <path d="M268.3 399.8c-2.2-2.6-4.2-5.4-4.2-5.4s2.3-2.4 4.2-4.1z" fill="#03f"/>
        <path d="M264.2 394.4v-.1c.5-.6 2.5-2.6 4.1-4v1.8c-.9.7-1.6 1.2-1.9 1.4-.6.5-1.6.9-2.2 1.1-.1-.1-.1-.2-.1-.2h.1z" fill="#00c"/>
        <path d="M268.3 399.8c-.1 0-.2-.1-.2-.2l-.5-.5c0-.1-.1-.2-.2-.3l-.3-.3c0-.1-.1-.2-.2-.3-.1-.2-.3-.4-.4-.5-.1-.1-.1-.2-.2-.3-.1-.1-.2-.2-.2-.3-.1-.1-.2-.2-.2-.3-.1 0-.1-.1-.2-.2.6-.7.8-1.5 1.6-2.3.2-.4.6-.7 1-1z" fill="#06f"/>
        <path d="M271.7 403.6v-16c.9-.7 2.1-1.5 3.1-2.2v21c-1-.8-2.1-1.8-3.1-2.8z" fill="#03f"/>
        <path d="M274.8 387.5c-.6.4-1.8 1.2-3.1 2.1v-2c.1 0 .2-.1.3-.2.1-.1.2-.1.3-.2l.2-.2c.5-.3 1-.7 1.5-1.1.3-.2.6-.3.8-.5z" fill="#00c"/>
        <path d="M274.8 405.5c0 .3-.1.5-.3.7 0-.1 0-.1-.1-.1-.2-.2-.5-.5-.8-.7l-.2-.2c-.3-.3-.6-.6-1-.9 0-.1-.1-.1-.1-.2-.2-.2-.4-.4-.6-.5v-12.1c.5-.1 1.1-.2 1.6-.1.6.1 1.1.2 1.5.4z" fill="#06f"/>
        <path d="M280.3 393.4c.5.4 1.2.6 2 .6h.2v4c-.9 0-1.7.3-2.2.6z" fill="#03f"/>
        <path d="M282.5 398c-.5 0-.9.1-1.3.2 0-.7.1-1.7.3-2 .2-.5.6-.9 1-1.2z" fill="#06f"/>
        <path d="M280.3 394v-.6c0 .1.1.1.1.1s.1 0 .1.1c.4.2.9.3 1.5.4-.5.1-1.1.1-1.7 0z" fill="#00c"/>
        <path d="M285.2 398.2c-.3-.2-.4-.5-.2-.7.1-.2.4-.3.7-.2l2 1.2c.1.5.2.9.2 1.3zM285.5 396.5c-.3 0-.5-.2-.5-.5s.2-.5.5-.5h1.7c0 .2.1.6.1 1zM287.3 394.2l-1.6.4c-.3.1-.6-.1-.6-.3-.1-.3.1-.6.3-.7l2-.4c0 .3-.1.7-.1 1z" fill="#f90"/>
        <path d="M270.9 396.5c0-.9-.6-1.7-1.3-1.7-.7 0-1.3.8-1.3 1.7 0 1 .6 1.8 1.3 1.8.7 0 1.3-.8 1.3-1.8z"/>
        <path d="M270.3 396.5c0-.4-.3-.8-.7-.8-.3 0-.6.4-.6.8 0 .5.3.9.6.9.4 0 .7-.4.7-.9z" fill="#333"/>
        <path d="M271.6 395.1s.5.7 1.3.8c.9.1.9-1.2.9-2.5 0-1.4-.2-2-1-2-.7 0-1.2.5-1.2.5" fill="#f90"/>
    </g>
</svg>
