<svg xmlns="http://www.w3.org/2000/svg" height="24" width="24">
    <g transform="matrix(1,0,0,-1,-264,408)" id="KDDI_D_">        <path d="M272.5 398.7l-2.2 2.2 4.9 4.9" fill="none" stroke="#666" stroke-linecap="round"/>
        <path d="M271.8 398.7l-2.2 2.2 4.9 4.9" fill="none" stroke="#000" stroke-linecap="round"/>
        <path d="M276.6 398.7l-2.2 2.2 4.9 4.9" fill="none" stroke="#666" stroke-linecap="round"/>
        <path d="M275.9 398.7l-2.2 2.2 4.9 4.9" fill="none" stroke="#000" stroke-linecap="round"/>
        <path d="M280.7 398.7l-2.2 2.2 4.9 4.9" fill="none" stroke="#666" stroke-linecap="round"/>
        <path d="M280 398.7l-2.2 2.2 4.9 4.9" fill="none" stroke="#000" stroke-linecap="round"/>
        <path d="M284.8 398.7l-2.2 2.2 4.9 4.9" fill="none" stroke="#666" stroke-linecap="round"/>
        <path d="M284.1 398.7l-2.2 2.2 4.9 4.9" fill="none" stroke="#000" stroke-linecap="round"/>
        <path d="M272.5 393.3l-2.2-2.2 4.9-4.8" fill="none" stroke="#666" stroke-linecap="round"/>
        <path d="M271.8 393.3l-2.2-2.2 4.9-4.8" fill="none" stroke="#000" stroke-linecap="round"/>
        <path d="M276.6 393.3l-2.2-2.2 4.9-4.8" fill="none" stroke="#666" stroke-linecap="round"/>
        <path d="M275.9 393.3l-2.2-2.2 4.9-4.8" fill="none" stroke="#000" stroke-linecap="round"/>
        <path d="M280.7 393.3l-2.2-2.2 4.9-4.8" fill="none" stroke="#666" stroke-linecap="round"/>
        <path d="M280 393.3l-2.2-2.2 4.9-4.8" fill="none" stroke="#000" stroke-linecap="round"/>
        <path d="M284.8 393.3l-2.2-2.2 4.9-4.8" fill="none" stroke="#666" stroke-linecap="round"/>
        <path d="M284.1 393.3l-2.2-2.2 4.9-4.8" fill="none" stroke="#000" stroke-linecap="round"/>
        <path d="M269.7 396c-1.1 0-3.1 1.2-3.8 2-.8.9-1.4 2.4-1.4 2.4M269.7 396c-1.1 0-3.1-1.2-3.8-2-.8-.9-1.4-2.4-1.4-2.4" fill="none" stroke="#930" stroke-linecap="round"/>
        <path d="M288.1 394.7c0-1.1-.9-2-2-2h-14.6c-1.1 0-2 .9-2 2v2.6c0 1.1.9 2 2 2h14.6c1.1 0 2-.9 2-2z" fill="#c30"/>
        <path d="M287.2 398.9v-2.4c0-1.1-.9-2-2-2h-14.6c-.4 0-.8.1-1.1.3v-.1c0-1.1.9-2 2-2h14.6c1.1 0 2 .9 2 2v2.6c0 .7-.4 1.3-.9 1.6z" fill="#900"/>
        <path d="M286.7 396.9c0-.7-.6-1.3-1.3-1.3h-13.9c-.7 0-1.2.6-1.2 1.3 0 .7.5 1.3 1.2 1.3h13.9c.7 0 1.3-.6 1.3-1.3z" fill="#c63"/>
        <path d="M272.6 393.7c0-.3-.2-.5-.5-.5s-.5.2-.5.5v3.9c0 .2.2.5.5.5s.5-.3.5-.5z" fill="#c60"/>
        <path d="M272.1 398.1c-.3 0-.5-.3-.5-.5v-2h1v2c0 .2-.2.5-.5.5z" fill="#f90"/>
        <path d="M272.1 393.2c.3 0 .5.2.5.5v.8h-1v-.8c0-.3.2-.5.5-.5z" fill="#c30"/>
        <path d="M275.3 393.7c0-.3-.3-.5-.5-.5-.3 0-.5.2-.5.5v3.9c0 .2.2.5.5.5.2 0 .5-.3.5-.5z" fill="#c60"/>
        <path d="M274.8 398.1c-.3 0-.5-.3-.5-.5v-2h1v2c0 .2-.3.5-.5.5z" fill="#f90"/>
        <path d="M274.8 393.2c.2 0 .5.2.5.5v.8h-1v-.8c0-.3.2-.5.5-.5z" fill="#c30"/>
        <path d="M277.9 393.7c0-.3-.2-.5-.5-.5s-.5.2-.5.5v3.9c0 .2.2.5.5.5s.5-.3.5-.5z" fill="#c60"/>
        <path d="M277.4 398.1c-.3 0-.5-.3-.5-.5v-2h1v2c0 .2-.2.5-.5.5z" fill="#f90"/>
        <path d="M277.4 393.2c.3 0 .5.2.5.5v.8h-1v-.8c0-.3.2-.5.5-.5z" fill="#c30"/>
        <path d="M280.6 393.7c0-.3-.2-.5-.5-.5s-.5.2-.5.5v3.9c0 .2.2.5.5.5s.5-.3.5-.5z" fill="#c60"/>
        <path d="M280.1 398.1c-.3 0-.5-.3-.5-.5v-2h1v2c0 .2-.2.5-.5.5z" fill="#f90"/>
        <path d="M280.1 393.2c.3 0 .5.2.5.5v.8h-1v-.8c0-.3.2-.5.5-.5z" fill="#c30"/>
        <path d="M283.2 393.7c0-.3-.2-.5-.5-.5-.2 0-.5.2-.5.5v3.9c0 .2.3.5.5.5.3 0 .5-.3.5-.5z" fill="#c60"/>
        <path d="M282.7 398.1c-.2 0-.5-.3-.5-.5v-2h1v2c0 .2-.2.5-.5.5z" fill="#f90"/>
        <path d="M282.7 393.2c.3 0 .5.2.5.5v.8h-1v-.8c0-.3.3-.5.5-.5z" fill="#c30"/>
        <path d="M285.9 393.7c0-.3-.2-.5-.5-.5s-.5.2-.5.5v3.9c0 .2.2.5.5.5s.5-.3.5-.5z" fill="#c60"/>
        <path d="M285.4 398.1c-.3 0-.5-.3-.5-.5v-2h1v2c0 .2-.2.5-.5.5z" fill="#f90"/>
        <path d="M285.4 393.2c.3 0 .5.2.5.5v.8h-1v-.8c0-.3.2-.5.5-.5z" fill="#c30"/>
    </g>
</svg>
