<svg xmlns="http://www.w3.org/2000/svg" height="24" width="24">
    <g transform="matrix(1,0,0,-1,-264,408)" id="KDDI_D_">        <path d="M278.2 392.3h-5.4V384h5.4z" fill="#06f"/>
        <path d="M274.1 392.3h-1.3V384h1.3z" fill="#09f"/>
        <path d="M278.1 392.3H276V384h2.1z" fill="#039"/>
        <path d="M282.5 397.2h5.6V384h-5.6z" fill="#06f"/>
        <path d="M282.5 397.2h1.3V384h-1.3z" fill="#09f"/>
        <path d="M286.2 397.2h1.9V384h-1.9z" fill="#039"/>
        <path d="M264.1 400.3V393c0-2 1-3.6 2.7-3.6 1.8 0 3.5 1.9 4.5 2.1 1 .3 1.2-1.8 2.7-1.8h10.4c1.3 0 3.7 1.4 3.7 5.5v6.5c0 2-1.9 6.2-5.8 6.2h-5.5c-2.2 0-5.7-.4-7-4.6-.9-2.5-.8-8.5-1.5-9.8-.6-1.3-2-1.7-2 .3v6.5z" fill="#06f"/>
        <path d="M273.2 391.3c-.9.4-1.9.2-1.9.2 1 .3 1-1.8 2.8-1.8 0 0-.1 1.3-.9 1.6z" fill="#09f"/>
        <path d="M276 389.7h6.5s.3 1.8-1.4 1.8H276z" fill="#039"/>
        <path d="M264.9 399.4v.9h-.8V393c0-1.4.5-2.5 1.3-3.1-.3.6-.5 1.4-.5 2.2v7.3zM276.8 407.9c-2.2 0-5.7-.4-7-4.6-.9-2.5-.8-8.5-1.5-9.8-.5-1.2-1.7-1.6-2-.3v-.5c0-.7.6-1.3 1.4-1.3.7 0 1.3.5 1.4 1.2.3.6.4 1.7.5 3.1 1.3-.5 2.7-.9 4.2-.9 5.6 0 10.1 4.6 10.1 10.2 0 2.3-1.2 2.9-1.6 2.9h-5.5z" fill="#09f"/>
        <path d="M274.8 402.4s.9 1.1 2.2 1.3c1.3.1 3.3-1.5 3.3-3.5 0-2.5-2.9-5.3-3.9-5.4h-1.6" fill="#039"/>
        <path d="M273.8 398.1c0-.6-.5-1.2-1.2-1.2-.6 0-1.2.6-1.2 1.2v2c0 .7.6 1.2 1.2 1.2.7 0 1.2-.5 1.2-1.2z"/>
        <path d="M273.6 394.8s-1.8-.1-2.3.5c-.5.6-.9 1.9-1.3 1.9s-.6-2.2.3-3.1c1.4-1.3 3.3-.8 3.3-.8z" fill="#ff9"/>
        <path d="M273.5 406.1c-1.7-1.1-2.1-2.8-2.1-2.8-.1-.5.2-.9.7-1 .4-.1.9.1 1 .6 0 0 .3 1.1 1.4 1.8 1.4.9 2.4.7 2.5.7.4-.1.9.2 1 .7.1.4-.2.9-.6 1-.2 0-1.9.4-3.9-1z" fill="#3cf"/>
    </g>
</svg>
