<svg xmlns="http://www.w3.org/2000/svg" height="24" width="24">
    <g transform="matrix(1,0,0,-1,-264,408)" id="KDDI_D_">        <path d="M282.5 408.1h5.5V384h-5.5z" fill="#930"/>
        <path d="M282.5 408.1h1.7V384h-1.7z" fill="#300"/>
        <path d="M280 402.2c0-1.9 1.7-3.4 3.7-3.4 2.1 0 3.7 1.5 3.7 3.4v1.8c0 1.9-1.6 3.5-3.7 3.5-2 0-3.7-1.6-3.7-3.5z" fill="#300"/>
        <path d="M270.5 397.3s-2.5-1.8-2.7-4.3c-.2-1.4-.3-4.7 1.3-6.3 1.3-1.4 3.6-2.3 6.9-2.4 3.3 0 4.9 1.8 6.3 2.1 1.3.4 4.1.9 4.4 1.9.2 1 .2 1.9-.5 2-.8.1-4.1 0-4.1 0v2.9s3.7 2 4.2 2.6c.5.6.8 2.3 0 2.3h-5.4z" fill="#f90"/>
        <path d="M282 387.9c-1.4-.4-3.2-2.2-6.9-2.1-1.4 0-2.6.4-3.7.7-1.1.2-1.6-.5-1.1-.8 1.3-.8 3.2-1.3 5.7-1.4 3.3 0 4.9 1.8 6.3 2.1 1.3.4 4.1.9 4.4 1.9.1.4.1.8.1 1.2-.6-.9-3.4-1.3-4.8-1.6zM281.8 394.6v-2.8h.3v1.4s3.7 2 4.2 2.6c.4.4.6 1.3.5 1.8l-.3-.3c-.5-.6-4.7-2.7-4.7-2.7z" fill="#c60"/>
        <path d="M270.5 397.3s-2.5-1.8-2.7-4.3c-.2-1.4-.3-4.7 1.3-6.3 1.3-1.4 3.6-2.2 6.9-2.3 3.3-.1 4.9 1.7 6.3 2 1.3.4 4.1.9 4.4 1.9.2 1 .2 1.9-.5 2-.8.1-4.1 0-4.1 0v2.9s3.7 2 4.2 2.6c.5.6.8 2.3 0 2.3h-5.4z" fill="none" stroke="#960"/>
        <path d="M283.2 407.5c-1.2 0-2.3-.6-2.8-1.6-1.2 1-2.7 1.6-4.3 1.6h-1.3c-1.7 0-3.3-.7-4.5-1.7-.5 1-1.5 1.7-2.8 1.7-1.7 0-3.2-1.4-3.2-3v-1.6c0-1.7 1.5-3.1 3.2-3.1.3 0 .5.1.8.1.4-3.1 3.2-5.6 6.5-5.6h1.3c3.3 0 6.1 2.4 6.6 5.6.1 0 .3-.1.5-.1 1.7 0 3.1 1.4 3.1 3.1v1.6c0 1.6-1.4 3-3.1 3z" fill="#f90"/>
        <path d="M265.3 403.6c0 1.5 1.2 2.7 2.7 2.7.6 0 1.2-.2 1.7-.6-.5.8-1.3 1.3-2.3 1.3-1.5 0-2.6-1.2-2.6-2.7v-1.4c0-.9.3-1.6.9-2.1-.2.4-.4.9-.4 1.4zM280.9 403.8c0 1.5 1.2 2.7 2.7 2.7.6 0 .4.7-.6.7-1.5 0-2.7-1.2-2.7-2.7V403c0-.8.4-1.6 1-2-.2.4-.4.8-.4 1.4zM269.7 394.5c-.3-.6-.5-1.2-.6-1.8-.4-1.8.1-3.8.2-3.9 0-.4.4-.5.7-.5.3.1.5.4.4.8 0 0-.4 1.8-.1 3.4 0 .4.2.9.5 1.4.2.2.1.6-.2.8-.3.1-.7 0-.9-.2z" fill="#fc6"/>
        <path d="M282.3 400.9c0-3.4-2.8-6.1-6.3-6.1h-1.1c-3.5 0-6.2 2.7-6.2 6.1 0 3.4 2.7 6.2 6.2 6.2h1.1c3.5 0 6.3-2.8 6.3-6.2z" fill="#f90"/>
        <path d="M274.8 395.1c-.1-.2.1-.5.4-.8h.9c3.3 0 6.1 2.4 6.6 5.6.1 0 .3-.1.5-.1 1.7 0 3.1 1.4 3.1 3.1v1.6c.1 1.4-1.1 2.2-1.3 2.6-1.1 0-.7-1.5-.5-2.3.2-.7-.1-1.4-.7-2-.5-.5-2.1-.6-2.1-.6s.1-3.6-2.7-5.4c-1.6-1.1-4.2-.7-4.2-1.7z" fill="#c60"/>
        <path d="M275.7 406.3h1.2c1.9 0 1.7.8-.6.8h-1.2c-3.6 0-6.4-2.9-6.4-6.4 0-1.6.5-2 .5-.7 0 3.5 2.9 6.3 6.5 6.3z" fill="#fc6"/>
        <path d="M282.7 399.9c.1 0 .3-.1.5-.1 1.7 0 3.1 1.4 3.1 3.1v1.6c0 1.6-1.4 3-3.1 3-1.2 0-2.3-.6-2.8-1.6-1.2 1-2.7 1.6-4.3 1.6h-1.3c-1.7 0-3.3-.7-4.5-1.7-.5 1-1.5 1.7-2.8 1.7-1.7 0-3.2-1.4-3.2-3v-1.6c0-1.7 1.5-3.1 3.2-3.1.3 0 .5.1.8.1.2-1.3.8-2.5 1.6-3.5" fill="none" stroke="#960"/>
        <path d="M269.9 396.4c1.3-1.3 3-2.1 4.9-2.1h1.3c3.3 0 6.1 2.4 6.6 5.6" fill="none" stroke="#930" stroke-linecap="round"/>
        <path d="M272.8 400.3c0-.6-.5-1-1-1s-.9.4-.9 1v1.1c0 .5.4.9.9.9s1-.4 1-.9zM280 400.3c0-.6-.4-1-.9-1s-.9.4-.9 1v1.1c0 .5.4.9.9.9s.9-.4.9-.9z"/>
        <path d="M277.3 398.7c0-.9-.7-1.6-1.6-1.6h-.2c-.9 0-1.7.7-1.7 1.6 0 .9.8 1.6 1.7 1.6h.2c.9 0 1.6-.7 1.6-1.6z" fill="#036"/>
        <path d="M276.2 399.5c-.9 0-1.6-.7-1.6-1.6 0-.2 0-.4.1-.6.2-.1.5-.2.8-.2h.2c.9 0 1.6.7 1.6 1.6 0 .2 0 .4-.1.6-.2.1-.5.2-.7.2z"/>
    </g>
</svg>
