<svg xmlns="http://www.w3.org/2000/svg" height="24" width="24">
    <g transform="matrix(1,0,0,-1,-264,408)" id="KDDI_D_">        <path d="M278.7 402.1v2c0 8.2 6.4-4.2 3.6.5.9-1.5.7-4.6.7-4.6h4.4s-.2-3.1-1.1-3.6c-1-.5-3.5-.9-3.5-.9s-1-4.1-1.1-5.4c0-1.4-.9-2.9-2-3.3 0 0 1.9-2.3-3.7-2.3s-3.7 2.3-3.7 2.3c-1.1.4-1.9 1.9-2 3.3-.1 1.4-1.1 5.4-1.1 5.4s-2.5.4-3.4.9c-1 .5-1.2 3.6-1.2 3.6h4.4s-.1 3.1.8 4.6c-1.5-2.5 3.5 5.5 3.5-.5v-2z" fill="#fff"/>
        <path d="M286.5 400c-.1-1-.4-2.3-1-2.6-.9-.5-3.4-.9-3.4-.9s-1-4.1-1.1-5.4c-.1-1.4-.9-2.9-2-3.3 0 0 1.8-2.3-3.7-2.3-1.7 0-2.7.2-3.3.5 0-.7.6-1.5 4-1.5 5.6 0 3.7 2.3 3.7 2.3 1.1.4 2 1.9 2 3.3.1 1.3 1.1 5.4 1.1 5.4s2.5.4 3.5.9c.9.5 1.1 3.6 1.1 3.6z" fill="#ccc"/>
        <path d="M276.9 402h-3.6v2.1c0 6-5-2-3.5.5-.9-1.5-.8-4.6-.8-4.6h-4.4s.2-3.1 1.2-3.6c.9-.5 3.4-.9 3.4-.9s.2-.6.3-1.4h3.4c2.2 0 4 1.8 4 4z"/>
        <path d="M269.2 402s.1 2 1 3.1c1.1 1.5 1.9 2.3 3 2.3.3 0 .1-1.3.1-2.6V402z" fill="#ff9"/>
        <path d="M271.8 402v2.4c0 1.4 1.1 2.2 1.1 2.2s.4-1.1.4-2.4V402z" fill="#fc3"/>
        <path d="M283 402s.2 2.1-.7 3.2c-1.2 1.5-1.6 2.1-2.8 2.1-1.2 0-.7-1.2-.7-2.5V402z" fill="#ff9"/>
        <path d="M283 402s0 1.8-.9 3l-1.6 2 .8-2.6c.3-1.2.4-2.4.4-2.4z" fill="#fc3"/>
        <path d="M280 386.3c0-1.1-1.8-2-4-2s-3.9.9-3.9 2c0 2.1 1.7 2 3.9 2s4 0 4-2z" fill="#f96"/>
        <path d="M276.7 385.4c0-.5.5-.9 1-.9.6 0 1 .4 1 .9s-.4.8-1 .8c-.5 0-1-.3-1-.8zM275.3 385.4c0-.5-.5-.9-1-.9-.6 0-1 .4-1 .9s.4.8 1 .8c.5 0 1-.3 1-.8z" fill="#930"/>
        <path d="M278.8 402.1v1.8c0 1.9-.7 3.6.5 3.6s2.1-.9 3-2.9c.6-1.6.7-4.6.7-4.6h4.4s-.2-3.1-1.1-3.6c-1-.5-3.3-.9-3.3-.9s-.9-4-1.1-5.4c-.1-1.4-.5-2.4-1.6-2.8 0 0 1.3-2.8-4.3-2.8s-4.3 2.8-4.3 2.8c-1.1.4-1.4 1.2-1.6 2.8-.2 1.4-1.1 5.4-1.1 5.4s-2.3.4-3.2.9c-1 .5-1.2 3.6-1.2 3.6h4.4s0 2.8.8 4.6c.9 2 2.3 2.9 3.4 2.9 1.2 0 0-1.5 0-3.6v-1.8z" fill="none" stroke="#333"/>
        <path d="M280.3 396c0-.6-.5-1.1-1.1-1.1-.6 0-1.1.5-1.1 1.1v1c0 .7.5 1.2 1.1 1.2.6 0 1.1-.5 1.1-1.2z"/>
        <path d="M271.7 396c0-.6.5-1.1 1.1-1.1.6 0 1.1.5 1.1 1.1v1c0 .7-.5 1.2-1.1 1.2-.6 0-1.1-.5-1.1-1.2z" fill="#fff"/>
        <path d="M273.4 396.6c0-.3-.3-.6-.6-.6s-.6.3-.6.6.3.6.6.6.6-.3.6-.6z"/>
    </g>
</svg>
