<svg xmlns="http://www.w3.org/2000/svg" height="24" width="24">
    <g transform="matrix(1,0,0,-1,-264,408)" id="KDDI_D_">        <path d="M270.5 401.6s-.5.5-1.2 1.1c-.6.6-1.9.2-2.5 1.1-.5 1 .2 1.3-.2 2.3-.5 1.1-2.1 1.4-2.1 1.4" fill="none" stroke="#c00" stroke-linecap="round"/>
        <path d="M285.3 387.2c-1.9.6-2.7 1.1-3.2 1.4.1.1.3.3.8.6 1 .5 1.7 1.5 2 2.8v.9c0 1.3-.5 2.6-1.4 3.6-1.9 2-4.5 2-6.9-.1-.9-.7-1.5-1-1.9-1.2v.3c0 .3.1.7.1 1v.8c2.5 2.5 3 6.2 1 8.6-2 2.4-5.5 2.7-8.3 1l3.1-5.4-6.1 2c-.9-2.1-.7-4.5.7-6.2 1.4-1.7 3.6-2.4 5.7-2 .1-1 .3-2 1-2.8.8-.9 3.1-2.4 7.2 1.1 1.1.9 1.4.5 1.7.3.3-.3.3-.7.3-1v-.4c-1.7-.9-2.8-2.2-2.9-3.7v-.3c0-1.2.7-2.3 1.7-3.1 1.4-.9 2.7-1.2 4.2-1.4 1-.1 3.7-.1 3.7.7.1.7-1.5 2.1-2.5 2.5z" fill="#090"/>
        <path d="M275.8 405.3c.7-.9 1.1-2.1 1.2-3.3.1 1.4-.3 2.8-1.2 3.9-2 2.4-5.5 2.7-8.3 1l.3-.5c2.7 1.6 6.1 1.2 8-1.1zM276.6 395.8c2.4 2.1 5 2.1 6.9 0 .9-.8 1.3-2 1.4-3.2v.3c0 1.3-.5 2.6-1.4 3.6-1.9 2-4.5 2-6.9-.1-.9-.7-1.5-1-1.9-1.2v.1c0-.2.2-.7.5-.6.3.1.5.4 1.4 1.1zM282.1 387.9c.2-.1 1.3-.7 3.2-1.4.9-.2 2.1-1.3 2.4-2 .1 0 .1.1.1.2.1.7-1.5 2.1-2.5 2.5-1.5.5-2.7 1.1-3.2 1.4-.3-.2-.2-.5 0-.7z" fill="#0c0"/>
        <path d="M284.2 384.9c-1.5.2-2.8.5-4.2 1.5-1 .7-1.6 1.8-1.7 2.9 0-.2 0-.3-.1-.5v-.3c0-1.2.7-2.3 1.7-3.1 1.4-.9 2.7-1.2 4.2-1.4 1-.1 3.7-.1 3.7.7.1.1 0 .3-.1.6-.7-.5-2.7-.5-3.5-.4zM281.2 393.8c0 .3-.1.7-.3 1-.3.3-.6.6-1.7-.3-4.1-3.5-6-1.9-6.8-1.1-.7.9-.9 2-.9 3-2.2-.4-4.8.1-6.2 1.8-.9 1-1.3 2.4-1.3 3.7-.2-1.7.1-3.3 1.2-4.6 1.4-1.7 3.6-2.4 5.7-2 .1-1 .3-2 1-2.8.8-.9 3.1-2.4 7.2 1.1 1.1.9 1.4.5 1.7.3.1-.2.2-.3.3-.5h.1v.4z" fill="#060"/>
        <path d="M280.4 398l-.8-4c.7.4 1 .1 1.2-.1.2-.3.3-.7.3-1l3.6 1.5c-.2.8-.6 1.5-1.2 2.1-.9.9-2 1.4-3.1 1.5zM282.1 388.6c.1.1.3.3.8.6l-4.1 1.2c-.3-.5-.5-1.1-.6-1.6v-.3c0-1 .5-2 1.3-2.7l4 2.1c-.7.3-1.1.5-1.4.7z" fill="#fc0"/>
        <path d="M282.1 388.6c-.3-.2-.2-.5 0-.7.1 0 .3-.2.8-.4l.6.4c-.7.3-1.1.5-1.4.7z" fill="#ff3"/>
        <path d="M278.3 387.7c.1-.2.2-.4.2-.6l.1-.1c.1-.2.2-.4.4-.6v-.1c.1-.2.3-.4.5-.5l.8.4c-.1 0-.2.1-.3.2-1 .6-1.6 1.7-1.7 2.8 0-.1 0-.3-.1-.4v-.3c0-.2.1-.5.1-.7v-.1zM281 393.6c0-.1 0-.2.1-.2h.1v.4c0 .3-.1.7-.3 1-.2.2-.5.5-1.1.1l-.2-.9c.4.2.7.2.9.1 0 0 .1 0 .1-.1h.1c0-.1.1-.1.1-.1.1-.1.1-.2.2-.3z" fill="#f90"/>
        <path d="M282.1 397.5s0 .1-.1.1c-.5.2-1.1.3-1.6.4l-.1-.6c1.2 0 2.3-.5 3.2-1.6.5-.4.8-.9 1-1.5l.2.1-.3.9c-.1.1-.1.2-.2.2 0 .1-.1.2-.2.3-.1.3-.3.5-.5.7-.2.2-.4.4-.7.6-.2.2-.4.3-.7.4z" fill="#ff3"/>
        <path d="M274.7 391.4l1.3 4.6c-.6-.5-1-.7-1.3-.8v.3c0 .3.1.7.1 1v.4L271 395c0-.9.3-1.8.9-2.5.5-.5 1.4-1.2 2.8-1.1z" fill="#fc0"/>
        <path d="M275.1 395.4h-.1c-.1-.1-.2-.1-.3-.2v.1c0-.2.2-.7.5-.6.2.1.3.2.5.3l.3 1c-.2-.2-.3-.3-.5-.4h-.1c-.1-.1-.2-.1-.3-.2z" fill="#ff3"/>
        <path d="M272.2 392.2l.1-.1c.1 0 .1 0 .1-.1.1 0 .1 0 .2-.1 0 0 .1 0 .1-.1.1 0 .1 0 .2-.1h.1c.1-.1.2-.1.2-.1.1 0 .1 0 .2-.1h.2c.1 0 .1-.1.2-.1h.9l.3.9c-1.3-.1-2.1.7-2.6 1.1-.5.6-.7 1.2-.8 1.9l-.6-.3v-.6c0-.1.1-.1.1-.2 0-.2 0-.3.1-.5 0-.1.1-.2.1-.3.1-.1.1-.2.2-.3.1-.2.3-.5.4-.6l.2-.2.1-.1z" fill="#f90"/>
        <path d="M273.9 404.3c0-.7-.5-1.2-1.2-1.2-.8 0-1.3.5-1.3 1.2 0 .8.5 1.3 1.3 1.3.7 0 1.2-.5 1.2-1.3z"/>
        <path d="M272.9 404.7c0-.3-.2-.5-.5-.5s-.6.2-.6.5.3.5.6.5.5-.2.5-.5z" fill="#fff"/>
    </g>
</svg>
