<svg xmlns="http://www.w3.org/2000/svg" height="24" width="24">
    <g transform="matrix(1,0,0,-1,-264,408)" id="KDDI_D_">        <path d="M267.8 403.7s-2.7 1.6-1.9 2.7c.7.9 1.4-.1 2 .1.6.1.7 1.5 1.5 1.5.9 0 1-1.2 1.5-1.4.5-.1 1.2 1.3 1.9 1 .8-.3.9-1 .5-1.6-.4-.6-2-2.1-2-2.1z" fill="red"/>
        <path d="M272.8 407.6c-.2.1-.5 0-.7-.1.1 0 .2 0 .3-.1.7-.3.9-1 .5-1.6-.3-.4-1.4-1.5-1.8-1.9h.2s1.6 1.5 2 2.1c.4.6.3 1.3-.5 1.6zM267.4 406.3c.1 0 .2.1.3.1-.5.1-1.1.7-1.6.2.4 0 .9-.5 1.3-.3zM270.5 406.5c.1-.1.3 0 .5.2-.1 0-.1-.1-.1-.1-.5.2-.6 1.4-1.5 1.4-.2 0-.3-.1-.5-.2h.1c.9 0 1-1.2 1.5-1.3z" fill="#c00"/>
        <path d="M277.9 384.7h1.8" fill="none" stroke="#630" stroke-width="1.5" stroke-linecap="round"/>
        <path d="M276.2 384.7h-1.4" fill="none" stroke="#c90" stroke-width="1.5" stroke-linecap="round"/>
        <path d="M277.9 388.8v-4.1h-1.8" fill="none" stroke="#960" stroke-width="1.5" stroke-linecap="round"/>
        <path d="M274.1 384.7h1.8" fill="none" stroke="#630" stroke-width="1.5" stroke-linecap="round"/>
        <path d="M272.4 384.7H271" fill="none" stroke="#c90" stroke-width="1.5" stroke-linecap="round"/>
        <path d="M274.1 388.8v-4.1h-1.8" fill="none" stroke="#960" stroke-width="1.5" stroke-linecap="round"/>
        <path d="M269.6 405.1c-1.9 0-3.1-1.8-3.1-3.2 0-2.8 1.5-3.5 2.1-5.3.5-1.8-.2-3.4.6-5.3.8-2 3.7-3.2 6.9-3.2s6.5 2.3 7.1 3.8c.6 1.5 3.4 2.4 3.8 4.2.4 1.9 1 6.7-.6 7-1.5.4-3.3.3-4.9-1.7-1.6-2.1-1.7-1.8-2.7-1.8-1.1 0-3.6 2.5-4.3 3.2-.7.6-1.9 2.3-4.9 2.3z" fill="#fff"/>
        <path d="M273.1 403.5c.7-.7 3-2.9 4.1-3.2-1.1.8-2.3 2-2.7 2.5-.5.4-1.2 1.3-2.6 1.9l1.2-1.2z" fill="#fff"/>
        <path d="M286.4 403.1c-.2.1-.4.1-.7.2.7-1.5.3-4.9-.1-6.4-.4-1.9-3.2-2.7-3.8-4.2-.6-1.5-3.9-3.8-7.1-3.8-1.5 0-2.9.2-4.1.7 1.3-.9 3.3-1.5 5.5-1.5 3.2 0 6.5 2.3 7.1 3.8.6 1.5 3.4 2.4 3.8 4.2.4 1.9 1 6.7-.6 7z" fill="#ccc"/>
        <path d="M269.6 404.8c-1.9-.2-3.1-1.5-3.1-2.9 0-2.8 2-3.4 2.1-5.3 0-1.1-.6-2.9.3-4.9.8-1.9 2.3-3.6 7.2-3.6 4.5 0 6.5 2.3 7.1 3.8.6 1.5 3.4 2.4 3.8 4.2.4 1.9 1.3 6.8-.3 7.2-1.6.4-3.8.3-5.2-1.9-.9-1.4-1.7-1.8-2.7-1.8-2 0-4.3 2.3-4.7 3.2-.6 1.2-2.1 2.3-4.5 2z" fill="none" stroke="#333"/>
        <path d="M279.6 397.8s1.8-1.2 1.8-1.9c0-2.3-.8-3.6-4.9-4.6" fill="none" stroke="#999" stroke-linecap="round"/>
        <path d="M267.3 402.9s-3.3-.7-3.3-1.3c0-.6 3.3-1.5 3.3-1.5z" fill="#f90"/>
        <path d="M270.8 401.9c0-.5-.5-.9-1-.9s-.9.4-.9.9c0 .6.4 1 .9 1s1-.4 1-1z"/>
        <path d="M267.3 400.1v.9c-.8 0-2.2.2-3 .2.8-.5 3-1.1 3-1.1z" fill="#c60"/>
    </g>
</svg>
