<svg xmlns="http://www.w3.org/2000/svg" height="24" width="24">
    <g transform="matrix(1,0,0,-1,-264,408)" id="KDDI_D_">        <path d="M269.7 392.1l.6-6.1h1.2l2.6 5.2z" fill="#930"/>
        <path d="M269.7 392.1v-.1l3.9-.8-2.5-5.2h.4l2.6 5.2z" fill="#630"/>
        <path d="M269.7 392.1l.6-6.1h.4l1.1 5.6zM281.9 391.3l1.4-5.3h1.8l1.6 7.9z" fill="#c63"/>
        <path d="M284.1 392.5V386h1l1.6 7.9z" fill="#930"/>
        <path d="M286 393.6l-1.5-7.6h.6l1.6 7.9z" fill="#630"/>
        <path d="M287.3 397.5v6.9" fill="none" stroke="#c63" stroke-width="1.5" stroke-linecap="round"/>
        <path d="M276.7 405.6c-2.5 0-5.3-.7-8.2-3.2-2.2-1.9-2.6-3.9-3.4-4-.5 0-1.1.2-1.1.2v-5.3s6.6-3 14.1-3 9.9 3.9 9.9 6.6c0 5.9-4.8 8.7-11.3 8.7z" fill="#c63"/>
        <path d="M285.6 402.8c.9-1.4 1.2-2.7 1.2-4 0-4.8-3.6-8.1-12.4-8.1-1.7 0-3.4.2-5 .5 2.5-.8 5.5-.9 8.7-.9 7.5 0 9.9 3.9 9.9 6.6 0 2.5-.9 4.5-2.4 5.9z" fill="#963"/>
        <path d="M265.9 397.4c.7 0 1.2 2 3.4 3.9 2.9 2.4 5.7 3.1 8.1 3.1 2.1 0 4-.3 5.6-.8 1.7-.6 2-.1.3.7-1.8.9-4.1 1.3-6.6 1.3s-5.3-.7-8.2-3.2c-2.2-1.9-2.6-3.9-3.4-4-.5 0-1.1.2-1.1.2v-5.3s.3-.2.8-.4v4.6s.6-.2 1.1-.1z" fill="#f90"/>
        <path d="M278.2 393.1c-9-.2-14.2 2.1-14.2 2.1v-1.9s6.6-3 14.1-3 9.9 3.9 9.9 6.6c0 .4 0 .4-.1.8-.4-2.4-4.6-4.5-9.7-4.6z" fill="#930"/>
        <path d="M278.1 391.3c-7.5 0-14.1 2.6-14.1 2.6v-.6s6.6-3.5 14.1-3.5 9.9 4.4 9.9 7.1c0 .3 0 .5-.1.8-.3-2.8-2.9-6.4-9.8-6.4z" fill="#630"/>
        <path d="M269.9 401.4l2.9 5.6.9-4.5" fill="#c63"/>
        <path d="M271 401.8l2.1.7-.4 2.5z" fill="#930"/>
        <path d="M265.2 398.4h-.1c-.5 0-1.1.2-1.1.2v-5.3l1.6-.8z" fill="#f66"/>
        <path d="M264.9 392.8c.2-.1.4-.1.6-.2l.1-.1-.2 2.1c-.9.4-1.4.6-1.4.6v-1.9s.3-.2.9-.5z" fill="#c03"/>
        <path d="M264.9 392.8c.2-.1.4-.1.6-.2l.1-.1-.1.9-1.5.5v-.6s.3-.2.9-.5z" fill="#900"/>
        <path d="M274.8 401.8s2.2.2 3.7.2 4.1-.6 4.1-.6M274.9 398.8h7.4M274.9 395.5h3.5c1.7 0 3.9.3 3.9.3" fill="none" stroke="#fc6" stroke-width="1.3" stroke-linecap="round"/>
        <path d="M272.2 398.2c0-1-.8-1.8-1.8-1.8s-1.8.8-1.8 1.8.8 1.8 1.8 1.8 1.8-.8 1.8-1.8z" fill="#fff"/>
        <path d="M271 398.2c0-.5-.4-.9-.9-.9s-.9.4-.9.9.4.9.9.9.9-.4.9-.9z"/>
        <path d="M271.1 395h-4.8s1-.9 2.5-1.3c1.1-.4 2.3-.6 2.3-.6z" fill="#fff"/>
        <path d="M268.8 393.7c1.1-.4 2.3-.6 2.3-.6v.7l-4.8 1.2s1-.9 2.5-1.3z" fill="#ccc"/>
    </g>
</svg>
