<svg xmlns="http://www.w3.org/2000/svg" height="24" width="24">
    <g transform="matrix(1,0,0,-1,-264,408)" id="KDDI_D_">        <path d="M269.1 407.9c-1.9 0-2.4-.9-2.8-1.4-.5-.5-2.3-.9-2.3-2 0 0-.3-2 1.4-2 1.8 0 2.3.4 2.3.4s-1.3-2.4-1.6-4.3c-.3-1.9 1-5 2.8-6 2.1-1.1 5.4-1.8 7.7-1.3 2.3.4 4.4 1.6 5 2 1.4.8 4.5 0 4.9 4.3.4 3.5-1.7 4-1.8 5.5-.2 1.5-.8 3.1-2.5 3.1-1.8 0-1.6-2.5-2.7-2.5s-.9 2.6-2.6 2.6c-1.6 0-2.4-2.2-2.9-3.5-.5-1.2-1.7-3.4-1.7-3.4s-1.3.1-1.3 1.4c0 1.4.9 3.5.8 4.5-.2 1.5-1.4 2.6-2.7 2.6z" fill="#c60"/>
        <path d="M285.4 401.1s2.6-2 2.6-4.1c0-2.1.3-5.4-.5-5.5-.8-.1.2 4.2-.4 5.4-.5 1.2-1.7 2.4-1.7 2.4z" fill="#c60"/>
        <path d="M288 397c0 2.1-2.6 4.1-2.6 4.1v-.5c.7-.7 2.1-2.1 2.1-3.6 0-1.8.2-4.6-.2-5.3 0-.1.1-.2.2-.2.8.1.5 3.4.5 5.5z" fill="#c30"/>
        <path d="M269.5 407.2c-1.8.2-2.3-.9-2.7-1.4-.4-.4-2.2-1.4-2-2 .2-.6 1.2-.4 2.1-.4.7 0 2 .9 2 .9s-1.9-4.6-1.8-6.3c0-1.7.8-2.7 2.5-3.6 1.9-1 4.2-.6 6.4-.2 2.2.4 3.5 1.1 4 1.4 1.3.7 3.7 1.2 4.4 3.2.7 2-.4 2-.5 3.3-.2 1.4-.6 3.3-1.5 3.3-.8-.1-2-3-3-3s-1.6 3-2.6 3-1.9-2.2-2.4-3.3c-.4-1.1-1.2-4.2-2.1-4.2-.9-.1-2.3 1.2-2.3 2.4 0 1.1.5 3 .7 3.9.2 1.5.4 2.8-1.2 3z" fill="#f60"/>
        <path d="M268 404.9c.3.4 1.7 1.1 1.2 1.5-.4.4-1.4-.6-1.7-.9-.3-.4-1.8-1.2-1.6-1.6.1-.3.5 0 .9.2.5.2 1 .5 1.2.8zM269.3 400.1c.1 1.6.7 3.3.8 3.6.1.6-.8 0-1.2-.6-.4-.6-1.5-3.2-1.4-4.3.1-1.1.4-2.4 1.4-2 .4.2.2 1.8.4 3.3zM273.9 396.8c1.1.1 2.9 1.1 3.4 2.3.6 1.2.5 3.2.5 3.9-.1.7-.4 1.8-.8 1.8-1.2 0-1.8-2.5-2.3-3.7-.5-1.2-1.4-3.1-1.6-3.5-.1-.5.2-.8.8-.8zM280.9 400.2c.8.1 2 3.1 2 3.7 0 .6-.3.7-.7.6-.8-.1-1.7-2.4-1.9-2.9-.2-.5-.2-1.5.6-1.4z" fill="#f90"/>
        <path d="M284.7 403.1c-.2 1.5-.8 3.1-2.5 3.1-1.8 0-1.6-2.5-2.7-2.5s-.9 2.6-2.6 2.6c-1.6 0-2.4-2.2-2.9-3.5-.5-1.2-1.7-3.4-1.7-3.4s-1.3.1-1.3 1.4c0 1.4.9 3.5.8 4.5-.2 1.5-.4 2.6-2.7 2.6-2.3 0-2.4-.9-2.8-1.4-.5-.5-2.3-.9-2.3-2 0 0-.3-2 1.4-2 1.8 0 2.3.4 2.3.4s-1.3-2.4-1.6-4.3c-.3-1.5.5-3.7 1.7-5-.9 1.3-1.6 3.9-1.4 5.1.4 1.9 2.2 5.2 2.2 5.2s-.6-.7-2.3-.9c-1-.1-1.7.1-1.9.8-.5 1.5 1.7 1.9 2.1 2.4.4.5.8 1.3 2.7 1.3 1.3 0 2-.8 2.1-2.3.2-1.1-.7-3.7-.7-5 0-1.3 1.2-1.6 1.7-1.5.5.1 1.4 2.4 1.9 3.7.5 1.2 1 3.3 2.6 3.3s1.6-2.5 2.7-2.5c1 0 1.8 2.6 2.8 2.6 1-.1 1.9-1.5 2-3 .2-1.5 2.2-2.5 1.8-6 0-.6-.2-1.1-.3-1.5.3.5.6 1.3.7 2.3.4 3.5-1.7 4-1.8 5.5z" fill="#c30"/>
        <path d="M285.9 400.9c0-.4.1-1.6 0-2.1-.4-4.3-3.5-3.3-4.9-4.2-.6-.3-2.3-1.4-4.6-1.8-2.4-.5-4.8-.7-6.8.5-1.8.9-2 .6-3.5 3.9.3-1.8 1.4-3.8 2.8-4.6 2.1-1.1 5.4-1.8 7.7-1.3 2.3.4 4.4 1.6 5 2 1.4.8 4.5 0 4.9 4.3.2 1.6-.2 2.6-.6 3.3z" fill="#c30"/>
        <path d="M281.7 394.3c-.5-.4-2.7-1.6-5.1-2-2.5-.5-5.5-.3-7.6.8-.9.5-2.1 1.9-2.6 2.9.5-1.4 1.4-2.8 2.5-3.4 2.1-1.1 5.4-1.8 7.7-1.3 2.3.4 4.4 1.6 5 2 1.3.7 4 .1 4.7 3.3-1.1-2-3.4-1.7-4.6-2.3z" fill="#930"/>
        <path d="M280.3 396s-.5-3.8 1.5-5.3c.7-.6.9-3.4.8-3.8-.1-.5-3.8-1.3-3.8-2.3 0-.7 1-.6 2.6-.6 1 0 2.6 1.6 2.8 2.9.2 1.4-1 3.4-.8 3.9.3.4 2.2 2.5 2.2 5.2 0 3.2-4.6 3.9-5.3 0z" fill="#c60"/>
        <path d="M283.4 390.8c.3.4 2.2 2.5 2.2 5.2 0 1.8-.5 1.6-.5 0 0-2.7-1.9-4.8-2.2-5.2-.2-.5 1-2.5.8-3.9-.2-1.3-1.8-2.9-2.8-2.9h.5c1 0 2.6 1.6 2.8 2.9.2 1.4-1 3.4-.8 3.9z" fill="#930"/>
        <path d="M279.9 384.7c.7.8 3.1 1.7 3.2 2.2.1.4-.2 2.9-.5 3.8-1.1 3.1-.6 5.3-.6 5.3.3 1.5 1 2.3 1.8 2.6-1.4.3-3.1-.4-3.5-2.6 0 0-.5-3.8 1.5-5.3.7-.6.9-3.4.8-3.8-.1-.5-3.8-1.3-3.8-2.3 0-.6.8-.2 1.1.1z" fill="#f90"/>
        <path d="M281.4 384c.4 0 .9.3 1.4.7-.6 0-1.5 0-2.2-.1-.8-.2-.9-.5-1-.6h1.8z" fill="#930"/>
        <path d="M279.3 384.6c0 1 3.5 1.8 3.6 2.3.1.4-.1 3.6-.8 4.1-2 1.6-1 5-1 5 .4 1.7 1.1 2.5 2.2 2.6-1.3.2-2.7-.6-3-2.6 0 0-.5-3.8 1.5-5.3.7-.6.9-3.4.8-3.8-.1-.5-3.8-1.3-3.8-2.3 0-.6.5-.5.5 0z" fill="#f60"/>
        <path d="M270.7 393.4c-.2-1.7-.2-3.2 1.8-4.4.7-.4.5-2.5.4-2.9-.1-.3-2.3-.9-2.3-1.7 0-.4 1-.4 2.7-.4 1 0 1.3.4 1.5 1.4.3 1.1-.9 3.3-.6 3.7.2.3 1.6 3.4 1.6 4.1.2 2.8-4.7 3.6-5.1.2z" fill="#c60"/>
        <path d="M271.1 384.4c0 .8 2.2 1.4 2.3 1.7 0 .2-.2.7-.4 1.3 0-.6-.1-1.1-.1-1.3-.1-.3-2.3-.9-2.3-1.7 0-.4 1-.4 2.7-.4-1.4 0-2.2.1-2.2.4z" fill="#c60"/>
        <path d="M274.8 385.4c-.2-1-.5-1.4-1.5-1.4h.4c1 0 1.4.4 1.6 1.4.2.8-.5 1.8-1 2.8.2-.9.7-2.1.5-2.8z" fill="#930"/>
        <path d="M272.8 384.5c-.9-.1-1.3-.5-1.1-.5h1.6c.7 0 1.2.2 1.4.7-.6 0-1.3-.1-1.9-.2z" fill="#930"/>
        <path d="M271.7 384.3c.3.3 1.7.7 1.9 1.7.2 1.1 0 2.7-.2 3.1-.7 1.5-1.6 1.2-1.3 4.1.2 1.7 1.9 2 1.6 2.4-1.3.2-2.8-.4-3-2.2 0-.3-.1-.6-.1-.8v-.6c.1-1.2.5-2.2 1.9-3 .7-.4.5-2.5.4-2.9-.1-.3-2.3-.9-2.3-1.7 0-.2.5-.4 1.1-.1z" fill="#f90"/>
        <path d="M271.3 384.4c0 .8 1.9 1.4 2 1.7 0 .4.3 2.5-.4 2.9-2 1.2-1.9 2.7-1.7 4.4.2 1.4 1.3 2.1 2.3 2.2-1.3.2-2.6-.5-2.8-2.2-.2-1.7-.2-3.2 1.8-4.4.7-.4.5-2.5.4-2.9-.1-.3-2.3-.9-2.3-1.7 0-.4.7-.3.7 0z" fill="#f60"/>
        <path d="M275.2 393.2c-.1-.7-1.6-2.8-1.3-4.1.1-.3.2-.6.4-.9-.1.4-.2.8-.1.9.2.3 1.6 3.4 1.6 4.1.1 1.6-.5 1.4-.6 0zM285.1 396c0-2.7-1.9-4.8-2.2-5.2v-.1h.5v.1c.3.4 2.2 2.5 2.2 5.2 0 1.8-.5 1.6-.5 0z" fill="#c30"/>
        <path d="M270.9 405.8s2-.3 2.4-1.3c.4-1-2.5-.5-2.5-.5z" fill="#c60"/>
        <path d="M270.8 404.4v-.4s2.5-.5 2.5.3c-.6-.2-1.9.1-2.5.1z" fill="#c30"/>
        <path d="M270.9 405.8v-.1h.5c-.3 0-.5.1-.5.1z" fill="#c60"/>
        <path d="M273.2 404.1c.1.1.2.2.1.4-.4 1-2.4 1.3-2.4 1.3v-.6s1.8-.3 2.3-1.1z" fill="#f60"/>
        <path d="M268.2 406c0-.3-.3-.6-.6-.6-.4 0-.6.3-.6.6 0 .4.2.6.6.6.3 0 .6-.2.6-.6z" fill="#600"/>
    </g>
</svg>
