<svg xmlns="http://www.w3.org/2000/svg" width="24" height="24">
	<g transform="translate(-264,-386)" id="KDDI_D_724">
		<g>
			<path style="stroke:#f60; stroke-width:1; fill:#ff6" d="M 287.5 407.39C 287.5 408.49 286.6 409.39 285.5 409.39L 266.5 409.39C 265.4 409.39 264.5 408.49 264.5 407.39L 264.5 388.39C 264.5 387.29 265.4 386.39 266.5 386.39L 285.5 386.39C 286.6 386.39 287.5 387.29 287.5 388.39L 287.5 407.39z"/>
			<path style="stroke:none; fill:#f00" d="M 282.5 406.39L 282.5 395.39C 282.5 391.53 280.5 389.39 276 389.39C 271.5 389.39 269.5 391.53 269.5 395.39L 269.5 406.39L 272.5 406.39L 272.5 395.39C 272.5 393.19 273 391.39 276 391.39C 279 391.39 279.5 393.19 279.5 395.39L 279.5 406.39L 282.5 406.39z"/>
			<path style="stroke:none; fill:#f00" d="M 280.5 398.903L 271.5 398.903L 271.5 396.89L 280.5 396.89L 280.5 398.903z"/>
		</g>
	</g>
</svg>
