<svg xmlns="http://www.w3.org/2000/svg" width="24" height="24">
	<g transform="translate(-264,-386)" id="KDDI_D_725">
		<g>
			<path style="stroke:#f60; stroke-width:1; fill:#ff6" d="M 287.5 407.39C 287.5 408.49 286.6 409.39 285.5 409.39L 266.5 409.39C 265.4 409.39 264.5 408.49 264.5 407.39L 264.5 388.39C 264.5 387.29 265.4 386.39 266.5 386.39L 285.5 386.39C 286.6 386.39 287.5 387.29 287.5 388.39L 287.5 407.39z"/>
			<path style="stroke:none; fill:#f00" d="M 271 398.89L 276.5 398.89C 281 398.335 282.5 396.89 282.5 393.89C 282.5 390.89 281 389.39 276.5 389.39L 271 389.39L 271 391.39L 276.5 391.39C 279 391.39 279.5 391.89 279.5 393.89C 279.5 396.39 279.5 396.89 276.5 396.89L 271 396.89"/>
			<path style="stroke:none; fill:#f00" d="M 271 398.89L 276.5 398.89C 279.5 398.89 279.5 399.39 279.5 401.89C 279.5 403.89 279 404.39 276.5 404.39L 271 404.39L 271 406.39L 276.5 406.39C 281 406.39 282.5 404.89 282.5 401.89C 282.5 398.89 281 397.445 276.5 396.89L 271 396.89"/>
			<path style="stroke:none; fill:#f00" d="M 272.5 406.39L 269.5 406.39L 269.5 389.39L 272.5 389.39L 272.5 406.39z"/>
		</g>
	</g>
</svg>
