<svg xmlns="http://www.w3.org/2000/svg" width="24" height="24">
	<g transform="translate(-264,-386)" id="KDDI_D_727">
		<g>
			<path style="stroke:#f60; stroke-width:1; fill:#ff6" d="M 287.5 407.39C 287.5 408.49 286.6 409.39 285.5 409.39L 266.5 409.39C 265.4 409.39 264.5 408.49 264.5 407.39L 264.5 388.39C 264.5 387.29 265.4 386.39 266.5 386.39L 285.5 386.39C 286.6 386.39 287.5 387.29 287.5 388.39L 287.5 407.39z"/>
			<path style="stroke:none; fill:#f00" d="M 277.5 398.89L 280 398.89C 283.956 398.89 286 396.39 286 393.89C 286 390.89 284.262 389.39 280.544 389.39L 277.5 389.39L 277.5 391.39L 280.544 391.39C 282.609 391.39 284 391.89 284 393.89C 284 395.89 282.478 396.89 280 396.89L 277.5 396.89"/>
			<path style="stroke:none; fill:#f00" d="M 277.5 398.89L 280 398.89C 282.478 398.89 284 399.89 284 401.89C 284 403.89 282.609 404.39 280.544 404.39L 277.5 404.39L 277.5 406.39L 280.544 406.39C 284.262 406.39 286 404.89 286 401.89C 286 399.39 283.956 396.89 280 396.89L 277.5 396.89"/>
			<path style="stroke:none; fill:#f00" d="M 279.978 406.39L 277.5 406.39L 277.5 389.39L 279.978 389.39L 279.978 406.39z"/>
			<path style="stroke:none; fill:#f00" d="M 275.5 406.39L 275.5 395.39C 275.5 391.53 274.192 389.39 271.077 389.39C 267.961 389.39 266.577 391.53 266.577 395.39L 266.577 406.39L 269 406.39L 269 393.39C 269 392.39 269.5 391.39 271 391.39C 272.5 391.39 273 392.39 273 393.39L 273 406.39L 275.5 406.39z"/>
			<path style="stroke:none; fill:#f00" d="M 275.05 398.903L 266.949 398.903L 266.949 396.89L 275.05 396.89L 275.05 398.903z"/>
		</g>
	</g>
</svg>
