<svg xmlns="http://www.w3.org/2000/svg" width="24" height="24">
	<g transform="translate(-264,-386)" id="KDDI_D_728">
		<g>
			<path style="stroke:none; fill:none" d="M 288 409.89L 264 409.89L 264 385.89L 288 385.89L 288 409.89z"/>
		</g>
		<g>
			<path style="stroke:none; fill:#000" d="M 268.625 394.89C 266.718 394.89 264 396.334 264 399.39C 264 403.39 265.656 409.845 270.969 409.845C 273.156 409.845 274.228 406.407 271.5 404.39C 270.594 403.72 271.21 401.68 272 400.89C 273 399.89 272.625 394.89 268.625 394.89z"/>
			<path style="stroke:none; fill:#000" d="M 283.5 391.89C 285 391.89 288 392.39 288 396.39C 288 400.793 286.387 406.585 281.167 406.585C 278.75 406.585 277.844 403.407 280.688 401.595C 281.974 400.775 281.191 398.428 280.083 397.321C 279.083 396.321 279.5 391.89 283.5 391.89z"/>
			<path style="stroke:none; fill:#000" d="M 265 391.39C 263.687 391.39 263.792 394.147 264.938 394.147C 266.25 394.147 266 391.39 265 391.39z"/>
			<path style="stroke:none; fill:#000" d="M 287.104 387.744C 285.604 387.744 286.104 390.606 287.104 390.606C 288.604 390.606 288.104 387.744 287.104 387.744z"/>
			<path style="stroke:none; fill:#000" d="M 268.5 388.89C 267 388.89 267 392.689 268.5 392.689C 270 392.689 270 388.89 268.5 388.89z"/>
			<path style="stroke:none; fill:#000" d="M 272.5 390.689C 271 390.689 271.094 393.845 272.594 393.845C 274.094 393.845 274.25 390.689 272.5 390.689z"/>
			<path style="stroke:none; fill:#000" d="M 279.188 387.939C 277.688 387.939 277.781 391.095 279.281 391.095C 280.781 391.095 280.938 387.939 279.188 387.939z"/>
			<path style="stroke:none; fill:#000" d="M 283.5 385.89C 282 385.89 282.5 389.39 283.5 389.39C 284.884 389.39 284.884 385.89 283.5 385.89z"/>
		</g>
	</g>
</svg>
