<svg xmlns="http://www.w3.org/2000/svg" width="24" height="24">
	<g transform="translate(-264,-386)" id="KDDI_D_729">
		<g>
			<path style="stroke:none; fill:none" d="M 288 409.89L 264 409.89L 264 385.89L 288 385.89L 288 409.89z"/>
		</g>
		<g>
			<path style="stroke:none; fill:#fff" d="M 264.5 402.89C 264.5 404.39 265 405.39 267 405.39C 271 405.39 283 405.39 285 405.39C 287 405.39 287.5 404.89 287.5 402.89C 287.5 399.89 287.5 394.89 287.5 393.89C 287.5 392.89 287.5 392.39 286.5 392.39C 286 392.39 286 392.89 285.5 393.39C 285 393.89 284.5 394.39 283.5 394.39C 282.75 394.39 282 392.39 280.5 392.39C 280.338 392.39 279.171 392.378 279 392.39C 277.581 392.491 276.892 393.051 276 394.39C 275 395.89 271 397.89 269.5 397.89C 268 397.89 267.5 397.89 267 397.89C 266.5 397.89 264.5 398.89 264.5 400.39C 264.5 401.89 264.5 402.89 264.5 402.89z"/>
			<path style="stroke:#333; stroke-width:1; fill:none" d="M 278 396.39C 278 396.39 280.5 397.39 280.5 403.89"/>
			<path style="stroke:#333; stroke-width:1; fill:none" d="M 276 398.39C 276 398.39 277.5 398.89 277.5 403.89"/>
			<path style="stroke:#333; stroke-width:1; fill:none" d="M 272.5 398.89C 272.5 398.89 274.5 399.39 274.5 403.89"/>
			<path style="stroke:#999; stroke-width:1; fill:none" d="M 271.5 398.89C 271 398.89 268.5 400.39 268.5 403.89"/>
			<path style="stroke:#999; stroke-width:1; fill:none" d="M 270.5 397.89C 270 397.89 265.5 399.39 265.5 403.89"/>
			<path style="stroke:#666; stroke-width:1; stroke-linecap:round; fill:none" d="M 276.5 393.89C 277 393.89 279 393.89 279.5 394.39"/>
			<path style="stroke:#666; stroke-width:1; stroke-linecap:round; fill:none" d="M 275 395.39C 275.5 395.39 277.5 395.39 278 395.89"/>
			<path style="stroke:#666; stroke-width:1; stroke-linecap:round; fill:none" d="M 273 396.89C 273.5 396.89 275.5 396.89 276 397.39"/>
			<path style="stroke:#666; stroke-width:1; stroke-linecap:round; fill:none" d="M 271 397.89C 271.5 397.89 273 397.89 273.5 398.39"/>
			<path style="stroke:#999; stroke-width:1; fill:none" d="M 281.5 392.89C 280 394.39 277.25 397.14 276.5 397.89C 275.75 398.64 275 398.89 273.5 398.89C 272.5 398.89 272 398.89 271.5 398.89C 271 398.89 270.5 398.89 270.5 397.89"/>
			<path style="stroke:none; fill:#999" d="M 264.605 403.89C 264.835 404.817 265.488 405.39 267 405.39C 271 405.39 283 405.39 285 405.39C 286.606 405.39 287.237 405.052 287.426 403.89L 264.605 403.89z"/>
			<path style="stroke:#999; stroke-width:1; fill:none" d="M 286.5 392.39L 286.5 404.39"/>
			<path style="stroke:#666; stroke-width:1; fill:none" d="M 265 404.39L 266 404.39"/>
			<path style="stroke:#666; stroke-width:1; fill:none" d="M 267 404.39L 268 404.39"/>
			<path style="stroke:#666; stroke-width:1; fill:none" d="M 269 404.39L 270 404.39"/>
			<path style="stroke:#666; stroke-width:1; fill:none" d="M 271 404.39L 272 404.39"/>
			<path style="stroke:#666; stroke-width:1; fill:none" d="M 273 404.39L 274 404.39"/>
			<path style="stroke:#666; stroke-width:1; fill:none" d="M 275 404.39L 276 404.39"/>
			<path style="stroke:#666; stroke-width:1; fill:none" d="M 277 404.39L 278 404.39"/>
			<path style="stroke:#666; stroke-width:1; fill:none" d="M 280 404.39L 281 404.39"/>
			<path style="stroke:#666; stroke-width:1; fill:none" d="M 282 404.39L 283 404.39"/>
			<path style="stroke:#666; stroke-width:1; fill:none" d="M 284 404.39L 285 404.39"/>
			<path style="stroke:#666; stroke-width:1; fill:none" d="M 286 404.39L 287 404.39"/>
			<path style="stroke:#666; stroke-width:1; fill:none" d="M 286 393.39L 287 393.39"/>
			<path style="stroke:#333; stroke-width:1; fill:none" d="M 264.5 402.89C 264.5 404.39 265 405.39 267 405.39C 271 405.39 283 405.39 285 405.39C 287 405.39 287.5 404.89 287.5 402.89C 287.5 399.89 287.5 394.89 287.5 393.89C 287.5 392.89 287.5 392.39 286.5 392.39C 286 392.39 286 392.89 285.5 393.39C 285 393.89 285 394.39 283.5 394.39C 282.75 394.39 282 392.39 280.5 392.39C 280.338 392.39 279.171 392.378 279 392.39C 277.581 392.491 276.892 393.051 276 394.39C 275 395.89 271 397.89 269.5 397.89C 268 397.89 267.5 397.89 267 397.89C 266.5 397.89 264.5 398.89 264.5 400.39C 264.5 401.89 264.5 402.89 264.5 402.89z"/>
		</g>
	</g>
</svg>
