<svg xmlns="http://www.w3.org/2000/svg" width="24" height="24">	<g transform="translate(-264,-386)" id="KDDI_D_730">
<g>
<path style="stroke:none; fill:none" d="M 288 409.89L 264 409.89L 264 385.89L 288 385.89L 288 409.89z"/>
</g>
<g>
<path style="stroke:none; fill:#f00" d="M 278.5 394.39L 278 394.39C 277.205 394.39 277.201 394.89 276 394.89C 275.69 394.89 273 394.89 273 394.89L 273 385.89C 273 385.89 274.5 385.89 275 385.89C 276 385.89 276 387.89 277.5 387.89C 278.538 387.89 278.645 387.89 279 387.89C 279.5 387.89 280 388.39 280 388.89C 280 390.09 280 392.595 280 393.39C 279.641 393.72 279.5 394.39 278.5 394.39z"/>
<path style="stroke:none; fill:#900" d="M 280 389.39C 280.5 389.39 281 389.39 281.5 389.39C 283.306 389.39 283.645 390.535 284.5 391.39C 285.5 392.39 286 392.89 286 392.89C 286 392.89 283.941 392.89 282 392.89C 280.768 392.89 280 393.39 280 393.39C 280 392.89 280 389.39 280 389.39z"/>
<path style="stroke:none; fill:#c00" d="M 284.5 391.39C 283.645 390.535 283.306 389.39 281.5 389.39C 281.333 389.39 281.167 389.39 281 389.39L 281 393.007C 281.284 392.941 281.616 392.89 282 392.89C 283.941 392.89 286 392.89 286 392.89C 286 392.89 285.5 392.39 284.5 391.39z"/>
<path style="stroke:none; fill:#f33" d="M 284.5 391.39C 283.732 390.622 283.371 389.628 282 389.431L 282 392.89C 283.941 392.89 286 392.89 286 392.89C 286 392.89 285.5 392.39 284.5 391.39z"/>
<path style="stroke:none; fill:#090" d="M 273.5 405.89C 269.91 405.89 267 407.681 267 409.89L 280 409.89C 280 407.681 277.09 405.89 273.5 405.89z"/>
<path style="stroke:none; fill:#3c0" d="M 273.5 405.89C 270.5 405.89 268 408.471 268 409.89L 279 409.89C 279 408.471 276.5 405.89 273.5 405.89z"/>
<path style="stroke:#633; stroke-width:1; fill:none" d="M 273.5 407.89L 273.5 385.89"/>
<path style="stroke:none; fill:#c00" d="M 279 387.89C 278.645 387.89 278.538 387.89 277.5 387.89C 276 387.89 276 385.89 275 385.89C 274.785 385.89 274.386 385.89 274 385.89L 274 394.89C 274.8 394.89 275.816 394.89 276 394.89C 277.201 394.89 277.205 394.39 278 394.39L 278.5 394.39C 279.5 394.39 279.641 393.72 280 393.39C 280 392.595 280 390.09 280 388.89C 280 388.39 279.5 387.89 279 387.89z"/>
<path style="stroke:none; fill:#f00" d="M 279 387.89C 278.645 387.89 278.538 387.89 277.5 387.89C 277.306 387.89 277.138 387.854 276.989 387.796C 276.931 387.773 276.886 387.734 276.834 387.705C 276.751 387.657 276.665 387.614 276.594 387.553C 276.54 387.506 276.494 387.45 276.446 387.397C 276.39 387.336 276.332 387.278 276.283 387.213C 276.232 387.144 276.185 387.073 276.139 387.002C 276.093 386.931 276.046 386.864 276.003 386.794C 276.002 386.793 276.001 386.791 276 386.789L 276 394.89C 277.201 394.89 277.205 394.39 278 394.39L 278.5 394.39C 279.5 394.39 279.641 393.72 280 393.39C 280 392.595 280 390.09 280 388.89C 280 388.39 279.5 387.89 279 387.89z"/>
<path style="stroke:none; fill:#f33" d="M 276.006 386.799C 276.004 386.796 276.002 386.792 276 386.789L 276 386.797C 276.002 386.798 276.004 386.798 276.006 386.799z"/>
<path style="stroke:none; fill:#f33" d="M 279 387.89C 278.714 387.89 278.581 387.89 278 387.89C 278 387.89 278 389.987 278 391.89C 278 394.39 276 394.89 276 394.89C 277.201 394.89 277.205 394.39 278 394.39L 278.5 394.39C 279.5 394.39 279.641 393.72 280 393.39C 280 392.595 280 390.09 280 388.89C 280 388.39 279.5 387.89 279 387.89z"/>
<path style="stroke:none; fill:#900" d="M 280 391.39C 280 393.89 278 394.39 278 394.39L 278.5 394.39C 279.5 394.39 279.641 393.72 280 393.39C 280 393.008 280 392.228 280 391.39z"/>
<path style="stroke:none; fill:#f00" d="M 283 389.788L 283 392.89C 284.587 392.89 286 392.89 286 392.89C 286 392.89 285.5 392.39 284.5 391.39C 283.961 390.851 283.625 390.198 283 389.788z"/>
</g>
</g>
</svg>
