<svg xmlns="http://www.w3.org/2000/svg" width="24" height="24">
	<g transform="translate(-288,-386)" id="KDDI_D_731">
		<g>
			<path style="stroke:none; fill:none" d="M 312 409.89L 288 409.89L 288 385.89L 312 385.89L 312 409.89z"/>
		</g>
		<g>
			<path style="stroke:none; fill:#660000" d="M 308.553 392.858L 304.99 392.858L 304.99 396.793C 304.99 403.445 299.578 408.857 292.927 408.857L 289.031 408.857L 288.031 409.857L 292.927 409.857C 300.131 409.857 305.99 404.053 305.99 396.85L 305.99 393.858L 310.978 393.858L 308.553 392.858z"/>
			<path style="stroke:none; fill:#ff6600" d="M 303.48 386.407L 303.482 387.819L 308.553 392.858L 310.978 393.858L 303.48 386.407z"/>
			<g>
				<path style="stroke:none; fill:#ff9966" d="M 303.482 387.819L 303.48 386.407L 296.031 393.858L 298.444 392.858L 303.482 387.819z"/>
				<path style="stroke:none; fill:#660000" d="M 296.031 393.858L 301.029 393.858L 302.029 392.858L 298.444 392.858L 296.031 393.858z"/>
			</g>
			<path style="stroke:none; fill:#ff9966" d="M 301.029 393.858L 301.029 396.85C 301.029 401.318 297.395 404.897 292.927 404.897L 288.031 404.897L 288.031 409.857L 289.031 408.857L 289.031 405.897L 292.927 405.897C 297.946 405.897 302.029 401.813 302.029 396.793L 302.029 392.858L 301.029 393.858z"/>
			<path style="stroke:none; fill:#ff6600" d="M 303.482 387.819L 298.444 392.858L 302.029 392.858L 302.029 396.793C 302.029 401.813 297.946 405.897 292.927 405.897L 289.031 405.897C 289.031 406.85 289.031 407.903 289.031 408.857L 292.927 408.857C 299.578 408.857 304.99 403.445 304.99 396.793L 304.99 392.858L 308.553 392.858L 303.482 387.819z"/>
		</g>
	</g>
</svg>
