<svg xmlns="http://www.w3.org/2000/svg" width="24" height="24">
	<g transform="translate(-288,-386)" id="KDDI_D_732">
		<g>
			<path style="stroke:none; fill:none" d="M 312 409.89L 288 409.89L 288 385.89L 312 385.89L 312 409.89z"/>
		</g>
		<g>
			<path style="stroke:none; fill:#003399" d="M 304.99 398.971C 304.99 392.319 299.578 386.907 292.927 386.907L 289.031 386.907L 288.031 385.907L 292.927 385.907C 300.131 385.907 305.99 391.711 305.99 398.914L 305.99 401.905L 304.99 402.905L 304.99 398.971z"/>
			<path style="stroke:none; fill:#66ccff" d="M 308.553 402.905L 304.99 402.905L 305.99 401.905L 310.978 401.905L 308.553 402.905z"/>
			<path style="stroke:none; fill:#003399" d="M 303.48 409.357L 303.482 407.944L 308.553 402.905L 310.978 401.905L 303.48 409.357z"/>
			<g>
				<path style="stroke:none; fill:#3399ff" d="M 303.482 407.944L 303.48 409.357L 296.031 401.905L 298.444 402.905L 303.482 407.944z"/>
				<path style="stroke:none; fill:#66ccff" d="M 292.927 389.867L 289.031 389.867L 288.031 390.867L 292.927 390.867C 297.395 390.867 301.029 394.445 301.029 398.914L 301.029 401.905L 296.031 401.905L 298.444 402.905L 302.029 402.905L 302.029 398.971C 302.029 393.951 297.946 389.867 292.927 389.867z"/>
			</g>
			<path style="stroke:none; fill:#3399ff" d="M 288.031 390.867L 288.031 385.907L 289.031 386.907L 289.031 389.867L 288.031 390.867z"/>
			<path style="stroke:none; fill:#3399ff" d="M 303.482 407.944L 298.444 402.905L 302.029 402.905L 302.029 398.971C 302.029 393.951 297.946 389.867 292.927 389.867L 289.031 389.867C 289.031 388.914 289.031 387.86 289.031 386.907L 292.927 386.907C 299.578 386.907 304.99 392.319 304.99 398.971L 304.99 402.905L 308.553 402.905L 303.482 407.944z"/>
		</g>
	</g>
</svg>
