<svg xmlns="http://www.w3.org/2000/svg" width="24" height="24">
	<g transform="translate(-264,-386)" id="KDDI_D_733">
		<g>
			<path style="stroke:none; fill:none" d="M 288 409.89L 264 409.89L 264 385.89L 288 385.89L 288 409.89z"/>
		</g>
		<g>
			<path style="stroke:none; fill:#900" d="M 273 392.89C 273 393.994 274.396 394.89 275.5 394.89C 276.604 394.89 278 393.994 278 392.89C 278 390.731 278.5 389.89 280.5 389.89C 283 389.89 283 390.879 283 392.39C 283 394.39 281.352 395.571 281.352 395.571C 280.415 396.269 279 397.324 279 399.39L 279 402.89C 279 403.994 279.896 404.89 281 404.89C 282.104 404.89 283 403.994 283 402.89C 283 402.89 283 399.444 283 399.408C 283.089 399.267 283.478 398.975 283.742 398.778L 284.914 397.804L 285.461 397.337C 286.411 396.575 288 395.3 288 392.39C 288 389.962 287.091 385.89 281 385.89C 276.617 385.89 273 388.506 273 392.89z"/>
			<path style="stroke:none; fill:#900" d="M 267.5 385.89C 265.575 385.89 264 387.465 264 389.39C 264 389.39 265 398.39 265.6 402.99C 265.6 404.039 266.451 404.89 267.5 404.89C 268.549 404.89 269.4 404.039 269.4 402.99C 270 398.39 271 389.39 271 389.39C 271 387.465 269.425 385.89 267.5 385.89z"/>
			<path style="stroke:none; fill:#f00" d="M 287 392.39C 287 390.027 286.125 386.119 280.467 385.91C 276.328 386.114 273 388.686 273 392.89C 273 393.832 274.016 394.617 275 394.829C 275.984 394.617 277 393.832 277 392.89C 277 390.731 277.5 389.89 279.5 389.89C 279.716 389.89 279.907 389.9 280.087 389.914C 280.222 389.904 280.349 389.89 280.5 389.89C 283 389.89 283 390.879 283 392.39C 283 394.39 281.352 395.571 281.352 395.571C 280.415 396.269 279 397.324 279 399.39L 279 402.89C 279 403.82 279.639 404.596 280.5 404.819C 281.361 404.596 282 403.82 282 402.89C 282 402.89 282 399.444 282 399.408C 282.089 399.267 282.478 398.975 282.742 398.778L 283.914 397.804L 284.461 397.337C 285.411 396.575 287 395.3 287 392.39z"/>
			<path style="stroke:none; fill:#900" d="M 269.4 407.89C 269.4 408.939 268.549 409.79 267.5 409.79C 266.451 409.79 265.6 408.939 265.6 407.89C 265.6 406.84 266.451 405.99 267.5 405.99C 268.549 405.99 269.4 406.84 269.4 407.89z"/>
			<path style="stroke:none; fill:#f00" d="M 265.771 407.561C 265.771 408.333 266.399 408.961 267.171 408.961C 267.943 408.961 268.571 408.333 268.571 407.561C 268.571 406.789 267.943 406.161 267.171 406.161C 266.399 406.161 265.771 406.789 265.771 407.561z"/>
			<path style="stroke:none; fill:#f99" d="M 266.071 407.36C 266.071 407.857 266.475 408.26 266.971 408.26C 267.467 408.26 267.871 407.857 267.871 407.36C 267.871 406.864 267.467 406.461 266.971 406.461C 266.475 406.461 266.071 406.864 266.071 407.36z"/>
			<path style="stroke:none; fill:#900" d="M 282.9 407.89C 282.9 408.939 282.049 409.79 281 409.79C 279.951 409.79 279.1 408.939 279.1 407.89C 279.1 406.84 279.951 405.99 281 405.99C 282.049 405.99 282.9 406.84 282.9 407.89z"/>
			<path style="stroke:none; fill:#f00" d="M 279.271 407.561C 279.271 408.333 279.899 408.961 280.671 408.961C 281.443 408.961 282.071 408.333 282.071 407.561C 282.071 406.789 281.443 406.161 280.671 406.161C 279.899 406.161 279.271 406.789 279.271 407.561z"/>
			<path style="stroke:none; fill:#f99" d="M 279.571 407.36C 279.571 407.857 279.975 408.26 280.471 408.26C 280.967 408.26 281.371 407.857 281.371 407.36C 281.371 406.864 280.967 406.461 280.471 406.461C 279.975 406.461 279.571 406.864 279.571 407.36z"/>
			<path style="stroke:none; fill:#f00" d="M 267 385.941C 265.312 386.187 264 387.636 264 389.39C 264 389.39 265 398.39 265.6 402.99C 265.6 403.865 266.195 404.594 267 404.815C 267.805 404.594 268.4 403.865 268.4 402.99C 269 398.39 270 389.39 270 389.39C 270 387.636 268.688 386.187 267 385.941z"/>
			<path style="stroke:none; fill:#f66" d="M 265.011 389.161L 265.011 389.184L 265.022 389.333C 265.048 389.779 266.5 395.89 266.5 395.89C 267.381 392.326 267.95 389.731 267.978 389.331L 267.985 389.233C 267.963 388.085 267.379 387.39 266.5 387.39C 265.621 387.39 265.037 388.085 265.011 389.161z"/>
			<path style="stroke:none; fill:#f99" d="M 265.022 388.673C 265.053 388.921 265 389.89 266.011 393.89C 267 389.89 266.97 388.921 267 388.673C 266.986 388.07 266.731 387.39 266.011 387.39C 265.292 387.39 265.037 388.07 265.022 388.673z"/>
			<path style="stroke:#f66; stroke-width:1; stroke-linecap:round; fill:none" d="M 275 393.89C 275 389.39 276.5 387.39 280.5 387.39C 283.5 387.39 285 388.89 285 391.89C 285 392.89 285 394.39 284 395.39C 283 396.39 280.5 397.89 280.5 399.39C 280.5 400.89 280.5 403.39 280.5 403.39"/>
			<path style="stroke:#f99; stroke-width:1; stroke-linecap:round; fill:none" d="M 282.993 387.886C 283.664 388.22 284.168 388.722 284.502 389.394"/>
		</g>
	</g>
</svg>
