<svg xmlns="http://www.w3.org/2000/svg" width="24" height="24">
	<g transform="translate(-264,-386)" id="KDDI_D_734">
		<g>
			<path style="stroke:none; fill:none" d="M 288 409.89L 264 409.89L 264 385.89L 288 385.89L 288 409.89z"/>
		</g>
		<g>
			<path style="stroke:none; fill:#900" d="M 270.5 385.89C 268.575 385.89 267 387.465 267 389.39C 267 389.39 268 398.39 268.6 402.99C 268.6 404.039 269.451 404.89 270.5 404.89C 271.549 404.89 272.4 404.039 272.4 402.99C 273 398.39 274 389.39 274 389.39C 274 387.465 272.425 385.89 270.5 385.89z"/>
			<path style="stroke:none; fill:#900" d="M 272.4 407.89C 272.4 408.939 271.549 409.79 270.5 409.79C 269.451 409.79 268.6 408.939 268.6 407.89C 268.6 406.84 269.451 405.99 270.5 405.99C 271.549 405.99 272.4 406.84 272.4 407.89z"/>
			<path style="stroke:none; fill:#f00" d="M 268.771 407.561C 268.771 408.333 269.399 408.961 270.171 408.961C 270.943 408.961 271.571 408.333 271.571 407.561C 271.571 406.789 270.943 406.161 270.171 406.161C 269.399 406.161 268.771 406.789 268.771 407.561z"/>
			<path style="stroke:none; fill:#f99" d="M 269.071 407.36C 269.071 407.857 269.475 408.26 269.971 408.26C 270.467 408.26 270.871 407.857 270.871 407.36C 270.871 406.864 270.467 406.461 269.971 406.461C 269.475 406.461 269.071 406.864 269.071 407.36z"/>
			<path style="stroke:none; fill:#f00" d="M 270 385.941C 268.312 386.187 267 387.636 267 389.39C 267 389.39 268 398.39 268.6 402.99C 268.6 403.865 269.195 404.594 270 404.815C 270.805 404.594 271.4 403.865 271.4 402.99C 272 398.39 273 389.39 273 389.39C 273 387.636 271.688 386.187 270 385.941z"/>
			<path style="stroke:none; fill:#f66" d="M 268.011 389.161L 268.011 389.184L 268.022 389.333C 268.048 389.779 269.5 395.89 269.5 395.89C 270.381 392.326 270.95 389.731 270.978 389.331L 270.985 389.233C 270.963 388.085 270.379 387.39 269.5 387.39C 268.621 387.39 268.037 388.085 268.011 389.161z"/>
			<path style="stroke:none; fill:#f99" d="M 268.022 388.673C 268.053 388.921 268 389.89 269.011 393.89C 270 389.89 269.97 388.921 270 388.673C 269.986 388.07 269.731 387.39 269.011 387.39C 268.292 387.39 268.037 388.07 268.022 388.673z"/>
			<path style="stroke:none; fill:#900" d="M 282.5 385.89C 280.575 385.89 279 387.465 279 389.39C 279 389.39 280 398.39 280.6 402.99C 280.6 404.039 281.451 404.89 282.5 404.89C 283.549 404.89 284.4 404.039 284.4 402.99C 285 398.39 286 389.39 286 389.39C 286 387.465 284.425 385.89 282.5 385.89z"/>
			<path style="stroke:none; fill:#900" d="M 284.4 407.89C 284.4 408.939 283.549 409.79 282.5 409.79C 281.451 409.79 280.6 408.939 280.6 407.89C 280.6 406.84 281.451 405.99 282.5 405.99C 283.549 405.99 284.4 406.84 284.4 407.89z"/>
			<path style="stroke:none; fill:#f00" d="M 280.771 407.561C 280.771 408.333 281.399 408.961 282.171 408.961C 282.943 408.961 283.571 408.333 283.571 407.561C 283.571 406.789 282.943 406.161 282.171 406.161C 281.399 406.161 280.771 406.789 280.771 407.561z"/>
			<path style="stroke:none; fill:#f99" d="M 281.071 407.36C 281.071 407.857 281.475 408.26 281.971 408.26C 282.467 408.26 282.871 407.857 282.871 407.36C 282.871 406.864 282.467 406.461 281.971 406.461C 281.475 406.461 281.071 406.864 281.071 407.36z"/>
			<path style="stroke:none; fill:#f00" d="M 282 385.941C 280.312 386.187 279 387.636 279 389.39C 279 389.39 280 398.39 280.6 402.99C 280.6 403.865 281.195 404.594 282 404.815C 282.805 404.594 283.4 403.865 283.4 402.99C 284 398.39 285 389.39 285 389.39C 285 387.636 283.688 386.187 282 385.941z"/>
			<path style="stroke:none; fill:#f66" d="M 280.011 389.161L 280.011 389.184L 280.022 389.333C 280.048 389.779 281.5 395.89 281.5 395.89C 282.381 392.326 282.95 389.731 282.978 389.331L 282.985 389.233C 282.963 388.085 282.379 387.39 281.5 387.39C 280.621 387.39 280.037 388.085 280.011 389.161z"/>
			<path style="stroke:none; fill:#f99" d="M 280.022 388.673C 280.053 388.921 280 389.89 281.011 393.89C 282 389.89 281.97 388.921 282 388.673C 281.986 388.07 281.731 387.39 281.011 387.39C 280.292 387.39 280.037 388.07 280.022 388.673z"/>
		</g>
	</g>
</svg>
