<svg xmlns="http://www.w3.org/2000/svg" width="24" height="24">
	<g transform="translate(-264,-386)" id="KDDI_D_735">
		<g>
			<path style="stroke:none; fill:none" d="M 288 409.89L 264 409.89L 264 385.89L 288 385.89L 288 409.89z"/>
		</g>
		<g>
			<path style="stroke:#03f; stroke-width:1; fill:none" d="M 282 400.39C 282 403.703 279.314 406.39 276 406.39C 272.686 406.39 270 403.703 270 400.39C 270 397.076 272.686 394.39 276 394.39C 279.314 394.39 282 397.076 282 400.39z"/>
			<path style="stroke:#03f; stroke-width:1; fill:none" d="M 264 392.89C 264 392.89 268 392.89 270 392.89C 272 392.89 278 393.89 280 395.89"/>
			<path style="stroke:#03f; stroke-width:1; fill:none" d="M 288 392.89C 288 392.89 284 392.89 282 392.89C 280 392.89 274 393.89 272 395.89"/>
			<path style="stroke:none; fill:#03f" d="M 288 392.39C 288 391.89 288 390.39 288 390.39C 288 390.39 287.5 390.39 286.5 390.39C 285.5 390.39 283.5 390.39 281.5 392.39C 281.5 392.39 284.625 392.39 286 392.39C 287.375 392.39 288 392.39 288 392.39z"/>
			<path style="stroke:none; fill:#03f" d="M 264 392.39C 264 391.89 264 390.39 264 390.39C 264 390.39 264.5 390.39 265.5 390.39C 266.5 390.39 268.5 390.39 270.5 392.39C 270.5 392.39 267.375 392.39 266 392.39C 264.625 392.39 264 392.39 264 392.39z"/>
		</g>
	</g>
</svg>
