<svg xmlns="http://www.w3.org/2000/svg" width="24" height="24">
	<g transform="translate(-264,-386)" id="KDDI_D_737">
		<g>
			<path style="stroke:none; fill:none" d="M 288 409.89L 264 409.89L 264 385.89L 288 385.89L 288 409.89z"/>
		</g>
		<g>
			<path style="stroke:none; fill:#c60" d="M 278 395.89C 276 393.89 270.4 395.49 268.4 397.49C 267.6 398.29 268 397.89 266.4 399.49C 264.8 401.089 264 402.69 264 403.89C 264 405.89 264.6 407.29 265.6 408.29C 266.6 409.29 268 409.89 270 409.89C 271.2 409.89 272.8 409.089 274.4 407.49C 275.2 406.69 275.6 406.29 276.4 405.49C 278.4 403.49 280 397.89 278 395.89z"/>
			<path style="stroke:none; fill:#c90" d="M 277.3 399.189L 277.3 396.79L 274.9 396.79L 275.335 394.975C 272.89 394.916 269.784 396.106 268.4 397.49C 267.6 398.29 268 397.89 266.4 399.49C 264.8 401.089 264 402.69 264 403.89C 264 404.936 264.172 405.811 264.472 406.557C 264.683 406.9 264.923 407.213 265.2 407.49C 266.2 408.49 267.6 409.089 269.6 409.089C 270.8 409.089 272.4 408.29 274 406.69C 274.8 405.89 275.2 405.49 276 404.69C 276.891 403.799 277.699 402.196 278.146 400.515C 278.1 400.29 277.3 399.189 277.3 399.189z"/>
			<path style="stroke:none; fill:#fc0" d="M 269.2 408.29C 270.4 408.29 272 407.49 273.6 405.89C 274.4 405.089 274.8 404.69 275.6 403.89C 276.265 403.225 277.222 401.832 277.808 399.921C 277.572 399.564 277.1 398.79 277.1 398.79L 276.6 397.29L 274.9 396.79C 274.9 396.79 274.405 395.593 274.191 395.038L 274.191 395.038C 271.991 395.287 269.575 396.315 268.4 397.49C 267.6 398.29 268 397.89 266.4 399.49C 264.8 401.089 264.4 402.29 264.4 403.89C 264.4 406.29 266 408.29 269.2 408.29z"/>
			<path style="stroke:none; fill:#c90" d="M 266 402.89L 266 403.89L 267 403.89L 266 402.89z"/>
			<path style="stroke:none; fill:#c90" d="M 268 402.89L 268 403.89L 269 403.89L 268 402.89z"/>
			<path style="stroke:none; fill:#c90" d="M 270 402.89L 270 403.89L 271 403.89L 270 402.89z"/>
			<path style="stroke:none; fill:#c60" d="M 272 402.89L 272 403.89L 273 403.89L 272 402.89z"/>
			<path style="stroke:none; fill:#c90" d="M 274 402.89L 274 403.89L 275 403.89L 274 402.89z"/>
			<path style="stroke:none; fill:#c60" d="M 276 402.89L 276 403.89L 277 403.89L 276 402.89z"/>
			<path style="stroke:none; fill:#c90" d="M 266 404.89L 266 405.89L 267 405.89L 266 404.89z"/>
			<path style="stroke:none; fill:#c90" d="M 268 404.89L 268 405.89L 269 405.89L 268 404.89z"/>
			<path style="stroke:none; fill:#c90" d="M 270 404.89L 270 405.89L 271 405.89L 270 404.89z"/>
			<path style="stroke:none; fill:#c60" d="M 272 404.89L 272 405.89L 273 405.89L 272 404.89z"/>
			<path style="stroke:none; fill:#c60" d="M 274 404.89L 274 405.89L 275 405.89L 274 404.89z"/>
			<path style="stroke:none; fill:#ff3" d="M 265 403.89L 265 404.89L 266 404.89L 265 403.89z"/>
			<path style="stroke:none; fill:#ff3" d="M 267 403.89L 267 404.89L 268 404.89L 267 403.89z"/>
			<path style="stroke:none; fill:#ff3" d="M 269 403.89L 269 404.89L 270 404.89L 269 403.89z"/>
			<path style="stroke:none; fill:#ff3" d="M 271 403.89L 271 404.89L 272 404.89L 271 403.89z"/>
			<path style="stroke:none; fill:#c90" d="M 273 403.89L 273 404.89L 274 404.89L 273 403.89z"/>
			<path style="stroke:none; fill:#c90" d="M 275 403.89L 275 404.89L 275.806 404.695L 275 403.89z"/>
			<path style="stroke:none; fill:#c60" d="M 266 406.89L 266 407.89L 267 407.89L 266 406.89z"/>
			<path style="stroke:none; fill:#c60" d="M 268 406.89L 268 407.89L 269 407.89L 268 406.89z"/>
			<path style="stroke:none; fill:#c60" d="M 270 406.89L 270 407.89L 271 407.89L 270 406.89z"/>
			<path style="stroke:none; fill:#c60" d="M 269 407.89L 269 408.89L 270 408.89L 269 407.89z"/>
			<path style="stroke:none; fill:#c60" d="M 272 406.89L 272 407.89L 273 407.89L 272 406.89z"/>
			<path style="stroke:none; fill:#ff3" d="M 267 405.89L 267 406.89L 268 406.89L 267 405.89z"/>
			<path style="stroke:none; fill:#c60" d="M 269 405.89L 269 406.89L 270 406.89L 269 405.89z"/>
			<path style="stroke:none; fill:#ff3" d="M 271 405.89L 271 406.89L 272 406.89L 271 405.89z"/>
			<path style="stroke:none; fill:#c90" d="M 273 405.89L 273 406.89L 273.753 406.643L 273 405.89z"/>
			<path style="stroke:none; fill:#c60" d="M 277 401.89L 277 402.89L 277.848 402.737L 277 401.89z"/>
			<path style="stroke:none; fill:#c90" d="M 266 400.89L 266 401.89L 267 401.89L 266 400.89z"/>
			<path style="stroke:none; fill:#c90" d="M 268 400.89L 268 401.89L 269 401.89L 268 400.89z"/>
			<path style="stroke:none; fill:#c90" d="M 270 400.89L 270 401.89L 271 401.89L 270 400.89z"/>
			<path style="stroke:none; fill:#c90" d="M 272 400.89L 272 401.89L 273 401.89L 272 400.89z"/>
			<path style="stroke:none; fill:#c90" d="M 274 400.89L 274 401.89L 275 401.89L 274 400.89z"/>
			<path style="stroke:none; fill:#c60" d="M 276 400.89L 276 401.89L 277 401.89L 276 400.89z"/>
			<path style="stroke:none; fill:#ff3" d="M 265 401.89L 265 402.89L 266 402.89L 265 401.89z"/>
			<path style="stroke:none; fill:#ff3" d="M 267 401.89L 267 402.89L 268 402.89L 267 401.89z"/>
			<path style="stroke:none; fill:#ff3" d="M 269 401.89L 269 402.89L 270 402.89L 269 401.89z"/>
			<path style="stroke:none; fill:#ff3" d="M 271 401.89L 271 402.89L 272 402.89L 271 401.89z"/>
			<path style="stroke:none; fill:#ff3" d="M 273 401.89L 273 402.89L 274 402.89L 273 401.89z"/>
			<path style="stroke:none; fill:#ff3" d="M 275 401.89L 275 402.89L 276 402.89L 275 401.89z"/>
			<path style="stroke:none; fill:#c90" d="M 268 398.89L 268 399.89L 269 399.89L 268 398.89z"/>
			<path style="stroke:none; fill:#ff3" d="M 270 398.89L 270 399.89L 271 399.89L 270 398.89z"/>
			<path style="stroke:none; fill:#ff3" d="M 272 398.89L 272 399.89L 273 399.89L 272 398.89z"/>
			<path style="stroke:none; fill:#c90" d="M 274 398.89L 274 399.89L 275 399.89L 274 398.89z"/>
			<path style="stroke:none; fill:#ff3" d="M 267 399.89L 267 400.89L 268 400.89L 267 399.89z"/>
			<path style="stroke:none; fill:#ff3" d="M 269 399.89L 269 400.89L 270 400.89L 269 399.89z"/>
			<path style="stroke:none; fill:#ff9" d="M 271 399.89L 271 400.89L 272 400.89L 271 399.89z"/>
			<path style="stroke:none; fill:#ff3" d="M 273 399.89L 273 400.89L 274 400.89L 273 399.89z"/>
			<path style="stroke:none; fill:#ff3" d="M 275 399.89L 275 400.89L 276 400.89L 275 399.89z"/>
			<path style="stroke:none; fill:#ff3" d="M 270 396.89L 270 397.89L 271 397.89L 270 396.89z"/>
			<path style="stroke:none; fill:#ff3" d="M 272 396.89L 272 397.89L 273 397.89L 272 396.89z"/>
			<path style="stroke:none; fill:#ff3" d="M 269 397.89L 269 398.89L 270 398.89L 269 397.89z"/>
			<path style="stroke:none; fill:#ff9" d="M 271 397.89L 271 398.89L 272 398.89L 271 397.89z"/>
			<path style="stroke:none; fill:#ff9" d="M 271 398.89L 271 399.89L 272 399.89L 271 398.89z"/>
			<path style="stroke:none; fill:#ff3" d="M 273 397.89L 273 398.89L 274 398.89L 273 397.89z"/>
			<path style="stroke:none; fill:#ff3" d="M 271.048 395.938L 271 396.89L 272 396.89L 271.048 395.938z"/>
			<path style="stroke:none; fill:#c90" d="M 277 399.89L 277 400.89L 278 400.89L 277 399.89z"/>
			<path style="stroke:none; fill:#c90" d="M 276 398.89L 276 399.89L 277 399.89L 276 398.89z"/>
			<path style="stroke:none; fill:#c90" d="M 275 397.89L 275 398.89L 276 398.89L 275 397.89z"/>
			<path style="stroke:none; fill:#c90" d="M 273 395.89L 273 396.89L 274 396.89L 273 395.89z"/>
			<path style="stroke:none; fill:#ff3" d="M 274 396.89L 274 397.89L 275 397.89L 274 396.89z"/>
			<path style="stroke:none; fill:#0c0" d="M 276 385.89C 276 385.89 277 387.89 277 393.89C 277 394.635 277 396.89 277 396.89L 277 398.89C 277 398.89 277.8 398.89 279 398.89C 282.5 398.89 286 400.89 286 400.89C 286 400.89 284 397.89 283 396.89C 283 396.89 286 394.89 288 392.89L 281 394.89C 281 394.89 283.5 391.751 284 385.89L 279.5 393.528C 279.5 393.528 279 388.39 276 385.89z"/>
			<g>
				<path style="stroke:none; fill:#060" d="M 272 385.89C 272 385.89 274.72 387.89 274.72 393.89C 274.72 394.635 274.8 396.032 274.8 396.89L 278 396.89C 278 396.89 278 392.59 277.2 390.89C 275.412 387.089 272 385.89 272 385.89z"/>
				<path style="stroke:none; fill:#060" d="M 283 393.89C 284.5 392.39 288 390.39 288 390.39C 288 390.39 285.5 390.89 283 391.89C 280.178 393.019 277 396.89 277 396.89L 277 398.89L 279 398.89C 279 398.89 281.5 395.39 283 393.89z"/>
			</g>
			<path style="stroke:none; fill:#060" d="M 279 391.39C 279 391.39 279 393.89 276 394.89L 277.2 396.89L 277.8 397.489C 277.8 397.489 281 396.79 281 391.39C 281 388.89 279.601 385.89 279 385.89"/>
			<path style="stroke:none; fill:#060" d="M 288 401.89C 288 401.89 286 395.39 281.5 395.39C 281.5 395.39 277.85 398.089 280 398.089C 283.5 398.089 286.5 398.756 288 401.89z"/>
		</g>
	</g>
</svg>
