<svg xmlns="http://www.w3.org/2000/svg" width="24" height="24">
	<g transform="translate(-264,-386)" id="KDDI_D_738">
		<g>
			<path style="stroke:none; fill:none" d="M 288 409.89L 264 409.89L 264 385.89L 288 385.89L 288 409.89z"/>
		</g>
		<g>
			<g>
				<path style="stroke:none; fill:#60c" d="M 277.475 389.415C 278.842 390.782 278.842 392.998 277.475 394.365C 276.107 395.732 273.892 395.732 272.524 394.364C 271.158 392.998 271.158 390.782 272.525 389.415C 273.892 388.048 276.107 388.048 277.475 389.415z"/>
				<path style="stroke:none; fill:#93f" d="M 272.524 393.657C 273.694 394.827 275.598 394.828 276.768 393.658C 277.938 392.488 277.938 390.585 276.768 389.415C 275.598 388.245 273.694 388.245 272.525 389.415C 271.355 390.585 271.355 392.488 272.524 393.657z"/>
				<path style="stroke:none; fill:#c3f" d="M 273.232 390.122C 274.478 388.877 276.422 388.779 277.792 389.804C 277.692 389.671 277.596 389.536 277.475 389.415C 276.107 388.048 273.892 388.048 272.525 389.415C 271.158 390.782 271.158 392.998 272.524 394.364C 272.647 394.486 272.781 394.583 272.914 394.683C 271.889 393.312 271.986 391.368 273.232 390.122z"/>
				<path style="stroke:none; fill:#c6f" d="M 275 389.769C 275.586 390.355 275.586 391.304 275 391.89C 274.414 392.476 273.464 392.476 272.878 391.89C 272.292 391.304 272.293 390.355 272.879 389.769C 273.465 389.183 274.414 389.183 275 389.769z"/>
				<path style="stroke:none; fill:#f9f" d="M 274.293 389.769C 274.684 390.159 274.683 390.792 274.293 391.183C 273.902 391.573 273.269 391.573 272.878 391.183C 272.487 390.792 272.488 390.159 272.879 389.769C 273.269 389.378 273.902 389.378 274.293 389.769z"/>
			</g>
			<g>
				<path style="stroke:none; fill:#60c" d="M 273.475 395.415C 274.842 396.782 274.842 398.998 273.475 400.365C 272.107 401.732 269.892 401.732 268.524 400.364C 267.158 398.998 267.158 396.782 268.525 395.415C 269.892 394.048 272.107 394.048 273.475 395.415z"/>
				<path style="stroke:none; fill:#93f" d="M 268.524 399.657C 269.694 400.827 271.598 400.828 272.768 399.658C 273.938 398.488 273.938 396.585 272.768 395.415C 271.598 394.245 269.694 394.245 268.525 395.415C 267.355 396.585 267.355 398.488 268.524 399.657z"/>
				<path style="stroke:none; fill:#c3f" d="M 269.232 396.122C 270.478 394.877 272.422 394.779 273.792 395.804C 273.692 395.671 273.596 395.536 273.475 395.415C 272.107 394.048 269.892 394.048 268.525 395.415C 267.158 396.782 267.158 398.998 268.524 400.364C 268.647 400.486 268.781 400.583 268.914 400.683C 267.889 399.312 267.986 397.368 269.232 396.122z"/>
				<path style="stroke:none; fill:#c6f" d="M 271 395.769C 271.586 396.355 271.586 397.304 271 397.89C 270.414 398.476 269.464 398.476 268.878 397.89C 268.292 397.304 268.293 396.355 268.879 395.769C 269.465 395.183 270.414 395.183 271 395.769z"/>
				<path style="stroke:none; fill:#f9f" d="M 270.293 395.769C 270.684 396.159 270.683 396.792 270.293 397.183C 269.902 397.573 269.269 397.573 268.878 397.183C 268.487 396.792 268.488 396.159 268.879 395.769C 269.269 395.378 269.902 395.378 270.293 395.769z"/>
			</g>
			<g>
				<path style="stroke:none; fill:#60c" d="M 277.975 395.915C 279.342 397.282 279.342 399.498 277.975 400.865C 276.607 402.232 274.392 402.232 273.024 400.864C 271.658 399.498 271.658 397.282 273.025 395.915C 274.392 394.548 276.607 394.548 277.975 395.915z"/>
				<path style="stroke:none; fill:#93f" d="M 273.024 400.157C 274.194 401.327 276.098 401.328 277.268 400.158C 278.438 398.988 278.438 397.085 277.268 395.915C 276.098 394.745 274.194 394.745 273.025 395.915C 271.855 397.085 271.855 398.988 273.024 400.157z"/>
				<path style="stroke:none; fill:#c3f" d="M 273.732 396.622C 274.978 395.377 276.922 395.279 278.292 396.304C 278.192 396.171 278.096 396.036 277.975 395.915C 276.607 394.548 274.392 394.548 273.025 395.915C 271.658 397.282 271.658 399.498 273.024 400.864C 273.147 400.986 273.281 401.083 273.414 401.183C 272.389 399.812 272.486 397.868 273.732 396.622z"/>
				<path style="stroke:none; fill:#c6f" d="M 275.5 396.269C 276.086 396.855 276.086 397.804 275.5 398.39C 274.914 398.976 273.964 398.976 273.378 398.39C 272.792 397.804 272.793 396.855 273.379 396.269C 273.965 395.683 274.914 395.683 275.5 396.269z"/>
				<path style="stroke:none; fill:#f9f" d="M 274.793 396.269C 275.184 396.659 275.183 397.292 274.793 397.683C 274.402 398.073 273.769 398.073 273.378 397.683C 272.987 397.292 272.988 396.659 273.379 396.269C 273.769 395.878 274.402 395.878 274.793 396.269z"/>
			</g>
			<g>
				<path style="stroke:none; fill:#60c" d="M 284.475 395.915C 285.842 397.282 285.842 399.498 284.475 400.865C 283.107 402.232 280.892 402.232 279.524 400.864C 278.158 399.498 278.158 397.282 279.525 395.915C 280.892 394.548 283.107 394.548 284.475 395.915z"/>
				<path style="stroke:none; fill:#93f" d="M 279.524 400.157C 280.694 401.327 282.598 401.328 283.768 400.158C 284.938 398.988 284.938 397.085 283.768 395.915C 282.598 394.745 280.694 394.745 279.525 395.915C 278.355 397.085 278.355 398.988 279.524 400.157z"/>
				<path style="stroke:none; fill:#c3f" d="M 280.232 396.622C 281.478 395.377 283.422 395.279 284.792 396.304C 284.692 396.171 284.596 396.036 284.475 395.915C 283.107 394.548 280.892 394.548 279.525 395.915C 278.158 397.282 278.158 399.498 279.524 400.864C 279.647 400.986 279.781 401.083 279.914 401.183C 278.889 399.812 278.986 397.868 280.232 396.622z"/>
				<path style="stroke:none; fill:#c6f" d="M 282 396.269C 282.586 396.855 282.586 397.804 282 398.39C 281.414 398.976 280.464 398.976 279.878 398.39C 279.292 397.804 279.293 396.855 279.879 396.269C 280.465 395.683 281.414 395.683 282 396.269z"/>
				<path style="stroke:none; fill:#f9f" d="M 281.293 396.269C 281.684 396.659 281.683 397.292 281.293 397.683C 280.902 398.073 280.269 398.073 279.878 397.683C 279.487 397.292 279.488 396.659 279.879 396.269C 280.269 395.878 280.902 395.878 281.293 396.269z"/>
			</g>
			<path style="stroke:#663; stroke-width:1; fill:none" d="M 282.5 386.39L 288 386.39"/>
			<path style="stroke:#663; stroke-width:1; fill:none" d="M 285.5 386.39C 285.5 387.39 285.5 390.39 282.5 390.39"/>
			<g>
				<path style="stroke:none; fill:#60c" d="M 281.975 387.915C 283.342 389.282 283.342 391.498 281.975 392.865C 280.607 394.232 278.392 394.232 277.024 392.864C 275.658 391.498 275.658 389.282 277.025 387.915C 278.392 386.548 280.607 386.548 281.975 387.915z"/>
				<path style="stroke:none; fill:#93f" d="M 277.024 392.157C 278.194 393.327 280.098 393.328 281.268 392.158C 282.438 390.988 282.438 389.085 281.268 387.915C 280.098 386.745 278.194 386.745 277.025 387.915C 275.855 389.085 275.855 390.988 277.024 392.157z"/>
				<path style="stroke:none; fill:#c3f" d="M 277.732 388.622C 278.978 387.377 280.922 387.279 282.292 388.304C 282.192 388.171 282.096 388.036 281.975 387.915C 280.607 386.548 278.392 386.548 277.025 387.915C 275.658 389.282 275.658 391.498 277.024 392.864C 277.147 392.986 277.281 393.083 277.414 393.183C 276.389 391.812 276.486 389.868 277.732 388.622z"/>
				<path style="stroke:none; fill:#c6f" d="M 279.5 388.269C 280.086 388.855 280.086 389.804 279.5 390.39C 278.914 390.976 277.964 390.976 277.378 390.39C 276.792 389.804 276.793 388.855 277.379 388.269C 277.965 387.683 278.914 387.683 279.5 388.269z"/>
				<path style="stroke:none; fill:#f9f" d="M 278.793 388.269C 279.184 388.659 279.183 389.292 278.793 389.683C 278.402 390.073 277.769 390.073 277.378 389.683C 276.987 389.292 276.988 388.659 277.379 388.269C 277.769 387.878 278.402 387.878 278.793 388.269z"/>
			</g>
			<g>
				<path style="stroke:none; fill:#60c" d="M 286.975 391.415C 288.342 392.782 288.342 394.998 286.975 396.365C 285.607 397.732 283.392 397.732 282.024 396.364C 280.658 394.998 280.658 392.782 282.025 391.415C 283.392 390.048 285.607 390.048 286.975 391.415z"/>
				<path style="stroke:none; fill:#93f" d="M 282.024 395.657C 283.194 396.827 285.098 396.828 286.268 395.658C 287.438 394.488 287.438 392.585 286.268 391.415C 285.098 390.245 283.194 390.245 282.025 391.415C 280.855 392.585 280.855 394.488 282.024 395.657z"/>
				<path style="stroke:none; fill:#c3f" d="M 282.732 392.122C 283.978 390.877 285.922 390.779 287.292 391.804C 287.192 391.671 287.096 391.536 286.975 391.415C 285.607 390.048 283.392 390.048 282.025 391.415C 280.658 392.782 280.658 394.998 282.024 396.364C 282.147 396.486 282.281 396.583 282.414 396.683C 281.389 395.312 281.486 393.368 282.732 392.122z"/>
				<path style="stroke:none; fill:#c6f" d="M 284.5 391.769C 285.086 392.355 285.086 393.304 284.5 393.89C 283.914 394.476 282.964 394.476 282.378 393.89C 281.792 393.304 281.793 392.355 282.379 391.769C 282.965 391.183 283.914 391.183 284.5 391.769z"/>
				<path style="stroke:none; fill:#f9f" d="M 283.793 391.769C 284.184 392.159 284.183 392.792 283.793 393.183C 283.402 393.573 282.769 393.573 282.378 393.183C 281.987 392.792 281.988 392.159 282.379 391.769C 282.769 391.378 283.402 391.378 283.793 391.769z"/>
			</g>
			<g>
				<path style="stroke:none; fill:#60c" d="M 269.975 403.915C 271.342 405.282 271.342 407.498 269.975 408.865C 268.607 410.232 266.392 410.232 265.024 408.864C 263.658 407.498 263.658 405.282 265.025 403.915C 266.392 402.548 268.607 402.548 269.975 403.915z"/>
				<path style="stroke:none; fill:#93f" d="M 265.024 408.157C 266.194 409.327 268.098 409.328 269.268 408.158C 270.438 406.988 270.438 405.085 269.268 403.915C 268.098 402.745 266.194 402.745 265.025 403.915C 263.855 405.085 263.855 406.988 265.024 408.157z"/>
				<path style="stroke:none; fill:#c3f" d="M 265.732 404.622C 266.978 403.377 268.922 403.279 270.292 404.304C 270.192 404.171 270.096 404.036 269.975 403.915C 268.607 402.548 266.392 402.548 265.025 403.915C 263.658 405.282 263.658 407.498 265.024 408.864C 265.147 408.986 265.281 409.083 265.414 409.183C 264.389 407.812 264.486 405.868 265.732 404.622z"/>
				<path style="stroke:none; fill:#c6f" d="M 267.5 404.269C 268.086 404.855 268.086 405.804 267.5 406.39C 266.914 406.976 265.964 406.976 265.378 406.39C 264.792 405.804 264.793 404.855 265.379 404.269C 265.965 403.683 266.914 403.683 267.5 404.269z"/>
				<path style="stroke:none; fill:#f9f" d="M 266.793 404.269C 267.184 404.659 267.183 405.292 266.793 405.683C 266.402 406.073 265.769 406.073 265.378 405.683C 264.987 405.292 264.988 404.659 265.379 404.269C 265.769 403.878 266.402 403.878 266.793 404.269z"/>
			</g>
			<g>
				<path style="stroke:none; fill:#60c" d="M 278.975 386.915C 280.342 388.282 280.342 390.498 278.975 391.865C 277.607 393.232 275.392 393.232 274.024 391.864C 272.658 390.498 272.658 388.282 274.025 386.915C 275.392 385.548 277.607 385.548 278.975 386.915z"/>
				<path style="stroke:none; fill:#93f" d="M 274.024 391.157C 275.194 392.327 277.098 392.328 278.268 391.158C 279.438 389.988 279.438 388.085 278.268 386.915C 277.098 385.745 275.194 385.745 274.025 386.915C 272.855 388.085 272.855 389.988 274.024 391.157z"/>
				<path style="stroke:none; fill:#c3f" d="M 274.732 387.622C 275.978 386.377 277.922 386.279 279.292 387.304C 279.192 387.171 279.096 387.036 278.975 386.915C 277.607 385.548 275.392 385.548 274.025 386.915C 272.658 388.282 272.658 390.498 274.024 391.864C 274.147 391.986 274.281 392.083 274.414 392.183C 273.389 390.812 273.486 388.868 274.732 387.622z"/>
				<path style="stroke:none; fill:#c6f" d="M 276.5 387.269C 277.086 387.855 277.086 388.804 276.5 389.39C 275.914 389.976 274.964 389.976 274.378 389.39C 273.792 388.804 273.793 387.855 274.379 387.269C 274.965 386.683 275.914 386.683 276.5 387.269z"/>
				<path style="stroke:none; fill:#f9f" d="M 275.793 387.269C 276.184 387.659 276.183 388.292 275.793 388.683C 275.402 389.073 274.769 389.073 274.378 388.683C 273.987 388.292 273.988 387.659 274.379 387.269C 274.769 386.878 275.402 386.878 275.793 387.269z"/>
			</g>
			<g>
				<path style="stroke:none; fill:#60c" d="M 270.475 397.415C 271.842 398.782 271.842 400.998 270.475 402.365C 269.107 403.732 266.892 403.732 265.524 402.364C 264.158 400.998 264.158 398.782 265.525 397.415C 266.892 396.048 269.107 396.048 270.475 397.415z"/>
				<path style="stroke:none; fill:#93f" d="M 265.524 401.657C 266.694 402.827 268.598 402.828 269.768 401.658C 270.938 400.488 270.938 398.585 269.768 397.415C 268.598 396.245 266.694 396.245 265.525 397.415C 264.355 398.585 264.355 400.488 265.524 401.657z"/>
				<path style="stroke:none; fill:#c3f" d="M 266.232 398.122C 267.478 396.877 269.422 396.779 270.792 397.804C 270.692 397.671 270.596 397.536 270.475 397.415C 269.107 396.048 266.892 396.048 265.525 397.415C 264.158 398.782 264.158 400.998 265.524 402.364C 265.647 402.486 265.781 402.583 265.914 402.683C 264.889 401.312 264.986 399.368 266.232 398.122z"/>
				<path style="stroke:none; fill:#c6f" d="M 268 397.769C 268.586 398.355 268.586 399.304 268 399.89C 267.414 400.476 266.464 400.476 265.878 399.89C 265.292 399.304 265.293 398.355 265.879 397.769C 266.465 397.183 267.414 397.183 268 397.769z"/>
				<path style="stroke:none; fill:#f9f" d="M 267.293 397.769C 267.684 398.159 267.683 398.792 267.293 399.183C 266.902 399.573 266.269 399.573 265.878 399.183C 265.487 398.792 265.488 398.159 265.879 397.769C 266.269 397.378 266.902 397.378 267.293 397.769z"/>
			</g>
			<g>
				<path style="stroke:none; fill:#60c" d="M 275.975 401.915C 277.342 403.282 277.342 405.498 275.975 406.865C 274.607 408.232 272.392 408.232 271.024 406.864C 269.658 405.498 269.658 403.282 271.025 401.915C 272.392 400.548 274.607 400.548 275.975 401.915z"/>
				<path style="stroke:none; fill:#93f" d="M 271.024 406.157C 272.194 407.327 274.098 407.328 275.268 406.158C 276.438 404.988 276.438 403.085 275.268 401.915C 274.098 400.745 272.194 400.745 271.025 401.915C 269.855 403.085 269.855 404.988 271.024 406.157z"/>
				<path style="stroke:none; fill:#c3f" d="M 271.732 402.622C 272.978 401.377 274.922 401.279 276.292 402.304C 276.192 402.171 276.096 402.036 275.975 401.915C 274.607 400.548 272.392 400.548 271.025 401.915C 269.658 403.282 269.658 405.498 271.024 406.864C 271.147 406.986 271.281 407.083 271.414 407.183C 270.389 405.812 270.486 403.868 271.732 402.622z"/>
				<path style="stroke:none; fill:#c6f" d="M 273.5 402.269C 274.086 402.855 274.086 403.804 273.5 404.39C 272.914 404.976 271.964 404.976 271.378 404.39C 270.792 403.804 270.793 402.855 271.379 402.269C 271.965 401.683 272.914 401.683 273.5 402.269z"/>
				<path style="stroke:none; fill:#f9f" d="M 272.793 402.269C 273.184 402.659 273.183 403.292 272.793 403.683C 272.402 404.073 271.769 404.073 271.378 403.683C 270.987 403.292 270.988 402.659 271.379 402.269C 271.769 401.878 272.402 401.878 272.793 402.269z"/>
			</g>
			<g>
				<path style="stroke:none; fill:#60c" d="M 280.475 398.915C 281.842 400.282 281.842 402.498 280.475 403.865C 279.107 405.232 276.892 405.232 275.524 403.864C 274.158 402.498 274.158 400.282 275.525 398.915C 276.892 397.548 279.107 397.548 280.475 398.915z"/>
				<path style="stroke:none; fill:#93f" d="M 275.524 403.157C 276.694 404.327 278.598 404.328 279.768 403.158C 280.938 401.988 280.938 400.085 279.768 398.915C 278.598 397.745 276.694 397.745 275.525 398.915C 274.355 400.085 274.355 401.988 275.524 403.157z"/>
				<path style="stroke:none; fill:#c3f" d="M 276.232 399.622C 277.478 398.377 279.422 398.279 280.792 399.304C 280.692 399.171 280.596 399.036 280.475 398.915C 279.107 397.548 276.892 397.548 275.525 398.915C 274.158 400.282 274.158 402.498 275.524 403.864C 275.647 403.986 275.781 404.083 275.914 404.183C 274.889 402.812 274.986 400.868 276.232 399.622z"/>
				<path style="stroke:none; fill:#c6f" d="M 278 399.269C 278.586 399.855 278.586 400.804 278 401.39C 277.414 401.976 276.464 401.976 275.878 401.39C 275.292 400.804 275.293 399.855 275.879 399.269C 276.465 398.683 277.414 398.683 278 399.269z"/>
				<path style="stroke:none; fill:#f9f" d="M 277.293 399.269C 277.684 399.659 277.683 400.292 277.293 400.683C 276.902 401.073 276.269 401.073 275.878 400.683C 275.487 400.292 275.488 399.659 275.879 399.269C 276.269 398.878 276.902 398.878 277.293 399.269z"/>
			</g>
			<g>
				<path style="stroke:none; fill:#60c" d="M 273.475 399.915C 274.842 401.282 274.842 403.498 273.475 404.865C 272.107 406.232 269.892 406.232 268.524 404.864C 267.158 403.498 267.158 401.282 268.525 399.915C 269.892 398.548 272.107 398.548 273.475 399.915z"/>
				<path style="stroke:none; fill:#93f" d="M 268.524 404.157C 269.694 405.327 271.598 405.328 272.768 404.158C 273.938 402.988 273.938 401.085 272.768 399.915C 271.598 398.745 269.694 398.745 268.525 399.915C 267.355 401.085 267.355 402.988 268.524 404.157z"/>
				<path style="stroke:none; fill:#c3f" d="M 269.232 400.622C 270.478 399.377 272.422 399.279 273.792 400.304C 273.692 400.171 273.596 400.036 273.475 399.915C 272.107 398.548 269.892 398.548 268.525 399.915C 267.158 401.282 267.158 403.498 268.524 404.864C 268.647 404.986 268.781 405.083 268.914 405.183C 267.889 403.812 267.986 401.868 269.232 400.622z"/>
				<path style="stroke:none; fill:#c6f" d="M 271 400.269C 271.586 400.855 271.586 401.804 271 402.39C 270.414 402.976 269.464 402.976 268.878 402.39C 268.292 401.804 268.293 400.855 268.879 400.269C 269.465 399.683 270.414 399.683 271 400.269z"/>
				<path style="stroke:none; fill:#f9f" d="M 270.293 400.269C 270.684 400.659 270.683 401.292 270.293 401.683C 269.902 402.073 269.269 402.073 268.878 401.683C 268.487 401.292 268.488 400.659 268.879 400.269C 269.269 399.878 269.902 399.878 270.293 400.269z"/>
			</g>
			<g>
				<path style="stroke:none; fill:#60c" d="M 272.975 390.915C 274.342 392.282 274.342 394.498 272.975 395.865C 271.607 397.232 269.392 397.232 268.024 395.864C 266.658 394.498 266.658 392.282 268.025 390.915C 269.392 389.548 271.607 389.548 272.975 390.915z"/>
				<path style="stroke:none; fill:#93f" d="M 268.024 395.157C 269.194 396.327 271.098 396.328 272.268 395.158C 273.438 393.988 273.438 392.085 272.268 390.915C 271.098 389.745 269.194 389.745 268.025 390.915C 266.855 392.085 266.855 393.988 268.024 395.157z"/>
				<path style="stroke:none; fill:#c3f" d="M 268.732 391.622C 269.978 390.377 271.922 390.279 273.292 391.304C 273.192 391.171 273.096 391.036 272.975 390.915C 271.607 389.548 269.392 389.548 268.025 390.915C 266.658 392.282 266.658 394.498 268.024 395.864C 268.147 395.986 268.281 396.083 268.414 396.183C 267.389 394.812 267.486 392.868 268.732 391.622z"/>
				<path style="stroke:none; fill:#c6f" d="M 270.5 391.269C 271.086 391.855 271.086 392.804 270.5 393.39C 269.914 393.976 268.964 393.976 268.378 393.39C 267.792 392.804 267.793 391.855 268.379 391.269C 268.965 390.683 269.914 390.683 270.5 391.269z"/>
				<path style="stroke:none; fill:#f9f" d="M 269.793 391.269C 270.184 391.659 270.183 392.292 269.793 392.683C 269.402 393.073 268.769 393.073 268.378 392.683C 267.987 392.292 267.988 391.659 268.379 391.269C 268.769 390.878 269.402 390.878 269.793 391.269z"/>
			</g>
			<g>
				<path style="stroke:none; fill:#60c" d="M 276.475 393.415C 277.842 394.782 277.842 396.998 276.475 398.365C 275.107 399.732 272.892 399.732 271.524 398.364C 270.158 396.998 270.158 394.782 271.525 393.415C 272.892 392.048 275.107 392.048 276.475 393.415z"/>
				<path style="stroke:none; fill:#93f" d="M 271.524 397.657C 272.694 398.827 274.598 398.828 275.768 397.658C 276.938 396.488 276.938 394.585 275.768 393.415C 274.598 392.245 272.694 392.245 271.525 393.415C 270.355 394.585 270.355 396.488 271.524 397.657z"/>
				<path style="stroke:none; fill:#c3f" d="M 272.232 394.122C 273.478 392.877 275.422 392.779 276.792 393.804C 276.692 393.671 276.596 393.536 276.475 393.415C 275.107 392.048 272.892 392.048 271.525 393.415C 270.158 394.782 270.158 396.998 271.524 398.364C 271.647 398.486 271.781 398.583 271.914 398.683C 270.889 397.312 270.986 395.368 272.232 394.122z"/>
				<path style="stroke:none; fill:#c6f" d="M 274 393.769C 274.586 394.355 274.586 395.304 274 395.89C 273.414 396.476 272.464 396.476 271.878 395.89C 271.292 395.304 271.293 394.355 271.879 393.769C 272.465 393.183 273.414 393.183 274 393.769z"/>
				<path style="stroke:none; fill:#f9f" d="M 273.293 393.769C 273.684 394.159 273.683 394.792 273.293 395.183C 272.902 395.573 272.269 395.573 271.878 395.183C 271.487 394.792 271.488 394.159 271.879 393.769C 272.269 393.378 272.902 393.378 273.293 393.769z"/>
			</g>
			<g>
				<path style="stroke:none; fill:#60c" d="M 282.975 392.415C 284.342 393.782 284.342 395.998 282.975 397.365C 281.607 398.732 279.392 398.732 278.024 397.364C 276.658 395.998 276.658 393.782 278.025 392.415C 279.392 391.048 281.607 391.048 282.975 392.415z"/>
				<path style="stroke:none; fill:#93f" d="M 278.024 396.657C 279.194 397.827 281.098 397.828 282.268 396.658C 283.438 395.488 283.438 393.585 282.268 392.415C 281.098 391.245 279.194 391.245 278.025 392.415C 276.855 393.585 276.855 395.488 278.024 396.657z"/>
				<path style="stroke:none; fill:#c3f" d="M 278.732 393.122C 279.978 391.877 281.922 391.779 283.292 392.804C 283.192 392.671 283.096 392.536 282.975 392.415C 281.607 391.048 279.392 391.048 278.025 392.415C 276.658 393.782 276.658 395.998 278.024 397.364C 278.147 397.486 278.281 397.583 278.414 397.683C 277.389 396.312 277.486 394.368 278.732 393.122z"/>
				<path style="stroke:none; fill:#c6f" d="M 280.5 392.769C 281.086 393.355 281.086 394.304 280.5 394.89C 279.914 395.476 278.964 395.476 278.378 394.89C 277.792 394.304 277.793 393.355 278.379 392.769C 278.965 392.183 279.914 392.183 280.5 392.769z"/>
				<path style="stroke:none; fill:#f9f" d="M 279.793 392.769C 280.184 393.159 280.183 393.792 279.793 394.183C 279.402 394.573 278.769 394.573 278.378 394.183C 277.987 393.792 277.988 393.159 278.379 392.769C 278.769 392.378 279.402 392.378 279.793 392.769z"/>
			</g>
		</g>
	</g>
</svg>
