<svg xmlns="http://www.w3.org/2000/svg" width="24" height="24">
	<g transform="translate(-264,-386)" id="KDDI_D_739">
		<g>
			<path style="stroke:none; fill:none" d="M 288 409.89L 264 409.89L 264 385.89L 288 385.89L 288 409.89z"/>
		</g>
		<g>
			<path style="stroke:none; fill:#c93" d="M 264.5 409.39C 264.843 409.39 267.676 409.38 268 409.38C 273 409.38 275.5 407.39 279 403.89C 282.5 400.39 283.5 395.89 283.5 392.39C 283.5 389.39 282 387.39 282 387.39L 280 387.39C 280 387.39 278.947 388.523 278 390.89C 276.267 395.222 273.659 398.803 271.5 401.309C 271.168 401.695 270.834 402.056 270.5 402.39C 267.951 404.939 267.003 405.886 266 406.89C 265.5 407.39 264.5 407.39 264.5 407.39L 264.5 409.39z"/>
			<path style="stroke:none; fill:#fc0" d="M 278 402.89C 281.5 399.39 282.5 394.89 282.5 391.39C 282.5 389.649 282.424 388.262 282 387.39L 281.385 386.39L 279.5 386.39L 279.5 387.39C 279.5 387.39 278.447 388.523 277.5 390.89C 275.5 395.89 273 399.89 270.5 402.39C 267.951 404.939 267.003 405.886 266 406.89C 265.5 407.39 264.5 407.39 264.5 407.39L 264.5 409.39C 264.662 409.39 265.375 409.388 266.119 409.385C 271.055 409.338 274.528 406.361 278 402.89z"/>
			<path style="stroke:none; fill:#fc0" d="M 280 386.89L 279.5 386.39L 279.5 387.39C 279.5 387.39 278.773 388.184 277.985 389.803C 277.905 394.758 276.461 397.499 274.956 399.434C 271.841 403.439 268.383 405.812 266.596 406.294C 266.393 406.497 266.196 406.694 266 406.89C 265.732 407.157 265.324 407.28 265 407.338L 265 408.89L 267.5 408.89C 269.31 408.89 273.862 406.008 277.294 401.596C 278.939 399.481 281 394.89 281 389.39C 281 388.39 280 386.89 280 386.89z"/>
			<path style="stroke:#ffc; stroke-width:1; stroke-linecap:round; fill:none" d="M 265 408.39L 266 408.39C 267.5 408.39 272.5 404.89 276 400.39C 279.282 396.17 279.5 391.39 279.5 389.39C 279.5 388.205 279.5 387.82 279.5 387.39"/>
			<path style="stroke:#960; stroke-width:1; fill:none" d="M 264.5 409.39C 264.843 409.39 267.676 409.38 268 409.38C 273 409.38 275.5 407.39 279 403.89C 282.5 400.39 283.5 395.89 283.5 392.39C 283.5 389.39 282 387.39 282 387.39L 282 386.39L 279.5 386.39L 279.5 387.39C 279.5 387.39 278.447 388.523 277.5 390.89C 275.5 395.89 273 399.89 270.5 402.39C 267.951 404.939 267.003 405.886 266 406.89C 265.5 407.39 264.5 407.39 264.5 407.39L 264.5 409.39z"/>
			<path style="stroke:#fc0; stroke-width:1; fill:none" d="M 279.5 388.89L 279.5 385.89"/>
		</g>
		<g>
			<path style="stroke:none; fill:#c93" d="M 264.5 409.39C 264.843 409.39 267.676 409.38 268 409.38C 273 409.38 275.5 407.39 279 403.89C 282.5 400.39 283.5 395.89 283.5 392.39C 283.5 389.39 282 387.39 282 387.39L 280 387.39C 280 387.39 278.947 388.523 278 390.89C 276.267 395.222 273.659 398.803 271.5 401.309C 271.168 401.695 270.834 402.056 270.5 402.39C 267.951 404.939 267.003 405.886 266 406.89C 265.5 407.39 264.5 407.39 264.5 407.39L 264.5 409.39z"/>
			<path style="stroke:none; fill:#fc0" d="M 280 387.39C 280 387.39 278.947 388.523 278 390.89C 276.267 395.222 273.659 398.803 271.5 401.309C 271.168 401.695 270.834 402.056 270.5 402.39C 267.951 404.939 267.003 405.886 266 406.89C 265.5 407.39 264.5 407.39 264.5 407.39L 264.5 409.397C 265.464 409.394 265.785 409.39 266 409.39C 271 409.39 274.5 406.39 278 402.89C 281.5 399.39 282.5 394.89 282.5 391.39C 282.5 389.649 282.424 388.262 282 387.39L 280 387.39z"/>
			<path style="stroke:#ffc; stroke-width:1; stroke-linecap:round; fill:none" d="M 265 408.39L 266 408.39C 267.207 408.39 270.683 406.122 273.818 402.89"/>
			<path style="stroke:#c93; stroke-width:1; fill:none" d="M 264.5 409.39C 264.843 409.39 267.676 409.38 268 409.38C 273 409.38 275.5 407.39 279 403.89C 282.5 400.39 283.5 395.89 283.5 392.39C 283.5 389.39 282 387.39 282 387.39L 280.5 387.39C 280.5 389.543 280.5 388.043 280.5 389.39C 280.5 394.052 274.958 401.303 271.506 401.303C 271.172 401.692 270.836 402.054 270.5 402.39C 267.951 404.939 267.003 405.886 266 406.89C 265.5 407.39 264.5 407.39 264.5 407.39L 264.5 409.39z"/>
			<path style="stroke:none; fill:#ffc" d="M 280.5 387.89L 280.562 387.39L 280 387.39C 280 387.39 278.947 388.523 278 390.89C 276.267 395.222 273.659 398.803 271.5 401.309C 271.502 401.307 271.504 401.305 271.506 401.303C 274.958 401.303 280.5 394.052 280.5 389.39C 280.5 388.165 280.5 389.294 280.5 387.89z"/>
			<path style="stroke:#c93; stroke-width:1; fill:none" d="M 280.5 387.89L 280.562 387.39L 280 387.39C 280 387.39 278.947 388.523 278 390.89C 276.267 395.222 273.659 398.803 271.5 401.309C 271.502 401.307 271.504 401.305 271.506 401.303C 274.958 401.303 280.5 394.052 280.5 389.39C 280.5 388.165 280.5 389.294 280.5 387.89z"/>
			<path style="stroke:#960; stroke-width:1; fill:none" d="M 264.5 408.89L 264.5 409.39C 264.843 409.39 267.676 409.38 268 409.38C 273 409.38 275.5 407.39 279 403.89C 282.5 400.39 283.5 395.89 283.5 392.39C 283.5 389.39 282 387.39 282 387.39L 280.5 387.39C 280.5 387.585 280.5 387.75 280.5 387.89"/>
			<path style="stroke:none; fill:#fc0" d="M 273 400.89C 273.645 399.039 274.5 397.39 274.5 397.39C 273.5 395.89 272.5 393.39 269.5 393.39C 267 393.39 265.5 395.39 265.5 396.89C 265.5 397.39 265.5 398.39 265.5 398.39C 265.5 398.39 267 396.39 269 396.39C 272.312 396.39 272 399.282 272 401.282C 272 401.282 272.5 401.184 273 400.89z"/>
			<path style="stroke:none; fill:#c93" d="M 272.583 401.001C 272.583 400.155 272.643 394.499 268.14 393.626C 266.474 394.185 265.5 395.689 265.5 396.89C 265.5 397.39 265.5 398.39 265.5 398.39C 265.5 398.39 267 396.39 269 396.39C 272.203 396.39 272.017 399.092 272.001 401.079L 272.583 401.001z"/>
			<path style="stroke:#960; stroke-width:1; stroke-linecap:round; fill:none" d="M 273 400.89C 273.645 399.039 274.5 397.39 274.5 397.39C 273.5 395.89 272.5 393.39 269.5 393.39C 267 393.39 265.5 395.39 265.5 396.89C 265.5 397.39 265.5 398.39 265.5 398.39C 265.5 398.39 267 396.39 269 396.39C 272.102 396.39 272.025 398.926 272.003 400.89C 272.003 401.39 272.5 401.184 273 400.89z"/>
		</g>
		<g>
			<path style="stroke:none; fill:#c93" d="M 264.5 409.39C 264.843 409.39 267.676 409.38 268 409.38C 273 409.38 275.5 407.39 279 403.89C 282.5 400.39 283.5 395.89 283.5 392.39C 283.5 389.39 282 387.39 282 387.39L 280 387.39C 280 387.39 278.947 388.523 278 390.89C 276.267 395.222 273.659 398.803 271.5 401.309C 271.168 401.695 270.834 402.056 270.5 402.39C 267.951 404.939 267.003 405.886 266 406.89C 265.5 407.39 264.5 407.39 264.5 407.39L 264.5 409.39z"/>
			<path style="stroke:none; fill:#fc0" d="M 280 387.39C 280 387.39 278.947 388.523 278 390.89C 276.267 395.222 273.659 398.803 271.5 401.309C 271.168 401.695 270.834 402.056 270.5 402.39C 267.951 404.939 267.003 405.886 266 406.89C 265.5 407.39 264.5 407.39 264.5 407.39L 264.5 409.397C 265.464 409.394 265.785 409.39 266 409.39C 271 409.39 274.5 406.39 278 402.89C 281.5 399.39 282.5 394.89 282.5 391.39C 282.5 389.649 282.424 388.262 282 387.39L 280 387.39z"/>
			<path style="stroke:#ffc; stroke-width:1; stroke-linecap:round; fill:none" d="M 265 408.39L 266 408.39C 267.207 408.39 270.683 406.122 273.818 402.89"/>
			<path style="stroke:#c93; stroke-width:1; fill:none" d="M 264.5 409.39C 264.843 409.39 267.676 409.38 268 409.38C 273 409.38 275.5 407.39 279 403.89C 282.5 400.39 283.5 395.89 283.5 392.39C 283.5 389.39 282 387.39 282 387.39L 280.5 387.39C 280.5 389.543 280.5 388.043 280.5 389.39C 280.5 394.052 274.958 401.303 271.506 401.303C 271.172 401.692 270.836 402.054 270.5 402.39C 267.951 404.939 267.003 405.886 266 406.89C 265.5 407.39 264.5 407.39 264.5 407.39L 264.5 409.39z"/>
			<path style="stroke:none; fill:#ffc" d="M 282 387.39L 280 387.39C 280 387.39 278.947 388.523 278 390.89C 276.267 395.222 273.659 398.803 271.5 401.309C 271.502 401.307 271.504 401.305 271.506 401.303C 272.765 401.303 276.75 401.89 278 401.89C 280.518 399.361 282 392.353 282 389.39C 282 388.89 282 387.39 282 387.39z"/>
			<path style="stroke:none; fill:#fff" d="M 282 387.39L 281.377 387.39C 280.592 392.938 275.828 399.287 273.688 400.999L 274.107 401.524C 274.254 401.54 274.402 401.557 274.55 401.573C 276.852 399.592 280.646 394.378 282 389.336C 282 388.795 282 387.39 282 387.39z"/>
			<path style="stroke:#960; stroke-width:1; fill:none" d="M 264.5 408.89L 264.5 409.39C 264.843 409.39 267.676 409.38 268 409.38C 273 409.38 275.5 407.39 279 403.89C 282.5 400.39 283.5 395.89 283.5 392.39C 283.5 389.39 282 387.39 282 387.39L 280.5 387.39C 280.5 387.585 280.5 387.75 280.5 387.89"/>
			<path style="stroke:#c93; stroke-width:1; fill:none" d="M 282 387.39L 280 387.39C 280 387.39 278.947 388.523 278 390.89C 276.267 395.222 273.659 398.803 271.5 401.309"/>
			<path style="stroke:none; fill:#fc0" d="M 273 400.89C 273.645 399.039 274.5 397.39 274.5 397.39C 273.5 395.89 272.5 393.39 269.5 393.39C 267 393.39 265.5 395.39 265.5 396.89C 265.5 397.39 265.5 398.39 265.5 398.39C 265.5 398.39 267 396.39 269 396.39C 272.312 396.39 272 399.282 272 401.282C 272 401.282 272.5 401.184 273 400.89z"/>
			<path style="stroke:none; fill:#c93" d="M 272.583 401.001C 272.583 400.155 272.643 394.499 268.14 393.626C 266.474 394.185 265.5 395.689 265.5 396.89C 265.5 397.39 265.5 398.39 265.5 398.39C 265.5 398.39 267 396.39 269 396.39C 272.203 396.39 272.017 399.092 272.001 401.079L 272.583 401.001z"/>
			<path style="stroke:#960; stroke-width:1; stroke-linecap:round; fill:none" d="M 273 400.89C 273.645 399.039 274.5 397.39 274.5 397.39C 273.5 395.89 272.5 393.39 269.5 393.39C 267 393.39 265.5 395.39 265.5 396.89C 265.5 397.39 265.5 398.39 265.5 398.39C 265.5 398.39 267 396.39 269 396.39C 272.102 396.39 272.025 398.926 272.003 400.89C 272.003 401.39 272.5 401.184 273 400.89z"/>
			<path style="stroke:none; fill:#fc0" d="M 273.027 400.911C 273.027 400.911 275.5 403.89 275.5 409.39C 275.5 409.39 279.5 409.39 279.5 405.39C 279.5 403.89 278.565 402.954 278 402.39C 275.5 402.39 273.027 400.911 273.027 400.911z"/>
			<path style="stroke:#960; stroke-width:1; fill:none" d="M 273.027 400.911C 273.027 400.911 275.5 403.89 275.5 409.39C 275.5 409.39 279.5 409.39 279.5 405.39C 279.5 403.89 278.565 402.954 278 402.39C 275.5 402.39 273.027 400.911 273.027 400.911z"/>
		</g>
		<g>
			<path style="stroke:none; fill:#c93" d="M 264.5 409.39C 264.843 409.39 267.676 409.38 268 409.38C 273 409.38 275.5 407.39 279 403.89C 282.5 400.39 283.5 395.89 283.5 392.39C 283.5 389.39 282 387.39 282 387.39L 280 387.39C 280 387.39 278.947 388.523 278 390.89C 276.267 395.222 273.659 398.803 271.5 401.309C 271.168 401.695 270.834 402.056 270.5 402.39C 267.951 404.939 267.003 405.886 266 406.89C 265.5 407.39 264.5 407.39 264.5 407.39L 264.5 409.39z"/>
			<path style="stroke:none; fill:#fc0" d="M 280 387.39C 280 387.39 278.947 388.523 278 390.89C 276.267 395.222 273.659 398.803 271.5 401.309C 271.168 401.695 270.834 402.056 270.5 402.39C 267.951 404.939 267.003 405.886 266 406.89C 265.5 407.39 264.5 407.39 264.5 407.39L 264.5 409.397C 265.464 409.394 265.785 409.39 266 409.39C 271 409.39 274.5 406.39 278 402.89C 281.5 399.39 282.5 394.89 282.5 391.39C 282.5 389.649 282.424 388.262 282 387.39L 280 387.39z"/>
			<path style="stroke:none; fill:#fc6" d="M 282 387.39L 280 387.39C 280 387.39 278.947 388.523 278 390.89C 276.359 394.992 273.937 398.41 271.852 400.89L 275.5 401.89C 275.5 401.89 277.667 403.223 278 402.89C 281.5 399.39 283.5 394.39 283.5 390.89C 283.5 389.149 282.424 388.262 282 387.39z"/>
			<path style="stroke:#ffc; stroke-width:1; stroke-linecap:round; fill:none" d="M 265 408.39L 266 408.39C 267.207 408.39 270.683 406.122 273.818 402.89"/>
			<path style="stroke:#c93; stroke-width:1; fill:none" d="M 264.5 409.39C 264.843 409.39 267.676 409.38 268 409.38C 273 409.38 275.5 407.39 279 403.89C 282.5 400.39 283.5 395.89 283.5 392.39C 283.5 389.39 282 387.39 282 387.39L 280.5 387.39C 280.5 389.543 280.5 388.043 280.5 389.39C 280.5 394.052 274.958 401.303 271.506 401.303C 271.172 401.692 270.836 402.054 270.5 402.39C 267.951 404.939 267.003 405.886 266 406.89C 265.5 407.39 264.5 407.39 264.5 407.39L 264.5 409.39z"/>
			<path style="stroke:none; fill:#ffc" d="M 281.448 387.39L 280 387.39C 280 387.39 278.947 388.523 278 390.89C 276.405 394.878 274.074 398.211 272.03 400.672L 274.648 401.39C 274.648 401.39 276.815 402.723 277.148 402.39C 284.824 394.714 281.942 388.127 281.448 387.39z"/>
			<path style="stroke:none; fill:#fff" d="M 282 387.39L 281.377 387.39C 280.592 392.938 275.828 399.287 273.688 400.999L 274.107 401.524C 274.254 401.54 274.402 401.557 274.55 401.573C 276.852 399.592 280.646 394.378 282 389.336C 282 388.795 282 387.39 282 387.39z"/>
			<path style="stroke:#960; stroke-width:1; fill:none" d="M 264.5 408.89L 264.5 409.39C 264.843 409.39 267.676 409.38 268 409.38C 273 409.38 275.5 407.39 279 403.89C 282.5 400.39 283.5 395.89 283.5 392.39C 283.5 389.39 282 387.39 282 387.39L 280.5 387.39C 280.5 387.585 280.5 387.75 280.5 387.89"/>
			<path style="stroke:#c93; stroke-width:1; fill:none" d="M 282 387.39L 280 387.39C 280 387.39 278.947 388.523 278 390.89C 276.267 395.222 273.659 398.803 271.5 401.309"/>
			<path style="stroke:none; fill:#fc0" d="M 273 400.89C 273.645 399.039 274.5 397.39 274.5 397.39C 273.5 395.89 272.5 393.39 269.5 393.39C 267 393.39 265.5 395.39 265.5 396.89C 265.5 397.39 265.5 398.39 265.5 398.39C 265.5 398.39 267 396.39 269 396.39C 272.312 396.39 272 399.282 272 401.282C 272 401.282 272.5 401.184 273 400.89z"/>
			<path style="stroke:none; fill:#c93" d="M 272.583 401.001C 272.583 400.155 272.643 394.499 268.14 393.626C 266.474 394.185 265.5 395.689 265.5 396.89C 265.5 397.39 265.5 398.39 265.5 398.39C 265.5 398.39 267 396.39 269 396.39C 272.203 396.39 272.017 399.092 272.001 401.079L 272.583 401.001z"/>
			<path style="stroke:#960; stroke-width:1; stroke-linecap:round; fill:none" d="M 273 400.89C 273.645 399.039 274.5 397.39 274.5 397.39C 273.5 395.89 272.5 393.39 269.5 393.39C 267 393.39 265.5 395.39 265.5 396.89C 265.5 397.39 265.5 398.39 265.5 398.39C 265.5 398.39 267 396.39 269 396.39C 272.102 396.39 272.025 398.926 272.003 400.89C 272.003 401.39 272.5 401.184 273 400.89z"/>
			<path style="stroke:none; fill:#c93" d="M 281 401.39C 283.5 401.39 284.5 403.39 284.5 404.89C 284.5 407.223 283 408.89 283 408.89C 280.5 403.39 278 402.39 278 402.39C 278 402.39 279.75 401.814 281 401.39z"/>
			<path style="stroke:none; fill:#fc0" d="M 279.506 401.891C 278.686 402.164 278 402.39 278 402.39C 278 402.39 280.5 403.39 283 408.89C 283 408.89 284.176 407.574 284.442 405.648C 283.057 402.564 279.558 401.9 279.506 401.891z"/>
			<path style="stroke:#960; stroke-width:1; fill:none" d="M 281 401.39C 283.5 401.39 284.5 403.39 284.5 404.89C 284.5 407.223 283 408.89 283 408.89C 280.5 403.39 278 402.39 278 402.39C 278 402.39 279.75 401.814 281 401.39z"/>
			<path style="stroke:none; fill:#fc0" d="M 273.027 400.911C 273.027 400.911 275.5 403.89 275.5 409.39C 275.5 409.39 279.5 409.39 279.5 405.39C 279.5 403.89 278.565 402.954 278 402.39C 275.5 402.39 273.027 400.911 273.027 400.911z"/>
			<path style="stroke:#960; stroke-width:1; fill:none" d="M 273.027 400.911C 273.027 400.911 275.5 403.89 275.5 409.39C 275.5 409.39 279.5 409.39 279.5 405.39C 279.5 403.89 278.565 402.954 278 402.39C 275.5 402.39 273.027 400.911 273.027 400.911z"/>
		</g>
	</g>
</svg>
