<svg xmlns="http://www.w3.org/2000/svg" width="24" height="24">
	<g transform="translate(-264,-386)" id="KDDI_D_740">
		<g>
			<path style="stroke:none; fill:none" d="M 288 409.89L 264 409.89L 264 385.89L 288 385.89L 288 409.89z"/>
		</g>
		<g>
			<path style="stroke:none; fill:#393" d="M 264 409.89L 273 400.89L 273 391.89C 273 391.89 272.831 390.89 272 390.89C 271.403 390.89 270.464 390.89 269 390.89C 265.5 390.89 264 392.89 264 392.89L 268 392.89C 268 392.89 264 401.39 264 404.89C 264 407.39 264 409.89 264 409.89z"/>
			<path style="stroke:none; fill:#363" d="M 264 409.89L 273 400.89L 282 400.89C 282 400.89 283 401.059 283 401.89C 283 402.487 283 403.426 283 404.89C 283 408.39 281 409.89 281 409.89L 281 405.89C 281 405.89 272.5 409.89 269 409.89C 266.5 409.89 264 409.89 264 409.89z"/>
			<path style="stroke:none; fill:#693" d="M 282 400.89C 282 400.89 278.112 407.192 272.258 409.29C 274.009 408.787 275.948 408.05 277.561 407.388C 280.759 405.084 283 401.89 283 401.89C 283 401.059 282 400.89 282 400.89z"/>
			<path style="stroke:none; fill:#363" d="M 264.6 401.63C 264 404.89 266 407.89 266 407.89L 273 400.89L 273 391.89C 273 391.89 266.699 395.777 264.6 401.63z"/>
			<path style="stroke:none; fill:#693" d="M 273 391.89C 273 391.89 266.698 395.777 264.6 401.631C 265.103 399.88 265.839 397.942 266.501 396.328C 268.806 393.131 272 390.89 272 390.89C 272.831 390.89 273 391.89 273 391.89z"/>
			<path style="stroke:none; fill:#960" d="M 279.47 391.041C 277.644 391.128 275.2 391.817 273.857 393.161L 268.596 398.422C 267.966 399.053 265.02 403.046 265 406.036C 264.994 406.912 265.059 407.794 265.574 408.308C 266.141 408.875 267.093 408.916 267.86 408.89C 270.706 408.787 274.585 405.882 275.319 405.15C 275.321 405.148 280.582 399.886 280.582 399.886C 281.797 398.671 282.706 396.445 282.842 394.349C 282.913 393.284 282.893 392.214 282.281 391.601C 281.668 390.988 280.556 390.989 279.47 391.041z"/>
			<path style="stroke:none; fill:#c90" d="M 281.879 393.906C 281.949 392.841 281.929 391.773 281.317 391.159C 281.298 391.142 281.276 391.129 281.257 391.111C 280.717 391.002 280.091 391.011 279.47 391.041C 277.644 391.128 275.2 391.817 273.857 393.161L 268.596 398.422C 267.966 399.053 265.02 403.046 265 406.036C 264.994 406.912 265.059 407.794 265.574 408.308C 265.604 408.339 265.646 408.353 265.678 408.38C 266.082 408.459 266.514 408.461 266.896 408.448C 269.741 408.346 273.622 405.442 274.356 404.708C 274.357 404.707 279.619 399.444 279.619 399.444C 280.834 398.229 281.742 396.004 281.879 393.906z"/>
			<path style="stroke:none; fill:#930" d="M 281 392.89C 281 392.89 281 391.39 281 389.89C 281 388.39 281.5 385.89 284.5 385.89C 284.5 385.89 282.5 385.89 282.5 391.39C 282.5 391.39 284.5 391.39 285.5 391.39C 286.5 391.39 288 391.39 288 394.89C 288 394.89 287.5 392.89 284 392.89C 281.5 392.89 281 392.89 281 392.89z"/>
			<path style="stroke:none; fill:#930" d="M 282 390.89C 282 390.89 282.5 389.89 283 389.39C 283.481 388.909 284.5 388.392 286 388.392C 286.161 388.392 287.828 388.39 288 388.39C 288 388.39 284 388.89 284 391.89L 282 391.89L 282 390.89z"/>
			<path style="stroke:none; fill:#fc0" d="M 275.976 394.39C 275.976 394.652 275.763 394.865 275.5 394.865C 275.237 394.865 275.024 394.652 275.024 394.39C 275.024 394.127 275.237 393.915 275.5 393.915C 275.763 393.915 275.976 394.127 275.976 394.39z"/>
			<path style="stroke:none; fill:#fc0" d="M 274.976 395.39C 274.976 395.652 274.763 395.865 274.5 395.865C 274.237 395.865 274.024 395.652 274.024 395.39C 274.024 395.127 274.237 394.915 274.5 394.915C 274.763 394.915 274.976 395.127 274.976 395.39z"/>
			<path style="stroke:none; fill:#fc0" d="M 273.976 396.39C 273.976 396.652 273.763 396.865 273.5 396.865C 273.237 396.865 273.024 396.652 273.024 396.39C 273.024 396.127 273.237 395.915 273.5 395.915C 273.763 395.915 273.976 396.127 273.976 396.39z"/>
			<path style="stroke:none; fill:#fc0" d="M 272.976 397.39C 272.976 397.652 272.763 397.865 272.5 397.865C 272.237 397.865 272.024 397.652 272.024 397.39C 272.024 397.127 272.237 396.915 272.5 396.915C 272.763 396.915 272.976 397.127 272.976 397.39z"/>
			<path style="stroke:none; fill:#fc0" d="M 276.976 393.39C 276.976 393.652 276.763 393.865 276.5 393.865C 276.237 393.865 276.024 393.652 276.024 393.39C 276.024 393.127 276.237 392.915 276.5 392.915C 276.763 392.915 276.976 393.127 276.976 393.39z"/>
			<path style="stroke:none; fill:#fc0" d="M 271.976 398.39C 271.976 398.652 271.763 398.865 271.5 398.865C 271.237 398.865 271.024 398.652 271.024 398.39C 271.024 398.127 271.237 397.915 271.5 397.915C 271.763 397.915 271.976 398.127 271.976 398.39z"/>
			<path style="stroke:none; fill:#fc0" d="M 270.976 399.39C 270.976 399.652 270.763 399.865 270.5 399.865C 270.237 399.865 270.024 399.652 270.024 399.39C 270.024 399.127 270.237 398.915 270.5 398.915C 270.763 398.915 270.976 399.127 270.976 399.39z"/>
			<path style="stroke:none; fill:#fc0" d="M 269.976 400.39C 269.976 400.652 269.763 400.865 269.5 400.865C 269.237 400.865 269.024 400.652 269.024 400.39C 269.024 400.127 269.237 399.915 269.5 399.915C 269.763 399.915 269.976 400.127 269.976 400.39z"/>
			<path style="stroke:none; fill:#fc0" d="M 268.976 401.39C 268.976 401.652 268.763 401.865 268.5 401.865C 268.237 401.865 268.024 401.652 268.024 401.39C 268.024 401.127 268.237 400.915 268.5 400.915C 268.763 400.915 268.976 401.127 268.976 401.39z"/>
			<path style="stroke:none; fill:#fc0" d="M 267.976 402.39C 267.976 402.652 267.763 402.865 267.5 402.865C 267.237 402.865 267.024 402.652 267.024 402.39C 267.024 402.127 267.237 401.915 267.5 401.915C 267.763 401.915 267.976 402.127 267.976 402.39z"/>
			<path style="stroke:none; fill:#fc0" d="M 266.976 403.39C 266.976 403.652 266.763 403.865 266.5 403.865C 266.237 403.865 266.024 403.652 266.024 403.39C 266.024 403.127 266.237 402.915 266.5 402.915C 266.763 402.915 266.976 403.127 266.976 403.39z"/>
			<path style="stroke:none; fill:#fc0" d="M 276.976 395.39C 276.976 395.652 276.763 395.865 276.5 395.865C 276.237 395.865 276.024 395.652 276.024 395.39C 276.024 395.127 276.237 394.915 276.5 394.915C 276.763 394.915 276.976 395.127 276.976 395.39z"/>
			<path style="stroke:none; fill:#fc0" d="M 275.976 396.39C 275.976 396.652 275.763 396.865 275.5 396.865C 275.237 396.865 275.024 396.652 275.024 396.39C 275.024 396.127 275.237 395.915 275.5 395.915C 275.763 395.915 275.976 396.127 275.976 396.39z"/>
			<path style="stroke:none; fill:#fc0" d="M 274.976 397.39C 274.976 397.652 274.763 397.865 274.5 397.865C 274.237 397.865 274.024 397.652 274.024 397.39C 274.024 397.127 274.237 396.915 274.5 396.915C 274.763 396.915 274.976 397.127 274.976 397.39z"/>
			<path style="stroke:none; fill:#fc0" d="M 273.976 398.39C 273.976 398.652 273.763 398.865 273.5 398.865C 273.237 398.865 273.024 398.652 273.024 398.39C 273.024 398.127 273.237 397.915 273.5 397.915C 273.763 397.915 273.976 398.127 273.976 398.39z"/>
			<path style="stroke:none; fill:#fc0" d="M 278.976 393.39C 278.976 393.652 278.763 393.865 278.5 393.865C 278.237 393.865 278.024 393.652 278.024 393.39C 278.024 393.127 278.237 392.915 278.5 392.915C 278.763 392.915 278.976 393.127 278.976 393.39z"/>
			<path style="stroke:none; fill:#fc0" d="M 277.976 394.39C 277.976 394.652 277.763 394.865 277.5 394.865C 277.237 394.865 277.024 394.652 277.024 394.39C 277.024 394.127 277.237 393.915 277.5 393.915C 277.763 393.915 277.976 394.127 277.976 394.39z"/>
			<path style="stroke:none; fill:#fc0" d="M 272.976 399.39C 272.976 399.652 272.763 399.865 272.5 399.865C 272.237 399.865 272.024 399.652 272.024 399.39C 272.024 399.127 272.237 398.915 272.5 398.915C 272.763 398.915 272.976 399.127 272.976 399.39z"/>
			<path style="stroke:none; fill:#fc0" d="M 271.976 400.39C 271.976 400.652 271.763 400.865 271.5 400.865C 271.237 400.865 271.024 400.652 271.024 400.39C 271.024 400.127 271.237 399.915 271.5 399.915C 271.763 399.915 271.976 400.127 271.976 400.39z"/>
			<path style="stroke:none; fill:#fc0" d="M 270.976 401.39C 270.976 401.652 270.763 401.865 270.5 401.865C 270.237 401.865 270.024 401.652 270.024 401.39C 270.024 401.127 270.237 400.915 270.5 400.915C 270.763 400.915 270.976 401.127 270.976 401.39z"/>
			<path style="stroke:none; fill:#fc0" d="M 269.976 402.39C 269.976 402.652 269.763 402.865 269.5 402.865C 269.237 402.865 269.024 402.652 269.024 402.39C 269.024 402.127 269.237 401.915 269.5 401.915C 269.763 401.915 269.976 402.127 269.976 402.39z"/>
			<path style="stroke:none; fill:#fc0" d="M 268.976 403.39C 268.976 403.652 268.763 403.865 268.5 403.865C 268.237 403.865 268.024 403.652 268.024 403.39C 268.024 403.127 268.237 402.915 268.5 402.915C 268.763 402.915 268.976 403.127 268.976 403.39z"/>
			<path style="stroke:none; fill:#fc0" d="M 267.976 404.39C 267.976 404.652 267.763 404.865 267.5 404.865C 267.237 404.865 267.024 404.652 267.024 404.39C 267.024 404.127 267.237 403.915 267.5 403.915C 267.763 403.915 267.976 404.127 267.976 404.39z"/>
			<path style="stroke:none; fill:#fc0" d="M 266.976 405.39C 266.976 405.652 266.763 405.865 266.5 405.865C 266.237 405.865 266.024 405.652 266.024 405.39C 266.024 405.127 266.237 404.915 266.5 404.915C 266.763 404.915 266.976 405.127 266.976 405.39z"/>
			<path style="stroke:none; fill:#fc0" d="M 265.976 406.39C 265.976 406.652 265.763 406.865 265.5 406.865C 265.237 406.865 265.024 406.652 265.024 406.39C 265.024 406.127 265.237 405.915 265.5 405.915C 265.763 405.915 265.976 406.127 265.976 406.39z"/>
			<path style="stroke:none; fill:#fc0" d="M 277.976 396.39C 277.976 396.652 277.763 396.865 277.5 396.865C 277.237 396.865 277.024 396.652 277.024 396.39C 277.024 396.127 277.237 395.915 277.5 395.915C 277.763 395.915 277.976 396.127 277.976 396.39z"/>
			<path style="stroke:none; fill:#fc0" d="M 276.976 397.39C 276.976 397.652 276.763 397.865 276.5 397.865C 276.237 397.865 276.024 397.652 276.024 397.39C 276.024 397.127 276.237 396.915 276.5 396.915C 276.763 396.915 276.976 397.127 276.976 397.39z"/>
			<path style="stroke:none; fill:#fc0" d="M 275.976 398.39C 275.976 398.652 275.763 398.865 275.5 398.865C 275.237 398.865 275.024 398.652 275.024 398.39C 275.024 398.127 275.237 397.915 275.5 397.915C 275.763 397.915 275.976 398.127 275.976 398.39z"/>
			<path style="stroke:none; fill:#fc0" d="M 274.976 399.39C 274.976 399.652 274.763 399.865 274.5 399.865C 274.237 399.865 274.024 399.652 274.024 399.39C 274.024 399.127 274.237 398.915 274.5 398.915C 274.763 398.915 274.976 399.127 274.976 399.39z"/>
			<path style="stroke:none; fill:#fc0" d="M 279.976 394.39C 279.976 394.652 279.763 394.865 279.5 394.865C 279.237 394.865 279.024 394.652 279.024 394.39C 279.024 394.127 279.237 393.915 279.5 393.915C 279.763 393.915 279.976 394.127 279.976 394.39z"/>
			<path style="stroke:none; fill:#fc0" d="M 278.976 395.39C 278.976 395.652 278.763 395.865 278.5 395.865C 278.237 395.865 278.024 395.652 278.024 395.39C 278.024 395.127 278.237 394.915 278.5 394.915C 278.763 394.915 278.976 395.127 278.976 395.39z"/>
			<path style="stroke:none; fill:#fc0" d="M 273.976 400.39C 273.976 400.652 273.763 400.865 273.5 400.865C 273.237 400.865 273.024 400.652 273.024 400.39C 273.024 400.127 273.237 399.915 273.5 399.915C 273.763 399.915 273.976 400.127 273.976 400.39z"/>
			<path style="stroke:none; fill:#fc0" d="M 272.976 401.39C 272.976 401.652 272.763 401.865 272.5 401.865C 272.237 401.865 272.024 401.652 272.024 401.39C 272.024 401.127 272.237 400.915 272.5 400.915C 272.763 400.915 272.976 401.127 272.976 401.39z"/>
			<path style="stroke:none; fill:#fc0" d="M 271.976 402.39C 271.976 402.652 271.763 402.865 271.5 402.865C 271.237 402.865 271.024 402.652 271.024 402.39C 271.024 402.127 271.237 401.915 271.5 401.915C 271.763 401.915 271.976 402.127 271.976 402.39z"/>
			<path style="stroke:none; fill:#fc0" d="M 270.976 403.39C 270.976 403.652 270.763 403.865 270.5 403.865C 270.237 403.865 270.024 403.652 270.024 403.39C 270.024 403.127 270.237 402.915 270.5 402.915C 270.763 402.915 270.976 403.127 270.976 403.39z"/>
			<path style="stroke:none; fill:#fc0" d="M 269.976 404.39C 269.976 404.652 269.763 404.865 269.5 404.865C 269.237 404.865 269.024 404.652 269.024 404.39C 269.024 404.127 269.237 403.915 269.5 403.915C 269.763 403.915 269.976 404.127 269.976 404.39z"/>
			<path style="stroke:none; fill:#fc0" d="M 268.976 405.39C 268.976 405.652 268.763 405.865 268.5 405.865C 268.237 405.865 268.024 405.652 268.024 405.39C 268.024 405.127 268.237 404.915 268.5 404.915C 268.763 404.915 268.976 405.127 268.976 405.39z"/>
			<path style="stroke:none; fill:#fc0" d="M 267.976 406.39C 267.976 406.652 267.763 406.865 267.5 406.865C 267.237 406.865 267.024 406.652 267.024 406.39C 267.024 406.127 267.237 405.915 267.5 405.915C 267.763 405.915 267.976 406.127 267.976 406.39z"/>
			<path style="stroke:none; fill:#fc0" d="M 266.976 407.39C 266.976 407.652 266.763 407.865 266.5 407.865C 266.237 407.865 266.024 407.652 266.024 407.39C 266.024 407.127 266.237 406.915 266.5 406.915C 266.763 406.915 266.976 407.127 266.976 407.39z"/>
			<path style="stroke:none; fill:#fc0" d="M 278.976 397.39C 278.976 397.652 278.763 397.865 278.5 397.865C 278.237 397.865 278.024 397.652 278.024 397.39C 278.024 397.127 278.237 396.915 278.5 396.915C 278.763 396.915 278.976 397.127 278.976 397.39z"/>
			<path style="stroke:none; fill:#fc0" d="M 277.976 398.39C 277.976 398.652 277.763 398.865 277.5 398.865C 277.237 398.865 277.024 398.652 277.024 398.39C 277.024 398.127 277.237 397.915 277.5 397.915C 277.763 397.915 277.976 398.127 277.976 398.39z"/>
			<path style="stroke:none; fill:#fc0" d="M 276.976 399.39C 276.976 399.652 276.763 399.865 276.5 399.865C 276.237 399.865 276.024 399.652 276.024 399.39C 276.024 399.127 276.237 398.915 276.5 398.915C 276.763 398.915 276.976 399.127 276.976 399.39z"/>
			<path style="stroke:none; fill:#fc0" d="M 275.976 400.39C 275.976 400.652 275.763 400.865 275.5 400.865C 275.237 400.865 275.024 400.652 275.024 400.39C 275.024 400.127 275.237 399.915 275.5 399.915C 275.763 399.915 275.976 400.127 275.976 400.39z"/>
			<path style="stroke:none; fill:#fc0" d="M 279.976 396.39C 279.976 396.652 279.763 396.865 279.5 396.865C 279.237 396.865 279.024 396.652 279.024 396.39C 279.024 396.127 279.237 395.915 279.5 395.915C 279.763 395.915 279.976 396.127 279.976 396.39z"/>
			<path style="stroke:none; fill:#fc0" d="M 274.976 401.39C 274.976 401.652 274.763 401.865 274.5 401.865C 274.237 401.865 274.024 401.652 274.024 401.39C 274.024 401.127 274.237 400.915 274.5 400.915C 274.763 400.915 274.976 401.127 274.976 401.39z"/>
			<path style="stroke:none; fill:#fc0" d="M 273.976 402.39C 273.976 402.652 273.763 402.865 273.5 402.865C 273.237 402.865 273.024 402.652 273.024 402.39C 273.024 402.127 273.237 401.915 273.5 401.915C 273.763 401.915 273.976 402.127 273.976 402.39z"/>
			<path style="stroke:none; fill:#fc0" d="M 272.976 403.39C 272.976 403.652 272.763 403.865 272.5 403.865C 272.237 403.865 272.024 403.652 272.024 403.39C 272.024 403.127 272.237 402.915 272.5 402.915C 272.763 402.915 272.976 403.127 272.976 403.39z"/>
			<path style="stroke:none; fill:#fc0" d="M 271.976 404.39C 271.976 404.652 271.763 404.865 271.5 404.865C 271.237 404.865 271.024 404.652 271.024 404.39C 271.024 404.127 271.237 403.915 271.5 403.915C 271.763 403.915 271.976 404.127 271.976 404.39z"/>
			<path style="stroke:none; fill:#fc0" d="M 270.976 405.39C 270.976 405.652 270.763 405.865 270.5 405.865C 270.237 405.865 270.024 405.652 270.024 405.39C 270.024 405.127 270.237 404.915 270.5 404.915C 270.763 404.915 270.976 405.127 270.976 405.39z"/>
			<path style="stroke:none; fill:#fc0" d="M 269.976 406.39C 269.976 406.652 269.763 406.865 269.5 406.865C 269.237 406.865 269.024 406.652 269.024 406.39C 269.024 406.127 269.237 405.915 269.5 405.915C 269.763 405.915 269.976 406.127 269.976 406.39z"/>
			<path style="stroke:none; fill:#fc0" d="M 268.976 407.39C 268.976 407.652 268.763 407.865 268.5 407.865C 268.237 407.865 268.024 407.652 268.024 407.39C 268.024 407.127 268.237 406.915 268.5 406.915C 268.763 406.915 268.976 407.127 268.976 407.39z"/>
			<path style="stroke:none; fill:#c60" d="M 282 391.89C 282 391.89 281.005 391.89 281.005 391.39C 281 391.226 281 390.058 281 389.89C 281 389.89 281.125 391.39 282.5 391.39C 282.5 391.39 282.375 392.89 284.5 392.89C 284.5 392.89 283 392.89 282.5 392.89C 282 392.89 282 391.89 282 391.89z"/>
		</g>
	</g>
</svg>
