<svg xmlns="http://www.w3.org/2000/svg" width="24" height="24">
	<g transform="translate(-264,-386)" id="KDDI_D_741">
		<g>
			<path style="stroke:none; fill:none" d="M 288 409.89L 264 409.89L 264 385.89L 288 385.89L 288 409.89z"/>
		</g>
		<g>
			<path style="stroke:none; fill:#963" d="M 281.5 405.39C 281.5 407.89 280 409.39 278 409.39L 274 409.39C 272 409.39 270.5 407.89 270.5 405.39L 272 397.89L 280 397.89L 281.5 405.39z"/>
			<path style="stroke:none; fill:#c96" d="M 277.501 403.285C 278.397 403.779 279 404.65 279 405.39C 279 406.494 277.657 407.39 276 407.39C 274.343 407.39 273 406.494 273 405.39C 273 404.65 273.603 403.779 274.5 403.285C 274.941 403.042 274.562 398.39 276 398.39C 277.438 398.39 277.06 403.042 277.501 403.285z"/>
			<path style="stroke:#630; stroke-width:1; fill:none" d="M 281.5 405.39C 281.5 407.89 280 409.39 278 409.39L 274 409.39C 272 409.39 270.5 407.89 270.5 405.39L 272 397.89L 280 397.89L 281.5 405.39z"/>
			<path style="stroke:none; fill:#c96" d="M 273 405.39C 273 408.528 276 408.89 276 408.89C 275.432 408.89 275.081 408.164 274.861 407.238C 273.77 406.939 273 406.225 273 405.39z"/>
			<path style="stroke:none; fill:#fc9" d="M 274.5 403.285C 273.603 403.779 273 404.65 273 405.39C 273 406.225 273.77 406.939 274.861 407.238C 274.468 405.585 274.5 403.285 274.5 403.285z"/>
			<path style="stroke:none; fill:#900" d="M 288 397.89C 288 399.89 282 400.89 276 400.89C 270 400.89 264 399.89 264 397.89C 264 391.89 268 385.89 276 385.89C 284 385.89 288 391.89 288 397.89z"/>
			<path style="stroke:none; fill:#c33" d="M 275.749 385.901C 268.106 386.026 264.199 391.676 264.018 397.468C 264.202 398.648 268.549 399.89 275.5 399.89C 282.603 399.89 287 398.592 287 397.39C 287 391.911 283.472 386.029 275.749 385.901z"/>
			<path style="stroke:none; fill:#c00" d="M 264.076 396.658C 264.692 397.774 268.928 398.878 275.482 398.878C 282.415 398.878 286.757 397.642 286.963 396.465C 286.587 391.27 283.039 386.022 275.749 385.901C 268.463 386.02 264.581 391.161 264.076 396.658z"/>
			<path style="stroke:none; fill:#c33" d="M 274 391.89C 274 393.823 272.433 395.39 270.5 395.39C 268.567 395.39 267 393.823 267 391.89C 267 389.957 268.567 388.39 270.5 388.39C 272.433 388.39 274 389.957 274 391.89z"/>
			<path style="stroke:none; fill:#f90" d="M 279 389.89C 279 391.271 276.985 392.39 274.5 392.39C 272.015 392.39 270 391.271 270 389.89C 270 388.509 272.015 387.39 274.5 387.39C 276.985 387.39 279 388.509 279 389.89z"/>
			<path style="stroke:none; fill:#fc0" d="M 270.75 389.89C 270.75 390.716 272.353 391.64 274.5 391.64C 276.647 391.64 278.25 390.716 278.25 389.89C 278.25 389.064 276.647 388.14 274.5 388.14C 272.353 388.14 270.75 389.064 270.75 389.89z"/>
			<path style="stroke:none; fill:#f90" d="M 269.84 396.511C 269.213 398.34 267.646 399.459 266.339 399.011C 265.034 398.564 264.483 396.718 265.11 394.89C 265.737 393.061 267.304 391.942 268.61 392.39C 269.916 392.837 270.466 394.683 269.84 396.511z"/>
			<path style="stroke:none; fill:#fc0" d="M 265.819 395.133C 265.335 396.543 265.685 397.994 266.583 398.302C 267.48 398.609 268.647 397.678 269.13 396.268C 269.614 394.858 269.264 393.406 268.366 393.099C 267.469 392.791 266.303 393.723 265.819 395.133z"/>
			<path style="stroke:none; fill:#f90" d="M 281 399.39C 281 397.733 279.657 396.39 278 396.39C 276.343 396.39 275 397.733 275 399.39C 275 399.559 275.023 399.723 275.05 399.885C 275.201 399.886 275.346 399.89 275.5 399.89C 277.574 399.89 279.409 399.777 280.98 399.59C 280.984 399.523 281 399.459 281 399.39z"/>
			<path style="stroke:none; fill:#f90" d="M 281.443 387.34C 281.168 387.794 281 388.32 281 388.89C 281 390.546 282.343 391.89 284 391.89C 284.557 391.89 285.071 391.728 285.518 391.464C 284.603 389.792 283.25 388.343 281.443 387.34z"/>
			<path style="stroke:none; fill:#fc0" d="M 280.25 399.39C 280.25 398.149 279.241 397.14 278 397.14C 276.759 397.14 275.75 398.149 275.75 399.39C 275.75 399.561 275.773 399.726 275.81 399.886C 277.432 399.878 278.912 399.802 280.221 399.674C 280.233 399.58 280.25 399.487 280.25 399.39z"/>
			<path style="stroke:none; fill:#fc0" d="M 282.084 387.726C 281.876 388.067 281.75 388.463 281.75 388.89C 281.75 390.13 282.759 391.14 284 391.14C 284.414 391.14 284.797 391.02 285.13 390.824C 284.362 389.619 283.351 388.556 282.084 387.726z"/>
		</g>
	</g>
</svg>
