<svg xmlns="http://www.w3.org/2000/svg" width="24" height="24">
	<g transform="translate(-264,-386)" id="KDDI_D_742">
		<g>
			<path style="stroke:none; fill:none" d="M 288 409.89L 264 409.89L 264 385.89L 288 385.89L 288 409.89z"/>
		</g>
		<g>
			<path style="stroke:none; fill:#600" d="M 288 401.89C 288 407.136 282.628 409.89 276 409.89C 269.373 409.89 264 407.136 264 401.89C 264 395.39 267.5 393.39 276 385.89C 284.5 393.39 288 395.39 288 401.89z"/>
			<path style="stroke:none; fill:#630" d="M 287.977 401.242C 284.94 403.319 280.132 404.39 276 404.39C 271.869 404.39 267.06 403.319 264.023 401.241C 264.015 401.456 264 401.664 264 401.89C 264 407.136 269.373 409.89 276 409.89C 282.628 409.89 288 407.136 288 401.89C 288 401.665 287.985 401.457 287.977 401.242L 287.977 401.242z"/>
			<path style="stroke:none; fill:#963" d="M 287 400.89C 287 397.462 284.418 393.66 278.332 387.924C 277.597 387.288 276.829 386.622 276 385.89C 267.805 393.121 264.268 395.251 264.024 401.22C 264.274 406.247 270.108 408.89 275 408.89C 283 408.89 287 406.136 287 400.89z"/>
			<path style="stroke:none; fill:#930" d="M 264.024 401.22C 264.024 401.228 264.026 401.235 264.027 401.244C 267.064 403.32 271.87 404.39 276 404.39C 279.696 404.39 283.924 403.526 286.951 401.858C 286.983 401.546 287 401.223 287 400.89C 287 397.463 284.42 393.664 278.342 387.933C 278.001 387.638 277.656 387.338 277.294 387.024C 276.877 386.66 276.449 386.286 276 385.89C 267.805 393.121 264.268 395.251 264.024 401.22z"/>
			<path style="stroke:none; fill:#c63" d="M 276 386.39C 276 386.39 265.5 394.89 265.5 398.89C 265.5 401.89 269.5 402.89 271.5 402.89C 271.5 402.89 270.516 398.83 271 396.89C 272.5 390.89 276 386.39 276 386.39z"/>
			<path style="stroke:none; fill:#f96" d="M 266.5 398.89C 266.5 400.89 269.117 401.89 270.5 401.89C 270.5 401.89 269.647 399.865 270 397.39C 270.5 393.89 273 389.89 273 389.89C 273 389.89 266.5 395.39 266.5 398.89z"/>
			<path style="stroke:none; fill:#fc9" d="M 267.5 398.39C 267.5 400.367 269.47 400.89 269.5 400.89C 269.5 400.89 269 399.39 269 397.89C 269 395.89 270.5 393.39 270.5 393.39C 270.5 393.39 267.5 396.39 267.5 398.39z"/>
		</g>
	</g>
</svg>
