<svg xmlns="http://www.w3.org/2000/svg" width="24" height="24">
	<g transform="translate(-264,-386)" id="KDDI_D_743">
		<g>
			<path style="stroke:none; fill:none" d="M 288 409.89L 264 409.89L 264 385.89L 288 385.89L 288 409.89z"/>
		</g>
		<g>
			<path style="stroke:none; fill:#060" d="M 276 404.39L 264 404.39C 264 404.39 267 409.89 271.5 409.89C 276.5 409.89 276 404.39 276 404.39z"/>
			<path style="stroke:none; fill:#0c0" d="M 271.5 408.89C 275.145 408.89 275.732 405.974 276 404.39L 265.457 404.39C 266.274 405.974 268.22 408.89 271.5 408.89z"/>
			<path style="stroke:none; fill:#090" d="M 276 404.39L 266.5 404.39C 267.5 405.89 269.498 405.89 271.043 405.89C 274 405.89 276 404.89 276 404.39z"/>
			<path style="stroke:none; fill:#060" d="M 276 404.39L 288 404.39C 288 404.39 285 409.89 280.5 409.89C 275.5 409.89 276 404.39 276 404.39z"/>
			<path style="stroke:none; fill:#0c0" d="M 280.5 408.89C 276.855 408.89 276.268 405.974 276 404.39L 286.543 404.39C 285.726 405.974 283.78 408.89 280.5 408.89z"/>
			<path style="stroke:none; fill:#090" d="M 276 404.39L 285.5 404.39C 284.5 405.89 282.502 405.89 280.957 405.89C 278 405.89 276 404.89 276 404.39z"/>
			<path style="stroke:none; fill:#c36" d="M 276 385.89C 276 385.89 273 388.89 271 390.89C 269 392.89 266 395.39 266 398.89C 266 402.89 267.5 405.89 271 405.89C 273.5 405.89 274.5 404.39 274.5 404.39C 274.5 404.39 276 405.89 279 405.89C 283 405.89 286 403.39 286 398.89C 286 395.39 282.5 392.39 281 390.89C 279.5 389.39 276 385.89 276 385.89z"/>
			<path style="stroke:none; fill:#f69" d="M 281 390.89C 279.5 389.39 276 385.89 276 385.89C 276 385.89 273 388.89 271 390.89C 269.06 392.829 266.189 395.242 266.017 398.578C 266.183 402.229 267.704 404.89 271 404.89C 274 404.89 274.5 402.39 274.5 402.39C 274.5 402.39 275.5 404.89 279 404.89C 282.82 404.89 285.721 402.605 285.975 398.481C 285.719 395.157 282.441 392.331 281 390.89z"/>
			<path style="stroke:none; fill:#fcf" d="M 280.5 392.39C 279.312 390.806 276 387.89 276 387.89C 276 387.89 272.688 390.806 271.5 392.39C 270.346 393.928 269.5 394.89 269.5 397.39C 269.5 399.89 272.5 402.39 274 402.39C 274.354 402.39 274.967 402.39 276 402.39C 277.033 402.39 277.646 402.39 278 402.39C 279.5 402.39 282.5 399.89 282.5 397.39C 282.5 394.89 281.654 393.928 280.5 392.39z"/>
			<path style="stroke:none; fill:#fff" d="M 273 395.89C 273 396.442 272.552 396.89 272 396.89C 271.448 396.89 271 396.442 271 395.89C 271 395.338 271.448 394.89 272 394.89C 272.552 394.89 273 395.338 273 395.89z"/>
			<path style="stroke:none; fill:#f69" d="M 277.545 396.89C 277.545 399.153 275.838 401.415 275 402.39L 276.548 402.39C 277.277 401.571 278.545 399.742 278.545 396.89C 278.545 392.39 275 391.39 275 391.39C 275 391.39 277.545 393.39 277.545 396.89z"/>
		</g>
	</g>
</svg>
