<svg xmlns="http://www.w3.org/2000/svg" width="24" height="24">
	<g transform="translate(-264,-386)" id="KDDI_D_744">
		<g>
			<path style="stroke:none; fill:none" d="M 288 409.89L 264 409.89L 264 385.89L 288 385.89L 288 409.89z"/>
		</g>
		<g>
			<path style="stroke:none; fill:#960" d="M 267.418 409.933C 266.486 409.929 265.94 409.316 266 408.39C 266.176 405.698 266.678 400.032 267.918 396.89C 269.585 392.668 272.5 389.89 273 389.397C 273.358 389.045 274.87 387.915 276.918 387.89C 279.396 387.86 282.457 389.093 284.418 391.39C 288.001 395.585 288 396.528 288 397.89C 288 400.89 284.473 403.917 282 406.39C 278.341 410.048 270.542 409.944 267.418 409.933z"/>
			<path style="stroke:none; fill:#fc6" d="M 283.43 404.985C 285.307 403.064 287.022 400.96 287.022 398.868C 287.022 397.507 287.023 396.563 283.44 392.368C 281.478 390.072 278.417 388.838 275.94 388.868C 274.115 388.89 272.722 389.786 272.185 390.231C 271.07 391.432 269.153 393.761 267.918 396.89C 266.678 400.032 266.176 405.698 266 408.39C 265.94 409.316 266.486 409.929 267.418 409.933C 270.542 409.944 278.341 410.048 282 406.39C 282.451 405.939 282.937 405.469 283.43 404.985z"/>
			<path style="stroke:none; fill:#603" d="M 285.5 401.39C 282.876 401.448 278.598 398.988 277 397.39C 274 394.39 272.004 390.394 273 389.397C 272.5 389.89 269.585 392.668 267.918 396.89C 266.678 400.032 266.176 405.698 266 408.39C 265.94 409.316 266.486 409.929 267.418 409.933C 270.542 409.944 278.341 410.048 282 406.39C 283.636 404.754 285.728 402.874 286.961 400.921C 286.569 401.291 286.14 401.376 285.5 401.39z"/>
			<path style="stroke:none; fill:#936" d="M 284.13 401.233C 281.574 400.678 278.343 398.733 277 397.39C 274 394.39 272.004 390.394 273 389.397C 272.5 389.89 269.585 392.668 267.918 396.89C 266.883 399.513 266.362 403.892 266.116 406.835C 266.085 407.209 266.531 407.927 267.5 407.927C 271.077 407.927 277.711 407.671 281 404.382C 281.975 403.407 283.109 402.345 284.13 401.233z"/>
			<path style="stroke:none; fill:#c69" d="M 276.325 396.676C 275.012 395.225 273.951 393.631 273.333 392.283C 271.74 394.222 268.062 399.304 268.062 404.939L 276.325 396.676z"/>
			<path style="stroke:none; fill:#f9c" d="M 269.5 401.39C 270.882 398.552 273.358 395.647 274.531 394.381C 274.255 393.97 274.012 393.567 273.793 393.173C 272.425 395.044 270.174 398.197 269.5 401.39z"/>
			<path style="stroke:none; fill:#603" d="M 284.13 401.233C 284.13 401.233 278 401.89 274.63 398.733C 274.63 398.733 278.63 403.233 283.13 403.233"/>
			<path style="stroke:none; fill:#603" d="M 279.5 406.89C 279.5 406.89 273.37 407.547 270 404.39C 270 404.39 272.515 407.219 275.8 408.391"/>
			<path style="stroke:none; fill:#c69" d="M 273 399.39C 273 399.39 273.5 400.39 275 401.39C 275 401.39 273.333 401.278 272.5 400.39"/>
			<path style="stroke:none; fill:#c93" d="M 281 391.39L 282 392.39L 282 391.39L 281 391.39z"/>
			<path style="stroke:none; fill:#c93" d="M 274 393.39L 275 394.39L 275 393.39L 274 393.39z"/>
			<path style="stroke:none; fill:#c93" d="M 278 397.89L 279 398.89L 279 397.89L 278 397.89z"/>
			<path style="stroke:none; fill:#c93" d="M 276 391.39L 277 392.39L 277 391.39L 276 391.39z"/>
			<path style="stroke:none; fill:#ff9" d="M 280 391.39L 281 392.39L 281 391.39L 280 391.39z"/>
			<path style="stroke:none; fill:#ff9" d="M 278.5 389.89L 279.5 390.89L 279.5 389.89L 278.5 389.89z"/>
			<path style="stroke:none; fill:#ff9" d="M 277 394.39L 278 395.39L 278 394.39L 277 394.39z"/>
			<path style="stroke:none; fill:#ff9" d="M 283 394.39L 284 395.39L 284 394.39L 283 394.39z"/>
			<path style="stroke:none; fill:#ff9" d="M 274 391.39L 276 393.39L 276 391.39L 274 391.39z"/>
			<path style="stroke:none; fill:#c93" d="M 277.5 390.89L 279.5 392.89L 279.5 390.89L 277.5 390.89z"/>
			<path style="stroke:none; fill:#ff9" d="M 282.5 395.39L 284.5 397.39L 284.5 395.39L 282.5 395.39z"/>
			<path style="stroke:none; fill:#c93" d="M 279.5 395.39L 281.5 397.39L 281.5 395.39L 279.5 395.39z"/>
			<path style="stroke:none; fill:#c93" d="M 274 389.39L 276 391.39L 276 389.39L 274 389.39z"/>
			<path style="stroke:none; fill:#c93" d="M 284 398.89L 286 400.89L 286 398.89L 284 398.89z"/>
			<path style="stroke:none; fill:#ff9" d="M 280.5 398.39L 282.5 400.39L 282.5 398.39L 280.5 398.39z"/>
		</g>
	</g>
</svg>
