<svg xmlns="http://www.w3.org/2000/svg" width="24" height="24">
	<g transform="translate(-264,-386)" id="KDDI_D_745">
		<g>
			<path style="stroke:none; fill:none" d="M 288 409.89L 264 409.89L 264 385.89L 288 385.89L 288 409.89z"/>
		</g>
		<g>
			<path style="stroke:none; fill:#630" d="M 278 402.89L 283 398.89L 283 397.89C 281.264 397.448 278.398 397.89 276 397.89C 268.5 397.89 264 399.89 264 404.89C 264 408.39 268.5 409.89 276 409.89C 283.5 409.89 288 408.39 288 404.89C 288 404.157 287.892 403.497 287.704 402.89L 278 402.89z"/>
			<path style="stroke:none; fill:#960" d="M 277 402.89L 283.137 397.775C 281.24 397.177 278.835 396.89 276 396.89C 268.5 396.89 264 398.89 264 403.39C 264 406.89 268.5 409.89 276 409.89C 283.5 409.89 288 406.89 288 403.39C 288 403.217 287.981 403.055 287.968 402.89L 277 402.89z"/>
			<path style="stroke:none; fill:#c93" d="M 277 402.89L 282.215 398.544C 280.565 398.112 278.498 397.89 276 397.89C 268.701 397.89 265 399.74 265 403.39C 265 406.056 268.855 408.39 276 408.39C 283.145 408.39 287 406.056 287 403.39C 287 403.218 286.984 403.054 286.967 402.89L 277 402.89z"/>
			<path style="stroke:none; fill:#fc6" d="M 277 402.89L 281.267 399.334C 279.834 399.038 278.077 398.89 276 398.89C 269.364 398.89 266 400.404 266 403.39C 266 405.378 269.435 407.39 276 407.39C 282.565 407.39 286 405.378 286 403.39C 286 403.218 285.986 403.052 285.964 402.89L 277 402.89z"/>
			<path style="stroke:none; fill:#630" d="M 275.5 393.89L 275.5 394.89L 288 394.89C 288 394.89 288 392.89 288 391.89C 288 390.89 287.75 389.64 286.5 388.39C 285.25 387.14 283.5 385.89 283.5 385.89L 275.5 393.89z"/>
			<path style="stroke:none; fill:#960" d="M 283.5 385.89L 275.5 393.89L 287 393.89C 287 393.89 287 391.89 287 390.89C 287 389.996 286.795 388.903 285.861 387.789C 284.728 386.77 283.5 385.89 283.5 385.89z"/>
			<path style="stroke:none; fill:#c93" d="M 285.903 387.844C 284.906 387.359 283.5 386.89 283.5 386.89L 276.5 393.89L 287 393.89C 287 393.89 287 392.846 287 391.89C 287 391.211 286.96 389.899 286.531 388.818C 286.375 388.499 286.171 388.172 285.903 387.844z"/>
			<path style="stroke:none; fill:#fc6" d="M 276.5 393.89L 286 393.89C 286 393.498 286 392.933 286 392.39C 286 391.711 285.96 390.399 285.531 389.318C 285.375 388.999 285.171 388.672 284.903 388.344C 284.22 388.012 283.354 387.691 282.871 387.519L 276.5 393.89z"/>
			<path style="stroke:#fc6; stroke-width:1; stroke-linecap:round; fill:none" d="M 283.5 393.39L 283.5 400.39"/>
			<path style="stroke:#c93; stroke-width:1; stroke-linecap:round; fill:none" d="M 278.5 393.39L 278.5 400.314"/>
			<path style="stroke:#fc6; stroke-width:1; stroke-linecap:round; fill:none" d="M 277.5 393.39L 277.5 403.501"/>
			<path style="stroke:none; fill:#f30" d="M 278.976 393.39C 278.976 393.652 278.763 393.865 278.5 393.865C 278.237 393.865 278.024 393.652 278.024 393.39C 278.024 393.127 278.237 392.915 278.5 392.915C 278.763 392.915 278.976 393.127 278.976 393.39z"/>
			<path style="stroke:none; fill:#f30" d="M 266.976 403.39C 266.976 403.652 266.763 403.865 266.5 403.865C 266.237 403.865 266.024 403.652 266.024 403.39C 266.024 403.127 266.237 402.915 266.5 402.915C 266.763 402.915 266.976 403.127 266.976 403.39z"/>
			<path style="stroke:none; fill:#f30" d="M 269.976 400.39C 269.976 400.652 269.763 400.865 269.5 400.865C 269.237 400.865 269.024 400.652 269.024 400.39C 269.024 400.127 269.237 399.915 269.5 399.915C 269.763 399.915 269.976 400.127 269.976 400.39z"/>
			<path style="stroke:none; fill:#393" d="M 279.976 403.39C 279.976 403.652 279.763 403.865 279.5 403.865C 279.237 403.865 279.024 403.652 279.024 403.39C 279.024 403.127 279.237 402.915 279.5 402.915C 279.763 402.915 279.976 403.127 279.976 403.39z"/>
			<path style="stroke:none; fill:#f30" d="M 280.976 403.39C 280.976 403.652 280.763 403.865 280.5 403.865C 280.237 403.865 280.024 403.652 280.024 403.39C 280.024 403.127 280.237 402.915 280.5 402.915C 280.763 402.915 280.976 403.127 280.976 403.39z"/>
			<path style="stroke:none; fill:#c30" d="M 283.976 403.39C 283.976 403.652 283.763 403.865 283.5 403.865C 283.237 403.865 283.024 403.652 283.024 403.39C 283.024 403.127 283.237 402.915 283.5 402.915C 283.763 402.915 283.976 403.127 283.976 403.39z"/>
			<path style="stroke:none; fill:#393" d="M 280.476 406.39C 280.476 406.652 280.263 406.865 280 406.865C 279.737 406.865 279.524 406.652 279.524 406.39C 279.524 406.127 279.737 405.915 280 405.915C 280.263 405.915 280.476 406.127 280.476 406.39z"/>
			<path style="stroke:none; fill:#c30" d="M 276.976 404.415C 276.976 404.677 276.763 404.89 276.5 404.89C 276.237 404.89 276.024 404.677 276.024 404.415C 276.024 404.152 276.237 403.94 276.5 403.94C 276.763 403.94 276.976 404.152 276.976 404.415z"/>
			<path style="stroke:none; fill:#c30" d="M 272.976 400.39C 272.976 400.652 272.763 400.865 272.5 400.865C 272.237 400.865 272.024 400.652 272.024 400.39C 272.024 400.127 272.237 399.915 272.5 399.915C 272.763 399.915 272.976 400.127 272.976 400.39z"/>
			<path style="stroke:none; fill:#393" d="M 272.976 406.365C 272.976 406.628 272.763 406.84 272.5 406.84C 272.237 406.84 272.024 406.628 272.024 406.365C 272.024 406.102 272.237 405.89 272.5 405.89C 272.763 405.89 272.976 406.102 272.976 406.365z"/>
			<path style="stroke:none; fill:#393" d="M 271.976 405.365C 271.976 405.628 271.763 405.84 271.5 405.84C 271.237 405.84 271.024 405.628 271.024 405.365C 271.024 405.102 271.237 404.89 271.5 404.89C 271.763 404.89 271.976 405.102 271.976 405.365z"/>
			<path style="stroke:none; fill:#393" d="M 274.476 401.89C 274.476 402.152 274.263 402.365 274 402.365C 273.737 402.365 273.524 402.152 273.524 401.89C 273.524 401.627 273.737 401.415 274 401.415C 274.263 401.415 274.476 401.627 274.476 401.89z"/>
			<path style="stroke:none; fill:#c93" d="M 273.476 404.39C 273.476 404.652 273.263 404.865 273 404.865C 272.737 404.865 272.524 404.652 272.524 404.39C 272.524 404.127 272.737 403.915 273 403.915C 273.263 403.915 273.476 404.127 273.476 404.39z"/>
			<path style="stroke:none; fill:#c93" d="M 275.976 406.39C 275.976 406.652 275.763 406.865 275.5 406.865C 275.237 406.865 275.024 406.652 275.024 406.39C 275.024 406.127 275.237 405.915 275.5 405.915C 275.763 405.915 275.976 406.127 275.976 406.39z"/>
			<path style="stroke:none; fill:#c93" d="M 269.951 403.39C 269.951 403.652 269.738 403.865 269.476 403.865C 269.213 403.865 269 403.652 269 403.39C 269 403.127 269.213 402.915 269.476 402.915C 269.738 402.915 269.951 403.127 269.951 403.39z"/>
			<path style="stroke:none; fill:#c93" d="M 270.976 401.89C 270.976 402.152 270.763 402.365 270.5 402.365C 270.237 402.365 270.024 402.152 270.024 401.89C 270.024 401.627 270.237 401.415 270.5 401.415C 270.763 401.415 270.976 401.627 270.976 401.89z"/>
			<path style="stroke:none; fill:#c93" d="M 275.976 401.39C 275.976 401.652 275.763 401.865 275.5 401.865C 275.237 401.865 275.024 401.652 275.024 401.39C 275.024 401.127 275.237 400.915 275.5 400.915C 275.763 400.915 275.976 401.127 275.976 401.39z"/>
			<path style="stroke:none; fill:#c93" d="M 282.976 404.89C 282.976 405.152 282.763 405.365 282.5 405.365C 282.237 405.365 282.024 405.152 282.024 404.89C 282.024 404.627 282.237 404.415 282.5 404.415C 282.763 404.415 282.976 404.627 282.976 404.89z"/>
			<path style="stroke:none; fill:#c93" d="M 284.976 404.89C 284.976 405.152 284.763 405.365 284.5 405.365C 284.237 405.365 284.024 405.152 284.024 404.89C 284.024 404.627 284.237 404.415 284.5 404.415C 284.763 404.415 284.976 404.627 284.976 404.89z"/>
			<path style="stroke:none; fill:#960" d="M 275.976 407.89C 275.976 408.152 275.763 408.365 275.5 408.365C 275.237 408.365 275.024 408.152 275.024 407.89C 275.024 407.627 275.237 407.415 275.5 407.415C 275.763 407.415 275.976 407.627 275.976 407.89z"/>
			<path style="stroke:none; fill:#960" d="M 277.976 407.89C 277.976 408.152 277.763 408.365 277.5 408.365C 277.237 408.365 277.024 408.152 277.024 407.89C 277.024 407.627 277.237 407.415 277.5 407.415C 277.763 407.415 277.976 407.627 277.976 407.89z"/>
			<path style="stroke:none; fill:#960" d="M 273.976 407.89C 273.976 408.152 273.763 408.365 273.5 408.365C 273.237 408.365 273.024 408.152 273.024 407.89C 273.024 407.627 273.237 407.415 273.5 407.415C 273.763 407.415 273.976 407.627 273.976 407.89z"/>
			<path style="stroke:none; fill:#960" d="M 271.976 407.89C 271.976 408.152 271.763 408.365 271.5 408.365C 271.237 408.365 271.024 408.152 271.024 407.89C 271.024 407.627 271.237 407.415 271.5 407.415C 271.763 407.415 271.976 407.627 271.976 407.89z"/>
			<path style="stroke:none; fill:#960" d="M 279.976 407.89C 279.976 408.152 279.763 408.365 279.5 408.365C 279.237 408.365 279.024 408.152 279.024 407.89C 279.024 407.627 279.237 407.415 279.5 407.415C 279.763 407.415 279.976 407.627 279.976 407.89z"/>
			<path style="stroke:none; fill:#f30" d="M 281.976 393.39C 281.976 393.652 281.763 393.865 281.5 393.865C 281.237 393.865 281.024 393.652 281.024 393.39C 281.024 393.127 281.237 392.915 281.5 392.915C 281.763 392.915 281.976 393.127 281.976 393.39z"/>
			<path style="stroke:none; fill:#c30" d="M 283.976 389.39C 283.976 389.652 283.763 389.865 283.5 389.865C 283.237 389.865 283.024 389.652 283.024 389.39C 283.024 389.127 283.237 388.915 283.5 388.915C 283.763 388.915 283.976 389.127 283.976 389.39z"/>
			<path style="stroke:none; fill:#c30" d="M 283.976 392.39C 283.976 392.652 283.763 392.865 283.5 392.865C 283.237 392.865 283.024 392.652 283.024 392.39C 283.024 392.127 283.237 391.915 283.5 391.915C 283.763 391.915 283.976 392.127 283.976 392.39z"/>
			<path style="stroke:none; fill:#393" d="M 285.976 391.39C 285.976 391.652 285.763 391.865 285.5 391.865C 285.237 391.865 285.024 391.652 285.024 391.39C 285.024 391.127 285.237 390.915 285.5 390.915C 285.763 390.915 285.976 391.127 285.976 391.39z"/>
			<path style="stroke:none; fill:#c93" d="M 279.976 392.39C 279.976 392.652 279.763 392.865 279.5 392.865C 279.237 392.865 279.024 392.652 279.024 392.39C 279.024 392.127 279.237 391.915 279.5 391.915C 279.763 391.915 279.976 392.127 279.976 392.39z"/>
			<path style="stroke:none; fill:#fc6" d="M 286.976 393.39C 286.976 393.652 286.763 393.865 286.5 393.865C 286.237 393.865 286.024 393.652 286.024 393.39C 286.024 393.127 286.237 392.915 286.5 392.915C 286.763 392.915 286.976 393.127 286.976 393.39z"/>
			<path style="stroke:none; fill:#c93" d="M 285.976 392.39C 285.976 392.652 285.763 392.865 285.5 392.865C 285.237 392.865 285.024 392.652 285.024 392.39C 285.024 392.127 285.237 391.915 285.5 391.915C 285.763 391.915 285.976 392.127 285.976 392.39z"/>
			<path style="stroke:none; fill:#c93" d="M 283.976 390.39C 283.976 390.652 283.763 390.865 283.5 390.865C 283.237 390.865 283.024 390.652 283.024 390.39C 283.024 390.127 283.237 389.915 283.5 389.915C 283.763 389.915 283.976 390.127 283.976 390.39z"/>
			<path style="stroke:none; fill:#c93" d="M 281.976 391.39C 281.976 391.652 281.763 391.865 281.5 391.865C 281.237 391.865 281.024 391.652 281.024 391.39C 281.024 391.127 281.237 390.915 281.5 390.915C 281.763 390.915 281.976 391.127 281.976 391.39z"/>
			<path style="stroke:none; fill:#c93" d="M 283.976 400.39C 283.976 400.652 283.763 400.865 283.5 400.865C 283.237 400.865 283.024 400.652 283.024 400.39C 283.024 400.127 283.237 399.915 283.5 399.915C 283.763 399.915 283.976 400.127 283.976 400.39z"/>
			<path style="stroke:#960; stroke-width:1; stroke-linecap:round; fill:none" d="M 277.5 401.376L 277.5 403.501"/>
		</g>
	</g>
</svg>
