<svg xmlns="http://www.w3.org/2000/svg" width="24" height="24">
	<g transform="translate(-264,-386)" id="KDDI_D_756">
		<g>
			<path style="stroke:none; fill:none" d="M 288 409.89L 264 409.89L 264 385.89L 288 385.89L 288 409.89z"/>
		</g>
		<g>
			<path style="stroke:none; fill:#930" d="M 284.5 392.89C 284.5 392.89 284.5 395.89 284.5 398.89C 284.5 403.39 282 409.39 276 409.39C 274.5 409.39 272.5 409.39 271 409.39C 267 409.39 264.5 406.89 264.5 403.39C 264.5 401.89 266.5 398.39 270.5 398.39C 274.5 398.39 275.5 398.39 276 398.39C 278.5 398.39 280.5 397.89 280.5 395.89C 280.5 395.39 280.5 390.39 280.5 390.39L 284.5 390.39L 284.5 392.89z"/>
			<path style="stroke:none; fill:#c63" d="M 280.5 390.39C 280.5 391.729 280.5 394.89 280.5 394.89C 280.5 397.212 279.649 398.39 276 398.39L 271.5 398.39C 268.059 398.39 267 401.458 267 402.39C 267 405.427 268.659 407.39 272 407.39L 276 407.39C 281.502 407.39 283 401.709 283 397.89C 283 397.89 283 391.11 283 390.39C 282.25 390.39 281.25 390.39 280.5 390.39z"/>
			<path style="stroke:none; fill:#f96" d="M 282 395.389C 282 398.544 279.855 398.39 276 398.39L 272.5 398.39C 269.652 398.39 269 400.996 269 401.39C 269 404.044 270.346 405.39 273 405.39L 276 405.39C 281.711 405.39 283 398.309 283 396.89L 283 395.39L 282 395.389z"/>
			<path style="stroke:none; fill:#ccc" d="M 280.5 395.89C 280.5 395.39 280.5 390.39 280.5 390.39L 284.5 390.39L 284.5 392.89C 284.5 392.89 284.5 394.168 284.5 395.89"/>
			<path style="stroke:none; fill:#fc9" d="M 275.5 401.89C 275.5 402.44 275.05 402.89 274.5 402.89L 270.5 402.89C 269.95 402.89 269.5 402.44 269.5 401.89L 269.5 401.89C 269.5 401.34 269.95 400.89 270.5 400.89L 274.5 400.89C 275.05 400.89 275.5 401.34 275.5 401.89L 275.5 401.89z"/>
			<path style="stroke:#600; stroke-width:1; fill:none" d="M 284.5 392.89C 284.5 392.89 284.5 395.89 284.5 398.89C 284.5 403.39 282 409.39 276 409.39C 274.5 409.39 272.5 409.39 271 409.39C 267 409.39 264.5 406.89 264.5 403.39C 264.5 401.89 266.5 398.39 270.5 398.39C 274.5 398.39 275.5 398.39 276 398.39C 278.5 398.39 280.5 397.89 280.5 395.89C 280.5 395.39 280.5 390.39 280.5 390.39L 284.5 390.39L 284.5 392.89z"/>
			<path style="stroke:#666; stroke-width:1; fill:none" d="M 280.5 395.89C 280.5 395.39 280.5 390.39 280.5 390.39L 284.5 390.39L 284.5 392.89C 284.5 392.89 284.5 394.168 284.5 395.89"/>
			<path style="stroke:none; fill:#ccc" d="M 284.5 390.39C 284.5 391.49 283.325 392.39 282.5 392.39C 281.675 392.39 280.5 391.49 280.5 390.39L 280.5 388.39C 280.5 387.29 281.675 386.39 282.5 386.39C 283.325 386.39 284.5 387.29 284.5 388.39L 284.5 390.39z"/>
			<path style="stroke:none; fill:#ccc" d="M 286 390.39C 285.531 390.39 285.115 390.093 284.84 389.64C 284.631 389.983 284.5 390.415 284.5 390.89C 284.5 391.99 285.175 392.39 286 392.39C 286.825 392.39 287.5 391.99 287.5 390.89C 287.5 390.415 287.369 389.983 287.16 389.64C 286.885 390.093 286.469 390.39 286 390.39z"/>
			<path style="stroke:none; fill:#ccc" d="M 279 390.39C 278.531 390.39 278.115 390.093 277.84 389.64C 277.631 389.983 277.5 390.415 277.5 390.89C 277.5 391.99 278.175 392.39 279 392.39C 279.825 392.39 280.5 391.99 280.5 390.89C 280.5 390.415 280.369 389.983 280.16 389.64C 279.885 390.093 279.469 390.39 279 390.39z"/>
			<path style="stroke:#666; stroke-width:1; fill:none" d="M 287.5 390.39C 287.5 391.49 286.825 392.39 286 392.39C 285.175 392.39 284.5 391.49 284.5 390.39L 284.5 388.39C 284.5 387.29 285.175 386.39 286 386.39C 286.825 386.39 287.5 387.29 287.5 388.39L 287.5 390.39z"/>
			<path style="stroke:#666; stroke-width:1; fill:none" d="M 284.5 390.39C 284.5 391.49 283.325 392.39 282.5 392.39C 281.675 392.39 280.5 391.49 280.5 390.39L 280.5 388.39C 280.5 387.29 281.675 386.39 282.5 386.39C 283.325 386.39 284.5 387.29 284.5 388.39L 284.5 390.39z"/>
			<path style="stroke:#666; stroke-width:1; fill:none" d="M 280.5 390.39C 280.5 391.49 279.825 392.39 279 392.39C 278.175 392.39 277.5 391.49 277.5 390.39L 277.5 388.39C 277.5 387.29 278.175 386.39 279 386.39C 279.825 386.39 280.5 387.29 280.5 388.39L 280.5 390.39z"/>
		</g>
	</g>
</svg>
