<svg xmlns="http://www.w3.org/2000/svg" width="24" height="24">
	<g transform="translate(-264,-386)" id="KDDI_D_747">
		<g>
			<path style="stroke:none; fill:none" d="M 288 409.89L 264 409.89L 264 385.89L 288 385.89L 288 409.89z"/>
		</g>
		<g>
			<path style="stroke:none; fill:#006" d="M 264 385.89L 288 385.89L 288 409.89L 264 409.89L 264 385.89z"/>
			<path style="stroke:none; fill:#663" d="M 280.485 390.904C 279.228 391.081 277.5 391.895 277.5 392.392C 277.5 392.89 279.232 393.702 280.488 393.878C 280.671 395.121 281.5 396.89 282 396.89C 282.5 396.89 283.329 395.121 283.512 393.878C 284.768 393.702 286.5 392.895 286.5 392.392C 286.5 391.89 284.772 391.081 283.515 390.904C 283.332 389.658 282.5 387.89 282 387.89C 281.5 387.89 280.668 389.658 280.485 390.904z"/>
			<path style="stroke:none; fill:#cc0" d="M 282.5 391.924C 282.5 391.924 282.276 389.89 282 389.89C 281.724 389.89 281.5 391.924 281.5 391.924C 281.5 391.924 279.5 392.133 279.5 392.392C 279.5 392.651 281.5 392.861 281.5 392.861C 281.5 392.861 281.724 394.89 282 394.89C 282.276 394.89 282.5 392.861 282.5 392.861C 282.5 392.861 284.5 392.651 284.5 392.392C 284.5 392.133 282.5 391.924 282.5 391.924z"/>
			<path style="stroke:none; fill:#ff0" d="M 282.476 392.39C 282.476 392.652 282.263 392.865 282 392.865C 281.737 392.865 281.524 392.652 281.524 392.39C 281.524 392.127 281.737 391.915 282 391.915C 282.263 391.915 282.476 392.127 282.476 392.39z"/>
			<path style="stroke:none; fill:#090" d="M 276.819 385.89C 275.115 387.91 273.238 390.266 272.076 392.125L 270.485 394.514C 267.748 398.519 264 404.003 264 409.89L 265 409.89C 265 404.312 268.647 398.975 271.31 395.078L 272.924 392.655C 274.168 390.663 276.315 388.019 278.134 385.89L 276.819 385.89z"/>
			<path style="stroke:none; fill:#090" d="M 269.5 397.89C 269.224 397.89 269 398.113 269 398.39C 269 398.666 269.224 398.89 269.5 398.89L 275 398.89C 276.249 398.89 279.395 399.165 281.624 401.718C 281.805 401.927 282.121 401.948 282.329 401.766C 282.537 401.585 282.558 401.269 282.376 401.061C 279.878 398.199 276.386 397.89 275 397.89L 269.5 397.89z"/>
			<path style="stroke:none; fill:#3c3" d="M 285.002 401.89C 283.5 401.89 281.843 401.39 281.843 401.39C 281.843 401.39 283.36 400.89 284.933 400.89C 286.5 400.89 287.5 401.39 287.5 401.39C 287.5 401.39 286.5 401.89 285.002 401.89z"/>
			<path style="stroke:none; fill:#3c3" d="M 280.159 386.89C 278.657 386.89 277 386.39 277 386.39C 277 386.39 278.517 385.89 280.09 385.89C 281.657 385.89 282.657 386.39 282.657 386.39C 282.657 386.39 281.657 386.89 280.159 386.89z"/>
			<path style="stroke:none; fill:#3c3" d="M 284.588 399.01C 283.525 400.072 282 400.89 282 400.89C 282 400.89 282.72 399.464 283.832 398.351C 284.94 397.243 286 396.89 286 396.89C 286 396.89 285.647 397.95 284.588 399.01z"/>
			<path style="stroke:none; fill:#c00" d="M 270.6 390.09L 264 393.39C 264 393.39 266.75 404.94 278.3 409.89L 283.8 404.39C 280.5 402.739 278.783 401.572 275.55 398.34C 272.25 395.039 270.6 390.09 270.6 390.09z"/>
			<path style="stroke:none; fill:#f00" d="M 270.6 390.09L 264.851 392.964C 265.754 396.16 268.986 404.798 278.3 408.789L 283.073 404.017C 280.239 402.549 278.532 401.321 275.55 398.34C 272.25 395.039 270.6 390.09 270.6 390.09z"/>
			<path style="stroke:#600; stroke-width:0.75; stroke-linecap:round; fill:none" d="M 270.05 396.69C 270.05 395.59 271.7 396.14 271.15 397.239C 270.802 397.935 269.5 399.44 271.15 399.44C 272.8 399.44 273.9 400.539 273.9 401.09C 273.9 401.64 272.161 402.739 273.9 402.739C 275.55 402.739 276.1 402.19 276.65 403.84C 277.2 405.489 279.4 406.039 279.4 404.94"/>
			<path style="stroke:none; fill:#ccc" d="M 266.875 388.89C 266.875 387.701 267.126 386.686 267.417 385.89L 266.611 385.89C 266.34 386.71 266.125 387.725 266.125 388.89C 266.125 391.485 267.636 393.529 267.7 393.615C 267.824 393.78 268.059 393.814 268.225 393.69C 268.39 393.566 268.424 393.331 268.3 393.165C 268.286 393.146 266.875 391.229 266.875 388.89z"/>
		</g>
	</g>
</svg>
