<svg xmlns="http://www.w3.org/2000/svg" width="24" height="24">
	<g transform="translate(-264,-386)" id="KDDI_D_748">
		<g>
			<path style="stroke:none; fill:none" d="M 288 409.89L 264 409.89L 264 385.89L 288 385.89L 288 409.89z"/>
		</g>
		<g>
			<path style="stroke:none; fill:#ffff00" d="M 272.5 392.39C 272.5 394.599 270.709 396.39 268.5 396.39C 266.291 396.39 264.5 394.599 264.5 392.39C 264.5 390.181 266.291 388.39 268.5 388.39C 270.709 388.39 272.5 390.181 272.5 392.39z"/>
			<path style="stroke:none; fill:#999900" d="M 268.5 392.39L 272.176 390.814C 271.772 389.873 271.017 389.118 270.075 388.714L 268.5 392.39z"/>
			<path style="stroke:#ff6600; stroke-width:1; fill:none" d="M 272.5 392.39C 272.5 394.599 270.709 396.39 268.5 396.39C 266.291 396.39 264.5 394.599 264.5 392.39C 264.5 390.181 266.291 388.39 268.5 388.39C 270.709 388.39 272.5 390.181 272.5 392.39z"/>
			<path style="stroke:none; fill:#cc0099" d="M 283 394.39L 276.5 394.39L 276.5 404.497C 276.684 404.431 276.861 404.39 277 404.39C 281 404.39 283.5 403.39 283.5 400.39L 283.5 394.89L 283 394.39z"/>
			<path style="stroke:none; fill:#990099" d="M 281.5 394.89L 276.5 394.89L 276.5 404.501C 276.683 404.435 276.861 404.39 277 404.39C 278.147 404.39 279.166 404.304 280.043 404.116C 281.294 403.5 282 402.477 282 400.89L 282 395.39L 281.5 394.89z"/>
			<path style="stroke:none; fill:#990099" d="M 275 394.39L 266.5 394.39L 266.5 400.39C 266.5 403.39 269 404.39 273 404.39C 273.5 404.39 274.5 404.89 274.5 405.39C 274.5 405.89 274.5 408.89 274.5 408.89L 275.5 408.89C 275.5 408.89 275.5 405.89 275.5 405.39C 275.5 405.028 276.022 404.67 276.5 404.497L 276.5 394.39L 275 394.39z"/>
			<path style="stroke:none; fill:#cc00cc" d="M 276.5 394.89L 276.5 403.001C 276.683 402.935 276.861 402.89 277 402.89C 278.147 402.89 279.166 402.804 280.043 402.616C 281.294 402 282 400.977 282 399.39L 282 395.39L 281.5 394.89L 276.5 394.89z"/>
			<path style="stroke:none; fill:#ff00ff" d="M 276.5 394.39L 275 394.39L 268 394.39L 268 398.89C 268 401.89 269.5 402.89 273.5 402.89C 274 402.89 275 403.39 275 403.89C 275 403.958 276.5 403.89 276.5 403.89L 276.5 394.39z"/>
			<path style="stroke:none; fill:#ff66ff" d="M 272.5 400.39C 272.5 401.494 271.604 402.39 270.5 402.39C 269.396 402.39 268.5 401.494 268.5 400.39C 268.5 399.285 269.396 398.39 270.5 398.39C 271.604 398.39 272.5 399.285 272.5 400.39z"/>
			<path style="stroke:#0066cc; stroke-width:1; fill:none" d="M 268 409.39L 282 409.39"/>
			<path style="stroke:#006600; stroke-width:1; fill:none" d="M 288 386.39C 282 386.39 280.379 387.268 278.379 389.268C 277.128 390.518 276.5 392.89 276.5 394.89C 276.5 396.89 276.5 403.89 276.5 403.89"/>
			<path style="stroke:none; fill:#ffffff" d="M 280.976 401.39C 280.976 401.652 280.763 401.865 280.5 401.865C 280.237 401.865 280.024 401.652 280.024 401.39C 280.024 401.127 280.237 400.915 280.5 400.915C 280.763 400.915 280.976 401.127 280.976 401.39z"/>
			<path style="stroke:none; fill:#ffffff" d="M 279.976 397.39C 279.976 397.652 279.763 397.865 279.5 397.865C 279.237 397.865 279.024 397.652 279.024 397.39C 279.024 397.127 279.237 396.915 279.5 396.915C 279.763 396.915 279.976 397.127 279.976 397.39z"/>
			<path style="stroke:none; fill:#ffffff" d="M 275.976 398.39C 275.976 398.652 275.763 398.865 275.5 398.865C 275.237 398.865 275.024 398.652 275.024 398.39C 275.024 398.127 275.237 397.915 275.5 397.915C 275.763 397.915 275.976 398.127 275.976 398.39z"/>
			<path style="stroke:none; fill:#ffffff" d="M 273.976 401.415C 273.976 401.677 273.763 401.89 273.5 401.89C 273.237 401.89 273.024 401.677 273.024 401.415C 273.024 401.152 273.237 400.94 273.5 400.94C 273.763 400.94 273.976 401.152 273.976 401.415z"/>
			<path style="stroke:#3399cc; stroke-width:1; fill:none" d="M 272 409.39L 279 409.39"/>
			<path style="stroke:#66ccff; stroke-width:1; fill:none" d="M 274 409.39L 275 409.39"/>
			<path style="stroke:#0066cc; stroke-width:1; fill:none" d="M 274.5 408.89C 274.5 408.89 274.5 405.89 274.5 405.39C 274.5 404.89 273.5 404.39 273 404.39C 269 404.39 266.5 403.39 266.5 400.39L 266.5 394.39L 275 394.39L 283 394.39L 283.5 394.89L 283.5 400.39C 283.5 403.39 281 404.39 277 404.39C 276.5 404.39 275.5 404.89 275.5 405.39C 275.5 405.89 275.5 408.89 275.5 408.89"/>
			<path style="stroke:#66ccff; stroke-width:1; fill:none" d="M 269.5 394.39L 275 394.39L 281 394.39"/>
			<path style="stroke:#660033; stroke-width:1; fill:none" d="M 276.5 394.89C 276.5 396.89 276.5 403.89 276.5 403.89"/>
			<path style="stroke:#0066cc; stroke-width:1; fill:none" d="M 276.55 393.89C 276.517 394.229 276.5 394.564 276.5 394.89"/>
			<path style="stroke:#00cc00; stroke-width:1; fill:none" d="M 282 386.982C 280.414 387.446 279.451 388.196 278.379 389.268C 277.332 390.315 276.721 392.147 276.55 393.89"/>
			<path style="stroke:#006600; stroke-width:1; fill:none" d="M 288 386.39C 285.216 386.39 283.374 386.579 282 386.982"/>
			<path style="stroke:#006600; stroke-width:1; fill:none" d="M 282.622 393.511C 281.45 394.682 279.55 394.683 278.378 393.511C 277.207 392.339 277.207 390.44 278.379 389.268C 279.55 388.097 281.45 388.097 282.621 389.269C 283.793 390.44 283.793 392.339 282.622 393.511z"/>
			<path style="stroke:none; fill:#ffff00" d="M 268.5 388.39C 266.291 388.39 264.5 390.181 264.5 392.39C 264.5 394.599 266.291 396.39 268.5 396.39C 268.5 396.39 268.5 389.814 268.5 388.39z"/>
			<path style="stroke:none; fill:#ffffff" d="M 271.5 400.39C 271.5 400.942 271.052 401.39 270.5 401.39C 269.948 401.39 269.5 400.942 269.5 400.39C 269.5 399.838 269.948 399.39 270.5 399.39C 271.052 399.39 271.5 399.838 271.5 400.39z"/>
			<path style="stroke:none; fill:#999900" d="M 264.824 390.815L 268.5 392.39L 266.924 388.714C 265.983 389.118 265.228 389.873 264.824 390.815z"/>
			<path style="stroke:none; fill:#999900" d="M 266.925 396.066L 268.5 392.39L 264.825 393.965C 265.228 394.907 265.983 395.661 266.925 396.066z"/>
			<path style="stroke:#ff6600; stroke-width:1; fill:none" d="M 268.5 396.39C 266.291 396.39 264.5 394.599 264.5 392.39C 264.5 390.181 266.291 388.39 268.5 388.39"/>
		</g>
	</g>
</svg>