<svg xmlns="http://www.w3.org/2000/svg" height="24" width="24">
    <g transform="matrix(1,0,0,-1,-264,408)" id="KDDI_D_">        <path d="M266.3 392.8l1.2-4.2 4.7-.7 6.6 3.4 1.9 3.2-6.3-.7zM269.4 391.9l.8-3.3M272 392.1l.8-3.3M274.3 392.9l.8-3.3" fill="#fff" stroke="#666"/>
        <path d="M284.1 395.8l2.5-1.9-1.1-.9 2.1-1.8-1-.9 1.1-2.3-1.4-.8.6-2.6-1.5.3.2-.9h-3.1l.2 8.6z" fill="#090"/>
        <path d="M266.4 397.2s-1.1 1.1-1.5 2.3c-.3 1.2-1 4.2 2.8 3.8 3.5-.4 8.2 3 8.2 3" fill="none" stroke="#f90" stroke-width="1.3" stroke-linecap="round"/>
        <path d="M281.1 402.3c-1.2.4-2.7.9-4.3 0-2.1-1.1-1.4-4.6-3.3-5-1.9-.5-3.8-.6-4-.1-.2.5-2.3 1.7-3.5 1.3-1.7-.5-2.2-2.7-1.9-3.8.3-1.1 2.9-3.9 5.8-3.8 2.5.2 7.2 1.9 7.2 1.9s-2-2.6-3.7-3.2c-3.5-1.3-7.5.5-7.5.5s.1-3.8 4-4.1c3.9-.2 4.4.9 5.3 1.4 1.1.7 3.2 2.4 3.2 2.4s1-.6.8-2.5c-.2-1.3-2.3-3.4-2.3-3.4h7.4s2 2.4 2 5c0 2.7-2 3.9-2.1 5-.2 1.2.6 3.4.2 4.8-.4 1.3-2.1 3.1-3.3 3.6z" fill="#3c0"/>
        <path d="M278.5 392c-.1.9-.9 1-1.5.8-.1-.2-.4-.6-1-1.2-.4-.7-1.1-2-1.9-2.7-.8-.9-3.5-1.3-5.5-1-.8.1-1.6.3-2.3.4.5-1 1.5-2.2 3.6-2.3 3.9-.2 4.4.9 5.3 1.4 1.1.7 3.2 2.4 3.2 2.4s.2 1.3.1 2.2zM284.2 393.9c-.2 1.2.6 3.4.2 4.8-.4 1.3-2.1 3.1-3.3 3.6-1.2.4-2.7.9-4.3 0h.1c1.2-.5 3.6-.2 4.2-3.5.7-3.2-1.3-3.7-1.1-4.9.1-1.1 2.1-2.3 2.1-5 0-2.6-2-5-2-5h4.2s2 2.4 2 5c0 2.7-2 3.9-2.1 5z" fill="#090"/>
        <path d="M282.8 401c-.5.6-1.2 1.1-1.7 1.3-1.2.4-2.7.9-4.3 0-.4-.2-.7-.6-1-1 .6-.2 1.5-.6 1.6-1.7.1-1.5-3.1-4.2-4.8-4.2-1.6.1-5.8 2.4-6.3-.1-.2-.9-.6-1.7-1.1-2.3 1.1-1.1 2.9-2.2 4.7-2.1 2.5.2 7.2 1.9 7.2 1.9s1.9-.2 1.1-1.3c-.8-1.1.5-.7.6-.7.1 0 .3 0 .4.1v.2c0 .7.5 1.2 1.1 1.2.3 0 .6-.1.8-.3 1.1 1.2 1.2 3.1 1.6 5.9.2 1.3.3 2.3.1 3.1z" fill="#090"/>
        <path d="M284.2 393.9c-.2 1.2.6 3.4.2 4.8-.4 1.3-2.1 3.1-3.3 3.6-.9.3-2 .7-3.2.4.6-.1 1.1-.3 1.6-.4 1.1-.5 2.9-2.3 3.3-3.6.4-1.4-.4-3.6-.3-4.8.2-1.1 2.1-2.3 2.1-5 0-2.6-2-5-2-5h1.7s2 2.4 2 5c0 2.7-2 3.9-2.1 5z" fill="#060"/>
        <path d="M278.5 384.8c1.1 1.3 1.6 3.5 1.5 4.1-.1.7-.6 2.4-1.4 2.4-.8.1-1.3-.9-1.3-.9l.1-1.4c.6.5 1 .8 1 .8s1-.6.8-2.5c-.2-1.3-2.3-3.4-2.3-3.4h.7c.3.2.6.5.9.9zM269.5 397.2c-.2.5-2.3 1.7-3.5 1.3-.1 0-.1-.1-.2-.1 1-.3 1.5-.4 2-.8.5-.3 1-.8 2.1-.7-.2.1-.4.1-.4.3z" fill="#090"/>
        <path d="M266.7 395.3c-.3-.4-1-.5-1.6 0-.5.4-.7 1.1-.4 1.5.3.4 1 .5 1.6 0 .6-.4.7-1.1.4-1.5zM269.7 393.3c-.3-.4-1-.5-1.6-.1-.6.5-.8 1.1-.4 1.6.3.4 1 .4 1.6 0 .5-.4.7-1.1.4-1.5z" fill="#030"/>
        <path d="M270.8 392.1s.8-.7 2.6-.8c1.8-.2 2.1 1.3 4.6 2.4 2.5 1.1 5.1 1.3 5.1 1.3" fill="none" stroke="#f90" stroke-width="1.3" stroke-linecap="round"/>
        <path d="M281.4 399.8s1.7 1 2.9 1.1c1.1.1 3.9-.2 3.9-.2s-1-2.2-1.9-2.9c-.8-.8-3.9-.9-3.9-.9z" fill="#3c0"/>
        <path d="M284.2 399.8c-.8-.1-2.4-.9-2.9-1.3l1.1-1.6s3.1.1 3.9.9c.5.4 1 1.2 1.3 1.8-.7.1-2.5.2-3.4.2z" fill="#090"/>
        <path d="M275.7 400.3s-1.4 1.5-1.1 2.3c.3.7 1.3 2.2 1.3 2.2l1.9-2.6z" fill="#3c0"/>
        <path d="M276.6 403.8c-.3-.4-.5-.8-.7-1.1-.2-.4.2-1.2.6-1.7l1.3 1.2z" fill="#090"/>
        <path d="M278.1 401c-.7.4-.5 1.3-.5 1.3s1.8 2.9 3.1 4.6c.6.6 1 1.2 1.3 1 .3-.2 0-.8-.3-1.7-.7-2-2.1-4.9-2.1-4.9s-.8-.8-1.5-.3z" fill="#960"/>
        <path d="M280.8 406.3c-1.1-1.5-2.8-4.3-2.8-4.3s-.2-.3-.3-.6c.1-.2.2-.3.4-.4.1-.1.1-.1.2-.1.4.6 1.7 2.9 2.5 4.6.5.8.9 1.5.8 1.7 0 .3-.4-.3-.8-.9zM279.4 404.5s-1.4 2.9-1.1 3.1c.2.2 1.7-2 1.7-2z" fill="#993"/>
        <path d="M278.6 407.5c.1-.6.8-2.1 1-2.7l.4.8s-.9 1.5-1.4 1.9zM281.1 400.3c-.6.5-.2 1.4-.2 1.4s2.3 2.9 3.9 4.5c.7.7 1.3 1.3 1.5 1.1.3-.2-.1-.8-.6-1.7-1.1-2-3.1-4.9-3.1-4.9s-.9-.8-1.5-.4z" fill="#960"/>
        <path d="M284.6 405.4c-1.3-1.4-3.3-4-3.3-4s-.3-.4-.5-.8l.3-.3c.1 0 .2-.1.3-.1.3.5 2 2.7 3.1 4.4.6.8 1 1.4 1 1.6 0 .3-.4-.2-.9-.8z" fill="#993"/>
        <path d="M284 403.5s3 0 3.1.4c.1.3-2.3.7-2.3.7z" fill="#960"/>
        <path d="M287.1 403.9c.1.3-2 .7-2 .7l-.4-.2s1.8-.4 2.2-.7c.1.1.2.1.2.2z" fill="#993"/>
        <path d="M280.2 397.8c0-.7-.6-1.4-1.3-1.4-.7 0-1.3.7-1.3 1.4 0 .8.6 1.4 1.3 1.4.7 0 1.3-.6 1.3-1.4z" fill="#fff"/>
        <path d="M279.2 397.9c0-.4-.3-.7-.7-.7-.3 0-.6.3-.6.7 0 .4.3.7.6.7.4 0 .7-.3.7-.7z"/>
        <path d="M276.6 398.7c0-.8-.6-1.4-1.3-1.4-.7 0-1.3.6-1.3 1.4 0 .8.6 1.4 1.3 1.4.7 0 1.3-.6 1.3-1.4z" fill="#fff"/>
        <path d="M275.6 398.7c0-.3-.3-.6-.7-.6-.3 0-.6.3-.6.6 0 .4.3.7.6.7.4 0 .7-.3.7-.7z"/>
        <path d="M272.5 386.8c-1.9-.6-3.6-.4-4.6-.2.5-.3 1.2-.7 2-.7 3.2-.3 4.4.8 5.3 1.4.7.4 1.9 1.5 2.6 2-.6-.4-2.7-1.8-5.3-2.5z" fill="#060"/>
    </g>
</svg>
