<svg xmlns="http://www.w3.org/2000/svg" height="24" width="24">
    <g transform="matrix(1,0,0,-1,-264,408)" id="KDDI_D_">        <path d="M288 384h-24v24h24z" fill="#69f"/>
        <path d="M288 394.5c-5.3-.6-20.6-2.3-21.7-1.9-.7.3-1.6 0-2.3-.3V384h24z" fill="#36f"/>
        <path d="M288 403.8c-2.5 1.2-6.4 1.6-10.1 1.2-5.9-.4-10.7-3.9-11.9-7.7-1.1-3.5-.3-7.2.5-9 .8-1.7 1.9-3.2 2.9-4.3H288z" fill="#6cf"/>
        <path d="M288 402.5c-2.4 1.1-5.9 1.4-9.4 1.2-5.5-.5-9.9-3.7-11-7.3-1-3.2-.3-6.7.4-8.4.7-1.6 1.8-3 2.7-4H288z" fill="#33f"/>
        <path d="M288 400.7c-2.2 1-5.5 1.3-8.7 1-5.1-.4-9.3-3.3-10.3-6.5-.9-2.9-.3-6.1.4-7.6.7-1.4 1.6-2.7 2.5-3.6H288z" fill="#66f"/>
        <path d="M288 399.1c-2 .9-5 1.1-7.9.9-4.7-.4-8.5-3-9.4-5.9-.8-2.6-.2-5.5.4-6.8.6-1.4 1.5-2.5 2.3-3.3H288z" fill="#33c"/>
        <path d="M283.8 392.1c-.2-1-.8-3.4-1.6-3.9-.9-.6-1.2 2.2-2.3 1.7-3.2-1.3-4.9 1.6-4.7 3.7.3 2.1 2.4 3.9 4.8 3.4 2.3-.4 4.1-2.8 3.8-4.9z" fill="#009"/>
        <path d="M271.8 387.4l-7.8 3.4V384h13.1z" fill="#33f"/>
        <path d="M267 390.1s-1 .1-1.3-1.1c-.4-1.2.9-2.3 1.4-2.5.9-.4 3-1.6 4.8-2.5h4.7l-4.2 3.2z" fill="#69f"/>
        <path d="M273.6 387.2l-6.5 3.2c-.2-.6 0-1.8 1.4-3.1.9-.6 3.1-2.4 3.9-3.3h4.7z" fill="#009"/>
        <path d="M285.8 385.4c-.4 1-8.6 3.2-11 4.1-2.5.9-5.2.3-5.2.3s4.5-3.4 8.8-5.8h8.2c-.3.5-.7 1-.8 1.4z" fill="#009"/>
        <path d="M267.3 405.2c0-.6-.4-1.1-1-1.1s-1.1.5-1.1 1.1c0 .6.5 1.1 1.1 1.1.6 0 1-.5 1-1.1zM286.5 388.9c0-.6-.5-1.1-1.1-1.1-.5 0-1 .5-1 1.1 0 .5.5 1 1 1 .6 0 1.1-.5 1.1-1z" fill="#6cf"/>
        <path d="M282.4 405c0-.6-.5-1.1-1.1-1.1-.6 0-1.1.5-1.1 1.1 0 .7.5 1.2 1.1 1.2.6 0 1.1-.5 1.1-1.2z" fill="#cff"/>
        <path d="M288 396.1c-.6.8-1.4 1.6-2.3 2-2.5 1.2-4.7.9-4.2.3.4-.6 2.6-.9 3.7-2 1.6-1.9 2.4-4.2 2.8-5.8z" fill="#009"/>
        <path d="M265.4 393s.8 0 1.3-.4c.4-.4 1.8-1.6 1.1-1.5-.7.1-3.1.4-3.1 1s.7.9.7.9z" fill="#39f"/>
        <path d="M269 395.8s.7-.3 1-.9c.2-.5.9-2.2.3-1.8-.5.4-2.6 1.7-2.3 2.2.3.6 1 .5 1 .5z" fill="#69f"/>
        <path d="M285 394.7s-.1-.6-.6-.9c-.4-.3-1.7-1-1.5-.5.3.5 1 2.3 1.6 2.2.5-.2.5-.8.5-.8zM283.9 400.1c0-.7.5-1.2 1.2-1.2s1.3.5 1.3 1.2-.6 1.2-1.3 1.2c-.7 0-1.2-.5-1.2-1.2z" fill="#6cf"/>
        <path d="M274.6 397.8c0-.6-.5-1-1-1-.6 0-1 .4-1 1 0 .5.4 1 1 1 .5 0 1-.5 1-1z" fill="#009"/>
        <path d="M270.8 391c1.3 0 3.9-1.4 5.5-1.9 1.6-.4 5.8-2.2 6.8-2.7.9-.5 2.1-1.2 1.4-1.8-.7-.6-1.4-.6-4.3-.6s-6.4.6-7.4 1c-1 .5-3.4 3.1-4.1 3.6-.6.4-2 1.2-1.4 1.8.7.6 1.8.6 3.5.6z" fill="#ff0"/>
        <path d="M280.8 384.3c-2.9 0-6.5.6-7.5 1.1-1 .4-3.6 3-4.2 3.5-.6.4-1.7 1-1.6 1.6-.1-.1-.1-.1-.2-.1-.6-.6.8-1.4 1.4-1.8.7-.5 3.1-3.1 4.1-3.6 1-.4 4.5-1 7.4-1 2.8 0 3.6 0 4.2.5-.6-.2-1.5-.2-3.6-.2z" fill="#fc0"/>
        <path d="M281 400.8c-.4 1.3-2.1 2.6-3.7 3.3-1 .4-2.9.3-4 .3-1.1-.1-1.5.1-2.4-.5-.8-.6-1.6-2-2.3-2.6-.4-.5-1.5-1.3-2-1.6-.6-.2-1.2.6-1.8.4-.6-.2-.7-1.7-.3-2.2.4-.5 1.7-.1 2.3.2.7.2 1.9.6 2.6 1.2.9.6 1.7 1.7 1.7 1.7l.2-1.2v-2.7s1.5-.4 2.4-.4c.9 0 2.6.6 2.6.6l.3 4.3s2.3-.8 2.6-1.5c.3-.8-.2-1.8-.3-2.9-.6-.2-1.5-.9-.6-2.1.2-.3 1.1-.5 1.9.2.4.3.3.9.3 1.4.1.7 1.1 2.2.5 4.1z" fill="#f90"/>
        <path d="M274.9 387.6c-.4-.4-.3-.8-.3-1.1.1-.6.8-.6 1.7-.5.8.1 1.5.2 1.4.8 0 .2-.2.5-.4.7 0 .8-.4 3.1-.4 4.1-.1.8-.5 2-.3 3.2.2 1.1-.3 2.5-.3 2.5s-1.9-.1-2.7-.2h-2.3v-1.8-3.2c0-.7.3-2.6.3-2.6s-.7-.7-.4-1.2c.3-.4 1.4-.6 1.8-.5.5 0 1.1 0 1.1.7.1.6-.4 1.2-.4 1.2s.1 1.4 0 2.3c-.1.8.1 2.8.1 2.8l.6-3.6s.4-2.6.5-3.6z" fill="#f90"/>
        <path d="M277.7 386.8c0 .2-.2.5-.4.7 0 .8-.4 3.1-.4 4.1-.1.8-.5 2-.3 3.2v.3c-.4-.3-1-.8-1-1.3-.1-.7-.1-1.4.4-2.9s.8-3.6.7-4.1c0-.2-.1-.5-.2-.8.7.1 1.3.2 1.2.8zM273.7 392c-.1.4 0 1.3 0 1.9l-.6.2s-.5-1.2-.3-1.7c.1-.6.7-3.1.4-3.6-.2-.6-.8-.7-1.2-.9.4-.1.8-.2 1-.1.5 0 1.1 0 1.1.7.1.6-.4 1.2-.4 1.2s.1 1.4 0 2.3zM270.4 401.1s-1.2-1-2.3-1.7c-1.1-.7-2.6-.9-3-.9-.3 0-.4-.3-.5-.7.5-.4 1.6 0 2.2.3.7.2 1.9.6 2.6 1.2.4.3.9.8 1.2 1.1zM280.5 396.7c.1.7 1.1 2.2.5 4.1-.3 1.2-1.8 2.3-3.2 3 0-.3 0-.8.4-1 .6-.5 1.9-2 1.9-2.4 0-.4.1-3.8-.3-4.4-.3-.6-1.2-.6-1.5-.9.3-.3 1.1-.5 1.9.2.4.3.3.9.3 1.4z" fill="#f60"/>
        <path d="M278.2 400.9l1.5 1.7c-.7.6-1.6 1.1-2.4 1.5-1 .4-2.9.3-4 .3-1.1-.1-1.5.1-2.4-.5-.7-.5-1.4-1.8-2.1-2.5l1.3-1.5c.6.6 1 1.1 1 1.1l.2-1.2v-4.5-2h1.1c.3 0 .9-.2 1.3-.3 0 .8.1 1.8.1 1.8l.3-1.8c.3.1.8.2 1.2.2.2 0 .8-.1 1.3-.1-.1.5-.1 1.1 0 1.7.2 1.1-.3 2.5-.3 2.5l.3 4.3s.8-.3 1.6-.7z" fill="#fff"/>
        <path d="M276.6 393.1c-.1.5-.1 1.1 0 1.7.2 1.1-.3 2.5-.3 2.5l.3 4.3-.3.5s-.3-.2-.3-1-.6-2.1-.6-2.9c0-.8.2-1.9.3-2.4.1-.3 0-1.8 0-2.6.3 0 .6-.1.9-.1zM273.8 394.8s-.1 0-.3.1c-.2.1-.5.3-.5.3l-.1-2c.3-.1.6-.1.8-.2 0 .8.1 1.8.1 1.8v-.2.2zM269.6 400.5l.5-.6c.5.5.8.9.9 1v.8l-.6-.6c-.2-.2-.5-.5-.8-.6zM279.7 402.6c-.7.6-1.6 1.1-2.4 1.5-1 .4-2.9.3-4 .3h-.8c.4-.2 1.8-.5 2.1-.5 1.2 0 2.7-.2 3.6-1.1.1-.2.6-.6.9-.9z" fill="#ccc"/>
        <path d="M275.5 405.2c0-.6-.5-1.1-1.1-1.1-.6 0-1.1.5-1.1 1.1v1.5c0 .6.5 1.1 1.1 1.1.6 0 1.1-.5 1.1-1.1z" fill="#f60"/>
        <path d="M274.3 408c-1 0-1.7-.6-1.7-1.6v-.2c0-.6.3-1.2.7-1.5v2c1 0 2.2.5 2.2 0v-1.6s0-.1-.1-.1c.4.3.5.7.5 1.2v.2c0 1-.7 1.6-1.6 1.6z" fill="#630"/>
        <path d="M273.9 406.1h.8v-.9" fill="none" stroke="#930" stroke-width=".5"/>
    </g>
</svg>
