<svg xmlns="http://www.w3.org/2000/svg" height="24" width="24">
    <g transform="matrix(1,0,0,-1,-264,408)" id="KDDI_D_">        <path d="M270.6 396.9v8" fill="none" stroke="#999"/>
        <path d="M270.1 404.8l.8-.5c.1.1 1.7 2.7 6 2.7 5.3 0 7.7-3.3 7.7-8.9V384h3.4v14.1c0 7.3-6.5 9.9-11.1 9.9-4.9 0-6.7-3-6.8-3.2z" fill="#333"/>
        <path d="M276.9 408h-.7c4.5-.3 10.3-1.9 10.3-9.9V384h1.5v14.1c0 7.3-6.5 9.9-11.1 9.9z"/>
        <path d="M285.6 384v13.8c0 .5-.4 1-.9 1l-.1-.1V384zM288 397.3h-.1c-.5 0-1-.5-1-1 0-.6.5-1 1-1h.1z" fill="#666"/>
        <path d="M285.7 389.5c0-1.6-1.4-3-3.1-3-1.6 0-3 1.4-3 3 0 1.7 1.4 3.1 3 3.1 1.7 0 3.1-1.4 3.1-3.1z" fill="#fc0"/>
        <path d="M284.3 392.1c0-.2.1-.5.1-.7 0-1.7-1.4-3.1-3.1-3.1-.6 0-1.1.2-1.6.5.3-1.3 1.5-2.3 2.9-2.3 1.7 0 3.1 1.4 3.1 3 0 1.1-.6 2.1-1.4 2.6z" fill="#c90"/>
        <path d="M282.7 390.9c0-.6-.5-1.1-1.2-1.1-.6 0-1.1.5-1.1 1.1 0 .6.5 1.1 1.1 1.1.7 0 1.2-.5 1.2-1.1z" fill="#ff0"/>
        <path d="M285.7 389.5c0-1.6-1.4-3-3.1-3-1.6 0-3 1.4-3 3 0 1.7 1.4 3.1 3 3.1 1.7 0 3.1-1.4 3.1-3.1z" fill="none" stroke="#000" stroke-width="1.5"/>
        <path d="M280.7 391.8l-2.3 2.3" fill="none" stroke="#333" stroke-width="1.5" stroke-linecap="round"/>
        <path d="M273.9 394.3s1.9-.5 2.1-1.3c.2-.7.8-3.1-.5-3.8-.2-.2-1.6.6-1.6.6zM266.7 392.9s-2.6-.7-2.7-1.4c0-.3 1.8-1.9 2.1-1.9.4.1 1 1.8 1 1.8z" fill="red"/>
        <path d="M266.4 384h8.3s-2.9 1.2-2.9 2c0 .4.5 1.1.8 1.6 1.2.9 2.1 2.5 2.1 4.3 0 2.8-2.4 5.4-4.2 5.4-1.7 0-4.1-2.6-4.1-5.4 0-1.8.9-3.4 2.1-4.3.3-.5.8-1.2.8-1.6 0-.8-2.9-2-2.9-2z" fill="red"/>
        <path d="M271.5 396.9c.1 0 .3 0 .5-.1-.5.3-1 .5-1.5.5-1.7 0-4.1-2.6-4.1-5.4 0-1.8.9-3.4 2.1-4.3 0-.1 0-.1.1-.2-.2.9-1.3 2.3-1.3 3.9 0 2.9 2.4 5.6 4.2 5.6z" fill="#f30"/>
        <path d="M274 384h.7s-1 .4-1.8.9c.2-.3.6-.6 1.1-.9z" fill="red"/>
        <path d="M271.5 387.7c-.4-.4-.9-1.3-.9-1.8 0-.6 1.3-1.4 2.1-1.9h2s-2.9 1.2-2.9 2c0 .4.5 1.1.8 1.6 1.2.9 2.1 2.5 2.1 4.3 0 1.7-1 3.4-2.1 4.5.6-1.1.9-2.3.9-3.6 0-2.1-1-3.9-2-5.1z" fill="#900"/>
        <path d="M265 397.6c1.4-.8 2.3.2 2.7.9.3.6.4 1.7.4 2.6-.1 1.2.4 2.6.4 2.6s-1-1.1-2-1.7c-.9-.4-1.7-1-2.1-1.7-.4-.7-.7-1.9.6-2.7z" fill="#09f"/>
        <path d="M268.4 403.7c-.3-.6-.5-1.3-.6-1.9-.1-1.1-.4-2.1-.8-2.9-.3-.6-1-1.2-1.8-1.4 1.3-.6 2.1.3 2.5 1 .3.6.4 1.7.4 2.6-.1 1.2.4 2.6.4 2.6h-.1z" fill="#06f"/>
        <path d="M266.1 399.5c-.4-.4-.9-.6-1.1-.4-.3.2-.2.7.1 1.2.4.5.9.7 1.1.5.3-.3.2-.8-.1-1.3z" fill="#3cf"/>
        <path d="M276.1 397.6c-1.4-.8-2.3.2-2.7.9-.3.6-.4 1.7-.3 2.6 0 1.2-.4 2.6-.4 2.6s.9-1.1 2-1.7c.8-.4 1.6-1 2-1.7.4-.7.8-1.9-.6-2.7z" fill="#09f"/>
        <path d="M276.7 400.3c-.4.7-1.2 1.3-2 1.7-.9.5-1.7 1.4-2 1.6.3-.6.8-1.3 1.2-1.6.7-.6 1.4-.9 1.8-1.5.4-.7.7-1.9-.4-2.7-.4-.2-.7-.3-.9-.3.4-.2 1-.3 1.7.1 1.4.8 1 2 .6 2.7z" fill="#06f"/>
        <path d="M274.6 400.2c0-.5-.3-.9-.6-.9s-.6.4-.6.9c0 .4.3.8.6.8s.6-.4.6-.8z" fill="#3cf"/>
        <path d="M272.1 394c0-.5-.3-.9-.8-.9s-.8.4-.8.9c0 .4.3.8.8.8s.8-.4.8-.8z" stroke="#999" stroke-width=".5"/>
        <path d="M269.9 397.3V396c0-.3.3-.6.6-.6.4 0 .6.3.6.6v1.3h-1.2z" fill="#600"/>
        <path d="M267.3 392.6s1.5-1.1 3.1-1.1c2.2.1 3.3 1 3.3 1" fill="none" stroke="#600" stroke-linecap="round"/>
        <path d="M269.4 384.6c-.3.2-.4.5-.6.8-.8-.7-2.4-1.4-2.4-1.4h4.4c-.7.2-1.1.4-1.4.6z" fill="#f30"/>
    </g>
</svg>
