<svg xmlns="http://www.w3.org/2000/svg" height="24" width="24">
    <g transform="matrix(1,0,0,-1,-264,408)" id="KDDI_D_">        <path d="M288 400.8h-24V384h24z" fill="#f60"/>
        <path d="M288 400.8h-24v7.2h24z" fill="#630"/>
        <path d="M271.8 387.4s1.9 5 1.9 9c0 3.1-2 3.6-2 5 0 1.5.6 2.8.6 4 0 1.6-.7 2.5-1.8 2.5s-1.9-.9-1.9-2.5c0-1.2.7-2.5.7-4 0-1.4-2-1.9-2-5 0-4 1.9-9 1.9-9z" fill="#fff"/>
        <path d="M269.9 401.6c0 1.6-.8 3-.8 4.3 0 .7.2 1.3.4 1.7-.6-.3-1-1.1-1-2.2 0-1.2.8-2.5.8-4 0-1.4-2.1-1.9-2.1-5 0-4 2-9 2-9h.3c-.6 1.6-1.8 5.6-1.8 8.8 0 3.3 2.2 3.9 2.2 5.4z" fill="#ccc"/>
        <path d="M273.8 396.4c0 3.1-2.1 3.6-2.1 5 0 1.5.8 2.8.8 4 0 1.1-.5 2-1.2 2.3.2-.4.4-.9.4-1.6 0-1.2-.8-2.7-.8-4.2 0-1.6 2.1-2.2 2.1-5.6 0-3.2-1.2-7.2-1.7-8.9h.5s2 5 2 9z" fill="#999"/>
        <path d="M273.8 396.5c0 .7-.1 1.3-.3 1.8h-6c-.2-.5-.3-1.1-.3-1.8z" fill="red"/>
        <path d="M270.8 396.5h3c0 .7-.1 1.3-.3 1.8h-2.7z" fill="#c00"/>
        <path d="M273.5 398.3h-.8c.2-.5.3-1.1.3-1.8h.8c0 .7-.1 1.3-.3 1.8z" fill="#900"/>
        <path d="M268.6 398.3h-1.1c-.2-.5-.3-1.1-.3-1.8h1.2z" fill="#f33"/>
        <path d="M282.8 387.4s1.9 5 1.9 9c0 3.1-2 3.6-2 5 0 1.5.6 2.8.6 4 0 1.6-.7 2.5-1.8 2.5s-1.9-.9-1.9-2.5c0-1.2.7-2.5.7-4 0-1.4-2-1.9-2-5 0-4 1.9-9 1.9-9z" fill="#fff"/>
        <path d="M280.9 401.6c0 1.6-.8 3-.8 4.3 0 .7.2 1.3.4 1.7-.6-.3-1-1.1-1-2.2 0-1.2.8-2.5.8-4 0-1.4-2.1-1.9-2.1-5 0-4 2-9 2-9h.3c-.6 1.6-1.8 5.6-1.8 8.8 0 3.3 2.2 3.9 2.2 5.4z" fill="#ccc"/>
        <path d="M284.8 396.4c0 3.1-2.1 3.6-2.1 5 0 1.5.8 2.8.8 4 0 1.1-.5 2-1.2 2.3.2-.4.4-.9.4-1.6 0-1.2-.8-2.7-.8-4.2 0-1.6 2.1-2.2 2.1-5.6 0-3.2-1.2-7.2-1.7-8.9h.5s2 5 2 9z" fill="#999"/>
        <path d="M284.8 396.5c0 .7-.1 1.3-.3 1.8h-6c-.2-.5-.3-1.1-.3-1.8z" fill="red"/>
        <path d="M281.8 396.5h3c0 .7-.1 1.3-.3 1.8h-2.7z" fill="#c00"/>
        <path d="M284.5 398.3h-.8c.2-.5.3-1.1.3-1.8h.8c0 .7-.1 1.3-.3 1.8z" fill="#900"/>
        <path d="M279.6 398.3h-1.1c-.2-.5-.3-1.1-.3-1.8h1.2z" fill="#f33"/>
        <path d="M277.3 385.8s1.9 4.9 1.9 8.9c0 3.1-2 3.6-2 5 0 1.5.6 2.8.6 4 0 1.6-.7 2.6-1.8 2.6s-1.9-1-1.9-2.6c0-1.2.7-2.5.7-4 0-1.4-2-1.9-2-5 0-4 1.9-8.9 1.9-8.9z" fill="#fff"/>
        <path d="M275.4 400c0 1.5-.8 2.9-.8 4.2 0 .7.2 1.3.4 1.8-.6-.4-1-1.2-1-2.3 0-1.2.8-2.5.8-4 0-1.4-2.1-1.9-2.1-5 0-4 2-8.9 2-8.9h.3c-.6 1.6-1.8 5.5-1.8 8.7 0 3.3 2.2 3.9 2.2 5.5z" fill="#ccc"/>
        <path d="M279.3 394.7c0 3.1-2.1 3.6-2.1 5 0 1.5.8 2.8.8 4 0 1.2-.5 2-1.2 2.3.2-.4.4-.9.4-1.6 0-1.2-.8-2.7-.8-4.2 0-1.6 2.1-2.2 2.1-5.6 0-3.2-1.2-7.2-1.7-8.8h.5s2 4.9 2 8.9z" fill="#999"/>
        <path d="M279.3 394.8c0 .7-.1 1.3-.3 1.8h-6c-.2-.5-.3-1.1-.3-1.8z" fill="red"/>
        <path d="M276.3 394.8h3c0 .7-.1 1.3-.3 1.8h-2.7z" fill="#c00"/>
        <path d="M279 396.6h-.8c.2-.5.3-1.1.3-1.8h.8c0 .7-.1 1.3-.3 1.8z" fill="#900"/>
        <path d="M274.1 396.6H273c-.2-.5-.3-1.1-.3-1.8h1.2z" fill="#f33"/>
        <path d="M282.8 388.8c0-2.7-2.2-4.8-4.8-4.8-2.6 0-4.7 2.1-4.7 4.8 0 2.6 2.1 4.7 4.7 4.7s4.8-2.1 4.8-4.7z"/>
        <path d="M273.3 388.8v-.9c.8-.5 1.6-.8 2.6-.8 2.4 0 4.4 1.9 4.4 4.4 0 .5-.1 1-.3 1.5-.6.3-1.3.5-2 .5-2.6 0-4.7-2.1-4.7-4.7z" fill="#333"/>
        <path d="M277.4 390.8c0-.5-.5-1-1-1-.6 0-1 .5-1 1 0 .6.4 1 1 1 .5 0 1-.4 1-1z" fill="#999"/>
    </g>
</svg>
