<svg xmlns="http://www.w3.org/2000/svg" height="24" width="24">
    <g transform="matrix(1,0,0,-1,-264,408)" id="KDDI_D_">        <path d="M288 396c.1 1.4-.8 3.1-1.3 3.7.3.1.7.1 1.3.1-.2 3-3.6 3.2-3.6 3.2s.6.8 1.9 1.8c-1.7.8-3.5 1-4.7.9.2.4.5.9.9 1.4-1.2-.1-2.4-.5-3.3-.8-.4.3-.7.9-.6 1.5-1.7-.4-2.6-1.8-2.6-1.8s-.9 1.4-2.6 1.8c.1-.6-.2-1.2-.6-1.5-.9.3-2 .7-3.3.8.4-.5.7-1 .9-1.4-1.2.1-3-.1-4.6-.9 1.2-1 1.8-1.8 1.8-1.8s-3.3-.2-3.6-3.2c.6 0 1 0 1.3-.1-.5-.6-1.4-2.3-1.3-3.7.3.2 1.5 0 1.5 0s-1.5-3.3-1.5-5.1c1.3.6 1.9-.1 1.9-.1s-1-1.4-.7-5.2c1.8 1 3.3.7 3.3.7l1.9-2.3 3 .8 2.6-.8 2.6.8 3-.8 1.9 2.3s1.5.3 3.3-.7c.3 3.8-.7 5.2-.7 5.2s.6.7 1.9.1c0 1.8-1.5 5.1-1.5 5.1s1.2.2 1.5 0z"/>
        <path d="M284.2 391c0-2.6-2.1-4.7-4.8-4.7h-6.8c-2.7 0-4.8 2.1-4.8 4.7v7.9c0 2.6 2.1 4.7 4.8 4.7h6.8c2.7 0 4.8-2.1 4.8-4.7z" fill="red"/>
        <path d="M270.5 390.2v8.8c0 2 1 3.7 2.5 4.6h-.4c-2.7 0-4.8-2.1-4.8-4.7V391c0-2.4 1.8-4.4 4.2-4.7-.9 1-1.5 2.4-1.5 3.9z" fill="#f63"/>
        <path d="M279.4 403.6h-.1c1-1 1.6-2.6 1.6-4.4v-8.8c0-1.7-.5-3.1-1.4-4.1 2.6 0 4.7 2.1 4.7 4.7v7.9c0 2.6-2.1 4.7-4.8 4.7z" fill="#c00"/>
        <path d="M282.3 402.6c.6-.8 1-1.9 1-3.1v-8.8c0-1.5-.6-2.8-1.6-3.8 1.5.8 2.5 2.3 2.5 4.1v7.9c0 1.5-.7 2.9-1.9 3.7z" fill="#900"/>
        <path d="M270 404.3s-4.3 4-5 3.7c-.7-.2 1.8-5.8 1.8-5.8s.9 0 1.8.6c1.2.7 1.4 1.5 1.4 1.5z" fill="red"/>
        <path d="M266.8 407c-.2.2-.6.2-.4-.3.4-1.5 1.3-3.7 1.5-4.3.2.1.5.2.7.4 1.2.7 1.4 1.5 1.4 1.5s-1.7 1.6-3.2 2.7z" fill="#900"/>
        <path d="M282 404.3s4.3 4 5 3.7c.7-.2-1.7-5.8-1.7-5.8s-1 0-1.9.6c-1.1.7-1.4 1.5-1.4 1.5z" fill="red"/>
        <path d="M286.2 406.1c-1.3-1-3-2.5-3.4-2.9.2-.1.4-.3.6-.4.9-.6 1.9-.6 1.9-.6s.9 2.2 1.4 3.9c.1.1-.2.2-.5 0z" fill="#900"/>
        <path d="M274.8 397.8c0-1.6-1.2-2.9-2.8-2.9-1.6 0-2.8 1.3-2.8 2.9 0 1.5 1.2 2.8 2.8 2.8 1.6 0 2.8-1.3 2.8-2.8z" fill="#fff"/>
        <path d="M273.2 397.8c0-.7-.5-1.3-1.2-1.3s-1.2.6-1.2 1.3c0 .6.5 1.2 1.2 1.2s1.2-.6 1.2-1.2z"/>
        <path d="M277.2 397.8c0-1.6 1.2-2.9 2.8-2.9 1.6 0 2.8 1.3 2.8 2.9 0 1.5-1.2 2.8-2.8 2.8-1.6 0-2.8-1.3-2.8-2.8z" fill="#fff"/>
        <path d="M278.8 397.8c0-.7.5-1.3 1.2-1.3s1.2.6 1.2 1.3c0 .6-.5 1.2-1.2 1.2s-1.2-.6-1.2-1.2zM268.6 402.2c-.5-.4-.6-1-.3-1.4.4-.5 1-.6 1.4-.3.6.4 1.3.8 1.6.8 1-.5 2.2-1.9 2.6-2.4.3-.4.9-.5 1.4-.2.4.3.5 1 .2 1.4-.2.2-1.8 2.3-3.4 3.1-1.1.5-2.6-.5-3.5-1zM283.4 402.2c.5-.4.6-1 .3-1.4-.4-.5-1-.6-1.4-.3-.6.4-1.3.8-1.6.8-1-.5-2.2-1.9-2.6-2.4-.3-.4-.9-.5-1.4-.2-.4.3-.5 1-.2 1.4.2.2 1.8 2.3 3.4 3.1 1.1.5 2.6-.5 3.5-1zM276 387.8c-2.1 0-3.7.6-5.1 1.4-1.8 1-1.6 3.2-.6 4.3.9.9 1.8-.4 2.6-1 .8-.5 4.4-.6 3.1-.6-1.3 0 2.3.1 3.1.6.8.6 1.7 1.9 2.6 1 1-1.1 1.2-3.3-.6-4.3-1.4-.8-3-1.4-5.1-1.4z"/>
        <path d="M271.5 393.6l-2.1-4.9 4.4 3.5s-.6.5-1.2.8c-.8.5-1.1.6-1.1.6zM280.5 393.6l2.1-4.9-4.4 3.5s.6.5 1.2.8c.8.5 1.1.6 1.1.6zM271.6 388.9l2.5 2.3-.1-3.2s-.7.2-1.3.4c-.6.2-1.1.5-1.1.5zM280.4 388.9l-2.5 2.3.1-3.2s.7.2 1.3.4c.6.2 1.1.5 1.1.5z" fill="#fff"/>
    </g>
</svg>
