<svg xmlns="http://www.w3.org/2000/svg" height="24" width="24">
    <g transform="matrix(1,0,0,-1,-264,408)" id="KDDI_D_">        <path d="M274.1 403.5s-2.2 1.2-3.1.8c-.9-.3-1.2-1.1-1.9-1.3-.6-.2-2.1-.6-2.1-1.4 0-.7 3-1.5 3.5-1.4.5.1 1.5.1 2.3.8.9.7 1.5 1.3 1.3 2.5"/>
        <path d="M269.6 402.3c.7.2 1 1 1.9 1.3.7.3 2-.2 2.6-.6v.5s-2.2 1.2-3.1.8c-.9-.3-1.2-1.1-1.9-1.3-.6-.2-2.1-.6-2.1-1.4 0-.2.2-.4.5-.6.2.8 1.5 1.2 2.1 1.3z" fill="#333"/>
        <path d="M276.5 404.7c-2.7-.1-5.1-.8-6.2-2.4-1-1.7-1.3-3.4-.6-7.4.4-2.8-1.4-8.1 1-9.8 2.6-1.8 6.8-1 9.1.5 2.2 1.5 4.5 5.1 4.5 8.2 0 6.2-1.3 10.9-7.8 10.9z" fill="red"/>
        <path d="M270.9 386.4c-.3 2.4.5 5.7.1 7.7-.6 4.1-.4 5.8.7 7.5 1.1 1.7 3.5 2.5 6.2 2.5 1.1 0 2-.1 2.8-.4-1.1.7-2.5 1-4.2 1-2.7-.1-5.1-.8-6.2-2.4-1-1.7-1.3-3.4-.6-7.4.4-2.8-1.4-8.1 1-9.8.2-.2.3.6.2 1.3z" fill="#f33"/>
        <path d="M276.5 404.7c-.4 0-.8-.1-1.1-.1 5.3-.5 6-4.9 6-10.5 0-3-1.9-6.4-4.1-7.9-1.5-1-3.9-1.6-6-1.5 2.6-1.3 6.4-.5 8.5.9 2.2 1.5 4.5 5.1 4.5 8.2 0 6.2-1.3 10.9-7.8 10.9z" fill="#c00"/>
        <path d="M269.9 387.5c-.2 2.3.5 5.4.2 7.3-.7 4-.4 5.7.7 7.3 1.1 1.7 3.5 2.4 6.1 2.4 1.1.1 2-.1 2.8-.3-.9.3-2 .5-3.2.5-2.7-.1-5.1-.8-6.2-2.4-1-1.7-1.3-3.4-.6-7.4.3-2.2-.7-6 0-8.3.1-.6.3-.2.2.9z" fill="#f66"/>
        <path d="M281.1 403.5c1.8-2 1.6-5.3 1.6-9.2 0-3.2-1.9-7-4.2-8.6-1.4-.9-3.2-1.6-5.3-1.6 2.3-.3 4.9.4 6.6 1.5 2.2 1.5 4.5 5.1 4.5 8.2 0 4.3-.6 7.9-3.2 9.7z" fill="#900"/>
        <path d="M281.9 402.8c1.4-2.1 1.8-5.1 1.8-8.6 0-3.2-2.3-7-4.6-8.6-1.1-.8-2.6-1.3-4.2-1.5 1.8.1 3.6.7 4.9 1.5 2.2 1.5 4.5 5.1 4.5 8.2 0 3.8-.5 7.1-2.4 9z" fill="#600"/>
        <path d="M273.2 400.5c-.4-.8-1.2-1.1-1.8-.7-.6.3-.8 1.2-.4 1.9s1.2 1 1.8.7c.6-.4.8-1.2.4-1.9z" fill="#f66"/>
        <path d="M272.8 400.8c-.2-.4-.7-.5-1.1-.3-.4.3-.6.8-.4 1.2.3.4.8.5 1.2.3.4-.3.5-.8.3-1.2z" fill="#f99"/>
        <path d="M276.6 388.6c0-.7-1-1.2-2.2-1.2-1.3 0-2.3.5-2.3 1.2s1 1.3 2.3 1.3c1.2 0 2.2-.6 2.2-1.3z" fill="#600"/>
        <path d="M273.8 388.2c0-.3.2-.6.6-.8 1.2 0 2.2.6 2.2 1.2 0 .4-.2.6-.6.9-1.2 0-2.2-.6-2.2-1.3zM279.7 396c0-.6-.5-1.1-1.1-1.1-.7 0-1.2.5-1.2 1.1 0 .7.5 1.2 1.2 1.2.6 0 1.1-.5 1.1-1.2zM273.1 396c0-.6-.5-1.1-1.2-1.1-.6 0-1.1.5-1.1 1.1 0 .7.5 1.2 1.1 1.2.7 0 1.2-.5 1.2-1.2z"/>
        <path d="M276.7 407.9l-4-2.1v-2l2-1.1h3.7l2.3.9v2.1z" fill="#600"/>
        <path d="M276.7 407.9l1.7-3v-2.2l2.3.9v2.1z" fill="#300"/>
        <path d="M276.7 407.9l-4-2.1v-2l2-1.1v2.3z" fill="#900"/>
        <path d="M276.7 407.9l-4-2.1 2-.8z" fill="#930"/>
        <path d="M275.1 394.7s-3.7 0-4.8.4c-1.2.4-2.7 1.7-3.7 1.7-1.5 0-2.6-1.5-2.6-3.3 0-1.8 1.6-4 5.3-4.2 3.8-.1 6.2.5 6.2.5s1.4 1 1.3 2.5c-.2 1.5-1.7 2.4-1.7 2.4z" fill="red"/>
        <path d="M270.4 394.4c1.3-.4 5.3-.4 5.5-.4-.4.4-.8.7-.8.7s-3.7 0-4.8.4c-1.2.4-2.7 1.7-3.7 1.7-.8 0-1.5-.4-1.9-1.1.4.3.9.5 1.4.5 1.2 0 2.9-1.4 4.3-1.8z" fill="#f33"/>
        <path d="M276.5 391.8s-2.6-.5-6.6-.3c-3.6.1-5.3 1.9-5.6 3.6-.2-.5-.3-1-.3-1.6 0-1.8 1.6-4 5.3-4.2 3.8-.1 6.2.5 6.2.5s1.2.9 1.2 2.3c-.1-.2-.2-.3-.2-.3z" fill="#c00"/>
        <path d="M276.3 391s-2.6-.5-6.6-.3c-3.6.1-5.3 1.9-5.6 3.6-.1-.3-.1-.5-.1-.8 0-1.8 1.6-4 5.3-4.2 3.8-.1 6.3.4 6.3.4s.7.6 1 1.6c-.1-.2-.3-.3-.3-.3z" fill="#900"/>
        <path d="M269.5 389.9c-2.8.2-4.5 1.3-5.4 2.7.5-1.6 2.1-3.1 5.2-3.3 3.8-.1 6.3.4 6.3.4s.2.2.5.6c-.9-.2-3.3-.5-6.6-.4z" fill="#600"/>
        <path d="M267.2 394.8c0-.5-.4-.9-.9-.9-.6 0-1 .4-1 .9s.4.9 1 .9c.5 0 .9-.4.9-.9z" fill="#f66"/>
        <path d="M280.1 402.9c.8.9 2.5 1.3 3.6.6.8-.5.9-1.4 1.9-1.8 1-.3 2.4-.7 2.4-1.9 0-1.1-2.9-1.1-4.2-.9-1.4.3-2.7.7-3.5 1.3-.5.6-1.2 1.7-.2 2.7z"/>
        <path d="M286.1 401.1c.6-.2 1.3-.4 1.8-.8-.3.8-1.4 1.2-2.3 1.4-.3.2-.6.3-.8.6.3-.5.6-1 1.3-1.2zM280.2 401.6c.1.3.2.5.4.7.8.8 2.5 1.3 3.6.6l.3-.3c-.2.3-.4.7-.8.9-1.1.7-2.8.3-3.6-.6-.3-.3-.4-.6-.5-1 0-.7.4-.8.6-.3z" fill="#333"/>
    </g>
</svg>
