<svg xmlns="http://www.w3.org/2000/svg" height="24" width="24">
    <g transform="matrix(1,0,0,-1,-264,408)" id="KDDI_D_">        <path d="M268.7 398.9s-3.6-.2-4.5 2.6c-.7 1.9 1.4 5.5 4.4 5.6 4.4.2 3.8-5.8 3.8-5.8"/>
        <path d="M264.9 401.6c-.6 1.7 1.2 4.9 3.8 5.5h-.1c-3-.1-5.1-3.7-4.4-5.6.9-2.8 4.5-2.6 4.5-2.6l.1.1c-1 .1-3.2.5-3.9 2.6z" fill="#333"/>
        <path d="M283.3 398.9s3.6-.2 4.5 2.6c.7 1.9-1.4 5.5-4.4 5.6-4.4.2-3.8-5.8-3.8-5.8"/>
        <path d="M283.9 406.6c1-.1 2-.5 2.7-1.2-.8.9-1.9 1.6-3.2 1.7-4.4.2-3.8-5.8-3.8-5.8l.5-.3c-.1 1-.2 5.7 3.8 5.6z" fill="#333"/>
        <path d="M287.7 392.1c0-4.9-5.2-7.2-11.6-7.2-6.4 0-11.6 2.3-11.6 7.2 0 5 5.2 10.8 11.6 10.8 6.4 0 11.6-5.8 11.6-10.8z" fill="#fff"/>
        <path d="M283.2 400.3c1.4-2.1 2.3-4.5 2.3-6.8 0-5.7-5.2-8.3-11.6-8.3-.9 0-1.9.1-2.7.2 1.5-.3 3.1-.5 4.9-.5 6.4 0 11.6 2.3 11.6 7.2 0 2.9-1.8 6.1-4.5 8.2z" fill="#ccc"/>
        <path d="M287.6 392.1c0-4.9-5.2-7.2-11.5-7.2-6.4 0-11.5 2.3-11.5 7.2 0 5 5.1 10.8 11.5 10.8 6.3 0 11.5-5.8 11.5-10.8z" fill="none" stroke="#000"/>
        <path d="M277.5 389c0-.7-.7-1.3-1.5-1.3s-1.4.6-1.4 1.3c0 .7.6 1.2 1.4 1.2.8 0 1.5-.5 1.5-1.2zM272.3 397.8c1.4 0 2-1.4 1.8-3.4-.3-2.1-2.1-4.4-3.9-4.2-1.9.2-2.9 1.4-2.6 3.4.2 1.6 2.4 4.2 4.7 4.2zM279.8 397.8c-1.5 0-2.1-1.4-1.9-3.4.3-2.1 2.1-4.4 3.9-4.2 1.9.2 2.9 1.4 2.6 3.4-.2 1.6-2.4 4.2-4.6 4.2z"/>
    </g>
</svg>
