<svg xmlns="http://www.w3.org/2000/svg" height="24" width="24">
    <g transform="matrix(1,0,0,-1,-264,408)" id="KDDI_D_">        <path d="M268.7 402v-7.6c0-2.7 1.6-7.7 7.3-7.7 5.8 0 7.3 5 7.3 7.7v7.6c-1.7-.3-4-.6-7.3-.6s-5.6.3-7.3.6z" fill="#f66"/>
        <path d="M276 401.4c-2.3 0-4.2.2-5.7.4-.3 0-.6 0-.8.1h-.1c-.2 0-.5.1-.7.1v-1.6-6c0-1.4.4-3.3 1.5-4.9 1.1-1.6 2.4-.5 1.6 1.6-.5 1.2-.7 2.4-.7 3.3v4.1c0 1 .9 1.5 1.4 1.4 1.2-.1 1.9-.1 3.5-.1 2.5 0 4.3.1 5.8.3.5.1 1.5 1.7 1.5 1.9-1.7-.3-4-.6-7.3-.6z" fill="#f99"/>
        <path d="M269.7 394.4v7.5H269.4c-.2 0-.5.1-.7.1v-1.6-6c0-1.4.4-3.3 1.5-4.9.7-1 1.2-.9 1.2-.2l-.2.2c-1.1 1.6-1.5 3.5-1.5 4.9z" fill="#fcc"/>
        <path d="M281.9 401.8V395c0-2.7-1.7-7.8-7.5-6.9-.9.1-1.6-.6-2.4-.4 1.1-.6 2.4-1 4-1 5.8 0 7.3 5 7.3 7.7v7.6c-.4-.1-.9-.2-1.4-.2z" fill="#c33"/>
        <path d="M283.3 402c-.4-.1-.9-.2-1.4-.2v-1.7l1.4.3v1.6z" fill="#f66"/>
        <path d="M276 396.6v-9.9" fill="none" stroke="#600" stroke-linecap="round"/>
        <path d="M272.7 387.4c-3.1 1.5-4 4.9-4 7v7.5" fill="none" stroke="#c33" stroke-linecap="round"/>
        <path d="M283.3 401.9v-7.5c0-2.7-1.5-7.7-7.3-7.7-1.3 0-2.4.2-3.3.7" fill="none" stroke="#600" stroke-linecap="round"/>
        <path d="M287.4 404.1s-1-2.6-11.4-2.6c-10.3 0-11.3 2.6-11.3 2.6" fill="none" stroke="#600" stroke-width="1.3" stroke-linecap="round"/>
    </g>
</svg>
