<svg xmlns="http://www.w3.org/2000/svg" height="24" width="24">
    <g transform="matrix(1,0,0,-1,-264,408)" id="KDDI_D_">        <path d="M287.6 395.9c0-5.3-5.2-9.6-11.6-9.6-6.3 0-11.5 4.3-11.5 9.6s5.2 9.6 11.5 9.6c6.4 0 11.6-4.3 11.6-9.6z" fill="#f99"/>
        <path d="M287.6 395.9c0-5.3-5.2-9.6-11.6-9.6-6.3 0-11.5 4.3-11.5 9.6s5.2 9.6 11.5 9.6c6.4 0 11.6-4.3 11.6-9.6z" fill="#f66"/>
        <path d="M266.2 395.3c1.3 4.3 4.8 7.7 9.4 9 1.3.4 1.7 1.2.4 1.2-6.3 0-11.5-4.3-11.5-9.6 0-1.5 1.2-4.2 1.2-4.2 0 1.3.2 2.5.5 3.6z" fill="#fcc"/>
        <path d="M285.4 401.5c.2-.8.3-1.6.3-2.5 0-6.6-5.2-12-11.6-12-1.5 0-3 .3-4.4.9 1.8-1 4-1.6 6.3-1.6 6.4 0 11.6 4.3 11.6 9.6 0 2.1-.8 4-2.2 5.6z" fill="#c33"/>
        <path d="M286 395.9c0-4.6-4.5-8.2-9.9-8.2-5.5 0-9.9 3.6-9.9 8.2 0 4.5 4.4 8.2 9.9 8.2 5.4 0 9.9-3.7 9.9-8.2z" fill="#f66"/>
        <path d="M285.4 395.9c0-4.3-4.2-7.7-9.3-7.7-5.1 0-9.3 3.4-9.3 7.7 0 4.2 4.2 7.7 9.3 7.7 5.1 0 9.3-3.5 9.3-7.7z" fill="#f99"/>
        <path d="M271.7 387c-4.2 1.5-7.2 4.9-7.2 8.9 0 5.3 5.2 9.6 11.5 9.6 4 0 7.5-1.7 9.6-4.2" fill="none" stroke="#333" stroke-linecap="round"/>
        <path d="M285.6 401.3c1.2-1.5 2-3.4 2-5.4 0-5.3-5.2-9.6-11.6-9.6-1.5 0-3 .3-4.3.7" fill="none" stroke="#000" stroke-linecap="round"/>
        <path d="M273.4 394.1c0-.7-.5-1.2-1.1-1.2-.6 0-1.1.5-1.1 1.2v3.7c0 .6.5 1.2 1.1 1.2.6 0 1.1-.6 1.1-1.2zM278.6 394.1c0-.7.5-1.2 1.1-1.2.6 0 1.1.5 1.1 1.2v3.7c0 .6-.5 1.2-1.1 1.2-.6 0-1.1-.6-1.1-1.2z" fill="#600"/>
        <path d="M271.9 397.1v-3.7-.4c.2-.1.3-.1.4-.1.6 0 1.1.5 1.1 1.2V398.2c-.2 0-.3.1-.4.1-.6 0-1.1-.6-1.1-1.2zM279.2 397.1v-3.7c0-.2 0-.3.1-.4.1-.1.2-.1.4-.1.6 0 1.1.5 1.1 1.2v3.7c0 .1-.1.3-.1.4-.1 0-.3.1-.4.1-.6 0-1.1-.6-1.1-1.2z"/>
    </g>
</svg>
