<svg xmlns="http://www.w3.org/2000/svg" width="24" height="24">
	<g transform="translate(-264,-386)" id="KDDI_D_759">
		<g>
			<path style="stroke:none; fill:none" d="M 288 409.89L 264 409.89L 264 385.89L 288 385.89L 288 409.89z"/>
		</g>
		<g>
			<path style="stroke:none; fill:#fc6" d="M 278.5 388.39C 278.5 389.771 276 397.89 276 397.89C 276 397.89 273.5 389.771 273.5 388.39C 273.5 387.009 274.619 385.89 276 385.89C 277.381 385.89 278.5 387.009 278.5 388.39z"/>
			<path style="stroke:none; fill:#f60" d="M 277 388.39C 277 388.942 276 397.89 276 397.89C 276 397.89 275 388.942 275 388.39C 275 387.838 275.448 387.39 276 387.39C 276.552 387.39 277 387.838 277 388.39z"/>
			<path style="stroke:none; fill:#fc6" d="M 278.5 407.39C 278.5 406.009 276 397.89 276 397.89C 276 397.89 273.5 406.009 273.5 407.39C 273.5 408.771 274.619 409.89 276 409.89C 277.381 409.89 278.5 408.771 278.5 407.39z"/>
			<path style="stroke:none; fill:#f60" d="M 277 407.39C 277 406.838 276 397.89 276 397.89C 276 397.89 275 406.838 275 407.39C 275 407.942 275.448 408.39 276 408.39C 276.552 408.39 277 407.942 277 407.39z"/>
			<path style="stroke:none; fill:#fc6" d="M 285.5 400.39C 284.119 400.39 276 397.89 276 397.89C 276 397.89 284.119 395.39 285.5 395.39C 286.881 395.39 288 396.509 288 397.89C 288 399.271 286.881 400.39 285.5 400.39z"/>
			<path style="stroke:none; fill:#f60" d="M 285.5 398.89C 284.948 398.89 276 397.89 276 397.89C 276 397.89 284.948 396.89 285.5 396.89C 286.052 396.89 286.5 397.338 286.5 397.89C 286.5 398.442 286.052 398.89 285.5 398.89z"/>
			<path style="stroke:none; fill:#fc6" d="M 266.5 400.39C 267.881 400.39 276 397.89 276 397.89C 276 397.89 267.881 395.39 266.5 395.39C 265.119 395.39 264 396.509 264 397.89C 264 399.271 265.119 400.39 266.5 400.39z"/>
			<path style="stroke:none; fill:#f60" d="M 266.5 398.89C 267.052 398.89 276 397.89 276 397.89C 276 397.89 267.052 396.89 266.5 396.89C 265.948 396.89 265.5 397.338 265.5 397.89C 265.5 398.442 265.948 398.89 266.5 398.89z"/>
			<path style="stroke:none; fill:#fc6" d="M 280.95 406.374C 279.974 405.399 276 397.89 276 397.89C 276 397.89 283.509 401.863 284.485 402.839C 285.462 403.816 285.462 405.399 284.485 406.375C 283.509 407.352 281.927 407.351 280.95 406.374z"/>
			<path style="stroke:none; fill:#f60" d="M 282.011 405.314C 281.62 404.924 276 397.89 276 397.89C 276 397.89 283.034 403.51 283.425 403.9C 283.815 404.29 283.815 404.924 283.425 405.315C 283.034 405.705 282.401 405.704 282.011 405.314z"/>
			<path style="stroke:none; fill:#fc6" d="M 267.515 392.94C 268.492 393.916 276 397.89 276 397.89C 276 397.89 272.027 390.381 271.05 389.404C 270.074 388.428 268.492 388.428 267.515 389.404C 266.539 390.381 266.539 391.963 267.515 392.94z"/>
			<path style="stroke:none; fill:#f60" d="M 268.576 391.879C 268.966 392.27 276 397.89 276 397.89C 276 397.89 270.38 390.856 269.99 390.465C 269.599 390.074 268.966 390.074 268.576 390.465C 268.185 390.856 268.185 391.488 268.576 391.879z"/>
			<path style="stroke:none; fill:#fc6" d="M 267.516 402.84C 268.491 401.863 276 397.89 276 397.89C 276 397.89 272.026 405.399 271.051 406.375C 270.074 407.352 268.491 407.352 267.515 406.375C 266.538 405.399 266.539 403.817 267.516 402.84z"/>
			<path style="stroke:none; fill:#f60" d="M 268.576 403.9C 268.966 403.51 276 397.89 276 397.89C 276 397.89 270.38 404.924 269.99 405.315C 269.6 405.705 268.966 405.705 268.575 405.315C 268.185 404.924 268.185 404.291 268.576 403.9z"/>
			<path style="stroke:none; fill:#fc6" d="M 280.95 389.405C 279.974 390.381 276 397.89 276 397.89C 276 397.89 283.509 393.917 284.485 392.94C 285.462 391.963 285.462 390.381 284.485 389.405C 283.509 388.428 281.927 388.428 280.95 389.405z"/>
			<path style="stroke:none; fill:#f60" d="M 282.011 390.465C 281.62 390.856 276 397.89 276 397.89C 276 397.89 283.034 392.27 283.425 391.879C 283.815 391.489 283.815 390.856 283.425 390.465C 283.034 390.075 282.401 390.075 282.011 390.465z"/>
			<path style="stroke:none; fill:#f90" d="M 279 397.89C 279 399.546 277.657 400.89 276 400.89C 274.343 400.89 273 399.546 273 397.89C 273 396.233 274.343 394.89 276 394.89C 277.657 394.89 279 396.233 279 397.89z"/>
			<path style="stroke:#c60; stroke-width:1; fill:none" d="M 279.5 397.89C 279.5 399.823 277.933 401.39 276 401.39C 274.067 401.39 272.5 399.823 272.5 397.89C 272.5 395.957 274.067 394.39 276 394.39C 277.933 394.39 279.5 395.957 279.5 397.89z"/>
			<path style="stroke:none; fill:#ff0" d="M 274 397.89C 274 398.993 274.897 399.89 276 399.89C 277.103 399.89 278 398.993 278 397.89C 278 396.787 277.103 395.89 276 395.89C 274.897 395.89 274 396.787 274 397.89z"/>
			<path style="stroke:none; fill:#ff9" d="M 275 397.89C 275 397.338 275.449 396.89 276 396.89C 276.551 396.89 277 397.338 277 397.89C 277 398.441 276.551 398.89 276 398.89C 275.449 398.89 275 398.441 275 397.89z"/>
		</g>
	</g>
</svg>
