<svg xmlns="http://www.w3.org/2000/svg" width="24" height="24">
	<g transform="translate(-264,-386)" id="KDDI_D_760">
		<g>
			<path style="stroke:none; fill:none" d="M 288 409.89L 264 409.89L 264 385.89L 288 385.89L 288 409.89z"/>
		</g>
		<g>
			<path style="stroke:none; fill:#39c" d="M 264.5 395.89L 264.5 398.39C 264.5 400.04 266.5 401.89 269 401.89L 273.5 401.89C 274 402.39 275.5 403.39 275.5 405.39C 275.5 407.39 273 409.39 271.5 409.39L 280.5 409.39C 279 409.39 276.5 407.39 276.5 405.39C 276.5 403.39 278 402.39 278.5 401.89L 283 401.89C 285.5 401.89 287.5 400.04 287.5 398.39L 287.5 395.89L 264.5 395.89z"/>
			<path style="stroke:none; fill:#6cf" d="M 278.5 401.89L 281.5 401.89C 284 401.89 286 400.04 286 398.39L 286 395.89L 266 395.89L 266 398.39C 266 400.04 268 401.89 270.5 401.89L 273.5 401.89C 274 402.39 275.5 403.39 275.5 405.39C 275.5 407.39 273 409.39 271.5 409.39L 271.5 409.89L 280.5 409.89L 280.5 409.39C 279 409.39 276.5 407.39 276.5 405.39C 276.5 403.39 278 402.39 278.5 401.89z"/>
			<path style="stroke:none; fill:#cff" d="M 275.5 405.39L 276.5 405.39C 276.5 404.25 278.5 401.39 278.5 395.89C 276.75 395.89 271.5 395.89 271.5 395.89C 271.5 399.39 272.5 400.89 273.5 401.89C 274 402.39 275.5 403.39 275.5 405.39z"/>
			<path style="stroke:none; fill:#fff" d="M 272.5 395.89C 272.5 395.89 272.5 400.89 276 402.39C 276 402.39 274 399.39 274 395.89L 272.5 395.89z"/>
			<path style="stroke:none; fill:#39c" d="M 280.5 409.39C 279.371 409.39 277.675 408.256 276.906 406.842C 276.674 407.785 275.941 409.89 274 409.89L 280.5 409.89L 280.5 409.39z"/>
			<path style="stroke:#06c; stroke-width:1; fill:none" d="M 269 409.39L 271.5 409.39C 273 409.39 275.5 407.39 275.5 405.39C 275.5 403.39 274 402.39 273.5 401.89L 269 401.89C 266.5 401.89 264.5 400.04 264.5 398.39L 264.5 395.89L 287.5 395.89L 287.5 398.39C 287.5 400.04 285.5 401.89 283 401.89L 278.5 401.89C 278 402.39 276.5 403.39 276.5 405.39C 276.5 407.39 279 409.39 280.5 409.39L 283 409.39"/>
			<path style="stroke:none; fill:#cc9" d="M 284 397.89C 284.5 397.39 285.5 396.576 285.5 395.89C 285.5 390.643 281.247 386.39 276 386.39C 270.753 386.39 266.5 390.39 266.5 395.89C 266.5 396.439 267 397.39 267.5 397.89L 284 397.89z"/>
			<path style="stroke:none; fill:#ffc" d="M 276.75 386.428C 271.855 386.811 268 390.897 268 395.89C 268 395.89 268.5 397.39 269 397.89L 283.5 397.89C 284 397.39 285.5 396.576 285.5 395.89C 285.5 390.897 281.645 386.811 276.75 386.428z"/>
			<path style="stroke:#666; stroke-width:1; fill:none" d="M 281.832 388.39C 280.222 387.136 278.198 386.39 276 386.39C 270.753 386.39 266.5 390.39 266.5 395.89C 266.5 396.439 267 397.39 267.5 397.89L 269.5 397.89"/>
			<path style="stroke:none; fill:#ff9" d="M 278.5 397.39L 281 388.39L 287 388.39L 285 397.39"/>
			<path style="stroke:none; fill:#fff" d="M 270.5 393.958C 270.5 391.472 272.515 389.458 275 389.458C 275.987 389.458 275.498 388.458 274 388.458C 271.515 388.458 269.5 390.472 269.5 392.958C 269.5 394.456 270.5 394.945 270.5 393.958z"/>
			<path style="stroke:#fc6; stroke-width:0.75; fill:none" d="M 281 388.39L 286 393.39"/>
			<path style="stroke:#fc6; stroke-width:0.75; fill:none" d="M 280.5 390.89L 285.5 395.89"/>
			<path style="stroke:#fc6; stroke-width:0.75; fill:none" d="M 280 393.39L 284.256 397.646"/>
			<path style="stroke:#fc6; stroke-width:0.75; fill:none" d="M 279.5 395.89L 281.5 397.89"/>
			<path style="stroke:#fc6; stroke-width:0.75; fill:none" d="M 284 388.39L 286.5 390.89"/>
			<path style="stroke:none; fill:#960" d="M 287 387.89L 280.62 387.89L 278.536 397.39L 279.5 397.39C 279.5 397.39 281.193 389.564 281.38 388.89C 281.973 388.89 285.446 388.89 286.377 388.89C 286.142 389.948 284.512 397.39 284.512 397.39L 285.488 397.39L 287.623 387.89L 287 387.89z"/>
			<path style="stroke:#996; stroke-width:1; fill:none" d="M 267.5 397.89L 284.5 397.89"/>
		</g>
	</g>
</svg>
