<svg xmlns="http://www.w3.org/2000/svg" width="24" height="24">
	<g transform="translate(-264,-386)" id="KDDI_D_761">
		<g>
			<path style="stroke:none; fill:none" d="M 288 409.89L 264 409.89L 264 385.89L 288 385.89L 288 409.89z"/>
		</g>
		<g>
			<path style="stroke:none; fill:#600" d="M 276 390.39C 269 390.39 264 394.471 264 398.89C 264 403.308 269 407.39 276 407.39C 283 407.39 288 403.308 288 398.89C 288 394.471 283 390.39 276 390.39zM 282 402.39C 282 403.39 279.038 403.39 276 403.39C 272.962 403.39 270 403.39 270 402.39C 270 401.193 270.873 403.123 272.151 402.39C 270.873 401.657 271.5 401.086 271.5 399.89C 271.5 397.681 272.962 396.39 276 396.39C 279.038 396.39 280.5 397.681 280.5 399.89C 280.5 401.086 281.127 401.657 279.849 402.39C 281.127 403.123 282 401.193 282 402.39z"/>
			<path style="stroke:none; fill:#f90" d="M 276 389.39C 269.817 389.39 264.511 391.89 264.511 394.39C 264.511 394.555 264.5 399.222 264.5 399.39C 264.5 405.741 269.649 409.39 276 409.39C 282.351 409.39 287.5 405.741 287.5 399.39C 287.5 399.222 287.5 394.556 287.5 394.39C 287.5 391.39 282.184 389.39 276 389.39zM 282 400.39C 282 401.39 279.038 401.39 276 401.39C 272.962 401.39 270 401.39 270 400.39C 270 399.193 270.873 401.123 272.151 400.39C 270.873 399.657 270 398.586 270 397.39C 270 395.181 272.962 393.39 276 393.39C 279.038 393.39 282 395.181 282 397.39C 282 398.586 281.127 399.657 279.849 400.39C 281.127 401.123 282 399.193 282 400.39z"/>
			<path style="stroke:none; fill:#c60" d="M 276 388.89C 269 388.89 264 392.971 264 397.39C 264 401.808 267 406.89 276 406.89C 285 406.89 288 401.808 288 397.39C 288 392.971 283 388.89 276 388.89zM 282 401.39C 282 402.39 279.038 402.39 276 402.39C 272.962 402.39 270 402.39 270 401.39C 270 400.193 270.873 402.123 272.151 401.39C 270.873 400.657 270.5 400.086 270.5 398.89C 270.5 396.681 272.962 395.39 276 395.39C 279.038 395.39 281.5 396.681 281.5 398.89C 281.5 400.086 281.127 400.657 279.849 401.39C 281.127 402.123 282 400.193 282 401.39z"/>
			<path style="stroke:#930; stroke-width:1; fill:none" d="M 287.5 396.419C 287.5 396.585 287.5 399.222 287.5 399.39C 287.5 405.741 282.351 409.39 276 409.39C 269.649 409.39 264.5 405.741 264.5 399.39C 264.5 399.222 264.511 396.584 264.511 396.419C 264.511 391.919 269.817 387.896 276 387.896C 282.184 387.896 287.5 391.919 287.5 396.419z"/>
			<path style="stroke:#930; stroke-width:1; fill:none" d="M 282 401.39C 282 402.39 279.038 402.39 276 402.39C 272.962 402.39 270 402.39 270 401.39C 270 400.193 270.873 402.123 272.151 401.39C 270.873 400.657 270.5 400.086 270.5 398.89C 270.5 396.681 272.962 394.89 276 394.89C 279.038 394.89 281.5 396.681 281.5 398.89C 281.5 400.086 281.127 400.657 279.849 401.39C 281.127 402.123 282 400.193 282 401.39z"/>
			<path style="stroke:none; fill:#300" d="M 276 387.896C 269.35 387.896 264.6 391.988 264.6 396.419C 264.6 400.849 269.35 404.942 276 404.942C 282.65 404.942 287.4 400.849 287.4 396.419C 287.4 391.988 282.65 387.896 276 387.896zM 281.7 400.918C 281.7 401.92 278.886 401.92 276 401.92C 273.114 401.92 270.3 401.92 270.3 400.918C 270.3 399.717 271.129 399.647 272.344 398.912C 271.129 398.177 270.3 397.103 270.3 395.903C 270.3 393.688 273.114 391.893 276 391.893C 278.886 391.893 281.7 393.688 281.7 395.903C 281.7 397.103 280.871 398.177 279.656 398.912C 280.871 399.647 281.7 399.717 281.7 400.918z"/>
			<path style="stroke:none; fill:#630" d="M 276 386.893C 269.35 386.893 264.6 390.985 264.6 395.416C 264.6 399.847 269.35 403.94 276 403.94C 282.65 403.94 287.4 399.847 287.4 395.416C 287.4 390.985 282.65 386.893 276 386.893zM 276 398.715C 273.114 398.715 270.3 396.919 270.3 394.703C 270.3 392.489 273.114 390.692 276 390.692C 278.886 390.692 281.7 392.489 281.7 394.703C 281.7 396.919 278.886 398.715 276 398.715z"/>
			<path style="stroke:none; fill:#963" d="M 266.5 395.39C 266.5 400.439 272.5 401.89 275.5 401.89C 275.5 401.89 268 399.89 268 395.39C 268 390.39 273 388.89 273 388.89C 269.5 388.89 266.5 391.53 266.5 395.39z"/>
		</g>
	</g>
</svg>
