<svg xmlns="http://www.w3.org/2000/svg" width="24" height="24">
	<g transform="translate(-264,-386)" id="KDDI_D_762">
		<g>
			<path style="stroke:none; fill:none" d="M 288 409.89L 264 409.89L 264 385.89L 288 385.89L 288 409.89z"/>
		</g>
		<g>
			<path style="stroke:none; fill:#300" d="M 288 397.89C 288 404.517 282.627 409.89 276 409.89C 269.373 409.89 264 404.517 264 397.89C 264 391.262 269.373 385.89 276 385.89C 282.627 385.89 288 391.262 288 397.89z"/>
			<path style="stroke:none; fill:#933" d="M 275.777 385.901C 269.337 386.02 264.146 391.204 264.013 397.639C 264.147 403.865 269.243 408.89 275.5 408.89C 281.841 408.89 287 403.731 287 397.39C 287 390.484 282.615 386.021 275.777 385.901z"/>
			<path style="stroke:none; fill:#c66" d="M 264.025 397.389C 264.289 403.222 269.103 407.89 275 407.89C 281.065 407.89 286 402.955 286 396.89C 286 392.125 284.605 388.754 281.193 387.085C 281.133 387.055 281.072 387.025 281.011 386.996C 279.574 386.333 277.782 385.969 275.609 385.909C 269.332 386.112 264.284 391.126 264.025 397.389z"/>
			<path style="stroke:none; fill:#600" d="M 270 388.89L 272 387.89L 274 388.89L 270 388.89z"/>
			<path style="stroke:none; fill:#600" d="M 277 405.89L 279 404.89L 281 405.89L 277 405.89z"/>
			<path style="stroke:none; fill:#600" d="M 276.5 398.89L 278.5 397.89L 280.5 398.89L 276.5 398.89z"/>
			<path style="stroke:none; fill:#600" d="M 267 400.89L 269 399.89L 271 400.89L 267 400.89z"/>
			<path style="stroke:none; fill:#600" d="M 282 389.89L 283 388.89L 284 389.89L 282 389.89z"/>
			<path style="stroke:none; fill:#600" d="M 284 396.89L 285 395.89L 286 396.89L 284 396.89z"/>
			<path style="stroke:none; fill:#600" d="M 276 403.39L 277 402.39L 278 403.39L 276 403.39z"/>
			<path style="stroke:none; fill:#600" d="M 273.5 401.39L 274.5 400.39L 275.5 401.39L 273.5 401.39z"/>
			<path style="stroke:none; fill:#600" d="M 272.5 397.39L 273.5 396.39L 274.5 397.39L 272.5 397.39z"/>
			<path style="stroke:none; fill:#600" d="M 276.5 395.39L 277.5 394.39L 278.5 395.39L 276.5 395.39z"/>
			<path style="stroke:none; fill:#600" d="M 267 396.89L 268 395.89L 269 396.89L 267 396.89z"/>
			<path style="stroke:none; fill:#600" d="M 271.5 403.89L 273.5 402.39L 275 403.89L 271.5 403.89z"/>
			<path style="stroke:none; fill:#600" d="M 276.15 390.39C 276.15 391.384 275.612 392.19 274.95 392.19C 274.287 392.19 273.75 391.384 273.75 390.39C 273.75 389.396 274.287 388.59 274.95 388.59C 275.612 388.59 276.15 389.396 276.15 390.39z"/>
			<path style="stroke:none; fill:#300" d="M 276.75 389.893C 277.219 390.361 277.219 391.121 276.75 391.59C 276.281 392.059 275.522 392.059 275.053 391.59C 274.584 391.121 274.584 390.361 275.053 389.893C 275.522 389.424 276.281 389.424 276.75 389.893z"/>
			<path style="stroke:none; fill:#966" d="M 275.859 389.893C 276.082 390.115 276.082 390.476 275.859 390.699C 275.636 390.922 275.274 390.922 275.052 390.699C 274.829 390.477 274.829 390.115 275.053 389.893C 275.275 389.67 275.636 389.669 275.859 389.893z"/>
			<path style="stroke:none; fill:#600" d="M 270.392 393.132C 270.392 394.126 269.854 394.932 269.192 394.932C 268.529 394.932 267.992 394.126 267.992 393.132C 267.992 392.137 268.529 391.331 269.192 391.331C 269.854 391.331 270.392 392.137 270.392 393.132z"/>
			<path style="stroke:none; fill:#300" d="M 270.992 392.635C 271.461 393.104 271.461 393.862 270.992 394.331C 270.523 394.8 269.764 394.8 269.295 394.331C 268.826 393.862 268.826 393.104 269.295 392.635C 269.764 392.166 270.523 392.166 270.992 392.635z"/>
			<path style="stroke:none; fill:#966" d="M 270.102 392.634C 270.324 392.857 270.324 393.218 270.102 393.441C 269.878 393.663 269.517 393.664 269.294 393.442C 269.071 393.218 269.071 392.858 269.295 392.635C 269.518 392.411 269.878 392.411 270.102 392.634z"/>
			<path style="stroke:none; fill:#600" d="M 282.393 394.132C 282.393 395.127 281.855 395.933 281.192 395.933C 280.53 395.933 279.992 395.127 279.992 394.132C 279.992 393.138 280.53 392.332 281.192 392.332C 281.855 392.332 282.393 393.138 282.393 394.132z"/>
			<path style="stroke:none; fill:#300" d="M 282.992 393.636C 283.461 394.105 283.461 394.863 282.992 395.332C 282.523 395.801 281.765 395.801 281.296 395.332C 280.827 394.863 280.827 394.105 281.296 393.636C 281.765 393.167 282.523 393.167 282.992 393.636z"/>
			<path style="stroke:none; fill:#966" d="M 282.102 393.635C 282.324 393.858 282.324 394.219 282.102 394.442C 281.878 394.664 281.518 394.665 281.295 394.442C 281.072 394.219 281.072 393.858 281.296 393.636C 281.519 393.412 281.878 393.411 282.102 393.635z"/>
			<path style="stroke:none; fill:#600" d="M 283.665 400.313C 283.665 401.307 283.128 402.113 282.465 402.113C 281.803 402.113 281.266 401.307 281.266 400.313C 281.266 399.318 281.803 398.512 282.465 398.512C 283.128 398.512 283.665 399.318 283.665 400.313z"/>
			<path style="stroke:none; fill:#300" d="M 282.465 399.816C 282.934 400.285 282.934 401.044 282.465 401.512C 281.996 401.981 281.237 401.981 280.769 401.512C 280.3 401.044 280.3 400.285 280.769 399.816C 281.237 399.347 281.996 399.347 282.465 399.816z"/>
			<path style="stroke:none; fill:#966" d="M 281.574 399.815C 281.797 400.038 281.797 400.399 281.574 400.622C 281.351 400.844 280.99 400.845 280.768 400.623C 280.545 400.399 280.545 400.039 280.769 399.816C 280.991 399.592 281.351 399.592 281.574 399.815z"/>
			<path style="stroke:none; fill:#600" d="M 272.594 402.09C 272.594 403.084 272.057 403.89 271.395 403.89C 270.732 403.89 270.195 403.084 270.195 402.09C 270.195 401.095 270.732 400.289 271.395 400.289C 272.057 400.289 272.594 401.095 272.594 402.09z"/>
			<path style="stroke:none; fill:#300" d="M 273.794 401.687C 274.263 402.155 274.263 402.914 273.794 403.383C 273.326 403.852 272.567 403.852 272.098 403.383C 271.629 402.914 271.629 402.155 272.098 401.687C 272.567 401.218 273.326 401.218 273.794 401.687z"/>
			<path style="stroke:none; fill:#966" d="M 272.904 401.686C 273.126 401.908 273.126 402.27 272.904 402.492C 272.68 402.715 272.319 402.716 272.096 402.493C 271.874 402.27 271.874 401.909 272.098 401.687C 272.321 401.463 272.68 401.463 272.904 401.686z"/>
		</g>
	</g>
</svg>
