<svg xmlns="http://www.w3.org/2000/svg" width="24" height="24">
	<g transform="translate(-264,-386)" id="KDDI_D_763">
		<g>
			<path style="stroke:none; fill:none" d="M 288 409.89L 264 409.89L 264 385.89L 288 385.89L 288 409.89z"/>
		</g>
		<g>
			<path style="stroke:#999; stroke-width:1; fill:#999" d="M 278.5 407.89L 278.5 404.39L 276.5 405.89L 278.5 407.89"/>
			<path style="stroke:none; fill:#960" d="M 265 399.39L 277.5 386.89L 287 396.39L 274.75 408.64"/>
			<path style="stroke:#630; stroke-width:1.5; fill:none" d="M 266.75 401.14L 277.5 390.39L 283.5 396.39L 272.75 407.14"/>
			<path style="stroke:#300; stroke-width:1; fill:none" d="M 265 399.39L 277.5 386.89L 287 396.39L 274.75 408.64"/>
			<path style="stroke:#300; stroke-width:1.5; fill:none" d="M 274 407.89L 286.25 395.64"/>
			<path style="stroke:#630; stroke-width:1.5; fill:none" d="M 269.75 404.14L 280.75 393.14"/>
			<path style="stroke:#630; stroke-width:1.5; fill:none" d="M 274.25 393.14L 280.25 399.14"/>
			<path style="stroke:#630; stroke-width:1.5; fill:none" d="M 271.25 396.14L 277.25 402.14"/>
			<path style="stroke:none; fill:#300" d="M 274.25 393.14L 274.485 393.905L 279.985 399.405L 280.75 399.64L 280.515 398.875L 275.015 393.375L 274.25 393.14z"/>
			<path style="stroke:none; fill:#300" d="M 271.25 396.14L 271.485 396.905L 276.985 402.405L 277.75 402.64L 277.515 401.875L 272.015 396.375L 271.25 396.14z"/>
			<path style="stroke:none; fill:#300" d="M 268.25 399.14L 268.485 399.905L 273.985 405.405L 274.75 405.64L 274.515 404.875L 269.015 399.375L 268.25 399.14z"/>
			<path style="stroke:none; fill:#300" d="M 269.485 403.875L 270.015 404.405L 280.265 394.155L 280.75 393.14L 279.735 393.625L 269.485 403.875z"/>
			<path style="stroke:#630; stroke-width:1.5; fill:none" d="M 268.25 399.14L 274.25 405.14"/>
			<path style="stroke:#fff; stroke-width:1; fill:#fff" d="M 271 400.39L 268 400.39L 268 395.89L 264.5 395.89L 264.5 409.39L 277 409.39L 278.5 407.89L 274 403.39L 274 400.89"/>
			<path style="stroke:#fff; stroke-width:1; fill:#fff" d="M 274 400.89L 274 400.39L 271 400.39"/>
			<path style="stroke:#666; stroke-width:1; fill:none" d="M 271 400.39L 267.5 400.39L 268 400.39"/>
			<path style="stroke:#ccc; stroke-width:1; fill:none" d="M 273.5 408.89L 273.5 404.39"/>
			<path style="stroke:#ccc; stroke-width:1; fill:none" d="M 272.5 405.39L 272.5 401.39L 267.5 401.39"/>
			<path style="stroke:#ccc; stroke-width:1; fill:none" d="M 267 400.89L 267 396.39"/>
			<path style="stroke:#999; stroke-width:1; fill:none" d="M 268 397.39L 268 396.39"/>
			<path style="stroke:#ccc; stroke-width:1; fill:none" d="M 276.5 408.89L 276.5 405.89"/>
			<path style="stroke:#666; stroke-width:1; fill:none" d="M 275.5 408.89L 275.5 404.89"/>
			<path style="stroke:#999; stroke-width:1; fill:none" d="M 274.5 408.89L 274.5 404.39"/>
			<path style="stroke:#fff; stroke-width:1; fill:none" d="M 278.5 407.89L 274 403.39L 274 400.39"/>
			<path style="stroke:#999; stroke-width:1; fill:none" d="M 274.5 400.39L 271 400.39"/>
			<path style="stroke:#666; stroke-width:1; fill:none" d="M 268.5 395.89L 264.5 395.89L 264.5 409.39L 277 409.39L 278.5 407.89L 278.5 407.39"/>
			<path style="stroke:none; fill:#c00" d="M 264 399.39L 267 399.39L 267 404.89L 272.5 404.89L 272.5 409.89L 264 409.89L 264 399.39z"/>
			<path style="stroke:none; fill:#f99" d="M 267 404.89L 272.5 407.89L 272.5 404.89L 267 404.89z"/>
			<path style="stroke:#600; stroke-width:1; fill:none" d="M 264 399.39L 267 399.39L 267 404.89L 272.5 404.89L 272.5 409.89"/>
		</g>
	</g>
</svg>
