<svg xmlns="http://www.w3.org/2000/svg" width="24" height="24">
	<g transform="translate(-264,-386)" id="KDDI_D_764">
		<g>
			<path style="stroke:none; fill:none" d="M 288 409.89L 264 409.89L 264 385.89L 288 385.89L 288 409.89z"/>
		</g>
		<g>
			<path style="stroke:none; fill:#096" d="M 288 391.39C 288 391.39 283.818 395.665 283.093 396.39C 282.315 395.23 280.15 391.89 276 391.89C 271.85 391.89 269.685 395.23 268.907 396.39C 268.182 395.665 264 391.39 264 391.39L 264 398.376L 288 398.376L 288 391.39z"/>
			<path style="stroke:none; fill:#063" d="M 268.907 400.39C 269.685 401.549 271.85 404.89 276 404.89C 280.15 404.89 282.315 401.549 283.093 400.39C 283.818 401.114 288 405.39 288 405.39L 288 398.376L 264 398.376L 264 405.39C 264 405.39 268.182 401.114 268.907 400.39z"/>
			<path style="stroke:none; fill:#096" d="M 276 392.89C 280.616 392.89 283.012 397.89 283.012 397.89C 283.012 397.89 286.879 394.011 288 392.89C 288 394.673 288 402.107 288 403.89C 286.879 402.769 283.012 398.89 283.012 398.89C 283.012 398.89 280.616 403.89 276 403.89C 271.384 403.89 269 398.89 269 398.89C 269 398.89 265.121 402.769 264 403.89C 264 402.107 264 394.673 264 392.89C 265.121 394.011 268.988 397.89 268.988 397.89C 268.988 397.89 271.384 392.89 276 392.89z"/>
			<path style="stroke:none; fill:#0c9" d="M 283.012 397.89C 283.012 397.89 280.616 392.89 276 392.89C 271.384 392.89 268.988 397.89 268.988 397.89C 268.988 397.89 265.121 394.011 264 392.89C 264 394.434 264 400.21 264 402.89C 265.121 401.769 269 397.89 269 397.89C 269 397.89 271.384 402.89 276 402.89C 280.616 402.89 283.012 397.89 283.012 397.89C 283.012 397.89 286.879 401.769 288 402.89C 288 400.21 288 394.434 288 392.89C 286.879 394.011 283.012 397.89 283.012 397.89z"/>
			<path style="stroke:none; fill:#3fc" d="M 274.024 396.39C 274.024 397.232 273.342 397.914 272.5 397.914C 271.658 397.914 270.976 397.232 270.976 396.39C 270.976 395.548 271.658 394.865 272.5 394.865C 273.342 394.865 274.024 395.548 274.024 396.39z"/>
			<path style="stroke:#063; stroke-width:1; stroke-linecap:round; fill:none" d="M 265.5 398.39L 267 398.39C 268.5 398.39 269 396.89 269 396.89"/>
			<path style="stroke:#063; stroke-width:1; fill:none" d="M 264 398.39L 267 398.39C 269 398.39 269 400.39 269 400.39"/>
			<path style="stroke:none; fill:#f39" d="M 271.976 396.39C 271.976 396.652 271.763 396.865 271.5 396.865C 271.237 396.865 271.024 396.652 271.024 396.39C 271.024 396.127 271.237 395.915 271.5 395.915C 271.763 395.915 271.976 396.127 271.976 396.39z"/>
			<path style="stroke:none; fill:#f9f" d="M 271.976 395.39C 271.976 395.652 271.763 395.865 271.5 395.865C 271.237 395.865 271.024 395.652 271.024 395.39C 271.024 395.127 271.237 394.915 271.5 394.915C 271.763 394.915 271.976 395.127 271.976 395.39z"/>
			<path style="stroke:none; fill:#f9f" d="M 272.976 396.39C 272.976 396.652 272.763 396.865 272.5 396.865C 272.237 396.865 272.024 396.652 272.024 396.39C 272.024 396.127 272.237 395.915 272.5 395.915C 272.763 395.915 272.976 396.127 272.976 396.39z"/>
			<path style="stroke:none; fill:#f9f" d="M 271.976 397.39C 271.976 397.652 271.763 397.865 271.5 397.865C 271.237 397.865 271.024 397.652 271.024 397.39C 271.024 397.127 271.237 396.915 271.5 396.915C 271.763 396.915 271.976 397.127 271.976 397.39z"/>
			<path style="stroke:none; fill:#f9f" d="M 270.976 396.39C 270.976 396.652 270.763 396.865 270.5 396.865C 270.237 396.865 270.024 396.652 270.024 396.39C 270.024 396.127 270.237 395.915 270.5 395.915C 270.763 395.915 270.976 396.127 270.976 396.39z"/>
			<path style="stroke:none; fill:#f39" d="M 277.976 395.39C 277.976 395.652 277.763 395.865 277.5 395.865C 277.237 395.865 277.024 395.652 277.024 395.39C 277.024 395.127 277.237 394.915 277.5 394.915C 277.763 394.915 277.976 395.127 277.976 395.39z"/>
			<path style="stroke:none; fill:#f9f" d="M 277.976 394.39C 277.976 394.652 277.763 394.865 277.5 394.865C 277.237 394.865 277.024 394.652 277.024 394.39C 277.024 394.127 277.237 393.915 277.5 393.915C 277.763 393.915 277.976 394.127 277.976 394.39z"/>
			<path style="stroke:none; fill:#f9f" d="M 278.976 395.39C 278.976 395.652 278.763 395.865 278.5 395.865C 278.237 395.865 278.024 395.652 278.024 395.39C 278.024 395.127 278.237 394.915 278.5 394.915C 278.763 394.915 278.976 395.127 278.976 395.39z"/>
			<path style="stroke:none; fill:#f9f" d="M 277.976 396.39C 277.976 396.652 277.763 396.865 277.5 396.865C 277.237 396.865 277.024 396.652 277.024 396.39C 277.024 396.127 277.237 395.915 277.5 395.915C 277.763 395.915 277.976 396.127 277.976 396.39z"/>
			<path style="stroke:none; fill:#f9f" d="M 276.976 395.39C 276.976 395.652 276.763 395.865 276.5 395.865C 276.237 395.865 276.024 395.652 276.024 395.39C 276.024 395.127 276.237 394.915 276.5 394.915C 276.763 394.915 276.976 395.127 276.976 395.39z"/>
			<path style="stroke:none; fill:#f39" d="M 281 399.39C 281 399.652 280.787 399.865 280.524 399.865C 280.262 399.865 280.049 399.652 280.049 399.39C 280.049 399.127 280.262 398.915 280.524 398.915C 280.787 398.915 281 399.127 281 399.39z"/>
			<path style="stroke:none; fill:#f9f" d="M 281 398.39C 281 398.652 280.787 398.865 280.524 398.865C 280.262 398.865 280.049 398.652 280.049 398.39C 280.049 398.127 280.262 397.915 280.524 397.915C 280.787 397.915 281 398.127 281 398.39z"/>
			<path style="stroke:none; fill:#f9f" d="M 282 399.39C 282 399.652 281.787 399.865 281.524 399.865C 281.262 399.865 281.049 399.652 281.049 399.39C 281.049 399.127 281.262 398.915 281.524 398.915C 281.787 398.915 282 399.127 282 399.39z"/>
			<path style="stroke:none; fill:#f9f" d="M 281 400.39C 281 400.652 280.787 400.865 280.524 400.865C 280.262 400.865 280.049 400.652 280.049 400.39C 280.049 400.127 280.262 399.915 280.524 399.915C 280.787 399.915 281 400.127 281 400.39z"/>
			<path style="stroke:none; fill:#f9f" d="M 280 399.39C 280 399.652 279.787 399.865 279.524 399.865C 279.262 399.865 279.049 399.652 279.049 399.39C 279.049 399.127 279.262 398.915 279.524 398.915C 279.787 398.915 280 399.127 280 399.39z"/>
			<path style="stroke:none; fill:#f39" d="M 286.476 397.39C 286.476 397.652 286.263 397.865 286 397.865C 285.737 397.865 285.524 397.652 285.524 397.39C 285.524 397.127 285.737 396.915 286 396.915C 286.263 396.915 286.476 397.127 286.476 397.39z"/>
			<path style="stroke:none; fill:#f9f" d="M 286.476 396.39C 286.476 396.652 286.263 396.865 286 396.865C 285.737 396.865 285.524 396.652 285.524 396.39C 285.524 396.127 285.737 395.915 286 395.915C 286.263 395.915 286.476 396.127 286.476 396.39z"/>
			<path style="stroke:none; fill:#f9f" d="M 287.976 400.39C 287.976 400.652 287.763 400.865 287.5 400.865C 287.237 400.865 287.024 400.652 287.024 400.39C 287.024 400.127 287.237 399.915 287.5 399.915C 287.763 399.915 287.976 400.127 287.976 400.39z"/>
			<path style="stroke:none; fill:#f9f" d="M 286.476 398.39C 286.476 398.652 286.263 398.865 286 398.865C 285.737 398.865 285.524 398.652 285.524 398.39C 285.524 398.127 285.737 397.915 286 397.915C 286.263 397.915 286.476 398.127 286.476 398.39z"/>
			<path style="stroke:none; fill:#f9f" d="M 287.476 397.39C 287.476 397.652 287.263 397.865 287 397.865C 286.737 397.865 286.524 397.652 286.524 397.39C 286.524 397.127 286.737 396.915 287 396.915C 287.263 396.915 287.476 397.127 287.476 397.39z"/>
			<path style="stroke:none; fill:#f9f" d="M 285.476 397.39C 285.476 397.652 285.263 397.865 285 397.865C 284.737 397.865 284.524 397.652 284.524 397.39C 284.524 397.127 284.737 396.915 285 396.915C 285.263 396.915 285.476 397.127 285.476 397.39z"/>
			<path style="stroke:none; fill:#f39" d="M 274.976 400.39C 274.976 400.652 274.763 400.865 274.5 400.865C 274.237 400.865 274.024 400.652 274.024 400.39C 274.024 400.127 274.237 399.915 274.5 399.915C 274.763 399.915 274.976 400.127 274.976 400.39z"/>
			<path style="stroke:none; fill:#f9f" d="M 274.976 399.39C 274.976 399.652 274.763 399.865 274.5 399.865C 274.237 399.865 274.024 399.652 274.024 399.39C 274.024 399.127 274.237 398.915 274.5 398.915C 274.763 398.915 274.976 399.127 274.976 399.39z"/>
			<path style="stroke:none; fill:#f9f" d="M 275.976 400.39C 275.976 400.652 275.763 400.865 275.5 400.865C 275.237 400.865 275.024 400.652 275.024 400.39C 275.024 400.127 275.237 399.915 275.5 399.915C 275.763 399.915 275.976 400.127 275.976 400.39z"/>
			<path style="stroke:none; fill:#f9f" d="M 274.976 401.39C 274.976 401.652 274.763 401.865 274.5 401.865C 274.237 401.865 274.024 401.652 274.024 401.39C 274.024 401.127 274.237 400.915 274.5 400.915C 274.763 400.915 274.976 401.127 274.976 401.39z"/>
			<path style="stroke:none; fill:#f9f" d="M 273.976 400.39C 273.976 400.652 273.763 400.865 273.5 400.865C 273.237 400.865 273.024 400.652 273.024 400.39C 273.024 400.127 273.237 399.915 273.5 399.915C 273.763 399.915 273.976 400.127 273.976 400.39z"/>
			<path style="stroke:none; fill:#f39" d="M 265.976 402.39C 265.976 402.652 265.763 402.865 265.5 402.865C 265.237 402.865 265.024 402.652 265.024 402.39C 265.024 402.127 265.237 401.915 265.5 401.915C 265.763 401.915 265.976 402.127 265.976 402.39z"/>
			<path style="stroke:none; fill:#f9f" d="M 265.976 401.39C 265.976 401.652 265.763 401.865 265.5 401.865C 265.237 401.865 265.024 401.652 265.024 401.39C 265.024 401.127 265.237 400.915 265.5 400.915C 265.763 400.915 265.976 401.127 265.976 401.39z"/>
			<path style="stroke:none; fill:#f9f" d="M 264.951 402.415C 264.951 402.677 264.738 402.89 264.476 402.89C 264.213 402.89 264 402.677 264 402.415C 264 402.152 264.213 401.94 264.476 401.94C 264.738 401.94 264.951 402.152 264.951 402.415z"/>
			<path style="stroke:none; fill:#f9f" d="M 264.976 394.39C 264.976 394.652 264.763 394.865 264.5 394.865C 264.237 394.865 264.024 394.652 264.024 394.39C 264.024 394.127 264.237 393.915 264.5 393.915C 264.763 393.915 264.976 394.127 264.976 394.39z"/>
			<path style="stroke:#063; stroke-width:1; fill:none" d="M 288 398.39L 285 398.39C 283 398.39 283 400.39 283 400.39"/>
			<path style="stroke:#063; stroke-width:1; stroke-linecap:round; fill:none" d="M 287 398.39L 285 398.39C 283.5 398.39 283 396.89 283 396.89"/>
			<path style="stroke:none; fill:#3fc" d="M 278.642 393.483C 280.965 395.167 282.263 398.258 282.478 398.803C 282.829 398.265 283.012 397.89 283.012 397.89C 283.012 397.89 281.522 394.803 278.642 393.483z"/>
		</g>
	</g>
</svg>
