<svg xmlns="http://www.w3.org/2000/svg" width="24" height="24">
	<g transform="translate(-264,-386)" id="KDDI_D_765">
		<g>
			<path style="stroke:none; fill:none" d="M 288 409.89L 264 409.89L 264 385.89L 288 385.89L 288 409.89z"/>
		</g>
		<g>
			<path style="stroke:#c63; stroke-width:1; fill:none" d="M 276.5 402.39L 276.5 409.876"/>
			<path style="stroke:#963; stroke-width:1; fill:none" d="M 276.5 402.39L 276.5 403.89"/>
			<path style="stroke:none; fill:#fc0" d="M 285 394.39C 285 398.946 281.5 402.89 276.5 402.89C 271.5 402.89 268 398.946 268 394.39C 268 389.834 271.5 385.89 276.5 385.89C 281.5 385.89 285 389.834 285 394.39z"/>
			<path style="stroke:none; fill:#f90" d="M 272.5 401.927C 273.668 402.536 275.016 402.89 276.5 402.89C 277.776 402.89 278.953 402.63 280 402.172L 280 399.89L 272.5 399.89L 272.5 401.927z"/>
			<path style="stroke:none; fill:#6c9" d="M 284.303 395.89L 279.5 395.89L 279.5 399.738C 282.659 399.222 283.883 397.474 284.303 395.89z"/>
			<path style="stroke:none; fill:#396" d="M 284.865 395.89L 284.303 395.89C 283.883 397.474 282.659 399.222 279.5 399.738L 279.5 402.363C 282.365 401.324 284.355 398.833 284.865 395.89z"/>
			<path style="stroke:none; fill:#6c9" d="M 277 389.89C 275 389.89 273.5 390.89 273.5 390.89C 273.5 390.89 272 392.89 272.5 395.89L 277 395.89L 277 389.89z"/>
			<path style="stroke:none; fill:#6c9" d="M 279.5 386.416L 279.5 390.89L 284.261 390.89C 283.362 388.847 281.686 387.21 279.5 386.416z"/>
			<path style="stroke:none; fill:#6c9" d="M 269.26 398.89C 270.39 400.744 272.219 402.139 274.5 402.66L 276 399.89L 274.5 398.89L 269.26 398.89z"/>
			<path style="stroke:none; fill:#6c9" d="M 273.5 386.416C 271.314 387.21 269.638 388.847 268.739 390.89L 273.5 390.89L 273.5 386.416z"/>
			<path style="stroke:none; fill:#cff" d="M 276.5 394.89L 272.5 394.89L 272.5 393.89L 276.5 393.89L 276.5 394.89z"/>
			<path style="stroke:none; fill:#ff9" d="M 272.5 394.89L 268.5 394.89L 268.5 393.89L 272.5 393.89L 272.5 394.89z"/>
			<path style="stroke:#c03; stroke-width:1; stroke-linecap:round; fill:none" d="M 274.5 402.189C 271.05 401.3 268.5 398.117 268.5 394.39C 268.5 389.971 271.5 386.39 276.5 386.39C 281.5 386.39 284.5 389.971 284.5 394.39C 284.5 397.39 282.387 399.89 277.969 399.89C 274.156 399.89 272.531 396.782 272.531 394.376C 272.531 391.97 273.594 389.89 276.438 389.89C 279.281 389.89 280.531 391.282 280.531 393.407C 280.531 395.532 279.562 396.376 278.469 396.376C 277.375 396.376 276.5 395.644 276.5 394.275"/>
			<path style="stroke:#f36; stroke-width:1; stroke-linecap:round; fill:none" d="M 277.969 399.89C 274.156 399.89 272.531 396.782 272.531 394.376C 272.531 391.97 273.594 389.89 276.438 389.89C 279.281 389.89 280.531 391.282 280.531 393.407C 280.531 395.532 279.562 396.376 278.469 396.376C 277.375 396.376 276.5 395.644 276.5 394.275"/>
			<path style="stroke:#f36; stroke-width:1; stroke-linecap:round; fill:none" d="M 270.661 399.889C 269.321 398.444 268.5 396.504 268.5 394.39C 268.5 389.971 271.5 386.39 276.5 386.39C 281.5 386.39 284.5 389.971 284.5 394.39"/>
		</g>
	</g>
</svg>
