<svg xmlns="http://www.w3.org/2000/svg" height="24" width="24">
    <g transform="matrix(1,0,0,-1,-264,408)" id="KDDI_D_">        <path d="M288 395.6c0 1.9-.7 3.5-1.8 4.2-1.7 4.2-6 7.1-10.2 7.1-4.1 0-8.4-2.9-10.1-7-1.1-.7-1.9-2.3-1.9-4.3 0-2.3 1-4.1 2.4-4.5 1.9-3.6 5.8-5.6 9.6-5.6 3.9 0 7.8 2 9.7 5.6 1.3.4 2.3 2.3 2.3 4.5z" fill="#930"/>
        <path d="M267.1 399c1.8 4.5 6.1 7.7 10.2 7.7.4 0 .8 0 1.2-.1-.8.2-1.6.3-2.5.3-4.1 0-8.4-2.9-10.1-7-1.1-.7-1.9-2.3-1.9-4.3s.8-3.6 1.8-4.3c-.3.9-.6 1.9-.6 3 0 2.2.8 4 1.9 4.7z" fill="#c60"/>
        <path d="M286.2 399.8c-1.2 3.1-3.9 5.5-6.9 6.6 2.1-1.4 3.9-3.5 4.9-6 1-.7.8-8.8-.5-9.2-1.6-3.1-4.3-4.8-7.3-5.7 3.7.2 7.4 2.1 9.3 5.6 1.3.4 2.3 2.3 2.3 4.5 0 1.9-.7 3.5-1.8 4.2z" fill="#600"/>
        <path d="M268 395.6c0-1.8-.7-3.3-1.6-3.3-.9 0-1.7 1.5-1.7 3.3 0 1.8.8 3.2 1.7 3.2.9 0 1.6-1.4 1.6-3.2zM283.9 395.6c0-1.8.8-3.3 1.7-3.3.9 0 1.7 1.5 1.7 3.3 0 1.8-.8 3.2-1.7 3.2-.9 0-1.7-1.4-1.7-3.2z" fill="#fc9"/>
        <path d="M285.2 395.1c0-4.5-4.1-8.3-9.2-8.3s-9.2 3.8-9.2 8.3c0 4.6 1.8 8.4 9.2 8.4 7.4 0 9.2-3.8 9.2-8.4z" fill="#fc9"/>
        <path d="M268.5 392.1c-.1.7-.1 1.8 0 2.7.4 2.9 1.8 6.6 7.2 7.5.4 0 3.8 1.2.3 1.2-7.4 0-9.2-3.8-9.2-8.4 0-1.5.5-3 1.3-4.3.7-.9.5.5.4 1.3z" fill="#ff9"/>
        <path d="M282.5 401.8c1-1.6 1.1-3.7 1.1-5.7 0-4.6-2.9-8.5-8-8.5-1.2 0-2.4.1-4.3.4 1.4-.8 3-1.2 4.7-1.2 5.1 0 9.2 3.8 9.2 8.3 0 2.7-.6 5.1-2.7 6.7zM282.5 401.8z" fill="#f93"/>
        <path d="M285.2 395.1c0 1.9-.3 3.6-1.2 5 .5-1.3.7-2.8.7-4.4 0-3.5-1.9-6.5-4.8-8.1 3.2 1.4 5.3 4.2 5.3 7.5z" fill="#c60"/>
        <path d="M275.9 404.5l4.4-1.5s-2.6 1.1-4.3-1.6c-1.7 2.8-4.3 1.6-4.3 1.6z" fill="#930"/>
        <path d="M267.3 398.8c.6.1 1.2.4 1.7.9.9.7 1.4 1.7 1.4 2.7-1.6-.9-2.5-2.1-3.1-3.6z" fill="#fff"/>
        <path d="M285.6 398.8c-.3 0-.6-.1-.8-.4-.7 2.4-2.2 4.4-5.8 4.8-.9 0-2.1-.3-3-1.8-.9 1.5-2 1.8-2.9 1.8-3.5-.3-5.2-2.4-5.9-4.8-.2.3-.5.4-.8.4-.9 0-1.7-1.4-1.7-3.2 0-1.8.8-3.3 1.7-3.3.3 0 .5.2.8.4 1.1-3.4 4.6-5.9 8.8-5.9 4.2 0 7.7 2.5 8.8 5.9.3-.2.5-.4.8-.4.9 0 1.7 1.5 1.7 3.3 0 1.8-.8 3.2-1.7 3.2z" fill="none" stroke="#f93" stroke-width=".5" stroke-linejoin="round"/>
        <path d="M271.3 395.5c0-.7-.5-1.2-1.2-1.2-.6 0-1.2.5-1.2 1.2s.6 1.2 1.2 1.2c.7 0 1.2-.5 1.2-1.2zM280.7 395.5c0-.7.5-1.2 1.2-1.2.6 0 1.2.5 1.2 1.2s-.6 1.2-1.2 1.2c-.7 0-1.2-.5-1.2-1.2z"/>
        <path d="M272 391.2s.5-1 2-1c1.7.1 2 2.8 2 2.8s.2-2.7 1.9-2.8c1.5 0 2 1 2 1" fill="none" stroke="#c00" stroke-width=".996" stroke-linecap="round" stroke-linejoin="round"/>
        <path d="M270.5 391.9c.8.8 1.6 1.8 1.9 2.4.3.7.8 2.9-.8 3.2-.9.2-1.9-.5-2.8-1.4 0 1.4-1.2.4-1.8-.8-.2-.7-.5-1.6-.6-2.1-.1-.3-.2-.5-.3-.6-.7-1.1-2-3.3-2.1-5-.1-1.3 1.2-2.2 1.9-2.1.8.1 1.6.8 2.1 1.9.4 1 1.4 3.5 2.5 4.5z" fill="#930"/>
        <path d="M266.5 392.3c.1.1.2.3.3.5.1.6.4 1.5.7 2.1.4 1.2 1.3 1.5 1.3 1.6-.1.2-.2.3-.3.3-.4.1-1.1-.7-1.5-1.5-.2-.7-.5-1.6-.6-2.1-.1-.3-.2-.5-.3-.6-.7-1.1-2-3.3-2.1-5-.1-.9.4-1 .4-.3.1 1.7 1.4 3.9 2.1 5zM269.6 396.2c.6.5 1.3.9 1.9 1 .1 0 .4.2.1.3-.8.2-1.8-.4-2.8-1.4 0 0 .1-.1.3-.1.1 0 .4.1.5.2z" fill="#c60"/>
        <path d="M271.9 397.4c.5-.8.3-2.2 0-2.7-.3-.6-1.1-1.6-1.9-2.4-1.1-1-2.2-3.6-2.7-4.5-.6-1-1-1.3-1.8-1.4-.2 0-.6-.1-1-.3.5-.4 1-.7 1.4-.6.8.1 1.6.8 2.1 1.9.4 1 1.4 3.5 2.5 4.5.8.8 1.6 1.8 1.9 2.4.3.6.7 2.5-.5 3.1z" fill="#600"/>
        <path d="M281.5 391.9c-.8.8-1.6 1.8-1.9 2.4-.3.7-.8 2.9.8 3.2.9.2 1.9-.5 2.8-1.4 0 1.4 1.2.4 1.8-.8.2-.7.5-1.6.6-2.1.1-.3.2-.5.3-.6.7-1.1 2-3.3 2.1-5 .1-1.3-1.2-2.2-1.9-2.1-.8.1-1.6.8-2.1 1.9-.4 1-1.4 3.5-2.5 4.5z" fill="#930"/>
        <path d="M285.9 392.6c-.1.1-.2.3-.3.6-.1.5-.4 1.4-.6 2.1-.5 1-1.5 1.9-1.7 1.3.3-.3.6-.8.8-1.3.3-.6.6-1.5.6-2.1.2-.2.3-.4.4-.5.7-1.1 2-3.3 2.1-5.1.1-1-.8-1.8-1.6-2 .2-.1.3-.1.5-.1.7-.1 2 .8 1.9 2.1-.1 1.7-1.4 3.9-2.1 5zM282.4 396.2c-.6.5-1.3.9-1.9 1-.1 0-.4.2-.1.3.8.2 1.8-.4 2.8-1.4 0 0-.1-.1-.3-.1-.1 0-.4.1-.5.2z" fill="#600"/>
        <path d="M280.1 397.4c-.5-.8-.3-2.2 0-2.7.3-.6 1.1-1.6 1.9-2.4 1.1-1 2.1-3.5 2.5-4.5.2-.4.3-.7.4-1 .1-.3.2-.9-.3-.4-.2.2-.4.6-.6 1-.4 1-1.4 3.5-2.5 4.5-.8.8-1.6 1.8-1.9 2.4-.3.6-.8 2.5.5 3.1z" fill="#c60"/>
    </g>
</svg>
