<svg xmlns="http://www.w3.org/2000/svg" width="24" height="24">
	<g transform="translate(-264,-386)" id="KDDI_D_769">
		<g>
			<path style="stroke:none; fill:none" d="M 288 409.89L 264 409.89L 264 385.89L 288 385.89L 288 409.89z"/>
		</g>
		<g>
			<path style="stroke:none; fill:#39f" d="M 288 409.89L 264 409.89L 264 385.89L 288 385.89L 288 409.89z"/>
			<path style="stroke:none; fill:#600" d="M 282.451 402.34C 280.451 397.84 280 394.89 280 394.89L 278 396.89L 276 394.89L 274 396.89L 272 394.89C 272 394.89 271.451 397.84 269.451 402.34C 267.451 406.84 264 409.89 264 409.89L 275.951 409.89L 288 409.89C 288 409.89 284.451 406.84 282.451 402.34z"/>
			<path style="stroke:none; fill:#930" d="M 282.304 405.693C 282.304 405.693 278.5 401.34 278.5 398.34L 278.5 396.39L 278 396.89L 277.5 396.39L 277.5 397.34C 277.5 402.84 282.304 405.693 282.304 405.693z"/>
			<path style="stroke:none; fill:#930" d="M 271.951 402.34C 270.929 404.07 269.5 405.84 269.5 405.84C 269.5 405.84 271.8 404.139 273 402.34C 274 400.84 274 398.34 274 398.34C 274 398.34 273.07 400.445 271.951 402.34z"/>
			<path style="stroke:none; fill:#930" d="M 274.5 406.39C 274.5 406.39 273.049 409.89 270.5 409.89L 273.089 409.89C 274.494 408.583 274.5 406.39 274.5 406.39z"/>
			<path style="stroke:none; fill:#930" d="M 268.343 409.89C 268.956 409.026 269 407.89 269 407.89C 269 407.89 267.905 409.453 266.217 409.876C 266.206 409.879 266.198 409.886 266.188 409.89L 268.343 409.89z"/>
			<path style="stroke:none; fill:#930" d="M 280.707 409.89C 279.426 408.66 278 404.39 278 404.39C 278 404.39 278.003 408.129 279.182 409.89L 280.707 409.89z"/>
		</g>
		<g>
			<path style="stroke:none; fill:#39f" d="M 288 409.89L 264 409.89L 264 385.89L 288 385.89L 288 409.89z"/>
			<path style="stroke:#9cf; stroke-width:1; stroke-linecap:round; fill:none" d="M 277.5 390.39C 277.5 391.903 279.5 391.89 279.5 393.39C 279.5 395.39 277.5 394.987 277.5 396.39C 277.5 397.793 277.5 401.89 277.5 401.89"/>
			<path style="stroke:#fff; stroke-width:1; stroke-linecap:round; fill:none" d="M 279 392.299C 279.287 392.572 279.5 392.9 279.5 393.39C 279.5 394.043 279.287 394.439 279 394.726"/>
			<path style="stroke:#9cf; stroke-width:1; stroke-linecap:round; fill:none" d="M 273.5 390.39C 273.5 391.903 275.5 391.89 275.5 393.39C 275.5 395.39 273.5 394.987 273.5 396.39C 273.5 397.793 273.5 401.89 273.5 401.89"/>
			<path style="stroke:#fff; stroke-width:1; stroke-linecap:round; fill:none" d="M 275 392.299C 275.287 392.572 275.5 392.9 275.5 393.39C 275.5 394.043 275.287 394.439 275 394.726"/>
			<path style="stroke:none; fill:#600" d="M 283.5 401.39C 281.5 398.89 280.9 398.192 280.514 396.89C 280.135 395.613 280 394.89 280 394.89L 278 396.89L 276 394.89L 274 396.89L 272 394.89C 272 394.89 271.865 395.613 271.486 396.89C 271.1 398.192 270.5 398.89 268.5 401.39C 265.424 405.235 264 409.89 264 409.89L 288 409.89C 288 409.89 286.576 405.235 283.5 401.39z"/>
			<path style="stroke:none; fill:#930" d="M 282.304 405.693C 282.304 405.693 278.5 401.34 278.5 398.34L 278.5 396.39L 278 396.89L 277.5 396.39L 277.5 397.34C 277.5 402.84 282.304 405.693 282.304 405.693z"/>
			<path style="stroke:none; fill:#930" d="M 271.951 402.34C 270.929 404.07 269.5 405.84 269.5 405.84C 269.5 405.84 271.8 404.139 273 402.34C 274 400.84 274 398.34 274 398.34C 274 398.34 273.07 400.445 271.951 402.34z"/>
			<path style="stroke:none; fill:#930" d="M 274.5 406.39C 274.5 406.39 273.049 409.89 270.5 409.89L 273.089 409.89C 274.494 408.583 274.5 406.39 274.5 406.39z"/>
			<path style="stroke:none; fill:#930" d="M 268.343 409.89C 268.956 409.026 269 407.89 269 407.89C 269 407.89 267.905 409.453 266.217 409.876C 266.206 409.879 266.198 409.886 266.188 409.89L 268.343 409.89z"/>
			<path style="stroke:none; fill:#930" d="M 280.707 409.89C 279.426 408.66 278 404.39 278 404.39C 278 404.39 278.003 408.129 279.182 409.89L 280.707 409.89z"/>
		</g>
		<g>
			<path style="stroke:none; fill:#39f" d="M 288 409.89L 264 409.89L 264 385.89L 288 385.89L 288 409.89z"/>
			<path style="stroke:#9cf; stroke-width:1; stroke-linecap:round; fill:none" d="M 280 404.89C 280 404.89 280 400.793 280 399.39C 280 397.987 278 398.39 278 396.39C 278 394.89 280 394.403 280 392.89C 280 390.89 280 391.89 280 390.89C 280 389.39 282 389.39 282 387.39"/>
			<path style="stroke:#9cf; stroke-width:1; stroke-linecap:round; fill:none" d="M 274 401.89C 274 401.89 274 397.793 274 396.39C 274 394.987 272 395.39 272 393.39C 272 391.89 274 391.903 274 390.39C 274 388.89 272 388.89 272 387.39"/>
			<path style="stroke:#fff; stroke-width:1; stroke-linecap:round; fill:none" d="M 278.757 394.89C 279.324 394.303 280 393.77 280 392.89C 280 390.89 280 391.89 280 390.89"/>
			<path style="stroke:#fff; stroke-width:1; stroke-linecap:round; fill:none" d="M 272.049 393.89C 272.018 393.742 272 393.576 272 393.39C 272 392.076 273.533 391.923 273.915 390.89"/>
			<path style="stroke:none; fill:#600" d="M 286 407.773C 284.892 406.449 283.858 402.178 283 399.89C 281.5 395.89 280 394.89 280 394.89L 278 396.89L 276 394.89L 274 396.89L 272 394.89C 272 394.89 270.5 395.89 269 399.89C 268.142 402.178 267.108 406.449 266 407.773C 264.875 409.116 264 409.89 264 409.89L 288 409.89C 288 409.89 287.125 409.116 286 407.773z"/>
			<path style="stroke:none; fill:#930" d="M 282.304 405.693C 282.304 405.693 278.5 401.34 278.5 398.34L 278.5 396.39L 278 396.89L 277.5 396.39L 277.5 397.34C 277.5 402.84 282.304 405.693 282.304 405.693z"/>
			<path style="stroke:none; fill:#930" d="M 271.951 402.34C 270.929 404.07 269.5 405.84 269.5 405.84C 269.5 405.84 271.8 404.139 273 402.34C 274 400.84 274 398.34 274 398.34C 274 398.34 273.07 400.445 271.951 402.34z"/>
			<path style="stroke:none; fill:#930" d="M 274.5 406.39C 274.5 406.39 273.049 409.89 270.5 409.89L 273.089 409.89C 274.494 408.583 274.5 406.39 274.5 406.39z"/>
			<path style="stroke:none; fill:#930" d="M 268.343 409.89C 268.956 409.026 269 407.89 269 407.89C 269 407.89 267.905 409.453 266.217 409.876C 266.206 409.879 266.198 409.886 266.188 409.89L 268.343 409.89z"/>
			<path style="stroke:none; fill:#930" d="M 280.707 409.89C 279.426 408.66 278 404.39 278 404.39C 278 404.39 278.003 408.129 279.182 409.89L 280.707 409.89z"/>
		</g>
		<g>
			<path style="stroke:none; fill:#39f" d="M 288 409.89L 264 409.89L 264 385.89L 288 385.89L 288 409.89z"/>
			<path style="stroke:#9cf; stroke-width:1; stroke-linecap:round; fill:none" d="M 281 390.39C 281 392.39 281 393.89 280 393.89C 278 393.89 277.5 394.987 277.5 396.39C 277.5 397.793 277.5 401.89 277.5 401.89"/>
			<path style="stroke:#9cf; stroke-width:1; stroke-linecap:round; fill:none" d="M 275.25 388.14C 275.25 390.89 272 390.89 272 392.39C 272 394.39 274 393.987 274 395.39C 274 396.793 274 400.89 274 400.89"/>
			<path style="stroke:none; fill:#600" d="M 283.5 401.39C 281.5 398.89 280.9 398.192 280.514 396.89C 280.135 395.613 280 394.89 280 394.89L 278 396.89L 276 394.89L 274 396.89L 272 394.89C 272 394.89 271.865 395.613 271.486 396.89C 271.1 398.192 270.5 398.89 268.5 401.39C 265.424 405.235 264 409.89 264 409.89L 288 409.89C 288 409.89 286.576 405.235 283.5 401.39z"/>
			<path style="stroke:none; fill:#930" d="M 282.304 405.693C 282.304 405.693 278.5 401.34 278.5 398.34L 278.5 396.39L 278 396.89L 277.5 396.39L 277.5 397.34C 277.5 402.84 282.304 405.693 282.304 405.693z"/>
			<path style="stroke:none; fill:#930" d="M 271.951 402.34C 270.929 404.07 269.5 405.84 269.5 405.84C 269.5 405.84 271.8 404.139 273 402.34C 274 400.84 274 398.34 274 398.34C 274 398.34 273.07 400.445 271.951 402.34z"/>
			<path style="stroke:none; fill:#930" d="M 274.5 406.39C 274.5 406.39 273.049 409.89 270.5 409.89L 273.089 409.89C 274.494 408.583 274.5 406.39 274.5 406.39z"/>
			<path style="stroke:none; fill:#930" d="M 268.343 409.89C 268.956 409.026 269 407.89 269 407.89C 269 407.89 267.905 409.453 266.217 409.876C 266.206 409.879 266.198 409.886 266.188 409.89L 268.343 409.89z"/>
			<path style="stroke:none; fill:#930" d="M 280.707 409.89C 279.426 408.66 278 404.39 278 404.39C 278 404.39 278.003 408.129 279.182 409.89L 280.707 409.89z"/>
			<path style="stroke:none; fill:#600" d="M 267 399.639L 266.567 399.89L 266.134 399.639L 266.134 399.14L 266.566 398.89L 267 399.139L 267 399.639z"/>
			<path style="stroke:none; fill:#600" d="M 287 403.639L 286.567 403.89L 286.134 403.639L 286.134 403.14L 286.566 402.89L 287 403.139L 287 403.639z"/>
			<path style="stroke:#fff; stroke-width:1; stroke-linecap:round; fill:none" d="M 280.98 391.89C 280.926 393.094 280.728 393.89 280 393.89C 279.613 393.89 279.282 393.931 279 394.007"/>
			<path style="stroke:#fff; stroke-width:1; stroke-linecap:round; fill:none" d="M 272.683 393.889C 273.262 394.352 274 394.537 274 395.39"/>
			<path style="stroke:#fff; stroke-width:1; stroke-linecap:round; fill:none" d="M 274.108 390.39C 273.559 390.824 272.928 391.128 272.5 391.486"/>
		</g>
		<g>
			<path style="stroke:none; fill:#39f" d="M 288 409.89L 264 409.89L 264 385.89L 288 385.89L 288 409.89z"/>
			<path style="stroke:#fff; stroke-width:1; stroke-linecap:round; fill:none" d="M 281.5 389.39C 281.5 391.39 281.5 392.39 280.5 392.39C 278.5 392.39 278 393.487 278 394.89C 278 396.293 278 400.39 278 400.39"/>
			<path style="stroke:#fff; stroke-width:1; stroke-linecap:round; fill:none" d="M 274 393.39C 274 394.793 274 398.89 274 398.89"/>
			<path style="stroke:#fff; stroke-width:1; stroke-linecap:round; fill:none" d="M 272.5 387.39C 272.5 387.857 272.5 388.39 272.5 388.39"/>
			<path style="stroke:none; fill:#f30" d="M 272 396.89L 273.5 399.84C 273.5 403.89 269.647 407.743 269.647 407.743C 269.647 407.743 274.5 404.89 274.5 399.84L 276 396.89L 274 393.89L 272 396.89z"/>
			<path style="stroke:none; fill:#f30" d="M 276 397.39L 277.5 399.84C 277.5 403.39 281.9 406.69 281.9 406.69C 281.9 406.69 278.5 402.39 278.5 399.84L 280.5 397.39L 278 393.89L 276 397.39z"/>
			<path style="stroke:none; fill:#600" d="M 286 407.773C 284.892 406.449 283.858 402.178 283 399.89C 281.5 395.89 280 394.89 280 394.89L 278 396.89L 276 394.89L 274 396.89L 272 394.89C 272 394.89 270.5 395.89 269 399.89C 268.142 402.178 267.108 406.449 266 407.773C 264.875 409.116 264 409.89 264 409.89L 288 409.89C 288 409.89 287.125 409.116 286 407.773z"/>
			<path style="stroke:none; fill:#930" d="M 282.304 405.693C 282.304 405.693 278.5 401.34 278.5 398.34L 278.5 396.39L 278 396.89L 277.5 396.39L 277.5 397.34C 277.5 402.84 282.304 405.693 282.304 405.693z"/>
			<path style="stroke:none; fill:#930" d="M 271.951 402.34C 270.929 404.07 269.5 405.84 269.5 405.84C 269.5 405.84 271.8 404.139 273 402.34C 274 400.84 274 398.34 274 398.34C 274 398.34 273.07 400.445 271.951 402.34z"/>
			<path style="stroke:none; fill:#930" d="M 274.5 406.39C 274.5 406.39 273.049 409.89 270.5 409.89L 273.089 409.89C 274.494 408.583 274.5 406.39 274.5 406.39z"/>
			<path style="stroke:none; fill:#930" d="M 268.343 409.89C 268.956 409.026 269 407.89 269 407.89C 269 407.89 267.905 409.453 266.217 409.876C 266.206 409.879 266.198 409.886 266.188 409.89L 268.343 409.89z"/>
			<path style="stroke:none; fill:#930" d="M 280.707 409.89C 279.426 408.66 278 404.39 278 404.39C 278 404.39 278.003 408.129 279.182 409.89L 280.707 409.89z"/>
			<path style="stroke:none; fill:#f30" d="M 284.976 392.39C 284.976 392.652 284.763 392.865 284.5 392.865C 284.237 392.865 284.024 392.652 284.024 392.39C 284.024 392.127 284.237 391.915 284.5 391.915C 284.763 391.915 284.976 392.127 284.976 392.39z"/>
			<path style="stroke:none; fill:#f30" d="M 276 390.39C 276 390.652 275.787 390.865 275.524 390.865C 275.262 390.865 275.049 390.652 275.049 390.39C 275.049 390.127 275.262 389.915 275.524 389.915C 275.787 389.915 276 390.127 276 390.39z"/>
			<path style="stroke:none; fill:#f30" d="M 267.976 392.39C 267.976 392.652 267.763 392.865 267.5 392.865C 267.237 392.865 267.024 392.652 267.024 392.39C 267.024 392.127 267.237 391.915 267.5 391.915C 267.763 391.915 267.976 392.127 267.976 392.39z"/>
			<path style="stroke:none; fill:#f00" d="M 273 392.39C 273 392.652 272.787 392.865 272.524 392.865C 272.262 392.865 272.049 392.652 272.049 392.39C 272.049 392.127 272.262 391.915 272.524 391.915C 272.787 391.915 273 392.127 273 392.39z"/>
			<path style="stroke:none; fill:#f00" d="M 280.976 392.39C 280.976 392.652 280.763 392.865 280.5 392.865C 280.237 392.865 280.024 392.652 280.024 392.39C 280.024 392.127 280.237 391.915 280.5 391.915C 280.763 391.915 280.976 392.127 280.976 392.39z"/>
			<path style="stroke:none; fill:#600" d="M 265 404.639L 264.567 404.89L 264.134 404.639L 264.134 404.14L 264.566 403.89L 265 404.139L 265 404.639z"/>
			<path style="stroke:none; fill:#600" d="M 285 398.639L 284.567 398.89L 284.134 398.639L 284.134 398.14L 284.566 397.89L 285 398.139L 285 398.639z"/>
		</g>
		<g>
			<path style="stroke:none; fill:#39f" d="M 288 409.89L 264 409.89L 264 385.89L 288 385.89L 288 409.89z"/>
			<path style="stroke:none; fill:#f60" d="M 275 395.89L 275.5 399.89C 275.5 400.166 275.724 400.39 276 400.39C 276.276 400.39 276.5 400.166 276.5 399.89L 277 395.89L 276 393.89L 275 395.89z"/>
			<path style="stroke:none; fill:#f60" d="M 273 395.89L 273.5 398.34C 273.5 402.39 269.647 406.243 269.647 406.243C 269.647 406.243 274.5 403.39 274.5 398.34L 275 395.89C 275 395.613 274 392.89 274 392.89L 273 395.89z"/>
			<path style="stroke:none; fill:#f60" d="M 277 395.89L 277.5 398.34C 277.5 401.89 281.9 405.19 281.9 405.19C 281.9 405.19 278.5 400.89 278.5 398.34L 279 395.89L 278 392.89L 277 395.89z"/>
			<path style="stroke:#f60; stroke-width:1; stroke-linecap:round; fill:none" d="M 279.5 397.89C 279.5 397.89 279.5 393.793 279.5 392.39C 279.5 390.39 279.5 386.39 283.5 386.39C 287.5 386.39 287.5 391.39 287.5 392.39"/>
			<path style="stroke:#f00; stroke-width:1; stroke-linecap:round; fill:none" d="M 279.5 393.39C 279.5 392.994 279.5 392.647 279.5 392.39C 279.5 390.39 279.5 386.39 283.5 386.39C 287.5 386.39 287.5 391.39 287.5 392.39"/>
			<path style="stroke:#f60; stroke-width:1; stroke-linecap:round; fill:none" d="M 272.5 397.89C 272.5 397.89 272.5 393.793 272.5 392.39C 272.5 390.39 272.5 386.39 268.5 386.39C 264.5 386.39 264.5 391.39 264.5 392.39"/>
			<path style="stroke:none; fill:#f60" d="M 277.5 385.89C 276.825 385.89 276.33 386.329 276 386.919C 275.67 386.329 275.175 385.89 274.5 385.89C 274.224 385.89 274 386.113 274 386.39C 274 386.666 274.224 386.89 274.5 386.89C 275.054 386.89 275.333 387.89 275.5 388.89C 275.667 389.89 276 391.89 276 391.89C 276 391.89 276.353 389.89 276.5 388.89C 276.647 387.89 276.946 386.89 277.5 386.89C 277.776 386.89 278 386.666 278 386.39C 278 386.113 277.776 385.89 277.5 385.89z"/>
			<path style="stroke:none; fill:#600" d="M 282.451 402.34C 280.451 397.84 280 394.89 280 394.89L 278 396.89L 276 394.89L 274 396.89L 272 394.89C 272 394.89 271.451 397.84 269.451 402.34C 267.451 406.84 264 409.89 264 409.89L 275.951 409.89L 288 409.89C 288 409.89 284.451 406.84 282.451 402.34z"/>
			<path style="stroke:none; fill:#930" d="M 274.5 406.39C 274.5 406.39 273.049 409.89 270.5 409.89L 273.089 409.89C 274.494 408.583 274.5 406.39 274.5 406.39z"/>
			<path style="stroke:none; fill:#930" d="M 268.343 409.89C 268.956 409.026 269 407.89 269 407.89C 269 407.89 267.905 409.453 266.217 409.876C 266.206 409.879 266.198 409.886 266.188 409.89L 268.343 409.89z"/>
			<path style="stroke:none; fill:#930" d="M 280.707 409.89C 279.426 408.66 278 404.39 278 404.39C 278 404.39 278.003 408.129 279.182 409.89L 280.707 409.89z"/>
			<path style="stroke:none; fill:#f60" d="M 285 390.89C 285 391.152 284.787 391.365 284.524 391.365C 284.262 391.365 284.049 391.152 284.049 390.89C 284.049 390.627 284.262 390.415 284.524 390.415C 284.787 390.415 285 390.627 285 390.89z"/>
			<path style="stroke:none; fill:#f60" d="M 287.976 403.39C 287.976 403.652 287.763 403.865 287.5 403.865C 287.237 403.865 287.024 403.652 287.024 403.39C 287.024 403.127 287.237 402.915 287.5 402.915C 287.763 402.915 287.976 403.127 287.976 403.39z"/>
			<path style="stroke:none; fill:#f60" d="M 283.476 406.39C 283.476 406.652 283.263 406.865 283 406.865C 282.737 406.865 282.524 406.652 282.524 406.39C 282.524 406.127 282.737 405.915 283 405.915C 283.263 405.915 283.476 406.127 283.476 406.39z"/>
			<path style="stroke:none; fill:#f60" d="M 271.976 407.39C 271.976 407.652 271.763 407.865 271.5 407.865C 271.237 407.865 271.024 407.652 271.024 407.39C 271.024 407.127 271.237 406.915 271.5 406.915C 271.763 406.915 271.976 407.127 271.976 407.39z"/>
			<path style="stroke:none; fill:#f60" d="M 282.476 396.89C 282.476 397.152 282.263 397.365 282 397.365C 281.737 397.365 281.524 397.152 281.524 396.89C 281.524 396.627 281.737 396.415 282 396.415C 282.263 396.415 282.476 396.627 282.476 396.89z"/>
			<path style="stroke:none; fill:#f30" d="M 284.976 404.415C 284.976 404.677 284.763 404.89 284.5 404.89C 284.237 404.89 284.024 404.677 284.024 404.415C 284.024 404.152 284.237 403.94 284.5 403.94C 284.763 403.94 284.976 404.152 284.976 404.415z"/>
			<path style="stroke:none; fill:#f30" d="M 280.476 399.39C 280.476 399.652 280.263 399.865 280 399.865C 279.737 399.865 279.524 399.652 279.524 399.39C 279.524 399.127 279.737 398.915 280 398.915C 280.263 398.915 280.476 399.127 280.476 399.39z"/>
			<path style="stroke:none; fill:#f30" d="M 276.476 397.39C 276.476 397.652 276.263 397.865 276 397.865C 275.737 397.865 275.524 397.652 275.524 397.39C 275.524 397.127 275.737 396.915 276 396.915C 276.263 396.915 276.476 397.127 276.476 397.39z"/>
			<path style="stroke:none; fill:#f30" d="M 287.976 398.39C 287.976 398.652 287.763 398.865 287.5 398.865C 287.237 398.865 287.024 398.652 287.024 398.39C 287.024 398.127 287.237 397.915 287.5 397.915C 287.763 397.915 287.976 398.127 287.976 398.39z"/>
			<path style="stroke:none; fill:#f30" d="M 284.976 399.39C 284.976 399.652 284.763 399.865 284.5 399.865C 284.237 399.865 284.024 399.652 284.024 399.39C 284.024 399.127 284.237 398.915 284.5 398.915C 284.763 398.915 284.976 399.127 284.976 399.39z"/>
			<path style="stroke:none; fill:#f30" d="M 286.976 394.89C 286.976 395.152 286.763 395.365 286.5 395.365C 286.237 395.365 286.024 395.152 286.024 394.89C 286.024 394.627 286.237 394.415 286.5 394.415C 286.763 394.415 286.976 394.627 286.976 394.89z"/>
			<path style="stroke:none; fill:#f30" d="M 282.476 389.89C 282.476 390.152 282.263 390.365 282 390.365C 281.737 390.365 281.524 390.152 281.524 389.89C 281.524 389.627 281.737 389.415 282 389.415C 282.263 389.415 282.476 389.627 282.476 389.89z"/>
			<path style="stroke:none; fill:#f30" d="M 276.976 404.39C 276.976 404.652 276.763 404.865 276.5 404.865C 276.237 404.865 276.024 404.652 276.024 404.39C 276.024 404.127 276.237 403.915 276.5 403.915C 276.763 403.915 276.976 404.127 276.976 404.39z"/>
			<path style="stroke:none; fill:#f60" d="M 274.476 389.39C 274.476 389.652 274.263 389.865 274 389.865C 273.737 389.865 273.524 389.652 273.524 389.39C 273.524 389.127 273.737 388.915 274 388.915C 274.263 388.915 274.476 389.127 274.476 389.39z"/>
			<path style="stroke:none; fill:#f60" d="M 278.476 388.89C 278.476 389.152 278.263 389.365 278 389.365C 277.737 389.365 277.524 389.152 277.524 388.89C 277.524 388.627 277.737 388.415 278 388.415C 278.263 388.415 278.476 388.627 278.476 388.89z"/>
			<path style="stroke:none; fill:#f30" d="M 264.976 406.365C 264.976 406.628 264.763 406.84 264.5 406.84C 264.237 406.84 264.024 406.628 264.024 406.365C 264.024 406.102 264.237 405.89 264.5 405.89C 264.763 405.89 264.976 406.102 264.976 406.365z"/>
			<path style="stroke:none; fill:#f30" d="M 269.976 398.39C 269.976 398.652 269.763 398.865 269.5 398.865C 269.237 398.865 269.024 398.652 269.024 398.39C 269.024 398.127 269.237 397.915 269.5 397.915C 269.763 397.915 269.976 398.127 269.976 398.39z"/>
			<path style="stroke:none; fill:#f30" d="M 266.976 397.89C 266.976 398.152 266.763 398.365 266.5 398.365C 266.237 398.365 266.024 398.152 266.024 397.89C 266.024 397.627 266.237 397.415 266.5 397.415C 266.763 397.415 266.976 397.627 266.976 397.89z"/>
			<path style="stroke:none; fill:#f30" d="M 274.976 386.39C 274.976 386.652 274.763 386.865 274.5 386.865C 274.237 386.865 274.024 386.652 274.024 386.39C 274.024 386.127 274.237 385.915 274.5 385.915C 274.763 385.915 274.976 386.127 274.976 386.39z"/>
			<path style="stroke:none; fill:#f30" d="M 277.976 386.39C 277.976 386.652 277.763 386.865 277.5 386.865C 277.237 386.865 277.024 386.652 277.024 386.39C 277.024 386.127 277.237 385.915 277.5 385.915C 277.763 385.915 277.976 386.127 277.976 386.39z"/>
			<path style="stroke:none; fill:#f60" d="M 275.976 402.39C 275.976 402.652 275.763 402.865 275.5 402.865C 275.237 402.865 275.024 402.652 275.024 402.39C 275.024 402.127 275.237 401.915 275.5 401.915C 275.763 401.915 275.976 402.127 275.976 402.39z"/>
			<path style="stroke:none; fill:#f60" d="M 267.976 402.39C 267.976 402.652 267.763 402.865 267.5 402.865C 267.237 402.865 267.024 402.652 267.024 402.39C 267.024 402.127 267.237 401.915 267.5 401.915C 267.763 401.915 267.976 402.127 267.976 402.39z"/>
			<path style="stroke:none; fill:#f60" d="M 271.976 400.89C 271.976 401.152 271.763 401.365 271.5 401.365C 271.237 401.365 271.024 401.152 271.024 400.89C 271.024 400.627 271.237 400.415 271.5 400.415C 271.763 400.415 271.976 400.627 271.976 400.89z"/>
			<path style="stroke:none; fill:#f60" d="M 265.976 400.39C 265.976 400.652 265.763 400.865 265.5 400.865C 265.237 400.865 265.024 400.652 265.024 400.39C 265.024 400.127 265.237 399.915 265.5 399.915C 265.763 399.915 265.976 400.127 265.976 400.39z"/>
			<path style="stroke:none; fill:#f60" d="M 264.976 395.39C 264.976 395.652 264.763 395.865 264.5 395.865C 264.237 395.865 264.024 395.652 264.024 395.39C 264.024 395.127 264.237 394.915 264.5 394.915C 264.763 394.915 264.976 395.127 264.976 395.39z"/>
			<path style="stroke:none; fill:#f60" d="M 270.976 390.39C 270.976 390.652 270.763 390.865 270.5 390.865C 270.237 390.865 270.024 390.652 270.024 390.39C 270.024 390.127 270.237 389.915 270.5 389.915C 270.763 389.915 270.976 390.127 270.976 390.39z"/>
			<path style="stroke:none; fill:#f30" d="M 267.976 391.39C 267.976 391.652 267.763 391.865 267.5 391.865C 267.237 391.865 267.024 391.652 267.024 391.39C 267.024 391.127 267.237 390.915 267.5 390.915C 267.763 390.915 267.976 391.127 267.976 391.39z"/>
			<path style="stroke:none; fill:#f00" d="M 269 388.39C 269 388.652 268.787 388.865 268.524 388.865C 268.262 388.865 268.049 388.652 268.049 388.39C 268.049 388.127 268.262 387.915 268.524 387.915C 268.787 387.915 269 388.127 269 388.39z"/>
			<path style="stroke:#f00; stroke-width:1; stroke-linecap:round; fill:none" d="M 272.5 393.39C 272.5 392.994 272.5 392.647 272.5 392.39C 272.5 390.39 272.5 386.39 268.5 386.39C 264.5 386.39 264.5 391.39 264.5 392.39"/>
			<path style="stroke:none; fill:#f60" d="M 273.5 394.89L 273.5 398.34C 273.5 402.39 269.647 406.243 269.647 406.243C 269.647 406.243 274.5 403.39 274.5 398.34L 274.5 394.89C 274.5 394.613 274 392.89 274 392.89L 273.5 394.89z"/>
			<path style="stroke:none; fill:#f30" d="M 272.64 401.89C 271.504 404.382 269.647 406.243 269.647 406.243C 269.647 406.243 272.254 404.702 273.646 401.89L 272.64 401.89z"/>
			<path style="stroke:none; fill:#f60" d="M 277.5 394.89L 277.5 398.34C 277.5 401.89 281.9 405.19 281.9 405.19C 281.9 405.19 278.5 400.89 278.5 398.34L 278.5 394.89L 278 392.89L 277.5 394.89z"/>
			<path style="stroke:none; fill:#f30" d="M 281.9 405.19C 281.9 405.19 280.209 403.047 279.213 400.89L 278.179 400.89C 279.414 403.324 281.9 405.19 281.9 405.19z"/>
			<path style="stroke:#f00; stroke-width:1; stroke-linecap:round; fill:none" d="M 278 395.39L 278 397.89"/>
			<path style="stroke:#f00; stroke-width:1; stroke-linecap:round; fill:none" d="M 274 395.39L 274 397.89"/>
			<path style="stroke:#f60; stroke-width:1; stroke-linecap:round; fill:none" d="M 270.5 394.39C 270.5 393.39 270 392.89 269 392.89C 268 392.89 267.5 393.89 267.5 395.39"/>
			<path style="stroke:#f60; stroke-width:1; stroke-linecap:round; fill:none" d="M 281.5 394.39C 281.5 393.39 282 392.89 283 392.89C 284 392.89 284.5 393.89 284.5 395.39"/>
			<path style="stroke:none; fill:#f30" d="M 267.976 395.39C 267.976 395.652 267.763 395.865 267.5 395.865C 267.237 395.865 267.024 395.652 267.024 395.39C 267.024 395.127 267.237 394.915 267.5 394.915C 267.763 394.915 267.976 395.127 267.976 395.39z"/>
			<path style="stroke:none; fill:#f30" d="M 284.976 395.39C 284.976 395.652 284.763 395.865 284.5 395.865C 284.237 395.865 284.024 395.652 284.024 395.39C 284.024 395.127 284.237 394.915 284.5 394.915C 284.763 394.915 284.976 395.127 284.976 395.39z"/>
			<path style="stroke:#f60; stroke-width:1; stroke-linecap:round; fill:none" d="M 275 392.835L 275 391.335"/>
			<path style="stroke:#f60; stroke-width:1; stroke-linecap:round; fill:none" d="M 277 392.835L 277 391.335"/>
			<path style="stroke:#f00; stroke-width:1; stroke-linecap:round; fill:none" d="M 275 391.89L 275 391.335"/>
			<path style="stroke:#f00; stroke-width:1; stroke-linecap:round; fill:none" d="M 277 391.89L 277 391.335"/>
		</g>
	</g>
</svg>
