<svg xmlns="http://www.w3.org/2000/svg" height="24" width="24">
    <g transform="matrix(1,0,0,-1,-264,408)" id="KDDI_D_">        <path d="M276 405.4c-.7.9-2.4 2.6-5.2 2.6-4.1 0-6.8-3.1-6.8-8 0-4.1 2.9-7.1 4.4-8.7l.2-.3c1.3-1.4 2.3-2.4 7.1-6.7l.3-.3.4.3c4.7 4.3 5.7 5.3 7 6.7l.3.3c1.5 1.6 4.4 4.6 4.4 8.7 0 4.9-2.7 8-6.9 8-2.8 0-4.4-1.7-5.2-2.6z" fill="#f6c"/>
        <path d="M273.8 391.6c-2 .9-3.8 2.4-4.5 3.1-1.1 1-3.3 3.3-3.3 6.3 0 1.9.9 3.8 3.6 3.8 1.4 0 2.7-1.1 3.2-1.8 0 0-2.2-.1-2.2-3 0-1.9-.1-3.6 3.2-8.4z" fill="#f9f"/>
        <path d="M266.5 401c0-2.7 1.9-4.9 3.1-5.9.5-.5 1.4-1.3 2.7-2.1-2.2 3.5-2.2 5.1-2.2 6.7v.3c0 1.9.9 2.8 1.8 3.2-.6.6-1.4 1.1-2.3 1.1-2.8 0-3.1-2.3-3.1-3.3z" fill="#fcf"/>
        <path d="M267.5 401c0-1.8 1-3.3 2-4.4-.4 1.2-.4 2.2-.4 3.2v.2c0 1.4.4 2.4 1.1 3.2-.2 0-.4.1-.6.1-.5 0-2.1 0-2.1-2.3z" fill="#fff"/>
        <path d="M281.2 408c-.7 0-1.4-.1-2-.3-.4-.2-.7-.3-1-.5h-.1c-.7-.4-1.1-.8-1.5-1.2-.1 0-.1-.1-.1-.1l-.5-.5c-.5.7-1.6 1.7-3.2 2.3 1.7-.8 2.9-2.6 3.2-4.7.2 1.2.6 2.2 1.4 3.1.8.9 2.2 1.2 3.6 1.2 3 0 4.7-3.8 4.1-7.3-.6-3.2-1.8-4.6-3.1-6 0 0-.8-.9-.8-1-1-1.1-1.9-2-5.2-4.9-2.1.7-5.5 2.8-7.8 4.9-1.6 1.5-4.2 4.1-4.2 7 0-4.1 2.9-7.1 4.4-8.7l.2-.3c1.3-1.4 2.3-2.4 7.1-6.7l.3-.3.4.3c4.7 4.3 5.7 5.3 7 6.7l.3.3c1.5 1.6 4.4 4.6 4.4 8.7 0 4.9-2.7 8-6.9 8z" fill="#f3c"/>
        <path d="M283.4 391l.3.3c1.5 1.6 4.4 4.6 4.4 8.7 0 4.7-2.5 7.7-6.3 8 3.2-.4 5.5-3.3 5.3-8-.2-2.9-2.6-5.7-4-7.2l-.4-.5c-1.2-1.3-2.3-2.3-6.7-6.3v-2l.4.3c4.7 4.3 5.7 5.3 7 6.7z" fill="#f09"/>
        <path d="M283.4 391l.3.3c1.5 1.6 4.4 4.6 4.4 8.7 0 .3-.1.6-.1.8-.3-4.6-3.8-8.1-5.3-9.6l-.4-.5c-1.2-1.3-1.9-1.9-6.3-5.9v-.8l.4.3c4.7 4.3 5.7 5.3 7 6.7z" fill="#c06"/>
        <path d="M276.2 405.5l10.4-10.5c.3.5.5 1 .8 1.5l-10.1 10.1c-.5-.3-.9-.7-1.1-1.1z" fill="#600"/>
        <path d="M276.4 405.8l10.4-10.5.6 1.2-10.1 10.1c-.4-.2-.7-.5-.9-.8z" fill="red"/>
        <path d="M284.8 399c-.1-.5-.2-.9-.4-1.3l2.4-2.4.6 1.2zM277.3 406.6c-.3-.2-.5-.4-.7-.6-.1 0-.1-.1-.1-.1-.1 0-.1-.1-.1-.1l.4-.4c.2.2.4.5.6.7 0 .1.1.2.2.2z" fill="#c00"/>
        <path d="M286.4 397.5l-.6-1.2 1-1 .6 1.2z" fill="#900"/>
        <path d="M281.5 402.2l6.5 1.9V401l-6.1.6z" fill="#c00"/>
        <path d="M279.2 408h2.5l.3-6.1-.8.7z" fill="#c00"/>
        <path d="M280.7 408h-1.5l1.8-5.4.3-.2z" fill="red"/>
        <path d="M282 401.6l6-.6v.8l-6 .1z" fill="#600"/>
        <path d="M288 404.1l-6.5-1.6.1-.3 6.4.7z" fill="red"/>
        <path d="M282.7 402.3c.5-.5.5-1.2.1-1.7l-.4-.4c-.5-.4-1.3-.4-1.7.1l-.9.9c-.5.5-.5 1.2 0 1.7l.4.4c.4.4 1.2.4 1.7-.1z" fill="#600"/>
        <path d="M282.9 402.6c.5-.5.5-1.2.1-1.6l-.4-.4c-.5-.5-1.2-.5-1.7 0l-.8.8c-.4.4-.5 1.2 0 1.6l.4.4c.4.5 1.1.5 1.6 0z" fill="red"/>
        <path d="M280.7 402.1c0-.1.1-.2.2-.3l.3-.2 1.3 1.5-.4.3c-.1.1-.2.1-.3.2z" fill="#f66"/>
        <path d="M282 401.3c.1-.1.1-.3 0-.5-.1-.1-.4-.1-.5 0l-1.1 1.1c-.1.1-.1.4 0 .5.1.1.4.1.5 0z" fill="#600"/>
    </g>
</svg>
