<svg xmlns="http://www.w3.org/2000/svg" width="24" height="24">
	<g transform="translate(-264,-386)" id="KDDI_D_772">
		<g>
			<path style="stroke:none; fill:none" d="M 288 409.89L 264 409.89L 264 385.89L 288 385.89L 288 409.89z"/>
		</g>
		<g>
			<path style="stroke:none; fill:#06c" d="M 288 404.39C 288 407.427 282.627 409.89 276 409.89C 269.373 409.89 264 407.427 264 404.39C 264 401.352 269.373 398.89 276 398.89C 282.627 398.89 288 401.352 288 404.39z"/>
			<path style="stroke:none; fill:#39c" d="M 269 399.929C 265.976 400.927 264 402.551 264 404.39C 264 406.229 265.976 407.852 269 408.851L 269 399.929z"/>
			<path style="stroke:none; fill:#6cf" d="M 265 404.39C 265 406.518 269.518 408.89 276 408.89C 282.482 408.89 287 406.518 287 404.39C 287 402.261 282.482 399.89 276 399.89C 269.518 399.89 265 402.261 265 404.39z"/>
			<path style="stroke:none; fill:#39c" d="M 283.537 401.182L 281 406.89L 282.179 408.068C 285.171 407.191 287 405.742 287 404.39C 287 403.257 285.711 402.059 283.537 401.182z"/>
			<path style="stroke:none; fill:#cff" d="M 268.194 407.488C 268.514 407.626 268.859 407.754 269.221 407.876L 270.707 406.39L 270 405.683L 268.194 407.488z"/>
			<path style="stroke:none; fill:#c93" d="M 283 389.89L 276 387.39L 269 389.89L 266.5 402.89C 266.5 402.89 266.5 406.89 276 406.89C 285.5 406.89 285.5 402.89 285.5 402.89L 283 389.89z"/>
			<path style="stroke:none; fill:#fc6" d="M 279 388.24L 276 387.39L 269 389.89L 266.5 402.89C 266.5 402.89 266.5 406.89 276 406.89C 278.106 406.89 279.724 406.687 281 406.38L 279 388.24z"/>
			<path style="stroke:#ff9; stroke-width:2; fill:none" d="M 273.5 390.39L 271 406.39"/>
			<path style="stroke:#ffc; stroke-width:1; fill:none" d="M 272.5 389.89L 270 405.89"/>
			<path style="stroke:#c93; stroke-width:1; fill:none" d="M 283 389.89L 276 387.39L 269 389.89L 266.5 402.89C 266.5 402.89 266.5 406.89 276 406.89C 285.5 406.89 285.5 402.89 285.5 402.89L 283 389.89z"/>
			<path style="stroke:#960; stroke-width:1; fill:none" d="M 281.008 406.39C 285.5 405.317 285.5 402.89 285.5 402.89L 283 389.89L 281 388.24"/>
			<path style="stroke:none; fill:#630" d="M 283.5 389.89C 283.5 391.546 280.142 392.89 276 392.89C 271.858 392.89 268.5 391.546 268.5 389.89C 268.5 388.233 271.858 386.89 276 386.89C 280.142 386.89 283.5 388.233 283.5 389.89z"/>
			<path style="stroke:none; fill:#c96" d="M 273.551 389.269C 274.257 390.049 274.544 390.999 274.19 391.39C 273.837 391.78 272.977 391.463 272.272 390.683C 271.565 389.901 271.278 388.952 271.631 388.561C 271.984 388.171 272.844 388.487 273.551 389.269z"/>
		</g>
	</g>
</svg>
