<svg xmlns="http://www.w3.org/2000/svg" height="24" width="24">
    <g transform="matrix(1,0,0,-1,-264,408)" id="KDDI_D_">        <path d="M285.3 385.8c-2-2.5-6.7-2-10.1.9-3.5 2.8-4.7 7.2-2.6 9.7 2 2.4 6.5 2.1 10-.8 3.5-2.8 4.8-7.3 2.7-9.8z" fill="#fc0"/>
        <path d="M281.2 394.8c2.2-1.9 4.8-5.6 4.8-7.8 1 2.5-.7 5.9-3.4 8.6-3.6 3.6-8 3.2-10 .8-.7-.9-1-2-1-3.1.1.4.4.8.7 1.1 2 2.5 5.4 3.3 8.9.4z" fill="#ff0"/>
        <path d="M275.7 390.6c-2.3 1.9-2.7 3.5-3.2 5.7-1.9-2.5-.8-6.8 2.7-9.6 3.4-2.9 8.1-3.4 10.1-.9.3.3.5.7.7 1-2.5-.6-7.3 1.3-10.3 3.8z" fill="#f90"/>
        <path d="M275 388.8c-2.9 2.4-3.1 5-2.5 7.4-1.9-2.4-1-7.1 2.7-9.5 3.5-2.4 8.1-3.4 10.1-.9.1.1.2.2.3.4-2.3-1.5-7.5 0-10.6 2.6z" fill="#c60"/>
        <path d="M276.2 397.7c0-3.2-2.6-5.7-5.8-5.7-3.3 0-5.9 2.5-5.9 5.7 0 3.1 2.6 5.7 5.9 5.7 3.2 0 5.8-2.6 5.8-5.7z" fill="#fc0"/>
        <path d="M271 402c2.1 0 3.9-1 4.9-2.5-.7 2.2-2.9 3.9-5.5 3.9-3.3 0-5.9-2.6-5.9-5.7 0-1.2.4-2.3 1-3.2-.2.6-.3 1.2-.3 1.8 0 3.2 2.6 5.7 5.8 5.7z" fill="#ff0"/>
        <path d="M275.1 401c.1-.3.1-.7.1-1.1 0-3.2-2.6-5.7-5.9-5.7-1.9 0-3.6.9-4.7 2.3.6-2.6 2.9-4.5 5.8-4.5 3.2 0 5.8 2.5 5.8 5.7 0 1.2-.4 2.4-1.1 3.3z" fill="#f90"/>
        <path d="M275.4 400.7c.2-.7.3-1.3.3-2 0-3.1-2.6-5.7-5.8-5.7-2.2 0-4 1.1-5 2.7.8-2.2 2.9-3.7 5.5-3.7 3.2 0 5.8 2.5 5.8 5.7 0 1.1-.3 2.1-.8 3z" fill="#c60"/>
        <path d="M269.2 400.7c0-.6-.5-1.2-1.2-1.2-.6 0-1.1.6-1.1 1.2s.5 1.1 1.1 1.1c.7 0 1.2-.5 1.2-1.1z" fill="#ff9"/>
        <path d="M279.3 398.2l-3.2.3v5.3c0 1.4 1 3.6 3.9 3.6 2.1 0 5.2-2 5.2-4.1 0-2.2 0-5.1-.9-6-.8-1-2.1-1.2-2.1-1.2z" fill="#fff"/>
        <path d="M281.4 407.2c1.8-.6 3.8-2.2 3.8-3.9 0-2.2 0-5.1-.9-6-.8-1-2.1-1.2-2.1-1.2" fill="none" stroke="#333"/>
        <path d="M276.1 399.4v4.4c0 1.4 1 3.6 3.9 3.6.4 0 .9-.1 1.4-.2" fill="none" stroke="#666" stroke-linecap="round"/>
        <path d="M279.3 398v4.1c0 1.3.6 2.9 2.8 2.9 2.2 0 5.3-1.5 5.3-3.7 0-2.3 0-5-.9-5.9-.9-1-2.5-1.6-2.5-1.6" fill="#fff"/>
        <path d="M282.1 405h-.4c2-.4 4.1-1.8 4.1-3.6 0-2.3 0-5-.9-5.9-.4-.5-1-.9-1.5-1.2l.6-.5s1.6.6 2.5 1.6c.9.9.9 3.6.9 5.9 0 2.2-3.1 3.7-5.3 3.7z" fill="#ccc"/>
        <path d="M285.5 404c1.1-.6 1.9-1.6 1.9-2.7 0-2.3 0-5-.9-5.9-.9-1-2.3-1.5-2.3-1.5" fill="none" stroke="#333"/>
        <path d="M279.3 398.2v3.9c0 1.3.6 2.9 2.8 2.9 1.1 0 2.4-.4 3.4-1" fill="none" stroke="#666" stroke-linecap="round"/>
        <path d="M268.1 403.3v2.8c0 .9-.3 1.2-.9 1.2h-1.8M272.7 403.3v2.8c0 .9.3 1.2.9 1.2h1.8" fill="none" stroke="#000" stroke-width="1.4" stroke-linecap="round"/>
        <path d="M271.9 390.5c.3-1 1-1.8 2.3-2.8 3.4-2.9 8.5-4.5 11.1-1.9.3.3.5.6.7 1" fill="none" stroke="#000"/>
        <path d="M265 395.5c-.3.6-.5 1.4-.5 2.2 0 3.1 2.6 5.7 5.9 5.7 2.3 0 4.3-1.4 5.3-3.3" fill="none" stroke="#333" stroke-linecap="round"/>
        <path d="M269.3 397.3c0-.5-.4-.9-.9-.9-.4 0-.8.4-.8.9v2.1c0 .4.4.8.8.8.5 0 .9-.4.9-.8zM273.2 397.3c0-.5-.4-.9-.9-.9-.4 0-.8.4-.8.9v2.1c0 .4.4.8.8.8.5 0 .9-.4.9-.8z"/>
        <path d="M273.4 388.2s2.9 1.9 4.6 3.6c1.7 1.8 3.1 4.9 3.1 4.9M276.9 386s2.3 1 4.2 3c1.8 1.9 2.9 5.2 2.9 5.2" fill="none" stroke="#000" stroke-width="1.4"/>
        <path d="M271.3 391.9L268 388l-3.3-1.2M272.5 389l-2.1-2.9-3.1-1.6" fill="none" stroke="#000" stroke-width="1.2" stroke-linecap="round"/>
        <path d="M271.6 392c.1-.6.1-1 .3-1.5M286 386.8c1.3 2.8-1.3 7.3-4.4 9.8-2 1.7-3.3 1.9-5.3 1.4h-.1" fill="none" stroke="#333" stroke-linecap="round"/>
        <path d="M275.7 400.1c.3-.7.5-1.6.5-2.4 0-3.2-2.6-5.7-5.8-5.7-2.5 0-4.5 1.4-5.4 3.5" fill="none" stroke="#000" stroke-linecap="round"/>
    </g>
</svg>
