<svg xmlns="http://www.w3.org/2000/svg" height="24" width="24">
    <g transform="matrix(1,0,0,-1,-264,408)" id="KDDI_D_">        <path d="M267.4 395.8l-2.6.8-.2 1.7M269 390.4l-1.5-.9-.5-1.8M273.5 387.9l.3-2.6 1.4-.8M284.6 396.2l2.6-.8.2-1.7M283 401.6l1.5.9.5 1.8M278.5 404.1l-.3 2.6-1.4.8" fill="none" stroke="#000" stroke-width="1.2" stroke-linecap="round" stroke-linejoin="round"/>
        <path d="M283 402.6c3.9-3.9 4-10.1.3-13.8-3.8-3.8-10-3.7-13.9.2-4 3.9-4.1 10.2-.3 13.9 3.7 3.8 10 3.7 13.9-.3z" fill="red"/>
        <path d="M283 402.6c.6-3.3-.4-7.1-3.1-9.8-3.2-3.2-7.7-4.1-11.4-2.7.2-.4.5-.7.9-1.1 3.9-3.9 10.1-4 13.9-.2 3.7 3.7 3.6 9.9-.3 13.8z" fill="#c00"/>
        <path d="M284.9 399.9c.6-3.3-.4-6.9-3-9.5-3-3-7.1-3.9-10.6-2.9 3.8-2.3 8.8-1.9 12 1.3 2.9 2.9 3.5 7.4 1.6 11.1z" fill="#900"/>
        <path d="M278.3 398.3c0-2.5-2.1-4.5-4.6-4.5-2.5 0-4.5 2-4.5 4.5s2 4.6 4.5 4.6 4.6-2.1 4.6-4.6z" fill="#f33"/>
        <path d="M277 398.3c0-1.8-1.5-3.3-3.3-3.3-1.8 0-3.3 1.5-3.3 3.3 0 1.8 1.5 3.3 3.3 3.3 1.8 0 3.3-1.5 3.3-3.3z" fill="#f66"/>
        <path d="M274.2 399.3c0-.8-.6-1.4-1.3-1.4-.8 0-1.4.6-1.4 1.4 0 .7.6 1.3 1.4 1.3.7 0 1.3-.6 1.3-1.3z" fill="#f99"/>
        <path d="M278.2 397.5c1.1-1 1.1-2.7 0-3.7-1-1.1-2.7-1.1-3.7 0-1.1 1-1.1 2.7 0 3.7 1 1.1 2.7 1.1 3.7 0zM278.7 404.1c.8-.8.8-2.2 0-3.1-.9-.8-2.3-.8-3.1 0-.9.9-.9 2.3 0 3.1.8.9 2.2.9 3.1 0zM267.9 393.3c.8-.8 2.2-.8 3.1 0 .8.9.8 2.3 0 3.1-.9.9-2.3.9-3.1 0-.9-.8-.9-2.2 0-3.1zM274.2 387.5c.8-.8 2.2-.8 3.1 0 .8.9.8 2.3 0 3.1-.9.9-2.2.9-3.1 0-.9-.8-.9-2.2 0-3.1zM284.5 397.8c.8-.8.8-2.2 0-3.1-.9-.8-2.3-.8-3.1 0-.9.9-.9 2.2 0 3.1.8.9 2.2.9 3.1 0z"/>
        <path d="M273.8 395c1.7.1 3.1 1.5 3.2 3.2-.9.2-1.8 0-2.5-.7-.7-.6-.9-1.6-.7-2.5z" fill="#333"/>
        <path d="M268.5 403.6l-3.6.2M268.4 403.5l-.2 3.6" fill="none" stroke="#333" stroke-linecap="round"/>
        <path d="M272.1 405.1c.9-1-4.3-6.2-5.2-5.2-1 .9-.6 2.9.9 4.3 1.4 1.4 3.3 1.8 4.3.9z"/>
        <path d="M268.9 404.1c.8.8 1.7 1.2 2.5 1.4-1 .3-2.5-.1-3.6-1.3-1.5-1.4-1.9-3.4-.9-4.3.2-.2.5-.1 1 .1-.7 1-.3 2.8 1 4.1z" fill="#333"/>
        <path d="M267.1 402.4c.4-.4.4-1.1 0-1.5-.4-.4-1.1-.4-1.5 0-.4.4-.4 1.1 0 1.5.4.4 1.1.4 1.5 0z" fill="#fc0"/>
        <path d="M267.1 402.4c-.3 0-.5-.1-.6-.3-.4-.4-.4-1.1 0-1.5.2 0 .4.1.6.3.4.4.4 1.1 0 1.5z" fill="#f90"/>
        <path d="M269.6 404.8c.4-.4 1.1-.4 1.5 0 .4.5.4 1.1 0 1.5-.4.4-1.1.4-1.5 0-.4-.4-.4-1 0-1.5z" fill="#fc0"/>
        <path d="M270.1 405.8c-.3-.3-.4-.8-.3-1.1.4-.2.9-.2 1.3.1.3.3.3.8.2 1.1-.4.2-.9.2-1.2-.1z" fill="#f90"/>
    </g>
</svg>
