<svg xmlns="http://www.w3.org/2000/svg" height="24" width="24">
    <g transform="matrix(1,0,0,-1,-264,408)" id="KDDI_D_">        <path d="M284.9 401.5s-1.2-1.6-1.2-2.3c0-2.1 3.7-3.3 3.7-7.9 0-4.4-2.1-7.2-2.1-7.2h-18.7s-2 2.8-2 7.2c0 4.6 3.7 5.8 3.7 7.9 0 .7-1.2 2.3-1.2 2.3" fill="#c60"/>
        <path d="M283.7 399.2c0 .7 1.2 2.3 1.2 2.3h-12.8s-1.2-1.6-1.2-2.3c0-2.1 7.3-2.9 8.7-7.9 1.2-4.2-1.2-7.2-1.2-7.2h6.9s2.1 2.8 2.1 7.2c0 4.6-3.7 5.8-3.7 7.9z" fill="#930"/>
        <path d="M268.9 394.6c.4.7.8 1.2 1.2 1.7.8 1.1-2 .6-3.1-1-.6-1-1.1-2.2-1.1-4 0-1 .5-2.6 1.4-2.6.9 0 .9 1.7.9 2.6 0 1.4.3 2.4.7 3.3z" fill="#f90"/>
        <path d="M283.7 399.2c0 .7 1.2 2.3 1.2 2.3h-2.6s-1.2-1.6-1.2-2.3c0-2.1 3.8-3.3 3.8-7.9 0-4.4-2.5-7.2-2.5-7.2h2.9s2.1 2.8 2.1 7.2c0 4.6-3.7 5.8-3.7 7.9z" fill="#600"/>
        <path d="M277.4 400.5v-8.3c0-.5.4-1 1-1s1 .5 1 1v8.3c0 .6-.4 1-1 1s-1-.4-1-1zM271.8 400.6V394c0-.6.5-1.1 1-1.1.6 0 1 .5 1 1.1v6.6c0 .6-.4 1.1-1 1.1-.5 0-1-.5-1-1.1z" fill="#930"/>
        <path d="M276 406.2c-5.2 0-9.3-1.7-9.3-3.8 0-2 4.1-3.7 9.3-3.7 5.2 0 9.4 1.7 9.4 3.7 0 2.1-4.2 3.8-9.4 3.8m0-4.7c-2.8 0-5.1.5-5.1 1.2s2.3 1.3 5.1 1.3c2.9 0 5.2-.6 5.2-1.3 0-.7-2.3-1.2-5.2-1.2z" fill="#600"/>
        <path d="M281.8 404c0-.9-2.7-1.6-6-1.6s-5.9.7-5.9 1.6c0 .9 2.6 1.6 5.9 1.6 3.3 0 6-.7 6-1.6z" fill="#600"/>
        <path d="M276 407.4c-5.3 0-9.7-1.6-9.7-3.6 0-2.1 4.4-3.7 9.7-3.7 5.4 0 9.8 1.6 9.8 3.7 0 2-4.4 3.6-9.8 3.6m0-4.6c-2.9 0-5.3.6-5.3 1.2 0 .7 2.4 1.2 5.3 1.2 3 0 5.4-.5 5.4-1.2 0-.6-2.4-1.2-5.4-1.2z" fill="#ff9"/>
        <path d="M267.6 403.3c0 1.9 4.1 3.5 9.1 3.5 4.6 0 8.3-1.3 9-2.9-.1 2-4.4 3.5-9.7 3.5-5.3 0-9.7-1.6-9.7-3.6 0-1.3 1.3-1.5 1.3-.5z" fill="#fff"/>
        <path d="M276 402.8c-1.6 0-3.1.2-4.1.5.5-.5 2.5-.9 4.8-.9 2.8 0 5.1.5 5.1 1.1 0 .2-.2.4-.4.5-.1-.7-2.5-1.2-5.4-1.2z" fill="#fff"/>
        <path d="M284.7 403.9c0-1.7-4.3-3.1-9.6-3.1-3.4 0-6.4.6-8.1 1.4 1.5-1.2 5-2.1 9-2.1 5.4 0 9.8 1.5 9.8 3.4 0 1.7-1.1 1.8-1.1.4z" fill="#fc0"/>
        <path d="M275.6 402.8c-3.3 0-5.9.7-5.9 1.5 0 .9 2.6 1.6 5.9 1.6 3.2 0 5.9-.7 5.9-1.6 0-.8-2.7-1.5-5.9-1.5z" fill="#fc0"/>
        <path d="M276 402.8c-2.9 0-5.3.6-5.3 1.2 0 .7 2.4 1.2 5.3 1.2 3 0 5.4-.5 5.4-1.2 0-.6-2.4-1.2-5.4-1.2z" fill="#600"/>
        <path d="M287.1 392c-.2-.2-2.8-3.9-11.1-3.9s-10.9 3.7-11.1 3.9c-.3.4-.8-2.1-.5-2.3 1.5-1.6 5.1-3.6 11.6-3.6 6.4 0 9.9 2.2 11.6 3.5.5.4-.2 2.8-.5 2.4z" fill="#ff6"/>
        <path d="M265.9 391c.1-1 .6-2.3 1.4-2.3.5 0 .7.4.8.9-1 .5-1.7 1-2.2 1.4z" fill="#ffc"/>
        <path d="M287.1 392c-.1-.2-2-2.7-7.2-3.6 0-.8-.2-1.5-.4-2 3.9.5 6.3 1.9 7.8 3 .1.6.1 1.2.1 1.9v.4c-.1.3-.2.4-.3.3z" fill="#fc0"/>
        <path d="M287.1 392c-.1-.1-.8-1-2.3-1.9-.1-.9-.3-1.7-.5-2.4 1.3.5 2.2 1.2 3 1.7.1.6.1 1.2.1 1.9v.4c-.1.3-.2.4-.3.3z" fill="#f90"/>
        <path d="M265 388.2c.7-2.4 2-3.8 2-3.8" fill="none" stroke="#000"/>
        <path d="M267.2 397.3c-1.1-1.3-2.6-2.9-2.6-5.9 0-1.2.1-2.2.4-3.2" fill="none" stroke="#333" stroke-linecap="round"/>
        <path d="M266.6 402.4c.2-.4.5-.7.7-.9.4-.5 1-1.6 1-2.1 0-.8-.4-1.4-1.1-2.1" fill="none" stroke="#000" stroke-linecap="round"/>
        <path d="M284.8 405.1c-1.6 1.4-4.9 2.3-8.8 2.3-5.3 0-9.7-1.8-9.7-4.1 0-.3.1-.6.3-.9" fill="none" stroke="#333" stroke-linecap="round"/>
        <path d="M285 384.4s2.4 2.6 2.4 7c0 4.7-3.7 5.8-3.7 8 0 .5.5 1.5.9 1.9.3.4 1.2 1.2 1.2 2 0 .6-.4 1.3-1 1.8" fill="none" stroke="#000"/>
        <path d="M270.5 401.3s.7-.2.7-2v-4.7c0-.6.5-1.1 1-1.1.6 0 1 .5 1 1.1v4c0 1.6 1.8 2.3 1.8 2.3 0 .6-1.6 1.4-2.8 1.4-.5 0-1.7-.5-1.7-1z" fill="#ff9"/>
        <path d="M274.2 400.8c-.5-.3-1.4-1-1.4-2.1v-4.1c0-.5-.5-1-1-1 .1 0 .3-.1.4-.1.6 0 1 .5 1 1.1v4c0 1.2 1.1 1.9 1.6 2.2z" fill="#fc0"/>
        <path d="M275.7 400.9s1.1-1 1.1-2.1v-6c0-.6.5-1.1 1-1.1.6 0 1.1.5 1.1 1.1v5.7c0 2 1.6 3 1.6 3 0 .5-2.1.6-2.7.6-.5 0-2.1-.6-2.1-1.2z" fill="#ff9"/>
        <path d="M279.6 401.1c-.5-.4-1.2-1.3-1.2-2.6v-5.7c0-.5-.4-.9-.8-1 .1 0 .2-.1.2-.1.6 0 1.1.5 1.1 1.1v5.7c0 1.4.8 2.3 1.3 2.7z" fill="#fc0"/>
        <path d="M272.3 394.8c0-.3-.2-.6-.4-.6s-.3.3-.3.6.1.6.3.6c.2 0 .4-.3.4-.6zM277.9 392.9c0-.3-.2-.6-.4-.6s-.3.3-.3.6.1.6.3.6c.2 0 .4-.3.4-.6z" fill="#fff"/>
        <path d="M273.5 405.1c-1.6-.2-2.8-.6-2.8-1.1 0-.4 1.2-.8 2.8-1z" fill="#300"/>
        <path d="M277.3 405.2v-2.3c2.4.1 4.1.6 4.1 1.1 0 .6-1.7 1.1-4.1 1.2z" fill="#930"/>
    </g>
</svg>
