<svg xmlns="http://www.w3.org/2000/svg" width="24" height="24">
	<g transform="translate(-264,-386)" id="KDDI_D_776">
		<g>
			<path style="stroke:none; fill:none" d="M 288 409.89L 264 409.89L 264 385.89L 288 385.89L 288 409.89z"/>
		</g>
		<g>
			<path style="stroke:none; fill:#660" d="M 277 392.39L 275 392.39L 275 385.89L 277 385.89L 277 392.39z"/>
			<path style="stroke:none; fill:#990" d="M 276 389.89L 276 385.89L 275 385.89L 275 389.89L 276 389.89z"/>
			<path style="stroke:none; fill:#990" d="M 281.5 387.89C 280 387.89 277.5 388.39 276 391.89C 275 388.39 272 387.89 270.5 387.89C 269 387.89 264 388.39 264 396.89C 264 405.39 270.25 409.89 272.5 409.89C 274.75 409.89 276 407.89 276 407.89C 276 407.89 277.75 409.89 280 409.89C 282.25 409.89 288 405.39 288 396.89C 288 388.39 283 387.89 281.5 387.89z"/>
			<path style="stroke:none; fill:#9c0" d="M 264.021 396.341C 264.241 404.543 270.291 408.89 272.5 408.89C 274.75 408.89 276 406.89 276 406.89C 276 406.89 277.75 408.89 280 408.89C 282.25 408.89 287 404.39 287 395.89C 287 389.39 283 388.89 281.5 388.89C 280 388.89 277.5 389.89 276 393.39C 275 389.89 272 387.89 270.5 387.89C 269.034 387.89 264.239 388.388 264.021 396.341z"/>
			<path style="stroke:none; fill:#390" d="M 277 385.89C 277 385.89 280.5 385.89 281.5 385.89C 282.5 385.89 286 386.39 288 391.39C 288 391.39 282.5 392.39 278 386.89L 277 386.89"/>
			<path style="stroke:none; fill:#360" d="M 288 391.39C 288 391.39 283 386.89 278 386.89C 282.5 392.39 288 391.39 288 391.39z"/>
			<path style="stroke:none; fill:#cc0" d="M 274 394.89C 274 397.375 271.985 399.39 269.5 399.39C 267.015 399.39 265 397.375 265 394.89C 265 392.404 267.015 390.39 269.5 390.39C 271.985 390.39 274 392.404 274 394.89z"/>
			<path style="stroke:none; fill:#cc3" d="M 266 394.89C 266 396.819 267.57 398.39 269.5 398.39C 271.43 398.39 273 396.819 273 394.89C 273 392.96 271.43 391.39 269.5 391.39C 267.57 391.39 266 392.96 266 394.89z"/>
			<path style="stroke:none; fill:#cf3" d="M 267 394.89C 267 396.268 268.122 397.39 269.5 397.39C 270.878 397.39 272 396.268 272 394.89C 272 393.511 270.878 392.39 269.5 392.39C 268.122 392.39 267 393.511 267 394.89z"/>
			<path style="stroke:none; fill:#ff6" d="M 268 394.89C 268 395.717 268.673 396.39 269.5 396.39C 270.327 396.39 271 395.717 271 394.89C 271 394.063 270.327 393.39 269.5 393.39C 268.673 393.39 268 394.063 268 394.89z"/>
			<path style="stroke:none; fill:#cc0" d="M 284.709 404.984L 284 402.39C 284 402.39 282.5 406.39 281.5 406.39C 280.5 406.39 280 404.39 280 404.39C 280 404.39 279 406.39 278 406.39C 277 406.39 276 402.39 276 402.39C 276 402.39 275 406.39 274 406.39C 273 406.39 272 404.39 272 404.39C 272 404.39 271.5 406.39 270.5 406.39C 269.5 406.39 268 402.39 268 402.39L 267.23 405.333C 269.112 407.672 271.337 408.89 272.5 408.89C 274.75 408.89 276 406.89 276 406.89C 276 406.89 277.75 408.89 280 408.89C 281.221 408.89 283.174 407.554 284.709 404.984z"/>
			<g>
				<path style="stroke:none; fill:#990" d="M 272 407.39C 272 407.39 271.82 408.09 271.468 408.663C 271.86 408.808 272.215 408.89 272.5 408.89C 272.68 408.89 272.843 408.858 273.01 408.835C 272.433 408.243 272 407.39 272 407.39z"/>
				<path style="stroke:none; fill:#990" d="M 279.061 408.768C 279.362 408.839 279.674 408.89 280 408.89C 280.186 408.89 280.394 408.848 280.609 408.786C 280.204 408.197 280 407.39 280 407.39C 280 407.39 279.603 408.18 279.061 408.768z"/>
			</g>
		</g>
	</g>
</svg>
