<svg xmlns="http://www.w3.org/2000/svg" height="24" width="24">
    <g transform="matrix(1,0,0,-1,-264,408)" id="KDDI_D_">        <path d="M287.3 399.4s-4.2-2.6-5.5-4.3c-1.2-1.8-2.8-5.9-4.3-7.4-1.5-1.6-6.3-3.2-6.3-3.2l-6.6 7s4.4 1.5 5.8 2.8c1.5 1.3 3.3 5.7 4.9 7.9 1.7 2.1 5.4 4.2 5.4 4.2z" fill="#ffc" stroke="#000"/>
        <path d="M284.2 399.9s-3-2.3-4.2-3.6c-1.7-1.7-2-5.2-3.3-6.5-1.2-1.3-5.2-2.9-5.2-2.9l-3.8 3.9s3.6 1.8 4.9 2.7c2.2 1.5 2.2 5.2 3.7 6.9 1.4 1.7 4.1 3.5 4.1 3.5z" fill="#960"/>
        <path d="M278.1 395c0-1.4-.7-2.5-1.6-2.5-.9 0-1.6 1.1-1.6 2.5 0 1.3.7 2.4 1.6 2.4.9 0 1.6-1.1 1.6-2.4z" fill="#ffc" stroke="#999" stroke-width=".75"/>
        <path d="M269.4 390.6l3.1 1.7.9-1-3.1-1.6z" fill="#990"/>
        <path d="M271.1 389.1l1.3.7.9-.9-1.4-.6z" fill="#333"/>
        <path d="M272.9 390l1.4.7.9-.8-1.4-.6z" fill="#999"/>
        <path d="M277.4 400.4s.8.9 1.3 1.4c.5.4 1.5 1 1.5 1l.8-.8s-1-.4-1.6-1c-.5-.6-1.2-1.2-1.2-1.2z" fill="#333"/>
        <path d="M278.6 399.3s.7.9 1.2 1.3c.5.5 1.5 1.1 1.5 1.1l.8-.8s-1-.5-1.5-1l-1.3-1.3z" fill="#666"/>
        <path d="M282.3 400.4l.6-.6-1.1-.8-.6.6z" fill="#933"/>
        <path d="M275.1 400.7s-.5 3.5-.4 4.4c.2 1.4-1.4 2.4-4 2.4s-5.6-2.7-6-4.4c-.3-1.4-.5-4.2.3-5.1.7-.9 2-.9 2.9.3 1.1 1.3 1.4 3.2 2.5 3.2 1.2 0 2.7-5.3 2.1-6.2z" fill="#fff"/>
        <path d="M271 402.7c-1.7.7-2.7-.8-3.4-1.4-.4-.4-1.3-2.5-1.8-3.8.7-.3 1.5 0 2.1.8 1.1 1.3 1.4 3.2 2.5 3.2 1.2 0 2.7-5.3 2.3-6.2l1.2 1.9c0-.7-1.1 4.8-2.9 5.5z" fill="#ccc"/>
        <path d="M275.1 400.5s-.3 3.7-.4 4.6c-.2 1.4-1.4 2.4-4 2.4s-5.6-2.7-6-4.4c-.3-1.4-.5-4.2.3-5.1.7-.9 2-.9 2.9.3 1.1 1.3 1.4 3.2 2.5 3.2 1.2 0 2.9-5.4 2.2-6.5z" fill="none" stroke="#333" stroke-linejoin="round"/>
        <path d="M280.3 395.3c.8.5 4.2 1.6 6.2.4 1.5-.9 1.1-5.4.6-6.8-.5-1.3-3.6-4.5-5.6-4.5-2 .1-2.1 1.1-1.4 2.2.7 1.2 1.8 2.7 1.2 3.4-.7.8-2.8 1.4-2.8 1.4s1 3.4 1.8 3.9z" fill="#fff"/>
        <path d="M283 390.1c-.1 1.2-2.8 1.9-4.2 2.2-.2-.5-.3-.9-.3-.9s2.1-.6 2.8-1.4c.6-.7-.5-2.2-1.2-3.4-.6-.9-.6-1.7.4-2 1.3 1.5 2.6 4.2 2.5 5.5z" fill="#ccc"/>
        <path d="M280.3 395.3c.8.5 4.2 1.6 6.2.4 1.5-.9 1.1-5.4.6-6.8-.5-1.3-3.6-4.5-5.6-4.5-2 .1-2.1 1.1-1.4 2.2.7 1.2 1.8 2.7 1.2 3.4-.7.8-2.8 1.4-2.8 1.4s1 3.4 1.8 3.9z" fill="none" stroke="#333"/>
    </g>
</svg>
