<svg xmlns="http://www.w3.org/2000/svg" width="24" height="24">
	<g transform="translate(-264,-386)" id="KDDI_D_778">
		<g>
			<path style="stroke:none; fill:none" d="M 288 409.89L 264 409.89L 264 385.89L 288 385.89L 288 409.89z"/>
		</g>
		<g>
			<path style="stroke:#f3f; stroke-width:1; stroke-linecap:round; fill:none" d="M 274.998 393.4C 276.247 393.935 277.534 394.601 278.815 395.389C 284.928 399.155 288.593 404.303 287 406.889C 285.407 409.475 279.16 408.521 273.047 404.755C 266.934 400.991 263.269 395.841 264.861 393.255C 265.475 392.259 266.779 391.789 268.5 391.802"/>
			<path style="stroke:none; fill:#f60" d="M 268.5 385.89L 269.611 389.392L 273 389.392L 270.298 391.423L 271.5 394.89L 268.5 392.89L 265.5 394.89L 266.702 391.423L 264 389.391L 267.389 389.391L 268.5 385.89z"/>
		</g>
		<g>
			<path style="stroke:#3c6; stroke-width:1; stroke-linecap:round; fill:none" d="M 283.998 399.46C 286.784 402.296 288.063 405.164 287 406.89C 285.407 409.476 279.16 408.522 273.047 404.756C 266.934 400.991 263.269 395.842 264.861 393.256C 266.34 390.856 271.829 391.506 277.498 394.623"/>
			<path style="stroke:none; fill:#f09" d="M 277.5 388.39L 278.611 391.892L 282 391.892L 279.298 393.923L 280.5 397.39L 277.5 395.39L 274.5 397.39L 275.702 393.923L 273 391.891L 276.389 391.891L 277.5 388.39z"/>
		</g>
		<g>
			<path style="stroke:#f3f; stroke-width:1; stroke-linecap:round; fill:none" d="M 286 407.81C 283.557 409.131 278.253 407.963 273.047 404.756C 266.934 400.991 263.269 395.842 264.861 393.256C 266.454 390.67 272.701 391.625 278.815 395.39C 280.815 396.622 282.553 398.002 283.93 399.392"/>
			<path style="stroke:none; fill:#f60" d="M 283.5 393.39L 284.611 396.892L 288 396.892L 285.298 398.923L 286.5 402.39L 283.5 400.39L 280.5 402.39L 281.702 398.923L 279 396.891L 282.389 396.891L 283.5 393.39z"/>
		</g>
		<g>
			<path style="stroke:#3c6; stroke-width:1; stroke-linecap:round; fill:none" d="M 276.001 406.358C 275.026 405.9 274.035 405.364 273.047 404.756C 266.934 400.991 263.269 395.842 264.861 393.256C 266.454 390.67 272.701 391.625 278.815 395.39C 284.928 399.155 288.593 404.304 287 406.89C 286.465 407.759 285.404 408.228 284 408.325"/>
			<path style="stroke:none; fill:#f09" d="M 282.5 400.89L 283.611 404.392L 287 404.392L 284.298 406.423L 285.5 409.89L 282.5 407.89L 279.5 409.89L 280.702 406.423L 278 404.391L 281.389 404.391L 282.5 400.89z"/>
		</g>
		<g>
			<path style="stroke:#f3f; stroke-width:1; stroke-linecap:round; fill:none" d="M 268.068 400.892C 265.109 397.97 263.828 395.032 264.861 393.256C 266.454 390.67 272.701 391.625 278.815 395.39C 284.928 399.155 288.593 404.304 287 406.89C 285.407 409.476 279.16 408.522 273.047 404.756"/>
			<path style="stroke:none; fill:#f60" d="M 274.5 399.39L 275.611 402.892L 279 402.892L 276.298 404.923L 277.5 408.39L 274.5 406.39L 271.5 408.39L 272.702 404.923L 270 402.891L 273.389 402.891L 274.5 399.39z"/>
		</g>
		<g>
			<path style="stroke:#3c6; stroke-width:1; stroke-linecap:round; fill:none" d="M 266 392.266C 268.5 391.059 273.704 392.243 278.815 395.39C 284.928 399.155 288.593 404.304 287 406.89C 285.407 409.476 279.16 408.522 273.047 404.756C 271.113 403.565 269.424 402.235 268.068 400.892"/>
			<path style="stroke:none; fill:#f09" d="M 268.5 395.89L 269.611 399.392L 273 399.392L 270.298 401.423L 271.5 404.89L 268.5 402.89L 265.5 404.89L 266.702 401.423L 264 399.391L 267.389 399.391L 268.5 395.89z"/>
		</g>
	</g>
</svg>
