<svg xmlns="http://www.w3.org/2000/svg" width="24" height="24">
	<g transform="translate(-264,-386)" id="KDDI_D_781">
		<g>
			<path style="stroke:none; fill:none" d="M 288 409.89L 264 409.89L 264 385.89L 288 385.89L 288 409.89z"/>
		</g>
		<g>
			<path style="stroke:none; fill:#006" d="M 288 409.89L 264 409.89L 264 385.89L 288 385.89L 288 409.89z"/>
			<path style="stroke:none; fill:#00c" d="M 279.228 409.89C 280.611 407.887 282.411 405.274 283 404.39C 283.743 403.276 285.626 398.263 287 396.89C 287.306 396.584 287.658 396.281 288 396.004L 288 385.89L 276.821 385.89C 275.794 388.087 273.774 392.116 272 393.89C 269.94 395.949 266.538 396.979 264 397.281L 264 409.89L 279.228 409.89z"/>
			<path style="stroke:none; fill:#33c" d="M 275.954 409.89C 276.651 408.903 277.372 408.072 277.947 407.784C 280.021 406.747 283.5 404.538 283.5 401.39C 283.5 399.674 283.898 398.345 284.832 396.944C 285.377 396.127 286.843 394.54 288 393.334L 288 385.89L 279.622 385.89C 279.063 386.933 278.506 388.048 277.5 389.39C 277.5 389.39 274 394.39 271.293 396.183C 269.03 397.682 267.024 398.6 264 399.148L 264 409.89L 275.954 409.89z"/>
			<path style="stroke:none; fill:#66f" d="M 274.745 409.89C 275.579 408.627 276.59 407.345 277.5 406.89C 279.5 405.89 282.5 403.89 282.5 401.39C 282.5 399.39 283 397.89 284 396.39C 284.767 395.239 286.999 392.919 288 391.897L 288 385.89L 283.5 385.89C 281.5 387.39 278.5 390.89 277.5 391.89C 276.5 392.89 273 395.89 272 396.89C 271.124 397.766 267.56 399.41 264 400.14L 264 409.89L 274.745 409.89z"/>
			<path style="stroke:none; fill:#ccf" d="M 270.203 409.89C 273.891 407.609 276.825 405 279 402.39C 281.5 399.39 282.184 396.338 282.5 395.39C 283 393.89 284 392.39 285 391.39C 286.399 389.99 286.518 389.872 288 388.39L 288 385.89L 285 385.89C 283.138 387.752 281.188 389.702 280.5 390.39C 279.75 391.14 277.587 393.921 277 395.39C 276 397.89 274.197 399.117 272.5 400.39C 270.94 401.56 267.551 403.335 264 404.06L 264 409.89L 270.203 409.89z"/>
			<path style="stroke:none; fill:#ffc" d="M 269 406.89C 271 406.39 272.5 405.89 274 404.39C 275.5 402.89 277 400.39 277.5 400.39C 278 400.39 280.5 398.971 280.5 397.39C 280.5 395.39 282.5 394.89 282.5 392.89C 282.5 391.309 285.5 388.89 286 388.39C 286.5 387.89 286.5 387.39 285.5 387.89C 285.5 387.89 282.5 390.89 282 391.39C 281.5 391.89 278 394.89 277.5 395.39C 277 395.89 277 398.39 277 399.89C 277 401.39 276 400.89 275 400.89C 274 400.89 273 402.89 272 402.89C 270.586 402.89 267.79 405.599 267 406.39C 266.484 406.905 265.25 408.482 265 409.89L 267.202 409.89C 267.432 408.364 267.927 407.158 269 406.89z"/>
			<path style="stroke:none; fill:#663" d="M 273.168 388.77C 273.168 388.77 272.868 387.39 272.5 387.39C 272.133 387.39 271.834 388.77 271.834 388.77C 271.834 388.77 270.5 389.047 270.5 389.394C 270.5 389.738 271.834 390.019 271.834 390.019C 271.834 390.019 272.133 391.39 272.5 391.39C 272.868 391.39 273.168 390.019 273.168 390.019C 273.168 390.019 274.501 389.738 274.501 389.394C 274.501 389.047 273.168 388.77 273.168 388.77z"/>
			<path style="stroke:none; fill:#fc0" d="M 282.451 393.39C 282.451 393.915 282.025 394.34 281.5 394.34C 280.975 394.34 280.549 393.915 280.549 393.39C 280.549 392.864 280.975 392.44 281.5 392.44C 282.025 392.44 282.451 392.864 282.451 393.39z"/>
			<path style="stroke:none; fill:#fc0" d="M 280.951 396.39C 280.951 396.915 280.525 397.34 280 397.34C 279.475 397.34 279.049 396.915 279.049 396.39C 279.049 395.864 279.475 395.44 280 395.44C 280.525 395.44 280.951 395.864 280.951 396.39z"/>
			<path style="stroke:none; fill:#fc0" d="M 276.451 401.39C 276.451 401.915 276.025 402.34 275.5 402.34C 274.975 402.34 274.549 401.915 274.549 401.39C 274.549 400.864 274.975 400.44 275.5 400.44C 276.025 400.44 276.451 400.864 276.451 401.39z"/>
			<path style="stroke:none; fill:#fc0" d="M 274.451 403.39C 274.451 403.915 274.025 404.34 273.5 404.34C 272.975 404.34 272.549 403.915 272.549 403.39C 272.549 402.864 272.975 402.44 273.5 402.44C 274.025 402.44 274.451 402.864 274.451 403.39z"/>
			<path style="stroke:none; fill:#fc0" d="M 269.451 407.39C 269.451 407.915 269.025 408.34 268.5 408.34C 267.975 408.34 267.549 407.915 267.549 407.39C 267.549 406.864 267.975 406.44 268.5 406.44C 269.025 406.44 269.451 406.864 269.451 407.39z"/>
			<path style="stroke:none; fill:#fc0" d="M 265.951 408.89C 265.951 409.415 265.525 409.84 265 409.84C 264.475 409.84 264.049 409.415 264.049 408.89C 264.049 408.364 264.475 407.94 265 407.94C 265.525 407.94 265.951 408.364 265.951 408.89z"/>
			<path style="stroke:none; fill:#ff0" d="M 272.98 388.943C 272.98 388.943 272.766 387.95 272.501 387.95C 272.235 387.95 272.022 388.943 272.022 388.943C 272.022 388.943 271.06 389.143 271.06 389.393C 271.06 389.641 272.022 389.842 272.022 389.842C 272.022 389.842 272.235 390.829 272.501 390.829C 272.766 390.829 272.98 389.842 272.98 389.842C 272.98 389.842 273.94 389.641 273.94 389.393C 273.94 389.143 272.98 388.943 272.98 388.943z"/>
			<path style="stroke:none; fill:#663" d="M 269.168 397.766C 269.168 397.766 268.868 396.386 268.5 396.386C 268.133 396.386 267.834 397.766 267.834 397.766C 267.834 397.766 266.5 398.043 266.5 398.39C 266.5 398.734 267.834 399.015 267.834 399.015C 267.834 399.015 268.133 400.386 268.5 400.386C 268.868 400.386 269.168 399.015 269.168 399.015C 269.168 399.015 270.501 398.734 270.501 398.39C 270.501 398.043 269.168 397.766 269.168 397.766z"/>
			<path style="stroke:none; fill:#ff0" d="M 268.981 397.94C 268.981 397.94 268.766 396.946 268.501 396.946C 268.235 396.946 268.022 397.94 268.022 397.94C 268.022 397.94 267.06 398.14 267.06 398.389C 267.06 398.638 268.022 398.839 268.022 398.839C 268.022 398.839 268.235 399.826 268.501 399.826C 268.766 399.826 268.981 398.839 268.981 398.839C 268.981 398.839 269.94 398.638 269.94 398.389C 269.94 398.14 268.981 397.94 268.981 397.94z"/>
			<path style="stroke:none; fill:#663" d="M 283.16 403.777C 283.16 403.777 282.86 402.398 282.492 402.398C 282.125 402.398 281.826 403.777 281.826 403.777C 281.826 403.777 280.492 404.055 280.492 404.401C 280.492 404.746 281.826 405.026 281.826 405.026C 281.826 405.026 282.125 406.398 282.492 406.398C 282.86 406.398 283.16 405.026 283.16 405.026C 283.16 405.026 284.493 404.746 284.493 404.401C 284.493 404.055 283.16 403.777 283.16 403.777z"/>
			<path style="stroke:none; fill:#ff0" d="M 282.973 403.951C 282.973 403.951 282.758 402.958 282.493 402.958C 282.228 402.958 282.013 403.951 282.013 403.951C 282.013 403.951 281.053 404.15 281.053 404.4C 281.053 404.65 282.013 404.851 282.013 404.851C 282.013 404.851 282.228 405.837 282.493 405.837C 282.758 405.837 282.973 404.851 282.973 404.851C 282.973 404.851 283.933 404.65 283.933 404.4C 283.933 404.15 282.973 403.951 282.973 403.951z"/>
		</g>
	</g>
</svg>
