<svg xmlns="http://www.w3.org/2000/svg" height="24" width="24">
    <g transform="matrix(1,0,0,-1,-264,408)" id="KDDI_D_">        <path d="M276.1 403.9c9.2 0 11.5-3.9 11.5-9.6 0-3.6-4.7-7.1-7.8-7.8-2.4-.5-5.2-.5-7.4 0-3.4.7-7.8 4.2-7.8 7.8 0 5.2 2.3 9.6 11.5 9.6z" fill="#fc6"/>
        <path d="M274.7 386.2s5.7 1.4 8 5.4c1.3 2.4 1.7 6.2 2.8 6.4 1.2.3 2.9-3.2 1.4-6-1.4-2.6-5.8-5.8-12.2-5.8z" fill="#c93"/>
        <path d="M268.5 399.3c1 1.1 3.9 2.5 4.7 1 .5-1.1-3-5.8-4.9-5.5-1.9.4-1.3 2.9.2 4.5z" fill="#ff9"/>
        <path d="M276.1 403.9c8.6 0 11.5-3.9 11.5-9.6 0-4.1-4.7-7.1-7.8-7.8-2.4-.5-5.2-.5-7.4 0-3.4.7-7.8 3.8-7.8 7.8 0 5.2 2.8 9.6 11.5 9.6z" fill="none" stroke="#c33" stroke-width=".996"/>
        <path d="M266.9 400.7c0 3.5 1.1 6.7 1.1 6.7l4.3-5.1" fill="#f63"/>
        <path d="M266.9 400.7c0 3.5 1.1 6.7 1.1 6.7l4.7-5.8" fill="none" stroke="#c33" stroke-width="1.047" stroke-linejoin="round"/>
        <path d="M274.4 403.4v-2.7" fill="none" stroke="#c33" stroke-width=".996"/>
        <path d="M285.3 400.7c0 3.5-1 6.7-1 6.7l-4.4-5.1" fill="#f63"/>
        <path d="M285.3 400.7c0 3.5-1 6.7-1 6.7l-4.7-5.8" fill="none" stroke="#c33" stroke-width="1.047" stroke-linejoin="round"/>
        <path d="M277.8 403.4v-2.7" fill="none" stroke="#c33" stroke-width=".996"/>
        <path d="M271.5 397.3c0-.6-.5-1.1-1.1-1.1-.6 0-1.1.5-1.1 1.1 0 .6.5 1.1 1.1 1.1.6 0 1.1-.5 1.1-1.1zM280.7 397.3c0-.6.5-1.1 1.1-1.1.6 0 1.1.5 1.1 1.1 0 .6-.5 1.1-1.1 1.1-.6 0-1.1-.5-1.1-1.1z"/>
        <path d="M269.2 392.9l-4.8 2.9M269.1 391.3l-4.5-2.4M283 392.9l4.9 2.9M283.1 391.3l4.5-2.4" fill="none" stroke="#333" stroke-width=".996"/>
        <path d="M280.1 393.5c0-1.8-1.8-3.2-4.1-3.2s-4.1 1.4-4.1 3.2c0 .6 8.2.5 8.2 0z" fill="#f60"/>
        <path d="M278 392.3c-.3-.8-.7-1.2-1.1-2 1.8.2 3.2 1.6 3.2 3.2 0 .2-.8.3-1.8.3-.1-.6 0-.6-.3-1.5z" fill="#c30"/>
        <path d="M280.1 393.5c0-1.8-1.8-3.2-4.1-3.2s-4.1 1.4-4.1 3.2c0 .6 8.2.5 8.2 0z" fill="none" stroke="#000"/>
    </g>
</svg>
