<svg xmlns="http://www.w3.org/2000/svg" height="24" width="24">
    <g transform="matrix(1,0,0,-1,-264,408)" id="KDDI_D_">        <path d="M287.4 396c0-6.4-5.1-11.5-11.4-11.5-6.3 0-11.5 5.1-11.5 11.5 0 6.3 5.2 11.4 11.5 11.4s11.4-5.1 11.4-11.4z" fill="#fc9"/>
        <path d="M264.7 397.3c.5 2.1 1.6 4.6 3.2 6.8 2 2.6 7.8 3.2 7.8 3.2s-3.1-.5-5.8-3.4c-1.8-2-3.7-5.8-3.8-7.8-.5-4.6.5-7.1.5-7.1s-2.9 4-1.9 8.3z" fill="#ff9"/>
        <path d="M277.1 407.2s4.3-2.2 5.5-5.6c1.6-4.3 1.1-8.7-2.2-13.5-1.9-2.8-6-3.5-6-3.5 4.5-.6 13.3 1.4 13.3 10.5 0 9-7.3 12.1-10.6 12.1z" fill="#f96"/>
        <path d="M281.8 405.7s3.2-3.5 3.6-7.2c.3-3.6 0-7-1.8-9.4-2.5-3.4-5.2-4.2-5.2-4.2 4 0 8.9 3.9 9 10.3.1 8.7-5.6 10.5-5.6 10.5z" fill="#c60"/>
        <path d="M271.5 392.6c0-1.6-.9-3-2-3-1.2 0-2.1 1.4-2.1 3 0 1.7.9 3 2.1 3 1.1 0 2-1.3 2-3zM284.7 392.6c0-1.6-.9-3-2.1-3-1.1 0-2 1.4-2 3 0 1.7.9 3 2 3 1.2 0 2.1-1.3 2.1-3z" fill="#f99"/>
        <path d="M283.6 394.7s-1.2-5.9-7.6-5.9c-6.4 0-7.6 5.9-7.6 5.9z" fill="#f60"/>
        <path d="M279.6 392.3c0-.9-.7-2.2-1.5-3.3 4.6 1.2 5.5 5.7 5.5 5.7h-4v-2.4z" fill="#c30"/>
        <path d="M283.6 394.7s-1.2-5.9-7.6-5.9c-6.4 0-7.6 5.9-7.6 5.9z" fill="none" stroke="#000"/>
        <path d="M287.5 396c0-8.3-5.1-11.5-11.4-11.5-6.4 0-11.5 3.3-11.5 11.5 0 6.3 5.1 11.4 11.5 11.4 6.3 0 11.4-5.1 11.4-11.4z" fill="none" stroke="#000"/>
        <path d="M272 401.6V384h1.4v17.6z" fill="#c63"/>
        <path d="M271.3 401.6V384h1.3v17.6z" fill="#3cf"/>
        <path d="M270.2 400.1l2 2 2-2" fill="none" stroke="#000" stroke-width="1.4"/>
        <path d="M281.1 401.6V384h-1.3v17.6z" fill="#c63"/>
        <path d="M280.5 401.6V384h-1.4v17.6z" fill="#3cf"/>
        <path d="M281.8 400.1l-2 2-2-2" fill="none" stroke="#000" stroke-width="1.4"/>
        <path d="M281.2 404.3h-2.7M270.9 404.3h2.7" fill="none" stroke="#333"/>
    </g>
</svg>
