<svg xmlns="http://www.w3.org/2000/svg" height="24" width="24">
    <g transform="matrix(1,0,0,-1,-264,408)" id="KDDI_D_">        <path d="M276.1 403.9c9.2 0 11.5-3.9 11.5-9.6 0-3.6-4.7-7.1-7.8-7.8-2.4-.5-5.2-.5-7.4 0-3.4.7-7.8 4.2-7.8 7.8 0 5.2 2.3 9.6 11.5 9.6z" fill="#fc6"/>
        <path d="M274.7 386.2s5.7 1.4 8 5.4c1.3 2.4 1.7 6.2 2.8 6.4 1.2.3 2.9-3.2 1.4-6-1.4-2.6-5.8-5.8-12.2-5.8z" fill="#c93"/>
        <path d="M268.5 399.3c1 1.1 3.9 2.5 4.7 1 .5-1.1-3-5.8-4.9-5.5-1.9.4-1.3 2.9.2 4.5z" fill="#ff9"/>
        <path d="M276.1 403.9c8.6 0 11.5-3.9 11.5-9.6 0-4.1-4.7-7.1-7.8-7.8-2.4-.5-5.2-.5-7.4 0-3.4.7-7.8 3.8-7.8 7.8 0 5.2 2.8 9.6 11.5 9.6z" fill="none" stroke="#c33" stroke-width=".996"/>
        <path d="M266.9 400.7c0 3.5 1.1 6.7 1.1 6.7l4.3-5.1" fill="#f63"/>
        <path d="M266.9 400.7c0 3.5 1.1 6.7 1.1 6.7l4.7-5.8" fill="none" stroke="#c33" stroke-width="1.047" stroke-linejoin="round"/>
        <path d="M274.4 403.4v-2.7" fill="none" stroke="#c33" stroke-width=".996"/>
        <path d="M285.3 400.7c0 3.5-1 6.7-1 6.7l-4.4-5.1" fill="#f63"/>
        <path d="M285.3 400.7c0 3.5-1 6.7-1 6.7l-4.7-5.8" fill="none" stroke="#c33" stroke-width="1.047" stroke-linejoin="round"/>
        <path d="M277.8 403.4v-2.7" fill="none" stroke="#c33" stroke-width=".996"/>
        <path d="M271.5 396.3c0-.6-.5-1.1-1.1-1.1-.6 0-1.1.5-1.1 1.1 0 .6.5 1.1 1.1 1.1.6 0 1.1-.5 1.1-1.1zM280.7 396.3c0-.6.5-1.1 1.1-1.1.6 0 1.1.5 1.1 1.1 0 .6-.5 1.1-1.1 1.1-.6 0-1.1-.5-1.1-1.1z"/>
        <path d="M269.2 392.9l-4.8 2.9M269.1 391.3l-4.5-2.4M283 392.9l4.9 2.9M283.1 391.3l4.5-2.4" fill="none" stroke="#333" stroke-width=".996"/>
        <path d="M278.2 390.3l-2.1 2.5-2.1-2.5" fill="none" stroke="#000" stroke-width=".996" stroke-linejoin="round"/>
        <path d="M282.6 386.1c2.2 0 2.7 1.6 2.7 2.6 0 .9-.7 2.1-1.4 3.2-.9 1.2-1.3 3.1-1.3 3.1s-.4-1.9-1.3-3.1c-.7-1.1-1.3-2.3-1.3-3.2 0-1 .4-2.6 2.6-2.6z" fill="#9cf"/>
        <path d="M283.9 391.9c-.9 1.2-.1-1.1-.1-2 0-1.1-.4-2.7-2.1-2.7-.8 0-1.3.3-1.6.7.2-.9.8-1.8 2.5-1.8 2.2 0 2.7 1.6 2.7 2.6 0 .9-.7 2.1-1.4 3.2z" fill="#69f"/>
        <path d="M283.9 391.9c-.6.8-1 2-1.2 2.6 0-.8.5-2.4.8-3 .5-1.1.6-1.7.6-2.6 0-1.1-.3-2.2-2.3-2.2-.6 0-1 .1-1.3.3.3-.5 1-.9 2.1-.9 2.2 0 2.7 1.6 2.7 2.6 0 .9-.7 2.1-1.4 3.2z" fill="#36c"/>
        <path d="M283.1 389.2c-.3-1-1.1-1.5-1.7-1.3-.7.2-.9 1.2-.6 2.1.3 1 1 1.5 1.7 1.3.6-.3.9-1.2.6-2.1z" fill="#cff"/>
        <path d="M282 390c-.1-.3-.3-.4-.5-.4-.2.1-.3.4-.2.7.1.3.3.4.5.4.2-.1.3-.4.2-.7z" fill="#fff"/>
        <path d="M285.3 388.7c0 .4-.1.8-.3 1.2 0-.8-.1-1.8-.6-2.6-.6-.9-1.8-1.1-2.5-1.2h.7c2.2 0 2.7 1.6 2.7 2.6z" fill="#039"/>
        <path d="M280.3 387.3c.4-.7 1-1.2 2.3-1.2 2.2 0 2.7 1.6 2.7 2.6 0 .9-.7 2.1-1.4 3.2-.9 1.2-1.3 3.1-1.3 3.1" fill="none" stroke="#039" stroke-linecap="round" stroke-linejoin="round"/>
        <path d="M282.6 395s-.4-1.9-1.3-3.1c-.7-1.1-1.3-2.3-1.3-3.2 0-.4.1-1 .3-1.4" fill="none" stroke="#69f" stroke-linecap="round" stroke-linejoin="round"/>
    </g>
</svg>
