<svg xmlns="http://www.w3.org/2000/svg" height="24" width="24">
    <g transform="matrix(1,0,0,-1,-264,408)" id="KDDI_D_">        <path d="M284.2 384s-.3 3.8-.8 4.8c-.5.9-3.3 2.7-3.1 4 .1 1.4 4.6 8.8 4.9 10.5.3 2.1-4.3 4.7-7 4.7-3.5 0-5.1-1.7-6.1-3.2-.5-.9-.4-1.5-.8-2.2-1.7-2.3-4.5-5.6-3-6.6 1.1-.7.2-1.9-.2-3.2-.4-1.2-.2-3.1.7-3.4 2.3-.7 4.1.7 4.2-.1.1-.9-1.3-2-2.1-2.9-.8-.8-1.4-1.1-1.4-2.4z" fill="#ccc"/>
        <path d="M279.4 407.9c1-.7 3.4-1.3 3-3.5-.5-2.2-2.6-6.6-3.7-8.4-.6-.8-1.9-3.7-4.9-4.8-2.1-.7-4.5-.9-4.7-.8-.7.2-.9 1.3-.1 2.1 1.4 1.4 1.8 1.8 1.9 2.3.2.6-.7 1.2-2.6 1.2.8-1 .5-2-.2-3.2-1.1-1.8-.7-3.1.2-3.4 2.3-.7 4.6.7 4.7-.1.1-.9-1.3-2-2.1-2.9-.8-.8-1.4-1.1-1.4-2.4h1c.1.4.1.8.3 1.3.3.6 2.7 3 3.3 3.3.3.2 1.8 1 2.7 1.3.9.2 2.5.2 3.3-1.5.4-1 .1-3.2-.1-4.4h4.2s-.3 3.8-.8 4.8c-.5.9-3.3 2.7-3.1 4 .1 1.4 4.6 8.8 4.9 10.5.3 1.8-3.2 4-5.8 4.6z" fill="#999"/>
        <path d="M269.2 396l.7.6 2.8-.8s-.3-.7-.7-.9c-.4-.2-1.8-.4-1.8-.4z" fill="#999"/>
        <path d="M269.9 396.6c-.1-.4 1-.8 1.6-1.1.4-.1.9-.2 1.2.3.4.7 3.3 6.5 3.3 6.5s2.3-.5 3.2-.7c.5-.1 1.5 1.3.2 1.7-1 .3-5.8 1-7.3 1.4-.5-.8-.4-1.4-.8-2.1-.8-1.1-1.8-2.3-2.4-3.4.3.4 1.1 1.4 1.7 2 .8.9 1.6 1.9 1.7 2 .4.4.7.5 1 .4.4-.1.7-.1 1-.2.2-.1.4-.3.2-.6-1-1.3-4.6-5.8-4.6-6.2zM284.2 384s-.3 3.8-.8 4.8c-.5.9-3.3 2.7-3.1 4 .1 1.4 4.6 8.8 4.9 10.5.1.9-.8 2-2 2.9.3-.7.8-1.2.6-2.5-.5-2.3-5.5-9.5-5.6-11-.2-1.5 2.8-2.7 3.4-4.9.2-.8-.1-2.6-.2-3.8z" fill="#666"/>
        <path d="M284.2 402.1c-1-1.6-4.5-8.6-4.7-9.3-.2-.6 2.1-2.5 2.8-3.5.6-1.1.7-4.2.6-5.3h1.3s-.3 3.8-.8 4.8c-.5.9-3.3 2.7-3.1 4 .1 1.4 4.6 8.8 4.9 10.5 0 .4-.1.9-.4 1.4 0-.7-.1-1.7-.6-2.6z" fill="#333"/>
        <path d="M273.6 385.2c.6 1.7 1.9 3.3 1.3 3.4-.9.1-2.5-2.4-3-3.1-.3-.5-.4-.9-.5-1.5h2c.1.3.1.8.2 1.2zM276.3 406.7c-1.5.1-2.6-.8-2.7-1.2-.1-.5 1.5-.8 2.3-.9.8-.1 2.2-.3 2.5 0 .4.3.5.4.5 1 0 .5-1.7 1-2.6 1.1zM273.1 403.3c-.4.1-1.7-1.5-2.5-2.5s-2.5-3.6-2-3.7c.9-.2 2.1 2.1 2.9 3.1.8 1 2.5 2.8 1.6 3.1z" fill="#fff"/>
        <path d="M268.3 389.4c2.3-.7 4.6.7 4.7-.1 0-.4-.2-.9-.6-1.3 1.3 1 3.4 2.3 3.2 2.7-.1.4-2.5-.7-4-1-1-.2-2.9 0-3.8.1.2-.2.3-.3.5-.4z" fill="#666"/>
        <path d="M272.3 403.2c.2.2.4.3.5.4 0 .3-.6.4-1 .4-.1-.2-.2-.5-.3-.8 0-.2.7-.1.8 0zM275.4 403c-.6-.3-3.6-5.3-4-5.9-.5-.7 1.2-1.5 1.6-.7.9 1.7 3 5.9 3 5.9s2.3-.5 3.2-.7c.2 0 .5.2.7.5-.7.5-3.5 1.3-4.5.9z" fill="#333"/>
        <path d="M278.3 401.1c.7 0 .8-.9.1-2.3-.7-1.5-2.4-4.2-4.8-5.8-1-.6-2.9-1.6-3.1-1.1-.2.6 2.5 2.1 3.3 2.8 1.1 1 2.3 3.2 2.8 4.2.4 1 .7 2.1 1.7 2.2z" fill="#fff"/>
        <path d="M268.2 393c.2.2.3.4.5.6.6.7 1.2.9 1.2 1.4 0 .3-.8.4-1.3.5.3-.8.1-1.6-.4-2.5z" fill="#666"/>
    </g>
</svg>
