<svg xmlns="http://www.w3.org/2000/svg" height="24" width="24">
    <g transform="matrix(1,0,0,-1,-264,408)" id="KDDI_D_">        <path d="M278.9 407.3l-8.6-8.6v-10.4h17.2v10.4z" fill="#c60"/>
        <path d="M287.5 398.7l-8.6 8.6-.9-.9 8.3-8.2v-9.9h1.2z" fill="#930"/>
        <path d="M279.8 406.4l-.9.9-8.6-8.6v-10.4h1.3v9.9z" fill="#f90"/>
        <path d="M280.7 399.8h-3.9v2h3.9z" fill="#6cf"/>
        <path d="M280.7 399.8v1.5h-3.3v-1.5z" fill="#cff"/>
        <path d="M280.7 396.2h-3.9v1.9h3.9z" fill="#6cf"/>
        <path d="M280.7 396.2v1.4h-3.3v-1.4z" fill="#cff"/>
        <path d="M280.7 392.5h-3.9v1.9h3.9z" fill="#6cf"/>
        <path d="M280.7 392.5v1.4h-3.3v-1.4z" fill="#cff"/>
        <path d="M286.2 396.2h-3.8v1.9h3.8z" fill="#6cf"/>
        <path d="M286.2 396.2v1.4H283v-1.4z" fill="#cff"/>
        <path d="M286.2 392.5h-3.8v1.9h3.8z" fill="#6cf"/>
        <path d="M286.2 392.5v1.4H283v-1.4z" fill="#cff"/>
        <path d="M275.4 396.2h-3.8v1.9h3.8z" fill="#6cf"/>
        <path d="M275.4 396.2v1.4h-3.2v-1.4z" fill="#cff"/>
        <path d="M275.4 392.5h-3.8v1.9h3.8z" fill="#6cf"/>
        <path d="M275.4 392.5v1.4h-3.2v-1.4z" fill="#cff"/>
        <path d="M278.9 407.3l-8.6-8.6v-10.4h17.2v10.4z" fill="none" stroke="#000"/>
        <path d="M274.1 387.9l3.5-3.9h-2.3l-1.8 3.9z" fill="#333"/>
        <path d="M273.8 387.9l2-3.9h-.5l-1.8 3.9z"/>
        <path d="M274.3 386.1h1.5v2h-1.5z" fill="#666"/>
        <path d="M268 387.9l-3.4-3.9h2.2l1.9 3.9z" fill="#333"/>
        <path d="M268.3 387.9l-2-3.9h.5l1.9 3.9z"/>
        <path d="M267.8 386.1h-1.4v2h1.4z" fill="#666"/>
        <path d="M277.5 387.7v10.9c0 1.1-.9 2-2 2h-8.9c-1.1 0-2-.9-2-2v-10.9z" fill="#06c"/>
        <path d="M276.3 398.6v-10.9h1.2v10.9c0 1.1-1.2 1.1-1.2 0z" fill="#039"/>
        <path d="M275.5 400.6h-8.9c-1.1 0-2-.9-2-2v-10.9h1.3v10.2c0 1.1 1.2 1.4 1.2 1.4h8.4c1.1 0 1.1 1.3 0 1.3z" fill="#3cf"/>
        <path d="M267.2 392h-2.6v-2.3h2.6c.6 0 1 .5 1 1.1v.2c0 .5-.4 1-1 1z" fill="#fff"/>
        <path d="M268.2 390.9c0-.7-.5-1.2-1.1-1.2-.6 0-1.1.5-1.1 1.2 0 .6.5 1.1 1.1 1.1.6 0 1.1-.5 1.1-1.1z" fill="#ff9"/>
        <path d="M267.9 390.9c0-.5-.4-.8-.8-.8s-.8.3-.8.8c0 .4.4.8.8.8s.8-.4.8-.8z" fill="#fc0"/>
        <path d="M275 392h2.5v-2.3H275c-.6 0-1.1.5-1.1 1.1v.2c0 .5.5 1 1.1 1z" fill="#fff"/>
        <path d="M273.9 390.9c0-.7.5-1.2 1.2-1.2.6 0 1.1.5 1.1 1.2 0 .6-.5 1.1-1.1 1.1-.7 0-1.2-.5-1.2-1.1z" fill="#ff9"/>
        <path d="M274.3 390.9c0-.5.3-.8.8-.8.4 0 .7.3.7.8 0 .4-.3.8-.7.8-.5 0-.8-.4-.8-.8z" fill="#fc0"/>
        <path d="M264.6 389.8v-2.1h12.9v2.1z" fill="#30c"/>
        <path d="M264.6 389.8v-2.1h1.3v2.1z" fill="#36f"/>
        <path d="M276.3 389.8v-2.1h1.2v2.1z" fill="#006"/>
        <path d="M264.6 393.3h4.5c.6 0 1 .5 1 1v1.9c0 .5-.4 1-1 1h-4.5zM277.5 397.2H273c-.5 0-1-.5-1-1v-1.9c0-.5.5-1 1-1h4.5z" fill="#fff"/>
        <path d="M276.3 393.3h1.2v3.9h-1.2z" fill="#999"/>
        <path d="M277.5 387.7v10.9c0 1.1-.9 2-2 2h-8.9c-1.1 0-2-.9-2-2v-10.9z" fill="none" stroke="#000"/>
    </g>
</svg>
