<svg xmlns="http://www.w3.org/2000/svg" width="24" height="24">
	<g transform="translate(-264,-386)" id="KDDI_D_797">
		<g>
			<path style="stroke:none; fill:none" d="M 288 409.89L 264 409.89L 264 385.89L 288 385.89L 288 409.89z"/>
		</g>
		<g>
			<path style="stroke:#666; stroke-width:1; fill:#fff" d="M 285.5 407.39C 285.5 408.49 284.6 409.39 283.5 409.39L 268.5 409.39C 267.4 409.39 266.5 408.49 266.5 407.39L 266.5 388.39C 266.5 387.29 267.4 386.39 268.5 386.39L 283.5 386.39C 284.6 386.39 285.5 387.29 285.5 388.39L 285.5 407.39z"/>
			<path style="stroke:none; fill:#60c" d="M 280.5 403.89C 280.5 403.39 280.5 402.39 280.5 402.39L 284.5 400.89L 276 400.89L 267.5 400.89L 271.5 402.39C 271.5 402.39 271.5 403.39 271.5 403.89C 271.5 404.39 271.5 406.39 270.5 406.39C 270.5 406.39 273 406.39 274 404.39L 276 407.39L 278 404.39C 279 406.39 281.5 406.39 281.5 406.39C 280.5 406.39 280.5 404.39 280.5 403.89z"/>
			<path style="stroke:#666; stroke-width:1; fill:none" d="M 285.5 407.39C 285.5 408.49 284.6 409.39 283.5 409.39L 268.5 409.39C 267.4 409.39 266.5 408.49 266.5 407.39L 266.5 388.39C 266.5 387.29 267.4 386.39 268.5 386.39L 283.5 386.39C 284.6 386.39 285.5 387.29 285.5 388.39L 285.5 407.39z"/>
			<g>
				<path style="stroke:none; fill:#93f" d="M 284.5 400.89L 281.143 400.89L 279 403.89C 279 403.89 279.796 405.469 281.029 406.17C 280.509 405.648 280.5 404.292 280.5 403.89C 280.5 403.39 280.5 402.39 280.5 402.39L 284.5 400.89z"/>
				<path style="stroke:none; fill:#93f" d="M 274.5 403.39L 276 406.39L 277.5 403.39L 279.5 400.89L 276 400.89L 273 400.89L 274.5 403.39z"/>
				<path style="stroke:none; fill:#93f" d="M 270.5 406.39C 270.5 406.39 270.768 406.388 271.161 406.319C 271.552 406.134 272.596 405.505 273 403.89L 271.286 400.89L 267.5 400.89L 271.5 402.39C 271.5 402.39 271.5 403.39 271.5 403.89C 271.5 404.39 271.5 406.39 270.5 406.39z"/>
			</g>
			<path style="stroke:none; fill:#c00" d="M 277 400.89C 279 400.89 280.5 398.39 280.5 397.39C 280.5 396.39 280.5 396.39 280.5 394.39C 280.5 392.39 280.5 391.39 281.5 391.39C 282.5 391.39 283.5 392.39 283.5 392.39C 283.5 391.89 282.5 389.39 279.5 389.39C 276.5 389.39 276 393.39 276 393.39C 276 393.39 275.5 389.39 272 389.39C 268.5 389.39 268.5 392.39 268.5 392.39C 268.5 392.39 269 390.89 271 390.89C 273 390.89 273 392.39 273 393.39C 273 394.39 273 394.89 273 394.89"/>
			<path style="stroke:none; fill:#c00" d="M 268.95 392.39C 268.95 392.915 268.525 393.34 268 393.34C 267.476 393.34 267.05 392.915 267.05 392.39C 267.05 391.865 267.476 391.44 268 391.44C 268.525 391.44 268.95 391.865 268.95 392.39z"/>
			<path style="stroke:none; fill:#c00" d="M 284.95 392.39C 284.95 392.915 284.525 393.34 284 393.34C 283.476 393.34 283.05 392.915 283.05 392.39C 283.05 391.865 283.476 391.44 284 391.44C 284.525 391.44 284.95 391.865 284.95 392.39z"/>
			<path style="stroke:none; fill:#f96" d="M 274 400.89C 273.542 399.973 273 398.89 272.5 398.89C 271 398.89 271.5 400.89 270.5 400.89C 269.5 400.89 269.5 399.89 269.5 399.39C 269.5 399.39 269.5 397.89 270.5 396.89C 271.5 395.89 272.5 394.89 273.5 394.89C 274 394.89 276 394.89 276.5 395.39C 277 395.89 277 397.89 277 398.89C 277 399.89 277 400.89 277 401.39C 277 401.89 277 402.39 276 402.39C 274.5 402.39 274.5 401.89 274 400.89z"/>
			<path style="stroke:none; fill:#fff" d="M 274 395.94C 274.427 395.94 274.775 396.227 274.895 396.614C 274.922 396.526 274.95 396.437 274.95 396.339C 274.95 395.815 274.525 395.39 274 395.39C 273.476 395.39 273.05 395.815 273.05 396.339C 273.05 396.437 273.079 396.526 273.106 396.614C 273.225 396.227 273.573 395.94 274 395.94z"/>
			<path style="stroke:none; fill:#f90" d="M 268.95 400.89C 268.95 401.414 268.525 401.839 268 401.839C 267.476 401.839 267.05 401.414 267.05 400.89C 267.05 400.365 267.476 399.94 268 399.94C 268.525 399.94 268.95 400.365 268.95 400.89z"/>
			<path style="stroke:none; fill:#f90" d="M 271.45 406.39C 271.45 406.914 271.025 407.339 270.5 407.339C 269.976 407.339 269.55 406.914 269.55 406.39C 269.55 405.865 269.976 405.44 270.5 405.44C 271.025 405.44 271.45 405.865 271.45 406.39z"/>
			<path style="stroke:none; fill:#f90" d="M 276.95 407.89C 276.95 408.414 276.525 408.84 276 408.84C 275.476 408.84 275.05 408.414 275.05 407.89C 275.05 407.365 275.476 406.94 276 406.94C 276.525 406.94 276.95 407.365 276.95 407.89z"/>
			<path style="stroke:none; fill:#f90" d="M 282.45 406.39C 282.45 406.914 282.024 407.339 281.5 407.339C 280.976 407.339 280.55 406.914 280.55 406.39C 280.55 405.865 280.976 405.44 281.5 405.44C 282.024 405.44 282.45 405.865 282.45 406.39z"/>
			<path style="stroke:none; fill:#f90" d="M 284.95 400.89C 284.95 401.414 284.524 401.839 284 401.839C 283.476 401.839 283.05 401.414 283.05 400.89C 283.05 400.365 283.476 399.94 284 399.94C 284.524 399.94 284.95 400.365 284.95 400.89z"/>
		</g>
	</g>
</svg>
