<svg xmlns="http://www.w3.org/2000/svg" width="24" height="24">
	<g transform="translate(-264,-386)" id="KDDI_D_798">
		<g>
			<path style="stroke:none; fill:none" d="M 288 409.89L 264 409.89L 264 385.89L 288 385.89L 288 409.89z"/>
		</g>
		<g>
			<path style="stroke:none; fill:#960" d="M 283.5 392.89C 283.5 392.89 281 395.89 278 396.39C 276.408 396.655 271 396.89 268.5 398.39C 266.275 399.725 264.5 401.408 264.5 403.89C 264.5 409.89 271 409.39 272 409.39C 274.5 409.39 278 408.39 281 405.89C 284 403.39 287.5 398.39 287.5 394.39C 287.5 392.39 287.5 391.89 287.5 391.89"/>
			<path style="stroke:none; fill:#c93" d="M 286 391.918L 283 392.89C 283 392.89 281 396.39 278 396.39C 276.386 396.39 270.5 396.89 268.5 398.39C 266.424 399.946 264.5 401.39 264.5 403.39C 264.5 404.823 265.421 405.56 266 406.39C 267.984 407.787 270.385 407.89 271 407.89C 273.5 407.89 276.5 406.89 279.5 404.39C 282.5 401.89 286 396.89 286 392.89C 286 392.508 286 392.197 286 391.918z"/>
			<path style="stroke:none; fill:#960" d="M 267.5 404.89L 270 407.39L 270 404.89L 267.5 404.89z"/>
			<path style="stroke:none; fill:#960" d="M 272.5 402.89L 275 405.39L 275 402.89L 272.5 402.89z"/>
			<path style="stroke:none; fill:#960" d="M 276.5 400.89L 279 403.39L 279 400.89L 276.5 400.89z"/>
			<path style="stroke:none; fill:#960" d="M 279 398.39L 281.5 400.89L 281.5 398.39L 279 398.39z"/>
			<path style="stroke:none; fill:#fc6" d="M 268 405.39L 269.5 406.89L 269.5 405.39L 268 405.39z"/>
			<path style="stroke:none; fill:#fc6" d="M 279.5 398.89L 281 400.39L 281 398.89L 279.5 398.89z"/>
			<path style="stroke:none; fill:#fc6" d="M 273 403.39L 274.5 404.89L 274.5 403.39L 273 403.39z"/>
			<path style="stroke:none; fill:#fc6" d="M 277 401.39L 278.5 402.89L 278.5 401.39L 277 401.39z"/>
			<path style="stroke:none; fill:#fc6" d="M 282.5 396.89L 284 398.39L 284 396.89L 282.5 396.89z"/>
			<path style="stroke:none; fill:#960" d="M 281 395.39L 282.5 396.89L 282.5 395.39L 281 395.39z"/>
			<path style="stroke:none; fill:#960" d="M 274.5 396.89L 276 398.39L 276 396.89L 274.5 396.89z"/>
			<path style="stroke:none; fill:#960" d="M 275 399.39L 276.5 400.89L 276.5 399.39L 275 399.39z"/>
			<path style="stroke:none; fill:#960" d="M 277.5 396.89L 279 398.39L 279 396.89L 277.5 396.89z"/>
			<path style="stroke:none; fill:#960" d="M 279 396.39L 280.5 397.89L 280.5 396.39L 279 396.39z"/>
			<path style="stroke:none; fill:#960" d="M 272.5 396.89L 274 398.39L 274 396.89L 272.5 396.89z"/>
			<path style="stroke:none; fill:#960" d="M 268.5 397.89L 270 399.39L 270 397.89L 268.5 397.89z"/>
			<path style="stroke:none; fill:#960" d="M 267 399.39L 268.5 400.89L 268.5 399.39L 267 399.39z"/>
			<path style="stroke:none; fill:#960" d="M 265.5 400.89L 267 402.39L 267 400.89L 265.5 400.89z"/>
			<path style="stroke:none; fill:#960" d="M 271 401.39L 272.5 402.89L 272.5 401.39L 271 401.39z"/>
			<path style="stroke:none; fill:#960" d="M 268.5 400.89L 270 402.39L 270 400.89L 268.5 400.89z"/>
			<path style="stroke:none; fill:#960" d="M 271.5 399.39L 273 400.89L 273 399.39L 271.5 399.39z"/>
			<path style="stroke:none; fill:#960" d="M 273.5 401.39L 275 402.89L 275 401.39L 273.5 401.39z"/>
			<path style="stroke:none; fill:#fc6" d="M 265.5 402.39L 267 403.89L 267 402.39L 265.5 402.39z"/>
			<path style="stroke:none; fill:#f63" d="M 282 393.89L 282 385.89L 285 387.89L 288 385.89L 288 393.89L 282 393.89z"/>
			<path style="stroke:#630; stroke-width:1; fill:none" d="M 283.5 392.89C 283.5 392.89 281 395.89 278 396.39C 276.408 396.655 271 396.89 268.5 398.39C 266.275 399.725 264.5 401.408 264.5 403.89C 264.5 409.89 271 409.39 272 409.39C 274.5 409.39 278 408.39 281 405.89C 284 403.39 287.5 398.39 287.5 394.39C 287.5 392.39 287.5 391.89 287.5 391.89"/>
			<path style="stroke:none; fill:#f30" d="M 282 385.89L 282 393.89L 284 393.89L 284 389.89L 282 385.89z"/>
			<path style="stroke:none; fill:#c30" d="M 288 385.89L 285 391.89L 284 389.89L 284 393.89L 288 393.89L 288 385.89z"/>
		</g>
	</g>
</svg>
