<svg xmlns="http://www.w3.org/2000/svg" height="24" width="24">
    <g transform="matrix(1,0,0,-1,-264,408)" id="KDDI_D_">        <path d="M277.4 391.4c-2 0-2.6 1.6-2.6 1.9v2h5v-1.9c0-.4-.4-2-2.4-2z" fill="#036"/>
        <path d="M277.9 401.9H276v2h1.9z" fill="#f90"/>
        <path d="M277.9 401.9h-.7v2h.7z" fill="#c60"/>
        <path d="M274.9 407.5c-.2-.3-.3-.7-.3-1.1v-1.7c0-1.1.8-1.9 1.8-1.9s1.8.8 1.8 1.9v1.7c0 .4-.2.8-.4 1.1z" fill="#f90"/>
        <path d="M275 407.5c-.1 0-.2-.1-.2-.2 1-.2 2-.3 2-.8V404c0-.5-.4-.7-.3-1 0-.1.1-.2.2-.2.8.1 1.5.9 1.5 1.9v1.7c0 .4-.2.8-.4 1.1z" fill="#c60"/>
        <path d="M274.6 391.9c-.4-.3-1-.2-1.2.3-.3.4-.2.9.2 1.2l.8.5c.4.2 1 .1 1.2-.3.3-.4.2-1-.2-1.3z" fill="#f90"/>
        <path d="M275.8 393.1c-.3.4-.8.5-1.2.2l-.8-.4c-.2-.2-.4-.5-.4-.8.3-.4.8-.5 1.2-.2l.8.4c.2.2.4.5.4.8z" fill="#c60"/>
        <path d="M276.2 396.8c-.2-1.1-2-2.6-2-2.6l1.9-1.7s2.5 3 2.6 4.1c.2 1.1 0 4.5-.4 5.1-.3.6-1.1.9-1.8.6-.7-.3-.7-1-.7-1.8.1-.7.6-2.6.4-3.7z" fill="#090"/>
        <path d="M276.1 400.1c-.1.7 0 1.5.7 1.8.6.2.4.7-.3.4-.7-.3-.7-1-.7-1.8.1-.7.6-2.6.4-3.7-.2-1.1-2-2.6-2-2.6l.4-.4c.4.4 1.6 1.6 1.8 2.6.3 1.1-.3 3-.3 3.7z" fill="#3c0"/>
        <path d="M275.4 393.1l.7-.6s2.5 3 2.6 4.1c.2 1.1 0 4.6-.3 5.1-.4.6-.7.6-.9.7.9-1.4.7-4.1.5-5.2-.1-1-2.1-3.5-2.6-4.1z" fill="#063"/>
        <path d="M277.4 402.7c-2 0-2.6-.6-2.6-1.9v-5.6h5v5.6c0 .9-.4 1.9-2.4 1.9z" fill="#090"/>
        <path d="M275 401.6c-.1-.2-.2-.5-.2-.8v-5.6h.5v5.6c0 .2.1.5.1.7.2.7-.2.8-.4.1z" fill="#3c0"/>
        <path d="M277.4 402.7c-.3 0-.7-.1-.7-.1s-.7-.1-.3-.6c.6-.7 2.2-.7 2.2-1.2v-5.6h1.2v5.6c0 .9-.4 1.9-2.4 1.9z" fill="#063"/>
        <path d="M277.5 408h-1.9c-.6 0-1-.5-1-1.1v-.1h2v-.7c0-.3.2-.6.5-.6h.4v-2.3c.5 0 1 .5 1 1.1v2.6c0 .6-.5 1.1-1 1.1z" fill="#036"/>
        <path d="M277.5 405.5c-.3 0-.5.3-.5.6v.7h-.6.2v-.7c0-.3.2-.6.5-.6h.4v-2.3c.2 0 .3.1.5.2v2.1z" fill="#036"/>
        <path d="M276 408h-.4c-.6 0-1-.5-1-1.1v-.1h.4v.1c0 .6.5 1.1 1 1.1z" fill="#666"/>
        <path d="M275 406.8h.2-.2z" fill="#036"/>
        <path d="M274.7 405.5h1.2" fill="none" stroke="#c60" stroke-width=".75"/>
        <path d="M277.5 408h-.1v-2.5h.1v-2.3c.5 0 1 .5 1 1.1v2.6c0 .6-.5 1.1-1 1.1z"/>
        <path d="M274.8 395.3s.1-1.1 0-2c0-.9 1.8-7.7 1.8-7.7h3s-1.4 4.7-1.3 5.7c0 .7 1.5 1.7 1.5 2.1v1.9z" fill="#33f"/>
        <path d="M275.4 395.3h-.6s.1-1.1 0-2c0-.9 1.8-7.7 1.8-7.7h.5s-1.7 6.8-1.7 7.7v2z" fill="#39f"/>
        <path d="M279.8 395.3h-.8v-1.9c0-.4-1.5-1.4-1.6-2.1-.1-1 1.4-5.7 1.4-5.7h.8s-1.4 4.7-1.3 5.7c0 .7 1.5 1.7 1.5 2.1v1.9z" fill="#036"/>
        <path d="M279.6 385.8h-4.5c-.6 0-1-.5-1-1v-.8h5.5z" fill="#930"/>
        <path d="M279.6 384v1.4h-2.8c-.5 0-1-.5-1-1v-.4z" fill="#300"/>
        <path d="M274.8 395.3v-2-.2c-.4-.3-.8-.7-.9-.8-.9-.6-.7-1.5-.6-1.9.2-.8 3.3-3.2 3.3-3.2l1.7 1.9-2 1.8s.4.3.9.5h.2c2 0 2.4 1.6 2.4 2v1.9z" fill="#33f"/>
        <path d="M273.8 390.4c-.1.4-.4 1.3.5 1.9.2.1.5.5 1 .8v2.2h-.5v-2-.2c-.4-.3-.8-.7-.9-.8-.9-.6-.7-1.5-.6-1.9.2-.8 3.3-3.2 3.3-3.2l.1.2c-.7.6-2.8 2.3-2.9 3z" fill="#39f"/>
        <path d="M276.6 387.2l.8.9-1.1-.7c.2-.1.3-.2.3-.2z" fill="#33f"/>
        <path d="M279.3 395.3v-1.5c0-1.5-2.6-2.1-2.6-2.1-.5-.3-1.1-.7-1.1-.7l2.2-2.4.5.5-2 1.8s.4.3.9.5h.2c2 0 2.4 1.6 2.4 2v1.9z" fill="#036"/>
        <path d="M278.1 388.6l-.2.2-.5-.7zM277.2 391.4h-.1H277.4h-.2z" fill="#33f"/>
        <path d="M278.3 389.3l-3.4-2.1c-.5-.3-.6-.8-.3-1.2l.3-.6 4.2 2.6z" fill="#930"/>
        <path d="M279.1 388l-.7 1-2.1-1.3c-.4-.3-.5-.8-.3-1.2l.2-.3z" fill="#300"/>
        <path d="M281.1 394.4c.5-.3.6-.9.3-1.3l-.3-.6c-.3-.5-.9-.6-1.4-.4-.4.3-.6.9-.3 1.4l.4.6c.3.4.9.6 1.3.3z" fill="#f90"/>
        <path d="M280.2 393.8c-.3-.5-.1-1 .3-1.3.2-.1.3-.1.5-.2 0 .1 0 .1.1.2l.3.6c.3.4.2 1-.3 1.3-.1.1-.3.1-.4.1-.1 0-.1-.1-.1-.1z" fill="#c60"/>
        <path d="M278.8 397.1c.5-1 .5-3.5.5-3.5l2.5.2s-.3 3.7-.8 4.7c-.5.9-2.1 3.4-2.7 3.7-.6.2-1.4.1-1.8-.6-.4-.6 0-1.3.4-1.8.5-.6 1.5-1.6 1.9-2.7z" fill="#090"/>
        <path d="M279.3 397.1c-.4 1-1.4 2.1-1.9 2.6-.4.6-.8 1.2-.4 1.8.2.5.7.7 1.1.7-.6.2-1.3 0-1.6-.6-.4-.6 0-1.3.4-1.8.5-.6 1.5-1.6 1.9-2.7.5-1 .5-3.5.5-3.5l.5.1c0 .4-.1 2.4-.5 3.4z" fill="#3c0"/>
        <path d="M276.9 402.1c.3 0 .5 0 .7-.1.7-.3 2.3-2.8 2.8-3.7.4-.9.7-3.8.8-4.6l.6.1s-.3 3.7-.8 4.7c-.5.9-2.1 3.4-2.7 3.7-.4.2-.9.1-1.4-.1z" fill="#063"/>
    </g>
</svg>
