<svg xmlns="http://www.w3.org/2000/svg" width="24" height="24">
	<g transform="translate(-264,-386)" id="KDDI_D_801">
		<g>
			<path style="stroke:none; fill:none" d="M 288 409.89L 264 409.89L 264 385.89L 288 385.89L 288 409.89z"/>
		</g>
		<g>
			<path style="stroke:none; fill:#f60" d="M 281.837 405.89C 282.088 406.072 288 409.89 288 409.89L 288 397.39C 288 394.745 285.411 390.89 282.5 390.89L 276 390.89L 269.5 390.89C 266.589 390.89 264 394.745 264 397.39L 264 409.89C 264 409.89 269.912 406.072 270.163 405.89C 270.47 405.89 281.529 405.89 281.837 405.89z"/>
			<path style="stroke:none; fill:#f90" d="M 270.163 405.89C 270.47 405.89 281.529 405.89 281.837 405.89C 282.023 406.025 285.304 408.148 287 409.244C 287 404.387 287 397.39 287 397.39C 287 394.39 283.5 390.89 276 390.89C 268.5 390.89 265 394.39 265 397.39C 265 397.39 265 403.668 265 409.244C 266.696 408.148 269.977 406.025 270.163 405.89z"/>
			<path style="stroke:none; fill:#fc3" d="M 270.163 405.89C 270.47 405.89 281.529 405.89 281.837 405.89C 281.991 406.001 284.259 407.471 286 408.597C 286 403.146 286 397.39 286 397.39C 286 395.737 284.5 390.89 276 390.89C 267.5 390.89 266 395.737 266 397.39C 266 397.39 266 403.146 266 408.597C 267.741 407.471 270.009 406.001 270.163 405.89z"/>
			<path style="stroke:none; fill:#ff6" d="M 270.163 405.89C 270.47 405.89 281.529 405.89 281.837 405.89C 281.934 405.96 282.879 406.575 284 407.302C 284 402.478 284 397.39 284 397.39C 284 396.695 283.312 392.89 276 392.89C 268.688 392.89 268 396.695 268 397.39C 268 397.39 268 402.478 268 407.302C 269.121 406.575 270.066 405.96 270.163 405.89z"/>
			<path style="stroke:none; fill:#666" d="M 270 405.89L 270 409.89L 282 409.89L 282 405.89L 270 405.89z"/>
			<path style="stroke:none; fill:#999" d="M 281 409.89L 271 409.89L 271 405.89L 281 405.89L 281 409.89z"/>
			<path style="stroke:none; fill:#ccc" d="M 277 409.89L 275 409.89L 275 405.89L 277 405.89L 277 409.89z"/>
			<path style="stroke:none; fill:#c00" d="M 282 405.89L 282 397.89C 282 396.24 280.65 394.89 279 394.89L 273 394.89C 271.35 394.89 270 396.24 270 397.89L 270 405.89L 282 405.89z"/>
			<path style="stroke:none; fill:#f00" d="M 271 400.89C 271 402.978 271.89 404.815 273.238 405.89L 278.762 405.89C 280.11 404.815 281 402.978 281 400.89C 281 397.576 278.761 394.89 276 394.89C 273.239 394.89 271 397.576 271 400.89z"/>
			<path style="stroke:none; fill:#f63" d="M 271 400.89C 271 403.647 273.243 405.89 276 405.89C 278.757 405.89 281 403.647 281 400.89C 281 398.133 278.757 395.89 276 395.89C 273.243 395.89 271 398.133 271 400.89z"/>
			<path style="stroke:none; fill:#f99" d="M 273 400.89C 273 402.544 274.346 403.89 276 403.89C 277.654 403.89 279 402.544 279 400.89C 279 399.235 277.654 397.89 276 397.89C 274.346 397.89 273 399.235 273 400.89z"/>
		</g>
		<g>
			<path style="stroke:none; fill:#666" d="M 270 405.89L 270 409.89L 282 409.89L 282 405.89L 270 405.89z"/>
			<path style="stroke:none; fill:#999" d="M 281 409.89L 271.5 409.89L 271.5 405.89L 281 405.89L 281 409.89z"/>
			<path style="stroke:none; fill:#ccc" d="M 273 409.89L 271 409.89L 271 405.89L 273 405.89L 273 409.89z"/>
			<path style="stroke:none; fill:#c00" d="M 282 405.89L 282 397.89C 282 396.24 280.65 394.89 279 394.89L 273 394.89C 271.35 394.89 270 396.24 270 397.89L 270 405.89L 282 405.89z"/>
			<path style="stroke:none; fill:#f00" d="M 276 394.89C 275.657 394.89 275.323 394.932 275 395.01L 275 405.89L 281 405.89C 281 404.89 281 402.978 281 400.89C 281 397.576 278.761 394.89 276 394.89z"/>
			<path style="stroke:none; fill:#f66" d="M 271.5 401.39C 271.5 403.044 272.846 404.39 274.5 404.39C 276.154 404.39 277.5 403.044 277.5 401.39C 277.5 399.735 276.154 398.39 274.5 398.39C 272.846 398.39 271.5 399.735 271.5 401.39z"/>
			<path style="stroke:none; fill:#f63" d="M 275 395.01C 272.718 395.567 271 397.987 271 400.89C 271 402.978 271 404.39 271 405.89L 275 405.89L 275 395.01z"/>
			<path style="stroke:none; fill:#f99" d="M 273 400.89C 273 402.978 273 404.39 273 405.89L 275 405.89L 275 395.01C 274.755 395.07 273 396.39 273 400.89z"/>
		</g>
		<g>
			<path style="stroke:none; fill:#f60" d="M 276 390.89L 269.5 390.89C 266.589 390.89 264 394.745 264 397.39L 264 409.89C 264 409.89 269.912 406.072 270.163 405.89C 270.316 405.89 273.158 405.89 276 405.89L 276 390.89z"/>
			<path style="stroke:none; fill:#f90" d="M 276 390.89C 268.5 390.89 265 394.39 265 397.39C 265 397.39 265 403.668 265 409.244C 266.696 408.148 269.977 406.025 270.163 405.89C 270.316 405.89 273.158 405.89 276 405.89L 276 390.89z"/>
			<path style="stroke:none; fill:#fc3" d="M 276 390.89C 267.5 390.89 266 395.737 266 397.39C 266 397.39 266 403.146 266 408.597C 267.741 407.471 270.009 406.001 270.163 405.89C 270.316 405.89 273.158 405.89 276 405.89L 276 390.89z"/>
			<path style="stroke:none; fill:#ff6" d="M 276 392.89C 268.688 392.89 268 396.695 268 397.39C 268 397.39 268 402.478 268 407.302C 269.121 406.575 270.066 405.96 270.163 405.89C 270.316 405.89 273.158 405.89 276 405.89L 276 392.89z"/>
			<path style="stroke:none; fill:#666" d="M 270 405.89L 270 409.89L 282 409.89L 282 405.89L 270 405.89z"/>
			<path style="stroke:none; fill:#999" d="M 281 409.89L 271.5 409.89L 271.5 405.89L 281 405.89L 281 409.89z"/>
			<path style="stroke:none; fill:#ccc" d="M 273 409.89L 271 409.89L 271 405.89L 273 405.89L 273 409.89z"/>
			<path style="stroke:none; fill:#c00" d="M 282 405.89L 282 397.89C 282 396.24 280.65 394.89 279 394.89L 273 394.89C 271.35 394.89 270 396.24 270 397.89L 270 405.89L 282 405.89z"/>
			<path style="stroke:none; fill:#f00" d="M 276 394.89C 275.657 394.89 275.323 394.932 275 395.01L 275 405.89L 281 405.89C 281 404.89 281 402.978 281 400.89C 281 397.576 278.761 394.89 276 394.89z"/>
			<path style="stroke:none; fill:#f66" d="M 271.5 401.39C 271.5 403.044 272.846 404.39 274.5 404.39C 276.154 404.39 277.5 403.044 277.5 401.39C 277.5 399.735 276.154 398.39 274.5 398.39C 272.846 398.39 271.5 399.735 271.5 401.39z"/>
			<path style="stroke:none; fill:#f63" d="M 275 395.01C 272.718 395.567 271 397.987 271 400.89C 271 402.978 271 404.39 271 405.89L 275 405.89L 275 395.01z"/>
			<path style="stroke:none; fill:#f99" d="M 273 400.89C 273 402.978 273 404.39 273 405.89L 275 405.89L 275 395.01C 274.755 395.07 273 396.39 273 400.89z"/>
		</g>
		<g>
			<path style="stroke:none; fill:#666" d="M 270 405.89L 270 409.89L 282 409.89L 282 405.89L 270 405.89z"/>
			<path style="stroke:none; fill:#999" d="M 281 409.89L 271 409.89L 271 405.89L 281 405.89L 281 409.89z"/>
			<path style="stroke:none; fill:#ccc" d="M 277 409.89L 275 409.89L 275 405.89L 277 405.89L 277 409.89z"/>
			<path style="stroke:none; fill:#c00" d="M 282 405.89L 282 397.89C 282 396.24 280.65 394.89 279 394.89L 273 394.89C 271.35 394.89 270 396.24 270 397.89L 270 405.89L 282 405.89z"/>
			<path style="stroke:none; fill:#f00" d="M 271 400.89C 271 402.978 271.89 404.815 273.238 405.89L 278.762 405.89C 280.11 404.815 281 402.978 281 400.89C 281 397.576 278.761 394.89 276 394.89C 273.239 394.89 271 397.576 271 400.89z"/>
			<path style="stroke:none; fill:#f63" d="M 271 400.89C 271 403.647 273.243 405.89 276 405.89C 278.757 405.89 281 403.647 281 400.89C 281 398.133 278.757 395.89 276 395.89C 273.243 395.89 271 398.133 271 400.89z"/>
			<path style="stroke:none; fill:#c00" d="M 273 400.89C 273 402.544 274.346 403.89 276 403.89C 277.654 403.89 279 402.544 279 400.89C 279 399.235 277.654 397.89 276 397.89C 274.346 397.89 273 399.235 273 400.89z"/>
		</g>
		<g>
			<path style="stroke:none; fill:#f60" d="M 276 390.89L 282.5 390.89C 285.411 390.89 288 394.745 288 397.39L 288 409.89C 288 409.89 282.088 406.072 281.837 405.89C 281.684 405.89 278.842 405.89 276 405.89L 276 390.89z"/>
			<path style="stroke:none; fill:#f90" d="M 276 390.89C 283.5 390.89 287 394.39 287 397.39C 287 397.39 287 403.668 287 409.244C 285.304 408.148 282.023 406.025 281.837 405.89C 281.684 405.89 278.842 405.89 276 405.89L 276 390.89z"/>
			<path style="stroke:none; fill:#fc3" d="M 276 390.89C 284.5 390.89 286 395.737 286 397.39C 286 397.39 286 403.146 286 408.597C 284.259 407.471 281.991 406.001 281.837 405.89C 281.684 405.89 278.842 405.89 276 405.89L 276 390.89z"/>
			<path style="stroke:none; fill:#ff6" d="M 276 392.89C 283.312 392.89 284 396.695 284 397.39C 284 397.39 284 402.478 284 407.302C 282.879 406.575 281.934 405.96 281.837 405.89C 281.684 405.89 278.842 405.89 276 405.89L 276 392.89z"/>
			<path style="stroke:none; fill:#666" d="M 282 405.89L 282 409.89L 270 409.89L 270 405.89L 282 405.89z"/>
			<path style="stroke:none; fill:#999" d="M 271 409.89L 280.5 409.89L 280.5 405.89L 271 405.89L 271 409.89z"/>
			<path style="stroke:none; fill:#ccc" d="M 279 409.89L 281 409.89L 281 405.89L 279 405.89L 279 409.89z"/>
			<path style="stroke:none; fill:#c00" d="M 270 405.89L 270 397.89C 270 396.24 271.35 394.89 273 394.89L 279 394.89C 280.65 394.89 282 396.24 282 397.89L 282 405.89L 270 405.89z"/>
			<path style="stroke:none; fill:#f00" d="M 276 394.89C 276.343 394.89 276.677 394.932 277 395.01L 277 405.89L 271 405.89C 271 404.89 271 402.978 271 400.89C 271 397.576 273.239 394.89 276 394.89z"/>
			<path style="stroke:none; fill:#f66" d="M 280.5 401.39C 280.5 403.044 279.154 404.39 277.5 404.39C 275.846 404.39 274.5 403.044 274.5 401.39C 274.5 399.735 275.846 398.39 277.5 398.39C 279.154 398.39 280.5 399.735 280.5 401.39z"/>
			<path style="stroke:none; fill:#f63" d="M 277 395.01C 279.282 395.567 281 397.987 281 400.89C 281 402.978 281 404.39 281 405.89L 277 405.89L 277 395.01z"/>
			<path style="stroke:none; fill:#f99" d="M 279 400.89C 279 402.978 279 404.39 279 405.89L 277 405.89L 277 395.01C 277.245 395.07 279 396.39 279 400.89z"/>
		</g>
		<g>
			<path style="stroke:none; fill:#666" d="M 282 405.89L 282 409.89L 270 409.89L 270 405.89L 282 405.89z"/>
			<path style="stroke:none; fill:#999" d="M 271 409.89L 280.5 409.89L 280.5 405.89L 271 405.89L 271 409.89z"/>
			<path style="stroke:none; fill:#ccc" d="M 279 409.89L 281 409.89L 281 405.89L 279 405.89L 279 409.89z"/>
			<path style="stroke:none; fill:#c00" d="M 270 405.89L 270 397.89C 270 396.24 271.35 394.89 273 394.89L 279 394.89C 280.65 394.89 282 396.24 282 397.89L 282 405.89L 270 405.89z"/>
			<path style="stroke:none; fill:#f00" d="M 276 394.89C 276.343 394.89 276.677 394.932 277 395.01L 277 405.89L 271 405.89C 271 404.89 271 402.978 271 400.89C 271 397.576 273.239 394.89 276 394.89z"/>
			<path style="stroke:none; fill:#f66" d="M 280.5 401.39C 280.5 403.044 279.154 404.39 277.5 404.39C 275.846 404.39 274.5 403.044 274.5 401.39C 274.5 399.735 275.846 398.39 277.5 398.39C 279.154 398.39 280.5 399.735 280.5 401.39z"/>
			<path style="stroke:none; fill:#f63" d="M 277 395.01C 279.282 395.567 281 397.987 281 400.89C 281 402.978 281 404.39 281 405.89L 277 405.89L 277 395.01z"/>
			<path style="stroke:none; fill:#f99" d="M 279 400.89C 279 402.978 279 404.39 279 405.89L 277 405.89L 277 395.01C 277.245 395.07 279 396.39 279 400.89z"/>
		</g>
	</g>
</svg>
