<svg xmlns="http://www.w3.org/2000/svg" width="24" height="24">
	<g transform="translate(-288,-386)" id="KDDI_D_802">
		<g>
			<path style="stroke:none; fill:none" d="M 312 409.89L 288 409.89L 288 385.89L 312 385.89L 312 409.89z"/>
		</g>
		<g>
			<path style="stroke:#ff6600; stroke-width:0.8; fill:#ffffff" d="M 311.5 407.39C 311.5 408.49 310.6 409.39 309.5 409.39L 290.5 409.39C 289.4 409.39 288.5 408.49 288.5 407.39L 288.5 388.39C 288.5 387.29 289.4 386.39 290.5 386.39L 309.5 386.39C 310.6 386.39 311.5 387.29 311.5 388.39L 311.5 407.39z"/>
			<path style="stroke:none; fill:#ff6600" d="M 302.052 394.283L 301.917 394.439L 301.826 394.148C 301.752 393.796 301.383 393.499 301.022 393.499L 298.518 393.499C 297.129 393.485 296.5 394.042 296.294 394.282L 296.16 394.437L 296.069 394.148C 295.991 393.79 295.63 393.499 295.263 393.499L 292.761 393.499C 291.349 393.484 290.578 394.067 290.348 394.57C 290.253 394.778 290.267 394.935 290.323 395C 290.498 395.194 290.714 395.119 291.078 394.967C 291.621 394.743 292.364 394.434 293.084 395.697C 293.084 395.698 294.449 398.124 294.449 398.124C 294.55 398.569 294.557 399.248 294.475 399.665C 294.468 399.685 292.073 405.328 292.073 405.328C 292.049 405.473 292.085 405.629 292.181 405.744C 292.276 405.86 292.422 405.924 292.592 405.924L 295.094 405.924C 295.46 405.924 295.815 405.63 295.884 405.268C 295.89 405.248 298.284 399.605 298.284 399.605C 298.315 399.439 298.33 399.213 298.33 398.979C 298.33 398.699 298.309 398.408 298.264 398.195C 298.259 398.195 296.623 395.179 296.623 395.179L 296.568 395.08L 296.838 394.97C 297.378 394.744 298.119 394.435 298.84 395.697C 298.84 395.698 300.206 398.124 300.206 398.124C 300.306 398.575 300.312 399.254 300.231 399.665C 300.225 399.685 297.831 405.328 297.831 405.328C 297.805 405.472 297.84 405.628 297.935 405.743C 298.031 405.86 298.177 405.924 298.347 405.924L 300.85 405.924C 301.215 405.924 301.57 405.63 301.642 405.268C 301.648 405.248 304.042 399.605 304.042 399.605C 304.073 399.437 304.09 399.21 304.09 398.973C 304.09 398.695 304.066 398.406 304.022 398.195C 304.017 398.195 302.381 395.179 302.381 395.179L 302.327 395.08L 302.595 394.97C 303.135 394.744 303.877 394.434 304.599 395.697C 304.599 395.698 305.963 398.124 305.963 398.124C 306.065 398.574 306.07 399.254 305.988 399.665C 305.982 399.685 303.589 405.328 303.589 405.328C 303.562 405.472 303.598 405.628 303.693 405.744C 303.79 405.86 303.936 405.924 304.105 405.924L 306.609 405.924C 306.975 405.924 307.328 405.63 307.397 405.268C 307.403 405.248 309.798 399.605 309.798 399.605C 309.829 399.439 309.845 399.213 309.845 398.979C 309.845 398.698 309.823 398.408 309.777 398.195C 309.772 398.195 307.594 394.175 307.594 394.175C 307.505 393.79 307.145 393.499 306.779 393.499L 304.276 393.499C 302.938 393.485 302.308 393.984 302.052 394.283z"/>
			<path style="stroke:none; fill:#ff6600" d="M 293.014 391.007C 293.014 391.611 293.506 392.101 294.11 392.101C 294.718 392.101 295.213 391.611 295.213 391.007C 295.213 390.4 294.718 389.906 294.11 389.906C 293.506 389.906 293.014 390.4 293.014 391.007z"/>
			<path style="stroke:none; fill:#ff6600" d="M 298.519 391.007C 298.519 391.611 299.012 392.101 299.616 392.101C 300.224 392.101 300.719 391.611 300.719 391.007C 300.719 390.4 300.224 389.906 299.616 389.906C 299.012 389.906 298.519 390.4 298.519 391.007z"/>
			<path style="stroke:none; fill:#ff6600" d="M 304.024 391.007C 304.024 391.611 304.52 392.101 305.127 392.101C 305.732 392.101 306.224 391.611 306.224 391.007C 306.224 390.4 305.732 389.906 305.127 389.906C 304.52 389.906 304.024 390.4 304.024 391.007z"/>
		</g>
	</g>
</svg>
