<svg xmlns="http://www.w3.org/2000/svg" height="24" width="24">
    <g transform="matrix(1,0,0,-1,-264,408)" id="KDDI_D_">        <path d="M273.2 401c-.4.6-1.5 1.7-3.3 1.7-2.6 0-4.3-2-4.3-5.1 0-2.6 1.8-4.5 2.8-5.5l.2-.2c.8-.8 1.4-1.5 4.4-4.2l.2-.2.2.2c3 2.7 3.7 3.4 4.5 4.2l.1.2c1 1 2.8 2.9 2.8 5.5 0 3.1-1.7 5.1-4.3 5.1-1.8 0-2.8-1.1-3.3-1.7z" fill="#f39"/>
        <path d="M271.8 392.3c-1.3.6-2.4 1.5-2.8 2-.7.6-2.1 2.1-2.1 3.9 0 1.2.6 2.4 2.3 2.4.9 0 1.7-.7 2-1.1 0 0-1.4-.1-1.4-1.9 0-1.2-.1-2.2 2-5.3z" fill="#f69"/>
        <path d="M267.2 398.2c0-1.7 1.2-3 2-3.7.3-.3.9-.8 1.6-1.3-1.3 2.2-1.3 3.2-1.3 4.2v.2c0 1.2.6 1.8 1.1 2.1-.3.3-.9.6-1.4.6-1.8 0-2-1.4-2-2.1z" fill="#f9c"/>
        <path d="M267.9 398.2c0-1.1.6-2.1 1.2-2.7-.2.7-.3 1.3-.3 2v.1c0 .9.3 1.5.7 2-.1 0-.2.1-.3.1-.4 0-1.3 0-1.3-1.5z" fill="#fff"/>
        <path d="M276.5 402.7c-.5 0-.9-.1-1.3-.3-.2 0-.4-.1-.6-.2-.1 0-.1-.1-.1-.1-.4-.2-.7-.5-.9-.7-.1 0-.1 0-.1-.1l-.3-.3c-.3.4-1 1.1-2 1.5 1.1-.5 1.8-1.6 2-3 .1.8.4 1.4.9 2 .5.5 1.3.7 2.3.7 1.9 0 2.9-2.4 2.5-4.6-.3-2-1.1-2.9-1.9-3.8l-.5-.6c-.7-.7-1.2-1.2-3.3-3.1-1.4.4-3.5 1.8-4.9 3.1-1 .9-2.7 2.6-2.7 4.4 0-2.6 1.8-4.5 2.8-5.5l.2-.2c.8-.8 1.4-1.5 4.4-4.2l.2-.2.2.2c3 2.7 3.7 3.4 4.5 4.2l.1.2c1 1 2.8 2.9 2.8 5.5 0 3.1-1.7 5.1-4.3 5.1z" fill="#c36"/>
        <path d="M277.9 391.9l.1.2c1 1 2.8 2.9 2.8 5.5 0 3-1.5 4.9-4 5 2.1-.2 3.5-2.1 3.4-5-.1-1.8-1.6-3.5-2.6-4.5l-.2-.3c-.8-.8-1.4-1.5-4.2-4v-1.3l.2.2c3 2.7 3.7 3.4 4.5 4.2z" fill="#906"/>
        <path d="M277.9 391.9l.1.2c1 1 2.8 2.9 2.8 5.5v.6c-.2-3-2.5-5.2-3.4-6.2l-.2-.2c-.8-.8-1.2-1.3-4-3.8v-.5l.2.2c3 2.7 3.7 3.4 4.5 4.2z" fill="#603"/>
        <path d="M280.7 404.1s1.6-.4 2.4-1.8c.8-1.5.4-3.2.4-3.2M283 407.2s2.1-.4 3.4-2.6c1-1.6.7-4.7.7-4.7" fill="none" stroke="#f39" stroke-width="1.7" stroke-linecap="round"/>
    </g>
</svg>
