<svg xmlns="http://www.w3.org/2000/svg" height="24" width="24">
    <g transform="matrix(1,0,0,-1,-264,408)" id="KDDI_D_">        <path d="M272.4 385.3v3h-2.1v-3c-.9 0-1.6-.6-1.7-1.3h5.5c-.1.7-.8 1.3-1.7 1.3z" fill="#f60"/>
        <path d="M272.4 385.3v3h-1v-3h.1c.8 0 1.5-.6 1.7-1.3h.9c-.1.7-.8 1.3-1.7 1.3z" fill="#c30"/>
        <path d="M281.7 385.3v3h-2.1v-3c-.9 0-1.6-.6-1.7-1.3h5.5c-.1.7-.8 1.3-1.7 1.3z" fill="#f60"/>
        <path d="M281.7 385.3v3h-1v-3h.1c.8 0 1.5-.6 1.7-1.3h.9c-.1.7-.8 1.3-1.7 1.3z" fill="#c30"/>
        <path d="M284.3 393.9c0-4.4-3.5-8-8-8h-.6c-4.5 0-8 3.6-8 8v6.1c0 4.4 3.5 8 8 8h.6c4.5 0 8-3.6 8-8z" fill="#fc0"/>
        <path d="M281.1 406.4c1.1-1.3 1.7-2.8 1.7-4.4v-5.9c0-4.3-4.1-7.7-9.2-7.7h-.7c-1.2 0-2.4.2-3.5.5 1.5-1.8 3.7-3 6.3-3h.6c4.5 0 8 3.6 8 8v6.1c0 2.6-1.2 4.9-3.2 6.4z" fill="#f90"/>
        <path d="M282.3 405.3c.8-1.2 1.3-2.7 1.3-4.2V395c0-3.2-3.7-7.6-8.3-7.6h-.7c-1.7 0-3.3.1-4.7.9 1.5-1.5 3.5-2.4 5.8-2.4h.6c4.5 0 8 3.6 8 8v6.1c0 2-.7 3.9-2 5.3z" fill="#c60"/>
        <path d="M276 386.7h-.7c-2.2 0-2.9.2-3.9.5 1.2-.8 2.7-1.3 4.3-1.3h.6c4.1 0 7.5 3.1 8 7-.9-3.6-4.3-6.2-8.3-6.2z" fill="#930"/>
        <path d="M282.5 395.9c.1 1.3.6 2.2.9 2.5.3.3 4.6-1.3 4.6-3.4 0-1.6-4.4-1.9-5-1.6-.7.3-.7 1.2-.5 2.5z" fill="#f90"/>
        <path d="M282.4 394.6c0-.6.1-1 .6-1.2.6-.3 5 0 5 1.6v.1c-.6.2-1.4.3-2.2.3-1.5 0-2.8-.3-3.4-.8z" fill="#c60"/>
        <path d="M269.5 395.9c-.1 1.3-.6 2.2-.9 2.5-.3.3-4.6-1.3-4.6-3.4 0-1.6 4.4-1.9 5-1.6.7.3.7 1.2.5 2.5z" fill="#f90"/>
        <path d="M269.6 394.6c0-.6-.1-1-.6-1.2-.6-.3-5 0-5 1.6v.1c.6.2 1.4.3 2.2.3 1.5 0 2.8-.3 3.4-.8z" fill="#c60"/>
        <path d="M270.1 395.9c-.2 1-.7 1.6-1 1.9-.3.2-4.5-1.5-4.5-2.6s4.3-1.4 5-1.1c.6.2.6.8.5 1.8zM281.7 395.9c.2 1 .6 1.6 1 1.9.3.2 4.7-1.5 4.7-2.6s-4.5-1.4-5.2-1.1c-.7.2-.7.8-.5 1.8z" fill="#fc0"/>
        <path d="M273.9 406.2c-1.5-.4-2.8-.8-3.9-2.8-.4-.8-.9-2.5-.9-4.1 0-.6.4-1 1-1 .5 0 1 .4 1 .9 0 1.4.4 2.7.6 3.2.8 1.3 1.4 1.5 2.7 1.8.5.2.8.7.7 1.2-.1.6-.7.9-1.2.8z" fill="#ff3"/>
        <path d="M273.4 399.5c0-.6-.5-1.2-1.2-1.2s-1.2.6-1.2 1.2c0 .7.5 1.3 1.2 1.3s1.2-.6 1.2-1.3zM278.6 399.5c0-.6.5-1.2 1.2-1.2s1.2.6 1.2 1.2c0 .7-.5 1.3-1.2 1.3s-1.2-.6-1.2-1.3z"/>
        <path d="M277.6 398.6l-1.6 1.9-1.6-1.9" fill="#f60"/>
        <path d="M277.6 398.6l-1.6-2-1.6 2" fill="#930"/>
    </g>
</svg>
