<svg xmlns="http://www.w3.org/2000/svg" width="24" height="24">
	<g transform="translate(-288,-386)" id="KDDI_D_807">
		<g>
			<path style="stroke:none; fill:none" d="M 312 409.89L 288 409.89L 288 385.89L 312 385.89L 312 409.89z"/>
		</g>
		<g>
			<g>
				<g>
					<path style="stroke:none; fill:#ff0000" d="M 307.969 401.884C 307.969 406.268 304.363 409.835 299.978 409.835C 304.93 409.835 308.945 405.836 308.977 400.892L 307.969 401.884z"/>
					<path style="stroke:none; fill:#ff9900" d="M 303.025 400.892L 303.025 402.934C 303.025 404.383 301.951 405.593 300.584 405.873C 302.529 405.578 304.029 403.91 304.029 401.884L 307.969 401.884L 308.977 400.892L 303.025 400.892z"/>
				</g>
				<g>
					<path style="stroke:none; fill:#ff0000" d="M 295.929 400.86L 296.969 401.86L 299.971 401.86L 297.556 400.86L 295.929 400.86z"/>
					<path style="stroke:none; fill:#ff0000" d="M 295.929 401.884C 295.929 403.911 297.429 405.578 299.373 405.873C 298.007 405.593 296.969 404.383 296.969 402.934L 296.969 401.86L 295.929 400.86L 295.929 401.884z"/>
					<path style="stroke:none; fill:#ff6600" d="M 297.556 400.86L 299.971 401.86L 294 395.892L 294 397.306L 297.556 400.86z"/>
					<path style="stroke:none; fill:#ff9900" d="M 294 397.306L 294 395.892L 288.031 401.86L 290.445 400.86L 294 397.306z"/>
					<path style="stroke:none; fill:#ff9900" d="M 292.029 401.884L 292.029 400.86L 291.042 401.86C 291.551 406.347 295.356 409.835 299.978 409.835C 295.595 409.835 292.029 406.268 292.029 401.884z"/>
					<path style="stroke:none; fill:#ff3300" d="M 290.445 400.86L 288.031 401.86L 291.042 401.86L 292.029 400.86L 290.445 400.86z"/>
				</g>
			</g>
			<g>
				<g>
					<path style="stroke:none; fill:#ff9900" d="M 292.008 393.883C 292.008 389.499 295.658 385.933 300.042 385.933C 295.091 385.933 291.073 389.932 291.042 394.876L 292.008 393.883z"/>
					<path style="stroke:none; fill:#ff0000" d="M 295.958 393.883L 292.008 393.883L 291.042 394.876L 296.958 394.876L 296.958 392.833C 296.958 391.384 298.069 390.174 299.436 389.894C 297.491 390.19 295.958 391.857 295.958 393.883z"/>
				</g>
				<g>
					<path style="stroke:none; fill:#ff9900" d="M 300.647 389.894C 302.014 390.174 303.042 391.384 303.042 392.833L 303.042 393.907L 300.051 393.907L 302.466 394.907L 304.042 394.907L 304.042 393.883C 304.042 391.857 302.593 390.189 300.647 389.894z"/>
					<path style="stroke:none; fill:#ff6600" d="M 302.466 394.907L 300.051 393.907L 306.021 399.876L 306.021 398.462L 302.466 394.907z"/>
					<path style="stroke:none; fill:#ff0000" d="M 306.021 398.462L 306.021 399.876L 311.989 393.907L 309.575 394.907L 306.021 398.462z"/>
					<path style="stroke:none; fill:#ff0000" d="M 307.992 393.883L 307.992 394.907L 308.979 393.907C 308.47 389.42 304.665 385.933 300.042 385.933C 304.426 385.933 307.992 389.499 307.992 393.883z"/>
					<path style="stroke:none; fill:#ff6600" d="M 309.575 394.907L 311.989 393.907L 308.979 393.907L 307.992 394.907L 309.575 394.907z"/>
				</g>
			</g>
			<path style="stroke:none; fill:#ff6600" d="M 304.029 401.884C 304.029 404.118 302.213 405.934 299.978 405.934C 297.746 405.934 295.929 404.118 295.929 401.884L 295.929 400.86L 297.556 400.86L 294 397.306L 290.445 400.86L 292.029 400.86L 292.029 401.884C 292.029 406.268 295.595 409.835 299.978 409.835C 304.363 409.835 307.969 406.268 307.969 401.884L 304.029 401.884z"/>
			<path style="stroke:none; fill:#ff6600" d="M 295.958 393.883C 295.958 391.65 297.809 389.833 300.042 389.833C 302.275 389.833 304.042 391.65 304.042 393.883L 304.042 394.907L 302.466 394.907L 306.021 398.462L 309.575 394.907L 307.992 394.907L 307.992 393.883C 307.992 389.499 304.426 385.933 300.042 385.933C 295.658 385.933 292.008 389.499 292.008 393.883L 295.958 393.883z"/>
		</g>
	</g>
</svg>