<svg xmlns="http://www.w3.org/2000/svg" width="24" height="24">
	<g transform="translate(-288,-386)" id="KDDI_D_808">
		<g>
			<path style="stroke:none; fill:none" d="M 312 409.89L 288 409.89L 288 385.89L 312 385.89L 312 409.89z"/>
		</g>
		<g>
			<path style="stroke:none; fill:#ff0000" d="M 293.984 393.337L 293.984 395.907L 294.984 394.907L 294.984 390.923L 293.984 393.337z"/>
			<path style="stroke:none; fill:#ff99cc" d="M 288.016 397.892L 289.43 397.892L 293.984 393.337L 294.984 390.923L 288.016 397.892z"/>
			<path style="stroke:none; fill:#ff6699" d="M 293.984 402.446L 289.43 397.892L 288.016 397.892L 294.984 404.86L 293.984 402.446z"/>
			<path style="stroke:none; fill:#ff0000" d="M 293.984 402.446L 294.984 404.86L 294.984 400.876L 305.016 400.876L 306.016 399.876L 293.984 399.876L 293.984 402.446z"/>
			<path style="stroke:none; fill:#ff99cc" d="M 305.016 400.876L 305.016 404.86L 306.016 402.446L 306.016 399.876L 305.016 400.876z"/>
			<path style="stroke:none; fill:#ff0000" d="M 310.57 397.892L 306.016 402.446L 305.016 404.86L 311.984 397.892L 310.57 397.892z"/>
			<path style="stroke:none; fill:#ff6699" d="M 305.016 390.923L 306.016 393.337L 310.57 397.892L 311.984 397.892L 305.016 390.923z"/>
			<path style="stroke:none; fill:#ff99cc" d="M 305.016 390.923L 305.016 394.907L 294.984 394.907L 293.984 395.907L 306.016 395.907L 306.016 393.337L 305.016 390.923z"/>
			<path style="stroke:none; fill:#ff6699" d="M 310.57 397.892L 306.016 393.337L 306.016 395.907L 293.984 395.907L 293.984 393.337L 289.43 397.892L 293.984 402.446L 293.984 399.876L 306.016 399.876L 306.016 402.446L 310.57 397.892z"/>
		</g>
	</g>
</svg>
