<svg xmlns="http://www.w3.org/2000/svg" width="24" height="24">
	<g transform="translate(-288,-386)" id="KDDI_D_809">
		<g>
			<path style="stroke:none; fill:none" d="M 312 409.89L 288 409.89L 288 385.89L 312 385.89L 312 409.89z"/>
		</g>
		<g>
			<path style="stroke:none; fill:#ff0000" d="M 295.445 391.876L 293.031 392.876L 297.016 392.876L 298.016 391.876L 295.445 391.876z"/>
			<path style="stroke:none; fill:#ff99cc" d="M 293.031 392.876L 295.445 391.876L 300 387.321L 300 385.907L 293.031 392.876z"/>
			<path style="stroke:none; fill:#ff6699" d="M 300 385.907L 300 387.321L 304.555 391.876L 306.969 392.876L 300 385.907z"/>
			<path style="stroke:none; fill:#ff0000" d="M 304.555 391.876L 301.984 391.876L 301.984 403.907L 302.984 402.907L 302.984 392.876L 306.969 392.876L 304.555 391.876z"/>
			<path style="stroke:none; fill:#ff99cc" d="M 304.555 403.907L 306.969 402.907L 302.984 402.907L 301.984 403.907C 301.984 403.907 303.805 403.907 304.555 403.907z"/>
			<path style="stroke:none; fill:#ff0000" d="M 304.555 403.907L 300 408.462L 300 409.876L 306.969 402.907L 304.555 403.907z"/>
			<path style="stroke:none; fill:#ff6699" d="M 295.445 403.907L 293.031 402.907L 300 409.876L 300 408.462L 295.445 403.907z"/>
			<path style="stroke:none; fill:#ff99cc" d="M 297.016 392.876L 297.016 402.907L 293.031 402.907L 295.445 403.907L 298.016 403.907L 298.016 391.876L 297.016 392.876z"/>
			<path style="stroke:none; fill:#ff6699" d="M 301.984 391.876L 304.555 391.876L 300 387.321L 295.445 391.876L 298.016 391.876L 298.016 403.907L 295.445 403.907L 300 408.462L 304.555 403.907L 301.984 403.907L 301.984 391.876z"/>
		</g>
	</g>
</svg>
