<svg xmlns="http://www.w3.org/2000/svg" width="24" height="24">
	<g transform="translate(-264,-386)" id="KDDI_D_810">
		<g>
			<path style="stroke:none; fill:none" d="M 288 409.89L 264 409.89L 264 385.89L 288 385.89L 288 409.89z"/>
		</g>
		<g>
			<path style="stroke:none; fill:#39f" d="M 288 409.89L 264 409.89L 264 385.89L 288 385.89L 288 409.89z"/>
			<path style="stroke:none; fill:#06f" d="M 272 400.873C 273.639 399.997 275.564 397.943 276.423 395.364C 276.43 395.34 276.811 394.095 276.811 394.095C 277.758 390.863 278.513 388.89 282 388.89C 283.305 388.89 284.254 389.128 284.673 389.56C 285.044 389.943 285.023 390.577 285.006 391.086C 285.006 391.097 285 391.368 285 391.368C 285 391.406 284.668 393.39 283 393.39C 282 393.39 281 396.89 281 396.89C 281 399.403 282.765 403.39 287.5 403.39L 288 403.39L 288 400.39L 287.5 400.39C 284.04 400.39 284 396.925 284 396.89C 284 396.89 284 396.57 284 396.27C 286.771 395.707 288 392.905 288 391.39C 288 391.412 288.005 391.173 288.005 391.173C 288.031 390.4 288.085 388.771 286.828 387.473C 285.811 386.422 284.187 385.89 282 385.89C 276.089 385.89 274.741 390.491 273.935 393.24L 273.939 393.23L 273.569 394.439C 272.808 396.721 270.906 398.225 270.403 398.39C 270.276 398.39 272 401.583 272 400.873z"/>
			<path style="stroke:none; fill:#06f" d="M 283.474 404.39L 280 404.39C 276.54 404.39 276.5 400.925 276.5 400.89C 276.5 400.89 276.5 400.57 276.5 400.27C 279.271 399.707 280.5 396.905 280.5 395.39C 280.5 395.412 280.505 395.173 280.505 395.173C 280.531 394.4 280.757 393.688 279.5 392.39C 278.483 391.339 276.687 390.89 274.5 390.89C 268.589 390.89 267.241 394.491 266.435 397.24L 266.439 397.23L 266.069 398.439C 265.628 399.761 264.789 400.857 264 401.586L 264 405.201L 264.47 404.95C 265.987 404.142 268.028 402.049 268.923 399.364C 268.93 399.34 269.311 398.095 269.311 398.095C 270.258 394.863 271.013 392.89 274.5 392.89C 275.805 392.89 276.754 393.128 277.173 393.56C 277.544 393.943 277.523 394.577 277.506 395.086C 277.506 395.097 277.5 395.368 277.5 395.368C 277.5 395.406 277.168 397.39 275.5 397.39C 274.5 397.39 273.5 400.89 273.5 400.89C 273.5 403.403 275.265 407.39 280 407.39L 283.5 407.39C 285.069 407.39 288 406.216 288 403.39C 288 403.39 283.655 404.378 283.474 404.39z"/>
			<path style="stroke:none; fill:#03c" d="M 288 401.89C 287.834 401.89 287.667 401.89 287.5 401.89C 283.5 401.89 282.5 398.39 282.5 396.89C 282.5 396.39 282.5 394.89 282.5 394.89L 283 394.89C 285.5 394.89 286.5 392.39 286.5 391.39C 286.5 390.39 287 387.39 282 387.39C 276.5 387.39 276 391.89 275 394.89C 274.051 397.736 271.5 399.89 270.5 399.89L 270.5 405.89L 288 405.89L 288 401.89z"/>
			<path style="stroke:none; fill:#009" d="M 283.5 391.89C 283.5 392.718 282.829 393.39 282 393.39C 281.171 393.39 280.5 392.718 280.5 391.89C 280.5 391.061 281.171 390.39 282 390.39C 282.829 390.39 283.5 391.061 283.5 391.89z"/>
			<path style="stroke:none; fill:#009" d="M 288 403.889C 285.285 403.828 280 402.947 280 392.89C 280 392.89 281.5 390.89 282.5 390.89C 282 389.89 279.8 390.653 279.5 391.39C 278.899 392.865 278.299 395.258 276.907 397.89C 275.368 400.799 273.472 403.39 271.5 403.39L 271.5 405.89L 288 407.89L 288 403.889z"/>
			<path style="stroke:none; fill:#cff" d="M 271 400.292C 272.37 399.835 274.578 397.738 275.474 395.048L 275.855 393.803C 276.706 390.896 277.586 387.89 282 387.89C 283.625 387.89 284.765 388.217 285.391 388.864C 286.057 389.552 286.026 390.495 286.006 391.119L 286 391.39C 286 392.025 285.25 394.39 283 394.39C 281.207 394.39 281 393.534 281 392.89C 281 392.169 281.765 391.39 283 391.39C 283.276 391.39 283.5 391.166 283.5 390.89C 283.5 390.613 283.276 390.39 283 390.39C 281.147 390.39 280 391.688 280 392.89C 280 393.686 280.296 394.935 282 395.287C 282 395.797 282 396.89 282 396.89C 282 399.016 283.493 402.39 287.5 402.39L 288 402.39L 288 401.39L 287.5 401.39C 283.809 401.39 283 398.141 283 396.89C 283 396.89 283 395.952 283 395.39C 285.849 395.39 287 392.567 287 391.39L 287.005 391.151C 287.028 390.456 287.07 389.161 286.109 388.169C 285.288 387.32 283.905 386.89 282 386.89C 276.837 386.89 275.715 390.723 274.895 393.522L 274.525 394.732C 273.583 397.56 271.136 399.39 270.5 399.39C 270.5 399.39 271 400.929 271 400.292z"/>
			<path style="stroke:none; fill:#03c" d="M 264 409.89L 288 409.89L 288 400.481C 287.081 401.098 286.5 402.147 286.5 403.39C 286.5 405.39 284 406.39 283.5 406.39C 283 406.39 281.5 406.89 280 406.89C 276 406.89 275 402.39 275 400.89C 275 400.39 275 398.89 275 398.89L 275.5 398.89C 278 398.89 279 396.39 279 395.39C 279 394.39 279.5 391.39 274.5 391.39C 269 391.39 268.5 395.89 267.5 398.89C 266.79 401.02 265.183 402.761 264 403.503L 264 409.89z"/>
			<path style="stroke:none; fill:#009" d="M 276 395.89C 276 396.718 275.329 397.39 274.5 397.39C 273.671 397.39 273 396.718 273 395.89C 273 395.061 273.671 394.39 274.5 394.39C 275.329 394.39 276 395.061 276 395.89z"/>
			<path style="stroke:none; fill:#009" d="M 272.5 396.89C 272.5 396.89 274 394.89 275 394.89C 274.5 393.89 272.3 394.653 272 395.39C 271.399 396.865 270.799 399.258 269.407 401.89C 267.868 404.799 265.972 407.39 264 407.39L 264 409.89L 288 409.89L 288 404.89C 288 404.89 287.445 406.612 282 407.39C 278.5 407.89 272.5 408.414 272.5 396.89z"/>
			<path style="stroke:none; fill:#cff" d="M 264 404.067C 265.358 403.344 267.18 401.432 267.974 399.048L 268.355 397.803C 269.206 394.896 270.086 391.89 274.5 391.89C 276.125 391.89 277.265 392.217 277.891 392.864C 278.557 393.552 278.526 394.495 278.506 395.119L 278.5 395.39C 278.5 396.025 277.75 398.39 275.5 398.39C 273.707 398.39 273.5 397.534 273.5 396.89C 273.5 396.169 274.265 395.39 275.5 395.39C 275.776 395.39 276 395.166 276 394.89C 276 394.613 275.776 394.39 275.5 394.39C 273.647 394.39 272.5 395.688 272.5 396.89C 272.5 397.686 272.796 398.935 274.5 399.287C 274.5 399.797 274.5 400.89 274.5 400.89C 274.5 403.016 275.875 407.39 280 407.39C 285 407.39 287 405.651 287 403.39C 287 402.472 287.385 401.7 288 401.175L 288 399.913C 286.792 400.585 286 401.853 286 403.39C 286 404.992 283.691 406.39 280 406.39C 276.309 406.39 275.5 402.141 275.5 400.89C 275.5 400.89 275.5 399.952 275.5 399.39C 278.349 399.39 279.5 396.567 279.5 395.39L 279.505 395.151C 279.528 394.456 279.57 393.161 278.609 392.169C 277.788 391.32 276.405 390.89 274.5 390.89C 269.337 390.89 268.215 394.723 267.395 397.522L 267.025 398.732C 266.37 400.698 264.996 402.165 264 402.886L 264 404.067z"/>
		</g>
	</g>
</svg>
