<svg xmlns="http://www.w3.org/2000/svg" width="24" height="24">
	<g transform="translate(-264,-386)" id="KDDI_D_811">
		<g>
			<path style="stroke:none; fill:none" d="M 288 409.89L 264 409.89L 264 385.89L 288 385.89L 288 409.89z"/>
		</g>
		<g>
			<path style="stroke:#0c0; stroke-width:2; fill:none" d="M 276 390.89L 276 409.89"/>
			<path style="stroke:none; fill:#060" d="M 276 390.89C 276 393.89 271.5 398.39 268.5 398.39C 265.5 398.39 264 397.39 264 391.89C 264 390.39 265 387.89 269.5 387.89C 274 387.89 276 390.89 276 390.89z"/>
			<path style="stroke:none; fill:#090" d="M 269.5 387.89C 265.284 387.89 264.14 390.085 264.013 391.595C 264.142 396.467 265.635 397.39 268.5 397.39C 271.23 397.39 275.191 393.666 275.884 390.734C 275.405 390.124 273.387 387.89 269.5 387.89z"/>
			<path style="stroke:none; fill:#0c0" d="M 264.037 391.399C 264.308 395.568 265.788 396.39 268.487 396.39C 271 396.39 274.55 393.235 275.64 390.446C 274.887 389.614 272.917 387.89 269.5 387.89C 265.461 387.89 264.245 389.902 264.037 391.399z"/>
			<path style="stroke:none; fill:#090" d="M 266 395.39C 266 395.39 265 389.89 271.5 389.89C 273 389.89 275.5 390.89 275.5 390.89C 275.5 390.89 273.75 390.89 272.5 390.89C 267.5 390.89 266 395.39 266 395.39z"/>
			<path style="stroke:none; fill:#3f3" d="M 266 395.39C 266 395.39 266.5 389.89 273 389.89C 274.5 389.89 276 390.89 276 390.89C 276 390.89 274.25 390.89 273 390.89C 268 390.89 266 395.39 266 395.39z"/>
			<path style="stroke:none; fill:#060" d="M 276 390.89C 276 393.89 280.5 398.39 283.5 398.39C 286.5 398.39 288 397.39 288 391.89C 288 390.39 287 387.89 282.5 387.89C 278 387.89 276 390.89 276 390.89z"/>
			<path style="stroke:none; fill:#090" d="M 282.5 387.89C 286.716 387.89 287.86 390.085 287.987 391.595C 287.858 396.467 286.365 397.39 283.5 397.39C 280.77 397.39 276.809 393.666 276.116 390.734C 276.595 390.124 278.613 387.89 282.5 387.89z"/>
			<path style="stroke:none; fill:#0c0" d="M 287.963 391.399C 287.692 395.568 286.212 396.39 283.513 396.39C 281 396.39 277.45 393.235 276.36 390.446C 277.113 389.614 279.083 387.89 282.5 387.89C 286.539 387.89 287.755 389.902 287.963 391.399z"/>
			<path style="stroke:none; fill:#090" d="M 286 395.39C 286 395.39 287 389.89 280.5 389.89C 279 389.89 276.5 390.89 276.5 390.89C 276.5 390.89 278.25 390.89 279.5 390.89C 284.5 390.89 286 395.39 286 395.39z"/>
			<path style="stroke:none; fill:#3f3" d="M 286 395.39C 286 395.39 285.5 389.89 279 389.89C 277.5 389.89 276 390.89 276 390.89C 276 390.89 277.75 390.89 279 390.89C 284 390.89 286 395.39 286 395.39z"/>
			<path style="stroke:#090; stroke-width:2; stroke-linecap:round; fill:none" d="M 276 391.39L 276 393.89"/>
		</g>
	</g>
</svg>
