<svg xmlns="http://www.w3.org/2000/svg" height="24" width="24">
    <g transform="matrix(1,0,0,-1,-264,408)" id="KDDI_D_">        <path d="M285.2 401.2c-3.9 3.6-8.9 3.4-12.4.3-3.8-3.4-3.9-8.8-1.3-13 0 0 7.5.1 9.3 0 1.8-.1 3.5.5 4.9 1.8 2.7 2.8 2.3 8.4-.5 10.9z" fill="#ff0"/>
        <path d="M288 384h-17.6c-2.4 0-6.4 1.6-6.4 5.5v7.9c0 1.6 1 3.7 2.7 3.7 1.6 0 3.1-.7 3.1-4.2v-5.1c0-1 .9-2.6 3.2-2.9 2.3-.2 7.7-.6 10.4-.6 2.8 0 4.6-4.3 4.6-4.3z" fill="#f90"/>
        <path d="M288 384h-17.6c-2.4 0-6.4 1.6-6.4 5.5v7.9c0 2.2 1 3.7 2.7 3.7 1.6 0 3.1-.7 3.1-4.2v-5.1c0-1 .9-2.6 3.2-2.9 2.3-.2 7.7-.6 10.4-.6 2.8 0 4.6-4.3 4.6-4.3z" fill="#f90"/>
        <path d="M265.6 400.3s-.7 6.4-.3 6.5c.3 0 1.6-6 1.6-6" fill="#f90"/>
        <path d="M266.4 406.8c0-.6-.6-1.2-1.2-1.2-.7 0-1.2.6-1.2 1.2 0 .7.5 1.2 1.2 1.2.6 0 1.2-.5 1.2-1.2z" fill="#f90"/>
        <path d="M264.5 406.3c0-.2.1-.4.2-.6.1 0 .3-.1.5-.1.6 0 1.2.6 1.2 1.2 0 .2-.1.4-.2.5-.1.1-.3.1-.5.1-.6 0-1.2-.5-1.2-1.1z" fill="#c60"/>
        <path d="M268.3 400.3s.7 6.4.3 6.5c-.3 0-1.7-6-1.7-6" fill="#f90"/>
        <path d="M269.7 406.8c0-.6-.5-1.2-1.2-1.2-.6 0-1.1.6-1.1 1.2 0 .7.5 1.2 1.1 1.2.7 0 1.2-.5 1.2-1.2z" fill="#f90"/>
        <path d="M267.9 406.3c0-.2.1-.4.1-.6.2 0 .4-.1.5-.1.7 0 1.2.6 1.2 1.2 0 .2 0 .4-.1.5-.1.1-.3.1-.5.1-.7 0-1.2-.5-1.2-1.1zM268.8 392.6c0-.7.5-1.8 1.6-2.4-.4.5-.6 1.2-.6 1.6v5.1c0 2.6-.8 3.6-1.9 4 .5-.6.9-1.6.9-3.2v-5.1zM287.1 385.7h-17.5c-1.6 0-3.9.6-5.3 2.1.9-2.7 4.1-3.8 6.1-3.8H288s-.3.8-.9 1.7z" fill="#c60"/>
        <path d="M269.4 384.8c-1 0-2.3.2-3.6.8 1.4-1.1 3.3-1.6 4.6-1.6H288s-.1.3-.4.8h-18.2z" fill="#930"/>
        <path d="M285.2 401.2c-3.9 3.6-8.9 3.4-12.4.3-3.8-3.4-3.9-8.8-1.3-13 0 0 7.5.1 9.3 0 1.8-.1 3.5.5 4.9 1.8 2.7 2.8 2.3 8.4-.5 10.9z" fill="#ff0"/>
        <path d="M273.6 400.4c3.4 3.2 8.2 3.1 11.9-.2.2-.2.4-.5.6-.7-.3.6-.7 1.1-1.1 1.5-3.7 3.2-8.5 3.3-11.9.2-3.5-3.1-3.9-8.3-1.1-12.7h.1c-2.4 4.2-1.8 9 1.5 11.9z" fill="#ffc"/>
        <path d="M277.4 397.4c.8.8 1.8 1.1 2.8 1 1.1 0 2-.5 2.7-1.3-.1.3-.3.5-.4.7-.7.8-1.6 1.3-2.7 1.4-1.1-.1-2.1-.4-2.9-1.2-.6-.5-1-1.1-1.4-1.8-.6-1.7-.4-3.7.8-5.2-1.2 2.1-.8 4.8 1.1 6.4z" fill="#ffc"/>
        <path d="M280.1 396.6c-.4-.1-.8-.3-1.1-.6-.3-.2-.5-.4-.6-.7-.2-.6-.1-1.3.4-1.8l.1-.1c-.2.7 0 1.6.6 2.1.2.2.6.4 1 .3.3 0 .4.3.4.3-.2.3-.5.4-.8.5z" fill="#ffc"/>
        <path d="M278.4 388.5c-1 .4-1.9 1.1-2.6 1.9-2.1 2.5-1.8 6.2.6 8.4.9.8 2.1 1.2 3.4 1.1 1.3 0 2.4-.6 3.2-1.6.8-1 1.1-2.2.9-3.4.4 1.1.7 2.9-.1 4.1-1 1.8-3.3 3-5.9 2.5-2.1-.4-3.9-2.1-4.6-3.9-.7-1.5-1-3.8-.3-6.2.2-.8.8-2 1.4-2.9h4z" fill="#fc0"/>
        <path d="M276.9 390.2s2.7-1.1 5.3-.4c1.7.4 3.2 1.9 3.6 3.2 1.4 4 0 7.4 0 7.4s2.6-3.6 1.1-8.1c-.6-1.9-3.5-3.7-4.8-3.9-1.4-.1-4 .5-5.2 1.8z" fill="#fc0"/>
        <path d="M277.6 394.8s-.1-1.9.7-2.7c.7-.8 2.3-1.4 4.3-.5 2 .9 1.2 3.8 1.2 3.8l-2.7-3.2-2.7 1z" fill="#fff"/>
        <path d="M279 393.1s1.3-.2 2.4.5c1.4 1 1.8 3.4 1.8 3.4s1.2-2.2-.9-4.1c-1-1-2.3-.7-3.3.2z" fill="#fc0"/>
        <path d="M271.6 388.4c-2.6 4.1-2.6 9.7 1.2 13.1 3.5 3.1 8.5 3.3 12.4-.3 2.8-2.5 3.2-8.1.5-10.9-2.7-2.7-7.2-2.6-9.6.3-2 2.3-1.7 5.9.5 7.9 1.8 1.6 4.6 1.4 6.1-.5 1.3-1.4 1.2-3.7-.3-5-1.2-1-2.9-.9-3.9.3-.8.9-.7 2.4.2 3.2.7.7 1.9.6 2.5-.2" fill="none" stroke="#c60"/>
        <path d="M277.9 394.9c.1.6.3 1.2.8 1.6.7.7 1.9.6 2.5-.2" fill="none" stroke="#930" stroke-linecap="round"/>
        <path d="M282.7 398c1.3-1.4 1.2-3.7-.3-5-1.2-1-2.9-.9-3.9.3-.4.5-.6 1.1-.6 1.6" fill="none" stroke="#c60" stroke-linecap="round"/>
        <path d="M276.1 390.6c-2 2.3-1.7 5.9.5 7.9 1.8 1.6 4.6 1.4 6.1-.5" fill="none" stroke="#930" stroke-linecap="round"/>
        <path d="M282.4 388.5c-2.3-.5-4.7.2-6.3 2.1" fill="none" stroke="#c60" stroke-linecap="round"/>
        <path d="M287.3 397.5c.6-2.5.1-5.4-1.6-7.2-1-.9-2.1-1.5-3.3-1.8" fill="none" stroke="#930" stroke-linecap="round"/>
        <path d="M270.1 397.1c.5 1.7 1.3 3.2 2.7 4.4 3.5 3.1 8.5 3.3 12.4-.3 1.1-.9 1.8-2.2 2.1-3.7" fill="none" stroke="#c60" stroke-linecap="round"/>
        <path d="M270.5 390.8c-.8 2-.9 4.3-.4 6.3M271.6 388.4c-.4.7-.8 1.5-1.1 2.4" fill="none" stroke="#930" stroke-linecap="round"/>
        <path d="M265.4 398.3v-6.8c0-2.1 1.3-3.1 1.4-3.1.3-.2.7-.2 1 .2.2.3.2.8-.2 1 0 0-.7.6-.7 1.9v6.8c0 .4-.4.8-.8.8s-.7-.4-.7-.8z" fill="#fc0"/>
    </g>
</svg>
