<svg xmlns="http://www.w3.org/2000/svg" width="24" height="24">
	<g transform="translate(-288,-386)" id="KDDI_D_815">
		<g>
			<path style="stroke:none; fill:none" d="M 312 409.89L 288 409.89L 288 385.89L 312 385.89L 312 409.89z"/>
		</g>
		<g>
			<path style="stroke:none; fill:#ffff99" d="M 311.5 407.376L 288.5 407.376L 288.5 388.376L 311.5 388.376L 311.5 407.376z"/>
			<path style="stroke:#666666; stroke-width:1; stroke-linecap:round; fill:none" d="M 311.5 388.376L 304.979 394.897"/>
			<path style="stroke:#666666; stroke-width:1; stroke-linecap:round; fill:none" d="M 288.5 388.376L 295.041 394.918"/>
			<path style="stroke:#000000; stroke-width:1; fill:none" d="M 311.5 407.376L 288.5 407.376L 288.5 388.376L 311.5 388.376L 311.5 407.376z"/>
			<path style="stroke:none; fill:#0066ff" d="M 302.229 398.918L 302.229 400.963C 302.229 402.112 301.23 403.042 300 403.042C 298.77 403.042 297.772 402.112 297.772 400.963L 297.772 394.789C 297.772 393.64 298.77 392.709 300 392.709C 301.23 392.709 302.229 393.64 302.229 394.789L 302.229 396.865L 305.513 396.865L 305.513 395.85C 305.513 393.009 303.046 390.705 300 390.705C 296.956 390.705 294.487 393.009 294.487 395.85L 294.487 399.923C 294.487 402.765 296.956 405.068 300 405.068C 303.046 405.068 305.513 402.765 305.513 399.923L 305.513 398.918L 302.229 398.918z"/>
		</g>
	</g>
</svg>