<svg xmlns="http://www.w3.org/2000/svg" width="24" height="24">
	<g transform="translate(-264,-386)" id="KDDI_D_816">
		<g>
			<path style="stroke:none; fill:none" d="M 288 409.89L 264 409.89L 264 385.89L 288 385.89L 288 409.89z"/>
		</g>
		<g>
			<path style="stroke:none; fill:#339900" d="M 269.5 398.89L 281 398.89C 281 398.89 279.5 401.89 276 401.89C 272.5 401.89 269.5 398.89 269.5 398.89z"/>
			<path style="stroke:none; fill:#339900" d="M 268 403.39C 268 403.39 271 408.89 274 408.89C 277 408.89 279 405.89 279 405.89C 279 405.89 272 405.89 268 403.39z"/>
			<path style="stroke:none; fill:#339900" d="M 274 391.89L 273 385.89L 270 385.89C 270 391.39 274 391.89 274 391.89z"/>
			<path style="stroke:none; fill:#339900" d="M 268.5 399.39C 268.5 399.39 264 397.89 264 393.89C 264 389.89 267 388.89 267 388.89C 267 388.89 267 396.39 268.5 399.39z"/>
			<path style="stroke:none; fill:#006600" d="M 264.048 393.076C 264.406 395.71 266.758 397.108 267.89 397.636C 267.003 394.164 267 388.89 267 388.89C 267 388.89 264.42 389.755 264.048 393.076z"/>
			<path style="stroke:#663333; stroke-width:0.25; fill:none" d="M 267.5 404.39"/>
			<path style="stroke:none; fill:#006600" d="M 278.123 405.864C 278.131 405.864 278.144 405.865 278.152 405.865C 277.276 406.623 276.017 407.39 274.5 407.39C 272.928 407.39 271.36 405.88 270.22 404.442C 269.428 404.152 268.67 403.809 268 403.39C 268 403.39 271 408.89 274 408.89C 277 408.89 279 405.89 279 405.89C 279 405.89 278.665 405.888 278.123 405.864z"/>
			<path style="stroke:none; fill:#006600" d="M 280.295 398.89C 279.538 399.762 278.147 400.89 276 400.89C 273.853 400.89 271.898 399.762 270.705 398.89L 269.5 398.89C 269.5 398.89 272.5 401.89 276 401.89C 279.5 401.89 281 398.89 281 398.89L 280.295 398.89z"/>
			<path style="stroke:none; fill:#006600" d="M 273.5 392.89C 273.5 392.89 282 391.89 283 396.89C 283 396.89 277 396.89 273.5 392.89z"/>
			<path style="stroke:none; fill:#006600" d="M 271.525 385.89L 270 385.89C 270 391.39 274 391.89 274 391.89L 273.391 388.236C 272.723 387.8 272 387.07 271.525 385.89z"/>
			<path style="stroke:#669900; stroke-width:1; fill:none" d="M 266.5 409.89C 266.5 409.89 267.25 400.028 271 395.39C 274.75 390.751 277.5 389.89 277.5 389.89C 279.024 389.39 281.5 388.39 281.5 388.39"/>
			<path style="stroke:none; fill:#669900" d="M 277 389.89C 277 389.89 278.26 388.883 280.5 387.39C 282 386.39 283.5 385.89 286 385.89C 287 385.89 288 386.39 288 387.39C 288 388.973 284.874 389.89 281 389.89C 277.464 389.89 277 389.89 277 389.89z"/>
			<path style="stroke:none; fill:#663333" d="M 287.976 387.39C 287.976 387.652 287.763 387.865 287.5 387.865C 287.237 387.865 287.024 387.652 287.024 387.39C 287.024 387.127 287.237 386.915 287.5 386.915C 287.763 386.915 287.976 387.127 287.976 387.39z"/>
			<path style="stroke:none; fill:#663333" d="M 286.976 388.39C 286.976 388.652 286.763 388.865 286.5 388.865C 286.237 388.865 286.024 388.652 286.024 388.39C 286.024 388.127 286.237 387.915 286.5 387.915C 286.763 387.915 286.976 388.127 286.976 388.39z"/>
			<path style="stroke:none; fill:#663333" d="M 281.976 387.39C 281.976 387.652 281.763 387.865 281.5 387.865C 281.237 387.865 281.024 387.652 281.024 387.39C 281.024 387.127 281.237 386.915 281.5 386.915C 281.763 386.915 281.976 387.127 281.976 387.39z"/>
			<path style="stroke:none; fill:#663333" d="M 280.976 388.39C 280.976 388.652 280.763 388.865 280.5 388.865C 280.237 388.865 280.024 388.652 280.024 388.39C 280.024 388.127 280.237 387.915 280.5 387.915C 280.763 387.915 280.976 388.127 280.976 388.39z"/>
			<path style="stroke:none; fill:#99cc00" d="M 279.976 388.39C 279.976 388.652 279.763 388.865 279.5 388.865C 279.237 388.865 279.024 388.652 279.024 388.39C 279.024 388.127 279.237 387.915 279.5 387.915C 279.763 387.915 279.976 388.127 279.976 388.39z"/>
			<path style="stroke:none; fill:#99cc00" d="M 278.976 389.39C 278.976 389.652 278.763 389.865 278.5 389.865C 278.237 389.865 278.024 389.652 278.024 389.39C 278.024 389.127 278.237 388.915 278.5 388.915C 278.763 388.915 278.976 389.127 278.976 389.39z"/>
			<path style="stroke:none; fill:#663333" d="M 279.976 389.39C 279.976 389.652 279.763 389.865 279.5 389.865C 279.237 389.865 279.024 389.652 279.024 389.39C 279.024 389.127 279.237 388.915 279.5 388.915C 279.763 388.915 279.976 389.127 279.976 389.39z"/>
			<path style="stroke:none; fill:#663333" d="M 285.976 386.39C 285.976 386.652 285.763 386.865 285.5 386.865C 285.237 386.865 285.024 386.652 285.024 386.39C 285.024 386.127 285.237 385.915 285.5 385.915C 285.763 385.915 285.976 386.127 285.976 386.39z"/>
			<path style="stroke:none; fill:#663333" d="M 284.976 387.39C 284.976 387.652 284.763 387.865 284.5 387.865C 284.237 387.865 284.024 387.652 284.024 387.39C 284.024 387.127 284.237 386.915 284.5 386.915C 284.763 386.915 284.976 387.127 284.976 387.39z"/>
			<path style="stroke:none; fill:#663333" d="M 283.976 388.39C 283.976 388.652 283.763 388.865 283.5 388.865C 283.237 388.865 283.024 388.652 283.024 388.39C 283.024 388.127 283.237 387.915 283.5 387.915C 283.763 387.915 283.976 388.127 283.976 388.39z"/>
			<path style="stroke:none; fill:#663333" d="M 282.976 389.39C 282.976 389.652 282.763 389.865 282.5 389.865C 282.237 389.865 282.024 389.652 282.024 389.39C 282.024 389.127 282.237 388.915 282.5 388.915C 282.763 388.915 282.976 389.127 282.976 389.39z"/>
			<path style="stroke:none; fill:#99cc00" d="M 266.413 407.01L 266.413 407.811L 267.213 407.811L 266.413 407.01z"/>
			<path style="stroke:none; fill:#006600" d="M 267.188 403.011L 267.188 403.811L 267.987 403.811L 267.188 403.011z"/>
			<path style="stroke:none; fill:#339900" d="M 267.409 401.977L 267.409 402.777L 268.208 402.777L 267.409 401.977z"/>
			<path style="stroke:none; fill:#99cc00" d="M 268.416 398.969L 268.416 399.769L 269.216 399.769L 268.416 398.969z"/>
			<path style="stroke:none; fill:#339900" d="M 268.825 398.011L 268.825 398.811L 269.625 398.811L 268.825 398.011z"/>
			<path style="stroke:none; fill:#006600" d="M 269.892 395.982L 269.892 396.782L 270.692 396.782L 269.892 395.982z"/>
			<path style="stroke:none; fill:#006600" d="M 270.604 395.006L 270.604 395.807L 271.405 395.807L 270.604 395.006z"/>
			<path style="stroke:none; fill:#99cc00" d="M 271.454 393.936L 271.454 394.735L 272.254 394.735L 271.454 393.936z"/>
			<path style="stroke:none; fill:#006600" d="M 273.417 391.977L 273.417 392.777L 274.217 392.777L 273.417 391.977z"/>
			<path style="stroke:none; fill:#006600" d="M 275.992 390.002L 275.992 390.802L 276.792 390.802L 275.992 390.002z"/>
			<path style="stroke:none; fill:#339900" d="M 274.626 390.973L 274.626 391.773L 275.426 391.773L 274.626 390.973z"/>
			<path style="stroke:none; fill:#006600" d="M 266.288 407.99L 266.288 408.791L 267.087 408.791L 266.288 407.99z"/>
		</g>
	</g>
</svg>