<svg xmlns="http://www.w3.org/2000/svg" height="24" width="24">
    <g transform="matrix(1,0,0,-1,-264,408)" id="KDDI_D_">        <path d="M268.3 385c.2-.2.4-.6.4-1h11.2c.1.4.1.8.2 1 1.8 1.6 4.2 4.7 4.5 6.4.4 2.6-3.3 9.9-6.5 10-2 .1-10-.6-12.4-2.7-1.7-1.6-1-4.7-1.1-5.1 0-1.6 1.3-6.2 3.7-8.6z" fill="#fc9"/>
        <path d="M268.6 384.3s.1-.1.1-.3h2.1c-.1 1.6-2.6 4.2-3 5.2-2.2 5.3-.8 7.9-.8 7.9l-2.3-.4s.1-3.8.2-4.9c.1-1.1 3.2-7.1 3.7-7.5z" fill="#ffc"/>
        <path d="M268.1 396.5s0-2.6.3-3.4c.3-.8.9-1.6 2-1.7 1.3-.3 2 .3 3.7.3 1.2 0 3.7-.5 4.5-.2 1.8.6 2.1 3.1 1.3 4.4-1.1 1.6-3.3 2.8-5.7 2.9-2.4 0-6.1-2.3-6.1-2.3z" fill="#f93"/>
        <path d="M273.8 398.1c-3.9-.2-5-2.1-4.4-4.5.3-1.1 2.6-.3 4.6-.1 1.4.1 3.8-.2 4.1.9.4 1.3-.5 3.9-4.3 3.7z" fill="#c63"/>
        <path d="M273.9 398.1c-3.3-.2-4-3.1-3.9-3.6.3-.8 2.4-.2 4.1 0 1.2.1 3.3-.1 3.6.7.3 1-.5 3.1-3.8 2.9z" fill="#930"/>
        <path d="M284.8 391.2c.4 4.1-6.5 9.7-9.5 9.8-2.3.1-7.7.8-10.1-1.7-1-1-.6-4.3-.6-5.7 0-1.6 1.3-6.2 3.7-8.6.2-.2.4-.7.4-1" fill="none" stroke="#000"/>
        <path d="M282.9 401c.1-2 .1-6.2-2.1-6-2.1.3-2.7 2.7-2.8 6.2-.1 3.1 1 5.9 2.8 6 2.7.1 2.1-4.2 2.1-6.2z" fill="#fc9"/>
        <path d="M281.5 404.7c.5 2 1.3-.5 1.3-.5l-.4-8.8s-1.9-.3-2.5.1c-1 .9-1.2 1.9-1.2 1.9s1.7-.4 2.3.4c1.1 1.5.3 6.3.5 6.9z" fill="#f93"/>
        <path d="M279.8 399.8c-.2.8-.1.6-.1 1.5 0 2.5.5 4.9 1.8 5.8-.2.1-.4.1-.7.1-1.8-.1-2.1-3.1-2.2-5.2-.1-1.1-.2-1.3 0-2.2.4-1.8 1.5-1.5 1.2 0z" fill="#ffc"/>
        <path d="M282.5 398.3s-.8-1.5-1.7-1.9c-.6-.3-1.7.1-1.7.1s.7-1.6 1.7-1.5c2.1.3 1.7 3.3 1.7 3.3z" fill="#c63"/>
        <path d="M282.9 401c.1-2 .1-6.2-2.1-6-2.1.3-2.2 2.7-2.3 6.1-.1 3.1.2 6 2 6.1 2.7.1 2.4-4.2 2.4-6.2z" fill="none" stroke="#000" stroke-linecap="round"/>
        <path d="M278.1 401.4c.1-2.1.6-6.3-1.6-6.2-2.2.1-3.2 2.8-3.3 6.3-.1 3.2 1.4 6.3 3.2 6.1 2.7-.2 1.7-4.2 1.7-6.2z" fill="#fc9"/>
        <path d="M277 405.1c.7 1.9 1.2-.7 1.2-.7l-.2-8.6s-1.9-.5-2.5-.1c-1.1.8-1.3 1.8-1.3 1.8s1.7-.3 2.3.6c.9 1.6.2 6.4.5 7z" fill="#f93"/>
        <path d="M275 400.2c-.2.7 0 .5-.1 1.4 0 2.6.8 5 2.2 5.8-.2.1-.4.2-.7.2-1.8.2-2.5-3-2.6-5.2-.1-1.1-.2-1.4 0-2.3.5-1.9 1.6-1.7 1.2.1z" fill="#ffc"/>
        <path d="M277.8 398.8s-.6-1.6-1.4-2.2c-.7-.3-1.8 0-1.8 0s.8-1.6 1.9-1.4c2 .5 1.3 3.6 1.3 3.6z" fill="#c63"/>
        <path d="M278.1 401.4c.1-2.1.3-6.3-1.9-6.2-2.1.1-2.4 2.7-2.5 6.3-.1 3.2.6 6.3 2.4 6.1 2.7-.2 2-4.2 2-6.2z" fill="none" stroke="#000" stroke-linecap="round"/>
        <path d="M273.4 401.2c0-2 .5-6.1-1.6-6-2.1.1-3 2.7-3.1 6.2-.1 3.1 1.3 6 3 5.9 2.7-.3 1.7-4.1 1.7-6.1z" fill="#fc9"/>
        <path d="M272.3 404.8c.7 1.9 1.1-.7 1.1-.7l-.1-8.3s-1.8-.5-2.4-.1c-1.1.7-1.3 1.8-1.3 1.8s1.7-.3 2.2.5c.9 1.5.3 6.2.5 6.8z" fill="#f93"/>
        <path d="M270.4 400c-.1.8 0 .5-.1 1.5 0 2.4.8 4.8 2.1 5.6-.2.1-.4.1-.7.2-1.7.1-2.4-3-2.5-5.1 0-1.1-.2-1.4 0-2.2.5-1.9 1.6-1.7 1.2 0z" fill="#ffc"/>
        <path d="M273.1 398.7s-.5-1.6-1.4-2.1c-.6-.4-1.6 0-1.6 0s.7-1.6 1.7-1.4c2 .5 1.3 3.5 1.3 3.5z" fill="#c63"/>
        <path d="M273.6 401.3c0-2 .1-6.2-2-6.1-2.1.1-2.4 2.6-2.5 6.1 0 3.1.6 6.1 2.4 6 2.6-.2 2-4.1 2.1-6z" fill="none" stroke="#000" stroke-linecap="round"/>
        <path d="M268.7 400.3c0-1.7.3-5.4-1.6-5.3-2 .1-2.8 2.4-2.8 5.5 0 2.8 1.3 5.4 3 5.3 2.4-.2 1.4-3.7 1.4-5.5z" fill="#fc9"/>
        <path d="M267.7 403.6c.8 1.6 1.1-.6 1.1-.6l-.4-7.5s-1.7-.5-2.2-.1c-1 .7-1.1 1.6-1.1 1.6s1.5-.2 2 .5c.9 1.4.4 5.5.6 6.1z" fill="#f93"/>
        <path d="M265.9 399.3c-.2.7-.1.5-.1 1.3 0 2.2.8 4.3 2.1 5-.2.1-.4.2-.6.2-1.7.1-2.3-2.6-2.5-4.6 0-.9-.2-1.2 0-1.9.3-1.7 1.3-1.5 1.1 0z" fill="#ffc"/>
        <path d="M268.4 398.1s-.6-1.4-1.4-1.9c-.6-.3-1.5 0-1.5 0s.6-1.4 1.6-1.2c1.8.4 1.3 3.1 1.3 3.1z" fill="#c63"/>
        <path d="M269 400.3c0-1.8-.2-5.4-2.1-5.3-2 .1-2.2 2.4-2.2 5.4 0 2.8.7 5.6 2.3 5.4 2.5-.2 2-3.7 2-5.5z" fill="none" stroke="#000" stroke-linecap="round"/>
        <path d="M283.4 389.6c1.1 1.1 4 3.2 4.1 4.4.3 2.7-2.3 5.5-4.9 5.9-2.2.4-5.1-1.8-5.8-3.9-.6-1.8-.2-3.6 2-3.6 2.5-.1 2.8 2.6 2.8 2.6" fill="#fc9"/>
        <path d="M284.3 398.3c.9-.8 1.1-3.3.8-4.2-.4-1.2-2.8-3.9-3.7-4.9-2.3-2.8-3.6-2.2-4.3-3.2-.5-.7-.4-2-.4-2h3s.5 1.3 1.6 2.2c1 1 3 3 3.6 4 .6 1 2.5 2.6 2.6 3.6.1 1-.7 3.2-1.3 3.8-2.4 2.6-3.9 2.1-4.9 2.1-.9 0 1 .1 3-1.4z" fill="#f93"/>
        <path d="M277.3 393.1s1.9.1 2.6 1.7c.3.7.4 1.2 1 1.2s1.9-.3 2.1-.8c.2-.6-.5-2.1-1.2-2.4-2.3-1-3.9-.4-4.5.3z" fill="#f93"/>
        <path d="M280 398.8s-1.5-1.9-1.7-2.6c-.3-.7-.2-1.4-.3-1.8-.1-.4-.4-.9-.8-.5-.5.5-.6 1.4-.4 1.9.4 1.1.7 1.7 1.3 2.1.6.5 1.9.9 1.9.9z" fill="#ffc"/>
        <path d="M287.5 393.8c.1 1-.7 3.2-1.3 3.8-.2.2-.5.4-.6.6.2-.6.9-2.7.7-3.8-.4-1.6-4.1-5.8-5.9-7.5-1.5-1.4-2.1-2-2.2-2.9h1.5s.5 1.3 1.6 2.2c1 1 3 3 3.6 4 .6 1 2.5 2.6 2.6 3.6z" fill="#c63"/>
        <path d="M279.8 384c0 .4.1.8.3 1 1.8 1.3 3.3 3.1 4.5 4.4 1 1.2 2.8 3.4 2.9 4.6.3 2.7-2.3 5.5-4.9 5.9-2.2.4-5.1-1.8-5.8-3.9-.6-1.8-.2-3.6 2-3.6 2.5-.1 2.8 2.6 2.8 2.6" fill="none" stroke="#000"/>
    </g>
</svg>
