<svg xmlns="http://www.w3.org/2000/svg" width="24" height="24">
	<g transform="translate(-288,-386)" id="KDDI_D_818">
		<path style="stroke:none; fill:#0000cc" d="M 288 409.89L 312 385.89L 312 409.89L 288 409.89"/>
		<path style="stroke:none; fill:#99ccff" d="M 312 385.89L 288 385.89L 288 409.89L 312 385.89z"/>
		<path style="stroke:none; fill:#0066ff" d="M 310.5 408.39L 289.5 408.39L 289.5 387.39L 310.5 387.39L 310.5 408.39z"/>
		<path style="stroke:none; fill:#0000cc" d="M 292.042 393.911L 292.042 394.869L 308 394.869L 308 393.911L 292.042 393.911z"/>
		<path style="stroke:none; fill:#0000cc" d="M 307 401.869L 291.084 401.869L 291.084 400.91L 307 400.91L 307 401.869z"/>
		<path style="stroke:none; fill:#0000cc" d="M 293.23 406.89L 295.594 406.89L 299.619 388.928L 297.258 388.928L 293.23 406.89z"/>
		<path style="stroke:none; fill:#0000cc" d="M 299.26 406.89L 301.623 406.89L 305.648 388.928L 303.287 388.928L 299.26 406.89z"/>
		<path style="stroke:none; fill:#ffffff" d="M 293 393.911L 293 394.869L 308.958 394.869L 308.958 393.911L 293 393.911z"/>
		<path style="stroke:none; fill:#ffffff" d="M 307.959 401.869L 292.043 401.869L 292.043 400.91L 307.959 400.91L 307.959 401.869z"/>
		<path style="stroke:none; fill:#ffffff" d="M 294.189 406.89L 296.552 406.89L 300.578 388.928L 298.216 388.928L 294.189 406.89z"/>
		<path style="stroke:none; fill:#ffffff" d="M 300.219 406.89L 302.582 406.89L 306.607 388.928L 304.246 388.928L 300.219 406.89z"/>
	</g>
</svg>
