<svg xmlns="http://www.w3.org/2000/svg" height="24" width="24">
    <g transform="matrix(1,0,0,-1,-264,408)" id="KDDI_D_">        <path d="M264.9 397v11M287.2 397v11" fill="none" stroke="#000" stroke-width="1.7"/>
        <path d="M272.3 388.3V384M279.8 388.3V384" fill="none" stroke="#000" stroke-width="2"/>
        <path d="M287.6 396c0-5-4-8-9-8h-5.2c-4.9 0-8.9 3-8.9 8v2.5c0 5 4 9 8.9 9h5.2c5 0 9-4 9-9z" fill="#fc0"/>
        <path d="M275.9 406.1h3.7c.3 0 .5 0 .8-.1 1.6-.1 2.3.3 1.1.8-1.1.4-2.4.7-3.6.7h-3.7c-5.3 0-9.6-4.4-9.6-9.8 0-1.5 0-3 .6-4.3.8-1.6 1.8-1.4 1.4.2-.3.8-.4 1.8-.4 2.7 0 5.4 4.4 9.8 9.7 9.8z" fill="#ff3"/>
        <path d="M285.2 404.1c-.8 1-1.5.8-.9-.3.7-1.3 1-2.9 1-4.5 0-5.5-4.3-9.9-9.6-9.9h-3.6c-1.6 0-2.3-.5-1-1 1-.3 2-.5 3.1-.5h3.7c7.6 0 9.6 4.4 9.6 9.9 0 2.4-.9 4.6-2.3 6.3z" fill="#f90"/>
        <path d="M286.4 402.1c-.7 1.6-1.1 1.4-.5-.2.4-1 .6-2.8.6-4 0-5.4-4.3-9.2-9.6-9.2h-3.7c-1.9 0-1.4-.7 1-.7h3.7c7.3 0 9.6 4.3 9.6 9.7 0 1.6-.4 3.1-1.1 4.4z" fill="#c60"/>
        <path d="M268.2 403.6c1.4 1.6 3 2.2 3.3 1.6.4-.7-.5-1.1-1.6-2.1-1-.9-1.6-2-2.3-1.9-.8.1-.7.8.6 2.4z" fill="#ffc"/>
        <path d="M272.2 406v-3.6M279.8 406v-3.6" fill="none" stroke="#000" stroke-width="2"/>
        <path d="M287.6 396c0-5-4-8-9-8h-5.2c-4.9 0-8.9 3-8.9 8v2.5c0 5 4 9 8.9 9h5.2c5 0 9-4 9-9z" fill="none" stroke="#000"/>
        <path d="M268.4 399.7c0-3 2.9-5.4 7.6-5.4 4.7 0 7.6 2.4 7.6 5.4z" fill="#f60"/>
        <path d="M283.6 399.7h-15.2c0-.3.1-.7.1-1h15c0 .3.1.7.1 1z" fill="#c30"/>
        <path d="M283.6 399.7H281c-.4-2.4-1.8-4.4-4.1-5.4 4.1.3 6.7 2.6 6.7 5.4z" fill="#c30"/>
        <path d="M268.4 399.7c0-3 2.9-5.4 7.6-5.4 4.7 0 7.6 2.4 7.6 5.4z" fill="none" stroke="#000"/>
    </g>
</svg>
