<svg xmlns="http://www.w3.org/2000/svg" height="24" width="24">
    <g transform="matrix(1,0,0,-1,-264,408)" id="KDDI_D_">        <path d="M287.3 386.2c0-.8-.7-1.5-1.5-1.5h-19.6c-.8 0-1.5.7-1.5 1.5v19.6c0 .8.7 1.5 1.5 1.5h19.6c.8 0 1.5-.7 1.5-1.5z" fill="#fff"/>
        <path d="M285.4 408h-18.8c-1.5 0-2.6-1.1-2.6-2.6v-18.8c0-1.5 1.1-2.6 2.6-2.6h18.8c1.5 0 2.6 1.1 2.6 2.6v18.8c0 1.5-1.1 2.6-2.6 2.6m1.3-2.6v-18.8c0-.7-.6-1.3-1.3-1.3h-18.8c-.7 0-1.3.6-1.3 1.3v18.8c0 .7.6 1.3 1.3 1.3h18.8c.7 0 1.3-.6 1.3-1.3z" fill="#f30"/>
        <path d="M283.8 400.4v-.2h-.4v-1.5h-.2v1.5h-.4v.2zM284.2 398.7h-.2v1.7h.4l.4-1.4.4 1.4h.3v-1.7h-.2v1.5l-.4-1.5h-.2l-.5 1.5zM270.7 394.3c0-1.7-.8-2.6-2-2.6-2.2 0-2.2 1.7-2.2 3.3h1.3c0-1.3 0-1.9.8-1.9.7 0 .7.5.7 1.2v5.6h1.4zM274.5 394.1c0-.8-.6-1.2-1.1-1.2-.3 0-.6.2-.6.7 0 .7.4.8.8.9.6.1.8.2.9.3v-.7m1.2 2.2c0 1.5-1.2 1.7-1.9 1.7-.9 0-2-.2-2.1-2.1h1.2c0 .4.2.9.8.9.3 0 .8-.1.8-.7 0-.4-.2-.5-.4-.5l-1.2-.2c-.8-.1-1.3-.7-1.3-1.9s.7-1.7 1.4-1.7c.8 0 1.2.5 1.5.8.1-.3.1-.4.1-.7h1.4v.3c-.2 0-.3.2-.3.9zM279.3 391.9h-1.4l-1.7 6h1.4l1-4.4 1 4.4h1.4zM284.1 394.1c0-.8-.6-1.2-1.1-1.2-.2 0-.6.2-.6.7 0 .7.4.8.9.9.5.1.7.2.8.3v-.7m1.2 2.2c0 1.5-1.2 1.7-1.9 1.7-.9 0-1.9-.2-2.1-2.1h1.2c.1.4.2.9.8.9.3 0 .8-.1.8-.7 0-.4-.2-.5-.4-.5l-1.2-.2c-.7-.1-1.3-.7-1.3-1.9s.7-1.7 1.4-1.7c.9 0 1.3.5 1.5.8.1-.3.1-.4.2-.7h1.3v.3c-.1 0-.3.2-.3.9z" fill="#f30"/>
    </g>
</svg>
