<svg xmlns="http://www.w3.org/2000/svg" height="24" width="24">
    <g transform="matrix(1,0,0,-1,-264,408)" id="KDDI_D_">        <path d="M287.3 386.2c0-.8-.7-1.5-1.5-1.5h-19.6c-.8 0-1.5.7-1.5 1.5v19.6c0 .8.7 1.5 1.5 1.5h19.6c.8 0 1.5-.7 1.5-1.5z" fill="#fff"/>
        <path d="M285.4 408h-18.8c-1.5 0-2.6-1.1-2.6-2.6v-18.8c0-1.5 1.1-2.6 2.6-2.6h18.8c1.5 0 2.6 1.1 2.6 2.6v18.8c0 1.5-1.1 2.6-2.6 2.6m1.3-2.6v-18.8c0-.7-.6-1.3-1.3-1.3h-18.8c-.7 0-1.3.6-1.3 1.3v18.8c0 .7.6 1.3 1.3 1.3h18.8c.7 0 1.3-.6 1.3-1.3z" fill="#f30"/>
        <path d="M267.7 395.2h.7c.6 0 .7-.1.7-1.3 0-1.3-.1-1.5-.7-1.5h-.7v2.8m-1.1-3.7h1.7c1.6 0 1.8.6 1.8 2.3 0 1.4-.1 1.7-1 1.9.7.1 1 .3 1 1.9 0 1.5-.2 2-1.6 2h-1.9v-8.1m1.1 7.2h.5c.7 0 .8-.2.8-1.1 0-1.4 0-1.5-.7-1.5h-.6zM272 398.6h.5c.7 0 .8-.1.8-1.3s-.1-1.3-1-1.3h-.3v2.6m-1.1-7.1h1.1v3.5h.4c.7 0 .8-.2.8-.9v-1.8c0-.4.1-.6.2-.8h1c-.1.4-.1.8-.1 1.1v1.7c0 .8-.2 1.1-1 1.2.9.3 1.1.8 1.1 1.9 0 1.7-.2 2.2-1.8 2.2h-1.7zM275.2 399.6h3v-1h-1.9v-2.5h1.8v-.9h-1.8v-2.7h1.9v-1h-3zM278.4 399.6h1.2l.8-6.6.9 6.6h1.5l.7-6.6 1 6.6h1l-1.4-8.1h-1.4l-.7 6.7-1-6.7h-1.3zM283.8 402v-.1h-.4v-1.5h-.2v1.5h-.4v.1zM284.2 400.4h-.2v1.6h.4l.4-1.3.4 1.3h.3v-1.6h-.2v1.5l-.4-1.5h-.2l-.5 1.5z" fill="#f30"/>
    </g>
</svg>
