<svg xmlns="http://www.w3.org/2000/svg" height="24" width="24">
    <g transform="matrix(1,0,0,-1,-264,408)" id="KDDI_D_">        <path d="M287.3 386.2c0-.8-.7-1.5-1.5-1.5h-19.6c-.8 0-1.5.7-1.5 1.5v19.6c0 .8.7 1.5 1.5 1.5h19.6c.8 0 1.5-.7 1.5-1.5z" fill="#fff"/>
        <path d="M269.3 395.3c0 .2.2.3.4.3.5 0 .3-.7 1.3-1.4 1.2-.8 2.6-1.4 2.6-3.1 0-1.3-1.3-2.3-1.9-2.3-.2 0-.3.1-.3.2 0 .3 1.1.7 1.1 1.7 0 1.1-.9 1.8-2.4 2.9v-5.4c0-.9-1.1-1.7-2.3-1.7-.8 0-1.3.3-1.3.9 0 .7 1.1 1.4 2.4 1.4h.4z" fill="#f30"/>
        <path d="M285.4 408h-18.8c-1.5 0-2.6-1.1-2.6-2.6v-18.8c0-1.5 1.1-2.6 2.6-2.6h18.8c1.5 0 2.6 1.1 2.6 2.6v18.8c0 1.5-1.1 2.6-2.6 2.6m-3.6-4.3c.8 0 1.5-.6 1.5-1.4 0-.8-.7-1.5-1.5-1.5s-1.4.7-1.4 1.5.6 1.4 1.4 1.4m-15.2-18.4c-.7 0-1.3.6-1.3 1.3v9.2c.8.5 1.6.8 2.5 1 3.1.5 6.2-1.2 7.4-4.1.1-.2.2-.3.4-.4 0 0 .8-.3 1.6-.7-.6-.5-1.3-1.1-1.3-1.1-.1-.2-.2-.3-.2-.5-.1-1.8-.8-3.5-2.1-4.7h-7m20.1 1.3c0-.7-.6-1.3-1.3-1.3h-9.9c.9 1.3 1.5 2.8 1.6 4.3.3.3 1.9 1.8 1.9 1.8.1.1.2.3.2.5v.1c0 .3-.2.5-.4.5 0 0-2 .8-2.4 1-1.6 3.4-5.2 5.3-8.8 4.7-.8-.1-1.6-.4-2.3-.7v7.9c0 .7.6 1.3 1.3 1.3h12.5c-.9-1.3-1.5-2.6-1.9-4.1-.3-.2-2.9-1.8-2.9-1.8-.1-.1-.2-.2-.2-.4s0-.4.2-.4c0 0 2.2-1.5 2.6-1.7.1-1.4.5-2.7.9-3.6.2-.2.4-.3.6-.2 0 0 4.2 1.2 5.8 1.7-.9-1.5-3.3-5.7-3.3-5.7v-.2c0-.2 0-.3.1-.4 1.6-1.4 3.6-2.4 5.7-2.9z" fill="#f30"/>
    </g>
</svg>
