<svg xmlns="http://www.w3.org/2000/svg" height="24" width="24">
    <g transform="matrix(1,0,0,-1,-264,408)" id="KDDI_D_">        <path d="M287.3 386.2c0-.8-.7-1.5-1.5-1.5h-19.6c-.8 0-1.5.7-1.5 1.5v19.6c0 .8.7 1.5 1.5 1.5h19.6c.8 0 1.5-.7 1.5-1.5z" fill="#fff"/>
        <path d="M285.4 408h-18.8c-1.5 0-2.6-1.1-2.6-2.6v-18.8c0-1.5 1.1-2.6 2.6-2.6h18.8c1.5 0 2.6 1.1 2.6 2.6v18.8c0 1.5-1.1 2.6-2.6 2.6m1.3-2.6v-18.8c0-.7-.6-1.3-1.3-1.3h-18.8c-.7 0-1.3.6-1.3 1.3v18.8c0 .7.6 1.3 1.3 1.3h18.8c.7 0 1.3-.6 1.3-1.3z" fill="#f30"/>
        <path d="M272.2 389.3c0 .7-.1 1.7-.1 2.6-.2-.8-.5-1.7-.7-2.5l-.8-2.5h-1.1l-.7 2.5c-.2.7-.4 1.7-.6 2.5-.1-.9-.1-1.9-.1-2.7l-.2-2.4h-1.3l.4 6.4h1.9l.7-2.1c.2-.8.4-1.6.5-2.3h.1c.1.7.4 1.6.6 2.3l.7 2.1h1.9l.3-6.4h-1.4zM274.9 388.3c.4-.2 1-.4 1.6-.4.7 0 1 .3 1 .7 0 .4-.3.6-1 .9-1.1.4-1.8 1-1.8 1.9 0 1.1.9 1.9 2.4 1.9.8 0 1.3-.1 1.7-.3l-.4-1.1c-.2.1-.7.3-1.3.3-.6 0-.9-.3-.9-.7 0-.4.3-.6 1.2-.9 1.1-.4 1.6-1 1.6-1.9 0-1.1-.8-2-2.6-2-.7 0-1.4.2-1.8.4zM277.6 407.2h-.7c.1-.2.1-.3.1-.5v-.1c-.3-1.1-1-2.1-2.2-2.7-.3-.2-.7-.4-1-.6.2 1.1.3 2.2.3 3.2.4.2.7.4 1 .7h-.7c-.1-.1-.2-.2-.3-.2-.1.1-.1.1-.1.2h-.4v-.4c-1.3-.6-3-.7-4.8-.3l.1.7h-.4l-.2-.6c-.6.1-1.1.4-1.7.6h-.9c.8-.4 1.6-.8 2.5-1l-.7-3.1c-1 .3-1.9.6-2.7 1.1v-.5c.8-.4 1.7-.8 2.6-1l-.6-2.8c-.7.2-1.4.4-2 .7v-.5c.6-.2 1.2-.5 1.9-.6l-.3-1.2c-.6.1-1.1.3-1.6.6v-.9c1.1-.5 2.4-.7 3.7-.7 5 0 9.1 4.1 9.1 9.1v.8m-8.9-1.1c1.8-.4 3.6-.3 4.9.2.1-1-.1-2.1-.3-3.1-1.6-.6-3.5-.6-5.4-.2l.8 3.1m-.9-3.5c1.9-.4 3.8-.4 5.4.1-.3-1-.7-2-1.1-2.8-1.5-.4-3.2-.5-4.9-.1l.6 2.8m3.3-4.2c-1.4-.4-2.8-.5-4.3-.2l.3 1.2c1.6-.4 3.2-.4 4.7-.1-.2-.3-.4-.6-.7-.9m1.9.8c-.4-.2-.8-.4-1.2-.5.2.2.4.5.6.8.7.2 1.4.5 2 .9h.1l-1.5-1.2m3.7 5.3c-.1-.8-.4-1.6-.9-2.3-.4-.5-.9-1-1.6-1.4-.5-.3-1-.6-1.6-.8.5.9.8 1.8 1.1 2.8.5.2.9.4 1.4.7.8.5 1.4 1.1 1.8 1.8 0-.2-.1-.5-.2-.8z" fill="#f30"/>
        <path d="M287.4 392.5c-.1 0-.1 0-.1-.1-.5-.1-1.1-.1-1.6-.1.2.1.3.3.3.5.1.2 0 .5-.1.7.5.3 1 .6 1.5 1v.5c-.6-.4-1.2-.8-1.8-1.1-.3.3-.8.6-1.3.7l.6 2.6c1-.3 1.9-.8 2.5-1.4v.6c-.7.5-1.5.9-2.4 1.2l.7 2.9c.6-.1 1.1-.3 1.7-.6v.5c-.5.2-1.1.4-1.6.6l.7 3c.3-.1.6-.1.9-.2v.4c-.3.1-.5.2-.8.2l.6 2.7h-.4l-.6-2.6c-1.9.4-3.8.4-5.4-.1.3 1 .6 1.9 1.1 2.7h-1.6c-.3-.1-.5-.2-.7-.4.1.1.2.3.4.4h-1c-1.6-1.7-2.6-3.9-2.6-6.4 0-5 4.1-9.1 9.1-9.1.7 0 1.3 0 1.9.2v.7m-3.6 2.2c-.5.1-1.1.1-1.5 0-.5.7-.9 1.4-1.3 2.3.9.4 2.2.5 3.4.3l-.6-2.6m.7 3c-1.3.3-2.6.2-3.6-.3-.3.9-.5 1.9-.5 2.9 1.3.6 3 .7 4.8.3l-.7-2.9m1.6 6.4l-.8-3c-1.8.4-3.6.2-4.9-.3-.1 1 .1 2.1.3 3.2 1.6.5 3.5.5 5.4.1m-8.8-1.4c.2.8.5 1.5.9 2.2.4.6.9 1 1.6 1.4.5.3 1 .6 1.6.8-.4-.9-.8-1.8-1-2.8-.5-.2-1-.4-1.4-.7-.9-.5-1.5-1.1-1.9-1.8 0 .3.1.6.2.9m.3-5.1c-.3.9-.5 1.8-.6 2.8 0 0 0 .1.1.1.2 1.1 1 2.1 2.1 2.8.3.2.7.3 1 .5-.2-1-.3-2.1-.3-3.2-1.1-.6-1.9-1.4-2.2-2.5 0-.2-.1-.3-.1-.5m1.8-2.8c-.5.5-.9 1.1-1.3 1.8-.1.4-.1.9 0 1.4.2.9.9 1.6 1.9 2.1 0-1 .2-2 .5-2.9-.5-.4-.9-.9-1.1-1.5v-.9m2.1-1.5c-.5.2-.9.5-1.3.8-.3.5-.4 1.1-.3 1.5.1.5.4.9.8 1.2.3-.9.7-1.6 1.2-2.3-.2-.2-.4-.4-.5-.6 0-.2 0-.4.1-.6m4.1-.4c-.1-.2-.2-.3-.3-.4-.4-.3-1.1-.3-1.8-.2-.7.2-1.3.6-1.5 1-.2.2-.2.3-.1.5 0 .1.1.2.3.4.4.2 1.1.2 1.7.1.7-.2 1.3-.6 1.6-1 .1-.1.1-.3.1-.4z" fill="#f30"/>
    </g>
</svg>
