<svg xmlns="http://www.w3.org/2000/svg" height="24" width="24">
    <g transform="matrix(1,0,0,-1,-264,408)" id="KDDI_D_">        <path d="M288 384h-24v24h24z" fill="#fff"/>
        <path d="M275.9 399.4v-6.8h1.6v6.8zM284.4 393.5c.6-1 1.5-1 1.8-1 1.1 0 1.8.7 1.8 1.6v5.3h-1.6v-4.9c0-.3-.1-.5-.3-.5-.2 0-.4.2-.5.4l-2.4 4c-.6 1.1-1.6 1.1-1.8 1.1-1.2 0-1.8-.8-1.8-1.7v-5.2h1.5v4.8c0 .3.2.5.4.5s.3-.2.5-.4zM272.2 399.4v-4.1c0-.7-.5-1.2-1.2-1.2s-1.3.5-1.3 1.2v4.1h-1.6v-4.1c0-.7-.5-1.2-1.2-1.2s-1.3.5-1.3 1.2v4.1H264v-4.1c0-1.6 1.3-2.8 2.9-2.8.8 0 1.5.3 2 .8.5-.5 1.3-.8 2.1-.8 1.6 0 2.8 1.2 2.8 2.8v4.1z"/>
    </g>
</svg>
