<svg xmlns="http://www.w3.org/2000/svg" height="24" width="24">
    <g transform="matrix(1,0,0,-1,-264,408)" id="KDDI_D_">        <path d="M288 386c0-1.1-.9-2-2-2h-20c-1.1 0-2 .9-2 2v20c0 1.1.9 2 2 2h20c1.1 0 2-.9 2-2z" fill="#f60"/>
        <path d="M273.6 406.7l-.1-1.1v-.8c-.3-2.9-1.3-6.7-6.3-7.9l-.7 1.8c4 .7 5 3.2 5.3 6.1h-5.9v1.9zM275.7 406.7c-1 0-1.8-.9-1.8-2 0-1.2.8-2.1 1.8-2.1s1.8.9 1.8 2.1c0 1.1-.8 2-1.8 2m0-3.2c-.6 0-1 .5-1 1.2 0 .6.4 1.1 1 1.1.5 0 1-.5 1-1.1 0-.7-.5-1.2-1-1.2zM280 399c.6.1 1.8.2 2.9 1.5 1.2 1.3 1.7 2.9 1.8 3.5l1.4-.9c-.8-2.6-2.4-6.2-7.7-6.2v9.8h1.6zM271.6 384.9c-2.2 1.1-4.5 1.5-6.8 1.6l.3 1.9c2.1-.1 4.3-.3 6.9-1.4l-.4-2.1m-.9 4.3c-1.7.8-3.5 1.2-5.4 1.3l.3 1.8c1.7 0 3.7-.5 5.4-1.2l-.3-1.9m.7 3.6c-1.7.7-3.3 1.1-6 1.4l.2 1.8c1.7-.1 4-.4 6.1-1.2zM272.5 386.6c.7.4 2.3 1.2 2.7 4 .1.9.1 1.7.1 2.4h1.5c0-.6 0-1-.1-1.7.7.5 1.4 1.1 1.8 2.5h-6.1v1.9h7.9c-.3-3.1-1.2-4.7-2.7-5.9l-.9 1.4c-.2-2.6-.8-4.5-3.3-6.2zM285 391.6c.9-1.7 1.6-3.7 2.2-5.7l-1.5-.9c-.1.7-.2.8-.3 1.1-.8-.2-1.7-.3-2.3-.3-1.9-.2-2.9-.3-3.7-.3l-.2 2.1c.1-.1.8 0 .9 0 1.1 5 1.3 5.8 1.6 8.4l1.6-.2-.1-.4c-1.1-5.5-1.1-5.6-1.7-7.8h1.3c.4 0 1.8.1 2.1.2-.6 1.7-.9 2.4-1.2 3z" fill="#fff"/>
    </g>
</svg>
