<?xml version="1.0" encoding="UTF-8" standalone="no"?>
<!DOCTYPE svg  PUBLIC '-//W3C//DTD SVG 1.1//EN'  'http://www.w3.org/Graphics/SVG/1.1/DTD/svg11.dtd'>
<!-- Created with Inkscape (http://www.inkscape.org/) -->
<svg id="svg2" xmlns:rdf="http://www.w3.org/1999/02/22-rdf-syntax-ns#" xmlns="http://www.w3.org/2000/svg" height="80.48" width="212.13" version="1.1" xmlns:dc="http://purl.org/dc/elements/1.1/">
 <g id="logo" transform="matrix(1.25 0 0 -1.25 140.04 64.347)">
  <path id="au" d="m0 0v-0.002 0.002zm-68.636 16.644c-0.864-3.234-2.157-6.18-3.841-8.755-5.044-7.711-11.724-10.682-16.378-10.948-5.038 0.245-5.567 3.219-3.533 10.81 7.016 26.232 22.827 32.161 30.395 33.719l-6.643-24.826zm114.4 12.037c-6.757-10.326-14.529-21.203-20.856-27.162-4.145-3.909-12.886-9.466-9.38 3.643 1.003 3.75 11.528 43.083 11.528 43.083-2.825 0-16.88 0.76-21.579-16.767 0 0-2.986-11.129-4.251-15.821-0.854-2.847-2.045-5.458-3.558-7.768-5.043-7.711-11.724-10.682-16.378-10.948h-0.002c-2.731 0.132-4.04 1.101-4.512 3.063-0.467 1.905 0.468 5.822 0.977 7.729l10.839 40.512c-1.51 0.021-16.701 1.418-21.578-16.767l-5.137-19.091c-0.343-1.162-1.218-3.53-2.694-5.654-3.292-4.742-9.142-9.795-12.243-9.795-2.208 0-3.083 2.532-1.561 8.224l11.527 43.083h-5.112c-18.078 0-30.958-2.914-40.528-9.167-16.051-10.478-20.101-31.228-20.101-35.496 0-4.555 1.402-14.082 17.203-14.082 9.862 0 16.823 5.181 21.004 9.957 0.16 0.184 0.32 0.369 0.478 0.552 0.331-2.248 1.116-4.698 2.8-6.667 2.084-2.432 6.022-3.842 9.796-3.842 8.322 0 15.43 5.581 19.211 10.496l0.004-0.016c0.979-4.708 4.552-10.487 16.858-10.487 9.861 0 16.822 5.18 21.002 9.958 0.159 0.182 0.319 0.362 0.472 0.545 0.333-2.243 1.117-4.688 2.8-6.654l0.18-0.193 0.051-0.055c2.076-2.218 6.131-3.591 9.424-3.591 7.149 0 14.191 4.089 20.123 10.344 7.698 8.122 17.816 22.756 21.898 28.834" fill="#EA5404"/>
 </g>
</svg>
