<?xml version="1.0" encoding="UTF-8" standalone="no"?>
<!-- Created with Inkscape (http://www.inkscape.org/) -->
<svg
   xmlns:svg="http://www.w3.org/2000/svg"
   xmlns="http://www.w3.org/2000/svg"
   version="1.0"
   width="300"
   height="385"
   id="svg2"
   xml:space="preserve"><defs
     id="defs5" /><g
     transform="matrix(1.25,0,0,-1.25,-405.17386,916.3872)"
     id="g11"><path
       d="M 371.06933,702.72349 C 371.06933,718.71089 403.80809,731.66271 444.19146,731.66271 C 484.57988,731.66271 517.31358,718.71089 517.31358,702.72349 C 517.31358,686.74115 484.57988,673.77921 444.19146,673.77921 C 403.80809,673.77921 371.06933,686.74115 371.06933,702.72349"
       id="path1011"
       style="fill:#fcc707;fill-opacity:1;fill-rule:nonzero;stroke:none" /><path
       d="M 379.79916,519.67989 C 374.19851,515.60715 371.07186,510.95765 371.07186,506.01471 C 371.07186,490.03237 403.80556,477.07549 444.19399,477.07549 C 484.57735,477.07549 517.31611,490.03237 517.31611,506.01471 C 517.31611,510.96777 514.17428,515.63751 508.63434,519.71025 C 503.1197,523.78299 499.98799,528.43755 499.98799,533.38049 C 499.98799,538.39932 503.22595,543.05388 508.90755,547.17215 C 514.27547,551.19936 517.31611,555.78814 517.31611,560.6552 C 517.31611,565.48177 514.35642,570.03009 509.07956,574.032 C 503.33219,578.16039 500.03859,582.91613 500.03859,587.96532 C 500.03859,592.82731 503.05899,597.43128 508.41679,601.45343 C 514.08827,605.56664 517.31611,610.28191 517.31611,615.30074 C 517.31611,631.28308 484.57735,644.23996 444.19399,644.23996 C 403.80556,644.23996 371.07186,631.28308 371.07186,615.30074 C 371.07186,610.28191 374.29464,605.56664 379.96612,601.45343 C 385.3138,597.43128 388.33927,592.82731 388.33927,587.96532 C 388.33927,582.91613 385.15696,578.16545 379.41465,574.032 C 374.05179,570.03009 371.07186,565.48177 371.07186,560.6552 C 371.07186,555.80838 374.09732,551.25501 379.42477,547.23792 C 385.11143,543.12471 388.33927,538.39932 388.33927,533.38049 C 388.33927,528.43755 385.31886,523.74757 379.79916,519.67989"
       id="path1015"
       style="fill:#fcc707;fill-opacity:1;fill-rule:nonzero;stroke:none" /><path
       d="M 377.88472,426.55681 L 377.88472,443.88999 C 377.88472,447.06217 371.8945,449.66265 364.57369,449.66265 L 324.63554,449.66265 L 324.63554,426.55681 L 337.95163,426.55681 L 337.95163,443.9507 L 344.68051,443.9507 L 344.68051,432.33454 L 357.84482,432.33454 L 357.84482,443.9507 L 364.57369,443.9507 L 364.57369,426.55681 L 377.88472,426.55681 z"
       id="path1019"
       style="fill:#fcc707;fill-opacity:1;fill-rule:nonzero;stroke:none" /><path
       d="M 439.87081,432.33505 L 439.87081,443.8905 C 439.87081,447.06268 433.88059,449.66317 426.55978,449.66317 L 413.24875,449.66317 C 405.92794,449.66317 399.93772,447.06268 399.93772,443.8905 L 399.93772,432.33505 C 399.93772,429.15781 405.92794,426.55732 413.24875,426.55732 L 426.55978,426.55732 C 433.88059,426.55732 439.87081,429.15781 439.87081,432.33505 M 426.55978,432.26928 L 413.24875,432.26928 L 413.24875,443.95121 L 426.55978,443.95121 L 426.55978,432.26928 z"
       id="path1023"
       style="fill:#fcc707;fill-opacity:1;fill-rule:nonzero;stroke:none" /><path
       d="M 501.75673,432.33505 L 501.75673,443.8905 C 501.75673,447.06268 495.76651,449.66317 488.4457,449.66317 L 461.82364,449.66317 L 461.82364,426.55732 L 488.4457,426.55732 C 495.76651,426.55732 501.75673,429.15781 501.75673,432.33505 M 488.4457,432.26928 L 475.13467,432.26928 L 475.13467,443.95121 L 488.4457,443.95121 L 488.4457,432.26928 z"
       id="path1027"
       style="fill:#fcc707;fill-opacity:1;fill-rule:nonzero;stroke:none" /><path
       d="M 563.64264,426.55681 L 563.64264,432.26876 L 537.02058,432.26876 L 537.02058,435.28917 L 556.9846,435.28917 L 556.9846,440.93535 L 537.02058,440.93535 L 537.02058,443.9507 L 563.64264,443.9507 L 563.64264,449.66265 L 537.02058,449.66265 C 529.69471,449.66265 523.70449,447.06217 523.70449,443.88999 L 523.70449,432.33454 C 523.70449,429.15729 529.69471,426.55681 537.02058,426.55681 L 563.64264,426.55681 z"
       id="path1031"
       style="fill:#fcc707;fill-opacity:1;fill-rule:nonzero;stroke:none" /><path
       d="M 537.25483,484.86988 L 534.44186,484.86988 L 534.44186,494.81141 L 528.88168,494.81141 L 528.88168,496.97174 L 542.83524,496.97174 L 542.83524,494.81141 L 537.25483,494.81141 L 537.25483,484.86988 z"
       id="path1035"
       style="fill:#fcc707;fill-opacity:1;fill-rule:nonzero;stroke:none" /><path
       d="M 547.66688,496.96968 L 549.94357,496.96968 L 555.64034,489.65393 L 561.22076,496.96968 L 563.47215,496.96968 L 563.47215,484.86782 L 560.87166,484.86782 L 560.87166,492.35054 C 560.87166,492.58326 560.8919,493.00824 560.96273,493.64066 C 560.70471,493.09931 560.47198,492.65409 560.25949,492.37077 L 555.71117,486.3249 L 555.14959,486.3249 L 550.59622,492.39607 C 550.31796,492.77046 550.05993,493.17014 549.87274,493.64066 C 549.91827,493.14991 549.94357,492.75022 549.94357,492.35054 L 549.94357,484.86782 L 547.66688,484.86782 L 547.66688,496.96968 z"
       id="path1047"
       style="fill:#fcc707;fill-opacity:1;fill-rule:nonzero;stroke:none" /></g></svg>