<svg xmlns="http://www.w3.org/2000/svg" width="24" height="24">
	<g transform="translate(-288,-252)" id="KDDI_D_195">
		<path style="stroke:none; fill:#000" d="M 288.7 252.7C 287.4 253.9 288 260.8 289.5 262C 290.3 262.7 291 263.9 291 264.6C 291 265.4 290.3 266 289.5 266C 288.4 266 288 267.2 288 271C 288 275.7 288.1 276 290 274.8C 291.5 273.8 292.2 273.8 293.2 274.8C 293.8 275.4 296.9 276 300 276C 303.1 276 306.2 275.4 306.8 274.8C 307.8 273.8 308.5 273.8 310 274.8C 311.9 276 312 275.7 312 271C 312 267.2 311.6 266 310.5 266C 308.6 266 308.6 264.3 310.6 262.3C 311.6 261.3 312 259.4 311.8 256.7C 311.5 252 309.8 250.9 308.2 254.2L 307.1 256.5L 307.1 254.2C 307 251.3 305.2 251.4 303.8 254.5C 303.2 255.9 302.3 257 301.8 257C 301.4 257 301 258.3 301 260C 301 261.6 300.6 263 300 263C 299.5 263 299 261.6 299 260C 299 258.3 298.6 257 298.2 257C 297.7 257 296.8 255.9 296.2 254.5C 294.8 251.4 293 251.3 292.9 254.2L 292.9 256.5L 291.8 254.2C 290.7 251.9 289.8 251.5 288.7 252.7zM 297 261.5C 297 262.3 296.6 263 296 263C 295.5 263 295.3 262.3 295.6 261.5C 296 260.7 296.4 260 296.6 260C 296.8 260 297 260.7 297 261.5zM 304.4 261.5C 304.7 262.3 304.5 263 304 263C 303.4 263 303 262.3 303 261.5C 303 260.7 303.2 260 303.4 260C 303.6 260 304 260.7 304.4 261.5zM 300 264.9C 296.9 265.4 296.5 265.9 296.2 268.7C 296 270.5 295.4 272 294.9 272C 293.3 272 292.9 269.5 293.9 266.7C 294.8 264.3 295.5 264 299.2 264.1L 303.5 264.3L 300 264.9zM 291.7 268.6C 291.4 268.9 290.5 269 289.8 268.7C 289 268.4 289.3 268.1 290.4 268.1C 291.5 268 292.1 268.3 291.7 268.6zM 310.7 268.6C 310.4 268.9 309.5 269 308.8 268.7C 308 268.4 308.3 268.1 309.4 268.1C 310.5 268 311.1 268.3 310.7 268.6z"/>
	</g>
</svg>
