<svg xmlns="http://www.w3.org/2000/svg" width="24" height="24">
	<g transform="translate(-288,-252)" id="KDDI_D_340">
			<path style="stroke:none; fill:#000" d="M 301.1 253.6C 301.1 254.7 301.4 255 301.7 254.2C 302 253.5 301.9 252.6 301.6 252.3C 301.3 251.9 301 252.5 301.1 253.6z"/>
			<path style="stroke:none; fill:#000" d="M 295.8 256.2C 296.3 256.7 297.4 257 298.1 256.8C 298.9 256.5 298.4 256.1 297.1 255.7C 295.4 255.3 295 255.4 295.8 256.2z"/>
			<path style="stroke:none; fill:#000" d="M 302.8 255.7C 301.8 255.9 301 256.5 301 257C 301 257.4 298.3 260.4 295 263.7C 289.3 269.3 289.1 269.6 289.9 273L 290.8 276.5L 290.9 273.5C 291 271.3 292.2 269.2 295.5 266L 300 261.6L 304.5 266C 307.8 269.2 309 271.3 309.1 273.5L 309.2 276.5L 310 273C 310.8 269.7 310.6 269.2 306.4 265C 302 260.4 300.7 257 303.5 257C 304.3 257 305 256.5 305 256C 305 255.4 304.9 255.1 304.8 255.1C 304.6 255.2 303.7 255.4 302.8 255.7z"/>
			<path style="stroke:none; fill:#000" d="M 297.5 266C 297.2 266.5 297.4 267 297.9 267C 298.5 267 299 266.5 299 266C 299 265.4 298.8 265 298.6 265C 298.3 265 297.8 265.4 297.5 266z"/>
			<path style="stroke:none; fill:#000" d="M 297.7 272.7C 296.1 274.2 297.1 276 299.5 276C 301.3 276 302 275.5 302 274C 302 272 299.2 271.2 297.7 272.7z"/>
	</g>
</svg>
