<svg xmlns="http://www.w3.org/2000/svg" width="24" height="24">
	<g transform="translate(-288,-252)" id="KDDI_D_751">
		<path style="stroke:none; fill:#000" d="M 292.8 255.6C 289.4 257.4 288 259.9 288 264.3C 288 276.7 309.3 278.3 312.3 266.1C 313.2 262.6 310.6 257.4 307.1 255.6C 303.3 253.6 296.4 253.6 292.8 255.6zM 306.7 257.6C 308 258.4 309.2 260.1 309.6 261.5C 311.2 267.9 306.7 272.6 299.1 272.4C 295.4 272.3 294.2 271.7 291.8 269.1C 290.3 267.4 289 265.1 289 264.1C 289 261.8 292.6 257.1 295.4 255.9C 298 254.8 303.8 255.7 306.7 257.6z"/>
		<path style="stroke:none; fill:#000" d="M 295.2 264.2C 295.4 266 296 267.5 296.5 267.5C 297.1 267.5 297.6 266 297.8 264.2C 298.1 261.8 297.7 261 296.5 261C 295.3 261 294.9 261.8 295.2 264.2z"/>
		<path style="stroke:none; fill:#000" d="M 302.4 262.4C 301.6 264.4 302.3 267.1 303.5 267.3C 304.1 267.4 304.6 266 304.8 264.2C 305.1 261 303.4 259.7 302.4 262.4z"/>
	</g>
</svg>
