<svg xmlns="http://www.w3.org/2000/svg" width="24" height="24">
	<g transform="translate(-288,-252)" id="KDDI_D_813">
		<path style="stroke:none; fill:#000" d="M 290.4 254.7C 290.1 256.3 289.4 258.6 288.9 260C 287.6 263.5 288 272 289.5 272C 290.2 272 292.1 272.7 293.6 273.5C 297.4 275.5 301.4 275.4 307.3 273.3C 311.1 271.9 312 271.1 312.2 269.1C 312.5 264.7 312 260.6 311 259.6C 310.4 259 310 257.4 310 255.9C 310 252.4 308.4 251.4 306.1 253.4C 303.8 255.5 295.7 255.6 294 253.5C 292.2 251.3 291.1 251.7 290.4 254.7zM 296.9 257.5C 297.5 257.2 298 257.5 298 258.2C 298 259.1 298.3 259.1 299 258C 299.9 256.7 300.1 256.7 301 258C 301.7 259.1 302 259.2 302 258.2C 302 257.4 302.6 257 303.3 257.3C 303.9 257.5 305.3 257.1 306.3 256.2C 307.8 254.8 308 254.9 308 256.4C 308 257.3 308.7 259.2 309.6 260.6C 311.2 263 311.2 263.2 309.1 264.7C 307.5 265.8 306.9 267 307.3 268.7C 307.9 271.7 305.6 273 300 273C 295.1 273 291.9 271.5 292.6 269.6C 292.9 268.7 292.5 268.3 291.4 268.3C 290.5 268.4 289.5 267.9 289.3 267.2C 288.5 265 290.8 265.9 294 269C 297.2 272.1 300.6 272.8 304.1 271C 305.1 270.4 306 269.3 306 268.5C 306 267.3 304.6 267 299.8 267C 295.2 267 292.8 266.4 291.1 265.1C 288.7 263.3 288.7 263.1 290.3 260.6C 291.2 259.2 292 257.3 292 256.4C 292 254.8 292.1 254.8 293.9 256.4C 295 257.4 296.4 257.9 296.9 257.5zM 310.4 267.5C 310 268.3 309.3 268.7 308.8 268.4C 308.2 268 308.3 267.4 309.1 266.9C 311 265.7 311 265.8 310.4 267.5zM 303 269.2C 303 269.6 301.7 270 300 270C 298.4 270 297 269.7 297 269.2C 297 268.8 298.4 268.5 300 268.5C 301.7 268.4 303 268.8 303 269.2z"/>
		<path style="stroke:none; fill:#000" d="M 293.1 262.4C 292.2 263.5 292.5 263.7 294.5 263.7C 296.5 263.7 296.8 263.5 295.9 262.4C 295.3 261.6 294.6 261 294.5 261C 294.4 261 293.7 261.6 293.1 262.4z"/>
		<path style="stroke:none; fill:#000" d="M 304 262.5C 302.9 263.8 303.2 264 305.5 264C 307.8 264 308.1 263.8 307 262.5C 306.3 261.7 305.6 261 305.5 261C 305.4 261 304.7 261.7 304 262.5z"/>
	</g>
</svg>
